<svg width="24" height="24" viewBox="0 0 24 24" fill="none" xmlns="http://www.w3.org/2000/svg">
<g clip-path="url(#clip0_1943_305)">
<path d="M7.42857 0C3.32588 0 0 3.32588 0 7.42857V16.5714C0 20.6741 3.32588 24 7.42857 24H16.5714C20.6741 24 24 20.6741 24 16.5714V7.42857C24 3.32588 20.6741 0 16.5714 0H7.42857ZM15 6C16.6569 6 18 7.34315 18 9V15C18 16.6569 16.6569 18 15 18H9C7.34315 18 6 16.6569 6 15V9C6 7.34315 7.34315 6 9 6H15ZM13.0586 8.90075C12.858 8.91151 12.6888 9.05428 12.644 9.25013L11.7542 13.1411L11.089 11.0472C11.0342 10.8748 10.8815 10.7519 10.7013 10.7353C10.5212 10.7188 10.3486 10.8117 10.2633 10.9712L9.5796 12.2496H8.50005C8.25152 12.2496 8.05005 12.451 8.05005 12.6996C8.05005 12.9481 8.25152 13.1496 8.50005 13.1496H9.67447C9.94807 13.1496 10.1995 12.9989 10.3285 12.7577L10.5541 12.3359L11.3962 14.9864C11.4576 15.1798 11.6409 15.3081 11.8437 15.2997C12.0464 15.2913 12.2185 15.1482 12.2637 14.9504L13.1704 10.9853L13.7442 12.6496C13.8473 12.9488 14.1289 13.1496 14.4454 13.1496H15.5C15.7486 13.1496 15.95 12.9481 15.95 12.6996C15.95 12.451 15.7486 12.2496 15.5 12.2496H14.5583L13.5082 9.20344C13.4427 9.01351 13.2592 8.88999 13.0586 8.90075Z" fill="black"/>
</g>
<defs>
<clipPath id="clip0_1943_305">
<rect width="24" height="24" fill="white"/>
</clipPath>
</defs>
</svg>
