<svg width="24" height="24" viewBox="0 0 24 24" fill="none" xmlns="http://www.w3.org/2000/svg">
<path d="M24 7.42857C24 3.32588 20.6741 0 16.5714 0H7.42857C3.32588 0 0 3.32588 0 7.42857V16.5714C0 20.6741 3.32588 24 7.42857 24H16.5714C20.6741 24 24 20.6741 24 16.5714V7.42857ZM8.22229 5.5H15.7778C16.8824 5.5 17.7778 6.39543 17.7778 7.5V16.5C17.7778 17.6046 16.8824 18.5 15.7778 18.5H8.22229C7.11772 18.5 6.22229 17.6046 6.22229 16.5L6.22225 15.4889H5.50003C5.16866 15.4889 4.90003 15.2203 4.90003 14.8889C4.90003 14.5575 5.16866 14.2889 5.50003 14.2889H6.22229L6.22225 9.71108H5.50003C5.16866 9.71108 4.90003 9.44246 4.90003 9.11108C4.90003 8.77971 5.16866 8.51108 5.50003 8.51108H6.22229V7.5C6.22229 6.39543 7.11772 5.5 8.22229 5.5ZM15.4032 14.435C15.2073 13.3182 14.2593 12.4661 13.1115 12.4661H10.8877L10.7937 12.468C9.68581 12.5132 8.78225 13.3529 8.59472 14.4429C8.58932 14.4742 8.58578 14.5268 8.5841 14.6004L8.58394 14.6148C8.58394 14.9656 8.86945 15.25 9.22164 15.25H14.7768L14.7904 15.2499C15.1425 15.2424 15.4219 14.9519 15.4144 14.6012C15.4126 14.5233 15.4089 14.4679 15.4032 14.435ZM11.9992 11.8275C12.9423 11.8275 13.7069 11.0578 13.7069 10.1082C13.7069 9.15868 12.9423 8.38892 11.9992 8.38892C11.0561 8.38892 10.2916 9.15868 10.2916 10.1082C10.2916 11.0578 11.0561 11.8275 11.9992 11.8275Z" fill="black"/>
</svg>
