<svg width="24" height="24" viewBox="0 0 24 24" fill="none" xmlns="http://www.w3.org/2000/svg">
<path d="M16.5714 24C20.6741 24 24 20.6741 24 16.5714V7.42857C24 3.32588 20.6741 0 16.5714 0H7.42857C3.32588 0 0 3.32588 0 7.42857V16.5714C0 20.6741 3.32588 24 7.42857 24H16.5714ZM6 9C6 7.34315 7.34315 6 9 6H15C16.6569 6 18 7.34315 18 9V15C18 16.6569 16.6569 18 15 18H9C7.34315 18 6 16.6569 6 15V9ZM12.0001 16.0001C14.2093 16.0001 16.0001 14.2093 16.0001 12.0001C16.0001 9.79099 14.2093 8.00012 12.0001 8.00012C9.79099 8.00012 8.00012 9.79099 8.00012 12.0001C8.00012 14.2093 9.79099 16.0001 12.0001 16.0001ZM11.9999 12.6667C11.6317 12.6667 11.3333 12.3683 11.3333 12.0001C11.3333 11.6319 11.6317 11.3334 11.9999 11.3334C12.3681 11.3334 12.6666 11.6319 12.6666 12.0001C12.6666 12.3683 12.3681 12.6667 11.9999 12.6667Z" fill="black"/>
</svg>
