<svg width="24" height="24" viewBox="0 0 24 24" fill="none" xmlns="http://www.w3.org/2000/svg">
<path d="M16.5714 24C20.6741 24 24 20.6741 24 16.5714V7.42857C24 3.32588 20.6741 0 16.5714 0H7.42857C3.32588 0 0 3.32588 0 7.42857V16.5714C0 20.6741 3.32588 24 7.42857 24H16.5714ZM6.99922 11.2H11.9992C12.441 11.2 12.7992 11.5581 12.7992 12C12.7992 12.4418 12.441 12.8 11.9992 12.8H6.99922C6.55739 12.8 6.19922 12.4418 6.19922 12C6.19922 11.5581 6.55739 11.2 6.99922 11.2ZM6.19922 7.99995C6.19922 7.55813 6.55739 7.19995 6.99922 7.19995H16.9992C17.441 7.19995 17.7992 7.55813 17.7992 7.99995C17.7992 8.44178 17.441 8.79995 16.9992 8.79995H6.99922C6.55739 8.79995 6.19922 8.44178 6.19922 7.99995ZM6.99922 15.2H16.9992C17.441 15.2 17.7992 15.5581 17.7992 16C17.7992 16.4418 17.441 16.8 16.9992 16.8H6.99922C6.55739 16.8 6.19922 16.4418 6.19922 16C6.19922 15.5581 6.55739 15.2 6.99922 15.2Z" fill="black"/>
</svg>
