<svg width="24" height="24" viewBox="0 0 24 24" fill="none" xmlns="http://www.w3.org/2000/svg">
<path d="M7.42857 0C3.32588 0 0 3.32588 0 7.42857V16.5714C0 20.6741 3.32588 24 7.42857 24H16.5714C20.6741 24 24 20.6741 24 16.5714V7.42857C24 3.32588 20.6741 0 16.5714 0H7.42857ZM14.3278 8.34507C14.3278 9.35777 13.6891 10.2205 12.7945 10.5487V17.1309C14.7182 16.7948 16.2387 15.2678 16.5711 13.3282H15.8257C15.3839 13.3282 15.0257 12.97 15.0257 12.5282C15.0257 12.0863 15.3839 11.7282 15.8257 11.7282H17.4389C17.8807 11.7282 18.2389 12.0863 18.2389 12.5282C18.2389 15.9885 15.4472 18.8 11.9944 18.8C8.54169 18.8 5.75 15.9885 5.75 12.5282C5.75 12.0863 6.10817 11.7282 6.55 11.7282H8.16317C8.605 11.7282 8.96317 12.0863 8.96317 12.5282C8.96317 12.97 8.605 13.3282 8.16317 13.3282H7.41776C7.75021 15.2678 9.27072 16.7949 11.1945 17.1309V10.5487C10.2998 10.2205 9.66113 9.35776 9.66113 8.34507C9.66113 7.04992 10.7058 6 11.9945 6C13.2831 6 14.3278 7.04992 14.3278 8.34507Z" fill="black"/>
</svg>
