<svg width="24" height="24" viewBox="0 0 24 24" fill="none" xmlns="http://www.w3.org/2000/svg">
<path d="M24 16.5714V7.42857C24 3.32589 20.6741 0 16.5714 0H7.42857C3.32588 0 0 3.32589 0 7.42857V16.5714C0 20.6741 3.32588 24 7.42857 24H16.5714C20.6741 24 24 20.6741 24 16.5714ZM8.23436 11.7657C7.92194 11.4533 7.92194 10.9468 8.23436 10.6344L11.4344 7.43436C11.7468 7.12195 12.2533 7.12195 12.5657 7.43436L15.7657 10.6344C16.0782 10.9468 16.0782 11.4533 15.7657 11.7657C15.4533 12.0782 14.9468 12.0782 14.6344 11.7657L12 9.13142L9.36573 11.7657C9.05332 12.0782 8.54678 12.0782 8.23436 11.7657ZM8.23436 14.8343L11.4344 11.6343C11.7468 11.3219 12.2533 11.3219 12.5657 11.6343L15.7657 14.8343C16.0782 15.1467 16.0782 15.6533 15.7657 15.9657C15.4533 16.2781 14.9468 16.2781 14.6344 15.9657L12 13.3314L9.36573 15.9657C9.05332 16.2781 8.54678 16.2781 8.23436 15.9657C7.92194 15.6533 7.92194 15.1467 8.23436 14.8343Z" fill="black"/>
</svg>
