<svg width="24" height="24" viewBox="0 0 24 24" fill="none" xmlns="http://www.w3.org/2000/svg">
<path d="M0 16.5714C0 20.6741 3.32588 24 7.42857 24H16.5714C20.6741 24 24 20.6741 24 16.5714V7.42857C24 3.32588 20.6741 0 16.5714 0L7.42857 0C3.32588 0 0 3.32588 0 7.42857L0 16.5714ZM9.43353 15.4341L12.8678 11.9998L9.43353 8.56549C9.12111 8.25307 9.12111 7.74654 9.43353 7.43412C9.74595 7.1217 10.2525 7.1217 10.5649 7.43412L14.5649 11.4341C14.8773 11.7465 14.8773 12.2531 14.5649 12.5655L10.5649 16.5655C10.2525 16.8779 9.74595 16.8779 9.43353 16.5655C9.12111 16.2531 9.12111 15.7465 9.43353 15.4341Z" fill="black"/>
</svg>
