<svg width="24" height="24" viewBox="0 0 24 24" fill="none" xmlns="http://www.w3.org/2000/svg">
<path d="M7.42857 0C3.32588 0 0 3.32588 0 7.42857V16.5714C0 20.6741 3.32588 24 7.42857 24H16.5714C20.6741 24 24 20.6741 24 16.5714V7.42857C24 3.32588 20.6741 0 16.5714 0H7.42857ZM8.56569 9.43431L12 12.8686L15.4343 9.43431C15.7467 9.12189 16.2533 9.12189 16.5657 9.43431C16.8781 9.74673 16.8781 10.2533 16.5657 10.5657L12.5657 14.5657C12.2533 14.8781 11.7467 14.8781 11.4343 14.5657L7.43431 10.5657C7.1219 10.2533 7.1219 9.74673 7.43431 9.43431C7.74673 9.12189 8.25327 9.12189 8.56569 9.43431Z" fill="black"/>
</svg>
