<svg width="24" height="24" viewBox="0 0 24 24" fill="none" xmlns="http://www.w3.org/2000/svg">
<path d="M16.5714 24C20.6741 24 24 20.6741 24 16.5714V7.42857C24 3.32588 20.6741 0 16.5714 0L7.42857 0C3.32588 0 0 3.32588 0 7.42857L0 16.5714C0 20.6741 3.32588 24 7.42857 24H16.5714ZM15.4351 14.5655L12.0008 11.1312L8.56647 14.5655C8.25405 14.8779 7.74752 14.8779 7.4351 14.5655C7.12268 14.2531 7.12268 13.7465 7.4351 13.4341L11.4351 9.43412C11.7475 9.1217 12.254 9.1217 12.5665 9.43412L16.5665 13.4341C16.8789 13.7465 16.8789 14.2531 16.5665 14.5655C16.254 14.8779 15.7475 14.8779 15.4351 14.5655Z" fill="black"/>
</svg>
