<svg width="24" height="24" viewBox="0 0 24 24" fill="none" xmlns="http://www.w3.org/2000/svg">
<path d="M16.5716 24.0001C20.6742 24.0001 24.0001 20.6742 24.0001 16.5716V7.42869C24.0001 3.32601 20.6742 0.00012207 16.5716 0.00012207H7.42869C3.32601 0.00012207 0.00012207 3.32601 0.00012207 7.42869V16.5716C0.00012207 20.6742 3.32601 24.0001 7.42869 24.0001H16.5716ZM15.0364 9.052C14.7239 9.36437 14.2174 9.36428 13.905 9.05181L12.7864 7.93283V16.0716L13.9097 14.9482C14.2221 14.6358 14.7287 14.6358 15.0411 14.9482C15.3535 15.2607 15.3535 15.7672 15.0411 16.0796L12.5549 18.5658C12.4049 18.7158 12.2014 18.8001 11.9892 18.8001L11.9878 18.8001L11.9864 18.8001C11.7449 18.8001 11.5284 18.6931 11.3817 18.5239L8.93819 16.0795C8.62583 15.767 8.62591 15.2605 8.93839 14.9481C9.25086 14.6358 9.75739 14.6359 10.0698 14.9483L11.1864 16.0654V7.93054L10.065 9.0519C9.75261 9.36432 9.24608 9.36432 8.93366 9.0519C8.62124 8.73948 8.62124 8.23295 8.93366 7.92053L11.4198 5.43439C11.4708 5.38338 11.528 5.33997 11.5896 5.30489C11.6979 5.24323 11.8198 5.2073 11.9459 5.20106C11.9591 5.2004 11.9723 5.20008 11.9856 5.20008C12.2152 5.20008 12.4225 5.29685 12.5686 5.45184L15.0366 7.92063C15.3489 8.2331 15.3488 8.73964 15.0364 9.052Z" fill="black"/>
</svg>
