<svg width="24" height="24" viewBox="0 0 24 24" fill="none" xmlns="http://www.w3.org/2000/svg">
<path d="M16.5714 0L7.42857 0C3.32589 0 0 3.32588 0 7.42857L0 16.5714C0 20.6741 3.32589 24 7.42857 24H16.5714C20.6741 24 24 20.6741 24 16.5714V7.42857C24 3.32588 20.6741 0 16.5714 0ZM8.59661 11.2H17.3319C17.7737 11.2 18.1319 11.5582 18.1319 12C18.1319 12.4419 17.7737 12.8 17.3319 12.8H8.59661L11.2309 15.4344C11.5433 15.7468 11.5433 16.2533 11.2309 16.5657C10.9185 16.8782 10.412 16.8782 10.0996 16.5657L6.09955 12.5657C6.02285 12.489 5.96498 12.4006 5.92594 12.3063C5.88711 12.2126 5.86556 12.11 5.86524 12.0024L5.86524 12L5.86524 11.9976C5.86556 11.8901 5.88711 11.7875 5.92594 11.6938C5.96498 11.5995 6.02285 11.5111 6.09955 11.4344L10.0996 7.43436C10.412 7.12194 10.9185 7.12194 11.2309 7.43436C11.5433 7.74678 11.5433 8.25331 11.2309 8.56573L8.59661 11.2Z" fill="black"/>
</svg>
