<svg width="24" height="24" viewBox="0 0 24 24" fill="none" xmlns="http://www.w3.org/2000/svg">
<path d="M24 16.5714V7.42857C24 3.32589 20.6741 0 16.5714 0L7.42857 0C3.32589 0 0 3.32589 0 7.42857L0 16.5714C0 20.6741 3.32589 24 7.42857 24H16.5714C20.6741 24 24 20.6741 24 16.5714ZM12.7992 8.59832V17.3336C12.7992 17.7754 12.441 18.1336 11.9992 18.1336C11.5574 18.1336 11.1992 17.7754 11.1992 17.3336V8.59832L8.56491 11.2326C8.25249 11.5451 7.74595 11.5451 7.43353 11.2326C7.12112 10.9202 7.12112 10.4137 7.43353 10.1013L11.4335 6.10126C11.5102 6.02456 11.5986 5.96669 11.693 5.92765C11.7866 5.88882 11.8892 5.86726 11.9968 5.86695L11.9992 5.86695L12.0016 5.86695C12.1092 5.86726 12.2118 5.88882 12.3054 5.92765C12.3998 5.96669 12.4882 6.02456 12.5649 6.10126L16.5649 10.1013C16.8773 10.4137 16.8773 10.9202 16.5649 11.2326C16.2525 11.5451 15.746 11.5451 15.4335 11.2326L12.7992 8.59832Z" fill="black"/>
</svg>
