<svg width="24" height="24" viewBox="0 0 24 24" fill="none" xmlns="http://www.w3.org/2000/svg">
<path d="M0 16.5714C0 20.6741 3.32588 24 7.42857 24H16.5714C20.6741 24 24 20.6741 24 16.5714V7.42857C24 3.32588 20.6741 0 16.5714 0H7.42857C3.32588 0 0 3.32588 0 7.42857V16.5714ZM8.22122 14.8785C7.90886 15.191 7.40232 15.1911 7.08985 14.8787L4.77445 12.5641C4.62438 12.4141 4.54006 12.2106 4.54004 11.9984C4.54002 11.7862 4.62431 11.5827 4.77435 11.4326L7.08975 9.11723C7.40217 8.80481 7.9087 8.80481 8.22112 9.11723C8.53354 9.42965 8.53354 9.93618 8.22112 10.2486L7.25659 11.2131H11.2129V7.2569L10.2484 8.22143C9.93594 8.53385 9.42941 8.53385 9.11699 8.22143C8.80457 7.90901 8.80457 7.40248 9.11699 7.09006L11.4324 4.77466C11.5824 4.62461 11.7859 4.54033 11.9981 4.54035C12.2103 4.54036 12.4138 4.62469 12.5639 4.77476L14.8785 7.09016C15.1908 7.40263 15.1907 7.90916 14.8783 8.22153C14.5658 8.53389 14.0593 8.53381 13.7469 8.22133L12.8129 7.28701V11.2131H16.7389L15.7744 10.2486C15.4619 9.93618 15.4619 9.42965 15.7744 9.11723C16.0868 8.80481 16.5933 8.80481 16.9057 9.11723L19.2211 11.4326C19.3712 11.5827 19.4555 11.7862 19.4554 11.9984C19.4554 12.2106 19.3711 12.4141 19.221 12.5641L16.9056 14.8787C16.5932 15.1911 16.0866 15.191 15.7743 14.8785C15.4619 14.566 15.462 14.0595 15.7745 13.7471L16.7088 12.8131H12.8129V16.7091L13.7469 15.7748C14.0593 15.4623 14.5658 15.4622 14.8783 15.7746C15.1907 16.0869 15.1908 16.5935 14.8785 16.9059L12.5639 19.2213C12.4138 19.3714 12.2103 19.4557 11.9981 19.4558C11.7859 19.4558 11.5824 19.3715 11.4324 19.2214L9.11699 16.906C8.80457 16.5936 8.80457 16.0871 9.11699 15.7747C9.42941 15.4622 9.93594 15.4622 10.2484 15.7747L11.2129 16.7392V12.8131H7.28671L8.22103 13.7471C8.5335 14.0595 8.53359 14.566 8.22122 14.8785Z" fill="black"/>
</svg>
