<svg width="24" height="24" viewBox="0 0 24 24" fill="none" xmlns="http://www.w3.org/2000/svg">
<path d="M24 16.5714V7.42857C24 3.32588 20.6741 0 16.5714 0H7.42857C3.32588 0 0 3.32588 0 7.42857V16.5714C0 20.6741 3.32588 24 7.42857 24H16.5714C20.6741 24 24 20.6741 24 16.5714ZM15.7648 5.5C16.7967 5.5 17.64 6.32672 17.6969 7.36838L17.7 7.48078L17.6969 9.40087C17.4248 9.37021 17.1544 9.47175 16.9696 9.67399L16.4874 10.2019L16.4882 9.81018C16.4894 9.14218 15.9489 8.59963 15.2809 8.59835L15.2791 8.59835L7.42279 8.59542C6.75484 8.59529 6.21313 9.13653 6.2127 9.80449L6.20952 16.5181C6.20952 16.9027 6.49509 17.219 6.86104 17.257L6.93524 17.2609H15.7648C16.1405 17.2609 16.4496 16.9686 16.4867 16.594L16.4905 16.5181V15.6499L17.7 14.3191V16.5181C17.7 17.5743 16.8923 18.4374 15.8746 18.4957L15.7648 18.4988H6.93524C5.90329 18.4988 5.05999 17.6721 5.00306 16.6305L5 16.5181V7.48078C5 6.42455 5.80771 5.56141 6.82542 5.50314L6.93524 5.5H15.7648ZM18.6249 12.2037L18.4803 12.3459L17.0484 10.9141L17.2048 10.7601C17.6018 10.3692 18.2416 10.3781 18.6276 10.7799L18.6449 10.7979C19.0244 11.1929 19.0155 11.8197 18.6249 12.2037ZM13.9277 13.9869L16.5853 11.3701L18.0169 12.8016L15.3283 15.4455C15.2205 15.5577 15.0739 15.6207 14.9211 15.6207L13.7471 15.8676C13.6063 15.8972 13.4813 15.7729 13.51 15.6319L13.7587 14.4113C13.7587 14.2522 13.8193 14.0998 13.9277 13.9869ZM6.93359 10.9326C6.93359 10.5184 7.26938 10.1826 7.68359 10.1826H11.8557C12.2699 10.1826 12.6057 10.5184 12.6057 10.9326C12.6057 11.3468 12.2699 11.6826 11.8557 11.6826H7.68359C7.26938 11.6826 6.93359 11.3468 6.93359 10.9326ZM7.68359 12.4678H10.0972C10.5114 12.4678 10.8472 12.8036 10.8472 13.2178C10.8472 13.632 10.5114 13.9678 10.0972 13.9678H7.68359C7.26938 13.9678 6.93359 13.632 6.93359 13.2178C6.93359 12.8036 7.26938 12.4678 7.68359 12.4678Z" fill="black"/>
</svg>
