<svg width="24" height="24" viewBox="0 0 24 24" fill="none" xmlns="http://www.w3.org/2000/svg">
<path d="M16.5714 24C20.6741 24 24 20.6741 24 16.5714V7.42857C24 3.32588 20.6741 0 16.5714 0H7.42857C3.32588 0 0 3.32588 0 7.42857V16.5714C0 20.6741 3.32588 24 7.42857 24H16.5714ZM4.5792 6.46517C4.81539 6.23276 5.19528 6.23582 5.4277 6.47202L16.8491 18.0792C17.0815 18.3154 17.0784 18.6952 16.8422 18.9277C16.606 19.1601 16.2261 19.157 15.9937 18.9208L14.7302 17.6367H8.09726C7.20747 17.6367 6.48034 16.9239 6.43125 16.0257L6.42861 15.9288V9.20013L4.57235 7.31367C4.33993 7.07748 4.343 6.69759 4.5792 6.46517ZM10.8397 13.683L13.6798 16.5693H8.09726L8.03328 16.566C7.71775 16.5332 7.47152 16.2604 7.47152 15.9288L7.4742 10.2627L8.16177 10.9615C8.1492 11.0098 8.14252 11.0605 8.14252 11.1128C8.14252 11.4442 8.41115 11.7128 8.74252 11.7128H8.90108L9.65912 12.4832H8.74252C8.41115 12.4832 8.14252 12.7518 8.14252 13.0832C8.14252 13.4146 8.41115 13.6832 8.74252 13.6832H10.8237L10.8397 13.683ZM12.0614 11.7128L10.8614 10.5128H12.3399C12.6712 10.5128 12.9399 10.7814 12.9399 11.1128C12.9399 11.4442 12.6712 11.7128 12.3399 11.7128H12.0614ZM15.3434 14.9949L14.1114 13.7628C14.1163 13.7572 14.1213 13.7518 14.1265 13.7464L16.418 11.49L17.6523 12.7244L15.3434 14.9949ZM16.3334 15.9849L16.3362 15.9288V15.1803L17.3791 14.0328V15.9288C17.3791 16.2464 17.2944 16.5437 17.147 16.7984L16.3334 15.9849ZM9.44646 9.09791L7.10885 6.76029C7.36174 6.56968 7.66908 6.45035 8.00257 6.43126L8.09726 6.42855H15.7105C16.6003 6.42855 17.3274 7.14139 17.3765 8.03955L17.3791 8.13647L17.3765 9.79206C17.1418 9.76562 16.9086 9.85318 16.7494 10.0276L16.3336 10.4828L16.3342 10.145C16.3353 9.56901 15.8693 9.10119 15.2933 9.10009L15.2917 9.10009L9.44646 9.09791ZM18.0519 12.3314L16.8173 11.0968L17.2134 10.7068C17.4119 10.5113 17.7318 10.5158 17.9248 10.7167L18.4419 11.2549C18.6316 11.4524 18.6272 11.7658 18.4319 11.9578L18.0519 12.3314Z" fill="black"/>
</svg>
