<svg width="24" height="24" viewBox="0 0 24 24" fill="none" xmlns="http://www.w3.org/2000/svg">
<path d="M7.42857 0C3.32588 0 0 3.32588 0 7.42857V16.5714C0 20.6741 3.32588 24 7.42857 24H16.5714C20.6741 24 24 20.6741 24 16.5714V7.42857C24 3.32588 20.6741 0 16.5714 0H7.42857ZM5.79922 12C5.79922 15.4235 8.57565 18.2 11.9992 18.2C12.7907 18.2 13.5953 18.05 14.3734 17.7286C14.7817 17.5599 15.2495 17.7542 15.4182 18.1625C15.5869 18.5709 15.3926 19.0387 14.9842 19.2074C14.0068 19.6111 12.9941 19.7999 11.9992 19.7999C7.69199 19.7999 4.19922 16.3072 4.19922 12C4.19922 7.69272 7.69199 4.19995 11.9992 4.19995C16.3064 4.19995 19.7992 7.69272 19.7992 12V13.1662C19.7992 14.8165 18.4607 16.153 16.8124 16.153C15.6924 16.153 14.7156 15.5353 14.2044 14.6223C13.6089 15.1232 12.8401 15.425 12.0006 15.425C10.1084 15.425 8.57562 13.8922 8.57562 12C8.57562 10.1077 10.1084 8.57495 12.0006 8.57495C13.8928 8.57495 15.4256 10.1077 15.4256 12V13.1662C15.4256 13.9311 16.0474 14.553 16.8124 14.553C17.5777 14.553 18.1992 13.9322 18.1992 13.1662V12C18.1992 8.57638 15.4228 5.79995 11.9992 5.79995C8.57565 5.79995 5.79922 8.57638 5.79922 12ZM12.0006 10.175C10.992 10.175 10.1756 10.9914 10.1756 12C10.1756 13.0085 10.992 13.825 12.0006 13.825C13.0092 13.825 13.8256 13.0085 13.8256 12C13.8256 10.9914 13.0092 10.175 12.0006 10.175Z" fill="black"/>
</svg>
