<svg width="24" height="24" viewBox="0 0 24 24" fill="none" xmlns="http://www.w3.org/2000/svg">
<path d="M9.71742 10.4205C9.71742 11.8489 10.8527 13.007 12.2532 13.007C13.6537 13.007 14.789 11.8489 14.789 10.4205C14.789 8.99198 13.6537 7.83397 12.2532 7.83397C10.8527 7.83397 9.71742 8.99198 9.71742 10.4205Z" fill="black"/>
<path d="M7.42857 0C3.32588 0 0 3.32588 0 7.42857V16.5714C0 20.6741 3.32588 24 7.42857 24H16.5714C20.6741 24 24 20.6741 24 16.5714V7.42857C24 3.32588 20.6741 0 16.5714 0H7.42857ZM16.5606 17.6901C16.5742 17.7283 16.5805 17.7687 16.5792 17.8092C16.5742 17.9678 16.4556 18.0961 16.304 18.1186L16.2457 18.122L15.014 18.0824L14.1007 18.9155C14.069 18.9444 14.0318 18.9667 13.9914 18.9811C13.8419 19.0345 13.6792 18.9711 13.6027 18.8382L13.5782 18.7852L12.7093 16.3488C12.7464 16.3601 12.7831 16.3729 12.8195 16.3871L12.8891 16.4143C13.8909 16.8052 15.0221 16.3852 15.5432 15.4289L15.5795 15.3624C15.6084 15.3093 15.6402 15.258 15.6745 15.209L16.5606 17.6901ZM8.92691 15.3624L8.96314 15.4289C9.48423 16.3852 10.6154 16.8052 11.6173 16.4143L11.6869 16.3871L11.7965 16.3489L10.9281 18.7852C10.8681 18.9534 10.6831 19.0411 10.5149 18.9811C10.4745 18.9667 10.4374 18.9444 10.4057 18.9155L9.49234 18.0824L8.26066 18.122C8.08218 18.1277 7.93285 17.9876 7.92712 17.8092C7.92582 17.7687 7.93215 17.7283 7.94576 17.6901L8.83184 15.209C8.86617 15.258 8.89793 15.3093 8.92691 15.3624ZM12.955 5.22858C12.9849 5.25049 13.0141 5.27396 13.0424 5.299L13.0987 5.34884C13.5706 5.76629 14.177 5.9914 14.8015 5.981L14.8761 5.97976C15.4754 5.96979 15.9907 6.41085 16.0852 7.01462L16.0984 7.09893C16.1878 7.67063 16.466 8.19426 16.8863 8.58764L17.003 8.69044L17.0609 8.73838C17.5263 9.12369 17.6431 9.79943 17.335 10.3239L17.3292 10.3337L17.29 10.4004C16.9728 10.9403 16.8622 11.5769 16.9787 12.1922L16.9961 12.2841C17.0898 12.7784 16.8782 13.2687 16.4841 13.5379L16.3974 13.5923C16.3373 13.6259 16.2737 13.6548 16.2069 13.6783L16.1559 13.6963L16.1461 13.6992L16.1364 13.7032C15.5461 13.9113 15.0518 14.3343 14.7483 14.8913L14.7121 14.9577C14.4209 15.4922 13.7887 15.7268 13.2289 15.5084L13.1592 15.4812C12.5758 15.2535 11.9306 15.2535 11.3471 15.4812L11.2775 15.5084C10.7176 15.7268 10.0855 15.4922 9.7943 14.9577L9.75807 14.8913C9.45462 14.3343 8.96032 13.9113 8.36993 13.7032L8.35968 13.6996L8.35045 13.6963L8.29945 13.6783C8.23264 13.6548 8.16903 13.6259 8.10897 13.5923L8.02223 13.5379C7.62821 13.2687 7.41662 12.7784 7.51026 12.2841L7.52766 12.1922C7.6442 11.5769 7.53359 10.9403 7.21638 10.4004L7.17721 10.3337L7.17141 10.3239C6.86327 9.79943 6.98008 9.12369 7.44549 8.73838L7.50339 8.69044C7.98819 8.28907 8.31044 7.7226 8.40799 7.09893L8.42118 7.01462C8.51007 6.44636 8.97178 6.02224 9.52547 5.98263L9.63029 5.97976L9.70485 5.981C10.3294 5.9914 10.9358 5.76629 11.4077 5.34884L11.464 5.299C11.518 5.25122 11.5751 5.20914 11.6347 5.17275C12.0139 4.94239 12.4925 4.94239 12.8715 5.17294L12.955 5.22858Z" fill="black"/>
</svg>
