<svg width="24" height="24" viewBox="0 0 24 24" fill="none" xmlns="http://www.w3.org/2000/svg">
<path d="M16.5714 0H7.42857C3.32589 0 0 3.32588 0 7.42857V16.5714C0 20.6741 3.32589 24 7.42857 24H16.5714C20.6741 24 24 20.6741 24 16.5714V7.42857C24 3.32588 20.6741 0 16.5714 0ZM5.84971 12.6503C5.38355 12.3613 5.38355 11.6879 5.85043 11.3995L10.3958 7.61351C10.8906 7.30597 11.5332 7.65978 11.5332 8.23927V11.719C11.5906 11.5933 11.6853 11.481 11.8172 11.3995L16.3626 7.61351C16.8574 7.30597 17.5 7.65978 17.5 8.23927V15.8106C17.5 16.3901 16.8574 16.7432 16.3626 16.4364L11.8165 12.6503C11.6849 12.5688 11.5905 12.4566 11.5332 12.331V15.8106C11.5332 16.3901 10.8906 16.7432 10.3958 16.4364L5.84971 12.6503Z" fill="black"/>
</svg>
