<svg width="24" height="24" viewBox="0 0 24 24" fill="none" xmlns="http://www.w3.org/2000/svg">
<path d="M7.42857 0C3.32588 0 0 3.32588 0 7.42857V16.5714C0 20.6741 3.32588 24 7.42857 24H16.5714C20.6741 24 24 20.6741 24 16.5714V7.42857C24 3.32588 20.6741 0 16.5714 0H7.42857ZM9.87204 10.3987L11.3725 9.35065L11.2728 6.99268L9.73803 6.03605C8.70344 6.42245 7.80106 7.07998 7.11734 7.92221L7.52916 9.71528L9.87204 10.3987ZM7.12765 10.9523L5.75718 12.1406C5.82194 13.2844 6.19984 14.3443 6.80649 15.2362L8.66844 15.4012L9.99561 13.4266L9.45495 11.6312L7.12765 10.9523ZM9.66489 16.2491L10.2852 17.7156C10.7953 17.853 11.3318 17.9262 11.8854 17.9262C12.5222 17.9262 13.1363 17.8293 13.7139 17.6493L14.3564 16.1303L12.9145 14.1964H11.0446L9.66489 16.2491ZM15.4268 15.3911L16.9507 15.256C17.6035 14.3042 17.9951 13.1592 18.022 11.9244L16.8616 10.9182L14.5471 11.6137L13.9689 13.4357L15.4268 15.3911ZM12.6748 9.37728L14.1179 10.3853L16.4739 9.67723L16.8258 8.14484C16.1592 7.2423 15.2511 6.52894 14.1969 6.10011L12.5759 7.03872L12.6748 9.37728ZM11.8854 4.34997C15.9933 4.34997 19.3235 7.68014 19.3235 11.7881C19.3235 15.8961 15.9933 19.2262 11.8854 19.2262C7.77739 19.2262 4.44723 15.8961 4.44723 11.7881C4.44723 7.68014 7.77739 4.34997 11.8854 4.34997Z" fill="black"/>
</svg>
