<svg width="24" height="24" viewBox="0 0 24 24" fill="none" xmlns="http://www.w3.org/2000/svg">
<path d="M0 7.42857V16.5714C0 20.6741 3.32588 24 7.42857 24H16.5714C20.6741 24 24 20.6741 24 16.5714V7.42857C24 3.32588 20.6741 0 16.5714 0H7.42857C3.32588 0 0 3.32588 0 7.42857ZM19 9.84952C19.4142 9.84952 19.75 10.1853 19.75 10.5995V13.3995C19.75 13.8137 19.4142 14.1495 19 14.1495C18.5858 14.1495 18.25 13.8137 18.25 13.3995V10.5995C18.25 10.1853 18.5858 9.84952 19 9.84952ZM7.1 7.8002H15.5C16.6598 7.8002 17.6 8.7404 17.6 9.9002V14.1002C17.6 15.26 16.6598 16.2002 15.5 16.2002H7.1C5.9402 16.2002 5 15.26 5 14.1002V9.9002C5 8.7404 5.9402 7.8002 7.1 7.8002Z" fill="black"/>
</svg>
