<svg width="24" height="24" viewBox="0 0 24 24" fill="none" xmlns="http://www.w3.org/2000/svg">
<path d="M7.42857 0C3.32588 0 0 3.32588 0 7.42857V16.5714C0 20.6741 3.32588 24 7.42857 24H16.5714C20.6741 24 24 20.6741 24 16.5714V7.42857C24 3.32588 20.6741 0 16.5714 0H7.42857ZM7.1 7.8002H15.5C16.6598 7.8002 17.6 8.7404 17.6 9.9002V14.1002C17.6 15.26 16.6598 16.2002 15.5 16.2002H7.1C5.9402 16.2002 5 15.26 5 14.1002V9.9002C5 8.7404 5.9402 7.8002 7.1 7.8002ZM19.75 10.6V13.4C19.75 13.8142 19.4142 14.15 19 14.15C18.5858 14.15 18.25 13.8142 18.25 13.4V10.6C18.25 10.1858 18.5858 9.85001 19 9.85001C19.4142 9.85001 19.75 10.1858 19.75 10.6ZM6.75 10.2502V13.7502C6.75 14.1368 7.0634 14.4502 7.45 14.4502H13.75C14.1366 14.4502 14.45 14.1368 14.45 13.7502V10.2502C14.45 9.8636 14.1366 9.5502 13.75 9.5502H7.45C7.0634 9.5502 6.75 9.8636 6.75 10.2502Z" fill="black"/>
</svg>
