<svg width="24" height="24" viewBox="0 0 24 24" fill="none" xmlns="http://www.w3.org/2000/svg">
<path d="M7.42857 0C3.32588 0 0 3.32588 0 7.42857V16.5714C0 20.6741 3.32588 24 7.42857 24H16.5714C20.6741 24 24 20.6741 24 16.5714V7.42857C24 3.32588 20.6741 0 16.5714 0H7.42857ZM14.8297 4.34998C15.1887 4.34998 15.4797 4.64099 15.4797 4.99998V5.74996H16.2297C16.5887 5.74996 16.8797 6.04097 16.8797 6.39996C16.8797 6.75894 16.5887 7.04996 16.2297 7.04996H15.4797V7.79994C15.4797 8.15892 15.1887 8.44994 14.8297 8.44994C14.4707 8.44994 14.1797 8.15892 14.1797 7.79994V7.04996L13.4297 7.04996C13.0707 7.04996 12.7797 6.75894 12.7797 6.39996C12.7797 6.04097 13.0707 5.74996 13.4297 5.74996H14.1797V4.99998C14.1797 4.64099 14.4707 4.34998 14.8297 4.34998ZM14.8303 9.20002C15.5363 9.20002 16.1813 8.93871 16.6738 8.50752C16.7933 8.92807 16.8573 9.372 16.8573 9.83087L16.8573 12.3932C17.6715 12.6261 18.2675 13.376 18.2675 14.265C18.2675 15.3401 17.3959 16.2117 16.3208 16.2117H7.67667C6.60155 16.2117 5.73 15.3401 5.73 14.265C5.73 13.3562 6.3528 12.5928 7.19488 12.3784L7.19555 9.83087C7.19555 7.16286 9.3584 5 12.0264 5C12.1511 5 12.2746 5.00472 12.3969 5.01399C12.1636 5.42267 12.0303 5.8958 12.0303 6.40006C12.0303 7.94644 13.2839 9.20002 14.8303 9.20002ZM10.6778 17.3943L10.7041 17.4489C10.768 17.5819 10.8167 17.6831 10.8525 17.7347C11.1112 18.1079 11.5405 18.3501 12.0264 18.3501C12.6262 18.3501 13.1411 17.9798 13.3519 17.4529C13.4853 17.1196 13.8635 16.9575 14.1968 17.0908C14.5301 17.2242 14.6922 17.6025 14.5589 17.9358C14.1574 18.9393 13.1757 19.6501 12.0264 19.6501C11.0963 19.6501 10.2752 19.1839 9.78407 18.4754C9.68242 18.3287 9.58059 18.1141 9.52647 18.0001L9.52646 18L9.50677 17.9587C9.35091 17.6354 9.48671 17.2468 9.81009 17.091C10.1335 16.9351 10.522 17.0709 10.6778 17.3943Z" fill="black"/>
</svg>
