<svg width="24" height="24" viewBox="0 0 24 24" fill="none" xmlns="http://www.w3.org/2000/svg">
<path d="M0 7.42857V16.5714C0 20.6741 3.32588 24 7.42857 24H16.5714C20.6741 24 24 20.6741 24 16.5714V7.42857C24 3.32588 20.6741 0 16.5714 0H7.42857C3.32588 0 0 3.32588 0 7.42857ZM11.9966 6C14.2835 6 16.1373 7.85389 16.1373 10.1408L16.1373 12.3371C16.8352 12.5367 17.3461 13.1795 17.3461 13.9415C17.3461 14.863 16.599 15.6101 15.6775 15.6101H8.26819C7.34666 15.6101 6.59961 14.863 6.59961 13.9415C6.59961 13.1625 7.13344 12.5082 7.85523 12.3244L7.8558 10.1408C7.8558 7.85389 9.70969 6 11.9966 6ZM10.9232 16.583L10.9446 16.6276C11.001 16.7448 11.0394 16.8245 11.0655 16.8622C11.2707 17.1582 11.6107 17.3498 11.9954 17.3498C12.4703 17.3498 12.8783 17.0566 13.0454 16.639C13.1787 16.3057 13.557 16.1437 13.8903 16.277C14.2236 16.4104 14.3857 16.7887 14.2524 17.122C13.8946 18.0162 13.0198 18.6498 11.9954 18.6498C11.1665 18.6498 10.4347 18.2341 9.99714 17.6029C9.90506 17.4701 9.81374 17.2774 9.76813 17.1811L9.75211 17.1475C9.59625 16.8241 9.73205 16.4356 10.0554 16.2797C10.3788 16.1238 10.7673 16.2596 10.9232 16.583Z" fill="black"/>
</svg>
