<svg width="24" height="24" viewBox="0 0 24 24" fill="none" xmlns="http://www.w3.org/2000/svg">
<path d="M7.42857 0C3.32588 0 0 3.32588 0 7.42857V16.5714C0 20.6741 3.32588 24 7.42857 24H16.5714C20.6741 24 24 20.6741 24 16.5714V7.42857C24 3.32588 20.6741 0 16.5714 0H7.42857ZM7.29363 5.75747C7.43555 5.62344 7.61601 5.55558 7.79694 5.55282C7.79929 5.73433 7.86715 5.9155 8.00162 6.05788L9.38584 7.52365L17.4623 15.8184C17.6122 15.9724 17.8122 16.0482 18.0113 16.0451C18.0139 16.2437 17.9381 16.4429 17.7846 16.5924C17.4878 16.8814 17.013 16.875 16.724 16.5783L15.813 15.6425H7.84785C6.82731 15.6425 6 14.8152 6 13.7947C6 12.932 6.59118 12.2074 7.39052 12.0039L7.39115 9.58564C7.39115 8.83021 7.57382 8.11745 7.89739 7.48911L7.26333 6.8177C6.97893 6.51656 6.99249 6.04188 7.29363 5.75747ZM17.901 13.7947C17.901 13.8966 17.8928 13.9966 17.8769 14.094L10.4725 6.4895L9.65892 5.62807C10.339 5.22888 11.1312 5 11.9768 5C14.5094 5 16.5624 7.05306 16.5624 9.58564L16.5624 12.0179C17.3353 12.239 17.901 12.9508 17.901 13.7947ZM10.8162 16.7075L10.8443 16.7662L10.8444 16.7664C10.8668 16.8133 10.8877 16.857 10.911 16.9029C10.9263 16.9332 10.9398 16.9587 10.9515 16.9795C10.9573 16.9897 10.962 16.9977 10.9657 17.0037L10.97 17.0105L10.9715 17.0127C11.1932 17.3326 11.5608 17.5396 11.9765 17.5396C12.4896 17.5396 12.9306 17.2229 13.1112 16.7715C13.2651 16.3869 13.7016 16.1999 14.0862 16.3537C14.4707 16.5076 14.6578 16.9441 14.5039 17.3287C14.1033 18.33 13.1236 19.0396 11.9765 19.0396C11.0482 19.0396 10.2287 18.5741 9.7387 17.8673C9.63513 17.7178 9.53268 17.5016 9.48242 17.3955L9.46498 17.3588C9.28513 16.9857 9.44182 16.5374 9.81496 16.3576C10.1881 16.1777 10.6364 16.3344 10.8162 16.7075Z" fill="black"/>
</svg>
