<svg width="24" height="24" viewBox="0 0 24 24" fill="none" xmlns="http://www.w3.org/2000/svg">
<path d="M7.42857 0C3.32588 0 0 3.32588 0 7.42857V16.5714C0 20.6741 3.32588 24 7.42857 24H16.5714C20.6741 24 24 20.6741 24 16.5714V7.42857C24 3.32588 20.6741 0 16.5714 0H7.42857ZM8 5H12.9997C15.2089 5 16.9997 6.79086 16.9997 9C16.9997 9.97959 16.6476 10.8769 16.063 11.5724C17.2238 12.2725 18 13.5456 18 15C18 17.2091 16.2091 19 14 19H8C7.44772 19 7 18.5523 7 18V6C7 5.44772 7.44772 5 8 5ZM9 17H14C15.1046 17 16 16.1046 16 15C16 13.8954 15.1046 13 14 13H9V17ZM9 11H12.9997C14.1043 11 14.9997 10.1046 14.9997 9C14.9997 7.89543 14.1043 7 12.9997 7H9V11Z" fill="black"/>
</svg>
