<svg width="24" height="24" viewBox="0 0 24 24" fill="none" xmlns="http://www.w3.org/2000/svg">
<path d="M7.42857 0C3.32588 0 0 3.32588 0 7.42857V16.5714C0 20.6741 3.32588 24 7.42857 24H16.5714C20.6741 24 24 20.6741 24 16.5714V7.42857C24 3.32588 20.6741 0 16.5714 0H7.42857ZM7.05955 13.4C6.63705 13.4 6.405 12.9084 6.67349 12.5822L12.4768 5.53119C12.604 5.37662 12.8543 5.48411 12.8297 5.68279L12.292 10.0387C12.2552 10.3369 12.4878 10.6 12.7882 10.6H17.3858C17.8083 10.6 18.0403 11.0915 17.7719 11.4177L11.9685 18.4688C11.8413 18.6233 11.5911 18.5158 11.6156 18.3172L12.1534 13.9612C12.1902 13.6631 11.9576 13.4 11.6571 13.4H7.05955Z" fill="black"/>
</svg>
