<svg width="24" height="24" viewBox="0 0 24 24" fill="none" xmlns="http://www.w3.org/2000/svg">
<path d="M7.42857 0C3.32588 0 0 3.32588 0 7.42857V16.5714C0 20.6741 3.32588 24 7.42857 24H16.5714C20.6741 24 24 20.6741 24 16.5714V7.42857C24 3.32588 20.6741 0 16.5714 0H7.42857ZM7.69922 17.1395V7.71429C7.69922 6.76751 8.46673 6 9.4135 6H14.5564C15.5031 6 16.2706 6.76751 16.2706 7.71429V17.1395C16.2706 17.7901 15.6418 18.2058 15.1221 17.8947C13.8527 17.1335 11.9849 16.0124 11.9849 16.0124C11.9849 16.0124 10.1171 17.1327 8.84779 17.8947C8.32805 18.2058 7.69922 17.7901 7.69922 17.1395Z" fill="black"/>
</svg>
