<svg width="24" height="24" viewBox="0 0 24 24" fill="none" xmlns="http://www.w3.org/2000/svg">
<path d="M9.63999 8.54999C9.281 8.54999 8.98999 8.841 8.98999 9.19999C8.98999 9.55897 9.281 9.84999 9.63999 9.84999H14.19C14.549 9.84999 14.84 9.55897 14.84 9.19999C14.84 8.841 14.549 8.54999 14.19 8.54999H9.63999Z" fill="black"/>
<path d="M8.98999 11.3C8.98999 11.659 9.281 11.95 9.63999 11.95H14.19C14.549 11.95 14.84 11.659 14.84 11.3C14.84 10.941 14.549 10.65 14.19 10.65H9.63999C9.281 10.65 8.98999 10.941 8.98999 11.3Z" fill="black"/>
<path d="M7.42857 0C3.32588 0 0 3.32588 0 7.42857V16.5714C0 20.6741 3.32588 24 7.42857 24H16.5714C20.6741 24 24 20.6741 24 16.5714V7.42857C24 3.32588 20.6741 0 16.5714 0H7.42857ZM9 5H16.9C17.4523 5 17.9 5.44772 17.9 6V13.519C17.8217 13.5065 17.7411 13.5 17.6586 13.5H8.09995C7.30739 13.5 6.57816 13.7712 6 14.2258V8C6 6.34315 7.34315 5 9 5ZM6 16.9V16.8855C6.00779 15.7324 6.94498 14.8 8.09995 14.8H17.6586C17.784 14.8 17.8782 14.9148 17.8553 15.0381C17.6154 16.3291 17.5462 16.9201 17.6477 17.7L17.6495 17.7141C17.6894 18.0153 17.7546 18.3452 17.845 18.7547C17.8727 18.88 17.7778 19 17.6495 19H8.09995C7.84059 19 7.59221 18.953 7.36288 18.867C6.56669 18.5685 6 17.8004 6 16.9Z" fill="black"/>
</svg>
