<svg width="24" height="24" viewBox="0 0 24 24" fill="none" xmlns="http://www.w3.org/2000/svg">
<path d="M7.42857 0C3.32588 0 0 3.32588 0 7.42857V16.5714C0 20.6741 3.32588 24 7.42857 24H16.5714C20.6741 24 24 20.6741 24 16.5714V7.42857C24 3.32588 20.6741 0 16.5714 0H7.42857ZM11.9996 5.1001C13.6802 5.1001 15.2205 5.70261 16.4165 6.70129C16.798 7.01988 16.849 7.58744 16.5304 7.96897C16.2118 8.35049 15.6443 8.40151 15.2627 8.08291C14.3779 7.34399 13.2423 6.9001 11.9996 6.9001C9.18347 6.9001 6.89961 9.18395 6.89961 12.0001C6.89961 14.8162 9.18347 17.1001 11.9996 17.1001C14.5087 17.1001 16.5952 15.2872 17.0204 12.9001H12.7496C12.2526 12.9001 11.8496 12.4972 11.8496 12.0001C11.8496 11.503 12.2526 11.1001 12.7496 11.1001H17.9996C18.4967 11.1001 18.8996 11.503 18.8996 12.0001C18.8996 15.8104 15.8099 18.9001 11.9996 18.9001C8.18935 18.9001 5.09961 15.8104 5.09961 12.0001C5.09961 8.18984 8.18935 5.1001 11.9996 5.1001Z" fill="black"/>
</svg>
