<svg width="24" height="24" viewBox="0 0 24 24" fill="none" xmlns="http://www.w3.org/2000/svg">
<path d="M24 16.5714V7.42857C24 3.32588 20.6741 0 16.5714 0H7.42857C3.32588 0 0 3.32588 0 7.42857V16.5714C0 20.6741 3.32588 24 7.42857 24H16.5714C20.6741 24 24 20.6741 24 16.5714ZM13.0617 8.29981C14.38 8.29981 15.4487 9.36851 15.4487 10.6868V14.8356C15.4487 15.3213 15.055 15.715 14.5693 15.715H8.38702C7.06871 15.715 6 14.6463 6 13.328V9.17923C6 8.69354 6.39373 8.29981 6.87943 8.29981H13.0617ZM17.1836 15.0977L16.1766 14.4855C16.0278 14.3951 15.9368 14.2338 15.9363 14.0597L15.9258 10.1637C15.9253 9.99455 16.0105 9.83661 16.152 9.74398L17.1686 9.0788C17.4164 8.91664 17.7488 8.98608 17.911 9.23392C17.9681 9.3212 17.9985 9.42325 17.9985 9.52755V14.6395C17.9985 14.9357 17.7584 15.1758 17.4622 15.1758C17.364 15.1758 17.2676 15.1488 17.1836 15.0977Z" fill="black"/>
</svg>
