<svg width="24" height="24" viewBox="0 0 24 24" fill="none" xmlns="http://www.w3.org/2000/svg">
<path d="M7.42857 0C3.32588 0 0 3.32588 0 7.42857V16.5714C0 20.6741 3.32588 24 7.42857 24H16.5714C20.6741 24 24 20.6741 24 16.5714V7.42857C24 3.32588 20.6741 0 16.5714 0H7.42857ZM13.0843 17.5999C12.8466 17.5999 12.6136 17.5807 12.3866 17.5442C12.3389 17.5367 12.2299 17.5196 12.2102 17.4726C12.1889 17.4214 12.2568 17.3712 12.2948 17.3452C12.9628 16.8897 13.5205 16.2827 13.9157 15.5737C13.9192 15.5674 13.9233 15.5598 13.928 15.5512C13.9577 15.4964 14.0102 15.3993 14.0799 15.3249C14.1683 15.2307 14.2792 15.1634 14.3307 15.1322C14.334 15.1302 14.3372 15.1283 14.34 15.1266C14.9119 14.7755 15.3254 14.1883 15.4396 13.5034C15.6483 13.5397 15.8636 13.5583 16.0833 13.5583C16.6013 13.5583 17.0951 13.4546 17.5444 13.267L17.5974 13.2443C17.516 15.6546 15.5106 17.5999 13.0843 17.5999ZM11.6353 8.61653L11.6344 8.62059L11.5605 9.01036C11.8573 8.8938 12.1689 8.80741 12.4915 8.75565C12.3843 9.10068 12.3267 9.46676 12.3267 9.84632C12.3267 10.2225 12.3832 10.5855 12.4884 10.9275C11.5318 11.2177 10.8254 12.1041 10.812 13.1497C10.8053 13.684 10.9822 14.1753 11.2819 14.5685C11.5915 14.1753 11.7812 13.684 11.7879 13.1497C11.7883 13.1263 11.788 13.0976 11.7876 13.0645C11.7848 12.8074 11.779 12.2862 12.0511 11.9318C12.2202 11.7112 12.4822 11.585 12.7507 11.5605C13.0269 12.0844 13.4256 12.5341 13.9089 12.8736L13.9154 12.9887L13.9169 13.1497C13.8853 15.6035 11.8598 17.5999 9.40116 17.5999C6.94314 17.5999 4.96896 15.6035 5.00037 13.1497C5.00283 12.9469 5.01996 12.7473 5.04933 12.5517L5.08269 12.3574L6.17498 6.59039C6.19571 6.48145 6.24704 6.4005 6.409 6.3999C8.39716 6.52279 7.97554 8.51447 7.95261 8.61653L7.95168 8.62059L7.87778 9.01036C8.29919 8.84486 8.75061 8.74207 9.22093 8.71141L9.45761 8.70214L9.85709 6.59219C9.87803 6.48225 9.92893 6.4007 10.0917 6.3999C12.0799 6.52279 11.6583 8.51447 11.6353 8.61653ZM7.12912 13.1497C7.11311 14.3912 8.081 15.4056 9.30878 15.4687C8.90213 14.7929 8.67242 13.999 8.68309 13.1497C8.68586 12.9469 8.70284 12.7473 8.73211 12.5517L8.76541 12.3574L9.04767 10.8675C7.97056 11.0737 7.14349 12.0178 7.12912 13.1497ZM16.0833 12.7183L15.9223 12.714C15.9071 12.7132 15.892 12.7123 15.8769 12.7112C15.8411 12.7088 15.8059 12.7057 15.7709 12.702C15.7476 12.6996 15.7245 12.6969 15.7014 12.6939C15.6712 12.69 15.6409 12.6857 15.6107 12.6808C15.5905 12.6776 15.5704 12.6741 15.5504 12.6705C15.5256 12.666 15.5008 12.6611 15.4762 12.656C15.4578 12.6522 15.4393 12.6481 15.4208 12.6439C14.3538 12.3993 13.5124 11.5798 13.2512 10.5355C13.2458 10.5133 13.2405 10.4911 13.2355 10.469C13.2283 10.4375 13.2218 10.4059 13.2158 10.3741C13.213 10.3589 13.2102 10.3432 13.2075 10.3276C13.2011 10.2904 13.1954 10.2531 13.1905 10.2156C13.1884 10.1991 13.1864 10.1828 13.1846 10.1664C13.1802 10.1279 13.1767 10.0891 13.1739 10.0501C13.1728 10.0348 13.1718 10.0192 13.171 10.0035C13.1681 9.95116 13.1667 9.8989 13.1667 9.84632L13.1719 9.6727C13.1731 9.65233 13.1746 9.63202 13.1763 9.61176C13.1797 9.57028 13.1839 9.52914 13.1891 9.48827L13.1933 9.4562C13.2086 9.34537 13.2303 9.23667 13.258 9.13034C13.264 9.10736 13.2702 9.08488 13.2766 9.06252C13.2871 9.0259 13.2985 8.98925 13.3105 8.95292L13.3215 8.92067C13.3435 8.85695 13.3678 8.79405 13.3942 8.73226L13.4067 8.70414C13.8554 7.68598 14.8849 6.9743 16.0833 6.9743C17.6942 6.9743 19 8.26015 19 9.84632C19 10.9038 18.4196 11.8277 17.5554 12.3262L17.5302 12.3402L17.4144 12.4022C17.3925 12.4133 17.3704 12.4242 17.3481 12.4347C17.3266 12.4452 17.3049 12.4552 17.2831 12.4649C17.2592 12.4753 17.2354 12.4855 17.2113 12.4955C17.1854 12.5064 17.159 12.5168 17.1324 12.5269C17.1109 12.535 17.0891 12.543 17.0672 12.5507C16.9736 12.5838 16.8781 12.6122 16.7806 12.6357C16.7579 12.6412 16.7351 12.6464 16.7123 12.6513C16.6827 12.6578 16.6531 12.6637 16.6232 12.6692C16.6043 12.6727 16.5849 12.6761 16.5655 12.6792C16.5301 12.6851 16.4949 12.6902 16.4594 12.6947C16.4427 12.6968 16.4258 12.6988 16.4089 12.7006C16.3729 12.7046 16.3365 12.7079 16.3 12.7105C16.2807 12.7119 16.2615 12.7131 16.2423 12.7141L16.2289 12.7148L16.0833 12.7183ZM17.4144 12.4022L17.4054 12.407C17.4458 12.3867 17.4857 12.3656 17.5302 12.3402C17.4921 12.3617 17.4535 12.3824 17.4144 12.4022ZM13.1667 9.82978C13.167 9.77707 13.1688 9.7247 13.1719 9.6727V9.67269C13.1688 9.72469 13.167 9.77707 13.1667 9.82978ZM15.9281 12.7143C15.9262 12.7142 15.9242 12.7141 15.9223 12.714H15.9222C15.9242 12.7141 15.9262 12.7142 15.9281 12.7143ZM15.8978 8.56265L14.705 9.98971C14.6963 10.0002 14.6915 10.0134 14.6915 10.0271C14.6915 10.0513 14.7061 10.072 14.7271 10.0809L14.7498 10.0855H16.0367C16.0776 10.0855 16.1166 10.1027 16.1437 10.1329C16.1618 10.1531 16.1734 10.1777 16.1777 10.2037L16.1784 10.2434L16.0729 11.0853C16.0704 11.105 16.0781 11.1246 16.0934 11.1373C16.1119 11.1528 16.1372 11.1548 16.1575 11.1445L16.1755 11.13L17.3683 9.70292C17.3771 9.69243 17.3819 9.67919 17.3819 9.66551C17.3819 9.64135 17.3672 9.62062 17.3463 9.61176L17.3236 9.60718H16.0367C15.9957 9.60718 15.9568 9.58989 15.9296 9.55969C15.9116 9.53956 15.8999 9.51498 15.8957 9.48897L15.8949 9.44928L16.0005 8.60732C16.0029 8.58763 15.9952 8.56803 15.98 8.55531C15.9614 8.53981 15.9361 8.53779 15.9159 8.54817L15.8978 8.56265Z" fill="black"/>
</svg>
