<svg width="24" height="24" viewBox="0 0 24 24" fill="none" xmlns="http://www.w3.org/2000/svg">
<path d="M7.42857 0C3.32588 0 0 3.32588 0 7.42857V16.5714C0 20.6741 3.32588 24 7.42857 24H16.5714C20.6741 24 24 20.6741 24 16.5714V7.42857C24 3.32588 20.6741 0 16.5714 0H7.42857ZM19 11.9984V12.0016C19 15.8663 15.8663 19 12.0016 19H11.9984C8.13367 19 5 15.8663 5 12.0016C5 8.13444 8.13444 5 12.0016 5C15.8663 5 19 8.13367 19 11.9984ZM7.95508 11.9893C7.95711 12.9693 8.75247 13.7627 9.73146 13.7617C10.7115 13.7606 11.5058 12.9663 11.5058 11.9863C11.5058 11.0063 10.7104 10.2109 9.73044 10.2109H9.72537C8.74537 10.214 7.95305 11.0093 7.95508 11.9893ZM14.3406 10.2109C13.3606 10.214 12.5683 11.0093 12.5703 11.9893C12.5723 12.9693 13.3677 13.7627 14.3467 13.7617C15.3267 13.7606 16.121 12.9663 16.121 11.9863C16.121 11.0063 15.3257 10.2109 14.3457 10.2109H14.3406Z" fill="black"/>
</svg>
