<svg width="24" height="24" viewBox="0 0 24 24" fill="none" xmlns="http://www.w3.org/2000/svg">
<path d="M7.42857 0C3.32588 0 0 3.32588 0 7.42857V16.5714C0 20.6741 3.32588 24 7.42857 24H16.5714C20.6741 24 24 20.6741 24 16.5714V7.42857C24 3.32588 20.6741 0 16.5714 0H7.42857ZM16.9497 7.05026C19.6834 9.78393 19.6834 14.2161 16.9497 16.9497C14.2161 19.6834 9.78391 19.6834 7.05026 16.9497C4.31658 14.2161 4.31658 9.78391 7.05026 7.05026C9.78393 4.31658 14.2161 4.31658 16.9497 7.05026ZM12.4481 10.3498C13.8061 10.5102 14.9834 10.8858 15.6874 11.3311C15.9908 11.523 16.3923 11.4326 16.5842 11.1292C16.7761 10.8258 16.6857 10.4243 16.3823 10.2324C15.456 9.64657 14.0691 9.23223 12.6006 9.05875C11.123 8.88421 9.48641 8.94423 8.04191 9.37165C7.69768 9.47351 7.5012 9.83514 7.60306 10.1794C7.70491 10.5236 8.06654 10.7201 8.41077 10.6182C9.64657 10.2526 11.0991 10.1904 12.4481 10.3498ZM8.74197 12.6585C10.9171 11.9808 13.5059 12.4787 14.8883 13.3679C15.1902 13.5621 15.5924 13.4748 15.7866 13.1729C15.9808 12.871 15.8935 12.4688 15.5915 12.2746C13.8898 11.18 10.9024 10.6237 8.35524 11.4174C8.01251 11.5242 7.82125 11.8886 7.92804 12.2313C8.03483 12.5741 8.39924 12.7653 8.74197 12.6585ZM14.2222 15.1375C14.53 15.3222 14.9293 15.2224 15.114 14.9145C15.2987 14.6067 15.1989 14.2074 14.891 14.0227C13.3521 13.0994 11.3538 12.6728 8.58402 13.2942C8.23374 13.3728 8.01349 13.7204 8.09208 14.0707C8.17066 14.421 8.51833 14.6412 8.8686 14.5626C11.353 14.0053 13.0031 14.406 14.2222 15.1375Z" fill="black"/>
</svg>
