<svg width="24" height="24" viewBox="0 0 24 24" fill="none" xmlns="http://www.w3.org/2000/svg">
<path d="M7.42857 0C3.32588 0 0 3.32588 0 7.42857V16.5714C0 20.6741 3.32588 24 7.42857 24H16.5714C20.6741 24 24 20.6741 24 16.5714V7.42857C24 3.32588 20.6741 0 16.5714 0H7.42857ZM18 15C18 16.6569 16.6569 18 15 18H12.5336V13.266H13.6008L14.1008 11.666H12.5336V10.57C12.5336 10.0345 12.9681 9.6 13.5036 9.6H14.1336V8H13.5036C12.0844 8 10.9336 9.15084 10.9336 10.57V11.666H10V13.266H10.9336V18H9C7.34315 18 6 16.6569 6 15V9C6 7.34315 7.34315 6 9 6H15C16.6569 6 18 7.34315 18 9V15Z" fill="black"/>
</svg>
