<svg width="24" height="24" viewBox="0 0 24 24" fill="none" xmlns="http://www.w3.org/2000/svg">
<path d="M7.42857 0C3.32588 0 0 3.32588 0 7.42857V16.5714C0 20.6741 3.32588 24 7.42857 24H16.5714C20.6741 24 24 20.6741 24 16.5714V7.42857C24 3.32588 20.6741 0 16.5714 0H7.42857ZM12 19C8.13401 19 5 15.866 5 12C5 8.13401 8.13401 5 12 5C15.866 5 19 8.13401 19 12C19 15.866 15.866 19 12 19ZM10.0733 12.1189C8.81779 12.1189 7.8 13.1367 7.8 14.3922C7.8 14.8107 8.13926 15.15 8.55776 15.15H13.4401C13.8586 15.15 14.1979 14.8107 14.1979 14.3922C14.1979 13.1367 13.1801 12.1189 11.9246 12.1189H11.6076L11.068 12.6346C11.0294 12.6715 10.9685 12.6715 10.9298 12.6346L10.3903 12.1189H10.0733ZM12.453 10.3741C12.453 9.57107 11.802 8.92007 10.9989 8.92007C10.1959 8.92007 9.54487 9.57107 9.54487 10.3741C9.54487 11.1772 10.1959 11.8282 10.9989 11.8282C11.802 11.8282 12.453 11.1772 12.453 10.3741ZM12.7 9.62126C12.7 10.2405 13.1986 10.7425 13.8137 10.7425C14.4287 10.7425 14.9273 10.2405 14.9273 9.62126C14.9273 9.00201 14.4287 8.5 13.8137 8.5C13.1986 8.5 12.7 9.00201 12.7 9.62126ZM15.7015 13.3998C15.971 13.3998 16.1895 13.1875 16.1895 12.9255L16.1894 12.9147C16.1881 12.8597 16.1854 12.8205 16.1813 12.7971C16.0378 11.9832 15.3463 11.3561 14.4985 11.3224L14.4266 11.321H13.4698C13.2713 11.321 13.1082 11.4334 13.0263 11.59C13.8783 11.8991 14.5609 12.5613 14.8973 13.3998H15.7015Z" fill="black"/>
</svg>
