<svg width="24" height="24" viewBox="0 0 24 24" fill="none" xmlns="http://www.w3.org/2000/svg">
<path d="M7.42857 0C3.32588 0 0 3.32588 0 7.42857V16.5714C0 20.6741 3.32588 24 7.42857 24H16.5714C20.6741 24 24 20.6741 24 16.5714V7.42857C24 3.32588 20.6741 0 16.5714 0H7.42857ZM4.16943 8.80501C4.28966 7.4053 5.41602 6.32509 6.81745 6.22695C8.38535 6.11716 10.427 6 12 6C13.573 6 15.6146 6.11716 17.1826 6.22695C18.584 6.32509 19.7103 7.4053 19.8306 8.80501C19.9205 9.85181 20 11.0959 20 12.2222C20 13.3486 19.9205 14.5926 19.8306 15.6394C19.7103 17.0391 18.584 18.1194 17.1826 18.2175C15.6146 18.3273 13.573 18.4444 12 18.4444C10.427 18.4444 8.38535 18.3273 6.81745 18.2175C5.41602 18.1194 4.28966 17.0391 4.16943 15.6394C4.07951 14.5926 4 13.3486 4 12.2222C4 11.0959 4.07951 9.85181 4.16943 8.80501ZM10.2207 14.2888C10.2207 14.7519 10.723 15.0404 11.123 14.8071L14.6656 12.7406C15.0625 12.5091 15.0625 11.9356 14.6656 11.7041L11.123 9.63757C10.723 9.40424 10.2207 9.69276 10.2207 10.1558V14.2888Z" fill="black"/>
</svg>
