<svg width="24" height="24" viewBox="0 0 24 24" fill="none" xmlns="http://www.w3.org/2000/svg">
<path d="M0 7.42857V16.5714C0 20.6741 3.32588 24 7.42857 24H16.5714C20.6741 24 24 20.6741 24 16.5714V7.42857C24 3.32588 20.6741 0 16.5714 0H7.42857C3.32588 0 0 3.32588 0 7.42857ZM9.81914 7.5667C10.3117 7.5667 10.7938 7.7651 11.2182 7.93972C11.5517 8.07695 11.8495 8.1995 12.0886 8.1995C12.2946 8.1995 12.5632 8.09385 12.881 7.96887C13.3897 7.76876 14.0244 7.51909 14.73 7.57416C15.0458 7.59561 15.7852 7.67108 16.4799 8.15773C16.9621 8.49547 16.7965 9.19947 16.4252 9.65625C16.0758 10.086 15.7491 10.7122 15.7562 11.5474C15.7683 12.678 16.3039 13.3988 16.795 13.8229C17.2002 14.1728 17.4808 14.7363 17.2544 15.2215C17.1064 15.5386 16.9071 15.9109 16.6491 16.2876C16.0767 17.1283 15.4812 17.9615 14.5436 17.9765C14.0908 17.9874 13.7886 17.8568 13.4742 17.7209C13.148 17.5798 12.8086 17.4331 12.2741 17.4331C11.7062 17.4331 11.349 17.5857 11.0049 17.7327C10.7087 17.8592 10.4223 17.9816 10.0196 17.9988C9.11179 18.0286 8.42763 17.091 7.84701 16.2578C6.66424 14.5466 5.7639 11.4356 6.9765 9.3301C7.57948 8.2815 8.64961 7.5667 9.81914 7.5667ZM13.2906 7.30163C12.5709 7.56959 12.1001 7.1745 12.239 6.41915C12.378 5.6638 13.0741 4.83423 13.7938 4.56627C14.5135 4.2983 14.9843 4.6934 14.8454 5.44875C14.7064 6.2041 14.0103 7.03366 13.2906 7.30163Z" fill="black"/>
</svg>
