<svg width="24" height="24" viewBox="0 0 24 24" fill="none" xmlns="http://www.w3.org/2000/svg">
<path d="M7.42857 0C3.32588 0 0 3.32588 0 7.42857V16.5714C0 20.6741 3.32588 24 7.42857 24H16.5714C20.6741 24 24 20.6741 24 16.5714V7.42857C24 3.32588 20.6741 0 16.5714 0H7.42857ZM17.0505 9.23063C15.3202 10.2425 13.9794 11.1305 13.0283 11.8945C11.1389 13.4122 9.43537 15.4178 7.91779 17.9114C7.86478 17.9984 7.75125 18.0261 7.66418 17.9731C7.62823 17.9512 7.60084 17.9177 7.58655 17.8781L6.0022 13.4892C5.99528 13.4701 6.00521 13.4489 6.02439 13.442C6.03946 13.4366 6.05633 13.4415 6.06613 13.4541L7.84865 15.7597C10.2409 12.8215 13.186 10.6786 16.6839 9.33103L17.0356 9.19892C17.0447 9.19558 17.0548 9.20027 17.0581 9.20939C17.0611 9.21739 17.0578 9.22633 17.0505 9.23063ZM16.9498 12.7291L17.3519 15.9785C17.3723 16.1429 17.2554 16.2928 17.091 16.3131C17.0774 16.3148 17.0638 16.3156 17.0501 16.3154L9.37255 16.2127C9.45978 16.0919 9.54755 15.9725 9.63587 15.8545L16.8824 15.8878C16.9487 15.8881 17.0027 15.8346 17.003 15.7683C17.003 15.7636 17.0028 15.7589 17.0022 15.7542L16.6633 12.7598C16.6544 12.6816 16.7106 12.6111 16.7888 12.6022L16.7896 12.6021C16.8687 12.5937 16.94 12.6502 16.9498 12.7291ZM16.1254 12.0844L16.4433 15.0683C16.4609 15.2331 16.3415 15.3809 16.1768 15.3985C16.1671 15.3995 16.1574 15.4001 16.1477 15.4002L9.93909 15.4579C10.0344 15.3359 10.1303 15.2155 10.2268 15.0968L15.9729 14.9684C16.0392 14.9669 16.0917 14.912 16.0902 14.8457L16.0898 14.8374L15.8383 12.1151C15.831 12.036 15.8886 11.9656 15.9677 11.9572C16.0463 11.9487 16.117 12.0057 16.1254 12.0844ZM13.6132 7.73828L13.6148 7.81507L13.6147 8.16407L14.2812 8.01771C14.6795 7.93032 15.0732 8.18234 15.1606 8.58061C15.1696 8.62157 15.1751 8.66322 15.177 8.70512L15.2207 9.67418C15.096 9.73359 14.9719 9.79417 14.8482 9.8559C14.7417 9.7535 14.6036 9.68688 14.4545 9.66893C14.5764 9.56764 14.6647 9.41423 14.6898 9.23415C14.7358 8.90441 14.5536 8.60176 14.2757 8.52699L14.2148 8.51453L14.1528 8.50957L14.0916 8.51214C13.8294 8.53905 13.604 8.76813 13.5612 9.07432C13.5164 9.39573 13.6884 9.69139 13.9544 9.77445C13.6237 9.94554 13.3973 10.2765 13.3645 10.6553L13.3634 10.6658C13.2447 10.7362 13.1264 10.8078 13.0086 10.8805C12.8053 10.7113 12.5342 10.6273 12.2567 10.6659L12.24 10.6686L12.3058 10.6319C12.4569 10.5341 12.5744 10.3714 12.6236 10.1735L12.6404 10.0867C12.6967 9.68288 12.4536 9.31467 12.0974 9.26423C11.765 9.21715 11.4515 9.46352 11.3654 9.82487L11.3506 9.90399L11.3432 9.98419C11.3283 10.3289 11.5289 10.6328 11.8238 10.7122L11.8935 10.7264L11.9567 10.7312L11.8358 10.7597C11.3656 10.8691 11.0242 11.2688 10.9833 11.7427L10.9792 11.8384L10.979 12.2804C10.8941 12.3454 10.8094 12.411 10.7251 12.4773C10.5708 12.0611 10.1801 11.78 9.74225 11.7591L9.6488 11.7587L9.62641 11.7605C9.84002 11.64 10.0018 11.4076 10.0414 11.1237C10.1008 10.6979 9.86416 10.3072 9.50419 10.2132L9.4306 10.1985L9.35583 10.1922L9.28205 10.1945C8.94075 10.2244 8.6458 10.5208 8.59037 10.9182C8.53215 11.3357 8.75835 11.7193 9.10634 11.8228L9.17751 11.8397L8.93726 11.8873C8.45079 11.9853 8.09286 12.3934 8.05244 12.8806L8.04863 12.9729L8.04876 14.8863C7.99235 14.944 7.93608 15.002 7.87994 15.0603L7.81872 15.1245L7.4544 14.6852L7.77263 9.99011C7.79483 9.66272 8.03047 9.38927 8.35099 9.31894L9.33881 9.10207L9.33888 8.37241C9.33888 7.34044 10.0185 6.43654 10.9988 6.15423L11.0535 6.13919L11.3619 6.05858C12.3246 5.80693 13.3074 6.38934 13.5572 7.35942C13.5891 7.48343 13.6079 7.61042 13.6132 7.73828ZM15.5898 14.3026C15.604 14.4677 15.4818 14.6131 15.3166 14.6274L15.2984 14.6284L10.5161 14.748C11.3645 13.7454 12.2591 12.8664 13.1996 12.1109L13.2751 12.0507L13.4312 11.9285L13.5938 11.8042L13.763 11.6778L13.9388 11.5492L14.1213 11.4185L14.3103 11.2857C14.3744 11.241 14.4396 11.1961 14.5059 11.1507L14.7081 11.0137L14.8116 10.9443L15.0237 10.8041L15.2735 10.641L15.5898 14.3026ZM11.5918 6.95187L11.2835 7.03247C10.6932 7.18677 10.2765 7.71377 10.2555 8.32406L10.2547 8.37241L10.2546 8.90103L12.6989 8.36451L12.699 7.81507C12.699 7.73952 12.6895 7.66428 12.6707 7.59115C12.5514 7.12766 12.0915 6.84424 11.6313 6.9425L11.5918 6.95187Z" fill="black"/>
</svg>
