<svg width="24" height="24" viewBox="0 0 24 24" fill="none" xmlns="http://www.w3.org/2000/svg">
<path d="M0 7.42857V16.5714C0 20.6741 3.32588 24 7.42857 24H16.5714C20.6741 24 24 20.6741 24 16.5714V7.42857C24 3.32588 20.6741 0 16.5714 0H7.42857C3.32588 0 0 3.32588 0 7.42857ZM9.24905 17.4651L9.75014 13.173C9.79392 12.9974 10.0324 12.9632 10.1369 13.1109C10.6113 13.7816 12.102 14.6047 13.0033 14.7705C13.1653 14.8003 13.2282 15.0005 13.1102 15.1154L9.69665 17.7223C9.50305 17.9108 9.18366 17.7273 9.24905 17.4651ZM13.106 13.0041C12.7885 13.4111 12.287 13.616 11.7505 13.6583C11.5883 13.6686 11.44 13.5792 11.3674 13.4286C11.1498 12.9391 11.0828 12.4025 11.3011 11.9319L8.87822 10.4892C8.71777 10.3873 8.6453 10.2242 8.69759 10.0505C8.73731 9.87639 8.88856 9.75392 9.06316 9.75637L11.5443 9.70411C11.742 8.94653 12.0636 8.22817 12.5218 7.56138C13.247 6.51198 14.2674 5.74104 15.458 5.28429C15.7464 5.17611 16.0342 5.08066 16.3221 5.00975C16.5345 4.9627 16.7446 5.09064 16.7916 5.29067C16.8749 5.57832 16.9331 5.87837 16.9785 6.17805C17.1353 7.45176 16.9305 8.7202 16.366 9.85898C16.0069 10.577 15.512 11.1932 14.9436 11.7337L16.072 13.9309C16.157 14.094 16.1293 14.2806 15.9906 14.4035C15.8642 14.5263 15.6769 14.5362 15.5288 14.4468L13.106 13.0041ZM15.54 8.60249C15.5604 8.04707 15.1267 7.58026 14.5713 7.55985C14.0159 7.53943 13.5491 7.97314 13.5286 8.52857C13.5082 9.08399 13.9419 9.5508 14.4974 9.57121C15.0528 9.59163 15.5196 9.15792 15.54 8.60249ZM12.3808 6.30848C12.4082 6.72179 12.0954 7.07907 11.6821 7.10651C9.91319 7.22392 8.2369 8.19267 7.28553 9.84049C6.31702 11.518 6.3342 13.4953 7.15862 15.0998L7.73771 12.3709C7.82369 11.9657 8.22186 11.7069 8.62706 11.7929C9.03225 11.8789 9.29102 12.2771 9.20503 12.6822L8.27451 17.0673C8.21688 17.3389 8.01398 17.5564 7.74709 17.6327C7.48019 17.709 7.19296 17.6317 7.00046 17.4317C4.8963 15.2455 4.39257 11.8512 5.98649 9.09049C7.19861 6.99103 9.3357 5.75895 11.5827 5.6098C11.996 5.58237 12.3533 5.89518 12.3808 6.30848ZM18.6106 9.66713C19.6049 11.6877 19.6065 14.1545 18.3944 16.254C16.8004 19.0147 13.6091 20.2756 10.6637 19.5464C10.3942 19.4797 10.1836 19.2697 10.1163 19.0003C10.0489 18.731 10.1359 18.4466 10.3422 18.2609L13.6745 15.2625C13.9824 14.9854 14.4567 15.0105 14.7337 15.3184C15.0108 15.6263 14.9858 16.1005 14.6779 16.3776L12.6041 18.2435C14.4058 18.1552 16.1268 17.1815 17.0953 15.504C18.0467 13.8561 18.0475 11.9201 17.2647 10.3294C17.0818 9.9578 17.2349 9.50826 17.6065 9.32536C17.9782 9.14247 18.4277 9.29548 18.6106 9.66713Z" fill="black"/>
</svg>
