<svg width="24" height="24" viewBox="0 0 24 24" fill="none" xmlns="http://www.w3.org/2000/svg">
<path d="M0 7.42857V16.5714C0 20.6741 3.32588 24 7.42857 24H16.5714C20.6741 24 24 20.6741 24 16.5714V7.42857C24 3.32588 20.6741 0 16.5714 0H7.42857C3.32588 0 0 3.32588 0 7.42857ZM17.8574 6.74789L14.261 13.0475C14.1734 13.201 14.1733 13.3895 14.261 13.5431L15.9501 16.5045C16.3304 17.1712 15.849 18 15.0815 18H13.9138C13.5546 18 13.2231 17.8074 13.0451 17.4955L10.9321 13.7909C10.7569 13.4837 10.757 13.1068 10.9323 12.7997L14.5263 6.50422C14.7043 6.19244 15.0358 6 15.3948 6H17.4232C17.807 6 18.0477 6.41456 17.8574 6.74789ZM9.77633 8.75624L10.7281 10.4324C10.9071 10.7478 10.9014 11.1354 10.7132 11.4453L9.30171 13.7691C9.12036 14.0677 8.79635 14.25 8.44702 14.25H6.58867C6.19881 14.25 5.95894 13.8236 6.16132 13.4904L7.55599 11.1943C7.65012 11.0393 7.65297 10.8455 7.56344 10.6878L6.6033 8.99688C6.41404 8.66356 6.6548 8.25 7.0381 8.25H8.90673C9.26657 8.25 9.59866 8.44333 9.77633 8.75624Z" fill="black"/>
</svg>
