<svg width="24" height="24" viewBox="0 0 24 24" fill="none" xmlns="http://www.w3.org/2000/svg">
<path d="M7.42857 0C3.32588 0 0 3.32588 0 7.42857V16.5714C0 20.6741 3.32588 24 7.42857 24H16.5714C20.6741 24 24 20.6741 24 16.5714V7.42857C24 3.32588 20.6741 0 16.5714 0H7.42857ZM17.9956 16.8021L17.9996 16.9061C17.9996 17.5103 17.5097 18 16.9053 18C16.3328 18 15.8629 17.5604 15.815 17.0005L15.811 16.8965C15.811 16.2923 16.301 15.8026 16.9053 15.8026C17.4779 15.8026 17.9478 16.2421 17.9956 16.8021ZM13.0941 7.09388C13.0941 7.69802 12.6042 8.18777 11.9998 8.18777C9.89483 8.18777 8.18861 9.89252 8.18861 11.9952C8.18861 14.0978 9.89483 15.8026 11.9998 15.8026C12.6042 15.8026 13.0941 16.2923 13.0941 16.8965C13.0941 17.5006 12.6042 17.9904 11.9998 17.9904C8.68633 17.9904 6 15.3063 6 11.9952C6 8.68402 8.68633 6 11.9998 6C12.6042 6 13.0941 6.48975 13.0941 7.09388ZM17.9973 11.8245L17.9996 11.9952L18 15.6981C17.7169 15.4404 17.3398 15.2831 16.9258 15.2831C16.4914 15.2831 16.0977 15.4563 15.8105 15.737L15.811 11.9952C15.811 10.2426 14.6256 8.76642 13.012 8.32349C13.3224 8.05832 13.5284 7.67486 13.5606 7.24318L13.565 7.1243L13.5592 6.97363C13.5317 6.65393 13.4089 6.36132 13.2191 6.12414C15.894 6.67553 17.9184 9.00684 17.9973 11.8245Z" fill="black"/>
</svg>
