<svg width="24" height="24" viewBox="0 0 24 24" fill="none" xmlns="http://www.w3.org/2000/svg">
<path d="M7.42857 0C3.32588 0 0 3.32588 0 7.42857V16.5714C0 20.6741 3.32588 24 7.42857 24H16.5714C20.6741 24 24 20.6741 24 16.5714V7.42857C24 3.32588 20.6741 0 16.5714 0H7.42857ZM8.26667 6C8.48758 6 8.66667 6.17909 8.66667 6.4V17.6C8.66667 17.8209 8.48758 18 8.26667 18H6.4C6.17909 18 6 17.8209 6 17.6V6.4C6 6.17909 6.17909 6 6.4 6H8.26667ZM18 8.26667C18 8.48758 17.8209 8.66667 17.6 8.66667H10.4C10.1791 8.66667 10 8.48758 10 8.26667V6.4C10 6.17909 10.1791 6 10.4 6H17.6C17.8209 6 18 6.17909 18 6.4V8.26667ZM18 11.0665V12.9332C18 13.1541 17.8209 13.3332 17.6 13.3332H10.4C10.1791 13.3332 10 13.1541 10 12.9332V11.0665C10 10.8456 10.1791 10.6665 10.4 10.6665H17.6C17.8209 10.6665 18 10.8456 18 11.0665ZM18 17.6C18 17.8209 17.8209 18 17.6 18H10.4C10.1791 18 10 17.8209 10 17.6V15.7333C10 15.5124 10.1791 15.3333 10.4 15.3333H17.6C17.8209 15.3333 18 15.5124 18 15.7333V17.6Z" fill="black"/>
</svg>
