<svg width="24" height="24" viewBox="0 0 24 24" fill="none" xmlns="http://www.w3.org/2000/svg">
<path d="M7.42857 0C3.32588 0 0 3.32588 0 7.42857V16.5714C0 20.6741 3.32588 24 7.42857 24H16.5714C20.6741 24 24 20.6741 24 16.5714V7.42857C24 3.32588 20.6741 0 16.5714 0H7.42857ZM16.3434 16.4624H7.64237C7.21523 16.4624 6.83524 16.1911 6.69655 15.7871L5.05747 11.0123C4.74408 10.0994 5.77797 9.31621 6.57192 9.86505L7.63191 10.5978C7.59783 10.7243 7.57965 10.8574 7.57965 10.9947C7.57965 11.8355 8.26128 12.5172 9.10211 12.5172C9.94294 12.5172 10.6246 11.8355 10.6246 10.9947C10.6246 10.3196 10.1851 9.74712 9.57671 9.54768L11.0598 6.52509C11.4266 5.7775 12.4929 5.77952 12.8569 6.52848L14.3267 9.5529C13.7264 9.75694 13.2945 10.3254 13.2945 10.9947C13.2945 11.8355 13.9761 12.5172 14.817 12.5172C15.6578 12.5172 16.3394 11.8355 16.3394 10.9947C16.3394 10.8564 16.321 10.7223 16.2864 10.5949L17.4368 9.81538C18.2319 9.27658 19.2554 10.0595 18.9436 10.9679L17.2892 15.7871C17.1505 16.1911 16.7705 16.4624 16.3434 16.4624Z" fill="black"/>
</svg>
