<svg width="24" height="24" viewBox="0 0 24 24" fill="none" xmlns="http://www.w3.org/2000/svg">
<path d="M7.42857 0C3.32588 0 0 3.32588 0 7.42857V16.5714C0 20.6741 3.32588 24 7.42857 24H16.5714C20.6741 24 24 20.6741 24 16.5714V7.42857C24 3.32588 20.6741 0 16.5714 0H7.42857ZM15 18H9C7.34315 18 6 16.6569 6 15V9C6 7.34315 7.34315 6 9 6H15C16.6569 6 18 7.34315 18 9V15C18 16.6569 16.6569 18 15 18ZM14.666 8.66765C14.666 9.03506 14.9663 9.33333 15.3337 9.33333C15.7011 9.33333 15.9993 9.03506 15.9993 8.66765C16.0013 8.29827 15.7011 8 15.3317 8C14.9643 8.00198 14.666 8.30025 14.666 8.66765ZM13.2367 10.7623C13.9201 11.4457 13.9201 12.5537 13.2367 13.2371C12.5532 13.9206 11.4452 13.9206 10.7618 13.2371C10.0784 12.5537 10.0784 11.4457 10.7618 10.7623C11.4452 10.0789 12.5532 10.0789 13.2367 10.7623ZM9.84254 9.84303C8.65144 11.0341 8.65144 12.9653 9.84254 14.1564C11.0336 15.3475 12.9648 15.3475 14.1559 14.1564C15.347 12.9653 15.347 11.0341 14.1559 9.84303C12.9648 8.65193 11.0336 8.65193 9.84254 9.84303Z" fill="black"/>
</svg>
