<svg width="24" height="24" viewBox="0 0 24 24" fill="none" xmlns="http://www.w3.org/2000/svg">
<path d="M7.42857 0C3.32588 0 0 3.32588 0 7.42857V16.5714C0 20.6741 3.32588 24 7.42857 24H16.5714C20.6741 24 24 20.6741 24 16.5714V7.42857C24 3.32588 20.6741 0 16.5714 0H7.42857ZM12.7614 9.30113C14.206 9.42518 15.4856 9.89721 16.4424 10.5821C17.0583 10.0216 18.011 10.0552 18.5843 10.6637C19.1635 11.2789 19.1336 12.2473 18.5184 12.8258C18.4137 12.9246 18.2902 13.0001 18.1622 13.0652C18.1921 13.2344 18.2124 13.405 18.2124 13.5779C18.2124 15.8919 15.4733 17.8878 12 17.8878C8.52674 17.8878 5.78765 15.8919 5.78765 13.5779C5.78765 13.405 5.80785 13.2344 5.83779 13.066C5.70982 13.0001 5.58708 12.9253 5.48156 12.8265C4.86638 12.2473 4.83645 11.2796 5.4157 10.6644C5.98822 10.056 6.94091 10.0223 7.55758 10.5829C8.517 9.89545 9.80102 9.42262 11.2505 9.30012C11.2478 9.23591 11.2534 9.1703 11.2682 9.10462L11.7389 7.00539C12.0062 5.81366 13.1758 5.0541 14.3731 5.29433L15.9377 5.6079C16.0588 5.55785 16.1916 5.53024 16.3308 5.53024C16.8996 5.53024 17.3608 5.99139 17.3608 6.56024C17.3608 7.1291 16.8996 7.59024 16.3308 7.59024C15.9324 7.59024 15.5868 7.36404 15.4155 7.03306L14.0783 6.76508C13.6802 6.68516 13.2915 6.93743 13.2025 7.33366L12.7614 9.30113ZM13.4961 12.7582C13.4972 13.1706 13.8319 13.5046 14.2445 13.5046C14.6578 13.5046 14.9929 13.1695 14.9929 12.7562C14.9929 12.3415 14.6563 12.0078 14.2437 12.0078C13.8319 12.0078 13.4942 12.3419 13.4961 12.7582ZM9.55819 12.0078C9.14639 12.0078 8.80864 12.3419 8.81055 12.7582C8.81165 13.1706 9.14635 13.5046 9.55894 13.5046C9.97221 13.5046 10.3073 13.1695 10.3073 12.7562C10.3073 12.3415 9.97075 12.0078 9.55819 12.0078ZM8.93239 14.7843C8.80895 15.1214 8.98215 15.4948 9.31925 15.6182C10.1131 15.9089 11.012 16.0792 12.0005 16.0792C12.9889 16.0792 13.8878 15.9089 14.6817 15.6182C15.0188 15.4948 15.192 15.1214 15.0685 14.7843C14.9451 14.4472 14.5717 14.274 14.2346 14.3975C13.5856 14.6351 12.8381 14.7792 12.0005 14.7792C11.1628 14.7792 10.4153 14.6351 9.76626 14.3975C9.42916 14.274 9.05583 14.4472 8.93239 14.7843Z" fill="black"/>
</svg>
