<svg width="24" height="24" viewBox="0 0 24 24" fill="none" xmlns="http://www.w3.org/2000/svg">
<path d="M0 7.42857V16.5714C0 20.6741 3.32588 24 7.42857 24H16.5714C20.6741 24 24 20.6741 24 16.5714V7.42857C24 3.32588 20.6741 0 16.5714 0H7.42857C3.32588 0 0 3.32588 0 7.42857ZM5.7122 8.62723C5.5002 6.93377 6.45272 6.23389 6.45272 6.23389C6.45272 6.23389 6.52115 6.6991 6.78575 7.11154C8.07954 5.72044 9.93759 4.85 11.9971 4.85C15.8921 4.85 19.0664 7.96314 19.0664 11.8237C19.0664 11.9321 19.0398 12.0343 18.9929 12.1242C18.8404 15.3598 16.2422 18.722 11.9972 18.722C9.193 18.722 7.46462 17.2555 6.59241 16.2175C6.11453 15.6488 5.89366 15.2089 5.89366 15.2089C5.28876 14.113 5.05058 13.0611 5.00742 12.1355C4.95671 12.0429 4.92788 11.9367 4.92788 11.8237C4.92788 10.6705 5.21112 9.58399 5.7122 8.62723ZM8.27005 7.49263C8.49308 7.49286 8.72068 7.50966 8.91537 7.55726C8.91537 7.55726 9.60865 6.61273 10.809 6.7852C10.1099 7.35318 9.86367 7.78664 9.83799 8.13444C9.81757 8.41325 10.1234 8.69322 10.5791 8.6892C10.8184 8.68747 11.4656 8.68977 11.7381 8.75358C11.9021 8.81279 11.8455 9.09621 11.7953 9.21694C11.6468 9.57382 10.771 10.2194 10.1594 10.6703C9.89812 10.8628 9.68507 11.0199 9.59756 11.1037C9.53746 11.1152 9.39448 11.2888 9.35713 11.4204C9.15697 12.1201 10.3107 13.313 12.0404 12.5058C12.67 12.2115 13.2128 12.6507 13.4176 12.8824C13.5962 13.0841 13.5127 13.3653 13.1579 13.3135C13.009 13.2897 12.7513 13.4541 12.4901 13.6208C12.3675 13.699 12.2441 13.7778 12.1308 13.8378C11.844 13.9896 11.1912 13.9867 10.6714 13.9843C10.1716 13.982 9.79482 13.9803 9.98447 14.1172C13.5372 16.6736 17.0405 13.2343 16.8564 8.7646C15.8323 7.19402 14.042 6.15 11.9971 6.15C10.574 6.15 9.27413 6.65569 8.27005 7.49263Z" fill="black"/>
</svg>
