<svg width="24" height="24" viewBox="0 0 24 24" fill="none" xmlns="http://www.w3.org/2000/svg">
<path d="M16.5714 24C20.6741 24 24 20.6741 24 16.5714V7.42857C24 3.32589 20.6741 0 16.5714 0H7.42857C3.32589 0 0 3.32589 0 7.42857V16.5714C0 20.6741 3.32589 24 7.42857 24H16.5714ZM6.75 8.40039C6.75 8.3979 6.75022 8.39952 6.75104 8.40544L6.75104 8.40545C6.75454 8.43097 6.76899 8.53624 6.82377 8.73717C6.88541 8.96325 6.98705 9.27043 7.14235 9.64547C7.45261 10.3947 7.9717 11.4019 8.79762 12.5596L8.80251 12.5665L8.80247 12.5665C9.6265 13.7495 10.6804 14.4494 11.6651 14.6877V12.0365C11.6631 12.0142 11.6621 11.9916 11.6621 11.9688C11.6621 11.9459 11.6631 11.9233 11.6651 11.901V9.15039H10.9889C10.5747 9.15039 10.2389 8.81461 10.2389 8.40039C10.2389 7.98618 10.5747 7.65039 10.9889 7.65039H12.4151C12.8293 7.65039 13.1651 7.98618 13.1651 8.40039V11.2188H13.7704C13.7932 11.2167 13.8164 11.2156 13.8398 11.2156C14.5035 11.2156 15.2883 10.8786 15.8577 10.2112L15.8635 10.2045C16.3566 9.64014 16.7253 9.10089 16.9698 8.70412C17.0918 8.50618 17.1821 8.34497 17.2408 8.23548C17.2701 8.18078 17.2915 8.1391 17.305 8.11233L17.3193 8.08364L17.3216 8.07883C17.4992 7.70475 17.9465 7.54516 18.3207 7.72266C18.6949 7.9002 18.8544 8.3475 18.6769 8.72174L18.6763 8.72289L18.6756 8.72444L18.6735 8.72875L18.667 8.74207C18.6617 8.75301 18.6543 8.76804 18.6448 8.78691C18.6258 8.82465 18.5984 8.87781 18.5627 8.94444C18.4913 9.07762 18.3861 9.26505 18.2469 9.49102C17.9694 9.94131 17.5535 10.5496 16.9959 11.1883C16.739 11.4888 16.4482 11.7491 16.1356 11.9656C16.4482 12.182 16.7389 12.4423 16.9958 12.7428C17.5535 13.3812 17.9693 13.9893 18.2468 14.4395C18.3861 14.6654 18.4912 14.8529 18.5627 14.986C18.5984 15.0527 18.6258 15.1058 18.6448 15.1436C18.6543 15.1624 18.6617 15.1775 18.667 15.1884L18.6735 15.2017L18.6756 15.206L18.6763 15.2076C18.6764 15.2077 18.6769 15.2087 18.0482 15.507L18.6769 15.2087C18.8544 15.583 18.6949 16.0303 18.3207 16.2078C17.9468 16.3852 17.5 16.2262 17.3221 15.8527L17.3193 15.8468L17.305 15.8182C17.2916 15.7914 17.2702 15.7497 17.2408 15.695C17.1821 15.5856 17.0918 15.4244 16.9699 15.2265C16.7254 14.8298 16.3567 14.2908 15.8637 13.7268L15.8577 13.72C15.3049 13.0721 14.5492 12.7355 13.8983 12.7164C13.8788 12.718 13.859 12.7188 13.839 12.7188H13.1651V15.5303C13.1651 15.9445 12.8293 16.2803 12.4151 16.2803H12.4131C10.6475 16.2803 8.8257 15.2222 7.57408 13.4274C6.68373 12.1788 6.11002 11.0731 5.75648 10.2194C5.57972 9.7925 5.45665 9.42535 5.3766 9.13174C5.30243 8.85969 5.25 8.59696 5.25 8.40039C5.25 7.98618 5.58579 7.65039 6 7.65039C6.41422 7.65039 6.75 7.98618 6.75 8.40039ZM17.9992 8.40028L18.6769 8.72174C18.6769 8.72161 18.6769 8.72174 17.9992 8.40028Z" fill="black"/>
</svg>
