<svg width="24" height="24" viewBox="0 0 24 24" fill="none" xmlns="http://www.w3.org/2000/svg">
<path d="M0 7.42857V16.5714C0 20.6741 3.32588 24 7.42857 24H16.5714C20.6741 24 24 20.6741 24 16.5714V7.42857C24 3.32588 20.6741 0 16.5714 0H7.42857C3.32588 0 0 3.32588 0 7.42857ZM9.33331 7.3335H15.9999C17.1045 7.3335 17.9999 8.22893 17.9999 9.3335V16.0001C17.9999 17.1047 17.1045 18.0001 15.9999 18.0001H9.33331C8.22874 18.0001 7.33331 17.1046 7.33331 16.0001V9.33349C7.33331 8.22892 8.22874 7.3335 9.33331 7.3335ZM11.1302 15.3335C11.4063 15.3335 11.6302 15.1097 11.6302 14.8335V11.9434C11.6302 11.5635 11.9381 11.2556 12.3179 11.2556H12.7395C12.8893 11.2556 13.0367 11.2941 13.1673 11.3675C13.5879 11.6038 13.7373 12.1364 13.501 12.557C13.3625 12.8035 13.1699 12.9988 12.9231 13.1427C12.7683 13.233 12.6888 13.4251 12.769 13.5853L13.5054 15.0572C13.5901 15.2266 13.7632 15.3335 13.9526 15.3335H14.4191C14.8034 15.3335 15.0441 14.9179 14.8527 14.5846L14.3816 13.7639C14.6127 13.4945 14.8534 13.0729 15.1035 12.4991C15.2016 12.274 15.2523 12.0311 15.2523 11.7856C15.2523 10.7996 14.453 10.0003 13.4669 10.0002H11.3755C10.6158 10.0002 9.99997 10.6161 9.99997 11.3757V14.8335C9.99997 15.1097 10.2238 15.3335 10.5 15.3335H11.1302ZM6.3 8.00292V11.9637C6.3 12.3227 6.00899 12.6137 5.65 12.6137C5.29101 12.6137 5 12.3227 5 11.9637V8.00292C5 6.34445 6.34445 5 8.00292 5H12.0409C12.3999 5 12.6909 5.29101 12.6909 5.65C12.6909 6.00899 12.3999 6.3 12.0409 6.3H8.00292C7.06242 6.3 6.3 7.06242 6.3 8.00292Z" fill="black"/>
</svg>
