<svg width="24" height="24" viewBox="0 0 24 24" fill="none" xmlns="http://www.w3.org/2000/svg">
<path d="M7.42857 0C3.32588 0 0 3.32588 0 7.42857V16.5714C0 20.6741 3.32588 24 7.42857 24H16.5714C20.6741 24 24 20.6741 24 16.5714V7.42857C24 3.32588 20.6741 0 16.5714 0H7.42857ZM8.934 8.99333C8.57467 8.86109 8.19278 9.12636 8.18267 9.51516L8.14222 11.0458C7.74478 11.5447 7.513 12.1243 7.513 12.7459C7.513 14.5173 8.76678 15.9521 10.3464 16.0646C9.65345 17.1494 9.66667 18.433 9.66667 18.433V19C8.88267 18.6745 7.394 17.9167 6.379 16.5334C5.54522 15.3971 5 13.8775 5 12.2732C5 10.1526 5.79956 8.47862 6.876 7.294C8.297 5.73167 10.2523 5 12 5C13.7477 5 15.703 5.73167 17.124 7.294C18.2004 8.47862 19 10.1526 19 12.2732C19 13.8783 18.4548 15.3971 17.621 16.5334C16.606 17.9167 15.1173 18.6745 14.3333 19V18.433C14.3333 18.433 14.3466 17.1494 13.6536 16.0646C15.2332 15.9521 16.487 14.5173 16.487 12.7459C16.487 12.1243 16.2544 11.5447 15.8578 11.0458L15.8173 9.51595C15.8072 9.12715 15.4253 8.86188 15.066 8.99412L13.4521 9.58801C12.9963 9.47161 12.5087 9.40588 12 9.40588C11.4913 9.40588 11.0037 9.47161 10.5479 9.58722L8.934 8.99333Z" fill="black"/>
</svg>
