<svg width="24" height="24" viewBox="0 0 24 24" fill="none" xmlns="http://www.w3.org/2000/svg">
<path d="M7.42857 0C3.32588 0 0 3.32588 0 7.42857V16.5714C0 20.6741 3.32588 24 7.42857 24H16.5714C20.6741 24 24 20.6741 24 16.5714V7.42857C24 3.32588 20.6741 0 16.5714 0H7.42857ZM10.7077 12.6494C11.3786 12.6967 11.9077 13.2555 11.9077 13.9385V16.7077C11.9077 17.3754 11.3999 17.9311 10.7173 17.9957L10.6154 18C9.90141 18 9.32308 17.4217 9.32308 16.7077V13.9385C9.32308 13.2707 9.83091 12.7151 10.5134 12.6505L10.5935 12.6467L10.7077 12.6494ZM15.2264 16.6058L15.2308 16.7077C15.2308 17.3754 14.7229 17.9311 14.0404 17.9957L13.9385 18C13.2245 18 12.6462 17.4217 12.6462 16.7077V15.8769C12.6462 15.622 12.8528 15.4154 13.1077 15.4154H13.9385C14.6062 15.4154 15.1618 15.9232 15.2264 16.6058ZM8.58462 13.1077V13.9385C8.58462 14.6062 8.07678 15.1618 7.39424 15.2264L7.29231 15.2308C6.62458 15.2308 6.06894 14.7229 6.00432 14.0404L6 13.9385C6 13.2245 6.57833 12.6462 7.29231 12.6462H8.12308C8.37798 12.6462 8.58462 12.8528 8.58462 13.1077ZM17.9957 13.2827L18 13.3846C18 14.0986 17.4217 14.6769 16.7077 14.6769H13.9385C13.2707 14.6769 12.7151 14.1691 12.6505 13.4866L12.6462 13.3846C12.6462 12.6706 13.2245 12.0923 13.9385 12.0923H16.7077C17.3754 12.0923 17.9311 12.6001 17.9957 13.2827ZM11.3495 10.5134L11.3538 10.6154C11.3538 11.3294 10.7755 11.9077 10.0615 11.9077H7.29231C6.62458 11.9077 6.06894 11.3999 6.00432 10.7173L6 10.6154C6 9.90141 6.57833 9.32308 7.29231 9.32308H10.0615C10.7293 9.32308 11.2849 9.83091 11.3495 10.5134ZM14.6769 7.29231V10.0615C14.6769 10.7293 14.1691 11.2849 13.4866 11.3495L13.3846 11.3538C12.6706 11.3538 12.0923 10.7755 12.0923 10.0615V7.29231C12.0923 6.62458 12.6001 6.06894 13.2827 6.00432L13.3846 6C14.0986 6 14.6769 6.57833 14.6769 7.29231ZM16.8023 8.77265C17.4272 8.81799 17.9341 9.30956 17.9957 9.9596L18 10.0615C18 10.7755 17.4217 11.3538 16.7077 11.3538H15.8769C15.622 11.3538 15.4154 11.1472 15.4154 10.8923V10.0615C15.4154 9.39381 15.9232 8.83817 16.6058 8.77355L16.6858 8.76975L16.8023 8.77265ZM11.3538 7.29231V8.12308C11.3538 8.37798 11.1472 8.58462 10.8923 8.58462H10.0615C9.39381 8.58462 8.83817 8.07678 8.77355 7.39424L8.76923 7.29231C8.76923 6.62458 9.27706 6.06894 9.9596 6.00432L10.0615 6C10.7755 6 11.3538 6.57833 11.3538 7.29231Z" fill="black"/>
</svg>
