<svg width="24" height="24" viewBox="0 0 24 24" fill="none" xmlns="http://www.w3.org/2000/svg">
<path d="M7.42857 0C3.32588 0 0 3.32588 0 7.42857V16.5714C0 20.6741 3.32588 24 7.42857 24H16.5714C20.6741 24 24 20.6741 24 16.5714V7.42857C24 3.32588 20.6741 0 16.5714 0H7.42857ZM6.05448 15.116C5.90278 16.3769 6.80014 17.4463 8.06819 17.5159C8.29024 17.5281 8.46037 17.7179 8.44819 17.94C8.43602 18.162 8.24613 18.3322 8.02409 18.32C6.29141 18.225 5.04764 16.7427 5.25492 15.0198C5.28148 14.799 5.482 14.6416 5.7028 14.6682C5.92359 14.6947 6.08104 14.8952 6.05448 15.116ZM10.3853 6.25768L12.8451 9.09905L12.8483 9.09909L15.2279 11.8405L16.1857 9.1293C16.2041 9.07704 16.2529 9.04152 16.3083 9.03982C16.8489 9.02408 17.1862 9.41982 17.3203 10.227L17.33 10.3026L17.5004 11.3899C17.5549 11.7841 17.5897 12.1486 17.6037 12.5227C17.6636 14.1136 17.3203 15.4712 16.3877 16.5226C13.9256 19.1052 11.826 18.89 9.79707 16.3951L6.80735 13.0338C6.561 12.7568 6.58579 12.3326 6.86271 12.0863C7.11985 11.8575 7.50397 11.8626 7.75478 12.0862L7.81017 12.1417L9.3801 13.9076C9.72759 14.1932 10.0902 13.8205 9.84698 13.4676L9.86103 13.4907L6.58938 9.81318C6.34303 9.53626 6.36781 9.11207 6.64473 8.86572C6.90187 8.63696 7.286 8.64199 7.53681 8.8656L7.5922 8.92107L10.092 11.7316C10.4529 11.9906 10.7605 11.4853 10.3583 11.0798C10.3395 11.0609 10.3228 11.0408 10.308 11.0197L7.22678 7.57843C6.9795 7.30234 7.00285 6.87806 7.27894 6.63078C7.5353 6.40116 7.91945 6.40489 8.171 6.62765L8.22658 6.68294L11.2522 10.061C11.5436 10.2796 11.7872 10.0529 11.6393 9.75565L9.37054 7.13622C9.12793 6.85601 9.15842 6.43219 9.43863 6.18959C9.69882 5.96432 10.0828 5.97451 10.3306 6.20147L10.3853 6.25768ZM7.41099 15.1902C7.34903 15.7052 7.71112 16.1367 8.22898 16.1651C8.45103 16.1773 8.62117 16.3671 8.60899 16.5892C8.59681 16.8112 8.40693 16.9814 8.18488 16.9692C7.20238 16.9153 6.49389 16.071 6.61143 15.094C6.638 14.8732 6.83852 14.7158 7.05931 14.7424C7.2801 14.7689 7.43755 14.9694 7.41099 15.1902ZM14.7341 8.72742C14.515 8.68933 14.3683 8.48085 14.4064 8.26175C14.4952 7.75077 14.1562 7.3009 13.6405 7.24543C13.4194 7.22164 13.2595 7.02312 13.2832 6.80201C13.307 6.5809 13.5056 6.42094 13.7267 6.44472C14.705 6.54996 15.3683 7.43022 15.1998 8.39966C15.1617 8.61876 14.9532 8.7655 14.7341 8.72742ZM16.0865 8.87461C15.8674 8.83653 15.7207 8.62804 15.7587 8.40894C15.9762 7.15775 15.136 6.04281 13.8734 5.90699C13.6523 5.88321 13.4923 5.68468 13.5161 5.46357C13.5399 5.24247 13.7384 5.0825 13.9595 5.10629C15.6848 5.29188 16.8493 6.8372 16.5522 8.54685C16.5141 8.76595 16.3056 8.91269 16.0865 8.87461Z" fill="black"/>
</svg>
