<svg width="24" height="24" viewBox="0 0 24 24" fill="none" xmlns="http://www.w3.org/2000/svg">
<path d="M7.42857 0C3.32588 0 0 3.32588 0 7.42857V16.5714C0 20.6741 3.32588 24 7.42857 24H16.5714C20.6741 24 24 20.6741 24 16.5714V7.42857C24 3.32588 20.6741 0 16.5714 0H7.42857ZM9.99243 5.54048L10.8924 6.44049C10.9698 6.51783 11.0236 6.60981 11.0538 6.70752C11.3349 6.63704 11.6291 6.59961 11.9321 6.59961C12.2357 6.59961 12.5305 6.63719 12.8121 6.70795C12.8423 6.61009 12.8961 6.51795 12.9736 6.44049L13.8736 5.54048C14.1274 5.28664 14.539 5.28664 14.7928 5.54048C15.0467 5.79432 15.0467 6.20588 14.7928 6.45972L14.0001 7.25247C14.7579 7.78514 15.3009 8.60261 15.4736 9.54932H8.39056C8.56331 8.60215 9.10682 7.78434 9.86517 7.25169L9.07319 6.45972C8.81935 6.20588 8.81935 5.79432 9.07319 5.54048C9.32703 5.28664 9.73859 5.28664 9.99243 5.54048ZM9.48242 16.1993H8.9987C8.6307 16.1993 8.33203 15.9006 8.33203 15.5326V10.8493H15.5321V15.5326C15.5321 15.9006 15.2334 16.1993 14.8654 16.1993H14.382C14.382 16.1993 14.382 16.1993 14.382 16.1993V17.9993C14.382 18.3583 14.091 18.6493 13.732 18.6493C13.373 18.6493 13.082 18.3583 13.082 17.9993V16.1993C13.082 16.1993 13.082 16.1993 13.082 16.1993H10.7824C10.7824 16.1993 10.7824 16.1993 10.7824 16.1993V17.9993C10.7824 18.3583 10.4914 18.6493 10.1324 18.6493C9.77344 18.6493 9.48242 18.3583 9.48242 17.9993V16.1993C9.48242 16.1993 9.48242 16.1993 9.48242 16.1993ZM17.2652 9.51709C17.6242 9.51709 17.9152 9.8081 17.9152 10.1671V13.8338C17.9152 14.1928 17.6242 14.4838 17.2652 14.4838C16.9062 14.4838 16.6152 14.1928 16.6152 13.8338V10.1671C16.6152 9.8081 16.9062 9.51709 17.2652 9.51709ZM7.24922 10.1671V13.8338C7.24922 14.1928 6.9582 14.4838 6.59922 14.4838C6.24023 14.4838 5.94922 14.1928 5.94922 13.8338V10.1671C5.94922 9.8081 6.24023 9.51709 6.59922 9.51709C6.9582 9.51709 7.24922 9.8081 7.24922 10.1671Z" fill="black"/>
</svg>
