<svg width="24" height="24" viewBox="0 0 24 24" fill="none" xmlns="http://www.w3.org/2000/svg">
<path d="M7.42857 0C3.32588 0 0 3.32588 0 7.42857V16.5714C0 20.6741 3.32588 24 7.42857 24H16.5714C20.6741 24 24 20.6741 24 16.5714V7.42857C24 3.32588 20.6741 0 16.5714 0H7.42857ZM8.20833 15.4167C6.43642 15.4167 5 13.9802 5 12.2083C5 10.4364 6.43642 9 8.20833 9C9.98025 9 11.4167 10.4364 11.4167 12.2083C11.4167 13.9802 9.98025 15.4167 8.20833 15.4167ZM16.0833 12.2084C16.0833 13.8192 15.1692 15.1251 14.0417 15.1251C12.9141 15.1251 12 13.8192 12 12.2084C12 10.5976 12.9141 9.29172 14.0417 9.29172C15.1692 9.29172 16.0833 10.5976 16.0833 12.2084ZM17.8333 14.8333C17.189 14.8333 16.6667 13.658 16.6667 12.2083C16.6667 10.7585 17.189 9.58328 17.8333 9.58328C18.4777 9.58328 19 10.7585 19 12.2083C19 13.658 18.4777 14.8333 17.8333 14.8333Z" fill="black"/>
</svg>
