<svg width="24" height="24" viewBox="0 0 24 24" fill="none" xmlns="http://www.w3.org/2000/svg">
<path d="M7.42857 0C3.32588 0 0 3.32588 0 7.42857V16.5714C0 20.6741 3.32588 24 7.42857 24H16.5714C20.6741 24 24 20.6741 24 16.5714V7.42857C24 3.32588 20.6741 0 16.5714 0H7.42857ZM6.6622 5.71051C7.86782 4.83984 9.57358 4.76514 10.857 5.50977C12.3045 5.25845 13.8353 5.49732 15.1272 6.20148C16.5693 6.97645 17.701 8.30698 18.2284 9.85847C18.5908 10.9081 18.6748 12.0488 18.4866 13.1428C18.9502 13.9582 19.1112 14.9401 18.923 15.8606C18.7246 16.876 18.0985 17.7957 17.2335 18.3614C16.0357 19.1675 14.3898 19.2126 13.1414 18.4898C11.7515 18.7286 10.2861 18.5217 9.02911 17.8797C7.56758 17.1452 6.40241 15.8458 5.83227 14.3122C5.41924 13.2167 5.31579 12.0107 5.5118 10.8575C5.03811 10.0273 4.88488 9.02437 5.08712 8.09067C5.28779 7.13674 5.86493 6.26918 6.6622 5.71051ZM10.7158 9.98844C10.9271 9.83738 11.3295 9.68765 12.0006 9.68765C12.438 9.68765 12.8156 9.78931 13.0881 9.93505C13.3688 10.0852 13.4831 10.2488 13.516 10.3447C13.6593 10.7626 14.1143 10.9852 14.5323 10.8418C14.9502 10.6985 15.1727 10.2434 15.0294 9.82552C14.8274 9.23669 14.3614 8.80161 13.8427 8.52417C13.3158 8.24237 12.6748 8.08765 12.0006 8.08765C11.1161 8.08765 10.3518 8.28183 9.78526 8.6869C9.19753 9.10712 8.86719 9.72817 8.86719 10.4244C8.86719 11.4999 9.64474 12.4181 10.7056 12.5954L13.0333 12.9837C13.3186 13.031 13.5294 13.276 13.534 13.5658C13.5316 13.7151 13.4715 13.859 13.2854 13.9921C13.0742 14.1431 12.6718 14.2929 12.0006 14.2929C11.5638 14.2929 11.1861 14.1912 10.9134 14.0454C10.6325 13.8952 10.5182 13.7315 10.4853 13.6358C10.342 13.2179 9.88695 12.9953 9.46904 13.1387C9.05112 13.2821 8.82855 13.7371 8.97193 14.155C9.174 14.744 9.64032 15.179 10.159 15.4564C10.6859 15.7381 11.3268 15.8929 12.0006 15.8929C12.8852 15.8929 13.6495 15.6987 14.216 15.2936C14.7897 14.8834 15.1182 14.2819 15.1335 13.606C15.1339 13.5959 15.1341 13.5858 15.1341 13.5756V13.5561C15.1341 13.5462 15.1339 13.5363 15.1336 13.5264C15.1103 12.4725 14.3406 11.5789 13.2952 11.4053L10.9687 11.0172C10.6794 10.9687 10.4672 10.7182 10.4672 10.4244C10.4672 10.2717 10.5258 10.1244 10.7158 9.98844Z" fill="black"/>
</svg>
