<svg width="24" height="24" viewBox="0 0 24 24" fill="none" xmlns="http://www.w3.org/2000/svg">
<path d="M7.42857 0C3.32588 0 0 3.32588 0 7.42857V16.5714C0 20.6741 3.32588 24 7.42857 24H16.5714C20.6741 24 24 20.6741 24 16.5714V7.42857C24 3.32588 20.6741 0 16.5714 0H7.42857ZM11.5314 5.18116C11.8051 4.93961 12.2159 4.93961 12.4896 5.18116L17.5505 9.6466C17.5993 9.68972 17.6409 9.7378 17.6752 9.78935C17.8827 9.9167 18.021 10.1457 18.021 10.407V13.5933C18.021 13.8547 17.8825 14.0838 17.6749 14.2111C17.6407 14.2625 17.5992 14.3104 17.5505 14.3534L12.4896 18.8188C12.2159 19.0604 11.8051 19.0604 11.5314 18.8188L6.47057 14.3534C6.42182 14.3104 6.38035 14.2625 6.34614 14.2111C6.13851 14.0837 6 13.8547 6 13.5933V10.407C6 10.1457 6.13838 9.91671 6.34586 9.78936C6.38012 9.73781 6.42168 9.68973 6.47057 9.6466L11.5314 5.18116ZM16.1141 12L16.5727 12.4047V11.5953L16.1141 12ZM7.90695 12L7.44832 11.5953V12.4047L7.90695 12ZM9.00147 12.9658L11.2864 14.9818V16.6711L8.04421 13.8104L9.00147 12.9658ZM15.9768 13.8104L15.0196 12.9658L12.7347 14.9818V16.6711L15.9768 13.8104ZM13.925 12L12.0105 10.3107L10.096 12L12.0105 13.6893L13.925 12ZM15.0196 11.0342L15.9768 10.1896L12.7347 7.32887V9.01816L15.0196 11.0342ZM9.00147 11.0342L11.2864 9.01817V7.32888L8.04421 10.1896L9.00147 11.0342Z" fill="black"/>
</svg>
