<svg width="24" height="24" viewBox="0 0 24 24" fill="none" xmlns="http://www.w3.org/2000/svg">
<path d="M16.5714 24C20.6741 24 24 20.6741 24 16.5714V7.42857C24 3.32589 20.6741 0 16.5714 0H7.42857C3.32589 0 0 3.32589 0 7.42857V16.5714C0 20.6741 3.32589 24 7.42857 24H16.5714ZM6.28805 16.6735C5.98818 16.5046 5.81745 16.2143 5.78461 15.9098C5.75954 15.8363 5.74732 15.7571 5.7505 15.6749L6.10759 6.44816C6.14375 5.5136 7.36643 5.18822 7.86233 5.98117L9.68349 8.89321L10.6139 7.33334C10.9887 6.70504 11.9031 6.71833 12.2595 7.35724L13.3246 9.26699L14.6764 8.18219C15.2522 7.72012 16.113 8.01988 16.2772 8.73966L17.7523 15.2049C17.8524 15.6437 17.647 16.0953 17.2505 16.3083L12.2761 18.9798C11.6726 19.3039 10.9452 19.2965 10.3483 18.9604L6.28805 16.6735ZM7.14951 13.1415L8.94113 10.1378C8.91494 10.1091 8.89096 10.0777 8.86963 10.0436L7.36267 7.63394L7.14951 13.1415ZM12.2533 10.015L11.4196 8.52029L8.81627 12.8849L12.3009 10.0885C12.2837 10.0654 12.2677 10.0409 12.2533 10.015Z" fill="black"/>
</svg>
