<svg width="24" height="24" viewBox="0 0 24 24" fill="none" xmlns="http://www.w3.org/2000/svg">
<path d="M7.42857 0C3.32588 0 0 3.32588 0 7.42857V16.5714C0 20.6741 3.32588 24 7.42857 24H16.5714C20.6741 24 24 20.6741 24 16.5714V7.42857C24 3.32588 20.6741 0 16.5714 0H7.42857ZM7.33705 6.24719C7.42417 5.98433 7.80374 5.98433 7.89085 6.24719L12 17.95L5.24009 13.1333C5.03553 12.9878 4.95075 12.7296 5.02853 12.495L7.33705 6.24719ZM12 17.95L16.1091 6.24719C16.1963 5.98433 16.5758 5.98433 16.6629 6.24719L18.9715 12.495C19.0493 12.7296 18.9645 12.9878 18.7599 13.1333L12 17.95ZM10.026 10.9499H13.946L12.0029 16.5499L10.026 10.9499Z" fill="black"/>
</svg>
