<svg width="24" height="24" viewBox="0 0 24 24" fill="none" xmlns="http://www.w3.org/2000/svg">
<path d="M7.42851 0C3.32582 0 -6.10352e-05 3.32588 -6.10352e-05 7.42857V16.5714C-6.10352e-05 20.6741 3.32582 24 7.42851 24H16.5714C20.6741 24 23.9999 20.6741 23.9999 16.5714V7.42857C23.9999 3.32588 20.6741 0 16.5714 0H7.42851ZM16.2519 7.74402C17.3798 8.86848 18.0007 10.3621 18 11.9505C17.9986 15.2291 15.3185 17.897 12.0257 17.897H12.023C11.0911 17.897 10.1736 17.6797 9.34245 17.2642C9.22902 17.2075 9.09913 17.1908 8.97643 17.2229L6.8382 17.7812C6.46572 17.8784 6.12769 17.5359 6.22979 17.1647L6.79215 15.1206C6.8277 14.9914 6.80898 14.8538 6.74597 14.7356C6.28862 13.8772 6.04945 12.9192 6.05073 11.9458C6.05141 8.6672 8.73155 6 12.0257 6C13.6238 6.00068 15.1239 6.62023 16.2519 7.74402ZM10.8085 13.1931C11.9181 14.3031 13.3239 15.0106 14.16 14.1781L14.3628 13.9753C14.6327 13.7054 14.5951 13.2587 14.282 13.0406L14.2479 13.0168L14.2472 13.0164C14.0594 12.8855 13.8581 12.7453 13.637 12.5898C13.3941 12.4191 13.0607 12.445 12.8497 12.6544L12.6205 12.8821C12.3364 12.7022 12.0553 12.4709 11.794 12.2102L11.793 12.2092C11.5323 11.9484 11.301 11.6669 11.1211 11.3828L11.3488 11.1536C11.5582 10.9426 11.5846 10.6087 11.4128 10.3658C11.2477 10.1315 11.0997 9.91955 10.963 9.72235C10.7455 9.40826 10.2982 9.37015 10.0278 9.64053L9.825 9.84332C8.99297 10.6794 9.69997 12.0841 10.8095 13.1946L10.8085 13.1931Z" fill="black"/>
</svg>
