<svg width="24" height="24" viewBox="0 0 24 24" fill="none" xmlns="http://www.w3.org/2000/svg">
<path d="M16.5714 24C20.6741 24 24 20.6741 24 16.5714V7.42857C24 3.32589 20.6741 2.08956e-09 16.5714 1.44246e-09L7.42857 0C3.32588 -6.47105e-10 0 3.32589 0 7.42857V16.5714C0 20.6741 3.32588 24 7.42857 24H16.5714ZM19 12C19 15.866 15.866 19 12 19C8.13401 19 5 15.866 5 12C5 8.13401 8.13401 5 12 5C15.866 5 19 8.13401 19 12ZM5.77778 12C5.77778 15.4364 8.56356 18.2222 12 18.2222C15.4364 18.2222 18.2222 15.4364 18.2222 12C18.2222 8.56356 15.4364 5.77778 12 5.77778C8.56356 5.77778 5.77778 8.56356 5.77778 12ZM13.7574 17.1546C13.2061 17.3425 12.6149 17.4444 12 17.4444C11.4813 17.4444 10.9795 17.3719 10.5043 17.2364L12.0822 12.6577L13.7574 17.1546ZM8.25012 15.9472C7.20631 14.9553 6.55556 13.5536 6.55556 12C6.55556 11.7775 6.5689 11.5582 6.59483 11.3427L8.25012 15.9472ZM15.3842 7.73485C15.21 8.16264 15.2604 8.62504 15.5365 9.09204L15.6173 9.2195L15.6839 9.32299C15.9898 9.82325 16.2702 10.6269 16.5168 11.7271L16.5731 11.9862L16.6073 12.1576L15.3434 15.7128L12.9673 8.87616L13.1938 8.85437L13.6462 8.80233C13.8452 8.7781 13.9869 8.59715 13.9626 8.39816C13.9384 8.19917 13.7575 8.0575 13.5585 8.08172L13.4452 8.09533L13.3347 8.10825L12.9207 8.15289L12.5518 8.18634L12.2282 8.20862L11.9503 8.21975L11.8285 8.22114L11.5967 8.21653L11.324 8.20271L11.2495 8.19781L11.1724 8.19234L10.8388 8.16466L10.4648 8.12773L10.0505 8.08152C9.85145 8.05821 9.67115 8.20071 9.64784 8.39981C9.62453 8.59891 9.76703 8.77921 9.96613 8.80252L10.2066 8.82995L10.4349 8.8545L10.6851 8.87879L10.6927 8.9206L10.7055 8.96211L11.6832 11.5875L10.2451 15.7595L7.91858 8.90213C8.12555 8.87546 8.34728 8.84123 8.58394 8.79946C8.78135 8.76463 8.91314 8.57635 8.8783 8.37894C8.84347 8.18154 8.6552 8.04975 8.45779 8.08458C8.35789 8.10221 8.26103 8.11839 8.16723 8.13313C9.15166 7.15771 10.5055 6.55556 12 6.55556C13.279 6.55556 14.455 6.99658 15.3842 7.73485ZM17.4444 12C17.4444 13.3119 16.9804 14.5155 16.2075 15.4555L17.177 12.7348L17.4437 11.9681L17.4444 12Z" fill="black"/>
</svg>
