<svg width="24" height="24" viewBox="0 0 24 24" fill="none" xmlns="http://www.w3.org/2000/svg">
<path d="M7.62461 7.45039C7.91456 7.45039 8.14961 7.21534 8.14961 6.92539C8.14961 6.63544 7.91456 6.40039 7.62461 6.40039C7.33466 6.40039 7.09961 6.63544 7.09961 6.92539C7.09961 7.21534 7.33466 7.45039 7.62461 7.45039Z" fill="black"/>
<path d="M9.55 6.92539C9.55 6.63544 9.31495 6.40039 9.025 6.40039C8.73505 6.40039 8.5 6.63544 8.5 6.92539C8.5 7.21534 8.73505 7.45039 9.025 7.45039C9.31495 7.45039 9.55 7.21534 9.55 6.92539Z" fill="black"/>
<path d="M24 7.42857C24 3.32588 20.6741 0 16.5714 0H7.42857C3.32588 0 0 3.32588 0 7.42857V16.5714C0 20.6741 3.32588 24 7.42857 24H16.5714C20.6741 24 24 20.6741 24 16.5714V7.42857ZM5 8C5 6.34315 6.34315 5 8 5H16C17.6569 5 19 6.34315 19 8V8.19958H5V8ZM5 9.49959H19V16C19 17.6569 17.6569 19 16 19H8C6.34315 19 5 17.6569 5 16V9.49959Z" fill="black"/>
</svg>
