<svg width="24" height="24" viewBox="0 0 24 24" fill="none" xmlns="http://www.w3.org/2000/svg">
<path d="M16.5714 23.9999C20.6741 23.9999 24 20.674 24 16.5713V7.42848C24 3.32579 20.6741 -9.15527e-05 16.5714 -9.15527e-05H7.42857C3.32588 -9.15527e-05 0 3.32579 0 7.42848V16.5713C0 20.674 3.32588 23.9999 7.42857 23.9999H16.5714ZM8.38796 5.6394L9.48054 7.27828C10.1408 6.79441 10.9553 6.50869 11.8366 6.50869C12.5654 6.50869 13.2486 6.7041 13.8366 7.04538L15.2523 5.69296C15.5119 5.44499 15.9233 5.4544 16.1713 5.71398C16.4193 5.97355 16.4098 6.385 16.1503 6.63297L14.8461 7.87886C15.1828 8.26539 15.4463 8.71741 15.615 9.21328H17.4226C17.7816 9.21328 18.0726 9.5043 18.0726 9.86328C18.0726 10.2223 17.7816 10.5133 17.4226 10.5133H15.8265V11.5775H17.4223C17.7813 11.5775 18.0723 11.8686 18.0723 12.2275C18.0723 12.5865 17.7813 12.8775 17.4223 12.8775H15.8265V14.0014H17.4223C17.7813 14.0014 18.0723 14.2924 18.0723 14.6514C18.0723 15.0104 17.7813 15.3014 17.4223 15.3014H15.6128C15.0761 16.871 13.5881 17.9997 11.8366 17.9997C10.0851 17.9997 8.59714 16.871 8.06038 15.3014H6.56992C6.21094 15.3014 5.91992 15.0104 5.91992 14.6514C5.91992 14.2924 6.21094 14.0014 6.56992 14.0014H7.84668V12.8775H6.57002C6.21104 12.8775 5.92002 12.5865 5.92002 12.2275C5.92002 11.8685 6.21104 11.5775 6.57002 11.5775H7.84668V10.5133H6.57002C6.21104 10.5133 5.92002 10.2223 5.92002 9.86328C5.92002 9.5043 6.21104 9.21328 6.57002 9.21328H8.05824C8.17799 8.86115 8.34558 8.53114 8.55328 8.23099L7.30629 6.36051C7.10716 6.06182 7.18788 5.65825 7.48657 5.45912C7.78526 5.25999 8.18883 5.34071 8.38796 5.6394ZM10.879 10.1684C10.52 10.1684 10.229 10.4594 10.229 10.8184C10.229 11.1774 10.52 11.4684 10.879 11.4684H12.7942C13.1532 11.4684 13.4442 11.1774 13.4442 10.8184C13.4442 10.4594 13.1532 10.1684 12.7942 10.1684H10.879ZM10.229 13.6904C10.229 14.0494 10.52 14.3404 10.879 14.3404H12.7942C13.1532 14.3404 13.4442 14.0494 13.4442 13.6904C13.4442 13.3315 13.1532 13.0404 12.7942 13.0404H10.879C10.52 13.0404 10.229 13.3315 10.229 13.6904Z" fill="black"/>
</svg>
