<svg width="24" height="24" viewBox="0 0 24 24" fill="none" xmlns="http://www.w3.org/2000/svg">
<path d="M7.42857 0C3.32588 0 0 3.32588 0 7.42857V16.5714C0 20.6741 3.32588 24 7.42857 24H16.5714C20.6741 24 24 20.6741 24 16.5714V7.42857C24 3.32588 20.6741 0 16.5714 0H7.42857ZM14.5498 13.8695V7.96972L16.834 6.44699C17.3327 6.11499 18 6.47232 18 7.07166V14.7683C18 15.3677 17.3327 15.7243 16.834 15.3923L14.5498 13.8695ZM13.0498 8.66956V13.1696H12L12.4627 15.9469C12.6127 16.8489 11.9173 17.6696 11.0033 17.6696C10.28 17.6696 9.66267 17.1469 9.544 16.4329L9 13.1696H8.25C7.00733 13.1696 6 12.1622 6 10.9196C6 9.67689 7.00733 8.66956 8.25 8.66956H13.0498Z" fill="black"/>
</svg>
