<svg width="24" height="24" viewBox="0 0 24 24" fill="none" xmlns="http://www.w3.org/2000/svg">
<path d="M7.42857 0C3.32588 0 0 3.32588 0 7.42857V16.5714C0 20.6741 3.32588 24 7.42857 24H16.5714C20.6741 24 24 20.6741 24 16.5714V7.42857C24 3.32588 20.6741 0 16.5714 0H7.42857ZM9.1582 5.25C9.57242 5.25 9.9082 5.58579 9.9082 6V6.63184H13.4609V6C13.4609 5.58579 13.7967 5.25 14.2109 5.25C14.6252 5.25 14.9609 5.58579 14.9609 6V6.63184H15.4542C16.5112 6.63184 17.368 7.53001 17.368 8.63796V9.53748H6V8.63796C6 7.53001 6.85684 6.63184 7.91381 6.63184H8.4082V6C8.4082 5.58579 8.74399 5.25 9.1582 5.25ZM6 10.8375H17.368V15.9938C17.368 17.1017 16.5112 17.9999 15.4542 17.9999H7.91381C6.85684 17.9999 6 17.1017 6 15.9938V10.8375Z" fill="black"/>
</svg>
