<svg width="24" height="24" viewBox="0 0 24 24" fill="none" xmlns="http://www.w3.org/2000/svg">
<path d="M16.5714 -1.90735e-06C20.6741 -1.90735e-06 24 3.32588 24 7.42857V16.5714C24 20.6741 20.6741 24 16.5714 24H7.42857C3.32588 24 0 20.6741 0 16.5714L0 7.42857C0 3.32588 3.32588 -1.90735e-06 7.42857 -1.90735e-06H16.5714ZM16.1315 8.5H7.86852C7.06982 8.5 6.59343 9.39014 7.03647 10.0547L11.168 16.2519C11.5638 16.8457 12.4362 16.8457 12.8321 16.2519L16.9635 10.0547C17.4066 9.39014 16.9302 8.5 16.1315 8.5Z" fill="black"/>
</svg>
