<svg width="24" height="24" viewBox="0 0 24 24" fill="none" xmlns="http://www.w3.org/2000/svg">
<path d="M0 7.42857V16.5714C0 20.6741 3.32588 24 7.42857 24H16.5714C20.6741 24 24 20.6741 24 16.5714V7.42857C24 3.32588 20.6741 0 16.5714 0H7.42857C3.32588 0 0 3.32588 0 7.42857ZM7 5.25C7.41421 5.25 7.75 5.58579 7.75 6V6.50781H15.6384C16.0486 6.50781 16.3811 6.84032 16.3811 7.25048V8.68392C16.3811 9.09408 16.0486 9.42659 15.6384 9.42659H7.75V10.1694H17.5147C17.9248 10.1694 18.2573 10.5019 18.2573 10.9121V12.3455C18.2573 12.7557 17.9248 13.0882 17.5147 13.0882H7.75V13.8306H13.7622C14.1724 13.8306 14.5049 14.1631 14.5049 14.5732V16.0067C14.5049 16.4168 14.1724 16.7493 13.7622 16.7493H7.75V18C7.75 18.4142 7.41421 18.75 7 18.75C6.58579 18.75 6.25 18.4142 6.25 18V6C6.25 5.58579 6.58579 5.25 7 5.25Z" fill="black"/>
</svg>
