<svg width="24" height="24" viewBox="0 0 24 24" fill="none" xmlns="http://www.w3.org/2000/svg">
<path d="M7.42857 0C3.32588 0 0 3.32588 0 7.42857V16.5714C0 20.6741 3.32588 24 7.42857 24H16.5714C20.6741 24 24 20.6741 24 16.5714V7.42857C24 3.32588 20.6741 0 16.5714 0H7.42857ZM17.4094 7.15438C18.1917 8.04064 18.7309 9.14647 18.9229 10.3676C19.0086 10.9132 18.5526 11.3636 18.0004 11.3636H13.6367C13.0844 11.3636 12.6367 10.9159 12.6367 10.3636V6.00001C12.6367 5.44772 13.0872 4.99175 13.6328 5.07751C15.1285 5.31264 16.4513 6.0688 17.4094 7.15438ZM11.3636 19C7.8491 19 5 16.1509 5 12.6364C5 9.46073 7.32612 6.82838 10.3675 6.35025C10.913 6.26448 11.3636 6.72045 11.3636 7.27273V12.0364C11.3636 12.3677 11.6323 12.6364 11.9636 12.6364H16.7273C17.2796 12.6364 17.7355 13.087 17.6498 13.6325C17.1716 16.6739 14.5393 19 11.3636 19Z" fill="black"/>
</svg>
