<svg width="24" height="24" viewBox="0 0 24 24" fill="none" xmlns="http://www.w3.org/2000/svg">
<path d="M7.42857 24H16.5714C20.6741 24 24 20.6741 24 16.5714V7.42857C24 3.32589 20.6741 0 16.5714 0H7.42857C3.32588 0 0 3.32589 0 7.42857V16.5714C0 20.6741 3.32588 24 7.42857 24ZM5.25 17C5.25 16.5858 5.58579 16.25 6 16.25H6.50781V8.36157C6.50781 7.9514 6.84032 7.61889 7.25048 7.61889H8.68392C9.09408 7.61889 9.42659 7.9514 9.42659 8.36157V16.25H10.1694V6.48534C10.1694 6.07518 10.5019 5.74267 10.9121 5.74267H12.3455C12.7557 5.74267 13.0882 6.07518 13.0882 6.48534V16.25H13.8306V10.2378C13.8306 9.82762 14.1631 9.49512 14.5732 9.49512H16.0067C16.4168 9.49512 16.7493 9.82762 16.7493 10.2378V16.25H18C18.4142 16.25 18.75 16.5858 18.75 17C18.75 17.4142 18.4142 17.75 18 17.75H6C5.58579 17.75 5.25 17.4142 5.25 17Z" fill="black"/>
</svg>
