<svg width="24" height="24" viewBox="0 0 24 24" fill="none" xmlns="http://www.w3.org/2000/svg">
<path d="M7.42857 0C3.32588 0 0 3.32588 0 7.42857V16.5714C0 20.6741 3.32588 24 7.42857 24H16.5714C20.6741 24 24 20.6741 24 16.5714V7.42857C24 3.32588 20.6741 0 16.5714 0H7.42857ZM6.64961 6.99698V15.6637C6.64961 16.4092 7.25402 17.0137 7.99961 17.0137H17.9996C18.3586 17.0137 18.6496 17.3047 18.6496 17.6637C18.6496 18.0226 18.3586 18.3137 17.9996 18.3137H7.99961C6.53606 18.3137 5.34961 17.1272 5.34961 15.6637V6.99698C5.34961 6.638 5.64062 6.34698 5.99961 6.34698C6.35859 6.34698 6.64961 6.638 6.64961 6.99698ZM11.7597 10.0243C11.9954 9.60424 12.4971 9.41193 12.9531 9.56672L14.6664 10.1482L16.2464 8.33834C16.854 7.64233 17.9997 8.07207 17.9997 8.99599V14.6633C17.9997 15.2156 17.552 15.6633 16.9997 15.6633H8.99968C8.4474 15.6633 7.99968 15.2156 7.99968 14.6633V12.8163C7.99968 12.1315 8.67256 11.6493 9.32107 11.8694L10.4997 12.2694L11.7597 10.0243Z" fill="black"/>
</svg>
