<svg width="24" height="24" viewBox="0 0 24 24" fill="none" xmlns="http://www.w3.org/2000/svg">
<path d="M7.42857 0C3.32588 0 0 3.32588 0 7.42857V16.5714C0 20.6741 3.32588 24 7.42857 24H16.5714C20.6741 24 24 20.6741 24 16.5714V7.42857C24 3.32588 20.6741 0 16.5714 0H7.42857ZM15.4508 8.80039V8.21105L12.5311 11.1307C12.2382 11.4236 11.7633 11.4236 11.4705 11.1307L10.2008 9.86105L8.33111 11.7307C8.03822 12.0236 7.56334 12.0236 7.27045 11.7307C6.97756 11.4378 6.97756 10.963 7.27045 10.6701L9.67045 8.27006C9.96334 7.97717 10.4382 7.97717 10.7311 8.27006L12.0008 9.53973L14.3901 7.15039H13.8008C13.3866 7.15039 13.0508 6.8146 13.0508 6.40039C13.0508 5.98618 13.3866 5.65039 13.8008 5.65039H16.2008C16.2128 5.65039 16.2248 5.65068 16.2368 5.65125C16.6299 5.66982 16.9438 5.99103 16.9507 6.3871L16.9508 6.40039V8.80039C16.9508 9.2146 16.615 9.55039 16.2008 9.55039C15.7866 9.55039 15.4508 9.2146 15.4508 8.80039ZM11.4668 18.4C10.9145 18.4 10.4668 17.9523 10.4668 17.4V14C10.4668 13.4477 10.9145 13 11.4668 13H12.5335C13.0857 13 13.5335 13.4477 13.5335 14V17.4C13.5335 17.9523 13.0857 18.4 12.5335 18.4H11.4668ZM18.0003 17.4006C18.0003 17.9529 17.5525 18.4006 17.0003 18.4006H15.9336C15.3813 18.4006 14.9336 17.9529 14.9336 17.4006V11.6006C14.9336 11.0483 15.3813 10.6006 15.9336 10.6006H17.0003C17.5525 10.6006 18.0003 11.0483 18.0003 11.6006V17.4006ZM9.06667 17.4004C9.06667 17.9527 8.61895 18.4004 8.06667 18.4004H7C6.44772 18.4004 6 17.9527 6 17.4004V16.4004C6 15.8481 6.44772 15.4004 7 15.4004H8.06667C8.61895 15.4004 9.06667 15.8481 9.06667 16.4004V17.4004Z" fill="black"/>
</svg>
