<svg width="24" height="24" viewBox="0 0 24 24" fill="none" xmlns="http://www.w3.org/2000/svg">
<path d="M7.42857 0C3.32588 0 0 3.32588 0 7.42857V16.5714C0 20.6741 3.32588 24 7.42857 24H16.5714C20.6741 24 24 20.6741 24 16.5714V7.42857C24 3.32588 20.6741 0 16.5714 0H7.42857ZM17.5657 9.56569L10.6907 16.4407C10.3783 16.7531 9.87173 16.7531 9.55931 16.4407L6.43431 13.3157C6.1219 13.0033 6.1219 12.4967 6.43431 12.1843C6.74673 11.8719 7.25327 11.8719 7.56569 12.1843L10.125 14.7436L16.4343 8.43431C16.7467 8.12189 17.2533 8.12189 17.5657 8.43431C17.8781 8.74673 17.8781 9.25327 17.5657 9.56569Z" fill="black"/>
</svg>
