<svg width="24" height="24" viewBox="0 0 24 24" fill="none" xmlns="http://www.w3.org/2000/svg">
<path d="M7.42857 0C3.32588 0 0 3.32588 0 7.42857V16.5714C0 20.6741 3.32588 24 7.42857 24H16.5714C20.6741 24 24 20.6741 24 16.5714V7.42857C24 3.32588 20.6741 0 16.5714 0H7.42857ZM10.0433 5.98956L10.2129 5.68817C10.4502 5.26631 10.9353 5 11.4652 5H12.5348C13.0653 5 13.5497 5.26631 13.787 5.68817L13.9566 5.98956C14.0451 6.147 14.2117 6.24443 14.3924 6.24443H14.7999C15.1863 6.24443 15.4999 6.52318 15.4999 6.86665V7.09961V7.48789C15.4999 7.83135 15.1863 8.1101 14.7999 8.1101H9.19999C8.8136 8.1101 8.5 7.83135 8.5 7.48789V6.86665C8.5 6.52318 8.8136 6.24443 9.19999 6.24443H9.60756C9.7882 6.24443 9.95479 6.147 10.0433 5.98956ZM7.5 7.15364V7.48789C7.5 8.49111 8.37529 9.1101 9.19999 9.1101H14.7999C15.6246 9.1101 16.4999 8.49111 16.4999 7.48789V7.15344C17.1343 7.32837 17.6003 7.90958 17.6003 8.59961V17.4995C17.6003 18.3279 16.9287 18.9995 16.1003 18.9995H7.90039C7.07196 18.9995 6.40039 18.3279 6.40039 17.4995V8.59961C6.40039 7.90984 6.86596 7.32882 7.5 7.15364ZM8.69922 15.333C8.69922 15.6091 8.92308 15.833 9.19922 15.833H14.7992C15.0753 15.833 15.2992 15.6091 15.2992 15.333C15.2992 15.0569 15.0753 14.833 14.7992 14.833H9.19922C8.92308 14.833 8.69922 15.0569 8.69922 15.333ZM9.19922 11.7998C8.92308 11.7998 8.69922 12.0237 8.69922 12.2998C8.69922 12.5759 8.92308 12.7998 9.19922 12.7998H14.7992C15.0753 12.7998 15.2992 12.5759 15.2992 12.2998C15.2992 12.0237 15.0753 11.7998 14.7992 11.7998H9.19922Z" fill="black"/>
</svg>
