<svg width="24" height="24" viewBox="0 0 24 24" fill="none" xmlns="http://www.w3.org/2000/svg">
<path d="M7.42857 0C3.32588 0 0 3.32588 0 7.42857V16.5714C0 20.6741 3.32588 24 7.42857 24H16.5714C20.6741 24 24 20.6741 24 16.5714V7.42857C24 3.32588 20.6741 0 16.5714 0H7.42857ZM12 19C8.13401 19 5 15.866 5 12C5 8.13401 8.13401 5 12 5C15.866 5 19 8.13401 19 12C19 15.866 15.866 19 12 19ZM12.0004 8.77502C11.669 8.77502 11.4004 9.04365 11.4004 9.37502V12.7777C11.4004 13.1091 11.669 13.3777 12.0004 13.3777H14.6254C14.9568 13.3777 15.2254 13.1091 15.2254 12.7777C15.2254 12.4463 14.9568 12.1777 14.6254 12.1777H12.6004V9.37502C12.6004 9.04365 12.3318 8.77502 12.0004 8.77502Z" fill="black"/>
</svg>
