<svg width="24" height="24" viewBox="0 0 24 24" fill="none" xmlns="http://www.w3.org/2000/svg">
<path d="M7.42857 0C3.32588 0 0 3.32588 0 7.42857V16.5714C0 20.6741 3.32588 24 7.42857 24H16.5714C20.6741 24 24 20.6741 24 16.5714V7.42857C24 3.32588 20.6741 0 16.5714 0H7.42857ZM5 13.3C5 11.529 6.3195 10.0807 8.0268 9.8476C8.5903 8.1921 10.1541 7 12 7C14.3198 7 16.2 8.8802 16.2 11.2C17.7463 11.2 19 12.4537 19 14C19 15.5463 17.7463 16.8 16.2 16.8H8.5C6.5673 16.8 5 15.2327 5 13.3ZM12.4498 9.73942C12.2741 9.56369 11.9892 9.56369 11.8134 9.73942C11.7217 9.83117 11.6778 9.95268 11.6819 10.0729C10.6082 10.2279 9.7832 11.1518 9.7832 12.2684C9.7832 12.5978 9.85545 12.9114 9.98519 13.1934C10.0891 13.4192 10.3563 13.518 10.5821 13.4141C10.8079 13.3102 10.9067 13.043 10.8028 12.8172C10.7262 12.6506 10.6832 12.4651 10.6832 12.2684C10.6832 11.6498 11.1094 11.1306 11.6841 10.9885C11.6943 11.0876 11.7375 11.184 11.8134 11.26C11.9892 11.4357 12.2741 11.4357 12.4498 11.26L12.8039 10.9059C12.8148 10.8961 12.8252 10.8857 12.8351 10.8747L12.8919 10.8179C13.0677 10.6422 13.0677 10.3573 12.8919 10.1815L12.4498 9.73942ZM12.3183 13.5489C12.3082 13.4495 12.265 13.3527 12.1888 13.2765C12.0131 13.1008 11.7281 13.1008 11.5524 13.2765L11.1103 13.7186C10.9346 13.8944 10.9346 14.1793 11.1103 14.355L11.5524 14.7971C11.7281 14.9729 12.0131 14.9729 12.1888 14.7971C12.2803 14.7056 12.3242 14.5845 12.3204 14.4646C13.394 14.3096 14.2191 13.3856 14.2191 12.269C14.2191 11.9392 14.1465 11.6256 14.0164 11.3437C13.9123 11.118 13.6449 11.0195 13.4193 11.1236C13.1936 11.2278 13.0951 11.4951 13.1992 11.7208C13.276 11.8872 13.3191 12.0724 13.3191 12.269C13.3191 12.8876 12.893 13.4067 12.3183 13.5489Z" fill="black"/>
</svg>
