<svg width="24" height="24" viewBox="0 0 24 24" fill="none" xmlns="http://www.w3.org/2000/svg">
<path d="M7.42857 0C3.32588 0 0 3.32588 0 7.42857V16.5714C0 20.6741 3.32588 24 7.42857 24H16.5714C20.6741 24 24 20.6741 24 16.5714V7.42857C24 3.32588 20.6741 0 16.5714 0H7.42857ZM5 13.3C5 11.529 6.3195 10.0807 8.0268 9.8476C8.5903 8.1921 10.1541 7 12 7C14.3198 7 16.2 8.8802 16.2 11.2C17.7463 11.2 19 12.4537 19 14C19 15.5463 17.7463 16.8 16.2 16.8H8.5C6.5673 16.8 5 15.2327 5 13.3Z" fill="black"/>
</svg>
