<svg width="24" height="24" viewBox="0 0 24 24" fill="none" xmlns="http://www.w3.org/2000/svg">
<path d="M0 7.42857V16.5714C0 20.6741 3.32588 24 7.42857 24H16.5714C20.6741 24 24 20.6741 24 16.5714V7.42857C24 3.32588 20.6741 0 16.5714 0H7.42857C3.32588 0 0 3.32588 0 7.42857ZM9.93989 5.00693C11.0772 5.09785 11.9718 6.04962 11.9718 7.21034C11.9718 8.15879 11.3745 8.96772 10.5355 9.28148V12.5042C10.877 12.4382 11.2674 12.393 11.6871 12.393C12.2841 12.393 12.9911 12.3836 13.6383 12.0791C13.9609 11.9272 14.2959 11.688 14.5886 11.2838C14.2395 10.893 14.0273 10.3772 14.0273 9.81193C14.0273 8.59109 15.017 7.6014 16.2379 7.6014C17.4587 7.6014 18.4484 8.59109 18.4484 9.81193C18.4484 11.0328 17.4587 12.0225 16.2379 12.0225C16.1668 12.0225 16.0966 12.0191 16.0273 12.0126C15.5603 12.7403 14.9656 13.2228 14.3196 13.5268C13.3278 13.9935 12.2998 13.9932 11.7199 13.993L11.6871 13.993C11.2279 13.993 10.8255 14.0671 10.5355 14.1451V14.7183C11.3745 15.0321 11.9718 15.841 11.9718 16.7895C11.9718 18.0103 10.9821 19 9.76131 19C8.54047 19 7.55078 18.0103 7.55078 16.7895C7.55078 15.8606 8.12375 15.0655 8.93555 14.7383V9.26147C8.12375 8.93434 7.55078 8.13925 7.55078 7.21034C7.55078 6.07657 8.40433 5.14216 9.50389 5.01464C9.57722 4.9925 9.65499 4.98059 9.73555 4.98059C9.80617 4.98059 9.87466 4.98974 9.93989 5.00693Z" fill="black"/>
</svg>
