<svg width="24" height="24" viewBox="0 0 24 24" fill="none" xmlns="http://www.w3.org/2000/svg">
<path d="M7.42857 0C3.32588 0 0 3.32588 0 7.42857V16.5714C0 20.6741 3.32588 24 7.42857 24H16.5714C20.6741 24 24 20.6741 24 16.5714V7.42857C24 3.32588 20.6741 0 16.5714 0H7.42857ZM18.0471 13.2727H17.5583C17.2128 13.2727 16.8142 13.5385 16.6785 13.8662L16.6277 13.9889C16.4917 14.3173 16.5827 14.7831 16.8303 15.0306L17.1759 15.3762C17.5454 15.7458 17.5471 16.3521 17.1742 16.7251L16.7251 17.1742C16.3551 17.5442 15.7482 17.5479 15.3762 17.1759L15.0306 16.8303C14.7864 16.586 14.3166 16.492 13.9889 16.6277L13.8662 16.6785C13.5378 16.8145 13.2727 17.2081 13.2727 17.5583V18.0471C13.2727 18.5699 12.8451 19 12.3177 19H11.6823C11.1591 19 10.7273 18.5734 10.7273 18.0471V17.5583C10.7273 17.2128 10.4615 16.8142 10.1338 16.6785L10.0111 16.6277C9.68266 16.4917 9.21694 16.5827 8.96938 16.8303L8.62378 17.1759C8.25424 17.5454 7.64787 17.5471 7.27494 17.1742L6.82578 16.7251C6.45583 16.3551 6.45213 15.7482 6.82414 15.3762L7.16974 15.0306C7.41396 14.7864 7.50799 14.3166 7.37229 13.9889L7.32153 13.8662C7.18554 13.5378 6.79192 13.2727 6.44172 13.2727H5.95285C5.43011 13.2727 5 12.8451 5 12.3177V11.6823C5 11.1591 5.42661 10.7273 5.95285 10.7273H6.44172C6.78718 10.7273 7.18583 10.4615 7.32153 10.1338L7.37229 10.0111C7.50828 9.68266 7.41731 9.21694 7.16974 8.96938L6.82414 8.62378C6.4546 8.25424 6.45286 7.64787 6.82578 7.27494L7.27494 6.82578C7.6449 6.45583 8.25176 6.45213 8.62378 6.82414L8.96938 7.16974C9.21359 7.41396 9.68336 7.50799 10.0111 7.37229L10.1338 7.32153C10.4622 7.18554 10.7273 6.79192 10.7273 6.44172V5.95285C10.7273 5.43011 11.1549 5 11.6823 5H12.3177C12.8409 5 13.2727 5.42661 13.2727 5.95285V6.44172C13.2727 6.78718 13.5385 7.18583 13.8662 7.32153L13.9889 7.37229C14.3173 7.50828 14.7831 7.41731 15.0306 7.16974L15.3762 6.82414C15.7458 6.4546 16.3521 6.45286 16.7251 6.82578L17.1742 7.27494C17.5442 7.6449 17.5479 8.25176 17.1759 8.62378L16.8303 8.96938C16.586 9.21359 16.492 9.68336 16.6277 10.0111L16.6785 10.1338C16.8145 10.4622 17.2081 10.7273 17.5583 10.7273H18.0471C18.5699 10.7273 19 11.1549 19 11.6823V12.3177C19 12.8409 18.5734 13.2727 18.0471 13.2727ZM11.9989 10.0908C10.9445 10.0908 10.0898 10.9455 10.0898 11.9999C10.0898 13.0544 10.9445 13.909 11.9989 13.909C13.0534 13.909 13.908 13.0544 13.908 11.9999C13.908 10.9455 13.0534 10.0908 11.9989 10.0908Z" fill="black"/>
</svg>
