<svg width="24" height="24" viewBox="0 0 24 24" fill="none" xmlns="http://www.w3.org/2000/svg">
<path d="M7.4285 0C3.32581 0 -7.62939e-05 3.32588 -7.62939e-05 7.42857V16.5714C-7.62939e-05 20.6741 3.32581 24 7.4285 24H16.5714C20.674 24 23.9999 20.6741 23.9999 16.5714V7.42857C23.9999 3.32588 20.674 0 16.5714 0H7.4285ZM16.8711 5.5V5.88406C17.1276 5.9741 17.3562 6.12303 17.5407 6.31467L17.9143 6.1018C18.1542 5.96508 18.4595 6.04875 18.5963 6.28867C18.733 6.52859 18.6493 6.83392 18.4094 6.97064L17.9957 7.20637C18.0132 7.30498 18.0223 7.40651 18.0223 7.51019C18.0223 7.65407 18.0048 7.7938 17.9716 7.92735L18.4094 8.17682C18.6493 8.31353 18.733 8.61886 18.5963 8.85878C18.4595 9.09871 18.1542 9.18237 17.9143 9.04565L17.4583 8.78581C17.2892 8.93948 17.0894 9.05996 16.8691 9.137V9.64666C16.8691 9.92281 16.6453 10.1467 16.3691 10.1467C16.093 10.1467 15.8691 9.92281 15.8691 9.64666V9.17918C15.6167 9.11434 15.3868 8.99376 15.1931 8.83139L14.8271 9.04372C14.5882 9.18229 14.2823 9.10099 14.1437 8.86213C14.0051 8.62327 14.0864 8.31731 14.3253 8.17874L14.6449 7.99334C14.6001 7.84002 14.5762 7.67788 14.5762 7.51019C14.5762 7.38261 14.59 7.25824 14.6164 7.13852L14.3254 6.96968C14.0865 6.83111 14.0052 6.52515 14.1438 6.28629C14.2823 6.04743 14.5883 5.96613 14.8272 6.1047L15.1064 6.26672C15.3171 6.06453 15.5791 5.91534 15.8711 5.8407V5.5C15.8711 5.22386 16.095 5 16.3711 5C16.6472 5 16.8711 5.22386 16.8711 5.5ZM17.0223 7.51019C17.0223 7.11001 16.6994 6.78711 16.2993 6.78711C15.8997 6.78711 15.5762 7.11104 15.5762 7.51019C15.5762 7.90934 15.8997 8.23327 16.2993 8.23327C16.6994 8.23327 17.0223 7.91038 17.0223 7.51019ZM15.2707 14.637H14.8982C14.635 14.637 14.3313 14.8395 14.2279 15.0892L14.1892 15.1826C14.0856 15.4329 14.1549 15.7877 14.3435 15.9764L14.6068 16.2397C14.8884 16.5212 14.8897 16.9832 14.6056 17.2674L14.2634 17.6096C13.9815 17.8914 13.5191 17.8943 13.2357 17.6108L12.9724 17.3475C12.7863 17.1614 12.4284 17.0898 12.1787 17.1932L12.0852 17.2319C11.835 17.3355 11.633 17.6354 11.633 17.9022V18.2747C11.633 18.6729 11.3072 19.0007 10.9054 19.0007H10.4213C10.0226 19.0007 9.69364 18.6756 9.69364 18.2747V17.9022C9.69364 17.639 9.49118 17.3353 9.24144 17.2319L9.14802 17.1932C8.89774 17.0896 8.54291 17.1589 8.35429 17.3475L8.09098 17.6108C7.80942 17.8924 7.34742 17.8937 7.06329 17.6096L6.72108 17.2674C6.43921 16.9855 6.43638 16.5231 6.71983 16.2397L6.98314 15.9764C7.16921 15.7903 7.24085 15.4324 7.13746 15.1826L7.09878 15.0892C6.99517 14.8389 6.69528 14.637 6.42846 14.637H6.05598C5.65771 14.637 5.33 14.3112 5.33 13.9093V13.4253C5.33 13.0266 5.65504 12.6976 6.05598 12.6976H6.42846C6.69167 12.6976 6.99539 12.4952 7.09878 12.2454L7.13746 12.152C7.24107 11.9017 7.17176 11.5469 6.98314 11.3583L6.71983 11.095C6.43827 10.8134 6.43694 10.3514 6.72108 10.0673L7.06329 9.72506C7.34516 9.44319 7.80754 9.44037 8.09098 9.72381L8.35429 9.98712C8.54036 10.1732 8.89828 10.2448 9.14802 10.1414L9.24144 10.1028C9.49171 9.99916 9.69364 9.69926 9.69364 9.43244V9.05997C9.69364 8.66169 10.0194 8.33398 10.4213 8.33398H10.9054C11.304 8.33398 11.633 8.65902 11.633 9.05997V9.43244C11.633 9.69565 11.8355 9.99938 12.0852 10.1028L12.1787 10.1414C12.4289 10.2451 12.7838 10.1757 12.9724 9.98712L13.2357 9.72381C13.5172 9.44225 13.9792 9.44093 14.2634 9.72506L14.6056 10.0673C14.8875 10.3491 14.8903 10.8115 14.6068 11.095L14.3435 11.3583C14.1575 11.5443 14.0858 11.9023 14.1892 12.152L14.2279 12.2454C14.3315 12.4957 14.6314 12.6976 14.8982 12.6976H15.2707C15.669 12.6976 15.9967 13.0234 15.9967 13.4253V13.9093C15.9967 14.308 15.6716 14.637 15.2707 14.637ZM11.1922 13.6684C11.1922 13.96 10.956 14.1962 10.6644 14.1962C10.3729 14.1962 10.1366 13.96 10.1366 13.6684C10.1366 13.3768 10.3729 13.1406 10.6644 13.1406C10.956 13.1406 11.1922 13.3768 11.1922 13.6684ZM12.1922 13.6684C12.1922 12.8246 11.5083 12.1406 10.6644 12.1406C9.82058 12.1406 9.13664 12.8246 9.13664 13.6684C9.13664 14.5122 9.82058 15.1962 10.6644 15.1962C11.5083 15.1962 12.1922 14.5122 12.1922 13.6684Z" fill="black"/>
</svg>
