<svg width="24" height="24" viewBox="0 0 24 24" fill="none" xmlns="http://www.w3.org/2000/svg">
<path d="M7.42857 0C3.32588 0 0 3.32588 0 7.42857V16.5714C0 20.6741 3.32588 24 7.42857 24H16.5714C20.6741 24 24 20.6741 24 16.5714V7.42857C24 3.32588 20.6741 0 16.5714 0H7.42857ZM18.9997 10.6501H19.0278V14.1875C19.0278 15.5408 17.9932 16.4746 16.7442 17.0365C15.4702 17.6095 13.7777 17.9 12 17.9C10.2224 17.9 8.53612 17.6095 7.26836 17.0359C6.02364 16.4726 5 15.5379 5 14.1875V10.6875V10.6501C5.03569 8.4927 8.1562 6.75 12 6.75C15.8438 6.75 18.964 8.4927 18.9997 10.6501ZM12.65 16.5858C13.4426 16.5507 14.187 16.4515 14.85 16.2971V14.285C14.1674 14.4563 13.4271 14.568 12.65 14.6083V16.5858ZM16.15 15.8779C16.1705 15.8689 16.1908 15.8599 16.2109 15.8509C17.2917 15.3647 17.7278 14.7673 17.7278 14.1875V12.9515C17.2921 13.2997 16.7587 13.6063 16.15 13.8587V15.8779ZM11.35 14.6082C10.5729 14.568 9.83256 14.4563 9.14998 14.2849V16.2956C9.81141 16.4508 10.5556 16.5505 11.35 16.5858V14.6082ZM7.84998 13.8587C7.25415 13.6116 6.73048 13.3126 6.3 12.9736V14.1875C6.3 14.7702 6.73314 15.3667 7.80432 15.8515L7.84998 15.8719V13.8587Z" fill="black"/>
</svg>
