<svg width="24" height="24" viewBox="0 0 24 24" fill="none" xmlns="http://www.w3.org/2000/svg">
<path d="M7.42857 0C3.32588 0 0 3.32588 0 7.42857V16.5714C0 20.6741 3.32588 24 7.42857 24H16.5714C20.6741 24 24 20.6741 24 16.5714V7.42857C24 3.32588 20.6741 0 16.5714 0H7.42857ZM5.5 7C5.5 6.17157 6.17157 5.5 7 5.5H10C10.8284 5.5 11.5 6.17157 11.5 7V17C11.5 17.8284 10.8284 18.5 10 18.5H7C6.17157 18.5 5.5 17.8284 5.5 17V7ZM12.5 7C12.5 6.17157 13.1716 5.5 14 5.5H17C17.8284 5.5 18.5 6.17157 18.5 7V17C18.5 17.8284 17.8284 18.5 17 18.5H14C13.1716 18.5 12.5 17.8284 12.5 17V7Z" fill="black"/>
</svg>
