<svg width="24" height="24" viewBox="0 0 24 24" fill="none" xmlns="http://www.w3.org/2000/svg">
<path d="M16.5714 24C20.6741 24 24 20.6741 24 16.5714V7.42857C24 3.32588 20.6741 0 16.5714 0H7.42857C3.32588 0 0 3.32588 0 7.42857V16.5714C0 20.6741 3.32588 24 7.42857 24H16.5714ZM4.73432 5.53437C4.98667 5.28201 5.36567 5.23349 5.66672 5.38881C5.68602 5.41374 5.707 5.4378 5.72966 5.46084L17.7297 17.661C17.8262 17.7592 17.9418 17.8272 18.0648 17.8649C18.1488 18.1388 18.0824 18.449 17.8657 18.6657C17.5533 18.9782 17.0467 18.9782 16.7343 18.6657L14.2942 16.2256C14.2727 16.2228 14.2512 16.2202 14.2297 16.2179C13.9974 16.1929 13.3432 16.0891 12.902 15.8311C12.6079 15.659 12.3356 15.3954 12.0852 15.0402C12.4254 15.0718 12.7769 15.0821 13.1396 15.071L12.152 14.0835H11.7356C11.3568 14.0835 10.989 14.2111 10.6917 14.4458L9.47797 15.4038C9.19275 15.6289 8.77357 15.4258 8.77357 15.0624V14.1933C8.77357 14.1212 8.7188 14.0616 8.64724 14.0528C6.60172 13.7995 5.05711 11.9325 5.33167 9.7647C5.41409 9.11246 5.66776 8.49962 6.04262 7.97404L4.73432 6.66574C4.4219 6.35332 4.4219 5.84678 4.73432 5.53437ZM19.2746 12.7066C19.4266 13.9202 18.8854 15.0179 17.9969 15.651L16.3873 14.0146C16.5149 13.9037 16.6241 13.7968 16.7164 13.7025C17.3424 13.0635 17.6493 12.0869 17.6372 10.7729C18.0436 10.9368 18.373 11.154 18.6256 11.4248C19.0045 11.8308 19.2216 12.2818 19.2746 12.7066ZM16.7603 10.3805C16.7281 11.4581 16.228 12.4083 15.4645 13.0764L8.78163 6.28204C8.94089 6.26057 9.10233 6.24946 9.26518 6.24946H12.9414C15.0906 6.24946 16.8253 8.21664 16.7603 10.3805Z" fill="black"/>
</svg>
