<svg width="24" height="24" viewBox="0 0 24 24" fill="none" xmlns="http://www.w3.org/2000/svg">
<path d="M7.42857 0C3.32588 0 0 3.32588 0 7.42857V16.5714C0 20.6741 3.32588 24 7.42857 24H16.5714C20.6741 24 24 20.6741 24 16.5714V7.42857C24 3.32588 20.6741 0 16.5714 0H7.42857ZM7.65554 7.45565C8.26308 8.06319 8.26308 9.04801 7.65554 9.65554C7.04801 10.2631 6.06319 10.2631 5.45565 9.65554C4.84812 9.04801 4.84812 8.06319 5.45565 7.45565C6.06319 6.84812 7.04878 6.84812 7.65554 7.45565ZM5.07213 10.8384C6.12748 11.5261 7.5549 11.4068 8.48118 10.4805C9.39955 9.56215 9.52465 8.15118 8.85649 7.09861C9.17749 7.03385 9.50786 7 9.84315 7H14.3334C16.9585 7 19.0772 9.16773 18.9978 11.8107C18.9216 14.365 16.6924 16.3336 14.1374 16.3336H12.1462C11.7398 16.7395 11.2176 17.2618 10.6911 17.7885L10.69 17.7896L9.90537 18.5744C9.66037 18.8194 9.24269 18.6452 9.24269 18.2983V16.3126C6.66817 16.08 4.69645 13.7606 5.03868 11.0586C5.04804 10.9845 5.05921 10.9111 5.07213 10.8384Z" fill="black"/>
</svg>
