<svg width="24" height="24" viewBox="0 0 24 24" fill="none" xmlns="http://www.w3.org/2000/svg">
<path d="M7.42857 0C3.32588 0 0 3.32588 0 7.42857V16.5714C0 20.6741 3.32588 24 7.42857 24H16.5714C20.6741 24 24 20.6741 24 16.5714V7.42857C24 3.32588 20.6741 0 16.5714 0H7.42857ZM8.11111 16.9237H8C6.34314 16.9237 5 15.5806 5 13.9237V9C5 7.34315 6.34315 6 8 6H16C17.6569 6 19 7.34315 19 9V13.9237C19 15.5806 17.6569 16.9237 16 16.9237H13.0493C12.8113 16.9237 12.5811 17.0086 12.4001 17.1631L9.76028 19.416C9.11119 19.97 8.11111 19.5088 8.11111 18.6554V16.9237ZM8.25 11.5C8.25 11.9142 8.58579 12.25 9 12.25H9.1C9.51421 12.25 9.85 11.9142 9.85 11.5C9.85 11.0858 9.51421 10.75 9.1 10.75H9C8.58579 10.75 8.25 11.0858 8.25 11.5ZM12.1001 10.75C11.6859 10.75 11.3501 11.0858 11.3501 11.5C11.3501 11.9142 11.6859 12.25 12.1001 12.25H12.2001C12.6143 12.25 12.9501 11.9142 12.9501 11.5C12.9501 11.0858 12.6143 10.75 12.2001 10.75H12.1001ZM14.4502 11.5C14.4502 11.9142 14.786 12.25 15.2002 12.25H15.3002C15.7144 12.25 16.0502 11.9142 16.0502 11.5C16.0502 11.0858 15.7144 10.75 15.3002 10.75H15.2002C14.786 10.75 14.4502 11.0858 14.4502 11.5Z" fill="black"/>
</svg>
