<svg width="24" height="24" viewBox="0 0 24 24" fill="none" xmlns="http://www.w3.org/2000/svg">
<path d="M24 16.5714V7.42857C24 3.32588 20.6741 0 16.5714 0H7.42857C3.32588 0 0 3.32588 0 7.42857V16.5714C0 20.6741 3.32588 24 7.42857 24H16.5714C20.6741 24 24 20.6741 24 16.5714ZM8.96518 6.34961H12.6414C14.7906 6.34961 16.5253 8.31679 16.4603 10.4806C16.3979 12.5719 14.5728 14.1836 12.4809 14.1836H11.4356C11.0568 14.1836 10.689 14.3113 10.3917 14.546L9.17797 15.5039C8.89275 15.7291 8.47357 15.5259 8.47357 15.1625V14.2935C8.47357 14.2214 8.4188 14.1618 8.34724 14.1529C6.30172 13.8997 4.75711 12.0327 5.03167 9.86485C5.27557 7.93471 7.01912 6.34961 8.96518 6.34961ZM8.82039 10.9992C9.17209 10.9992 9.45719 10.7141 9.45719 10.3624C9.45719 10.0107 9.17209 9.72559 8.82039 9.72559C8.4687 9.72559 8.1836 10.0107 8.1836 10.3624C8.1836 10.7141 8.4687 10.9992 8.82039 10.9992ZM10.7306 10.9992C11.0822 10.9992 11.3673 10.7141 11.3673 10.3624C11.3673 10.0107 11.0822 9.72559 10.7306 9.72559C10.3789 9.72559 10.0938 10.0107 10.0938 10.3624C10.0938 10.7141 10.3789 10.9992 10.7306 10.9992ZM13.2775 10.3624C13.2775 10.0107 12.9924 9.72559 12.6407 9.72559C12.289 9.72559 12.0039 10.0107 12.0039 10.3624C12.0039 10.7141 12.289 10.9992 12.6407 10.9992C12.9924 10.9992 13.2775 10.7141 13.2775 10.3624ZM18.3256 11.5249C18.7045 11.931 18.9216 12.3819 18.9746 12.8068C19.1953 14.5693 17.954 16.0872 16.3103 16.2931C16.2639 16.2989 16.2268 16.331 16.2138 16.3729L16.2088 16.406V17.4862C16.2088 17.5252 16.1955 17.563 16.1712 17.5935C16.1204 17.6571 16.0337 17.6751 15.9632 17.6416L15.9296 17.6205L14.5844 16.5463C14.3995 16.3987 14.162 16.343 13.9297 16.318C13.6974 16.2931 13.0432 16.1892 12.602 15.9312C12.3079 15.7592 12.0356 15.4956 11.7852 15.1403C12.4953 15.2063 13.2542 15.1793 14.0619 15.0596C15.2735 14.8799 16.0084 14.2192 16.4164 13.8027C17.0424 13.1636 17.3493 12.1871 17.3372 10.873C17.7436 11.0369 18.073 11.2542 18.3256 11.5249Z" fill="black"/>
</svg>
