<svg width="24" height="24" viewBox="0 0 24 24" fill="none" xmlns="http://www.w3.org/2000/svg">
<path d="M7.42857 0C3.32588 0 0 3.32588 0 7.42857V16.5714C0 20.6741 3.32588 24 7.42857 24H16.5714C20.6741 24 24 20.6741 24 16.5714V7.42857C24 3.32588 20.6741 0 16.5714 0H7.42857ZM5.03868 10.4526C5.33658 8.09509 7.46619 6.39404 9.84315 6.39404H14.3334C16.9585 6.39404 19.0772 8.56177 18.9978 11.2047C18.9216 13.759 16.6924 15.7276 14.1374 15.7276H12.1462C11.7393 16.134 11.2162 16.6573 10.689 17.1847C10.4241 17.4496 10.1582 17.7157 9.90537 17.9685C9.66037 18.2135 9.24269 18.0392 9.24269 17.6924V15.7066C6.66817 15.4741 4.69645 13.1547 5.03868 10.4526Z" fill="black"/>
</svg>
