<svg width="24" height="24" viewBox="0 0 24 24" fill="none" xmlns="http://www.w3.org/2000/svg">
<path d="M7.42857 0C3.32588 0 0 3.32588 0 7.42857V16.5714C0 20.6741 3.32588 24 7.42857 24H16.5714C20.6741 24 24 20.6741 24 16.5714V7.42857C24 3.32588 20.6741 0 16.5714 0H7.42857ZM8 16.9237C6.34314 16.9237 5 15.5806 5 13.9237V9C5 7.34315 6.34315 6 8 6H16C17.6569 6 19 7.34315 19 9V13.9237C19 15.5806 17.6569 16.9237 16 16.9237H13.0493C12.8113 16.9237 12.5811 17.0086 12.4001 17.1631L9.76028 19.416C9.11119 19.97 8.11111 19.5088 8.11111 18.6554V16.9237H8Z" fill="black"/>
</svg>
