<svg width="24" height="24" viewBox="0 0 24 24" fill="none" xmlns="http://www.w3.org/2000/svg">
<path d="M7.42857 0C3.32588 0 0 3.32588 0 7.42857V16.5714C0 20.6741 3.32588 24 7.42857 24H16.5714C20.6741 24 24 20.6741 24 16.5714V7.42857C24 3.32588 20.6741 0 16.5714 0H7.42857ZM13.6356 12.0001C13.6356 12.9039 12.9031 13.6365 11.9993 13.6365C11.0954 13.6365 10.3629 12.9039 10.3629 12.0001C10.3629 11.0963 11.0954 10.3637 11.9993 10.3637C12.9031 10.3637 13.6356 11.0963 13.6356 12.0001ZM6.63179 6.63118C6.88563 6.37734 7.29718 6.37734 7.55103 6.63118L8.64153 7.72169L9.50969 6.85353C9.82467 6.53855 10.3632 6.76163 10.3632 7.20708V9.50446C10.4692 9.74307 10.4244 10.0324 10.2287 10.2281C10.0337 10.4232 9.74547 10.4683 9.50728 10.3636H7.20672C6.76126 10.3636 6.53818 9.82504 6.85316 9.51006L7.7223 8.64092L6.63179 7.55042C6.37795 7.29657 6.37795 6.88502 6.63179 6.63118ZM17.3674 7.55042L16.2769 8.6409L17.1461 9.51006C17.461 9.82504 17.238 10.3636 16.7925 10.3636H14.4919C14.2537 10.4683 13.9655 10.4232 13.7705 10.2281C13.5748 10.0324 13.5299 9.74298 13.636 9.50435V7.20708C13.636 6.76163 14.1745 6.53855 14.4895 6.85353L15.3577 7.72166L16.4481 6.63118C16.702 6.37734 17.1135 6.37734 17.3674 6.63118C17.6212 6.88502 17.6212 7.29657 17.3674 7.55042ZM10.2287 13.7723C10.4244 13.968 10.4692 14.2573 10.3632 14.4959V16.7929C10.3632 17.2383 9.82467 17.4614 9.50969 17.1464L8.64176 16.2785L7.55103 17.3692C7.29718 17.6231 6.88563 17.6231 6.63179 17.3692C6.37795 17.1154 6.37795 16.7038 6.63179 16.45L7.72252 15.3592L6.85316 14.4899C6.53818 14.1749 6.76126 13.6363 7.20672 13.6363H9.50828C9.74627 13.5322 10.0339 13.5775 10.2287 13.7723ZM14.4909 13.6363H16.7925C17.238 13.6363 17.461 14.1749 17.1461 14.4899L16.2767 15.3593L17.3674 16.45C17.6212 16.7038 17.6212 17.1154 17.3674 17.3692C17.1135 17.6231 16.702 17.6231 16.4481 17.3692L15.3574 16.2785L14.4895 17.1464C14.1745 17.4614 13.636 17.2383 13.636 16.7929V14.496C13.5299 14.2574 13.5748 13.968 13.7705 13.7723C13.9652 13.5775 14.2529 13.5322 14.4909 13.6363Z" fill="black"/>
</svg>
