<svg width="24" height="24" viewBox="0 0 24 24" fill="none" xmlns="http://www.w3.org/2000/svg">
<path d="M13.5469 16.7496H10.9762C9.59546 16.7496 8.47617 15.6303 8.47617 14.2496V9.40391H7.99961C7.25403 9.40391 6.64961 10.0083 6.64961 10.7539V17.0006C6.64961 17.7461 7.25402 18.3506 7.99961 18.3506H12.1969C12.9425 18.3506 13.5469 17.7461 13.5469 17.0006V16.7496Z" fill="black"/>
<path d="M0 7.42857V16.5714C0 20.6741 3.32588 24 7.42857 24H16.5714C20.6741 24 24 20.6741 24 16.5714V7.42857C24 3.32588 20.6741 0 16.5714 0H7.42857C3.32588 0 0 3.32588 0 7.42857ZM14.8469 16.7496V17.0006C14.8469 18.4641 13.6605 19.6506 12.1969 19.6506H7.99961C6.53605 19.6506 5.34961 18.4641 5.34961 17.0006V10.7539C5.34961 9.29035 6.53605 8.10391 7.99961 8.10391H8.47617V7.5C8.47617 6.11929 9.59546 5 10.9762 5H14.4033C15.1174 5 15.7974 5.30537 16.2718 5.83909L17.2444 6.93325C17.6512 7.39088 17.8759 7.98188 17.8759 8.59416V14.2496C17.8759 15.6303 16.7566 16.7496 15.3759 16.7496H14.8469Z" fill="black"/>
</svg>
