<svg width="24" height="24" viewBox="0 0 24 24" fill="none" xmlns="http://www.w3.org/2000/svg">
<path d="M16.5714 24C20.6741 24 24 20.6741 24 16.5714V7.42857C24 3.32588 20.6741 0 16.5714 0H7.42857C3.32588 0 0 3.32588 0 7.42857V16.5714C0 20.6741 3.32588 24 7.42857 24H16.5714ZM10.6906 11.3156L8.93132 13.075H14.5C14.9508 13.075 15.3832 12.8958 15.702 12.577C16.0208 12.2582 16.2 11.8258 16.2 11.375V6.99995C16.2 6.55812 16.5581 6.19995 17 6.19995C17.4418 6.19995 17.8 6.55812 17.8 6.99995V11.375C17.8 12.2502 17.4523 13.0895 16.8334 13.7084C16.2145 14.3273 15.3752 14.675 14.5 14.675H8.93132L10.6906 16.4343C11.0031 16.7467 11.0031 17.2532 10.6906 17.5656C10.3782 17.8781 9.87169 17.8781 9.55927 17.5656L6.43427 14.4406C6.27867 14.285 6.20056 14.0813 6.19995 13.8774L6.19995 13.875L6.19995 13.8726C6.20027 13.765 6.22183 13.6624 6.26065 13.5687C6.29969 13.4744 6.35756 13.386 6.43427 13.3093L9.55927 10.1843C9.87169 9.87185 10.3782 9.87185 10.6906 10.1843C11.0031 10.4967 11.0031 11.0032 10.6906 11.3156Z" fill="black"/>
</svg>
