<svg width="24" height="24" viewBox="0 0 24 24" fill="none" xmlns="http://www.w3.org/2000/svg">
<path d="M24 7.42857C24 3.32588 20.6741 0 16.5714 0H7.42857C3.32588 0 0 3.32588 0 7.42857V16.5714C0 20.6741 3.32588 24 7.42857 24H16.5714C20.6741 24 24 20.6741 24 16.5714V7.42857ZM12.8932 7.00001V7.40667C13.8218 7.49101 14.5713 8.03694 15.0085 8.75374C15.2673 9.17809 15.1331 9.73192 14.7088 9.99074C14.2844 10.2496 13.7306 10.1154 13.4718 9.69103C13.2788 9.37461 12.9789 9.19533 12.6414 9.19533H12.041C12.0252 9.19616 12.0092 9.19658 11.9932 9.19658C11.9771 9.19658 11.9611 9.19616 11.9453 9.19533H11.2204C10.7122 9.19533 10.3 9.60705 10.3 10.1157C10.3 10.5374 10.5885 10.9054 10.9962 11.0075L13.429 11.6186C14.6353 11.924 15.4863 13.0091 15.4863 14.2583C15.4863 15.7172 14.3376 16.9093 12.8932 16.9757V17.3726C12.8932 17.8697 12.4902 18.2726 11.9932 18.2726C11.4961 18.2726 11.0932 17.8697 11.0932 17.3726V16.9674C10.1615 16.883 9.41221 16.3352 8.97425 15.6182C8.71514 15.194 8.84896 14.6401 9.27314 14.381C9.69732 14.1219 10.2512 14.2557 10.5103 14.6799C10.7052 14.9989 11.0057 15.1787 11.3449 15.1787H11.9235C11.9465 15.1769 11.9697 15.176 11.9932 15.176C12.0166 15.176 12.0398 15.1769 12.0628 15.1787H12.7659C13.2746 15.1787 13.6863 14.7665 13.6863 14.2583C13.6863 13.8377 13.3985 13.4681 12.9871 13.3635L10.5577 12.7532C9.35023 12.4506 8.5 11.3638 8.5 10.1157C8.5 8.65481 9.65065 7.46468 11.0932 7.39825V7.00001C11.0932 6.50295 11.4961 6.10001 11.9932 6.10001C12.4902 6.10001 12.8932 6.50295 12.8932 7.00001Z" fill="black"/>
</svg>
