<svg width="24" height="24" viewBox="0 0 24 24" fill="none" xmlns="http://www.w3.org/2000/svg">
<path d="M7.42857 0C3.32588 0 0 3.32588 0 7.42857V16.5714C0 20.6741 3.32588 24 7.42857 24H16.5714C20.6741 24 24 20.6741 24 16.5714V7.42857C24 3.32588 20.6741 0 16.5714 0H7.42857ZM17.918 8.21551L17.6676 9.05006H18C18.3038 9.05006 18.55 9.2963 18.55 9.60006C18.55 9.90382 18.3038 10.1501 18 10.1501H17.3376L16.9477 11.4498H18C18.3038 11.4498 18.55 11.6961 18.55 11.9998C18.55 12.3036 18.3038 12.5498 18 12.5498H16.6177L15.518 16.2155C15.4228 16.5327 15.1308 16.75 14.7996 16.75C14.4684 16.75 14.1764 16.5327 14.0812 16.2155L12.9815 12.5498H11.6018L10.3075 16.2478C10.198 16.5605 9.89627 16.7644 9.56524 16.7492C9.2342 16.734 8.95237 16.5034 8.872 16.1819L7.96398 12.5498H6C5.69624 12.5498 5.45 12.3036 5.45 11.9998C5.45 11.6961 5.69624 11.4498 6 11.4498H7.68898L7.36404 10.1501H6C5.69624 10.1501 5.45 9.90382 5.45 9.60006C5.45 9.2963 5.69624 9.05006 6 9.05006H7.08904L6.872 8.1819C6.77154 7.78006 7.01586 7.37285 7.41771 7.27239C7.81955 7.17193 8.22676 7.41625 8.32722 7.8181L8.63521 9.05006H11.2375L11.6917 7.75224C11.7991 7.44553 12.0917 7.24285 12.4166 7.25019C12.7414 7.25754 13.0246 7.47325 13.118 7.78449L13.4977 9.05006H16.1016L16.4812 7.78449C16.6003 7.38774 17.0184 7.16261 17.4151 7.28163C17.8119 7.40065 18.037 7.81877 17.918 8.21551ZM15.3816 11.4498L15.7716 10.1501H13.8277L14.2176 11.4498H15.3816ZM14.5476 12.5498L14.7996 13.3899L15.0516 12.5498H14.5476ZM12.6515 11.4498L12.3447 10.4271L11.9868 11.4498H12.6515ZM10.3976 11.4498L10.8525 10.1501H8.91021L9.23514 11.4498H10.3976ZM9.51015 12.5498L9.71949 13.3872L10.0126 12.5498H9.51015Z" fill="black"/>
</svg>
