<svg width="24" height="24" viewBox="0 0 24 24" fill="none" xmlns="http://www.w3.org/2000/svg">
<path d="M0 16.5714C0 20.6741 3.32588 24 7.42857 24H16.5714C20.6741 24 24 20.6741 24 16.5714V7.42857C24 3.32588 20.6741 0 16.5714 0H7.42857C3.32588 0 0 3.32588 0 7.42857V16.5714ZM12.4281 7.91637L12.4122 7.91821C11.9316 7.96969 11.452 8.16545 11.1172 8.50017C10.8055 8.81196 10.5541 9.30706 10.6071 10.1209C10.6084 10.1404 10.609 10.1599 10.609 10.1794C10.609 10.5249 10.6469 10.8364 10.6928 11.2048L10.6932 11.208L10.7772 11.8402H13.464C13.961 11.8402 14.364 12.2432 14.364 12.7402C14.364 13.2373 13.961 13.6402 13.464 13.6402H10.9592C10.969 13.8281 10.975 14.0186 10.975 14.2099C10.975 14.852 10.9019 15.4795 10.7451 16.1H14.8538C15.3508 16.1 15.7538 16.5029 15.7538 17C15.7538 17.4971 15.3508 17.9 14.8538 17.9H9.48032C9.17493 17.9 8.89038 17.7451 8.72455 17.4887C8.55873 17.2322 8.53427 16.9092 8.65958 16.6307C9.0167 15.837 9.17504 15.0488 9.17504 14.2099C9.17504 14.0221 9.16802 13.8332 9.1565 13.6402H8.99961C8.50255 13.6402 8.09961 13.2373 8.09961 12.7402C8.09961 12.2559 8.48211 11.861 8.96147 11.841L8.90747 11.4343L8.90666 11.4275L8.90454 11.4105C8.86118 11.0628 8.81116 10.6617 8.80909 10.2085C8.7331 8.93216 9.14392 7.9279 9.84445 7.22738C10.5252 6.54664 11.4142 6.21637 12.2126 6.12931C13.1624 6.01242 14.0613 6.25127 14.7823 6.73207L14.7951 6.7408C15.6526 7.33424 16.1301 8.29662 16.188 9.40034C16.214 9.89672 15.8328 10.3202 15.3364 10.3463C14.84 10.3723 14.4165 9.99101 14.3905 9.49464C14.3574 8.86465 14.1059 8.45569 13.7769 8.22517C13.4035 7.97835 12.936 7.85282 12.4281 7.91637Z" fill="black"/>
</svg>
