<svg width="24" height="24" viewBox="0 0 24 24" fill="none" xmlns="http://www.w3.org/2000/svg">
<path d="M0 7.42857V16.5714C0 20.6741 3.32588 24 7.42857 24H16.5714C20.6741 24 24 20.6741 24 16.5714V7.42857C24 3.32588 20.6741 0 16.5714 0H7.42857C3.32588 0 0 3.32588 0 7.42857ZM16.4724 7.65244C16.6882 8.1414 16.8 8.66743 16.8 9.2C16.8 9.73257 16.6882 10.2586 16.4724 10.7476C16.2567 11.2364 15.942 11.6771 15.549 12.046C15.1561 12.4149 14.6923 12.7049 14.1854 12.902C13.6785 13.0991 13.1369 13.2 12.5909 13.2H10.2545V14.2H14.4005C14.8423 14.2 15.2005 14.5582 15.2005 15C15.2005 15.4418 14.8423 15.8 14.4005 15.8H10.2545V18C10.2545 18.4418 9.89637 18.8 9.45455 18.8C9.01272 18.8 8.65455 18.4418 8.65455 18V15.8H8.00049C7.55866 15.8 7.20049 15.4418 7.20049 15C7.20049 14.5582 7.55866 14.2 8.00049 14.2H8.65455V13.2L8 13.2C7.55817 13.2 7.2 12.8418 7.2 12.4C7.2 11.9582 7.55817 11.6 8 11.6H8.65455L8.65454 6C8.65455 5.78783 8.73883 5.58434 8.88886 5.43431C9.03889 5.28429 9.24237 5.2 9.45455 5.2H12.5909C13.1369 5.2 13.6785 5.30089 14.1854 5.49796C14.6923 5.69506 15.1561 5.98515 15.549 6.35397C15.942 6.72289 16.2567 7.16362 16.4724 7.65244ZM10.2545 11.6H12.5909C12.9403 11.6 13.2853 11.5353 13.6056 11.4108C13.9259 11.2863 14.2138 11.1049 14.454 10.8795C14.6941 10.6541 14.8816 10.3893 15.0086 10.1016C15.1355 9.81409 15.2 9.50789 15.2 9.2C15.2 8.89211 15.1355 8.58591 15.0086 8.29839C14.8816 8.01072 14.6941 7.74593 14.454 7.52055C14.2138 7.29507 13.9259 7.11374 13.6056 6.98921C13.2853 6.86466 12.9403 6.8 12.5909 6.8H10.2545V11.6Z" fill="black"/>
</svg>
