<svg width="24" height="24" viewBox="0 0 24 24" fill="none" xmlns="http://www.w3.org/2000/svg">
<path d="M7.42857 0C3.32588 0 0 3.32588 0 7.42857V16.5714C0 20.6741 3.32588 24 7.42857 24H16.5714C20.6741 24 24 20.6741 24 16.5714V7.42857C24 3.32588 20.6741 0 16.5714 0H7.42857ZM8.05005 6.325H8.42505H9.50005V6C9.50005 5.55817 9.85822 5.2 10.3 5.2C10.7419 5.2 11.1 5.55817 11.1 6V6.325H11.75V6C11.75 5.55817 12.1082 5.2 12.55 5.2C12.9919 5.2 13.35 5.55817 13.35 6V6.44349C13.7258 6.52219 14.1148 6.64787 14.4762 6.8425C15.3043 7.28839 15.9751 8.09997 15.9751 9.375C15.9751 10.0171 15.7779 10.5672 15.4295 11.0113C15.3067 11.1679 15.1692 11.3062 15.0221 11.4284C15.4719 11.6654 15.898 12.0006 16.214 12.4707C16.5447 12.9626 16.7251 13.5584 16.7251 14.25C16.7251 15.6207 16.1134 16.532 15.2725 17.0602C14.6469 17.4533 13.9369 17.61 13.35 17.6577V18C13.35 18.4418 12.9919 18.8 12.55 18.8C12.1082 18.8 11.75 18.4418 11.75 18V17.675H11.1V18C11.1 18.4418 10.7419 18.8 10.3 18.8C9.85822 18.8 9.50005 18.4418 9.50005 18V17.675H8.05005C7.60822 17.675 7.25005 17.3168 7.25005 16.875C7.25005 16.4332 7.60822 16.075 8.05005 16.075H8.37505V7.925H8.05005C7.60822 7.925 7.25005 7.56683 7.25005 7.125C7.25005 6.68317 7.60822 6.325 8.05005 6.325ZM11.4418 10.825H9.97505V7.925H12.1751C12.674 7.925 13.2733 8.01198 13.7177 8.25125C14.1083 8.46161 14.3751 8.77504 14.3751 9.375C14.3751 9.67045 14.291 9.87033 14.1706 10.0239C14.0408 10.1893 13.8354 10.3418 13.5419 10.4702C12.9451 10.7313 12.1447 10.8236 11.4418 10.825ZM11.4434 12.425H12.1751C12.872 12.425 13.6625 12.5304 14.2489 12.8297C14.5322 12.9744 14.7441 13.1521 14.8861 13.3633C15.0242 13.5686 15.1251 13.8478 15.1251 14.25C15.1251 15.0668 14.7992 15.468 14.4214 15.7054C13.9892 15.9769 13.4092 16.075 12.9251 16.075H9.97505V12.425H11.4251C11.4312 12.425 11.4373 12.425 11.4434 12.425Z" fill="black"/>
</svg>
