<svg width="24" height="24" viewBox="0 0 24 24" fill="none" xmlns="http://www.w3.org/2000/svg">
<path d="M0 7.42857V16.5714C0 20.6741 3.32588 24 7.42857 24H16.5714C20.6741 24 24 20.6741 24 16.5714V7.42857C24 3.32588 20.6741 0 16.5714 0H7.42857C3.32588 0 0 3.32588 0 7.42857ZM7.03449 15.9567C7.53158 16.2404 8.16523 16.067 8.4484 15.571C8.73216 15.0739 8.55874 14.4402 8.0627 14.1571C7.56561 13.8733 6.93196 14.0467 6.64879 14.5428C6.36503 15.0398 6.53844 15.6735 7.03449 15.9567ZM6.29085 17.2594C5.07483 16.5652 4.65193 15.0151 5.3461 13.7991C6.04027 12.5831 7.59032 12.1602 8.80634 12.8544C8.88301 12.8981 8.95652 12.9453 9.0268 12.9956L9.90398 12.3719L8.91424 11.6863C8.14545 12.1763 7.13724 12.2343 6.29085 11.7511C5.07483 11.0569 4.65193 9.50688 5.3461 8.29086C6.04027 7.07484 7.59032 6.65195 8.80634 7.34612C9.9289 7.98693 10.3756 9.35713 9.89149 10.5206L11.2167 11.4387L16.9443 7.3667C17.5653 6.92748 18.4246 7.07475 18.8638 7.69562C18.8906 7.7335 18.9152 7.77225 18.9377 7.81174L12.5272 12.3466L19 16.8309C18.9779 16.8707 18.9536 16.9097 18.9272 16.9479C18.4939 17.573 17.6361 17.7286 17.011 17.2953L11.2112 13.2775L9.92977 14.184C10.1776 14.8614 10.1365 15.6395 9.75109 16.3146C9.05692 17.5306 7.50687 17.9535 6.29085 17.2594ZM8.4484 10.0627C8.16523 10.5588 7.53158 10.7322 7.03449 10.4484C6.53844 10.1652 6.36503 9.53159 6.64879 9.0345C6.93196 8.53846 7.56561 8.36504 8.0627 8.6488C8.55874 8.93197 8.73216 9.56562 8.4484 10.0627Z" fill="black"/>
</svg>
