<svg width="24" height="24" viewBox="0 0 24 24" fill="none" xmlns="http://www.w3.org/2000/svg">
<path d="M7.42857 0C3.32588 0 0 3.32588 0 7.42857V16.5714C0 20.6741 3.32588 24 7.42857 24H16.5714C20.6741 24 24 20.6741 24 16.5714V7.42857C24 3.32588 20.6741 0 16.5714 0H7.42857ZM7 16.2353V14.8606C7.27031 15.0222 7.58214 15.1628 7.91989 15.2834C8.97429 15.6599 10.3961 15.8827 11.9413 15.8827C13.4864 15.8827 14.9083 15.6599 15.9627 15.2834C16.3003 15.1628 16.6121 15.0223 16.8824 14.8607V16.2353C16.8824 17.2101 14.6701 18 11.9412 18C9.21224 18 7 17.2101 7 16.2353ZM16.8472 13.4121C16.8472 13.4639 16.8192 13.5848 16.6079 13.7633C16.399 13.9397 16.0653 14.1224 15.6066 14.2862C14.6938 14.6122 13.3979 14.8239 11.9413 14.8239C10.4846 14.8239 9.18877 14.6122 8.27598 14.2862C7.81728 14.1224 7.48358 13.9397 7.27467 13.7633C7.06331 13.5848 7.03539 13.4639 7.03539 13.4121H7V12.0364C7.27031 12.198 7.58214 12.3386 7.91989 12.4592C8.97429 12.8357 10.3961 13.0585 11.9413 13.0585C13.4864 13.0585 14.9083 12.8357 15.9627 12.4592C16.3003 12.3386 16.6121 12.1981 16.8824 12.0365V13.4121H16.8472ZM7 10.5879V9.21216C7.27031 9.3738 7.58214 9.51433 7.91989 9.63495C8.97429 10.0115 10.3961 10.2343 11.9413 10.2343C13.4864 10.2343 14.9083 10.0115 15.9627 9.63495C16.3003 9.51436 16.6121 9.37386 16.8824 9.21227V10.5879H16.8472C16.8472 10.6397 16.8192 10.7606 16.6079 10.9391C16.399 11.1155 16.0653 11.2982 15.6066 11.462C14.6938 11.788 13.3979 11.9997 11.9413 11.9997C10.4846 11.9997 9.18877 11.788 8.27598 11.462C7.81728 11.2982 7.48358 11.1155 7.27467 10.9391C7.06331 10.7606 7.03539 10.6397 7.03539 10.5879H7ZM11.9412 6C14.6692 6 16.8808 6.78932 16.8824 7.76367H16.8472C16.8472 7.81551 16.8192 7.9364 16.6079 8.11487C16.399 8.29128 16.0653 8.47399 15.6066 8.6378C14.6938 8.96377 13.3979 9.17544 11.9413 9.17544C10.4846 9.17544 9.18877 8.96377 8.27598 8.6378C7.81728 8.47399 7.48358 8.29128 7.27467 8.11487C7.06331 7.9364 7.03539 7.81551 7.03539 7.76367H7C7.00156 6.78932 9.2132 6 11.9412 6Z" fill="black"/>
</svg>
