<svg width="24" height="24" viewBox="0 0 24 24" fill="none" xmlns="http://www.w3.org/2000/svg">
<path d="M7.42857 0C3.32588 0 0 3.32588 0 7.42857V16.5714C0 20.6741 3.32588 24 7.42857 24H16.5714C20.6741 24 24 20.6741 24 16.5714V7.42857C24 3.32588 20.6741 0 16.5714 0H7.42857ZM5.29066 11.0065L7.87231 7.75611C8.25171 7.27842 8.82839 7 9.43843 7H17C18.1046 7 19 7.89543 19 9V14.8252C19 15.9298 18.1046 16.8252 17 16.8252H9.43831C8.82834 16.8252 8.25172 16.5469 7.87231 16.0693L5.29066 12.8195C4.90311 12.2776 4.90311 11.5485 5.29066 11.0065ZM10.7424 9.89351C10.4886 10.1473 10.4886 10.5589 10.7424 10.8127L11.8424 11.9127L10.7424 13.0126C10.4886 13.2665 10.4886 13.678 10.7424 13.9319C10.9963 14.1857 11.4078 14.1857 11.6617 13.9319L12.7616 12.8319L13.8616 13.9319C14.1154 14.1857 14.527 14.1857 14.7808 13.9319C15.0346 13.678 15.0346 13.2665 14.7808 13.0126L13.6809 11.9127L14.7808 10.8127C15.0346 10.5589 15.0346 10.1473 14.7808 9.89351C14.527 9.63966 14.1154 9.63966 13.8616 9.89351L12.7616 10.9934L11.6617 9.89351C11.4078 9.63966 10.9963 9.63966 10.7424 9.89351Z" fill="black"/>
</svg>
