<svg width="24" height="24" viewBox="0 0 24 24" fill="none" xmlns="http://www.w3.org/2000/svg">
<path d="M7.42857 0C3.32588 0 0 3.32588 0 7.42857V16.5714C0 20.6741 3.32588 24 7.42857 24H16.5714C20.6741 24 24 20.6741 24 16.5714V7.42857C24 3.32588 20.6741 0 16.5714 0H7.42857ZM10.25 7.25279C10.25 6.28501 11.0326 5.5 12 5.5C12.9656 5.5 13.7491 6.28288 13.75 7.2483C13.7537 8.21701 12.9678 8.99999 12.0028 8.99999C11.0384 8.99999 10.2547 8.22151 10.25 7.25618L10.25 7.25279ZM5.75 12C5.75 11.4477 6.19772 11 6.75 11H17.25C17.8023 11 18.25 11.4477 18.25 12C18.25 12.5523 17.8023 13 17.25 13H6.75C6.19772 13 5.75 12.5523 5.75 12ZM12 15C12.9656 15 13.7491 15.7829 13.75 16.7483C13.7537 17.717 12.9678 18.5 12.0028 18.5C11.0384 18.5 10.2547 17.7215 10.25 16.7562L10.25 16.7528C10.25 15.785 11.0326 15 12 15Z" fill="black"/>
</svg>
