<svg width="24" height="24" viewBox="0 0 24 24" fill="none" xmlns="http://www.w3.org/2000/svg">
<path d="M7.42877 0C3.32608 0 0.000196457 3.32588 0.000196457 7.42857V16.5714C0.000196457 20.6741 3.32608 24 7.42877 24H16.5716C20.6743 24 24.0002 20.6741 24.0002 16.5714V7.42857C24.0002 3.32588 20.6743 0 16.5716 0L7.42877 0ZM17.8 13.8333V16.2778C17.8 17.3946 16.8946 18.3 15.7778 18.3H7.22222C6.10538 18.3 5.2 17.3946 5.2 16.2778V13.8333C5.2 13.3915 5.55817 13.0333 6 13.0333C6.44183 13.0333 6.8 13.3915 6.8 13.8333V16.2778C6.8 16.511 6.98904 16.7 7.22222 16.7H15.7778C16.011 16.7 16.2 16.511 16.2 16.2778V13.8333C16.2 13.3915 16.5582 13.0333 17 13.0333C17.4418 13.0333 17.8 13.3915 17.8 13.8333ZM15.1223 11.3433L12.0668 14.3989C11.9293 14.5363 11.7544 14.6133 11.5749 14.6298C11.5502 14.6321 11.5252 14.6333 11.5 14.6333C11.2661 14.6333 11.0556 14.5329 10.9093 14.3728L7.87984 11.3433C7.56742 11.0309 7.56742 10.5244 7.87984 10.212C8.19226 9.89956 8.6988 9.89956 9.01122 10.212L10.7 11.9008V6.49995C10.7 6.05812 11.0582 5.69995 11.5 5.69995C11.9418 5.69995 12.3 6.05812 12.3 6.49995V11.9029L13.991 10.212C14.3034 9.89956 14.8099 9.89956 15.1223 10.212C15.4347 10.5244 15.4347 11.0309 15.1223 11.3433Z" fill="black"/>
</svg>
