<svg width="24" height="24" viewBox="0 0 24 24" fill="none" xmlns="http://www.w3.org/2000/svg">
<path d="M0 7.42857V16.5714C0 20.6741 3.32588 24 7.42857 24H16.5714C20.6741 24 24 20.6741 24 16.5714V7.42857C24 3.32588 20.6741 0 16.5714 0H7.42857C3.32588 0 0 3.32588 0 7.42857ZM12.35 14.25H9.95C9.83954 14.25 9.75 14.1605 9.75 14.05V11.65L16.0515 5.34854C16.5201 4.87991 17.2799 4.87991 17.7485 5.34854L18.6515 6.25149C19.1201 6.72012 19.1201 7.47991 18.6515 7.94854L12.35 14.25ZM7.14961 9.09963V15.4996C7.14961 16.2452 7.75403 16.8496 8.49961 16.8496H14.8996C15.6452 16.8496 16.2496 16.2452 16.2496 15.4996V12.2996C16.2496 11.9406 16.5406 11.6496 16.8996 11.6496C17.2586 11.6496 17.5496 11.9406 17.5496 12.2996V15.4996C17.5496 16.9632 16.3632 18.1496 14.8996 18.1496H8.49961C7.03606 18.1496 5.84961 16.9632 5.84961 15.4996V9.09963C5.84961 7.63607 7.03605 6.44962 8.49961 6.44962H11.6996C12.0586 6.44962 12.3496 6.74064 12.3496 7.09962C12.3496 7.45861 12.0586 7.74962 11.6996 7.74962H8.49961C7.75403 7.74962 7.14961 8.35404 7.14961 9.09963Z" fill="black"/>
</svg>
