<svg width="24" height="24" viewBox="0 0 24 24" fill="none" xmlns="http://www.w3.org/2000/svg">
<path d="M0 7.42857V16.5714C0 20.6741 3.32588 24 7.42857 24H16.5714C20.6741 24 24 20.6741 24 16.5714V7.42857C24 3.32588 20.6741 0 16.5714 0H7.42857C3.32588 0 0 3.32588 0 7.42857ZM17.0054 12.3324C17.3598 12.8641 16.9787 13.5762 16.3397 13.5762H7.89509C7.25614 13.5762 6.87503 12.8641 7.22945 12.3324L11.4518 5.99894C11.7684 5.52396 12.4664 5.52396 12.783 5.99894L17.0054 12.3324ZM7.81367 14.8701H16.4228C16.8647 14.8701 17.2228 15.2283 17.2228 15.6701V17.2009C17.2228 17.6427 16.8647 18.0009 16.4228 18.0009H7.81367C7.37184 18.0009 7.01367 17.6427 7.01367 17.2009V15.6701C7.01367 15.2283 7.37184 14.8701 7.81367 14.8701Z" fill="black"/>
</svg>
