<svg width="24" height="24" viewBox="0 0 24 24" fill="none" xmlns="http://www.w3.org/2000/svg">
<path d="M0 16.5714C0 20.6741 3.32588 24 7.42857 24H16.5714C20.6741 24 24 20.6741 24 16.5714V7.42857C24 3.32588 20.6741 0 16.5714 0L7.42857 0C3.32588 0 0 3.32588 0 7.42857L0 16.5714ZM13.8444 17.1579C13.8444 18.1753 13.0196 19 12.0023 19C10.9849 19 10.1602 18.1753 10.1602 17.1579C10.1602 16.1405 10.9849 15.3158 12.0023 15.3158C13.0196 15.3158 13.8444 16.1405 13.8444 17.1579ZM12.0023 10.1576C13.0196 10.1576 13.8444 10.9823 13.8444 11.9997C13.8444 13.0171 13.0196 13.8418 12.0023 13.8418C10.9849 13.8418 10.1602 13.0171 10.1602 11.9997C10.1602 10.9823 10.9849 10.1576 12.0023 10.1576ZM13.8444 6.84149C13.8444 7.85886 13.0196 8.6836 12.0023 8.6836C10.9849 8.6836 10.1602 7.85886 10.1602 6.84149C10.1602 5.82412 10.9849 4.99939 12.0023 4.99939C13.0196 4.99939 13.8444 5.82412 13.8444 6.84149Z" fill="black"/>
</svg>
