<svg width="24" height="24" viewBox="0 0 24 24" fill="none" xmlns="http://www.w3.org/2000/svg">
<path d="M7.42857 0C3.32588 0 0 3.32588 0 7.42857V16.5714C0 20.6741 3.32588 24 7.42857 24H16.5714C20.6741 24 24 20.6741 24 16.5714V7.42857C24 3.32588 20.6741 0 16.5714 0H7.42857ZM6.84211 13.8444C5.82474 13.8444 5 13.0196 5 12.0023C5 10.9849 5.82474 10.1602 6.84211 10.1602C7.85947 10.1602 8.68421 10.9849 8.68421 12.0023C8.68421 13.0196 7.85947 13.8444 6.84211 13.8444ZM13.8424 12.0023C13.8424 13.0196 13.0177 13.8444 12.0003 13.8444C10.9829 13.8444 10.1582 13.0196 10.1582 12.0023C10.1582 10.9849 10.9829 10.1602 12.0003 10.1602C13.0177 10.1602 13.8424 10.9849 13.8424 12.0023ZM17.1585 13.8444C16.1411 13.8444 15.3164 13.0196 15.3164 12.0023C15.3164 10.9849 16.1411 10.1602 17.1585 10.1602C18.1759 10.1602 19.0006 10.9849 19.0006 12.0023C19.0006 13.0196 18.1759 13.8444 17.1585 13.8444Z" fill="black"/>
</svg>
