<svg width="24" height="24" viewBox="0 0 24 24" fill="none" xmlns="http://www.w3.org/2000/svg">
<path d="M8.88892 10.8057H9.66669C10.0809 10.8057 10.4167 10.4699 10.4167 10.0557C10.4167 9.64145 10.0809 9.30566 9.66669 9.30566H8.88892C8.4747 9.30566 8.13892 9.64145 8.13892 10.0557C8.13892 10.4699 8.4747 10.8057 8.88892 10.8057Z" fill="black"/>
<path d="M14.7222 8.9165C14.308 8.9165 13.9722 9.25229 13.9722 9.6665V10.4443C13.9722 10.8585 14.308 11.1943 14.7222 11.1943C15.1364 11.1943 15.4722 10.8585 15.4722 10.4443V9.6665C15.4722 9.25229 15.1364 8.9165 14.7222 8.9165Z" fill="black"/>
<path d="M8.74744 13.9697C8.45455 14.2626 8.45455 14.7374 8.74744 15.0303L8.74835 15.0312L8.74937 15.0322L8.75169 15.0345L8.7575 15.0402L8.77385 15.0559C8.78682 15.0682 8.80397 15.0841 8.82521 15.1031C8.86766 15.141 8.92667 15.1915 9.00161 15.2501C9.15115 15.3671 9.36621 15.5185 9.64165 15.6687C10.1923 15.969 10.9958 16.2704 12 16.2704C13.0038 16.2704 13.8073 15.9689 14.358 15.6687C14.6334 15.5185 14.8485 15.3672 14.9981 15.2502C15.0731 15.1916 15.1321 15.1412 15.1746 15.1033C15.1958 15.0843 15.213 15.0684 15.2259 15.0561L15.2423 15.0404L15.2481 15.0347L15.2504 15.0324L15.2514 15.0314C15.2514 15.0314 14.9593 15.3233 15.2523 15.0305C15.5453 14.7378 15.5455 14.2629 15.2527 13.9699C14.9612 13.6781 14.4891 13.6767 14.1958 13.9657C13.9026 14.2548 14.1947 13.9668 14.1947 13.9668L14.1923 13.969C13.9991 14.1178 13.8775 14.2079 13.64 14.3517C13.2548 14.5617 12.6972 14.7704 12 14.7704C11.3024 14.7704 10.7448 14.5617 10.3598 14.3518C10.1674 14.2468 9.89931 14.0402 9.80434 13.9659C9.51115 13.6768 9.03908 13.678 8.74744 13.9697Z" fill="black"/>
<path d="M0 7.42857V16.5714C0 20.6741 3.32588 24 7.42857 24H16.5714C20.6741 24 24 20.6741 24 16.5714V7.42857C24 3.32588 20.6741 0 16.5714 0H7.42857C3.32588 0 0 3.32588 0 7.42857ZM16.9497 16.9497C14.2161 19.6834 9.78391 19.6834 7.05026 16.9497C4.31658 14.2161 4.31658 9.78391 7.05026 7.05026C9.78393 4.31658 14.2161 4.31658 16.9497 7.05026C19.6834 9.78393 19.6834 14.2161 16.9497 16.9497Z" fill="black"/>
</svg>
