<svg width="24" height="24" viewBox="0 0 24 24" fill="none" xmlns="http://www.w3.org/2000/svg">
<path d="M16.5714 24C20.6741 24 24 20.6741 24 16.5714V7.42857C24 3.32588 20.6741 0 16.5714 0H7.42857C3.32588 0 0 3.32588 0 7.42857V16.5714C0 20.6741 3.32588 24 7.42857 24H16.5714ZM6 9C6 7.89543 6.89543 7 8 7H16C17.1046 7 18 7.89543 18 9V14.8929C18 15.9975 17.1046 16.8929 16 16.8929H8C6.89543 16.8929 6 15.9975 6 14.8929V9ZM7.51672 9.30386C7.31775 9.56885 7.37127 9.94496 7.63626 10.1439L10.2042 12.0721C11.258 12.8633 12.7078 12.8633 13.7615 12.0721L16.3139 10.1556C16.5789 9.95665 16.6324 9.58054 16.4335 9.31555C16.2345 9.05056 15.8584 8.99704 15.5934 9.19601L13.041 11.1125C12.4141 11.5832 11.5516 11.5832 10.9247 11.1125L8.35678 9.18432C8.0918 8.98535 7.71569 9.03887 7.51672 9.30386Z" fill="black"/>
</svg>
