<svg width="24" height="24" viewBox="0 0 24 24" fill="none" xmlns="http://www.w3.org/2000/svg">
<path d="M7.42857 -1.90735e-06C3.32588 -1.90735e-06 -1.90735e-06 3.32588 -1.90735e-06 7.42857L-1.90735e-06 16.5714C-1.90735e-06 20.6741 3.32588 24 7.42857 24L16.5714 24C20.6741 24 24 20.6741 24 16.5714L24 7.42857C24 3.32588 20.6741 -1.90735e-06 16.5714 -1.90735e-06L7.42857 -1.90735e-06ZM10.068 18H6.39961C6.23392 18 6.09961 17.8657 6.09961 17.7V14.0316C6.09961 13.7644 6.42275 13.6305 6.61174 13.8195L7.84087 15.0486C7.85017 15.0384 7.85979 15.0283 7.86972 15.0185L10.3031 12.6048C10.6168 12.2936 11.1233 12.2957 11.4344 12.6094C11.7456 12.923 11.7435 13.4296 11.4299 13.7407L8.9965 16.1544C8.98812 16.1628 8.9796 16.1708 8.97095 16.1787L10.2801 17.4879C10.4691 17.6769 10.3352 18 10.068 18ZM15.0395 7.82538L13.7262 6.51213C13.5373 6.32314 13.6711 6 13.9384 6H17.6068C17.7724 6 17.9068 6.13431 17.9068 6.3V9.96837C17.9068 10.2356 17.5836 10.3695 17.3946 10.1805L16.1709 8.95677L13.7022 11.3961C13.3879 11.7066 12.8814 11.7036 12.5708 11.3893C12.2603 11.0751 12.2633 10.5685 12.5776 10.258L15.0395 7.82538Z" fill="black"/>
</svg>
