<svg width="24" height="24" viewBox="0 0 24 24" fill="none" xmlns="http://www.w3.org/2000/svg">
<path d="M7.42857 0C3.32588 0 0 3.32588 0 7.42857V16.5714C0 20.6741 3.32588 24 7.42857 24H16.5714C20.6741 24 24 20.6741 24 16.5714V7.42857C24 3.32588 20.6741 0 16.5714 0H7.42857ZM15.6687 7.17541L14.5055 6.01215C14.3165 5.82316 14.4504 5.50002 14.7176 5.50002H17.4844C17.6298 5.458 17.7847 5.458 17.9301 5.50002H18.201C18.3667 5.50002 18.501 5.63434 18.501 5.80002V6.16858C18.5093 6.23492 18.5093 6.30209 18.501 6.36843V9.2834C18.501 9.55067 18.1779 9.68452 17.9889 9.49553L16.8001 8.30678L13.7896 11.3169C13.4771 11.6293 12.9706 11.6293 12.6582 11.3169C12.3458 11.0044 12.3458 10.4979 12.6583 10.1855L15.6687 7.17541ZM8.50117 8.02945C7.83843 8.02945 7.30117 8.56671 7.30117 9.22945V15.4756C7.30117 16.1384 7.83843 16.6756 8.50117 16.6756H14.7473C15.4101 16.6756 15.9473 16.1384 15.9473 15.4756V12.3525C15.9473 11.9107 16.3055 11.5525 16.7473 11.5525C17.1892 11.5525 17.5473 11.9107 17.5473 12.3525V15.4756C17.5473 17.022 16.2937 18.2756 14.7473 18.2756H8.50117C6.95477 18.2756 5.70117 17.022 5.70117 15.4756V9.22945C5.70117 7.68305 6.95478 6.42945 8.50117 6.42945H11.6243C12.0661 6.42945 12.4243 6.78762 12.4243 7.22945C12.4243 7.67128 12.0661 8.02945 11.6243 8.02945H8.50117Z" fill="black"/>
</svg>
