<svg width="24" height="24" viewBox="0 0 24 24" fill="none" xmlns="http://www.w3.org/2000/svg">
<path d="M7.42857 0C3.32588 0 0 3.32588 0 7.42857V16.5714C0 20.6741 3.32588 24 7.42857 24H16.5714C20.6741 24 24 20.6741 24 16.5714V7.42857C24 3.32588 20.6741 0 16.5714 0H7.42857ZM7.07916 6.11957L17.7457 16.7862C18.0386 17.079 18.0386 17.5539 17.7457 17.8468C17.4529 18.1397 16.978 18.1397 16.6851 17.8468L14.6724 15.8342C13.8764 16.3166 12.9426 16.6505 11.8828 16.6505C9.1558 16.6505 7.26354 14.4401 6.40468 13.1767C6.04856 12.6528 6.04857 11.9816 6.40468 11.4577C6.80259 10.8724 7.42233 10.0837 8.24412 9.40585L6.0185 7.18023C5.72561 6.88734 5.72561 6.41247 6.0185 6.11957C6.31139 5.82668 6.78626 5.82668 7.07916 6.11957ZM12.6692 13.831L10.0417 11.2034C9.9394 11.4431 9.88281 11.7067 9.88281 11.9834C9.88281 13.0879 10.7845 13.9834 11.8968 13.9834C12.1704 13.9834 12.4314 13.9292 12.6692 13.831ZM12.3233 10.0283L10.4791 8.18418C10.9186 8.05698 11.3869 7.98389 11.8828 7.98389C14.6097 7.98389 16.502 10.1943 17.3608 11.4577C17.717 11.9816 17.717 12.6528 17.3608 13.1767C17.1482 13.4894 16.8723 13.8602 16.5361 14.2411L13.8684 11.5735C13.7067 10.8024 13.0978 10.1942 12.3233 10.0283Z" fill="black"/>
</svg>
