<svg width="24" height="24" viewBox="0 0 24 24" fill="none" xmlns="http://www.w3.org/2000/svg">
<path d="M7.42857 0C3.32588 0 0 3.32588 0 7.42857V16.5714C0 20.6741 3.32588 24 7.42857 24H16.5714C20.6741 24 24 20.6741 24 16.5714V7.42857C24 3.32588 20.6741 0 16.5714 0H7.42857ZM5.80072 13.3326C5.24611 12.5611 5.24611 11.55 5.80072 10.7785C6.87733 9.2808 9.00805 7 12.0001 7C14.9921 7 17.1228 9.2808 18.1994 10.7785C18.754 11.55 18.754 12.5611 18.1994 13.3326C17.1228 14.8303 14.9921 17.1111 12.0001 17.1111C9.00806 17.1111 6.87733 14.8303 5.80072 13.3326ZM12.0157 13.0888C11.4274 13.0888 10.966 12.6177 10.966 12.0555C10.966 11.4933 11.4274 11.0222 12.0157 11.0222C12.6039 11.0222 13.0653 11.4933 13.0653 12.0555C13.0653 12.6177 12.6039 13.0888 12.0157 13.0888ZM14.3653 12.0555C14.3653 10.7668 13.3133 9.72217 12.0157 9.72217C10.718 9.72217 9.66602 10.7668 9.66602 12.0555C9.66602 13.3442 10.718 14.3888 12.0157 14.3888C13.3133 14.3888 14.3653 13.3442 14.3653 12.0555Z" fill="black"/>
</svg>
