<svg width="24" height="24" viewBox="0 0 24 24" fill="none" xmlns="http://www.w3.org/2000/svg">
<path d="M16.5714 24C20.6741 24 24 20.6741 24 16.5714L24 7.42857C24 3.32588 20.6741 -1.90735e-06 16.5714 -1.90735e-06L7.42857 -1.90735e-06C3.32588 -1.90735e-06 -1.90735e-06 3.32588 -1.90735e-06 7.42857L-1.90735e-06 16.5714C-1.90735e-06 20.6741 3.32588 24 7.42857 24L16.5714 24ZM15.957 11.4206C16.0113 11.4546 16.0588 11.4941 16.0996 11.5379V8.5544C16.0996 8.14019 16.4354 7.8044 16.8496 7.8044C17.2638 7.8044 17.5996 8.14019 17.5996 8.5544V15.4115C17.5996 15.8257 17.2638 16.1615 16.8496 16.1615C16.4354 16.1615 16.0996 15.8257 16.0996 15.4115V12.4806C16.0587 12.5245 16.0109 12.5641 15.9563 12.5981L11.7088 16.1622C11.2464 16.4517 10.6459 16.1186 10.6459 15.5731V13.5321L7.51156 16.1622C7.04915 16.4517 6.44868 16.1186 6.44868 15.5731L6.44868 8.44561C6.44868 7.9001 7.04915 7.56771 7.51156 7.85654L10.6459 10.4862V8.44561C10.6459 7.9001 11.2464 7.56771 11.7088 7.85654L15.957 11.4206Z" fill="black"/>
</svg>
