<svg width="24" height="24" viewBox="0 0 24 24" fill="none" xmlns="http://www.w3.org/2000/svg">
<path d="M7.42857 24C3.32588 24 0 20.6741 0 16.5714L0 7.42857C0 3.32588 3.32588 -1.90735e-06 7.42857 -1.90735e-06L16.5714 -1.90735e-06C20.6741 -1.90735e-06 24 3.32588 24 7.42857L24 16.5714C24 20.6741 20.6741 24 16.5714 24L7.42857 24ZM8.04303 11.4206C7.98871 11.4546 7.94116 11.4941 7.90039 11.5379V8.5544C7.90039 8.14019 7.5646 7.8044 7.15039 7.8044C6.73618 7.8044 6.40039 8.14019 6.40039 8.5544L6.40039 15.4115C6.40039 15.8257 6.73618 16.1615 7.15039 16.1615C7.5646 16.1615 7.90039 15.8257 7.90039 15.4115L7.90039 12.4806C7.94133 12.5245 7.98909 12.5641 8.0437 12.5981L12.2912 16.1622C12.7536 16.4517 13.3541 16.1186 13.3541 15.5731V13.5321L16.4884 16.1622C16.9509 16.4517 17.5513 16.1186 17.5513 15.5731L17.5513 8.44561C17.5513 7.9001 16.9509 7.56771 16.4884 7.85654L13.3541 10.4862V8.44561C13.3541 7.9001 12.7536 7.56771 12.2912 7.85654L8.04303 11.4206Z" fill="black"/>
</svg>
