<svg width="24" height="24" viewBox="0 0 24 24" fill="none" xmlns="http://www.w3.org/2000/svg">
<path d="M0 7.42857V16.5714C0 20.6741 3.32588 24 7.42857 24H16.5714C20.6741 24 24 20.6741 24 16.5714V7.42857C24 3.32588 20.6741 0 16.5714 0H7.42857C3.32588 0 0 3.32588 0 7.42857ZM11.8281 16.3188H9.18115C9.14177 16.3188 9.10292 16.3166 9.06472 16.3121L6.95788 18.4034C6.7031 18.6563 6.29155 18.6547 6.03865 18.3999C5.78576 18.1452 5.78729 17.7336 6.04207 17.4807L8.18186 15.3568C8.18139 15.3442 8.18115 15.3315 8.18115 15.3188V12.6171C8.18115 12.3519 8.28651 12.0975 8.47405 11.91L13.5145 6.86957C14.6739 5.71014 16.471 5.71014 17.6304 6.86957C18.7898 8.02899 18.7898 9.82609 17.6304 10.9855L15.2399 13.3504L15.2214 13.3501H12.0489L10.7392 14.6501H13.926L12.5313 16.0298C12.3441 16.215 12.0914 16.3188 11.8281 16.3188Z" fill="black"/>
</svg>
