<svg width="24" height="24" viewBox="0 0 24 24" fill="none" xmlns="http://www.w3.org/2000/svg">
<path d="M16.5714 23.9998C20.6741 23.9998 24 20.6739 24 16.5712V7.42833C24 3.32564 20.6741 -0.000244141 16.5714 -0.000244141H7.42857C3.32589 -0.000244141 0 3.32564 0 7.42833V16.5712C0 20.6739 3.32589 23.9998 7.42857 23.9998H16.5714ZM8.40033 18.9998C7.29576 18.9998 6.40033 18.1043 6.40033 16.9998V6.99976C6.40033 5.89519 7.29576 4.99976 8.40033 4.99976H12.0003H13.9022C14.4735 4.99976 15.0175 5.24405 15.397 5.67103L17.0951 7.58143C17.4206 7.94753 17.6003 8.42033 17.6003 8.91016V11.2998V16.9998C17.6003 18.1043 16.7049 18.9998 15.6003 18.9998H8.40033ZM15.347 10.4998H14.0184L13.4945 13.6774H13.468L12.8302 10.4998H11.5433L10.9132 13.6774H10.8866L10.359 10.4998H8.99994L10.0742 14.9998H11.5016L12.1469 11.9708H12.1735L12.8302 14.9998H14.2803L15.347 10.4998Z" fill="black"/>
</svg>
