<svg width="24" height="24" viewBox="0 0 24 24" fill="none" xmlns="http://www.w3.org/2000/svg">
<path d="M16.5714 23.9995C20.6741 23.9995 24 20.6736 24 16.5709V7.42808C24 3.3254 20.6741 -0.000488281 16.5714 -0.000488281H7.42857C3.32588 -0.000488281 0 3.3254 0 7.42808V16.5709C0 20.6736 3.32588 23.9995 7.42857 23.9995H16.5714ZM15.9998 18.8102L8.79981 18.8102C7.69524 18.8102 6.79981 17.9148 6.79981 16.8102V12.5734L4.69949 12.5735C4.28527 12.5736 3.94941 12.2379 3.94932 11.8237C3.94922 11.4094 4.28494 11.0736 4.69915 11.0735L6.84949 11.0734L6.84941 12.5732L10.3559 12.5729V14.2934C10.3559 14.6676 10.8083 14.855 11.0729 14.5904L13.5298 12.1335C13.6938 11.9695 13.6938 11.7035 13.5298 11.5395L11.0729 9.08263C10.8083 8.81804 10.3559 9.00543 10.3559 9.37961V11.0729L6.79981 11.0732L6.79981 6.8102C6.79981 5.70563 7.69524 4.8102 8.79981 4.8102H14.3017C14.873 4.8102 15.417 5.05449 15.7965 5.48147L17.4946 7.39187C17.82 7.75797 17.9998 8.23077 17.9998 8.7206L17.9998 16.8102C17.9998 17.9148 17.1044 18.8102 15.9998 18.8102Z" fill="black"/>
</svg>
