<svg width="24" height="24" viewBox="0 0 24 24" fill="none" xmlns="http://www.w3.org/2000/svg">
<path d="M16.5714 23.9998C20.6741 23.9998 24 20.6739 24 16.5712V7.42833C24 3.32564 20.6741 -0.000244141 16.5714 -0.000244141H7.42857C3.32589 -0.000244141 0 3.32564 0 7.42833V16.5712C0 20.6739 3.32589 23.9998 7.42857 23.9998H16.5714ZM8.40039 18.9998C7.29582 18.9998 6.40039 18.1043 6.40039 16.9998V6.99976C6.40039 5.89519 7.29582 4.99976 8.40039 4.99976H12.0004H13.9023C14.4735 4.99976 15.0175 5.24405 15.3971 5.67103L17.0952 7.58143C17.4206 7.94753 17.6004 8.42033 17.6004 8.91016V11.2998V16.9998C17.6004 18.1043 16.705 18.9998 15.6004 18.9998H8.40039ZM8.5 9.29976V10.4915C8.5 10.6571 8.63432 10.7915 8.8 10.7915H8.94824V13.748H8.8C8.63432 13.748 8.5 13.8824 8.5 14.048V15.2397C8.5 15.4054 8.63432 15.5397 8.8 15.5397H9.99169C10.1574 15.5397 10.2917 15.4054 10.2917 15.2397V15.1357H13.7861V15.2397C13.7861 15.4054 13.9205 15.5397 14.0861 15.5397H15.2778C15.4435 15.5397 15.5778 15.4054 15.5778 15.2397V14.048C15.5778 13.8824 15.4435 13.748 15.2778 13.748H15.1072V10.7915H15.2778C15.4435 10.7915 15.5778 10.6571 15.5778 10.4915V9.29976C15.5778 9.13407 15.4435 8.99976 15.2778 8.99976H14.0861C13.9204 8.99976 13.7861 9.13407 13.7861 9.29976V9.53662H10.2917V9.29976C10.2917 9.13407 10.1574 8.99976 9.99169 8.99976H8.8C8.63432 8.99976 8.5 9.13407 8.5 9.29976ZM10.2917 14.3357V14.048C10.2917 13.8824 10.1574 13.748 9.99169 13.748H9.74824V10.7915H9.99169C10.1574 10.7915 10.2917 10.6571 10.2917 10.4915V10.3366H13.7861V10.4915C13.7861 10.6571 13.9205 10.7915 14.0861 10.7915H14.3072V13.748H14.0861C13.9204 13.748 13.7861 13.8824 13.7861 14.048V14.3357H10.2917Z" fill="black"/>
</svg>
