<svg width="24" height="24" viewBox="0 0 24 24" fill="none" xmlns="http://www.w3.org/2000/svg">
<path d="M7.42857 -0.000244141C3.32588 -0.000244141 0 3.32564 0 7.42833V16.5712C0 20.6739 3.32588 23.9998 7.42857 23.9998H16.5714C20.6741 23.9998 24 20.6739 24 16.5712V7.42833C24 3.32564 20.6741 -0.000244141 16.5714 -0.000244141H7.42857ZM8.40039 18.9998C7.29582 18.9998 6.40039 18.1043 6.40039 16.9998V6.99976C6.40039 5.89519 7.29582 4.99976 8.40039 4.99976H12.0004H13.9023C14.4735 4.99976 15.0175 5.24405 15.3971 5.67103L17.0952 7.58143C17.4206 7.94753 17.6004 8.42033 17.6004 8.91015V11.2998V16.9998C17.6004 18.1043 16.705 18.9998 15.6004 18.9998H8.40039ZM11.7686 9.49976C11.2701 9.49976 11.0208 9.83102 11.0208 10.3772C11.0208 10.6995 11.1365 11.0845 11.368 11.5321C11.1632 12.2663 10.8428 13.0989 10.5134 13.7704C9.49853 14.2449 9 14.7015 9 15.2029C9 15.5879 9.34719 15.9998 9.7923 15.9998C10.3977 15.9998 10.8606 15.1403 11.1899 14.4688C11.7686 14.2449 12.4185 14.0211 13.0238 13.9047C13.4244 14.2449 13.7805 14.415 14.1188 14.415C14.6796 14.415 15.0357 13.9853 15.0357 13.6093C15.0357 13.2243 14.7241 12.8572 14.0476 12.8572C13.9035 12.8572 13.7632 12.8759 13.6097 12.8965C13.5261 12.9076 13.4385 12.9193 13.3443 12.9288C12.9793 12.5349 12.5965 11.9977 12.3116 11.4515C12.4096 11.0039 12.4363 10.6995 12.4363 10.4309C12.4363 9.72359 12.1603 9.49976 11.7686 9.49976ZM11.8932 12.32C12.1158 12.6423 12.3294 12.9467 12.5698 13.2243C12.2393 13.3034 11.9088 13.4175 11.5845 13.5295L11.457 13.5734C11.4892 13.4858 11.5222 13.3978 11.5553 13.3095L11.5554 13.3093C11.678 12.9824 11.8021 12.6512 11.8932 12.32Z" fill="black"/>
</svg>
