<svg width="24" height="24" viewBox="0 0 24 24" fill="none" xmlns="http://www.w3.org/2000/svg">
<path d="M7.42857 0C3.32588 0 0 3.32588 0 7.42857V16.5714C0 20.6741 3.32588 24 7.42857 24H16.5714C20.6741 24 24 20.6741 24 16.5714V7.42857C24 3.32588 20.6741 0 16.5714 0H7.42857ZM15.4242 5.50002C14.2251 5.49509 13.2583 6.46188 13.2633 7.66101L13.2634 7.67213L13.1999 11.1766C13.1949 11.4527 12.9671 11.6725 12.691 11.6675C12.4149 11.6625 12.1951 11.4347 12.2001 11.1586L12.2633 7.65939C12.2591 5.90737 13.6757 4.49278 15.4284 4.50003C17.1798 4.50744 18.6044 5.93196 18.6117 7.68337L18.6117 7.69448L18.5484 11.1937C18.5505 12.4534 17.5314 13.4706 16.2709 13.4653C15.0119 13.46 13.9881 12.4362 13.9829 11.1772L13.9828 11.1656L14.0493 7.66311C14.0495 6.896 14.671 6.27653 15.439 6.27975C16.2058 6.28296 16.8288 6.90598 16.832 7.67281L16.8321 7.68606L16.7636 10.7464C16.7574 11.0225 16.5286 11.2413 16.2526 11.2351C15.9765 11.2289 15.7577 11.0002 15.7638 10.7241L15.832 7.67168C15.8282 7.45627 15.6509 7.28064 15.4348 7.27974C15.2203 7.27884 15.0484 7.45076 15.0493 7.66534L15.0493 7.67689L14.9829 11.1783C14.9887 11.8859 15.5668 12.4623 16.2751 12.4653C16.982 12.4683 17.5514 11.8989 17.5484 11.192L17.5484 11.1809L17.6116 7.68227C17.6038 6.48231 16.6249 5.50513 15.4242 5.50002ZM11.6 7.23636V11.6667C11.6 12.3334 12.6 13 13.2666 12C13.2666 12.5318 14.2441 14.489 16.6666 14.0707V16.6667C16.6666 17.9554 15.622 19 14.3333 19H8.33332C7.04467 19 6 17.9554 6 16.6667V8.00006C6 6.7114 7.04467 5.66673 8.33332 5.66673H11.3333H11.9925C11.7407 6.13818 11.6 6.67416 11.6 7.23636Z" fill="black"/>
</svg>
