<svg width="24" height="24" viewBox="0 0 24 24" fill="none" xmlns="http://www.w3.org/2000/svg">
<path d="M7.42857 -0.000244141C3.32588 -0.000244141 0 3.32564 0 7.42833V16.5712C0 20.6739 3.32588 23.9998 7.42857 23.9998H16.5714C20.6741 23.9998 24 20.6739 24 16.5712V7.42833C24 3.32564 20.6741 -0.000244141 16.5714 -0.000244141H7.42857ZM8.3999 18.9998C7.29533 18.9998 6.3999 18.1043 6.3999 16.9998V6.99976C6.3999 5.89519 7.29533 4.99976 8.3999 4.99976H11.9999H13.9018C14.473 4.99976 15.0171 5.24405 15.3966 5.67103L17.0947 7.58143C17.4201 7.94753 17.5999 8.42033 17.5999 8.91015V11.2998V16.9998C17.5999 18.1043 16.7045 18.9998 15.5999 18.9998H8.3999ZM13.5994 16.2998C14.1517 16.2998 14.5994 15.852 14.5994 15.2998V9.49976C14.5994 8.94747 14.1517 8.49976 13.5994 8.49976H10.3994C9.84713 8.49976 9.39941 8.94747 9.39941 9.49976V15.2998C9.39941 15.852 9.84713 16.2998 10.3994 16.2998H13.5994ZM11.9888 14.1328H12.0092C12.2908 14.1328 12.519 14.3611 12.519 14.6426C12.519 14.9242 12.2908 15.1524 12.0092 15.1524H11.9888C11.7073 15.1524 11.479 14.9242 11.479 14.6426C11.479 14.3611 11.7073 14.1328 11.9888 14.1328Z" fill="black"/>
</svg>
