<svg width="24" height="24" viewBox="0 0 24 24" fill="none" xmlns="http://www.w3.org/2000/svg">
<path d="M7.42857 -0.000244141C3.32588 -0.000244141 0 3.32564 0 7.42833V16.5712C0 20.6739 3.32588 23.9998 7.42857 23.9998H16.5714C20.6741 23.9998 24 20.6739 24 16.5712V7.42833C24 3.32564 20.6741 -0.000244141 16.5714 -0.000244141H7.42857ZM8.40048 18.9998C7.29591 18.9998 6.40048 18.1043 6.40048 16.9998V6.99976C6.40048 5.89519 7.29591 4.99976 8.40048 4.99976H12.0005H13.9024C14.4736 4.99976 15.0176 5.24405 15.3972 5.67103L17.0953 7.58143C17.4207 7.94753 17.6005 8.42033 17.6005 8.91015V11.2998V16.9998C17.6005 18.1043 16.7051 18.9998 15.6005 18.9998H8.40048ZM14.1779 11.5269C14.3727 11.3312 14.3721 11.0145 14.1766 10.8195C13.981 10.6245 13.6646 10.625 13.4698 10.8207L11.9998 12.2976L10.5423 10.831C10.3477 10.6351 10.0312 10.6342 9.83556 10.8291C9.63988 11.0239 9.63906 11.3406 9.83372 11.5365L11.2944 13.0063L9.83504 14.4724C9.64024 14.6681 9.64084 14.9849 9.83638 15.1799C10.0319 15.3749 10.3484 15.3743 10.5432 15.1786L11.9993 13.7156L13.4371 15.1624C13.6318 15.3583 13.9482 15.3591 14.1439 15.1643C14.3396 14.9695 14.3404 14.6528 14.1457 14.4569L12.7048 13.0069L14.1779 11.5269Z" fill="black"/>
</svg>
