<svg width="24" height="24" viewBox="0 0 24 24" fill="none" xmlns="http://www.w3.org/2000/svg">
<path d="M16.5714 23.9998C20.6741 23.9998 24 20.6739 24 16.5712V7.42833C24 3.32564 20.6741 -0.000244141 16.5714 -0.000244141H7.42857C3.32589 -0.000244141 0 3.32564 0 7.42833V16.5712C0 20.6739 3.32589 23.9998 7.42857 23.9998H16.5714ZM8.4 18.9998C7.29543 18.9998 6.4 18.1043 6.4 16.9998V6.99976C6.4 5.89519 7.29543 4.99976 8.4 4.99976H12H13.9019C14.4731 4.99976 15.0172 5.24405 15.3967 5.67103L17.0948 7.58143C17.4202 7.94753 17.6 8.42033 17.6 8.91016V11.2998V16.9998C17.6 18.1043 16.7046 18.9998 15.6 18.9998H8.4ZM8.8 14.9998C8.8 15.3312 9.06863 15.5998 9.4 15.5998H14.4C14.7314 15.5998 15 15.3312 15 14.9998C15 14.6684 14.7314 14.3998 14.4 14.3998H9.4C9.06863 14.3998 8.8 14.6684 8.8 14.9998ZM9.4 12.3998C9.06863 12.3998 8.8 12.6684 8.8 12.9998C8.8 13.3312 9.06863 13.5998 9.4 13.5998H14.4C14.7314 13.5998 15 13.3312 15 12.9998C15 12.6684 14.7314 12.3998 14.4 12.3998H9.4ZM8.8 10.9998C8.8 11.3312 9.06863 11.5998 9.4 11.5998H14.4C14.7314 11.5998 15 11.3312 15 10.9998C15 10.6684 14.7314 10.3998 14.4 10.3998H9.4C9.06863 10.3998 8.8 10.6684 8.8 10.9998Z" fill="black"/>
</svg>
