<svg width="24" height="24" viewBox="0 0 24 24" fill="none" xmlns="http://www.w3.org/2000/svg">
<path d="M16.5714 23.9998C20.6741 23.9998 24 20.6739 24 16.5712V7.42833C24 3.32564 20.6741 -0.000244141 16.5714 -0.000244141H7.42857C3.32588 -0.000244141 0 3.32564 0 7.42833V16.5712C0 20.6739 3.32588 23.9998 7.42857 23.9998H16.5714ZM15.6 18.9998H8.39999C7.29542 18.9998 6.4 18.1043 6.4 16.9998V6.99976C6.4 5.89519 7.29543 4.99976 8.4 4.99976H12H13.9019C14.4731 4.99976 15.0171 5.24405 15.3967 5.67103L17.0948 7.58143C17.4202 7.94753 17.6 8.42033 17.6 8.91016V11.2998V16.9998C17.6 18.1043 16.7046 18.9998 15.6 18.9998ZM12.0701 14.4797C12.0701 13.8614 11.5685 13.3597 10.9501 13.3597C10.2204 13.3597 9.96612 13.954 9.72263 14.5231C9.5924 14.8274 9.46526 15.1246 9.27011 15.3197C9.69012 15.3197 9.90012 15.3897 10.1101 15.4597C10.3201 15.5297 10.5301 15.5997 10.9501 15.5997C11.5685 15.5997 12.0701 15.0981 12.0701 14.4797ZM15.3492 10.1975C15.0977 9.946 14.695 9.93293 14.4276 10.1667L11.8469 12.4245C11.5673 12.669 11.5529 13.0993 11.8156 13.3615L12.1847 13.7307C12.4475 13.9934 12.8777 13.9789 13.1218 13.6994L15.3796 11.1187C15.6138 10.8518 15.6003 10.4486 15.3492 10.1975Z" fill="black"/>
</svg>
