<svg width="24" height="24" viewBox="0 0 24 24" fill="none" xmlns="http://www.w3.org/2000/svg">
<path d="M16.5714 23.9998C20.6741 23.9998 24 20.6739 24 16.5712V7.42833C24 3.32564 20.6741 -0.000244141 16.5714 -0.000244141H7.42857C3.32589 -0.000244141 0 3.32564 0 7.42833V16.5712C0 20.6739 3.32589 23.9998 7.42857 23.9998H16.5714ZM8.40039 18.9998C7.29582 18.9998 6.40039 18.1043 6.40039 16.9998V6.99976C6.40039 5.89519 7.29582 4.99976 8.40039 4.99976H12.0004H13.9023C14.4735 4.99976 15.0175 5.24405 15.3971 5.67103L17.0952 7.58143C17.4206 7.94753 17.6004 8.42033 17.6004 8.91016V11.2998V16.9998C17.6004 18.1043 16.705 18.9998 15.6004 18.9998H8.40039ZM11.4945 15.3728C10.1246 15.1334 9.08334 13.9382 9.08334 12.4998C9.08334 12.3815 9.09038 12.2648 9.10406 12.1502C9.1295 12.2007 9.15693 12.2536 9.1865 12.309C9.43394 12.7728 9.77687 12.9895 10.0977 13.1258C10.2018 13.1701 10.3132 13.2094 10.4097 13.2434L10.4097 13.2434L10.4097 13.2435C10.4505 13.2578 10.4886 13.2713 10.5223 13.2838C10.6483 13.3303 10.7392 13.3715 10.8092 13.4219C10.9163 13.4992 10.956 13.6048 10.9615 13.755C10.9643 13.8327 10.9573 13.9134 10.9475 13.9989L10.9427 14.0396C10.9345 14.1076 10.9244 14.1911 10.9244 14.2585C10.9244 14.4775 11.0357 14.6487 11.1247 14.776C11.1498 14.8118 11.175 14.8467 11.2005 14.8819L11.2005 14.8819L11.2005 14.8819C11.2759 14.986 11.3533 15.0931 11.4348 15.237C11.4622 15.2853 11.4814 15.3308 11.4945 15.3728ZM13.3915 15.0637L13.3946 15.0563C13.4182 14.9981 13.4513 14.909 13.4564 14.8187C13.4573 14.8156 13.4587 14.8114 13.4605 14.8057C13.4618 14.8021 13.4632 14.7978 13.465 14.7929C13.4774 14.7584 13.4965 14.7123 13.5225 14.6524C13.5356 14.6222 13.5503 14.5889 13.5661 14.5533L13.5662 14.553C13.61 14.454 13.6618 14.3367 13.7094 14.2181C13.7745 14.0557 13.8394 13.8725 13.875 13.6958C13.9089 13.5278 13.9269 13.318 13.8474 13.131C13.7598 12.9246 13.581 12.8123 13.4214 12.7498C13.2604 12.6867 13.0776 12.6574 12.9128 12.6416C12.7545 12.6264 12.594 12.6221 12.462 12.6186L12.4619 12.6186L12.4404 12.618C12.2905 12.614 12.2029 12.61 12.1599 12.6013C12.093 12.5878 12.0276 12.5551 11.9701 12.5136C11.9115 12.4713 11.8742 12.4294 11.8636 12.4151L11.8225 12.3598L11.7609 12.3287C11.5578 12.2262 11.4301 12.146 11.3511 12.0871L11.6068 11.8953C11.6588 11.8714 11.7104 11.844 11.7593 11.8131C11.8828 11.7348 12.0509 11.5923 12.09 11.373C12.1481 11.3594 12.2165 11.3377 12.2926 11.2993C12.3818 11.2543 12.4636 11.1933 12.5245 11.1084C12.5871 11.0213 12.6144 10.9276 12.6217 10.8393C12.6325 10.7079 12.5965 10.5652 12.5719 10.4696L12.5758 10.4663C12.5899 10.4547 12.6062 10.4424 12.6284 10.4258L12.6352 10.4208L12.6352 10.4208L12.6354 10.4206C12.6547 10.4062 12.6785 10.3886 12.7017 10.3701C12.7532 10.3292 12.8222 10.2692 12.8771 10.186C13.0041 9.99388 12.9042 9.8054 12.8548 9.73253C12.8484 9.72299 12.8416 9.71355 12.8345 9.70423C13.5385 9.91407 14.131 10.3826 14.5018 10.9995C14.4605 11.0346 14.4211 11.0715 14.3842 11.1083C14.2211 11.271 14.0755 11.4636 13.9873 11.5961C13.9146 11.6937 13.8409 11.8418 13.8396 12.0265C13.8382 12.2251 13.9209 12.4246 14.0967 12.6069C14.2341 12.7492 14.4292 12.8405 14.6259 12.9018C14.7059 12.9268 14.7909 12.9482 14.8795 12.9665C14.7337 13.8734 14.1697 14.6405 13.3915 15.0637ZM15.0468 10.776L15.0474 10.7653L15.0405 10.765C14.4376 9.71044 13.3018 8.99976 12 8.99976C10.067 8.99976 8.5 10.5668 8.5 12.4998C8.5 14.4328 10.067 15.9998 12 15.9998C13.933 15.9998 15.5 14.4328 15.5 12.4998C15.5 11.8731 15.3353 11.2848 15.0468 10.776Z" fill="black"/>
</svg>
