<svg width="25" height="26" viewBox="0 0 25 26" fill="none" xmlns="http://www.w3.org/2000/svg">
<path d="M7.57778 1.00581C3.48547 1.01111 0.184895 4.34559 0.20575 8.45359L0.252224 17.6083C0.273079 21.7163 3.60746 25.0422 7.69978 25.0369L16.8195 25.0251C20.9118 25.0198 24.2124 21.6853 24.1916 17.5773L24.1451 8.42259C24.1242 4.31459 20.7898 0.988699 16.6975 0.993999L7.57778 1.00581ZM8.71836 20.0286C7.61379 20.0293 6.70958 19.1345 6.69873 18.03L6.60036 8.00801C6.58952 6.90347 7.47615 6.00749 8.58072 6.00678L12.1295 6.0045L13.9993 6.0033C14.5743 6.00293 15.1239 6.25006 15.5079 6.6816L17.2056 8.58976C17.5302 8.95461 17.7119 9.42399 17.7167 9.91012L17.7402 12.3108L17.7963 18.0228C17.8071 19.1274 16.9205 20.0234 15.8159 20.0241L8.71836 20.0286ZM12.0513 13.7156C12.052 13.9917 12.2764 14.215 12.5526 14.2143L15.0025 14.2079C15.2786 14.2072 15.5019 13.9828 15.5012 13.7067C15.5005 13.4305 15.2761 13.2073 14.9999 13.208L12.55 13.2143C12.2738 13.215 12.0506 13.4394 12.0513 13.7156ZM12.5567 15.8394C12.2806 15.8402 12.0573 16.0646 12.058 16.3407C12.0588 16.6168 12.2832 16.8401 12.5593 16.8394L15.0093 16.8331C15.2854 16.8324 15.5087 16.6079 15.508 16.3318C15.5073 16.0557 15.2828 15.8324 15.0067 15.8331L12.5567 15.8394ZM8.89369 10.9238C8.8944 11.1999 9.11883 11.4232 9.39497 11.4225L14.9948 11.408C15.271 11.4073 15.4942 11.1829 15.4935 10.9068C15.4928 10.6306 15.2684 10.4074 14.9923 10.4081L9.39239 10.4225C9.11625 10.4232 8.89298 10.6476 8.89369 10.9238ZM11.1534 13.5463C11.3473 13.3504 11.3452 13.0339 11.1486 12.8392C10.952 12.6445 10.6354 12.6455 10.4415 12.8414L9.92454 13.3634L9.75369 13.1931C9.55778 12.9977 9.2412 12.9976 9.04659 13.1928C8.85197 13.3879 8.85302 13.7045 9.04893 13.8999L9.57574 14.4252C9.67003 14.5192 9.79774 14.572 9.93065 14.5718C10.0636 14.5716 10.1907 14.5185 10.2841 14.4243L11.1534 13.5463ZM11.1554 15.4644C10.9588 15.2697 10.6422 15.2707 10.4483 15.4665L9.93132 15.9886L9.76048 15.8182C9.56457 15.6229 9.24799 15.6228 9.05337 15.8179C8.85875 16.0131 8.8598 16.3297 9.05571 16.525L9.58252 17.0503C9.67681 17.1443 9.80452 17.1971 9.93743 17.1969C10.0703 17.1968 10.1975 17.1437 10.2909 17.0494L11.1602 16.1715C11.3541 15.9756 11.352 15.659 11.1554 15.4644Z" fill="black"/>
</svg>
