<svg width="24" height="24" viewBox="0 0 24 24" fill="none" xmlns="http://www.w3.org/2000/svg">
<path d="M7.42857 -0.000244141C3.32588 -0.000244141 0 3.32564 0 7.42833V16.5712C0 20.6739 3.32588 23.9998 7.42857 23.9998H16.5714C20.6741 23.9998 24 20.6739 24 16.5712V7.42833C24 3.32564 20.6741 -0.000244141 16.5714 -0.000244141H7.42857ZM8.40039 18.9998C7.29582 18.9998 6.40039 18.1043 6.40039 16.9998V6.99976C6.40039 5.89519 7.29582 4.99976 8.40039 4.99976H12.0004H13.9023C14.4735 4.99976 15.0175 5.24405 15.3971 5.67103L17.0952 7.58143C17.4206 7.94753 17.6004 8.42033 17.6004 8.91015V11.2998V16.9998C17.6004 18.1043 16.705 18.9998 15.6004 18.9998H8.40039ZM7.92505 12.798C7.92505 13.0731 8.14809 13.2962 8.42323 13.2962C10.3592 13.2962 11.9286 14.8656 11.9286 16.8016C11.9286 17.0767 12.1517 17.2998 12.4268 17.2998C12.702 17.2998 12.925 17.0767 12.925 16.8016C12.925 14.3153 10.9095 12.2998 8.42323 12.2998C8.14809 12.2998 7.92505 12.5229 7.92505 12.798ZM7.92505 14.5774C7.92505 14.8525 8.14809 15.0756 8.42323 15.0756C9.3765 15.0756 10.1493 15.8484 10.1493 16.8016C10.1493 17.0768 10.3723 17.2998 10.6475 17.2998C10.9226 17.2998 11.1456 17.0768 11.1456 16.8016C11.1456 15.2981 9.92678 14.0792 8.42323 14.0792C8.14809 14.0792 7.92505 14.3023 7.92505 14.5774ZM8.5122 17.0682C8.80702 17.0682 9.04602 16.8292 9.04602 16.5344C9.04602 16.2396 8.80702 16.0006 8.5122 16.0006C8.21739 16.0006 7.97839 16.2396 7.97839 16.5344C7.97839 16.8292 8.21739 17.0682 8.5122 17.0682Z" fill="black"/>
</svg>
