<svg width="24" height="24" viewBox="0 0 24 24" fill="none" xmlns="http://www.w3.org/2000/svg">
<path d="M7.42857 -0.000244141C3.32588 -0.000244141 0 3.32564 0 7.42833V16.5712C0 20.6739 3.32588 23.9998 7.42857 23.9998H16.5714C20.6741 23.9998 24 20.6739 24 16.5712V7.42833C24 3.32564 20.6741 -0.000244141 16.5714 -0.000244141H7.42857ZM8.4 18.9998C7.29543 18.9998 6.4 18.1043 6.4 16.9998V6.99976C6.4 5.89519 7.29543 4.99976 8.4 4.99976H12H13.9019C14.4731 4.99976 15.0172 5.24405 15.3967 5.67103L17.0948 7.58143C17.4202 7.94753 17.6 8.42033 17.6 8.91015V11.2998V16.9998C17.6 18.1043 16.7046 18.9998 15.6 18.9998H8.4ZM11.7279 9.49976C11.0513 9.49976 10.4918 9.98867 10.2441 10.4841C10.1412 10.6899 10.2246 10.9402 10.4304 11.0431C10.6363 11.146 10.8865 11.0626 10.9895 10.8568C11.1386 10.5585 11.4521 10.3331 11.7279 10.3331C12.1328 10.3331 12.5018 10.7021 12.5018 11.107C12.5018 11.5118 12.1328 11.8808 11.7279 11.8808C11.4978 11.8808 11.3113 12.0674 11.3113 12.2975V12.7737C11.3113 13.0038 11.4978 13.1904 11.7279 13.1904C11.9581 13.1904 12.1446 13.0038 12.1446 12.7737V12.656C12.8184 12.4651 13.3352 11.8289 13.3352 11.107C13.3352 10.2419 12.593 9.49976 11.7279 9.49976ZM12.1446 14.0829C12.1446 13.8528 11.9581 13.6663 11.728 13.6663C11.4978 13.6663 11.3113 13.8528 11.3113 14.0829V14.0832C11.3113 14.3133 11.4978 14.4999 11.728 14.4999C11.9581 14.4999 12.1446 14.3133 12.1446 14.0832V14.0829Z" fill="black"/>
</svg>
