<svg width="24" height="24" viewBox="0 0 24 24" fill="none" xmlns="http://www.w3.org/2000/svg">
<path d="M16.5714 23.9998C20.6741 23.9998 24 20.6739 24 16.5712V7.42833C24 3.32564 20.6741 -0.000244141 16.5714 -0.000244141H7.42857C3.32589 -0.000244141 0 3.32564 0 7.42833V16.5712C0 20.6739 3.32589 23.9998 7.42857 23.9998H16.5714ZM8.40039 18.9998C7.29582 18.9998 6.40039 18.1043 6.40039 16.9998V6.99976C6.40039 5.89519 7.29582 4.99976 8.40039 4.99976H12.0004H13.9023C14.4735 4.99976 15.0175 5.24405 15.3971 5.67103L17.0952 7.58143C17.4206 7.94753 17.6004 8.42033 17.6004 8.91016V11.2998V16.9998C17.6004 18.1043 16.705 18.9998 15.6004 18.9998H8.40039ZM11.9825 9.49993L11.9675 9.49976L11.9082 9.50248C11.5961 9.53116 11.3 9.78828 11.3 10.096V10.1057L11.4274 13.1828L11.4313 13.2348C11.4643 13.4911 11.6914 13.6883 11.9655 13.6883C12.258 13.6883 12.4971 13.464 12.5042 13.1828L12.6331 10.1057V10.0517C12.6109 9.7512 12.3021 9.50744 11.9825 9.49993ZM11.9833 14.2656C11.6428 14.2656 11.3667 14.5419 11.3667 14.8827C11.3667 15.2235 11.6428 15.4998 11.9833 15.4998C12.3238 15.4998 12.5998 15.2235 12.5998 14.8827C12.5998 14.5419 12.3238 14.2656 11.9833 14.2656Z" fill="black"/>
</svg>
