<svg width="24" height="25" viewBox="0 0 24 25" fill="none" xmlns="http://www.w3.org/2000/svg">
<path d="M12 24.8104C18.6274 24.8104 24 19.4378 24 12.8104C24 6.18301 18.6274 0.810425 12 0.810425C5.37258 0.810425 -8.47383e-10 6.18301 -1.89268e-09 12.8104C-2.93798e-09 19.4378 5.37258 24.8104 12 24.8104ZM18.6646 10.083L21.1215 12.5399C21.2855 12.7039 21.2855 12.9698 21.1215 13.1338L18.6646 15.5907C18.4 15.8553 17.9476 15.6679 17.9476 15.2937L17.9476 13.5733L17.0215 13.5734L17.0215 12.0736L12.2908 12.0738C11.8765 12.0739 11.5408 12.4097 11.5409 12.824C11.541 13.2382 11.8769 13.5739 12.2911 13.5738L16.9998 13.5736L16.9998 17.8104C16.9998 18.915 16.1044 19.8104 14.9998 19.8104L7.79981 19.8104C6.69524 19.8104 5.79981 18.915 5.79981 17.8104L5.79981 7.81043C5.79981 6.70586 6.69524 5.81043 7.79981 5.81043L11.3998 5.81043L13.3017 5.81043C13.873 5.81043 14.417 6.05473 14.7965 6.48171L16.4946 8.3921C16.82 8.75821 16.9998 9.231 16.9998 9.72083L16.9998 12.0734L17.9476 12.0733L17.9476 10.38C17.9476 10.0058 18.4 9.81839 18.6646 10.083Z" fill="black"/>
</svg>
