<svg width="25" height="24" viewBox="0 0 25 24" fill="none" xmlns="http://www.w3.org/2000/svg">
<path d="M9.85548 14.773C9.85583 15.0443 10.0762 15.264 10.3477 15.2636L14.5616 15.2582C14.8331 15.2578 15.0529 15.0376 15.0526 14.7663C15.0522 14.495 14.8318 14.2753 14.5603 14.2757L10.3465 14.2811C10.075 14.2815 9.85513 14.5017 9.85548 14.773Z" fill="black"/>
<path d="M10.3442 12.5252C10.0727 12.5256 9.85287 12.7458 9.85322 13.0171C9.85357 13.2884 10.074 13.5081 10.3455 13.5077L14.5593 13.5023C14.8309 13.5019 15.0507 13.2817 15.0503 13.0104C15.05 12.7391 14.8296 12.5194 14.5581 12.5198L10.3442 12.5252Z" fill="black"/>
<path d="M9.85095 11.2612C9.8513 11.5325 10.0717 11.7521 10.3432 11.7518L14.5571 11.7464C14.8286 11.746 15.0484 11.5258 15.0481 11.2545C15.0477 10.9832 14.8273 10.7635 14.5558 10.7639L10.3419 10.7693C10.0704 10.7697 9.8506 10.9899 9.85095 11.2612Z" fill="black"/>
<path d="M7.80993 0.000169183C3.70727 0.000190324 0.394004 3.32601 0.409539 7.4286L0.444159 16.5712C0.459695 20.6738 3.79815 23.9996 7.9008 23.9996L17.0436 23.9996C21.1462 23.9995 24.4595 20.6737 24.444 16.5711L24.4094 7.42848C24.3938 3.32589 21.0554 0.00010093 16.9527 0.00012207L7.80993 0.000169183ZM8.96331 8.07987C8.96331 8.20304 8.965 8.32708 9.02915 8.38927C9.10384 8.46166 9.24814 8.45784 9.33978 8.38927C9.75583 8.07707 10.368 7.61807 10.368 7.61807C10.368 7.61807 10.9671 8.07742 11.3832 8.38927C11.4791 8.46107 11.648 8.47039 11.7234 8.38927C11.775 8.33379 11.774 8.2261 11.773 8.12159L11.7728 8.07987L11.7728 4.92309L14.1187 4.9254C14.7288 4.926 15.3136 5.19097 15.7218 5.65181L17.3598 7.50052C17.6997 7.88422 17.8918 8.37523 17.9007 8.88315L18.0354 16.5441C18.0592 17.9017 16.9779 19.0011 15.6203 18.9998L9.52821 18.9938C8.17053 18.9924 7.05057 17.8908 7.02671 16.5332L6.8658 7.37632C6.84384 6.12648 7.75857 5.09542 8.96331 4.94069L8.96331 8.07987Z" fill="black"/>
</svg>
