<svg width="24" height="24" viewBox="0 0 24 24" fill="none" xmlns="http://www.w3.org/2000/svg">
<path d="M7.42857 -0.000244141C3.32588 -0.000244141 0 3.32564 0 7.42833V16.5712C0 20.6739 3.32588 23.9998 7.42857 23.9998H16.5714C20.6741 23.9998 24 20.6739 24 16.5712V7.42833C24 3.32564 20.6741 -0.000244141 16.5714 -0.000244141H7.42857ZM8.40039 18.9998C7.29582 18.9998 6.40039 18.1043 6.40039 16.9998V6.99976C6.40039 5.89519 7.29582 4.99976 8.40039 4.99976H12.0004H13.9023C14.4735 4.99976 15.0175 5.24405 15.3971 5.67103L17.0952 7.58143C17.4206 7.94753 17.6004 8.42033 17.6004 8.91015V11.2998V16.9998C17.6004 18.1043 16.705 18.9998 15.6004 18.9998H8.40039ZM13.103 12.4754C13.2815 12.6157 13.5065 12.6993 13.7511 12.6993C14.3311 12.6993 14.8011 12.2292 14.8011 11.6493C14.8011 11.0693 14.3311 10.5993 13.7511 10.5993C13.1712 10.5993 12.7011 11.0693 12.7011 11.6493C12.7011 11.6959 12.7042 11.7419 12.7101 11.7869C12.6938 11.7935 12.6777 11.8013 12.662 11.8102L11.0547 12.7234C10.8621 12.4946 10.5736 12.3493 10.2511 12.3493C9.67117 12.3493 9.20112 12.8193 9.20112 13.3993C9.20112 13.9792 9.67117 14.4493 10.2511 14.4493C10.5739 14.4493 10.8626 14.3037 11.0552 14.0746L12.662 14.9876C12.6777 14.9965 12.6938 15.0043 12.7102 15.0109C12.7042 15.0562 12.7011 15.1024 12.7011 15.1493C12.7011 15.7292 13.1712 16.1993 13.7511 16.1993C14.3311 16.1993 14.8011 15.7292 14.8011 15.1493C14.8011 14.5693 14.3311 14.0993 13.7511 14.0993C13.5068 14.0993 13.2819 14.1827 13.1035 14.3227C13.089 14.3116 13.0736 14.3013 13.0572 14.292L11.4853 13.3989L13.0572 12.5057C13.0734 12.4966 13.0886 12.4864 13.103 12.4754Z" fill="black"/>
</svg>
