<svg width="24" height="24" viewBox="0 0 24 24" fill="none" xmlns="http://www.w3.org/2000/svg">
<path d="M16.5714 23.9998C20.6741 23.9998 24 20.6739 24 16.5712V7.42839C24 3.3257 20.6741 -0.000183105 16.5714 -0.000183105H7.42857C3.32588 -0.000183105 0 3.3257 0 7.42839V16.5712C0 20.6739 3.32588 23.9998 7.42857 23.9998H16.5714ZM15.6004 18.9998H8.40039C7.29582 18.9998 6.40039 18.1044 6.40039 16.9998V6.99982C6.40039 5.89525 7.29582 4.99982 8.40039 4.99982H12.0004H13.9023C14.4735 4.99982 15.0175 5.24411 15.3971 5.67109L17.0952 7.58149C17.4206 7.94759 17.6004 8.42039 17.6004 8.91022V11.2998V16.9998C17.6004 18.1044 16.705 18.9998 15.6004 18.9998ZM14.9901 14.7968C14.818 13.834 13.9853 13.0994 12.9771 13.0994H11.0237L10.9411 13.1011C9.9679 13.14 9.1742 13.8639 9.00947 14.8036C9.00473 14.8306 9.00162 14.8759 9.00014 14.9394L9 14.9518C9 15.2543 9.2508 15.4994 9.56017 15.4994H14.4399L14.4519 15.4993C14.7611 15.4928 15.0065 15.2425 14.9999 14.9401C14.9984 14.8729 14.9952 14.8252 14.9901 14.7968ZM12.0001 12.4998C12.8285 12.4998 13.5001 11.8283 13.5001 10.9998C13.5001 10.1714 12.8285 9.49982 12.0001 9.49982C11.1716 9.49982 10.5001 10.1714 10.5001 10.9998C10.5001 11.8283 11.1716 12.4998 12.0001 12.4998Z" fill="black"/>
</svg>
