<svg width="24" height="24" viewBox="0 0 24 24" fill="none" xmlns="http://www.w3.org/2000/svg">
<path d="M7.42857 -3.05176e-05C3.32588 -3.05176e-05 0 3.32585 0 7.42854V16.5714C0 20.6741 3.32588 24 7.42857 24H16.5714C20.6741 24 24 20.6741 24 16.5714V7.42854C24 3.32585 20.6741 -3.05176e-05 16.5714 -3.05176e-05H7.42857ZM15.6004 19H8.40039C7.29582 19 6.40039 18.1045 6.40039 17V6.99997C6.40039 5.8954 7.29582 4.99997 8.40039 4.99997H12.0004H13.9023C14.4735 4.99997 15.0175 5.24426 15.3971 5.67124L17.0952 7.58164C17.4206 7.94774 17.6004 8.42054 17.6004 8.91037V11.3V17C17.6004 18.1045 16.705 19 15.6004 19Z" fill="black"/>
</svg>
