<svg width="24" height="24" viewBox="0 0 24 24" fill="none" xmlns="http://www.w3.org/2000/svg">
<path d="M16.5714 23.9998C20.6741 23.9998 24 20.6739 24 16.5712V7.42833C24 3.32564 20.6741 -0.000244141 16.5714 -0.000244141H7.42857C3.32589 -0.000244141 0 3.32564 0 7.42833V16.5712C0 20.6739 3.32589 23.9998 7.42857 23.9998H16.5714ZM8.40039 18.9998C7.29582 18.9998 6.40039 18.1043 6.40039 16.9998V6.99976C6.40039 5.89519 7.29582 4.99976 8.40039 4.99976H12.0004H13.9023C14.4735 4.99976 15.0175 5.24405 15.3971 5.67103L17.0952 7.58143C17.4206 7.94753 17.6004 8.42033 17.6004 8.91016V11.2998V16.9998C17.6004 18.1043 16.705 18.9998 15.6004 18.9998H8.40039ZM11.2101 12.3123L9.19971 14.9998H10.6789L11.9914 13.2081L13.2935 14.9998H14.8143L12.8039 12.3123L14.5122 9.99976H13.0851L12.0018 11.4998L11.0018 9.99976H9.48096L11.2101 12.3123Z" fill="black"/>
</svg>
