<svg width="24" height="24" viewBox="0 0 24 24" fill="none" xmlns="http://www.w3.org/2000/svg">
<path d="M7.42857 -0.000244141C3.32588 -0.000244141 0 3.32564 0 7.42833V16.5712C0 20.6739 3.32588 23.9998 7.42857 23.9998H16.5714C20.6741 23.9998 24 20.6739 24 16.5712V7.42833C24 3.32564 20.6741 -0.000244141 16.5714 -0.000244141H7.42857ZM15.6004 18.9998H8.40039C7.29582 18.9998 6.40039 18.1043 6.40039 16.9998V6.99976C6.40039 5.89519 7.29582 4.99976 8.40039 4.99976H12.0004H13.9023C14.4735 4.99976 15.0175 5.24405 15.3971 5.67103L17.0952 7.58143C17.4206 7.94753 17.6004 8.42033 17.6004 8.91015V11.2998V16.9998C17.6004 18.1043 16.705 18.9998 15.6004 18.9998ZM12.5006 10.2C12.5006 9.92381 12.2767 9.69995 12.0006 9.69995C11.7244 9.69995 11.5006 9.92381 11.5006 10.2V11.7005H10C9.72386 11.7005 9.5 11.9244 9.5 12.2005C9.5 12.4767 9.72386 12.7005 10 12.7005H11.5006V14.2C11.5006 14.4761 11.7244 14.7 12.0006 14.7C12.2767 14.7 12.5006 14.4761 12.5006 14.2V12.7005H14C14.2761 12.7005 14.5 12.4767 14.5 12.2005C14.5 11.9244 14.2761 11.7005 14 11.7005H12.5006V10.2Z" fill="black"/>
</svg>
