<svg width="24" height="24" viewBox="0 0 24 24" fill="none" xmlns="http://www.w3.org/2000/svg">
<path d="M7.42857 -0.000244139C3.32588 -0.00024414 -5.2457e-10 3.32564 -1.17166e-09 7.42833L-2.6137e-09 16.5712C-3.2608e-09 20.6739 3.32588 23.9998 7.42857 23.9998L16.5714 23.9998C20.6741 23.9998 24 20.6739 24 16.5712L24 7.42833C24 3.32564 20.6741 -0.000244137 16.5714 -0.000244138L7.42857 -0.000244139ZM7.19972 5.59985L7.84454 5.59985L7.84454 8.19971L5.6 8.19971L5.59972 8.19971L5.59972 7.19985C5.59972 6.3162 6.31607 5.59985 7.19972 5.59985ZM5.59972 11.48L5.59972 9.39971L5.6 9.39971L7.84454 9.39971L7.84454 11.48L5.59993 11.48L5.59972 11.48ZM5.59972 14.5999L5.59972 12.52L5.59993 12.52L7.84454 12.52L7.84454 14.5999L5.6 14.5999L5.59972 14.5999ZM5.59972 16.7999L5.59972 15.7999L5.6 15.7999L7.84454 15.7999L7.84454 18.3998L7.84454 18.3999L7.19972 18.3999C6.31607 18.3999 5.59972 17.6835 5.59972 16.7999ZM14.9555 18.3999L9.04454 18.3999L9.04454 18.3998L9.04454 12.52L14.9555 12.52L14.9555 15.1999L14.9555 18.3998L14.9555 18.3999ZM16.7997 18.3999L16.1555 18.3999L16.1555 18.3998L16.1555 15.7999L18.3997 15.7999L18.3997 16.7999C18.3997 17.6835 17.6834 18.3999 16.7997 18.3999ZM18.3997 12.52L18.3997 14.5999L16.1555 14.5999L16.1555 12.52L18.3997 12.52ZM18.3997 9.39971L18.3997 11.48L16.1555 11.48L16.1555 9.39971L18.3997 9.39971ZM18.3997 7.19985L18.3997 8.19971L16.1555 8.19971L16.1555 5.59985L16.7997 5.59985C17.6834 5.59985 18.3997 6.3162 18.3997 7.19985ZM9.04454 5.59985L14.9555 5.59985L14.9555 8.79971L14.9555 11.48L9.04454 11.48L9.04454 5.59985Z" fill="black"/>
</svg>
