<svg width="24" height="24" viewBox="0 0 24 24" fill="none" xmlns="http://www.w3.org/2000/svg">
<path d="M7.42857 0C3.32588 0 0 3.32588 0 7.42857V16.5714C0 20.6741 3.32588 24 7.42857 24H16.5714C20.6741 24 24 20.6741 24 16.5714V7.42857C24 3.32588 20.6741 0 16.5714 0H7.42857ZM6 8H18C18.5523 8 19 8.44771 19 9C19 9.55228 18.5523 10 18 10H6C5.44772 10 5 9.55228 5 9C5 8.44771 5.44772 8 6 8ZM7.00049 12.333C7.00049 11.7807 7.4482 11.333 8.00049 11.333H16.0005C16.5528 11.333 17.0005 11.7807 17.0005 12.333C17.0005 12.8853 16.5528 13.333 16.0005 13.333H8.00049C7.4482 13.333 7.00049 12.8853 7.00049 12.333ZM10.667 14.667H13.3337C13.8859 14.667 14.3337 15.1147 14.3337 15.667C14.3337 16.2193 13.8859 16.667 13.3337 16.667H10.667C10.1147 16.667 9.66699 16.2193 9.66699 15.667C9.66699 15.1147 10.1147 14.667 10.667 14.667Z" fill="black"/>
</svg>
