<svg width="24" height="24" viewBox="0 0 24 24" fill="none" xmlns="http://www.w3.org/2000/svg">
<path d="M16.5714 24C20.6741 24 24 20.6741 24 16.5714V7.42857C24 3.32588 20.6741 0 16.5714 0H7.42857C3.32588 0 0 3.32588 0 7.42857V16.5714C0 20.6741 3.32588 24 7.42857 24H16.5714ZM17.1776 7C17.5112 7 17.6982 7.38448 17.4922 7.64697L13.6 12.6059V17.096C13.6 17.3735 13.3244 17.5667 13.0636 17.472L10.5969 16.5771C10.4387 16.5197 10.3333 16.3694 10.3333 16.2011V12.6059L6.49829 7.64463C6.29506 7.38172 6.48246 7 6.81477 7H17.1776Z" fill="black"/>
</svg>
