<svg width="24" height="24" viewBox="0 0 24 24" fill="none" xmlns="http://www.w3.org/2000/svg">
<path d="M16.5714 24C20.6741 24 24 20.6741 24 16.5714V7.42857C24 3.32589 20.6741 0 16.5714 0H7.42857C3.32589 0 0 3.32589 0 7.42857V16.5714C0 20.6741 3.32589 24 7.42857 24H16.5714ZM7.59961 5.98438C7.67714 5.98438 7.75192 5.99614 7.82226 6.01798C7.88369 6.00618 7.94714 6 8.01204 6H16.938C17.327 6 17.567 6.42479 17.3662 6.75803L16.0212 8.99048C15.8299 9.30794 15.8299 9.70515 16.0212 10.0226L17.3662 12.2551C17.567 12.5883 17.327 13.0131 16.938 13.0131H8.34961V17.9999C8.34961 18.4141 8.01382 18.7499 7.59961 18.7499C7.1854 18.7499 6.84961 18.4141 6.84961 17.9999V6.73438C6.84961 6.32016 7.1854 5.98438 7.59961 5.98438Z" fill="black"/>
</svg>
