<svg width="24" height="24" viewBox="0 0 24 24" fill="none" xmlns="http://www.w3.org/2000/svg">
<path d="M7.42857 0C3.32588 0 0 3.32588 0 7.42857V16.5714C0 20.6741 3.32588 24 7.42857 24H16.5714C20.6741 24 24 20.6741 24 16.5714V7.42857C24 3.32588 20.6741 0 16.5714 0H7.42857ZM14.5655 13.6362L13.1279 11.6595C13.0472 11.5484 13.0036 11.4145 13.0036 11.2772V6.64998H11.0309V11.2772C11.0309 11.4145 10.9874 11.5483 10.9066 11.6594L9.46927 13.6362H14.5655ZM13.6536 5.34998H14.6951C15.054 5.34998 15.3451 5.64099 15.3451 5.99998C15.3451 6.35896 15.054 6.64998 14.6951 6.64998H14.3036V11.0658L17.1784 15.0188C17.4409 15.3795 17.5793 15.7814 17.6109 16.181C17.6449 16.609 17.5555 17.0311 17.3672 17.401C17.1789 17.7708 16.8901 18.0914 16.5241 18.3158C16.1822 18.5254 15.7759 18.65 15.3298 18.65H8.70527C8.25914 18.65 7.85287 18.5254 7.51104 18.316C7.14493 18.0916 6.85605 17.771 6.66773 17.4011C6.47941 17.0312 6.39011 16.609 6.42408 16.181C6.4558 15.7813 6.59411 15.3795 6.85653 15.0189L9.7309 11.0658V6.64998H9.33978C8.9808 6.64998 8.68978 6.35896 8.68978 5.99998C8.68978 5.64099 8.9808 5.34998 9.33978 5.34998H10.3809H13.6536Z" fill="black"/>
</svg>
