<svg width="24" height="24" viewBox="0 0 24 24" fill="none" xmlns="http://www.w3.org/2000/svg">
<path d="M16.5714 24C20.6741 24 24 20.6741 24 16.5714V7.42857C24 3.32589 20.6741 0 16.5714 0H7.42857C3.32589 0 0 3.32589 0 7.42857V16.5714C0 20.6741 3.32589 24 7.42857 24H16.5714ZM7.58733 6.34986H10.0709C10.4337 6.34986 10.7899 6.44652 11.103 6.62992L12.4611 7.42555C12.5748 7.49218 12.7043 7.5273 12.8361 7.5273H15.2014C15.797 7.5273 16.4597 7.58616 16.9891 7.87515C17.2679 8.02735 17.516 8.2466 17.6898 8.55164C17.8108 8.764 17.8847 8.99859 17.9181 9.24986H18.1898C18.8492 9.24986 19.3281 9.87683 19.1546 10.513L17.4895 16.6182C17.3709 17.0533 16.9757 17.3551 16.5248 17.3551H15.4193C15.3512 17.3794 15.2778 17.3925 15.2014 17.3925H7.58733C6.07533 17.3925 4.84961 16.1668 4.84961 14.6548V9.08757C4.84961 7.57557 6.07533 6.34986 7.58733 6.34986ZM16.5866 9.24986C16.5781 9.22885 16.5691 9.21076 16.5602 9.19514C16.5227 9.1293 16.4651 9.07024 16.3661 9.01619C16.1399 8.89268 15.7587 8.8273 15.2014 8.8273H12.8361C12.4733 8.8273 12.117 8.73063 11.804 8.54724L10.4459 7.7516C10.3321 7.68498 10.2027 7.64986 10.0709 7.64986H7.58733C6.7933 7.64986 6.14961 8.29354 6.14961 9.08757V14.6548C6.14961 15.0394 6.30061 15.3887 6.54656 15.6467L7.56033 10.071C7.64678 9.59548 8.06091 9.24986 8.5442 9.24986H16.5866Z" fill="black"/>
</svg>
