<svg width="24" height="24" viewBox="0 0 24 24" fill="none" xmlns="http://www.w3.org/2000/svg">
<path d="M16.5714 24C20.6741 24 24 20.6741 24 16.5714V7.42857C24 3.32588 20.6741 0 16.5714 0H7.42857C3.32588 0 0 3.32588 0 7.42857V16.5714C0 20.6741 3.32588 24 7.42857 24H16.5714ZM9.31369 6.6501C9.23496 6.6501 9.15807 6.65798 9.08377 6.67301L8.08826 5.6775C8.44886 5.46926 8.86736 5.3501 9.31369 5.3501H10.9384C11.6552 5.3501 12.3323 5.67913 12.7752 6.24267C12.9716 6.49261 13.2719 6.63854 13.5898 6.63854H15.9356C17.4901 6.63854 18.7503 7.89873 18.7503 9.45325V16.3396L17.4503 15.0396V9.45325C17.4503 8.6167 16.7722 7.93854 15.9356 7.93854H13.5898C12.873 7.93854 12.1959 7.60951 11.753 7.04597C11.5566 6.79603 11.2563 6.6501 10.9384 6.6501H9.31369ZM16.9514 14.5406L11.4928 9.08203H14.7721C15.9676 9.08203 16.9368 10.0538 16.9368 11.2525V13.7753H16.9514V14.5406ZM6.53033 6.21967L6.84387 6.53321C6.87119 6.57445 6.90301 6.61358 6.93934 6.6499L18.0458 17.7564C18.022 17.7718 17.9978 17.7866 17.9732 17.8007C18.0422 18.0523 17.978 18.3327 17.7803 18.5303C17.4874 18.8232 17.0126 18.8232 16.7197 18.5303L16.1898 18.0005H8.16471C6.96918 18.0005 6 17.0287 6 15.83V11.2525C6 10.5452 6.33746 9.91686 6.85977 9.5206V8.67043L5.46967 7.28033C5.17678 6.98744 5.17678 6.51257 5.46967 6.21967C5.76257 5.92678 6.23744 5.92678 6.53033 6.21967Z" fill="black"/>
</svg>
