<svg width="24" height="24" viewBox="0 0 24 24" fill="none" xmlns="http://www.w3.org/2000/svg">
<path d="M7.42857 -0.000244141C3.32588 -0.000244141 0 3.32564 0 7.42833V16.5712C0 20.6739 3.32588 23.9998 7.42857 23.9998H16.5714C20.6741 23.9998 24 20.6739 24 16.5712V7.42833C24 3.32564 20.6741 -0.000244141 16.5714 -0.000244141H7.42857ZM13.0282 8.12773H16C17.1046 8.12773 18 9.02316 18 10.1277V14.3331C18 15.4377 17.1046 16.3331 16 16.3331H8C6.89543 16.3331 6 15.4377 6 14.3331V8.99976C6 7.89519 6.89543 6.99976 8 6.99976H10.3792C10.6161 6.99976 10.8488 7.06288 11.0532 7.18264L12.3542 7.94485C12.5587 8.0646 12.7913 8.12773 13.0282 8.12773Z" fill="black"/>
</svg>
