<svg width="24" height="24" viewBox="0 0 24 24" fill="none" xmlns="http://www.w3.org/2000/svg">
<path d="M16.5714 24C20.6741 24 24 20.6741 24 16.5714V7.42857C24 3.32589 20.6741 0 16.5714 0H7.42857C3.32589 0 0 3.32589 0 7.42857V16.5714C0 20.6741 3.32589 24 7.42857 24H16.5714ZM5.46967 6.21967C5.72624 5.96311 6.12244 5.93128 6.41364 6.1242L17.4697 17.1802C17.506 17.2166 17.5451 17.2484 17.5864 17.2757L17.7803 17.4697C18.0732 17.7626 18.0732 18.2374 17.7803 18.5303C17.4874 18.8232 17.0126 18.8232 16.7197 18.5303L14.7678 16.5785H8C6.89543 16.5785 6 15.683 6 14.5785V9.24512C6 8.83745 6.12197 8.45827 6.33142 8.14208L5.46967 7.28033C5.17678 6.98744 5.17678 6.51257 5.46967 6.21967ZM18 14.5785C18 14.8748 17.9355 15.1561 17.8199 15.4091L9.65588 7.24512H10.3792C10.6161 7.24512 10.8488 7.30825 11.0532 7.428L12.3542 8.19021C12.5587 8.30997 12.7913 8.37309 13.0282 8.37309H16C17.1046 8.37309 18 9.26852 18 10.3731V14.5785Z" fill="black"/>
</svg>
