<svg width="24" height="24" viewBox="0 0 24 24" fill="none" xmlns="http://www.w3.org/2000/svg">
<path d="M7.42857 0C3.32588 0 0 3.32588 0 7.42857V16.5714C0 20.6741 3.32588 24 7.42857 24H16.5714C20.6741 24 24 20.6741 24 16.5714V7.42857C24 3.32588 20.6741 0 16.5714 0H7.42857ZM9.24368 12H5.80899C5.4373 12 5.19556 11.6088 5.36178 11.2764L8.05276 5.89444C8.23702 5.52591 8.76293 5.52591 8.94719 5.89444L10.5299 9.06001L11.5419 6.74698C11.7166 6.34753 12.2833 6.34753 12.458 6.74698L13.47 9.06L15.0527 5.89444C15.237 5.52591 15.7629 5.52591 15.9471 5.89444L18.6381 11.2764C18.8043 11.6088 18.5626 12 18.1909 12H14.7562L16.5935 16.1995C16.738 16.5299 16.496 16.8999 16.1354 16.8999H12.75V18.9999C12.75 19.4141 12.4142 19.7499 12 19.7499C11.5858 19.7499 11.25 19.4141 11.25 18.9999V16.8999H7.86446C7.50389 16.8999 7.26186 16.5299 7.40638 16.1995L9.24368 12Z" fill="black"/>
</svg>
