<svg width="24" height="24" viewBox="0 0 24 24" fill="none" xmlns="http://www.w3.org/2000/svg">
<path d="M7.42857 0C3.32588 0 0 3.32588 0 7.42857V16.5714C0 20.6741 3.32588 24 7.42857 24H16.5714C20.6741 24 24 20.6741 24 16.5714V7.42857C24 3.32588 20.6741 0 16.5714 0H7.42857ZM18.1503 12.6503L13.6042 16.4364C13.1094 16.7432 12.4668 16.3901 12.4668 15.8106V12.331C12.4095 12.4566 12.3151 12.5688 12.1835 12.6503L7.63742 16.4364C7.14258 16.7432 6.5 16.3901 6.5 15.8106V8.23927C6.5 7.65978 7.14258 7.30597 7.63742 7.61351L12.1828 11.3995C12.3148 11.481 12.4094 11.5933 12.4668 11.719V8.23927C12.4668 7.65978 13.1094 7.30597 13.6042 7.61351L18.1496 11.3995C18.6164 11.6879 18.6164 12.3613 18.1503 12.6503Z" fill="black"/>
</svg>
