<svg width="24" height="24" viewBox="0 0 24 24" fill="none" xmlns="http://www.w3.org/2000/svg">
<path d="M7.42857 0C3.32588 0 0 3.32588 0 7.42857V16.5714C0 20.6741 3.32588 24 7.42857 24H16.5714C20.6741 24 24 20.6741 24 16.5714V7.42857C24 3.32588 20.6741 0 16.5714 0H7.42857ZM8.48633 6.60596H15.5152L14.3318 10.1562H9.66973L8.48633 6.60596ZM5.43359 10.1562L7.34414 7.29034L8.29941 10.1562H5.43359ZM5.50054 11.4562H8.73274L11.2044 18.8712L5.50054 11.4562ZM12.0008 17.1493L10.1031 11.4562H13.8985L12.0008 17.1493ZM12.7977 18.8694L15.2688 11.4562H18.5002L12.7977 18.8694ZM16.6572 7.29112L18.5672 10.1562H15.7022L16.6572 7.29112Z" fill="black"/>
</svg>
