<svg width="24" height="24" viewBox="0 0 24 24" fill="none" xmlns="http://www.w3.org/2000/svg">
<path d="M0 7.42857C0 3.32588 3.32588 0 7.42857 0H16.5714C20.6741 0 24 3.32588 24 7.42857V16.5714C24 20.6741 20.6741 24 16.5714 24H7.42857C3.32588 24 0 20.6741 0 16.5714V7.42857ZM19 8.36697C19 7.70423 18.4627 7.16697 17.8 7.16697L14.9833 7.16664C14.9833 6.16332 14.17 5.34998 13.1667 5.34998C12.7224 5.34998 12.3153 5.50942 11.9995 5.77421C11.6839 5.50942 11.2769 5.34998 10.8327 5.34998C9.82936 5.34998 9.01602 6.16332 9.01602 7.16664L6.2 7.16697C5.53726 7.16697 5 7.70423 5 8.36697V9.85586C5 10.5186 5.53726 11.0559 6.2 11.0559H17.8C18.4627 11.0559 19 10.5186 19 9.85586V8.36697ZM11.3496 18.833V12.2998H5.77734V17.6334C5.77734 18.2961 6.3146 18.8334 6.97734 18.8334L11.3496 18.833ZM12.6496 18.833L17.0218 18.8334C17.6845 18.8334 18.2218 18.2961 18.2218 17.6334V12.2998H12.6496V18.833ZM10.8327 6.64998C10.5473 6.64998 10.316 6.8813 10.316 7.16664H11.3493C11.3493 6.8813 11.118 6.64998 10.8327 6.64998ZM13.1667 6.64998C12.8813 6.64998 12.6493 6.8813 12.6493 7.16664H13.6833C13.6833 6.8813 13.452 6.64998 13.1667 6.64998Z" fill="black"/>
</svg>
