<svg width="24" height="24" viewBox="0 0 24 24" fill="none" xmlns="http://www.w3.org/2000/svg">
<path d="M16.5714 24C20.6741 24 24 20.6741 24 16.5714V7.42857C24 3.32589 20.6741 0 16.5714 0H7.42857C3.32589 0 0 3.32589 0 7.42857V16.5714C0 20.6741 3.32589 24 7.42857 24H16.5714ZM14.2772 16.9817C14.7246 17.295 15.3184 17.3017 15.7727 16.9986L18.2052 15.3761C18.2997 15.4484 18.3827 15.5361 18.4512 15.6358C18.8094 16.1572 18.6993 16.8864 18.2052 17.2644L16.3977 18.5639C15.5768 19.154 14.4683 19.1444 13.6578 18.5402L11.8188 17.1692C11.7253 17.0952 11.6436 17.006 11.5766 16.905C11.2266 16.3773 11.3482 15.6502 11.8482 15.2809L14.2772 16.9817ZM17.9898 10.3774C18.0301 10.6181 17.8698 10.8464 17.6318 10.8871C17.3937 10.9279 17.1681 10.7657 17.1278 10.525C17.0253 9.91257 16.8253 9.33644 16.5451 8.8123C15.4407 9.23276 14.5489 9.36304 13.8688 9.20373C12.7029 8.93062 12.5418 8.22057 12.5967 7.78216C12.6516 7.34376 12.2668 7.22024 11.4862 6.97166C11.0678 6.83844 10.7677 6.51363 10.5857 5.99722C9.8852 6.14002 9.23292 6.41826 8.65627 6.80307L8.64022 6.78324C9.96439 8.42419 10.3579 9.49653 9.82063 10.0002C9.41597 10.3797 9.05997 10.4939 8.75931 10.5903C8.45639 10.6875 8.20965 10.7666 8.02592 11.0808C7.65981 11.7069 8.13959 12.183 8.93507 12.6552C9.72581 13.1246 9.63766 14.5557 7.95288 15.5678C8.69533 16.2613 9.63065 16.7529 10.6773 16.9492C10.9147 16.9937 11.0714 17.2245 11.0274 17.4645C10.9834 17.7046 10.7553 17.8632 10.5179 17.8187C7.51197 17.2549 5.29981 14.5916 5.29981 11.4636C5.29981 7.89385 8.16068 5 11.6897 5C14.8187 5 17.473 7.29008 17.9898 10.3774ZM8.60784 6.74324C8.6187 6.75661 8.62949 6.76995 8.64022 6.78324L8.60784 6.74324ZM15.6032 11.2199L18.0833 12.8924C18.1965 12.9687 18.294 13.0661 18.3703 13.1793C18.6985 13.666 18.57 14.3267 18.0833 14.6549L15.6237 16.3136C15.2594 16.5592 14.7816 16.5554 14.4212 16.3041L11.9414 14.5741C11.8294 14.4959 11.7334 14.3969 11.6588 14.2823C11.3385 13.7904 11.4777 13.1319 11.9696 12.8116L14.4289 11.2104C14.7867 10.9774 15.2492 10.9811 15.6032 11.2199Z" fill="black"/>
</svg>
