<svg width="24" height="24" viewBox="0 0 24 24" fill="none" xmlns="http://www.w3.org/2000/svg">
<path d="M16.5714 24C20.6741 24 24 20.6741 24 16.5714V7.42857C24 3.32589 20.6741 0 16.5714 0H7.42857C3.32589 0 0 3.32589 0 7.42857V16.5714C0 20.6741 3.32589 24 7.42857 24H16.5714ZM10.8693 17.4745C10.7064 17.1867 10.5514 16.9727 10.4007 16.7645L10.4007 16.7644L10.4007 16.7644L10.4006 16.7643C10.3497 16.694 10.2992 16.6242 10.2491 16.5526C10.071 16.298 9.84842 15.9556 9.84842 15.5177C9.84842 15.3829 9.86859 15.2158 9.88502 15.0797C9.88848 15.0511 9.89177 15.0238 9.89468 14.9984C9.9143 14.8274 9.92835 14.6659 9.92265 14.5106C9.91163 14.2102 9.83235 13.9989 9.61803 13.8444C9.47816 13.7436 9.29619 13.6612 9.04436 13.5681C8.97677 13.5431 8.9006 13.5162 8.81917 13.4875L8.81906 13.4875L8.81905 13.4875L8.81895 13.4874L8.81894 13.4874C8.62591 13.4193 8.40328 13.3407 8.1951 13.2522C7.55341 12.9795 6.86755 12.5462 6.37268 11.6186C6.31362 11.5079 6.25885 11.4023 6.20805 11.3015C6.18073 11.5306 6.16667 11.7636 6.16667 12C6.16667 14.8767 8.24898 17.267 10.9885 17.746C10.9623 17.6621 10.924 17.5712 10.8693 17.4745ZM14.7888 17.1132L14.7827 17.1281C16.3393 16.2816 17.4676 14.7471 17.7592 12.9327C17.5818 12.8963 17.4119 12.8534 17.2519 12.8035C16.8585 12.6808 16.4683 12.4982 16.1936 12.2136C15.8419 11.8491 15.6765 11.45 15.6792 11.0528C15.6818 10.6834 15.8293 10.3872 15.9748 10.192C16.1511 9.92702 16.4423 9.54192 16.7685 9.21648C16.8423 9.1429 16.9209 9.06927 17.0033 8.99913C16.2617 7.7653 15.0766 6.82835 13.6685 6.40878C13.6827 6.42751 13.6964 6.44647 13.7094 6.46565C13.8081 6.61139 14.0078 6.98833 13.7539 7.37268C13.6441 7.53892 13.5061 7.6589 13.403 7.74079C13.3564 7.77781 13.3088 7.81326 13.2701 7.8421L13.2564 7.85223C13.2121 7.88531 13.1794 7.91004 13.1513 7.93324L13.1435 7.93969C13.1926 8.13093 13.2648 8.41635 13.2431 8.67919C13.2285 8.85573 13.1738 9.04327 13.0487 9.21746C12.9268 9.38716 12.7632 9.50914 12.5848 9.59914C12.4327 9.67591 12.2958 9.7193 12.1798 9.74663C12.1015 10.1852 11.7652 10.4702 11.5182 10.6267C11.4212 10.6882 11.3188 10.7425 11.2156 10.7902L10.7024 11.1751C10.8603 11.2929 11.1156 11.4532 11.5215 11.658L11.6446 11.7201L11.7269 11.8308C11.7481 11.8594 11.8226 11.9432 11.9398 12.0277C12.0548 12.1107 12.1857 12.1762 12.3194 12.2032C12.4055 12.2206 12.5806 12.2285 12.8805 12.2366L12.9235 12.2378L12.9236 12.2378C13.1877 12.2448 13.5086 12.2534 13.8252 12.2838C14.1549 12.3155 14.5205 12.3741 14.8424 12.5002C15.1616 12.6252 15.5193 12.8497 15.6946 13.2625C15.8534 13.6366 15.8176 14.0561 15.7497 14.3922C15.6784 14.7457 15.5487 15.112 15.4184 15.4367C15.3232 15.6741 15.2196 15.9085 15.1321 16.1066L15.1319 16.107C15.1004 16.1784 15.0709 16.245 15.0447 16.3053C14.9927 16.4251 14.9544 16.5174 14.9297 16.5863C14.9208 16.6111 14.9155 16.6279 14.9126 16.6379C14.9023 16.8186 14.836 16.9967 14.7888 17.1132ZM19 12C19 15.866 15.866 19 12 19C8.13401 19 5 15.866 5 12C5 8.13401 8.13401 5 12 5C14.6033 5 16.8746 6.42106 18.0806 8.52977L18.0948 8.53041L18.0937 8.55264C18.6706 9.57026 19 10.7467 19 12Z" fill="black"/>
</svg>
