<svg width="24" height="24" viewBox="0 0 24 24" fill="none" xmlns="http://www.w3.org/2000/svg">
<path d="M7.42857 0C3.32588 0 0 3.32588 0 7.42857V16.5714C0 20.6741 3.32588 24 7.42857 24H16.5714C20.6741 24 24 20.6741 24 16.5714V7.42857C24 3.32588 20.6741 0 16.5714 0H7.42857ZM7 6H10.3333C10.8856 6 11.3333 6.44772 11.3333 7V10.3333C11.3333 10.8856 10.8856 11.3333 10.3333 11.3333H7C6.44772 11.3333 6 10.8856 6 10.3333V7C6 6.44772 6.44772 6 7 6ZM7 12.667H10.3333C10.8856 12.667 11.3333 13.1147 11.3333 13.667V17.0003C11.3333 17.5526 10.8856 18.0003 10.3333 18.0003H7C6.44772 18.0003 6 17.5526 6 17.0003V13.667C6 13.1147 6.44772 12.667 7 12.667ZM12.666 7C12.666 6.44772 13.1137 6 13.666 6H16.9993C17.5516 6 17.9993 6.44772 17.9993 7V10.3333C17.9993 10.8856 17.5516 11.3333 16.9993 11.3333H13.666C13.1137 11.3333 12.666 10.8856 12.666 10.3333V7ZM13.666 12.667H16.9993C17.5516 12.667 17.9993 13.1147 17.9993 13.667V17.0003C17.9993 17.5526 17.5516 18.0003 16.9993 18.0003H13.666C13.1137 18.0003 12.666 17.5526 12.666 17.0003V13.667C12.666 13.1147 13.1137 12.667 13.666 12.667Z" fill="black"/>
</svg>
