<svg width="24" height="24" viewBox="0 0 24 24" fill="none" xmlns="http://www.w3.org/2000/svg">
<path d="M7.42857 0C3.32588 0 0 3.32588 0 7.42857V16.5714C0 20.6741 3.32588 24 7.42857 24H16.5714C20.6741 24 24 20.6741 24 16.5714V7.42857C24 3.32588 20.6741 0 16.5714 0H7.42857ZM6 6.8C6 6.35817 6.35817 6 6.8 6H8.47271C8.91454 6 9.27271 6.35817 9.27271 6.8V8.47271C9.27271 8.91454 8.91454 9.27271 8.47271 9.27271H6.8C6.35817 9.27271 6 8.91454 6 8.47271V6.8ZM10.3633 6.8C10.3633 6.35817 10.7215 6 11.1633 6H12.836C13.2778 6 13.636 6.35817 13.636 6.8V8.47271C13.636 8.91454 13.2778 9.27271 12.836 9.27271H11.1633C10.7215 9.27271 10.3633 8.91454 10.3633 8.47271V6.8ZM15.5266 6H17.1993C17.6411 6 17.9993 6.35817 17.9993 6.8V8.47271C17.9993 8.91454 17.6411 9.27271 17.1993 9.27271H15.5266C15.0847 9.27271 14.7266 8.91454 14.7266 8.47271V6.8C14.7266 6.35817 15.0847 6 15.5266 6ZM6 11.1643C6 10.7225 6.35817 10.3643 6.8 10.3643H8.47271C8.91454 10.3643 9.27271 10.7225 9.27271 11.1643V12.8371C9.27271 13.2789 8.91454 13.6371 8.47271 13.6371H6.8C6.35817 13.6371 6 13.2789 6 12.8371V11.1643ZM11.1633 10.3643H12.836C13.2778 10.3643 13.636 10.7224 13.636 11.1643V12.837C13.636 13.2788 13.2778 13.637 12.836 13.637H11.1633C10.7215 13.637 10.3633 13.2788 10.3633 12.837V11.1643C10.3633 10.7224 10.7215 10.3643 11.1633 10.3643ZM14.7266 11.1643C14.7266 10.7224 15.0847 10.3643 15.5266 10.3643H17.1993C17.6411 10.3643 17.9993 10.7224 17.9993 11.1643V12.837C17.9993 13.2788 17.6411 13.637 17.1993 13.637H15.5266C15.0847 13.637 14.7266 13.2788 14.7266 12.837V11.1643ZM6.8 14.7266H8.47271C8.91454 14.7266 9.27271 15.0848 9.27271 15.5266V17.1993C9.27271 17.6411 8.91454 17.9993 8.47271 17.9993H6.8C6.35817 17.9993 6 17.6411 6 17.1993V15.5266C6 15.0848 6.35817 14.7266 6.8 14.7266ZM10.3633 15.5266C10.3633 15.0848 10.7215 14.7266 11.1633 14.7266H12.836C13.2778 14.7266 13.636 15.0848 13.636 15.5266V17.1993C13.636 17.6411 13.2778 17.9993 12.836 17.9993H11.1633C10.7215 17.9993 10.3633 17.6411 10.3633 17.1993V15.5266ZM15.5266 14.7266H17.1993C17.6411 14.7266 17.9993 15.0848 17.9993 15.5266V17.1993C17.9993 17.6411 17.6411 17.9993 17.1993 17.9993H15.5266C15.0847 17.9993 14.7266 17.6411 14.7266 17.1993V15.5266C14.7266 15.0848 15.0847 14.7266 15.5266 14.7266Z" fill="black"/>
</svg>
