<svg width="24" height="24" viewBox="0 0 24 24" fill="none" xmlns="http://www.w3.org/2000/svg">
<path d="M0 7.42857V16.5714C0 20.6741 3.32588 24 7.42857 24H16.5714C20.6741 24 24 20.6741 24 16.5714V7.42857C24 3.32588 20.6741 0 16.5714 0H7.42857C3.32588 0 0 3.32588 0 7.42857ZM10.3158 5.81045C10.7516 5.88308 11.046 6.29527 10.9734 6.73108L10.6682 8.56226H14.4934L14.8424 6.46804C14.9151 6.03223 15.3272 5.73781 15.7631 5.81045C16.1989 5.88308 16.4933 6.29527 16.4207 6.73108L16.1155 8.56226H17.9991C18.4409 8.56226 18.7991 8.92043 18.7991 9.36226C18.7991 9.80409 18.4409 10.1623 17.9991 10.1623H15.8488L15.2206 13.9314H17.0519C17.4937 13.9314 17.8519 14.2896 17.8519 14.7314C17.8519 15.1732 17.4937 15.5314 17.0519 15.5314H14.9539L14.6049 17.6258C14.5322 18.0616 14.12 18.3561 13.6842 18.2834C13.2484 18.2108 12.954 17.7986 13.0266 17.3628L13.3319 15.5314H9.50667L9.1576 17.6258C9.08496 18.0616 8.67278 18.3561 8.23697 18.2834C7.80115 18.2108 7.50673 17.7986 7.57937 17.3628L7.8846 15.5314H5.99922C5.55739 15.5314 5.19922 15.1732 5.19922 14.7314C5.19922 14.2896 5.55739 13.9314 5.99922 13.9314H8.15127L8.77946 10.1623H6.94648C6.50466 10.1623 6.14648 9.80409 6.14648 9.36226C6.14648 8.92043 6.50466 8.56226 6.94648 8.56226H9.04612L9.39516 6.46804C9.46779 6.03223 9.87998 5.73781 10.3158 5.81045ZM9.77334 13.9314H13.5985L14.2267 10.1623H10.4015L9.77334 13.9314Z" fill="black"/>
</svg>
