<svg width="24" height="24" viewBox="0 0 24 24" fill="none" xmlns="http://www.w3.org/2000/svg">
<path d="M7.42857 0C3.32588 0 0 3.32588 0 7.42857V16.5714C0 20.6741 3.32588 24 7.42857 24H16.5714C20.6741 24 24 20.6741 24 16.5714V7.42857C24 3.32588 20.6741 0 16.5714 0H7.42857ZM18 10.7279C18 14.3759 12.1071 17.3636 12 17.3636C11.8929 17.3636 6 14.3759 6 10.7279C6 8.9306 7.42 7 9.53571 7C10.7457 7 11.54 7.58629 12 8.10743C12.46 7.58629 13.2543 7 14.4643 7C16.58 7 18 8.9306 18 10.7279Z" fill="black"/>
</svg>
