<svg width="24" height="24" viewBox="0 0 24 24" fill="none" xmlns="http://www.w3.org/2000/svg">
<path d="M7.42857 0C3.32588 0 0 3.32588 0 7.42857V16.5714C0 20.6741 3.32588 24 7.42857 24H16.5714C20.6741 24 24 20.6741 24 16.5714V7.42857C24 3.32588 20.6741 0 16.5714 0H7.42857ZM6.79596 5.73529L18.2665 17.2059C18.5594 17.4988 18.5594 17.9736 18.2665 18.2665C17.9736 18.5594 17.4988 18.5594 17.2059 18.2665L16.3081 17.3688C16.051 17.4405 15.78 17.4788 15.5 17.4788H8.5C6.84315 17.4788 5.5 16.1357 5.5 14.4788V9.64551C5.5 8.7955 5.85351 8.02806 6.42152 7.48218L5.73529 6.79596C5.4424 6.50306 5.4424 6.02819 5.73529 5.73529C6.02819 5.4424 6.50306 5.4424 6.79596 5.73529ZM12.3934 13.4541L7.48261 8.54327C7.18585 8.81732 7 9.20971 7 9.64551V11.593L7.184 11.4002C7.82022 10.774 8.84119 10.7742 9.47718 11.4006L11.4066 13.301C11.6746 13.565 12.074 13.6166 12.3934 13.4541ZM11.53 8.94008C11.7947 8.64083 12.1815 8.45215 12.6124 8.45215C13.4102 8.45215 14.0569 9.09885 14.0569 9.89659C14.0569 10.3275 13.8682 10.7143 13.5689 10.979L11.53 8.94008ZM15.5027 12.4363L17 13.6815V9.64551C17 8.81708 16.3284 8.14551 15.5 8.14551H10.7355L9.23547 6.64551H15.5C17.1569 6.64551 18.5 7.98865 18.5 9.64551V14.4788C18.5 14.9005 18.413 15.3019 18.256 15.666L14.6259 12.036C14.9449 12.0623 15.2566 12.1959 15.5027 12.4363Z" fill="black"/>
</svg>
