<svg width="24" height="24" viewBox="0 0 24 24" fill="none" xmlns="http://www.w3.org/2000/svg">
<path d="M0 7.42857V16.5714C0 20.6741 3.32588 24 7.42857 24H16.5714C20.6741 24 24 20.6741 24 16.5714V7.42857C24 3.32588 20.6741 0 16.5714 0H7.42857C3.32588 0 0 3.32588 0 7.42857ZM7.17514 8.9858L5.46967 7.28033C5.17678 6.98744 5.17678 6.51256 5.46967 6.21967C5.76256 5.92678 6.23744 5.92678 6.53033 6.21967L17.7803 17.4697C18.0732 17.7626 18.0732 18.2374 17.7803 18.5303C17.4874 18.8232 17.0126 18.8232 16.7197 18.5303L14.1268 15.9375H9.6751C8.29439 15.9375 7.1751 14.8182 7.1751 13.4375V9.0001C7.1751 8.99533 7.17511 8.99056 7.17514 8.9858ZM8.4751 10.2858V11.5791L9.12689 10.9376L8.4751 10.2858ZM13.0409 10.6302L12.1128 9.70215L12.1127 9.68582C12.1127 9.16418 12.5355 8.74131 13.0572 8.74131C13.5788 8.74131 14.0017 9.16418 14.0017 9.68582C14.0017 10.2075 13.5788 10.6303 13.0572 10.6303L13.0409 10.6302ZM14.2569 11.8463L14.4171 11.6936C14.8725 11.2596 15.5897 11.264 16.0397 11.7035L17.1999 12.6684V9.0001C17.1999 8.33736 16.6627 7.8001 15.9999 7.8001H10.2108L9.00232 6.59166C9.21638 6.532 9.44201 6.5001 9.6751 6.5001H15.9999C17.3806 6.5001 18.4999 7.61939 18.4999 9.0001V13.4375C18.4999 14.1664 18.1879 14.8225 17.6902 15.2795L14.2569 11.8463ZM5.5 9.88437C5.85898 9.88437 6.15 10.1754 6.15 10.5344V14.8011C6.15 16.099 7.20213 17.1511 8.5 17.1511H12.7668C13.1257 17.1511 13.4168 17.4422 13.4168 17.8011C13.4168 18.1601 13.1257 18.4511 12.7668 18.4511H8.5C6.48416 18.4511 4.85 16.817 4.85 14.8011V10.5344C4.85 10.1754 5.14101 9.88437 5.5 9.88437Z" fill="black"/>
</svg>
