<svg width="24" height="24" viewBox="0 0 24 24" fill="none" xmlns="http://www.w3.org/2000/svg">
<path d="M0.000366211 7.42857V16.5714C0.000366211 20.6741 3.32625 24 7.42894 24H16.5718C20.6745 24 24.0004 20.6741 24.0004 16.5714V7.42857C24.0004 3.32588 20.6745 0 16.5718 0H7.42894C3.32625 0 0.000366211 3.32588 0.000366211 7.42857ZM16 7.8H9.67517C9.01243 7.8 8.47517 8.33726 8.47517 9V11.5786L9.2121 10.8533C9.73424 10.3394 10.5721 10.3396 11.0941 10.8537L12.6776 12.4133C12.9473 12.679 13.3792 12.6825 13.6532 12.4214L14.4166 11.6938C14.8719 11.2598 15.5892 11.2641 16.0392 11.7036L17.2 12.6691V9C17.2 8.33726 16.6627 7.8 16 7.8ZM9.67517 6.5H16C17.3807 6.5 18.5 7.61929 18.5 9V13.4374C18.5 14.8181 17.3807 15.9374 16 15.9374H9.67517C8.29446 15.9374 7.17517 14.8181 7.17517 13.4374V9C7.17517 7.61929 8.29446 6.5 9.67517 6.5ZM6.14998 10.5343V14.801C6.14998 16.0989 7.20211 17.151 8.49997 17.151H12.7667C13.1257 17.151 13.4167 17.4421 13.4167 17.801C13.4167 18.16 13.1257 18.451 12.7667 18.451H8.49997C6.48413 18.451 4.84998 16.8169 4.84998 14.801V10.5343C4.84998 10.1753 5.14099 9.88428 5.49998 9.88428C5.85896 9.88428 6.14998 10.1753 6.14998 10.5343ZM14.0017 9.68597C14.0017 10.2076 13.5788 10.6305 13.0572 10.6305C12.5355 10.6305 12.1127 10.2076 12.1127 9.68597C12.1127 9.16433 12.5355 8.74146 13.0572 8.74146C13.5788 8.74146 14.0017 9.16433 14.0017 9.68597Z" fill="black"/>
</svg>
