<svg width="24" height="24" viewBox="0 0 24 24" fill="none" xmlns="http://www.w3.org/2000/svg">
<path d="M0 7.42857C0 3.32589 3.32588 0 7.42857 0H16.5714C20.6741 0 24 3.32589 24 7.42857V16.5714C24 20.6741 20.6741 24 16.5714 24H7.42857C3.32588 24 0 20.6741 0 16.5714V7.42857ZM10 10.8888C10 11.3858 10.4029 11.7888 10.9 11.7888H11.2222V16.0999H11.2056C10.7085 16.0999 10.3056 16.5028 10.3056 16.9999C10.3056 17.4969 10.7085 17.8999 11.2056 17.8999H13.0389C13.5359 17.8999 13.9389 17.4969 13.9389 16.9999C13.9389 16.5028 13.5359 16.0999 13.0389 16.0999H13.0222V10.8888C13.0222 10.3917 12.6193 9.98877 12.1222 9.98877H10.9C10.4029 9.98877 10 10.3917 10 10.8888ZM10.5957 7.22222C10.5957 7.89689 11.1433 8.44444 11.818 8.44444C12.4926 8.44444 13.0402 7.89689 13.0402 7.22222C13.0402 6.54756 12.4926 6 11.8131 6C11.1384 6 10.5908 6.54756 10.5957 7.22222Z" fill="black"/>
</svg>
