<svg width="24" height="24" viewBox="0 0 24 24" fill="none" xmlns="http://www.w3.org/2000/svg">
<path d="M7.42857 0C3.32588 0 0 3.32588 0 7.42857V16.5714C0 20.6741 3.32588 24 7.42857 24H16.5714C20.6741 24 24 20.6741 24 16.5714V7.42857C24 3.32588 20.6741 0 16.5714 0H7.42857ZM10.1494 5.90002H17.5893C18.1029 5.90002 18.5192 6.31638 18.5192 6.82997C18.5192 7.34356 18.1029 7.75991 17.5893 7.75991H14.8101L11.2318 16.1301H13.8698C14.3834 16.1301 14.7997 16.5465 14.7997 17.0601C14.7997 17.5737 14.3834 17.99 13.8698 17.99H6.42995C5.91635 17.99 5.5 17.5737 5.5 17.0601C5.5 16.5465 5.91635 16.1301 6.42995 16.1301H9.20913L12.7874 7.75991H10.1494C9.63585 7.75991 9.2195 7.34356 9.2195 6.82997C9.2195 6.31638 9.63585 5.90002 10.1494 5.90002Z" fill="black"/>
</svg>
