<svg width="24" height="24" viewBox="0 0 24 24" fill="none" xmlns="http://www.w3.org/2000/svg">
<path d="M7.09961 9.50007V10.3001C7.09961 10.4658 7.23392 10.6001 7.39961 10.6001H8.19961C8.3653 10.6001 8.49961 10.4658 8.49961 10.3001V9.50007C8.49961 9.33439 8.3653 9.20007 8.19961 9.20007H7.39961C7.23392 9.20007 7.09961 9.33439 7.09961 9.50007Z" fill="black"/>
<path d="M7.39961 11.3002C7.23392 11.3002 7.09961 11.4345 7.09961 11.6002V12.4002C7.09961 12.5659 7.23392 12.7002 7.39961 12.7002H8.19961C8.3653 12.7002 8.49961 12.5659 8.49961 12.4002V11.6002C8.49961 11.4345 8.3653 11.3002 8.19961 11.3002H7.39961Z" fill="black"/>
<path d="M9.90039 9.50007V10.3001C9.90039 10.4658 10.0347 10.6001 10.2004 10.6001H11.0004C11.1661 10.6001 11.3004 10.4658 11.3004 10.3001V9.50007C11.3004 9.33439 11.1661 9.20007 11.0004 9.20007H10.2004C10.0347 9.20007 9.90039 9.33439 9.90039 9.50007Z" fill="black"/>
<path d="M10.2004 11.3002C10.0347 11.3002 9.90039 11.4345 9.90039 11.6002V12.4002C9.90039 12.5659 10.0347 12.7002 10.2004 12.7002H11.0004C11.1661 12.7002 11.3004 12.5659 11.3004 12.4002V11.6002C11.3004 11.4345 11.1661 11.3002 11.0004 11.3002H10.2004Z" fill="black"/>
<path d="M12.6992 9.50007V10.3001C12.6992 10.4658 12.8335 10.6001 12.9992 10.6001H13.7992C13.9649 10.6001 14.0992 10.4658 14.0992 10.3001V9.50007C14.0992 9.33439 13.9649 9.20007 13.7992 9.20007H12.9992C12.8335 9.20007 12.6992 9.33439 12.6992 9.50007Z" fill="black"/>
<path d="M12.9992 11.3002C12.8335 11.3002 12.6992 11.4345 12.6992 11.6002V12.4002C12.6992 12.5659 12.8335 12.7002 12.9992 12.7002H13.7992C13.9649 12.7002 14.0992 12.5659 14.0992 12.4002V11.6002C14.0992 11.4345 13.9649 11.3002 13.7992 11.3002H12.9992Z" fill="black"/>
<path d="M15.5 9.50007V10.3001C15.5 10.4658 15.6343 10.6001 15.8 10.6001H16.6C16.7657 10.6001 16.9 10.4658 16.9 10.3001V9.50007C16.9 9.33439 16.7657 9.20007 16.6 9.20007H15.8C15.6343 9.20007 15.5 9.33439 15.5 9.50007Z" fill="black"/>
<path d="M15.8 11.3002C15.6343 11.3002 15.5 11.4345 15.5 11.6002V12.4002C15.5 12.5659 15.6343 12.7002 15.8 12.7002H16.6C16.7657 12.7002 16.9 12.5659 16.9 12.4002V11.6002C16.9 11.4345 16.7657 11.3002 16.6 11.3002H15.8Z" fill="black"/>
<path d="M7.84961 14.6C7.84961 14.9589 8.14062 15.25 8.49961 15.25H15.4996C15.8586 15.25 16.1496 14.9589 16.1496 14.6C16.1496 14.241 15.8586 13.95 15.4996 13.95H8.49961C8.14062 13.95 7.84961 14.241 7.84961 14.6Z" fill="black"/>
<path d="M7.42857 0C3.32588 0 0 3.32588 0 7.42857V16.5714C0 20.6741 3.32588 24 7.42857 24H16.5714C20.6741 24 24 20.6741 24 16.5714V7.42857C24 3.32588 20.6741 0 16.5714 0H7.42857ZM5 9.09998C5 7.99541 5.89543 7.09998 7 7.09998H17C18.1046 7.09998 19 7.99541 19 9.09998V14.9C19 16.0045 18.1046 16.9 17 16.9H7C5.89543 16.9 5 16.0045 5 14.9V9.09998Z" fill="black"/>
</svg>
