<svg width="24" height="24" viewBox="0 0 24 24" fill="none" xmlns="http://www.w3.org/2000/svg">
<path d="M7.42857 0C3.32588 0 0 3.32588 0 7.42857V16.5714C0 20.6741 3.32588 24 7.42857 24H16.5714C20.6741 24 24 20.6741 24 16.5714V7.42857C24 3.32588 20.6741 0 16.5714 0H7.42857ZM16.4508 13.6989V8.40997C16.4508 8.13383 16.2269 7.90997 15.9508 7.90997H8.05078C7.77464 7.90997 7.55078 8.13383 7.55078 8.40997V13.6989H16.4508ZM6.05078 13.7V8.40997C6.05078 7.3054 6.94621 6.40997 8.05078 6.40997H15.9508C17.0553 6.40997 17.9508 7.3054 17.9508 8.40997V13.7H18.7C18.8657 13.7 19 13.8343 19 14V15.5889C19 16.6935 18.1046 17.5889 17 17.5889H7C5.89543 17.5889 5 16.6935 5 15.5889V14C5 13.8343 5.13431 13.7 5.3 13.7H6.05078ZM17 16.0889H7C6.72386 16.0889 6.5 15.865 6.5 15.5889V15.2H9.75624C9.82584 15.3924 10.0101 15.5299 10.2266 15.5299H13.7732C13.9896 15.5299 14.1739 15.3924 14.2435 15.2H17.5V15.5889C17.5 15.865 17.2761 16.0889 17 16.0889Z" fill="black"/>
</svg>
