<svg width="24" height="24" viewBox="0 0 24 24" fill="none" xmlns="http://www.w3.org/2000/svg">
<path d="M7.42857 0C3.32588 0 0 3.32588 0 7.42857V16.5714C0 20.6741 3.32588 24 7.42857 24H16.5714C20.6741 24 24 20.6741 24 16.5714V7.42857C24 3.32588 20.6741 0 16.5714 0H7.42857ZM11.7586 6.58274C11.9087 6.50021 12.0905 6.50021 12.2406 6.58274L17.203 9.3121C17.5484 9.50206 17.5484 9.99835 17.203 10.1883L12.2405 12.9177C12.0905 13.0002 11.9087 13.0002 11.7586 12.9177L6.79615 10.1883C6.45076 9.99835 6.45076 9.50206 6.79615 9.3121L11.7586 6.58274ZM6.01798 14.5599C6.17853 14.2388 6.56896 14.1087 6.89005 14.2692L11.9994 16.8239L17.1087 14.2692C17.4298 14.1087 17.8202 14.2388 17.9807 14.5599C18.1413 14.881 18.0111 15.2714 17.6901 15.432L12.2901 18.132C12.1071 18.2235 11.8917 18.2235 11.7087 18.132L6.30867 15.432C5.98759 15.2714 5.85744 14.881 6.01798 14.5599ZM6.89005 11.6686L11.9994 14.2233L17.1087 11.6686C17.4298 11.5081 17.8202 11.6382 17.9807 11.9593C18.1413 12.2804 18.0111 12.6708 17.6901 12.8314L12.2901 15.5314C12.1071 15.6229 11.8917 15.6229 11.7087 15.5314L6.30867 12.8314C5.98759 12.6708 5.85744 12.2804 6.01798 11.9593C6.17853 11.6382 6.56896 11.5081 6.89005 11.6686Z" fill="black"/>
</svg>
