<svg width="24" height="24" viewBox="0 0 24 24" fill="none" xmlns="http://www.w3.org/2000/svg">
<path d="M7.42857 0C3.32588 0 0 3.32588 0 7.42857V16.5714C0 20.6741 3.32589 24 7.42857 24H16.5714C20.6741 24 24 20.6741 24 16.5714V7.42857C24 3.32588 20.6741 0 16.5714 0H7.42857ZM14.5767 16.6783L8.17668 12.6783C7.94277 12.5322 7.80067 12.2758 7.80067 11.9999C7.80067 11.7241 7.94277 11.4677 8.17668 11.3215L14.5767 7.32154C14.9513 7.08737 15.4449 7.20127 15.6791 7.57594C15.9132 7.95061 15.7993 8.44417 15.4247 8.67834L10.1101 11.9999L15.4247 15.3215C15.7993 15.5557 15.9132 16.0493 15.6791 16.4239C15.4449 16.7986 14.9513 16.9125 14.5767 16.6783Z" fill="black"/>
</svg>
