<svg width="24" height="24" viewBox="0 0 24 24" fill="none" xmlns="http://www.w3.org/2000/svg">
<path d="M7.42857 0C3.32588 0 0 3.32588 0 7.42857V16.5714C0 20.6741 3.32588 24 7.42857 24H16.5714C20.6741 24 24 20.6741 24 16.5714V7.42857C24 3.32588 20.6741 0 16.5714 0H7.42857ZM12 19C8.13401 19 5 15.866 5 12C5 8.13401 8.13401 5 12 5C15.866 5 19 8.13401 19 12C19 15.866 15.866 19 12 19ZM12 14.5C13.3807 14.5 14.5 13.3807 14.5 12C14.5 10.6193 13.3807 9.5 12 9.5C10.6193 9.5 9.5 10.6193 9.5 12C9.5 13.3807 10.6193 14.5 12 14.5ZM9.7467 9.74669C10.0005 9.49285 10.0005 9.08129 9.74668 8.82746L9.45958 8.54037L8.88538 7.9662L8.59828 7.67911C8.34443 7.42528 7.93288 7.42529 7.67904 7.67913C7.42521 7.93298 7.42522 8.34454 7.67906 8.59837L7.96616 8.88546L8.54036 9.45963L8.82746 9.74672C9.08131 10.0006 9.49286 10.0005 9.7467 9.74669ZM16.3209 16.3209C16.5747 16.067 16.5747 15.6555 16.3209 15.4016L16.0338 15.1146L15.4596 14.5404L15.1725 14.2533C14.9186 13.9995 14.5071 13.9995 14.2532 14.2533C13.9994 14.5072 13.9994 14.9187 14.2533 15.1726L14.5404 15.4596L15.1146 16.0338L15.4017 16.3209C15.6555 16.5747 16.0671 16.5747 16.3209 16.3209ZM16.3209 8.59836C16.5748 8.34452 16.5748 7.93297 16.3209 7.67912C16.0671 7.42527 15.6555 7.42526 15.4017 7.6791L15.1146 7.96618L14.5404 8.54035L14.2533 8.82744C13.9994 9.08127 13.9994 9.49283 14.2533 9.74668C14.5071 10.0005 14.9187 10.0005 15.1725 9.7467L15.4596 9.45962L16.0338 8.88544L16.3209 8.59836ZM8.82755 14.2533L8.54045 14.5404L7.96625 15.1145L7.67915 15.4016C7.42531 15.6555 7.4253 16.067 7.67913 16.3209C7.93297 16.5747 8.34452 16.5747 8.59837 16.3209L8.88547 16.0338L9.45967 15.4596L9.74677 15.1725C10.0006 14.9187 10.0006 14.5072 9.74679 14.2533C9.49296 13.9995 9.0814 13.9994 8.82755 14.2533Z" fill="black"/>
</svg>
