<svg width="24" height="24" viewBox="0 0 24 24" fill="none" xmlns="http://www.w3.org/2000/svg">
<path d="M7.42857 0C3.32588 0 0 3.32588 0 7.42857V16.5714C0 20.6741 3.32588 24 7.42857 24H16.5714C20.6741 24 24 20.6741 24 16.5714V7.42857C24 3.32588 20.6741 0 16.5714 0H7.42857ZM17.2576 6.74436C18.633 8.11973 18.6523 10.3436 17.301 11.7427L17.2914 11.7527L15.632 13.4119C14.9006 14.1435 13.8875 14.5215 12.8556 14.4476C11.8237 14.3737 10.8748 13.8552 10.2551 13.0268C9.99045 12.673 10.0627 12.1716 10.4165 11.907C10.7703 11.6424 11.2717 11.7146 11.5363 12.0684C11.8779 12.5251 12.401 12.8109 12.9699 12.8517C13.5388 12.8924 14.0973 12.6841 14.5005 12.2807L16.1546 10.6266C16.8951 9.85505 16.8829 8.63243 16.1262 7.87573C15.3693 7.11877 14.1461 7.10691 13.3746 7.84811L12.4277 8.78953C12.1144 9.10103 11.6078 9.09956 11.2963 8.78623C10.9848 8.4729 10.9863 7.96637 11.2996 7.65486L12.2593 6.70092C13.6583 5.34965 15.8822 5.36898 17.2576 6.74436ZM11.1475 9.54116C12.1794 9.61506 13.1284 10.1335 13.748 10.9619C14.0127 11.3157 13.9404 11.8171 13.5866 12.0817C13.2328 12.3464 12.7315 12.2741 12.4668 11.9203C12.1252 11.4636 11.6021 11.1778 11.0332 11.1371C10.4644 11.0963 9.90587 11.3047 9.50267 11.708L7.84853 13.3622C7.10808 14.1337 7.12018 15.3563 7.87689 16.113C8.63359 16.8697 9.85619 16.8818 10.6277 16.1414L11.5682 15.2009C11.8807 14.8884 12.3872 14.8884 12.6996 15.2009C13.012 15.5133 13.012 16.0198 12.6996 16.3322L11.7439 17.2879C10.3449 18.6392 8.12089 18.6198 6.74552 17.2444C5.37014 15.869 5.35081 13.6451 6.70208 12.246L6.71174 12.236L8.3712 10.5768C9.10259 9.84515 10.1157 9.46726 11.1475 9.54116Z" fill="black"/>
</svg>
