<svg width="24" height="24" viewBox="0 0 24 24" fill="none" xmlns="http://www.w3.org/2000/svg">
<path d="M0 7.42857V16.5714C0 20.6741 3.32588 24 7.42857 24H16.5714C20.6741 24 24 20.6741 24 16.5714V7.42857C24 3.32588 20.6741 0 16.5714 0H7.42857C3.32588 0 0 3.32588 0 7.42857ZM9.11114 7.90005C9.11114 7.56868 9.37977 7.30005 9.71114 7.30005H17.9C18.2314 7.30005 18.5 7.56868 18.5 7.90005V8.86672C18.5 9.19809 18.2314 9.46672 17.9 9.46672H9.71114C9.37977 9.46672 9.11114 9.19809 9.11114 8.86672V7.90005ZM6.58333 7.30005C7.18164 7.30005 7.66667 7.78507 7.66667 8.38338C7.66667 8.98169 7.18164 9.46672 6.58333 9.46672C5.98502 9.46672 5.5 8.98169 5.5 8.38338C5.5 7.78507 5.98502 7.30005 6.58333 7.30005ZM9.11108 11.5111C9.11108 11.1797 9.37971 10.9111 9.71108 10.9111H17.9C18.2313 10.9111 18.5 11.1797 18.5 11.5111V12.4778C18.5 12.8091 18.2313 13.0778 17.9 13.0778H9.71108C9.37971 13.0778 9.11108 12.8091 9.11108 12.4778V11.5111ZM6.58333 10.9111C7.18164 10.9111 7.66667 11.3961 7.66667 11.9944C7.66667 12.5927 7.18164 13.0778 6.58333 13.0778C5.98502 13.0778 5.5 12.5927 5.5 11.9944C5.5 11.3961 5.98502 10.9111 6.58333 10.9111ZM9.11108 15.1222C9.11108 14.7908 9.37971 14.5222 9.71108 14.5222H17.9C18.2313 14.5222 18.5 14.7908 18.5 15.1222V16.0889C18.5 16.4203 18.2313 16.6889 17.9 16.6889H9.71108C9.37971 16.6889 9.11108 16.4203 9.11108 16.0889V15.1222ZM6.58333 14.5222C7.18164 14.5222 7.66667 15.0072 7.66667 15.6055C7.66667 16.2039 7.18164 16.6889 6.58333 16.6889C5.98502 16.6889 5.5 16.2039 5.5 15.6055C5.5 15.0072 5.98502 14.5222 6.58333 14.5222Z" fill="black"/>
</svg>
