<svg width="24" height="24" viewBox="0 0 24 24" fill="none" xmlns="http://www.w3.org/2000/svg">
<path d="M7.42857 0C3.32588 0 0 3.32588 0 7.42857V16.5714C0 20.6741 3.32588 24 7.42857 24H16.5714C20.6741 24 24 20.6741 24 16.5714V7.42857C24 3.32588 20.6741 0 16.5714 0H7.42857ZM17.4147 7.25012L12.8465 17.0075C12.6647 17.3957 12.1108 17.3903 11.9367 16.9986L10.4963 13.7576C10.446 13.6444 10.3556 13.554 10.2424 13.5037L7.00141 12.0633C6.60975 11.8892 6.60431 11.3353 6.99248 11.1535L16.7499 6.58528C17.1733 6.38703 17.613 6.82666 17.4147 7.25012Z" fill="black"/>
</svg>
