<svg width="24" height="24" viewBox="0 0 24 24" fill="none" xmlns="http://www.w3.org/2000/svg">
<path d="M7.42857 0C3.32588 0 0 3.32588 0 7.42857V16.5714C0 20.6741 3.32588 24 7.42857 24H16.5714C20.6741 24 24 20.6741 24 16.5714V7.42857C24 3.32588 20.6741 0 16.5714 0H7.42857ZM8.90002 8.42148C8.90002 6.7252 10.2751 5.3501 11.9714 5.3501C13.6677 5.3501 15.0428 6.7252 15.0428 8.42148V9.45898H15.0618C16.3363 9.45898 17.3696 10.4922 17.3696 11.7668V15.6133C17.3696 16.8879 16.3363 17.9211 15.0618 17.9211H8.90747C7.63287 17.9211 6.59961 16.8879 6.59961 15.6133V11.7668C6.59961 10.4947 7.62885 9.46301 8.90002 9.459V8.42148ZM13.7428 8.42148C13.7428 7.44317 12.9497 6.6501 11.9714 6.6501C10.9931 6.6501 10.2 7.44317 10.2 8.42148V9.45898H13.7428V8.42148Z" fill="black"/>
</svg>
