<svg width="24" height="24" viewBox="0 0 24 24" fill="none" xmlns="http://www.w3.org/2000/svg">
<path d="M7.42857 0C3.32588 0 0 3.32588 0 7.42857V16.5714C0 20.6741 3.32588 24 7.42857 24H16.5714C20.6741 24 24 20.6741 24 16.5714V7.42857C24 3.32588 20.6741 0 16.5714 0H7.42857ZM8.91956 8.00735C8.91956 6.53979 10.1092 5.3501 11.5768 5.3501H11.9966C13.6959 5.3501 15.0736 6.72772 15.0736 8.4271V9.88844V9.88916H15.0857C16.3638 9.88916 17.4 10.8795 17.4 12.1012V15.788C17.4 17.0097 16.3638 18.0001 15.0857 18.0001H8.91426C7.63612 18.0001 6.59998 17.0097 6.59998 15.788V12.1012C6.59998 10.8795 7.63612 9.88916 8.91426 9.88916H13.7736V9.88844V8.4271C13.7736 7.44569 12.978 6.6501 11.9966 6.6501H11.5768C10.8272 6.6501 10.2196 7.25776 10.2196 8.00735C10.2196 8.36634 9.92854 8.65735 9.56956 8.65735C9.21057 8.65735 8.91956 8.36634 8.91956 8.00735Z" fill="black"/>
</svg>
