<svg width="24" height="24" viewBox="0 0 24 24" fill="none" xmlns="http://www.w3.org/2000/svg">
<path d="M7.42857 0C3.32588 0 0 3.32588 0 7.42857V16.5714C0 20.6741 3.32588 24 7.42857 24H16.5714C20.6741 24 24 20.6741 24 16.5714V7.42857C24 3.32588 20.6741 0 16.5714 0H7.42857ZM8.89999 8.42148C8.89999 6.7252 10.2751 5.3501 11.9714 5.3501C13.6676 5.3501 15.0427 6.7252 15.0427 8.42148V9.45908H15.0618C16.3363 9.45908 17.3696 10.4923 17.3696 11.7669V15.6134C17.3696 16.888 16.3363 17.9212 15.0618 17.9212H8.90747C7.63287 17.9212 6.59961 16.888 6.59961 15.6134V11.7669C6.59961 10.4948 7.62883 9.46313 8.89999 9.45909V8.42148ZM13.7427 8.42148C13.7427 7.44317 12.9497 6.6501 11.9714 6.6501C10.9931 6.6501 10.2 7.44317 10.2 8.42148V9.45908H13.7427V8.42148ZM11.9746 12.0001C11.4914 12.0001 11.0996 12.3918 11.0996 12.8751V14.1251C11.0996 14.6083 11.4914 15.0001 11.9746 15.0001C12.4579 15.0001 12.8496 14.6083 12.8496 14.1251V12.8751C12.8496 12.3918 12.4579 12.0001 11.9746 12.0001Z" fill="black"/>
</svg>
