<svg width="24" height="24" viewBox="0 0 24 24" fill="none" xmlns="http://www.w3.org/2000/svg">
<path d="M7.42857 0C3.32588 0 0 3.32588 0 7.42857V16.5714C0 20.6741 3.32588 24 7.42857 24H16.5714C20.6741 24 24 20.6741 24 16.5714V7.42857C24 3.32588 20.6741 0 16.5714 0H7.42857ZM8.91974 8.00735C8.91974 6.53979 10.1094 5.3501 11.577 5.3501H11.9967C13.6961 5.3501 15.0737 6.72772 15.0737 8.4271V9.88844V9.88916H15.0857C16.3638 9.88916 17.4 10.8795 17.4 12.1012V15.788C17.4 17.0097 16.3638 18.0001 15.0857 18.0001H8.91426C7.63612 18.0001 6.59998 17.0097 6.59998 15.788V12.1012C6.59998 10.8795 7.63612 9.88916 8.91426 9.88916H13.7737V9.88844V8.4271C13.7737 7.44569 12.9781 6.6501 11.9967 6.6501H11.577C10.8274 6.6501 10.2197 7.25776 10.2197 8.00735C10.2197 8.36634 9.92872 8.65735 9.56974 8.65735C9.21075 8.65735 8.91974 8.36634 8.91974 8.00735ZM11.975 12.6001C11.4917 12.6001 11.1 12.9918 11.1 13.4751V14.7251C11.1 15.2083 11.4917 15.6001 11.975 15.6001C12.4582 15.6001 12.85 15.2083 12.85 14.7251V13.4751C12.85 12.9918 12.4582 12.6001 11.975 12.6001Z" fill="black"/>
</svg>
