<svg width="24" height="24" viewBox="0 0 24 24" fill="none" xmlns="http://www.w3.org/2000/svg">
<path d="M7.42857 0C3.32588 0 0 3.32588 0 7.42857V16.5714C0 20.6741 3.32588 24 7.42857 24H16.5714C20.6741 24 24 20.6741 24 16.5714V7.42857C24 3.32588 20.6741 0 16.5714 0H7.42857ZM11.6146 17.853C10.5605 16.8662 7.59998 13.8455 7.59998 11.0442C7.59998 8.5345 9.56181 6.5 11.9819 6.5C14.4019 6.5 16.3638 8.5345 16.3638 11.0442C16.3638 13.8455 13.4033 16.8662 12.3491 17.853C12.1397 18.049 11.824 18.049 11.6146 17.853Z" fill="black"/>
</svg>
