<svg width="24" height="24" viewBox="0 0 24 24" fill="none" xmlns="http://www.w3.org/2000/svg">
<path d="M7 0C3.13401 0 0 3.13401 0 7V17C0 20.866 3.13401 24 7 24H17C20.866 24 24 20.866 24 17V7C24 3.13401 20.866 0 17 0H7ZM15.4354 6.54563L15.5309 6.6364L18.003 9.13611C18.0448 9.17836 18.0792 9.2251 18.1063 9.27472C18.1664 9.36595 18.2018 9.47603 18.2018 9.59451V15.7091C18.2018 16.9743 17.1923 18 15.9469 18H8.05491C6.80958 18 5.80005 16.9743 5.80005 15.7091V9.59451C5.80005 9.47997 5.83314 9.37328 5.89015 9.28377C5.90351 9.25725 5.91959 9.23136 5.93778 9.20648L5.98373 9.15075L8.26564 6.68697C8.64223 6.28036 9.16151 6.03655 9.71281 6.00379L9.84056 6H14.0043C14.5341 6 15.0435 6.19535 15.4354 6.54563ZM9.84056 7.23451C9.62013 7.23451 9.40848 7.3148 9.24462 7.45839L9.17743 7.52375L7.78905 9.0216L10.1636 9.02178V12.6493C10.1636 12.7138 10.185 12.7763 10.2244 12.8269C10.3102 12.9372 10.4598 12.9661 10.5777 12.9023L10.6203 12.874L11.6513 12.0459C11.8358 11.8978 12.0886 11.883 12.2867 12.0015L12.3505 12.0459L13.3816 12.874C13.4313 12.9139 13.4929 12.9357 13.5564 12.9357C13.6947 12.9357 13.8098 12.8344 13.8337 12.7008L13.8382 12.6493V9.02178L16.149 9.0216L14.6471 7.50246C14.4987 7.35247 14.3029 7.25981 14.0944 7.23899L14.0043 7.23451H9.84056Z" fill="black"/>
</svg>
