<svg width="24" height="24" viewBox="0 0 24 24" fill="none" xmlns="http://www.w3.org/2000/svg">
<path d="M16.5714 24C20.6741 24 24 20.6741 24 16.5714V7.42857C24 3.32589 20.6741 0 16.5714 0H7.42857C3.32588 0 0 3.32589 0 7.42857V16.5714C0 20.6741 3.32588 24 7.42857 24H16.5714ZM5 7.78027C5 6.6757 5.89543 5.78028 7 5.78028H17C18.1046 5.78028 19 6.67571 19 7.78028V16.2247C19 17.3293 18.1046 18.2247 17 18.2247H7C5.89543 18.2247 5 17.3293 5 16.2247V7.78027ZM6.55554 8.12461V9.65794C6.55554 9.87886 6.73463 10.0579 6.95554 10.0579H17.0444C17.2653 10.0579 17.4444 9.87886 17.4444 9.65794V8.12461C17.4444 7.9037 17.2653 7.72461 17.0444 7.72461H6.95554C6.73463 7.72461 6.55554 7.9037 6.55554 8.12461Z" fill="black"/>
</svg>
