<svg width="24" height="24" viewBox="0 0 24 24" fill="none" xmlns="http://www.w3.org/2000/svg">
<path d="M7.42857 0C3.32588 0 0 3.32588 0 7.42857V16.5714C0 20.6741 3.32588 24 7.42857 24H16.5714C20.6741 24 24 20.6741 24 16.5714V7.42857C24 3.32588 20.6741 0 16.5714 0H7.42857ZM7.46532 5.54653L18.257 16.6299C18.5074 16.8871 18.5019 17.2986 18.2447 17.549C17.9875 17.7994 17.576 17.794 17.3256 17.5368L14.7653 14.9073C14.1667 15.3846 13.442 15.7103 12.6492 15.8266V17.1H14.5265C14.8854 17.1 15.1765 17.391 15.1765 17.75C15.1765 18.109 14.8854 18.4 14.5265 18.4H9.47383C9.11484 18.4 8.82383 18.109 8.82383 17.75C8.82383 17.391 9.11484 17.1 9.47383 17.1H11.3492V15.8265C9.20569 15.5118 7.56016 13.6652 7.56016 11.4343V10.8027C7.56016 10.4437 7.85117 10.1527 8.21016 10.1527C8.56914 10.1527 8.86016 10.4437 8.86016 10.8027V11.4343C8.86016 13.1682 10.2657 14.5738 11.9996 14.5738C12.6924 14.5738 13.3328 14.3494 13.852 13.9693L13.0379 13.1332C12.7204 13.3399 12.3414 13.46 11.9344 13.46C10.816 13.46 9.90938 12.5534 9.90938 11.435V9.92013L6.5339 6.45343C6.28347 6.19622 6.28896 5.7847 6.54616 5.53427C6.80336 5.28384 7.21488 5.28932 7.46532 5.54653ZM15.135 11.5966C15.1377 11.5429 15.1391 11.4887 15.1391 11.4343V10.8027C15.1391 10.4437 15.4301 10.1527 15.7891 10.1527C16.1481 10.1527 16.4391 10.4437 16.4391 10.8027V11.4343C16.4391 11.8875 16.3712 12.3248 16.245 12.7367L15.135 11.5966ZM10.5045 6.84104C10.8708 6.47579 11.3762 6.24998 11.9344 6.24998C13.0528 6.24998 13.9594 7.1566 13.9594 8.27498V10.3893L10.5045 6.84104Z" fill="black"/>
</svg>
