<svg width="24" height="24" viewBox="0 0 24 24" fill="none" xmlns="http://www.w3.org/2000/svg">
<path d="M16.5714 24C20.6741 24 24 20.6741 24 16.5714V7.42857C24 3.32588 20.6741 0 16.5714 0H7.42857C3.32588 0 0 3.32588 0 7.42857V16.5714C0 20.6741 3.32588 24 7.42857 24H16.5714ZM15.0492 15.5V7C15.0492 6.72386 14.8254 6.5 14.5492 6.5H9.44922C9.17308 6.5 8.94922 6.72386 8.94922 7V15.5H15.0492ZM14.5492 19H9.44922C8.34465 19 7.44922 18.1046 7.44922 17V7C7.44922 5.89543 8.34465 5 9.44922 5H14.5492C15.6538 5 16.5492 5.89543 16.5492 7V17C16.5492 18.1046 15.6538 19 14.5492 19ZM10.4547 17.1094C10.4547 17.4407 10.7233 17.7094 11.0547 17.7094H12.9447C13.2761 17.7094 13.5447 17.4407 13.5447 17.1094C13.5447 16.778 13.2761 16.5094 12.9447 16.5094H11.0547C10.7233 16.5094 10.4547 16.778 10.4547 17.1094Z" fill="black"/>
</svg>
