<svg width="24" height="24" viewBox="0 0 24 24" fill="none" xmlns="http://www.w3.org/2000/svg">
<path d="M24 7.42857V16.5714C24 20.6741 20.6741 24 16.5714 24H7.42857C3.32588 24 -1.90735e-06 20.6741 -1.90735e-06 16.5714V7.42857C-1.90735e-06 3.32588 3.32588 0 7.42857 0H16.5714C20.6741 0 24 3.32588 24 7.42857ZM8.30859 17C8.30859 17.4419 8.66677 17.8 9.10859 17.8H14.8229C15.2647 17.8 15.6229 17.4419 15.6229 17C15.6229 16.5582 15.2647 16.2 14.8229 16.2H9.10859C8.66677 16.2 8.30859 16.5582 8.30859 17ZM9.5327 14.8215L15.247 11.2501C15.4809 11.1039 15.623 10.8475 15.623 10.5717C15.623 10.2959 15.4809 10.0395 15.247 9.89329L9.5327 6.32186C9.15803 6.08769 8.66447 6.20159 8.4303 6.57626C8.19613 6.95093 8.31003 7.44449 8.6847 7.67866L13.3135 10.5717L8.6847 13.4647C8.31003 13.6989 8.19613 14.1924 8.4303 14.5671C8.66447 14.9418 9.15803 15.0557 9.5327 14.8215Z" fill="black"/>
</svg>
