<svg width="24" height="24" viewBox="0 0 24 24" fill="none" xmlns="http://www.w3.org/2000/svg">
<path d="M7.42857 0C3.32588 0 0 3.32588 0 7.42857V16.5714C0 20.6741 3.32588 24 7.42857 24H16.5714C20.6741 24 24 20.6741 24 16.5714V7.42857C24 3.32588 20.6741 0 16.5714 0H7.42857ZM8.35407 6.25878L15.8947 10.1851C16.6233 10.5644 16.6091 11.6117 15.8705 11.9712L13.9893 12.8868L16.5572 16.1941C16.8961 16.6306 16.8167 17.2593 16.3798 17.5978L16.1858 17.7482C15.7611 18.0786 15.1489 18.0018 14.8189 17.5768L12.224 14.2339L10.8852 15.7744C10.3513 16.3888 9.34615 16.1419 9.15764 15.35L7.20636 7.15363C7.04762 6.48685 7.74612 5.94223 8.35407 6.25878Z" fill="black"/>
</svg>
