<svg width="24" height="24" viewBox="0 0 24 24" fill="none" xmlns="http://www.w3.org/2000/svg">
<path d="M24 7.42857C24 3.32588 20.6741 0 16.5714 0H7.42857C3.32588 0 0 3.32588 0 7.42857V16.5714C0 20.6741 3.32588 24 7.42857 24H16.5714C20.6741 24 24 20.6741 24 16.5714V7.42857ZM17.4359 8.04322C17.4359 8.09256 17.4299 8.14051 17.4187 8.18639C17.4099 8.41011 17.2719 8.61841 17.0504 8.70606L12.335 9.91416V16.1444C12.335 16.1877 12.3305 16.23 12.3217 16.2707C12.3396 16.9743 12.08 17.6835 11.5431 18.2205C10.5038 19.2598 8.81878 19.2598 7.77948 18.2205C6.74018 17.1812 6.74018 15.4961 7.77948 14.4568C8.69163 13.5447 10.1012 13.4331 11.135 14.1221V7.43576C11.135 6.81915 11.5155 6.2652 12.0938 6.04613C12.1313 6.0319 12.1702 6.02149 12.2098 6.01503L15.4835 5.48128C16.4388 5.16424 17.4359 5.87556 17.4359 6.89338V8.04322Z" fill="black"/>
</svg>
