<svg width="24" height="24" viewBox="0 0 24 24" fill="none" xmlns="http://www.w3.org/2000/svg">
<path d="M16.5714 0H7.42857C3.32588 0 0 3.32588 0 7.42857V16.5714C0 20.6741 3.32588 24 7.42857 24H16.5714C20.6741 24 24 20.6741 24 16.5714V7.42857C24 3.32588 20.6741 0 16.5714 0ZM17.4376 14.3324C17.4934 14.9287 17.2931 15.5444 16.8365 16.0009C16.0229 16.8145 14.7038 16.8145 13.8902 16.0009C13.0766 15.1873 13.0766 13.8682 13.8902 13.0547C14.525 12.4199 15.4675 12.2804 16.2376 12.6361V9.28703L10.1459 11.7237V15.6224C10.2348 16.2488 10.0383 16.908 9.55648 17.3899C8.74289 18.2034 7.42379 18.2034 6.6102 17.3899C5.7966 16.5763 5.7966 15.2572 6.6102 14.4436C7.24179 13.812 8.17801 13.6707 8.9459 14.0197V8.9472C8.9459 8.41074 9.27683 7.92861 9.77999 7.73772L15.682 5.48941C16.5301 5.16598 17.4376 5.79282 17.4376 6.69858V14.3324Z" fill="black"/>
</svg>
