<svg width="24" height="24" viewBox="0 0 24 24" fill="none" xmlns="http://www.w3.org/2000/svg">
<path d="M24 7.42857C24 3.32588 20.6741 0 16.5714 0H7.42857C3.32588 0 0 3.32588 0 7.42857V16.5714C0 20.6741 3.32588 24 7.42857 24H16.5714C20.6741 24 24 20.6741 24 16.5714V7.42857ZM17.4187 7.18621C17.4099 7.41 17.272 7.61838 17.0503 7.70606L12.5312 10.0373L11.135 8.64103V7.43576C11.135 6.82726 11.5055 6.27978 12.071 6.05494L15.3805 4.52049C15.3931 4.51464 15.4059 4.50923 15.4189 4.50428C16.3934 4.13236 17.4358 4.85264 17.4358 5.89338V7.04322C17.4358 7.0925 17.4299 7.14039 17.4187 7.18621ZM16.1362 17.8634L12.335 14.0622V16.1444C12.335 16.1877 12.3304 16.23 12.3217 16.2707C12.3395 16.9743 12.08 17.6835 11.5431 18.2205C10.5038 19.2598 8.81872 19.2598 7.77942 18.2205C6.74012 17.1812 6.74012 15.4961 7.77942 14.4568C8.69157 13.5447 10.1011 13.4331 11.135 14.1221V12.8622L5.46961 7.19683C5.17672 6.90394 5.17672 6.42907 5.46961 6.13617C5.7625 5.84328 6.23738 5.84328 6.53027 6.13617L17.1969 16.8028C17.4897 17.0957 17.4897 17.5705 17.1969 17.8634C16.904 18.1563 16.4291 18.1563 16.1362 17.8634Z" fill="black"/>
</svg>
