<svg width="24" height="24" viewBox="0 0 24 24" fill="none" xmlns="http://www.w3.org/2000/svg">
<path d="M7.42857 0C3.32588 0 0 3.32588 0 7.42857V16.5714C0 20.6741 3.32588 24 7.42857 24H16.5714C20.6741 24 24 20.6741 24 16.5714V7.42857C24 3.32588 20.6741 0 16.5714 0H7.42857ZM5.25 6.75C5.25 6.33579 5.58579 6 6 6H18C18.4142 6 18.75 6.33579 18.75 6.75C18.75 7.16421 18.4142 7.5 18 7.5H6C5.58579 7.5 5.25 7.16421 5.25 6.75ZM10.584 10.25C10.584 9.83579 10.9198 9.5 11.334 9.5H18.0007C18.4149 9.5 18.7507 9.83579 18.7507 10.25C18.7507 10.6642 18.4149 11 18.0007 11H11.334C10.9198 11 10.584 10.6642 10.584 10.25ZM11.334 13H18.0007C18.4149 13 18.7507 13.3358 18.7507 13.75C18.7507 14.1642 18.4149 14.5 18.0007 14.5H11.334C10.9198 14.5 10.584 14.1642 10.584 13.75C10.584 13.3358 10.9198 13 11.334 13ZM5.25 17.25C5.25 16.8358 5.58579 16.5 6 16.5H18C18.4142 16.5 18.75 16.8358 18.75 17.25C18.75 17.6642 18.4142 18 18 18H6C5.58579 18 5.25 17.6642 5.25 17.25ZM8.5 10.1369V13.9627C8.5 14.3899 7.99894 14.6203 7.6746 14.3423L5.4429 12.4294C5.21009 12.2299 5.21009 11.8697 5.4429 11.6702L7.6746 9.75729C7.99894 9.47928 8.5 9.70974 8.5 10.1369Z" fill="black"/>
</svg>
