<svg width="24" height="24" viewBox="0 0 24 24" fill="none" xmlns="http://www.w3.org/2000/svg">
<path d="M7.42857 0C3.32588 0 0 3.32588 0 7.42857V16.5714C0 20.6741 3.32588 24 7.42857 24H16.5714C20.6741 24 24 20.6741 24 16.5714V7.42857C24 3.32588 20.6741 0 16.5714 0H7.42857ZM17.2743 5.95539C17.7554 5.77677 18.2242 6.24552 18.0456 6.72669L13.7677 18.2503C13.5877 18.7352 12.9196 18.7804 12.676 18.3241L10.5791 14.3971L14.4405 10.5358C14.6943 10.282 14.6943 9.87043 14.4405 9.61659C14.1866 9.36275 13.7751 9.36275 13.5212 9.61659L9.67694 13.4609L5.67681 11.325C5.22056 11.0814 5.26572 10.4132 5.75061 10.2332L17.2743 5.95539Z" fill="black"/>
</svg>
