<svg width="24" height="24" viewBox="0 0 24 24" fill="none" xmlns="http://www.w3.org/2000/svg">
<path d="M7.42857 0C3.32588 0 0 3.32588 0 7.42857V16.5714C0 20.6741 3.32588 24 7.42857 24H16.5714C20.6741 24 24 20.6741 24 16.5714V7.42857C24 3.32588 20.6741 0 16.5714 0H7.42857ZM13.2889 7.24581L7.98287 12.5965C6.93852 13.6496 6.93852 15.3598 7.98287 16.4129C9.02355 17.4624 10.708 17.4624 11.7487 16.4129L17.0548 11.0623C17.3659 10.7486 17.8724 10.7464 18.1861 11.0575C18.4998 11.3687 18.502 11.8752 18.1908 12.1889L12.8848 17.5396C11.2182 19.2201 8.51336 19.2201 6.84678 17.5396C5.18389 15.8627 5.18389 13.1467 6.84678 11.4698L12.1528 6.11918C13.3682 4.8936 15.3415 4.8936 16.5569 6.11918C17.7686 7.34105 17.7686 9.31934 16.5569 10.5412L11.245 15.8919C10.4809 16.6621 9.23903 16.6623 8.47497 15.8919C7.7145 15.125 7.7145 13.8844 8.47497 13.1175L13.3772 8.17993C13.6885 7.86639 14.195 7.86457 14.5086 8.17586C14.8221 8.48715 14.8239 8.99368 14.5126 9.30722L9.61107 14.2442C9.46913 14.3873 9.46913 14.6221 9.61107 14.7652C9.74932 14.9047 9.97069 14.9047 10.1089 14.7652L15.4208 9.41458C16.0139 8.81645 16.0139 7.84394 15.4208 7.24581C14.8313 6.65139 13.8784 6.65139 13.2889 7.24581Z" fill="black"/>
</svg>
