<svg width="24" height="24" viewBox="0 0 24 24" fill="none" xmlns="http://www.w3.org/2000/svg">
<path d="M7.42857 0C3.32588 0 0 3.32588 0 7.42857V16.5714C0 20.6741 3.32588 24 7.42857 24H16.5714C20.6741 24 24 20.6741 24 16.5714V7.42857C24 3.32588 20.6741 0 16.5714 0H7.42857ZM9.75317 5.5H11.2769H11.2778H17.7769C18.1758 5.5 18.4991 5.82335 18.4991 6.22222C18.4991 6.62109 18.1758 6.94444 17.7769 6.94444H15.6124V17.778C15.6124 18.1769 15.2891 18.5002 14.8902 18.5002C14.4913 18.5002 14.168 18.1769 14.168 17.778V6.94444H12V13.2841C12 13.2961 11.9997 13.308 11.9991 13.3198V17.7772C11.9991 18.1761 11.6758 18.4995 11.2769 18.4995C10.878 18.4995 10.5547 18.1761 10.5547 17.7772V14.0063H9.75317C7.40429 14.0063 5.5 12.102 5.5 9.75317C5.5 7.40429 7.40429 5.5 9.75317 5.5Z" fill="black"/>
</svg>
