<svg width="24" height="24" viewBox="0 0 24 24" fill="none" xmlns="http://www.w3.org/2000/svg">
<path d="M0 7.42857V16.5714C0 20.6741 3.32588 24 7.42857 24H16.5714C20.6741 24 24 20.6741 24 16.5714V7.42857C24 3.32588 20.6741 0 16.5714 0H7.42857C3.32588 0 0 3.32588 0 7.42857ZM8.40002 7.5C8.40002 7.22386 8.62388 7 8.90002 7H9.56669C9.84283 7 10.0667 7.22386 10.0667 7.5V16.5C10.0667 16.7761 9.84283 17 9.56669 17H8.90002C8.62388 17 8.40002 16.7761 8.40002 16.5V7.5ZM14.4001 7H15.0667C15.3429 7 15.5667 7.22386 15.5667 7.5V16.5C15.5667 16.7761 15.3429 17 15.0667 17H14.4001C14.1239 17 13.9001 16.7761 13.9001 16.5V7.5C13.9001 7.22386 14.1239 7 14.4001 7Z" fill="black"/>
</svg>
