<svg width="24" height="24" viewBox="0 0 24 24" fill="none" xmlns="http://www.w3.org/2000/svg">
<path d="M7.42857 0C3.32588 0 0 3.32588 0 7.42857V16.5714C0 20.6741 3.32588 24 7.42857 24H16.5714C20.6741 24 24 20.6741 24 16.5714V7.42857C24 3.32588 20.6741 0 16.5714 0H7.42857ZM11.8224 15.1019C10.7521 16.3813 9.18629 17.1427 7.519 17.1945C7.2755 15.5443 7.7484 13.8686 8.81871 12.5892L13.7437 6.70184C14.4375 5.8724 15.6724 5.76248 16.5018 6.45634C17.044 6.90983 17.2787 7.59443 17.1826 8.24589L17.212 8.27054C17.8475 8.80209 17.9317 9.7481 17.4001 10.3835L15.9688 12.0945C15.7916 12.3063 15.4763 12.3344 15.2645 12.1572C15.0527 11.98 15.0246 11.6647 15.2018 11.4529L16.6331 9.74188C16.752 9.59969 16.7785 9.41085 16.7189 9.24847L11.8224 15.1019Z" fill="black"/>
</svg>
