<svg width="24" height="24" viewBox="0 0 24 24" fill="none" xmlns="http://www.w3.org/2000/svg">
<path d="M7.42857 0C3.32588 0 0 3.32588 0 7.42857V16.5714C0 20.6741 3.32588 24 7.42857 24H16.5714C20.6741 24 24 20.6741 24 16.5714V7.42857C24 3.32588 20.6741 0 16.5714 0H7.42857ZM8.9 9.25C8.9 8.89102 8.60899 8.6 8.25 8.6C7.89102 8.6 7.6 8.89102 7.6 9.25C7.6 9.60899 7.89102 9.9 8.25 9.9C8.60899 9.9 8.9 9.60899 8.9 9.25ZM10.5 9.25C10.5 10.4926 9.49264 11.5 8.25 11.5C7.00736 11.5 6 10.4926 6 9.25C6 8.00736 7.00736 7 8.25 7C9.49264 7 10.5 8.00736 10.5 9.25ZM15.75 15.9C16.109 15.9 16.4 15.609 16.4 15.25C16.4 14.891 16.109 14.6 15.75 14.6C15.391 14.6 15.1 14.891 15.1 15.25C15.1 15.609 15.391 15.9 15.75 15.9ZM15.75 17.5C14.5074 17.5 13.5 16.4926 13.5 15.25C13.5 14.0074 14.5074 13 15.75 13C16.9926 13 18 14.0074 18 15.25C18 16.4926 16.9926 17.5 15.75 17.5ZM16.6509 7.95588L8.5751 17.5802C8.2911 17.9187 7.7865 17.9628 7.44804 17.6788C7.10958 17.3948 7.06543 16.8902 7.34943 16.5518L15.4252 6.92742C15.7092 6.58896 16.2138 6.54481 16.5523 6.82881C16.8907 7.11282 16.9349 7.61742 16.6509 7.95588Z" fill="black"/>
</svg>
