<svg width="24" height="24" viewBox="0 0 24 24" fill="none" xmlns="http://www.w3.org/2000/svg">
<path d="M7.42857 0C3.32588 0 0 3.32588 0 7.42857V16.5714C0 20.6741 3.32588 24 7.42857 24H16.5714C20.6741 24 24 20.6741 24 16.5714V7.42857C24 3.32588 20.6741 0 16.5714 0H7.42857ZM15.8415 14.2989L16.6219 15.0794C17.1415 15.5997 17.1415 16.442 16.6219 16.9616L16.1888 17.3948C15.6958 17.8878 14.9845 18.0934 14.2792 17.9603C12.5407 17.6316 10.6371 16.6216 9.00771 14.9922C7.37828 13.3628 6.36829 11.4592 6.03961 9.72068C5.90654 9.01542 6.11213 8.30417 6.60515 7.81115L7.03896 7.37801C7.55859 6.85837 8.40092 6.85837 8.92055 7.37801L9.701 8.15846C10.0909 8.54835 10.0909 9.17976 9.64445 9.6262L9.09487 10.1758C8.95315 10.3175 8.90591 10.5324 8.98709 10.7154C9.37698 11.6009 9.96514 12.4752 10.7449 13.255C11.528 14.0381 12.4063 14.6283 13.2952 15.0175C13.4722 15.0953 13.6798 15.0494 13.8168 14.9124L14.4303 14.2989C14.8195 13.909 15.4516 13.909 15.8415 14.2989ZM12.6633 9.42986C12.2491 9.43549 11.9088 9.10429 11.9031 8.69012C11.8975 8.27594 12.2287 7.93563 12.6429 7.93C13.508 7.91826 14.3825 8.23463 15.0529 8.88902C15.0629 8.89801 15.0727 8.90731 15.0823 8.91694C15.7564 9.59101 16.0823 10.4785 16.0704 11.3563C16.0648 11.7705 15.7245 12.1017 15.3103 12.0961C14.8961 12.0905 14.5649 11.7501 14.5705 11.336C14.5771 10.8515 14.4019 10.3698 14.0432 9.99944C14.0392 9.99576 14.0352 9.99203 14.0313 9.98825C14.0281 9.98511 14.0248 9.98194 14.0216 9.97874C13.6485 9.60556 13.1574 9.42315 12.6633 9.42986ZM12.6531 5.25C14.2119 5.25 15.7737 5.84572 16.9639 7.03589C16.9654 7.03735 16.9668 7.03882 16.9683 7.04029C18.1556 8.22993 18.7499 9.78992 18.7499 11.3469C18.7499 11.7611 18.4142 12.0969 17.9999 12.0969C17.5857 12.0969 17.2499 11.7611 17.2499 11.3469C17.2499 10.1698 16.8011 8.99442 15.9034 8.09674C15.9021 8.09549 15.9009 8.09423 15.8997 8.09298C15.0024 7.19768 13.8286 6.75 12.6531 6.75C12.2389 6.75 11.9031 6.41421 11.9031 6C11.9031 5.58579 12.2389 5.25 12.6531 5.25Z" fill="black"/>
</svg>
