<svg width="24" height="24" viewBox="0 0 24 24" fill="none" xmlns="http://www.w3.org/2000/svg">
<path d="M7.42857 0C3.32588 0 0 3.32588 0 7.42857V16.5714C0 20.6741 3.32588 24 7.42857 24H16.5714C20.6741 24 24 20.6741 24 16.5714V7.42857C24 3.32588 20.6741 0 16.5714 0H7.42857ZM8.99515 11.7068C9.38583 12.5928 9.97385 13.4662 10.7539 14.2462C11.5339 15.0256 12.408 15.6143 13.294 16.0056C13.4813 16.0883 13.7007 16.0396 13.8453 15.895L14.4474 15.2923C14.8374 14.9016 15.4707 14.9016 15.8614 15.2923L16.6435 16.0743C17.1641 16.595 17.1641 17.439 16.6435 17.9597L16.2094 18.3937C15.7154 18.8877 15.0027 19.0938 14.296 18.9604C12.554 18.6311 10.6465 17.619 9.01381 15.9863C7.38108 14.3536 6.36904 12.4461 6.03969 10.7041C5.90635 9.99738 6.11236 9.28469 6.60638 8.79067L7.04107 8.35665C7.56175 7.83596 8.40579 7.83596 8.92648 8.35665L9.70851 9.13868C10.0992 9.52936 10.0992 10.1621 9.65184 10.6094L9.10582 11.1554C8.96114 11.3001 8.91314 11.5194 8.99515 11.7068ZM14 7.75C13.5857 7.75 13.25 7.41421 13.25 7C13.25 6.58579 13.5857 6.25 14 6.25H18.0001C18.2039 6.25 18.3886 6.33124 18.5238 6.4631C18.5282 6.46741 18.5326 6.47176 18.5369 6.47617C18.605 6.54598 18.6568 6.62579 18.6923 6.7108C18.7249 6.78856 18.7447 6.87296 18.7491 6.96141C18.7498 6.97419 18.7501 6.98706 18.7501 7V11.0002C18.7501 11.4144 18.4143 11.7502 18.0001 11.7502C17.5859 11.7502 17.2501 11.4144 17.2501 11.0002V8.81066L14.5303 11.5305C14.2374 11.8234 13.7625 11.8234 13.4696 11.5305C13.1767 11.2376 13.1767 10.7627 13.4696 10.4698L16.1895 7.75H14Z" fill="black"/>
</svg>
