<svg width="24" height="24" viewBox="0 0 24 24" fill="none" xmlns="http://www.w3.org/2000/svg">
<path d="M16.5714 0H7.42857C3.32588 0 0 3.32588 0 7.42857V16.5714C0 20.6741 3.32588 24 7.42857 24H16.5714C20.6741 24 24 20.6741 24 16.5714V7.42857C24 3.32588 20.6741 0 16.5714 0ZM13.2758 12.3527C13.9066 11.6316 14.3972 10.8533 14.7444 10.0659C14.8336 9.86226 14.7814 9.62385 14.6241 9.46659L14.0306 8.8731C13.5444 8.38685 13.5444 7.69915 13.9691 7.2745L14.8191 6.42447C15.385 5.85851 16.3025 5.85851 16.8684 6.42447L17.3409 6.89622C17.8779 7.4332 18.1018 8.20786 17.9569 8.976C17.6299 10.7052 16.6842 12.5843 15.1709 14.249L17.7938 16.8737C18.0475 17.1276 18.0474 17.5392 17.7935 17.7929C17.5395 18.0467 17.128 18.0465 16.8742 17.7926L6.87977 7.7915C6.62601 7.53757 6.62615 7.12601 6.88007 6.87226C7.134 6.6185 7.54555 6.61864 7.79931 6.87257L13.2758 12.3527ZM13.5293 15.7786C12.0565 16.9354 10.4645 17.67 8.98266 17.9502C8.21452 18.0951 7.43986 17.8712 6.90289 17.3342L6.43114 16.8625C5.86518 16.2965 5.86518 15.3791 6.43114 14.8131L7.28116 13.9631C7.70581 13.5385 8.39424 13.5385 8.81817 13.9631L9.47254 14.6182C9.62979 14.7755 9.8682 14.8284 10.0718 14.7385C10.5936 14.5081 11.1115 14.2147 11.6114 13.8594L13.5293 15.7786Z" fill="black"/>
</svg>
