<svg width="24" height="24" viewBox="0 0 24 24" fill="none" xmlns="http://www.w3.org/2000/svg">
<path d="M7.42857 0C3.32588 0 0 3.32588 0 7.42857V16.5714C0 20.6741 3.32588 24 7.42857 24H16.5714C20.6741 24 24 20.6741 24 16.5714V7.42857C24 3.32588 20.6741 0 16.5714 0H7.42857ZM9.25737 10.0681C9.68226 11.0318 10.3218 11.9816 11.1701 12.8299C12.0184 13.6775 12.969 14.3177 13.9326 14.7434C14.1363 14.8333 14.3749 14.7803 14.5322 14.623L15.1869 13.9675C15.6111 13.5426 16.2999 13.5426 16.7248 13.9675L17.5753 14.818C18.1416 15.3843 18.1416 16.3022 17.5753 16.8685L17.1033 17.3405C16.566 17.8778 15.7909 18.1018 15.0223 17.9568C13.1278 17.5987 11.0534 16.498 9.27767 14.7223C7.50199 12.9466 6.40135 10.8722 6.04317 8.97765C5.89816 8.20909 6.1222 7.43399 6.65947 6.89672L7.13221 6.42471C7.69849 5.85843 8.61642 5.85843 9.18269 6.42471L10.0332 7.2752C10.4581 7.70009 10.4581 8.38818 9.97156 8.87469L9.37773 9.46852C9.22039 9.62586 9.16819 9.8644 9.25737 10.0681Z" fill="black"/>
</svg>
