<svg width="24" height="24" viewBox="0 0 24 24" fill="none" xmlns="http://www.w3.org/2000/svg">
<path d="M7.42857 0C3.32588 0 0 3.32588 0 7.42857V16.5714C0 20.6741 3.32588 24 7.42857 24H16.5714C20.6741 24 24 20.6741 24 16.5714V7.42857C24 3.32588 20.6741 0 16.5714 0H7.42857ZM11.946 14.8919C9.21438 14.8919 7 12.6775 7 9.94596C7 7.21438 9.21438 5 11.946 5C14.6775 5 16.8919 7.21438 16.8919 9.94596C16.8919 12.6775 14.6775 14.8919 11.946 14.8919ZM11.3522 15.5514C11.3522 15.5514 11.6765 15.6379 12.0008 15.6379C12.3252 15.6379 12.6495 15.5514 12.6495 15.5514V17.7027L12.0008 19L11.3522 17.7027V15.5514ZM12.127 8.02352C12.055 7.87017 11.8369 7.87017 11.7649 8.02352L11.278 9.06067C11.2497 9.12099 11.1932 9.16324 11.1274 9.17336L10.0223 9.34321C9.86145 9.36793 9.79589 9.56417 9.90958 9.68061L10.7214 10.512C10.7657 10.5574 10.7859 10.6213 10.7756 10.6839L10.5859 11.8475C10.559 12.0123 10.7339 12.1355 10.88 12.0547L11.8492 11.5188C11.9094 11.4855 11.9825 11.4855 12.0427 11.5188L13.0119 12.0547C13.158 12.1355 13.3329 12.0123 13.3061 11.8475L13.1163 10.6839C13.106 10.6213 13.1262 10.5574 13.1706 10.512L13.9823 9.68061C14.096 9.56417 14.0305 9.36793 13.8696 9.34321L12.7645 9.17336C12.6987 9.16324 12.6422 9.12099 12.6139 9.06067L12.127 8.02352Z" fill="black"/>
</svg>
