<svg width="24" height="24" viewBox="0 0 24 24" fill="none" xmlns="http://www.w3.org/2000/svg">
<path d="M7.42857 0C3.32588 0 0 3.32588 0 7.42857V16.5714C0 20.6741 3.32588 24 7.42857 24H16.5714C20.6741 24 24 20.6741 24 16.5714V7.42857C24 3.32588 20.6741 0 16.5714 0H7.42857ZM11.9458 14.8917C9.21432 14.8917 7 12.6773 7 9.94583C7 7.21432 9.21432 5 11.9458 5C14.6773 5 16.8917 7.21432 16.8917 9.94583C16.8917 12.6773 14.6773 14.8917 11.9458 14.8917ZM9.80664 9.70966C9.80664 8.732 10.5992 7.93945 11.5768 7.93945C11.853 7.93945 12.0768 7.7156 12.0768 7.43945C12.0768 7.16331 11.853 6.93945 11.5768 6.93945C10.0469 6.93945 8.80664 8.17972 8.80664 9.70966C8.80664 9.9858 9.0305 10.2097 9.30664 10.2097C9.58278 10.2097 9.80664 9.9858 9.80664 9.70966ZM11.3516 17.9108V15.551C11.3516 15.551 11.6759 15.6236 12.0002 15.6236C12.3245 15.6236 12.6488 15.551 12.6488 15.551V17.9108L12.0002 18.9999L11.3516 17.9108Z" fill="black"/>
</svg>
