<svg width="24" height="24" viewBox="0 0 24 24" fill="none" xmlns="http://www.w3.org/2000/svg">
<path d="M7.42857 24H16.5714C20.6741 24 24 20.6741 24 16.5714V7.42857C24 3.32588 20.6741 -1.90735e-06 16.5714 -1.90735e-06H7.42857C3.32588 -1.90735e-06 0 3.32588 0 7.42857L0 16.5714C0 20.6741 3.32588 24 7.42857 24ZM11.9999 6.15002C12.4693 6.15002 12.8499 6.53058 12.8499 7.00002L12.8499 11.15H16.9999C17.4693 11.15 17.8499 11.5306 17.8499 12C17.8499 12.4695 17.4693 12.85 16.9999 12.85H12.8499V17C12.8499 17.4695 12.4693 17.85 11.9999 17.85C11.5305 17.85 11.1499 17.4695 11.1499 17V12.85H6.9999C6.53046 12.85 6.1499 12.4695 6.1499 12C6.1499 11.5306 6.53046 11.15 6.9999 11.15H11.1499L11.1499 7.00002C11.1499 6.53058 11.5305 6.15002 11.9999 6.15002Z" fill="black"/>
</svg>
