<svg width="24" height="24" viewBox="0 0 24 24" fill="none" xmlns="http://www.w3.org/2000/svg">
<path d="M7.42857 0C3.32588 0 0 3.32588 0 7.42857V16.5714C0 20.6741 3.32588 24 7.42857 24H16.5714C20.6741 24 24 20.6741 24 16.5714V7.42857C24 3.32588 20.6741 0 16.5714 0H7.42857ZM12 19C8.13367 19 5 15.8663 5 12V8C5 6.34315 6.34315 5 8 5H16C17.6569 5 19 6.34315 19 8V12C19 15.8663 15.8663 19 12 19ZM7.58063 9.13666C7.28774 9.42956 7.28774 9.90443 7.58063 10.1973L11.4695 14.0862C11.7624 14.3791 12.2373 14.3791 12.5302 14.0862L16.4191 10.1973C16.712 9.90443 16.712 9.42956 16.4191 9.13666C16.1262 8.84377 15.6513 8.84377 15.3584 9.13666L11.9999 12.4952L8.64129 9.13666C8.3484 8.84377 7.87353 8.84377 7.58063 9.13666Z" fill="black"/>
</svg>
