<svg width="24" height="24" viewBox="0 0 24 24" fill="none" xmlns="http://www.w3.org/2000/svg">
<path d="M24 7.42857C24 3.32588 20.6741 0 16.5714 0H7.42857C3.32588 0 0 3.32588 0 7.42857V16.5714C0 20.6741 3.32588 24 7.42857 24H16.5714C20.6741 24 24 20.6741 24 16.5714V7.42857ZM16 5C17.6569 5 19 6.34315 19 8V16C19 17.6569 17.6569 19 16 19H8C6.34315 19 5 17.6569 5 16V8C5 6.34315 6.34315 5 8 5H16ZM16.8008 12C16.8008 11.5581 16.4426 11.2 16.0008 11.2H8.00078C7.55895 11.2 7.20078 11.5581 7.20078 12C7.20078 12.4418 7.55895 12.8 8.00078 12.8H16.0008C16.4426 12.8 16.8008 12.4418 16.8008 12ZM12.4012 9.29995C12.843 9.29995 13.2012 8.94178 13.2012 8.49995C13.2012 8.05812 12.843 7.69995 12.4012 7.69995H8.01207C7.57024 7.69995 7.21207 8.05812 7.21207 8.49995C7.21207 8.94178 7.57024 9.29995 8.01207 9.29995H12.4012ZM11.2012 15.5C11.2012 15.0581 10.843 14.7 10.4012 14.7H8.01207C7.57024 14.7 7.21207 15.0581 7.21207 15.5C7.21207 15.9418 7.57024 16.3 8.01207 16.3H10.4012C10.843 16.3 11.2012 15.9418 11.2012 15.5Z" fill="black"/>
</svg>
