<svg width="24" height="24" viewBox="0 0 24 24" fill="none" xmlns="http://www.w3.org/2000/svg">
<path d="M24 7.42857C24 3.32588 20.6741 0 16.5714 0H7.42857C3.32588 0 0 3.32588 0 7.42857V16.5714C0 20.6741 3.32588 24 7.42857 24H16.5714C20.6741 24 24 20.6741 24 16.5714V7.42857ZM9.35525 6.55557V8.77196H7.7997V6.55557C7.7997 5.69645 8.49614 5 9.35525 5H14.6441C15.5033 5 16.1997 5.69645 16.1997 6.55557V8.77196H14.6441V6.55557L9.35525 6.55557ZM16.1997 16.2V17.4444C16.1997 18.3035 15.5033 19 14.6441 19H9.35526C8.49615 19 7.7997 18.3035 7.7997 17.4444V16.2H6.4C6.35168 16.2 6.30392 16.1975 6.25686 16.1927L6.24414 16.1914C5.5443 16.1139 5 15.5205 5 14.8V11.2999C5 10.5267 5.6268 9.8999 6.4 9.8999H17.6C18.3732 9.8999 19 10.5267 19 11.2999V14.8C19 15.4765 18.5201 16.041 17.8822 16.1715C17.8405 16.18 17.7982 16.1867 17.7553 16.1915C17.7043 16.1971 17.6525 16.2 17.6 16.2H16.1997ZM9.35525 17.4444H14.6441V14.9555H9.35525V17.4444Z" fill="black"/>
</svg>
