<svg width="24" height="24" viewBox="0 0 24 24" fill="none" xmlns="http://www.w3.org/2000/svg">
<path d="M7.42857 0C3.32588 0 0 3.32588 0 7.42857V16.5714C0 20.6741 3.32588 24 7.42857 24H16.5714C20.6741 24 24 20.6741 24 16.5714V7.42857C24 3.32588 20.6741 0 16.5714 0H7.42857ZM13.2716 6V9C13.2716 9.60751 13.7795 10.1 14.406 10.1H17.5V12V15.6667C17.5 16.9553 16.4227 18 15.0938 18H8.90625C7.57731 18 6.5 16.9553 6.5 15.6667V8.33333C6.5 7.04467 7.57731 6 8.90625 6H12H13.2716ZM14.1654 6.0276C14.626 6.1026 15.0505 6.32785 15.3653 6.67127L16.979 8.43167C17.1917 8.66366 17.344 8.93848 17.4271 9.23333H14.406C14.2731 9.23333 14.1654 9.12887 14.1654 9V6.0276ZM11.9924 10.7887C11.161 10.7887 10.4874 11.4419 10.4874 12.2481C10.4874 12.4874 10.6874 12.6814 10.9342 12.6814C11.181 12.6814 11.3811 12.4874 11.3811 12.2481C11.3811 11.9205 11.6546 11.6553 11.9924 11.6553C12.3303 11.6553 12.6037 11.9205 12.6037 12.2481C12.6037 12.3542 12.573 12.4231 12.528 12.4818C12.4757 12.5502 12.3956 12.6156 12.2778 12.6926C11.9813 12.8858 11.5455 13.2262 11.5455 13.873V14.0012C11.5455 14.2405 11.7456 14.4346 11.9924 14.4346C12.2392 14.4346 12.4393 14.2405 12.4393 14.0012V13.873C12.4393 13.7624 12.4714 13.6903 12.5183 13.629C12.5727 13.5579 12.6557 13.4905 12.7766 13.4117L12.7771 13.4114C13.0668 13.222 13.4975 12.8863 13.4975 12.2481C13.4975 11.4419 12.8239 10.7887 11.9924 10.7887ZM11.9997 15.7658C12.2465 15.7658 12.4466 15.5717 12.4466 15.3324C12.4466 15.0931 12.2465 14.8991 11.9997 14.8991C11.7529 14.8991 11.5529 15.0931 11.5529 15.3324C11.5529 15.5717 11.7529 15.7658 11.9997 15.7658Z" fill="black"/>
</svg>
