<svg width="24" height="24" viewBox="0 0 24 24" fill="none" xmlns="http://www.w3.org/2000/svg">
<path d="M7.42857 0C3.32588 0 0 3.32588 0 7.42857V16.5714C0 20.6741 3.32588 24 7.42857 24H16.5714C20.6741 24 24 20.6741 24 16.5714V7.42857C24 3.32588 20.6741 0 16.5714 0H7.42857ZM17.25 17.4693C17.25 18.143 16.5151 18.559 15.9375 18.2125L14.625 17.425L13.3125 18.2125L12.5145 18.6913C12.1978 18.8813 11.8022 18.8813 11.4855 18.6913L10.6875 18.2125L9.375 17.425L8.0625 18.2125C7.48487 18.559 6.75 18.143 6.75 17.4693V6.99997C6.75 6.63066 6.95355 6.29141 7.27941 6.11761L8.90441 5.25095C9.19853 5.09409 9.55147 5.09409 9.84559 5.25095L11.5294 6.14899C11.8235 6.30585 12.1765 6.30585 12.4706 6.14899L14.1544 5.25095C14.4485 5.09409 14.8015 5.09409 15.0956 5.25095L16.7206 6.11761C17.0465 6.29141 17.25 6.63066 17.25 6.99997V17.4693ZM8.90005 11.9124C8.90005 12.2714 9.19106 12.5624 9.55005 12.5624H14.45C14.809 12.5624 15.1 12.2714 15.1 11.9124C15.1 11.5535 14.809 11.2624 14.45 11.2624H9.55005C9.19106 11.2624 8.90005 11.5535 8.90005 11.9124ZM9.55005 9.16247C9.19106 9.16247 8.90005 9.45348 8.90005 9.81247C8.90005 10.1715 9.19106 10.4625 9.55005 10.4625H14.45C14.809 10.4625 15.1 10.1715 15.1 9.81247C15.1 9.45348 14.809 9.16247 14.45 9.16247H9.55005ZM8.90005 14.0124C8.90005 14.3714 9.19106 14.6624 9.55005 14.6624H14.45C14.809 14.6624 15.1 14.3714 15.1 14.0124C15.1 13.6534 14.809 13.3624 14.45 13.3624H9.55005C9.19106 13.3624 8.90005 13.6534 8.90005 14.0124Z" fill="black"/>
</svg>
