<svg width="24" height="24" viewBox="0 0 24 24" fill="none" xmlns="http://www.w3.org/2000/svg">
<path d="M0 7.42857V16.5714C0 20.6741 3.32589 24 7.42857 24H16.5714C20.6741 24 24 20.6741 24 16.5714V7.42857C24 3.32588 20.6741 0 16.5714 0H7.42857C3.32589 0 0 3.32588 0 7.42857ZM18.5854 11.7162C18.4229 11.8902 18.2009 11.9754 17.9803 11.9699H14.4006C13.9588 11.9699 13.6006 11.6117 13.6006 11.1699C13.6006 10.728 13.9588 10.3699 14.4006 10.3699H15.9722L14.6706 9.15392L14.6677 9.15122C14.6628 9.14658 14.6579 9.14189 14.6531 9.13713C13.2033 7.6982 10.9688 7.38495 9.17406 8.37133C7.38047 9.35704 6.46219 11.4004 6.91565 13.3814C7.36928 15.3632 9.08826 16.8125 11.1368 16.9298C13.1855 17.047 15.0611 15.803 15.7407 13.8854C15.8883 13.469 16.3455 13.251 16.762 13.3986C17.1784 13.5462 17.3964 14.0034 17.2488 14.4199C16.3299 17.0128 13.7991 18.6847 11.0454 18.5271C8.29152 18.3696 5.96974 16.4197 5.35599 13.7385C4.74207 11.0565 5.98711 8.29709 8.40344 6.96913C10.8149 5.64384 13.8166 6.06047 15.7713 7.99269L17.2008 9.32802V7.59078C17.2008 7.14895 17.559 6.79078 18.0008 6.79078C18.4426 6.79078 18.8008 7.14895 18.8008 7.59078V11.1682C18.8013 11.3645 18.73 11.5614 18.5854 11.7162Z" fill="black"/>
</svg>
