<svg width="24" height="24" viewBox="0 0 24 24" fill="none" xmlns="http://www.w3.org/2000/svg">
<path d="M24 7.42857C24 3.32588 20.6741 0 16.5714 0H7.42857C3.32588 0 0 3.32588 0 7.42857V16.5714C0 20.6741 3.32588 24 7.42857 24H16.5714C20.6741 24 24 20.6741 24 16.5714V7.42857ZM12 19C8.13401 19 5 15.866 5 12C5 8.13401 8.13401 5 12 5C15.866 5 19 8.13401 19 12C19 15.866 15.866 19 12 19ZM10.9 13.0611H12.0187L12.9408 15.0646C13.0909 15.3907 13.477 15.5333 13.8031 15.3832C14.1292 15.2331 14.2719 14.8471 14.1218 14.521L13.2998 12.7352C13.4554 12.6408 13.5986 12.5282 13.7264 12.4004C14.1339 11.993 14.3871 11.4281 14.3871 10.8054C14.3871 10.1827 14.1339 9.61791 13.7264 9.21042C13.3307 8.81474 12.7866 8.56443 12.1848 8.55037L12.1772 8.5502H12.1696H10.3242V8.56318C10.2999 8.56041 10.2751 8.55898 10.25 8.55898C9.89102 8.55898 9.6 8.85 9.6 9.20898V14.8004C9.6 15.1594 9.89102 15.4504 10.25 15.4504C10.609 15.4504 10.9 15.1594 10.9 14.8004V13.0611ZM12.161 9.85019C12.413 9.85779 12.6399 9.96241 12.8071 10.1297C12.9808 10.3033 13.0871 10.5414 13.0871 10.8054C13.0871 11.0695 12.9808 11.3076 12.8071 11.4812C12.6335 11.6549 12.3954 11.7611 12.1314 11.7611H10.9V9.85019H12.161Z" fill="black"/>
</svg>
