<svg width="24" height="24" viewBox="0 0 24 24" fill="none" xmlns="http://www.w3.org/2000/svg">
<path d="M16.5714 0H7.42857C3.32588 0 0 3.32588 0 7.42857V16.5714C0 20.6741 3.32588 24 7.42857 24H16.5714C20.6741 24 24 20.6741 24 16.5714V7.42857C24 3.32588 20.6741 0 16.5714 0ZM5.7 10.6667C5.7 8.568 7.40132 6.86669 9.5 6.86669H15.4021L14.6011 6.06569C14.2887 5.75327 14.2887 5.24673 14.6011 4.93431C14.9135 4.6219 15.4201 4.6219 15.7325 4.93431L17.8992 7.10098C18.2116 7.4134 18.2116 7.91993 17.8992 8.23235L15.7325 10.399C15.4201 10.7114 14.9135 10.7114 14.6011 10.399C14.2887 10.0866 14.2887 9.58007 14.6011 9.26765L15.4021 8.46669H9.5C8.28498 8.46669 7.3 9.45166 7.3 10.6667V11.2778C7.3 11.7196 6.94183 12.0778 6.5 12.0778C6.05817 12.0778 5.7 11.7196 5.7 11.2778V10.6667ZM17.4111 12.7222V13.3333C17.4111 15.432 15.7098 17.1333 13.6111 17.1333H8.4315L9.2325 17.9343C9.54492 18.2468 9.54492 18.7533 9.2325 19.0657C8.92008 19.3781 8.41354 19.3781 8.10113 19.0657L5.94299 16.9076C5.79313 16.7622 5.7 16.5586 5.7 16.3333C5.7 16.1076 5.79347 15.9038 5.94381 15.7583L8.10113 13.601C8.41354 13.2886 8.92008 13.2886 9.2325 13.601C9.54492 13.9134 9.54492 14.42 9.2325 14.7324L8.43153 15.5333H13.6111C14.8261 15.5333 15.8111 14.5484 15.8111 13.3333V12.7222C15.8111 12.2804 16.1693 11.9222 16.6111 11.9222C17.0529 11.9222 17.4111 12.2804 17.4111 12.7222Z" fill="black"/>
</svg>
