<svg width="24" height="24" viewBox="0 0 24 24" fill="none" xmlns="http://www.w3.org/2000/svg">
<path d="M7.42857 0C3.32588 0 0 3.32588 0 7.42857V16.5714C0 20.6741 3.32588 24 7.42857 24H16.5714C20.6741 24 24 20.6741 24 16.5714V7.42857C24 3.32588 20.6741 0 16.5714 0H7.42857ZM9.55294 7.50846L6.49163 10.8279C6.22657 11.1153 6.22677 11.5582 6.4921 11.8453L9.55248 15.1577C9.83357 15.4619 9.81481 15.9364 9.51057 16.2175C9.20633 16.4986 8.73183 16.4799 8.45074 16.1756L5.39036 12.8633C4.59438 12.0017 4.59377 10.6733 5.38896 9.81101L8.45027 6.49155C8.73108 6.18705 9.20557 6.16786 9.51007 6.44867C9.81456 6.72948 9.83376 7.20397 9.55294 7.50846ZM12.339 6.72427V9.29918C13.9806 9.3754 15.8059 9.83291 17.1255 11.051C18.2283 12.0689 19.0016 13.6156 19.0016 15.95C19.0016 16.2084 18.9921 16.4571 18.9738 16.6966C18.9497 17.0101 18.4899 17.0458 18.3495 16.7644C18.2593 16.5837 18.1585 16.3992 18.0471 16.2094C16.819 14.1171 15.5233 13.4527 12.339 13.3921V15.9505C12.339 16.2178 12.0158 16.3516 11.8268 16.1626L7.42586 11.7616C7.19154 11.5273 7.19154 11.1474 7.42586 10.9131L11.8268 6.51214C12.0158 6.32315 12.339 6.457 12.339 6.72427Z" fill="black"/>
</svg>
