<svg width="24" height="24" viewBox="0 0 24 24" fill="none" xmlns="http://www.w3.org/2000/svg">
<path d="M13.5048 10.3085C13.1143 9.91796 12.4812 9.91796 12.0907 10.3085C11.7001 10.699 11.7001 11.3321 12.0907 11.7226C12.4812 12.1132 13.1143 12.1132 13.5048 11.7226C13.8954 11.3321 13.8954 10.699 13.5048 10.3085Z" fill="black"/>
<path d="M7.42857 0C3.32588 0 0 3.32588 0 7.42857V16.5714C0 20.6741 3.32588 24 7.42857 24H16.5714C20.6741 24 24 20.6741 24 16.5714V7.42857C24 3.32588 20.6741 0 16.5714 0H7.42857ZM6.73257 8.82123C7.70789 7.8456 9.00007 7.38013 10.2777 7.4248L10.2689 7.43092C8.80864 8.44216 7.69242 9.61596 6.88059 10.6564L5.99951 9.77606C6.20009 9.43629 6.44066 9.11324 6.73257 8.82123ZM16.2892 12.2594L16.2899 12.2615C15.2095 14.1309 13.7966 15.4715 12.594 16.3709L12.5932 16.37C11.8995 16.8889 11.2757 17.261 10.8261 17.5031C10.6868 17.578 10.5358 17.6124 10.3859 17.61C10.1513 17.6057 9.9196 17.5114 9.73987 17.3415L6.55548 14.332C6.25427 14.0473 6.1638 13.6091 6.36269 13.2455C6.94564 12.1798 8.36999 9.96232 10.8382 8.25303C12.5226 7.08655 14.7168 6.16169 17.5109 6.01589C17.5213 6.01534 17.5316 6.01516 17.5419 6.01531C17.7937 6.02018 17.9938 6.23254 17.9793 6.48848C17.8477 8.80652 17.1821 10.7137 16.2892 12.2594ZM13.3068 17.0846C14.3583 16.283 15.5495 15.168 16.57 13.6895C16.6233 14.9775 16.1583 16.2828 15.1754 17.2661C14.8835 17.5581 14.5605 17.7987 14.2202 17.9994L13.3068 17.0846ZM8.45534 17.5035C8.43173 17.6192 8.37631 17.73 8.28873 17.8218C8.04092 18.0815 7.62954 18.0911 7.36989 17.8432L6.01369 16.5484C5.75404 16.3005 5.74445 15.889 5.99226 15.6293C6.07546 15.5421 6.17709 15.4831 6.28523 15.4525L8.45534 17.5035Z" fill="black"/>
</svg>
