<svg width="24" height="24" viewBox="0 0 24 24" fill="none" xmlns="http://www.w3.org/2000/svg">
<path d="M7.42857 0C3.32588 0 0 3.32588 0 7.42857V16.5714C0 20.6741 3.32588 24 7.42857 24H16.5714C20.6741 24 24 20.6741 24 16.5714V7.42857C24 3.32588 20.6741 0 16.5714 0H7.42857ZM8 6H8.68398V8.33333C8.68398 9.2446 9.42272 9.98333 10.334 9.98333H13.334C13.693 9.98333 13.984 9.69232 13.984 9.33333C13.984 8.97435 13.693 8.68333 13.334 8.68333H10.334C10.1407 8.68333 9.98398 8.52663 9.98398 8.33333V6H12.8022C13.1503 6 13.4923 6.09083 13.7945 6.26351L16.9923 8.09083C17.6154 8.44691 18 9.1096 18 9.82731V16C18 17.1046 17.1046 18 16 18L15.3173 17.9993V13.666C15.3173 12.7547 14.5786 12.016 13.6673 12.016H10.334C9.42271 12.016 8.68398 12.7547 8.68398 13.666V17.9993L8 18C6.89543 18 6 17.1046 6 16V8C6 6.89543 6.89543 6 8 6ZM14.0173 13.666V17.9993H9.98398V13.666C9.98398 13.4727 10.1407 13.316 10.334 13.316H13.6673C13.8606 13.316 14.0173 13.4727 14.0173 13.666Z" fill="black"/>
</svg>
