<svg width="24" height="24" viewBox="0 0 24 24" fill="none" xmlns="http://www.w3.org/2000/svg">
<path d="M7.42857 24H16.5714C20.6741 24 24 20.6741 24 16.5714V7.42857C24 3.32588 20.6741 0 16.5714 0H7.42857C3.32588 0 0 3.32588 0 7.42857V16.5714C0 20.6741 3.32588 24 7.42857 24ZM15.9567 16.9655C16.2404 16.4684 16.067 15.8348 15.571 15.5516C15.0739 15.2678 14.4402 15.4413 14.1571 15.9373C13.8733 16.4344 14.0467 17.068 14.5428 17.3512C15.0398 17.635 15.6735 17.4616 15.9567 16.9655ZM17.2594 17.7092C16.5652 18.9252 15.0151 19.3481 13.7991 18.6539C12.5831 17.9597 12.1602 16.4097 12.8544 15.1937C12.8981 15.117 12.9453 15.0435 12.9956 14.9732L12.3719 14.096L11.6863 15.0858C12.1763 15.8546 12.2343 16.8628 11.7511 17.7092C11.0569 18.9252 9.50688 19.3481 8.29086 18.6539C7.07484 17.9597 6.65195 16.4097 7.34612 15.1937C7.98693 14.0711 9.35713 13.6244 10.5206 14.1085L11.4387 12.7833L7.3667 7.05569C6.92748 6.43475 7.07475 5.57538 7.69562 5.13622C7.7335 5.10938 7.77225 5.08475 7.81174 5.06233L12.3466 11.4728L16.8309 5.00002C16.8707 5.02213 16.9097 5.04637 16.9479 5.07281C17.573 5.50607 17.7286 6.36394 17.2953 6.98905L13.2775 12.7888L14.184 14.0702C14.8614 13.8224 15.6395 13.8635 16.3146 14.2489C17.5306 14.9431 17.9535 16.4931 17.2594 17.7092ZM10.0627 15.5516C10.5588 15.8348 10.7322 16.4684 10.4484 16.9655C10.1652 17.4616 9.53159 17.635 9.0345 17.3512C8.53846 17.068 8.36504 16.4344 8.6488 15.9373C8.93197 15.4413 9.56562 15.2678 10.0627 15.5516Z" fill="black"/>
</svg>
