<svg width="24" height="24" viewBox="0 0 24 24" fill="none" xmlns="http://www.w3.org/2000/svg">
<path d="M7.42857 0C3.32588 0 0 3.32588 0 7.42857V16.5714C0 20.6741 3.32588 24 7.42857 24H16.5714C20.6741 24 24 20.6741 24 16.5714V7.42857C24 3.32588 20.6741 0 16.5714 0H7.42857ZM11.4738 15.4474C13.6685 15.4474 15.4476 13.6683 15.4476 11.4737C15.4476 9.27911 13.6685 7.5 11.4738 7.5C9.2791 7.5 7.5 9.27911 7.5 11.4737C7.5 13.6683 9.2791 15.4474 11.4738 15.4474ZM16.9476 11.4737C16.9476 12.6254 16.5919 13.6941 15.9843 14.5758L18.2432 16.6087C18.6546 16.979 18.6716 17.6186 18.2803 18.0101C17.9169 18.3738 17.3324 18.3892 16.9502 18.0453L14.6235 15.951C13.7328 16.5787 12.6463 16.9474 11.4738 16.9474C8.45071 16.9474 6 14.4967 6 11.4737C6 8.45066 8.45071 6 11.4738 6C14.4969 6 16.9476 8.45066 16.9476 11.4737Z" fill="black"/>
</svg>
