<svg width="24" height="24" viewBox="0 0 24 24" fill="none" xmlns="http://www.w3.org/2000/svg">
<path d="M0 7.42857V16.5714C0 20.6741 3.32588 24 7.42857 24H16.5714C20.6741 24 24 20.6741 24 16.5714V7.42857C24 3.32588 20.6741 0 16.5714 0H7.42857C3.32588 0 0 3.32588 0 7.42857ZM14.6235 15.951C13.7328 16.5787 12.6463 16.9474 11.4738 16.9474C8.45071 16.9474 6 14.4967 6 11.4737C6 8.45066 8.45071 6 11.4738 6C14.4969 6 16.9476 8.45066 16.9476 11.4737C16.9476 12.6254 16.5919 13.6941 15.9843 14.5758L18.2432 16.6087C18.6546 16.979 18.6716 17.6186 18.2803 18.0101C17.9169 18.3738 17.3324 18.3892 16.9502 18.0453L14.6235 15.951ZM12.2236 9.7627C12.2236 9.34848 11.8878 9.0127 11.4736 9.0127C11.0594 9.0127 10.7236 9.34848 10.7236 9.7627V10.7236H9.76312C9.34891 10.7236 9.01312 11.0594 9.01312 11.4736C9.01312 11.8878 9.34891 12.2236 9.76312 12.2236H10.7236V13.1838C10.7236 13.598 11.0594 13.9338 11.4736 13.9338C11.8878 13.9338 12.2236 13.598 12.2236 13.1838V12.2236H13.1842C13.5984 12.2236 13.9342 11.8878 13.9342 11.4736C13.9342 11.0594 13.5984 10.7236 13.1842 10.7236H12.2236V9.7627Z" fill="black"/>
</svg>
