<svg width="24" height="24" viewBox="0 0 24 24" fill="none" xmlns="http://www.w3.org/2000/svg">
<path d="M0 7.42857V16.5714C0 20.6741 3.32588 24 7.42857 24H16.5714C20.6741 24 24 20.6741 24 16.5714V7.42857C24 3.32588 20.6741 0 16.5714 0H7.42857C3.32588 0 0 3.32588 0 7.42857ZM7 6.39844H17C17.8284 6.39844 18.5 7.07001 18.5 7.89844V9.95399C18.5 10.7824 17.8284 11.454 17 11.454H7C6.17157 11.454 5.5 10.7824 5.5 9.95399V7.89844C5.5 7.07001 6.17157 6.39844 7 6.39844ZM10.5547 8.27676C10.1957 8.27676 9.90469 8.56778 9.90469 8.92676C9.90469 9.28575 10.1957 9.57676 10.5547 9.57676H15.9714C16.3303 9.57676 16.6214 9.28575 16.6214 8.92676C16.6214 8.56778 16.3303 8.27676 15.9714 8.27676H10.5547ZM8.2799 9.54028C8.61895 9.54028 8.89379 9.26544 8.89379 8.9264C8.89379 8.58735 8.61895 8.31251 8.2799 8.31251C7.94086 8.31251 7.66602 8.58735 7.66602 8.9264C7.66602 9.26544 7.94086 9.54028 8.2799 9.54028ZM5.5 14.0352C5.5 13.2067 6.17157 12.5352 7 12.5352H17C17.8284 12.5352 18.5 13.2067 18.5 14.0352V16.0907C18.5 16.9191 17.8284 17.5907 17 17.5907H7C6.17157 17.5907 5.5 16.9191 5.5 16.0907V14.0352ZM9.90469 15.0635C9.90469 15.4225 10.1957 15.7135 10.5547 15.7135H15.9714C16.3303 15.7135 16.6214 15.4225 16.6214 15.0635C16.6214 14.7045 16.3303 14.4135 15.9714 14.4135H10.5547C10.1957 14.4135 9.90469 14.7045 9.90469 15.0635ZM8.89379 15.0631C8.89379 14.7241 8.61895 14.4492 8.2799 14.4492C7.94086 14.4492 7.66602 14.7241 7.66602 15.0631C7.66602 15.4022 7.94086 15.677 8.2799 15.677C8.61895 15.677 8.89379 15.4022 8.89379 15.0631Z" fill="black"/>
</svg>
