<svg width="24" height="24" viewBox="0 0 24 24" fill="none" xmlns="http://www.w3.org/2000/svg">
<path d="M0 7.42857V16.5714C0 20.6741 3.32588 24 7.42857 24H16.5714C20.6741 24 24 20.6741 24 16.5714V7.42857C24 3.32588 20.6741 0 16.5714 0H7.42857C3.32588 0 0 3.32588 0 7.42857ZM13.3758 8.85806V7.20706C13.3758 6.7616 13.9143 6.53852 14.2293 6.8535L17.2925 9.91667C17.683 10.3072 17.683 10.9404 17.2925 11.3309L14.2293 14.394C13.9143 14.709 13.3758 14.4859 13.3758 14.0405V12.4038C13.3046 12.3912 13.2305 12.3773 13.1542 12.3631C11.9572 12.1392 10.2 11.8107 9.93243 14.4921C9.9007 14.8101 9.45949 14.9171 9.33711 14.6219C7.55027 10.3118 10.2435 8.6198 13.3758 8.85806ZM6.64961 10.6042V15C6.64961 16.2978 7.70174 17.35 8.99961 17.35H13.5076C14.7435 17.35 15.7453 16.3481 15.7453 15.1123C15.7453 14.7533 16.0363 14.4623 16.3953 14.4623C16.7543 14.4623 17.0453 14.7533 17.0453 15.1123C17.0453 17.0661 15.4614 18.65 13.5076 18.65H8.99961C6.98377 18.65 5.34961 17.0158 5.34961 15V10.6042C5.34961 8.5884 6.98377 6.95424 8.99961 6.95424H9.46485C9.82383 6.95424 10.1148 7.24525 10.1148 7.60424C10.1148 7.96322 9.82383 8.25424 9.46485 8.25424H8.99961C7.70174 8.25424 6.64961 9.30637 6.64961 10.6042Z" fill="black"/>
</svg>
