<svg width="24" height="24" viewBox="0 0 24 24" fill="none" xmlns="http://www.w3.org/2000/svg">
<path d="M7.42857 0C3.32588 0 0 3.32588 0 7.42857V16.5714C0 20.6741 3.32588 24 7.42857 24H16.5714C20.6741 24 24 20.6741 24 16.5714V7.42857C24 3.32588 20.6741 0 16.5714 0H7.42857ZM12.3488 7.20706C12.3488 6.7616 12.8874 6.53852 13.2024 6.8535L17.293 10.9442C17.6836 11.3347 17.6836 11.9679 17.293 12.3584L13.2024 16.4491C12.8874 16.7641 12.3488 16.541 12.3488 16.0955V13.8269C12.2618 13.8115 12.1713 13.7945 12.078 13.7771C10.5723 13.4956 8.34152 13.0784 8.11638 16.6752C8.09642 16.9941 7.65871 17.1038 7.52971 16.8114C5.11615 11.3415 8.45485 9.197 12.3488 9.4932V7.20706Z" fill="black"/>
</svg>
