<svg width="24" height="24" viewBox="0 0 24 24" fill="none" xmlns="http://www.w3.org/2000/svg">
<path d="M7.42857 0C3.32588 0 0 3.32588 0 7.42857V16.5714C0 20.6741 3.32588 24 7.42857 24H16.5714C20.6741 24 24 20.6741 24 16.5714V7.42857C24 3.32588 20.6741 0 16.5714 0H7.42857ZM18.3078 11.2025C18.3078 14.809 15.5972 18.1812 11.9542 19C8.3112 18.1812 5.60059 14.809 5.60059 11.2025V8.3696C5.60059 7.72471 5.99054 7.14335 6.58778 6.89953L10.5588 5.2746C11.4531 4.90847 12.4553 4.90847 13.3496 5.2746L17.3206 6.89953C17.9179 7.14415 18.3078 7.72471 18.3078 8.3696V11.2025ZM8.42383 11.5562C8.42383 13.4385 9.75286 15.2059 11.5919 15.7902C11.775 15.8484 11.9536 15.7055 11.9537 15.5133L11.9549 8.4102C11.9549 8.24458 11.82 8.10801 11.6562 8.13208C11.4935 8.15598 11.333 8.19959 11.1784 8.26291L8.97227 9.16565C8.64047 9.3011 8.42383 9.62408 8.42383 9.98235V11.5562Z" fill="black"/>
</svg>
