<svg width="24" height="24" viewBox="0 0 24 24" fill="none" xmlns="http://www.w3.org/2000/svg">
<path d="M7.42857 0C3.32588 0 0 3.32588 0 7.42857V16.5714C0 20.6741 3.32588 24 7.42857 24H16.5714C20.6741 24 24 20.6741 24 16.5714V7.42857C24 3.32588 20.6741 0 16.5714 0H7.42857ZM12.0536 19C8.41063 18.1812 5.70001 14.809 5.70001 11.2025V8.3696C5.70001 7.72471 6.08997 7.14335 6.68721 6.89953L10.6582 5.2746C11.5525 4.90847 12.5548 4.90847 13.449 5.2746L17.4201 6.89953C18.0173 7.14415 18.4072 7.72471 18.4072 8.3696V11.2025C18.4072 14.809 15.6966 18.1812 12.0536 19Z" fill="black"/>
</svg>
