<svg width="24" height="24" viewBox="0 0 24 24" fill="none" xmlns="http://www.w3.org/2000/svg">
<path d="M0 7.42857V16.5714C0 20.6741 3.32588 24 7.42857 24H16.5714C20.6741 24 24 20.6741 24 16.5714V7.42857C24 3.32588 20.6741 0 16.5714 0H7.42857C3.32588 0 0 3.32588 0 7.42857ZM6 6.65C6 6.29101 6.29101 6 6.65 6H8.28636C8.64534 6 8.93636 6.29101 8.93636 6.65V8.28672H16.3128C16.9525 8.28672 17.4278 8.87914 17.289 9.50365L16.6425 12.4127C16.5409 12.8703 16.135 13.1958 15.6663 13.1958H8.93636V13.8318C8.93636 14.0251 9.09306 14.1818 9.28636 14.1818H16.65C17.0089 14.1818 17.3 14.4728 17.3 14.8318C17.3 15.1908 17.0089 15.4818 16.65 15.4818H9.28636C8.37509 15.4818 7.63636 14.7431 7.63636 13.8318V7.3H6.65C6.29101 7.3 6 7.00899 6 6.65ZM9.37762 16.4684C9.98035 16.4684 10.4685 16.9565 10.4685 17.5593C10.4685 18.162 9.98035 18.6502 9.37762 18.6502C8.7749 18.6502 8.28672 18.162 8.28672 17.5593C8.28672 16.9565 8.7749 16.4684 9.37762 16.4684ZM14.4688 17.5593C14.4688 16.9565 14.9569 16.4684 15.5597 16.4684C16.1624 16.4684 16.6506 16.9565 16.6506 17.5593C16.6506 18.162 16.1624 18.6502 15.5597 18.6502C14.9569 18.6502 14.4688 18.162 14.4688 17.5593Z" fill="black"/>
</svg>
