<svg width="24" height="24" viewBox="0 0 24 24" fill="none" xmlns="http://www.w3.org/2000/svg">
<path d="M0 7.42857V16.5714C0 20.6741 3.32588 24 7.42857 24H16.5714C20.6741 24 24 20.6741 24 16.5714V7.42857C24 3.32588 20.6741 0 16.5714 0H7.42857C3.32588 0 0 3.32588 0 7.42857ZM7.54193 9.34509H8.39551V8.97887C8.39551 7.05765 9.95315 5.5 11.8744 5.5C13.7956 5.5 15.3533 7.05765 15.3533 8.97887V9.34509H16.4391C17.107 9.34509 17.6623 9.85732 17.7165 10.5223L18.2758 16.3307C18.3665 17.5011 17.4408 18.5 16.2677 18.5H7.71331C6.53995 18.5 5.61561 17.501 5.70523 16.3319L5.70615 16.3212L6.26452 10.5231C6.31863 9.85765 6.87366 9.34509 7.54193 9.34509ZM9.4941 9.34509H14.2547V8.97887C14.2547 7.66438 13.1889 6.59859 11.8744 6.59859C10.5599 6.59859 9.4941 7.66438 9.4941 8.97887V9.34509Z" fill="black"/>
</svg>
