<svg width="24" height="24" viewBox="0 0 24 24" fill="none" xmlns="http://www.w3.org/2000/svg">
<path d="M7.42857 0C3.32588 0 0 3.32588 0 7.42857V16.5714C0 20.6741 3.32588 24 7.42857 24H16.5714C20.6741 24 24 20.6741 24 16.5714V7.42857C24 3.32588 20.6741 0 16.5714 0H7.42857ZM16.5 6.55005C17.8807 6.55005 19 7.66934 19 9.05005V14.9389C19 16.3196 17.8807 17.4389 16.5 17.4389H11.8221V6.55005H16.5ZM7.5 6.55005H10.6221V17.4389H7.5C6.11929 17.4389 5 16.3196 5 14.9389V9.05005C5 7.66934 6.11929 6.55005 7.5 6.55005ZM7.00039 10.2278C6.66902 10.2278 6.40039 10.4964 6.40039 10.8278C6.40039 11.1592 6.66902 11.4278 7.00039 11.4278H8.55595C8.88732 11.4278 9.15595 11.1592 9.15595 10.8278C9.15595 10.4964 8.88732 10.2278 8.55595 10.2278H7.00039ZM6.40039 13.1612C6.40039 13.4925 6.66902 13.7612 7.00039 13.7612H8.55595C8.88732 13.7612 9.15595 13.4925 9.15595 13.1612C9.15595 12.8298 8.88732 12.5612 8.55595 12.5612H7.00039C6.66902 12.5612 6.40039 12.8298 6.40039 13.1612Z" fill="black"/>
</svg>
