<svg width="24" height="24" viewBox="0 0 24 24" fill="none" xmlns="http://www.w3.org/2000/svg">
<path d="M7.42857 0C3.32588 0 0 3.32588 0 7.42857V16.5714C0 20.6741 3.32588 24 7.42857 24H16.5714C20.6741 24 24 20.6741 24 16.5714V7.42857C24 3.32588 20.6741 0 16.5714 0H7.42857ZM7.79922 7.72223V16.2778C7.79922 16.511 7.98825 16.7 8.22144 16.7H10.6659C11.1077 16.7 11.4659 17.0582 11.4659 17.5C11.4659 17.9418 11.1077 18.3 10.6659 18.3H8.22144C7.1046 18.3 6.19922 17.3946 6.19922 16.2778V7.72223C6.19922 6.60539 7.1046 5.70001 8.22144 5.70001H10.6659C11.1077 5.70001 11.4659 6.05818 11.4659 6.50001C11.4659 6.94184 11.1077 7.30001 10.6659 7.30001H8.22144C7.98825 7.30001 7.79922 7.48905 7.79922 7.72223ZM14.3788 8.37769C14.6913 8.06527 15.1978 8.06527 15.5102 8.37769L18.5658 11.4332C18.8782 11.7457 18.8782 12.2522 18.5658 12.5646L15.5102 15.6202C15.1978 15.9326 14.6913 15.9326 14.3788 15.6202C14.0664 15.3077 14.0664 14.8012 14.3788 14.4888L16.0676 12.8H10.6652C10.2234 12.8 9.86523 12.4418 9.86523 12C9.86523 11.5582 10.2234 11.2 10.6652 11.2H16.0698L14.3788 9.50906C14.0664 9.19664 14.0664 8.69011 14.3788 8.37769Z" fill="black"/>
</svg>
