<svg width="24" height="24" viewBox="0 0 24 24" fill="none" xmlns="http://www.w3.org/2000/svg">
<path d="M7.42857 0C3.32588 0 0 3.32588 0 7.42857V16.5714C0 20.6741 3.32588 24 7.42857 24H16.5714C20.6741 24 24 20.6741 24 16.5714V7.42857C24 3.32588 20.6741 0 16.5714 0H7.42857ZM8.5657 6.93451L12.5449 10.9137V9.60195C12.5449 9.27058 12.8136 9.00195 13.1449 9.00195H14.1267C14.4581 9.00195 14.7267 9.27058 14.7267 9.60195V13.0956L15.8184 14.1872V7.42031C15.8184 7.08894 16.087 6.82031 16.4184 6.82031H17.4002C17.7315 6.82031 18.0002 7.08894 18.0002 7.42031V16.369L18.7316 17.1004C19.044 17.4129 19.044 17.9194 18.7316 18.2318C18.4793 18.4841 18.1005 18.5327 17.7995 18.3775C17.7788 18.3507 17.7562 18.325 17.7316 18.3004L7.56569 8.13451C7.50555 8.07437 7.43822 8.02581 7.36647 7.98883C7.12384 7.67506 7.14646 7.22238 7.43433 6.93451C7.74675 6.62209 8.25328 6.62209 8.5657 6.93451ZM9.27246 12.3285C9.27246 12.2611 9.28359 12.1962 9.30412 12.1357L11.4543 14.2858V16.5831C11.4543 16.9144 11.1856 17.1831 10.8543 17.1831H9.87246C9.54109 17.1831 9.27246 16.9144 9.27246 16.5831V12.3285ZM12.5449 16.5838V15.3765L14.3203 17.1519C14.2596 17.1726 14.1945 17.1838 14.1267 17.1838H13.1449C12.8136 17.1838 12.5449 16.9151 12.5449 16.5838ZM8.18182 16.5839C8.18182 16.9152 7.91319 17.1839 7.58182 17.1839H6.6C6.26863 17.1839 6 16.9152 6 16.5839V14.5111C6 14.1798 6.26863 13.9111 6.6 13.9111H7.58182C7.91319 13.9111 8.18182 14.1798 8.18182 14.5111V16.5839Z" fill="black"/>
</svg>
