<svg width="24" height="24" viewBox="0 0 24 24" fill="none" xmlns="http://www.w3.org/2000/svg">
<path d="M7.42857 0C3.32588 0 0 3.32588 0 7.42857V16.5714C0 20.6741 3.32588 24 7.42857 24H16.5714C20.6741 24 24 20.6741 24 16.5714V7.42857C24 3.32588 20.6741 0 16.5714 0H7.42857ZM13.3332 5.70001H15.7776C16.8945 5.70001 17.7999 6.60539 17.7999 7.72223V16.2778C17.7999 17.3946 16.8945 18.3 15.7776 18.3H13.3332C12.8914 18.3 12.5332 17.9418 12.5332 17.5C12.5332 17.0582 12.8914 16.7 13.3332 16.7H15.7776C16.0108 16.7 16.1999 16.511 16.1999 16.2778V7.72223C16.1999 7.48905 16.0108 7.30001 15.7776 7.30001H13.3332C12.8914 7.30001 12.5332 6.94184 12.5332 6.50001C12.5332 6.05818 12.8914 5.70001 13.3332 5.70001ZM9.71088 8.37769C10.0233 8.06527 10.5298 8.06527 10.8422 8.37769L13.8978 11.4332C13.9763 11.5117 14.0351 11.6025 14.0741 11.6993C14.1118 11.7921 14.1326 11.8936 14.1326 12C14.1326 12.2359 14.0305 12.4479 13.8681 12.5943L10.8422 15.6202C10.5298 15.9326 10.0233 15.9326 9.71088 15.6202C9.39846 15.3077 9.39846 14.8012 9.71088 14.4888L11.3997 12.8H5.99922C5.55739 12.8 5.19922 12.4418 5.19922 12C5.19922 11.5582 5.55739 11.2 5.99922 11.2H11.4018L9.71088 9.50906C9.39846 9.19664 9.39846 8.69011 9.71088 8.37769Z" fill="black"/>
</svg>
