<svg width="24" height="24" viewBox="0 0 24 24" fill="none" xmlns="http://www.w3.org/2000/svg">
<path d="M0 7.42857V16.5714C0 20.6741 3.32588 24 7.42857 24H16.5714C20.6741 24 24 20.6741 24 16.5714V7.42857C24 3.32588 20.6741 0 16.5714 0H7.42857C3.32588 0 0 3.32588 0 7.42857ZM11.4546 16.5837C11.4546 16.915 11.186 17.1837 10.8546 17.1837H9.87283C9.54146 17.1837 9.27283 16.915 9.27283 16.5837V12.3291C9.27283 11.9978 9.54146 11.7291 9.87283 11.7291H10.8546C11.186 11.7291 11.4546 11.9978 11.4546 12.3291V16.5837ZM7.58182 17.1835H6.6C6.26863 17.1835 6 16.9149 6 16.5835V14.5108C6 14.1794 6.26863 13.9108 6.6 13.9108H7.58182C7.91319 13.9108 8.18182 14.1794 8.18182 14.5108V16.5835C8.18182 16.9149 7.91319 17.1835 7.58182 17.1835Z" fill="black"/>
</svg>
