<svg width="24" height="24" viewBox="0 0 24 24" fill="none" xmlns="http://www.w3.org/2000/svg">
<path d="M0 7.42857V16.5714C0 20.6741 3.32588 24 7.42857 24H16.5714C20.6741 24 24 20.6741 24 16.5714V7.42857C24 3.32588 20.6741 0 16.5714 0H7.42857C3.32588 0 0 3.32588 0 7.42857ZM14.7272 16.5837C14.7272 16.915 14.4586 17.1837 14.1272 17.1837H13.1454C12.814 17.1837 12.5454 16.915 12.5454 16.5837V9.60183C12.5454 9.27046 12.814 9.00183 13.1454 9.00183H14.1272C14.4586 9.00183 14.7272 9.27046 14.7272 9.60183V16.5837ZM17.4 17.1836H16.4182C16.0868 17.1836 15.8182 16.915 15.8182 16.5836V7.41995C15.8182 7.08858 16.0868 6.81995 16.4182 6.81995H17.4C17.7314 6.81995 18 7.08858 18 7.41995V16.5836C18 16.915 17.7314 17.1836 17.4 17.1836ZM11.4546 16.5837C11.4546 16.915 11.186 17.1837 10.8546 17.1837H9.87283C9.54146 17.1837 9.27283 16.915 9.27283 16.5837V12.3291C9.27283 11.9978 9.54146 11.7291 9.87283 11.7291H10.8546C11.186 11.7291 11.4546 11.9978 11.4546 12.3291V16.5837ZM7.58182 17.1835H6.6C6.26863 17.1835 6 16.9149 6 16.5835V14.5108C6 14.1794 6.26863 13.9108 6.6 13.9108H7.58182C7.91319 13.9108 8.18182 14.1794 8.18182 14.5108V16.5835C8.18182 16.9149 7.91319 17.1835 7.58182 17.1835Z" fill="black"/>
</svg>
