<svg width="24" height="24" viewBox="0 0 24 24" fill="none" xmlns="http://www.w3.org/2000/svg">
<path d="M0 16.5714C0 20.6741 3.32588 24 7.42857 24H16.5714C20.6741 24 24 20.6741 24 16.5714V7.42857C24 3.32588 20.6741 0 16.5714 0H7.42857C3.32588 0 0 3.32588 0 7.42857V16.5714ZM7.89414 6.5993C7.89414 6.24032 8.18516 5.94931 8.54414 5.94931C8.90313 5.94931 9.19414 6.24032 9.19414 6.5993V13.894H11.09C11.4135 13.894 11.7052 14.0889 11.8291 14.3878C11.9529 14.6868 11.8844 15.0308 11.6556 15.2596L9.1102 17.8049C8.79778 18.1174 8.29125 18.1174 7.97883 17.8049L5.43353 15.2596C5.35683 15.1829 5.29896 15.0945 5.25992 15.0002C5.2211 14.9066 5.19954 14.804 5.19922 14.6964L5.19922 14.694L5.19922 14.6916C5.19983 14.4876 5.27793 14.2839 5.43353 14.1283C5.51049 14.0513 5.59922 13.9933 5.69393 13.9543C5.788 13.9154 5.89111 13.894 5.99922 13.894H6.00046H7.89414V6.5993ZM15.08 9.08828H15.8068L15.444 8.24434L15.08 9.08828ZM13.5072 9.45221L14.8343 6.37567C14.8937 6.21387 15.017 6.07589 15.1878 6.00245C15.2719 5.96633 15.3593 5.9493 15.4453 5.94945C15.5314 5.94936 15.619 5.96649 15.7031 6.00277C15.8738 6.07644 15.9969 6.21459 16.0561 6.37647L17.3701 9.43311C17.3869 9.46469 17.4012 9.49782 17.4127 9.53224L17.6855 10.1668C17.8272 10.4966 17.6748 10.8789 17.345 11.0207C17.0152 11.1625 16.6329 11.01 16.4911 10.6802L16.3656 10.3883H14.5192L14.3929 10.681C14.2507 11.0106 13.8683 11.1625 13.5386 11.0204C13.209 10.8782 13.0571 10.4957 13.1993 10.1661L13.482 9.5105C13.4895 9.49058 13.4979 9.47114 13.5072 9.45221ZM13.7961 12.8031H17.0896C17.3443 12.8031 17.5756 12.9519 17.6811 13.1836C17.7867 13.4154 17.7472 13.6875 17.5801 13.8797L15.2228 16.5901H17.0896C17.4486 16.5901 17.7396 16.8811 17.7396 17.2401C17.7396 17.5991 17.4486 17.8901 17.0896 17.8901H13.7961C13.5414 17.8901 13.3102 17.7414 13.2046 17.5096C13.099 17.2778 13.1385 17.0058 13.3056 16.8136L15.6629 14.1031H13.7961C13.4371 14.1031 13.1461 13.8121 13.1461 13.4531C13.1461 13.0941 13.4371 12.8031 13.7961 12.8031Z" fill="black"/>
</svg>
