<svg width="24" height="24" viewBox="0 0 24 24" fill="none" xmlns="http://www.w3.org/2000/svg">
<path d="M0 16.5714C0 20.6741 3.32588 24 7.42857 24H16.5714C20.6741 24 24 20.6741 24 16.5714V7.42857C24 3.32588 20.6741 0 16.5714 0H7.42857C3.32588 0 0 3.32588 0 7.42857V16.5714ZM16.4759 6C16.5621 5.99989 16.6498 6.01702 16.7339 6.05333C16.9047 6.12699 17.0278 6.26514 17.087 6.42701L18.4016 9.48524C18.4178 9.51582 18.4316 9.54785 18.4428 9.58108L18.7163 10.2174C18.8581 10.5472 18.7057 10.9295 18.3759 11.0712C18.0461 11.213 17.6638 11.0606 17.522 10.7308L17.3965 10.4388H15.5501L15.4238 10.7315C15.2816 11.0612 14.8991 11.2131 14.5695 11.0709C14.2399 10.9287 14.0879 10.5462 14.2301 10.2166L14.5117 9.5639C14.5198 9.54202 14.529 9.5207 14.5392 9.50001L15.8652 6.42623C15.9246 6.26443 16.0479 6.12645 16.2187 6.053C16.3027 6.01691 16.39 5.99989 16.4759 6ZM16.4749 8.29489L16.1108 9.13883H16.8377L16.4749 8.29489ZM11.8613 9.89882C11.7383 10.1995 11.4457 10.3959 11.1209 10.3959H9.22563V17.6905C9.22563 18.0495 8.93461 18.3405 8.57562 18.3405C8.21664 18.3405 7.92562 18.0495 7.92562 17.6905V10.3959H6.03017C5.7066 10.3959 5.41489 10.201 5.29106 9.90203C5.16724 9.60309 5.23568 9.25899 5.46448 9.0302L7.83015 6.66453C7.8646 6.60206 7.90804 6.5432 7.9605 6.48983C8.1227 6.32479 8.33889 6.24498 8.55329 6.25089C8.76536 6.24504 8.9793 6.32305 9.14115 6.4849C9.19382 6.53757 9.23761 6.59576 9.27252 6.6576L11.6817 9.02531C11.9133 9.253 11.9843 9.59818 11.8613 9.89882ZM14.1768 13.5037C14.1768 13.1447 14.4678 12.8537 14.8268 12.8537H18.1204C18.375 12.8537 18.6063 13.0024 18.7119 13.2342C18.8175 13.466 18.778 13.738 18.6108 13.9302L16.2535 16.6407H18.1204C18.4793 16.6407 18.7704 16.9317 18.7704 17.2907C18.7704 17.6497 18.4793 17.9407 18.1204 17.9407H14.8268C14.5721 17.9407 14.3409 17.7919 14.2353 17.5602C14.1297 17.3284 14.1692 17.0563 14.3363 16.8641L16.6936 14.1537H14.8268C14.4678 14.1537 14.1768 13.8627 14.1768 13.5037Z" fill="black"/>
</svg>
