<svg width="24" height="24" viewBox="0 0 24 24" fill="none" xmlns="http://www.w3.org/2000/svg">
<path d="M0 16.5714C0 20.6741 3.32588 24 7.42857 24H16.5714C20.6741 24 24 20.6741 24 16.5714V7.42857C24 3.32588 20.6741 0 16.5714 0H7.42857C3.32588 0 0 3.32588 0 7.42857V16.5714ZM8.94883 12.7155H10.2972C10.641 12.7155 10.951 12.9226 11.0825 13.2402C11.2141 13.5578 11.1414 13.9234 10.8983 14.1665L8.74979 16.3149C8.41784 16.6469 7.87965 16.6469 7.54771 16.3149L5.39935 14.1665C5.23338 14.0006 5.15039 13.783 5.15039 13.5655C5.15039 13.4503 5.17333 13.3404 5.21489 13.2401C5.25542 13.1422 5.31507 13.0502 5.39383 12.97L5.40492 12.9589C5.48446 12.8808 5.57555 12.8215 5.67263 12.781C5.7735 12.7388 5.88422 12.7155 6.00039 12.7155H7.34883V8.28135C7.34883 7.83953 7.707 7.48136 8.14883 7.48136C8.59066 7.48136 8.94883 7.83953 8.94883 8.28135V12.7155ZM12.5805 7.86775H17.9998C18.4416 7.86775 18.7998 8.22592 18.7998 8.66775C18.7998 9.10957 18.4416 9.46775 17.9998 9.46775H12.5805C12.1386 9.46775 11.7805 9.10957 11.7805 8.66775C11.7805 8.22592 12.1386 7.86775 12.5805 7.86775ZM12.5805 11.3511H17.9998C18.4416 11.3511 18.7998 11.7093 18.7998 12.1511C18.7998 12.593 18.4416 12.9511 17.9998 12.9511H12.5805C12.1386 12.9511 11.7805 12.593 11.7805 12.1511C11.7805 11.7093 12.1386 11.3511 12.5805 11.3511ZM11.7805 15.6355C11.7805 15.1937 12.1386 14.8355 12.5805 14.8355H17.9998C18.4416 14.8355 18.7998 15.1937 18.7998 15.6355C18.7998 16.0773 18.4416 16.4355 17.9998 16.4355H12.5805C12.1386 16.4355 11.7805 16.0773 11.7805 15.6355Z" fill="black"/>
</svg>
