<svg width="24" height="24" viewBox="0 0 24 24" fill="none" xmlns="http://www.w3.org/2000/svg">
<path d="M7.42857 24H16.5714C20.6741 24 24 20.6741 24 16.5714V7.42857C24 3.32588 20.6741 0 16.5714 0H7.42857C3.32588 0 0 3.32588 0 7.42857V16.5714C0 20.6741 3.32588 24 7.42857 24ZM16.879 9.85648C17.383 10.3605 17.0261 11.2222 16.3133 11.2222H7.73129C7.01857 11.2222 6.66163 10.3605 7.16561 9.85648L11.3152 5.70688C11.7057 5.31636 12.3389 5.31636 12.7294 5.70688L16.879 9.85648ZM7.73159 12.7773H16.3136C17.0264 12.7773 17.3833 13.6391 16.8793 14.143L12.7297 18.2926C12.3392 18.6832 11.706 18.6832 11.3155 18.2926L7.1659 14.143C6.66193 13.6391 7.01887 12.7773 7.73159 12.7773Z" fill="black"/>
</svg>
