<svg width="24" height="24" viewBox="0 0 24 24" fill="none" xmlns="http://www.w3.org/2000/svg">
<path d="M7.42857 0C3.32588 0 0 3.32588 0 7.42857V16.5714C0 20.6741 3.32588 24 7.42857 24H16.5714C20.6741 24 24 20.6741 24 16.5714V7.42857C24 3.32588 20.6741 0 16.5714 0H7.42857ZM8.93994 5H15.0511C16.1556 5 17.0511 5.89543 17.0511 7V17C17.0511 18.1046 16.1556 19 15.0511 19H8.93994C7.83537 19 6.93994 18.1046 6.93994 17V7C6.93994 5.89543 7.83537 5 8.93994 5ZM11.9954 16.6667C13.2841 16.6667 14.3288 15.622 14.3288 14.3333C14.3288 13.0447 13.2841 12 11.9954 12C10.7068 12 9.66211 13.0447 9.66211 14.3333C9.66211 15.622 10.7068 16.6667 11.9954 16.6667ZM12.7733 8.11103C12.7733 7.68147 12.4251 7.33325 11.9956 7.33325C11.566 7.33325 11.2178 7.68147 11.2178 8.11103C11.2178 8.54058 11.566 8.88881 11.9956 8.88881C12.4251 8.88881 12.7733 8.54058 12.7733 8.11103Z" fill="black"/>
</svg>
