<svg width="24" height="24" viewBox="0 0 24 24" fill="none" xmlns="http://www.w3.org/2000/svg">
<path d="M7.42857 0C3.32588 0 0 3.32588 0 7.42857V16.5714C0 20.6741 3.32588 24 7.42857 24H16.5714C20.6741 24 24 20.6741 24 16.5714V7.42857C24 3.32588 20.6741 0 16.5714 0H7.42857ZM12.2026 3.51393C16.5349 4.10464 19.8725 7.81672 19.8725 12.3108C19.8725 13.9255 19.4401 15.4438 18.6838 16.7513C18.269 17.4684 17.3514 17.7134 16.6343 17.2986C15.9172 16.8838 15.6721 15.9662 16.087 15.2491C16.5863 14.3859 16.8725 13.3841 16.8725 12.3108C16.8725 9.33728 14.6634 6.87721 11.7973 6.48643C10.9765 6.37451 10.4018 5.61836 10.5137 4.79753C10.6257 3.9767 11.3818 3.40201 12.2026 3.51393Z" fill="black"/>
</svg>
