<svg width="24" height="24" viewBox="0 0 24 24" fill="none" xmlns="http://www.w3.org/2000/svg">
<path d="M0 7.42857V16.5714C0 20.6741 3.32588 24 7.42857 24H16.5714C20.6741 24 24 20.6741 24 16.5714V7.42857C24 3.32588 20.6741 0 16.5714 0H7.42857C3.32588 0 0 3.32588 0 7.42857ZM12 4.25C12.4142 4.25 12.75 4.58579 12.75 5V7.33333C12.75 7.74755 12.4142 8.08333 12 8.08333C11.5858 8.08333 11.25 7.74755 11.25 7.33333V5C11.25 4.58579 11.5858 4.25 12 4.25ZM16.1496 6.31583L14.983 8.33805C14.776 8.69684 14.3173 8.81989 13.9586 8.6129C13.5998 8.40591 13.4767 7.94726 13.6837 7.58847L14.8504 5.56625C15.0574 5.20746 15.516 5.08441 15.8748 5.2914C16.2336 5.49839 16.3566 5.95705 16.1496 6.31583ZM18.7085 8.12521C18.9155 8.48399 18.7924 8.94265 18.4336 9.14964L16.4114 10.3163C16.0526 10.5233 15.594 10.4002 15.387 10.0415C15.18 9.68267 15.303 9.22402 15.6618 9.01703L17.6841 7.85036C18.0428 7.64337 18.5015 7.76642 18.7085 8.12521ZM16.6667 11.25H19C19.4142 11.25 19.75 11.5858 19.75 12C19.75 12.4142 19.4142 12.75 19 12.75H16.6667C16.2524 12.75 15.9167 12.4142 15.9167 12C15.9167 11.5858 16.2524 11.25 16.6667 11.25ZM4.25 12C4.25 11.5858 4.58579 11.25 5 11.25H7.33333C7.74755 11.25 8.08333 11.5858 8.08333 12C8.08333 12.4142 7.74755 12.75 7.33333 12.75H5C4.58579 12.75 4.25 12.4142 4.25 12ZM6.31586 7.85036L8.33808 9.01703C8.69687 9.22402 8.81992 9.68267 8.61293 10.0415C8.40594 10.4002 7.94729 10.5233 7.5885 10.3163L5.56628 9.14964C5.20749 8.94265 5.08444 8.48399 5.29143 8.12521C5.49842 7.76642 5.95708 7.64337 6.31586 7.85036ZM8.12521 5.2914C8.48399 5.08441 8.94265 5.20746 9.14964 5.56625L10.3163 7.58847C10.5233 7.94726 10.4002 8.40591 10.0415 8.6129C9.68267 8.81989 9.22402 8.69684 9.01703 8.33805L7.85036 6.31583C7.64337 5.95705 7.76642 5.49839 8.12521 5.2914ZM12.75 16.6666V19C12.75 19.4142 12.4142 19.75 12 19.75C11.5858 19.75 11.25 19.4142 11.25 19V16.6666C11.25 16.2524 11.5858 15.9166 12 15.9166C12.4142 15.9166 12.75 16.2524 12.75 16.6666ZM10.0415 15.387C10.4002 15.594 10.5233 16.0526 10.3163 16.4114L9.14964 18.4336C8.94265 18.7924 8.48399 18.9155 8.12521 18.7085C7.76642 18.5015 7.64337 18.0428 7.85036 17.6841L9.01703 15.6618C9.22402 15.303 9.68267 15.18 10.0415 15.387ZM8.33808 14.983L6.31586 16.1497C5.95708 16.3567 5.49842 16.2336 5.29143 15.8748C5.08444 15.516 5.20749 15.0574 5.56628 14.8504L7.5885 13.6837C7.94729 13.4767 8.40594 13.5998 8.61293 13.9586C8.81992 14.3174 8.69687 14.776 8.33808 14.983ZM15.387 13.9586C15.594 13.5998 16.0526 13.4767 16.4114 13.6837L18.4336 14.8504C18.7924 15.0574 18.9155 15.516 18.7085 15.8748C18.5015 16.2336 18.0428 16.3567 17.6841 16.1497L15.6618 14.983C15.303 14.776 15.18 14.3174 15.387 13.9586ZM14.983 15.6618L16.1496 17.6841C16.3566 18.0428 16.2336 18.5015 15.8748 18.7085C15.516 18.9155 15.0574 18.7924 14.8504 18.4336L13.6837 16.4114C13.4767 16.0526 13.5998 15.594 13.9586 15.387C14.3173 15.18 14.776 15.303 14.983 15.6618Z" fill="black"/>
</svg>
