<svg width="24" height="24" viewBox="0 0 24 24" fill="none" xmlns="http://www.w3.org/2000/svg">
<path d="M0 16.5714C0 20.6741 3.32588 24 7.42857 24H16.5714C20.6741 24 24 20.6741 24 16.5714V7.42857C24 3.32588 20.6741 0 16.5714 0H7.42857C3.32588 0 0 3.32588 0 7.42857V16.5714ZM9.30877 9.68861C9.63805 9.638 9.92051 9.42673 10.0621 9.12515L11.046 7.02919L11.546 5.96405C11.7259 5.58067 12.2712 5.58067 12.4512 5.96405L13.9351 9.12515C14.0767 9.42673 14.3591 9.638 14.6884 9.68861L18.0374 10.2033C18.4396 10.2652 18.6035 10.7557 18.3192 11.0468L15.8513 13.5745C15.6295 13.8016 15.5288 14.1207 15.5799 14.434L16.1588 17.9834C16.226 18.3954 15.7886 18.7035 15.4234 18.5015L12.4825 16.8752C12.1814 16.7087 11.8158 16.7087 11.5147 16.8752L11.4825 16.893L9.47504 18.0031L9.47472 18.0033L8.57381 18.5015C8.20853 18.7035 7.77118 18.3954 7.83837 17.9835L8.004 16.968L8.00416 16.967L8.41731 14.434L8.41751 14.4328C8.46815 14.1198 8.36738 13.8013 8.14585 13.5745L6.35728 11.7426L6.35678 11.7421L5.67794 11.0468C5.39371 10.7557 5.55761 10.2652 5.95973 10.2033L6.92087 10.0556L9.30877 9.68861ZM11.9986 15.2504C12.4153 15.2504 12.832 15.3544 13.2084 15.5626L14.3468 16.1921L14.0994 14.6755C13.9716 13.8921 14.2235 13.0945 14.7781 12.5265L15.8873 11.3905L14.4605 11.1712C13.6373 11.0447 12.9312 10.5165 12.5773 9.76255L11.9986 8.52983V15.2504Z" fill="black"/>
</svg>
