<svg width="24" height="24" viewBox="0 0 24 24" fill="none" xmlns="http://www.w3.org/2000/svg">
<path d="M7.42857 0C3.32588 0 0 3.32588 0 7.42857V16.5714C0 20.6741 3.32588 24 7.42857 24H16.5714C20.6741 24 24 20.6741 24 16.5714V7.42857C24 3.32588 20.6741 0 16.5714 0H7.42857ZM13.1403 8.55991L12.65 8.06942V9.91176C12.65 10.2707 12.359 10.5618 12 10.5618C11.641 10.5618 11.35 10.2707 11.35 9.91176V8.06964L10.8596 8.55999C10.6058 8.81383 10.1942 8.81383 9.94038 8.55999C9.68654 8.30615 9.68654 7.89459 9.94038 7.64075L11.5407 6.04048C11.6626 5.91857 11.8279 5.85008 12.0003 5.8501C12.1727 5.85011 12.3381 5.91862 12.46 6.04056L14.0597 7.64083C14.3135 7.89472 14.3134 8.30627 14.0595 8.56007C13.8057 8.81387 13.3941 8.8138 13.1403 8.55991ZM7.28584 10.4521C7.53968 10.1983 7.95124 10.1983 8.20508 10.4521L8.5869 10.8339C8.84074 11.0878 8.84074 11.4993 8.5869 11.7532C8.33306 12.007 7.9215 12.007 7.66766 11.7532L7.28584 11.3713C7.032 11.1175 7.032 10.7059 7.28584 10.4521ZM5.34998 15.1664C5.34998 14.8074 5.64099 14.5164 5.99998 14.5164H6.54543C6.90442 14.5164 7.19543 14.8074 7.19543 15.1664C7.19543 15.5253 6.90442 15.8164 6.54543 15.8164H5.99998C5.64099 15.8164 5.34998 15.5253 5.34998 15.1664ZM16.7141 10.4521C16.9679 10.7059 16.9679 11.1175 16.7141 11.3713L16.3323 11.7532C16.0784 12.007 15.6669 12.007 15.413 11.7532C15.1592 11.4993 15.1592 11.0878 15.413 10.8339L15.7949 10.4521C16.0487 10.1983 16.4603 10.1983 16.7141 10.4521ZM17.4546 14.5164H18C18.359 14.5164 18.65 14.8074 18.65 15.1664C18.65 15.5253 18.359 15.8164 18 15.8164H17.4546C17.0956 15.8164 16.8046 15.5253 16.8046 15.1664C16.8046 14.8074 17.0956 14.5164 17.4546 14.5164ZM5.34998 17.3482C5.34998 16.9893 5.64099 16.6982 5.99998 16.6982H18C18.359 16.6982 18.65 16.9893 18.65 17.3482C18.65 17.7072 18.359 17.9982 18 17.9982H5.99998C5.64099 17.9982 5.34998 17.7072 5.34998 17.3482ZM15.8667 15.6333H8.13333C8.0597 15.6333 8 15.5736 8 15.5C8 13.2909 9.79086 11.5 12 11.5C14.2091 11.5 16 13.2909 16 15.5C16 15.5736 15.9403 15.6333 15.8667 15.6333Z" fill="black"/>
</svg>
