<svg width="24" height="24" viewBox="0 0 24 24" fill="none" xmlns="http://www.w3.org/2000/svg">
<path d="M0 16.5714C0 20.6741 3.32588 24 7.42857 24H16.5714C20.6741 24 24 20.6741 24 16.5714V7.42857C24 3.32588 20.6741 0 16.5714 0H7.42857C3.32588 0 0 3.32588 0 7.42857V16.5714ZM12.9425 4.46967L14.3425 5.86965C14.4832 6.0103 14.5622 6.20106 14.5622 6.39998C14.5622 6.59889 14.4832 6.78965 14.3425 6.93031L14.1311 7.14172C14.1195 7.1541 14.1076 7.16607 14.0952 7.1776L12.9425 8.33028C12.6496 8.62317 12.1748 8.62317 11.8819 8.33028C11.589 8.03739 11.589 7.56251 11.8819 7.26962L12.0018 7.1497L11.9999 7.1497C9.32157 7.1497 7.15 9.32127 7.15 11.9996C7.15 12.7221 7.30802 13.4056 7.59054 14.0197C7.76366 14.396 7.59896 14.8414 7.22266 15.0145C6.84637 15.1876 6.40097 15.0229 6.22784 14.6466C5.85682 13.8402 5.65 12.9432 5.65 11.9996C5.65 8.49284 8.49314 5.6497 11.9999 5.6497L12.0012 5.6497L11.8819 5.53033C11.589 5.23744 11.589 4.76257 11.8819 4.46967C12.1748 4.17678 12.6496 4.17678 12.9425 4.46967ZM17.7697 9.35196C18.1417 10.158 18.3494 11.0549 18.3494 11.9995C18.3494 15.5062 15.5062 18.3494 11.9995 18.3494L11.9957 18.3494L12.116 18.4697C12.4089 18.7626 12.4089 19.2374 12.116 19.5303C11.8231 19.8232 11.3482 19.8232 11.0553 19.5303L9.65537 18.1304C9.36248 17.8375 9.36248 17.3626 9.65537 17.0697L11.0553 15.6697C11.3482 15.3768 11.8231 15.3768 12.116 15.6697C12.4089 15.9626 12.4089 16.4375 12.116 16.7304L11.997 16.8494L11.9995 16.8494C14.6778 16.8494 16.8494 14.6778 16.8494 11.9995C16.8494 11.2768 16.6909 10.594 16.4078 9.98047C16.2342 9.60438 16.3984 9.15879 16.7745 8.98523C17.1506 8.81167 17.5962 8.97586 17.7697 9.35196Z" fill="black"/>
</svg>
