<svg width="24" height="24" viewBox="0 0 24 24" fill="none" xmlns="http://www.w3.org/2000/svg">
<path d="M7.42857 0C3.32588 0 0 3.32588 0 7.42857V16.5714C0 20.6741 3.32588 24 7.42857 24H16.5714C20.6741 24 24 20.6741 24 16.5714V7.42857C24 3.32588 20.6741 0 16.5714 0H7.42857ZM15.3333 7H8.5C8.22386 7 8 7.22386 8 7.5V15.9717H15.8333V7.5C15.8333 7.22386 15.6095 7 15.3333 7ZM8.5 5.5H15.3333C16.4379 5.5 17.3333 6.39543 17.3333 7.5V16.5C17.3333 17.6046 16.4379 18.5 15.3333 18.5H8.5C7.39543 18.5 6.5 17.6046 6.5 16.5V7.5C6.5 6.39543 7.39543 5.5 8.5 5.5ZM12.5305 17.2369C12.5305 16.8979 12.2557 16.623 11.9166 16.623C11.5776 16.623 11.3027 16.8979 11.3027 17.2369C11.3027 17.576 11.5776 17.8508 11.9166 17.8508C12.2557 17.8508 12.5305 17.576 12.5305 17.2369Z" fill="black"/>
</svg>
