<svg width="24" height="24" viewBox="0 0 24 24" fill="none" xmlns="http://www.w3.org/2000/svg">
<path d="M0 16.5714C0 20.6741 3.32588 24 7.42857 24H16.5714C20.6741 24 24 20.6741 24 16.5714V7.42857C24 3.32588 20.6741 0 16.5714 0H7.42857C3.32588 0 0 3.32588 0 7.42857V16.5714ZM11.79 5.5C12.3216 5.5 12.8312 5.71159 13.2065 6.08804L18.122 11.0192C18.9049 11.8046 18.8994 13.077 18.1097 13.8555L13.7977 18.1063C13.0152 18.8777 11.757 18.8734 10.9798 18.0966L6.08617 13.2056C5.71086 12.8305 5.5 12.3217 5.5 11.791V7.5C5.5 6.39543 6.39543 5.5 7.5 5.5H11.79ZM9.49909 10.3541C9.97106 10.3541 10.3537 9.97155 10.3537 9.49958C10.3537 9.02762 9.97106 8.64502 9.49909 8.64502C9.02713 8.64502 8.64453 9.02762 8.64453 9.49958C8.64453 9.97155 9.02713 10.3541 9.49909 10.3541Z" fill="black"/>
</svg>
