<svg width="24" height="24" viewBox="0 0 24 24" fill="none" xmlns="http://www.w3.org/2000/svg">
<path d="M24 16.5714V7.42857C24 3.32588 20.6741 0 16.5714 0H7.42857C3.32588 0 0 3.32588 0 7.42857V16.5714C0 20.6741 3.32588 24 7.42857 24H16.5714C20.6741 24 24 20.6741 24 16.5714ZM11.0137 15.6923C11.0137 15.2505 11.3718 14.8923 11.8137 14.8923H16.9989C17.4407 14.8923 17.7989 15.2505 17.7989 15.6923C17.7989 16.1342 17.4407 16.4923 16.9989 16.4923H11.8137C11.3718 16.4923 11.0137 16.1342 11.0137 15.6923ZM7.57548 7.44504L11.2792 11.2912C11.5775 11.601 11.5775 12.0912 11.2792 12.401L7.57548 16.2472C7.26901 16.5654 6.76257 16.575 6.44431 16.2685C6.12605 15.962 6.1165 15.4556 6.42297 15.1373L9.59231 11.8461L6.42297 8.55487C6.1165 8.23661 6.12605 7.73017 6.44431 7.4237C6.76257 7.11723 7.26901 7.12678 7.57548 7.44504Z" fill="black"/>
</svg>
