<svg width="24" height="24" viewBox="0 0 24 24" fill="none" xmlns="http://www.w3.org/2000/svg">
<path d="M7.42857 0C3.32588 0 0 3.32588 0 7.42857V16.5714C0 20.6741 3.32588 24 7.42857 24H16.5714C20.6741 24 24 20.6741 24 16.5714V7.42857C24 3.32588 20.6741 0 16.5714 0H7.42857ZM13.267 5.50079C13.5771 5.81083 13.7678 6.24252 13.7678 6.73375V12.9436C13.7678 13.2737 13.9393 13.5743 14.1735 13.8069C14.3614 13.9935 14.5249 14.206 14.6588 14.4382C14.9194 14.8899 15.0681 15.4155 15.0681 15.9659C15.0681 16.8003 14.7272 17.5591 14.1772 18.1091C13.6272 18.6591 12.8684 19 12.0341 19C11.1997 19 10.4409 18.6591 9.89088 18.1091C9.34086 17.5591 9 16.8003 9 15.9659C9 15.4155 9.14869 14.8899 9.40929 14.4382C9.54323 14.206 9.70672 13.9935 9.8946 13.8069C10.1288 13.5743 10.3003 13.2737 10.3003 12.9436V6.73375C10.3003 6.24252 10.4911 5.81083 10.8011 5.50079C11.1111 5.19075 11.5428 5 12.0341 5C12.5253 5 12.957 5.19075 13.267 5.50079Z" fill="black"/>
</svg>
