<svg width="24" height="24" viewBox="0 0 24 24" fill="none" xmlns="http://www.w3.org/2000/svg">
<path d="M0 16.5714C0 20.6741 3.32588 24 7.42857 24H16.5714C20.6741 24 24 20.6741 24 16.5714V7.42857C24 3.32588 20.6741 0 16.5714 0H7.42857C3.32588 0 0 3.32588 0 7.42857V16.5714ZM11.4197 16.3547V14.1612H8.32829C7.15028 14.1612 6.28978 13.0484 6.58621 11.9083L7.50377 8.37916C7.71002 7.58587 8.42618 7.0321 9.24585 7.0321H14.4584C14.9003 7.0321 15.2584 7.39027 15.2584 7.8321V13.0644L13.0649 17.9999C12.1563 17.9999 11.4197 17.2633 11.4197 16.3547ZM17.0006 7.03162C17.5529 7.03162 18.0006 7.47933 18.0006 8.03162V12.0639C18.0006 12.6162 17.5529 13.0639 17.0006 13.0639H16.2673V7.03162H17.0006Z" fill="black"/>
</svg>
