<svg width="24" height="24" viewBox="0 0 24 24" fill="none" xmlns="http://www.w3.org/2000/svg">
<path d="M7.42857 0L16.5714 0C20.6741 0 24 3.32588 24 7.42857V16.5714C24 20.6741 20.6741 24 16.5714 24H7.42857C3.32588 24 0 20.6741 0 16.5714L0 7.42857C0 3.32588 3.32588 0 7.42857 0ZM16.8719 16.6718C17.2429 16.3008 17.2429 15.6992 16.8719 15.3282L13.2839 11.7402L16.8719 8.15223C17.2429 7.78124 17.2429 7.17973 16.8719 6.80873C16.5009 6.43773 15.8994 6.43773 15.5284 6.80873L11.9404 10.3967L8.35243 6.80873C7.98143 6.43773 7.37992 6.43773 7.00893 6.80873C6.63793 7.17973 6.63793 7.78124 7.00893 8.15223L10.5969 11.7402L7.00891 15.3282C6.63792 15.6992 6.63792 16.3008 7.00891 16.6718C7.37991 17.0427 7.98142 17.0427 8.35242 16.6718L11.9404 13.0837L15.5284 16.6718C15.8994 17.0427 16.5009 17.0427 16.8719 16.6718Z" fill="black"/>
</svg>
