<svg width="24" height="24" viewBox="0 0 24 24" fill="none" xmlns="http://www.w3.org/2000/svg">
<path d="M24 7.42857C24 3.32588 20.6741 0 16.5714 0H7.42857C3.32588 0 0 3.32588 0 7.42857V16.5714C0 20.6741 3.32588 24 7.42857 24H16.5714C20.6741 24 24 20.6741 24 16.5714V7.42857ZM9.27778 16.2003C6.91523 16.2003 5 14.3199 5 12.0003C5 9.68072 6.91523 7.80032 9.27778 7.80032H14.7222C17.0848 7.80032 19 9.68072 19 12.0003C19 14.3199 17.0848 16.2003 14.7222 16.2003H9.27778ZM14.8 9.55032C13.4469 9.55032 12.35 10.6472 12.35 12.0003C12.35 13.3534 13.4469 14.4503 14.8 14.4503C16.1531 14.4503 17.25 13.3534 17.25 12.0003C17.25 10.6472 16.1531 9.55032 14.8 9.55032Z" fill="black"/>
</svg>
