<svg width="24" height="24" viewBox="0 0 24 24" fill="none" xmlns="http://www.w3.org/2000/svg">
<path d="M0 7.42857V16.5714C0 20.6741 3.32588 24 7.42857 24H16.5714C20.6741 24 24 20.6741 24 16.5714V7.42857C24 3.32588 20.6741 0 16.5714 0H7.42857C3.32588 0 0 3.32588 0 7.42857ZM10.6622 10.1868L10.0596 10.7204L8.87806 9.53887L8.00574 9.82965C7.8614 9.87776 7.70225 9.84019 7.59466 9.7326L6.11766 8.2556C6.04232 8.18027 6 8.07809 6 7.97155C6 7.86501 6.04232 7.76283 6.11766 7.68749L7.59466 6.21049C7.75154 6.05362 8.00589 6.05362 8.16277 6.21049L9.63977 7.68749C9.74736 7.79509 9.78493 7.95423 9.73681 8.09858L9.4461 8.9707L10.6622 10.1868ZM11.6168 14.8624L13.9158 12.2659C14.3734 12.3601 14.8212 12.3463 15.2641 12.302C15.2788 12.3005 15.2934 12.2984 15.3079 12.2957L17.2767 14.1115L17.2819 14.1164L17.2885 14.1228C18.1838 15.0182 18.1838 16.433 17.2885 17.3284C16.3931 18.2238 14.9782 18.2238 14.0828 17.3284L11.6168 14.8624ZM15.1049 8.91931C15.4875 9.30191 16.0969 9.3022 16.4726 8.92648L17.3748 8.02428C17.5858 8.55178 17.5858 9.13203 17.4276 9.71228C17.1111 10.7673 16.2671 11.5585 15.2121 11.7695C14.6846 11.8223 14.2098 11.8223 13.7351 11.664L9.25132 16.728C8.61832 17.5193 7.45782 17.572 6.71932 16.8335C6.03357 16.1478 6.08632 14.9873 6.82482 14.3015L11.8888 9.81778C11.7833 9.55403 11.7306 9.29028 11.7306 8.97378C11.6778 7.44403 12.8911 6.12528 14.3681 6.01978C14.7901 5.96703 15.1593 6.01978 15.5286 6.17803L14.6264 7.08023C14.2512 7.45541 14.2539 8.06833 14.6336 8.44801L15.1049 8.91931Z" fill="black"/>
</svg>
