<svg width="24" height="24" viewBox="0 0 24 24" fill="none" xmlns="http://www.w3.org/2000/svg">
<path d="M24 7.42857C24 3.32588 20.6741 0 16.5714 0H7.42857C3.32588 0 0 3.32588 0 7.42857V16.5714C0 20.6741 3.32588 24 7.42857 24H16.5714C20.6741 24 24 20.6741 24 16.5714V7.42857ZM12 19C8.13367 19 5 15.8663 5 12C5 8.13367 8.13367 5 12 5C15.8663 5 19 8.13367 19 12C19 15.8663 15.8663 19 12 19ZM10.8191 9.84436H9.33047H7.84024C7.50887 9.84436 7.24024 10.113 7.24024 10.4444C7.24024 10.7757 7.50887 11.0444 7.84024 11.0444H8.73047V13.5555C8.73047 13.8868 8.9991 14.1555 9.33047 14.1555C9.66184 14.1555 9.93047 13.8868 9.93047 13.5555V11.0444H10.8191C11.1505 11.0444 11.4191 10.7757 11.4191 10.4444C11.4191 10.113 11.1505 9.84436 10.8191 9.84436ZM13.0704 10.0293C12.9009 9.85238 12.6408 9.79629 12.4135 9.88762C12.1861 9.97896 12.0371 10.1994 12.0371 10.4444V13.5555C12.0371 13.8869 12.3057 14.1555 12.6371 14.1555C12.9685 14.1555 13.2371 13.8869 13.2371 13.5555V11.938L13.6941 12.415C13.8072 12.5331 13.9637 12.5999 14.1273 12.5999C14.2909 12.5999 14.4474 12.5331 14.5606 12.415L15.0176 11.938V13.5555C15.0176 13.8869 15.2862 14.1555 15.6176 14.1555C15.9489 14.1555 16.2176 13.8869 16.2176 13.5555V10.4444C16.2176 10.1994 16.0686 9.97896 15.8412 9.88762C15.6138 9.79629 15.3538 9.85238 15.1843 10.0293L14.1273 11.1326L13.0704 10.0293Z" fill="black"/>
</svg>
