<svg width="24" height="24" viewBox="0 0 24 24" fill="none" xmlns="http://www.w3.org/2000/svg">
<path d="M0 16.5714C0 20.6741 3.32588 24 7.42857 24H16.5714C20.6741 24 24 20.6741 24 16.5714V7.42857C24 3.32588 20.6741 0 16.5714 0H7.42857C3.32588 0 0 3.32588 0 7.42857V16.5714ZM17.8998 15.5H15.1321C14.5975 15.5 14.3298 14.8537 14.7078 14.4757L15.5617 13.6219L12.1039 10.1641C12.0063 10.0665 11.848 10.0665 11.7503 10.1641L10.0855 11.8289C9.40212 12.5124 8.29408 12.5124 7.61066 11.8289L4.46967 8.68796C4.17678 8.39506 4.17678 7.92019 4.46967 7.62729C4.76256 7.3344 5.23744 7.3344 5.53033 7.62729L8.67132 10.7683C8.76895 10.8659 8.92724 10.8659 9.02487 10.7683L10.6897 9.10347C11.3731 8.42006 12.4811 8.42006 13.1646 9.10347L16.6223 12.5612L17.4755 11.708C17.8535 11.33 18.4998 11.5977 18.4998 12.1323V14.9C18.4998 15.2314 18.2312 15.5 17.8998 15.5Z" fill="black"/>
</svg>
