<svg width="24" height="24" viewBox="0 0 24 24" fill="none" xmlns="http://www.w3.org/2000/svg">
<path d="M0 7.42857V16.5714C0 20.6741 3.32588 24 7.42857 24H16.5714C20.6741 24 24 20.6741 24 16.5714V7.42857C24 3.32588 20.6741 0 16.5714 0H7.42857C3.32588 0 0 3.32588 0 7.42857ZM6 10.6601C6 9.55551 6.89543 8.66008 8 8.66008H11.0808L9.54037 7.11965C9.28653 6.86581 9.28653 6.45426 9.54037 6.20041C9.79421 5.94657 10.2058 5.94657 10.4596 6.20041L12 7.7408L13.5404 6.20041C13.7942 5.94657 14.2058 5.94657 14.4596 6.20041C14.7135 6.45426 14.7135 6.86581 14.4596 7.11965L12.9192 8.66008H16C17.1046 8.66008 18 9.55551 18 10.6601V15.3267C18 16.4313 17.1046 17.3267 16 17.3267H8C6.89543 17.3267 6 16.4313 6 15.3267V10.6601Z" fill="black"/>
</svg>
