<svg width="24" height="24" viewBox="0 0 24 24" fill="none" xmlns="http://www.w3.org/2000/svg">
<path d="M0 7.42857V16.5714C0 20.6741 3.32588 24 7.42857 24H16.5714C20.6741 24 24 20.6741 24 16.5714V7.42857C24 3.32588 20.6741 0 16.5714 0H7.42857C3.32588 0 0 3.32588 0 7.42857ZM7 18.0667C7 17.5512 7.41787 17.1333 7.93333 17.1333H16.3333C16.8488 17.1333 17.2667 17.5512 17.2667 18.0667C17.2667 18.5821 16.8488 19 16.3333 19H7.93333C7.41787 19 7 18.5821 7 18.0667ZM9.56589 5.93333V10.8333C9.56589 12.2506 10.7153 13.4 12.1326 13.4C13.5498 13.4 14.6992 12.2506 14.6992 10.8333V5.93333C14.6992 5.41787 15.1171 5 15.6326 5C16.148 5 16.5659 5.41787 16.5659 5.93333V10.8333C16.5659 13.2815 14.5807 15.2667 12.1326 15.2667C9.68439 15.2667 7.69922 13.2815 7.69922 10.8333V5.93333C7.69922 5.41787 8.11709 5 8.63255 5C9.14802 5 9.56589 5.41787 9.56589 5.93333Z" fill="black"/>
</svg>
