<svg width="24" height="24" viewBox="0 0 24 24" fill="none" xmlns="http://www.w3.org/2000/svg">
<path d="M0 7.42857V16.5714C0 20.6741 3.32588 24 7.42857 24H16.5714C20.6741 24 24 20.6741 24 16.5714V7.42857C24 3.32588 20.6741 0 16.5714 0H7.42857C3.32588 0 0 3.32588 0 7.42857ZM13.613 13.1187C15.543 13.1187 17.137 14.5515 17.4664 16.4292C17.4761 16.4846 17.4823 16.5777 17.4852 16.7088C17.4978 17.2985 17.0281 17.7868 16.4361 17.7995L16.4131 17.7997H11.7427H7.07228C6.48008 17.7997 6 17.3216 6 16.7317L6.00028 16.7074C6.0031 16.5836 6.00905 16.4953 6.01813 16.4425C6.33346 14.6098 7.85278 13.1978 9.71573 13.1219L9.87376 13.1187H13.613ZM14.6138 9.05064C14.6138 10.6473 13.3283 11.9416 11.7425 11.9416C10.1566 11.9416 8.87109 10.6473 8.87109 9.05064C8.87109 7.454 10.1566 6.15967 11.7425 6.15967C13.3283 6.15967 14.6138 7.454 14.6138 9.05064Z" fill="black"/>
</svg>
