<svg width="24" height="24" viewBox="0 0 24 24" fill="none" xmlns="http://www.w3.org/2000/svg">
<path d="M7.42857 0C3.32588 0 0 3.32588 0 7.42857V16.5714C0 20.6741 3.32588 24 7.42857 24H16.5714C20.6741 24 24 20.6741 24 16.5714V7.42857C24 3.32588 20.6741 0 16.5714 0H7.42857ZM14.2774 8.81265C14.2774 10.5322 12.8929 11.9261 11.1851 11.9261C9.47725 11.9261 8.09277 10.5322 8.09277 8.81265C8.09277 7.09315 9.47725 5.69922 11.1851 5.69922C12.8929 5.69922 14.2774 7.09315 14.2774 8.81265ZM16.5897 16.3797C16.8146 16.3797 17.0347 16.359 17.2481 16.3194C17.2888 16.4633 17.3225 16.6102 17.3487 16.7597C17.3592 16.8193 17.3659 16.9196 17.369 17.0607C17.3826 17.6958 16.8768 18.2217 16.2392 18.2353L16.2144 18.2356H11.1846H6.1548C5.51702 18.2356 5 17.7207 5 17.0854L5.0003 17.0593C5.00334 16.9259 5.00975 16.8308 5.01952 16.774C5.35912 14.8002 6.99535 13.2795 9.00166 13.1978L9.17185 13.1943H13.0225C13.2234 14.9865 14.7439 16.3797 16.5897 16.3797ZM18.5034 11.3345C18.7377 11.5688 18.7377 11.9487 18.5034 12.1831L16.4409 14.2456C16.2066 14.4799 15.8267 14.4799 15.5923 14.2456L14.6548 13.3081C14.4205 13.0737 14.4205 12.6938 14.6548 12.4595C14.8892 12.2252 15.2691 12.2252 15.5034 12.4595L16.0166 12.9728L17.6548 11.3345C17.8892 11.1002 18.2691 11.1002 18.5034 11.3345Z" fill="black"/>
</svg>
