<svg width="24" height="24" viewBox="0 0 24 24" fill="none" xmlns="http://www.w3.org/2000/svg">
<path d="M7.42857 0C3.32588 0 0 3.32588 0 7.42857V16.5714C0 20.6741 3.32588 24 7.42857 24H16.5714C20.6741 24 24 20.6741 24 16.5714V7.42857C24 3.32588 20.6741 0 16.5714 0H7.42857ZM11.1851 11.9265C9.47725 11.9265 8.09277 10.5325 8.09277 8.81302C8.09277 7.09352 9.47725 5.69958 11.1851 5.69958C12.8929 5.69958 14.2774 7.09352 14.2774 8.81302C14.2774 10.5325 12.8929 11.9265 11.1851 11.9265ZM17.2369 16.2809C17.2827 16.4371 17.3201 16.5971 17.3487 16.7601C17.3592 16.8198 17.3659 16.9201 17.369 17.0612C17.3826 17.6963 16.8768 18.2222 16.2392 18.2358L16.2144 18.2361H11.1846H6.1548C5.51702 18.2361 5 17.7211 5 17.0859L5.0003 17.0598C5.00334 16.9264 5.00975 16.8313 5.01952 16.7745C5.35912 14.8007 6.99535 13.28 9.00166 13.1983L9.17185 13.1948H13.0274C13.2468 14.9671 14.758 16.339 16.5897 16.339C16.8107 16.339 17.027 16.3191 17.2369 16.2809ZM15.1543 12.1494H15.9898V11.3131C15.9898 10.9818 16.2585 10.7131 16.5898 10.7131C16.9212 10.7131 17.1898 10.9818 17.1898 11.3131V12.1494H18.0261C18.3575 12.1494 18.6261 12.418 18.6261 12.7494C18.6261 13.0808 18.3575 13.3494 18.0261 13.3494H17.1898V14.1849C17.1898 14.5163 16.9212 14.7849 16.5898 14.7849C16.2585 14.7849 15.9898 14.5163 15.9898 14.1849V13.3494H15.1543C14.8229 13.3494 14.5543 13.0808 14.5543 12.7494C14.5543 12.418 14.8229 12.1494 15.1543 12.1494Z" fill="black"/>
</svg>
