<svg width="24" height="24" viewBox="0 0 24 24" fill="none" xmlns="http://www.w3.org/2000/svg">
<path d="M7.42857 0C3.32588 0 0 3.32588 0 7.42857V16.5714C0 20.6741 3.32588 24 7.42857 24H16.5714C20.6741 24 24 20.6741 24 16.5714V7.42857C24 3.32588 20.6741 0 16.5714 0H7.42857ZM11.6476 11.6855C11.6027 11.6855 11.558 11.6844 11.5136 11.6823L8.82828 8.99695C8.82557 8.94589 8.82419 8.89447 8.82419 8.84273C8.82419 7.27273 10.0883 6 11.6476 6C13.207 6 14.4711 7.27273 14.4711 8.84273C14.4711 10.4127 13.207 11.6855 11.6476 11.6855ZM15.8343 19.6475L13.6335 17.4467H7.05437C6.47205 17.4467 5.99998 16.9765 5.99998 16.3965L6.00025 16.3726C6.00302 16.2509 6.00887 16.164 6.0178 16.1122C6.29585 14.4961 7.52589 13.2127 9.0979 12.9111L5.24641 9.0596C4.99257 8.80575 4.99257 8.3942 5.24641 8.14036C5.50025 7.88652 5.91181 7.88652 6.16565 8.14036L16.7536 18.7283C17.0074 18.9821 17.0074 19.3937 16.7536 19.6475C16.4997 19.9014 16.0882 19.9014 15.8343 19.6475ZM16.9776 17.1463L12.6751 12.8438H13.486C15.3838 12.8438 16.9511 14.2527 17.275 16.0991C17.2846 16.1535 17.2907 16.2451 17.2935 16.374C17.3 16.6757 17.178 16.9504 16.9776 17.1463Z" fill="black"/>
</svg>
