<svg width="24" height="24" viewBox="0 0 24 24" fill="none" xmlns="http://www.w3.org/2000/svg">
<path d="M7.42857 0C3.32588 0 0 3.32588 0 7.42857V16.5714C0 20.6741 3.32588 24 7.42857 24H16.5714C20.6741 24 24 20.6741 24 16.5714V7.42857C24 3.32588 20.6741 0 16.5714 0H7.42857ZM11.1851 11.9265C9.47725 11.9265 8.09277 10.5325 8.09277 8.81302C8.09277 7.09352 9.47725 5.69958 11.1851 5.69958C12.8929 5.69958 14.2774 7.09352 14.2774 8.81302C14.2774 10.5325 12.8929 11.9265 11.1851 11.9265ZM17.2372 16.2818C17.2828 16.4378 17.3202 16.5974 17.3487 16.7601C17.3592 16.8198 17.3659 16.9201 17.369 17.0612C17.3826 17.6963 16.8768 18.2222 16.2392 18.2358L16.2144 18.2361H11.1846H6.1548C5.51702 18.2361 5 17.7211 5 17.0859L5.0003 17.0598C5.00334 16.9264 5.00975 16.8313 5.01952 16.7745C5.35912 14.8007 6.99535 13.28 9.00166 13.1983L9.17185 13.1948H13.0273C13.2462 14.9676 14.7577 16.34 16.5897 16.34C16.8108 16.34 17.0272 16.32 17.2372 16.2818ZM18.2334 11.8722L17.337 12.7687L18.2334 13.6651C18.4287 13.8604 18.4287 14.177 18.2334 14.3722C18.0382 14.5675 17.7216 14.5675 17.5263 14.3722L16.6299 13.4758L15.7334 14.3722C15.5382 14.5675 15.2216 14.5675 15.0263 14.3722C14.8311 14.177 14.8311 13.8604 15.0263 13.6651L15.9228 12.7687L15.0263 11.8722C14.8311 11.677 14.8311 11.3604 15.0263 11.1651C15.2216 10.9699 15.5382 10.9699 15.7334 11.1651L16.6299 12.0616L17.5263 11.1651C17.7216 10.9699 18.0382 10.9699 18.2334 11.1651C18.4287 11.3604 18.4287 11.677 18.2334 11.8722Z" fill="black"/>
</svg>
