<svg width="24" height="24" viewBox="0 0 24 24" fill="none" xmlns="http://www.w3.org/2000/svg">
<path d="M7 0C3.13401 0 0 3.13401 0 7V17C0 20.866 3.13401 24 7 24H17C20.866 24 24 20.866 24 17V7C24 3.13401 20.866 0 17 0H7ZM6.15855 7.23768C6.4415 6.93517 6.91611 6.91931 7.21862 7.20225L17.5124 16.8302C17.8149 17.1131 17.8307 17.5877 17.5478 17.8903C17.2648 18.1928 16.7902 18.2086 16.4877 17.9257L15.1973 16.7187C15.1607 16.7325 15.1234 16.745 15.0855 16.7561C14.2616 16.9981 13.2369 17.1137 12.0222 17.1137C10.8077 17.1137 9.78306 16.9981 8.95927 16.7562C8.28946 16.5595 7.83059 15.9434 7.83394 15.2453L7.83576 14.8666C7.84043 13.8966 8.4355 13.0272 9.33811 12.6717C9.71394 12.5237 10.1025 12.4094 10.5035 12.3285L8.93815 10.8644C8.86325 11.066 8.74483 11.2551 8.5829 11.4172C7.98018 12.0203 7.00286 12.0203 6.40013 11.4172C5.79756 10.8142 5.79756 9.83663 6.40013 9.23363C6.5361 9.09757 6.69113 8.99221 6.85662 8.91753L6.19398 8.29775C5.89147 8.0148 5.8756 7.5402 6.15855 7.23768ZM10.0115 8.32653C10.1164 8.1214 10.2547 7.92895 10.4264 7.75728C11.308 6.87632 12.7371 6.87632 13.6186 7.75728C14.5003 8.63838 14.5003 10.067 13.6186 10.9481C13.4715 11.0952 13.309 11.2177 13.1365 11.3157L10.0115 8.32653ZM14.4572 12.5791C14.5411 12.6084 14.6245 12.6393 14.7072 12.6719C15.377 12.9357 15.8773 13.4825 16.0927 14.1435L14.4572 12.5791ZM16.7666 14.7882C16.7979 13.8895 16.2503 12.9754 15.4286 12.4798H16.8551C17.9573 12.4798 18.8659 13.3065 18.9955 14.3739C19.0417 14.7549 18.7265 15.0242 18.4073 15.0242H17.0134L16.7666 14.7882ZM17.4726 9.23363C18.0751 9.83663 18.0751 10.8142 17.4726 11.4172C16.8699 12.0203 15.8925 12.0203 15.2898 11.4172C14.6872 10.8142 14.6872 9.83663 15.2898 9.23363C15.8925 8.63049 16.8699 8.63049 17.4726 9.23363ZM8.57143 12.4798C7.6776 13.019 7.1081 14.0532 7.25517 15.0242H5.59269C5.27347 15.0242 4.95828 14.7549 5.00454 14.3739C5.13413 13.3065 6.0427 12.4798 7.14494 12.4798H8.57143Z" fill="black"/>
</svg>
