<svg width="24" height="24" viewBox="0 0 24 24" fill="none" xmlns="http://www.w3.org/2000/svg">
<path d="M16.5714 0H7.42857C3.32589 0 0 3.32588 0 7.42857V16.5714C0 20.6741 3.32589 24 7.42857 24H16.5714C20.6741 24 24 20.6741 24 16.5714V7.42857C24 3.32588 20.6741 0 16.5714 0ZM12.2685 11.2271C11.4154 10.3745 11.4154 8.99209 12.2685 8.13947C13.1217 7.28684 14.505 7.28684 15.3582 8.13947C16.2113 8.9921 16.2113 10.3745 15.3582 11.2271C14.505 12.0797 13.1217 12.0797 12.2685 11.2271ZM9.61438 15.7006L9.61628 15.2826C9.62036 14.3877 10.1692 13.5856 11.0019 13.2576C11.8678 12.9166 12.8029 12.7461 13.8073 12.7461C14.8114 12.7461 15.7463 12.9165 16.6118 13.2574C17.4446 13.5854 17.9937 14.3876 17.998 15.2826L18 15.7004C18.0028 16.2797 17.6219 16.7911 17.066 16.9543C16.2102 17.2057 15.1239 17.3314 13.8073 17.3314C12.4905 17.3314 11.4042 17.2057 10.5483 16.9543C9.99253 16.791 9.61174 16.2799 9.61438 15.7006ZM8.76787 15.2132L8.76651 15.5106H6.71106C6.28956 15.5037 5.92204 15.2124 6.01309 14.688C6.21928 13.5005 7.25399 12.5977 8.50063 12.5977H10.4668C9.44103 13.0594 8.77303 14.0799 8.76787 15.2132ZM7.75155 8.07793C8.43749 7.39199 9.54961 7.39199 10.2355 8.07793C10.9215 8.76387 10.9215 9.87599 10.2355 10.5619C9.54961 11.2479 8.43749 11.2479 7.75155 10.5619C7.06562 9.87599 7.06562 8.76387 7.75155 8.07793Z" fill="black"/>
</svg>
