<svg width="24" height="24" viewBox="0 0 24 24" fill="none" xmlns="http://www.w3.org/2000/svg">
<path d="M0 7.42857V16.5714C0 20.6741 3.32588 24 7.42857 24H16.5714C20.6741 24 24 20.6741 24 16.5714V7.42857C24 3.32588 20.6741 0 16.5714 0H7.42857C3.32588 0 0 3.32588 0 7.42857ZM13.0597 15.8441H7.56882C6.70283 15.8441 6 15.1413 6 14.2753V9.56882C6 8.70283 6.70283 8 7.56882 8H13.0597C13.9257 8 14.6285 8.70283 14.6285 9.56882V14.2753C14.6285 15.1413 13.9257 15.8441 13.0597 15.8441ZM16.7232 14.8171L15.4004 13.7522V10.0912L16.7232 9.0263C17.2365 8.61338 17.9996 8.9786 17.9996 9.63751V14.2059C17.9996 14.8648 17.2365 15.23 16.7232 14.8171Z" fill="black"/>
</svg>
