<svg width="24" height="24" viewBox="0 0 24 24" fill="none" xmlns="http://www.w3.org/2000/svg">
<path d="M16.5714 24C20.6741 24 24 20.6741 24 16.5714V7.42857C24 3.32588 20.6741 0 16.5714 0H7.42857C3.32588 0 0 3.32588 0 7.42857V16.5714C0 20.6741 3.32588 24 7.42857 24H16.5714ZM16.0466 8.10773L14.7664 9.39849C14.7755 9.46579 14.7802 9.53447 14.7802 9.60425V14.1838C14.7802 15.0264 14.0963 15.7103 13.2537 15.7103H8.50622L7.1115 17.1165C6.85871 17.3714 6.44715 17.3731 6.19227 17.1203C5.93739 16.8675 5.9357 16.4559 6.1885 16.201L15.1236 7.19227C15.3764 6.93739 15.788 6.9357 16.0429 7.1885C16.2977 7.4413 16.2994 7.85285 16.0466 8.10773ZM7.91089 8.07774H12.7012L7.4063 13.4163L6.40594 14.4407C6.39176 14.3572 6.38438 14.2713 6.38438 14.1838V9.60425C6.38438 8.76161 7.06825 8.07774 7.91089 8.07774ZM15.7906 13.6753V10.113L17.0778 9.07686C17.5773 8.67508 18.3197 9.03045 18.3197 9.67159V14.1168C18.3197 14.7579 17.5773 15.1133 17.0778 14.7115L15.7906 13.6753Z" fill="black"/>
</svg>
