<svg width="24" height="24" viewBox="0 0 24 24" fill="none" xmlns="http://www.w3.org/2000/svg">
<path d="M24 7.42857C24 3.32588 20.6741 0 16.5714 0H7.42857C3.32588 0 0 3.32588 0 7.42857V16.5714C0 20.6741 3.32588 24 7.42857 24H16.5714C20.6741 24 24 20.6741 24 16.5714V7.42857ZM11.4215 16.8466L9.19816 15.0679H7.27926C6.57311 15.0679 6 14.4948 6 13.7887V11.2301C6 10.524 6.57311 9.95087 7.27926 9.95087H9.19816L11.4187 8.15227C11.8109 7.83453 12.3963 8.11371 12.3963 8.61851V16.3781C12.3963 16.8812 11.8144 17.1609 11.4215 16.8466ZM15.2146 7.65294C15.4289 7.36497 15.8361 7.30527 16.1241 7.5196C17.6451 8.65169 18.65 10.455 18.65 12.5087C18.65 14.5626 17.6438 16.3657 16.1243 17.4976C15.8364 17.7121 15.4292 17.6525 15.2147 17.3647C15.0003 17.0768 15.0598 16.6695 15.3477 16.4551C16.5601 15.552 17.35 14.125 17.35 12.5087C17.35 10.8922 16.5611 9.46539 15.3479 8.56246C15.0599 8.34812 15.0002 7.94092 15.2146 7.65294ZM14.6709 10.1807C15.3977 10.7217 15.8815 11.5867 15.8815 12.5742C15.8815 13.562 15.3971 14.4268 14.6711 14.9676C14.3833 15.182 13.976 15.1225 13.7616 14.8346C13.5471 14.5467 13.6067 14.1395 13.8946 13.925C14.3134 13.6131 14.5815 13.1244 14.5815 12.5742C14.5815 12.0239 14.3137 11.5354 13.8948 11.2236C13.6068 11.0093 13.5471 10.6021 13.7614 10.3141C13.9758 10.0261 14.383 9.9664 14.6709 10.1807Z" fill="black"/>
</svg>
