<svg width="24" height="24" viewBox="0 0 24 24" fill="none" xmlns="http://www.w3.org/2000/svg">
<path d="M24 7.42857C24 3.32588 20.6741 0 16.5714 0H7.42857C3.32588 0 0 3.32588 0 7.42857V16.5714C0 20.6741 3.32588 24 7.42857 24H16.5714C20.6741 24 24 20.6741 24 16.5714V7.42857ZM14.5018 17.2201L11.7383 15.0093H9.49533C8.66991 15.0093 8 14.3394 8 13.514V10.5233C8 9.69792 8.66991 9.02802 9.49533 9.02802H11.7383L14.499 6.79188C14.8912 6.47415 15.4766 6.75332 15.4766 7.25812V16.7516C15.4766 17.2547 14.8947 17.5344 14.5018 17.2201Z" fill="black"/>
</svg>
