<svg width="24" height="24" viewBox="0 0 24 24" fill="none" xmlns="http://www.w3.org/2000/svg">
<path d="M24 7.42857C24 3.32588 20.6741 0 16.5714 0H7.42856C3.32587 0 -1.52588e-05 3.32588 -1.52588e-05 7.42857V16.5714C-1.52588e-05 20.6741 3.32587 24 7.42856 24H16.5714C20.6741 24 24 20.6741 24 16.5714V7.42857ZM5.43431 7.13353C5.68652 6.88133 6.06522 6.83272 6.36619 6.98771C6.38695 7.01459 6.40966 7.04045 6.43431 7.0651L16.6002 17.231C16.6605 17.2912 16.7279 17.3398 16.7997 17.3769C17.0421 17.6906 17.0194 18.1431 16.7316 18.4308C16.4192 18.7433 15.9127 18.7433 15.6002 18.4308L12.3963 15.2269V16.3761C12.3963 16.8792 11.8143 17.1589 11.4215 16.8447L9.19814 15.066H7.27925C6.57309 15.066 5.99998 14.4929 5.99998 13.7867V11.2282C5.99998 10.5735 6.49267 10.0331 7.12728 9.95788L5.43431 8.2649C5.12189 7.95249 5.12189 7.44595 5.43431 7.13353ZM18.6503 12.5072C18.6503 13.7903 18.2576 14.9756 17.5924 15.9604L16.6515 15.0195C17.0949 14.2843 17.3503 13.4264 17.3503 12.5072C17.3503 10.8907 16.5614 9.46385 15.3482 8.56092C15.0603 8.34659 15.0006 7.93938 15.2149 7.6514C15.4292 7.36343 15.8364 7.30373 16.1244 7.51807C17.6455 8.65016 18.6503 10.4535 18.6503 12.5072ZM15.8819 12.5727C15.8819 13.0613 15.7634 13.5197 15.5557 13.9238L14.5465 12.9146C14.5697 12.8042 14.5819 12.6898 14.5819 12.5727C14.5819 12.0223 14.314 11.5338 13.8951 11.2221C13.6071 11.0077 13.5474 10.6005 13.7618 10.3125C13.9761 10.0246 14.3833 9.96486 14.6713 10.1792C15.3981 10.7201 15.8819 11.5852 15.8819 12.5727ZM12.3963 8.61656V10.7643L10.5146 8.88262L11.4186 8.15032C11.8109 7.83259 12.3963 8.11176 12.3963 8.61656Z" fill="black"/>
</svg>
