<svg width="24" height="24" viewBox="0 0 24 24" fill="none" xmlns="http://www.w3.org/2000/svg">
<path d="M16.5714 0H7.42857C3.32588 0 0 3.32588 0 7.42857V16.5714C0 20.6741 3.32588 24 7.42857 24H16.5714C20.6741 24 24 20.6741 24 16.5714V7.42857C24 3.32588 20.6741 0 16.5714 0ZM10.2383 15.0093H7.99533C7.16991 15.0093 6.5 14.3394 6.5 13.514V10.5233C6.5 9.69792 7.16991 9.02802 7.99533 9.02802H10.2383L12.999 6.79188C13.3912 6.47415 13.9766 6.75332 13.9766 7.25812V16.7516C13.9766 17.2547 13.3947 17.5344 13.0018 17.2201L10.2383 15.0093ZM16.751 9.30867C17.5746 9.92162 18.1218 10.9009 18.1218 12.0184C18.1218 13.136 17.5738 14.1151 16.7512 14.7279C16.4633 14.9423 16.0561 14.8828 15.8417 14.5949C15.6272 14.307 15.6867 13.8998 15.9746 13.6853C16.4901 13.3013 16.8218 12.6984 16.8218 12.0184C16.8218 11.3381 16.4905 10.7353 15.9748 10.3515C15.6869 10.1372 15.6272 9.72998 15.8415 9.44201C16.0558 9.15403 16.463 9.09433 16.751 9.30867Z" fill="black"/>
</svg>
