<svg width="24" height="24" viewBox="0 0 24 24" fill="none" xmlns="http://www.w3.org/2000/svg">
<path d="M7.42857 0C3.32588 0 0 3.32588 0 7.42857V16.5714C0 20.6741 3.32588 24 7.42857 24H16.5714C20.6741 24 24 20.6741 24 16.5714V7.42857C24 3.32588 20.6741 0 16.5714 0H7.42857ZM9.91669 4.3999H14.5834C14.8683 4.3999 15.1139 4.60025 15.1711 4.87934L15.8378 8.12934C15.8408 8.14424 15.8433 8.15913 15.8452 8.17398C16.7152 8.99177 17.3061 10.103 17.4601 11.3496H17.7566C18.1155 11.3496 18.4066 11.6406 18.4066 11.9996C18.4066 12.3586 18.1155 12.6496 17.7566 12.6496H17.4602C17.3064 13.8966 16.7153 15.0081 15.8452 15.8261C15.8433 15.8408 15.8408 15.8556 15.8378 15.8704L15.1711 19.1204C15.1139 19.3995 14.8683 19.5999 14.5834 19.5999H9.91669C9.63179 19.5999 9.38618 19.3995 9.32893 19.1204L8.66226 15.8704C8.65922 15.8556 8.65676 15.8408 8.65486 15.8261C7.63615 14.8685 7 13.5086 7 12C7 10.4914 7.63613 9.13151 8.65482 8.17393C8.65673 8.1591 8.65921 8.14423 8.66226 8.12934L9.32893 4.87934C9.38618 4.60025 9.63179 4.3999 9.91669 4.3999ZM10.4061 18.3999H14.0939L14.4264 16.7791C13.7634 17.0815 13.0264 17.25 12.25 17.25C11.4736 17.25 10.7367 17.0815 10.0737 16.7792L10.4061 18.3999ZM14.4264 7.22089L14.0939 5.5999H10.4061L10.0736 7.22087C10.7366 6.91848 11.4736 6.75 12.25 6.75C13.0264 6.75 13.7634 6.91848 14.4264 7.22089ZM12.75 9.6748C12.75 9.39866 12.5261 9.1748 12.25 9.1748C11.9739 9.1748 11.75 9.39866 11.75 9.6748V11.9998C11.75 12.2759 11.9739 12.4998 12.25 12.4998H14.3816C14.6577 12.4998 14.8816 12.2759 14.8816 11.9998C14.8816 11.7237 14.6577 11.4998 14.3816 11.4998H12.75V9.6748Z" fill="black"/>
</svg>
