<svg width="24" height="24" viewBox="0 0 24 24" fill="none" xmlns="http://www.w3.org/2000/svg">
<path d="M7.42857 0C3.32588 0 0 3.32588 0 7.42857V16.5714C0 20.6741 3.32588 24 7.42857 24H16.5714C20.6741 24 24 20.6741 24 16.5714V7.42857C24 3.32588 20.6741 0 16.5714 0H7.42857ZM10.2556 6.15002C10.9653 6.15002 11.5405 6.72523 11.5405 7.43492C11.5405 8.00668 11.1672 8.49115 10.6509 8.65787L10.9614 9.66687H14.3399C14.6989 9.66687 14.9899 9.95788 14.9899 10.3169C14.9899 10.6759 14.6989 10.9669 14.3399 10.9669H11.3614L11.5968 11.7318H15.2467C15.5036 11.7318 15.7364 11.8831 15.8407 12.1178L16.9956 14.7163L17.8424 14.5046C18.1907 14.4175 18.5436 14.6292 18.6306 14.9775C18.7177 15.3258 18.506 15.6787 18.1577 15.7658L16.781 16.1099C16.4747 16.1865 16.1576 16.0319 16.0294 15.7433L14.8243 13.0318H14.289C14.2754 13.0308 14.2617 13.0302 14.2479 13.0301L11.6098 13.0109C10.9902 13.0064 10.4473 12.5953 10.2751 12.0001L9.58693 9.62191L9.58739 9.62181L9.5792 9.5952L9.52612 9.41177C9.51921 9.38789 9.51095 9.36477 9.50144 9.34247L9.11876 8.09877C9.10727 8.06143 9.09931 8.02384 9.09469 7.98636C9.01519 7.81927 8.9707 7.6323 8.9707 7.43492C8.9707 6.72523 9.54591 6.15002 10.2556 6.15002ZM7.96596 10.2388C7.96596 10.2388 8.17785 10.1182 8.44535 9.99394L9.1224 12.3337C9.44223 13.4389 10.4505 14.2025 11.6011 14.2109L13.9058 14.2276L14.0759 14.5055C14.0881 14.5253 14.1012 14.5442 14.1151 14.5621C14.1025 14.6371 14.094 14.683 14.094 14.683C13.6685 16.4943 12.0425 17.8424 10.1013 17.8424C7.83603 17.8424 6 16.0064 6 13.7411C6 12.5658 6.49423 11.5061 7.28622 10.7583C7.49357 10.5626 7.72132 10.3882 7.96596 10.2388Z" fill="black"/>
</svg>
