<svg width="24" height="24" viewBox="0 0 24 24" fill="none" xmlns="http://www.w3.org/2000/svg">
<path d="M16.5714 0H7.42857C3.32588 0 0 3.32588 0 7.42857V16.5714C0 20.6741 3.32588 24 7.42857 24H16.5714C20.6741 24 24 20.6741 24 16.5714V7.42857C24 3.32588 20.6741 0 16.5714 0ZM17.4723 10.8532C14.345 8.11563 9.6535 8.11563 6.52615 10.8532C6.1937 11.1442 5.68829 11.1106 5.39727 10.7781C5.10626 10.4457 5.13986 9.94025 5.47231 9.64924C9.20297 6.3836 14.7955 6.3836 18.5262 9.64924C18.8586 9.94025 18.8922 10.4457 18.6012 10.7781C18.3102 11.1106 17.8048 11.1442 17.4723 10.8532ZM8.60623 12.8451C8.27378 13.1361 7.76836 13.1025 7.47735 12.77C7.18634 12.4376 7.21993 11.9322 7.55239 11.6412C10.0941 9.41624 13.9038 9.41624 16.4456 11.6412C16.778 11.9322 16.8116 12.4376 16.5206 12.77C16.2296 13.1025 15.7242 13.1361 15.3917 12.8451C13.4533 11.1483 10.5447 11.1483 8.60623 12.8451ZM13.6376 14.823C12.7341 14.1856 11.5222 14.1856 10.6186 14.823C10.2576 15.0777 9.75846 14.9916 9.50375 14.6305C9.24904 14.2695 9.33523 13.7704 9.69625 13.5157C11.1528 12.488 13.1035 12.488 14.56 13.5157C14.921 13.7704 15.0072 14.2695 14.7525 14.6305C14.4978 14.9916 13.9987 15.0777 13.6376 14.823ZM12.9313 16.4914C12.9313 16.9699 12.5434 17.3578 12.0649 17.3578C11.5864 17.3578 11.1985 16.9699 11.1985 16.4914C11.1985 16.0129 11.5864 15.625 12.0649 15.625C12.5434 15.625 12.9313 16.0129 12.9313 16.4914Z" fill="black"/>
</svg>
