<svg width="24" height="24" viewBox="0 0 24 24" fill="none" xmlns="http://www.w3.org/2000/svg">
<path d="M24 7.42857C24 3.32588 20.6741 0 16.5714 0H7.42857C3.32588 0 0 3.32588 0 7.42857V16.5714C0 20.6741 3.32588 24 7.42857 24H16.5714C20.6741 24 24 20.6741 24 16.5714V7.42857ZM6.43355 6.43433C6.68589 6.18198 7.06487 6.13346 7.36591 6.28875C7.38654 6.3154 7.40908 6.34105 7.43354 6.3655L17.5995 16.5314C17.6595 16.5915 17.7268 16.64 17.7985 16.677C18.0414 16.9908 18.0188 17.4437 17.7308 17.7316C17.4184 18.044 16.9119 18.044 16.5995 17.7316L13.7638 14.896C13.7204 14.8759 13.6781 14.8516 13.6376 14.823C12.7341 14.1856 11.5222 14.1856 10.6186 14.823C10.2576 15.0777 9.75846 14.9916 9.50375 14.6305C9.24904 14.2695 9.33523 13.7704 9.69625 13.5157C10.2854 13.1 10.9554 12.8524 11.6409 12.7731L10.6255 11.7577C9.89792 11.9579 9.20568 12.3203 8.60623 12.8451C8.27378 13.1361 7.76836 13.1025 7.47735 12.77C7.18634 12.4376 7.21993 11.9322 7.55239 11.6412C8.10688 11.1558 8.72171 10.7763 9.37055 10.5027L8.45696 9.58911C7.77119 9.91161 7.12043 10.333 6.52615 10.8532C6.1937 11.1442 5.68829 11.1106 5.39727 10.7781C5.10626 10.4457 5.13986 9.94025 5.47231 9.64924C6.03263 9.15876 6.63495 8.74195 7.26666 8.39881L6.43355 7.5657C6.12113 7.25328 6.12113 6.74675 6.43355 6.43433ZM16.5206 12.77C16.4523 12.8481 16.3721 12.9097 16.2852 12.9544L13.4629 10.1321C14.5387 10.3697 15.5677 10.8728 16.4456 11.6412C16.778 11.9322 16.8116 12.4376 16.5206 12.77ZM17.4723 10.8532C15.944 9.51535 14.0421 8.83132 12.1318 8.80106L10.6258 7.295C13.394 6.91012 16.2935 7.69487 18.5262 9.64924C18.8586 9.94025 18.8922 10.4457 18.6012 10.7781C18.3102 11.1106 17.8048 11.1442 17.4723 10.8532ZM12.9313 16.4914C12.9313 16.9699 12.5434 17.3578 12.0649 17.3578C11.5864 17.3578 11.1985 16.9699 11.1985 16.4914C11.1985 16.0129 11.5864 15.625 12.0649 15.625C12.5434 15.625 12.9313 16.0129 12.9313 16.4914Z" fill="black"/>
</svg>
