<svg width="24" height="24" viewBox="0 0 24 24" fill="none" xmlns="http://www.w3.org/2000/svg">
<path d="M4.68969 3.67036C4.68802 3.67159 4.68634 3.67281 4.68467 3.67403L4.28033 3.26969C3.98744 2.9768 3.51256 2.9768 3.21967 3.26969C2.92678 3.56258 2.92678 4.03746 3.21967 4.33035L3.68967 4.80035C3.40956 5.30361 3.25 5.88317 3.25 6.5V16.375C3.25 18.308 4.817 19.875 6.75 19.875H17.75C18.0604 19.875 18.3615 19.8346 18.648 19.7587L19.2197 20.3303C19.5126 20.6232 19.9874 20.6232 20.2803 20.3303C20.5732 20.0375 20.5732 19.5626 20.2803 19.2697L20.036 19.0254C20.0376 19.024 20.0391 19.0227 20.0407 19.0214L13.6002 12.5809L13.5986 12.588L12.3432 11.3325L12.3448 11.3254L11.5543 10.535L11.5582 10.5476L10.2398 9.22917C10.2418 9.22821 10.2437 9.22727 10.2457 9.22633L4.68969 3.67036ZM13.9892 10.8486L14.7064 11.5657L14.1784 10.0063L13.9892 10.8486ZM15.998 12.8573L20.9455 17.8049C21.1412 17.3683 21.25 16.8844 21.25 16.375V6.5C21.25 4.567 19.683 3 17.75 3H6.75C6.55795 3 6.36952 3.01547 6.18587 3.04523L12.7338 9.59317L13.3001 7.0715C13.3738 6.74353 13.6568 6.50414 13.9925 6.4864C14.3281 6.46867 14.6346 6.67645 14.7424 6.99484L16.2195 11.3573H17.4854C17.8996 11.3573 18.2354 11.6931 18.2354 12.1073C18.2354 12.5215 17.8996 12.8573 17.4854 12.8573H15.998ZM8.95955 11.3573L9.40279 10.5135L13.2096 14.3202L12.9671 15.3997C12.8927 15.7309 12.6051 15.9709 12.2659 15.9847C11.9267 15.9986 11.6205 15.7828 11.5194 15.4588L10.394 11.8521L10.1938 12.2332C9.99225 12.6169 9.59449 12.8573 9.16099 12.8573H7.48535C7.07114 12.8573 6.73535 12.5215 6.73535 12.1073C6.73535 11.6931 7.07114 11.3573 7.48535 11.3573H8.95955Z" fill="black"/>
</svg>
