<svg width="24" height="24" viewBox="0 0 24 24" fill="none" xmlns="http://www.w3.org/2000/svg">
<path d="M7.5 3C5.01472 3 3 5.01472 3 7.5V16.5C3 18.9853 5.01472 21 7.5 21H16.5C18.9853 21 21 18.9853 21 16.5V7.5C21 5.01472 18.9853 3 16.5 3H7.5ZM14.2616 7.8056L15.8367 12.3748H17.2494C17.6222 12.3748 17.9244 12.677 17.9244 13.0498C17.9244 13.4226 17.6222 13.7248 17.2494 13.7248H15.6674C15.1927 13.7248 14.7703 13.4236 14.6156 12.9749L13.755 10.4783L12.3949 16.4261C12.3271 16.7228 12.069 16.9374 11.7649 16.95C11.4607 16.9626 11.1858 16.7701 11.0936 16.48L9.83045 12.5042L9.49207 13.1369C9.29852 13.4988 8.92145 13.7248 8.51105 13.7248H6.74941C6.37662 13.7248 6.07441 13.4226 6.07441 13.0498C6.07441 12.677 6.37662 12.3748 6.74941 12.3748H8.36874L9.39425 10.4573C9.52224 10.218 9.78108 10.0786 10.0513 10.1034C10.3215 10.1283 10.5506 10.3126 10.6328 10.5712L11.6307 13.7121L12.9653 7.87563C13.0325 7.58186 13.2864 7.3677 13.5873 7.35156C13.8882 7.33542 14.1634 7.5207 14.2616 7.8056Z" fill="black"/>
</svg>
