<svg width="24" height="24" viewBox="0 0 24 24" fill="none" xmlns="http://www.w3.org/2000/svg">
<path d="M7.75 3C6.09315 3 4.75 4.34315 4.75 6V7.25H3.75C3.33579 7.25 3 7.58579 3 8C3 8.41421 3.33579 8.75 3.75 8.75H4.75V15.25H3.75C3.33579 15.25 3 15.5858 3 16C3 16.4142 3.33579 16.75 3.75 16.75H4.75V18C4.75 19.6569 6.09315 21 7.75 21H17.75C19.4069 21 20.75 19.6569 20.75 18V6C20.75 4.34315 19.4069 3 17.75 3H7.75ZM12.7489 11.7612C11.4431 11.7612 10.3845 10.6953 10.3845 9.38058C10.3845 8.06582 11.4431 7 12.7489 7C14.0548 7 15.1134 8.06582 15.1134 9.38058C15.1134 10.6953 14.0548 11.7612 12.7489 11.7612ZM14.289 12.6454C15.8782 12.6454 17.1908 13.8253 17.462 15.3715C17.47 15.4171 17.4751 15.4938 17.4775 15.6017C17.4879 16.0873 17.1011 16.4894 16.6136 16.4998L16.5947 16.5H8.90296C8.41531 16.5 8.01999 16.1063 8.01999 15.6205L8.02022 15.6006C8.02254 15.4986 8.02744 15.4259 8.03492 15.3824C8.29458 13.8733 9.54567 12.7105 11.0797 12.648L11.2099 12.6454H14.289Z" fill="black"/>
</svg>
