<svg width="24" height="24" viewBox="0 0 24 24" fill="none" xmlns="http://www.w3.org/2000/svg">
<path d="M6.85 4C4.7237 4 3 5.7237 3 7.85V14.2944C3 15.8075 4.22584 17.0333 5.73889 17.0333C6.20833 17.0333 6.58889 16.6528 6.58889 16.1833C6.58889 15.7139 6.20833 15.3333 5.73889 15.3333C5.16472 15.3333 4.7 14.8686 4.7 14.2944V7.85C4.7 6.66259 5.66259 5.7 6.85 5.7H17.85C19.0374 5.7 20 6.66259 20 7.85V14.2944C20 14.8686 19.5353 15.3333 18.9611 15.3333C18.4917 15.3333 18.1111 15.7139 18.1111 16.1833C18.1111 16.6528 18.4917 17.0333 18.9611 17.0333C20.4742 17.0333 21.7 15.8075 21.7 14.2944V7.85C21.7 5.7237 19.9763 4 17.85 4H6.85ZM11.5909 13.7636L8.09847 17.8382C7.54246 18.4868 8.00337 19.4889 8.85772 19.4889H15.8426C16.697 19.4889 17.1579 18.4868 16.6019 17.8382L13.1094 13.7636C12.7103 13.298 11.99 13.298 11.5909 13.7636Z" fill="black"/>
</svg>
