<svg width="24" height="24" viewBox="0 0 24 24" fill="none" xmlns="http://www.w3.org/2000/svg">
<path d="M15.5 5.5C15.5 3.567 13.933 2 12 2C10.067 2 8.5 3.567 8.5 5.5C8.5 7.08551 9.55426 8.42479 11 8.85506V19.9381C7.38128 19.4869 4.51314 16.6187 4.06189 13H5.7C6.25229 13 6.7 12.5523 6.7 12C6.7 11.4477 6.25229 11 5.7 11H3C2.44772 11 2 11.4477 2 12C2 17.5228 6.47715 22 12 22C12.0011 22 12.0022 22 12.0032 22C17.5246 21.9982 22 17.5218 22 12C22 11.4477 21.5523 11 21 11H18.3C17.7477 11 17.3 11.4477 17.3 12C17.3 12.5523 17.7477 13 18.3 13H19.9381C19.4869 16.6187 16.6187 19.4869 13 19.9381V8.85506C14.4457 8.42479 15.5 7.08551 15.5 5.5Z" fill="black"/>
</svg>
