<svg width="24" height="24" viewBox="0 0 24 24" fill="none" xmlns="http://www.w3.org/2000/svg">
<path d="M7.29289 16.2929C6.90237 16.6834 6.90237 17.3166 7.29289 17.7071C7.68342 18.0976 8.31658 18.0976 8.70711 17.7071L12 14.4142L15.2929 17.7071C15.6834 18.0976 16.3166 18.0976 16.7071 17.7071C17.0976 17.3166 17.0976 16.6834 16.7071 16.2929L12.7071 12.2929C12.3166 11.9024 11.6834 11.9024 11.2929 12.2929L7.29289 16.2929ZM7.29289 11.2929C6.90237 11.6834 6.90237 12.3166 7.29289 12.7071C7.68342 13.0976 8.31658 13.0976 8.70711 12.7071L12 9.41421L15.2929 12.7071C15.6834 13.0976 16.3166 13.0976 16.7071 12.7071C17.0976 12.3166 17.0976 11.6834 16.7071 11.2929L12.7071 7.29289C12.3166 6.90237 11.6834 6.90237 11.2929 7.29289L7.29289 11.2929Z" fill="black"/>
</svg>
