<svg width="24" height="24" viewBox="0 0 24 24" fill="none" xmlns="http://www.w3.org/2000/svg">
<path d="M16.2071 8.20711C16.5976 7.81658 16.5976 7.18342 16.2071 6.79289C15.8166 6.40237 15.1834 6.40237 14.7929 6.79289L11.5 10.0858L8.20711 6.79289C7.81658 6.40237 7.18342 6.40237 6.79289 6.79289C6.40237 7.18342 6.40237 7.81658 6.79289 8.20711L10.7929 12.2071C11.1834 12.5976 11.8166 12.5976 12.2071 12.2071L16.2071 8.20711ZM16.2071 13.2071C16.5976 12.8166 16.5976 12.1834 16.2071 11.7929C15.8166 11.4024 15.1834 11.4024 14.7929 11.7929L11.5 15.0858L8.20711 11.7929C7.81658 11.4024 7.18342 11.4024 6.79289 11.7929C6.40237 12.1834 6.40237 12.8166 6.79289 13.2071L10.7929 17.2071C11.1834 17.5976 11.8166 17.5976 12.2071 17.2071L16.2071 13.2071Z" fill="black"/>
</svg>
