<svg width="24" height="24" viewBox="0 0 24 24" fill="none" xmlns="http://www.w3.org/2000/svg">
<path d="M12 20C12.5523 20 13 19.5523 13 19V5C13 4.44771 12.5523 4 12 4C11.4477 4 11 4.44771 11 5V19C11 19.5523 11.4477 20 12 20Z" fill="black"/>
<path d="M6.29289 13.2929C5.90237 13.6834 5.90237 14.3166 6.29289 14.7071L11.2929 19.7071C11.6834 20.0976 12.3166 20.0976 12.7071 19.7071C13.0976 19.3166 13.0976 18.6834 12.7071 18.2929L7.70711 13.2929C7.31658 12.9024 6.68342 12.9024 6.29289 13.2929Z" fill="black"/>
<path d="M11.2929 19.7071C11.6834 20.0976 12.3166 20.0976 12.7071 19.7071L17.7071 14.7071C18.0976 14.3166 18.0976 13.6834 17.7071 13.2929C17.3166 12.9024 16.6834 12.9024 16.2929 13.2929L11.2929 18.2929C10.9024 18.6834 10.9024 19.3166 11.2929 19.7071Z" fill="black"/>
</svg>
