<svg width="24" height="24" viewBox="0 0 24 24" fill="none" xmlns="http://www.w3.org/2000/svg">
<path d="M12 4C11.4477 4 11 4.44772 11 5V19C11 19.5523 11.4477 20 12 20C12.5523 20 13 19.5523 13 19V5C13 4.44772 12.5523 4 12 4Z" fill="black"/>
<path d="M17.7071 10.7071C18.0976 10.3166 18.0976 9.68342 17.7071 9.29289L12.7071 4.29289C12.3166 3.90237 11.6834 3.90237 11.2929 4.29289C10.9024 4.68342 10.9024 5.31658 11.2929 5.70711L16.2929 10.7071C16.6834 11.0976 17.3166 11.0976 17.7071 10.7071Z" fill="black"/>
<path d="M12.7071 4.29289C12.3166 3.90237 11.6834 3.90237 11.2929 4.29289L6.29289 9.29289C5.90237 9.68342 5.90237 10.3166 6.29289 10.7071C6.68342 11.0976 7.31658 11.0976 7.70711 10.7071L12.7071 5.70711C13.0976 5.31658 13.0976 4.68342 12.7071 4.29289Z" fill="black"/>
</svg>
