<svg width="24" height="24" viewBox="0 0 24 24" fill="none" xmlns="http://www.w3.org/2000/svg">
<path d="M20.2 12.1C20.2 11.4925 19.7075 11 19.1 11H5.1C4.49249 11 4 11.4925 4 12.1C4 12.7075 4.49249 13.2 5.1 13.2H19.1C19.7075 13.2 20.2 12.7075 20.2 12.1Z" fill="black"/>
<path d="M13.3222 17.8778C13.7518 18.3074 14.4482 18.3074 14.8778 17.8778L19.8778 12.8778C20.3074 12.4482 20.3074 11.7518 19.8778 11.3222C19.4482 10.8926 18.7518 10.8926 18.3222 11.3222L13.3222 16.3222C12.8926 16.7518 12.8926 17.4482 13.3222 17.8778Z" fill="black"/>
<path d="M19.8778 12.8778C20.3074 12.4482 20.3074 11.7518 19.8778 11.3222L14.8778 6.32218C14.4482 5.89261 13.7518 5.89261 13.3222 6.32218C12.8926 6.75176 12.8926 7.44824 13.3222 7.87782L18.3222 12.8778C18.7518 13.3074 19.4482 13.3074 19.8778 12.8778Z" fill="black"/>
</svg>
