<svg width="24" height="24" viewBox="0 0 24 24" fill="none" xmlns="http://www.w3.org/2000/svg">
<path d="M9.87934 7.85169L10.6426 7.08814V10.6729H7.05804L7.8518 9.8791C8.20327 9.52763 8.20327 8.95778 7.8518 8.60631C7.50032 8.25484 6.93048 8.25484 6.579 8.60631L4.2636 10.9217C4.0948 11.0905 3.99998 11.3195 4 11.5582C4.00002 11.7969 4.09488 12.0258 4.26371 12.1946L6.57911 14.5092C6.93065 14.8606 7.50049 14.8605 7.85191 14.509C8.20332 14.1575 8.20322 13.5876 7.85169 13.2362L7.08807 12.4729H10.6426V16.0272L9.87934 15.2637C9.52793 14.9121 8.95808 14.912 8.60655 15.2635C8.25502 15.6149 8.25492 16.1847 8.60633 16.5362L10.9209 18.8516C11.0897 19.0205 11.3186 19.1153 11.5574 19.1154C11.7961 19.1154 12.025 19.0206 12.1938 18.8518L14.5092 16.5364C14.8607 16.1849 14.8607 15.615 14.5092 15.2636C14.1578 14.9121 13.5879 14.9121 13.2364 15.2636L12.4426 16.0574V12.4729H16.0273L15.2637 13.2362C14.9122 13.5876 14.9121 14.1575 15.2635 14.509C15.6149 14.8605 16.1848 14.8606 16.5363 14.5092L18.8517 12.1946C19.0205 12.0258 19.1154 11.7969 19.1154 11.5582C19.1154 11.3195 19.0206 11.0905 18.8518 10.9217L16.5364 8.60631C16.1849 8.25484 15.6151 8.25484 15.2636 8.60631C14.9122 8.95778 14.9122 9.52763 15.2636 9.8791L16.0574 10.6729H12.4426V7.05798L13.2364 7.8518C13.5879 8.20327 14.1578 8.20327 14.5092 7.8518C14.8607 7.50032 14.8607 6.93048 14.5092 6.579L12.1938 4.2636C12.025 4.0948 11.7961 3.99998 11.5574 4C11.3186 4.00002 11.0897 4.09488 10.9209 4.26371L8.60633 6.57911C8.25492 6.93065 8.25502 7.50049 8.60655 7.85191C8.95808 8.20332 9.52793 8.20322 9.87934 7.85169Z" fill="black"/>
</svg>
