<svg width="24" height="24" viewBox="0 0 24 24" fill="none" xmlns="http://www.w3.org/2000/svg">
<path d="M4 12C4 12.5523 4.44772 13 5 13H19C19.5523 13 20 12.5523 20 12C20 11.4477 19.5523 11 19 11H5C4.44772 11 4 11.4477 4 12Z" fill="black"/>
<path d="M10.7071 6.29289C10.3166 5.90237 9.68342 5.90237 9.29289 6.29289L4.29289 11.2929C3.90237 11.6834 3.90237 12.3166 4.29289 12.7071C4.68342 13.0976 5.31658 13.0976 5.70711 12.7071L10.7071 7.70711C11.0976 7.31658 11.0976 6.68342 10.7071 6.29289Z" fill="black"/>
<path d="M4.29289 11.2929C3.90237 11.6834 3.90237 12.3166 4.29289 12.7071L9.29289 17.7071C9.68342 18.0976 10.3166 18.0976 10.7071 17.7071C11.0976 17.3166 11.0976 16.6834 10.7071 16.2929L5.70711 11.2929C5.31658 10.9024 4.68342 10.9024 4.29289 11.2929Z" fill="black"/>
</svg>
