<svg width="24" height="24" viewBox="0 0 24 24" fill="none" xmlns="http://www.w3.org/2000/svg">
<path d="M8.30005 15.3923C7.90945 15.7827 7.90935 16.4159 8.2998 16.8065L11.1993 19.707C11.3868 19.8946 11.6412 20 11.9064 20C12.1717 20 12.4261 19.8947 12.6136 19.7071L15.5141 16.8066C15.9047 16.4161 15.9047 15.7829 15.5141 15.3924C15.1236 15.0019 14.4904 15.0019 14.0999 15.3924L11.9067 17.5857L9.71426 15.3925C9.3238 15.0019 8.69064 15.0018 8.30005 15.3923Z" fill="black"/>
<path d="M15.507 8.60773C15.8976 8.21727 15.8977 7.58411 15.5072 7.19352L12.6077 4.29302C12.4202 4.10543 12.1658 4.00002 11.9006 4C11.6353 3.99998 11.381 4.10534 11.1934 4.29289L8.29289 7.19339C7.90237 7.58392 7.90237 8.21708 8.29289 8.60761C8.68342 8.99813 9.31658 8.99813 9.70711 8.60761L11.9004 6.41434L14.0928 8.60749C14.4832 8.99808 15.1164 8.99819 15.507 8.60773Z" fill="black"/>
<path d="M11.8996 20C12.4519 20 12.8996 19.5523 12.8996 19V5C12.8996 4.44771 12.4529 4 11.9006 4C11.3483 4 10.8996 4.44771 10.8996 5V19C10.8996 19.5523 11.3473 20 11.8996 20Z" fill="black"/>
</svg>
