<svg width="24" height="24" viewBox="0 0 24 24" fill="none" xmlns="http://www.w3.org/2000/svg">
<path d="M8.60773 8.30005C8.21727 7.90945 7.58411 7.90935 7.19352 8.2998L4.29302 11.1993C4.10543 11.3868 4.00002 11.6412 4 11.9064C3.99998 12.1717 4.10534 12.4261 4.29289 12.6136L7.19339 15.5141C7.58392 15.9047 8.21708 15.9047 8.60761 15.5141C8.99813 15.1236 8.99813 14.4904 8.60761 14.0999L6.41434 11.9067L8.60749 9.71426C8.99808 9.3238 8.99819 8.69064 8.60773 8.30005Z" fill="black"/>
<path d="M15.3923 15.507C15.7827 15.8976 16.4159 15.8977 16.8065 15.5072L19.707 12.6077C19.8946 12.4202 20 12.1658 20 11.9006C20 11.6353 19.8947 11.381 19.7071 11.1934L16.8066 8.29289C16.4161 7.90237 15.7829 7.90237 15.3924 8.29289C15.0019 8.68342 15.0019 9.31658 15.3924 9.70711L17.5857 11.9004L15.3925 14.0928C15.0019 14.4832 15.0018 15.1164 15.3923 15.507Z" fill="black"/>
<path d="M4 11.8996C4 12.4519 4.44772 12.8996 5 12.8996H19C19.5523 12.8996 20 12.4529 20 11.9006C20 11.3483 19.5523 10.8996 19 10.8996H5C4.44772 10.8996 4 11.3473 4 11.8996Z" fill="black"/>
</svg>
