<svg width="24" height="24" viewBox="0 0 24 24" fill="none" xmlns="http://www.w3.org/2000/svg">
<path d="M2.17201 3.48267C2.16994 3.48621 2.16788 3.48975 2.16582 3.4933C1.87442 3.29877 1.47688 3.33011 1.21967 3.58732C0.926777 3.88021 0.926777 4.35508 1.21967 4.64798L1.75 5.17831V18.9524L1.75471 19.1253C1.84231 20.728 3.1398 22 4.72755 22H18.3126L18.4816 21.9952C18.5082 21.9937 18.5348 21.9918 18.5612 21.9895L19.102 22.5303C19.3949 22.8232 19.8698 22.8232 20.1627 22.5303C20.4406 22.2524 20.4548 21.8107 20.2053 21.516L2.17201 3.48267ZM21.0241 20.2135C21.195 19.8292 21.2902 19.4021 21.2902 18.9524V15.5691L19.4292 17.6167V18.6186L21.0241 20.2135ZM17.8788 17.0681L21.7773 13.2344L19.5748 11.0319L15.6788 14.8681L17.8788 17.0681ZM11.9191 11.1084H12.298C12.7123 11.1084 13.048 10.7726 13.048 10.3584C13.048 9.94418 12.7123 9.6084 12.298 9.6084H10.4191L11.9191 11.1084ZM7.57404 6.76338L17.5682 6.76711C18.596 6.76908 19.4276 7.60385 19.4257 8.63164L19.4245 9.23437L20.1664 8.42209C20.4507 8.11093 20.8667 7.9547 21.2855 8.00187L21.2902 5.04762L21.2855 4.87468C21.1979 3.27199 19.9004 2 18.3126 2H4.72755L4.55859 2.00482C4.07444 2.03255 3.62118 2.17866 3.22599 2.41533L7.57404 6.76338ZM3.61585 8.62287C3.61614 8.18101 3.77038 7.77519 4.02781 7.45611L6.18009 9.6084H5.87891C5.46469 9.6084 5.12891 9.94418 5.12891 10.3584C5.12891 10.7726 5.46469 11.1084 5.87891 11.1084H7.68009L9.08537 12.5137H5.87891C5.46469 12.5137 5.12891 12.8495 5.12891 13.2637C5.12891 13.6779 5.46469 14.0137 5.87891 14.0137H9.59251C9.86183 14.0137 10.098 13.8717 10.2303 13.6586L16.6669 20.0952H4.72755L4.61339 20.0893C4.05034 20.0308 3.61097 19.5441 3.61097 18.9524L3.61585 8.62287ZM22.4904 12.5333L23.0929 11.9408C23.4834 11.5567 23.4923 10.93 23.1129 10.535L22.3396 9.73009C21.9537 9.32834 21.3138 9.31946 20.9169 9.71034L20.2873 10.3302L22.4904 12.5333Z" fill="black"/>
</svg>
