<svg width="24" height="24" viewBox="0 0 24 24" fill="none" xmlns="http://www.w3.org/2000/svg">
<path d="M17.3062 3H4.75168L4.59553 3.00446C3.14847 3.08731 2 4.3146 2 5.81643V18.6664L2.00436 18.8262C2.08531 20.3073 3.28437 21.4828 4.75168 21.4828H17.3062L17.4624 21.4784C18.9094 21.3955 20.0579 20.1682 20.0579 18.6664V15.5397L18.3381 17.432V18.6664L18.3328 18.7744C18.2799 19.3069 17.8405 19.7225 17.3062 19.7225H4.75168L4.64617 19.7171C4.12584 19.663 3.7198 19.2132 3.7198 18.6664L3.72431 9.12047C3.72493 8.17072 4.49517 7.40113 5.44492 7.40131L16.6183 7.40548C17.5681 7.4073 18.3366 8.17875 18.3348 9.12857L18.3337 9.68558L19.0194 8.93491C19.282 8.64736 19.6665 8.50298 20.0535 8.54657L20.0579 5.81643L20.0535 5.65661C19.9726 4.17549 18.7735 3 17.3062 3Z" fill="black"/>
<path d="M20.5081 13.3822L18.4726 11.3467L14.6942 15.0672C14.54 15.2276 14.4539 15.4444 14.4539 15.6705L14.1543 17.1411C14.0879 17.4668 14.3768 17.7539 14.7021 17.6855L16.1066 17.3902C16.324 17.3902 16.5323 17.3006 16.6857 17.141L20.5081 13.3822ZM21.167 12.7342L19.1311 10.6983L19.7129 10.1254C20.0797 9.7642 20.671 9.77241 21.0277 10.1437L21.7423 10.8875C22.093 11.2526 22.0847 11.8318 21.7238 12.1867L21.167 12.7342Z" fill="black"/>
<path d="M5.12259 10.7243C5.12259 11.1071 5.4329 11.4174 5.81569 11.4174H11.7479C12.1307 11.4174 12.441 11.1071 12.441 10.7243C12.441 10.3415 12.1307 10.0312 11.7479 10.0312H5.81569C5.4329 10.0312 5.12259 10.3415 5.12259 10.7243Z" fill="black"/>
<path d="M5.12259 13.4092C5.12259 13.792 5.4329 14.1023 5.81569 14.1023H9.24758C9.63038 14.1023 9.94069 13.792 9.94069 13.4092C9.94069 13.0264 9.63038 12.7161 9.24758 12.7161H5.81569C5.4329 12.7161 5.12259 13.0264 5.12259 13.4092Z" fill="black"/>
</svg>
