<svg width="24" height="24" viewBox="0 0 24 24" fill="none" xmlns="http://www.w3.org/2000/svg">
<path d="M12.0779 4C11.5256 4 11.0779 4.44772 11.0779 5V10.2838L6.50014 7.64097C6.02184 7.36484 5.41025 7.52873 5.13413 8.00703C4.858 8.48533 5.02189 9.09692 5.50019 9.37305L10.0788 12.0163L5.5157 14.6514C5.03744 14.9276 4.87363 15.5392 5.14982 16.0175C5.42601 16.4957 6.03762 16.6595 6.51588 16.3834L11.0796 13.7479V18.9999C11.0796 19.5522 11.5273 19.9999 12.0796 19.9999C12.6318 19.9999 13.0796 19.5522 13.0796 18.9999V13.7498L17.5824 16.3497C18.0606 16.6258 18.6722 16.462 18.9484 15.9837C19.2246 15.5054 19.0607 14.8938 18.5824 14.6176L14.0781 12.0169L18.5946 9.40915C19.0729 9.133 19.2368 8.52141 18.9607 8.04312C18.6845 7.56483 18.0729 7.40097 17.5946 7.67712L13.0779 10.2849V5C13.0779 4.44772 12.6302 4 12.0779 4Z" fill="black"/>
</svg>
