<svg width="24" height="24" viewBox="0 0 24 24" fill="none" xmlns="http://www.w3.org/2000/svg">
<path d="M12 4C16.4175 4 20 7.58249 20 12V13.4994C20 14.5001 19.1881 15.311 18.1884 15.311C17.1891 15.311 16.3768 14.4987 16.3768 13.4994V12C16.3768 9.58292 14.4189 7.625 12.0018 7.625C9.58472 7.625 7.6268 9.58292 7.6268 12C7.6268 14.4171 9.58472 16.375 12.0018 16.375C13.0867 16.375 14.079 15.9806 14.8434 15.3272C15.491 16.5091 16.7467 17.311 18.1884 17.311C20.2919 17.311 22 15.6055 22 13.4994V12C22 6.47792 17.5221 2 12 2C6.47791 2 2 6.47792 2 12C2 17.5221 6.47792 22 12 22C13.2755 22 14.5738 21.7579 15.827 21.2403C16.3374 21.0294 16.5803 20.4447 16.3695 19.9342C16.1586 19.4238 15.5739 19.1809 15.0634 19.3918C14.0594 19.8065 13.0213 20 12 20C7.58248 20 4 16.4175 4 12C4 7.58249 7.58248 4 12 4ZM14.3768 12C14.3768 13.3125 13.3143 14.375 12.0018 14.375C10.6893 14.375 9.6268 13.3125 9.6268 12C9.6268 10.6875 10.6893 9.625 12.0018 9.625C13.3143 9.625 14.3768 10.6875 14.3768 12Z" fill="black"/>
</svg>
