<svg width="24" height="24" viewBox="0 0 24 24" fill="none" xmlns="http://www.w3.org/2000/svg">
<path d="M5 4C3.34315 4 2 5.34315 2 7V17C2 18.6569 3.34315 20 5 20H19C20.6569 20 22 18.6569 22 17V7C22 5.34315 20.6569 4 19 4H5ZM12.2676 9C12.2676 8.58579 12.6034 8.25 13.0176 8.25H15.0192C17.0794 8.25 18.7494 9.92007 18.7494 11.9802C18.7494 14.0403 17.0794 15.7104 15.0192 15.7104H13.0176C12.6034 15.7104 12.2676 15.3746 12.2676 14.9604V9ZM13.7676 9.75V14.2104H15.0192C16.2509 14.2104 17.2494 13.2119 17.2494 11.9802C17.2494 10.7485 16.2509 9.75 15.0192 9.75H13.7676ZM8.5612 10.9443L7.59925 13.1743H9.51505L8.5612 10.9443ZM10.1567 14.6743H6.95219L6.68885 15.2848C6.52478 15.6651 6.08346 15.8405 5.70312 15.6764C5.32279 15.5123 5.14747 15.071 5.31153 14.6907L5.74863 13.6774C5.76046 13.6435 5.77465 13.6106 5.79102 13.5791L7.86901 8.76196C7.99217 8.47646 8.27155 8.30648 8.5641 8.30886C8.85748 8.30648 9.13747 8.47746 9.26007 8.76408L11.796 14.6928C11.9589 15.0736 11.7822 15.5144 11.4014 15.6773C11.0206 15.8402 10.5798 15.6635 10.4169 15.2827L10.1567 14.6743Z" fill="black"/>
</svg>
