<svg width="24" height="24" viewBox="0 0 24 24" fill="none" xmlns="http://www.w3.org/2000/svg">
<path d="M17.3847 16.5754C17.3357 16.6455 17.2903 16.7186 17.2489 16.7945L17.1972 16.8894C16.4533 18.2548 14.8382 18.8544 13.4079 18.2962L13.3085 18.2574C13.2566 18.2372 13.2041 18.2189 13.1513 18.2027L14.3918 21.6813L14.4267 21.7569C14.5359 21.9466 14.7683 22.0371 14.9817 21.9609C15.0394 21.9403 15.0924 21.9085 15.1376 21.8672L16.4417 20.6779L18.2002 20.7343L18.2833 20.7295C18.4998 20.6974 18.6691 20.5142 18.6763 20.2877C18.6782 20.2299 18.6692 20.1722 18.6497 20.1178L17.3847 16.5754ZM7.61533 16.5754L6.35027 20.1178C6.33083 20.1722 6.3218 20.2299 6.32366 20.2877C6.33183 20.5425 6.54503 20.7425 6.79985 20.7343L8.55832 20.6779L9.86235 21.8672C9.9076 21.9085 9.96061 21.9403 10.0183 21.9609C10.2584 22.0466 10.5225 21.9214 10.6082 21.6813L11.848 18.2029L11.6915 18.2574L11.5921 18.2962C10.1618 18.8544 8.54675 18.2548 7.80278 16.8894L7.75106 16.7945C7.70969 16.7186 7.66435 16.6455 7.61533 16.5754ZM13.3828 2.2469C12.8417 1.91774 12.1583 1.91774 11.6169 2.24664C11.532 2.29858 11.4504 2.35867 11.3733 2.42688L11.2928 2.49803C10.6191 3.09404 9.75343 3.41543 8.86173 3.40059L8.75528 3.39881L8.60562 3.4029C7.81512 3.45946 7.15593 4.06498 7.02903 4.87629L7.0102 4.99666C6.87092 5.88707 6.41084 6.69583 5.71869 7.26887L5.63603 7.3373C4.97156 7.88742 4.80479 8.85218 5.24472 9.60092L5.253 9.61493L5.30892 9.7102C5.76182 10.481 5.91972 11.3899 5.75335 12.2683L5.7487 12.2929L5.7285 12.3995C5.59481 13.1053 5.8969 13.8052 6.45944 14.1896L6.58328 14.2673C6.66902 14.3152 6.75984 14.3565 6.85523 14.3901L6.92804 14.4157C6.93244 14.4173 6.93684 14.4189 6.94123 14.4204L6.95586 14.4256C7.79875 14.7227 8.50447 15.3267 8.93771 16.1218L8.98944 16.2167C9.40518 16.9797 10.3077 17.3148 11.107 17.0029L11.2064 16.9641C12.0394 16.639 12.9606 16.639 13.7936 16.9641L13.893 17.0029C14.6923 17.3148 15.5948 16.9797 16.0106 16.2167L16.0623 16.1218C16.4955 15.3267 17.2012 14.7227 18.0441 14.4256L18.058 14.4199L18.072 14.4157L18.1448 14.3901C18.2402 14.3565 18.331 14.3152 18.4167 14.2673L18.5406 14.1896C19.1031 13.8052 19.4052 13.1053 19.2715 12.3995L19.2513 12.2929L19.2467 12.2683C19.0803 11.3899 19.2382 10.481 19.6911 9.7102L19.747 9.61493L19.7553 9.60092C20.1952 8.85218 20.0284 7.88742 19.364 7.3373L19.2813 7.26887L19.1147 7.12209C18.5147 6.56047 18.1175 5.81287 17.9898 4.99666L17.971 4.87629C17.8361 4.01428 17.1004 3.38457 16.2447 3.39881L16.1383 3.40059C15.2466 3.41543 14.3809 3.09404 13.7072 2.49803L13.6267 2.42688C13.5863 2.39114 13.5447 2.35762 13.502 2.32635L13.3828 2.2469ZM12.5 6.04607C14.4995 6.04607 16.1203 7.69937 16.1203 9.73882C16.1203 11.7783 14.4995 13.4316 12.5 13.4316C10.5005 13.4316 8.87967 11.7783 8.87967 9.73882C8.87967 7.69937 10.5005 6.04607 12.5 6.04607Z" fill="black"/>
</svg>
