<svg width="24" height="24" viewBox="0 0 24 24" fill="none" xmlns="http://www.w3.org/2000/svg">
<path d="M6.19382 7.25219C7.02045 6.24249 8.10527 5.45234 9.34747 4.98255L11.2967 6.19747L11.4155 9.01047L9.51105 10.3407L6.71592 9.52541L6.19382 7.25219ZM6.25363 10.9531L9.03244 11.7636L9.71818 14.0408L8.13574 16.3952L5.77599 16.1861C5.05084 15.11 4.59739 13.8357 4.51397 12.4615L6.25363 10.9531ZM9.28271 17.3777L10.9299 14.9269H13.3006L15.0213 17.2346L14.2019 19.1716C13.5057 19.3851 12.7663 19.5 12 19.5C11.3345 19.5 10.6893 19.4133 10.075 19.2507L9.28271 17.3777ZM16.2574 16.383L14.5174 14.0494L15.2496 11.7419L18.0121 10.9117L19.4974 12.1996C19.4586 13.6841 18.9885 15.0612 18.2077 16.2102L16.2574 16.383ZM12.9182 9.04119L12.8002 6.25042L14.8531 5.06175C16.1182 5.58254 17.2096 6.43929 18.0162 7.5209L17.5664 9.47937L14.7551 10.3243L12.9182 9.04119ZM3 12C3 16.9706 7.02944 21 12 21C16.9706 21 21 16.9706 21 12C21 7.02944 16.9706 3 12 3C7.02944 3 3 7.02944 3 12Z" fill="black"/>
</svg>
