<svg width="24" height="24" viewBox="0 0 24 24" fill="none" xmlns="http://www.w3.org/2000/svg">
<path d="M4 6.5V7.5C4 7.77614 4.22386 8 4.5 8H19.5C19.7761 8 20 7.77614 20 7.5V6.5C20 6.22386 19.7761 6 19.5 6H4.5C4.22386 6 4 6.22386 4 6.5ZM4.5 10.75C4.22386 10.75 4 10.9739 4 11.25V12.25C4 12.5261 4.22386 12.75 4.5 12.75H19.5C19.7761 12.75 20 12.5261 20 12.25V11.25C20 10.9739 19.7761 10.75 19.5 10.75H4.5ZM4.5 15.5C4.22386 15.5 4 15.7239 4 16V17C4 17.2761 4.22386 17.5 4.5 17.5H19.5C19.7761 17.5 20 17.2761 20 17V16C20 15.7239 19.7761 15.5 19.5 15.5H4.5Z" fill="black"/>
</svg>
