<svg width="24" height="24" viewBox="0 0 24 24" fill="none" xmlns="http://www.w3.org/2000/svg">
<path d="M4 7.8H16C16.6627 7.8 17.2 8.33726 17.2 9V15C17.2 15.6627 16.6627 16.2 16 16.2H4C3.33726 16.2 2.8 15.6627 2.8 15V9C2.8 8.33726 3.33726 7.8 4 7.8ZM1 9V15C1 16.6569 2.34315 18 4 18H16C17.6569 18 19 16.6569 19 15V9C19 7.34315 17.6569 6 16 6H4C2.34315 6 1 7.34315 1 9ZM22 10C22 9.44772 21.5523 9 21 9C20.4477 9 20 9.44772 20 10V14C20 14.5523 20.4477 15 21 15C21.5523 15 22 14.5523 22 14V10Z" fill="black"/>
</svg>
