<svg width="24" height="24" viewBox="0 0 24 24" fill="none" xmlns="http://www.w3.org/2000/svg">
<path d="M2 9V15C2 16.6569 3.34315 18 5 18H17C18.6569 18 20 16.6569 20 15V9C20 7.34315 18.6569 6 17 6H5C3.34315 6 2 7.34315 2 9ZM22 9.25C22.4142 9.25 22.75 9.58579 22.75 10V14C22.75 14.4142 22.4142 14.75 22 14.75C21.5858 14.75 21.25 14.4142 21.25 14V10C21.25 9.58579 21.5858 9.25 22 9.25ZM4.5 14.5V9.5C4.5 8.94772 4.94772 8.5 5.5 8.5H6.5C7.05228 8.5 7.5 8.94772 7.5 9.5V14.5C7.5 15.0523 7.05228 15.5 6.5 15.5H5.5C4.94772 15.5 4.5 15.0523 4.5 14.5Z" fill="black"/>
</svg>
