<svg width="24" height="24" viewBox="0 0 24 24" fill="none" xmlns="http://www.w3.org/2000/svg">
<path d="M13.9258 11.1886C14.0508 11.4482 14.0159 11.7566 13.8361 11.9818L9.62507 17.2556H17.5C18.6046 17.2556 19.5 16.3601 19.5 15.2556V14.1388H21.5C22.1904 14.1388 22.75 13.5791 22.75 12.8888V10.1388C22.75 9.4484 22.1903 8.88874 21.4999 8.88879L19.5 8.88894V8C19.5 6.89543 18.6046 6 17.5 6H13.4912L9.784 10.7638H13.25C13.5382 10.7638 13.8009 10.9289 13.9258 11.1886ZM19.5 10.3889C19.5 10.3889 19.5 10.3889 19.5001 10.3889L21.25 10.3888V12.6388H19.5V10.3889ZM4 17.2556H7.70555L11.6914 12.2638L8.24999 12.2638C7.96351 12.2638 7.70204 12.1006 7.57621 11.8432C7.45038 11.5858 7.48216 11.2792 7.6581 11.0532L11.5905 6H4C2.89543 6 2 6.89543 2 8V15.2556C2 16.3601 2.89543 17.2556 4 17.2556Z" fill="black"/>
</svg>
