<svg width="24" height="24" viewBox="0 0 24 24" fill="none" xmlns="http://www.w3.org/2000/svg">
<path d="M2.28033 3.21967C1.98744 2.92678 1.51256 2.92678 1.21967 3.21967C0.926777 3.51256 0.926777 3.98744 1.21967 4.28033L2.65071 5.71137C1.80905 6.24272 1.25 7.18107 1.25 8.25V14.25C1.25 15.9069 2.59315 17.25 4.25 17.25H14.1893L17.2197 20.2803C17.5126 20.5732 17.9874 20.5732 18.2803 20.2803C18.5732 19.9874 18.5732 19.5126 18.2803 19.2197L2.28033 3.21967ZM12.3893 15.45H4.25C3.58726 15.45 3.05 14.9127 3.05 14.25V8.25C3.05 7.66847 3.46366 7.18355 4.01278 7.07344L12.3893 15.45ZM17.45 14.25C17.45 14.8315 17.0363 15.3164 16.4872 15.4266L17.8493 16.7886C18.691 16.2573 19.25 15.3189 19.25 14.25V8.25C19.25 6.59315 17.9069 5.25 16.25 5.25H6.31066L8.11066 7.05H16.25C16.9127 7.05 17.45 7.58726 17.45 8.25V14.25ZM22.25 9.25C22.25 8.69772 21.8023 8.25 21.25 8.25C20.6977 8.25 20.25 8.69772 20.25 9.25V13.25C20.25 13.8023 20.6977 14.25 21.25 14.25C21.8023 14.25 22.25 13.8023 22.25 13.25V9.25Z" fill="black"/>
</svg>
