<svg width="24" height="24" viewBox="0 0 24 24" fill="none" xmlns="http://www.w3.org/2000/svg">
<path d="M12.0954 3C8.66509 3 5.88428 5.78081 5.88428 9.21112L5.88342 12.4866C4.80074 12.7622 4 13.7437 4 14.9122C4 16.2945 5.12057 17.415 6.50286 17.415H17.6168C18.9991 17.415 20.1196 16.2945 20.1196 14.9122C20.1196 13.7691 19.3534 12.805 18.3065 12.5056L18.3065 9.21112C18.3065 5.78081 15.5257 3 12.0954 3Z" fill="black"/>
<path d="M9.28271 18.6226C8.90958 18.8024 8.75288 19.2507 8.93273 19.6239C8.94019 19.6393 8.94894 19.6578 8.95882 19.6786C9.02907 19.8265 9.15631 20.0945 9.28249 20.2765C9.89866 21.1653 10.9285 21.75 12.095 21.75C13.5364 21.75 14.7678 20.8586 15.2715 19.5997C15.4254 19.2151 15.2383 18.7786 14.8538 18.6248C14.4692 18.4709 14.0327 18.6579 13.8788 19.0425C13.5952 19.7514 12.9024 20.25 12.095 20.25C11.4411 20.25 10.8632 19.9238 10.5153 19.4219C10.4651 19.3495 10.3993 19.2126 10.3182 19.0438C10.3071 19.0206 10.2957 18.9969 10.284 18.9726C10.1041 18.5994 9.65584 18.4428 9.28271 18.6226Z" fill="black"/>
</svg>
