<svg width="24" height="24" viewBox="0 0 24 24" fill="none" xmlns="http://www.w3.org/2000/svg">
<path d="M16.75 1.75C16.75 1.33579 16.4142 1 16 1C15.5858 1 15.25 1.33579 15.25 1.75L15.25 3L14 3C13.5858 3 13.25 3.33579 13.25 3.75C13.25 4.16421 13.5858 4.5 14 4.5L15.25 4.5V5.75C15.25 6.16421 15.5858 6.5 16 6.5C16.4142 6.5 16.75 6.16421 16.75 5.75V4.5L18 4.5C18.4142 4.5 18.75 4.16421 18.75 3.75C18.75 3.33579 18.4142 3 18 3L16.75 3L16.75 1.75ZM18.6341 6.76034C17.9304 7.37654 17.0088 7.75 16 7.75C13.7909 7.75 12 5.95914 12 3.75C12 3.02964 12.1904 2.35376 12.5237 1.76995C12.3492 1.75673 12.1729 1.75 11.995 1.75C8.1835 1.75 5.09367 4.83983 5.09367 8.65134L5.09272 12.2908C3.88972 12.5971 3 13.6876 3 14.9859C3 16.5218 4.24509 17.7669 5.78099 17.7669H18.1299C19.6658 17.7669 20.9109 16.5218 20.9109 14.9859C20.9109 13.7159 20.0595 12.6446 18.8963 12.3119L18.8963 8.65134C18.8963 7.99563 18.8049 7.36128 18.6341 6.76034ZM8.90677 19.1838C8.53364 19.3637 8.37695 19.8119 8.55679 20.1851L8.58653 20.2474C8.66522 20.413 8.80301 20.703 8.93884 20.8989C9.60858 21.8651 10.7277 22.5003 11.9954 22.5003C13.5618 22.5003 14.9001 21.5317 15.4475 20.1635C15.6014 19.7789 15.4144 19.3424 15.0298 19.1885C14.6452 19.0347 14.2087 19.2217 14.0548 19.6063C13.7275 20.4245 12.9278 21.0003 11.9954 21.0003C11.2403 21.0003 10.5731 20.6235 10.1716 20.0444C10.1118 19.958 10.0355 19.7992 9.94632 19.6134L9.90803 19.5338C9.72819 19.1607 9.27991 19.004 8.90677 19.1838Z" fill="black"/>
</svg>
