<svg width="24" height="24" viewBox="0 0 24 24" fill="none" xmlns="http://www.w3.org/2000/svg">
<path d="M6.79151 4.09708C6.51669 3.95617 6.17158 3.99525 5.93425 4.21939C5.63311 4.5038 5.61955 4.97848 5.90396 5.27962L6.70341 6.12615C6.18226 7.03508 5.8843 8.08835 5.8843 9.2112L5.88345 12.4867C4.80075 12.7624 4 13.7438 4 14.9123C4 16.2947 5.12058 17.4152 6.50289 17.4152H17.6169L17.646 17.4151L17.6617 17.4148L18.7156 18.4973C19.0046 18.794 19.4794 18.8004 19.7762 18.5114C20.0232 18.2709 20.069 17.9015 19.9107 17.6133C19.8401 17.577 19.774 17.5289 19.7156 17.4689L8.7789 6.23659L6.90396 4.25124C6.85906 4.2037 6.82159 4.15184 6.79151 4.09708ZM20.0162 15.6274C20.0836 15.4008 20.1198 15.1608 20.1198 14.9123C20.1198 13.7693 19.3536 12.8052 18.3067 12.5057L18.3067 9.2112C18.3067 5.78085 15.5259 3 12.0955 3C10.8526 3 9.69502 3.36505 8.72404 3.99378L9.86556 5.20245L20.0162 15.6274ZM9.28374 18.6232C8.9106 18.8031 8.75391 19.2513 8.93376 19.6245L8.95985 19.6792C9.0301 19.8271 9.15734 20.0951 9.28352 20.2771C9.8997 21.166 10.9295 21.7506 12.096 21.7506C13.5375 21.7506 14.7689 20.8592 15.2726 19.6003C15.4265 19.2157 15.2394 18.7792 14.8549 18.6254C14.4703 18.4715 14.0338 18.6585 13.8799 19.0431C13.5963 19.752 12.9035 20.2506 12.096 20.2506C11.4421 20.2506 10.8642 19.9245 10.5163 19.4225C10.4661 19.3501 10.4003 19.2133 10.3192 19.0444L10.285 18.9732C10.1051 18.6001 9.65687 18.4434 9.28374 18.6232Z" fill="black"/>
</svg>
