<svg width="24" height="24" viewBox="0 0 24 24" fill="none" xmlns="http://www.w3.org/2000/svg">
<path d="M11.1779 4.07791C10.8065 4.23376 10.5648 4.59723 10.5648 5.00003V9.61679L8.70059 7.78646C8.3065 7.39954 7.67336 7.40535 7.28644 7.79944C6.89951 8.19353 6.90532 8.82667 7.29941 9.21359L10.1374 12L7.29941 14.7865C6.90532 15.1734 6.89951 15.8065 7.28644 16.2006C7.67336 16.5947 8.3065 16.6005 8.70059 16.2136L10.5648 14.3833V19C10.5648 19.4028 10.8065 19.7663 11.1779 19.9221C11.5493 20.078 11.978 19.9958 12.2654 19.7136L15.8302 16.2136C16.0217 16.0256 16.1296 15.7684 16.1296 15.5C16.1296 15.2316 16.0217 14.9745 15.8302 14.7865L12.9922 12L15.8302 9.21359C16.0217 9.02556 16.1296 8.76842 16.1296 8.50003C16.1296 8.23163 16.0217 7.9745 15.8302 7.78646L12.2654 4.28646C11.978 4.00427 11.5493 3.92207 11.1779 4.07791ZM12.5648 14.3833L13.7023 15.5L12.5648 16.6168V14.3833ZM12.5648 9.61679V7.38326L13.7023 8.50003L12.5648 9.61679Z" fill="black"/>
</svg>
