<svg width="24" height="24" viewBox="0 0 24 24" fill="none" xmlns="http://www.w3.org/2000/svg">
<path d="M5 4V20C5 20.5523 5.44772 21 6 21H14C16.7614 21 19 18.7614 19 16C19 14.0356 17.8671 12.3357 16.2191 11.5182C17.1138 10.6148 17.6663 9.37191 17.6663 8C17.6663 5.23857 15.4277 3 12.6663 3H6C5.44772 3 5 3.44772 5 4ZM7 13H14C15.6569 13 17 14.3431 17 16C17 17.6569 15.6569 19 14 19H7V13ZM12.6663 11H7V5H12.6663C14.3231 5 15.6663 6.34314 15.6663 8C15.6663 9.65686 14.3231 11 12.6663 11Z" fill="black"/>
</svg>
