<svg width="24" height="24" viewBox="0 0 24 24" fill="none" xmlns="http://www.w3.org/2000/svg">
<path d="M4 6V15.5213C4.78475 14.904 5.77468 14.5357 6.85061 14.5357H19.8231C19.9349 14.5357 20.044 14.5445 20.15 14.5614V4C20.15 3.44772 19.7023 3 19.15 3H7C5.34315 3 4 4.34315 4 6ZM7.94922 8.5C7.94922 8.08579 8.28501 7.75 8.69922 7.75H15.1992C15.6134 7.75 15.9492 8.08579 15.9492 8.5C15.9492 8.91421 15.6134 9.25 15.1992 9.25H8.69922C8.28501 9.25 7.94922 8.91421 7.94922 8.5ZM8.69922 10.75H15.1992C15.6134 10.75 15.9492 11.0858 15.9492 11.5C15.9492 11.9142 15.6134 12.25 15.1992 12.25H8.69922C8.28501 12.25 7.94922 11.9142 7.94922 11.5C7.94922 11.0858 8.28501 10.75 8.69922 10.75Z" fill="black"/>
<path d="M19.7492 19.15C19.729 19.9221 19.8386 20.5971 20.0794 21.6852C20.1044 21.8485 19.9787 22 19.8108 22H6.85061C5.2766 22 4.00061 20.724 4.00061 19.15C4.00061 17.576 5.2766 16.3 6.85061 16.3H19.8231C19.9932 16.3 20.1211 16.4559 20.09 16.6231C19.8802 17.7524 19.7666 18.487 19.7492 19.15Z" fill="black"/>
</svg>
