<svg width="24" height="24" viewBox="0 0 24 24" fill="none" xmlns="http://www.w3.org/2000/svg">
<path d="M11.8708 18.6393H3V19.6747C3 20.4066 3.57543 21 4.28526 21H6.15014C6.85997 21 7.43541 20.4066 7.43541 19.6747C7.43541 20.4066 8.01084 21 8.72067 21H10.5856C11.2954 21 11.8708 20.4066 11.8708 19.6747V18.6393ZM20.1148 17.8212L15.8305 19.0049L16.0904 20.005C16.2741 20.7121 16.9788 21.1316 17.6645 20.9422L19.4658 20.4445C20.1515 20.255 20.5584 19.5283 20.3746 18.8213L20.1148 17.8212ZM17.0559 6.045C17.0221 6.07812 16.9829 6.10609 16.9391 6.12728L16.8642 6.15548L12.7842 7.28202L15.6046 18.1356L19.8889 16.9518L17.0559 6.045ZM11.8708 6.53184V17.7393H3V6.53184H11.8708ZM16.5221 3.99496C16.3383 3.28794 15.6336 2.86836 14.9479 3.05781L13.1466 3.55553C12.461 3.74497 12.0541 4.4717 12.2378 5.17872L12.5583 6.41269L16.6383 5.28614L16.7129 5.27232C16.7624 5.26753 16.8113 5.27144 16.8579 5.28301L16.5221 3.99496ZM6.15014 3H4.28526C3.57543 3 3 3.59337 3 4.32533V5.63184H11.8708V4.32533C11.8708 3.59337 11.2954 3 10.5856 3H8.72067C8.01084 3 7.43541 3.59337 7.43541 4.32533L7.42952 4.19769C7.36724 3.52562 6.81822 3 6.15014 3Z" fill="black"/>
</svg>
