<svg width="24" height="24" viewBox="0 0 24 24" fill="none" xmlns="http://www.w3.org/2000/svg">
<path d="M12 6.4C12 5.0744 9.98564 4 7.5 4C5.01436 4 3 5.0744 3 6.4V18.6265C3 19.0933 3.62948 19.3475 3.99152 19.0529C4.81626 18.3818 6.08138 17.6 7.5 17.6C9.38348 17.6 10.4222 18.1168 11.25 19.0198V9C11.25 8.58579 11.5858 8.25 12 8.25C12.4142 8.25 12.75 8.58579 12.75 9V19.2354C13.5256 18.5094 14.7804 17.6 16.5 17.6C18.1479 17.6 19.3688 18.4351 20.1504 19.1437C20.4804 19.4429 21 19.2383 21 18.7929V6.4C21 5.0744 18.9856 4 16.5 4C14.0144 4 12 5.0744 12 6.4Z" fill="black"/>
</svg>
