<svg width="24" height="24" viewBox="0 0 24 24" fill="none" xmlns="http://www.w3.org/2000/svg">
<path d="M22 4.5C22 3.67157 21.3284 3 20.5 3H3.5C2.67157 3 2 3.67157 2 4.5V6.5C2 7.32843 2.67157 8 3.5 8H20.5C21.3284 8 22 7.32843 22 6.5L22 4.5ZM20.8008 18V9H3.2002V18C3.2002 19.6569 4.54334 21 6.2002 21H17.8008C19.4576 21 20.8008 19.6569 20.8008 18ZM8.5498 13.2C8.5498 12.7857 8.88559 12.45 9.2998 12.45H14.6998C15.114 12.45 15.4498 12.7857 15.4498 13.2C15.4498 13.6142 15.114 13.95 14.6998 13.95H9.2998C8.88559 13.95 8.5498 13.6142 8.5498 13.2Z" fill="black"/>
</svg>
