<svg width="24" height="24" viewBox="0 0 24 24" fill="none" xmlns="http://www.w3.org/2000/svg">
<path d="M12.1247 3C8.2327 3 4.92185 5.33329 3.56312 8.98502C4.6722 7.76093 6.14092 7.10768 7.84752 7.10768H7.86031C10.5082 7.11179 13.3068 8.79206 14.2318 10.9322H14.2278C14.5593 11.5812 14.482 12.2508 14.3756 12.6739C14.2529 13.1545 14.0687 13.3802 13.9992 13.4706L13.9616 13.5195C13.8265 13.6879 13.8475 13.9348 14.0071 14.0827C14.0358 14.1074 14.0808 14.1403 14.1422 14.1814L14.2485 14.2472C14.7683 14.5758 15.943 14.9123 17.007 14.9123C17.8214 14.9123 18.8852 14.785 19.8838 13.7787C21.5618 12.0945 20.9149 9.74472 20.6775 9.06285C20.2724 7.90859 18.5908 4.07217 13.8721 3.16848C13.2991 3.05757 12.71 3 12.1247 3ZM7.84752 7.92922C5.71939 7.92922 4.01298 9.12494 3.03076 11.302C2.70745 15.0647 4.97857 18.4406 7.67966 19.9522C8.06845 20.1699 9.30428 20.7946 11.0272 21C9.50482 20.277 8.34678 19.0159 7.81475 17.3769C6.93075 14.6535 8.04 11.7455 10.6388 9.97103L10.6428 9.97504C11.0357 9.71626 11.5145 9.56828 12.0056 9.56828C12.0629 9.56828 12.1162 9.56809 12.1735 9.57631C11.0235 8.59046 9.39502 7.93333 7.86031 7.92922H7.84752ZM9.54609 12.1067C8.40836 13.5731 8.03581 15.3932 8.59649 17.1226C9.33724 19.4064 11.5025 20.8522 14.1422 20.8604C16.1967 20.4003 17.9847 19.1963 19.4825 17.2533L19.5193 17.2044C19.6216 17.0524 19.6139 16.8508 19.4993 16.707C19.3807 16.5673 19.1843 16.5183 19.0165 16.5923L18.8199 16.6829C18.7381 16.7199 18.6645 16.7439 18.5745 16.7768C18.4804 16.8096 18.3739 16.8509 18.2348 16.9084C17.7069 17.1261 16.9213 17.2493 16.0782 17.2493C15.3702 17.2493 14.6786 17.1593 14.1342 16.995C13.3648 16.765 11.0192 16.0541 9.79548 13.343C9.64406 13.0062 9.542 12.575 9.54609 12.1067Z" fill="black"/>
</svg>
