<svg width="24" height="24" viewBox="0 0 24 24" fill="none" xmlns="http://www.w3.org/2000/svg">
<path d="M22 12C22 6.47667 17.5233 2 12 2C6.47667 2 2 6.47667 2 12C2 17.5233 6.47667 22 12 22C17.5233 22 22 17.5233 22 12ZM12 4.74976C12.4142 4.74976 12.75 5.08554 12.75 5.49976V5.99976C12.75 6.41397 12.4142 6.74976 12 6.74976C11.5858 6.74976 11.25 6.41397 11.25 5.99976V5.49976C11.25 5.08554 11.5858 4.74976 12 4.74976ZM4.75006 12C4.75006 11.5858 5.08585 11.25 5.50006 11.25H6.00006C6.41427 11.25 6.75006 11.5858 6.75006 12C6.75006 12.4142 6.41427 12.75 6.00006 12.75H5.50006C5.08585 12.75 4.75006 12.4142 4.75006 12ZM17.2501 12C17.2501 11.5858 17.5858 11.25 18.0001 11.25H18.5001C18.9143 11.25 19.2501 11.5858 19.2501 12C19.2501 12.4142 18.9143 12.75 18.5001 12.75H18.0001C17.5858 12.75 17.2501 12.4142 17.2501 12ZM12.75 17.9998V18.4998C12.75 18.914 12.4142 19.2498 12 19.2498C11.5858 19.2498 11.25 18.914 11.25 18.4998V17.9998C11.25 17.5855 11.5858 17.2498 12 17.2498C12.4142 17.2498 12.75 17.5855 12.75 17.9998ZM16.7702 15.7099L17.1302 16.0699C17.4231 16.3628 17.4231 16.8377 17.1302 17.1306C16.8373 17.4235 16.3624 17.4235 16.0695 17.1306L15.7095 16.7706C15.4166 16.4777 15.4166 16.0028 15.7095 15.7099C16.0024 15.417 16.4773 15.417 16.7702 15.7099ZM6.86957 6.86957C7.16247 6.57668 7.63734 6.57668 7.93023 6.86957L8.29023 7.22957C8.58313 7.52247 8.58313 7.99734 8.29023 8.29023C7.99734 8.58313 7.52247 8.58313 7.22957 8.29023L6.86957 7.93023C6.57668 7.63734 6.57668 7.16247 6.86957 6.86957ZM17.4581 6.76193L14.19 14.3726L7.22628 17.8821C6.80947 18.0922 6.35766 17.6672 6.54182 17.2383L9.80998 9.62762L16.7737 6.11814C17.1905 5.90808 17.6423 6.33305 17.4581 6.76193ZM13 12.0005C13 11.4482 12.5523 11.0005 12 11.0005C11.4477 11.0005 11 11.4482 11 12.0005C11 12.5528 11.4477 13.0005 12 13.0005C12.5523 13.0005 13 12.5528 13 12.0005Z" fill="black"/>
</svg>
