<svg width="24" height="24" viewBox="0 0 24 24" fill="none" xmlns="http://www.w3.org/2000/svg">
<path d="M11.4933 2L9.74227 2.89463L17.1769 6.6534L17.279 6.65279L16.1047 7.23826L8.659 3.465L6.87114 4.3462L14.3058 8.10498L14.3667 8.10437L13.2125 8.67919L5.77655 4.89849L4.00191 5.79636L4.00161 5.79673L4 5.79778L4.00096 5.79829L4.03387 18.266L5.75655 19.0968V6.7655L5.6844 6.64892L6.90463 7.26632L6.90501 19.7176L8.62769 20.5484V8.21708L8.55649 8.1005L9.77577 8.71693L9.77614 21.1692L11.4988 22L11.4984 17.1167L18.9733 13.4208L18.9806 11.6111L11.4984 15.34V14.2126L18.9663 10.4831L18.9806 8.70799L11.4984 12.4368V11.3094L18.9727 7.59819L19 5.79552L18.9959 5.79733L11.4933 2Z" fill="black"/>
</svg>
