<svg width="24" height="24" viewBox="0 0 24 24" fill="none" xmlns="http://www.w3.org/2000/svg">
<path d="M10.6847 6.1762L3.13405 18.4471L3.08662 18.5366C2.86965 19.0202 3.22059 19.5901 3.77281 19.5901H9.77281L9.87386 19.5833C10.1064 19.5517 10.3132 19.4123 10.4288 19.2036L10.6847 18.6715V6.1762ZM18.4406 4H12.4406L12.3389 4.00685C11.9728 4.05651 11.6906 4.3703 11.6906 4.75V18.6771L11.6975 18.7788C11.7471 19.1449 12.0609 19.4271 12.4406 19.4271H18.4406L18.5424 19.4202C18.5862 19.4143 18.6287 19.4046 18.6698 19.3914L18.7239 19.3919C16.2386 19.3919 14.2239 17.3772 14.2239 14.8919C14.2239 12.5721 15.9793 10.6623 18.2342 10.4183C16.7585 10.1132 15.6503 8.80562 15.6503 7.23917C15.6503 5.56259 16.9199 4.18253 18.5505 4.008C18.5147 4.00273 18.478 4 18.4406 4ZM18.7239 11.8919C17.067 11.8919 15.7239 13.2351 15.7239 14.8919C15.7239 16.5488 17.067 17.8919 18.7239 17.8919C18.7803 17.8919 18.8364 17.8904 18.892 17.8873L18.7239 17.8919C18.7991 17.8919 18.8737 17.8892 18.9482 17.8837C19.0303 17.8776 19.1117 17.8682 19.1918 17.8556L19.0578 17.8736C19.0769 17.8714 19.096 17.8691 19.1149 17.8667L19.1918 17.8556C20.6264 17.631 21.7239 16.3896 21.7239 14.8919C21.7239 13.3943 20.6264 12.1529 19.1915 11.9282C19.1737 11.9254 19.1558 11.9227 19.138 11.9203C19.1114 11.9166 19.0846 11.9133 19.058 11.9103C19.0216 11.9063 18.985 11.9029 18.9476 11.9001C18.9282 11.8987 18.9088 11.8975 18.89 11.8965C18.835 11.8934 18.7796 11.8919 18.7239 11.8919ZM18.9003 5.23917C17.7958 5.23917 16.9003 6.1346 16.9003 7.23917C16.9003 8.34374 17.7958 9.23917 18.9003 9.23917C20.0049 9.23917 20.9003 8.34374 20.9003 7.23917C20.9003 6.1346 20.0049 5.23917 18.9003 5.23917ZM5.5 4.01718C4.11929 4.01718 3 5.13647 3 6.51718C3 7.89789 4.11929 9.01718 5.5 9.01718C6.88071 9.01718 8 7.89789 8 6.51718C8 5.13647 6.88071 4.01718 5.5 4.01718Z" fill="black"/>
</svg>
