<svg width="24" height="24" viewBox="0 0 24 24" fill="none" xmlns="http://www.w3.org/2000/svg">
<path d="M4.5 7.27941C4.5 5.74439 5.74439 4.5 7.27941 4.5H13.3364C13.7506 4.5 14.0864 4.16421 14.0864 3.75C14.0864 3.33579 13.7506 3 13.3364 3H7.27941C4.91596 3 3 4.91596 3 7.27941V13.2206C3 13.6348 3.33579 13.9706 3.75 13.9706C4.16421 13.9706 4.5 13.6348 4.5 13.2206V7.27941ZM5.75 8.75V18.75C5.75 20.4069 7.09315 21.75 8.75 21.75H18.75C20.4069 21.75 21.75 20.4069 21.75 18.75V8.75C21.75 7.09315 20.4069 5.75 18.75 5.75H8.75C7.09315 5.75 5.75 7.09315 5.75 8.75ZM12.1954 17.25C12.1954 17.5261 11.9715 17.75 11.6954 17.75H10.25C9.97386 17.75 9.75 17.5261 9.75 17.25V11.8133C9.75 10.6738 10.6738 9.75 11.8133 9.75H14.9505C16.4295 9.75002 17.6285 10.949 17.6285 12.4281C17.6285 12.7964 17.5526 13.1607 17.4054 13.4983C17.0302 14.359 16.6692 14.9914 16.3225 15.3955L17.2441 17.0011C17.4355 17.3344 17.1948 17.75 16.8105 17.75H15.5245C15.3351 17.75 15.162 17.643 15.0773 17.4737L13.8284 14.9773C13.7482 14.817 13.8266 14.6241 13.9868 14.5438C14.4287 14.3224 14.767 14.0028 15.0016 13.5851C15.3561 12.9542 15.132 12.1554 14.5011 11.801C14.3051 11.6909 14.0841 11.633 13.8593 11.6331H13.227C12.6572 11.6331 12.1954 12.095 12.1954 12.6647V17.25Z" fill="black"/>
</svg>
