<svg width="24" height="24" viewBox="0 0 24 24" fill="none" xmlns="http://www.w3.org/2000/svg">
<path d="M13.8511 6.576C14.8279 6.21235 15.7726 5.08655 15.9612 4.06148C16.1498 3.0364 15.5109 2.50022 14.5341 2.86388C13.5573 3.22754 12.6126 4.35333 12.424 5.3784C12.2354 6.40348 12.8743 6.93966 13.8511 6.576ZM5.28185 9.32985C3.63621 12.1872 4.85807 16.4092 6.46325 18.7316C7.25122 19.8624 8.1797 21.1348 9.41168 21.0944C9.95822 21.071 10.3469 20.9049 10.7489 20.7332C11.2158 20.5337 11.7006 20.3266 12.4714 20.3266C13.1967 20.3266 13.6573 20.5257 14.1001 20.7172C14.5267 20.9016 14.9369 21.0789 15.5514 21.064C16.8238 21.0438 17.632 19.913 18.4087 18.772C18.8478 18.131 19.1615 17.4996 19.3699 17.013C19.5806 16.5209 19.3049 15.958 18.8739 15.6403C18.1517 15.1079 17.2157 14.0825 17.197 12.339C17.1855 10.9988 17.8076 10.055 18.3648 9.47986C18.7744 9.05705 18.9354 8.36149 18.4883 7.97853C17.4648 7.10186 16.2802 6.97915 15.8043 6.94682C14.8467 6.87209 13.9853 7.21092 13.2949 7.48249C12.8637 7.65211 12.4992 7.79549 12.2196 7.79549C11.8951 7.79549 11.4909 7.62918 11.0383 7.44293C10.4624 7.20595 9.80808 6.9367 9.13966 6.9367C7.55247 6.9367 6.10017 7.90678 5.28185 9.32985Z" fill="black"/>
</svg>
