<svg width="24" height="24" viewBox="0 0 24 24" fill="none" xmlns="http://www.w3.org/2000/svg">
<path d="M19.9963 13.7777L19.9205 13.8102C19.2787 14.0782 18.5733 14.2263 17.8333 14.2263C17.5195 14.2263 17.2118 14.1997 16.9137 14.1479C16.7506 15.1263 16.1598 15.9652 15.3429 16.4667C15.2769 16.5069 15.1059 16.6066 14.9713 16.75C14.8561 16.873 14.7736 17.0395 14.7367 17.1054C14.1721 18.1182 13.3754 18.9854 12.4211 19.6362C12.3668 19.6733 12.2698 19.745 12.3003 19.8181C12.3285 19.8852 12.4842 19.9098 12.5522 19.9204C12.8766 19.9726 13.2094 20 13.549 20C17.0152 20 19.88 17.221 19.9963 13.7777ZM9.27389 4C9.04133 4.00114 8.96861 4.11765 8.9387 4.2747L8.36801 7.28892L8.0299 7.30216C7.35802 7.34595 6.71313 7.4928 6.11111 7.72923L6.21668 7.17242L6.21801 7.16661C6.25077 7.02082 6.85309 4.17556 4.01286 4C3.78148 4.00086 3.70816 4.1165 3.67855 4.27213L2.11812 12.5107L2.07047 12.7883C2.02852 13.0677 2.00405 13.3528 2.00053 13.6426C1.95566 17.148 4.77592 20 8.28737 20C11.7997 20 14.6932 17.148 14.7384 13.6426L14.7363 13.4125L14.7271 13.2482C14.0366 12.7632 13.467 12.1207 13.0724 11.3723C12.6888 11.4073 12.3145 11.5876 12.073 11.9028C11.6343 12.4742 11.7012 13.3491 11.6971 13.6426C11.6874 14.4059 11.4164 15.1077 10.9742 15.6694C10.546 15.1077 10.2933 14.4059 10.3029 13.6426C10.3221 12.1489 11.3312 10.8825 12.6977 10.468C12.5475 9.97944 12.4667 9.4609 12.4667 8.92345C12.4667 8.38123 12.5489 7.85825 12.7021 7.36535C12.2413 7.4393 11.7961 7.5627 11.3722 7.72923L11.4777 7.17242L11.4791 7.16661C11.5118 7.02082 12.1142 4.17556 9.27389 4ZM7.78238 10.3822L7.37916 12.5107L7.33158 12.7883C7.28976 13.0677 7.26552 13.3528 7.26155 13.6426C7.24631 14.8559 7.57447 15.99 8.15541 16.9555C6.40143 16.8652 5.01873 15.4161 5.0416 13.6426C5.06213 12.0256 6.24366 10.6769 7.78238 10.3822ZM17.6032 13.0202C17.6794 13.0243 17.7561 13.0263 17.8333 13.0263L18.0413 13.0213C18.0477 13.021 18.0541 13.0207 18.0604 13.0203C18.0878 13.0189 18.1152 13.0172 18.1428 13.0152C18.1951 13.0114 18.247 13.0067 18.2984 13.001C18.3226 12.9984 18.3467 12.9956 18.3706 12.9925C18.4212 12.9861 18.4715 12.9788 18.5222 12.9705C18.5499 12.9659 18.5776 12.9611 18.6046 12.9562C18.6472 12.9483 18.6896 12.9398 18.7319 12.9306C18.7645 12.9236 18.797 12.9161 18.8295 12.9083C18.9687 12.8747 19.1051 12.8342 19.2388 12.7869C19.2701 12.7758 19.3012 12.7644 19.332 12.7529C19.37 12.7385 19.4077 12.7235 19.4447 12.708C19.4791 12.6938 19.5132 12.6791 19.5473 12.6642C19.5785 12.6504 19.6095 12.6361 19.6402 12.6212C19.7286 12.5791 19.8154 12.5341 19.9003 12.4862L19.722 12.5816C19.7798 12.5526 19.8367 12.5224 19.9003 12.4862L19.9363 12.4662C21.1709 11.754 22 10.4341 22 8.92345C22 6.65749 20.1345 4.82057 17.8333 4.82057C16.1214 4.82057 14.6505 5.83726 14.0096 7.29177L13.9917 7.33194C13.954 7.42022 13.9193 7.51006 13.8878 7.60109C13.8826 7.61632 13.8774 7.63159 13.8722 7.64717C13.855 7.69907 13.8388 7.75143 13.8237 7.80374C13.8145 7.83569 13.8057 7.8678 13.7972 7.90063C13.7576 8.05252 13.7266 8.20781 13.7048 8.36615C13.7027 8.38144 13.7006 8.39676 13.6987 8.41195C13.6914 8.47034 13.6852 8.52912 13.6804 8.58837C13.6713 8.69888 13.6667 8.81063 13.6667 8.92345L13.6742 8.67541C13.6692 8.75746 13.6667 8.84016 13.6667 8.92345C13.6667 8.99857 13.6687 9.07322 13.6728 9.14794C13.674 9.17036 13.6754 9.19273 13.677 9.21463C13.681 9.27032 13.6861 9.3257 13.6923 9.38066C13.6949 9.40409 13.6978 9.42745 13.7008 9.45096C13.7078 9.50458 13.7158 9.55787 13.725 9.61094C13.7288 9.63332 13.7329 9.65565 13.7369 9.67749C13.7454 9.72289 13.7548 9.76801 13.765 9.81293C13.7722 9.84464 13.7797 9.87621 13.7874 9.90802C14.1606 11.3999 15.3625 12.5706 16.8869 12.92C16.9132 12.926 16.9397 12.9318 16.966 12.9373C17.0012 12.9446 17.0365 12.9515 17.0721 12.958C17.1006 12.9632 17.1292 12.9681 17.1582 12.9727C17.2013 12.9796 17.2446 12.9859 17.2877 12.9915C17.3207 12.9957 17.3538 12.9996 17.3869 13.003C17.437 13.0083 17.4873 13.0127 17.5384 13.0162C17.6358 13.0229 17.7342 13.0263 17.8333 13.0263L17.6032 13.0202ZM17.5941 7.06896C17.623 7.05412 17.6592 7.05701 17.6857 7.07915C17.7074 7.09733 17.7185 7.12532 17.7149 7.15345L17.5642 8.35625L17.5652 8.41296C17.5713 8.45011 17.588 8.48523 17.6138 8.51398C17.6525 8.55712 17.7082 8.58183 17.7667 8.58183H19.6051L19.6375 8.58838C19.6675 8.60103 19.6884 8.63064 19.6884 8.66516C19.6884 8.6847 19.6816 8.70361 19.669 8.7186L17.965 10.7573L17.9392 10.7779C17.9103 10.7928 17.8742 10.7899 17.8477 10.7677C17.8259 10.7496 17.8149 10.7216 17.8184 10.6934L17.9692 9.49065L17.9681 9.43394C17.962 9.39679 17.9454 9.36168 17.9196 9.33292C17.8808 9.28978 17.8252 9.26507 17.7667 9.26507H15.9283L15.8958 9.25853C15.8659 9.24588 15.8449 9.21626 15.8449 9.18174C15.8449 9.1622 15.8518 9.14329 15.8643 9.1283L17.5683 7.08965L17.5941 7.06896Z" fill="black"/>
</svg>
