<svg width="24" height="24" viewBox="0 0 24 24" fill="none" xmlns="http://www.w3.org/2000/svg">
<path d="M8.42487 10.18L7.97684 12.5745C7.89798 12.988 7.85204 13.4133 7.84617 13.8479C7.82923 15.2129 8.19385 16.4888 8.83934 17.5749C6.89048 17.4734 5.35414 15.8431 5.37956 13.8479C5.40237 12.0288 6.71518 10.5115 8.42487 10.18ZM12.4135 7.19538L12.5308 6.56897C12.5308 6.56897 13.321 3.2027 10.0821 3C9.8237 3.00128 9.7429 3.13235 9.70966 3.30903L9.07557 6.70003C8.19352 6.71192 7.34829 6.88507 6.5679 7.19538L6.6852 6.56897C6.6852 6.56897 7.47537 3.2027 4.23651 3C3.97942 3.00096 3.89796 3.13107 3.86505 3.30614L2.13125 12.5745C2.0524 12.988 2.0058 13.4133 2.00059 13.8479C1.95073 17.7915 5.08435 21 8.98597 21C12.8886 21 16.1036 17.7915 16.1538 13.8479C16.1672 12.784 15.9052 12.0654 15.4399 11.6458C14.8149 11.083 13.7191 11.1945 13.1922 11.8906C12.7048 12.5334 12.7791 13.5177 12.7745 13.8479C12.7638 14.7066 12.4627 15.4962 11.9713 16.1281C11.4956 15.4962 11.2147 14.7066 11.2255 13.8479C11.2515 11.7872 12.9319 10.111 14.9704 10.111C17.0091 10.111 18.6465 11.7872 18.6208 13.8479C18.6035 15.1885 17.886 16.3658 16.8254 17.025C16.7521 17.0703 16.5621 17.1824 16.4125 17.3437C16.2845 17.4821 16.1929 17.6694 16.1519 17.7436C15.5246 18.883 14.6393 19.8586 13.579 20.5907C13.5187 20.6325 13.4109 20.7131 13.4448 20.7954C13.4761 20.8709 13.6491 20.8985 13.7247 20.9104C14.0851 20.9692 14.4549 21 14.8322 21C18.7338 21 21.9496 17.7915 21.9994 13.8479C22.0496 9.9044 18.916 6.69554 15.0134 6.69554C14.0984 6.69554 13.2212 6.87415 12.4135 7.19538Z" fill="black"/>
</svg>
