<svg width="24" height="24" viewBox="0 0 24 24" fill="none" xmlns="http://www.w3.org/2000/svg">
<path d="M18.1086 4.00325C16.0156 3.93587 14.4889 4.91564 13.529 6.94401C13.2967 7.43478 13.8286 7.93194 14.3716 7.93194C15.2869 7.93194 15.6909 8.44669 15.5831 9.4735C15.5288 10.0958 15.1248 11.0013 14.3716 12.191C13.6168 13.3816 13.0506 13.9765 12.6743 13.9765C12.1891 13.9765 11.7448 13.0601 11.3404 11.2254C11.2046 10.6872 10.9624 9.31207 10.6127 7.10063C10.2891 5.05125 9.42682 4.09394 8.02657 4.22869C7.43375 4.28288 6.54369 4.8215 5.35888 5.84481C4.66396 6.47483 3.95983 7.10416 3.24752 7.73326C2.95842 7.98859 2.91676 8.42464 3.15325 8.72934C3.3916 9.03644 3.82787 9.10049 4.15235 8.88639C4.61289 8.58252 4.89271 8.43007 4.9915 8.43007C5.60963 8.43007 6.18707 9.39919 6.72594 11.3354C7.02232 12.4216 7.31838 13.5078 7.61451 14.5939C7.80251 15.2834 7.99044 15.9729 8.17851 16.6625C8.90394 18.5997 9.79175 19.5676 10.8414 19.5676C12.5346 19.5676 14.6053 17.977 17.0525 14.7973C19.4198 11.752 20.6434 9.35331 20.7236 7.60125C20.8304 5.25675 19.9581 4.05744 18.1086 4.00325Z" fill="black"/>
</svg>
