<svg width="24" height="24" viewBox="0 0 24 24" fill="none" xmlns="http://www.w3.org/2000/svg">
<path d="M10.5304 3.65541C8.88032 2.69804 6.6872 2.79408 5.13711 3.91352C4.11206 4.6318 3.37002 5.74724 3.11201 6.97372C2.85199 8.17419 3.049 9.46369 3.65803 10.5311C3.40602 12.0137 3.53903 13.5643 4.07006 14.9729C4.8031 16.9446 6.30118 18.6153 8.18028 19.5597C9.79637 20.385 11.6805 20.6511 13.4676 20.344C15.0726 21.2733 17.1888 21.2153 18.7288 20.1789C19.8409 19.4516 20.646 18.2692 20.901 16.9636C21.143 15.7802 20.936 14.5177 20.3399 13.4693C20.5819 12.0627 20.4739 10.5961 20.0079 9.24661C19.3299 7.25183 17.8748 5.54115 16.0207 4.54476C14.3596 3.63941 12.3915 3.33229 10.5304 3.65541ZM10 9.9748C10 10.3665 10.2829 10.7005 10.6685 10.7651L13.66 11.2642C14.9904 11.4853 15.9701 12.6226 15.9996 13.964C16.0001 13.9764 16.0003 13.9889 16.0003 14.0014V14.0264C16.0003 14.0392 16.0001 14.0519 15.9996 14.0646C15.9801 14.9243 15.5626 15.6896 14.8319 16.212C14.1098 16.7283 13.1336 16.9772 12.0002 16.9772C11.138 16.9772 10.3187 16.7791 9.64577 16.4193C8.98318 16.065 8.3899 15.5105 8.13312 14.7621C7.9539 14.2397 8.23211 13.6709 8.7545 13.4917C9.2769 13.3124 9.84567 13.5907 10.0249 14.1131C10.0701 14.2449 10.2234 14.4602 10.5888 14.6556C10.944 14.8455 11.4342 14.9772 12.0002 14.9772C12.8669 14.9772 13.3907 14.7839 13.6687 14.5851C13.9151 14.4089 13.997 14.2154 14.0002 14.0138C13.9942 13.6272 13.7131 13.3004 13.3325 13.2372L10.3398 12.7379C8.98961 12.5123 8 11.3436 8 9.9748C8 9.0894 8.41987 8.29937 9.16842 7.76416C9.89048 7.2479 10.8667 6.99902 12.0002 6.99902C12.8627 6.99902 13.6821 7.197 14.355 7.5569C15.0177 7.91133 15.6105 8.46587 15.8672 9.21413C16.0464 9.73653 15.7682 10.3053 15.2458 10.4845C14.7234 10.6637 14.1547 10.3855 13.9754 9.86313C13.9301 9.73104 13.7769 9.51578 13.4118 9.3205C13.0569 9.13068 12.5667 8.99902 12.0002 8.99902C11.1335 8.99902 10.6097 9.19233 10.3317 9.39109C10.0802 9.57091 10 9.76877 10 9.9748Z" fill="black"/>
</svg>
