<svg width="24" height="24" viewBox="0 0 24 24" fill="none" xmlns="http://www.w3.org/2000/svg">
<path d="M14.3511 6.82597C15.3279 6.46231 16.2726 5.33652 16.4612 4.31144C16.6498 3.28637 16.0109 2.75019 15.0341 3.11385C14.0573 3.4775 13.1126 4.6033 12.924 5.62837C12.7354 6.65345 13.3743 7.18963 14.3511 6.82597ZM5.78185 9.57982C4.13621 12.4372 5.35807 16.6592 6.96325 18.9815C7.75122 20.1124 8.6797 21.3848 9.91168 21.3443C10.4582 21.3209 10.8469 21.1549 11.2489 20.9832C11.7158 20.7837 12.2006 20.5766 12.9714 20.5766C13.6967 20.5766 14.1573 20.7757 14.6001 20.9671C15.0267 21.1516 15.4369 21.3289 16.0514 21.314C17.3238 21.2938 18.132 20.1629 18.9087 19.022C19.3478 18.381 19.6615 17.7496 19.8699 17.263C20.0806 16.7708 19.8049 16.208 19.3739 15.8903C18.6517 15.3579 17.7157 14.3325 17.697 12.589C17.6855 11.2488 18.3076 10.305 18.8648 9.72983C19.2744 9.30702 19.4354 8.61145 18.9883 8.2285C17.9648 7.35183 16.7802 7.22912 16.3043 7.19679C15.3467 7.12206 14.4853 7.46089 13.7949 7.73246C13.3637 7.90208 12.9992 8.04546 12.7196 8.04546C12.3951 8.04546 11.9909 7.87915 11.5383 7.6929C10.9624 7.45592 10.3081 7.18667 9.63966 7.18667C8.05247 7.18667 6.60017 8.15675 5.78185 9.57982Z" fill="black"/>
</svg>
