<svg width="24" height="24" viewBox="0 0 24 24" fill="none" xmlns="http://www.w3.org/2000/svg">
<path d="M6.36406 18.4698H17.6224C18.0495 18.4698 18.4295 18.1985 18.5682 17.7945L20.9442 10.8731C21.2561 9.96462 20.2325 9.18174 19.4374 9.72053L17.3735 11.1191C17.417 11.2791 17.4402 11.4473 17.4402 11.621C17.4402 12.6741 16.5865 13.5279 15.5334 13.5279C14.4802 13.5279 13.6265 12.6741 13.6265 11.621C13.6265 10.7838 14.1661 10.0726 14.9164 9.8162L12.8494 5.5629C12.4854 4.81394 11.419 4.81193 11.0522 5.55951L8.96741 9.8086C9.72957 10.0583 10.28 10.7754 10.28 11.621C10.28 12.6741 9.42632 13.5279 8.3732 13.5279C7.32009 13.5279 6.46637 12.6741 6.46637 11.621C6.46637 11.4494 6.48904 11.2831 6.53156 11.1248L4.57192 9.7702C3.77797 9.22136 2.74408 10.0046 3.05747 10.9175L5.41824 17.7945C5.55693 18.1985 5.93691 18.4698 6.36406 18.4698Z" fill="black"/>
</svg>
