<svg width="24" height="24" viewBox="0 0 24 24" fill="none" xmlns="http://www.w3.org/2000/svg">
<path d="M7.55556 5V19C7.55556 19.5523 7.10784 20 6.55556 20H5C4.44771 20 4 19.5523 4 19V5C4 4.44772 4.44772 4 5 4H6.55556C7.10784 4 7.55556 4.44772 7.55556 5ZM19 7.55556L10.3333 7.55556C9.78105 7.55556 9.33333 7.10784 9.33333 6.55556V5C9.33333 4.44771 9.78105 4 10.3333 4H19C19.5523 4 20 4.44772 20 5V6.55556C20 7.10784 19.5523 7.55556 19 7.55556ZM19 10.2222L10.3333 10.2222C9.78105 10.2222 9.33333 10.6699 9.33333 11.2222V12.7778C9.33333 13.33 9.78105 13.7778 10.3333 13.7778H19C19.5523 13.7778 20 13.33 20 12.7778V11.2222C20 10.6699 19.5523 10.2222 19 10.2222ZM19 20H10.3333C9.78105 20 9.33333 19.5523 9.33333 19V17.4444C9.33333 16.8922 9.78105 16.4444 10.3333 16.4444L19 16.4445C19.5523 16.4445 20 16.8922 20 17.4445V19C20 19.5523 19.5523 20 19 20Z" fill="black"/>
</svg>
