<svg width="24" height="24" viewBox="0 0 24 24" fill="none" xmlns="http://www.w3.org/2000/svg">
<path d="M12 3C7.02944 3 3 7.02944 3 12C3 16.9706 7.02944 21 12 21C16.9706 21 21 16.9706 21 12C21 7.02944 16.9706 3 12 3ZM12 4C16.4183 4 20 7.58172 20 12C20 16.4183 16.4183 20 12 20C7.58172 20 4 16.4183 4 12C4 7.58172 7.58172 4 12 4ZM12.1057 12.8456L10.0769 18.7325C10.6879 18.9067 11.3331 19 12 19C12.7906 19 13.5507 18.8689 14.2595 18.6273L12.1057 12.8456ZM5.05049 11.1549C5.01715 11.432 5 11.714 5 12C5 13.9975 5.83669 15.7996 7.17873 17.075L5.05049 11.1549ZM12 5C10.0785 5 8.33784 5.7742 7.07216 7.02831C7.19276 7.00936 7.31728 6.98856 7.44572 6.96589C7.69954 6.9211 7.9416 7.09054 7.98639 7.34436C8.03118 7.59817 7.86174 7.84023 7.60793 7.88502C7.30365 7.93872 7.01856 7.98273 6.75246 8.01702L9.74366 16.8336L11.5927 11.4696L10.3356 8.09414L10.3192 8.04077L10.3095 7.98701L9.98775 7.95579L9.69419 7.92422L9.38502 7.88896C9.12904 7.85898 8.94582 7.62717 8.97579 7.37119C9.00576 7.1152 9.23758 6.93198 9.49356 6.96195L10.0261 7.02136L10.507 7.06885L10.9359 7.10443L11.035 7.11147L11.1309 7.11777L11.4814 7.13554L11.7795 7.14146L11.9361 7.13967L12.2935 7.12536L12.7094 7.09672L13.1837 7.05371L13.716 6.99631L13.8581 6.97971L14.0038 6.96221C14.2596 6.93106 14.4923 7.11322 14.5234 7.36906C14.5546 7.62491 14.3724 7.85756 14.1165 7.8887L13.5349 7.95562L13.2437 7.98363L16.2987 16.7736L17.9237 12.2026L17.8796 11.9822L17.8073 11.6491C17.4902 10.2346 17.1297 9.20132 16.7365 8.55813L16.6509 8.42507L16.5469 8.26119C16.192 7.66076 16.1271 7.06625 16.3511 6.51624C15.1564 5.56703 13.6444 5 12 5ZM18.999 11.959L18.6562 12.9447L17.4097 16.4428C18.4034 15.2342 19 13.6868 19 12L18.999 11.959Z" fill="black"/>
</svg>
