<svg width="24" height="24" viewBox="0 0 24 24" fill="none" xmlns="http://www.w3.org/2000/svg">
<path d="M5.32721 16.0161L4.84262 16.1724C4.55168 16.2661 4.16336 16.3912 3.77396 16.5165C3.60214 16.5717 3.43006 16.6271 3.26599 16.6798C3.78355 17.309 4.33825 17.8866 5.0306 18.3582C6.01273 19.0271 7.31843 19.511 9.26123 19.511C12.7246 19.511 15.3741 18.3264 17.1632 16.3747C18.9605 14.414 19.9577 11.6038 19.9577 8.2398C19.9577 8.08055 20.0063 7.92509 20.0969 7.79417L21.3333 6.00899H19.6968C19.4386 6.00899 19.1969 5.88161 19.051 5.66854C18.6857 5.13501 18.2582 4.73001 17.7182 4.45259C17.1753 4.17375 16.4723 4 15.5226 4C14.1721 4 13.0956 4.46217 12.3472 5.19834C11.5965 5.93672 11.1307 6.99541 11.087 8.26667C11.0789 8.50075 10.9665 8.71893 10.7805 8.86129C10.5945 9.00365 10.3546 9.05524 10.1265 9.00189C7.70355 8.43506 5.48616 6.68415 4.03901 4.66566C2.26816 7.87046 2.73631 11.8916 5.63284 14.7103C5.82958 14.9018 5.91163 15.1823 5.84908 15.4496C5.78652 15.7169 5.58847 15.9319 5.32721 16.0161Z" fill="black"/>
</svg>
