<svg width="24" height="24" viewBox="0 0 24 24" fill="none" xmlns="http://www.w3.org/2000/svg">
<path d="M19.5872 7.81409C19.5822 7.8004 19.567 7.79337 19.5533 7.79839L19.0259 7.99655C13.779 10.0179 9.36131 13.2322 5.77297 17.6395L3.09919 14.1812C3.08449 14.1622 3.0592 14.1548 3.03659 14.163C3.00782 14.1734 2.99292 14.2051 3.0033 14.2339L5.37982 20.8171C5.40126 20.8765 5.44235 20.9268 5.49628 20.9596C5.62687 21.0391 5.79717 20.9977 5.87669 20.8671C8.15306 17.1267 10.7083 14.1182 13.5425 11.8417C14.9692 10.6957 16.9802 9.36379 19.5757 7.84595C19.5868 7.8395 19.5916 7.82608 19.5872 7.81409ZM19.1845 12.9032L19.1832 12.9034C19.0659 12.9166 18.9816 13.0225 18.9949 13.1397L19.5033 17.6314C19.5041 17.6384 19.5045 17.6454 19.5045 17.6524C19.504 17.7519 19.4231 17.8321 19.3236 17.8317L8.4538 17.7818C8.32133 17.9587 8.18967 18.1378 8.05882 18.3191L19.5752 18.4731C19.5957 18.4733 19.6161 18.4722 19.6365 18.4697C19.8832 18.4392 20.0584 18.2144 20.0279 17.9677L19.4246 13.0937C19.41 12.9753 19.3031 12.8905 19.1845 12.9032ZM17.9515 11.9358C17.833 11.9484 17.7466 12.054 17.7575 12.1727L18.1347 16.2561L18.1354 16.2686C18.1376 16.368 18.0588 16.4504 17.9594 16.4526L9.34022 16.6452C9.19544 16.8233 9.05158 17.0039 8.90864 17.1869L18.2216 17.1002C18.2361 17.1001 18.2507 17.0993 18.2651 17.0977C18.5123 17.0714 18.6913 16.8497 18.665 16.6025L18.1881 12.1266C18.1754 12.0085 18.0695 11.9231 17.9515 11.9358ZM14.3357 5.03914C13.9611 3.58401 12.4869 2.71039 11.0428 3.08787L10.5803 3.20878L10.4981 3.23134C9.02772 3.65481 8.00833 5.01066 8.00833 6.55861L8.00821 7.65311L6.52648 7.97841C6.0457 8.08391 5.69225 8.49408 5.65894 8.98517L5.1816 16.0279L5.72808 16.6868L5.81991 16.5905C5.90412 16.503 5.98853 16.4159 6.07314 16.3294L6.07294 13.4593L6.07866 13.321C6.1393 12.5901 6.67618 11.978 7.40589 11.8309L7.76626 11.7595L7.6595 11.7342C7.13753 11.5789 6.79823 11.0035 6.88555 10.3774C6.9687 9.78115 7.41112 9.33656 7.92308 9.29175L8.03374 9.28836L8.1459 9.29775L8.25628 9.31987C8.79624 9.46077 9.1512 10.0468 9.06211 10.6856C9.00272 11.1115 8.76003 11.46 8.43962 11.6407L8.4732 11.638L8.61337 11.6387C9.27017 11.67 9.8562 12.0917 10.0876 12.716C10.2141 12.6166 10.3411 12.5181 10.4684 12.4206L10.4688 11.7576L10.475 11.614C10.5363 10.9032 11.0484 10.3036 11.7537 10.1396L11.935 10.0968L11.8402 10.0896L11.7357 10.0683C11.2934 9.94925 10.9924 9.4934 11.0148 8.97629L11.0258 8.85599L11.0482 8.7373C11.1773 8.19529 11.6475 7.82572 12.1461 7.89634C12.6804 7.972 13.045 8.52433 12.9605 9.12999L12.9354 9.26029C12.8617 9.55709 12.6854 9.80112 12.4587 9.94782L12.36 10.0029L12.3851 9.99891C12.8013 9.94089 13.2079 10.067 13.513 10.3208C13.6897 10.2117 13.8671 10.1044 14.0451 9.9987L14.0467 9.98301C14.096 9.41481 14.4355 8.91831 14.9316 8.66167C14.5326 8.53708 14.2746 8.09359 14.3419 7.61148C14.4059 7.15219 14.7441 6.80858 15.1375 6.76821L15.2291 6.76436L15.3221 6.77179L15.4136 6.79048C15.8304 6.90264 16.1037 7.35661 16.0347 7.85123C15.9971 8.12135 15.8646 8.35146 15.6818 8.5034C15.9053 8.53032 16.1125 8.63025 16.2723 8.78384C16.4578 8.69125 16.644 8.60039 16.831 8.51128L16.7655 7.05767C16.7626 6.99483 16.7544 6.93235 16.7409 6.87091C16.6098 6.27351 16.0193 5.89548 15.4219 6.02657L14.4221 6.2461L14.4223 5.72261L14.4198 5.60741C14.4118 5.41564 14.3836 5.22515 14.3357 5.03914ZM16.9102 9.96146L16.5356 10.2061L16.2175 10.4165L16.0621 10.5205L15.7588 10.7261C15.6594 10.7941 15.5616 10.8616 15.4654 10.9285L15.1819 11.1277L14.9083 11.3238L14.6445 11.5166L14.3907 11.7063L14.1467 11.8927L13.9127 12.076L13.7994 12.1664C12.3886 13.2996 11.0468 14.6181 9.7741 16.122L16.9475 15.9426L16.975 15.9411C17.2226 15.9197 17.4061 15.7016 17.3847 15.4539L16.9102 9.96146ZM11.4469 4.41376C12.1372 4.26637 12.827 4.69148 13.006 5.38673C13.0343 5.49642 13.0485 5.60929 13.0485 5.72261L13.0484 6.54677L9.38191 7.35154L9.38204 6.55861L9.38329 6.48609C9.41476 5.57065 10.0398 4.78015 10.9252 4.54871L11.3878 4.4278L11.4469 4.41376Z" fill="black"/>
</svg>
