<svg width="24" height="24" viewBox="0 0 24 24" fill="none" xmlns="http://www.w3.org/2000/svg">
<path d="M11.3295 3.00001C9.25454 3.15408 7.22275 4.02447 5.63604 5.61119C5.35614 5.8911 5.09852 6.18485 4.8632 6.49025L7.02372 10.4373L11.3295 3.00001ZM3.94977 7.94554C2.74125 10.359 2.68605 13.2026 3.78416 15.6553H8.16994L6.40707 12.4348C6.35827 12.3718 6.32028 12.3018 6.29387 12.228L3.94977 7.94554ZM4.63847 17.1553C4.93165 17.5709 5.26417 17.9672 5.63604 18.3391C7.12786 19.8309 9.01309 20.6895 10.9578 20.9149L13.1344 17.1553H4.63847ZM12.6706 20.9503C14.7455 20.7962 16.7773 19.9258 18.3639 18.3391C18.7072 17.9959 19.0169 17.6318 19.2931 17.251L17.0526 13.3812L12.6706 20.9503ZM20.1659 15.7648C21.2827 13.3579 21.278 10.559 20.1519 8.15533H15.7604L20.1659 15.7648ZM19.261 6.65533C18.993 6.29044 18.6939 5.94119 18.3639 5.61119C16.8722 4.11941 14.987 3.2608 13.0423 3.03536L10.9465 6.65533H19.261Z" fill="black"/>
</svg>
