<svg width="24" height="24" viewBox="0 0 24 24" fill="none" xmlns="http://www.w3.org/2000/svg">
<path d="M19.358 17.7039C18.4515 17.7039 17.7165 18.4385 17.7165 19.3447L17.7226 19.5008C17.7944 20.3407 18.4992 21 19.358 21C20.2646 21 20.9995 20.2654 20.9995 19.3592L20.9934 19.2031C20.9216 18.3632 20.2168 17.7039 19.358 17.7039ZM11.9997 3C7.02949 3 3 7.02602 3 11.9928C3 16.9595 7.02949 20.9855 11.9997 20.9855C12.9063 20.9855 13.6412 20.2509 13.6412 19.3447C13.6412 18.4385 12.9063 17.7039 11.9997 17.7039C8.84225 17.7039 6.28292 15.1468 6.28292 11.9928C6.28292 8.83878 8.84225 6.28165 11.9997 6.28165C12.9063 6.28165 13.6412 5.54703 13.6412 4.64083C13.6412 3.73462 12.9063 3 11.9997 3ZM13.8286 3.1862C14.1133 3.54199 14.2976 3.98089 14.3388 4.46044L14.3475 4.68645L14.3409 4.86476C14.2926 5.5123 13.9836 6.08747 13.5179 6.48523C15.9384 7.14963 17.7165 9.36386 17.7165 11.9928L17.7157 17.6055C18.1465 17.1844 18.7372 16.9247 19.3888 16.9247C20.0097 16.9247 20.5753 17.1606 21 17.5472L20.9995 11.9928L20.9959 11.7367C20.8776 7.51027 17.8411 4.01329 13.8286 3.1862Z" fill="black"/>
</svg>
