<svg width="24" height="24" viewBox="0 0 24 24" fill="none" xmlns="http://www.w3.org/2000/svg">
<path d="M11.9625 3C7.02125 3 3.00104 7.0008 3.00001 11.9186C2.99814 13.3439 3.33988 14.7471 3.99417 16.0106C4.11739 16.2486 4.15546 16.5235 4.08437 16.7818L3.3835 19.3295C3.17928 20.0718 3.85536 20.7568 4.6003 20.5623L7.29307 19.8593C7.53849 19.7952 7.79802 19.829 8.02611 19.9399C9.24932 20.5348 10.5936 20.8455 11.9584 20.8455H11.9625C16.9017 20.8455 20.9219 16.8436 20.9239 11.9258C20.925 9.54313 19.9937 7.30272 18.3017 5.61602C16.6097 3.93035 14.3596 3.00102 11.9625 3ZM15.162 15.2676C13.9079 16.5163 11.7991 15.4551 10.1347 13.7902L10.1363 13.7924C8.47192 12.1267 7.41142 10.0195 8.65947 8.76546L8.96367 8.46128C9.36927 8.05571 10.0402 8.11288 10.3665 8.58402C10.5716 8.87981 10.7934 9.19772 11.0412 9.54916C11.2989 9.91357 11.2593 10.4144 10.9452 10.7308L10.6036 11.0746C10.8735 11.5008 11.2204 11.9231 11.6115 12.3142L11.613 12.3158C12.0049 12.7068 12.4265 13.0537 12.8527 13.3236L13.1965 12.9821C13.5129 12.668 14.0131 12.6291 14.3775 12.8852C14.7098 13.119 15.0122 13.3296 15.2944 13.5262L15.345 13.5614C15.8146 13.8885 15.8711 14.5586 15.4662 14.9634L15.162 15.2676Z" fill="black"/>
</svg>
