<svg width="24" height="24" viewBox="0 0 24 24" fill="none" xmlns="http://www.w3.org/2000/svg">
<path d="M10.8557 13.2086C10.4328 13.5899 10.468 14.2609 10.926 14.5985L11.957 15.3602L9.9011 17.3604L8.83277 12.3118L15.0275 9.4436C15.0275 9.4436 12.2701 11.9316 10.8557 13.2086ZM13.1717 16.2576L16.6539 18.83C17.2173 19.2464 18.0225 18.9407 18.1684 18.2549L20.9812 4.99804C21.1175 4.35687 20.4881 3.82115 19.8767 4.05652L3.35232 10.4298C2.86558 10.6173 2.88902 11.3128 3.3864 11.4683L7.38504 12.7158L8.46178 17.8041C8.46624 17.8252 8.47159 17.846 8.47783 17.8666C8.79563 18.9142 10.1088 19.2505 10.8922 18.4889L13.0916 16.3492C13.1212 16.3204 13.1479 16.2897 13.1717 16.2576ZM9.92482 17.4945L9.84647 17.4135L10.3692 17.9513L9.92482 17.4945Z" fill="black"/>
</svg>
