<svg width="24" height="24" viewBox="0 0 24 24" fill="none" xmlns="http://www.w3.org/2000/svg">
<path d="M18.3639 18.3639C20.9876 15.7402 21.6528 11.8997 20.3594 8.65906L15.5019 8.65976L15.5898 8.75191C17.066 10.3808 17.236 12.7721 16.0996 14.5766L12.1854 20.9981C14.4265 20.9522 16.6537 20.0741 18.3639 18.3639ZM3.97193 7.92643C2.25688 11.3048 2.81159 15.5395 5.63604 18.3639C7.01101 19.7389 8.72019 20.576 10.5021 20.8752L13.0287 16.731C11.4739 17.0676 9.78543 16.6316 8.57688 15.4231C8.26406 15.1103 8.00301 14.7653 7.79371 14.3988L3.97193 7.92643ZM9.63756 9.63754C8.33281 10.9423 8.33281 13.0577 9.63754 14.3625C10.9423 15.6672 13.0577 15.6672 14.3625 14.3625C15.6189 13.106 15.6654 11.0978 14.5021 9.78577L14.3625 9.63755L14.2142 9.49796C12.9021 8.3346 10.8939 8.38114 9.63756 9.63754ZM18.3639 5.63604C14.8492 2.12132 9.15076 2.12132 5.63604 5.63604C5.36007 5.91201 5.10577 6.20144 4.87314 6.50221L7.3408 10.6826C7.55807 9.91149 7.9701 9.1837 8.57688 8.5769C9.49347 7.66028 10.6862 7.18808 11.8873 7.1603L19.5895 7.15911C19.2443 6.61911 18.8358 6.1079 18.3639 5.63604Z" fill="black"/>
</svg>
