<svg width="24" height="24" viewBox="0 0 24 24" fill="none" xmlns="http://www.w3.org/2000/svg">
<path d="M22 12C22 6.47715 17.5228 2 12 2C6.47715 2 2 6.47715 2 12C2 17.5228 6.47715 22 12 22C17.5228 22 22 17.5228 22 12ZM6 15.1698C6 13.513 7.34315 12.1698 9 12.1698H9.7004L10.5008 12.9347C10.5395 12.9716 10.6003 12.9716 10.639 12.9347L11.4394 12.1698H12.1398C12.7008 12.1698 13.2259 12.3238 13.675 12.5918L13.6726 12.586C14.2179 12.9148 14.6519 13.4093 14.9049 13.9998H14.9031C15.0555 14.3593 15.1398 14.7547 15.1398 15.1698V15.4999C15.1398 16.0522 14.6921 16.4999 14.1398 16.4999H7C6.44772 16.4999 6 16.0522 6 15.4999V15.1698ZM10.5699 11.7546C9.42269 11.7546 8.49269 10.8245 8.49269 9.67733C8.49269 8.5301 9.42269 7.6001 10.5699 7.6001C11.7171 7.6001 12.6471 8.5301 12.6471 9.67733C12.6471 10.8245 11.7171 11.7546 10.5699 11.7546ZM14.5909 10.2036C13.7123 10.2036 13 9.48646 13 8.60181C13 7.71715 13.7123 7 14.5909 7C15.4696 7 16.1819 7.71715 16.1819 8.60181C16.1819 9.48646 15.4696 10.2036 14.5909 10.2036ZM17.2879 13.9998H16.4901C16.1264 12.666 15.171 11.5763 13.9235 11.03H15.4666L15.5693 11.0321C16.7805 11.0802 17.7683 11.976 17.9733 13.1388C17.9792 13.1722 17.9831 13.2282 17.9849 13.3068L17.9851 13.3222C17.9851 13.6964 17.673 13.9998 17.2879 13.9998Z" fill="black"/>
</svg>
