<svg width="24" height="24" viewBox="0 0 24 24" fill="none" xmlns="http://www.w3.org/2000/svg">
<path d="M18.364 18.364C21.8787 14.8493 21.8787 9.15077 18.364 5.63604C14.8493 2.12132 9.15077 2.12132 5.63604 5.63604C2.12132 9.15075 2.12132 14.8492 5.63604 18.364C9.15075 21.8787 14.8492 21.8787 18.364 18.364ZM7.36144 10.1422C6.96425 10.2598 6.54699 10.0331 6.42946 9.63586C6.31193 9.23867 6.53864 8.82141 6.93583 8.70388C8.77928 8.1584 10.8714 8.0811 12.7626 8.30451C14.6435 8.52669 16.4128 9.05686 17.589 9.80079C17.9391 10.0222 18.0434 10.4855 17.822 10.8356C17.6006 11.1856 17.1373 11.2899 16.7872 11.0685C15.8674 10.4868 14.34 10.0013 12.5867 9.79415C10.8437 9.58826 8.96409 9.66801 7.36144 10.1422ZM15.7601 13.6863C13.9616 12.5295 10.6069 11.8854 7.78581 12.7645C7.39035 12.8877 6.96988 12.667 6.84666 12.2715C6.72343 11.8761 6.94413 11.4556 7.33959 11.3324C10.5899 10.3196 14.4046 11.0309 16.5715 12.4247C16.9199 12.6488 17.0207 13.1129 16.7966 13.4612C16.5725 13.8096 16.1085 13.9104 15.7601 13.6863ZM7.95731 15.2119C7.55315 15.3026 7.152 15.0485 7.06132 14.6443C6.97065 14.2401 7.22478 13.839 7.62895 13.7483C11.1713 12.9536 13.7176 13.5004 15.6751 14.6749C16.0303 14.888 16.1455 15.3487 15.9324 15.7039C15.7192 16.0591 15.2586 16.1742 14.9034 15.9611C13.3149 15.0081 11.1703 14.4911 7.95731 15.2119Z" fill="black"/>
</svg>
