<svg width="24" height="24" viewBox="0 0 24 24" fill="none" xmlns="http://www.w3.org/2000/svg">
<path d="M7.62006 2.21967C7.32717 2.51256 7.32717 2.98744 7.62006 3.28033L8.84015 4.50042C7.54187 5.3323 6.62303 6.70458 6.40129 8.2998H17.0979C16.8762 6.70487 15.9577 5.3328 14.6598 4.50088L15.8803 3.28033C16.1732 2.98744 16.1732 2.51256 15.8803 2.21967C15.5874 1.92678 15.1126 1.92678 14.8197 2.21967L13.4697 3.56967C13.382 3.65736 13.3205 3.76137 13.2854 3.87192C12.7986 3.72777 12.2831 3.65039 11.7496 3.65039C11.2165 3.65039 10.7014 3.72766 10.2149 3.8716C10.1797 3.76117 10.1183 3.65728 10.0307 3.56967L8.68072 2.21967C8.38783 1.92678 7.91295 1.92678 7.62006 2.21967ZM8.30078 18.0498V20.7498C8.30078 21.164 8.63657 21.4998 9.05078 21.4998C9.46499 21.4998 9.80078 21.164 9.80078 20.7498V18.0498H13.6992V20.7498C13.6992 21.164 14.035 21.4998 14.4492 21.4998C14.8634 21.4998 15.1992 21.164 15.1992 20.7498V18.0498H16.1496C16.7016 18.0498 17.1496 17.6018 17.1496 17.0498V9.7998H6.34961V17.0498C6.34961 17.6018 6.79761 18.0498 7.34961 18.0498H8.30078ZM19.75 8.25C19.3358 8.25 19 8.58579 19 9V14.5C19 14.9142 19.3358 15.25 19.75 15.25C20.1642 15.25 20.5 14.9142 20.5 14.5V9C20.5 8.58579 20.1642 8.25 19.75 8.25ZM4.5 9C4.5 8.58579 4.16421 8.25 3.75 8.25C3.33579 8.25 3 8.58579 3 9V14.5C3 14.9142 3.33579 15.25 3.75 15.25C4.16421 15.25 4.5 14.9142 4.5 14.5V9Z" fill="black"/>
</svg>
