<svg width="24" height="24" viewBox="0 0 24 24" fill="none" xmlns="http://www.w3.org/2000/svg">
<path d="M2 8C2 8.55228 2.44772 9 3 9C4.43594 9 5.6 10.1641 5.6 11.6V17C5.6 17.5523 6.04772 18 6.6 18C7.15228 18 7.6 17.5523 7.6 17V11.6C7.6 9.05949 5.54051 7 3 7C2.44772 7 2 7.44772 2 8Z" fill="black"/>
<path d="M10.2006 9C11.6365 9 12.8006 10.1641 12.8006 11.6V17C12.8006 17.5523 13.2483 18 13.8006 18C14.3529 18 14.8006 17.5523 14.8006 17V11.6C14.8006 9.05949 12.7411 7 10.2006 7C7.66008 7 5.6 9.05949 5.6 11.6V17C5.6 17.5523 6.04772 18 6.6 18C7.15228 18 7.6 17.5523 7.6 17V11.6C7.6 10.1641 8.76465 9 10.2006 9Z" fill="black"/>
<path d="M17.4008 9C18.8367 9 20.0008 10.1641 20.0008 11.6V17C20.0008 17.5523 20.4485 18 21.0008 18C21.5531 18 22.0008 17.5523 22.0008 17V11.6C22.0008 9.05949 19.9413 7 17.4008 7C14.8603 7 12.8006 9.05949 12.8006 11.6V17C12.8006 17.5523 13.2483 18 13.8006 18C14.3529 18 14.8006 17.5523 14.8006 17V11.6C14.8006 10.1641 15.9648 9 17.4008 9Z" fill="black"/>
</svg>
