<svg width="24" height="24" viewBox="0 0 24 24" fill="none" xmlns="http://www.w3.org/2000/svg">
<path d="M7.8551 2.75C7.8551 3.16421 8.19089 3.5 8.6051 3.5H9.33541V4.61632C9.33541 4.70796 9.35185 4.79576 9.38193 4.87694C6.80079 6.01996 5 8.60414 5 11.6087C5 15.8555 8.06912 19.4804 12.2578 20.1807L18.5733 21.2367C18.6268 21.2456 18.6809 21.2501 18.7351 21.2501C19.2769 21.2501 19.7162 20.8109 19.7162 20.269V11.6082C19.7162 8.36349 17.6159 5.60931 14.7008 4.63091C14.7009 4.62606 14.7009 4.62119 14.7009 4.61632V3.5H15.6882C16.1025 3.5 16.4382 3.16421 16.4382 2.75C16.4382 2.33579 16.1025 2 15.6882 2H8.6051C8.19089 2 7.8551 2.33579 7.8551 2.75ZM10.8354 4.40788V3.5H13.2009V4.29787C12.9243 4.26633 12.6431 4.25012 12.3581 4.25012C11.836 4.25012 11.3267 4.30449 10.8354 4.40788ZM12.3453 16.4965C9.52725 16.4965 7.24278 14.3096 7.24278 11.6119C7.24278 11.4797 7.25468 11.0997 7.27847 10.4719C7.32765 9.17389 8.39422 8.14697 9.6932 8.14697C10.9747 8.14697 11.8581 9.03033 11.8581 10.3119V14.2837C11.8581 14.75 12.1527 14.75 12.3244 14.75C12.7604 14.75 12.7906 14.4553 12.7906 14.2837V10.2557C12.7906 9.00521 13.6489 8.14697 14.8994 8.14697C16.1874 8.14697 17.2604 9.13432 17.3672 10.4179C17.4209 11.0632 17.4478 11.4612 17.4478 11.6119C17.4478 14.3096 15.1633 16.4965 12.3453 16.4965ZM9.49269 10.3189C9.16131 10.3189 8.89269 10.5876 8.89269 10.9189V12.1348C8.89269 12.4662 9.16131 12.7348 9.49269 12.7348C9.82406 12.7348 10.0927 12.4662 10.0927 12.1348V10.9189C10.0927 10.5876 9.82406 10.3189 9.49269 10.3189ZM15.7802 10.9189C15.7802 10.5876 15.5116 10.3189 15.1802 10.3189C14.8489 10.3189 14.5802 10.5876 14.5802 10.9189V12.1348C14.5802 12.4662 14.8489 12.7348 15.1802 12.7348C15.5116 12.7348 15.7802 12.4662 15.7802 12.1348V10.9189Z" fill="black"/>
</svg>
