<svg width="24" height="24" viewBox="0 0 24 24" fill="none" xmlns="http://www.w3.org/2000/svg">
<path d="M5 5C3.34315 5 2 6.34315 2 8V13.4502C2 15.107 3.34315 16.4502 5 16.4502H10.019L13.8428 18.5848C14.1761 18.7709 14.5865 18.5299 14.5865 18.1482V16.4502H18C19.6569 16.4502 21 15.107 21 13.4502V8C21 6.34315 19.6569 5 18 5H5ZM10.4094 9.36893C10.1898 9.75734 10.0269 10.4343 9.92956 11.2095C9.83542 11.959 9.8139 12.7 9.82276 13.1431C9.82892 13.451 9.64624 13.7314 9.3621 13.8501C9.07796 13.9689 8.75012 13.9018 8.53536 13.6811C8.11173 13.2457 7.78273 12.6809 7.53585 12.1449C7.47187 12.2769 7.40755 12.405 7.34375 12.5265C7.17072 12.8558 6.96939 13.1998 6.76247 13.4302C6.68052 13.5215 6.48202 13.7319 6.18152 13.7994C5.99497 13.8413 5.77211 13.8264 5.56482 13.7056C5.37518 13.5951 5.26935 13.4369 5.21221 13.3226C5.10664 13.1115 5.01225 12.8046 4.93134 12.5069C4.84527 12.1901 4.75737 11.8173 4.67403 11.4366C4.50718 10.6743 4.35278 9.85307 4.26126 9.32805C4.19013 8.91999 4.46327 8.53153 4.87133 8.4604C5.27939 8.38927 5.66785 8.6624 5.73898 9.07046C5.82784 9.58025 5.9782 10.3796 6.13935 11.1159C6.16336 11.2256 6.18748 11.3333 6.21154 11.4379C6.47482 10.8893 6.73809 10.2569 6.92065 9.78371C7.04034 9.47351 7.34998 9.27913 7.68137 9.30617C8.01277 9.33321 8.2868 9.57521 8.35461 9.90072C8.38662 10.0543 8.44055 10.2671 8.51601 10.5111C8.6281 9.84586 8.80777 9.15412 9.10353 8.63084C9.30735 8.27025 9.7649 8.14315 10.1255 8.34697C10.4861 8.55078 10.6132 9.00833 10.4094 9.36893ZM12.1607 11.1931C12.0865 11.5394 12.1247 11.8422 12.2086 12.0433C12.2939 12.2477 12.3893 12.2809 12.4115 12.2856C12.4338 12.2904 12.5344 12.2992 12.6959 12.1476C12.8548 11.9985 13.0136 11.7379 13.0878 11.3916C13.1619 11.0453 13.1237 10.7425 13.0398 10.5413C12.9546 10.337 12.8592 10.3038 12.8369 10.299C12.8147 10.2943 12.714 10.2855 12.5526 10.437C12.3937 10.5862 12.2349 10.8468 12.1607 11.1931ZM13.151 8.83226C13.7898 8.96904 14.2101 9.45051 14.4242 9.96385C14.6397 10.4804 14.6846 11.0983 14.5545 11.7056C14.4245 12.3129 14.1305 12.8583 13.7224 13.2414C13.3169 13.622 12.7363 13.8892 12.0975 13.7524C11.4587 13.6156 11.0384 13.1341 10.8243 12.6208C10.6088 12.1042 10.5639 11.4863 10.6939 10.879C10.824 10.2717 11.1179 9.72633 11.5261 9.34329C11.9316 8.96264 12.5122 8.69549 13.151 8.83226ZM16.9881 10.437C16.8292 10.5862 16.6704 10.8468 16.5962 11.1931C16.5221 11.5394 16.5603 11.8422 16.6442 12.0433C16.7294 12.2477 16.8248 12.2809 16.8471 12.2856C16.8694 12.2904 16.97 12.2992 17.1314 12.1476C17.2903 11.9985 17.4492 11.7379 17.5233 11.3916C17.5975 11.0453 17.5593 10.7425 17.4754 10.5413C17.3901 10.337 17.2947 10.3038 17.2725 10.299C17.2502 10.2943 17.1496 10.2855 16.9881 10.437ZM15.9616 9.34329C16.3672 8.96264 16.9478 8.69549 17.5865 8.83226C18.2253 8.96904 18.6456 9.45051 18.8597 9.96385C19.0752 10.4804 19.1201 11.0983 18.9901 11.7056C18.86 12.3129 18.5661 12.8583 18.158 13.2414C17.7524 13.622 17.1718 13.8892 16.533 13.7524C15.8942 13.6156 15.474 13.1341 15.2598 12.6208C15.0443 12.1042 14.9995 11.4863 15.1295 10.879C15.2595 10.2717 15.5535 9.72633 15.9616 9.34329Z" fill="black"/>
</svg>
