<svg width="24" height="24" viewBox="0 0 24 24" fill="none" xmlns="http://www.w3.org/2000/svg">
<path d="M11.1667 11.5833C11.1667 9.05203 9.11464 7 6.58333 7C4.05203 7 2 9.05203 2 11.5833C2 14.1146 4.05203 16.1667 6.58333 16.1667C9.11464 16.1667 11.1667 14.1146 11.1667 11.5833ZM17.8333 11.5833C17.8333 9.28215 16.5275 7.41667 14.9167 7.41667C13.3058 7.41667 12 9.28215 12 11.5833C12 13.8845 13.3058 15.75 14.9167 15.75C16.5275 15.75 17.8333 13.8845 17.8333 11.5833ZM20.3334 15.3333C21.2538 15.3333 22 13.6544 22 11.5833C22 9.51227 21.2538 7.83333 20.3334 7.83333C19.4129 7.83333 18.6667 9.51227 18.6667 11.5833C18.6667 13.6544 19.4129 15.3333 20.3334 15.3333Z" fill="black"/>
</svg>
