<svg width="24" height="24" viewBox="0 0 24 24" fill="none" xmlns="http://www.w3.org/2000/svg">
<path d="M12.2568 3C10.8255 3 9.52955 3.58026 8.59144 4.51837C7.65333 5.45648 7.07307 6.75242 7.07307 8.18373C7.07307 9.29501 7.06206 10.2424 6.95254 11.0637L5.71791 10.1334C5.36739 9.91423 4.96021 9.83365 4.56949 9.88672C4.19643 9.9374 3.83844 10.1096 3.55941 10.3986C3.25807 10.7106 3.11664 11.1176 3.14893 11.5349C3.17793 11.9097 3.34903 12.302 3.70662 12.626L5.48976 13.9766C5.03087 14.356 4.44289 14.6965 3.69638 15.0232L3.29954 15.1969C2.90077 15.3714 2.89997 15.9368 3.29825 16.1124L3.6946 16.2872C5.30894 16.9991 5.30406 17.0043 6.73436 19.1071C8.10087 19.1071 8.95987 19.6238 9.73539 20.0734C10.5541 20.5481 11.3034 20.9479 12.2568 20.9479C13.2102 20.9479 13.9595 20.5481 14.7782 20.0734C15.5537 19.6238 16.4127 19.1071 18.4035 18.7115C19.2095 17.0043 19.2047 16.9991 20.819 16.2872L21.2154 16.1124C21.6137 15.9367 21.6129 15.3713 21.2141 15.1968L20.8172 15.0232C20.1107 14.7141 19.5461 14.3924 19.0985 14.0372L20.7936 12.6159C21.1142 12.3169 21.2789 11.915 21.286 11.5105C21.2929 11.1144 21.1487 10.7157 20.8518 10.4083C20.5459 10.0915 20.1435 9.91986 19.7332 9.89816C19.3229 9.87647 18.9047 10.0047 18.5671 10.2874L17.5686 11.1237C17.4515 10.2888 17.4405 9.32244 17.4405 8.18373C17.4405 6.75242 16.8603 5.45648 15.9222 4.51837C15.0392 3.63544 13.8393 3.0695 12.5079 3.00598L12.2568 3Z" fill="black"/>
</svg>
