<svg width="24" height="24" viewBox="0 0 24 24" fill="none" xmlns="http://www.w3.org/2000/svg">
<path d="M12.3686 3.98394C12.3686 4.52748 12.8184 4.96787 13.3735 4.96787C13.9286 4.96787 14.3784 4.52748 14.3784 3.98394C14.3784 3.44039 13.9286 3 13.3735 3C12.8184 3 12.3686 3.44039 12.3686 3.98394ZM10.3627 4.96387C8.61219 4.96387 7.12506 6.06286 6.57803 7.59431C4.96528 7.64986 3.67265 8.93929 3.67265 10.5342C3.67265 10.9984 3.79016 11.4309 3.98467 11.8197C3.37685 12.4108 3 13.2321 3 14.1367C3 15.7237 4.15486 17.0488 5.68251 17.3464L5.6744 17.4099C5.6744 19.2191 7.17369 20.687 9.02146 20.687C9.83188 20.687 10.5653 20.3934 11.1488 19.9213C11.6351 20.3934 12.2996 20.687 13.0371 20.687C14.2892 20.687 15.3306 19.842 15.6224 18.7112C17.5431 18.5882 19.0586 17.029 19.0586 15.1206C19.0586 14.3668 18.8195 13.6646 18.4143 13.0853C18.8114 12.6727 19.0586 12.1252 19.0586 11.5142C19.0586 10.5977 18.5034 9.81214 17.7092 9.44316C17.7106 9.41746 17.7125 9.39222 17.7143 9.36713C17.7179 9.31862 17.7214 9.27066 17.7214 9.22098C17.7214 7.2293 16.0722 5.6185 14.042 5.6185C13.6247 5.6185 13.2276 5.68992 12.8507 5.81291C12.17 5.28523 11.3069 4.96387 10.3627 4.96387ZM5.00989 6.27378C5.00989 6.63482 5.30975 6.92841 5.67849 6.92841C6.04723 6.92841 6.34709 6.63482 6.34709 6.27378C6.34709 5.91273 6.04723 5.61914 5.67849 5.61914C5.30975 5.61914 5.00989 5.91273 5.00989 6.27378ZM20.404 12.1729C20.0352 12.1729 19.7354 12.4664 19.7354 12.8275C19.7354 13.1885 20.0352 13.4821 20.404 13.4821C20.7727 13.4821 21.0726 13.1885 21.0726 12.8275C21.0726 12.4664 20.7727 12.1729 20.404 12.1729ZM4.33728 18.3977C4.33728 18.5802 4.48721 18.727 4.67361 18.727C4.86 18.727 5.00993 18.5802 5.00993 18.3977C5.00993 18.2152 4.86 18.0684 4.67361 18.0684C4.48721 18.0684 4.33728 18.2152 4.33728 18.3977ZM16.7204 19.3818C16.1652 19.3818 15.7155 19.8222 15.7155 20.3658C15.7155 20.9093 16.1652 21.3497 16.7204 21.3497C17.2755 21.3497 17.7253 20.9093 17.7253 20.3658C17.7253 19.8222 17.2755 19.3818 16.7204 19.3818ZM11.0314 20.6904C10.6627 20.6904 10.3628 20.984 10.3628 21.3451C10.3628 21.7061 10.6627 21.9997 11.0314 21.9997C11.4001 21.9997 11.7 21.7061 11.7 21.3451C11.7 20.984 11.4042 20.6904 11.0314 20.6904ZM12.0243 10.3473C12.2245 10.3752 12.3518 10.4969 12.4971 10.6359C12.5182 10.656 12.5397 10.6766 12.5619 10.6972C12.6882 10.8233 12.7821 10.7673 12.8589 10.7214C12.8684 10.7157 12.8776 10.7102 12.8866 10.7052C12.8925 10.702 12.8984 10.6987 12.9042 10.6955C13.0217 10.6299 13.1252 10.5722 13.4814 10.5824C13.8689 10.5904 14.3136 10.7293 14.4091 11.3812C14.4598 11.7384 14.1763 12.3681 13.8826 13.0204C13.5746 13.7046 13.2553 14.4137 13.2986 14.8596C13.3294 15.173 13.6201 15.2116 13.9077 15.2497C14.1815 15.2861 14.4525 15.322 14.4937 15.5943C14.6056 16.321 13.1867 16.0511 12.8702 15.8962C12.3627 15.6451 12.0516 15.0813 12.1799 14.5203C12.2348 14.3039 12.5097 13.7448 12.7683 13.219C13.0109 12.7255 13.2392 12.2614 13.2577 12.1372C13.2904 11.8647 13.1485 11.8407 13.0612 11.8407C12.9412 11.8327 12.8566 11.8888 12.7365 12.0598C12.6645 12.1673 12.0808 13.3195 11.696 14.0791C11.5266 14.4135 11.3957 14.6718 11.364 14.7314C11.0393 15.3458 10.1989 15.2443 10.2917 14.6218C10.3026 14.5395 10.4578 14.1626 10.6288 13.7471C10.8408 13.2321 11.0773 12.6576 11.0939 12.5113C11.1185 12.3563 11.0857 12.1853 10.9274 12.0998C10.7692 12.0197 10.5782 12.1452 10.5236 12.2388C10.4839 12.3036 10.2174 12.9786 9.9407 13.6793C9.64724 14.4226 9.34241 15.1946 9.28483 15.2977C9.08837 15.6451 8.88645 15.7546 8.58085 15.7706C7.8605 15.8107 7.31751 15.2123 7.55762 14.4909C7.57471 14.4372 7.60787 14.3258 7.65294 14.1743C7.88141 13.4065 8.416 11.6099 8.71455 11.09C8.95467 10.6705 9.61226 10.3553 10.0652 10.5476C10.3053 10.6491 10.6382 10.8094 10.731 10.8575C10.9231 10.9481 11.1297 10.754 11.2414 10.649C11.2582 10.6333 11.2728 10.6195 11.2849 10.6091C11.4704 10.4541 11.6014 10.3526 11.8006 10.3366C11.8661 10.3312 11.9398 10.3339 12.0243 10.3473Z" fill="#0A0B09"/>
</svg>
