<svg width="24" height="24" viewBox="0 0 24 24" fill="none" xmlns="http://www.w3.org/2000/svg">
<path d="M3.06705 15.8965C2.73805 15.8569 2.43926 16.0915 2.39968 16.4205C2.09081 18.9877 3.94413 21.1964 6.52598 21.338C6.85685 21.3562 7.13979 21.1027 7.15794 20.7718C7.17608 20.4409 6.92257 20.158 6.5917 20.1398C4.7022 20.0362 3.36504 18.4426 3.59109 16.5639C3.63067 16.2349 3.39605 15.9361 3.06705 15.8965ZM9.96292 3.28038C9.59371 2.94219 9.02148 2.927 8.63377 3.26268C8.21623 3.62418 8.17081 4.25571 8.53231 4.67325L11.9129 8.57642C12.1333 9.01928 11.7703 9.35721 11.3362 9.03139L6.82772 3.99781L6.7449 3.91543C6.37005 3.5835 5.79765 3.57794 5.41564 3.92009C5.00424 4.28856 4.96945 4.92077 5.33792 5.33217L9.92914 10.46C9.95122 10.4914 9.97618 10.5214 10.0041 10.5496C10.6035 11.1538 10.1451 11.9068 9.60732 11.5207L5.88243 7.33282L5.79989 7.25016C5.42617 6.91697 4.85378 6.90948 4.47062 7.25034C4.05798 7.61743 4.02106 8.24952 4.38814 8.66215L9.26319 14.142L9.24225 14.1076C9.6046 14.6334 9.06434 15.1888 8.54656 14.7631L6.20723 12.1318L6.12469 12.0491C5.75097 11.7159 5.17858 11.7084 4.79542 12.0493C4.38279 12.4164 4.34586 13.0485 4.71294 13.4611L9.16788 18.4698C12.1911 22.1874 15.3198 22.508 18.9885 18.6597C20.3781 17.0931 20.8896 15.0701 20.8005 12.6995C20.7796 12.1422 20.7277 11.599 20.6465 11.0115L20.3927 9.39137L20.3781 9.27883C20.1783 8.076 19.6757 7.48632 18.8701 7.50977C18.7876 7.5123 18.715 7.56524 18.6875 7.64311L17.2603 11.6831L13.7145 7.59809L13.7096 7.59803L10.0443 3.36414L9.96292 3.28038ZM5.08837 16.007C4.75938 15.9675 4.46058 16.2021 4.421 16.5311C4.24586 17.9868 5.30156 19.2449 6.76557 19.3252C7.09644 19.3434 7.37938 19.0899 7.39753 18.759C7.41568 18.4281 7.16216 18.1452 6.83129 18.127C6.05963 18.0847 5.52009 17.4417 5.61241 16.6744C5.65199 16.3454 5.41737 16.0466 5.08837 16.007ZM17.2184 6.55588C17.4695 5.11133 16.4811 3.79966 15.0233 3.64285C14.6938 3.60741 14.398 3.84577 14.3626 4.17524C14.3271 4.50471 14.5655 4.80053 14.895 4.83597C15.6634 4.91862 16.1685 5.58897 16.0362 6.35038C15.9794 6.67685 16.1981 6.98752 16.5245 7.04427C16.851 7.10101 17.1617 6.88235 17.2184 6.55588ZM19.2336 6.77521C19.6764 4.22768 17.9412 1.92501 15.3703 1.64847C15.0408 1.61302 14.745 1.85138 14.7095 2.18085C14.6741 2.51032 14.9125 2.80614 15.2419 2.84158C17.1234 3.04397 18.3753 4.70532 18.0513 6.56971C17.9945 6.89619 18.2132 7.20685 18.5397 7.2636C18.8661 7.32034 19.1768 7.10169 19.2336 6.77521Z" fill="black"/>
</svg>
