<svg width="24" height="24" viewBox="0 0 24 24" fill="none" xmlns="http://www.w3.org/2000/svg">
<path d="M10.133 8.89785C10.719 8.74921 11.346 8.66471 12 8.66471C12.654 8.66471 13.281 8.74921 13.867 8.89887L15.942 8.13529C16.404 7.96527 16.895 8.30633 16.908 8.80622L16.96 10.7732C17.47 11.4146 17.769 12.1598 17.769 12.959C17.769 15.2365 16.157 17.0813 14.126 17.2259C15.017 18.6207 15 20.271 15 20.271V21C16.008 20.5816 17.922 19.6072 19.227 17.8286C20.299 16.3676 21 14.4149 21 12.3512C21 9.62477 19.972 7.47251 18.588 5.94943C16.761 3.94072 14.247 3 12 3C9.753 3 7.239 3.94072 5.412 5.94943C4.028 7.47251 3 9.62477 3 12.3512C3 14.4139 3.701 16.3676 4.773 17.8286C6.078 19.6072 7.992 20.5816 9 21V20.271C9 20.271 8.983 18.6207 9.874 17.2259C7.843 17.0813 6.231 15.2365 6.231 12.959C6.231 12.1598 6.529 11.4146 7.04 10.7732L7.092 8.8052C7.105 8.30532 7.596 7.96425 8.058 8.13428L10.133 8.89785Z" fill="black"/>
</svg>
