<svg width="24" height="24" viewBox="0 0 24 24" fill="none" xmlns="http://www.w3.org/2000/svg">
<path d="M7.07744 6.31389C8.39395 5.18527 10.1156 4.5006 12.0036 4.5006C14.6098 4.5006 16.8989 5.80516 18.243 7.78114C18.5748 13.6087 14.0278 18.1484 9.41586 14.8298C9.17203 14.6538 9.65647 14.656 10.299 14.6589C10.9673 14.662 11.8067 14.6658 12.1755 14.4706C12.3211 14.3934 12.4798 14.2922 12.6373 14.1916C12.9732 13.9773 13.3045 13.7659 13.496 13.7965C13.9522 13.8631 14.0595 13.5016 13.8299 13.2422C13.5665 12.9443 12.8687 12.3796 12.0592 12.7581C9.83528 13.7958 8.35193 12.2621 8.60929 11.3626C8.65731 11.1933 8.84113 10.9701 8.91841 10.9553C9.03093 10.8476 9.30485 10.6457 9.64077 10.3981C10.4271 9.81842 11.5532 8.98835 11.744 8.5295C11.8086 8.37428 11.8813 8.00989 11.6705 7.93376C11.3201 7.85171 10.488 7.84876 10.1804 7.85097C9.59443 7.85615 9.20127 7.49619 9.22754 7.13771C9.26055 6.69054 9.57718 6.13324 10.476 5.40297C8.93267 5.18124 8.04131 6.39563 8.04131 6.39563C7.75178 6.32484 7.40564 6.30703 7.07744 6.31389ZM3.3024 9.58897C3.10517 10.3197 3 11.0879 3 11.8807C3 11.9182 3.00275 11.9551 3.00806 11.9911C3.02503 13.2495 3.31443 14.7083 4.15625 16.2335C4.15625 16.2335 4.44023 16.799 5.05464 17.5302C6.17606 18.8648 8.39825 20.7503 12.0036 20.7503C17.6309 20.7503 21.0073 16.1551 21.0073 11.8807C21.0073 9.06285 19.7128 6.85056 18.2283 5.46437C16.6098 3.93691 14.4154 3 12.0036 3C9.37254 3 7.00015 4.11504 5.35192 5.89544C4.97132 5.34873 4.87504 4.69415 4.87504 4.69415C4.87504 4.69415 3.59953 5.63137 3.94167 7.90715C3.94167 7.90715 3.57621 8.54068 3.3024 9.58897Z" fill="black"/>
</svg>
