<svg width="24" height="24" viewBox="0 0 24 24" fill="none" xmlns="http://www.w3.org/2000/svg">
<path d="M21 17V7C21 4.79086 19.2091 3 17 3H7C4.79086 3 3 4.79086 3 7V17C3 19.2091 4.79086 21 7 21H10.9004V14H9.1C8.98954 14 8.9 13.9105 8.9 13.8V12.2C8.9 12.0895 8.98954 12 9.1 12H10.9004V10.0554C10.9004 8.03711 12.5371 6.40039 14.5554 6.40039H15.3004C15.4108 6.40039 15.5004 6.48993 15.5004 6.60039V8.20039C15.5004 8.31085 15.4108 8.40039 15.3004 8.40039H14.5554C13.6417 8.40039 12.9004 9.14168 12.9004 10.0554V12H15.1565C15.2822 12 15.3767 12.1145 15.3529 12.2379L15.0438 13.8379C15.0256 13.932 14.9432 14 14.8474 14H12.9004V21H17C19.2091 21 21 19.2091 21 17Z" fill="black"/>
</svg>
