<svg width="24" height="24" viewBox="0 0 24 24" fill="none" xmlns="http://www.w3.org/2000/svg">
<path d="M4.27232 7C3.56964 7 3 7.56964 3 8.27232V14.2746C3 16.1819 4.54615 17.728 6.45343 17.728H15.3977C16.1004 17.728 16.67 17.1584 16.67 16.4557V10.4534C16.67 8.54615 15.1238 7 13.2166 7H4.27232ZM19.1815 16.8347C19.3029 16.9085 19.4424 16.9475 19.5845 16.9475C20.013 16.9475 20.3604 16.6002 20.3604 16.1717V8.77595C20.3604 8.62504 20.3164 8.47741 20.2337 8.35114C19.9991 7.99258 19.5182 7.89211 19.1597 8.12672L17.5876 9.15542C17.446 9.24805 17.3609 9.40599 17.3613 9.57517L17.3773 15.458C17.3777 15.6321 17.4688 15.7935 17.6175 15.8839L19.1815 16.8347Z" fill="black"/>
</svg>
