<svg width="24" height="24" viewBox="0 0 24 24" fill="none" xmlns="http://www.w3.org/2000/svg">
<path d="M21 17V7C21 4.79086 19.2091 3 17 3H7C4.79086 3 3 4.79086 3 7V17C3 19.2091 4.79086 21 7 21H17C19.2091 21 21 19.2091 21 17ZM8.49924 9.1C8.05836 9.1 7.69924 8.74089 7.69924 8.3C7.69569 7.85911 8.0548 7.5 8.49569 7.5C8.94013 7.5 9.29924 7.85556 9.29924 8.3C9.29924 8.74089 8.94013 9.1 8.49924 9.1ZM13.9264 11.0715C13.1955 11.0715 12.6035 11.6635 12.6035 12.3944L12.5996 12.4173V15.3638C12.5996 15.4742 12.5101 15.5638 12.3996 15.5638H11.2996C11.1892 15.5638 11.0996 15.4742 11.0996 15.3638V9.78887C11.0996 9.67841 11.1892 9.58887 11.2996 9.58887H12.3996C12.5101 9.58887 12.5996 9.67841 12.5996 9.78887V10.3006C12.8848 9.95903 13.3055 9.70962 13.9264 9.57153C15.9476 9.21462 16.7493 10.5002 16.7493 12.3944V15.3639C16.7493 15.4743 16.6597 15.5639 16.5493 15.5639H15.4493C15.3388 15.5639 15.2493 15.4743 15.2493 15.3639V12.3944C15.2493 11.6635 14.6573 11.0715 13.9264 11.0715ZM7.98711 15.5638C7.87665 15.5638 7.78711 15.4742 7.78711 15.3638V9.78887C7.78711 9.67841 7.87665 9.58887 7.98711 9.58887H9.08711C9.19757 9.58887 9.28711 9.67841 9.28711 9.78887V15.3638C9.28711 15.4742 9.19757 15.5638 9.08711 15.5638H7.98711Z" fill="black"/>
</svg>
