<svg width="24" height="24" viewBox="0 0 24 24" fill="none" xmlns="http://www.w3.org/2000/svg">
<path d="M9.89024 12.97L9.77017 12.9757C8.74636 13.0726 7.98462 13.9061 7.98462 14.9077V19.0615C7.98462 20.1325 8.85211 21 9.92308 21L10.076 20.9935C11.0998 20.8966 11.8615 20.0631 11.8615 19.0615V14.9077C11.8615 13.8833 11.0678 13.045 10.0616 12.9741L9.89024 12.97ZM14.9077 17.1231H13.6615C13.2792 17.1231 12.9692 17.433 12.9692 17.8154V19.0615C12.9692 20.1325 13.8367 21 14.9077 21L15.0606 20.9935C16.0844 20.8966 16.8462 20.0631 16.8462 19.0615L16.8397 18.9086C16.7427 17.8848 15.9093 17.1231 14.9077 17.1231ZM6.18462 12.9692H4.93846C3.8675 12.9692 3 13.8367 3 14.9077L3.00648 15.0606C3.10341 16.0844 3.93687 16.8462 4.93846 16.8462L5.09137 16.8397C6.11518 16.7427 6.87692 15.9093 6.87692 14.9077V13.6615C6.87692 13.2792 6.56697 12.9692 6.18462 12.9692ZM19.0615 12.1385H14.9077C13.8367 12.1385 12.9692 13.006 12.9692 14.0769L12.9757 14.2298C13.0726 15.2536 13.9061 16.0154 14.9077 16.0154H19.0615C20.1325 16.0154 21 15.1479 21 14.0769L20.9935 13.924C20.8966 12.9002 20.0631 12.1385 19.0615 12.1385ZM9.09231 7.98462H4.93846C3.8675 7.98462 3 8.85211 3 9.92308L3.00648 10.076C3.10341 11.0998 3.93687 11.8615 4.93846 11.8615H9.09231C10.1633 11.8615 11.0308 10.994 11.0308 9.92308L11.0243 9.77017C10.9274 8.74636 10.0939 7.98462 9.09231 7.98462ZM14.0769 3L13.924 3.00648C12.9002 3.10341 12.1385 3.93687 12.1385 4.93846V9.09231C12.1385 10.1633 13.006 11.0308 14.0769 11.0308L14.2298 11.0243C15.2536 10.9274 16.0154 10.0939 16.0154 9.09231V4.93846C16.0154 3.8675 15.1479 3 14.0769 3ZM19.0287 7.15463L18.9086 7.16033C17.8848 7.25726 17.1231 8.09071 17.1231 9.09231V10.3385C17.1231 10.7208 17.433 11.0308 17.8154 11.0308H19.0615C20.1325 11.0308 21 10.1633 21 9.09231L20.9935 8.9394C20.9012 7.96435 20.1408 7.22699 19.2034 7.15897L19.0287 7.15463ZM9.09231 3L8.9394 3.00648C7.91559 3.10341 7.15385 3.93687 7.15385 4.93846L7.16033 5.09137C7.25726 6.11518 8.09071 6.87692 9.09231 6.87692H10.3385C10.7208 6.87692 11.0308 6.56697 11.0308 6.18462V4.93846C11.0308 3.8675 10.1633 3 9.09231 3Z" fill="black"/>
</svg>
