<svg width="24" height="24" viewBox="0 0 24 24" fill="none" xmlns="http://www.w3.org/2000/svg">
<path d="M12.7635 8.4429L13.4045 5.58481C13.5697 4.84828 14.2923 4.37919 15.0324 4.52776L17.1764 4.95745C17.2279 5.05202 17.2937 5.14093 17.3738 5.22107C17.8239 5.67109 18.5526 5.66876 19.0014 5.22081L19.0033 5.21897L19.0048 5.21738C19.4522 4.76607 19.4482 4.03982 19.0011 3.59271L18.9993 3.5909C18.5882 3.18259 17.9429 3.14601 17.4914 3.49074L15.3271 3.057C13.7879 2.74814 12.2845 3.72451 11.9408 5.25655L11.2683 8.25544C11.2543 8.31811 11.2485 8.38071 11.2503 8.44208C9.04836 8.57145 7.09473 9.26507 5.65369 10.2975C4.77273 9.49677 3.41174 9.54488 2.59386 10.4141C1.76636 11.2929 1.80912 12.6753 2.68794 13.5028C2.83869 13.6439 3.01402 13.7508 3.19684 13.8449C3.15408 14.0854 3.12521 14.3292 3.12521 14.5762C3.12521 17.8819 7.0382 20.7333 12 20.7333C16.9618 20.7333 20.8748 17.8819 20.8748 14.5762C20.8748 14.3292 20.8459 14.0854 20.8032 13.8438C20.986 13.7508 21.1624 13.6428 21.3121 13.5017C22.1909 12.6753 22.2336 11.2918 21.4061 10.413C20.5872 9.54381 19.2262 9.4957 18.3463 10.2965C16.9083 9.26713 14.9598 8.57436 12.7635 8.4429ZM8.51142 12.3323C9.10079 12.3323 9.58161 12.8089 9.58161 13.4014C9.58161 13.9918 9.10287 14.4705 8.51249 14.4705C7.92307 14.4705 7.44494 13.9934 7.44337 13.4043C7.44064 12.8096 7.92313 12.3323 8.51142 12.3323ZM15.2067 12.3323C15.7961 12.3323 16.2769 12.8089 16.2769 13.4014C16.2769 13.9918 15.7982 14.4705 15.2078 14.4705C14.6184 14.4705 14.1403 13.9934 14.1387 13.4043C14.136 12.8096 14.6184 12.3323 15.2067 12.3323ZM7.78422 16.3615C7.92665 15.9725 8.35742 15.7726 8.74638 15.9151C9.69346 16.2619 10.7821 16.4713 11.9995 16.4713C13.2168 16.4713 14.3055 16.2619 15.2526 15.9151C15.6416 15.7726 16.0723 15.9725 16.2148 16.3615C16.3572 16.7504 16.1573 17.1812 15.7684 17.3236C14.6542 17.7316 13.3908 17.9713 11.9995 17.9713C10.6082 17.9713 9.34478 17.7316 8.23059 17.3236C7.84164 17.1812 7.64179 16.7504 7.78422 16.3615Z" fill="black"/>
</svg>
