<svg width="24" height="24" viewBox="0 0 24 24" fill="none" xmlns="http://www.w3.org/2000/svg">
<path d="M13.2258 4C12.6735 4 12.2258 4.44772 12.2258 5V15.3871C12.2258 16.8302 11.056 18 9.6129 18C8.16984 18 7 16.8302 7 15.3871C7 13.944 8.16984 12.7742 9.6129 12.7742C10.1652 12.7742 10.6129 12.3265 10.6129 11.7742C10.6129 11.2219 10.1652 10.7742 9.6129 10.7742C7.06527 10.7742 5 12.8395 5 15.3871C5 17.9347 7.06527 20 9.6129 20C12.1605 20 14.2258 17.9347 14.2258 15.3871V9.23783C15.1355 10.1851 16.3967 10.9677 17.9677 10.9677C18.52 10.9677 18.9677 10.52 18.9677 9.96774C18.9677 9.41546 18.52 8.96774 17.9677 8.96774C16.9305 8.96774 16.0054 8.34153 15.2883 7.41011C14.9372 6.95405 14.664 6.45769 14.4811 6.00497C14.2917 5.536 14.2258 5.18065 14.2258 5C14.2258 4.44772 13.7781 4 13.2258 4Z" fill="black"/>
</svg>
