<svg width="24" height="24" viewBox="0 0 24 24" fill="none" xmlns="http://www.w3.org/2000/svg">
<path d="M13.0424 13.2718L16.4544 15.3035C16.6629 15.4294 16.9268 15.4154 17.1047 15.2424C17.3 15.0694 17.339 14.8066 17.2193 14.577L15.6302 11.4827C16.4307 10.7216 17.1276 9.85381 17.6334 8.84265C18.4282 7.23896 18.7167 5.45269 18.496 3.65899C18.432 3.23697 18.35 2.81442 18.2328 2.40933C18.1665 2.12765 17.8706 1.94748 17.5715 2.01374C17.1662 2.11359 16.7608 2.248 16.3547 2.40035C14.678 3.04358 13.2411 4.12925 12.2197 5.60706C11.5746 6.54607 11.1216 7.5577 10.8432 8.62455L7.34914 8.69815C7.10326 8.6947 6.89027 8.86717 6.83432 9.11231C6.7607 9.35694 6.86275 9.58662 7.08871 9.73017L10.5007 11.7619C10.1932 12.4246 10.2876 13.1803 10.5941 13.8696C10.6964 14.0816 10.9052 14.2075 11.1336 14.193C11.8891 14.1335 12.5953 13.8449 13.0424 13.2718ZM16.4701 7.073C16.4413 7.85517 15.784 8.46595 15.0018 8.4372C14.2196 8.40845 13.6088 7.75107 13.6376 6.96889C13.6663 6.18672 14.3237 5.57595 15.1059 5.6047C15.8881 5.63345 16.4988 6.29083 16.4701 7.073ZM8.2384 19.9163L13.0456 16.245C13.2117 16.0832 13.1231 15.8014 12.895 15.7594C11.6258 15.5258 9.52642 14.3667 8.85838 13.4223C8.71125 13.2143 8.37538 13.2625 8.31373 13.5097L7.60806 19.5541C7.51597 19.9233 7.96575 20.1817 8.2384 19.9163ZM11.7134 3.86305C11.686 3.44974 11.3287 3.13693 10.9154 3.16437C7.84862 3.36793 4.93313 5.04925 3.27938 7.91362C1.10477 11.6802 1.79163 16.3116 4.66276 19.2947C4.85526 19.4947 5.14249 19.572 5.40938 19.4957C5.67627 19.4194 5.87917 19.2019 5.9368 18.9303L7.24721 12.7551C7.3332 12.3499 7.07443 11.9517 6.66924 11.8657C6.26404 11.7797 5.86587 12.0385 5.77989 12.4437L4.79924 17.0649C3.20602 14.6103 3.01551 11.3707 4.57842 8.66362C5.97141 6.25089 8.42611 4.8329 11.0147 4.66107C11.428 4.63364 11.7409 4.27635 11.7134 3.86305ZM20.5164 8.70766C20.3335 8.33601 19.884 8.18299 19.5123 8.36589C19.1407 8.54878 18.9876 8.99833 19.1705 9.36998C20.3161 11.6977 20.3154 14.5325 18.9224 16.9453C17.3595 19.6523 14.4586 21.1072 11.5362 20.9547L15.048 17.7948C15.3559 17.5177 15.381 17.0435 15.1039 16.7356C14.8268 16.4277 14.3526 16.4027 14.0447 16.6797L9.35199 20.9022C9.14563 21.0879 9.05871 21.3724 9.12605 21.6417C9.19339 21.911 9.40397 22.1211 9.67343 22.1878C13.6925 23.1827 18.0468 21.4618 20.2214 17.6953C21.8752 14.8309 21.8735 11.4653 20.5164 8.70766Z" fill="black"/>
</svg>
