<svg width="24" height="24" viewBox="0 0 24 24" fill="none" xmlns="http://www.w3.org/2000/svg">
<path d="M7.7383 2.95063C6.72174 3.4293 5.76918 4.08876 4.92894 4.929C3.52855 6.32938 2.63033 8.04177 2.23427 9.8424C4.90019 9.97025 7.92225 9.61412 10.8204 8.76491C10.8888 8.74488 10.9571 8.72457 11.0252 8.70401C10.0146 6.65525 8.90524 4.70154 7.7383 2.95063ZM11.6792 10.0725C11.5338 10.1177 11.3881 10.1616 11.2422 10.2044C8.14808 11.111 4.90423 11.4896 2.0221 11.3335C1.85467 13.8553 2.63858 16.4284 4.37384 18.4694C6.42487 16.0842 9.33728 14.2336 12.5126 13.1113C12.6517 13.0621 12.7915 13.0143 12.9318 12.9679C12.5394 11.9947 12.1206 11.0262 11.6792 10.0725ZM13.1067 9.58597C13.5549 10.5608 13.9799 11.5501 14.3779 12.5437C16.8861 11.9006 19.5127 11.7021 21.9998 12.0582C22.0128 9.81481 21.2755 7.56788 19.788 5.72604C17.9018 7.38488 15.5762 8.66698 13.1067 9.58597ZM18.7609 4.63165C16.1026 2.18889 12.4427 1.44674 9.17575 2.4052C10.3443 4.18897 11.4522 6.16267 12.4613 8.22533C14.8269 7.35896 17.0151 6.1569 18.7609 4.63165ZM15.591 21.3357C15.0919 19.1141 14.3683 16.7419 13.4768 14.3677C13.3214 14.4185 13.1666 14.4711 13.0125 14.5256C9.99217 15.5931 7.284 17.346 5.43157 19.5409C8.28619 22.0324 12.2187 22.6307 15.591 21.3357ZM16.9787 20.6755C17.727 20.2454 18.4316 19.7106 19.0711 19.0711C20.6266 17.5156 21.5625 15.5752 21.8788 13.5565C19.6387 13.2218 17.2411 13.3803 14.9232 13.9531C15.7759 16.2372 16.4765 18.5189 16.9787 20.6755Z" fill="black"/>
</svg>
