<svg width="24" height="24" viewBox="0 0 24 24" fill="none" xmlns="http://www.w3.org/2000/svg">
<path d="M11.2096 2.27518L4.33494 8.34279L4.27519 8.40523C4.03967 8.67216 3.95707 9.02134 4.02069 9.3456L4.017 9.43302V13.833L4.02054 13.9206C3.94793 14.2914 4.06845 14.6898 4.37223 14.9578L11.2096 20.9909C11.6255 21.3578 12.2494 21.3578 12.6652 20.9909L19.5027 14.9578L19.5651 14.8981C19.5739 14.8889 19.5842 14.8776 19.5997 14.8608C19.7096 14.7363 19.7862 14.5938 19.8304 14.4452C19.8754 14.3314 19.9001 14.2074 19.9001 14.0775V9.14661L19.8934 9.02999C19.8756 8.87696 19.8233 8.73447 19.7444 8.61052L19.7384 8.60173C19.679 8.49392 19.6003 8.39433 19.5027 8.30819L12.6652 2.27518C12.2494 1.90827 11.6255 1.90827 11.2096 2.27518ZM7.782 12.966L10.937 15.75V18.083L6.46 14.1326L7.782 12.966ZM16.092 12.966L17.414 14.1326L13 18.0274V15.6944L16.092 12.966ZM11.937 9.29964L14.581 11.632L11.937 13.9656L9.293 11.632L11.937 9.29964ZM10.937 5.181V7.515L7.782 10.299L6.46 9.13264L10.937 5.181ZM12.937 5.181L17.414 9.13264L16.092 10.299L12.937 7.515V5.181ZM7 11.55L6.25 12.1996V10.9005L7 11.55ZM17 11.55L17.75 10.9005V12.1996L17 11.55Z" fill="black"/>
</svg>
