<svg width="24" height="24" viewBox="0 0 24 24" fill="none" xmlns="http://www.w3.org/2000/svg">
<path d="M21.0692 6.07252C20.6951 5.89502 20.2478 6.0546 20.0701 6.42868L20.0697 6.4296L20.0648 6.43978C20.06 6.4496 20.0522 6.4654 20.0414 6.48684C20.0198 6.52972 19.9862 6.5951 19.9406 6.68013C19.8494 6.85025 19.7102 7.09858 19.523 7.40243C19.148 8.01105 18.583 8.83736 17.8269 9.70262L17.8212 9.70934C16.9012 10.7876 15.6226 11.3471 14.5098 11.3471C14.4881 11.3471 14.4667 11.3481 14.4455 11.3499H13.121V6.75024C13.121 6.33603 12.7852 6.00024 12.371 6.00024H10.232C9.81779 6.00024 9.482 6.33603 9.482 6.75024C9.482 7.16446 9.81779 7.50024 10.232 7.50024H11.621V12.0238C11.6185 12.0488 11.6172 12.0742 11.6172 12.0999C11.6172 12.1255 11.6185 12.1509 11.621 12.1759V16.6354C9.90672 16.3739 8.04869 15.2272 6.64542 13.2126L6.64546 13.2125L6.64056 13.2057C5.38547 11.4463 4.59314 9.9109 4.11694 8.76093C3.87867 8.18552 3.72088 7.70985 3.62384 7.35392C3.57526 7.17576 3.54299 7.03154 3.52332 6.92275C3.51351 6.86845 3.50735 6.82579 3.50377 6.79421C3.50061 6.7663 3.5001 6.75252 3.50002 6.75028C3.50001 6.75005 3.5 6.74994 3.5 6.74995L3.5 6.75024C3.5 6.33603 3.16421 6.00024 2.75 6.00024C2.33579 6.00024 2 6.33603 2 6.75024C2 6.99263 2.06709 7.34658 2.17666 7.74848C2.29212 8.17195 2.47133 8.70759 2.73106 9.33481C3.25055 10.5893 4.0975 12.2232 5.41702 14.0734C7.24074 16.6896 9.8686 18.1932 12.368 18.1932H12.371C12.7852 18.1932 13.121 17.8575 13.121 17.4432V12.8499H14.5072C14.5269 12.8499 14.5464 12.8491 14.5657 12.8476C15.6652 12.866 16.9166 13.4247 17.8212 14.485L17.8271 14.4918C18.5831 15.3565 19.148 16.1826 19.523 16.791C19.7103 17.0948 19.8494 17.3431 19.9406 17.5132C19.9862 17.5982 20.0198 17.6636 20.0414 17.7064C20.047 17.7175 20.0517 17.7271 20.0557 17.7351C20.0594 17.7426 20.0624 17.7488 20.0648 17.7535L20.0697 17.7637L20.0705 17.7653C20.2482 18.139 20.6952 18.2982 21.0692 18.1208C21.4435 17.9432 21.6028 17.4957 21.4253 17.1214C21.4253 17.1216 21.4254 17.1217 20.7478 17.4431L21.4253 17.1214L21.4248 17.1204L21.4239 17.1186L21.4213 17.1131L21.4125 17.0951C21.4052 17.08 21.3947 17.0588 21.3811 17.0318C21.354 16.978 21.3145 16.9011 21.2625 16.8042C21.1585 16.6104 21.0045 16.3358 20.8 16.004C20.392 15.342 19.7799 14.4469 18.9593 13.5078C18.462 12.9258 17.8765 12.4515 17.2474 12.0971C17.8765 11.7427 18.4621 11.2684 18.9594 10.6864C19.7799 9.74681 20.392 8.85146 20.8 8.18934C21.0045 7.85744 21.1585 7.5829 21.2625 7.38908C21.3145 7.29214 21.354 7.21528 21.3811 7.16142C21.3947 7.13449 21.4052 7.1133 21.4125 7.09821L21.4213 7.08019L21.4239 7.0747L21.4254 7.07159L20.7478 6.75013C21.4254 7.07159 21.4254 7.07146 21.4254 7.07159C21.6029 6.69735 21.4435 6.25005 21.0692 6.07252Z" fill="black"/>
</svg>
