<svg width="24" height="24" viewBox="0 0 24 24" fill="none" xmlns="http://www.w3.org/2000/svg">
<path d="M21 17V7C21 4.79086 19.2091 3 17 3H7C4.79086 3 3 4.79086 3 7V17C3 19.2091 4.79086 21 7 21H17C19.2091 21 21 19.2091 21 17ZM16.9966 6C17.5506 6 18.001 6.44741 17.998 7.00148C17.998 7.55259 17.5506 8 16.9995 8C16.4484 8 15.998 7.55259 15.998 7.00148C15.998 6.45037 16.4455 6.00296 16.9966 6ZM9.98514 9.98416C8.87214 11.0972 8.87214 12.9017 9.98514 14.0147C11.0981 15.1277 12.9027 15.1277 14.0156 14.0147C15.1286 12.9017 15.1286 11.0972 14.0156 9.98416C12.9027 8.87116 11.0981 8.87116 9.98514 9.98416ZM15.0763 8.9235C16.7751 10.6223 16.7751 13.3765 15.0763 15.0753C13.3775 16.7741 10.6233 16.7741 8.92448 15.0753C7.22569 13.3765 7.22569 10.6223 8.92448 8.9235C10.6233 7.22472 13.3775 7.22472 15.0763 8.9235Z" fill="black"/>
</svg>
