<svg width="24" height="24" viewBox="0 0 24 24" fill="none" xmlns="http://www.w3.org/2000/svg">
<path d="M12 3C6.47715 3 2 7.47715 2 13C2 16.8196 4.14146 20.139 7.28884 21.8226C8.29961 20.9023 9.58092 20.274 10.9994 20.071L10.999 19.928L10.999 19.929L10.999 18.6124L10.999 18.612V16.226L10.9988 15.5083L10.999 15.508L11 12.9865H10.2663V12H13L12.999 15.508L13.0002 15.5087L12.999 16.226V18.612L13 18.6126L13 19.9291L12.999 19.929L12.9996 20.0708C14.4185 20.2737 15.7001 20.9022 16.7107 21.8232C19.8585 20.139 22 16.8196 22 13C22 7.47715 17.5228 3 12 3ZM12 6C15.866 6 19 9.13401 19 13C19 16.171 16.8915 18.8495 14 19.7101L14.0002 18.3392L14.2142 18.254C16.2624 17.3897 17.7 15.3628 17.7 13C17.7 9.85198 15.148 7.3 12 7.3C8.85198 7.3 6.3 9.85198 6.3 13C6.3 15.4438 7.83798 17.5285 9.99884 18.3388L9.99896 19.7098L9.75311 19.6316C6.98927 18.6955 5 16.08 5 13C5 9.13401 8.13401 6 12 6ZM12 9C14.2091 9 16 10.7909 16 13C16 14.4805 15.1957 15.7732 14.0001 16.4648L14.0002 14.8136L14.1255 14.6652C14.4854 14.2065 14.7 13.6283 14.7 13C14.7 11.5088 13.4912 10.3 12 10.3C10.5088 10.3 9.3 11.5088 9.3 13C9.3 13.6976 9.56458 14.3335 9.99887 14.8126L9.99889 16.4642L9.81352 16.3501C8.72151 15.6359 8 14.4022 8 13C8 10.7909 9.79086 9 12 9Z" fill="black"/>
</svg>
