<svg width="24" height="24" viewBox="0 0 24 24" fill="none" xmlns="http://www.w3.org/2000/svg">
<path d="M16.203 18.0077C18.4823 16.58 19.9999 14.0229 19.9999 11.108C19.9999 6.63154 16.4179 3 12 3C7.58092 3 4 6.63154 4 11.1091C4 15.5889 7.58092 19.2182 12 19.2182C12.6502 19.2182 13.2802 19.1383 13.8855 18.9898C14.5675 20.2314 15.5735 21.1481 17.5552 20.9801C17.9648 20.9454 18.2573 20.5846 18.2573 20.1735C18.2573 19.7812 17.9889 19.4395 17.6314 19.2779C17.1363 19.054 16.4834 18.6512 16.203 18.0077ZM16.1468 12.1824C16.1468 13.5357 15.7148 14.7654 15.015 15.6721C14.2733 14.881 13.1756 14.2102 11.7997 14.0792C11.3581 14.0372 11.01 14.4115 11.01 14.8551C11.01 15.304 11.3736 15.688 11.7742 15.8904C12.1599 16.0853 12.6257 16.4434 13.008 17.1009C12.7031 17.1909 12.3881 17.2393 12.0607 17.2393C9.80394 17.2393 7.9758 14.9746 7.9758 12.1812V10.0932C7.9758 7.29867 9.80394 5.03402 12.0607 5.03402C14.3175 5.03402 16.1479 7.29867 16.1479 10.0932L16.1468 12.1824Z" fill="black"/>
</svg>
