<svg width="24" height="24" viewBox="0 0 24 24" fill="none" xmlns="http://www.w3.org/2000/svg">
<path d="M16.8787 16.1213L19.4142 13.5858C19.7893 13.2107 20 12.702 20 12.1716V6C20 4.34315 18.6569 3 17 3H9.24264C8.44699 3 7.68393 3.31607 7.12132 3.87868L4.87868 6.12132C4.31607 6.68393 4 7.44699 4 8.24264V14C4 15.6569 5.34315 17 7 17H7.7C7.86569 17 8 17.1343 8 17.3V19.7929C8 20.2383 8.53857 20.4614 8.85355 20.1464L11.9121 17.0879C11.9684 17.0316 12.0447 17 12.1243 17H14.7574C15.553 17 16.3161 16.6839 16.8787 16.1213ZM16 6.25C16.4142 6.25 16.75 6.58579 16.75 7V10C16.75 10.4142 16.4142 10.75 16 10.75C15.5858 10.75 15.25 10.4142 15.25 10V7C15.25 6.58579 15.5858 6.25 16 6.25ZM12.75 7V10C12.75 10.4142 12.4142 10.75 12 10.75C11.5858 10.75 11.25 10.4142 11.25 10V7C11.25 6.58579 11.5858 6.25 12 6.25C12.4142 6.25 12.75 6.58579 12.75 7Z" fill="black"/>
</svg>
