<svg width="24" height="24" viewBox="0 0 24 24" fill="none" xmlns="http://www.w3.org/2000/svg">
<path d="M18.364 18.364C21.8787 14.8493 21.8787 9.15077 18.364 5.63604C14.8493 2.12132 9.15077 2.12132 5.63604 5.63604C2.12132 9.15075 2.12132 14.8492 5.63604 18.364C9.15075 21.8787 14.8492 21.8787 18.364 18.364ZM10.4983 11.8715C10.4983 11.8715 10.3089 11.4851 10.3089 10.9143C10.3089 10.0173 10.8186 9.34762 11.453 9.34762C11.9935 9.34762 12.2537 9.76134 12.2537 10.2561C12.2537 10.6088 12.1131 11.0733 11.9651 11.5624C11.8811 11.8403 11.7946 12.1261 11.7301 12.4037C11.5816 13.0459 12.0458 13.5697 12.6663 13.5697C13.7912 13.5697 14.5488 12.0964 14.5488 10.3519C14.5488 9.02576 13.6726 8.0329 12.0789 8.0329C10.2781 8.0329 9.15713 9.40178 9.15713 10.9308C9.15713 11.4583 9.30882 11.8299 9.54826 12.1176C9.65762 12.2502 9.673 12.3036 9.63297 12.4551C9.62025 12.5049 9.60031 12.5859 9.57968 12.6697C9.55409 12.7737 9.52742 12.882 9.51208 12.9406C9.47276 13.0942 9.35115 13.1487 9.2149 13.0926C8.38574 12.7467 8 11.8216 8 10.7805C8 9.06107 9.42201 7 12.2414 7C14.5079 7 16 8.67152 16 10.4664C16 12.8405 14.705 14.6145 12.7965 14.6145C12.1559 14.6145 11.5531 14.2609 11.3467 13.8597C11.3467 13.8597 11.0018 15.2545 10.9295 15.5234C10.8032 15.9897 10.2565 17.134 9.86908 16.9871C9.48165 16.8401 9.62754 15.6294 9.73378 15.1698C9.84853 14.6781 10.4983 11.8715 10.4983 11.8715Z" fill="black"/>
</svg>
