<svg width="24" height="24" viewBox="0 0 24 24" fill="none" xmlns="http://www.w3.org/2000/svg">
<path d="M12.002 3C7.03 3 3 7.03 3 12.002C3 16.971 7.029 21 11.998 21H12.002C16.971 21 21 16.971 21 12.002V11.998C21 7.029 16.971 3 12.002 3ZM9.07687 9.7002H9.08339C10.3434 9.7002 11.366 10.7228 11.366 11.9828C11.366 13.2428 10.3447 14.2641 9.0847 14.2654C7.826 14.2667 6.8034 13.2467 6.80079 11.9867C6.79818 10.7267 7.81687 9.70411 9.07687 9.7002ZM12.7363 11.9867C12.7337 10.7267 13.7524 9.70411 15.0124 9.7002H15.0189C16.2789 9.7002 17.3015 10.7228 17.3015 11.9828C17.3015 13.2428 16.2802 14.2641 15.0202 14.2654C13.7615 14.2667 12.7389 13.2467 12.7363 11.9867Z" fill="black"/>
</svg>
