<svg width="24" height="24" viewBox="0 0 24 24" fill="none" xmlns="http://www.w3.org/2000/svg">
<path d="M3 12.1C3 17.1251 7.07489 21.2 12.1 21.2C17.1251 21.2 21.2 17.1251 21.2 12.1C21.2 11.4925 20.7075 11 20.1 11H13.1C12.4925 11 12 11.4925 12 12.1C12 12.7075 12.4925 13.2 13.1 13.2H18.9128C18.3858 16.4875 15.5357 19 12.1 19C8.28991 19 5.2 15.9101 5.2 12.1C5.2 8.28991 8.28991 5.2 12.1 5.2C13.7812 5.2 15.3178 5.80067 16.5149 6.80032C16.9812 7.18972 17.6749 7.12737 18.0643 6.66106C18.4537 6.19476 18.3914 5.50107 17.9251 5.11168C16.3478 3.79453 14.3164 3 12.1 3C7.07489 3 3 7.07489 3 12.1Z" fill="black"/>
</svg>
