<svg width="24" height="24" viewBox="0 0 24 24" fill="none" xmlns="http://www.w3.org/2000/svg">
<path d="M18 19V5C18 3.34315 16.6569 2 15 2H8C6.34315 2 5 3.34315 5 5V19C5 20.6569 6.34315 22 8 22H15C16.6569 22 18 20.6569 18 19ZM10.1053 10.2615C9.41201 10.3959 8.87966 11.0111 8.87041 11.7488C8.8601 12.5579 9.48309 13.219 10.2734 13.2601C10.0116 12.8197 9.86375 12.3023 9.87062 11.7488C9.873 11.5726 9.89163 11.4001 9.92361 11.2325L10.1053 10.2615ZM11.7227 9.0512C12.0502 8.92094 12.4059 8.84852 12.7769 8.84852C14.3594 8.84852 15.6301 10.1497 15.6098 11.7488C15.5895 13.3479 14.2856 14.649 12.7035 14.649C12.5505 14.649 12.4005 14.6365 12.2544 14.6126C12.2237 14.6078 12.1535 14.5966 12.1409 14.566C12.1271 14.5327 12.1708 14.5 12.1953 14.483C12.6252 14.1862 12.9842 13.7905 13.2386 13.3285L13.2466 13.3137C13.2657 13.2779 13.2995 13.2148 13.3443 13.1663C13.4012 13.1049 13.4727 13.0611 13.5058 13.0408L13.5117 13.0371C13.9418 12.7698 14.2327 12.2924 14.2397 11.7488C14.2502 10.9132 13.5862 10.2335 12.7595 10.2335C11.9329 10.2335 11.2515 10.9132 11.2409 11.7488C11.2366 12.097 11.3505 12.4172 11.5434 12.6734C11.7426 12.4172 11.8647 12.097 11.8691 11.7488C11.8693 11.7336 11.8691 11.7149 11.8688 11.6933C11.867 11.5258 11.8633 11.1861 12.0385 10.9551C12.2521 10.6728 12.6965 10.6276 12.9499 10.8559C13.1386 11.026 13.2448 11.3174 13.2394 11.7488C13.219 13.3479 11.9153 14.649 10.3328 14.649C8.7507 14.649 7.48002 13.3479 7.50024 11.7488C7.50235 11.5726 7.52125 11.4001 7.55322 11.2325L8.25628 7.47412C8.26962 7.40312 8.30265 7.35037 8.4069 7.34998C9.72026 7.43217 9.39985 8.79719 9.39985 8.79719L9.35228 9.0512C9.66873 8.92537 10.0115 8.85516 10.3691 8.85034L10.6263 7.47529C10.6397 7.40364 10.6725 7.3505 10.7773 7.34998C12.0906 7.43217 11.7702 8.79719 11.7702 8.79719L11.7227 9.0512ZM10 18.5498H13C13.4142 18.5498 13.75 18.8856 13.75 19.2998C13.75 19.714 13.4142 20.0498 13 20.0498H10C9.58579 20.0498 9.25 19.714 9.25 19.2998C9.25 18.8856 9.58579 18.5498 10 18.5498Z" fill="black"/>
</svg>
