<svg width="24" height="24" viewBox="0 0 24 24" fill="none" xmlns="http://www.w3.org/2000/svg">
<path d="M18 3C16.8954 3 16 3.89543 16 5V21.6C16 21.8209 16.1791 22 16.4 22C18.3882 22 20 20.3882 20 18.4V5C20 3.89543 19.1046 3 18 3ZM10 10V21.6C10 21.8209 10.1791 22 10.4 22C12.3882 22 14 20.3882 14 18.4V10C14 8.89543 13.1046 8 12 8C10.8954 8 10 8.89543 10 10ZM4 16V21.6C4 21.8209 4.17909 22 4.4 22C6.38823 22 8 20.3882 8 18.4V16C8 14.8954 7.10457 14 6 14C4.89543 14 4 14.8954 4 16Z" fill="black"/>
</svg>
