<svg width="24" height="24" viewBox="0 0 24 24" fill="none" xmlns="http://www.w3.org/2000/svg">
<path d="M5.72027 4.2699C3.85155 4.39867 2.35027 5.8389 2.19493 7.7056C2.08964 8.97088 2 10.4407 2 11.7778C2 13.1149 2.08964 14.5847 2.19493 15.85C2.35027 17.7167 3.85155 19.1569 5.72027 19.2857C7.65164 19.4187 10.0995 19.5556 12 19.5556C13.9005 19.5556 16.3484 19.4187 18.2797 19.2857C20.1484 19.1569 21.6497 17.7167 21.8051 15.85C21.9104 14.5847 22 13.1149 22 11.7778C22 10.4407 21.9104 8.97088 21.8051 7.7056C21.6497 5.8389 20.1484 4.39867 18.2797 4.2699C16.3484 4.13683 13.9005 4 12 4C10.0995 4 7.65164 4.13683 5.72027 4.2699ZM10.6797 15.14C10.2797 15.3733 9.77734 15.0848 9.77734 14.6217V8.93318C9.77734 8.4701 10.2797 8.18158 10.6797 8.41491L15.5556 11.2592C15.9525 11.4907 15.9525 12.0642 15.5556 12.2957L10.6797 15.14Z" fill="black"/>
</svg>
