<svg width="24" height="24" viewBox="0 0 24 24" fill="none" xmlns="http://www.w3.org/2000/svg">
<path d="M19.3785 3H17.0568C16.3388 3 15.6759 3.38488 15.3199 4.00843L10.2143 12.9517C9.8636 13.566 9.86346 14.3198 10.2139 14.9342L13.0981 19.9909C13.454 20.6148 14.1171 21 14.8354 21H17.1573C17.9248 21 18.4062 20.1712 18.026 19.5045L14.9951 14.1907C14.9075 14.0371 14.9075 13.8487 14.9952 13.6951L20.2469 4.49578C20.6275 3.82913 20.1461 3 19.3785 3ZM8.48242 7.38747C8.12707 6.76165 7.4629 6.375 6.74323 6.375H4.6608C3.89419 6.375 3.41268 7.20212 3.7912 7.86876L5.09188 10.1595C5.18141 10.3171 5.17856 10.5109 5.08443 10.6659L3.14687 13.8559C2.74209 14.5223 3.22184 15.375 4.00156 15.375H6.06342C6.76208 15.375 7.4101 15.0104 7.7728 14.4133L9.5915 11.419C9.96802 10.7991 9.97943 10.0239 9.6213 9.39322L8.48242 7.38747Z" fill="black"/>
</svg>
