<svg width="24" height="24" viewBox="0 0 24 24" fill="none" xmlns="http://www.w3.org/2000/svg">
<path d="M10.5 3C8.70507 3 7.25 4.45508 7.25 6.25V6.75H5.5C4.11929 6.75 3 7.86929 3 9.25V18.25C3 19.6307 4.11929 20.75 5.5 20.75H18.5C19.8807 20.75 21 19.6307 21 18.25V9.25C21 7.86929 19.8807 6.75 18.5 6.75H16.75V6.25C16.75 4.45508 15.2949 3 13.5 3H10.5ZM15.25 6.75H8.75V6.25C8.75 5.2835 9.5335 4.5 10.5 4.5H13.5C14.4665 4.5 15.25 5.2835 15.25 6.25V6.75ZM8 10C8.41421 10 8.75 10.3358 8.75 10.75V16.9722C8.75 17.3864 8.41421 17.7222 8 17.7222C7.58579 17.7222 7.25 17.3864 7.25 16.9722V10.75C7.25 10.3358 7.58579 10 8 10ZM16 10C16.4142 10 16.75 10.3358 16.75 10.75V16.9722C16.75 17.3864 16.4142 17.7222 16 17.7222C15.5858 17.7222 15.25 17.3864 15.25 16.9722V10.75C15.25 10.3358 15.5858 10 16 10Z" fill="black"/>
</svg>
