<svg width="24" height="24" viewBox="0 0 24 24" fill="none" xmlns="http://www.w3.org/2000/svg">
<path d="M6 2C3.79086 2 2 3.79086 2 6V7.25H22V6C22 3.79086 20.2091 2 18 2H6ZM22 8.75H2V18C2 20.2091 3.79086 22 6 22H18C20.2091 22 22 20.2091 22 18V8.75ZM6.5 4.75C6.5 5.16421 6.16421 5.5 5.75 5.5C5.33579 5.5 5 5.16421 5 4.75C5 4.33579 5.33579 4 5.75 4C6.16421 4 6.5 4.33579 6.5 4.75ZM7.75 5.5C7.33579 5.5 7 5.16421 7 4.75C7 4.33579 7.33579 4 7.75 4C8.16421 4 8.5 4.33579 8.5 4.75C8.5 5.16421 8.16421 5.5 7.75 5.5Z" fill="black"/>
</svg>
