<svg width="24" height="24" viewBox="0 0 24 24" fill="none" xmlns="http://www.w3.org/2000/svg">
<path d="M6 2C3.79086 2 2 3.79086 2 6V6.75H22V6C22 3.79086 20.2091 2 18 2H6ZM22 8.25H2V18C2 20.2091 3.79086 22 6 22H18C20.2091 22 22 20.2091 22 18V8.25ZM11.8516 16.7021H15.9997C16.4139 16.7021 16.7497 17.0379 16.7497 17.4521C16.7497 17.8664 16.4139 18.2021 15.9997 18.2021H11.8516C11.4373 18.2021 11.1016 17.8664 11.1016 17.4521C11.1016 17.0379 11.4373 16.7021 11.8516 16.7021ZM7.47977 10.7596C7.77814 10.4722 8.25293 10.4812 8.54024 10.7796L11.5032 13.8565C11.7828 14.1469 11.7828 14.6065 11.5032 14.8969L8.54024 17.9738C8.25293 18.2722 7.77814 18.2811 7.47977 17.9938C7.1814 17.7065 7.17244 17.2317 7.45976 16.9333L9.92172 14.3767L7.45976 11.82C7.17244 11.5217 7.1814 11.0469 7.47977 10.7596ZM6.5 4.75C6.5 5.16421 6.16421 5.5 5.75 5.5C5.33579 5.5 5 5.16421 5 4.75C5 4.33579 5.33579 4 5.75 4C6.16421 4 6.5 4.33579 6.5 4.75ZM7.75 5.5C7.33579 5.5 7 5.16421 7 4.75C7 4.33579 7.33579 4 7.75 4C8.16421 4 8.5 4.33579 8.5 4.75C8.5 5.16421 8.16421 5.5 7.75 5.5Z" fill="black"/>
</svg>
