<svg width="24" height="24" viewBox="0 0 24 24" fill="none" xmlns="http://www.w3.org/2000/svg">
<path d="M2 6V6.75H22V6C22 3.79086 20.2091 2 18 2H6C3.79086 2 2 3.79086 2 6ZM2 8.25V18C2 20.2091 3.79086 22 6 22H18C20.2091 22 22 20.2091 22 18V8.25H2ZM12.786 11.0677C13.1903 11.1577 13.4452 11.5584 13.3552 11.9627L12.1092 17.5627C12.0192 17.967 11.6185 18.2219 11.2142 18.1319C10.8099 18.0419 10.5551 17.6412 10.645 17.2369L11.891 11.6369C11.981 11.2326 12.3817 10.9778 12.786 11.0677ZM15.6299 12.6689L17.0299 14.0689C17.3228 14.3618 17.3228 14.8367 17.0299 15.1296L15.6299 16.5296C15.337 16.8224 14.8622 16.8224 14.5693 16.5296C14.2764 16.2367 14.2764 15.7618 14.5693 15.4689L15.4389 14.5992L14.5693 13.7296C14.2764 13.4367 14.2764 12.9618 14.5693 12.6689C14.8622 12.376 15.337 12.376 15.6299 12.6689ZM9.43033 12.6689C9.72322 12.9618 9.72322 13.4367 9.43033 13.7296L8.56066 14.5992L9.43033 15.4689C9.72322 15.7618 9.72322 16.2367 9.43033 16.5296C9.13744 16.8224 8.66256 16.8224 8.36967 16.5296L6.96967 15.1296C6.67678 14.8367 6.67678 14.3618 6.96967 14.0689L8.36967 12.6689C8.66256 12.376 9.13744 12.376 9.43033 12.6689ZM6.5 5.25C6.5 5.66421 6.16421 6 5.75 6C5.33579 6 5 5.66421 5 5.25C5 4.83579 5.33579 4.5 5.75 4.5C6.16421 4.5 6.5 4.83579 6.5 5.25ZM7.75 6C7.33579 6 7 5.66421 7 5.25C7 4.83579 7.33579 4.5 7.75 4.5C8.16421 4.5 8.5 4.83579 8.5 5.25C8.5 5.66421 8.16421 6 7.75 6Z" fill="black"/>
</svg>
