<svg width="24" height="24" viewBox="0 0 24 24" fill="none" xmlns="http://www.w3.org/2000/svg">
<path d="M6.03645 4.12604C5.6918 4.35581 5.59867 4.82146 5.82843 5.1661L7.46661 7.62336C7.13278 8.08244 6.87058 8.59696 6.69644 9.15052H4.75C4.33579 9.15052 4 9.4863 4 9.90052C4 10.3147 4.33579 10.6505 4.75 10.6505H6.45304C6.45245 10.6832 6.45215 10.716 6.45215 10.7489V12.3029H4.75C4.33579 12.3029 4 12.6386 4 13.0529C4 13.4671 4.33579 13.8029 4.75 13.8029H6.45215V15.4305C6.45215 15.4652 6.45248 15.4998 6.45314 15.5343H4.75C4.33579 15.5343 4 15.8701 4 16.2843C4 16.6985 4.33579 17.0343 4.75 17.0343H6.69816C7.37847 19.1887 9.39293 20.7505 11.7722 20.7505C14.1514 20.7505 16.1659 19.1887 16.8462 17.0343H19.2206C19.6348 17.0343 19.9706 16.6985 19.9706 16.2843C19.9706 15.8701 19.6348 15.5343 19.2206 15.5343H17.0912C17.0919 15.4998 17.0922 15.4652 17.0922 15.4305V13.8029H19.2206C19.6348 13.8029 19.9706 13.4671 19.9706 13.0529C19.9706 12.6386 19.6348 12.3029 19.2206 12.3029H17.0922V10.7489C17.0922 10.7161 17.0919 10.6833 17.0913 10.6506H19.2206C19.6348 10.6506 19.9706 10.3149 19.9706 9.90064C19.9706 9.48642 19.6348 9.15064 19.2206 9.15064H16.848C16.6138 8.40608 16.2202 7.73212 15.7074 7.16872L17.4434 5.51031C17.7429 5.22419 17.7538 4.74944 17.4676 4.44993C17.1815 4.15041 16.7068 4.13956 16.4073 4.42568L14.5431 6.20651C13.736 5.71316 12.7873 5.42883 11.7722 5.42883C10.5552 5.42883 9.43358 5.83749 8.53719 6.52507L7.07651 4.33405C6.84674 3.98941 6.38109 3.89628 6.03645 4.12604ZM9.74561 11.1738C9.74561 10.7596 10.0814 10.4238 10.4956 10.4238H13.0492C13.4634 10.4238 13.7992 10.7596 13.7992 11.1738C13.7992 11.588 13.4634 11.9238 13.0492 11.9238H10.4956C10.0814 11.9238 9.74561 11.588 9.74561 11.1738ZM10.4956 14.2539H13.0492C13.4634 14.2539 13.7992 14.5897 13.7992 15.0039C13.7992 15.4181 13.4634 15.7539 13.0492 15.7539H10.4956C10.0814 15.7539 9.74561 15.4181 9.74561 15.0039C9.74561 14.5897 10.0814 14.2539 10.4956 14.2539Z" fill="black"/>
</svg>
