<svg width="24" height="24" viewBox="0 0 24 24" fill="none" xmlns="http://www.w3.org/2000/svg">
<path d="M18.5602 2.27657C18.4076 1.97125 18.0007 1.90518 17.7594 2.14653L14.75 5.15589V7.5966C14.7397 7.60584 14.7296 7.61542 14.7197 7.62533L10.7497 11.5955C10.4568 11.8884 10.4568 12.3633 10.7497 12.6562C11.0426 12.9491 11.5175 12.949 11.8104 12.6561L15.7803 8.68596C15.7902 8.67614 15.7997 8.66611 15.8088 8.65589H18.25L21.2594 5.64653C21.5007 5.40518 21.4346 4.9983 21.1293 4.84572L19.4163 3.98963L18.5602 2.27657ZM3.5 12.1299C3.5 7.8351 6.98121 4.35389 11.276 4.35389C11.6902 4.35389 12.026 4.0181 12.026 3.60389C12.026 3.18968 11.6902 2.85389 11.276 2.85389C6.15279 2.85389 2 7.00668 2 12.1299C2 17.2532 6.1539 21.4059 11.277 21.4059C16.4002 21.4059 20.553 17.2531 20.553 12.1299C20.553 11.7157 20.2172 11.3799 19.803 11.3799C19.3888 11.3799 19.053 11.7157 19.053 12.1299C19.053 16.4247 15.5718 19.9059 11.277 19.9059C6.9821 19.9059 3.5 16.4246 3.5 12.1299ZM7.28894 12.13C7.28894 9.92817 9.07415 8.14295 11.2759 8.14295C11.6902 8.14295 12.0259 7.80717 12.0259 7.39295C12.0259 6.97874 11.6902 6.64295 11.2759 6.64295C8.24573 6.64295 5.78894 9.09974 5.78894 12.13C5.78894 15.1602 8.24573 17.617 11.2759 17.617C14.3062 17.617 16.7629 15.1602 16.7629 12.13C16.7629 11.7157 16.4272 11.38 16.0129 11.38C15.5987 11.38 15.2629 11.7157 15.2629 12.13C15.2629 14.3317 13.4777 16.117 11.2759 16.117C9.07415 16.117 7.28894 14.3317 7.28894 12.13Z" fill="black"/>
</svg>
