<svg width="24" height="24" viewBox="0 0 24 24" fill="none" xmlns="http://www.w3.org/2000/svg">
<path d="M8.75009 2.75C8.75009 2.33579 8.41431 2 8.00009 2C7.58588 2 7.25009 2.33579 7.25009 2.75V3.75H6.0303C4.35671 3.75 3 5.17215 3 6.92647V8.63086H21V6.92647C21 5.17215 19.6433 3.75 17.9697 3.75H16.7499V2.75C16.7499 2.33579 16.4141 2 15.9999 2C15.5857 2 15.2499 2.33579 15.2499 2.75V3.75H8.75009V2.75ZM21 10.1309H3V18.5735C3 20.3278 4.35671 21.75 6.0303 21.75H17.9697C19.6433 21.75 21 20.3278 21 18.5735V10.1309Z" fill="black"/>
</svg>
