<svg width="24" height="24" viewBox="0 0 24 24" fill="none" xmlns="http://www.w3.org/2000/svg">
<path d="M13.7403 14.8665C14.7186 13.8783 14.7186 12.27 13.7403 11.2818C12.7702 10.3019 11.2038 10.3019 10.2337 11.2818C9.25542 12.27 9.25542 13.8783 10.2337 14.8665C11.2038 15.8464 12.7702 15.8464 13.7403 14.8665Z" fill="black"/>
<path d="M21 16.7866V10.4053C21 8.54134 19.489 7.0303 17.625 7.0303H17L16.1086 5.24491C15.7277 4.48202 14.9482 4 14.0955 4H9.87464C9.01094 4 8.22347 4.49441 7.84816 5.27231L7 7.0303H6.375C4.51104 7.0303 3 8.54134 3 10.4053V16.7866C3 18.6506 4.51104 20.1616 6.375 20.1616H17.625C19.489 20.1616 21 18.6506 21 16.7866ZM14.8062 15.9219C13.2492 17.4946 10.7248 17.4946 9.16777 15.9219C7.61074 14.3491 7.61074 11.7992 9.16777 10.2264C10.7248 8.65369 13.2492 8.65369 14.8062 10.2264C16.3633 11.7992 16.3633 14.3491 14.8062 15.9219Z" fill="black"/>
</svg>
