<svg width="24" height="24" viewBox="0 0 24 24" fill="none" xmlns="http://www.w3.org/2000/svg">
<path d="M4.32279 4.32279C4.04411 4.18996 3.70042 4.23892 3.46967 4.46967C3.17678 4.76256 3.17678 5.23744 3.46967 5.53033L5.1853 7.24596C3.90837 7.72705 3 8.9601 3 10.4053V16.7866C3 18.6506 4.51104 20.1616 6.375 20.1616H17.625C17.7764 20.1616 17.9255 20.1516 18.0717 20.1323L18.4697 20.5303C18.7626 20.8232 19.2374 20.8232 19.5303 20.5303C19.7611 20.2996 19.81 19.9559 19.6772 19.6772C19.6021 19.6414 19.5318 19.5925 19.4697 19.5303L4.46967 4.53033C4.40752 4.46818 4.35856 4.39785 4.32279 4.32279ZM20.5433 18.483C20.8337 17.9846 21 17.405 21 16.7866V10.4053C21 8.54134 19.489 7.0303 17.625 7.0303H17L16.1086 5.24491C15.7277 4.48202 14.9482 4 14.0955 4H9.87464C9.01094 4 8.22347 4.49441 7.84816 5.27231L7.68049 5.61983L11.1886 9.12799C12.4556 8.8677 13.8236 9.23385 14.8062 10.2264C15.7787 11.2088 16.1438 12.5723 15.9015 13.8408L20.5303 18.4697C20.5347 18.4741 20.5391 18.4785 20.5433 18.483ZM14.3524 12.2917C14.2343 11.9221 14.0303 11.5747 13.7403 11.2818C13.4441 10.9826 13.0924 10.7748 12.719 10.6583L14.3524 12.2917ZM9.16777 15.9219C7.78077 14.5208 7.62931 12.3444 8.7134 10.7741L9.80306 11.8637C9.28665 12.8249 9.43021 14.0549 10.2337 14.8665C11.0427 15.6836 12.2663 15.8193 13.213 15.2737L14.2968 16.3575C12.7398 17.4779 10.5645 17.3327 9.16777 15.9219Z" fill="black"/>
</svg>
