<svg width="24" height="24" viewBox="0 0 24 24" fill="none" xmlns="http://www.w3.org/2000/svg">
<path d="M22 11.5455C22 10.9932 21.5523 10.5455 21 10.5455H17.4545L15.8878 6.62861C15.7359 6.24895 15.3682 6 14.9593 6H8.13158C7.72267 6 7.35497 6.24895 7.2031 6.62861L5.63636 10.5455H3C2.44772 10.5455 2 10.9932 2 11.5455V15.5C2 15.7761 2.22386 16 2.5 16H2.6449C3.07509 14.5541 4.41427 13.5 6 13.5C7.58573 13.5 8.92491 14.5541 9.3551 16H14.6449C15.0751 14.5541 16.4143 13.5 18 13.5C19.5857 13.5 20.9249 14.5541 21.3551 16H21.5C21.7761 16 22 15.7761 22 15.5V11.5455ZM18 15C17.2595 15 16.6132 15.4021 16.2675 16C16.0973 16.2942 16 16.6357 16 17C16 18.1048 16.8952 19 18 19C19.1048 19 20 18.1048 20 17C20 16.6357 19.9027 16.2942 19.7325 16C19.3868 15.4021 18.7405 15 18 15ZM4.26745 16C4.09735 16.2942 4 16.6357 4 17C4 18.1048 4.8952 19 6 19C7.1048 19 8 18.1048 8 17C8 16.6357 7.90265 16.2942 7.73255 16C7.3868 15.4021 6.74048 15 6 15C5.25952 15 4.6132 15.4021 4.26745 16ZM11.0905 7.97729C11.5047 7.97729 11.8405 8.31308 11.8405 8.72729V9.79548H13.8178C14.232 9.79548 14.5678 10.1313 14.5678 10.5455C14.5678 10.9597 14.232 11.2955 13.8178 11.2955H11.0905C10.6763 11.2955 10.3405 10.9597 10.3405 10.5455V8.72729C10.3405 8.31308 10.6763 7.97729 11.0905 7.97729Z" fill="black"/>
</svg>
