<svg width="24" height="24" viewBox="0 0 24 24" fill="none" xmlns="http://www.w3.org/2000/svg">
<path d="M6.48697 4C4.6167 4 3.10056 5.51618 3.10062 7.38645V7.38648V7.88645C3.10062 8.38351 3.50356 8.78645 4.00062 8.78645C4.49767 8.78645 4.90062 8.38351 4.90062 7.88645V7.38645H4.00062L4.90062 7.38642C4.90058 6.51027 5.61083 5.8 6.48697 5.8H17.5003C18.6602 5.8 19.6004 6.74024 19.6003 7.90007L19.6001 15.3803C19.6 16.538 18.663 17.4774 17.5053 17.4802L14.9978 17.4865C14.5007 17.4877 14.0988 17.8916 14.1 18.3887C14.1013 18.8857 14.5052 19.2877 15.0023 19.2864L17.5098 19.2802C19.6598 19.2749 21.4 17.5304 21.4001 15.3804L21.4003 7.90013C21.4004 5.74617 19.6543 4 17.5003 4H6.48697ZM3.99998 12.9863C3.50292 12.9863 3.09998 13.3893 3.09998 13.8863C3.09998 14.3834 3.50292 14.7863 3.99998 14.7863C5.18602 14.7863 6.06596 15.1574 6.64744 15.7389C7.22892 16.3203 7.59998 17.2003 7.59998 18.3863C7.59998 18.8834 8.00292 19.2863 8.49998 19.2863C8.99703 19.2863 9.39998 18.8834 9.39998 18.3863C9.39998 16.8154 8.89951 15.4454 7.92023 14.4661C6.94095 13.4868 5.57089 12.9863 3.99998 12.9863ZM3.10001 10.8863C3.10001 11.3834 3.50295 11.7863 4.00001 11.7863C6.1093 11.7863 7.88162 12.4517 9.11642 13.5782C10.3427 14.6969 11.1 16.3246 11.1 18.3863C11.1 18.8834 11.5029 19.2863 12 19.2863C12.4971 19.2863 12.9 18.8834 12.9 18.3863C12.9 15.8534 11.9547 13.7311 10.3296 12.2485C8.71305 10.7737 6.48537 9.98633 4.00001 9.98633C3.50295 9.98633 3.10001 10.3893 3.10001 10.8863ZM4.5 19.3867C5.32843 19.3867 6 18.7151 6 17.8867C6 17.0583 5.32843 16.3867 4.5 16.3867C3.67157 16.3867 3 17.0583 3 17.8867C3 18.7151 3.67157 19.3867 4.5 19.3867Z" fill="black"/>
</svg>
