<svg width="24" height="24" viewBox="0 0 24 24" fill="none" xmlns="http://www.w3.org/2000/svg">
<path d="M18 3H6C4.34315 3 3 4.34315 3 6V15C3 16.6569 4.34315 18 6 18H8.96589C7.59026 17.1092 6.68 15.5609 6.68 13.8C6.68 11.0386 8.91858 8.80005 11.68 8.80005C14.4414 8.80005 16.68 11.0386 16.68 13.8C16.68 15.5609 15.7697 17.1092 14.3941 18H18C19.6569 18 21 16.6569 21 15V6C21 4.34315 19.6569 3 18 3ZM15.3164 13.8C15.3164 11.7917 13.6883 10.1637 11.68 10.1637C9.67169 10.1637 8.04364 11.7917 8.04364 13.8C8.04364 15.1619 8.79224 16.3489 9.90039 16.9719V20.4793C9.90039 20.7569 10.1764 20.9501 10.4373 20.8551L11.4627 20.4816L12.4882 20.8551C12.7491 20.9501 13.0251 20.7569 13.0251 20.4793V17.1795C14.3675 16.6448 15.3164 15.3332 15.3164 13.8ZM10 5.30005H14C14.4142 5.30005 14.75 5.63584 14.75 6.05005C14.75 6.46426 14.4142 6.80005 14 6.80005H10C9.58579 6.80005 9.25 6.46426 9.25 6.05005C9.25 5.63584 9.58579 5.30005 10 5.30005Z" fill="black"/>
</svg>
