<svg width="24" height="24" viewBox="0 0 24 24" fill="none" xmlns="http://www.w3.org/2000/svg">
<path d="M13.9063 2.00534C13.3573 1.94538 12.9082 2.39889 12.9082 2.95117V10.0421C12.9082 10.5944 13.3559 11.0421 13.9082 11.0421H20.9991C21.5514 11.0421 22.0049 10.5929 21.9449 10.0439C21.7361 8.13128 20.9339 6.39695 19.7264 5.02884C18.2675 3.37598 16.217 2.25767 13.9063 2.00534ZM20.1276 13.8587C20.1876 13.3097 19.7341 12.8603 19.1818 12.8603H11.6909C11.3595 12.8603 11.0909 12.5916 11.0909 12.2603V4.76935C11.0909 4.21707 10.6415 3.76358 10.0925 3.82355C5.54147 4.3207 2 8.1769 2 12.8603C2 17.881 6.07014 21.9512 11.0909 21.9512C15.7743 21.9512 19.6305 18.4097 20.1276 13.8587Z" fill="black"/>
</svg>
