<svg width="24" height="24" viewBox="0 0 24 24" fill="none" xmlns="http://www.w3.org/2000/svg">
<path d="M2.75 3C2.33579 3 2 3.33579 2 3.75V17.75C2 19.2688 3.23122 20.5 4.75 20.5H20.75C21.1642 20.5 21.5 20.1642 21.5 19.75C21.5 19.3358 21.1642 19 20.75 19H4.75C4.05964 19 3.5 18.4404 3.5 17.75V3.75C3.5 3.33579 3.16421 3 2.75 3Z" fill="black"/>
<path d="M9.5 11.6591L7.07139 10.8348C6.42287 10.6147 5.75 11.0969 5.75 11.7818V15.25C5.75 16.0784 6.42157 16.75 7.25 16.75H19.25C20.0784 16.75 20.75 16.0784 20.75 15.25V5.416C20.75 4.49208 19.6043 4.06234 18.9967 4.75835L15.75 8.47727L12.7868 7.47158C12.3307 7.31679 11.8291 7.5091 11.5934 7.92911L9.5 11.6591Z" fill="black"/>
</svg>
