<svg width="24" height="24" viewBox="0 0 24 24" fill="none" xmlns="http://www.w3.org/2000/svg">
<path d="M12.3261 2C13.0097 2 13.5638 2.55418 13.5638 3.23779V20.0122H14.8008V9.49186C14.8008 8.80825 15.355 8.25407 16.0386 8.25407H18.4276C19.1112 8.25407 19.6654 8.80825 19.6654 9.49186V20.0122H21.75C22.1642 20.0122 22.5 20.348 22.5 20.7622C22.5 21.1764 22.1642 21.5122 21.75 21.5122H1.75C1.33579 21.5122 1 21.1764 1 20.7622C1 20.348 1.33579 20.0122 1.75 20.0122H2.59668V6.36482C2.59668 5.68121 3.15085 5.12704 3.83446 5.12704H6.22352C6.90713 5.12704 7.46131 5.68121 7.46131 6.36482V20.0122H8.69922V3.23779C8.69922 2.55418 9.25339 2 9.937 2H12.3261Z" fill="black"/>
</svg>
