<svg width="24" height="24" viewBox="0 0 24 24" fill="none" xmlns="http://www.w3.org/2000/svg">
<path d="M3 3C2.44772 3 2 3.44772 2 4V18C2 19.6569 3.34315 21 5 21H21C21.5523 21 22 20.5523 22 20C22 19.4477 21.5523 19 21 19H5C4.44772 19 4 18.5523 4 18V4C4 3.44772 3.55228 3 3 3Z" fill="black"/>
<path d="M20.3071 8.29289C19.9166 7.90237 19.2834 7.90237 18.8929 8.29289L13.3 13.8858L11.3071 11.8929C10.9166 11.5024 10.2834 11.5024 9.89289 11.8929L6.29289 15.4929C5.90237 15.8834 5.90237 16.5166 6.29289 16.9071C6.68342 17.2976 7.31658 17.2976 7.70711 16.9071L10.6 14.0142L12.5929 16.0071C12.9834 16.3976 13.6166 16.3976 14.0071 16.0071L20.3071 9.70711C20.6976 9.31658 20.6976 8.68342 20.3071 8.29289Z" fill="black"/>
<path d="M15 9C15 9.55228 15.4477 10 16 10H18.6V12.6C18.6 13.1523 19.0477 13.6 19.6 13.6C20.1523 13.6 20.6 13.1523 20.6 12.6V9C20.6 8.44772 20.1523 8 19.6 8H16C15.4477 8 15 8.44772 15 9Z" fill="black"/>
</svg>
