<svg width="24" height="24" viewBox="0 0 24 24" fill="none" xmlns="http://www.w3.org/2000/svg">
<path d="M2.75 1C2.33579 1 2 1.33579 2 1.75V21.75C2 22.1642 2.33579 22.5 2.75 22.5C3.16421 22.5 3.5 22.1642 3.5 21.75V1.75C3.5 1.33579 3.16421 1 2.75 1Z" fill="black"/>
<path d="M2.75 14.8008V19.6654H14.0204C14.704 19.6654 15.2581 19.1112 15.2581 18.4276V16.0386C15.2581 15.355 14.704 14.8008 14.0204 14.8008H2.75Z" fill="black"/>
<path d="M2.75 8.69922V13.5638H20.2744C20.958 13.5638 21.5122 13.0097 21.5122 12.3261V9.937C21.5122 9.25339 20.958 8.69922 20.2744 8.69922H2.75Z" fill="black"/>
<path d="M2.75 2.59668V7.46131H17.1474C17.831 7.46131 18.3852 6.90713 18.3852 6.22352V3.83446C18.3852 3.15085 17.831 2.59668 17.1474 2.59668H2.75Z" fill="black"/>
</svg>
