<svg width="24" height="24" viewBox="0 0 24 24" fill="none" xmlns="http://www.w3.org/2000/svg">
<path d="M7.45 3C4.99233 3 3 4.99233 3 7.45V16.45C3 18.9077 4.99233 20.9 7.45 20.9H16.45C18.9077 20.9 20.9 18.9077 20.9 16.45V13.3674C20.9 12.8427 20.4747 12.4174 19.95 12.4174C19.4253 12.4174 19 12.8427 19 13.3674V16.45C19 17.8583 17.8583 19 16.45 19H7.45C6.04167 19 4.9 17.8583 4.9 16.45V7.45C4.9 6.04167 6.04167 4.9 7.45 4.9H11.95C12.4747 4.9 12.9 4.47467 12.9 3.95C12.9 3.42533 12.4747 3 11.95 3H7.45ZM19.6484 7.674C20.0194 7.303 20.0194 6.70149 19.6484 6.33049C19.2774 5.9595 18.6759 5.9595 18.3049 6.33049L12.6078 12.0276C12.1977 12.4377 11.5328 12.4377 11.1227 12.0275L8.98213 9.88635C8.61118 9.5153 8.00968 9.51522 7.63863 9.88617C7.26758 10.2571 7.2675 10.8586 7.63845 11.2297L9.77906 13.3708C10.9311 14.5232 12.7991 14.5233 13.9513 13.3711L19.6484 7.674Z" fill="black"/>
</svg>
