<svg width="24" height="24" viewBox="0 0 24 24" fill="none" xmlns="http://www.w3.org/2000/svg">
<path d="M5 7.7002V19.0002C5 20.1048 5.89543 21.0002 7 21.0002H17.4C18.5046 21.0002 19.4 20.1048 19.4 19.0002V7.7002C19.4 6.69732 18.6619 5.86684 17.6992 5.72243V6.2C17.6992 7.30136 16.7343 8 15.7992 8H8.59922C7.66412 8 6.69922 7.30136 6.69922 6.2V5.72266C5.73735 5.86774 5 6.69786 5 7.7002ZM8.59961 11.3496H15.7996C16.2138 11.3496 16.5496 11.6854 16.5496 12.0996C16.5496 12.5138 16.2138 12.8496 15.7996 12.8496H8.59961C8.1854 12.8496 7.84961 12.5138 7.84961 12.0996C7.84961 11.6854 8.1854 11.3496 8.59961 11.3496ZM8.59961 15.25H15.7996C16.2138 15.25 16.5496 15.5858 16.5496 16C16.5496 16.4142 16.2138 16.75 15.7996 16.75H8.59961C8.1854 16.75 7.84961 16.4142 7.84961 16C7.84961 15.5858 8.1854 15.25 8.59961 15.25Z" fill="black"/>
<path d="M7.69922 5.7002V6.2C7.69922 6.6416 8.10242 7 8.59922 7H15.7992C16.296 7 16.6992 6.6416 16.6992 6.2V5.7002H7.69922Z" fill="black"/>
<path d="M9.20679 4.6H8.59922C8.10242 4.6 7.69922 4.9584 7.69922 5.4V6.2C7.69922 6.6416 8.10242 7 8.59922 7H15.7992C16.296 7 16.6992 6.6416 16.6992 6.2V5.4C16.6992 4.9584 16.296 4.6 15.7992 4.6H15.1916C15.011 4.6 14.8444 4.50257 14.7559 4.34513L14.4969 3.8848C14.1918 3.3424 13.569 3 12.8868 3H11.5116C10.8303 3 10.2066 3.3424 9.90152 3.8848L9.64258 4.34513C9.55402 4.50257 9.38743 4.6 9.20679 4.6Z" fill="black"/>
</svg>
