<svg width="24" height="24" viewBox="0 0 24 24" fill="none" xmlns="http://www.w3.org/2000/svg">
<path d="M2 8V17C2 18.6569 3.34315 20 5 20H19C20.6569 20 22 18.6569 22 17V8C22 6.34315 20.6569 5 19 5H5C3.34315 5 2 6.34315 2 8ZM7.11612 9.80251C7.85223 9.09254 8.75399 8.75 9.76728 8.75C10.6054 8.75 11.359 8.99175 11.9955 9.51488L11.1278 10.7001C10.772 10.4077 10.3349 10.25 9.76728 10.25C9.07813 10.25 8.52514 10.4727 8.0709 10.91C7.63032 11.3418 7.41568 11.8571 7.41568 12.5042C7.41568 13.1503 7.62971 13.6651 8.06901 14.0964C8.52421 14.5275 9.07865 14.75 9.76728 14.75C10.3456 14.75 10.7794 14.591 11.1232 14.3037L12 15.4814C11.3681 16.0095 10.6112 16.25 9.76728 16.25C8.75444 16.25 7.85473 15.9079 7.11993 15.2095L7.11243 15.2023L7.11248 15.2023C6.38012 14.486 6 13.5705 6 12.5042C6 11.4379 6.38012 10.5223 7.11248 9.80604L7.11611 9.8025L7.11612 9.80251ZM15.7673 8.75C16.6054 8.75 17.359 8.99175 17.9955 9.51488L17.1278 10.7001C16.772 10.4077 16.3349 10.25 15.7673 10.25C15.0781 10.25 14.5251 10.4727 14.0709 10.91C13.6303 11.3418 13.4157 11.8571 13.4157 12.5042C13.4157 13.1503 13.6297 13.6651 14.069 14.0965C14.5242 14.5275 15.0787 14.75 15.7673 14.75C16.3456 14.75 16.7794 14.591 17.1232 14.3037L18 15.4814C17.3681 16.0095 16.6112 16.25 15.7673 16.25C14.7544 16.25 13.8547 15.9079 13.1199 15.2095L13.1124 15.2023L13.1125 15.2023C12.3801 14.486 12 13.5705 12 12.5042C12 11.4379 12.3801 10.5223 13.1125 9.80604L13.1161 9.8025L13.1161 9.80251C13.8522 9.09254 14.754 8.75 15.7673 8.75Z" fill="black"/>
</svg>
