<svg width="24" height="24" viewBox="0 0 24 24" fill="none" xmlns="http://www.w3.org/2000/svg">
<path d="M7.1078 8.8646C4.79075 9.18095 3 11.1465 3 13.55C3 16.1729 5.12705 18.3 7.75 18.3H18.2C20.2985 18.3 22 16.5986 22 14.5C22 12.4015 20.2985 10.7 18.2 10.7C18.2 7.5517 15.6483 5 12.5 5C9.99485 5 7.87255 6.61785 7.1078 8.8646ZM15.1345 12.8598C14.8165 13.1778 14.301 13.1778 13.983 12.8598L13.3145 12.1912V14.9758C13.3145 15.4255 12.9499 15.79 12.5002 15.79C12.0504 15.79 11.6859 15.4255 11.6859 14.9758V12.1911L11.0172 12.8598C10.6992 13.1778 10.1837 13.1778 9.86567 12.8598C9.54768 12.5418 9.54768 12.0262 9.86567 11.7082L11.9243 9.64954C12.2423 9.33154 12.7579 9.33154 13.0759 9.64954L15.1345 11.7082C15.4525 12.0262 15.4525 12.5418 15.1345 12.8598Z" fill="black"/>
</svg>
