<svg width="24" height="24" viewBox="0 0 24 24" fill="none" xmlns="http://www.w3.org/2000/svg">
<path d="M4 10.2789C4 7.41658 6.45815 5 9.54545 5C12.2185 5 14.41 6.7476 14.9531 9.09186C15.0132 9.35154 15.1746 9.57645 15.4013 9.71666C15.628 9.85687 15.9013 9.90077 16.1605 9.8386C16.5101 9.75476 16.7206 9.7092 16.9091 9.7092C18.6873 9.7092 20 11.027 20 12.6335C20 13.2957 19.7823 13.8935 19.4121 14.3743C19.0752 14.8119 19.1568 15.4398 19.5944 15.7767C20.032 16.1136 20.6599 16.032 20.9968 15.5944C21.6298 14.7723 22 13.7476 22 12.6335C22 9.84485 19.7127 7.7092 16.9091 7.7092C16.812 7.7092 16.7159 7.71404 16.6218 7.72236C15.5503 4.90991 12.7526 3 9.54545 3C5.43276 3 2 6.23447 2 10.2789C2 12.4738 3.01851 14.4376 4.59841 15.7655C5.02119 16.1209 5.65199 16.0662 6.00734 15.6434C6.36268 15.2206 6.30801 14.5898 5.88523 14.2345C4.72113 13.2561 4 11.8374 4 10.2789Z" fill="black"/>
<path d="M13.1075 12.7645C13.3916 12.2909 13.2381 11.6767 12.7645 11.3925C12.2909 11.1084 11.6767 11.262 11.3925 11.7355L9.14251 15.4855C8.95715 15.7945 8.95229 16.1792 9.1298 16.4927C9.30731 16.8062 9.63973 17 10 17H12.2338L10.8925 19.2355C10.6084 19.7091 10.7619 20.3234 11.2355 20.6075C11.7091 20.8917 12.3233 20.7381 12.6075 20.2645L14.8575 16.5145C15.0429 16.2056 15.0477 15.8208 14.8702 15.5073C14.6927 15.1938 14.3603 15 14 15H11.7662L13.1075 12.7645Z" fill="black"/>
</svg>
