<svg width="24" height="24" viewBox="0 0 24 24" fill="none" xmlns="http://www.w3.org/2000/svg">
<path d="M9.54545 5C12.2185 5 14.41 6.7476 14.9531 9.09186C15.0132 9.35154 15.1746 9.57645 15.4013 9.71666C15.628 9.85687 15.9013 9.90077 16.1605 9.8386C16.5101 9.75476 16.7206 9.7092 16.9091 9.7092C18.6873 9.7092 20 11.027 20 12.6335C20 13.2957 19.7823 13.8935 19.4121 14.3743C19.0752 14.8119 19.1568 15.4398 19.5944 15.7767C20.032 16.1136 20.6599 16.032 20.9968 15.5944C21.6298 14.7723 22 13.7476 22 12.6335C22 9.84485 19.7127 7.7092 16.9091 7.7092C16.812 7.7092 16.7159 7.71404 16.6218 7.72236C15.5503 4.90991 12.7526 3 9.54545 3C5.43276 3 2 6.23447 2 10.2789C2 12.4738 3.01851 14.4376 4.59841 15.7655C5.02119 16.1209 5.65199 16.0662 6.00734 15.6434C6.36268 15.2206 6.30801 14.5898 5.88523 14.2345C4.72113 13.2561 4 11.8374 4 10.2789C4 7.41658 6.45815 5 9.54545 5ZM12.5 14C11.9477 14 11.5 14.4477 11.5 15V16C11.5 16.5523 11.9477 17 12.5 17C13.0523 17 13.5 16.5523 13.5 16V15C13.5 14.4477 13.0523 14 12.5 14ZM9.5 13C9.5 12.4477 9.05228 12 8.5 12C7.94772 12 7.5 12.4477 7.5 13V14C7.5 14.5523 7.94772 15 8.5 15C9.05228 15 9.5 14.5523 9.5 14V13ZM16.5 12C15.9477 12 15.5 12.4477 15.5 13V14C15.5 14.5523 15.9477 15 16.5 15C17.0523 15 17.5 14.5523 17.5 14V13C17.5 12.4477 17.0523 12 16.5 12ZM13.5 19C13.5 18.4477 13.0523 18 12.5 18C11.9477 18 11.5 18.4477 11.5 19V20C11.5 20.5523 11.9477 21 12.5 21C13.0523 21 13.5 20.5523 13.5 20V19ZM8.5 16C7.94772 16 7.5 16.4477 7.5 17V18C7.5 18.5523 7.94772 19 8.5 19C9.05228 19 9.5 18.5523 9.5 18V17C9.5 16.4477 9.05228 16 8.5 16ZM17.5 17C17.5 16.4477 17.0523 16 16.5 16C15.9477 16 15.5 16.4477 15.5 17V18C15.5 18.5523 15.9477 19 16.5 19C17.0523 19 17.5 18.5523 17.5 18V17Z" fill="black"/>
</svg>
