<svg width="24" height="24" viewBox="0 0 24 24" fill="none" xmlns="http://www.w3.org/2000/svg">
<path d="M9.54545 5C12.2185 5 14.41 6.7476 14.9531 9.09186C15.0132 9.35154 15.1746 9.57645 15.4013 9.71666C15.628 9.85687 15.9013 9.90077 16.1605 9.8386C16.5101 9.75476 16.7206 9.7092 16.9091 9.7092C18.6873 9.7092 20 11.027 20 12.6335C20 13.2957 19.7823 13.8935 19.4121 14.3743C19.0752 14.8119 19.1568 15.4398 19.5944 15.7767C20.032 16.1136 20.6599 16.032 20.9968 15.5944C21.6298 14.7723 22 13.7476 22 12.6335C22 9.84485 19.7127 7.7092 16.9091 7.7092C16.812 7.7092 16.7159 7.71404 16.6218 7.72236C15.5503 4.90991 12.7526 3 9.54545 3C5.43276 3 2 6.23447 2 10.2789C2 12.4738 3.01851 14.4376 4.59841 15.7655C5.02119 16.1209 5.65199 16.0662 6.00734 15.6434C6.36268 15.2206 6.30801 14.5898 5.88523 14.2345C4.72113 13.2561 4 11.8374 4 10.2789C4 7.41658 6.45815 5 9.54545 5ZM8.51867 14.6002C9.07096 14.6002 9.51868 14.1525 9.51868 13.6002V13.5343C9.51868 12.982 9.07096 12.5343 8.51868 12.5343C7.96639 12.5343 7.51868 12.982 7.51868 13.5343V13.6002C7.51868 14.1525 7.96639 14.6002 8.51867 14.6002ZM11.5198 15.1082C11.5198 15.6604 11.9675 16.1082 12.5198 16.1082C13.0721 16.1082 13.5198 15.6604 13.5198 15.1082V15.0422C13.5198 14.49 13.0721 14.0422 12.5198 14.0422C11.9675 14.0422 11.5198 14.49 11.5198 15.0422V15.1082ZM16.4955 14.0643C17.0478 14.0643 17.4955 13.6166 17.4955 13.0643V12.9984C17.4955 12.4461 17.0478 11.9984 16.4955 11.9984C15.9433 11.9984 15.4955 12.4461 15.4955 12.9984V13.0643C15.4955 13.6166 15.9433 14.0643 16.4955 14.0643ZM7.51868 17.6002C7.51868 18.1525 7.96639 18.6002 8.51867 18.6002C9.07096 18.6002 9.51868 18.1525 9.51868 17.6002V17.5343C9.51868 16.982 9.07096 16.5343 8.51868 16.5343C7.96639 16.5343 7.51868 16.982 7.51868 17.5343V17.6002ZM12.5198 20.1082C13.0721 20.1082 13.5198 19.6604 13.5198 19.1082V19.0422C13.5198 18.49 13.0721 18.0422 12.5198 18.0422C11.9675 18.0422 11.5198 18.49 11.5198 19.0422V19.1082C11.5198 19.6604 11.9675 20.1082 12.5198 20.1082ZM15.4955 17.0643C15.4955 17.6166 15.9433 18.0643 16.4955 18.0643C17.0478 18.0643 17.4955 17.6166 17.4955 17.0643V16.9984C17.4955 16.4461 17.0478 15.9984 16.4955 15.9984C15.9433 15.9984 15.4955 16.4461 15.4955 16.9984V17.0643Z" fill="black"/>
</svg>
