<svg width="24" height="24" viewBox="0 0 24 24" fill="none" xmlns="http://www.w3.org/2000/svg">
<path d="M2 14C2 16.761 4.239 19 7 19H18C20.209 19 22 17.209 22 15C22 12.791 20.209 11 18 11C18 7.686 15.314 5 12 5C9.363 5 7.129 6.703 6.324 9.068C3.885 9.401 2 11.47 2 14ZM12.928 10.4995V13.2571L13.5089 12.6763C13.8715 12.3136 14.4594 12.3136 14.8221 12.6763C15.1847 13.0389 15.1847 13.6268 14.8221 13.9895L12.6747 16.1369C12.5982 16.2179 12.5072 16.2851 12.406 16.3345C12.0596 16.5037 11.6297 16.4443 11.3419 16.1565L9.17487 13.9895C8.81224 13.6268 8.81224 13.0389 9.17487 12.6763C9.5375 12.3136 10.1254 12.3136 10.4881 12.6763L11.0709 13.2591V10.4995C11.0709 9.98662 11.4866 9.57088 11.9994 9.57088C12.5123 9.57088 12.928 9.98662 12.928 10.4995Z" fill="black"/>
</svg>
