<svg width="24" height="24" viewBox="0 0 24 24" fill="none" xmlns="http://www.w3.org/2000/svg">
<path d="M4.28033 3.21967C3.98744 2.92678 3.51256 2.92678 3.21967 3.21967C2.92678 3.51256 2.92678 3.98744 3.21967 4.28033L5.60235 6.66301C4.45733 7.79514 3.75003 9.33665 3.75003 11.0289C3.75003 14.4561 6.52828 17.2343 9.95543 17.2343H16.1737L19.2197 20.2803C19.5126 20.5732 19.9874 20.5732 20.2803 20.2803C20.5732 19.9874 20.5732 19.5126 20.2803 19.2197L4.28033 3.21967ZM21.75 13.3835C21.75 11.1859 19.95 9.4592 17.6591 9.4592C17.3318 9.4592 17.0046 9.53769 16.6773 9.61618C16.0228 6.79065 13.4046 4.75 10.2955 4.75C9.54751 4.75 8.82779 4.87197 8.15687 5.09621L19.7961 16.7355C20.9628 16.0738 21.75 14.8206 21.75 13.3835Z" fill="black"/>
</svg>
