<svg width="24" height="24" viewBox="0 0 24 24" fill="none" xmlns="http://www.w3.org/2000/svg">
<path d="M7.1078 8.8646C4.79075 9.18095 3 11.1465 3 13.55C3 16.1729 5.12705 18.3 7.75 18.3H18.2C20.2985 18.3 22 16.5985 22 14.5C22 12.4014 20.2985 10.7 18.2 10.7C18.2 7.5517 15.6483 5 12.5 5C9.99485 5 7.87255 6.61785 7.1078 8.8646ZM12.2158 8.6898C12.4696 8.43596 12.8812 8.43596 13.135 8.6898L13.735 9.28979C13.9888 9.54363 13.9888 9.95518 13.735 10.209L13.6634 10.2807C13.6466 10.2995 13.6289 10.3172 13.6102 10.3338L13.135 10.809C12.8812 11.0629 12.4696 11.0629 12.2158 10.809C12.1177 10.7109 12.0575 10.5892 12.0352 10.4622C11.294 10.6655 10.7492 11.3442 10.7492 12.1499C10.7492 12.4112 10.8062 12.6573 10.9079 12.8784C11.058 13.2045 10.9152 13.5905 10.5891 13.7405C10.263 13.8906 9.87698 13.7478 9.72694 13.4217C9.54855 13.034 9.44922 12.6028 9.44922 12.1499C9.44922 10.6267 10.5661 9.36415 12.0255 9.13657C12.0287 8.97453 12.0921 8.81345 12.2158 8.6898ZM11.2626 14.0906L11.3398 14.0134C11.353 13.999 11.3667 13.9852 11.3811 13.9722L11.8626 13.4906C12.1165 13.2367 12.528 13.2367 12.7819 13.4906C12.8802 13.5889 12.9404 13.7108 12.9626 13.8381C13.7037 13.6346 14.2483 12.956 14.2483 12.1504C14.2483 11.8893 14.1912 11.6435 14.0893 11.4228C13.9389 11.0968 14.0812 10.7106 14.4071 10.5602C14.7331 10.4098 15.1192 10.5521 15.2697 10.878C15.4485 11.2657 15.5483 11.6969 15.5483 12.1504C15.5483 13.6736 14.4315 14.9361 12.9721 15.1637C12.9688 15.3255 12.9053 15.4863 12.7819 15.6098C12.528 15.8636 12.1165 15.8636 11.8626 15.6098L11.2626 15.0098C11.0088 14.756 11.0088 14.3444 11.2626 14.0906Z" fill="black"/>
</svg>
