<svg width="24" height="24" viewBox="0 0 24 24" fill="none" xmlns="http://www.w3.org/2000/svg">
<path d="M5.24349 11.6355L7.44012 9.43891C7.79159 9.08744 7.79159 8.51759 7.44012 8.16612C7.08865 7.81465 6.51881 7.81465 6.16734 8.16612L3.2636 11.0699C2.91213 11.4213 2.91213 11.9912 3.2636 12.3426L6.16734 15.2464C6.51881 15.5978 7.08865 15.5978 7.44012 15.2464C7.79159 14.8949 7.79159 14.3251 7.44012 13.9736L5.24349 11.777C5.22474 11.7582 5.2142 11.7328 5.2142 11.7062C5.2142 11.6797 5.22474 11.6543 5.24349 11.6355Z" fill="black"/>
<path d="M16.3599 13.9736C16.0084 14.3251 16.0084 14.8949 16.3599 15.2464C16.7113 15.5978 17.2812 15.5978 17.6327 15.2464L20.5364 12.3426C20.8879 11.9912 20.8879 11.4213 20.5364 11.0699L17.6327 8.16612C17.2812 7.81465 16.7113 7.81465 16.3599 8.16612C16.0084 8.51759 16.0084 9.08744 16.3599 9.43891L18.5565 11.6355C18.5956 11.6746 18.5956 11.7379 18.5565 11.777L16.3599 13.9736Z" fill="black"/>
<path d="M13.3881 5.02168C12.9029 4.91372 12.4221 5.21953 12.3141 5.70472L9.72978 17.3197C9.62182 17.8048 9.92763 18.2857 10.4128 18.3936C10.898 18.5016 11.3788 18.1958 11.4868 17.7106L14.0711 6.09566C14.1791 5.61047 13.8733 5.12963 13.3881 5.02168Z" fill="black"/>
</svg>
