<svg width="24" height="24" viewBox="0 0 24 24" fill="none" xmlns="http://www.w3.org/2000/svg">
<path d="M11 6C11 4.34315 9.65685 3 8 3C6.34315 3 5 4.34315 5 6C5 7.29378 5.81898 8.39627 6.9668 8.81734V16.1827C5.81898 16.6037 5 17.7062 5 19C5 20.6569 6.34315 22 8 22C9.65685 22 11 20.6569 11 19C11 17.6814 10.1493 16.5615 8.9668 16.1592V15.3454C9.37134 15.2316 9.94982 15.1191 10.6138 15.1191L10.6602 15.1191C11.9297 15.1195 14.7104 15.1204 16.4095 12.5062C16.5345 12.5221 16.6618 12.5303 16.791 12.5303C18.4479 12.5303 19.791 11.1871 19.791 9.53027C19.791 7.87342 18.4479 6.53027 16.791 6.53027C15.1342 6.53027 13.791 7.87342 13.791 9.53027C13.791 10.3283 14.1026 11.0536 14.6108 11.591C13.514 13.0882 11.8555 13.1191 10.6138 13.1191C10.0081 13.1191 9.44817 13.1892 8.9668 13.2885V8.84081C10.1493 8.43849 11 7.31859 11 6Z" fill="black"/>
</svg>
