<svg width="24" height="24" viewBox="0 0 24 24" fill="none" xmlns="http://www.w3.org/2000/svg">
<path d="M22 12.4538V11.5462C22 10.7927 21.3856 10.1818 20.6388 10.1818H19.9404C19.4401 10.1818 18.8778 9.80321 18.6835 9.33395L18.611 9.15878C18.4172 8.69051 18.5515 8.01942 18.9004 7.67054L19.3941 7.17683C19.9255 6.64537 19.9202 5.77843 19.3917 5.24992L18.7501 4.60826C18.2173 4.07551 17.3511 4.078 16.8232 4.60592L16.3295 5.09963C15.9758 5.4533 15.3105 5.58326 14.8412 5.38899L14.6661 5.31647C14.1978 5.12261 13.8182 4.55312 13.8182 4.05961V3.36122C13.8182 2.60944 13.2013 2 12.4538 2H11.5462C10.7927 2 10.1818 2.61444 10.1818 3.36122V4.05961C10.1818 4.55989 9.80321 5.1222 9.33395 5.31647L9.15878 5.38899C8.69051 5.58285 8.01942 5.44851 7.67054 5.09963L7.17683 4.60592C6.64537 4.07447 5.77843 4.07976 5.24992 4.60826L4.60826 5.24992C4.07551 5.78267 4.078 6.64891 4.60592 7.17683L5.09963 7.67054C5.4533 8.02421 5.58326 8.68952 5.38899 9.15878L5.31647 9.33395C5.12261 9.80221 4.55312 10.1818 4.05961 10.1818H3.36122C2.60944 10.1818 2 10.7987 2 11.5462V12.4538C2 13.2073 2.61444 13.8182 3.36122 13.8182H4.05961C4.55989 13.8182 5.1222 14.1968 5.31647 14.6661L5.38899 14.8412C5.58285 15.3095 5.44851 15.9806 5.09963 16.3295L4.60592 16.8232C4.07447 17.3546 4.07976 18.2216 4.60826 18.7501L5.24992 19.3917C5.78267 19.9245 6.64891 19.922 7.17683 19.3941L7.67054 18.9004C8.02421 18.5467 8.68952 18.4167 9.15878 18.611L9.33395 18.6835C9.80221 18.8774 10.1818 19.4469 10.1818 19.9404V20.6388C10.1818 21.3906 10.7987 22 11.5462 22H12.4538C13.2073 22 13.8182 21.3856 13.8182 20.6388V19.9404C13.8182 19.4401 14.1968 18.8778 14.6661 18.6835L14.8412 18.611C15.3095 18.4172 15.9806 18.5515 16.3295 18.9004L16.8232 19.3941C17.3546 19.9255 18.2216 19.9202 18.7501 19.3917L19.3917 18.7501C19.9245 18.2173 19.922 17.3511 19.3941 16.8232L18.9004 16.3295C18.5467 15.9758 18.4167 15.3105 18.611 14.8412L18.6835 14.6661C18.8774 14.1978 19.4469 13.8182 19.9404 13.8182H20.6388C21.3906 13.8182 22 13.2013 22 12.4538ZM14.728 11.9997C14.728 13.5061 13.5071 14.727 12.0007 14.727C10.4943 14.727 9.27344 13.5061 9.27344 11.9997C9.27344 10.4934 10.4943 9.27246 12.0007 9.27246C13.5071 9.27246 14.728 10.4934 14.728 11.9997Z" fill="black"/>
</svg>
