<svg width="24" height="24" viewBox="0 0 24 24" fill="none" xmlns="http://www.w3.org/2000/svg">
<path d="M18 15.363V14.637C18 14.0341 17.5084 13.5455 16.911 13.5455H16.3523C15.9521 13.5455 15.5022 13.2426 15.3468 12.8672L15.2888 12.727C15.1337 12.3524 15.2412 11.8155 15.5203 11.5364L15.9153 11.1415C16.3404 10.7163 16.3362 10.0227 15.9134 9.59994L15.4001 9.08661C14.9739 8.66041 14.2809 8.6624 13.8585 9.08474L13.4636 9.4797C13.1806 9.76264 12.6484 9.86661 12.273 9.71119L12.1328 9.65317C11.7582 9.49809 11.4545 9.0425 11.4545 8.64769V8.08897C11.4545 7.48755 10.9611 7 10.363 7H9.63697C9.03414 7 8.54545 7.49156 8.54545 8.08897V8.64769C8.54545 9.04791 8.24257 9.49776 7.86716 9.65317L7.72702 9.71119C7.35241 9.86628 6.81554 9.75881 6.53643 9.4797L6.14146 9.08474C5.7163 8.65957 5.02274 8.66381 4.59994 9.08661L4.08661 9.59994C3.66041 10.0261 3.6624 10.7191 4.08474 11.1415L4.4797 11.5364C4.76264 11.8194 4.86661 12.3516 4.71119 12.727L4.65317 12.8672C4.49809 13.2418 4.0425 13.5455 3.64769 13.5455H3.08897C2.48755 13.5455 2 14.0389 2 14.637V15.363C2 15.9659 2.49156 16.4545 3.08897 16.4545H3.64769C4.04791 16.4545 4.49776 16.7574 4.65317 17.1328L4.71119 17.273C4.86628 17.6476 4.75881 18.1845 4.4797 18.4636L4.08474 18.8585C3.65957 19.2837 3.6638 19.9773 4.08661 20.4001L4.59994 20.9134C5.02613 21.3396 5.71913 21.3376 6.14146 20.9153L6.53643 20.5203C6.81937 20.2374 7.35161 20.1334 7.72702 20.2888L7.86716 20.3468C8.24177 20.5019 8.54545 20.9575 8.54545 21.3523V21.911C8.54545 22.5124 9.03894 23 9.63697 23H10.363C10.9659 23 11.4545 22.5084 11.4545 21.911V21.3523C11.4545 20.9521 11.7574 20.5022 12.1328 20.3468L12.273 20.2888C12.6476 20.1337 13.1845 20.2412 13.4636 20.5203L13.8585 20.9153C14.2837 21.3404 14.9773 21.3362 15.4001 20.9134L15.9134 20.4001C16.3396 19.9739 16.3376 19.2809 15.9153 18.8585L15.5203 18.4636C15.2374 18.1806 15.1334 17.6484 15.2888 17.273L15.3468 17.1328C15.5019 16.7582 15.9575 16.4545 16.3523 16.4545H16.911C17.5124 16.4545 18 15.9611 18 15.363ZM10.0026 14.01C9.45481 14.01 9.01094 14.4539 9.01094 15.0017C9.01094 15.5495 9.45481 15.9934 10.0026 15.9934C10.5504 15.9934 10.9943 15.5495 10.9943 15.0017C10.9943 14.4539 10.5504 14.01 10.0026 14.01ZM10.0026 12.71C11.2684 12.71 12.2943 13.7359 12.2943 15.0017C12.2943 16.2675 11.2684 17.2934 10.0026 17.2934C8.73684 17.2934 7.71094 16.2675 7.71094 15.0017C7.71094 13.7359 8.73684 12.71 10.0026 12.71Z" fill="black"/>
<path d="M18.5605 2C18.1463 2 17.8105 2.33579 17.8105 2.75V3.2613C17.373 3.37334 16.9803 3.59702 16.6645 3.90008L16.2456 3.65705C15.8873 3.4492 15.4284 3.57115 15.2205 3.92943C15.0127 4.28772 15.1346 4.74667 15.4929 4.95452L15.9294 5.20777C15.89 5.38735 15.8691 5.57391 15.8691 5.76529C15.8691 6.01669 15.9051 6.25977 15.9721 6.48965L15.4929 6.76762C15.1346 6.97547 15.0127 7.43442 15.2205 7.79271C15.4284 8.151 15.8873 8.27294 16.2456 8.06509L16.7942 7.74684C17.0853 7.99094 17.431 8.17209 17.8105 8.26927V8.97048C17.8105 9.3847 18.1463 9.72048 18.5605 9.72048C18.9748 9.72048 19.3105 9.3847 19.3105 8.97048V8.20482C19.6407 8.08907 19.9401 7.90826 20.1934 7.67773L20.8783 8.06799C21.2381 8.27306 21.6961 8.14757 21.9012 7.78769C22.1063 7.4278 21.9808 6.96981 21.6209 6.76473L20.9626 6.38962C21.0121 6.18972 21.0384 5.9806 21.0384 5.76529C21.0384 5.61027 21.0248 5.45847 20.9987 5.31101L21.6209 4.95644C21.9808 4.75137 22.1063 4.29337 21.9012 3.93349C21.6961 3.57361 21.2381 3.44811 20.8783 3.65319L20.317 3.97304C20.0397 3.68483 19.6961 3.46093 19.3105 3.32575V2.75C19.3105 2.33579 18.9748 2 18.5605 2ZM18.4538 4.68066C19.054 4.68066 19.5384 5.16501 19.5384 5.76529C19.5384 6.36556 19.054 6.84991 18.4538 6.84991C17.8544 6.84991 17.3691 6.36401 17.3691 5.76529C17.3691 5.16656 17.8544 4.68066 18.4538 4.68066Z" fill="black"/>
</svg>
