<svg width="24" height="24" viewBox="0 0 24 24" fill="none" xmlns="http://www.w3.org/2000/svg">
<path d="M15.1863 12.0885C16.9392 12.0431 18.4899 11.7704 19.6117 11.3698C20.2306 11.1488 20.6808 10.9023 20.9627 10.6643C21.2479 10.4235 21.2855 10.2604 21.2855 10.1904H21.3333V8.33517C20.9686 8.55326 20.5479 8.74289 20.0922 8.90563C18.7447 9.38684 16.9524 9.68191 14.9952 9.71173C13.7786 9.13486 11.8446 8.76196 9.66667 8.76196C9.40848 8.76196 9.15371 8.7672 8.90316 8.7774C8.57667 8.64553 8.27268 8.49842 8 8.33539V8.83696C5.12467 9.10121 3.00007 10.0332 3 11.1429H3.04743C3.04743 11.2128 3.08511 11.3759 3.37027 11.6167C3.65214 11.8547 4.10237 12.1012 4.72125 12.3222C5.95279 12.762 7.70112 13.0476 9.66648 13.0476C11.6318 13.0476 13.3802 12.762 14.6117 12.3222C14.8229 12.2468 15.0144 12.1685 15.1863 12.0885ZM21.2855 6.38089H21.3333C21.3332 5.06568 18.3485 4 14.6667 4C10.9848 4 8.00009 5.06568 8 6.38089H8.04743C8.04743 6.45083 8.08511 6.61393 8.37027 6.85473C8.65214 7.09275 9.10237 7.33926 9.72125 7.56027C10.9528 8.00008 12.7011 8.28566 14.6665 8.28566C16.6318 8.28566 18.3802 8.00008 19.6117 7.56027C20.2306 7.33926 20.6808 7.09275 20.9627 6.85473C21.2479 6.61393 21.2855 6.45083 21.2855 6.38089ZM15.1871 15.8976C18.6258 15.8028 21.3333 14.7765 21.3333 13.5238V12.1447C20.9686 12.3628 20.5479 12.5524 20.0922 12.7152C19.0587 13.0842 17.7637 13.3438 16.3333 13.4582V13.0971C15.9686 13.3152 15.5479 13.5049 15.0922 13.6676C13.6696 14.1756 11.7512 14.4762 9.66648 14.4762C7.58175 14.4762 5.66341 14.1756 4.2408 13.6676C3.78524 13.5049 3.36464 13.3154 3 13.0974V14.9524H3.04743C3.04743 15.0223 3.08511 15.1854 3.37027 15.4262C3.65214 15.6642 4.10237 15.9108 4.72125 16.1318C5.95279 16.5716 7.70112 16.8571 9.66648 16.8571C11.6318 16.8571 13.3802 16.5716 14.6117 16.1318C14.8232 16.0562 15.015 15.9777 15.1871 15.8976ZM9.66667 20.6667C13.3486 20.6667 16.3333 19.601 16.3333 18.2858V16.9067C15.9686 17.1248 15.5479 17.3144 15.0922 17.4771C13.6696 17.9852 11.7512 18.2857 9.66648 18.2857C7.58175 18.2857 5.66341 17.9852 4.2408 17.4771C3.78524 17.3144 3.36464 17.1249 3 16.9069V18.2858C3 19.601 5.98476 20.6667 9.66667 20.6667Z" fill="black"/>
</svg>
