<svg width="24" height="24" viewBox="0 0 24 24" fill="none" xmlns="http://www.w3.org/2000/svg">
<path d="M3.04072 9.51959C2.68771 12.3068 4.67364 14.7072 7.3036 15.0328C7.3956 15.0442 7.46602 15.1208 7.46602 15.2135V16.3309C7.46602 16.7981 8.00496 17.0593 8.37168 16.7698L10.0633 15.4347C10.3606 15.1999 10.7284 15.0723 11.1072 15.0723H12.6184C15.3079 15.0723 17.6544 13.0001 17.7347 10.3113C17.8182 7.52923 15.5879 5 12.8247 5H8.09808C5.59601 5 3.3543 7.03798 3.04072 9.51959ZM18.863 10.8154C18.8785 12.5049 18.4839 13.7604 17.6791 14.5821C17.1545 15.1177 16.2096 15.9671 14.6519 16.1981C13.6134 16.3521 12.6377 16.3867 11.7246 16.3019C12.0466 16.7587 12.3967 17.0976 12.7748 17.3188C13.3421 17.6505 14.1832 17.784 14.4819 17.8161C14.7805 17.8482 15.0859 17.9198 15.3237 18.1096L17.0531 19.4908L17.0964 19.5178C17.187 19.5609 17.2985 19.5377 17.3638 19.456C17.3951 19.4168 17.4121 19.3682 17.4121 19.318V17.9292L17.4186 17.8867C17.4353 17.8328 17.483 17.7915 17.5427 17.784C19.656 17.5193 21.2519 15.5677 20.9682 13.3016C20.9 12.7554 20.6209 12.1756 20.1338 11.6535C19.809 11.3055 19.3854 11.0261 18.863 10.8154ZM7.91249 10.9783C7.46031 10.9783 7.09375 10.6117 7.09375 10.1596C7.09375 9.70738 7.46031 9.34082 7.91249 9.34082C8.36467 9.34082 8.73123 9.70738 8.73123 10.1596C8.73123 10.6117 8.36467 10.9783 7.91249 10.9783ZM10.3676 10.9783C9.91539 10.9783 9.54883 10.6117 9.54883 10.1596C9.54883 9.70738 9.91539 9.34082 10.3676 9.34082C10.8197 9.34082 11.1863 9.70738 11.1863 10.1596C11.1863 10.6117 10.8197 10.9783 10.3676 10.9783ZM13.6433 10.1596C13.6433 10.6117 13.2768 10.9783 12.8246 10.9783C12.3724 10.9783 12.0059 10.6117 12.0059 10.1596C12.0059 9.70738 12.3724 9.34082 12.8246 9.34082C13.2768 9.34082 13.6433 9.70738 13.6433 10.1596Z" fill="black"/>
</svg>
