<svg width="24" height="24" viewBox="0 0 24 24" fill="none" xmlns="http://www.w3.org/2000/svg">
<path d="M11.1 20.49C11.55 21.17 12.45 21.17 12.9 20.49L14.812 17.6H17C19.2091 17.6 21 15.8091 21 13.6V8C21 5.79086 19.2091 4 17 4H7C4.79086 4 3 5.79086 3 8V13.6C3 15.8091 4.79086 17.6 7 17.6H9.188L11.1 20.49ZM13.9477 7.75948L15.0949 11.1476H16C16.4142 11.1476 16.75 11.4833 16.75 11.8976C16.75 12.3118 16.4142 12.6476 16 12.6476H14.796C14.3316 12.6476 13.9189 12.3515 13.7699 11.9117L13.3837 10.771L12.5318 14.5644C12.4574 14.8956 12.1698 15.1355 11.8306 15.1494C11.4914 15.1632 11.1852 14.9475 11.084 14.6234L10.2914 12.0833C10.1018 12.4307 9.73727 12.6476 9.34051 12.6476H8C7.58579 12.6476 7.25 12.3118 7.25 11.8976C7.25 11.4833 7.58579 11.1476 8 11.1476H9.08872L9.80464 9.78458C9.94566 9.51611 10.2345 9.35898 10.5365 9.38642C10.8385 9.41385 11.0942 9.62045 11.1846 9.90993L11.6818 11.5035L12.5055 7.83605C12.5791 7.50808 12.8621 7.26878 13.1978 7.25105C13.5335 7.23332 13.8399 7.4411 13.9477 7.75948ZM13.2373 8.00001L12.5055 7.83605C12.5055 7.83604 12.5056 7.83566 13.2373 8.00001Z" fill="black"/>
</svg>
