<svg width="24" height="24" viewBox="0 0 24 24" fill="none" xmlns="http://www.w3.org/2000/svg">
<path d="M6 7C5.44757 7 5 6.55243 5 6C5 5.44757 5.44757 5 6 5C6.55243 5 7 5.44757 7 6V7H6ZM6 9H7V15H6C4.343 15 3 16.343 3 18C3 19.657 4.343 21 6 21C7.657 21 9 19.657 9 18V17H15V18C15 19.657 16.343 21 18 21C19.657 21 21 19.657 21 18C21 16.343 19.657 15 18 15H17V9H18C19.657 9 21 7.657 21 6C21 4.343 19.657 3 18 3C16.343 3 15 4.343 15 6V7H9V6C9 4.343 7.657 3 6 3C4.343 3 3 4.343 3 6C3 7.657 4.343 9 6 9ZM15 9V15H9V9H15ZM17 7V6C17 5.44757 17.4476 5 18 5C18.5524 5 19 5.44757 19 6C19 6.55243 18.5524 7 18 7H17ZM17 18V17H18C18.5524 17 19 17.4476 19 18C19 18.5524 18.5524 19 18 19C17.4476 19 17 18.5524 17 18ZM7 17V18C7 18.5524 6.55243 19 6 19C5.44757 19 5 18.5524 5 18C5 17.4476 5.44757 17 6 17H7Z" fill="black"/>
</svg>
