<svg width="24" height="24" viewBox="0 0 24 24" fill="none" xmlns="http://www.w3.org/2000/svg">
<path d="M4.248 3.18917C3.95347 2.92716 3.50202 2.93732 3.21967 3.21967C2.92678 3.51256 2.92678 3.98744 3.21967 4.28033L5.07967 6.14033C4.39289 6.90743 3.92223 7.87017 3.79072 8.91094C3.43771 11.6982 5.42364 14.0986 8.0536 14.4242C8.1456 14.4355 8.21602 14.5122 8.21602 14.6049V15.7223C8.21602 16.1895 8.75496 16.4507 9.12167 16.1612L10.8133 14.826C11.1106 14.5913 11.4784 14.4636 11.8572 14.4636H13.3684L13.4029 14.4635L14.623 15.6837C13.872 15.7533 13.1558 15.7565 12.4746 15.6933C12.7966 16.15 13.1467 16.489 13.5248 16.7101C14.0921 17.0419 14.9332 17.1754 15.2319 17.2075C15.5305 17.2396 15.8359 17.3111 16.0737 17.501L17.8031 18.8821L17.8464 18.9092L17.8504 18.911L20.1608 21.2215C20.4537 21.5144 20.9286 21.5144 21.2215 21.2215C21.5039 20.9392 21.514 20.4877 21.252 20.1932C21.241 20.1834 21.2302 20.1732 21.2197 20.1627L4.27849 3.22149C4.26795 3.21095 4.25778 3.20017 4.248 3.18917ZM19.8228 16.6445C21.1133 15.8663 21.9276 14.3653 21.7182 12.693C21.65 12.1468 21.3709 11.567 20.8838 11.0449C20.559 10.6968 20.1354 10.4175 19.613 10.2068C19.6285 11.8963 19.2339 13.1518 18.4291 13.9734C18.2543 14.1519 18.0327 14.3653 17.7574 14.579L19.8228 16.6445ZM16.5594 13.3811C17.6858 12.5177 18.4398 11.2066 18.4847 9.70267C18.5682 6.92058 16.3379 4.39136 13.5747 4.39136H8.84808C8.46055 4.39136 8.07927 4.44025 7.71042 4.5321L16.5594 13.3811Z" fill="black"/>
</svg>
