<svg width="24" height="24" viewBox="0 0 24 24" fill="none" xmlns="http://www.w3.org/2000/svg">
<path d="M6.55397 5.80953C6.55106 5.81086 6.54814 5.8122 6.54523 5.81353L5.00024 4.22679C4.71128 3.93002 4.23645 3.92368 3.93968 4.21265C3.64291 4.50161 3.63658 4.97644 3.92554 5.27321L5.23526 6.61833C4.06799 7.54809 3.24688 8.88464 3.04974 10.4448C2.60974 13.9188 5.14473 16.9008 8.45473 17.1998V19.7528C8.45473 20.1988 8.99173 20.4228 9.30674 20.1078L10.3154 19.0989C10.9929 18.4212 11.6649 17.749 12.1877 17.2268H14.7477C15.0079 17.2268 15.2654 17.2109 15.5191 17.1801L17.5571 19.2732C17.8461 19.57 18.3209 19.5763 18.6177 19.2874C18.9145 18.9984 18.9208 18.5236 18.6318 18.2268L17.1874 16.7433C17.1904 16.7421 17.1934 16.7408 17.1964 16.7396L6.55397 5.80953ZM18.5481 15.9776C19.9776 14.9247 20.9406 13.2916 20.9967 11.4118C21.0987 8.01381 18.3747 5.22681 14.9997 5.22681H9.22674C8.86774 5.22681 8.51313 5.25699 8.16621 5.31517L18.5481 15.9776Z" fill="black"/>
</svg>
