<svg width="24" height="24" viewBox="0 0 24 24" fill="none" xmlns="http://www.w3.org/2000/svg">
<path d="M4.28033 3.21967C3.98744 2.92678 3.51256 2.92678 3.21967 3.21967C2.92678 3.51256 2.92678 3.98744 3.21967 4.28033L4.95306 6.01372C4.8216 6.38172 4.75 6.77818 4.75 7.19136V13.4559C4.75 15.3889 6.317 16.9559 8.25 16.9559H8.52778V19.5232C8.52778 20.3766 9.52785 20.8378 10.1769 20.2839L13.7959 17.1953C13.9769 17.0408 14.2071 16.9559 14.4451 16.9559H15.8952L20.1608 21.2215C20.4537 21.5144 20.9286 21.5144 21.2215 21.2215C21.5144 20.9286 21.5144 20.4537 21.2215 20.1608L4.28033 3.21967ZM21.75 13.4559V7.19136C21.75 5.25836 20.183 3.69136 18.25 3.69136H8.25C7.83687 3.69136 7.44046 3.76293 7.0725 3.89436L19.7819 16.6038C20.9471 16.0356 21.75 14.8395 21.75 13.4559Z" fill="black"/>
</svg>
