<svg width="24" height="24" viewBox="0 0 24 24" fill="none" xmlns="http://www.w3.org/2000/svg">
<path d="M6.41418 7.41418C7.19527 6.63308 7.19527 5.36692 6.41418 4.58582C5.63408 3.80473 4.36692 3.80473 3.58582 4.58582C2.80473 5.36692 2.80473 6.63308 3.58582 7.41418C4.36692 8.19528 5.63308 8.19528 6.41418 7.41418ZM3.04974 9.218C2.60974 12.692 5.14473 15.674 8.45473 15.973V18.526C8.45473 18.972 8.99173 19.196 9.30674 18.881L10.3154 17.8721C10.9929 17.1944 11.6649 16.5222 12.1877 16H14.7477C18.0327 16 20.8987 13.469 20.9967 10.185C21.0987 6.787 18.3747 4 14.9997 4H9.22674C8.79539 4 8.37038 4.04357 7.95743 4.12694C8.81635 5.48018 8.65548 7.29414 7.47481 8.47481C6.28414 9.66548 4.44941 9.819 3.09265 8.93539C3.07607 9.02874 3.06175 9.12295 3.04974 9.218Z" fill="black"/>
</svg>
