<svg width="24" height="24" viewBox="0 0 24 24" fill="none" xmlns="http://www.w3.org/2000/svg">
<path d="M3.04974 9.218C2.60974 12.692 5.14473 15.674 8.45473 15.973V18.526C8.45473 18.972 8.99173 19.196 9.30674 18.881L10.3154 17.8721C10.9929 17.1944 11.6649 16.5222 12.1877 16H14.7477C18.0327 16 20.8987 13.469 20.9967 10.185C21.0987 6.787 18.3747 4 14.9997 4H9.22674C6.17074 4 3.43274 6.187 3.04974 9.218ZM12.7079 10.7064C12.3164 11.0979 11.6851 11.0979 11.2936 10.7064C10.9021 10.3149 10.9021 9.68365 11.2936 9.29214C11.6851 8.90063 12.3164 8.90462 12.7079 9.29214C13.0994 9.68365 13.0994 10.3149 12.7079 10.7064ZM16.7079 9.29214C17.0994 9.68365 17.0994 10.3149 16.7079 10.7064C16.3164 11.0979 15.6851 11.0979 15.2936 10.7064C14.9021 10.3149 14.9021 9.68365 15.2936 9.29214C15.6851 8.90063 16.3164 8.90462 16.7079 9.29214ZM8.70786 10.7064C8.31635 11.0979 7.68514 11.0979 7.29363 10.7064C6.90212 10.3149 6.90212 9.68365 7.29363 9.29214C7.68514 8.90063 8.31635 8.90462 8.70786 9.29214C9.09937 9.68365 9.09937 10.3149 8.70786 10.7064Z" fill="black"/>
</svg>
