<svg width="24" height="24" viewBox="0 0 24 24" fill="none" xmlns="http://www.w3.org/2000/svg">
<path d="M6.48718 15.17V17.3551C6.48718 18.2071 7.48439 18.6688 8.13407 18.1177L11.3291 15.4074C11.5098 15.2542 11.739 15.17 11.976 15.17H15.6923C17.3492 15.17 18.6923 13.8269 18.6923 12.17V6C18.6923 4.34315 17.3492 3 15.6923 3H6C4.34315 3 3 4.34314 3 6V12.17C3 13.8269 4.34314 15.17 6 15.17H6.48718ZM6.40381 9.42236C6.40381 9.00815 6.73959 8.67236 7.15381 8.67236H7.24612C7.66033 8.67236 7.99612 9.00815 7.99612 9.42236C7.99612 9.83658 7.66033 10.1724 7.24612 10.1724H7.15381C6.73959 10.1724 6.40381 9.83658 6.40381 9.42236ZM10.8462 8.67236H10.9385C11.3527 8.67236 11.6885 9.00815 11.6885 9.42236C11.6885 9.83658 11.3527 10.1724 10.9385 10.1724H10.8462C10.432 10.1724 10.0962 9.83658 10.0962 9.42236C10.0962 9.00815 10.432 8.67236 10.8462 8.67236ZM13.7886 9.42236C13.7886 9.00815 14.1244 8.67236 14.5386 8.67236H14.6309C15.0451 8.67236 15.3809 9.00815 15.3809 9.42236C15.3809 9.83658 15.0451 10.1724 14.6309 10.1724H14.5386C14.1244 10.1724 13.7886 9.83658 13.7886 9.42236ZM20.25 9.8811V13.3237C20.25 15.1186 18.7949 16.5737 17 16.5737C16.5858 16.5737 16.25 16.9095 16.25 17.3237V18.7139L15.2008 17.287C14.871 16.8385 14.3476 16.5737 13.7909 16.5737H12.2308C11.8166 16.5737 11.4808 16.9095 11.4808 17.3237C11.4808 17.7379 11.8166 18.0737 12.2308 18.0737H13.7909C13.8704 18.0737 13.9452 18.1115 13.9923 18.1756L15.4929 20.2164C16.2081 21.1891 17.75 20.6832 17.75 19.4759V18.0148C20.017 17.6552 21.75 15.6918 21.75 13.3237V9.8811C21.75 9.46689 21.4142 9.1311 21 9.1311C20.5858 9.1311 20.25 9.46689 20.25 9.8811Z" fill="black"/>
</svg>
