<svg width="24" height="24" viewBox="0 0 24 24" fill="none" xmlns="http://www.w3.org/2000/svg">
<path d="M3.28033 3.21967C2.98744 2.92678 2.51256 2.92678 2.21967 3.21967C1.92678 3.51256 1.92678 3.98744 2.21967 4.28033L3.15829 5.21895C2.5901 5.92102 2.25 6.81365 2.25 7.78534V12.9722C2.25 15.1233 3.91677 16.887 6.03501 17.0535V19.0796C6.03501 19.3635 6.20584 19.6197 6.46862 19.73C6.7314 19.8403 7.03501 19.7833 7.23924 19.5851L9.53249 17.3606C9.35498 16.8942 9.25781 16.3886 9.25781 15.8603V12.0203C9.25781 11.7986 9.27492 11.581 9.30788 11.3685L10.6755 12.7361V15.8607C10.6755 17.4201 11.9456 18.6842 13.5124 18.6842H16.2286C16.3809 18.6842 16.5294 18.7312 16.6539 18.8186L18.1933 20.2539L19.1608 21.2215C19.4537 21.5144 19.9286 21.5144 20.2215 21.2215C20.5144 20.9286 20.5144 20.4537 20.2215 20.1608L3.28033 3.21967ZM11.8853 9.70725L20.6028 18.4247C21.5753 17.9769 22.25 16.9972 22.25 15.8607V12.0206C22.25 10.4612 20.9799 9.19702 19.4131 9.19702H13.5124C12.907 9.19702 12.346 9.38572 11.8853 9.70725ZM5.89546 3.71737L10.875 8.69688C11.6002 8.12583 12.5167 7.78491 13.5132 7.78491H18.8083C18.808 5.52396 16.9664 3.69116 14.6948 3.69116H6.3635C6.20524 3.69116 6.04907 3.70006 5.89546 3.71737Z" fill="black"/>
</svg>
