<svg width="24" height="24" viewBox="0 0 24 24" fill="none" xmlns="http://www.w3.org/2000/svg">
<path d="M9.56662 9.06662V3.501C9.56662 3.05555 9.02805 2.83247 8.71307 3.14745L6.4601 5.40042L4.64166 3.58197C4.34877 3.28908 3.87389 3.28908 3.581 3.58197C3.2881 3.87487 3.2881 4.34974 3.581 4.64263L5.39944 6.46108L3.14745 8.71307C2.83247 9.02805 3.05555 9.56662 3.501 9.56662H9.06662C9.34276 9.56662 9.56662 9.34276 9.56662 9.06662ZM12.2937 9.56689C10.7873 9.56689 9.56641 10.7878 9.56641 12.2942C9.56641 13.8005 10.7873 15.0214 12.2937 15.0214C13.8 15.0214 15.021 13.8005 15.021 12.2942C15.021 10.7878 13.8 9.56689 12.2937 9.56689ZM21.0049 4.64263C21.2978 4.34974 21.2978 3.87487 21.0049 3.58197C20.712 3.28908 20.2371 3.28908 19.9442 3.58197L18.1268 5.3994L15.8748 3.14745C15.5598 2.83247 15.0213 3.05555 15.0213 3.501V9.06662C15.0213 9.34276 15.2451 9.56662 15.5213 9.56662H21.0869C21.5323 9.56662 21.7554 9.02805 21.4404 8.71307L19.1874 6.46006L21.0049 4.64263ZM3.14745 15.8747L5.39946 18.1267L3.581 19.9452C3.2881 20.2381 3.2881 20.7129 3.581 21.0058C3.87389 21.2987 4.34877 21.2987 4.64166 21.0058L6.46012 19.1874L8.71307 21.4403C9.02805 21.7553 9.56662 21.5322 9.56662 21.0868V15.5211C9.56662 15.245 9.34276 15.0211 9.06662 15.0211H3.501C3.05555 15.0211 2.83247 15.5597 3.14745 15.8747ZM18.1268 19.1884L19.9442 21.0058C20.2371 21.2987 20.712 21.2987 21.0049 21.0058C21.2978 20.7129 21.2978 20.2381 21.0049 19.9452L19.1874 18.1277L21.4404 15.8747C21.7554 15.5597 21.5323 15.0211 21.0869 15.0211H15.5213C15.2451 15.0211 15.0213 15.245 15.0213 15.5211V21.0868C15.0213 21.5322 15.5598 21.7553 15.8748 21.4403L18.1268 19.1884Z" fill="black"/>
</svg>
