<svg width="24" height="24" viewBox="0 0 24 24" fill="none" xmlns="http://www.w3.org/2000/svg">
<path d="M22 12C22 6.47715 17.5228 2 12 2C6.47715 2 2 6.47715 2 12C2 17.5228 6.47715 22 12 22C17.5228 22 22 17.5228 22 12ZM16.4049 6.30342C16.9467 6.03035 17.5341 6.58281 17.2947 7.14035L14.3327 14.0379C14.2399 14.254 14.0739 14.4305 13.8639 14.5364L7.59324 17.6966C7.05139 17.9697 6.46403 17.4172 6.70344 16.8597L9.66538 9.96207C9.75818 9.74597 9.92418 9.56948 10.1342 9.46364L16.4049 6.30342ZM13 12.0004C13 11.4481 12.5523 11.0004 12 11.0004C11.4477 11.0004 11 11.4481 11 12.0004C11 12.5527 11.4477 13.0004 12 13.0004C12.5523 13.0004 13 12.5527 13 12.0004Z" fill="black"/>
</svg>
