<svg width="24" height="24" viewBox="0 0 24 24" fill="none" xmlns="http://www.w3.org/2000/svg">
<path d="M2 12C2 17.5233 6.47667 22 12 22C17.5233 22 22 17.5233 22 12C22 6.47667 17.5233 2 12 2C6.47667 2 2 6.47667 2 12ZM9.41602 11.9993C9.41602 13.4235 10.5756 14.5827 12.0135 14.5827C12.6683 14.5827 13.2665 14.3379 13.7281 13.9346C14.04 13.662 14.5138 13.6939 14.7863 14.0058C15.0589 14.3178 15.027 14.7916 14.7151 15.0641C13.9956 15.6928 13.0513 16.0827 12.0135 16.0827C9.75316 16.0827 7.91602 14.2579 7.91602 11.9993C7.91602 9.7408 9.75316 7.91602 12.0135 7.91602C13.0516 7.91602 13.9968 8.30391 14.7164 8.93578C15.0277 9.20908 15.0584 9.68296 14.7851 9.99421C14.5118 10.3055 14.038 10.3362 13.7267 10.0629C13.268 9.66012 12.6707 9.41602 12.0135 9.41602C10.5756 9.41602 9.41602 10.5752 9.41602 11.9993Z" fill="black"/>
</svg>
