<svg width="24" height="24" viewBox="0 0 24 24" fill="none" xmlns="http://www.w3.org/2000/svg">
<path d="M19 4C18.4477 4 18 4.44771 18 5V11.125C18 11.788 17.7366 12.4239 17.2678 12.8928C16.7989 13.3616 16.163 13.625 15.5 13.625H7.414L10.0821 10.9571C10.4726 10.5666 10.4726 9.93342 10.0821 9.54289C9.69158 9.15237 9.05842 9.15237 8.66789 9.54289L4.29289 13.9179C4.26443 13.9464 4.23767 13.9765 4.21293 14.008C4.20728 14.0152 4.20175 14.0224 4.19631 14.0298C4.17849 14.0539 4.16172 14.0787 4.146 14.1043C4.13998 14.1141 4.13415 14.1241 4.12877 14.1338C4.11623 14.156 4.10451 14.1787 4.09367 14.2018C4.08568 14.2189 4.0782 14.2362 4.0711 14.2539C4.06332 14.2734 4.05612 14.2932 4.04974 14.3129C4.04473 14.3281 4.0401 14.3435 4.03572 14.3592C4.02983 14.3806 4.02464 14.4022 4.02024 14.4243C4.0167 14.4416 4.01363 14.459 4.01102 14.476C4.00376 14.5246 4 14.5744 4 14.625L4.00397 14.5357C4.00187 14.5593 4.0006 14.583 4.00017 14.6066L4 14.625C4 14.6315 4.00006 14.6379 4.00019 14.6444C4.00063 14.6677 4.00189 14.691 4.00398 14.7148C4.0056 14.733 4.0077 14.751 4.01028 14.7685C4.01305 14.7876 4.01636 14.8067 4.02017 14.8258C4.02464 14.8478 4.02983 14.8694 4.03585 14.891C4.0401 14.9065 4.04473 14.9219 4.04955 14.9367C4.05612 14.9568 4.06332 14.9766 4.07123 14.9963C4.0782 15.0138 4.08568 15.0311 4.09365 15.0481C4.10338 15.0689 4.11379 15.0893 4.12467 15.1091C4.1315 15.1214 4.13861 15.1336 4.14607 15.1457C4.16172 15.1713 4.17849 15.1961 4.19633 15.2203C4.22531 15.2593 4.2575 15.2967 4.29289 15.3321L4.21279 15.2418C4.23574 15.271 4.26029 15.299 4.29289 15.3321L8.66789 19.7071C9.05842 20.0976 9.69158 20.0976 10.0821 19.7071C10.4726 19.3166 10.4726 18.6834 10.0821 18.2929L7.414 15.625H15.5C16.6935 15.625 17.8381 15.1509 18.682 14.307C19.5259 13.4631 20 12.3185 20 11.125V5C20 4.44771 19.5523 4 19 4Z" fill="black"/>
</svg>
