<svg width="24" height="24" viewBox="0 0 24 24" fill="none" xmlns="http://www.w3.org/2000/svg">
<path d="M5 4C4.4477 4 4 4.44771 4 5V11.125C4 12.3185 4.4741 13.4631 5.318 14.307C6.1619 15.1509 7.3065 15.625 8.5 15.625H16.586L13.9179 18.2929C13.5274 18.6834 13.5274 19.3166 13.9179 19.7071C14.3084 20.0976 14.9416 20.0976 15.3321 19.7071L19.7071 15.3321C19.7397 15.299 19.7643 15.271 19.7872 15.2418L19.7071 15.3321C19.7425 15.2967 19.7747 15.2593 19.8037 15.2203C19.8215 15.1961 19.8383 15.1713 19.8539 15.1457C19.8614 15.1336 19.8685 15.1214 19.8753 15.1091C19.8862 15.0893 19.8966 15.0689 19.9063 15.0481C19.9143 15.0311 19.9218 15.0138 19.9288 14.9963C19.9367 14.9766 19.9439 14.9568 19.9505 14.9367C19.9553 14.9219 19.9599 14.9065 19.9642 14.891C19.9702 14.8694 19.9754 14.8478 19.9798 14.8258C19.9836 14.8067 19.987 14.7876 19.9897 14.7685C19.9923 14.751 19.9944 14.733 19.996 14.7148C19.9981 14.691 19.9994 14.6677 19.9998 14.6444C19.9999 14.6379 20 14.6315 20 14.625L19.9998 14.6066C19.9994 14.583 19.9981 14.5593 19.996 14.5357L20 14.625C20 14.5744 19.9962 14.5246 19.989 14.476C19.9864 14.459 19.9833 14.4416 19.9798 14.4243C19.9754 14.4022 19.9702 14.3806 19.9643 14.3592C19.9599 14.3435 19.9553 14.3281 19.9503 14.3129C19.9439 14.2932 19.9367 14.2734 19.9289 14.2539C19.9218 14.2362 19.9143 14.2189 19.9063 14.2018C19.8955 14.1787 19.8838 14.156 19.8712 14.1338C19.8658 14.1241 19.86 14.1141 19.854 14.1043C19.8383 14.0787 19.8215 14.0539 19.8037 14.0298C19.7982 14.0224 19.7927 14.0152 19.7871 14.008C19.7623 13.9765 19.7356 13.9464 19.7071 13.9179L15.3321 9.54289C14.9416 9.15237 14.3084 9.15237 13.9179 9.54289C13.5274 9.93342 13.5274 10.5666 13.9179 10.9571L16.586 13.625H8.5C7.837 13.625 7.2011 13.3616 6.7322 12.8928C6.2634 12.4239 6 11.788 6 11.125V5C6 4.44771 5.5523 4 5 4Z" fill="black"/>
</svg>
