<svg width="24" height="24" viewBox="0 0 24 24" fill="none" xmlns="http://www.w3.org/2000/svg">
<path d="M3.21967 3.21967C2.92678 3.51256 2.92678 3.98744 3.21967 4.28033L4.79259 5.85325L5.42826 14.855C5.49548 15.8068 6.15732 16.612 7.07812 16.8622L8.0049 17.114L8.68289 17.113C8.54777 16.6856 8.47476 16.2305 8.47476 15.7585C8.47476 14.0733 9.40282 12.6049 10.7757 11.8364L11.9013 12.962C11.1974 13.2303 10.6208 13.7567 10.2874 14.4256C10.0873 14.827 9.97475 15.2796 9.97475 15.7585C9.97475 16.0854 10.0272 16.4001 10.1241 16.6946C10.1714 16.8384 10.2294 16.9774 10.297 17.1106C10.4754 17.4621 10.7211 17.7736 11.0173 18.0281V20.312C11.0173 20.3557 11.0527 20.3912 11.0965 20.3912C11.1114 20.3912 11.126 20.3869 11.1386 20.379L12.5381 19.4984C12.799 19.3343 13.1315 19.3364 13.3903 19.5039L14.7417 20.3786C14.7785 20.4021 14.8273 20.3916 14.851 20.355C14.8589 20.3428 14.8633 20.3286 14.8637 20.314C14.8857 19.3739 14.8967 18.6173 14.8967 18.0442C15.2035 17.7849 15.4574 17.4648 15.6399 17.1027C15.6855 17.0122 15.7266 16.9191 15.763 16.8236L19.159 20.3119C19.4519 20.6048 19.9268 20.6048 20.2197 20.3119C20.5126 20.019 20.5126 19.5441 20.2197 19.2512L15.7683 14.7077C15.4656 13.9008 14.8242 13.2594 14.0173 12.9566L4.28033 3.21967C3.98744 2.92678 3.51256 2.92678 3.21967 3.21967ZM17.0383 13.86L19.6323 16.4539C20.112 16.0718 20.4258 15.5002 20.4724 14.8622L21.1721 5.29626C21.179 5.20151 21.1769 5.10631 21.1658 5.01196C21.069 4.19152 20.3255 3.60485 19.505 3.7016C18.5216 3.81757 17.5595 3.98245 16.6189 4.19623C15.7563 4.39227 14.7372 4.7256 13.5617 5.1962C13.1821 5.34814 12.7585 5.34749 12.3795 5.19433C11.1392 4.69323 10.157 4.36053 9.43289 4.19623C8.71929 4.03433 7.89316 3.89432 6.95453 3.77619L14.865 11.6866C15.8201 12.1327 16.5923 12.9049 17.0383 13.86Z" fill="black"/>
</svg>
