<svg width="24" height="24" viewBox="0 0 24 24" fill="none" xmlns="http://www.w3.org/2000/svg">
<path d="M6.56678 17.709L7.45986 17.7077C7.30726 17.2405 7.22461 16.7416 7.22461 16.2236C7.22461 13.5846 9.36394 11.4453 12.0029 11.4453C14.642 11.4453 16.7813 13.5846 16.7813 16.2236C16.7813 16.7367 16.7002 17.2309 16.5504 17.6942L17.4777 17.6928L18.4252 17.4337C19.4303 17.1589 20.1529 16.2805 20.2289 15.2414L20.9956 4.7589C21.0032 4.65507 21.0009 4.55075 20.9887 4.44736C20.8827 3.5483 20.0679 2.90542 19.1689 3.01144C18.0912 3.13852 17.037 3.3192 16.0061 3.55347C15.0609 3.76829 13.9442 4.13355 12.656 4.64925C12.2401 4.81575 11.7759 4.81503 11.3605 4.64721C10.0014 4.09808 8.92512 3.7335 8.13161 3.55347C7.2024 3.34265 6.0991 3.1657 4.8217 3.02262C4.72279 3.01154 4.62306 3.00949 4.52377 3.0165C3.62073 3.08027 2.94036 3.86403 3.00414 4.76708L3.74325 15.2335C3.81691 16.2765 4.54217 17.1589 5.5512 17.4331L6.56678 17.709ZM15.2813 16.2236C15.2813 14.4131 13.8135 12.9453 12.0029 12.9453C10.1924 12.9453 8.72461 14.4131 8.72461 16.2236C8.72461 16.7568 8.85189 17.2603 9.07773 17.7053C9.2732 18.0904 9.5425 18.4318 9.86701 18.7107V21.2134C9.86701 21.2613 9.90587 21.3002 9.9538 21.3002C9.97016 21.3002 9.98618 21.2956 10 21.2869L11.5335 20.3219C11.8195 20.142 12.1838 20.1443 12.4674 20.3279L13.9483 21.2865C13.9886 21.3121 14.0422 21.3007 14.0681 21.2606C14.0768 21.2472 14.0816 21.2316 14.082 21.2156C14.1061 20.1854 14.1182 19.3564 14.1182 18.7284C14.4544 18.4442 14.7326 18.0935 14.9326 17.6966C15.1556 17.2537 15.2813 16.7534 15.2813 16.2236Z" fill="black"/>
</svg>
