<svg width="24" height="24" viewBox="0 0 24 24" fill="none" xmlns="http://www.w3.org/2000/svg">
<path d="M5 5C3.34315 5 2 6.34315 2 8V8.86768H22V8C22 6.34315 20.6569 5 19 5H5Z" fill="black"/>
<path d="M22 10.3677H2V16C2 17.6569 3.34315 19 5 19H19C20.6569 19 22 17.6569 22 16V10.3677ZM5.5 14H7.5C7.77614 14 8 14.2239 8 14.5V15.5C8 15.7761 7.77614 16 7.5 16H5.5C5.22386 16 5 15.7761 5 15.5V14.5C5 14.2239 5.22386 14 5.5 14ZM9.5 14H13.5C13.7761 14 14 14.2239 14 14.5V15.5C14 15.7761 13.7761 16 13.5 16H9.5C9.22386 16 9 15.7761 9 15.5V14.5C9 14.2239 9.22386 14 9.5 14Z" fill="black"/>
</svg>
