<svg width="24" height="24" viewBox="0 0 24 24" fill="none" xmlns="http://www.w3.org/2000/svg">
<path d="M8.19922 4C8.19922 3.44772 7.7515 3 7.19922 3C6.64693 3 6.19922 3.44772 6.19922 4V6.19922H4C3.44772 6.19922 3 6.64693 3 7.19922C3 7.7515 3.44772 8.19922 4 8.19922H6.19922V14.7997C6.19922 16.4566 7.54237 17.7997 9.19922 17.7997H15.8008V19.9997C15.8008 20.552 16.2485 20.9997 16.8008 20.9997C17.3531 20.9997 17.8008 20.552 17.8008 19.9997V17.7997H19.9989C20.5512 17.7997 20.9989 17.352 20.9989 16.7997C20.9989 16.2474 20.5512 15.7997 19.9989 15.7997H9.19922C8.64693 15.7997 8.19922 15.352 8.19922 14.7997V7.23731C8.19969 7.22467 8.19993 7.21197 8.19993 7.19922C8.19993 7.18647 8.19969 7.17377 8.19922 7.16113V4ZM11 7.19922C11 7.7515 11.4477 8.19922 12 8.19922H14.7999C15.3522 8.19922 15.7999 8.64693 15.7999 9.19922V11.9991C15.7999 12.5514 16.2476 12.9991 16.7999 12.9991C17.3522 12.9991 17.7999 12.5514 17.7999 11.9991V9.19922C17.7999 7.54236 16.4567 6.19922 14.7999 6.19922H12C11.4477 6.19922 11 6.64693 11 7.19922Z" fill="black"/>
</svg>
