<svg width="24" height="24" viewBox="0 0 24 24" fill="none" xmlns="http://www.w3.org/2000/svg">
<path d="M11.9999 7.25C14.6235 7.25 16.7498 9.37627 16.7498 11.9999C16.7498 14.6235 14.6235 16.7498 11.9999 16.7498C9.37627 16.7498 7.25 14.6235 7.25 11.9999C7.25 9.37627 9.37627 7.25 11.9999 7.25ZM11.9999 5.25C8.2717 5.25 5.25 8.2717 5.25 11.9999C5.25 15.7281 8.2717 18.7498 11.9999 18.7498C15.7281 18.7498 18.7498 15.7281 18.7498 11.9999C18.7498 8.2717 15.7281 5.25 11.9999 5.25Z" fill="black"/>
<path d="M10.1992 11.9992C10.1992 12.9934 11.005 13.7992 11.9992 13.7992C12.9934 13.7992 13.7992 12.9934 13.7992 11.9992C13.7992 11.005 12.9934 10.1992 11.9992 10.1992C11.005 10.1992 10.1992 11.005 10.1992 11.9992Z" fill="black"/>
<path d="M2 12C2 12.5523 2.44772 13 3 13H8.24992C8.8022 13 9.24992 12.5523 9.24992 12C9.24992 11.4477 8.8022 11 8.24992 11H3C2.44772 11 2 11.4477 2 12Z" fill="black"/>
<path d="M14.75 12C14.75 12.5523 15.1977 13 15.75 13H20.9999C21.5522 13 21.9999 12.5523 21.9999 12C21.9999 11.4477 21.5522 11 20.9999 11H15.75C15.1977 11 14.75 11.4477 14.75 12Z" fill="black"/>
<path d="M12 2C11.4477 2 11 2.44772 11 3V8.24992C11 8.8022 11.4477 9.24992 12 9.24992C12.5523 9.24992 13 8.8022 13 8.24992V3C13 2.44772 12.5523 2 12 2Z" fill="black"/>
<path d="M12 14.75C11.4477 14.75 11 15.1977 11 15.75V20.9999C11 21.5522 11.4477 21.9999 12 21.9999C12.5523 21.9999 13 21.5522 13 20.9999V15.75C13 15.1977 12.5523 14.75 12 14.75Z" fill="black"/>
</svg>
