<svg width="24" height="24" viewBox="0 0 24 24" fill="none" xmlns="http://www.w3.org/2000/svg">
<path d="M20.0678 8.39232C20.0678 8.3696 20.0674 8.34693 20.0666 8.32434L12.9003 12.3716C12.8621 12.3931 12.8234 12.4131 12.7842 12.4316V20.8348C12.8325 20.8125 12.88 20.7879 12.9266 20.761L19.1752 17.1538C19.7277 16.8342 20.0678 16.245 20.0678 15.6068V8.39232ZM19.384 6.98715C19.3183 6.93575 19.2486 6.8886 19.1752 6.84624L12.9266 3.23901C12.374 2.92033 11.6938 2.92033 11.1413 3.23901L4.89266 6.84535C4.84591 6.87238 4.80069 6.90134 4.75707 6.9321L11.9147 11.0643C11.9913 11.1086 12.0856 11.109 12.1626 11.0655L19.384 6.98715ZM4.00725 8.23125C4.00244 8.2845 4 8.33823 4 8.39232V15.6077C4 16.2459 4.3401 16.8351 4.89266 17.1538L11.1413 20.761C11.188 20.788 11.2357 20.8127 11.2842 20.8351V12.4264C11.2438 12.407 11.2039 12.386 11.1647 12.3634L4.00725 8.23125Z" fill="black"/>
</svg>
