<svg width="24" height="24" viewBox="0 0 24 24" fill="none" xmlns="http://www.w3.org/2000/svg">
<path d="M13.8574 3C13.3051 3 12.8574 3.44772 12.8574 4V5.28728C12.3791 5.27716 11.9 5.31786 11.4287 5.40939V4C11.4287 3.44772 10.981 3 10.4287 3C9.87643 3 9.42871 3.44772 9.42871 4V6.143C8.90509 6.43717 8.41249 6.80706 7.96689 7.25266C5.34437 9.87518 5.34437 14.1255 7.96689 16.748C8.41249 17.1936 8.90509 17.5635 9.42871 17.8577V20C9.42871 20.5523 9.87643 21 10.4287 21C10.981 21 11.4287 20.5523 11.4287 20V18.5913C11.9 18.6828 12.3791 18.7235 12.8574 18.7134V20C12.8574 20.5523 13.3051 21 13.8574 21C14.4097 21 14.8574 20.5523 14.8574 20V18.3652C15.8093 18.0455 16.7039 17.5064 17.4622 16.748C17.8528 16.3575 17.8528 15.7243 17.4622 15.3338C17.0717 14.9433 16.4386 14.9433 16.048 15.3338C14.2066 17.1753 11.2226 17.1753 9.38111 15.3338C7.53963 13.4923 7.53963 10.5083 9.38111 8.66687C11.2226 6.8254 14.2066 6.8254 16.048 8.66687C16.4386 9.0574 17.0717 9.0574 17.4622 8.66687C17.8528 8.27635 17.8528 7.64318 17.4622 7.25266C16.7039 6.49427 15.8093 5.95519 14.8574 5.63543V4C14.8574 3.44772 14.4097 3 13.8574 3Z" fill="black"/>
</svg>
