<svg width="24" height="24" viewBox="0 0 24 24" fill="none" xmlns="http://www.w3.org/2000/svg">
<path d="M10.5867 4C10.062 4 9.63672 4.42533 9.63672 4.95V7.75951L6.33177 10.5923C5.93341 10.9338 5.88727 11.5335 6.22872 11.9319C6.57017 12.3302 7.16991 12.3764 7.56827 12.0349L9.63672 10.262V11.7858L6.78684 14.2286C6.38848 14.57 6.34235 15.1697 6.6838 15.5681C7.02525 15.9665 7.62499 16.0126 8.02335 15.6711L9.63672 14.2883V19.95C9.63672 20.2752 9.80309 20.5779 10.0777 20.7521C10.3523 20.9264 10.697 20.9481 10.9912 20.8096C12.3561 20.1673 14.3294 18.9439 15.8384 17.325C17.3341 15.7205 18.5404 13.5331 17.8669 11.0637C17.7288 10.5575 17.2066 10.2591 16.7004 10.3971C16.1942 10.5352 15.8958 11.0574 16.0338 11.5636C16.4513 13.0942 15.7635 14.6189 14.4486 16.0295C13.5808 16.9605 12.5118 17.7575 11.5367 18.3542V12.6597L14.387 10.2166C14.7853 9.87515 14.8315 9.27541 14.49 8.87705C14.1486 8.47869 13.5488 8.43256 13.1505 8.77401L11.5367 10.1572V8.63339L13.9319 6.58037C14.3303 6.23892 14.3764 5.63918 14.0349 5.24082C13.6935 4.84246 13.0938 4.79633 12.6954 5.13778L11.5367 6.13094V4.95C11.5367 4.42533 11.1114 4 10.5867 4Z" fill="black"/>
</svg>
