<svg width="24" height="24" viewBox="0 0 24 24" fill="none" xmlns="http://www.w3.org/2000/svg">
<path d="M19.7731 5.04032C19.2706 4.88955 18.741 5.17473 18.5902 5.67727L17.9983 7.65015H13.8019L13.2101 5.67727C13.0918 5.28303 12.7331 5.0098 12.3216 5.00049C11.9101 4.99119 11.5394 5.24793 11.4035 5.63642L10.6987 7.65015H6.50434L6.02176 5.71984C5.89451 5.21084 5.37872 4.90136 4.86972 5.02861C4.36071 5.15587 4.05124 5.67165 4.17849 6.18066L4.54586 7.65015H2.7C2.3134 7.65015 2 7.96355 2 8.35015C2 8.73675 2.3134 9.05015 2.7 9.05015H4.89586L5.44589 11.2502H2.7C2.3134 11.2502 2 11.5636 2 11.9502C2 12.3368 2.3134 12.6502 2.7 12.6502H5.79589L7.17849 18.1807C7.2803 18.5879 7.63728 18.88 8.05659 18.8993C8.47589 18.9185 8.85813 18.6603 8.99679 18.2641L10.9616 12.6502H13.3183L14.9902 18.2232C15.1107 18.6251 15.4806 18.9003 15.9001 18.9003C16.3197 18.9003 16.6895 18.6251 16.8101 18.2232L18.482 12.6502H20.7C21.0866 12.6502 21.4 12.3368 21.4 11.9502C21.4 11.5636 21.0866 11.2502 20.7 11.2502H18.902L19.562 9.05015H20.7C21.0866 9.05015 21.4 8.73675 21.4 8.35015C21.4 7.96355 21.0866 7.65015 20.7 7.65015H19.982L20.4101 6.22323C20.5608 5.72069 20.2757 5.19108 19.7731 5.04032ZM7.75436 12.6502H8.94862L8.25197 14.6407L7.75436 12.6502ZM9.43862 11.2502H7.40436L6.85434 9.05015H10.2087L9.43862 11.2502ZM11.4516 11.2502L12.2217 9.05015H12.2383L12.8983 11.2502H11.4516ZM15.302 12.6502H16.4983L15.9001 14.6442L15.302 12.6502ZM16.9183 11.2502H14.882L14.2219 9.05015H17.5783L16.9183 11.2502Z" fill="black"/>
</svg>
