<svg width="24" height="24" viewBox="0 0 24 24" fill="none" xmlns="http://www.w3.org/2000/svg">
<path d="M6.77799 4.20006C6.33616 4.53143 6.24662 5.15823 6.57799 5.60006L9.91841 10.054H7C6.44772 10.054 6 10.5017 6 11.054C6 11.6062 6.44772 12.054 7 12.054H10.9185V13.2H7C6.44772 13.2 6 13.6477 6 14.2C6 14.7522 6.44772 15.2 7 15.2H10.9185V19.0001C10.9185 19.5523 11.3662 20.0001 11.9185 20.0001C12.4708 20.0001 12.9185 19.5523 12.9185 19.0001V15.2H16.8378C17.3901 15.2 17.8378 14.7522 17.8378 14.2C17.8378 13.6477 17.3901 13.2 16.8378 13.2H12.9185V12.054H16.8378C17.3901 12.054 17.8378 11.6062 17.8378 11.054C17.8378 10.5017 17.3901 10.054 16.8378 10.054H13.9186L17.2591 5.60006C17.5904 5.15823 17.5009 4.53143 17.0591 4.20006C16.6172 3.86869 15.9904 3.95823 15.6591 4.40006L11.9185 9.38745L8.17799 4.40006C7.84662 3.95823 7.21982 3.86869 6.77799 4.20006Z" fill="black"/>
</svg>
