<svg width="24" height="24" viewBox="0 0 24 24" fill="none" xmlns="http://www.w3.org/2000/svg">
<path d="M10.525 4.95C10.525 4.42533 10.0997 4 9.575 4C9.05033 4 8.625 4.42533 8.625 4.95V5.3125H6.95C6.42533 5.3125 6 5.73783 6 6.2625C6 6.78717 6.42533 7.2125 6.95 7.2125H7.3125V16.6874H6.95C6.42533 16.6874 6 17.1127 6 17.6374C6 18.1621 6.42533 18.5874 6.95 18.5874H8.625V18.95C8.625 19.4747 9.05033 19.9 9.575 19.9C10.0997 19.9 10.525 19.4747 10.525 18.95V18.5874H11.25V18.95C11.25 19.4747 11.6753 19.9 12.2 19.9C12.7247 19.9 13.15 19.4747 13.15 18.95V18.5659C13.8335 18.5086 14.6577 18.3246 15.3851 17.8676C16.3709 17.2483 17.0875 16.1798 17.0875 14.5749C17.0875 13.765 16.8763 13.0666 16.4884 12.4897C16.123 11.9462 15.6324 11.5567 15.1138 11.28C15.2791 11.1407 15.4338 10.9837 15.5725 10.8068C15.9813 10.2856 16.2125 9.64018 16.2125 8.8875C16.2125 7.39293 15.4258 6.4409 14.4551 5.91824C14.036 5.6926 13.5856 5.54615 13.15 5.45388V4.95C13.15 4.42533 12.7247 4 12.2 4C11.6753 4 11.25 4.42533 11.25 4.95V5.3125H10.525V4.95ZM10.935 10.5624H9.2125V7.2125H11.7625C12.3433 7.2125 13.0393 7.31383 13.5543 7.59114C14.0055 7.8341 14.3125 8.19457 14.3125 8.8875C14.3125 9.22858 14.2156 9.45812 14.0775 9.63423C13.9283 9.82444 13.6911 10.0009 13.3505 10.15C12.6652 10.4498 11.7472 10.5583 10.935 10.5624ZM10.9397 12.4624H11.7625C12.5746 12.4624 13.4936 12.5853 14.1744 12.9328C14.5031 13.1005 14.7478 13.3061 14.9116 13.5497C15.0706 13.7863 15.1875 14.1087 15.1875 14.5749C15.1875 15.5221 14.8103 15.9848 14.3743 16.2587C13.8739 16.5731 13.2007 16.6874 12.6375 16.6874H9.2125V12.4625H10.8875C10.9048 12.4625 10.9222 12.4625 10.9397 12.4624Z" fill="black"/>
</svg>
