<svg width="24" height="24" viewBox="0 0 24 24" fill="none" xmlns="http://www.w3.org/2000/svg">
<path d="M17.2333 8.68333C17.2333 8.05966 17.1024 7.44367 16.8497 6.87112C16.5971 6.29874 16.2287 5.78271 15.7686 5.35081C15.3086 4.91903 14.7657 4.57946 14.1724 4.34875C13.5791 4.11808 12.9451 4 12.3061 4H8.64697C8.39501 4 8.15338 4.10009 7.97522 4.27825C7.79706 4.45641 7.69697 4.69804 7.69697 4.95L7.69697 11.4667H6.95C6.42533 11.4667 6 11.892 6 12.4167C6 12.9413 6.42533 13.3667 6.95 13.3667H7.69697V14.5H6.95042C6.42575 14.5 6.00042 14.9253 6.00042 15.45C6.00042 15.9747 6.42575 16.4 6.95042 16.4H7.69697L7.69697 18.95C7.69697 19.4747 8.1223 19.9 8.64697 19.9C9.17164 19.9 9.59697 19.4747 9.59697 18.95V16.4H14.4171C14.9418 16.4 15.3671 15.9747 15.3671 15.45C15.3671 14.9253 14.9418 14.5 14.4171 14.5H9.59697V13.3667H12.3061C12.9451 13.3667 13.5791 13.2486 14.1724 13.0179C14.7657 12.7872 15.3086 12.4476 15.7686 12.0159C16.2287 11.584 16.5971 11.0679 16.8497 10.4956C17.1024 9.92299 17.2333 9.30701 17.2333 8.68333ZM12.3061 11.4667L9.59697 11.4667L9.59697 5.9H12.3061C12.7117 5.9 13.112 5.97505 13.4838 6.11961C13.8556 6.26415 14.1896 6.47456 14.4682 6.73612C14.7468 6.99757 14.9643 7.30466 15.1114 7.63818C15.2585 7.97152 15.3333 8.32647 15.3333 8.68333C15.3333 9.04019 15.2585 9.39515 15.1114 9.72849C14.9643 10.062 14.7468 10.3691 14.4682 10.6305C14.1896 10.8921 13.8556 11.1025 13.4838 11.2471C13.112 11.3916 12.7117 11.4667 12.3061 11.4667Z" fill="black"/>
</svg>
