<svg width="24" height="24" viewBox="0 0 24 24" fill="none" xmlns="http://www.w3.org/2000/svg">
<path d="M12.1869 5C11.6346 5 11.1869 5.44772 11.1869 6V6.59234C9.42333 6.61921 8 8.05672 8 9.82917C8 11.3143 9.01179 12.6076 10.4486 12.9677L10.4487 12.9678L10.4493 12.9679L13.4345 13.7178L13.4352 13.718C13.9878 13.8582 14.3738 14.3545 14.3738 14.9203C14.3738 15.6034 13.8204 16.1575 13.1366 16.1575H12.2682C12.2414 16.1553 12.2143 16.1542 12.1869 16.1542C12.1595 16.1542 12.1324 16.1553 12.1056 16.1575H11.3902C10.9316 16.1575 10.5302 15.913 10.2741 15.4937C9.98615 15.0224 9.37069 14.8737 8.89939 15.1616C8.42808 15.4495 8.27939 16.0649 8.56729 16.5363C9.1053 17.417 10.0344 18.081 11.1869 18.1513V18.7477C11.1869 19.3 11.6346 19.7477 12.1869 19.7477C12.7392 19.7477 13.1869 19.3 13.1869 18.7477V18.1571C14.9529 18.1302 16.3738 16.6902 16.3738 14.9203C16.3738 13.4339 15.3611 12.1425 13.9254 11.779L13.9236 11.7785L10.9359 11.028L10.9352 11.0278C10.3869 10.8905 10 10.3961 10 9.82917C10 9.1454 10.5541 8.59196 11.2372 8.59196H12.1318C12.15 8.59295 12.1684 8.59346 12.1869 8.59346C12.2054 8.59346 12.2238 8.59295 12.2421 8.59196H12.9836C13.44 8.59196 13.8408 8.83579 14.0946 9.252C14.3822 9.7235 14.9976 9.87259 15.4691 9.58501C15.9406 9.29743 16.0897 8.68207 15.8021 8.21057C15.2651 7.33008 14.3357 6.66843 13.1869 6.59815V6C13.1869 5.44772 12.7392 5 12.1869 5Z" fill="black"/>
</svg>
