<svg width="24" height="24" viewBox="0 0 24 24" fill="none" xmlns="http://www.w3.org/2000/svg">
<path d="M10.1765 7.73582C11.9665 5.94582 14.5949 5.54791 16.7989 6.50438C17.3055 6.72424 17.8945 6.49177 18.1144 5.98513C18.3342 5.47849 18.1017 4.88955 17.5951 4.66969C14.6796 3.40449 11.1645 3.91939 8.76233 6.32161C7.44807 7.63587 6.68456 9.29214 6.4718 11.0038H6C5.44772 11.0038 5 11.4515 5 12.0038C5 12.5561 5.44772 13.0038 6 13.0038H6.47281C6.68695 14.7123 7.44998 16.3653 8.76192 17.6774C11.1621 20.0804 14.6775 20.5947 17.5948 19.3299C18.1015 19.1102 18.3342 18.5213 18.1145 18.0146C17.8948 17.5079 17.3059 17.2752 16.7992 17.4949C14.5922 18.4518 11.9637 18.0529 10.1765 16.2636C9.25531 15.3424 8.69442 14.1974 8.49387 13.0038H14.4351C14.9874 13.0038 15.4351 12.5561 15.4351 12.0038C15.4351 11.4515 14.9874 11.0038 14.4351 11.0038H8.49251C8.69188 9.80719 9.25322 8.65914 10.1765 7.73582Z" fill="black"/>
</svg>
