<svg width="24" height="24" viewBox="0 0 24 24" fill="none" xmlns="http://www.w3.org/2000/svg">
<path d="M13.7778 7.40409C14.196 7.69677 14.5081 8.21208 14.5489 8.9894C14.5779 9.54093 15.0484 9.96457 15.5999 9.93564C16.1515 9.90671 16.5751 9.43616 16.5462 8.88463C16.4778 7.58105 15.9147 6.45074 14.9091 5.75477L14.8948 5.74507C14.0449 5.17832 12.9852 4.89665 11.8648 5.03466C10.9207 5.1375 9.87199 5.52783 9.07037 6.32945C8.24674 7.15309 7.76083 8.33607 7.85136 9.84764C7.85367 10.3876 7.91329 10.8657 7.96546 11.284L7.96784 11.3031L7.96883 11.3112L8.04543 11.8883H8C7.44772 11.8883 7 12.336 7 12.8883C7 13.4406 7.44772 13.8883 8 13.8883H8.26347C8.2801 14.1473 8.29051 14.4004 8.29051 14.6519C8.29051 15.6694 8.0983 16.6265 7.66492 17.5897C7.52568 17.8991 7.55287 18.2581 7.73711 18.543C7.92136 18.828 8.23753 19 8.57686 19H15.025C15.5773 19 16.025 18.5523 16.025 18C16.025 17.4477 15.5773 17 15.025 17H9.99124C10.1955 16.2295 10.2905 15.4503 10.2905 14.6519C10.2905 14.3953 10.2814 14.1399 10.2671 13.8883H13.3572C13.9095 13.8883 14.3572 13.4406 14.3572 12.8883C14.3572 12.336 13.9095 11.8883 13.3572 11.8883H10.063L9.953 11.0599L9.95248 11.0557C9.89741 10.614 9.85129 10.2356 9.85129 9.81535C9.85129 9.79365 9.85059 9.77195 9.84917 9.75029C9.78412 8.75253 10.0929 8.13532 10.4846 7.74366C10.9017 7.32653 11.4956 7.08563 12.0866 7.02234L12.1042 7.02029C12.7337 6.94154 13.3141 7.09731 13.7778 7.40409Z" fill="black"/>
</svg>
