<svg width="24" height="24" viewBox="0 0 24 24" fill="none" xmlns="http://www.w3.org/2000/svg">
<path d="M7 5C7 5.51767 7.39336 5.94347 7.89749 5.99481C7.93119 5.99824 7.9654 6 8.00001 6C8.00001 6 8.00001 6 8.00001 6H9.40001C9.84313 6 10.2788 6.07288 10.681 6.21169C11.0832 6.35053 11.4384 6.55058 11.7297 6.79335C11.9854 7.00642 12.1855 7.24688 12.3287 7.5H8C7.44772 7.5 7 7.94772 7 8.5C7 9.05228 7.44772 9.5 8 9.5H12.3287C12.1855 9.75312 11.9854 9.99358 11.7297 10.2067C11.4384 10.4494 11.0832 10.6495 10.681 10.7883C10.2788 10.9271 9.84312 11 9.40001 11H8.00001C7.6156 11 7.26523 11.2203 7.09871 11.5668C6.93219 11.9133 6.979 12.3245 7.21914 12.6247L12.8191 19.6247C13.1642 20.056 13.7934 20.1259 14.2247 19.7809C14.656 19.4359 14.7259 18.8066 14.3809 18.3753L10.0523 12.9646C10.4899 12.917 10.9206 12.8214 11.3336 12.6788C11.9505 12.4659 12.5214 12.1503 13.01 11.7431C13.499 11.3356 13.8987 10.842 14.1758 10.2845C14.3014 10.0318 14.4002 9.76919 14.4707 9.5H16.4C16.9523 9.5 17.4 9.05228 17.4 8.5C17.4 7.94772 16.9523 7.5 16.4 7.5H14.4707C14.4002 7.23081 14.3014 6.96818 14.1758 6.7155C14.0504 6.46324 13.8999 6.22405 13.7274 6H16.4C16.9523 6 17.4 5.55228 17.4 5C17.4 4.44772 16.9523 4 16.4 4H8C7.44772 4 7 4.44772 7 5Z" fill="black"/>
</svg>
