<svg width="24" height="24" viewBox="0 0 24 24" fill="none" xmlns="http://www.w3.org/2000/svg">
<path d="M7.30645 4C7.06775 4 6.83883 4.09482 6.67005 4.2636C6.50127 4.43239 6.40645 4.6613 6.40645 4.9L6.40645 6.8125H5.9C5.40294 6.8125 5 7.21544 5 7.7125C5 8.20956 5.40294 8.6125 5.9 8.6125H6.40645L6.40645 9.35718H5.9C5.40294 9.35718 5 9.76012 5 10.2572C5 10.7542 5.40294 11.1572 5.9 11.1572H6.40645L6.40645 18.9C6.40645 19.3971 6.80939 19.8 7.30645 19.8C7.8035 19.8 8.20645 19.3971 8.20645 18.9L8.20645 13.8H11.3494C12.0336 13.8 12.7127 13.6774 13.3486 13.4377C13.9847 13.1979 14.5677 12.8445 15.0626 12.394C15.4584 12.0338 15.792 11.6167 16.0494 11.1572H17.15C17.6471 11.1572 18.05 10.7542 18.05 10.2572C18.05 9.76012 17.6471 9.35718 17.15 9.35718H16.6209C16.6362 9.20558 16.6439 9.05303 16.6439 8.9C16.6439 8.80394 16.6409 8.70807 16.6348 8.6125H17.15C17.6471 8.6125 18.05 8.20956 18.05 7.7125C18.05 7.21544 17.6471 6.8125 17.15 6.8125H16.14C15.8723 6.28574 15.5066 5.8101 15.0626 5.406C14.5677 4.95552 13.9847 4.60215 13.3486 4.36235C12.7127 4.12257 12.0336 4 11.3494 4H7.30645ZM13.851 6.73714C13.8782 6.76191 13.9049 6.78703 13.9311 6.8125H8.20645V5.8H11.3494C11.8195 5.8 12.2833 5.88436 12.7136 6.04662C13.1439 6.20885 13.5298 6.44475 13.851 6.73714ZM14.8439 8.9C14.8439 9.05305 14.8311 9.20586 14.8056 9.35718H8.20645V8.6125H14.8288C14.8389 8.70803 14.8439 8.80397 14.8439 8.9ZM11.3494 12L8.20645 12V11.1572H13.7428C13.4444 11.4062 13.0966 11.609 12.7136 11.7534C12.2833 11.9156 11.8195 12 11.3494 12Z" fill="black"/>
</svg>
