<svg width="24" height="24" viewBox="0 0 24 24" fill="none" xmlns="http://www.w3.org/2000/svg">
<path d="M7.71967 9.07811C7.24851 9.90348 6.19507 10.1914 5.36866 9.71967C4.54329 9.24851 4.25534 8.19507 4.7271 7.36866C5.19827 6.54329 6.2517 6.25534 7.07811 6.7271C7.90348 7.19827 8.19143 8.2517 7.71967 9.07811ZM4.62502 11.0224C5.70061 11.6364 6.98185 11.5627 7.95885 10.94L9.21666 11.8114L8.10195 12.6039C8.01263 12.54 7.9192 12.48 7.82176 12.4244C6.27641 11.5423 4.30658 12.0797 3.42442 13.625C2.54225 15.1704 3.07967 17.1402 4.62502 18.0224C6.17036 18.9045 8.14019 18.3671 9.02236 16.8218C9.51211 15.9638 9.56432 14.9751 9.24944 14.1142L10.8779 12.9622L18.2482 18.068C19.0426 18.6186 20.1328 18.4209 20.6834 17.6265C20.717 17.578 20.7478 17.5284 20.7759 17.4778L12.5503 11.7792L20.697 6.01611C20.6685 5.96592 20.6372 5.91667 20.6031 5.86854C20.045 5.07952 18.9529 4.89237 18.1638 5.45054L10.8849 10.6254L9.20077 9.45866C9.81597 7.98008 9.24835 6.23879 7.82176 5.42442C6.27641 4.54225 4.30658 5.07967 3.42442 6.62502C2.54225 8.17036 3.07967 10.1402 4.62502 11.0224ZM7.71967 16.0781C7.24851 16.9035 6.19507 17.1914 5.36866 16.7197C4.54329 16.2485 4.25534 15.1951 4.7271 14.3687C5.19827 13.5433 6.2517 13.2553 7.07811 13.7271C7.90348 14.1983 8.19143 15.2517 7.71967 16.0781Z" fill="black"/>
</svg>
