<svg width="24" height="24" viewBox="0 0 24 24" fill="none" xmlns="http://www.w3.org/2000/svg">
<path d="M12 21C15.866 21 19 19.881 19 18.5V16.5526C18.6173 16.7813 18.1758 16.9802 17.6977 17.151C16.204 17.6844 14.1898 18 12.0008 18C9.81181 18 7.79756 17.6844 6.30382 17.151C5.82507 16.98 5.38309 16.7808 5 16.5516V18.5C5 19.881 8.134 21 12 21ZM19 14.5V12.5526C18.6173 12.7813 18.1758 12.9802 17.6977 13.151C16.204 13.6844 14.1898 14 12.0008 14C9.81181 14 7.79756 13.6844 6.30382 13.151C5.82507 12.98 5.38309 12.7808 5 12.5516V14.5H5.05078C5.05078 14.5734 5.09034 14.7447 5.38976 14.9975C5.68573 15.2474 6.15847 15.5063 6.80829 15.7383C8.10141 16.2001 9.93715 16.5 12.0008 16.5C14.0644 16.5 15.9002 16.2001 17.1933 15.7383C17.8431 15.5063 18.3158 15.2474 18.6118 14.9975C18.9112 14.7447 18.9508 14.5734 18.9508 14.5H19ZM5 8.55164V10.5H5.05078C5.05078 10.5734 5.09034 10.7447 5.38976 10.9975C5.68573 11.2474 6.15847 11.5063 6.80829 11.7383C8.10141 12.2001 9.93715 12.5 12.0008 12.5C14.0644 12.5 15.9002 12.2001 17.1933 11.7383C17.8431 11.5063 18.3158 11.2474 18.6118 10.9975C18.9112 10.7447 18.9508 10.5734 18.9508 10.5H19V8.55258C18.6173 8.78133 18.1758 8.98024 17.6977 9.15098C16.204 9.68441 14.1898 10 12.0008 10C9.81181 10 7.79756 9.68441 6.30382 9.15098C5.82507 8.98001 5.38309 8.78078 5 8.55164ZM5 6.5H5.05078C5.05078 6.57344 5.09034 6.74469 5.38976 6.99753C5.68573 7.24745 6.15847 7.50629 6.80829 7.73835C8.10141 8.20014 9.93715 8.5 12.0008 8.5C14.0644 8.5 15.9002 8.20014 17.1933 7.73835C17.8431 7.50629 18.3158 7.24745 18.6118 6.99753C18.9112 6.74469 18.9508 6.57344 18.9508 6.5H19C19 5.119 15.866 4 12 4C8.134 4 5 5.119 5 6.5Z" fill="black"/>
</svg>
