<svg width="24" height="24" viewBox="0 0 24 24" fill="none" xmlns="http://www.w3.org/2000/svg">
<path d="M3.37371 13.4822L6.56428 17.4985C7.1334 18.2149 7.99833 18.6325 8.91328 18.6325H17.5C19.433 18.6325 21 17.0655 21 15.1325V9.5C21 7.56701 19.433 6 17.5 6H8.91346C7.99841 6 7.13339 6.41762 6.56428 7.13416L3.37371 11.1512C2.87543 11.848 2.87543 12.7854 3.37371 13.4822ZM11.5045 9.7807L12.9793 11.2555L14.4541 9.78071C14.747 9.48781 15.2219 9.48781 15.5148 9.78071C15.8076 10.0736 15.8076 10.5485 15.5148 10.8414L14.0399 12.3162L15.5148 13.791C15.8076 14.0839 15.8076 14.5588 15.5148 14.8517C15.2219 15.1446 14.747 15.1446 14.4541 14.8517L12.9793 13.3768L11.5045 14.8517C11.2116 15.1446 10.7367 15.1446 10.4438 14.8517C10.1509 14.5588 10.1509 14.0839 10.4438 13.791L11.9186 12.3162L10.4438 10.8414C10.1509 10.5485 10.1509 10.0736 10.4438 9.78071C10.7367 9.48781 11.2116 9.48781 11.5045 9.7807Z" fill="black"/>
</svg>
