<svg width="24" height="24" viewBox="0 0 24 24" fill="none" xmlns="http://www.w3.org/2000/svg">
<path d="M5 16.5556C4.44772 16.5556 4 16.1078 4 15.5556V6C4 5.44772 4.44772 5 5 5H19C19.5523 5 20 5.44772 20 6V15.5556C20 16.1078 19.5523 16.5556 19 16.5556H5ZM19 18.5556C20.6569 18.5556 22 17.2124 22 15.5556V6C22 4.34315 20.6569 3 19 3H5C3.34315 3 2 4.34315 2 6V15.5556C2 17.2124 3.34315 18.5556 5 18.5556H10.2222L9.5 20H6.77734C6.22506 20 5.77734 20.4477 5.77734 21C5.77734 21.5523 6.22506 22 6.77734 22H17.2218C17.7741 22 18.2218 21.5523 18.2218 21C18.2218 20.4477 17.7741 20 17.2218 20H14.5L13.7778 18.5556H19Z" fill="black"/>
</svg>
