<svg width="24" height="24" viewBox="0 0 24 24" fill="none" xmlns="http://www.w3.org/2000/svg">
<path d="M13 4C13 3.44772 12.5523 3 12 3C11.4477 3 11 3.44772 11 4V12.2515L8.26353 9.51506C7.87301 9.12454 7.23984 9.12454 6.84932 9.51506C6.45879 9.90559 6.45879 10.5388 6.84932 10.9293L11.2678 15.3477C11.4503 15.5439 11.7108 15.6667 12 15.6667C12.0461 15.6667 12.0916 15.6635 12.136 15.6575C12.3452 15.6291 12.5472 15.5345 12.708 15.3737L17.1524 10.9293C17.5429 10.5388 17.5429 9.90559 17.1524 9.51506C16.7619 9.12454 16.1287 9.12454 15.7382 9.51506L13 12.2533V4ZM20 13.6667C19.4477 13.6667 19 14.1145 19 14.6667V18.2223C19 18.6519 18.6518 19.0001 18.2222 19.0001H5.77778C5.34822 19.0001 5 18.6519 5 18.2223V14.6667C5 14.1145 4.55228 13.6667 4 13.6667C3.44772 13.6667 3 14.1145 3 14.6667V18.2223C3 19.7564 4.24365 21.0001 5.77778 21.0001H18.2222C19.7563 21.0001 21 19.7564 21 18.2223V14.6667C21 14.1145 20.5523 13.6667 20 13.6667Z" fill="black"/>
</svg>
