<svg width="24" height="24" viewBox="0 0 24 24" fill="none" xmlns="http://www.w3.org/2000/svg">
<path d="M9.73438 4.5H18.4991C19.4656 4.5 20.2491 5.2835 20.2491 6.25V15.0147C20.2491 15.9812 19.4656 16.7647 18.4991 16.7647H17.8226V18.2647H18.4991C20.294 18.2647 21.7491 16.8096 21.7491 15.0147V6.25C21.7491 4.45508 20.294 3 18.4991 3H9.73438C7.93945 3 6.48438 4.45508 6.48438 6.25V6.92647H7.98438V6.25C7.98438 5.2835 8.76788 4.5 9.73438 4.5Z" fill="black"/>
<path d="M3 9.75V18.75C3 20.4069 4.34315 21.75 6 21.75H15C16.6569 21.75 18 20.4069 18 18.75V9.75C18 8.09315 16.6569 6.75 15 6.75H6C4.34315 6.75 3 8.09315 3 9.75ZM10.5 11C10.9142 11 11.25 11.3358 11.25 11.75V13.5H13C13.4142 13.5 13.75 13.8358 13.75 14.25C13.75 14.6642 13.4142 15 13 15H11.25V16.75C11.25 17.1642 10.9142 17.5 10.5 17.5C10.0858 17.5 9.75 17.1642 9.75 16.75V15H8C7.58579 15 7.25 14.6642 7.25 14.25C7.25 13.8358 7.58579 13.5 8 13.5H9.75V11.75C9.75 11.3358 10.0858 11 10.5 11Z" fill="black"/>
</svg>
