<svg width="24" height="24" viewBox="0 0 24 24" fill="none" xmlns="http://www.w3.org/2000/svg">
<path d="M11.75 16.1716L21.3358 6.58579C22.1168 5.80474 22.1168 4.53841 21.3358 3.75736L20.1642 2.58579C19.3832 1.80474 18.1168 1.80474 17.3358 2.58579L7.75 12.1716V15.6716C7.75 15.9477 7.97386 16.1716 8.25 16.1716H11.75Z" fill="black"/>
<path d="M5.75 5.92157H10.75C11.1642 5.92157 11.5 5.58579 11.5 5.17157C11.5 4.75736 11.1642 4.42157 10.75 4.42157H5.75C3.67893 4.42157 2 6.1005 2 8.17157V18.1716C2 20.2426 3.67893 21.9216 5.75 21.9216H15.75C17.8211 21.9216 19.5 20.2426 19.5 18.1716V13.1716C19.5 12.7574 19.1642 12.4216 18.75 12.4216C18.3358 12.4216 18 12.7574 18 13.1716V18.1716C18 19.4142 16.9926 20.4216 15.75 20.4216H5.75C4.50736 20.4216 3.5 19.4142 3.5 18.1716V8.17157C3.5 6.92893 4.50736 5.92157 5.75 5.92157Z" fill="black"/>
</svg>
