<svg width="24" height="24" viewBox="0 0 24 24" fill="none" xmlns="http://www.w3.org/2000/svg">
<path d="M11.5 16C10.1193 16 9 17.1193 9 18.5C9 19.8807 10.1193 21 11.5 21C12.8807 21 14 19.8807 14 18.5C14 17.1193 12.8807 16 11.5 16Z" fill="black"/>
<path d="M11.5 9C10.1193 9 9 10.1193 9 11.5C9 12.8807 10.1193 14 11.5 14C12.8807 14 14 12.8807 14 11.5C14 10.1193 12.8807 9 11.5 9Z" fill="black"/>
<path d="M11.5 2C10.1193 2 9 3.11929 9 4.5C9 5.88071 10.1193 7 11.5 7C12.8807 7 14 5.88071 14 4.5C14 3.11929 12.8807 2 11.5 2Z" fill="black"/>
</svg>
