<svg width="24" height="24" viewBox="0 0 24 24" fill="none" xmlns="http://www.w3.org/2000/svg">
<path d="M7 12.5C7 11.1193 5.88071 10 4.5 10C3.11929 10 2 11.1193 2 12.5C2 13.8807 3.11929 15 4.5 15C5.88071 15 7 13.8807 7 12.5Z" fill="black"/>
<path d="M14 12.5C14 11.1193 12.8807 10 11.5 10C10.1193 10 9 11.1193 9 12.5C9 13.8807 10.1193 15 11.5 15C12.8807 15 14 13.8807 14 12.5Z" fill="black"/>
<path d="M21 12.5C21 11.1193 19.8807 10 18.5 10C17.1193 10 16 11.1193 16 12.5C16 13.8807 17.1193 15 18.5 15C19.8807 15 21 13.8807 21 12.5Z" fill="black"/>
</svg>
