<svg width="24" height="24" viewBox="0 0 24 24" fill="none" xmlns="http://www.w3.org/2000/svg">
<path d="M11.5 3C6.26128 3 2 7.26128 2 12.5C2 17.7387 6.26128 22 11.5 22C16.7387 22 21 17.7377 21 12.5C21 7.26233 16.7377 3 11.5 3ZM8.55566 9.3335V10.3891C8.55566 10.8033 8.21988 11.1391 7.80566 11.1391C7.39145 11.1391 7.05566 10.8033 7.05566 10.3891V9.3335C7.05566 8.91928 7.39145 8.5835 7.80566 8.5835C8.21988 8.5835 8.55566 8.91928 8.55566 9.3335ZM15.1943 8.5835C15.6085 8.5835 15.9443 8.91928 15.9443 9.3335V10.3891C15.9443 10.8033 15.6085 11.1391 15.1943 11.1391C14.7801 11.1391 14.4443 10.8033 14.4443 10.3891V9.3335C14.4443 8.91928 14.7801 8.5835 15.1943 8.5835ZM14.6668 14.6113C14.6668 16.3709 13.2598 17.778 11.5002 17.778C9.74055 17.778 8.3335 16.3709 8.3335 14.6113H14.6668Z" fill="black"/>
</svg>
