<svg width="24" height="24" viewBox="0 0 24 24" fill="none" xmlns="http://www.w3.org/2000/svg">
<path d="M18.2175 19.2175C21.9275 15.5075 21.9275 9.49248 18.2175 5.78249C14.5075 2.0725 8.49248 2.0725 4.78249 5.78249C1.0725 9.49245 1.0725 15.5075 4.78249 19.2175C8.49245 22.9275 14.5075 22.9275 18.2175 19.2175ZM7.80566 8.5835C8.21988 8.5835 8.55566 8.91928 8.55566 9.3335V10.3891C8.55566 10.8033 8.21988 11.1391 7.80566 11.1391C7.39145 11.1391 7.05566 10.8033 7.05566 10.3891V9.3335C7.05566 8.91928 7.39145 8.5835 7.80566 8.5835ZM15.9443 9.3335V10.3891C15.9443 10.8033 15.6085 11.1391 15.1943 11.1391C14.7801 11.1391 14.4443 10.8033 14.4443 10.3891V9.3335C14.4443 8.91928 14.7801 8.5835 15.1943 8.5835C15.6085 8.5835 15.9443 8.91928 15.9443 9.3335ZM11.55 14.688C11.9164 14.688 12.274 14.7203 12.6221 14.7823C12.9855 14.8469 13.3348 14.9432 13.67 15.0672C14.0089 15.1927 14.3253 15.3437 14.619 15.5139C15.0724 15.7768 15.3952 16.0345 15.5803 16.2197C15.8732 16.5126 15.8732 16.9874 15.5803 17.2803C15.2874 17.5732 14.8126 17.5732 14.5197 17.2803L14.4052 17.178L14.2319 17.0458C14.131 16.9738 14.0088 16.8941 13.8666 16.8116C13.6448 16.683 13.4052 16.5687 13.1493 16.4739C12.8964 16.3804 12.6331 16.3078 12.3594 16.2591C12.0969 16.2124 11.8272 16.188 11.55 16.188C11.2548 16.188 10.9681 16.2156 10.6898 16.2684C10.4192 16.3198 10.1591 16.3945 9.90983 16.4895C9.61904 16.6004 9.35143 16.7355 9.10916 16.8865C8.83787 17.0556 8.65788 17.2028 8.58015 17.2805C8.28716 17.5733 7.81228 17.5731 7.51949 17.2801C7.2267 16.9871 7.22686 16.5123 7.51986 16.2195C7.67379 16.0656 7.94085 15.8472 8.31573 15.6135C8.63732 15.4131 8.99094 15.2345 9.3755 15.0879C9.70576 14.962 10.0509 14.8629 10.4101 14.7947C10.7794 14.7247 11.1597 14.688 11.55 14.688Z" fill="black"/>
</svg>
