<svg width="24" height="24" viewBox="0 0 24 24" fill="none" xmlns="http://www.w3.org/2000/svg">
<path d="M11.5 22C16.7387 22 21 17.7377 21 12.5C21 7.26233 16.7377 3 11.5 3C6.26128 3 2 7.26128 2 12.5C2 17.7387 6.26128 22 11.5 22ZM15.9443 10.3891C15.9443 10.8033 15.6085 11.1391 15.1943 11.1391C14.7801 11.1391 14.4443 10.8033 14.4443 10.3891V9.3335C14.4443 8.91928 14.7801 8.5835 15.1943 8.5835C15.6085 8.5835 15.9443 8.91928 15.9443 9.3335V10.3891ZM8.55566 9.3335V10.3891C8.55566 10.8033 8.21988 11.1391 7.80566 11.1391C7.39145 11.1391 7.05566 10.8033 7.05566 10.3891V9.3335C7.05566 8.91928 7.39145 8.5835 7.80566 8.5835C8.21988 8.5835 8.55566 8.91928 8.55566 9.3335ZM8.33351 14.8046L8.33758 14.8085C8.3432 14.8138 8.35385 14.8237 8.36941 14.8377C8.40057 14.8655 8.45118 14.909 8.52033 14.9631C8.65897 15.0716 8.86993 15.2209 9.14587 15.3714C9.69797 15.6724 10.4986 15.9723 11.5001 15.9723C12.501 15.9723 13.3017 15.6725 13.854 15.3714C14.13 15.2209 14.3411 15.0715 14.4799 14.963C14.5491 14.9089 14.5997 14.8653 14.6309 14.8375C14.6465 14.8236 14.6572 14.8136 14.6628 14.8083L14.6673 14.804C14.9605 14.5141 15.4332 14.5152 15.7251 14.8073C16.0179 15.1003 16.0177 15.5752 15.7247 15.8679C15.4317 16.1607 15.7238 15.8689 15.7238 15.8689L15.7227 15.8699L15.7202 15.8724L15.7136 15.8789L15.694 15.8976C15.6782 15.9126 15.6569 15.9324 15.63 15.9563C15.5764 16.0042 15.5008 16.0689 15.404 16.1446C15.2107 16.2957 14.931 16.4926 14.572 16.6883C13.8542 17.0797 12.8077 17.4723 11.5001 17.4723C10.192 17.4723 9.14547 17.0797 8.42774 16.6883C8.06876 16.4926 7.78915 16.2956 7.59595 16.1444C7.49918 16.0687 7.42355 16.0041 7.36995 15.9562C7.34313 15.9322 7.32177 15.9124 7.30598 15.8974L7.28646 15.8787L7.27984 15.8722L7.27733 15.8697L7.27626 15.8687L7.27533 15.8677C6.98244 15.5748 6.98244 15.1 7.27533 14.8071C7.56728 14.5151 8.04039 14.5146 8.33351 14.8046Z" fill="black"/>
</svg>
