<svg width="24" height="24" viewBox="0 0 24 24" fill="none" xmlns="http://www.w3.org/2000/svg">
<path d="M6.18841 4C4.4275 4 3 5.4275 3 7.18841V16.0631C3 17.824 4.4275 19.2515 6.18841 19.2515H18.3116C20.0725 19.2515 21.5 17.824 21.5 16.0631V7.18841C21.5 5.4275 20.0725 4 18.3116 4H6.18841ZM6.5265 7.50767L11.2537 11.0571C11.8273 11.4878 12.6163 11.4878 13.1899 11.0571L17.8931 7.52569C18.2243 7.27698 18.6945 7.34388 18.9432 7.67511C19.1919 8.00635 19.125 8.47649 18.7938 8.7252L14.0905 12.2566C12.9834 13.0879 11.4602 13.0879 10.3531 12.2566L5.62584 8.70718C5.29461 8.45847 5.22771 7.98833 5.47642 7.65709C5.72513 7.32586 6.19526 7.25896 6.5265 7.50767Z" fill="black"/>
</svg>
