<svg width="24" height="24" viewBox="0 0 24 24" fill="none" xmlns="http://www.w3.org/2000/svg">
<path d="M3 12.5777L3 18C3 19.6569 4.34315 21 6 21H18C19.6569 21 21 19.6569 21 18V12.5739C20.9828 12.5859 20.9654 12.5978 20.9479 12.6096L15.0736 16.5618C13.2134 17.8134 10.7812 17.8134 8.92097 16.5618L3.04713 12.6099C3.0313 12.5993 3.01559 12.5885 3 12.5777ZM9.89297 4.00348L3.88337 8.04625C3.20252 8.50401 2.91518 9.27644 3.02156 10H3.02147C3.09915 10.5283 3.38673 11.0306 3.88429 11.3652L9.05397 14.8434L9.75829 15.3172C11.1123 16.2282 12.8823 16.2282 14.2363 15.3172L20.1103 11.3652C21.2883 10.5722 21.2883 8.83925 20.1103 8.04625L13.1163 3.34125C12.7765 3.11287 12.3843 2.99912 11.9923 3.00001C11.6033 3.0009 11.2145 3.11465 10.8774 3.34125L9.89297 4.00348Z" fill="black"/>
</svg>
