<svg width="24" height="24" viewBox="0 0 24 24" fill="none" xmlns="http://www.w3.org/2000/svg">
<path d="M15.2929 4.29289C14.9024 4.68342 14.9024 5.31658 15.2929 5.70711L17.0858 7.5H5C4.44772 7.5 4 7.94772 4 8.5C4 9.05228 4.44772 9.5 5 9.5H17.0858L15.2929 11.2929C14.9024 11.6834 14.9024 12.3166 15.2929 12.7071C15.6834 13.0976 16.3166 13.0976 16.7071 12.7071L20.2071 9.20711C20.5976 8.81658 20.5976 8.18342 20.2071 7.79289L16.7071 4.29289C16.3166 3.90237 15.6834 3.90237 15.2929 4.29289ZM9.20711 12.2929C8.81658 11.9024 8.18342 11.9024 7.79289 12.2929L4.29289 15.7929C3.90237 16.1834 3.90237 16.8166 4.29289 17.2071L7.79289 20.7071C8.18342 21.0976 8.81658 21.0976 9.20711 20.7071C9.59763 20.3166 9.59763 19.6834 9.20711 19.2929L7.41421 17.5H19.5C20.0523 17.5 20.5 17.0523 20.5 16.5C20.5 15.9477 20.0523 15.5 19.5 15.5H7.41421L9.20711 13.7071C9.59763 13.3166 9.59763 12.6834 9.20711 12.2929Z" fill="black"/>
</svg>
