<svg width="24" height="24" viewBox="0 0 24 24" fill="none" xmlns="http://www.w3.org/2000/svg">
<path d="M11.5926 5.00041L11.5576 5L11.4192 5.00635C10.6909 5.07328 10 5.67324 10 6.39128V6.41385L10.2972 13.5939L10.3064 13.7153C10.3834 14.3133 10.9134 14.7736 11.553 14.7736C12.2354 14.7736 12.7932 14.2501 12.8099 13.594L13.1106 6.41382V6.28799C13.0589 5.58671 12.3383 5.01793 11.5926 5.00041ZM11.5936 16.12C10.7991 16.12 10.155 16.7647 10.155 17.5599C10.155 18.3552 10.7991 18.9999 11.5936 18.9999C12.3882 18.9999 13.0323 18.3552 13.0323 17.5599C13.0323 16.7647 12.3882 16.12 11.5936 16.12Z" fill="black"/>
</svg>
