<svg width="24" height="24" viewBox="0 0 24 24" fill="none" xmlns="http://www.w3.org/2000/svg">
<path d="M8.64158 2.95248C9.66408 1.12784 11.9789 0.475525 13.8192 1.4526C14.4649 1.79544 15 2.31501 15.3572 2.95248L23.5211 17.5208C24.5586 19.3724 23.8493 21.6825 21.9831 22.6733C21.423 22.9707 20.7976 23.1257 20.1632 23.1257H3.83552C1.74108 23.1257 0 21.4577 0 19.3471C0 18.7073 0.164874 18.0791 0.477714 17.5208L8.64158 2.95248ZM12.0014 9L11.9125 9.00408C11.4442 9.04711 11 9.43287 11 9.89453V9.90904L11.1911 14.5255L11.197 14.6035C11.2465 14.9881 11.5873 15.284 11.9985 15.284C12.4373 15.284 12.7959 14.9474 12.8066 14.5255L13 9.90903V9.82812C12.9667 9.37723 12.5034 9.01153 12.024 9.00026L12.0014 9ZM11.0996 17.0762C11.0996 17.5875 11.5137 18.002 12.0246 18.002C12.5355 18.002 12.9496 17.5875 12.9496 17.0762C12.9496 16.5649 12.5355 16.1504 12.0246 16.1504C11.5137 16.1504 11.0996 16.5649 11.0996 17.0762Z" fill="black"/>
</svg>
