<svg width="24" height="24" viewBox="0 0 24 24" fill="none" xmlns="http://www.w3.org/2000/svg">
<path d="M20.1068 3H15.1164C14.5818 3 14.3141 3.64629 14.6921 4.02426L19.6825 9.01469C20.0605 9.39267 20.7068 9.12497 20.7068 8.59042V3.6C20.7068 3.26863 20.4382 3 20.1068 3Z" fill="black"/>
<path d="M3.39896 20.5C3.78946 20.8906 4.42263 20.8906 4.81317 20.5001L10.5485 14.7652C10.939 14.3747 10.9391 13.7416 10.5485 13.351C10.158 12.9605 9.52487 12.9605 9.13433 13.351L3.39901 19.0858C3.00847 19.4763 3.00845 20.1095 3.39896 20.5ZM12.9578 10.9419C13.3483 11.3325 13.9815 11.3325 14.372 10.942L20.1074 5.20714C20.4979 4.81663 20.4979 4.18346 20.1074 3.79292C19.7169 3.40238 19.0837 3.40236 18.6932 3.79287L12.9579 9.52773C12.5673 9.91824 12.5673 10.5514 12.9578 10.9419Z" fill="black"/>
<path d="M3.6 21H8.59042C9.12497 21 9.39267 20.3537 9.01469 19.9757L4.02426 14.9853C3.64628 14.6073 3 14.875 3 15.4096V20.4C3 20.7314 3.26863 21 3.6 21Z" fill="black"/>
</svg>
