<svg width="24" height="24" viewBox="0 0 24 24" fill="none" xmlns="http://www.w3.org/2000/svg">
<path d="M6 5.7002H11C11.5523 5.7002 12 5.25248 12 4.7002C12 4.14791 11.5523 3.7002 11 3.7002H6C3.79086 3.7002 2 5.49106 2 7.7002V17.7002C2 19.9093 3.79086 21.7002 6 21.7002H16C18.2091 21.7002 20 19.9093 20 17.7002V12.7002C20 12.1479 19.5523 11.7002 19 11.7002C18.4477 11.7002 18 12.1479 18 12.7002V17.7002C18 18.8048 17.1046 19.7002 16 19.7002H6C4.89543 19.7002 4 18.8048 4 17.7002V7.7002C4 6.59563 4.89543 5.7002 6 5.7002Z" fill="black"/>
<path d="M21.2081 2.49314C20.8176 2.10259 20.1845 2.10254 19.7939 2.49304L12.7929 9.49304C12.4024 9.88354 12.4023 10.5167 12.7928 10.9073C13.1833 11.2978 13.8165 11.2978 14.2071 10.9074L21.208 3.90735C21.5986 3.51685 21.5986 2.88369 21.2081 2.49314Z" fill="black"/>
<path d="M21.1401 2H16.1497C15.6152 2 15.3475 2.64629 15.7254 3.02426L20.7159 8.01469C21.0938 8.39267 21.7401 8.12497 21.7401 7.59042V2.6C21.7401 2.26863 21.4715 2 21.1401 2Z" fill="black"/>
</svg>
