<svg width="24" height="24" viewBox="0 0 24 24" fill="none" xmlns="http://www.w3.org/2000/svg">
<path d="M7.78503 6.84569C5.79393 7.98202 4.35131 9.75765 3.53344 10.9608C2.99927 11.7466 2.99927 12.7534 3.53344 13.5392C4.82173 15.4344 7.66016 18.75 11.7506 18.75C14.044 18.75 15.9437 17.7078 17.3974 16.4581L14.4931 13.5538C14.0046 14.5576 12.9695 15.25 11.7716 15.25C10.1032 15.25 8.75064 13.9069 8.75064 12.25C8.75064 11.053 9.45663 10.0197 10.4777 9.53834L7.78503 6.84569ZM14.7375 11.6769L18.4769 15.4162C19.0976 14.7481 19.5969 14.0848 19.9678 13.5392C20.502 12.7534 20.502 11.7466 19.9678 10.9608C18.6795 9.06563 15.8411 5.75 11.7506 5.75C10.8524 5.75 10.0145 5.90989 9.24017 6.17951L12.3694 9.30872C13.5651 9.54706 14.5056 10.4865 14.7375 11.6769ZM11.6914 10.752C10.8799 10.7933 10.2506 11.4574 10.2506 12.25C10.2506 13.0686 10.9217 13.75 11.7716 13.75C12.5867 13.75 13.2373 13.1233 13.2892 12.3499L11.6914 10.752Z" fill="black"/>
<path d="M3.21967 3.21967C2.92678 3.51256 2.92678 3.98744 3.21967 4.28033L19.2197 20.2803C19.5126 20.5732 19.9874 20.5732 20.2803 20.2803C20.5732 19.9874 20.5732 19.5126 20.2803 19.2197L4.28033 3.21967C3.98744 2.92678 3.51256 2.92678 3.21967 3.21967Z" fill="black"/>
</svg>
