<svg width="24" height="24" viewBox="0 0 24 24" fill="none" xmlns="http://www.w3.org/2000/svg">
<path d="M18.6126 5C19.0268 5 19.3626 5.33579 19.3626 5.75V17.556C19.3626 17.9703 19.0268 18.306 18.6126 18.306C18.1984 18.306 17.8626 17.9703 17.8626 17.556V5.75C17.8626 5.33579 18.1984 5 18.6126 5Z" fill="black"/>
<path d="M12.0129 6.11526L17.6771 10.8674C18.2579 11.2302 18.2579 12.0755 17.6762 12.4374L12.0129 17.1895C11.3963 17.5755 10.5957 17.1314 10.5957 16.404V13.6833L6.41717 17.1895C5.80062 17.5755 5 17.1314 5 16.404V6.90069C5 6.17334 5.80062 5.73014 6.41717 6.11526L10.5957 9.62093V6.90069C10.5957 6.17334 11.3963 5.73014 12.0129 6.11526Z" fill="black"/>
</svg>
