<svg width="24" height="24" viewBox="0 0 24 24" fill="none" xmlns="http://www.w3.org/2000/svg">
<path d="M12.6927 18.2643L15.1754 15.8083H10.045L11.5562 14.3083H16.6917L20.5267 10.5146C22.2743 8.76699 22.2743 6.05825 20.5267 4.31068C18.7791 2.56311 16.0704 2.56311 14.3228 4.31068L6.57689 12.0566C6.38935 12.2442 6.284 12.4985 6.284 12.7637V17.428L3.22165 20.4677C2.92767 20.7595 2.9259 21.2344 3.2177 21.5284C3.5095 21.8223 3.98438 21.8241 4.27836 21.5323L7.27949 18.5534C7.28099 18.5534 7.2825 18.5534 7.284 18.5534H11.9895C12.2528 18.5534 12.5055 18.4495 12.6927 18.2643Z" fill="black"/>
</svg>
