<svg width="24" height="24" viewBox="0 0 24 24" fill="none" xmlns="http://www.w3.org/2000/svg">
<path d="M17 22C18.6569 22 20 20.6569 20 19V11V7.6406C20 6.90586 19.7304 6.19666 19.2422 5.64751L16.895 3.00691C16.3257 2.36644 15.5097 2 14.6528 2H12H7C5.34315 2 4 3.34315 4 5V19C4 20.6569 5.34315 22 7 22H17ZM10.4996 11C10.4996 10.5858 10.8354 10.25 11.2496 10.25H12.2496C12.6638 10.25 12.9996 10.5858 12.9996 11V15.2501C13.4138 15.2501 13.7496 15.5858 13.7496 16.0001C13.7496 16.4143 13.4138 16.7501 12.9996 16.7501H11.4996C11.0854 16.7501 10.7496 16.4143 10.7496 16.0001C10.7496 15.5858 11.0854 15.2501 11.4996 15.2501L11.4996 11.75H11.2496C10.8354 11.75 10.4996 11.4142 10.4996 11ZM11 8.00001C10.996 7.448 11.444 7 11.996 7C12.552 7 13 7.448 13 8.00001C13 8.55202 12.552 9.00002 12 9.00002C11.448 9.00002 11 8.55202 11 8.00001Z" fill="black"/>
</svg>
