<svg width="24" height="24" viewBox="0 0 24 24" fill="none" xmlns="http://www.w3.org/2000/svg">
<path d="M20 18.5V11V7.6406C20 6.90586 19.7304 6.19666 19.2422 5.64751L16.895 3.00691C16.3257 2.36644 15.5097 2 14.6528 2H12H7.5C5.567 2 4 3.567 4 5.5V18.5C4 20.433 5.567 22 7.5 22H16.5C18.433 22 20 20.433 20 18.5ZM11.1926 15.9103C11.0762 15.7047 10.9655 15.5518 10.8579 15.403L10.8579 15.403L10.8578 15.403L10.8577 15.4028C10.8214 15.3526 10.7854 15.3029 10.7496 15.2517C10.6224 15.0698 10.4634 14.8253 10.4634 14.5125C10.4634 14.4162 10.4778 14.2969 10.4895 14.1997L10.4964 14.1416C10.5105 14.0194 10.5205 13.9041 10.5164 13.7931C10.5085 13.5786 10.4519 13.4277 10.2988 13.3173C10.1989 13.2453 10.0689 13.1864 9.88907 13.12C9.84077 13.1021 9.78634 13.0829 9.72814 13.0624C9.59024 13.0137 9.43118 12.9575 9.28246 12.8943C8.8241 12.6996 8.3342 12.39 7.98072 11.7275C7.93847 11.6483 7.89928 11.5727 7.86295 11.5006C7.84339 11.6643 7.83333 11.831 7.83333 12C7.83333 14.0549 9.32085 15.7623 11.2778 16.1043C11.2591 16.0444 11.2317 15.9793 11.1926 15.9103ZM13.9922 15.6522L13.9879 15.6628C15.0995 15.0582 15.9053 13.9623 16.1136 12.6665C15.9869 12.6405 15.8655 12.6099 15.7513 12.5742C15.4702 12.4866 15.1916 12.3562 14.9953 12.1529C14.7441 11.8925 14.626 11.6074 14.6279 11.3237C14.6298 11.0599 14.7351 10.8483 14.839 10.7089C14.965 10.5196 15.173 10.2445 15.406 10.0121C15.4588 9.95947 15.515 9.90683 15.5739 9.85668C15.0442 8.97542 14.1978 8.30617 13.1922 8.0064C13.2023 8.01969 13.212 8.03315 13.2212 8.04677C13.2918 8.15087 13.4344 8.42011 13.2531 8.69464C13.1746 8.81339 13.076 8.89909 13.0024 8.95759C12.9691 8.98403 12.9351 9.00935 12.9074 9.02995L12.8977 9.03718C12.866 9.06081 12.8426 9.07848 12.8226 9.09504L12.8171 9.09966C12.8521 9.23625 12.9036 9.44013 12.8881 9.62787C12.8777 9.75397 12.8387 9.88793 12.7493 10.0123C12.6622 10.1336 12.5454 10.2207 12.418 10.285C12.3093 10.3398 12.2115 10.3708 12.1286 10.3903C12.0728 10.7036 11.8325 10.9072 11.6561 11.019C11.5864 11.0631 11.5128 11.1021 11.4387 11.1363L11.0731 11.4104C11.1859 11.4946 11.3683 11.6092 11.6585 11.7556L11.7464 11.8L11.8052 11.879C11.8203 11.8994 11.8735 11.9593 11.9572 12.0197C12.0394 12.079 12.1329 12.1257 12.2284 12.145C12.2899 12.1574 12.415 12.1631 12.6292 12.1689L12.6599 12.1697L12.66 12.1697C12.8486 12.1747 13.0778 12.1808 13.304 12.2026C13.5395 12.2252 13.8006 12.2671 14.0305 12.3571C14.2585 12.4464 14.514 12.6068 14.6392 12.9017C14.7527 13.1688 14.7271 13.4685 14.6786 13.7086C14.6277 13.9611 14.535 14.2227 14.442 14.4547C14.374 14.6242 14.3 14.7916 14.2375 14.9331L14.2374 14.9331L14.2374 14.9333C14.2148 14.9843 14.1938 15.032 14.175 15.0751C14.1379 15.1607 14.1105 15.2266 14.0929 15.2758C14.0865 15.2935 14.0828 15.3055 14.0806 15.3127C14.0733 15.4417 14.026 15.569 13.9922 15.6522ZM17 12C17 14.7614 14.7614 17 12 17C9.23858 17 7 14.7614 7 12C7 9.23858 9.23858 7 12 7C13.8596 7 15.4821 8.01518 16.3435 9.52158L16.3534 9.52203L16.3526 9.53749C16.7647 10.2644 17 11.1047 17 12Z" fill="black"/>
</svg>
