<svg width="24" height="24" viewBox="0 0 24 24" fill="none" xmlns="http://www.w3.org/2000/svg">
<path d="M9.50018 22L18.5002 22C20.4332 22 22.0002 20.433 22.0002 18.5V7.6406C22.0002 6.90586 21.7305 6.19666 21.2424 5.64751L18.8952 3.00691C18.3259 2.36644 17.5099 2 16.653 2L9.50018 2C7.56719 2 6.00018 3.567 6.00018 5.5V11.0189L11.0796 11.0186V8.5278C11.0796 7.99325 11.7259 7.72555 12.1039 8.10353L15.6137 11.6134C15.8481 11.8477 15.8481 12.2276 15.6137 12.4619L12.1039 15.9717C11.7259 16.3497 11.0796 16.082 11.0796 15.5475L11.0796 13.0186L6.00018 13.0189V18.5C6.00018 20.433 7.56719 22 9.50018 22ZM3.00023 13.0193L6.00018 13.0189V11.0189L2.99977 11.0193C2.44749 11.0195 1.99988 11.4673 2 12.0196C2.00013 12.5718 2.44794 13.0195 3.00023 13.0193Z" fill="black"/>
</svg>
