<svg width="24" height="24" viewBox="0 0 24 24" fill="none" xmlns="http://www.w3.org/2000/svg">
<path d="M20 18.5V11V7.6406C20 6.90586 19.7304 6.19666 19.2422 5.64751L16.895 3.00691C16.3257 2.36644 15.5097 2 14.6528 2H12H7.5C5.567 2 4 3.567 4 5.5V18.5C4 20.433 5.567 22 7.5 22H16.5C18.433 22 20 20.433 20 18.5ZM15.6335 16.5C15.6335 17.3284 14.962 18 14.1335 18H9.80019C8.97177 18 8.30019 17.3284 8.30019 16.5V8.5C8.30019 7.67157 8.97177 7 9.80019 7H14.1335C14.962 7 15.6335 7.67157 15.6335 8.5V16.5ZM11.2337 15.6635C11.2337 16.0606 11.5556 16.3825 11.9526 16.3825H11.9814C12.3785 16.3825 12.7004 16.0606 12.7004 15.6635C12.7004 15.2665 12.3785 14.9446 11.9814 14.9446H11.9526C11.5556 14.9446 11.2337 15.2665 11.2337 15.6635Z" fill="black"/>
</svg>
