<svg width="24" height="24" viewBox="0 0 24 24" fill="none" xmlns="http://www.w3.org/2000/svg">
<path d="M20 19V11V7.6406C20 6.90586 19.7304 6.19666 19.2422 5.64751L16.895 3.00691C16.3257 2.36644 15.5097 2 14.6528 2H12H7C5.34315 2 4 3.34315 4 5V19C4 20.6569 5.34315 22 7 22H17C18.6569 22 20 20.6569 20 19ZM7 13.5C7 12.235 7.9425 11.2005 9.162 11.034C9.5645 9.8515 10.6815 9 12 9C13.657 9 15 10.343 15 12C16.1045 12 17 12.8955 17 14C17 15.1045 16.1045 16 15 16H9.5C8.1195 16 7 14.8805 7 13.5Z" fill="black"/>
</svg>
