<svg width="24" height="24" viewBox="0 0 24 24" fill="none" xmlns="http://www.w3.org/2000/svg">
<path d="M20 19V11V7.6406C20 6.90586 19.7304 6.19666 19.2422 5.64751L16.895 3.00691C16.3257 2.36644 15.5097 2 14.6528 2H12H7C5.34315 2 4 3.34315 4 5V19C4 20.6569 5.34315 22 7 22H17C18.6569 22 20 20.6569 20 19ZM12.0014 8L12.024 8.00026C12.5034 8.01153 12.9667 8.37723 13 8.82812V8.90903L12.8066 13.5255C12.7959 13.9474 12.4373 14.284 11.9985 14.284C11.5873 14.284 11.2465 13.9881 11.197 13.6035L11.1911 13.5255L11 8.90904V8.89453C11 8.43286 11.4442 8.04711 11.9125 8.00408L12.0014 8ZM11.1001 16.0758C11.1001 15.5645 11.5142 15.15 12.0251 15.15C12.536 15.15 12.9501 15.5645 12.9501 16.0758C12.9501 16.5871 12.536 17.0017 12.0251 17.0017C11.5142 17.0017 11.1001 16.5871 11.1001 16.0758Z" fill="black"/>
</svg>
