<svg width="24" height="24" viewBox="0 0 24 24" fill="none" xmlns="http://www.w3.org/2000/svg">
<path d="M16.5 22C18.433 22 20 20.433 20 18.5V11V7.6406C20 6.90586 19.7304 6.19666 19.2422 5.64751L16.895 3.00691C16.3257 2.36644 15.5097 2 14.6528 2H12H7.5C5.567 2 4 3.567 4 5.5V18.5C4 20.433 5.567 22 7.5 22H16.5ZM10.4038 12.4535H10.0719C9.90617 12.4535 9.77185 12.3192 9.77185 12.1535V11.3C9.77185 11.1343 9.90617 11 10.0719 11H10.4038H16.1399H16.4719C16.6375 11 16.7719 11.1343 16.7719 11.3V12.1535C16.7719 12.3192 16.6375 12.4535 16.4719 12.4535H16.1399H10.4038ZM8.05673 11C8.4581 11 8.78347 11.3254 8.78347 11.7267C8.78347 12.1281 8.4581 12.4535 8.05673 12.4535C7.65536 12.4535 7.32999 12.1281 7.32999 11.7267C7.32999 11.3254 7.65536 11 8.05673 11ZM10.4038 15.3605H10.0719C9.90617 15.3605 9.77185 15.2262 9.77185 15.0605V14.207C9.77185 14.0413 9.90617 13.907 10.0719 13.907H10.4038H16.1399H16.4719C16.6375 13.907 16.7719 14.0413 16.7719 14.207V15.0605C16.7719 15.2262 16.6375 15.3605 16.4719 15.3605H16.1399H10.4038ZM8.05673 13.907C8.4581 13.907 8.78347 14.2324 8.78347 14.6337C8.78347 15.0351 8.4581 15.3605 8.05673 15.3605C7.65536 15.3605 7.32999 15.0351 7.32999 14.6337C7.32999 14.2324 7.65536 13.907 8.05673 13.907ZM10.4038 18.2675H10.0719C9.90617 18.2675 9.77185 18.1331 9.77185 17.9675V17.114C9.77185 16.9483 9.90617 16.814 10.0719 16.814H10.4038H16.1399H16.4719C16.6375 16.814 16.7719 16.9483 16.7719 17.114V17.9675C16.7719 18.1331 16.6375 18.2675 16.4719 18.2675H16.1399H10.4038ZM8.05673 16.814C8.4581 16.814 8.78347 17.1393 8.78347 17.5407C8.78347 17.9421 8.4581 18.2675 8.05673 18.2675C7.65536 18.2675 7.32999 17.9421 7.32999 17.5407C7.32999 17.1393 7.65536 16.814 8.05673 16.814Z" fill="black"/>
</svg>
