<svg width="24" height="24" viewBox="0 0 24 24" fill="none" xmlns="http://www.w3.org/2000/svg">
<path d="M16.5 22C18.433 22 20 20.433 20 18.5V11V7.6406C20 6.90586 19.7304 6.19666 19.2422 5.64751L16.895 3.00691C16.3257 2.36644 15.5097 2 14.6528 2H12H7.5C5.567 2 4 3.567 4 5.5V18.5C4 20.433 5.567 22 7.5 22H16.5ZM10.5001 13.8001C11.3835 13.8001 12.1001 14.5167 12.1001 15.4001C12.1001 16.2834 11.3835 17.0001 10.5001 17.0001C9.90014 17.0001 9.60014 16.9001 9.30014 16.8001C9.00014 16.7001 8.70014 16.6001 8.10014 16.6001C8.37892 16.3213 8.56055 15.8968 8.74659 15.462C9.09443 14.649 9.45769 13.8001 10.5001 13.8001ZM15.4683 9.23853C15.8503 8.90453 16.4256 8.9232 16.785 9.28253C17.1436 9.6412 17.163 10.2172 16.8283 10.5985L13.6029 14.2852C13.2543 14.6845 12.6396 14.7052 12.2643 14.3299L11.7369 13.8025C11.3616 13.4279 11.3823 12.8132 11.7816 12.4639L15.4683 9.23853Z" fill="black"/>
</svg>
