<svg width="24" height="24" viewBox="0 0 24 24" fill="none" xmlns="http://www.w3.org/2000/svg">
<path d="M20 18.5V11V7.6406C20 6.90586 19.7304 6.19666 19.2422 5.64751L16.895 3.00691C16.3257 2.36644 15.5097 2 14.6528 2H12H7.5C5.567 2 4 3.567 4 5.5V18.5C4 20.433 5.567 22 7.5 22H16.5C18.433 22 20 20.433 20 18.5ZM7 12.1733C7 10.9728 7.97277 10 9.17333 10H10.2889C10.565 10 10.7889 10.2239 10.7889 10.5C10.7889 10.7761 10.565 11 10.2889 11H9.17333C8.52505 11 8 11.5251 8 12.1733C8 12.8216 8.52505 13.3467 9.17333 13.3467H9.78889V12.6733H9.35926C9.08312 12.6733 8.85926 12.4495 8.85926 12.1733C8.85926 11.8972 9.08312 11.6733 9.35926 11.6733H10.2889C10.565 11.6733 10.7889 11.8972 10.7889 12.1733V13.8467C10.7889 14.1228 10.565 14.3467 10.2889 14.3467H9.17333C7.97277 14.3467 7 13.3739 7 12.1733ZM12.7969 10.5V13.8467C12.7969 14.1228 12.573 14.3467 12.2969 14.3467C12.0207 14.3467 11.7969 14.1228 11.7969 13.8467V10.5C11.7969 10.2239 12.0207 10 12.2969 10C12.573 10 12.7969 10.2239 12.7969 10.5ZM13.7969 10.5039C13.7969 10.2278 14.0207 10.0039 14.2969 10.0039H16.2008C16.4769 10.0039 16.7008 10.2278 16.7008 10.5039C16.7008 10.78 16.4769 11.0039 16.2008 11.0039H14.7969V11.6729H15.8735C16.1497 11.6729 16.3735 11.8967 16.3735 12.1729C16.3735 12.449 16.1497 12.6729 15.8735 12.6729H14.7969V13.8476C14.7969 14.1237 14.573 14.3476 14.2969 14.3476C14.0207 14.3476 13.7969 14.1237 13.7969 13.8476V12.1729V10.5039Z" fill="black"/>
</svg>
