<svg width="24" height="24" viewBox="0 0 24 24" fill="none" xmlns="http://www.w3.org/2000/svg">
<path d="M13.745 5.69174C13.7374 3.86525 15.2101 2.39251 17.0366 2.40003L17.0367 2.40003C18.8652 2.4078 20.3559 3.89609 20.3675 5.72372L20.2728 10.9723L20.2726 10.9879C20.2772 12.076 19.4006 12.9526 18.3125 12.948C17.2225 12.9434 16.3329 12.0563 16.3243 10.9672L16.4238 5.7144L16.4239 5.69823C16.4224 5.34859 16.7029 5.06815 17.0525 5.06962C17.4041 5.07109 17.6925 5.35695 17.698 5.70768L17.5958 10.2873C17.5872 10.6738 17.8935 10.9941 18.28 11.0027C18.6665 11.0113 18.9868 10.705 18.9954 10.3185L19.0979 5.72799L19.0981 5.70944C19.0934 4.58664 18.1811 3.67433 17.0583 3.66963C15.9339 3.66492 15.024 4.57194 15.0239 5.69515L14.9244 10.9494L14.9243 10.9656C14.9321 12.8267 16.4455 14.3401 18.3066 14.348H18.3066C20.1697 14.3558 21.676 12.8523 21.6727 10.9903L21.7674 5.74083L21.7675 5.72528C21.7567 3.1256 19.6421 1.01104 17.0425 1.00004L17.0425 1.00004C14.4409 0.989281 12.3385 3.08896 12.345 5.68949L12.2501 10.9388C12.2431 11.3253 12.5508 11.6443 12.9374 11.6513C13.3239 11.6583 13.6429 11.3506 13.6499 10.9641L13.7449 5.70731L13.745 5.69174ZM11.4 11.7V5.05444C11.4 4.21114 11.611 3.40717 11.9888 2.7H11H6.5C4.567 2.7 3 4.267 3 6.2V19.2C3 21.133 4.567 22.7 6.5 22.7H15.5C17.433 22.7 19 21.133 19 19.2V15.3059C15.3662 15.9334 13.9 12.9977 13.9 12.2C12.9 13.7 11.4 12.7 11.4 11.7Z" fill="black"/>
</svg>
