<svg width="24" height="24" viewBox="0 0 24 24" fill="none" xmlns="http://www.w3.org/2000/svg">
<path d="M17 22C18.6569 22 20 20.6569 20 19V11V7.6406C20 6.90586 19.7304 6.19666 19.2422 5.64751L16.895 3.00691C16.3257 2.36644 15.5097 2 14.6528 2H12H7C5.34315 2 4 3.34315 4 5V19C4 20.6569 5.34315 22 7 22H17ZM13.3027 13.7998C14.6471 13.7998 15.7573 14.7793 15.9867 16.0629C15.9935 16.1008 15.9978 16.1644 15.9998 16.254C16.0086 16.6572 15.6815 16.991 15.2691 16.9996L15.2531 16.9998H8.74688C8.33439 16.9998 8 16.6729 8 16.2697L8.00019 16.2531C8.00216 16.1684 8.0063 16.1081 8.01263 16.072C8.23226 14.8192 9.29052 13.8539 10.5881 13.802L10.6982 13.7998H13.3027ZM14 11C14 12.1046 13.1046 13 12 13C10.8954 13 10 12.1046 10 11C10 9.89543 10.8954 9 12 9C13.1046 9 14 9.89543 14 11Z" fill="black"/>
</svg>
