<svg width="24" height="24" viewBox="0 0 24 24" fill="none" xmlns="http://www.w3.org/2000/svg">
<path d="M20 18.5V11V7.6406C20 6.90586 19.7304 6.19666 19.2422 5.64751L16.895 3.00691C16.3257 2.36644 15.5097 2 14.6528 2H12H7.5C5.567 2 4 3.567 4 5.5V18.5C4 20.433 5.567 22 7.5 22H16.5C18.433 22 20 20.433 20 18.5ZM8 8.3999H9.27409C9.55024 8.3999 9.77409 8.62376 9.77409 8.8999V9.08228H14.209V8.8999C14.209 8.62376 14.4329 8.3999 14.709 8.3999H15.9831C16.2593 8.3999 16.4831 8.62376 16.4831 8.8999V10.174C16.4831 10.4501 16.2593 10.674 15.9831 10.674H15.8856V14.4258H15.9831C16.2593 14.4258 16.4831 14.6496 16.4831 14.9258V16.1999C16.4831 16.476 16.2593 16.6999 15.9831 16.6999H14.709C14.4329 16.6999 14.209 16.476 14.209 16.1999V16.1888H9.77409V16.1999C9.77409 16.476 9.55024 16.6999 9.27409 16.6999H8C7.72386 16.6999 7.5 16.476 7.5 16.1999V14.9258C7.5 14.6496 7.72386 14.4258 8 14.4258H8.06836V10.674H8C7.72386 10.674 7.5 10.4501 7.5 10.174V8.8999C7.5 8.62376 7.72386 8.3999 8 8.3999ZM9.77409 14.9258V15.1888H14.209V14.9258C14.209 14.6496 14.4329 14.4258 14.709 14.4258H14.8856V10.674H14.709C14.4329 10.674 14.209 10.4501 14.209 10.174V10.0823H9.77409V10.174C9.77409 10.4501 9.55024 10.674 9.27409 10.674H9.06836V14.4258H9.27409C9.55024 14.4258 9.77409 14.6496 9.77409 14.9258Z" fill="black"/>
</svg>
