<svg width="24" height="24" viewBox="0 0 24 24" fill="none" xmlns="http://www.w3.org/2000/svg">
<path d="M20 18.5V11V7.6406C20 6.90586 19.7304 6.19666 19.2422 5.64751L16.895 3.00691C16.3257 2.36644 15.5097 2 14.6528 2H12H7.5C5.567 2 4 3.567 4 5.5V18.5C4 20.433 5.567 22 7.5 22H16.5C18.433 22 20 20.433 20 18.5ZM9 14.25H15C15.4142 14.25 15.75 14.5858 15.75 15C15.75 15.4142 15.4142 15.75 15 15.75H9C8.58579 15.75 8.25 15.4142 8.25 15C8.25 14.5858 8.58579 14.25 9 14.25ZM8.25 12.5C8.25 12.0858 8.58579 11.75 9 11.75H15C15.4142 11.75 15.75 12.0858 15.75 12.5C15.75 12.9142 15.4142 13.25 15 13.25H9C8.58579 13.25 8.25 12.9142 8.25 12.5ZM9 9.25H15C15.4142 9.25 15.75 9.58579 15.75 10C15.75 10.4142 15.4142 10.75 15 10.75H9C8.58579 10.75 8.25 10.4142 8.25 10C8.25 9.58579 8.58579 9.25 9 9.25Z" fill="black"/>
</svg>
