<svg width="24" height="24" viewBox="0 0 24 24" fill="none" xmlns="http://www.w3.org/2000/svg">
<path d="M20 19V11V7.6406C20 6.90586 19.7304 6.19666 19.2422 5.64751L16.895 3.00691C16.3257 2.36644 15.5097 2 14.6528 2H12L7 2C5.34315 2 4 3.34315 4 5L4 19C4 20.6569 5.34315 22 7 22H17C18.6569 22 20 20.6569 20 19ZM15.2245 9.78144C15.4787 10.0349 15.4795 10.4467 15.2262 10.7011L12.9371 13.0009L15.1777 15.2555C15.4308 15.5101 15.4297 15.9219 15.1753 16.1751C14.921 16.4284 14.5096 16.4273 14.2565 16.1727L12.0201 13.9222L9.7559 16.1969C9.50266 16.4513 9.0913 16.452 8.83709 16.1985C8.58289 15.945 8.58211 15.5333 8.83535 15.2789L11.1036 13L8.83346 10.7157C8.58039 10.461 8.58146 10.0493 8.83584 9.79602C9.09022 9.54275 9.50158 9.54386 9.75464 9.7985L12.0207 12.0787L14.3057 9.7831C14.5589 9.52868 14.9703 9.52794 15.2245 9.78144Z" fill="black"/>
</svg>
