<svg width="24" height="24" viewBox="0 0 24 24" fill="none" xmlns="http://www.w3.org/2000/svg">
<path d="M14.6528 2H7.5C5.567 2 4 3.56701 4 5.5V18.5C4 20.4329 5.567 22 7.5 22H16.5C18.433 22 20 20.4329 20 18.5V7.6406C20 6.90586 19.7304 6.19666 19.2422 5.64751L16.895 3.00691C16.3257 2.36644 15.5097 2 14.6528 2ZM10.01 13.4004C10.701 13.4151 11.1025 13.8762 11.1977 14.5523C11.2348 14.8159 11.2335 15.0849 11.1976 15.4525L11.1502 15.8564L11.0314 16.7178L11.0037 16.9627C11.0002 16.9987 10.9972 17.0325 10.9948 17.0644L10.9865 17.2352L10.9868 17.3076L10.989 17.373L11.0372 17.3557C11.0896 17.3344 11.1462 17.3079 11.2056 17.2773L11.2966 17.2284C11.4443 17.1457 11.5704 17.062 11.6717 16.9895L11.8445 16.8838L12.0656 16.7584L12.1899 16.6921C12.2796 16.6454 12.3674 16.6023 12.4526 16.5636C12.5814 16.5052 12.7025 16.4577 12.8165 16.4226C13.1665 16.3149 13.6911 16.2828 14.3849 16.297C14.6049 16.3015 14.8341 16.3108 15.0676 16.324L15.7241 16.3694L16.0496 16.3988C16.3792 16.4324 16.6193 16.7268 16.5857 17.0565C16.5522 17.3862 16.2577 17.6262 15.928 17.5927L15.4875 17.5545L15.336 17.5434C14.9997 17.5197 14.6682 17.5031 14.3603 17.4968L14.0026 17.4946C13.9467 17.4952 13.8927 17.4962 13.8409 17.4976L13.5563 17.5116C13.3852 17.5243 13.2528 17.5439 13.1694 17.5695C13.1094 17.588 13.0341 17.6176 12.9483 17.6565L12.7444 17.7563L12.5461 17.864L12.3485 17.9797L12.1954 18.0856L11.9962 18.2101C11.9597 18.2317 11.9217 18.2536 11.8825 18.2756C11.7494 18.35 11.6183 18.4147 11.4897 18.4671C11.3589 18.5204 11.2326 18.5601 11.1088 18.5839C10.3671 18.7261 9.88963 18.2865 9.8044 17.5788C9.78579 17.4244 9.78012 17.2802 9.78865 17.1033L9.8058 16.8725L9.83709 16.5939L9.95718 15.7243L9.99746 15.3882C10.0234 15.1368 10.0303 14.9529 10.0186 14.8046L10.0024 14.6601L9.9988 14.5989L9.98443 14.6001C9.69431 14.5939 9.33559 14.992 9.01836 15.7339C8.89018 16.0337 8.78113 16.3595 8.69208 16.6859L8.61659 16.9832L8.58886 17.1111C8.52529 17.4364 8.21011 17.6485 7.8849 17.5849C7.55968 17.5213 7.34757 17.2062 7.41114 16.8809L7.44583 16.7198L7.49992 16.4996C7.51058 16.4584 7.52207 16.4152 7.5344 16.37C7.63694 15.9942 7.76294 15.6178 7.91499 15.2621C8.40794 14.1093 9.06485 13.3803 10.01 13.4004Z" fill="black"/>
</svg>
