<svg width="24" height="24" viewBox="0 0 24 24" fill="none" xmlns="http://www.w3.org/2000/svg">
<path d="M20 18.5V11V7.6406C20 6.90586 19.7304 6.19666 19.2422 5.64751L16.895 3.00691C16.3257 2.36644 15.5097 2 14.6528 2H12H10.5V3H9.5V4H10.5V5H9.5V6H10.5V7H9.5V8H10.5V9H9.5V10H10.5V11H9.5V12H10.1197C10.3432 12 10.538 12.1521 10.5922 12.3689L11.0149 14.0597C11.2613 15.0453 10.5159 16 9.5 16C8.4841 16 7.73868 15.0453 7.98507 14.0597L8.40777 12.3689C8.46197 12.1521 8.65678 12 8.88028 12H8.5V11H9.5V10H8.5V9H9.5V8H8.5V7H9.5V6H8.5V5H9.5V4H8.5V3H9.5V2H7.5C5.567 2 4 3.567 4 5.5V18.5C4 20.433 5.567 22 7.5 22H16.5C18.433 22 20 20.433 20 18.5ZM10.5 14.72C10.5 14.3224 10.0523 14 9.5 14C8.94771 14 8.5 14.3224 8.5 14.72C8.5 15.1176 8.94771 15.44 9.5 15.44C10.0523 15.44 10.5 15.1176 10.5 14.72Z" fill="black"/>
</svg>
