<svg width="24" height="24" viewBox="0 0 24 24" fill="none" xmlns="http://www.w3.org/2000/svg">
<path d="M20 18.5V11V7.6406C20 6.90586 19.7304 6.19666 19.2422 5.64751L16.895 3.00691C16.3257 2.36644 15.5097 2 14.6528 2H12H7.5C5.567 2 4 3.567 4 5.5V18.5C4 20.433 5.567 22 7.5 22H16.5C18.433 22 20 20.433 20 18.5ZM13.4731 12.6613L11.1184 13.9992L13.4731 15.337C13.4888 15.346 13.5038 15.3556 13.5181 15.3659C13.7812 15.1379 14.1245 15 14.5 15C15.3285 15 16 15.6715 16 16.5C16 17.3285 15.3285 18 14.5 18C13.6715 18 13 17.3285 13 16.5C13 16.4076 13.0084 16.3171 13.0244 16.2293C13.009 16.2226 12.9939 16.2149 12.979 16.2065L10.694 14.9082C10.42 15.2679 9.98713 15.5 9.5 15.5C8.6715 15.5 8 14.8285 8 14C8 13.1715 8.6715 12.5 9.5 12.5C9.9866 12.5 10.419 12.7316 10.6931 13.0907L12.979 11.7918C12.9938 11.7834 13.0089 11.7759 13.0241 11.7691C13.0083 11.6818 13 11.5919 13 11.5C13 10.6715 13.6715 10 14.5 10C15.3285 10 16 10.6715 16 11.5C16 12.3285 15.3285 13 14.5 13C14.124 13 13.7803 12.8617 13.5171 12.6332C13.5031 12.6432 13.4884 12.6526 13.4731 12.6613Z" fill="black"/>
</svg>
