<svg width="24" height="24" viewBox="0 0 24 24" fill="none" xmlns="http://www.w3.org/2000/svg">
<path d="M20 18.5V11V7.6406C20 6.90586 19.7304 6.19666 19.2422 5.64751L16.895 3.00691C16.3257 2.36644 15.5097 2 14.6528 2H12H7.5C5.567 2 4 3.567 4 5.5V18.5C4 20.433 5.567 22 7.5 22H16.5C18.433 22 20 20.433 20 18.5ZM10.0295 10.6993L8.26765 12.4611L10.0295 14.2229C10.2247 14.4182 10.2247 14.7348 10.0295 14.93C9.83422 15.1253 9.51764 15.1253 9.32238 14.93L7.20699 12.8146C7.01173 12.6194 7.01173 12.3028 7.20699 12.1075L9.32238 9.99215C9.51764 9.79689 9.83422 9.79689 10.0295 9.99215C10.2247 10.1874 10.2247 10.504 10.0295 10.6993ZM13.9764 14.9307C13.7811 14.7354 13.7811 14.4189 13.9764 14.2236L15.7382 12.4618L13.9764 10.6999C13.7811 10.5047 13.7811 10.1881 13.9764 9.99283C14.1716 9.79756 14.4882 9.79756 14.6835 9.99283L16.7989 12.1082C16.9941 12.3035 16.9941 12.6201 16.7989 12.8153L14.6835 14.9307C14.4882 15.126 14.1716 15.126 13.9764 14.9307ZM13.1256 9.61242L11.8563 15.1124C11.7942 15.3815 11.5258 15.5493 11.2567 15.4872C10.9876 15.4251 10.8199 15.1566 10.8819 14.8876L12.1512 9.38756C12.2133 9.11849 12.4817 8.9507 12.7508 9.01279C13.0199 9.07489 13.1877 9.34335 13.1256 9.61242Z" fill="black"/>
</svg>
