<svg width="24" height="24" viewBox="0 0 24 24" fill="none" xmlns="http://www.w3.org/2000/svg">
<path d="M16.5 22C18.433 22 20 20.433 20 18.5V11V7.6406C20 6.90586 19.7304 6.19666 19.2422 5.64751L16.895 3.00691C16.3257 2.36644 15.5097 2 14.6528 2H12H7.5C5.567 2 4 3.567 4 5.5V18.5C4 20.433 5.567 22 7.5 22H16.5ZM8 9.5C8 8.67157 8.67157 8 9.5 8H11.5V7.5C11.5 7.22386 11.7239 7 12 7C12.2761 7 12.5 7.22386 12.5 7.5V8H14.5C15.3284 8 16 8.67157 16 9.5V12.5C16 13.2642 15.4286 13.8948 14.6897 13.9881L15.4743 16.3419C15.5617 16.6039 15.4201 16.887 15.1581 16.9743C14.8961 17.0617 14.613 16.9201 14.5257 16.6581L13.6396 14H10.3604L9.47434 16.6581C9.38702 16.9201 9.10386 17.0617 8.84189 16.9743C8.57991 16.887 8.43833 16.6039 8.52566 16.3419L9.31025 13.9881C8.57141 13.8948 8 13.2642 8 12.5V9.5Z" fill="black"/>
</svg>
