<svg width="24" height="24" viewBox="0 0 24 24" fill="none" xmlns="http://www.w3.org/2000/svg">
<path d="M20 19V11V7.6406C20 6.90586 19.7304 6.19666 19.2422 5.64751L16.895 3.00691C16.3257 2.36644 15.5097 2 14.6528 2H12H7C5.34315 2 4 3.34315 4 5V19C4 20.6569 5.34315 22 7 22H17C18.6569 22 20 20.6569 20 19ZM7.62505 12.3C11.1185 12.3 13.9505 15.1321 13.9505 18.6255C13.9505 19.0121 13.6371 19.3255 13.2505 19.3255C12.8639 19.3255 12.5505 19.0121 12.5505 18.6255C12.5505 15.9053 10.3453 13.7 7.62505 13.7C7.23845 13.7 6.92505 13.3866 6.92505 13C6.92505 12.6134 7.23845 12.3 7.62505 12.3ZM7.62505 14.8003C9.73768 14.8003 11.4503 16.5129 11.4503 18.6255C11.4503 19.0121 11.1369 19.3255 10.7503 19.3255C10.3637 19.3255 10.0503 19.0121 10.0503 18.6255C10.0503 17.2861 8.96448 16.2003 7.62505 16.2003C7.23845 16.2003 6.92505 15.8869 6.92505 15.5003C6.92505 15.1137 7.23845 14.8003 7.62505 14.8003ZM8.50012 18.2501C8.50012 18.6643 8.16431 19.0001 7.75006 19.0001C7.33581 19.0001 7 18.6643 7 18.2501C7 17.8358 7.33581 17.5 7.75006 17.5C8.16431 17.5 8.50012 17.8358 8.50012 18.2501Z" fill="black"/>
</svg>
