<svg width="24" height="24" viewBox="0 0 24 24" fill="none" xmlns="http://www.w3.org/2000/svg">
<path d="M20 19V7.6406C20 6.90586 19.7304 6.19666 19.2422 5.64751L16.895 3.00691C16.3257 2.36644 15.5097 2 14.6528 2H7C5.34315 2 4 3.34315 4 5V19C4 20.6569 5.34315 22 7 22H17C18.6569 22 20 20.6569 20 19ZM9.96335 10.8173C10.32 10.1039 11.1258 9.3999 12.1001 9.3999C13.3458 9.3999 14.4144 10.4686 14.4144 11.7143C14.4144 12.7537 13.6703 13.67 12.7001 13.9448V14.1143C12.7001 14.4457 12.4314 14.7143 12.1001 14.7143C11.7687 14.7143 11.5001 14.4457 11.5001 14.1143V13.4286C11.5001 13.0972 11.7687 12.8286 12.1001 12.8286C12.683 12.8286 13.2144 12.2972 13.2144 11.7143C13.2144 11.1313 12.683 10.5999 12.1001 10.5999C11.7029 10.5999 11.2514 10.9245 11.0367 11.354C10.8885 11.6504 10.5281 11.7705 10.2317 11.6223C9.93529 11.4741 9.81515 11.1137 9.96335 10.8173ZM12.1001 15.3994C12.4315 15.3994 12.7001 15.668 12.7001 15.9994C12.7001 16.3308 12.4315 16.5998 12.1001 16.5998C11.7687 16.5998 11.5001 16.3312 11.5001 15.9998C11.5001 15.6684 11.7687 15.3994 12.1001 15.3994Z" fill="black"/>
</svg>
