<svg width="24" height="24" viewBox="0 0 24 24" fill="none" xmlns="http://www.w3.org/2000/svg">
<path d="M20 19V11V7.6406C20 6.90586 19.7304 6.19666 19.2422 5.64751L16.895 3.00691C16.3257 2.36644 15.5097 2 14.6528 2H12H7C5.34315 2 4 3.34315 4 5V19C4 20.6569 5.34315 22 7 22H17C18.6569 22 20 20.6569 20 19ZM8.54038 12.3843C8.28654 12.1304 8.28654 11.7189 8.54038 11.465L11.4652 8.54023C11.719 8.28639 12.1306 8.28639 12.3844 8.54023L15.3092 11.465C15.5631 11.7189 15.5631 12.1304 15.3092 12.3843C15.0554 12.6381 14.6438 12.6381 14.39 12.3843L12.5743 10.5686V15.7499C12.5743 16.1088 12.2833 16.3999 11.9243 16.3999C11.5653 16.3999 11.2743 16.1088 11.2743 15.7499V10.5696L9.45962 12.3843C9.20578 12.6381 8.79422 12.6381 8.54038 12.3843Z" fill="black"/>
</svg>
