<svg width="24" height="24" viewBox="0 0 24 24" fill="none" xmlns="http://www.w3.org/2000/svg">
<path d="M20 18.5V11V7.6406C20 6.90586 19.7304 6.19666 19.2422 5.64751L16.895 3.00691C16.3257 2.36644 15.5097 2 14.6528 2H12H7.5C5.567 2 4 3.567 4 5.5V18.5C4 20.433 5.567 22 7.5 22H16.5C18.433 22 20 20.433 20 18.5ZM7.5756 12.2987C8.14472 12.3612 8.46367 12.6489 8.46367 13.1023V13.6495C8.46367 14.0592 8.59813 14.2061 8.97025 14.2061H9.11409V14.9879H8.85142C7.82263 14.9879 7.40361 14.6252 7.40361 13.7496V13.3712C7.40361 12.9335 7.18785 12.7552 6.64062 12.749V11.7327C7.18472 11.7296 7.40361 11.5513 7.40361 11.1104V10.7133C7.40361 9.85335 7.82263 9.5 8.85142 9.5H9.11409V10.2818H8.97025C8.59813 10.2818 8.46367 10.4318 8.46367 10.8415V11.3793C8.46367 11.8327 8.14472 12.1204 7.5756 12.183V12.2987ZM10.1272 14.0529C9.80516 14.0529 9.54874 13.7934 9.54874 13.4713C9.54874 13.1492 9.80516 12.8897 10.1272 12.8897C10.4493 12.8897 10.7089 13.1492 10.7089 13.4713C10.7089 13.7934 10.4493 14.0529 10.1272 14.0529ZM12.5726 13.4713C12.5726 13.7934 12.313 14.0529 11.9909 14.0529C11.6689 14.0529 11.4124 13.7934 11.4124 13.4713C11.4124 13.1492 11.6689 12.8897 11.9909 12.8897C12.313 12.8897 12.5726 13.1492 12.5726 13.4713ZM13.8546 14.0529C13.5325 14.0529 13.2761 13.7934 13.2761 13.4713C13.2761 13.1492 13.5325 12.8897 13.8546 12.8897C14.1767 12.8897 14.4363 13.1492 14.4363 13.4713C14.4363 13.7934 14.1767 14.0529 13.8546 14.0529ZM15.5245 13.1023C15.5245 12.6489 15.8465 12.3612 16.4157 12.2987V12.183C15.8465 12.1204 15.5245 11.8327 15.5245 11.3793V10.8415C15.5245 10.4318 15.3931 10.2818 15.021 10.2818H14.8772V9.5H15.1398C16.1686 9.5 16.5845 9.85335 16.5845 10.7133V11.1104C16.5845 11.5513 16.8034 11.7296 17.3506 11.7327V12.749C16.8003 12.7552 16.5845 12.9335 16.5845 13.3712V13.7433C16.5845 14.622 16.1655 14.9879 15.1398 14.9879H14.8772V14.2061H15.021C15.39 14.2061 15.5245 14.056 15.5245 13.6495V13.1023Z" fill="black"/>
</svg>
