<svg width="24" height="24" viewBox="0 0 24 24" fill="none" xmlns="http://www.w3.org/2000/svg">
<path d="M20 19V11V7.6406C20 6.90586 19.7304 6.19666 19.2422 5.64751L16.895 3.00691C16.3257 2.36644 15.5097 2 14.6528 2H12H7C5.34315 2 4 3.34315 4 5V19C4 20.6569 5.34315 22 7 22H17C18.6569 22 20 20.6569 20 19ZM12.3489 8.67975C12.699 8.67975 13.0561 8.74154 13.42 8.86513C13.7907 8.98186 14.1066 9.15694 14.3675 9.39039L13.5127 10.3482C13.3547 10.1766 13.1659 10.0427 12.9462 9.94655C12.7265 9.84356 12.4965 9.79206 12.2562 9.79206V11.8519L12.2974 11.8622C12.5857 11.9377 12.8672 12.0236 13.1419 12.1197C13.4234 12.2158 13.6706 12.3428 13.8834 12.5007C14.1032 12.6518 14.2782 12.8441 14.4087 13.0775C14.546 13.311 14.6147 13.6028 14.6147 13.9529C14.6147 14.2962 14.5529 14.6018 14.4293 14.8696C14.3057 15.1305 14.1375 15.3571 13.9246 15.5493C13.7118 15.7347 13.4612 15.8823 13.1728 15.9922C12.8913 16.102 12.5857 16.1741 12.2562 16.2085V16.95H11.7V16.2188C11.2468 16.2256 10.8108 16.157 10.392 16.0128C9.98004 15.8686 9.61614 15.6317 9.30029 15.3021L10.2375 14.3443C10.4023 14.5778 10.6152 14.7563 10.8761 14.8799C11.137 15.0035 11.4116 15.079 11.7 15.1064V12.9333L11.6485 12.923C11.3601 12.8406 11.0855 12.7514 10.8246 12.6552C10.5637 12.5522 10.3302 12.4218 10.1242 12.2639C9.92511 12.0991 9.76719 11.9034 9.65047 11.6768C9.53374 11.4434 9.47538 11.155 9.47538 10.8117C9.47538 10.5027 9.53717 10.2246 9.66076 9.97745C9.78436 9.73026 9.94914 9.51741 10.1551 9.3389C10.3611 9.15351 10.598 9.00589 10.8658 8.89603C11.1335 8.78617 11.4116 8.71751 11.7 8.69005V8H12.2562V8.67975H12.3489ZM11.0512 10.1216C10.8658 10.2796 10.7731 10.489 10.7731 10.7499C10.7731 10.9078 10.7971 11.0348 10.8452 11.131C10.9001 11.2271 10.9688 11.3095 11.0512 11.3781C11.1335 11.4468 11.2297 11.5052 11.3395 11.5532C11.4563 11.5944 11.5764 11.6425 11.7 11.6974V9.81266C11.4597 9.85386 11.2434 9.95685 11.0512 10.1216ZM12.6578 14.9829C12.7883 14.9211 12.9016 14.849 12.9977 14.7666C13.0938 14.6773 13.1694 14.5743 13.2243 14.4576C13.2861 14.334 13.317 14.1967 13.317 14.0456C13.317 13.8946 13.2826 13.7675 13.214 13.6646C13.1522 13.5616 13.0698 13.4757 12.9668 13.4071C12.8638 13.3384 12.7505 13.2801 12.6269 13.232C12.5033 13.1839 12.3798 13.1393 12.2562 13.0981V15.1064C12.4004 15.079 12.5342 15.0378 12.6578 14.9829Z" fill="black"/>
</svg>
