<svg width="24" height="24" viewBox="0 0 24 24" fill="none" xmlns="http://www.w3.org/2000/svg">
<path d="M20 19V11V7.6406C20 6.90586 19.7304 6.19666 19.2422 5.64751L16.895 3.00691C16.3257 2.36644 15.5097 2 14.6528 2H12H7C5.34315 2 4 3.34315 4 5V19C4 20.6569 5.34315 22 7 22H17C18.6569 22 20 20.6569 20 19ZM11.9243 8.34998C12.2833 8.34998 12.5743 8.64099 12.5743 8.99998V14.1813L14.39 12.3656C14.6438 12.1118 15.0554 12.1118 15.3092 12.3656C15.5631 12.6195 15.5631 13.031 15.3092 13.2849L12.3844 16.2097C12.1306 16.4635 11.719 16.4635 11.4652 16.2097L8.54038 13.2849C8.28654 13.031 8.28654 12.6195 8.54038 12.3656C8.79422 12.1118 9.20578 12.1118 9.45962 12.3656L11.2743 14.1803V8.99998C11.2743 8.64099 11.5653 8.34998 11.9243 8.34998Z" fill="black"/>
</svg>
