<svg width="24" height="24" viewBox="0 0 24 24" fill="none" xmlns="http://www.w3.org/2000/svg">
<path d="M17 22C18.6569 22 20 20.6569 20 19V11V7.6406C20 6.90586 19.7304 6.19666 19.2422 5.64751L16.895 3.00691C16.3257 2.36644 15.5097 2 14.6528 2H12H7C5.34315 2 4 3.34315 4 5V19C4 20.6569 5.34315 22 7 22H17ZM11.9474 16.9999C9.86114 16.9999 8.16992 15.3087 8.16992 13.2225C8.16992 11.1363 9.86114 9.44507 11.9474 9.44507V13.2225H15.7248C15.7248 15.3087 14.0336 16.9999 11.9474 16.9999ZM13.2696 8.5H14.6585C14.9909 8.5 15.2679 8.60763 15.4895 8.82289C15.7111 9.03973 15.8218 9.3088 15.8218 9.6301C15.8218 9.95141 15.7111 10.2205 15.4895 10.4373C15.2647 10.6542 14.9877 10.7626 14.6585 10.7626H13.8869V11.8998H13.2696V8.5ZM14.592 10.1833C14.7566 10.1833 14.8904 10.1318 14.9933 10.029C15.0946 9.92766 15.1452 9.79471 15.1452 9.6301C15.1452 9.46549 15.0946 9.33254 14.9933 9.23124C14.892 9.12994 14.7582 9.0793 14.592 9.0793H13.8869V10.1833H14.592Z" fill="black"/>
</svg>
