<svg width="24" height="24" viewBox="0 0 24 24" fill="none" xmlns="http://www.w3.org/2000/svg">
<path d="M16.5 22C18.433 22 20 20.433 20 18.5L20 11L20 7.6406C20 6.90586 19.7304 6.19666 19.2422 5.64751L16.895 3.00691C16.3257 2.36644 15.5097 2 14.6528 2L12 2L7.5 2C5.567 2 4 3.567 4 5.5L4 18.5C4 20.433 5.567 22 7.5 22L16.5 22ZM6.5 18.5L6.5 16.9142C6.5 16.649 6.60536 16.3946 6.79289 16.2071L7.88673 15.1133C8.23862 14.7614 8.79572 14.7218 9.19384 15.0204L9.85153 15.5136C10.2295 15.7972 10.7544 15.7774 11.11 15.4662L13.8573 13.0623C14.2275 12.7385 14.7782 12.7318 15.156 13.0467L17.1402 14.7002C17.3682 14.8901 17.5 15.1716 17.5 15.4684L17.5 18.5C17.5 19.0523 17.0523 19.5 16.5 19.5L7.5 19.5C6.94772 19.5 6.5 19.0523 6.5 18.5ZM8.5 13.5C7.67157 13.5 7 12.8284 7 12C7 11.1716 7.67157 10.5 8.5 10.5C9.32843 10.5 10 11.1716 10 12C10 12.8284 9.32843 13.5 8.5 13.5Z" fill="black"/>
</svg>
