<svg width="24" height="24" viewBox="0 0 24 24" fill="none" xmlns="http://www.w3.org/2000/svg">
<path d="M16.5 22C18.433 22 20 20.433 20 18.5V11V7.6406C20 6.90586 19.7304 6.19666 19.2422 5.64751L16.895 3.00691C16.3257 2.36644 15.5097 2 14.6528 2H12H7.5C5.567 2 4 3.567 4 5.5V18.5C4 20.433 5.567 22 7.5 22H16.5ZM10.4038 12.4535H10.0719C9.90617 12.4535 9.77185 12.3192 9.77185 12.1535V11.3C9.77185 11.1343 9.90617 11 10.0719 11H10.4038H16.1399H16.4719C16.6375 11 16.7719 11.1343 16.7719 11.3V12.1535C16.7719 12.3192 16.6375 12.4535 16.4719 12.4535H16.1399H10.4038ZM16.1399 15.3605H10.4038H10.0719C9.90617 15.3605 9.77185 15.2262 9.77185 15.0605V14.207C9.77185 14.0413 9.90617 13.907 10.0719 13.907H10.4038H16.1399H16.4719C16.6375 13.907 16.7719 14.0413 16.7719 14.207V15.0605C16.7719 15.2262 16.6375 15.3605 16.4719 15.3605H16.1399ZM10.4038 18.2675H10.0719C9.90617 18.2675 9.77185 18.1331 9.77185 17.9675V17.114C9.77185 16.9483 9.90617 16.814 10.0719 16.814H10.4038H16.1399H16.4719C16.6375 16.814 16.7719 16.9483 16.7719 17.114V17.9675C16.7719 18.1331 16.6375 18.2675 16.4719 18.2675H16.1399H10.4038ZM7.77599 13C7.65226 13 7.55196 12.8997 7.55196 12.776V11.4281C7.55196 11.4167 7.54272 11.4075 7.53132 11.4075C7.52736 11.4075 7.52348 11.4086 7.52015 11.4108L7.25239 11.5832C7.14343 11.6533 7.00003 11.5751 7.00003 11.4455C7.00003 11.3899 7.02832 11.338 7.07514 11.3079L7.46812 11.0549C7.52382 11.0191 7.58867 11 7.65491 11C7.84551 11 8.00003 11.1545 8.00003 11.3451V12.776C8.00003 12.8997 7.89973 13 7.77599 13ZM7.00003 14.1338C7.00003 13.7568 7.30343 13.5 7.74578 13.5C8.17253 13.5 8.47026 13.7338 8.47026 14.0689C8.47026 14.2811 8.34975 14.4635 7.9953 14.7811L7.60952 15.1315C7.60601 15.1347 7.604 15.1392 7.604 15.1439C7.604 15.1533 7.61155 15.1608 7.62086 15.1608H8.33044C8.4241 15.1608 8.50003 15.2367 8.50003 15.3304C8.50003 15.4241 8.4241 15.5 8.33044 15.5H7.22288C7.11311 15.5 7.02413 15.411 7.02413 15.3013C7.02413 15.2462 7.04701 15.1935 7.0873 15.1559L7.6919 14.5919C7.97971 14.3243 8.05202 14.223 8.05202 14.0959C8.05202 13.9392 7.91875 13.8284 7.7316 13.8284C7.53311 13.8284 7.39701 13.9527 7.39701 14.1324C7.39701 14.1369 7.39338 14.1405 7.3889 14.1405H7.00679C7.00306 14.1405 7.00003 14.1375 7.00003 14.1338ZM7.64656 17.1259C7.56465 17.1259 7.49824 17.0595 7.49824 16.9776C7.49824 16.8957 7.56465 16.8293 7.64656 16.8293H7.73396C7.91744 16.8293 8.042 16.7238 8.042 16.5682C8.042 16.4153 7.92146 16.3177 7.73262 16.3177C7.6185 16.3177 7.5277 16.3563 7.47169 16.4237C7.40793 16.5003 7.33228 16.5867 7.23256 16.5867C7.12531 16.5867 7.03584 16.4953 7.07188 16.3943C7.1598 16.1479 7.40266 16 7.74333 16C8.13976 16 8.42503 16.2136 8.42503 16.5129C8.42503 16.7292 8.28922 16.8985 8.07989 16.9456C8.07346 16.947 8.06878 16.9527 8.06878 16.9592C8.06878 16.9663 8.07416 16.9722 8.08116 16.9731C8.33912 17.0061 8.50003 17.1786 8.50003 17.4252C8.50003 17.7587 8.18128 18 7.74066 18C7.39597 18 7.14027 17.8501 7.04261 17.6068C7.00095 17.503 7.09366 17.4067 7.20548 17.4067C7.30085 17.4067 7.37632 17.4843 7.44416 17.554C7.44918 17.5591 7.45416 17.5643 7.4591 17.5693C7.5214 17.6328 7.6206 17.6691 7.74467 17.6691C7.94691 17.6691 8.08753 17.557 8.08753 17.3949C8.08753 17.2287 7.95494 17.1259 7.73798 17.1259H7.64656Z" fill="black"/>
</svg>
