<svg width="24" height="24" viewBox="0 0 24 24" fill="none" xmlns="http://www.w3.org/2000/svg">
<path d="M17 22C18.6569 22 20 20.6569 20 19V11V7.6406C20 6.90586 19.7304 6.19666 19.2422 5.64751L16.895 3.00691C16.3257 2.36644 15.5097 2 14.6528 2H12H7C5.34315 2 4 3.34315 4 5V19C4 20.6569 5.34315 22 7 22H17ZM10.1153 14.0978H8.84611C8.37906 14.0978 8 13.7188 8 13.2517V11.5595C8 11.0925 8.37906 10.7134 8.84611 10.7134H10.1153L11.7417 9.39598C11.9378 9.23711 12.2305 9.3767 12.2305 9.6291V15.1658C12.2305 15.4174 11.9396 15.5572 11.7431 15.4001L10.1153 14.0978ZM14.3083 8.98565C15.3439 9.75645 16.0287 10.9848 16.0287 12.3842C16.0287 13.7837 15.343 15.0119 14.3085 15.7825C14.087 15.9475 13.7737 15.9017 13.6088 15.6803C13.4438 15.4588 13.4896 15.1455 13.7111 14.9806C14.5094 14.3859 15.0287 13.447 15.0287 12.3842C15.0287 11.3211 14.51 10.3824 13.7112 9.78785C13.4897 9.62297 13.4438 9.30974 13.6087 9.08822C13.7735 8.8667 14.0868 8.82078 14.3083 8.98565Z" fill="black"/>
</svg>
