<svg width="24" height="24" viewBox="0 0 24 24" fill="none" xmlns="http://www.w3.org/2000/svg">
<path d="M20 18.5V11V7.6406C20 6.90586 19.7304 6.19666 19.2422 5.64751L16.895 3.00691C16.3257 2.36644 15.5097 2 14.6528 2H12H7.5C5.567 2 4 3.567 4 5.5V18.5C4 20.433 5.567 22 7.5 22H16.5C18.433 22 20 20.433 20 18.5ZM8.67855 14.91H7.72967C7.67444 14.91 7.62967 14.8652 7.62967 14.81V12.0131C7.62967 11.9579 7.5849 11.9131 7.52967 11.9131H6.70001C6.64478 11.9131 6.60001 11.8684 6.60001 11.8131V11.1C6.60001 11.0448 6.64478 11 6.70001 11H9.70821C9.76344 11 9.80821 11.0448 9.80821 11.1V11.8131C9.80821 11.8684 9.76344 11.9131 9.70821 11.9131H8.87855C8.82332 11.9131 8.77855 11.9579 8.77855 12.0131V14.81C8.77855 14.8652 8.73378 14.91 8.67855 14.91ZM10.1298 14.7593L11.1874 12.9602C11.191 12.9541 11.1928 12.9472 11.1928 12.9402C11.1928 12.933 11.1909 12.926 11.1872 12.9199L10.1291 11.1513C10.0892 11.0847 10.1372 11 10.2149 11H11.3149C11.353 11 11.3878 11.0216 11.4046 11.0557L11.9874 12.2367C11.9903 12.2427 11.9964 12.2464 12.003 12.2464C12.0097 12.2464 12.0157 12.2427 12.0187 12.2367L12.6041 11.0556C12.621 11.0215 12.6557 11 12.6937 11H13.7246C13.8032 11 13.851 11.0865 13.8094 11.1531L12.6998 12.9254C12.696 12.9315 12.694 12.9385 12.694 12.9456C12.694 12.9526 12.6959 12.9595 12.6996 12.9655L13.8056 14.7575C13.8467 14.8241 13.7988 14.91 13.7205 14.91H12.6789C12.643 14.91 12.6098 14.8907 12.592 14.8595L11.9549 13.7419C11.9511 13.7353 11.9442 13.7313 11.9366 13.7313C11.9291 13.7313 11.9221 13.7354 11.9184 13.7419L11.2839 14.8594C11.2661 14.8907 11.2329 14.91 11.1969 14.91H10.216C10.1387 14.91 10.0906 14.826 10.1298 14.7593ZM16.3167 14.81C16.3167 14.8652 16.272 14.91 16.2167 14.91H15.2679C15.2126 14.91 15.1679 14.8652 15.1679 14.81V12.0131C15.1679 11.9579 15.1231 11.9131 15.0679 11.9131H14.2382C14.183 11.9131 14.1382 11.8684 14.1382 11.8131V11.1C14.1382 11.0448 14.183 11 14.2382 11H17.2464C17.3016 11 17.3464 11.0448 17.3464 11.1V11.8131C17.3464 11.8684 17.3016 11.9131 17.2464 11.9131H16.4167C16.3615 11.9131 16.3167 11.9579 16.3167 12.0131V14.81Z" fill="black"/>
</svg>
