<svg width="24" height="24" viewBox="0 0 24 24" fill="none" xmlns="http://www.w3.org/2000/svg">
<path d="M16.5 22C18.433 22 20 20.433 20 18.5V11V7.6406C20 6.90586 19.7304 6.19666 19.2422 5.64751L16.895 3.00691C16.3257 2.36644 15.5097 2 14.6528 2H12H7.5C5.567 2 4 3.567 4 5.5V18.5C4 20.433 5.567 22 7.5 22H16.5ZM7 10C7 9.72386 7.22386 9.5 7.5 9.5H10.9444C11.2205 9.5 11.4444 9.72386 11.4444 10V11.7777C11.4444 12.0539 11.2205 12.2777 10.9444 12.2777H7.5C7.22386 12.2777 7 12.0539 7 11.7777V10ZM13.0556 9.5H16.5C16.7761 9.5 17 9.72386 17 10V11.7777C17 12.0539 16.7761 12.2777 16.5 12.2777H13.0556C12.7795 12.2777 12.5556 12.0539 12.5556 11.7777V10C12.5556 9.72386 12.7795 9.5 13.0556 9.5ZM7 13.8888C7 13.6126 7.22386 13.3888 7.5 13.3888H10.9444C11.2205 13.3888 11.4444 13.6126 11.4444 13.8888V15.6665C11.4444 15.9426 11.2205 16.1665 10.9444 16.1665H7.5C7.22386 16.1665 7 15.9426 7 15.6665V13.8888ZM13.0556 13.3888H16.5C16.7761 13.3888 17 13.6126 17 13.8888V15.6665C17 15.9426 16.7761 16.1665 16.5 16.1665H13.0556C12.7795 16.1665 12.5556 15.9426 12.5556 15.6665V13.8888C12.5556 13.6126 12.7795 13.3888 13.0556 13.3888Z" fill="black"/>
</svg>
