<svg width="24" height="24" viewBox="0 0 24 24" fill="none" xmlns="http://www.w3.org/2000/svg">
<path d="M20 19V11V7.6406C20 6.90586 19.7304 6.19666 19.2422 5.64751L16.895 3.00691C16.3257 2.36644 15.5097 2 14.6528 2H12H7C5.34315 2 4 3.34315 4 5V19C4 20.6569 5.34315 22 7 22H17C18.6569 22 20 20.6569 20 19ZM12.5582 9.28926C12.5582 9.66116 12.5212 10.0826 12.3856 10.7025C12.7801 11.4587 13.3101 12.2025 13.8155 12.7479C13.9459 12.7348 14.0671 12.7186 14.183 12.7031C14.3955 12.6747 14.5898 12.6488 14.7892 12.6488C15.726 12.6488 16.1574 13.157 16.1574 13.6901C16.1574 14.2107 15.6644 14.8058 14.8878 14.8058C14.4194 14.8058 13.9264 14.5702 13.3717 14.0992C12.5335 14.2603 11.6337 14.5702 10.8325 14.8802C10.3765 15.8099 9.7355 17 8.89732 17C8.28101 17 7.80029 16.4298 7.80029 15.8967C7.80029 15.2025 8.49056 14.5702 9.89574 13.9132C10.3518 12.9835 10.7956 11.8306 11.0791 10.814C10.7586 10.1942 10.5983 9.66116 10.5983 9.21488C10.5983 8.45868 10.9435 8 11.6337 8C12.1761 8 12.5582 8.30992 12.5582 9.28926ZM11.3386 13.2747C11.5082 12.8222 11.6802 12.3636 11.8063 11.905C12.1145 12.3512 12.4103 12.7727 12.7431 13.157C12.2855 13.2666 11.8279 13.4246 11.3788 13.5797C11.3198 13.6 11.261 13.6204 11.2023 13.6405C11.2469 13.5191 11.2927 13.3971 11.3386 13.2747Z" fill="black"/>
</svg>
