<svg width="24" height="24" viewBox="0 0 24 24" fill="none" xmlns="http://www.w3.org/2000/svg">
<path d="M22.6141 11.6135L19.1042 8.1037C18.7262 7.72572 18.0799 7.99342 18.0799 8.52796V11.0189L17 11.019V11V7.6406C17 6.90586 16.7304 6.19666 16.2422 5.64751L13.895 3.00691C13.3257 2.36644 12.5097 2 11.6528 2H9H4.5C2.567 2 1 3.567 1 5.5V18.5C1 20.433 2.567 22 4.5 22H13.5C15.433 22 17 20.433 17 18.5V13.019L18.0799 13.0189V15.5476C18.0799 16.0822 18.7262 16.3499 19.1042 15.9719L22.6141 12.4621C22.8484 12.2278 22.8484 11.8479 22.6141 11.6135ZM10.0005 13.0194C9.44824 13.0195 9.00042 12.5719 9.0003 12.0196C9.00017 11.4673 9.44779 11.0195 10.0001 11.0194L16.9012 11.0191L16.9012 13.0191L10.0005 13.0194Z" fill="black"/>
</svg>
