<svg width="24" height="24" viewBox="0 0 24 24" fill="none" xmlns="http://www.w3.org/2000/svg">
<path d="M17 22C18.6569 22 20 20.6569 20 19V11V7.6406C20 6.90586 19.7304 6.19666 19.2422 5.64751L16.895 3.00691C16.3257 2.36644 15.5097 2 14.6528 2H12H7C5.34315 2 4 3.34315 4 5V19C4 20.6569 5.34315 22 7 22H17ZM7.00871 14.946L8.98829 10.357C9.04072 10.222 9.14524 10.1073 9.2888 10.0456C9.36109 10.0145 9.43629 9.99989 9.51027 10C9.58424 10 9.65943 10.0147 9.73168 10.0459C9.87517 10.1078 9.97953 10.2226 10.0318 10.3577L12.0142 14.9693C12.0244 14.9896 12.0335 15.0107 12.0413 15.0323L12.4656 16.0196C12.5876 16.3034 12.4565 16.6324 12.1727 16.7544C11.8889 16.8764 11.5599 16.7452 11.4379 16.4614L11.1452 15.7804H7.86712L7.5731 16.4621C7.45073 16.7457 7.12159 16.8765 6.83793 16.7541C6.55429 16.6317 6.42353 16.3026 6.54589 16.0189L6.9613 15.0559C6.97322 15.0173 6.98918 14.9806 7.00871 14.946ZM9.50305 11.9565L8.34373 14.644H10.6583L9.50305 11.9565ZM15.0795 16.7025C14.6339 16.7025 14.2705 16.5909 13.995 16.3623C13.7235 16.1262 13.5889 15.7984 13.5889 15.388C13.5889 14.9719 13.7254 14.6449 14.0036 14.4156C14.2794 14.1882 14.6873 14.0627 15.2189 14.0316L16.1899 13.9759V13.9029C16.1899 13.6102 16.1274 13.4012 16.0123 13.2658C15.8986 13.1322 15.7256 13.0611 15.4823 13.0611C15.2413 13.0611 15.0649 13.1277 14.9441 13.2532C14.922 13.2773 14.902 13.3024 14.884 13.3285C14.8113 13.4344 14.7234 13.5472 14.6191 13.6327C14.5145 13.7185 14.3897 13.7797 14.2451 13.7746L14.1919 13.7727C14.0569 13.7679 13.9321 13.7089 13.8506 13.6164C13.7682 13.523 13.7301 13.3948 13.773 13.2592C13.8491 13.0187 13.9898 12.8004 14.1931 12.6043C14.5186 12.2847 14.9474 12.127 15.4739 12.127C16.0374 12.127 16.4786 12.278 16.7886 12.5878C17.0987 12.8923 17.2498 13.328 17.2498 13.8861V16.0886C17.2498 16.3813 17.0125 16.6186 16.7198 16.6186H16.6317C16.4266 16.6186 16.2541 16.4788 16.2043 16.2892C15.8815 16.5643 15.5059 16.7025 15.0795 16.7025ZM15.363 14.8757C15.1132 14.8894 14.9348 14.9413 14.8201 15.0245C14.7088 15.1053 14.6523 15.2191 14.6523 15.3736C14.6523 15.5222 14.7009 15.6255 14.7916 15.6939C14.8853 15.7645 15.0325 15.8043 15.2425 15.8043C15.5465 15.8043 15.778 15.7284 15.9439 15.5833C16.1132 15.4344 16.2018 15.214 16.2018 14.9121V14.8208L15.363 14.8757Z" fill="black"/>
</svg>
