<svg width="25" height="24" viewBox="0 0 25 24" fill="none" xmlns="http://www.w3.org/2000/svg">
<path d="M6.98687 2.02506C5.27162 2.24537 3.96928 3.71334 4.00055 5.4928L4.22964 18.53C4.26361 20.4628 5.85815 22.0313 7.79116 22.0332L16.4647 22.0417C18.3977 22.0436 19.9372 20.4783 19.9032 18.5454L19.7116 7.63815C19.6989 6.91499 19.4253 6.21592 18.9413 5.66963L16.6094 3.03752C16.028 2.3814 15.1955 2.00415 14.3269 2.00329L10.9869 2L10.9869 6.49449C10.9869 6.51408 10.9871 6.53394 10.9872 6.55388C10.9886 6.70268 10.99 6.856 10.9166 6.93498C10.8092 7.05049 10.5688 7.03721 10.4322 6.93498C9.83982 6.49099 8.98687 5.83699 8.98687 5.83699C8.98687 5.83699 8.11524 6.49049 7.52287 6.93498C7.39241 7.03261 7.18695 7.03805 7.08062 6.93498C6.98928 6.84645 6.98687 6.66985 6.98687 6.49449L6.98687 2.02506ZM8.95615 15.3235L14.9557 15.3158C15.3422 15.3153 15.656 15.628 15.6565 16.0143C15.657 16.4006 15.344 16.7141 14.9575 16.7146L8.95796 16.7223C8.57139 16.7228 8.25761 16.4101 8.25711 16.0238C8.25661 15.6376 8.56958 15.324 8.95615 15.3235ZM14.9524 12.8158C15.339 12.8153 15.6528 13.1281 15.6533 13.5143C15.6538 13.9006 15.3408 14.2141 14.9542 14.2146L8.95473 14.2224C8.56816 14.2229 8.25439 13.9101 8.25389 13.5239C8.25339 13.1376 8.56636 12.8241 8.95293 12.8236L14.9524 12.8158ZM8.9497 10.3236L14.9492 10.3158C15.3358 10.3153 15.6496 10.6281 15.65 11.0143C15.6505 11.4006 15.3376 11.7142 14.951 11.7147L8.95151 11.7224C8.56494 11.7229 8.25116 11.4102 8.25066 11.0239C8.25016 10.6376 8.56313 10.3241 8.9497 10.3236Z" fill="black"/>
</svg>
