<svg width="24" height="24" viewBox="0 0 24 24" fill="none" xmlns="http://www.w3.org/2000/svg">
<path d="M17 22C18.6569 22 20 20.6569 20 19V11V7.6406C20 6.90586 19.7304 6.19666 19.2422 5.64751L16.895 3.00691C16.3257 2.36644 15.5097 2 14.6528 2H12H7C5.34315 2 4 3.34315 4 5V19C4 20.6569 5.34315 22 7 22H17ZM12 9.3999C12.3314 9.3999 12.6 9.66853 12.6 9.9999V12.3999H15C15.3314 12.3999 15.6 12.6685 15.6 12.9999C15.6 13.3313 15.3314 13.5999 15 13.5999H12.6V15.9999C12.6 16.3313 12.3314 16.5999 12 16.5999C11.6686 16.5999 11.4 16.3313 11.4 15.9999V13.5999H9C8.66863 13.5999 8.4 13.3313 8.4 12.9999C8.4 12.6685 8.66863 12.3999 9 12.3999H11.4V9.9999C11.4 9.66853 11.6686 9.3999 12 9.3999Z" fill="black"/>
</svg>
