<svg width="24" height="24" viewBox="0 0 24 24" fill="none" xmlns="http://www.w3.org/2000/svg">
<path d="M20 19V11V7.6406C20 6.90586 19.7304 6.19666 19.2422 5.64751L16.895 3.00691C16.3257 2.36644 15.5097 2 14.6528 2H12H7C5.34315 2 4 3.34315 4 5V19C4 20.6569 5.34315 22 7 22H17C18.6569 22 20 20.6569 20 19ZM14.4916 10H16.2631L14.8408 16H12.9073L12.0317 11.9614H11.9963L11.1358 16H9.23269L7.80029 10H9.61231L10.3159 14.2369H10.3513L11.1915 10H12.9073L13.7577 14.2369H13.7931L14.4916 10Z" fill="black"/>
</svg>
