<svg width="24" height="24" viewBox="0 0 24 24" fill="none" xmlns="http://www.w3.org/2000/svg">
<path d="M17 22C18.6569 22 20 20.6569 20 19V11V7.6406C20 6.90586 19.7304 6.19666 19.2422 5.64751L16.895 3.00691C16.3257 2.36644 15.5097 2 14.6528 2H12H7C5.34315 2 4 3.34315 4 5V19C4 20.6569 5.34315 22 7 22H17ZM12.875 15.25H8.5C7.81 15.25 7.25 14.69 7.25 14V10.25C7.25 9.56 7.81 9 8.5 9H12.875C13.565 9 14.125 9.56 14.125 10.25V14C14.125 14.69 13.565 15.25 12.875 15.25ZM15.6863 14.4811L14.584 13.5937V10.5428L15.6863 9.65538C16.1141 9.31128 16.75 9.61563 16.75 10.1647V13.9718C16.75 14.5208 16.1141 14.8252 15.6863 14.4811Z" fill="black"/>
</svg>
