<svg width="24" height="24" viewBox="0 0 24 24" fill="none" xmlns="http://www.w3.org/2000/svg">
<path d="M6.8056 4L6 4C4.89543 4 4 4.89543 4 6L4 7.25L6.8056 7.25L6.8056 4ZM4 8.75L4 11.3501L6.8056 11.3501L6.8056 8.75L4 8.75ZM4 12.6501L4 15.25L6.8056 15.25L6.8056 12.6501L4 12.6501ZM4 16.75L4 18C4 19.1046 4.89543 20 6 20L6.8056 20L6.8056 16.75L4 16.75ZM8.3056 20L15.6944 20L15.6944 16.0097L15.6943 16L15.6944 15.9903L15.6944 12.6501L8.3056 12.6501L8.3056 20ZM17.1944 20L18 20C19.1046 20 20 19.1046 20 18L20 16.75C20 16.75 19.9999 16.75 19.9999 16.75L17.1944 16.75L17.1944 20ZM20 15.25L20 12.6501L17.1944 12.6501L17.1944 15.25L19.9999 15.25C19.9999 15.25 20 15.25 20 15.25ZM20 11.3501L20 8.75C20 8.75 20 8.75 19.9999 8.75L17.1944 8.75L17.1944 11.3501L20 11.3501ZM20 7.25L20 6C20 4.89543 19.1046 4 18 4L17.1944 4L17.1944 7.25L19.9999 7.25C20 7.25 20 7.25 20 7.25ZM15.6944 4L8.3056 4L8.3056 11.3501L15.6944 11.3501L15.6944 8.00342L15.6944 8L15.6944 7.99658L15.6944 4Z" fill="black"/>
</svg>
