<svg width="24" height="24" viewBox="0 0 24 24" fill="none" xmlns="http://www.w3.org/2000/svg">
<path d="M3 8C3 8.55228 3.44772 9 4 9H20C20.5523 9 21 8.55228 21 8C21 7.44772 20.5523 7 20 7H4C3.44772 7 3 7.44772 3 8ZM5.66681 12.4443C5.66681 12.9966 6.11452 13.4443 6.66681 13.4443H17.3335C17.8858 13.4443 18.3335 12.9966 18.3335 12.4443C18.3335 11.8921 17.8858 11.4443 17.3335 11.4443H6.66681C6.11452 11.4443 5.66681 11.8921 5.66681 12.4443ZM10.2224 15.8887C9.67013 15.8887 9.22241 16.3364 9.22241 16.8887C9.22241 17.441 9.67013 17.8887 10.2224 17.8887H13.778C14.3303 17.8887 14.778 17.441 14.778 16.8887C14.778 16.3364 14.3303 15.8887 13.778 15.8887H10.2224Z" fill="black"/>
</svg>
