<svg width="24" height="24" viewBox="0 0 24 24" fill="none" xmlns="http://www.w3.org/2000/svg">
<path d="M8.97087 3.5V10.422L4.61624 16.4108C4.24779 16.9172 4.05432 17.4799 4.00992 18.0393C3.96235 18.6387 4.08738 19.2307 4.35161 19.7496C4.61584 20.2686 5.02095 20.718 5.53363 21.0321C6.01209 21.3253 6.58098 21.5 7.20741 21.5H17.1442C17.7706 21.5 18.3395 21.3253 18.818 21.0319C19.3306 20.7177 19.7356 20.2684 19.9998 19.7494C20.264 19.2305 20.3891 18.6386 20.3416 18.0393C20.2973 17.4799 20.1037 16.9171 19.7352 16.4106L15.38 10.4219V3.5H16.1921C16.6063 3.5 16.9421 3.16421 16.9421 2.75C16.9421 2.33579 16.6063 2 16.1921 2H14.63H9.72087H8.15918C7.74497 2 7.40918 2.33579 7.40918 2.75C7.40918 3.16421 7.74497 3.5 8.15918 3.5H8.97087ZM10.4709 3.5H13.88V10.6658C13.88 10.8243 13.9302 10.9787 14.0234 11.1069L16.276 14.2043H8.07522L10.3275 11.1069C10.4207 10.9787 10.4709 10.8243 10.4709 10.6658V3.5Z" fill="black"/>
</svg>
