<svg width="24" height="24" viewBox="0 0 24 24" fill="none" xmlns="http://www.w3.org/2000/svg">
<path d="M4.42575 4.13239C4.1335 3.93044 3.72981 3.95953 3.46967 4.21967C3.17678 4.51256 3.17678 4.98744 3.46967 5.28033L3.84857 5.65923C3.3234 6.19953 3 6.937 3 7.75V15.75C3 17.4069 4.34315 18.75 6 18.75H16.9393L18.4697 20.2803C18.7626 20.5732 19.2374 20.5732 19.5303 20.2803C19.8078 20.0029 19.8224 19.5622 19.5742 19.2675C19.5374 19.2421 19.5024 19.213 19.4697 19.1802L4.46967 4.18023C4.45421 4.16478 4.43957 4.14881 4.42575 4.13239ZM20.2002 17.7894C20.6965 17.2542 21 16.5375 21 15.75V9.44196C21 7.78511 19.6569 6.44196 18 6.44196H13.5423C13.1869 6.44196 12.838 6.34727 12.5313 6.16763L10.5798 5.02432C10.2731 4.84469 9.92417 4.75 9.5688 4.75H7.16076L20.2002 17.7894Z" fill="black"/>
</svg>
