<svg width="24" height="24" viewBox="0 0 24 24" fill="none" xmlns="http://www.w3.org/2000/svg">
<path d="M13.5423 6.69196C13.1869 6.69196 12.838 6.59727 12.5313 6.41763L10.5798 5.27432C10.2731 5.09469 9.92417 5 9.5688 5H6C4.34315 5 3 6.34315 3 8V16C3 17.6569 4.34315 19 6 19H18C19.6569 19 21 17.6569 21 16V9.69196C21 8.03511 19.6569 6.69196 18 6.69196H13.5423ZM12.75 10V11.75H14.5C14.9142 11.75 15.25 12.0858 15.25 12.5C15.25 12.9142 14.9142 13.25 14.5 13.25H12.75V15C12.75 15.4142 12.4142 15.75 12 15.75C11.5858 15.75 11.25 15.4142 11.25 15V13.25H9.5C9.08579 13.25 8.75 12.9142 8.75 12.5C8.75 12.0858 9.08579 11.75 9.5 11.75H11.25V10C11.25 9.58579 11.5858 9.25 12 9.25C12.4142 9.25 12.75 9.58579 12.75 10Z" fill="black"/>
</svg>
