<svg width="24" height="24" viewBox="0 0 24 24" fill="none" xmlns="http://www.w3.org/2000/svg">
<path d="M6.11964 4.08388C6.44517 3.72522 6.91509 3.5 7.43761 3.5H9.71576C10.211 3.5 10.6789 3.72736 10.9849 4.11675C11.5753 4.86799 12.4779 5.30661 13.4334 5.30661H17.714C18.9762 5.30661 19.9993 6.32977 19.9993 7.59191V17.9636L21.2803 19.2446C21.2887 19.253 21.2969 19.2615 21.3048 19.2702C21.4295 19.009 21.4993 18.7165 21.4993 18.4077V7.59191C21.4993 5.50135 19.8046 3.80661 17.714 3.80661H13.4334C12.9382 3.80661 12.4703 3.57926 12.1643 3.18987C11.5739 2.43863 10.6712 2 9.71576 2H7.43761C6.50089 2 5.65589 2.39274 5.0583 3.02254L6.11964 4.08388ZM9.23888 7.20312L19.016 16.9803V10.4118C19.016 8.63972 17.5746 7.20312 15.7965 7.20312H9.23888ZM3.25203 3.31778C2.95761 3.05207 2.50331 3.06103 2.21967 3.34467C1.92678 3.63756 1.92678 4.11244 2.21967 4.40533L4.1582 6.34386V7.75873C3.30813 8.33632 2.75 9.30912 2.75 10.4118V17.179C2.75 18.9511 4.19143 20.3877 5.96952 20.3877H18.202L19.0947 21.2803C19.3876 21.5732 19.8624 21.5732 20.1553 21.2803C20.4131 21.0225 20.444 20.6237 20.248 20.3321C20.2384 20.3234 20.2289 20.3145 20.2197 20.3052L3.34467 3.43023C3.30959 3.39515 3.27871 3.35746 3.25203 3.31778Z" fill="black"/>
</svg>
