<svg width="24" height="24" viewBox="0 0 24 24" fill="none" xmlns="http://www.w3.org/2000/svg">
<path d="M7.98619 6.08154C7.73362 6.19011 7.54867 6.39038 7.4535 6.62672L3.90645 14.8494C3.87454 14.9069 3.84813 14.9678 3.82792 15.0315L3.08204 16.7606C2.86329 17.2677 3.09705 17.8561 3.60416 18.0749C4.11128 18.2936 4.69971 18.0598 4.91847 17.5527L5.44407 16.3343H11.305L11.8283 17.5516C12.0464 18.059 12.6345 18.2935 13.1419 18.0754C13.6493 17.8572 13.8838 17.2691 13.6657 16.7617L12.9092 15.0019C12.8943 14.9596 12.8767 14.9187 12.8565 14.8793L9.30954 6.62793C9.21468 6.39145 9.02997 6.19094 8.77753 6.08204C8.64824 6.02627 8.51367 5.99991 8.38128 6C8.2493 5.99991 8.11514 6.02611 7.98619 6.08154ZM6.30681 14.3343L8.37967 9.52903L10.4453 14.3343H6.30681ZM19.7512 10.7952C19.2212 10.2652 18.4612 10.0002 17.4712 10.0002C16.5512 10.0002 15.8112 10.2752 15.2512 10.8252C14.8979 11.1659 14.6561 11.5424 14.5256 11.9546C14.3957 12.3654 14.7523 12.7273 15.1829 12.7426L15.2779 12.7459C15.7305 12.7619 16.0779 12.3652 16.3342 11.9918C16.3692 11.9408 16.4082 11.892 16.4512 11.8452C16.6912 11.5952 17.0362 11.4702 17.4862 11.4702C18.3962 11.4702 18.8512 12.0052 18.8512 13.0752V13.3002L17.0212 13.4052C15.1412 13.5152 14.2012 14.2902 14.2012 15.7302C14.2012 16.4402 14.4312 16.9952 14.8912 17.3952C15.3612 17.7852 15.9862 17.9802 16.7662 17.9802C17.5662 17.9802 18.2612 17.7002 18.8512 17.1402C18.8512 17.5213 19.1601 17.8302 19.5412 17.8302H19.6987C20.1667 17.8302 20.5462 17.4508 20.5462 16.9827V13.0452C20.5462 12.0652 20.2812 11.3152 19.7512 10.7952ZM17.2612 14.7102L18.8662 14.6052V14.8752C18.8662 15.4352 18.7012 15.8602 18.3712 16.1502C18.0512 16.4302 17.6112 16.5702 17.0512 16.5702C16.2812 16.5702 15.8962 16.2802 15.8962 15.7002C15.8962 15.0902 16.3512 14.7602 17.2612 14.7102Z" fill="black"/>
</svg>
