<svg width="24" height="24" viewBox="0 0 24 24" fill="none" xmlns="http://www.w3.org/2000/svg">
<path d="M10.5 3C9.25736 3 8.25 4.00736 8.25 5.25H4.8C3.80589 5.25 3 6.05589 3 7.05V8.45C3 9.44411 3.80589 10.25 4.8 10.25H19.2C20.1941 10.25 21 9.44411 21 8.45V7.05C21 6.05589 20.1941 5.25 19.2 5.25H15.75C15.75 4.00736 14.7426 3 13.5 3C12.9237 3 12.3981 3.21664 12 3.57292C11.6019 3.21664 11.0763 3 10.5 3ZM9.75 5.25C9.75 4.83579 10.0858 4.5 10.5 4.5C10.9142 4.5 11.25 4.83579 11.25 5.25H9.75ZM13.5 4.5C13.9142 4.5 14.25 4.83579 14.25 5.25H12.75C12.75 4.83579 13.0858 4.5 13.5 4.5Z" fill="black"/>
<path d="M11.25 20.25V11.75H4V18.25C4 19.3546 4.89543 20.25 6 20.25H11.25Z" fill="black"/>
<path d="M12.75 20.25H18C19.1046 20.25 20 19.3546 20 18.25V11.75H12.75V20.25Z" fill="black"/>
</svg>
