<svg width="24" height="24" viewBox="0 0 24 24" fill="none" xmlns="http://www.w3.org/2000/svg">
<path d="M10.6998 19.3877C7.17737 18.772 4.5 15.6987 4.5 12C4.5 11.696 4.51808 11.3963 4.55323 11.1018C4.61863 11.2316 4.68917 11.3676 4.76523 11.5101C5.40149 12.7028 6.28331 13.2599 7.10835 13.6105C7.37606 13.7243 7.66236 13.8253 7.91059 13.9129C8.01534 13.9499 8.11332 13.9845 8.20025 14.0166C8.52404 14.1363 8.75799 14.2422 8.93783 14.3719C9.21338 14.5705 9.31532 14.8422 9.32949 15.2284C9.33682 15.4281 9.31875 15.6357 9.29352 15.8556C9.28979 15.8881 9.28556 15.9232 9.28111 15.96L9.2811 15.9601C9.25997 16.1351 9.23405 16.3499 9.23405 16.5232C9.23405 17.0863 9.52025 17.5264 9.7492 17.8538C9.81365 17.946 9.87854 18.0356 9.94405 18.1261L9.94409 18.1262L9.9441 18.1262C10.1379 18.3939 10.3371 18.6691 10.5466 19.0392C10.6169 19.1632 10.6661 19.28 10.6998 19.3877ZM15.5784 18.5929L15.5859 18.5746C15.6467 18.4249 15.7319 18.1958 15.7451 17.9635C15.7489 17.9506 15.7557 17.929 15.7671 17.8972C15.7989 17.8086 15.8481 17.6899 15.915 17.5359C15.9487 17.4582 15.9866 17.3725 16.0272 17.2806L16.0273 17.2804L16.0273 17.2804C16.1399 17.0257 16.2731 16.7243 16.3955 16.4191C16.5629 16.0016 16.7297 15.5306 16.8214 15.0761C16.9086 14.6441 16.9547 14.1046 16.7505 13.6237C16.5251 13.093 16.0653 12.8043 15.6549 12.6435C15.241 12.4814 14.771 12.4061 14.3471 12.3654C13.94 12.3262 13.5274 12.3152 13.1878 12.3062L13.1878 12.3062L13.1325 12.3047C12.7469 12.2943 12.5218 12.2841 12.411 12.2618C12.2391 12.2271 12.0708 12.1429 11.923 12.0361C11.7723 11.9274 11.6765 11.8197 11.6492 11.783L11.5435 11.6407L11.3852 11.5608C10.8625 11.297 10.534 11.0907 10.331 10.9391L10.9867 10.4474C11.1211 10.3855 11.2545 10.3149 11.3809 10.2348C11.6985 10.0336 12.1309 9.66712 12.2315 9.1033C12.3807 9.06816 12.5567 9.01237 12.7523 8.91367C12.9816 8.79795 13.192 8.64112 13.3487 8.42293C13.5096 8.19898 13.5798 7.95786 13.5986 7.73087C13.6265 7.39294 13.5337 7.02597 13.4706 6.78009L13.4806 6.77179C13.5167 6.74197 13.5587 6.71016 13.6158 6.66763L13.6333 6.65461C13.6831 6.61753 13.7444 6.57196 13.8043 6.52436C13.9368 6.41907 14.1143 6.26481 14.2554 6.05107C14.5818 5.55691 14.3251 5.07227 14.1981 4.88489C14.1813 4.86007 14.1636 4.83552 14.1452 4.81129C15.9555 5.35072 17.4792 6.55533 18.4327 8.14163C18.3268 8.23185 18.2257 8.32655 18.1308 8.42119C17.7113 8.83961 17.3369 9.33473 17.1102 9.67548C16.9232 9.92637 16.7336 10.3072 16.7303 10.7821C16.7267 11.2928 16.9393 11.806 17.3916 12.2746C17.7448 12.6406 18.2464 12.8753 18.7523 13.0331C18.958 13.0972 19.1765 13.1524 19.4046 13.1993C19.0298 15.5317 17.5795 17.5045 15.5784 18.5929ZM19.8346 7.56738L19.836 7.5391L19.818 7.53828C18.2674 4.82708 15.347 3 12 3C7.02944 3 3 7.02944 3 12C3 16.9706 7.02944 21 12 21C16.9706 21 21 16.9706 21 12C21 10.3884 20.5764 8.87582 19.8346 7.56738Z" fill="black"/>
</svg>
