<svg width="24" height="24" viewBox="0 0 24 24" fill="none" xmlns="http://www.w3.org/2000/svg">
<path d="M11.3548 16.6869C10.6405 17.2146 10.4668 18.2534 10.9668 19.0071C11.0625 19.1514 11.1793 19.2788 11.3129 19.3845L13.94 21.3431C15.0979 22.2063 16.6815 22.22 17.8541 21.377L20.4362 19.5206C21.1421 18.9805 21.2994 17.9389 20.7877 17.194C20.6898 17.0515 20.5712 16.9263 20.4362 16.823L16.9613 19.1409C16.3122 19.5738 15.464 19.5643 14.8249 19.1167L11.3548 16.6869ZM11.1285 2C6.08696 2 2 6.13407 2 11.2337C2 15.7023 5.16023 19.507 9.45448 20.3124C9.79356 20.376 10.1194 20.1495 10.1823 19.8065C10.2451 19.4635 10.0212 19.1339 9.68216 19.0703C8.18692 18.7899 6.85075 18.0876 5.7901 17.0968C8.19693 15.651 8.32286 13.6065 7.19323 12.936C6.05683 12.2614 5.37143 11.5814 5.89444 10.6869C6.41745 9.79246 7.29779 10.2314 8.45832 9.14321C9.23201 8.41778 8.65449 6.86682 6.72577 4.49034L6.79494 4.57582C7.61873 4.02609 8.55056 3.62859 9.55132 3.42459C9.81125 4.16232 10.24 4.62634 10.8377 4.81665C11.9528 5.17176 12.5026 5.34822 12.4241 5.97451C12.3457 6.60081 12.5759 7.61516 14.2414 8.00532C15.213 8.23292 16.487 8.0468 18.0647 7.44613C18.4649 8.19491 18.7507 9.01795 18.8972 9.89284C18.9547 10.2368 19.277 10.4684 19.6171 10.4102C19.9571 10.3519 20.1861 10.0259 20.1285 9.68196C19.3903 5.27154 15.5985 2 11.1285 2ZM15.0416 10.872L11.5283 13.1595C10.8255 13.617 10.6267 14.5577 11.0843 15.2605C11.1908 15.4241 11.3279 15.5656 11.488 15.6773L15.0306 18.1486C15.5454 18.5077 16.228 18.5131 16.7484 18.1622L20.2622 15.7927C20.9575 15.3238 21.141 14.3801 20.6721 13.6848C20.5631 13.523 20.4239 13.3838 20.2622 13.2748L16.7191 10.8855C16.2134 10.5445 15.5527 10.5392 15.0416 10.872Z" fill="black"/>
</svg>
