<svg width="24" height="24" viewBox="0 0 24 24" fill="none" xmlns="http://www.w3.org/2000/svg">
<path d="M10.0003 4.57109L3.95345 7.86465C2.68218 8.55697 2.68218 10.3487 3.95345 11.0411L6.36523 12.3547V12.3601L10.3587 14.5353C11.5335 15.1748 12.9647 15.1751 14.1408 14.5353L18.1348 12.3599V12.3547L20.5465 11.0411C21.8178 10.3487 21.8178 8.55697 20.5465 7.86465L19.3028 7.1872L14.3356 9.6708C13.9651 9.85604 13.5146 9.70588 13.3293 9.33539C13.1441 8.96491 13.2943 8.5144 13.6648 8.32916L17.6974 6.31282L14.4997 4.57109C13.1001 3.80964 11.3999 3.80964 10.0003 4.57109ZM6.36523 16.1214C6.36523 17.0327 6.83045 17.8825 7.6032 18.3866L9.17711 19.4131C11.039 20.6268 13.462 20.6268 15.3229 19.4131L16.8968 18.3866C17.6705 17.8825 18.1348 17.0317 18.1348 16.1214V14.068L14.8583 15.8526C13.2353 16.7356 11.2638 16.7359 9.64149 15.8527L6.36523 14.0682V16.1214Z" fill="black"/>
</svg>
