<svg width="24" height="24" viewBox="0 0 24 24" fill="none" xmlns="http://www.w3.org/2000/svg">
<path d="M9.1269 3.01376C8.58213 2.92297 8.0669 3.29099 7.97611 3.83576L5.38861 19.3608C5.29781 19.9055 5.66583 20.4208 6.2106 20.5115C6.75537 20.6023 7.2706 20.2343 7.36139 19.6896L9.94889 4.16456C10.0397 3.61978 9.67167 3.10456 9.1269 3.01376Z" fill="black"/>
<path d="M16.8886 3.01376C16.3438 2.92297 15.8286 3.29099 15.7378 3.83576L13.1503 19.3608C13.0595 19.9055 13.4275 20.4208 13.9723 20.5115C14.5171 20.6023 15.0323 20.2343 15.1231 19.6896L17.7106 4.16456C17.8014 3.61978 17.4334 3.10456 16.8886 3.01376Z" fill="black"/>
<path d="M3.34961 7.93766C3.34961 8.48994 3.79732 8.93766 4.34961 8.93766H20.0996C20.6519 8.93766 21.0996 8.48994 21.0996 7.93766C21.0996 7.38537 20.6519 6.93766 20.0996 6.93766H4.34961C3.79732 6.93766 3.34961 7.38537 3.34961 7.93766Z" fill="black"/>
<path d="M2 15.5871C2 16.1394 2.44772 16.5871 3 16.5871H18.75C19.3023 16.5871 19.75 16.1394 19.75 15.5871C19.75 15.0348 19.3023 14.5871 18.75 14.5871H3C2.44772 14.5871 2 15.0348 2 15.5871Z" fill="black"/>
</svg>
