<svg width="24" height="24" viewBox="0 0 24 24" fill="none" xmlns="http://www.w3.org/2000/svg">
<path d="M6.88889 4C6.39797 4 6 4.39797 6 4.88889V19.1111C6 19.602 6.39797 20 6.88889 20C7.37981 20 7.77778 19.602 7.77778 19.1111V4.88889C7.77778 4.39797 7.37981 4 6.88889 4Z" fill="black"/>
<path d="M6 12.0139C6 12.5048 6.39797 12.9028 6.88889 12.9028H16.3447C16.8357 12.9028 17.2336 12.5048 17.2336 12.0139C17.2336 11.523 16.8357 11.125 16.3447 11.125H6.88889C6.39797 11.125 6 11.523 6 12.0139Z" fill="black"/>
<path d="M16.344 4C15.853 4 15.4551 4.39797 15.4551 4.88889V19.1111C15.4551 19.602 15.853 20 16.344 20C16.8349 20 17.2329 19.602 17.2329 19.1111V4.88889C17.2329 4.39797 16.8349 4 16.344 4Z" fill="black"/>
</svg>
