<svg width="24" height="24" viewBox="0 0 24 24" fill="none" xmlns="http://www.w3.org/2000/svg">
<path d="M4.99414 10.9067V13.25C4.99414 13.6642 5.32993 14 5.74414 14C6.15835 14 6.49414 13.6642 6.49414 13.25V10.9067C6.49414 7.92067 8.91481 5.5 11.9009 5.5C14.8869 5.5 17.3076 7.92067 17.3076 10.9067V13.25C17.3076 13.6642 17.6434 14 18.0576 14C18.4718 14 18.8076 13.6642 18.8076 13.25V10.9067C18.8076 7.09224 15.7153 4 11.9009 4C8.08638 4 4.99414 7.09224 4.99414 10.9067Z" fill="black"/>
<path d="M14.0352 19.8055C14.0352 20.2529 14.3316 20.658 14.7761 20.7089C14.9415 20.7278 15.1097 20.7377 15.2803 20.7377C17.8022 20.7377 19.846 18.694 19.846 16.1721C19.846 13.651 17.8022 11.6064 15.2803 11.6064C15.1097 11.6064 14.9415 11.6165 14.776 11.6356C14.3316 11.6869 14.0352 12.0921 14.0352 12.5395V19.8055Z" fill="black"/>
<path d="M9.81083 12.5514C9.81083 12.104 9.51437 11.6989 9.06986 11.648C8.90445 11.6291 8.73628 11.6191 8.56565 11.6191C6.04375 11.6191 4 13.6629 4 16.1848C4 18.7059 6.04375 20.7504 8.56565 20.7504C8.73631 20.7504 8.90452 20.7404 9.06996 20.7213C9.51441 20.67 9.81083 20.2648 9.81083 19.8174V12.5514Z" fill="black"/>
</svg>
