<svg width="24" height="24" viewBox="0 0 24 24" fill="none" xmlns="http://www.w3.org/2000/svg">
<path d="M12.567 5.64354C12.2504 5.32394 11.7493 5.32366 11.4324 5.64289L5.48477 11.6342L6.18478 18.6943C6.31469 20.0045 7.36859 21 8.62581 21H15.3898C16.6511 21 17.707 19.9982 17.8319 18.6831L18.5011 11.6342L12.567 5.64354ZM13.9776 3.73575C12.8579 2.72442 11.1339 2.75473 10.0504 3.83262L3.24244 10.6082L3.17401 10.6854C2.92292 11.0067 2.94333 11.4731 3.23678 11.771C3.55468 12.0936 4.07264 12.0962 4.39367 11.7766L11.2015 5.00116L11.2951 4.91699C11.779 4.52443 12.4899 4.5561 12.9372 5.00972L19.6007 11.771L19.6775 11.8398C19.9972 12.0921 20.4613 12.0715 20.7576 11.7766C21.0786 11.457 21.0811 10.9365 20.7631 10.6139L14.0995 3.85241L13.9776 3.73575Z" fill="black"/>
</svg>
