<svg width="24" height="24" viewBox="0 0 24 24" fill="none" xmlns="http://www.w3.org/2000/svg">
<path d="M3.96967 4.21967C3.67678 4.51256 3.67678 4.98744 3.96967 5.28033L6.25 7.56066V8.75H6C4.34315 8.75 3 10.0931 3 11.75V18.25C3 19.9069 4.34315 21.25 6 21.25H15C16.3368 21.25 17.4693 20.3757 17.857 19.1677L18.9697 20.2803C19.2626 20.5732 19.7374 20.5732 20.0303 20.2803C20.3078 20.0029 20.3224 19.5622 20.0742 19.2675C20.0374 19.2421 20.0024 19.213 19.9697 19.1802L4.96967 4.18023C4.95421 4.16478 4.93957 4.14881 4.92575 4.13239C4.6335 3.93044 4.22981 3.95953 3.96967 4.21967ZM21.75 12.75V6.25C21.75 4.45508 20.2949 3 18.5 3H9.5C8.5162 3 7.63449 3.43713 7.03851 4.12775L8.10455 5.1938C8.4241 4.77227 8.93025 4.5 9.5 4.5H10.1709V6.40039H9.31115L13.1608 10.25H15C15.8284 10.25 16.5 10.9216 16.5 11.75V13.5892L18.8879 15.9771C20.4999 15.7854 21.75 14.4137 21.75 12.75ZM8.93934 10.25L10.1977 11.5083C9.80048 11.7782 9.53955 12.2336 9.53955 12.75C9.53955 13.5784 10.2111 14.25 11.0396 14.25C11.5559 14.25 12.0114 13.9891 12.2812 13.5919L13.7264 15.037C13.3158 15.0166 12.8985 15.1586 12.5785 15.4635L11.5649 16.4297C11.201 16.7765 10.6275 16.7718 10.2693 16.419L8.16673 14.3481C7.47367 13.6654 6.36107 13.6652 5.66776 14.3476L4.5 15.738V11.75C4.5 10.9216 5.17157 10.25 6 10.25H8.93934ZM18 14.5V12H20.25V12.75C20.25 13.7165 19.4665 14.5 18.5 14.5H18ZM17.728 10.5C17.7098 10.4604 17.6907 10.4212 17.6709 10.3825V7.8999H20.25V10.5H17.728ZM17.6709 6.3999V4.5H18.5C19.4665 4.5 20.25 5.2835 20.25 6.25V6.3999H17.6709ZM16.1709 8.98709C15.8111 8.83444 15.4154 8.75 15 8.75H11.6709V4.5H16.1709V8.98709Z" fill="black"/>
</svg>
