<svg width="24" height="24" viewBox="0 0 24 24" fill="none" xmlns="http://www.w3.org/2000/svg">
<path d="M4.46967 4.21967C4.17678 4.51256 4.17678 4.98744 4.46967 5.28033L19.4697 20.2803C19.7626 20.5732 20.2374 20.5732 20.5303 20.2803C20.8232 19.9874 20.8232 19.5126 20.5303 19.2197L5.53033 4.21967C5.23744 3.92678 4.76256 3.92678 4.46967 4.21967Z" fill="black"/>
<path d="M6.66687 5.47753C5.11318 6.02659 4 7.5083 4 9.25V15.4167C4 17.6258 5.79086 19.4167 8 19.4167H17C18.0043 19.4167 18.9222 19.0465 19.6246 18.4353L14.2387 13.0494L13.2781 13.965C12.8414 14.3812 12.1532 14.3755 11.7234 13.9522L9.20033 11.4671C8.36865 10.6479 7.03353 10.6477 6.20155 11.4665L5.5 12.2019V9.25C5.5 7.88933 6.58703 6.78255 7.94004 6.7507L6.66687 5.47753ZM11.7138 10.5245C11.8594 10.7495 12.0515 10.9416 12.2765 11.0872L11.7138 10.5245ZM14.3689 11.0582C14.8647 10.7178 15.1899 10.1469 15.1899 9.49997C15.1899 8.45677 14.3442 7.61108 13.301 7.61108C12.6541 7.61108 12.0832 7.93626 11.7427 8.43208L14.3689 11.0582ZM15.6099 12.2992L20.5576 17.247C20.8404 16.6985 21 16.0762 21 15.4167V9.25C21 7.04086 19.2091 5.25 17 5.25H8.56066L10.0607 6.75H17C18.3807 6.75 19.5 7.86929 19.5 9.25V14.8342L17.0799 12.8214C16.675 12.426 16.1344 12.2516 15.6099 12.2992Z" fill="black"/>
</svg>
