<svg width="24" height="24" viewBox="0 0 24 24" fill="none" xmlns="http://www.w3.org/2000/svg">
<path d="M16.7647 6.58824C18.2266 6.58824 19.4118 7.77336 19.4118 9.23529V15.1479L16.8493 13.0168C16.09 12.2753 14.88 12.2679 14.1118 13.0001L12.8239 14.2277C12.3615 14.6683 11.6328 14.6623 11.1778 14.2141L8.50623 11.5828C7.62563 10.7154 6.21198 10.7152 5.33106 11.5822L4.58824 12.3608V9.2353C4.58824 7.77337 5.77337 6.58824 7.23529 6.58824H16.7647ZM7.23529 5C4.89621 5 3 6.89621 3 9.2353V15.7647C3 18.1038 4.89621 20 7.23529 20H16.7647C19.1038 20 21 18.1038 21 15.7647V9.23529C21 6.89621 19.1038 5 16.7647 5H7.23529ZM14.8481 9.49997C14.8481 8.3954 13.9527 7.49997 12.8481 7.49997C11.7435 7.49997 10.8481 8.3954 10.8481 9.49997C10.8481 10.6045 11.7435 11.5 12.8481 11.5C13.9527 11.5 14.8481 10.6045 14.8481 9.49997Z" fill="black"/>
</svg>
