<svg width="24" height="24" viewBox="0 0 24 24" fill="none" xmlns="http://www.w3.org/2000/svg">
<path d="M8.70508 4.5H18.7502C20.1309 4.5 21.2502 5.61929 21.2502 7V13.3043L18.8299 11.2914C18.1128 10.5911 16.97 10.5841 16.2445 11.2756L15.0281 12.435C14.5914 12.8512 13.9032 12.8455 13.4734 12.4222L10.9503 9.93705C10.1187 9.11788 8.78353 9.11763 7.95155 9.93649L6.20508 11.6554V7C6.20508 5.61929 7.32437 4.5 8.70508 4.5ZM4.70508 7V14.0376C4.70508 16.2467 6.49594 18.0376 8.70508 18.0376H18.7502C20.9593 18.0376 22.7502 16.2467 22.7502 14.0376V7C22.7502 4.79086 20.9593 3 18.7502 3H8.70508C6.49594 3 4.70508 4.79086 4.70508 7ZM3.5 8.86328C3.5 8.44907 3.16421 8.11328 2.75 8.11328C2.33579 8.11328 2 8.44907 2 8.86328V15.4422C2 18.6179 4.57436 21.1922 7.75 21.1922H14.3289C14.7432 21.1922 15.0789 20.8564 15.0789 20.4422C15.0789 20.028 14.7432 19.6922 14.3289 19.6922H7.75C5.40279 19.6922 3.5 17.7894 3.5 15.4422V8.86328ZM15.5823 7.22497C15.5823 6.39378 14.9085 5.71997 14.0773 5.71997C13.2461 5.71997 12.5723 6.39378 12.5723 7.22497C12.5723 8.05616 13.2461 8.72997 14.0773 8.72997C14.9085 8.72997 15.5823 8.05616 15.5823 7.22497Z" fill="black"/>
</svg>
