<svg width="24" height="24" viewBox="0 0 24 24" fill="none" xmlns="http://www.w3.org/2000/svg">
<path d="M15 10.25C15.8284 10.25 16.5 10.9216 16.5 11.75V18.25C16.5 19.0784 15.8284 19.75 15 19.75H6C5.17157 19.75 4.5 19.0784 4.5 18.25V11.75C4.5 10.9216 5.17157 10.25 6 10.25H15ZM6 8.75C4.34315 8.75 3 10.0931 3 11.75V18.25C3 19.9069 4.34315 21.25 6 21.25H15C16.6569 21.25 18 19.9069 18 18.25V11.75C18 10.0931 16.6569 8.75 15 8.75H6Z" fill="black"/>
<path d="M4.50004 19.75H17V17.25L14.7331 15.4767C14.1355 14.8931 13.1831 14.8873 12.5785 15.4635L11.5649 16.4297C11.201 16.7765 10.6275 16.7718 10.2693 16.419L8.16674 14.3481C7.47367 13.6654 6.36108 13.6652 5.66776 14.3476L4.00004 16.3333" fill="black"/>
<path d="M11.0391 14.2497C11.8675 14.2497 12.5391 13.5781 12.5391 12.7497C12.5391 11.9212 11.8675 11.2497 11.0391 11.2497C10.2106 11.2497 9.53906 11.9212 9.53906 12.7497C9.53906 13.5781 10.2106 14.2497 11.0391 14.2497Z" fill="black"/>
<path d="M6.25 6.25V9.25C6.25 9.66421 6.58579 10 7 10C7.41421 10 7.75 9.66421 7.75 9.25V6.25C7.75 5.2835 8.5335 4.5 9.5 4.5H18.5C19.4665 4.5 20.25 5.2835 20.25 6.25V12.75C20.25 13.7165 19.4665 14.5 18.5 14.5H18C17.5858 14.5 17.25 14.8358 17.25 15.25C17.25 15.6642 17.5858 16 18 16H18.5C20.2949 16 21.75 14.5449 21.75 12.75V6.25C21.75 4.45508 20.2949 3 18.5 3H9.5C7.70507 3 6.25 4.45507 6.25 6.25Z" fill="black"/>
<path d="M11.6719 3.93429H10.1719V9.07715H11.6719V3.93429Z" fill="black"/>
<path d="M17.6719 3.93429H16.1719V10.45H17.6719V3.93429Z" fill="black"/>
<path d="M20.9925 7.9V6.4H16.8496V7.9H20.9925Z" fill="black"/>
<path d="M10.9925 7.90039V6.40039H6.84961V7.90039H10.9925Z" fill="black"/>
<path d="M20.9925 12V10.5H16.8496V12H20.9925Z" fill="black"/>
</svg>
