<svg width="24" height="24" viewBox="0 0 24 24" fill="none" xmlns="http://www.w3.org/2000/svg">
<path d="M4.25203 3.288C3.95761 3.02228 3.50331 3.03125 3.21967 3.31488C2.92678 3.60778 2.92678 4.08265 3.21967 4.37554L4.83365 5.98953C4.74964 6.3123 4.70493 6.65093 4.70493 7V14.0376C4.70493 16.2467 6.49579 18.0376 8.70493 18.0376H16.8817L20.0947 21.2505C20.3876 21.5434 20.8624 21.5434 21.1553 21.2505C21.4131 20.9927 21.444 20.5939 21.248 20.3023C21.2384 20.2937 21.2289 20.2847 21.2197 20.2754L4.34467 3.40045C4.30959 3.36537 4.27871 3.32767 4.25203 3.288ZM20.6331 17.5675C21.8929 16.8941 22.75 15.5659 22.75 14.0376V7C22.75 4.79086 20.9592 3 18.75 3H8.70493C7.94914 3 7.24232 3.20961 6.63941 3.57387L7.75311 4.68757C8.04649 4.56668 8.36792 4.5 8.70493 4.5H18.75C20.1307 4.5 21.25 5.61929 21.25 7V13.3044L18.8299 11.2916C18.1128 10.5913 16.97 10.5843 16.2445 11.2759L15.2701 12.2046L20.6331 17.5675ZM6.20493 7.3608L8.42726 9.58313C8.25695 9.6761 8.09661 9.79397 7.95155 9.93673L6.20493 11.6558V7.3608ZM3.5 8.86328C3.5 8.44907 3.16421 8.11328 2.75 8.11328C2.33579 8.11328 2 8.44907 2 8.86328V15.4422C2 18.6179 4.57436 21.1922 7.75 21.1922H14.3289C14.7432 21.1922 15.0789 20.8564 15.0789 20.4422C15.0789 20.028 14.7432 19.6922 14.3289 19.6922H7.75C5.40279 19.6922 3.5 17.7894 3.5 15.4422V8.86328ZM15.5824 7.22521C15.5824 6.39403 14.9086 5.72021 14.0774 5.72021C13.2462 5.72021 12.5724 6.39403 12.5724 7.22521C12.5724 8.0564 13.2462 8.73022 14.0774 8.73022C14.9086 8.73022 15.5824 8.0564 15.5824 7.22521Z" fill="black"/>
</svg>
