<svg width="24" height="24" viewBox="0 0 24 24" fill="none" xmlns="http://www.w3.org/2000/svg">
<path d="M7 3C4.79086 3 3 4.79086 3 7V13.25H8C9.00246 13.25 9.63813 14.0578 9.8731 14.7365C10.1784 15.6185 11.0164 16.25 12 16.25C12.9836 16.25 13.8216 15.6185 14.1269 14.7365C14.3619 14.0578 14.9975 13.25 16 13.25H21V7C21 4.79086 19.2091 3 17 3H7ZM21 14.75H16C15.9441 14.75 15.8708 14.7708 15.7813 14.8517C15.6873 14.9366 15.5989 15.0697 15.5444 15.2273C15.0363 16.6946 13.6424 17.75 12 17.75C10.3576 17.75 8.96367 16.6946 8.45565 15.2273C8.40111 15.0697 8.31265 14.9366 8.21871 14.8517C8.12917 14.7708 8.05587 14.75 8 14.75H3V17C3 19.2091 4.79086 21 7 21H17C19.2091 21 21 19.2091 21 17V14.75Z" fill="black"/>
</svg>
