<svg width="24" height="24" viewBox="0 0 24 24" fill="none" xmlns="http://www.w3.org/2000/svg">
<path d="M3 4.9C3 5.39706 3.40294 5.8 3.9 5.8H20.1C20.5971 5.8 21 5.39706 21 4.9C21 4.40294 20.5971 4 20.1 4H3.9C3.40294 4 3 4.40294 3 4.9Z" fill="black"/>
<path d="M10.1992 9.6998C10.1992 10.1969 10.6022 10.5998 11.0992 10.5998H20.0992C20.5963 10.5998 20.9992 10.1969 20.9992 9.6998C20.9992 9.20275 20.5963 8.7998 20.0992 8.7998H11.0992C10.6022 8.7998 10.1992 9.20275 10.1992 9.6998Z" fill="black"/>
<path d="M10.1992 14.4996C10.1992 14.9967 10.6022 15.3996 11.0992 15.3996H20.0992C20.5963 15.3996 20.9992 14.9967 20.9992 14.4996C20.9992 14.0026 20.5963 13.5996 20.0992 13.5996H11.0992C10.6022 13.5996 10.1992 14.0026 10.1992 14.4996Z" fill="black"/>
<path d="M3 19.2994C3 19.7965 3.40294 20.1994 3.9 20.1994H20.1C20.5971 20.1994 21 19.7965 21 19.2994C21 18.8024 20.5971 18.3994 20.1 18.3994H3.9C3.40294 18.3994 3 18.8024 3 19.2994Z" fill="black"/>
<path d="M5.5416 9.19656C4.81419 8.56007 3.67578 9.07665 3.67578 10.0432V14.3598C3.67578 15.3264 4.81419 15.8429 5.5416 15.2065L8.00823 13.0482C8.52048 12.5999 8.52047 11.8031 8.00823 11.3549L5.5416 9.19656Z" fill="black"/>
</svg>
