<svg width="24" height="24" viewBox="0 0 24 24" fill="none" xmlns="http://www.w3.org/2000/svg">
<path d="M10.6122 6.55557C10.6122 7.41425 11.3091 8.11115 12.1678 8.11115C13.0265 8.11115 13.7234 7.41425 13.7234 6.55557C13.7234 5.6969 13.0265 5 12.1616 5C11.3029 5 10.606 5.6969 10.6122 6.55557ZM11 10.222C10.4477 10.222 10 10.6697 10 11.222C10 11.7743 10.4477 12.222 11 12.222H11.5556V17.9999H11.3889C10.8366 17.9999 10.3889 18.4476 10.3889 18.9999C10.3889 19.5522 10.8366 19.9999 11.3889 19.9999H12.5556H13.7223C14.2745 19.9999 14.7223 19.5522 14.7223 18.9999C14.7223 18.4476 14.2745 17.9999 13.7223 17.9999H13.5556V11.222C13.5556 10.6697 13.1079 10.222 12.5556 10.222H11Z" fill="black"/>
</svg>
