<svg width="24" height="24" viewBox="0 0 24 24" fill="none" xmlns="http://www.w3.org/2000/svg">
<path d="M8.64158 2.95248C9.66408 1.12784 11.9789 0.475525 13.8192 1.4526C14.4649 1.79544 15 2.31501 15.3572 2.95248L23.5211 17.5208C24.5586 19.3724 23.8493 21.6825 21.9831 22.6733C21.423 22.9707 20.7976 23.1257 20.1632 23.1257H3.83552C1.74108 23.1257 0 21.4577 0 19.3471C0 18.7073 0.164874 18.0791 0.477714 17.5208L8.64158 2.95248ZM11.996 8.5C11.444 8.5 10.996 8.948 11 9.5C11 10.052 11.448 10.5 12 10.5C12.552 10.5 13 10.052 13 9.5C13 8.948 12.552 8.5 11.996 8.5ZM11.5 11.75C11.0858 11.75 10.75 12.0858 10.75 12.5C10.75 12.9142 11.0858 13.25 11.5 13.25V16.75C11.0858 16.75 10.75 17.0858 10.75 17.5C10.75 17.9142 11.0858 18.25 11.5 18.25H13C13.4142 18.25 13.75 17.9142 13.75 17.5C13.75 17.0858 13.4142 16.75 13 16.75V12.5C13 12.0858 12.6642 11.75 12.25 11.75H11.5Z" fill="black"/>
</svg>
