<svg width="24" height="24" viewBox="0 0 24 24" fill="none" xmlns="http://www.w3.org/2000/svg">
<path d="M5.42551 4.13222C5.13661 3.93277 4.73782 3.95848 4.47679 4.21265C4.18002 4.50161 4.17368 4.97644 4.46265 5.27321L6.01952 6.87216C4.22934 7.76676 3 9.61699 3 11.7544C3 14.7668 5.44208 17.2089 8.45455 17.2089C10.5401 17.2089 12.3522 16.0384 13.27 14.3186L18.3376 19.5232C18.6266 19.82 19.1014 19.8263 19.3982 19.5374C19.6817 19.2614 19.7002 18.8158 19.4495 18.5178C19.4099 18.4905 19.3724 18.459 19.3376 18.4232L5.46265 4.17324C5.44967 4.15991 5.43729 4.14623 5.42551 4.13222ZM10 11.7998C10 12.6282 9.32843 13.2998 8.5 13.2998C7.67157 13.2998 7 12.6282 7 11.7998C7 10.9714 7.67157 10.2998 8.5 10.2998C9.32843 10.2998 10 10.9714 10 11.7998Z" fill="black"/>
<path d="M16.0898 12.9375L18.6557 15.5726H19.4535C20.0058 15.5726 20.4535 15.1249 20.4535 14.5726V12.5044H20.9991C21.4133 12.5044 21.7491 12.1686 21.7491 11.7544C21.7491 11.3402 21.4133 11.0044 20.9991 11.0044H20.4535V11H16.0898V11.0044H14.2787C13.7299 8.63015 11.7934 6.73711 9.29999 6.1001L14.3 11.1001L14.2998 11.099L15.6682 12.5044H16.0898V12.9375Z" fill="black"/>
</svg>
