<svg width="24" height="24" viewBox="0 0 24 24" fill="none" xmlns="http://www.w3.org/2000/svg">
<path d="M8.45455 17.9091C11.467 17.9091 13.9091 15.467 13.9091 12.4545C13.9091 9.44208 11.467 7 8.45455 7C5.44208 7 3 9.44208 3 12.4545C3 15.467 5.44208 17.9091 8.45455 17.9091ZM8.5 14C7.67157 14 7 13.3284 7 12.5C7 11.6716 7.67157 11 8.5 11C9.32843 11 10 11.6716 10 12.5C10 13.3284 9.32843 14 8.5 14Z" fill="black"/>
<path d="M12.9082 12.4546C12.9082 13.0069 13.3559 13.4546 13.9082 13.4546H20.9991C21.5514 13.4546 21.9991 13.0069 21.9991 12.4546C21.9991 11.9023 21.5514 11.4546 20.9991 11.4546H13.9082C13.3559 11.4546 12.9082 11.9023 12.9082 12.4546Z" fill="black"/>
<path d="M16.0898 11.7002V15.2728C16.0898 15.8251 16.5376 16.2728 17.0898 16.2728H19.4535C20.0058 16.2728 20.4535 15.8251 20.4535 15.2728V11.7002H16.0898Z" fill="black"/>
</svg>
