<svg width="24" height="24" viewBox="0 0 24 24" fill="none" xmlns="http://www.w3.org/2000/svg">
<path d="M5 5C3.34315 5 2 6.34315 2 8V16C2 17.6569 3.34315 19 5 19H19C20.6569 19 22 17.6569 22 16V8C22 6.34315 20.6569 5 19 5H5ZM5.5 8H6.5C6.77614 8 7 8.22386 7 8.5V9.5C7 9.77614 6.77614 10 6.5 10H5.5C5.22386 10 5 9.77614 5 9.5V8.5C5 8.22386 5.22386 8 5.5 8ZM5 11.5C5 11.2239 5.22386 11 5.5 11H6.5C6.77614 11 7 11.2239 7 11.5V12.5C7 12.7761 6.77614 13 6.5 13H5.5C5.22386 13 5 12.7761 5 12.5V11.5ZM9.5 8H10.5C10.7761 8 11 8.22386 11 8.5V9.5C11 9.77614 10.7761 10 10.5 10H9.5C9.22386 10 9 9.77614 9 9.5V8.5C9 8.22386 9.22386 8 9.5 8ZM9 11.5C9 11.2239 9.22386 11 9.5 11H10.5C10.7761 11 11 11.2239 11 11.5V12.5C11 12.7761 10.7761 13 10.5 13H9.5C9.22386 13 9 12.7761 9 12.5V11.5ZM13.5 8H14.5C14.7761 8 15 8.22386 15 8.5V9.5C15 9.77614 14.7761 10 14.5 10H13.5C13.2239 10 13 9.77614 13 9.5V8.5C13 8.22386 13.2239 8 13.5 8ZM13 11.5C13 11.2239 13.2239 11 13.5 11H14.5C14.7761 11 15 11.2239 15 11.5V12.5C15 12.7761 14.7761 13 14.5 13H13.5C13.2239 13 13 12.7761 13 12.5V11.5ZM17.5 8H18.5C18.7761 8 19 8.22386 19 8.5V9.5C19 9.77614 18.7761 10 18.5 10H17.5C17.2239 10 17 9.77614 17 9.5V8.5C17 8.22386 17.2239 8 17.5 8ZM17 11.5C17 11.2239 17.2239 11 17.5 11H18.5C18.7761 11 19 11.2239 19 11.5V12.5C19 12.7761 18.7761 13 18.5 13H17.5C17.2239 13 17 12.7761 17 12.5V11.5ZM7 14.75H17C17.4142 14.75 17.75 15.0858 17.75 15.5C17.75 15.9142 17.4142 16.25 17 16.25H7C6.58579 16.25 6.25 15.9142 6.25 15.5C6.25 15.0858 6.58579 14.75 7 14.75Z" fill="black"/>
</svg>
