<svg width="24" height="24" viewBox="0 0 24 24" fill="none" xmlns="http://www.w3.org/2000/svg">
<path d="M5.5 14.5556V7C5.5 6.44772 5.94772 6 6.5 6H17.5C18.0523 6 18.5 6.44772 18.5 7V14.5556H5.5ZM2.3 14.7C2.13431 14.7 2 14.8343 2 15V17.2556C2 18.9124 3.34315 20.2556 5 20.2556H19C20.6569 20.2556 22 18.9124 22 17.2556V15C22 14.8343 21.8657 14.7 21.7 14.7H20.5V7C20.5 5.34315 19.1569 4 17.5 4H6.5C4.84315 4 3.5 5.34315 3.5 7V14.7H2.3ZM5 18.2556C4.44771 18.2556 4 17.8079 4 17.2556V16.7H8.72341C8.77232 17.0669 9.0865 17.35 9.4668 17.35H14.5335C14.9138 17.35 15.2279 17.0669 15.2768 16.7H20V17.2556C20 17.8079 19.5523 18.2556 19 18.2556H5Z" fill="black"/>
</svg>
