<svg width="24" height="24" viewBox="0 0 24 24" fill="none" xmlns="http://www.w3.org/2000/svg">
<path d="M17 19.0001C17 18.4478 16.5523 18.0001 16 18.0001H8C7.44771 18.0001 7 18.4478 7 19.0001C7 19.5524 7.44771 20.0001 8 20.0001H16C16.5523 20.0001 17 19.5524 17 19.0001Z" fill="black"/>
<path d="M16.848 15.5301C17.1407 15.0618 16.9983 14.4448 16.53 14.1521L9.8868 10.0001L16.53 5.84813C16.9983 5.55542 17.1407 4.93847 16.848 4.47014C16.5553 4.0018 15.9383 3.85943 15.47 4.15214L7.47 9.15214C7.17762 9.33487 7 9.65534 7 10.0001C7 10.3449 7.17762 10.6654 7.47 10.8481L15.47 15.8481C15.9383 16.1408 16.5553 15.9985 16.848 15.5301Z" fill="black"/>
</svg>
