<svg width="24" height="24" viewBox="0 0 24 24" fill="none" xmlns="http://www.w3.org/2000/svg">
<path d="M21 12C21 7.02944 16.9706 3 12 3C7.02944 3 3 7.02944 3 12C3 16.9706 7.02944 21 12 21C16.9706 21 21 16.9706 21 12ZM15 12C15 13.6569 13.6568 15 12 15C10.3431 15 8.99997 13.6569 8.99997 12C8.99997 10.3431 10.3431 9 12 9C13.6568 9 15 10.3431 15 12ZM9.1377 9.13765C8.84481 9.43055 8.36994 9.43056 8.07704 9.13767L7.70791 8.76856L6.96965 8.03034L6.60052 7.66123C6.30762 7.36835 6.30761 6.89347 6.6005 6.60057C6.89338 6.30767 7.36826 6.30766 7.66116 6.60055L8.03029 6.96966L8.76854 7.70788L9.13767 8.07699C9.43057 8.36987 9.43058 8.84475 9.1377 9.13765ZM17.6376 16.077C17.9305 16.3699 17.9306 16.8447 17.6377 17.1376C17.3448 17.4305 16.8699 17.4306 16.577 17.1377L16.2079 16.7686L15.4696 16.0303L15.1005 15.6612C14.8076 15.3683 14.8076 14.8935 15.1005 14.6006C15.3934 14.3077 15.8682 14.3077 16.1611 14.6005L16.5303 14.9697L17.2685 15.7079L17.6376 16.077ZM17.5069 6.49324C17.7998 6.78614 17.7998 7.26102 17.5069 7.5539L17.1377 7.92301L16.3995 8.66123L16.0303 9.03034C15.7374 9.32323 15.2626 9.32322 14.9697 9.03032C14.6768 8.73742 14.6768 8.26254 14.9697 7.96966L15.3388 7.60055L16.0771 6.86233L16.4462 6.49322C16.7391 6.20033 17.214 6.20034 17.5069 6.49324ZM9.0068 16.0539L8.63767 16.423L7.89941 17.1612L7.53029 17.5303C7.23739 17.8232 6.76251 17.8232 6.46963 17.5303C6.17674 17.2374 6.17675 16.7625 6.46965 16.4697L6.83878 16.1005L7.57704 15.3623L7.94616 14.9932C8.23906 14.7003 8.71394 14.7003 9.00682 14.9932C9.29971 15.2861 9.2997 15.761 9.0068 16.0539Z" fill="black"/>
</svg>
