<svg width="24" height="24" viewBox="0 0 24 24" fill="none" xmlns="http://www.w3.org/2000/svg">
<path d="M12.4286 3C10.6378 3 9.02956 3.70997 7.86977 4.86977C6.70997 6.02956 6 7.63775 6 9.42857C6 11.7741 7.24707 13.8108 9.08571 14.8619V16.9143C9.08571 17.4666 9.53343 17.9143 10.0857 17.9143H14.7714C15.3237 17.9143 15.7714 17.4666 15.7714 16.9143V14.8835C17.6002 13.7142 18.8571 11.6787 18.8571 9.42857C18.8571 7.63775 18.1472 6.02956 16.9874 4.86977C15.8276 3.70997 14.2194 3 12.4286 3Z" fill="black"/>
<path d="M9.70277 20.4429C9.8661 20.773 10.2063 21 10.5996 21H14.2568C14.65 21 14.9903 20.773 15.1536 20.4429C15.2196 20.3094 15.2568 20.159 15.2568 20V18.9429H9.59961V20C9.59961 20.159 9.63673 20.3094 9.70277 20.4429Z" fill="black"/>
</svg>
