<svg width="24" height="24" viewBox="0 0 24 24" fill="none" xmlns="http://www.w3.org/2000/svg">
<path d="M11.9233 5.34044L11.9129 5.35056L10.6143 6.64166C10.2226 7.03104 10.2208 7.6642 10.6102 8.05586C10.9996 8.44752 11.6327 8.44937 12.0244 8.05999L13.3175 6.77437C14.4067 5.72736 16.1341 5.74393 17.2029 6.81282C18.2715 7.88138 18.2884 9.60801 17.2423 10.6973L14.9837 12.9559C14.4145 13.5253 13.6259 13.8195 12.8228 13.7619C12.0197 13.7044 11.2811 13.3009 10.7988 12.6561C10.468 12.2139 9.84132 12.1236 9.39907 12.4544C8.95682 12.7852 8.86648 13.4119 9.19728 13.8541C10.0272 14.9636 11.298 15.6579 12.6799 15.7568C14.0618 15.8558 15.4187 15.3496 16.3982 14.3698L18.6631 12.1049L18.6753 12.0925C20.485 10.2188 20.4591 7.24054 18.6171 5.39861C16.7752 3.55668 13.7969 3.53079 11.9233 5.34044Z" fill="black"/>
<path d="M6.6177 10.6301L4.35262 12.8951L4.34044 12.9075C2.53079 14.7812 2.55667 17.7595 4.39861 19.6014C6.24054 21.4433 9.21881 21.4692 11.0925 19.6596L11.1049 19.6474L12.396 18.3563C12.7865 17.9658 12.7865 17.3326 12.396 16.9421C12.0054 16.5515 11.3723 16.5515 10.9818 16.9421L9.69725 18.2266C8.60801 19.2726 6.88138 19.2557 5.81282 18.1872C4.74425 17.1186 4.72737 15.392 5.77344 14.3027L8.03204 12.0441C8.60129 11.4747 9.38982 11.1805 10.193 11.2381C10.9961 11.2956 11.7346 11.6991 12.2169 12.3439C12.5477 12.7861 13.1744 12.8764 13.6167 12.5456C14.0589 12.2148 14.1493 11.5881 13.8185 11.1459C12.9886 10.0364 11.7178 9.34213 10.3358 9.24316C8.95394 9.14419 7.5972 9.65027 6.6177 10.6301Z" fill="black"/>
</svg>
