<svg width="24" height="24" viewBox="0 0 24 24" fill="none" xmlns="http://www.w3.org/2000/svg">
<path d="M4.5 6C3.67157 6 3 6.67157 3 7.5C3 8.32843 3.67157 9 4.5 9C5.32843 9 6 8.32843 6 7.5C6 6.67157 5.32843 6 4.5 6ZM8.5 6C8.22386 6 8 6.22386 8 6.5L8 8.5C8 8.77614 8.22386 9 8.5 9L20.5 9C20.7761 9 21 8.77614 21 8.5L21 6.5C21 6.22386 20.7761 6 20.5 6L8.5 6ZM8 11.5L8 13.5C8 13.7761 8.22386 14 8.5 14L20.5 14C20.7761 14 21 13.7761 21 13.5L21 11.5C21 11.2239 20.7761 11 20.5 11L8.5 11C8.22386 11 8 11.2239 8 11.5ZM4.5 11C3.67157 11 3 11.6716 3 12.5C3 13.3284 3.67157 14 4.5 14C5.32843 14 6 13.3284 6 12.5C6 11.6716 5.32843 11 4.5 11ZM8 16.5L8 18.5C8 18.7761 8.22386 19 8.5 19L20.5 19C20.7761 19 21 18.7761 21 18.5L21 16.5C21 16.2239 20.7761 16 20.5 16L8.5 16C8.22386 16 8 16.2239 8 16.5ZM4.5 16C3.67157 16 3 16.6716 3 17.5C3 18.3284 3.67157 19 4.5 19C5.32843 19 6 18.3284 6 17.5C6 16.6716 5.32843 16 4.5 16Z" fill="black"/>
</svg>
