<svg width="24" height="24" viewBox="0 0 24 24" fill="none" xmlns="http://www.w3.org/2000/svg">
<path d="M8.5 5C8.22386 5 8 5.22386 8 5.5L8 7.5C8 7.77614 8.22386 8 8.5 8L20.5 8C20.7761 8 21 7.77614 21 7.5L21 5.5C21 5.22386 20.7761 5 20.5 5L8.5 5ZM4.55193 9.5C4.79939 9.5 5 9.29939 5 9.05193L5 6.19024C5 5.80903 4.69097 5.5 4.30976 5.5C4.17727 5.5 4.04759 5.53813 3.93618 5.60983L3.15022 6.11572C3.05659 6.17598 3 6.2797 3 6.39105C3 6.65022 3.2868 6.80667 3.50471 6.66636L4.04024 6.32154C4.0469 6.31725 4.05466 6.31497 4.06258 6.31497C4.08538 6.31497 4.10386 6.33345 4.10386 6.35624L4.10386 9.05193C4.10386 9.29939 4.30447 9.5 4.55193 9.5ZM3 11.7676C3 11.775 3.00605 11.7811 3.01351 11.7811L3.77773 11.7811C3.78669 11.7811 3.79395 11.7738 3.79395 11.7649C3.79395 11.4054 4.06616 11.1568 4.46314 11.1568C4.83743 11.1568 5.10397 11.3784 5.10397 11.6919C5.10397 11.9459 4.95936 12.1486 4.38374 12.6838L3.17454 13.8119C3.09396 13.887 3.0482 13.9923 3.0482 14.1025C3.0482 14.322 3.22617 14.5 3.44569 14.5L5.66081 14.5C5.84814 14.5 6 14.3481 6 14.1608C6 13.9735 5.84814 13.8216 5.66081 13.8216L4.24166 13.8216C4.22304 13.8216 4.20794 13.8065 4.20794 13.7879C4.20794 13.7784 4.21195 13.7693 4.21899 13.7629L4.99055 13.0622C5.69943 12.427 5.94045 12.0622 5.94045 11.6378C5.94045 10.9676 5.34499 10.5 4.49149 10.5C3.60681 10.5 3 11.0135 3 11.7676ZM4.29307 17.7518L4.47589 17.7518C4.90982 17.7518 5.175 17.9575 5.175 18.2897C5.175 18.614 4.89375 18.8382 4.48929 18.8382C4.24114 18.8382 4.04275 18.7656 3.91813 18.6386L3.88826 18.608C3.75258 18.4686 3.60163 18.3134 3.4109 18.3134C3.18727 18.3134 3.00185 18.506 3.08516 18.7136C3.28047 19.2002 3.79188 19.5 4.48125 19.5C5.3625 19.5 6 19.0175 6 18.3504C6 17.8572 5.67817 17.5123 5.16226 17.4462C5.14825 17.4445 5.1375 17.4326 5.1375 17.4185C5.1375 17.4053 5.14686 17.394 5.15972 17.3911C5.57838 17.297 5.85 16.9584 5.85 16.5257C5.85 15.9272 5.27946 15.5 4.48661 15.5C3.80526 15.5 3.31954 15.7957 3.1437 16.2886C3.07163 16.4907 3.25056 16.6734 3.46505 16.6734C3.6645 16.6734 3.8158 16.5007 3.94332 16.3473C4.05534 16.2126 4.23694 16.1355 4.46518 16.1355C4.84286 16.1355 5.08393 16.3306 5.08393 16.6365C5.08393 16.9476 4.83482 17.1585 4.46786 17.1585L4.29307 17.1585C4.12924 17.1585 3.99643 17.2913 3.99643 17.4552C3.99643 17.619 4.12924 17.7518 4.29307 17.7518ZM8 11L8 13C8 13.2761 8.22386 13.5 8.5 13.5L20.5 13.5C20.7761 13.5 21 13.2761 21 13L21 11C21 10.7239 20.7761 10.5 20.5 10.5L8.5 10.5C8.22386 10.5 8 10.7239 8 11ZM8.5 16C8.22386 16 8 16.2239 8 16.5L8 18.5C8 18.7761 8.22386 19 8.5 19L20.5 19C20.7761 19 21 18.7761 21 18.5L21 16.5C21 16.2239 20.7761 16 20.5 16L8.5 16Z" fill="black"/>
</svg>
