<svg width="24" height="24" viewBox="0 0 24 24" fill="none" xmlns="http://www.w3.org/2000/svg">
<path d="M7.25 6.79688V8.53125H6.85714C4.7269 8.53125 3 10.2582 3 12.3884V18.817C3 20.9472 4.7269 22.6741 6.85714 22.6741H17.1429C19.2731 22.6741 21 20.9472 21 18.817V12.3884C21 10.2582 19.2731 8.53125 17.1429 8.53125H16.8438V6.79688C16.8438 4.14763 14.6961 2 12.0469 2C9.39763 2 7.25 4.14763 7.25 6.79688ZM8.75 8.53125V6.79688C8.75 4.97606 10.2261 3.5 12.0469 3.5C13.8677 3.5 15.3438 4.97606 15.3438 6.79688V8.53125H8.75Z" fill="black"/>
</svg>
