<svg width="24" height="24" viewBox="0 0 24 24" fill="none" xmlns="http://www.w3.org/2000/svg">
<path d="M15.2309 2H8.51604L8.31003 2.00611C7.42095 2.05894 6.58351 2.45214 5.9762 3.10786L2.29622 7.08114L2.22212 7.17102C2.19279 7.21114 2.16686 7.25289 2.14531 7.29567C2.05337 7.44001 2 7.61206 2 7.79679V17.6576C2 19.698 3.62805 21.3521 5.63636 21.3521H18.3636C20.3719 21.3521 22 19.698 22 17.6576V7.79679C22 7.60571 21.9429 7.42818 21.846 7.28107C21.8024 7.20104 21.7468 7.12568 21.6794 7.05753L17.6927 3.02631L17.5387 2.87992C16.9067 2.31504 16.0853 2 15.2309 2ZM15.2309 3.99086L15.3761 3.99809C15.7124 4.03166 16.0282 4.18109 16.2674 4.42299L18.6895 6.87286L14.963 6.87316V12.7232L14.9556 12.8062C14.9172 13.0216 14.7316 13.185 14.5084 13.185C14.4061 13.185 14.3068 13.1499 14.2265 13.0855L12.5638 11.7501L12.4608 11.6784C12.1413 11.4873 11.7336 11.5112 11.4362 11.7501L9.77346 13.0855L9.70482 13.1311C9.51461 13.2341 9.27338 13.1874 9.13499 13.0096C9.07155 12.928 9.03704 12.8271 9.03704 12.7232V6.87316L5.20762 6.87286L7.44663 4.45732L7.55498 4.35191C7.81924 4.12035 8.16055 3.99086 8.51604 3.99086H15.2309Z" fill="black"/>
</svg>
