<svg width="24" height="24" viewBox="0 0 24 24" fill="none" xmlns="http://www.w3.org/2000/svg">
<path d="M6 5C4.34315 5 3 6.34315 3 8V16C3 17.6569 4.34315 19 6 19H18C19.6569 19 21 17.6569 21 16V8C21 6.34315 19.6569 5 18 5H6ZM8.68102 9.38564L9.22717 10.5491C9.25549 10.6094 9.31198 10.6517 9.37784 10.6618L10.6155 10.852C10.7764 10.8767 10.8419 11.073 10.7282 11.1894L9.82052 12.1191C9.77616 12.1645 9.75601 12.2283 9.76623 12.291L9.97866 13.5934C10.0055 13.7582 9.8306 13.8814 9.68448 13.8006L8.59676 13.1991C8.53653 13.1658 8.46341 13.1658 8.40319 13.1991L7.31546 13.8006C7.16935 13.8814 6.99441 13.7582 7.02129 13.5934L7.23372 12.291C7.24394 12.2283 7.22379 12.1645 7.17943 12.1191L6.27171 11.1894C6.15802 11.073 6.22358 10.8767 6.38443 10.852L7.62211 10.6618C7.68797 10.6517 7.74446 10.6094 7.77277 10.5491L8.31893 9.38564C8.39091 9.23229 8.60903 9.23229 8.68102 9.38564ZM12.4412 11C12.4412 10.5858 12.7769 10.25 13.1912 10.25H17.1912C17.6054 10.25 17.9412 10.5858 17.9412 11C17.9412 11.4142 17.6054 11.75 17.1912 11.75H13.1912C12.7769 11.75 12.4412 11.4142 12.4412 11ZM13.1912 13.25H15.1912C15.6054 13.25 15.9412 13.5858 15.9412 14C15.9412 14.4142 15.6054 14.75 15.1912 14.75H13.1912C12.7769 14.75 12.4412 14.4142 12.4412 14C12.4412 13.5858 12.7769 13.25 13.1912 13.25Z" fill="black"/>
</svg>
