<svg width="24" height="24" viewBox="0 0 24 24" fill="none" xmlns="http://www.w3.org/2000/svg">
<path d="M17.2836 8.20759L20.7841 4.70711C21.1747 4.31658 21.1747 3.68342 20.7841 3.29289C20.3936 2.90237 19.7604 2.90237 19.3699 3.29289L15.8694 6.79338L14.0623 4.98629C13.6844 4.60831 13.0381 4.87601 13.0381 5.41055L13.0381 10.401C13.0381 10.7323 13.3067 11.001 13.6381 11.001L18.6285 11.001C19.163 11.001 19.4307 10.3547 19.0528 9.97671L17.2836 8.20759ZM8.20759 17.1304L10.0147 18.9375C10.3927 19.3155 11.0389 19.0478 11.0389 18.5133L11.0389 13.5229C11.0389 13.1915 10.7703 12.9229 10.4389 12.9229L5.44852 12.9229C4.91398 12.9229 4.64628 13.5691 5.02426 13.9471L6.79338 15.7162L3.29289 19.2167C2.90237 19.6072 2.90237 20.2404 3.29289 20.6309C3.68342 21.0215 4.31658 21.0215 4.70711 20.6309L8.20759 17.1304Z" fill="black"/>
</svg>
