<svg width="24" height="24" viewBox="0 0 24 24" fill="none" xmlns="http://www.w3.org/2000/svg">
<path d="M8.64453 6.78947V11.5263C8.64453 13.6192 10.3411 15.3158 12.434 15.3158C14.5269 15.3158 16.2235 13.6192 16.2235 11.5263V6.78947C16.2235 4.69661 14.5269 3 12.434 3C10.3411 3 8.64453 4.6966 8.64453 6.78947Z" fill="black"/>
<path d="M6.75 9.8291C6.33579 9.8291 6 10.1649 6 10.5791V11.5265C6 15.08 8.88069 17.9607 12.4342 17.9607C15.9877 17.9607 18.8684 15.08 18.8684 11.5265V10.5791C18.8684 10.1649 18.5326 9.8291 18.1184 9.8291C17.7042 9.8291 17.3684 10.1649 17.3684 10.5791V11.5265C17.3684 14.2516 15.1593 16.4607 12.4342 16.4607C9.70912 16.4607 7.5 14.2516 7.5 11.5265V10.5791C7.5 10.1649 7.16421 9.8291 6.75 9.8291Z" fill="black"/>
<path d="M12.4336 16.543C12.0194 16.543 11.6836 16.8788 11.6836 17.293V20.2586C11.6836 20.6729 12.0194 21.0086 12.4336 21.0086C12.8478 21.0086 13.1836 20.6729 13.1836 20.2586V17.293C13.1836 16.8788 12.8478 16.543 12.4336 16.543Z" fill="black"/>
<path d="M7.89453 21C7.89453 21.4142 8.23032 21.75 8.64453 21.75H16.2235C16.6377 21.75 16.9735 21.4142 16.9735 21C16.9735 20.5858 16.6377 20.25 16.2235 20.25H8.64453C8.23032 20.25 7.89453 20.5858 7.89453 21Z" fill="black"/>
</svg>
