<svg width="24" height="24" viewBox="0 0 24 24" fill="none" xmlns="http://www.w3.org/2000/svg">
<path d="M7.5 17V5C7.5 4.17157 8.17157 3.5 9 3.5H16C16.8284 3.5 17.5 4.17157 17.5 5V17H7.5ZM19 19V5C19 3.34315 17.6569 2 16 2H9C7.34315 2 6 3.34315 6 5V19C6 20.6569 7.34315 22 9 22H16C17.6569 22 19 20.6569 19 19ZM11.1504 18.5498H13.8504C14.2646 18.5498 14.6004 18.8856 14.6004 19.2998C14.6004 19.714 14.2646 20.0498 13.8504 20.0498H11.1504C10.7362 20.0498 10.4004 19.714 10.4004 19.2998C10.4004 18.8856 10.7362 18.5498 11.1504 18.5498Z" fill="black"/>
</svg>
