<svg width="24" height="24" viewBox="0 0 24 24" fill="none" xmlns="http://www.w3.org/2000/svg">
<path d="M6 6C4.34315 6 3 7.34315 3 9V15.7059C3 17.3627 4.34315 18.7059 6 18.7059H18C19.6569 18.7059 21 17.3627 21 15.7059V9C21 7.34315 19.6569 6 18 6H6ZM12 14.3501C11.0335 14.3501 10.25 13.4547 10.25 12.3501C10.25 11.2455 11.0335 10.3501 12 10.3501C12.9665 10.3501 13.75 11.2455 13.75 12.3501C13.75 13.4547 12.9665 14.3501 12 14.3501ZM17.5 8.96902C17.0922 8.45217 17 8 17 8H18.5C18.5595 8 18.6165 8.01038 18.6694 8.02943C18.8093 8.07979 18.9202 8.19073 18.9706 8.33058C18.9896 8.38349 19 8.44053 19 8.5V10C19 10 18.5478 9.90775 18.031 9.5C17.9386 9.42716 17.8443 9.34425 17.75 9.25C17.6558 9.15575 17.5728 9.06135 17.5 8.96902ZM6.25 9.25C6.15575 9.34425 6.06135 9.42716 5.96902 9.5C5.45217 9.90775 5 10 5 10V8.5C5 8.44053 5.01038 8.38349 5.02943 8.33058C5.07979 8.19073 5.19073 8.07979 5.33058 8.02943C5.38349 8.01038 5.44053 8 5.5 8H7C7 8 6.90775 8.45217 6.5 8.96902C6.42716 9.06135 6.34425 9.15575 6.25 9.25ZM6.5 15.531C6.90775 16.0478 7 16.5 7 16.5H5.5C5.44053 16.5 5.38349 16.4896 5.33058 16.4706C5.19073 16.4202 5.07979 16.3093 5.02943 16.1694C5.01038 16.1165 5 16.0595 5 16V14.5C5 14.5 5.45217 14.5922 5.96902 15C6.06135 15.0728 6.15575 15.1558 6.25 15.25C6.34425 15.3443 6.42716 15.4386 6.5 15.531ZM17.75 15.25C17.8443 15.1558 17.9386 15.0728 18.031 15C18.5478 14.5922 19 14.5 19 14.5V16C19 16.0595 18.9896 16.1165 18.9706 16.1694C18.9202 16.3093 18.8093 16.4202 18.6694 16.4706C18.6165 16.4896 18.5595 16.5 18.5 16.5H17C17 16.5 17.0922 16.0478 17.5 15.531C17.5728 15.4386 17.6558 15.3443 17.75 15.25Z" fill="black"/>
</svg>
