<svg width="24" height="24" viewBox="0 0 24 24" fill="none" xmlns="http://www.w3.org/2000/svg">
<path d="M9.78269 3.02264C9.73718 3.0343 9.69172 3.04634 9.64631 3.05873C7.70965 3.58754 6.0313 4.74271 4.84591 6.2942C3.68815 7.80953 3 9.70239 3 11.7582C3 14.2508 4.01027 16.5074 5.6437 18.1408C7.27712 19.7742 9.53369 20.7845 12.0263 20.7845C14.082 20.7845 15.9746 20.0964 17.4898 18.9388C19.0412 17.7534 20.1964 16.0751 20.7257 14.1384C20.7381 14.093 20.7501 14.0476 20.7618 14.0022C20.911 13.4204 20.2971 12.9721 19.7177 13.1305C19.0966 13.3004 18.4454 13.3993 17.7703 13.3993C15.7309 13.3993 13.8846 12.5728 12.5482 11.2363C11.2117 9.89988 10.3852 8.05359 10.3852 6.01418C10.3852 5.33914 10.4841 4.68786 10.654 4.06679C10.8124 3.48763 10.3643 2.87359 9.78269 3.02264Z" fill="black"/>
</svg>
