<svg width="24" height="24" viewBox="0 0 24 24" fill="none" xmlns="http://www.w3.org/2000/svg">
<path d="M7 19.0001C7 18.4478 7.44771 18.0001 8 18.0001H16C16.5523 18.0001 17 18.4478 17 19.0001C17 19.5524 16.5523 20.0001 16 20.0001H8C7.44771 20.0001 7 19.5524 7 19.0001Z" fill="black"/>
<path d="M7.152 15.5301C6.85929 15.0618 7.00167 14.4448 7.47 14.1521L14.1132 10.0001L7.47 5.84813C7.00167 5.55542 6.85929 4.93847 7.152 4.47014C7.44471 4.0018 8.06166 3.85943 8.53 4.15214L16.53 9.15214C16.8224 9.33487 17 9.65534 17 10.0001C17 10.3449 16.8224 10.6654 16.53 10.8481L8.53 15.8481C8.06166 16.1408 7.44471 15.9985 7.152 15.5301Z" fill="black"/>
</svg>
