<svg width="24" height="24" viewBox="0 0 24 24" fill="none" xmlns="http://www.w3.org/2000/svg">
<path d="M11.8403 17.0778V9.10428L17.9271 7.22405C18.2725 7.08744 18.4599 6.72302 18.3851 6.3715H18.4012V4.89253C18.4012 3.58855 17.1143 2.6802 15.8912 3.10617L11.6571 4.07976C11.6239 4.08739 11.5913 4.09727 11.5594 4.10933C10.8242 4.3879 10.3403 5.0923 10.3403 5.8764V14.4912C9.00863 13.5889 7.18223 13.7276 6.00259 14.9072C4.6658 16.244 4.6658 18.4113 6.00259 19.7481C7.33938 21.0849 9.50673 21.0849 10.8435 19.7481C11.5755 19.0161 11.9067 18.0351 11.837 17.0778H11.8403Z" fill="black"/>
</svg>
