<svg width="24" height="24" viewBox="0 0 24 24" fill="none" xmlns="http://www.w3.org/2000/svg">
<path d="M9.97616 12.1107L18.7571 8.59836V13.426C17.6471 12.9132 16.2885 13.1143 15.3735 14.0293C14.2007 15.2021 14.2007 17.1035 15.3735 18.2762C16.5462 19.449 18.4477 19.449 19.6204 18.2762C20.2785 17.6182 20.5673 16.7306 20.4868 15.8712V4.86725C20.4868 3.56163 19.1787 2.65805 17.9562 3.12427L9.44872 6.36512C8.72342 6.64029 8.2464 7.33526 8.2464 8.10854V15.4204C7.13952 14.9173 5.78999 15.1209 4.87958 16.0314C3.70681 17.2041 3.70681 19.1055 4.87958 20.2783C6.05234 21.4511 7.95377 21.4511 9.12653 20.2783C9.82112 19.5837 10.1043 18.6336 9.97616 17.7305V12.1107Z" fill="black"/>
</svg>
