<svg width="24" height="24" viewBox="0 0 24 24" fill="none" xmlns="http://www.w3.org/2000/svg">
<path d="M20.0512 5.3715V3.89253C20.0512 2.5691 18.7256 1.65319 17.4866 2.12613C17.4703 2.13232 17.4543 2.13909 17.4385 2.1464L13.1811 4.12032C12.4618 4.40608 11.9904 5.10241 11.9904 5.8764V9.93043L13.4904 11.4304V9.36391L19.5771 6.22405C19.9225 6.08743 20.1099 5.72302 20.0351 5.3715H20.0512ZM4.07279 4.07352C3.79411 3.9407 3.45042 3.98966 3.21967 4.2204C2.92678 4.5133 2.92678 4.98817 3.21967 5.28106L11.9904 14.0517V14.4912C10.6587 13.5889 8.83225 13.7276 7.65262 14.9072C6.31583 16.244 6.31583 18.4113 7.65262 19.7481C8.9894 21.0849 11.1568 21.0849 12.4935 19.7481C13.2255 19.0161 13.5567 18.0351 13.4871 17.0778H13.4904V15.5518L19.2197 21.2811C19.5126 21.574 19.9874 21.574 20.2803 21.2811C20.5111 21.0503 20.56 20.7066 20.4272 20.4279C20.3522 20.3922 20.2818 20.3432 20.2197 20.2811L4.21967 4.28106C4.15752 4.21892 4.10856 4.14858 4.07279 4.07352Z" fill="black"/>
</svg>
