<svg width="24" height="24" viewBox="0 0 24 24" fill="none" xmlns="http://www.w3.org/2000/svg">
<path d="M3 4.9C3 5.39706 3.40294 5.8 3.9 5.8H20.1C20.5971 5.8 21 5.39706 21 4.9C21 4.40294 20.5971 4 20.1 4H3.9C3.40294 4 3 4.40294 3 4.9ZM10.1992 9.6998C10.1992 10.1969 10.6022 10.5998 11.0992 10.5998H20.0992C20.5963 10.5998 20.9992 10.1969 20.9992 9.6998C20.9992 9.20275 20.5963 8.7998 20.0992 8.7998H11.0992C10.6022 8.7998 10.1992 9.20275 10.1992 9.6998ZM11.0992 13.5996C10.6022 13.5996 10.1992 14.0026 10.1992 14.4996C10.1992 14.9967 10.6022 15.3996 11.0992 15.3996H20.0992C20.5963 15.3996 20.9992 14.9967 20.9992 14.4996C20.9992 14.0026 20.5963 13.5996 20.0992 13.5996H11.0992ZM3 19.2994C3 19.7965 3.40294 20.1994 3.9 20.1994H20.1C20.5971 20.1994 21 19.7965 21 19.2994C21 18.8024 20.5971 18.3994 20.1 18.3994H3.9C3.40294 18.3994 3 18.8024 3 19.2994ZM8.39062 10.0432C8.39062 9.07665 7.25222 8.56007 6.52481 9.19656L4.05817 11.3549C3.54593 11.8031 3.54593 12.5999 4.05817 13.0482L6.52481 15.2065C7.25221 15.8429 8.39062 15.3264 8.39062 14.3598V10.0432Z" fill="black"/>
</svg>
