<svg width="24" height="24" viewBox="0 0 24 24" fill="none" xmlns="http://www.w3.org/2000/svg">
<path d="M6.89984 3.73352L3.45209 7.94745C3.15973 8.30478 3 8.75224 3 9.21393V12V14.7861C3 15.2478 3.15973 15.6952 3.45209 16.0525L6.89984 20.2665C7.2797 20.7307 7.84789 21 8.44776 21H12H15.5522C16.1521 21 16.7203 20.7307 17.1002 20.2665L20.5479 16.0525C20.8403 15.6952 21 15.2478 21 14.7861V12V9.21393C21 8.75224 20.8403 8.30478 20.5479 7.94745L17.1002 3.73352C16.7203 3.26925 16.1521 3 15.5522 3H12H8.44776C7.84789 3 7.2797 3.26925 6.89984 3.73352Z" fill="black"/>
</svg>
