<svg width="24" height="24" viewBox="0 0 24 24" fill="none" xmlns="http://www.w3.org/2000/svg">
<path d="M19.1121 6.51879L12.7121 3.17468C12.2636 2.94177 11.7366 2.94177 11.2881 3.17468L9.15521 4.28914L16.0877 8.18865L19.2024 6.56951C19.1729 6.55168 19.1428 6.53476 19.1121 6.51879ZM14.4976 9.01523L7.63238 5.15357C7.61164 5.14191 7.59168 5.12941 7.5725 5.11613L4.88808 6.51879C4.85731 6.53477 4.82718 6.5517 4.79772 6.56953L12.0001 10.3135L14.4976 9.01523ZM19.9921 7.84954L12.7501 11.6142V20.8034L19.1121 17.4791C19.6558 17.1968 19.9998 16.6171 20.0001 15.9826V8.01528C20 7.95956 19.9974 7.90426 19.9921 7.84954ZM4.00798 7.84957C4.00275 7.90427 4.00007 7.95957 4.00004 8.01528V15.9743C3.99584 16.6099 4.33687 17.1931 4.88008 17.4791L11.2501 20.8076V11.6142L4.00798 7.84957Z" fill="black"/>
</svg>
