<svg width="24" height="24" viewBox="0 0 24 24" fill="none" xmlns="http://www.w3.org/2000/svg">
<path d="M17.6738 4.72789C18.6408 5.70305 18.6408 7.28754 17.6738 8.2627L9.70601 16.2887C9.42039 16.5767 8.9608 16.5767 8.67518 16.2887C8.38509 15.9962 8.38537 15.5181 8.67518 15.2254C8.67532 15.2253 8.67504 15.2256 8.67518 15.2254L16.0276 7.81993C16.4167 7.428 16.4145 6.79484 16.0225 6.40572C15.6306 6.01661 14.9974 6.01888 14.6083 6.41081L7.25506 13.8171C6.19166 14.8895 6.19166 16.6246 7.25506 17.697C8.32293 18.7738 10.0581 18.7736 11.1261 17.697C11.1263 17.6968 11.126 17.6971 11.1261 17.697L19.0939 9.67099C20.8341 7.91615 20.8341 5.07444 19.0939 3.31961C17.3491 1.56013 14.5167 1.56013 12.7719 3.31961L4.81277 11.3456C2.39574 13.7829 2.39574 17.7312 4.81277 20.1685C7.23439 22.6105 11.1641 22.6105 13.5857 20.1685L21.5448 12.1425C21.9337 11.7504 21.9311 11.1172 21.5389 10.7283C21.1468 10.3394 20.5136 10.3421 20.1247 10.7343L12.1656 18.7602C10.5264 20.4133 7.87213 20.4133 6.23289 18.7602C4.58904 17.1026 4.58904 14.4115 6.23289 12.7539L14.192 4.72789C15.1544 3.75737 16.7113 3.75737 17.6738 4.72789Z" fill="black"/>
</svg>
