<svg width="24" height="24" viewBox="0 0 24 24" fill="none" xmlns="http://www.w3.org/2000/svg">
<path d="M6 3C4.34315 3 3 4.34315 3 6V15.5936C3 17.2505 4.34315 18.5936 6 18.5936H8.71875V10.2998C8.71875 8.83625 9.9052 7.64981 11.3687 7.64981H16.861V6C16.861 4.34315 15.5179 3 13.861 3H6ZM18.0748 8.87109C17.9826 8.92129 17.8769 8.94981 17.7645 8.94981H11.3687C10.6232 8.94981 10.0188 9.55422 10.0188 10.2998V19.4282C10.0188 19.4705 10.0147 19.5119 10.007 19.552C10.2467 20.3878 11.0168 20.9995 11.9297 20.9995H18.3254C19.43 20.9995 20.3254 20.104 20.3254 18.9995V10.8711C20.3254 9.76652 19.43 8.87109 18.3254 8.87109H18.0748ZM6.81445 5.32032C6.81445 4.96133 7.10547 4.67032 7.46445 4.67032H12.395C12.7539 4.67032 13.045 4.96133 13.045 5.32032C13.045 5.6793 12.7539 5.97032 12.395 5.97032H7.46445C7.10547 5.97032 6.81445 5.6793 6.81445 5.32032ZM13.6695 10.35H16.6695C17.0285 10.35 17.3195 10.641 17.3195 11C17.3195 11.359 17.0285 11.65 16.6695 11.65H13.6695C13.3105 11.65 13.0195 11.359 13.0195 11C13.0195 10.641 13.3105 10.35 13.6695 10.35Z" fill="black"/>
</svg>
