<svg width="24" height="24" viewBox="0 0 24 24" fill="none" xmlns="http://www.w3.org/2000/svg">
<path d="M8.00258 6.44888C8.00087 6.46569 8 6.48274 8 6.5V17.5C8 17.7761 8.22386 18 8.5 18H9.5C9.77614 18 10 17.7761 10 17.5V6.5C10 6.22386 9.77614 6 9.5 6H8.5C8.24112 6 8.02819 6.19675 8.00258 6.44888ZM14.6026 6.44888C14.6009 6.46569 14.6 6.48274 14.6 6.5V17.5C14.6 17.7761 14.8239 18 15.1 18H16.1C16.3762 18 16.6 17.7761 16.6 17.5V6.5C16.6 6.22386 16.3762 6 16.1 6H15.1C14.8412 6 14.6282 6.19675 14.6026 6.44888Z" fill="black"/>
</svg>
