<svg width="24" height="24" viewBox="0 0 24 24" fill="none" xmlns="http://www.w3.org/2000/svg">
<path d="M18.1438 11.5725C18.1422 11.571 18.1407 11.5695 18.1392 11.568L13.296 6.7248L5.03851 15.0178L4.0237 19.6635C3.86916 20.3709 4.49438 21.003 5.20344 20.8561L9.56592 19.9528C9.75769 19.913 9.93358 19.8179 10.0718 19.6791L18.1438 11.5725ZM19.2021 10.5096L20.2766 9.43048C21.0548 8.64895 21.0535 7.38495 20.2736 6.60509L18.2543 4.58579C17.4721 3.80355 16.2034 3.80491 15.4228 4.58882L14.3544 5.66187L19.1999 10.5074C19.2006 10.5081 19.2014 10.5089 19.2021 10.5096Z" fill="black"/>
</svg>
