<svg width="24" height="24" viewBox="0 0 24 24" fill="none" xmlns="http://www.w3.org/2000/svg">
<path d="M18.151 6.64281C18.506 6.21974 18.4508 5.58898 18.0278 5.23398C17.6047 4.87898 16.9739 4.93416 16.6189 5.35724L5.85121 18.1897C5.49621 18.6128 5.55139 19.2435 5.97447 19.5985C6.39754 19.9535 7.0283 19.8984 7.3833 19.4753L18.151 6.64281ZM7 9.41116C6.44772 9.41116 6 8.96344 6 8.41116C6 7.85887 6.44772 7.41116 7 7.41116C7.55228 7.41116 8 7.85887 8 8.41116C8 8.96344 7.55228 9.41116 7 9.41116ZM7 11.4112C8.65685 11.4112 10 10.068 10 8.41116C10 6.7543 8.65685 5.41116 7 5.41116C5.34315 5.41116 4 6.7543 4 8.41116C4 10.068 5.34315 11.4112 7 11.4112ZM17 17.4112C16.4477 17.4112 16 16.9634 16 16.4112C16 15.8589 16.4477 15.4112 17 15.4112C17.5523 15.4112 18 15.8589 18 16.4112C18 16.9634 17.5523 17.4112 17 17.4112ZM17 19.4112C18.6569 19.4112 20 18.068 20 16.4112C20 14.7543 18.6569 13.4112 17 13.4112C15.3431 13.4112 14 14.7543 14 16.4112C14 18.068 15.3431 19.4112 17 19.4112Z" fill="black"/>
</svg>
