<svg width="24" height="24" viewBox="0 0 24 24" fill="none" xmlns="http://www.w3.org/2000/svg">
<path d="M10.7551 13.2449C9.48265 11.9724 8.52339 10.5476 7.88606 9.10222C7.75228 8.79661 7.83059 8.43879 8.0666 8.20278L8.95734 7.31204C9.68711 6.58226 9.68711 5.55014 9.04978 4.91281L7.77403 3.63706C6.92462 2.78765 5.54773 2.78765 4.69832 3.63706L3.98921 4.34508C3.1833 5.15099 2.84723 6.31363 3.06475 7.46648C3.60202 10.3084 5.25299 13.42 7.91651 16.0835C10.58 18.747 13.6916 20.398 16.5335 20.9352C17.6864 21.1528 18.849 20.8167 19.6549 20.0108L20.3629 19.3028C21.2124 18.4534 21.2124 17.0765 20.3629 16.2271L19.0872 14.9513C18.4499 14.314 17.4166 14.314 16.7804 14.9513L15.7983 15.9345C15.5623 16.1705 15.2045 16.2499 14.8989 16.115C13.4535 15.4766 12.0276 14.5163 10.7551 13.2449Z" fill="black"/>
</svg>
