<svg width="24" height="24" viewBox="0 0 24 24" fill="none" xmlns="http://www.w3.org/2000/svg">
<path d="M12.9798 3C12.5656 3 12.2298 3.33579 12.2298 3.75C12.2298 4.16421 12.5656 4.5 12.9798 4.5C14.838 4.5 16.6949 5.20785 18.1138 6.62318C18.116 6.62544 18.1182 6.6277 18.1204 6.62994C19.5401 8.04961 20.2501 9.90933 20.2501 11.7704C20.2501 12.1846 20.5859 12.5204 21.0001 12.5204C21.4143 12.5204 21.7501 12.1846 21.7501 11.7704C21.7501 9.53071 20.8956 7.28766 19.1882 5.57641C19.1858 5.57393 19.1834 5.57148 19.1809 5.56903C17.4688 3.85688 15.2226 3 12.9798 3ZM18.9331 17.3692L17.7624 16.1985C17.1775 15.6137 16.2294 15.6137 15.6456 16.1985L14.7254 17.1187C14.5198 17.3243 14.2084 17.3932 13.9429 17.2764C12.6096 16.6925 11.2922 15.8073 10.1175 14.6326C8.94779 13.4629 8.06554 12.1515 7.48069 10.8231C7.35893 10.5487 7.42979 10.2263 7.64237 10.0137L8.46674 9.18936C9.13642 8.51968 9.13642 7.57255 8.55158 6.98771L7.38089 5.81702C6.60143 5.03756 5.33792 5.03756 4.55846 5.81702L3.90774 6.46673C3.1682 7.20627 2.85981 8.27317 3.05942 9.33108C3.55245 11.9389 5.06745 14.7943 7.51163 17.2385C9.9558 19.6826 12.8112 21.1977 15.419 21.6907C16.4769 21.8903 17.5438 21.5819 18.2834 20.8424L18.9331 20.1926C19.7125 19.4132 19.7125 18.1497 18.9331 17.3692ZM15.2882 9.44237L15.2979 9.45221C15.9329 10.0872 16.2423 10.923 16.231 11.7601C16.2254 12.1742 16.5566 12.5146 16.9707 12.5202C17.3849 12.5258 17.7252 12.1946 17.7308 11.7804C17.7474 10.5647 17.2982 9.33768 16.3702 8.40322L16.3585 8.39132C15.4226 7.45542 14.1904 7.00242 12.9696 7.01899C12.5554 7.02462 12.2242 7.36493 12.2299 7.77911C12.2355 8.19328 12.5758 8.52448 12.99 8.51886C13.8229 8.50755 14.6544 8.81386 15.2882 9.44237Z" fill="black"/>
</svg>
