<svg width="24" height="24" viewBox="0 0 24 24" fill="none" xmlns="http://www.w3.org/2000/svg">
<path d="M13.9253 12.5068L5.70734 4.28336C5.31695 3.89271 4.68378 3.8925 4.29313 4.28289C3.90247 4.67329 3.90226 5.30645 4.29266 5.69711L19.2927 20.7071C19.6831 21.0978 20.3162 21.098 20.7069 20.7076C21.0975 20.3172 21.0977 19.684 20.7073 19.2934L16.7698 15.3532C19.0318 12.8591 20.4457 10.0459 20.9352 7.45671C21.1528 6.30386 20.8167 5.14122 20.0108 4.33532L19.3017 3.62729C18.4523 2.77788 17.0754 2.77788 16.226 3.62729L14.9502 4.90304C14.3129 5.54037 14.3129 6.5725 15.0427 7.30227L15.9334 8.19301C16.1694 8.42902 16.2477 8.78684 16.1139 9.09246C15.5957 10.2678 14.8646 11.4295 13.9253 12.5068ZM7.46648 20.9255C9.75006 20.4938 12.2078 19.3429 14.4673 17.5255L11.5963 14.6526C10.7893 15.246 9.94856 15.731 9.10113 16.1053C8.79552 16.2401 8.4377 16.1607 8.20169 15.9247L7.21959 14.9415C6.58335 14.3042 5.55014 14.3042 4.91281 14.9415L3.63706 16.2173C2.78765 17.0667 2.78765 18.4436 3.63706 19.293L4.34508 20.001C5.15099 20.8069 6.31363 21.143 7.46648 20.9255Z" fill="black"/>
</svg>
