<svg width="24" height="24" viewBox="0 0 24 24" fill="none" xmlns="http://www.w3.org/2000/svg">
<path d="M14.9995 3C14.5853 3 14.2495 3.33579 14.2495 3.75V9.75C14.2495 9.85169 14.2698 9.94866 14.3065 10.0371C14.3428 10.1249 14.3965 10.2072 14.4676 10.2787C14.4682 10.2793 14.4687 10.2798 14.4692 10.2803C14.4697 10.2809 14.4703 10.2814 14.4708 10.2819C14.6064 10.4167 14.7932 10.5 14.9995 10.5H20.9995C21.4138 10.5 21.7495 10.1642 21.7495 9.75C21.7495 9.33579 21.4138 9 20.9995 9H16.8102L21.5299 4.28033C21.8228 3.98744 21.8228 3.51256 21.5299 3.21967C21.237 2.92678 20.7621 2.92678 20.4692 3.21967L15.7495 7.93934V3.75C15.7495 3.33579 15.4138 3 14.9995 3ZM10.1305 14.619C8.96054 13.449 8.07854 12.139 7.49254 10.81C7.36954 10.529 7.44154 10.2 7.65854 9.98297L8.47754 9.16397C9.14854 8.49297 9.14854 7.54397 8.56254 6.95797L7.38954 5.78497C6.60854 5.00397 5.34254 5.00397 4.56154 5.78497L3.90954 6.43597C3.16854 7.17697 2.85954 8.24597 3.05954 9.30597C3.55354 11.919 5.07154 14.78 7.52054 17.229C9.96954 19.678 12.8305 21.196 15.4435 21.69C16.5035 21.89 17.5725 21.581 18.3135 20.84L18.9645 20.189C19.7455 19.408 19.7455 18.142 18.9645 17.361L17.7915 16.188C17.2055 15.602 16.2555 15.602 15.6705 16.188L14.7675 17.092C14.5505 17.309 14.2215 17.382 13.9405 17.258C12.6115 16.671 11.3005 15.788 10.1305 14.619Z" fill="black"/>
</svg>
