<svg width="24" height="24" viewBox="0 0 24 24" fill="none" xmlns="http://www.w3.org/2000/svg">
<path d="M14.9995 4.5H19.1889L14.4692 9.21967C14.1763 9.51256 14.1763 9.98744 14.4692 10.2803C14.7621 10.5732 15.237 10.5732 15.5299 10.2803L20.2495 5.56066V9.75C20.2495 10.1642 20.5853 10.5 20.9995 10.5C21.4138 10.5 21.7495 10.1642 21.7495 9.75V3.75C21.7495 3.73706 21.7492 3.72419 21.7486 3.71141C21.7441 3.62376 21.7246 3.54009 21.6926 3.46291C21.656 3.37445 21.6018 3.29158 21.5299 3.21967C21.458 3.14776 21.3751 3.09351 21.2866 3.05691C21.1982 3.02024 21.1012 3 20.9995 3H14.9995C14.5853 3 14.2495 3.33579 14.2495 3.75C14.2495 4.16421 14.5853 4.5 14.9995 4.5ZM10.1305 14.619C8.96054 13.449 8.07854 12.139 7.49254 10.81C7.36954 10.529 7.44154 10.2 7.65854 9.98297L8.47754 9.16397C9.14854 8.49297 9.14854 7.54397 8.56254 6.95797L7.38954 5.78497C6.60854 5.00397 5.34254 5.00397 4.56154 5.78497L3.90954 6.43597C3.16854 7.17697 2.85954 8.24597 3.05954 9.30597C3.55354 11.919 5.07154 14.78 7.52054 17.229C9.96954 19.678 12.8305 21.196 15.4435 21.69C16.5035 21.89 17.5725 21.581 18.3135 20.84L18.9645 20.189C19.7455 19.408 19.7455 18.142 18.9645 17.361L17.7915 16.188C17.2055 15.602 16.2555 15.602 15.6705 16.188L14.7675 17.092C14.5505 17.309 14.2215 17.382 13.9405 17.258C12.6115 16.671 11.3005 15.788 10.1305 14.619Z" fill="black"/>
</svg>
