<svg width="24" height="24" viewBox="0 0 24 24" fill="none" xmlns="http://www.w3.org/2000/svg">
<path d="M7.72323 8.89887C7.59392 8.60344 7.66961 8.25754 7.89776 8.0294L8.75881 7.16834C9.46427 6.46289 9.46427 5.46516 8.84818 4.84906L7.61494 3.61583C6.79384 2.79472 5.46283 2.79472 4.64172 3.61583L3.95624 4.30026C3.17719 5.07931 2.85232 6.2032 3.06259 7.31764C3.58196 10.0648 5.17791 13.0727 7.75267 15.6475C10.3274 18.2222 13.3353 19.8182 16.0825 20.3376C17.197 20.5478 18.3208 20.223 19.0999 19.4439L19.7843 18.7595C20.6054 17.9384 20.6054 16.6074 19.7843 15.7863L18.5511 14.553C17.935 13.9369 16.9362 13.9369 16.3212 14.553L15.3718 15.5035C15.1437 15.7316 14.7978 15.8083 14.5023 15.678C13.1051 15.0608 11.7268 14.1325 10.4967 12.9035C9.26661 11.6734 8.33932 10.2961 7.72323 8.89887ZM15.0699 3.87006C14.777 3.57717 14.3021 3.57717 14.0092 3.87006C13.7163 4.16295 13.7163 4.63783 14.0092 4.93072L15.7091 6.63064L14.0092 8.33056C13.7163 8.62346 13.7163 9.09833 14.0092 9.39122C14.3021 9.68412 14.777 9.68412 15.0699 9.39122L16.7698 7.6913L18.4697 9.39122C18.7626 9.68412 19.2375 9.68412 19.5304 9.39122C19.8233 9.09833 19.8233 8.62346 19.5304 8.33056L17.8305 6.63064L19.5304 4.93072C19.8233 4.63783 19.8233 4.16295 19.5304 3.87006C19.2375 3.57717 18.7626 3.57717 18.4697 3.87006L16.7698 5.56998L15.0699 3.87006Z" fill="black"/>
</svg>
