<svg width="24" height="24" viewBox="0 0 24 24" fill="none" xmlns="http://www.w3.org/2000/svg">
<path d="M19 8.5C19 4.35786 15.6421 1 11.5 1C7.35786 1 4 4.35786 4 8.5C4 12.6421 7.35786 16 11.5 16C15.6421 16 19 12.6421 19 8.5ZM10.5996 20.2623L11.5832 22.2295L12.5668 20.2623V17C12.5668 17 12.075 17.1312 11.5832 17.1312C11.0914 17.1312 10.5996 17 10.5996 17V20.2623ZM12.5362 7.20728C12.5645 7.26759 12.621 7.30985 12.6869 7.31997L14.6155 7.6164C14.7764 7.64112 14.842 7.83736 14.7283 7.9538L13.3205 9.39556C13.2762 9.441 13.256 9.5048 13.2663 9.56748L13.5967 11.5933C13.6236 11.7581 13.4486 11.8813 13.3025 11.8005L11.5968 10.8573C11.5366 10.824 11.4634 10.824 11.4032 10.8573L9.69749 11.8005C9.55138 11.8813 9.37644 11.7581 9.40331 11.5933L9.73374 9.56748C9.74397 9.5048 9.72382 9.441 9.67945 9.39556L8.27174 7.9538C8.15805 7.83736 8.22361 7.64112 8.38446 7.6164L10.3131 7.31997C10.379 7.30985 10.4355 7.26759 10.4638 7.20728L11.319 5.38556C11.3909 5.23221 11.6091 5.23221 11.681 5.38556L12.5362 7.20728Z" fill="black"/>
</svg>
