<svg width="24" height="24" viewBox="0 0 24 24" fill="none" xmlns="http://www.w3.org/2000/svg">
<path d="M19 8.5C19 4.35786 15.6421 1 11.5 1C7.35786 1 4 4.35786 4 8.5C4 12.6421 7.35786 16 11.5 16C15.6421 16 19 12.6421 19 8.5ZM10.9426 5.29912C9.3727 5.29912 8.10002 6.5718 8.10002 8.14172C8.10002 8.47309 7.8314 8.74172 7.50002 8.74172C7.16865 8.74172 6.90002 8.47309 6.90002 8.14172C6.90002 5.90906 8.70996 4.09912 10.9426 4.09912C11.274 4.09912 11.5426 4.36775 11.5426 4.69912C11.5426 5.03049 11.274 5.29912 10.9426 5.29912ZM10.5996 17V20.5784L11.5832 22.23L12.5668 20.5784V17C12.5668 17 12.075 17.1101 11.5832 17.1101C11.0914 17.1101 10.5996 17 10.5996 17Z" fill="black"/>
</svg>
