<svg width="24" height="24" viewBox="0 0 24 24" fill="none" xmlns="http://www.w3.org/2000/svg">
<path d="M4.59385 5.39056C4.06579 5.60017 3.85122 6.22165 4.10896 6.72796L4.90637 8.29442C4.93448 8.27794 4.96398 8.26311 4.99481 8.25009C7.12918 7.34878 9.47375 6.85001 11.934 6.85001C14.0204 6.85001 16.0246 7.20876 17.8877 7.86776C18.2211 7.98571 18.55 8.11326 18.874 8.25009L18.8812 8.25315L19.6576 6.72796C19.9153 6.22165 19.7008 5.60017 19.1727 5.39056C16.9167 4.49504 14.4581 4 11.8833 4C9.30841 4 6.84989 4.49504 4.59385 5.39056ZM18.1988 9.59355C17.9319 9.48273 17.6613 9.37877 17.3875 9.28189C15.6826 8.67885 13.8474 8.35001 11.934 8.35001C9.68102 8.35001 7.53713 8.80589 5.58567 9.62884L10.9921 20.2494C11.3629 20.9778 12.4036 20.9778 12.7745 20.2494L18.1988 9.59355ZM11.353 15.3304C11.0601 15.0375 11.0601 14.5627 11.353 14.2698L12.253 13.3698C12.5459 13.0769 13.0208 13.0769 13.3137 13.3698C13.6066 13.6627 13.6066 14.1375 13.3137 14.4304L12.4137 15.3304C12.1208 15.6233 11.6459 15.6233 11.353 15.3304ZM11.5137 10.6697C11.8066 10.9626 11.8066 11.4374 11.5137 11.7303C11.2208 12.0232 10.7459 12.0232 10.453 11.7303L9.55304 10.8303C9.26015 10.5374 9.26015 10.0626 9.55304 9.76966C9.84594 9.47677 10.3208 9.47677 10.6137 9.76966L11.5137 10.6697Z" fill="black"/>
</svg>
