<svg width="24" height="24" viewBox="0 0 24 24" fill="none" xmlns="http://www.w3.org/2000/svg">
<path d="M17.75 7V11C17.75 13.611 16.079 15.827 13.75 16.651V18C13.75 18.5523 13.3023 19 12.75 19H10.75C10.1977 19 9.75 18.5523 9.75 18V16.651C7.421 15.827 5.75 13.611 5.75 11V7" fill="black"/>
<path d="M7.75 2C7.19772 2 6.75 2.44772 6.75 3V7C6.75 7.55228 7.19772 8 7.75 8C8.30228 8 8.75 7.55228 8.75 7V3C8.75 2.44772 8.30228 2 7.75 2Z" fill="black"/>
<path d="M15.75 2C15.1977 2 14.75 2.44772 14.75 3V7C14.75 7.55228 15.1977 8 15.75 8C16.3023 8 16.75 7.55228 16.75 7V3C16.75 2.44772 16.3023 2 15.75 2Z" fill="black"/>
<path d="M9.75 21C9.75 21.5523 10.1977 22 10.75 22H12.75C13.3023 22 13.75 21.5523 13.75 21C13.75 20.4477 13.3023 20 12.75 20H10.75C10.1977 20 9.75 20.4477 9.75 21Z" fill="black"/>
<path d="M4 7C4 7.41421 4.33579 7.75 4.75 7.75H18.75C19.1642 7.75 19.5 7.41421 19.5 7C19.5 6.58579 19.1642 6.25 18.75 6.25H4.75C4.33579 6.25 4 6.58579 4 7Z" fill="black"/>
</svg>
