<svg width="24" height="24" viewBox="0 0 24 24" fill="none" xmlns="http://www.w3.org/2000/svg">
<path d="M2 12.5C2 17.7472 6.25283 22 11.5 22C16.7472 22 21 17.7472 21 12.5V7C21 4.79086 19.2091 3 17 3H6C3.79086 3 2 4.79086 2 7V12.5ZM7.03033 8.46967L11.5 12.9393L15.9697 8.46967C16.2626 8.17678 16.7374 8.17678 17.0303 8.46967C17.3232 8.76256 17.3232 9.23744 17.0303 9.53033L12.0303 14.5303C11.7374 14.8232 11.2626 14.8232 10.9697 14.5303L5.96967 9.53033C5.67678 9.23744 5.67678 8.76256 5.96967 8.46967C6.26256 8.17678 6.73744 8.17678 7.03033 8.46967Z" fill="black"/>
</svg>
