<svg width="24" height="24" viewBox="0 0 24 24" fill="none" xmlns="http://www.w3.org/2000/svg">
<path d="M21 7C21 4.79086 19.2091 3 17 3H7C4.79086 3 3 4.79086 3 7V17C3 19.2091 4.79086 21 7 21H17C19.2091 21 21 19.2091 21 17V7ZM17 13H7C6.44771 13 6 12.5523 6 12C6 11.4477 6.44771 11 7 11H17C17.5523 11 18 11.4477 18 12C18 12.5523 17.5523 13 17 13ZM14 8C14 8.55228 13.5523 9 13 9H7C6.44772 9 6 8.55228 6 8C6 7.44772 6.44772 7 7 7H13C13.5523 7 14 7.44772 14 8ZM10 17H7C6.44772 17 6 16.5523 6 16C6 15.4477 6.44772 15 7 15H10C10.5523 15 11 15.4477 11 16C11 16.5523 10.5523 17 10 17Z" fill="black"/>
</svg>
