<svg width="24" height="24" viewBox="0 0 24 24" fill="none" xmlns="http://www.w3.org/2000/svg">
<path d="M7 3C4.79086 3 3 4.79086 3 7V17C3 19.2091 4.79086 21 7 21H17C19.2091 21 21 19.2091 21 17V7C21 4.79086 19.2091 3 17 3H7ZM13 7V17C13 17.5523 12.5523 18 12 18C11.4477 18 11 17.5523 11 17V7C11 6.44772 11.4477 6 12 6C12.5523 6 13 6.44772 13 7ZM8 10C8.55228 10 9 10.4477 9 11V17C9 17.5523 8.55228 18 8 18C7.44772 18 7 17.5523 7 17V11C7 10.4477 7.44772 10 8 10ZM17 14V17C17 17.5523 16.5523 18 16 18C15.4477 18 15 17.5523 15 17V14C15 13.4477 15.4477 13 16 13C16.5523 13 17 13.4477 17 14Z" fill="black"/>
</svg>
