<svg width="24" height="24" viewBox="0 0 24 24" fill="none" xmlns="http://www.w3.org/2000/svg">
<path d="M7.03021 6.46226C6.63618 6.07527 6.00304 6.08098 5.61605 6.475C2.12745 10.0271 2.12806 15.7778 5.61743 19.3291C9.11648 22.8903 14.7966 22.8903 18.2957 19.3291C21.785 15.7778 21.7856 10.0271 18.297 6.475C17.9101 6.08098 17.2769 6.07527 16.8829 6.46226C16.4889 6.84925 16.4832 7.48239 16.8701 7.87642C19.5945 10.6503 19.594 15.1541 16.8691 17.9274C14.1538 20.6909 9.75928 20.6909 7.04402 17.9274C4.31908 15.1541 4.3186 10.6503 7.04295 7.87642C7.42994 7.48239 7.42423 6.84925 7.03021 6.46226Z" fill="black"/>
<path d="M11.9609 2C11.4087 2 10.9609 2.44772 10.9609 3V11.9985C10.9609 12.5508 11.4087 12.9985 11.9609 12.9985C12.5132 12.9985 12.9609 12.5508 12.9609 11.9985V3C12.9609 2.44772 12.5132 2 11.9609 2Z" fill="black"/>
</svg>
