<svg width="24" height="24" viewBox="0 0 24 24" fill="none" xmlns="http://www.w3.org/2000/svg">
<path d="M8.59961 3C7.49504 3 6.59961 3.89543 6.59961 5V7.84961H8.59961V5L15.3996 5V7.84961H17.3996V5C17.3996 3.89543 16.5042 3 15.3996 3H8.59961Z" fill="black"/>
<path d="M8.59961 20.9998H15.3996C16.5042 20.9998 17.3996 20.1044 17.3996 18.9998V17.3998H19.2C19.2675 17.3998 19.3341 17.3961 19.3996 17.3889C19.4548 17.3828 19.5092 17.3742 19.5628 17.3632C20.383 17.1954 21 16.4697 21 15.5998V11.0998C21 10.1057 20.1941 9.2998 19.2 9.2998H4.8C3.80589 9.2998 3 10.1057 3 11.0998V15.5998C3 16.5262 3.69981 17.2891 4.59961 17.3888L4.61596 17.3905C4.67647 17.3967 4.73787 17.3998 4.8 17.3998H6.59961V18.9998C6.59961 20.1044 7.49504 20.9998 8.59961 20.9998ZM8.59961 15.7998H15.3996V18.9998H8.59961V15.7998Z" fill="black"/>
</svg>
