<svg width="24" height="24" viewBox="0 0 24 24" fill="none" xmlns="http://www.w3.org/2000/svg">
<path d="M12.4701 18.7485C12.4701 18.0573 11.9098 17.497 11.2187 17.497C10.5275 17.497 9.96719 18.0573 9.96719 18.7485C9.96719 19.4397 10.5275 20 11.2187 20C11.9098 20 12.4701 19.4397 12.4701 18.7485ZM10.5369 7.37634C10.7711 7.14563 11.0917 7 11.5955 7C11.8403 7 12.0512 7.03736 12.2363 7.10317C12.4245 7.17007 12.5771 7.26115 12.7044 7.37354C12.8199 7.47545 12.9192 7.60653 12.9989 7.78192C13.0569 7.90952 13.0996 8.09929 13.1112 8.4112C13.1273 8.84595 12.9488 9.39116 12.3642 10.0675C12.2382 10.1889 12.0628 10.372 11.9128 10.5294L11.7938 10.6543C11.6615 10.7934 11.5507 10.9099 11.4839 10.9766C11.2362 11.2244 11.0168 11.4994 10.8252 11.7992C10.6146 12.1289 10.4563 12.4898 10.345 12.8749C10.2273 13.2825 10.175 13.7168 10.175 14.1685V14.4703C10.175 15.0226 10.6227 15.4703 11.175 15.4703C11.7273 15.4703 12.175 15.0226 12.175 14.4703V14.1685C12.175 13.8691 12.2099 13.626 12.2665 13.43C12.3296 13.2116 12.4127 13.0292 12.5106 12.876C12.6275 12.693 12.7569 12.5321 12.8981 12.3908C12.9844 12.3046 13.1212 12.1607 13.2568 12.0182L13.3605 11.9093C13.5427 11.7181 13.6952 11.5604 13.7696 11.491L13.8059 11.4571L13.8386 11.4198C14.6537 10.4917 15.1514 9.45686 15.1098 8.33698C15.0935 7.89952 15.0299 7.41689 14.8197 6.95432C14.6311 6.53955 14.3682 6.17435 14.0277 5.87386C13.699 5.58386 13.3218 5.36645 12.9064 5.21874C12.4879 5.06994 12.0483 5 11.5955 5C10.6508 5 9.79779 5.297 9.13333 5.95154C8.51633 6.55933 8.14931 7.32511 8.01222 8.19901C7.92664 8.74462 8.29956 9.25631 8.84518 9.34189C9.39079 9.42748 9.90248 9.05455 9.98806 8.50894C10.0656 8.01472 10.2552 7.65381 10.5369 7.37634Z" fill="black"/>
</svg>
