<svg width="24" height="24" viewBox="0 0 24 24" fill="none" xmlns="http://www.w3.org/2000/svg">
<path d="M13.5022 1.37375C14.0344 1.65628 14.473 2.0832 14.765 2.60428L23.6094 18.387C24.4535 19.8933 23.883 21.7813 22.3466 22.597C21.885 22.842 21.3686 22.9702 20.844 22.9702H3.15525C1.41764 22.9702 0 21.5904 0 19.8767C0 19.3556 0.134227 18.8433 0.389899 18.387L9.2343 2.60428C10.0711 1.11109 11.9788 0.564936 13.5022 1.37375ZM11.8444 19.2499C12.3615 19.2499 12.7807 18.8308 12.7807 18.3137C12.7807 17.7966 12.3615 17.3774 11.8444 17.3774C11.3274 17.3774 10.9082 17.7966 10.9082 18.3137C10.9082 18.8308 11.3274 19.2499 11.8444 19.2499ZM11.3692 11.2168C11.5006 11.0874 11.6833 11 11.9898 11C12.139 11 12.2652 11.0227 12.3742 11.0615C12.4856 11.1011 12.574 11.1542 12.647 11.2187C12.7112 11.2753 12.7678 11.3492 12.8144 11.4517C12.8447 11.5183 12.8714 11.6275 12.8787 11.8245C12.888 12.0742 12.7872 12.405 12.4189 12.8321C12.3349 12.9133 12.2208 13.0325 12.1251 13.1328L12.0468 13.2151C11.9609 13.3054 11.8899 13.38 11.8474 13.4225C11.6808 13.5892 11.5334 13.7739 11.4049 13.975C11.2621 14.1985 11.1553 14.4424 11.0805 14.7015C11.0007 14.9775 10.9658 15.2698 10.9658 15.5716V15.7682C10.9658 16.1824 11.3016 16.5182 11.7158 16.5182C12.13 16.5182 12.4658 16.1824 12.4658 15.7682V15.5716C12.4658 15.3841 12.4877 15.2351 12.5215 15.1178C12.5603 14.9837 12.6107 14.8738 12.669 14.7826C12.7414 14.6692 12.8213 14.5699 12.9081 14.4832C12.9652 14.426 13.0557 14.3309 13.1441 14.2379L13.2109 14.1677C13.3304 14.0424 13.4275 13.9421 13.4733 13.8993L13.5006 13.8739L13.5251 13.8459C14.0664 13.2296 14.406 12.5318 14.3777 11.7688C14.3669 11.4777 14.3244 11.1488 14.1799 10.831C14.0517 10.5489 13.8724 10.2995 13.6395 10.094C13.4154 9.89627 13.1586 9.74841 12.8768 9.6482C12.5926 9.54717 12.295 9.5 11.9898 9.5C11.3526 9.5 10.7706 9.70095 10.3166 10.1482C9.89809 10.5605 9.65024 11.0793 9.558 11.6673C9.49381 12.0766 9.7735 12.4603 10.1827 12.5245C10.5919 12.5887 10.9757 12.309 11.0399 11.8998C11.0874 11.5965 11.2022 11.3813 11.3692 11.2168Z" fill="black"/>
</svg>
