<svg width="24" height="24" viewBox="0 0 24 24" fill="none" xmlns="http://www.w3.org/2000/svg">
<path d="M13.8496 7.5V3H12H7.5C5.567 3 4 4.567 4 6.5V17.5C4 19.433 5.567 21 7.5 21H16.5C18.433 21 20 19.433 20 17.5V12V9.15H15.4996C14.5883 9.15 13.8496 8.41127 13.8496 7.5ZM15.1496 7.5C15.1496 7.6933 15.3063 7.85 15.4996 7.85H19.894C19.7731 7.40772 19.5515 6.99548 19.2422 6.64751L16.895 4.00691C16.4371 3.49177 15.8196 3.15391 15.1496 3.0414V7.5ZM9.7998 12.3722C9.7998 11.1628 10.7796 10.183 11.989 10.183C13.1984 10.183 14.1782 11.1628 14.1782 12.3722C14.1782 13.3295 13.5517 13.8331 13.1303 14.1171L13.1296 14.1176C12.9538 14.2357 12.833 14.3369 12.754 14.4434C12.6857 14.5354 12.639 14.6435 12.639 14.8094V15.0018C12.639 15.3608 12.348 15.6518 11.989 15.6518C11.63 15.6518 11.339 15.3608 11.339 15.0018V14.8094C11.339 13.8393 11.9728 13.3287 12.4041 13.0389C12.5754 12.9234 12.692 12.8253 12.7681 12.7227C12.8334 12.6346 12.8782 12.5314 12.8782 12.3722C12.8782 11.8807 12.4804 11.483 11.989 11.483C11.4976 11.483 11.0998 11.8807 11.0998 12.3722C11.0998 12.7311 10.8088 13.0222 10.4498 13.0222C10.0908 13.0222 9.7998 12.7311 9.7998 12.3722ZM12.6496 16.9986C12.6496 17.3576 12.3586 17.6486 11.9996 17.6486C11.6406 17.6486 11.3496 17.3576 11.3496 16.9986C11.3496 16.6396 11.6406 16.3486 11.9996 16.3486C12.3586 16.3486 12.6496 16.6396 12.6496 16.9986Z" fill="black"/>
</svg>
