<svg width="24" height="24" viewBox="0 0 24 24" fill="none" xmlns="http://www.w3.org/2000/svg">
<path d="M6.04295 19.6174C6.3493 20.077 6.97017 20.2011 7.4297 19.8948C8.829 18.9619 9.98175 18.1322 10.6991 16.6975C11.3982 15.2994 11.625 13.4508 11.625 10.6252V5.93775C11.625 4.86796 10.7573 4.00024 9.6875 4.00024H5.9375C4.86772 4.00024 4 4.86796 4 5.93775V9.68775C4 10.7575 4.86772 11.6252 5.9375 11.6252H9.61337C9.56 13.7799 9.32319 14.9772 8.91026 15.803C8.45575 16.712 7.7335 17.2886 6.3203 18.2307C5.86077 18.537 5.7366 19.1579 6.04295 19.6174ZM15.4179 19.6172C15.7243 20.0767 16.3452 20.2009 16.8047 19.8946C18.204 18.9617 19.3567 18.1319 20.0741 16.6972C20.7732 15.2991 21 13.4505 21 10.625V5.9375C21 4.86772 20.1323 4 19.0625 4H15.3125C14.2427 4 13.375 4.86772 13.375 5.9375V9.6875C13.375 10.7573 14.2427 11.625 15.3125 11.625H18.9884C18.935 13.7797 18.6982 14.9769 18.2853 15.8028C17.8308 16.7118 17.1085 17.2883 15.6953 18.2305C15.2358 18.5368 15.1116 19.1577 15.4179 19.6172Z" fill="black"/>
</svg>
