<svg width="24" height="24" viewBox="0 0 24 24" fill="none" xmlns="http://www.w3.org/2000/svg">
<path d="M18.9571 4.44541C18.6507 3.98588 18.0298 3.8617 17.5703 4.16806C16.171 5.10092 15.0183 5.93066 14.3009 7.36539C13.6018 8.76348 13.375 10.6121 13.375 13.4376V18.1251C13.375 19.1949 14.2427 20.0626 15.3125 20.0626H19.0625C20.1323 20.0626 21 19.1949 21 18.1251V14.3751C21 13.3053 20.1323 12.4376 19.0625 12.4376H15.3866C15.44 10.2829 15.6768 9.08568 16.0897 8.25982C16.5442 7.3508 17.2665 6.77429 18.6797 5.83216C19.1392 5.5258 19.2634 4.90493 18.9571 4.44541ZM9.58205 4.44565C9.2757 3.98612 8.65483 3.86195 8.1953 4.1683C6.796 5.10117 5.64325 5.93091 4.92589 7.36564C4.22684 8.76372 4 10.6123 4 13.4378V18.1253C4 19.1951 4.86772 20.0629 5.9375 20.0629H9.6875C10.7573 20.0629 11.625 19.1951 11.625 18.1253V14.3753C11.625 13.3056 10.7573 12.4378 9.6875 12.4378H6.01163C6.065 10.2832 6.30181 9.08592 6.71474 8.26006C7.16925 7.35105 7.8915 6.77453 9.3047 5.8324C9.76423 5.52605 9.8884 4.90518 9.58205 4.44565Z" fill="black"/>
</svg>
