<svg width="24" height="24" viewBox="0 0 24 24" fill="none" xmlns="http://www.w3.org/2000/svg">
<path d="M6.17138 5.26234C5.81921 4.91157 5.24936 4.9127 4.89859 5.26487C1.0338 9.14505 1.0338 15.4329 4.89859 19.3131C5.24936 19.6653 5.81921 19.6664 6.17138 19.3157C6.52355 18.9649 6.52468 18.395 6.17391 18.0429C3.0087 14.865 3.0087 9.71295 6.17391 6.53513C6.52468 6.18296 6.52355 5.61311 6.17138 5.26234ZM17.6291 5.26234C17.277 5.61311 17.2758 6.18296 17.6266 6.53513C20.7918 9.71295 20.7918 14.865 17.6266 18.0429C17.2758 18.395 17.277 18.9649 17.6291 19.3157C17.9813 19.6664 18.5511 19.6653 18.9019 19.3131C22.7667 15.4329 22.7667 9.14505 18.9019 5.26487C18.5511 4.9127 17.9813 4.91157 17.6291 5.26234ZM14.5238 7.23338C14.2262 7.63155 14.3078 8.19553 14.706 8.49307C15.8699 9.36281 16.6247 10.7353 16.6247 12.2891C16.6247 13.8429 15.8689 15.2164 14.7061 16.0851C14.3079 16.3826 14.2262 16.9466 14.5237 17.3448C14.8212 17.743 15.3852 17.8246 15.7834 17.5271C17.3725 16.3399 18.4247 14.4453 18.4247 12.2891C18.4247 10.133 17.3736 8.23944 15.7835 7.05118C15.3853 6.75364 14.8213 6.83522 14.5238 7.23338ZM9.09537 8.49294C9.49347 8.19531 9.57491 7.63131 9.27728 7.23322C8.97965 6.83512 8.41565 6.75368 8.01756 7.05131C6.42994 8.23827 5.37646 10.1316 5.37646 12.2891C5.37646 14.4464 6.42871 16.3399 8.01781 17.5271C8.41601 17.8246 8.97998 17.743 9.27747 17.3448C9.57496 16.9466 9.49332 16.3826 9.09512 16.0851C7.93222 15.2163 7.17647 13.8438 7.17647 12.2891C7.17647 10.7347 7.93299 9.36198 9.09537 8.49294ZM13.4912 13.8868C14.3702 13.0048 14.3702 11.5747 13.4912 10.6927C12.6122 9.81075 11.1882 9.81075 10.3092 10.6927C9.43024 11.5747 9.43024 13.0048 10.3092 13.8868C11.1882 14.7688 12.6122 14.7688 13.4912 13.8868Z" fill="black"/>
</svg>
