<svg width="24" height="24" viewBox="0 0 24 24" fill="none" xmlns="http://www.w3.org/2000/svg">
<path d="M18 5.00003V6.00812L17.0287 6.00397C16.0636 5.99959 15.1558 6.46051 14.5891 7.23997L7.79313 16.584C7.60461 16.8433 7.30202 16.9969 6.97911 16.996L3.00428 16.979C2.452 16.9766 2.00237 17.4224 2.00001 17.9747C1.99765 18.527 2.44344 18.9766 2.99572 18.9789L6.97289 18.996C7.93591 18.9989 8.84342 18.5406 9.41087 17.7599L16.2069 8.41594C16.3961 8.15563 16.699 8.00245 17.0197 8.00395L18 8.00814V9.00003C18 9.40449 18.2436 9.76913 18.6173 9.92391C18.991 10.0787 19.4211 9.99313 19.7071 9.70714L21.5751 7.83912C21.8309 7.659 21.9986 7.3619 22 7.02523L21.9999 7.01044C22.0026 6.75106 21.905 6.49083 21.7071 6.29292L19.7071 4.29292C19.4211 4.00692 18.991 3.92137 18.6173 4.07615C18.2436 4.23093 18 4.59557 18 5.00003Z" fill="black"/>
<path d="M2.99572 6.02095C2.44344 6.02332 1.99765 6.47294 2.00001 7.02522C2.00237 7.5775 2.452 8.0233 3.00428 8.02094L6.9796 8.00394C7.30239 8.00309 7.60487 8.15695 7.79333 8.4162L9.37333 10.5882C9.69822 11.0348 10.3236 11.1335 10.7703 10.8086C11.2169 10.4837 11.3156 9.8583 10.9907 9.41168L9.41087 7.23996C8.84342 6.45934 7.93591 6.00095 6.97289 6.00395L2.99572 6.02095Z" fill="black"/>
<path d="M18 15.9785V16.9918L17.0208 16.996C16.698 16.9969 16.3955 16.843 16.207 16.5838L14.627 14.4118C14.3021 13.9652 13.6767 13.8665 13.2301 14.1914C12.7835 14.5162 12.6848 15.1417 13.0097 15.5883L14.5897 17.7603C15.1572 18.5407 16.0646 18.999 17.0275 18.996L18 18.9919V19.9785C18 20.383 18.2436 20.7476 18.6173 20.9024C18.991 21.0572 19.4211 20.9716 19.7071 20.6857L21.6825 18.7102C21.8791 18.5267 22.0016 18.2649 22.0004 17.9748C21.9996 17.7976 21.9528 17.6315 21.8714 17.4875C21.8278 17.4101 21.773 17.3373 21.7071 17.2714L19.7071 15.2714C19.4211 14.9854 18.991 14.8999 18.6173 15.0547C18.2436 15.2094 18 15.5741 18 15.9785Z" fill="black"/>
</svg>
