<svg width="24" height="24" viewBox="0 0 24 24" fill="none" xmlns="http://www.w3.org/2000/svg">
<path d="M20 4.46667C20 4.09735 19.7965 3.75811 19.4706 3.58431L16.7206 2.11765C16.4265 1.96078 16.0735 1.96078 15.7794 2.11765L12.9706 3.61569C12.6765 3.77255 12.3235 3.77255 12.0294 3.61569L9.22059 2.11765C8.92647 1.96078 8.57353 1.96078 8.27941 2.11765L5.52941 3.58431C5.20355 3.75811 5 4.09736 5 4.46667V20.1005C5 20.8778 5.84797 21.3579 6.5145 20.958L6.875 20.7417L8.75 19.6167L10.625 20.7417L11.9855 21.558C12.3022 21.748 12.6978 21.748 13.0145 21.558L14.375 20.7417L16.25 19.6167L18.125 20.7417L18.4855 20.958C19.152 21.3579 20 20.8778 20 20.1005V4.46667ZM9 10.9917H16C16.4142 10.9917 16.75 11.3275 16.75 11.7417C16.75 12.1559 16.4142 12.4917 16 12.4917H9C8.58579 12.4917 8.25 12.1559 8.25 11.7417C8.25 11.3275 8.58579 10.9917 9 10.9917ZM8.25 8.74167C8.25 8.32745 8.58579 7.99167 9 7.99167H16C16.4142 7.99167 16.75 8.32745 16.75 8.74167C16.75 9.15588 16.4142 9.49167 16 9.49167H9C8.58579 9.49167 8.25 9.15588 8.25 8.74167ZM9 13.9917H16C16.4142 13.9917 16.75 14.3275 16.75 14.7417C16.75 15.1559 16.4142 15.4917 16 15.4917H9C8.58579 15.4917 8.25 15.1559 8.25 14.7417C8.25 14.3275 8.58579 13.9917 9 13.9917Z" fill="black"/>
</svg>
