<svg width="24" height="24" viewBox="0 0 24 24" fill="none" xmlns="http://www.w3.org/2000/svg">
<path d="M20.0001 4.7881C19.4478 4.7881 19.0001 5.23581 19.0001 5.7881V9.5602H15.1999C14.6477 9.5602 14.1999 10.0079 14.1999 10.5602C14.1999 11.1125 14.6477 11.5602 15.1999 11.5602H20.0001C20.5524 11.5602 21.0001 11.1125 21.0001 10.5602V5.7881C21.0001 5.23581 20.5524 4.7881 20.0001 4.7881Z" fill="black"/>
<path d="M16.9813 6.37172C14.3961 3.81565 10.4255 3.2643 7.23578 5.01733C4.03995 6.77369 2.39352 10.423 3.20539 13.9698C4.01705 17.5157 7.08764 20.0946 10.7301 20.303C14.3723 20.5114 17.7194 18.3001 18.9346 14.871C19.1191 14.3504 18.8466 13.7789 18.3261 13.5944C17.8055 13.4099 17.234 13.6824 17.0495 14.2029C16.1334 16.7878 13.6053 18.4643 10.8443 18.3063C8.08356 18.1483 5.76647 16.195 5.15496 13.5235C4.54366 10.853 5.78165 8.09862 8.19904 6.77008C10.6179 5.44071 13.6294 5.86281 15.5836 7.80226C15.5907 7.80936 15.598 7.81635 15.6053 7.82324L19.3175 11.291C19.7211 11.668 20.3539 11.6464 20.7309 11.2429C21.1079 10.8393 21.0863 10.2065 20.6828 9.82946L16.9813 6.37172Z" fill="black"/>
</svg>
