<svg width="24" height="24" viewBox="0 0 24 24" fill="none" xmlns="http://www.w3.org/2000/svg">
<path d="M22 12C22 6.47715 17.5228 2 12 2C6.47715 2 2 6.47715 2 12C2 17.5228 6.47715 22 12 22C17.5228 22 22 17.5228 22 12ZM10.25 8.75V11.837H12.1871C12.6136 11.837 12.9986 11.6651 13.2788 11.3849C13.559 11.1047 13.7309 10.7197 13.7309 10.2932C13.7309 9.86668 13.559 9.48174 13.2788 9.20154C13.0083 8.93109 12.6403 8.76159 12.2321 8.75H10.25ZM9.60547 7.27005V7.25H12.2505L12.2592 7.2502C13.0713 7.26917 13.8053 7.6068 14.3394 8.14088C14.8894 8.69089 15.2309 9.45288 15.2309 10.2932C15.2309 11.1335 14.8894 11.8955 14.3394 12.4455C14.13 12.655 13.8898 12.8342 13.6263 12.9758L14.8689 15.6754C15.042 16.0517 14.8774 16.4971 14.5012 16.6703C14.1249 16.8435 13.6795 16.6789 13.5063 16.3026L12.1413 13.337H10.25V16.0005C10.25 16.4147 9.91421 16.7505 9.5 16.7505C9.08579 16.7505 8.75 16.4147 8.75 16.0005V8.0127C8.75 7.59848 9.08579 7.2627 9.5 7.2627C9.5358 7.2627 9.57101 7.2652 9.60547 7.27005Z" fill="black"/>
</svg>
