<svg width="24" height="24" viewBox="0 0 24 24" fill="none" xmlns="http://www.w3.org/2000/svg">
<path d="M15.2929 2.29289C14.9024 2.68342 14.9024 3.31658 15.2929 3.70711L16.5858 5H8C5.23858 5 3 7.23858 3 10V11C3 11.5523 3.44772 12 4 12C4.55228 12 5 11.5523 5 11V10C5 8.34315 6.34315 7 8 7H16.5858L15.2929 8.29289C14.9024 8.68342 14.9024 9.31658 15.2929 9.70711C15.6834 10.0976 16.3166 10.0976 16.7071 9.70711L19.7071 6.70711C20.0976 6.31658 20.0976 5.68342 19.7071 5.29289L16.7071 2.29289C16.3166 1.90237 15.6834 1.90237 15.2929 2.29289ZM19 13C19 12.4477 18.5523 12 18 12C17.4477 12 17 12.4477 17 13V14C17 15.6569 15.6569 17 14 17H6.41421L7.70711 15.7071C8.09763 15.3166 8.09763 14.6834 7.70711 14.2929C7.31658 13.9024 6.68342 13.9024 6.29289 14.2929L3.29289 17.2929C3.19702 17.3888 3.12468 17.4993 3.07588 17.6172C3.02699 17.7351 3 17.8644 3 18C3 18.1356 3.02699 18.2649 3.07588 18.3828C3.12468 18.5007 3.19702 18.6112 3.29289 18.7071L6.29289 21.7071C6.68342 22.0976 7.31658 22.0976 7.70711 21.7071C8.09763 21.3166 8.09763 20.6834 7.70711 20.2929L6.41421 19H14C16.7614 19 19 16.7614 19 14V13Z" fill="black"/>
</svg>
