<svg width="24" height="24" viewBox="0 0 24 24" fill="none" xmlns="http://www.w3.org/2000/svg">
<path d="M12.0397 5.56742L6.73801 10.8691C6.34749 11.2596 6.34749 11.8928 6.73801 12.2833L12.0397 17.585C12.3547 17.9 12.8932 17.6769 12.8932 17.2315V14.218C16.9873 14.2959 18.6533 15.1501 20.2323 17.8402C20.2911 17.9405 20.3476 18.0395 20.4019 18.1376C20.6555 18.5962 21.4307 18.5206 21.4504 17.9968C21.4564 17.8365 21.4595 17.6732 21.4595 17.5067C21.4595 14.5054 20.4652 12.5168 19.0473 11.208C17.3507 9.6419 15.0039 9.05367 12.8932 8.95567V5.92098C12.8932 5.47553 12.3547 5.25244 12.0397 5.56742Z" fill="black"/>
<path d="M9.27944 5.26489C8.87345 4.89047 8.2408 4.91607 7.86638 5.32206L3.66222 9.88075C2.77867 10.8388 2.77934 12.3149 3.66377 13.2722L7.867 17.8215C8.24179 18.2271 8.87446 18.2521 9.28011 17.8774C9.68576 17.5026 9.71078 16.8699 9.33599 16.4642L5.13275 11.9149C4.95587 11.7235 4.95573 11.4283 5.13244 11.2366L9.33661 6.67795C9.71103 6.27196 9.68543 5.63931 9.27944 5.26489Z" fill="black"/>
</svg>
