<svg width="24" height="24" viewBox="0 0 24 24" fill="none" xmlns="http://www.w3.org/2000/svg">
<path d="M9.7383 4.14745L3.29289 10.5929C2.90237 10.9834 2.90237 11.6165 3.29289 12.0071L9.7383 18.4525C10.0533 18.7675 10.5919 18.5444 10.5919 18.0989V14.382C15.3683 14.4729 17.3119 15.4695 19.154 18.608C19.2836 18.8288 19.4037 19.0448 19.5142 19.2572C19.7562 19.7221 20.526 19.6565 20.5582 19.1333C20.5764 18.8378 20.5858 18.5331 20.5858 18.2188C20.5858 14.7174 19.4258 12.3973 17.7716 10.8704C15.7923 9.04326 13.0543 8.35699 10.5919 8.24266V4.501C10.5919 4.05555 10.0533 3.83247 9.7383 4.14745Z" fill="black"/>
</svg>
