<svg width="24" height="24" viewBox="0 0 24 24" fill="none" xmlns="http://www.w3.org/2000/svg">
<path d="M9.79838 5.13397C7.77792 4.97181 5.70176 5.6638 4.15612 7.20994C3.71825 7.64794 3.35739 8.13252 3.05652 8.64219L4.51941 10.1038C5.72874 8.55082 7.3936 6.79712 9.5729 5.28791C9.64744 5.23629 9.7226 5.18497 9.79838 5.13397Z" fill="black"/>
<path d="M18.4914 12.3681C18.4914 12.3682 18.4913 12.368 18.4914 12.3681C19.8312 10.0492 20.83 7.18774 21.0273 3.70989C21.0497 3.31546 20.7323 2.99004 20.34 3.00023C20.3341 3.00039 20.3281 3.00062 20.3221 3.00094C16.1309 3.21964 12.8396 4.60694 10.313 6.35665C6.35825 9.09542 4.19009 12.7039 3.43838 14.1475C3.24696 14.5151 3.33765 14.9542 3.63886 15.2388L8.90952 20.22C9.09399 20.3943 9.33324 20.4889 9.57491 20.4899C9.60516 20.49 9.63546 20.4887 9.66568 20.4859C9.78025 20.4751 9.89389 20.443 10.001 20.3879C10.6818 20.0379 11.7443 19.4326 12.947 18.5331C14.751 17.1839 16.8707 15.1727 18.4914 12.3681ZM12.1931 9.44082C12.7789 8.85501 13.7285 8.85501 14.3144 9.44082C14.9002 10.0266 14.9002 10.9762 14.3144 11.5621C13.7285 12.1479 12.7789 12.1479 12.1931 11.5621C11.6073 10.9762 11.6073 10.0266 12.1931 9.44082Z" fill="black"/>
<path d="M18.8913 14.1849C17.3371 16.4981 15.4937 18.2292 13.8737 19.4611L15.3876 20.9772C15.898 20.6762 16.3825 20.3153 16.8203 19.8773C18.3781 18.319 19.0686 16.2213 18.8913 14.1849Z" fill="black"/>
<path d="M4.03197 17.399C3.75523 17.2868 3.42612 17.3472 3.20741 17.5764C2.92148 17.8761 2.93255 18.3509 3.23215 18.6369L5.26644 20.5791C5.56604 20.8651 6.04071 20.8541 6.32665 20.5544C6.55751 20.3124 6.59476 19.9563 6.44286 19.6775L4.03197 17.399Z" fill="black"/>
</svg>
