<svg width="24" height="24" viewBox="0 0 24 24" fill="none" xmlns="http://www.w3.org/2000/svg">
<path d="M7.25 3H6C4.34315 3 3 4.34315 3 6V18C3 19.6569 4.34315 21 6 21H7.25V14C7.25 13.0335 8.0335 12.25 9 12.25H15C15.9665 12.25 16.75 13.0335 16.75 14V21H18C19.6569 21 21 19.6569 21 18V8.74097C21 7.6644 20.4231 6.67037 19.4884 6.13624L14.6917 3.39527C14.2384 3.13625 13.7254 3 13.2033 3H8.75V7C8.75 7.13807 8.86193 7.25 9 7.25H14C14.4142 7.25 14.75 7.58579 14.75 8C14.75 8.41421 14.4142 8.75 14 8.75H9C8.0335 8.75 7.25 7.9665 7.25 7V3ZM15.25 14C15.25 13.8619 15.1381 13.75 15 13.75H9C8.86193 13.75 8.75 13.8619 8.75 14V21H15.25V14Z" fill="black"/>
</svg>
