<svg width="24" height="24" viewBox="0 0 24 24" fill="none" xmlns="http://www.w3.org/2000/svg">
<path d="M9.24275 15.8912C10.0681 16.3624 10.3561 17.4158 9.8843 18.2422C9.41314 19.0676 8.35971 19.3555 7.53329 18.8838C6.70792 18.4126 6.41998 17.3592 6.89174 16.5328C7.3629 15.7074 8.41634 15.4195 9.24275 15.8912ZM11.187 18.9859C11.801 17.9103 11.7273 16.629 11.1047 15.652L11.976 14.3942L12.7685 15.5089C12.7046 15.5983 12.6447 15.6917 12.5891 15.7891C11.7069 17.3345 12.2443 19.3043 13.7897 20.1865C15.335 21.0686 17.3048 20.5312 18.187 18.9859C19.0692 17.4405 18.5317 15.4707 16.9864 14.5885C16.1285 14.0988 15.1397 14.0466 14.2789 14.3614L13.1269 12.733L18.2327 5.36266C18.7833 4.56826 18.5856 3.47806 17.7912 2.92746C17.7427 2.89386 17.6931 2.86306 17.6425 2.83496L11.9438 11.0606L6.18075 2.9139C6.13056 2.9424 6.08131 2.9737 6.03318 3.0078C5.24416 3.5659 5.05701 4.658 5.61518 5.4471L10.79 12.726L9.62329 14.4101C8.14472 13.7949 6.40342 14.3625 5.58905 15.7891C4.70689 17.3345 5.24431 19.3043 6.78965 20.1865C8.335 21.0686 10.3048 20.5312 11.187 18.9859ZM16.2427 15.8912C17.0681 16.3624 17.3561 17.4158 16.8843 18.2422C16.4131 19.0676 15.3597 19.3555 14.5333 18.8838C13.7079 18.4126 13.42 17.3592 13.8917 16.5328C14.3629 15.7074 15.4163 15.4195 16.2427 15.8912Z" fill="black"/>
</svg>
