<svg width="24" height="24" viewBox="0 0 24 24" fill="none" xmlns="http://www.w3.org/2000/svg">
<path d="M14.8143 6.58107C9.97143 6.21269 5.82838 8.92037 9.0225 15.8339C9.15653 16.124 9.59385 16.0112 9.60537 15.6919C9.78647 10.6718 12.9449 11.5687 14.8143 11.8997V14.9583C14.8143 15.4037 15.3528 15.6268 15.6678 15.3118L21.0429 9.93674C21.4334 9.54622 21.4334 8.91305 21.0429 8.52253L15.6678 3.14745C15.3528 2.83247 14.8143 3.05555 14.8143 3.501V6.58107Z" fill="black"/>
<path d="M6.75 5.45032H8.94786C9.36207 5.45032 9.69786 5.11454 9.69786 4.70032C9.69786 4.28611 9.36207 3.95032 8.94786 3.95032H6.75C4.67893 3.95032 3 5.62925 3 7.70032V17.2939C3 19.365 4.67893 21.0439 6.75 21.0439H16.3436C18.4147 21.0439 20.0936 19.365 20.0936 17.2939V15.9624C20.0936 15.5481 19.7578 15.2124 19.3436 15.2124C18.9294 15.2124 18.5936 15.5481 18.5936 15.9624V17.2939C18.5936 18.5365 17.5862 19.5439 16.3436 19.5439H6.75C5.50736 19.5439 4.5 18.5365 4.5 17.2939V7.70032C4.5 6.45768 5.50736 5.45032 6.75 5.45032Z" fill="black"/>
</svg>
