<svg width="24" height="24" viewBox="0 0 24 24" fill="none" xmlns="http://www.w3.org/2000/svg">
<path d="M8.66041 9.65477C7.36551 8.35987 5.26607 8.35987 3.97117 9.65477C2.67628 10.9497 2.67628 13.0491 3.97117 14.344C5.26607 15.6389 7.36551 15.6389 8.66041 14.344C9.9553 13.0491 9.9553 10.9497 8.66041 9.65477Z" fill="black"/>
<path d="M20.0295 3.97117C18.7346 2.67628 16.6352 2.67628 15.3403 3.97117C14.0454 5.26607 14.0454 7.36551 15.3403 8.66041C16.6352 9.9553 18.7346 9.9553 20.0295 8.66041C21.3244 7.36551 21.3244 5.26607 20.0295 3.97117Z" fill="black"/>
<path d="M20.0295 15.3403C18.7346 14.0454 16.6352 14.0454 15.3403 15.3403C14.0454 16.6352 14.0454 18.7346 15.3403 20.0295C16.6352 21.3244 18.7346 21.3244 20.0295 20.0295C21.3244 18.7346 21.3244 16.6352 20.0295 15.3403Z" fill="black"/>
<path d="M16.0496 7.12896C15.8026 6.63498 15.2019 6.43476 14.708 6.68174L8.39849 9.83648C7.90451 10.0835 7.70429 10.6841 7.95128 11.1781C8.19827 11.6721 8.79894 11.8723 9.29292 11.6253L15.6024 8.4706C16.0964 8.22361 16.2966 7.62294 16.0496 7.12896Z" fill="black"/>
<path d="M7.95128 12.8213C7.70429 13.3153 7.90451 13.916 8.39849 14.163L14.708 17.3177C15.2019 17.5647 15.8026 17.3645 16.0496 16.8705C16.2966 16.3765 16.0964 15.7758 15.6024 15.5289L9.29292 12.3741C8.79894 12.1271 8.19827 12.3274 7.95128 12.8213Z" fill="black"/>
</svg>
