<svg width="24" height="24" viewBox="0 0 24 24" fill="none" xmlns="http://www.w3.org/2000/svg">
<path d="M12.1689 21C16.8528 19.9472 20.3379 15.6116 20.3379 10.9747V7.33234C20.3379 6.5032 19.8365 5.75676 19.0686 5.44226L13.963 3.35305C12.8133 2.88232 11.5246 2.88232 10.3748 3.35305L5.26925 5.44226C4.50137 5.75574 4 6.5032 4 7.33234V10.9747C4 15.6116 7.48507 19.9472 12.1689 21ZM11.8063 16.9055C9.38905 16.188 7.63086 13.8852 7.63086 11.4304V9.40686C7.63086 8.94622 7.9094 8.53097 8.336 8.35681L11.1724 7.19614C11.3982 7.10373 11.6335 7.04397 11.8717 7.01687C12.0362 6.99814 12.1709 7.13423 12.1708 7.29985L12.1692 16.6252C12.1692 16.8174 11.9906 16.9602 11.8063 16.9055Z" fill="black"/>
</svg>
