<svg width="24" height="24" viewBox="0 0 24 24" fill="none" xmlns="http://www.w3.org/2000/svg">
<path d="M8.17969 7.75C8.17969 5.95521 9.6349 4.5 11.4297 4.5C13.2245 4.5 14.6797 5.95521 14.6797 7.75V8.25H8.17969V7.75ZM6.67969 8.25H5.51601C4.60356 8.25 3.84574 8.94983 3.77186 9.85841L3.00946 17.7751L3.0082 17.7897C2.88584 19.3859 4.14792 20.75 5.75001 20.75H17.43C19.0317 20.75 20.2957 19.3861 20.1719 17.7881L19.4082 9.85736C19.3342 8.94939 18.576 8.25 17.664 8.25H16.1797V7.75C16.1797 5.12679 14.0529 3 11.4297 3C8.80647 3 6.67969 5.12679 6.67969 7.75V8.25Z" fill="black"/>
</svg>
