<svg width="24" height="24" viewBox="0 0 24 24" fill="none" xmlns="http://www.w3.org/2000/svg">
<path d="M15.4708 4.30892C15.2271 3.97393 14.7581 3.89987 14.4231 4.1435C14.0881 4.38713 14.014 4.85619 14.2577 5.19118L17.5732 9.75005H6.15513L9.47067 5.19118C9.7143 4.85619 9.64024 4.38713 9.30525 4.1435C8.97026 3.89987 8.5012 3.97393 8.25757 4.30892L4.30038 9.75005H4.00015C3.39753 9.75005 2.93181 10.2791 3.00823 10.8769L3.93554 18.1305C4.12699 19.6281 5.40154 20.7501 6.91132 20.7501H16.817C18.3268 20.7501 19.6014 19.6281 19.7928 18.1305L20.7201 10.8769C20.7965 10.2791 20.3308 9.75005 19.7282 9.75005H19.428L15.4708 4.30892ZM9.61417 14.4V17.4C9.61417 17.8142 9.27839 18.15 8.86417 18.15C8.44996 18.15 8.11417 17.8142 8.11417 17.4V14.4C8.11417 13.9858 8.44996 13.65 8.86417 13.65C9.27839 13.65 9.61417 13.9858 9.61417 14.4ZM11.8642 13.65C12.2784 13.65 12.6142 13.9858 12.6142 14.4V17.4C12.6142 17.8142 12.2784 18.15 11.8642 18.15C11.45 18.15 11.1142 17.8142 11.1142 17.4V14.4C11.1142 13.9858 11.45 13.65 11.8642 13.65ZM15.6142 14.4V17.4C15.6142 17.8142 15.2784 18.15 14.8642 18.15C14.45 18.15 14.1142 17.8142 14.1142 17.4V14.4C14.1142 13.9858 14.45 13.65 14.8642 13.65C15.2784 13.65 15.6142 13.9858 15.6142 14.4Z" fill="black"/>
</svg>
