<svg width="24" height="24" viewBox="0 0 24 24" fill="none" xmlns="http://www.w3.org/2000/svg">
<path d="M3.75 2C3.33579 2 3 2.33579 3 2.75C3 3.16421 3.33579 3.5 3.75 3.5H5.45455V14.0227C5.45455 14.9892 6.23805 15.7727 7.20455 15.7727H19.75C20.1642 15.7727 20.5 15.4369 20.5 15.0227C20.5 14.6085 20.1642 14.2727 19.75 14.2727H7.20455C7.06647 14.2727 6.95455 14.1608 6.95455 14.0227V12.5687H17.6756C18.1443 12.5687 18.5501 12.2432 18.6518 11.7856L19.8437 6.42201C19.9825 5.79749 19.5073 5.20508 18.8676 5.20508H6.95455V2.75C6.95455 2.33579 6.61876 2 6.20455 2H3.75ZM8.25 17.75C6.86875 17.75 5.75 18.8687 5.75 20.25C5.75 21.6313 6.86875 22.75 8.25 22.75C9.63125 22.75 10.75 21.6313 10.75 20.25C10.75 18.8687 9.63125 17.75 8.25 17.75ZM15.75 20.25C15.75 21.6313 16.8687 22.75 18.25 22.75C19.6313 22.75 20.75 21.6313 20.75 20.25C20.75 18.8687 19.6313 17.75 18.25 17.75C16.8687 17.75 15.75 18.8687 15.75 20.25Z" fill="black"/>
</svg>
