<svg width="24" height="24" viewBox="0 0 24 24" fill="none" xmlns="http://www.w3.org/2000/svg">
<path d="M11.75 5V19H18C19.6569 19 21 17.6569 21 16V8C21 6.34315 19.6569 5 18 5H11.75ZM10.25 5H6C4.34315 5 3 6.34315 3 8V16C3 17.6569 4.34315 19 6 19H10.25V5ZM5.0498 10.5C5.0498 10.0858 5.38559 9.75 5.7998 9.75H7.7998C8.21402 9.75 8.5498 10.0858 8.5498 10.5C8.5498 10.9142 8.21402 11.25 7.7998 11.25H5.7998C5.38559 11.25 5.0498 10.9142 5.0498 10.5ZM5.7998 12.75H7.7998C8.21402 12.75 8.5498 13.0858 8.5498 13.5C8.5498 13.9142 8.21402 14.25 7.7998 14.25H5.7998C5.38559 14.25 5.0498 13.9142 5.0498 13.5C5.0498 13.0858 5.38559 12.75 5.7998 12.75Z" fill="black"/>
</svg>
