<svg width="24" height="24" viewBox="0 0 24 24" fill="none" xmlns="http://www.w3.org/2000/svg">
<path d="M18.3633 4.34961V17.3026L21.0303 19.9697C21.2003 20.1396 21.2716 20.3708 21.2443 20.5922C21.6783 20.483 21.9996 20.0902 21.9996 19.6223V4.34961C21.9996 3.79732 21.5519 3.34961 20.9996 3.34961H19.3633C18.811 3.34961 18.3633 3.79733 18.3633 4.34961ZM12.9092 11.8485L16.5455 15.4849V7.98633C16.5455 7.43404 16.0978 6.98633 15.5455 6.98633H13.9092C13.3569 6.98633 12.9092 7.43404 12.9092 7.98633V11.8485ZM12.9092 15.9698V19.6227C12.9092 20.175 13.3569 20.6227 13.9092 20.6227H15.5455C16.0978 20.6227 16.5455 20.175 16.5455 19.6227V19.6062L18.9697 22.0303C19.2626 22.3232 19.7374 22.3232 20.0303 22.0303C20.3232 21.7374 20.3232 21.2626 20.0303 20.9697L4.03033 4.96967C3.73744 4.67678 3.26256 4.67678 2.96967 4.96967C2.67678 5.26256 2.67678 5.73744 2.96967 6.03033L8.47059 11.5312H8.4541C7.90182 11.5312 7.4541 11.979 7.4541 12.5312V19.6222C7.4541 20.1744 7.90182 20.6222 8.4541 20.6222H10.0905C10.6427 20.6222 11.0905 20.1744 11.0905 19.6222V14.1511L12.9092 15.9698ZM4.63636 20.6225C5.18865 20.6225 5.63636 20.1748 5.63636 19.6225V16.168C5.63636 15.6157 5.18865 15.168 4.63636 15.168H3C2.44772 15.168 2 15.6157 2 16.168V19.6225C2 20.1748 2.44772 20.6225 3 20.6225H4.63636Z" fill="black"/>
</svg>
