<svg width="24" height="24" viewBox="0 0 24 24" fill="none" xmlns="http://www.w3.org/2000/svg">
<path d="M13.666 4C13.666 4.55228 14.1137 5 14.666 5H18.2216C18.6511 5 18.9993 5.34822 18.9993 5.77778V18.2222C18.9993 18.6518 18.6511 19 18.2216 19H14.666C14.1137 19 13.666 19.4477 13.666 20C13.666 20.5523 14.1137 21 14.666 21H18.2216C19.7557 21 20.9993 19.7563 20.9993 18.2222V5.77778C20.9993 4.24365 19.7557 3 18.2216 3H14.666C14.1137 3 13.666 3.44772 13.666 4Z" fill="black"/>
<path d="M9.51555 6.84758C9.12503 7.2381 9.12503 7.87127 9.51555 8.26179L13.2529 11.9991L9.51555 15.7365C9.12503 16.127 9.12503 16.7602 9.51555 17.1507C9.90607 17.5412 10.5392 17.5412 10.9298 17.1507L15.3742 12.7062C15.7647 12.3157 15.7647 11.6826 15.3742 11.292L10.9298 6.84758C10.5392 6.45706 9.90607 6.45706 9.51555 6.84758Z" fill="black"/>
<path d="M3 12C3 12.5523 3.44772 13 4 13H14.6667C15.219 13 15.6667 12.5523 15.6667 12C15.6667 11.4477 15.219 11 14.6667 11H4C3.44772 11 3 11.4477 3 12Z" fill="black"/>
</svg>
