<svg width="24" height="24" viewBox="0 0 24 24" fill="none" xmlns="http://www.w3.org/2000/svg">
<path d="M5.77778 5H9.33333C9.88562 5 10.3333 4.55228 10.3333 4C10.3333 3.44772 9.88562 3 9.33333 3H5.77778C4.24365 3 3 4.24365 3 5.77778V18.2222C3 19.7563 4.24365 21 5.77778 21H9.33333C9.88562 21 10.3333 20.5523 10.3333 20C10.3333 19.4477 9.88562 19 9.33333 19H5.77778C5.34822 19 5 18.6518 5 18.2222V5.77778C5 5.34822 5.34822 5 5.77778 5Z" fill="black"/>
<path d="M14.8476 6.84758C14.4571 7.2381 14.4571 7.87127 14.8476 8.26179L18.5849 11.9991L14.8476 15.7365C14.4571 16.127 14.4571 16.7602 14.8476 17.1507C15.2381 17.5412 15.8713 17.5412 16.2618 17.1507L20.7062 12.7062C21.0968 12.3157 21.0968 11.6826 20.7062 11.292L16.2618 6.84758C15.8713 6.45706 15.2381 6.45706 14.8476 6.84758Z" fill="black"/>
<path d="M8.33398 12C8.33398 12.5523 8.7817 13 9.33398 13H20.0007C20.5529 13 21.0007 12.5523 21.0007 12C21.0007 11.4477 20.5529 11 20.0007 11H9.33398C8.7817 11 8.33398 11.4477 8.33398 12Z" fill="black"/>
</svg>
