<svg width="24" height="24" viewBox="0 0 24 24" fill="none" xmlns="http://www.w3.org/2000/svg">
<path d="M4 12.4C4 12.8142 4.33579 13.15 4.75 13.15H19.75C20.1642 13.15 20.5 12.8142 20.5 12.4C20.5 11.9858 20.1642 11.65 19.75 11.65H4.75C4.33579 11.65 4 11.9858 4 12.4Z" fill="black"/>
<path d="M4 6.3999C4 6.81412 4.33579 7.1499 4.75 7.1499H19.75C20.1642 7.1499 20.5 6.81412 20.5 6.3999C20.5 5.98569 20.1642 5.6499 19.75 5.6499H4.75C4.33579 5.6499 4 5.98569 4 6.3999Z" fill="black"/>
<path d="M4 18.3999C4 18.8141 4.33579 19.1499 4.75 19.1499H19.75C20.1642 19.1499 20.5 18.8141 20.5 18.3999C20.5 17.9857 20.1642 17.6499 19.75 17.6499H4.75C4.33579 17.6499 4 17.9857 4 18.3999Z" fill="black"/>
<path d="M18.35 6.3C18.35 5.02975 17.3203 4 16.05 4C14.7797 4 13.75 5.02975 13.75 6.3C13.75 7.57025 14.7797 8.6 16.05 8.6C17.3203 8.6 18.35 7.57025 18.35 6.3Z" fill="black"/>
<path d="M18.35 18.3C18.35 17.0297 17.3203 16 16.05 16C14.7797 16 13.75 17.0297 13.75 18.3C13.75 19.5703 14.7797 20.6 16.05 20.6C17.3203 20.6 18.35 19.5703 18.35 18.3Z" fill="black"/>
<path d="M10.35 12.3C10.35 11.0297 9.32026 10 8.05 10C6.77975 10 5.75 11.0297 5.75 12.3C5.75 13.5703 6.77975 14.6 8.05 14.6C9.32026 14.6 10.35 13.5703 10.35 12.3Z" fill="black"/>
</svg>
