<svg width="24" height="24" viewBox="0 0 24 24" fill="none" xmlns="http://www.w3.org/2000/svg">
<path d="M12.4004 20.5C12.8146 20.5 13.1504 20.1642 13.1504 19.75V4.75C13.1504 4.33579 12.8146 4 12.4004 4C11.9862 4 11.6504 4.33579 11.6504 4.75V19.75C11.6504 20.1642 11.9862 20.5 12.4004 20.5Z" fill="black"/>
<path d="M6.40039 20.5C6.8146 20.5 7.15039 20.1642 7.15039 19.75V4.75C7.15039 4.33579 6.8146 4 6.40039 4C5.98618 4 5.65039 4.33579 5.65039 4.75V19.75C5.65039 20.1642 5.98618 20.5 6.40039 20.5Z" fill="black"/>
<path d="M18.4004 20.5C18.8146 20.5 19.1504 20.1642 19.1504 19.75V4.75C19.1504 4.33579 18.8146 4 18.4004 4C17.9862 4 17.6504 4.33579 17.6504 4.75V19.75C17.6504 20.1642 17.9862 20.5 18.4004 20.5Z" fill="black"/>
<path d="M6.3 6.15C5.02975 6.15 4 7.17974 4 8.45C4 9.72025 5.02975 10.75 6.3 10.75C7.57025 10.75 8.6 9.72025 8.6 8.45C8.6 7.17974 7.57025 6.15 6.3 6.15Z" fill="black"/>
<path d="M18.3 6.15C17.0297 6.15 16 7.17974 16 8.45C16 9.72025 17.0297 10.75 18.3 10.75C19.5703 10.75 20.6 9.72025 20.6 8.45C20.6 7.17974 19.5703 6.15 18.3 6.15Z" fill="black"/>
<path d="M12.3 14.15C11.0297 14.15 10 15.1797 10 16.45C10 17.7203 11.0297 18.75 12.3 18.75C13.5703 18.75 14.6 17.7203 14.6 16.45C14.6 15.1797 13.5703 14.15 12.3 14.15Z" fill="black"/>
</svg>
