<svg width="24" height="24" viewBox="0 0 24 24" fill="none" xmlns="http://www.w3.org/2000/svg">
<path d="M8.62476 5.1C8.21055 5.1 7.87476 5.43579 7.87476 5.85V17.4501C7.87476 17.8643 8.21055 18.2001 8.62476 18.2001C9.03898 18.2001 9.37476 17.8643 9.37476 17.4501V5.85C9.37476 5.43579 9.03898 5.1 8.62476 5.1Z" fill="black"/>
<path d="M12.0012 9.22602C12.3331 8.89408 12.3331 8.35589 12.0012 8.02394L9.22621 5.24896C8.89427 4.91701 8.35608 4.91701 8.02413 5.24896C7.69219 5.5809 7.69219 6.1191 8.02413 6.45104L10.7991 9.22602C11.1311 9.55797 11.6692 9.55797 12.0012 9.22602Z" fill="black"/>
<path d="M12.2502 8.62498C12.2502 8.15554 11.8696 7.77498 11.4002 7.77498H7.90211L9.22605 6.45104C9.55799 6.1191 9.55816 5.5809 9.22621 5.24896C8.89427 4.91701 8.35608 4.91701 8.02413 5.24896L5.24898 8.02394C5.00589 8.26704 4.93316 8.63264 5.06473 8.95026C5.19629 9.26789 5.50623 9.47498 5.85002 9.47498H11.4002C11.8696 9.47498 12.2502 9.09443 12.2502 8.62498Z" fill="black"/>
<path d="M13.9197 9.27187C13.9197 9.68609 14.2555 10.0219 14.6697 10.0219H17.6188C18.033 10.0219 18.3688 9.68609 18.3688 9.27187C18.3688 8.85766 18.033 8.52187 17.6188 8.52187H14.6697C14.2555 8.52187 13.9197 8.85766 13.9197 9.27187Z" fill="black"/>
<path d="M16.4448 5.16134C16.0645 4.99728 15.6232 5.1726 15.4591 5.55293L13.6607 9.7219C13.4966 10.1022 13.672 10.5436 14.0523 10.7076C14.4326 10.8717 14.874 10.6964 15.038 10.316L16.8364 6.14707C17.0005 5.76673 16.8252 5.32541 16.4448 5.16134Z" fill="black"/>
<path d="M15.852 5.16096C15.4715 5.32455 15.2956 5.76565 15.4592 6.14619L17.2513 10.3152C17.4148 10.6957 17.8559 10.8716 18.2365 10.708C18.617 10.5444 18.7929 10.1033 18.6293 9.72278L16.8372 5.55381C16.6737 5.17326 16.2326 4.99738 15.852 5.16096Z" fill="black"/>
<path d="M13.5994 13.3217C13.5994 13.7359 13.9352 14.0717 14.3494 14.0717H16.2939L13.7835 16.9582C13.5906 17.18 13.545 17.4939 13.6669 17.7614C13.7887 18.0288 14.0555 18.2004 14.3494 18.2004H17.9401C18.3543 18.2004 18.6901 17.8646 18.6901 17.4504C18.6901 17.0362 18.3543 16.7004 17.9401 16.7004H15.9956L18.506 13.8139C18.6989 13.5921 18.7445 13.2782 18.6226 13.0107C18.5008 12.7433 18.234 12.5717 17.9401 12.5717H14.3494C13.9352 12.5717 13.5994 12.9075 13.5994 13.3217Z" fill="black"/>
</svg>
