<svg width="24" height="24" viewBox="0 0 24 24" fill="none" xmlns="http://www.w3.org/2000/svg">
<path fill-rule="evenodd" clip-rule="evenodd" d="M14.4313 11.5588L15.8341 9.39683C15.7801 9.40111 15.7261 9.40325 15.672 9.40325C15.3778 9.40325 15.1036 9.34675 14.8525 9.23087C14.607 9.11753 14.3919 8.96264 14.2086 8.76677L14.2062 8.76421C14.0295 8.5685 13.8916 8.34212 13.792 8.08696L13.7904 8.08298C13.6964 7.826 13.65 7.55455 13.65 7.27006C13.65 6.93305 13.7083 6.62102 13.8283 6.33687C13.9466 6.05662 14.1103 5.8162 14.3203 5.61886C14.5347 5.4171 14.7862 5.26358 15.0723 5.15782L15.0736 5.15734C15.3652 5.05189 15.6763 5 16.0056 5C16.3391 5 16.6501 5.05145 16.9365 5.15692C17.2273 5.25628 17.4796 5.40361 17.6897 5.60066C17.9061 5.79828 18.0706 6.03964 18.1837 6.32153C18.3033 6.60565 18.3612 6.92003 18.3612 7.2615C18.3612 7.60337 18.3032 7.92022 18.184 8.20932L18.1835 8.21036L16.3667 11.5588H14.4313ZM16.8144 6.93066L16.8132 6.92784C16.7665 6.81554 16.7023 6.72233 16.621 6.6456L16.6127 6.63775C16.536 6.55651 16.443 6.4921 16.3307 6.44531L16.3279 6.44413C16.2238 6.39886 16.1086 6.37515 15.9799 6.37515C15.8519 6.37515 15.7332 6.39863 15.622 6.44472C15.5148 6.49154 15.4192 6.55682 15.3344 6.64162C15.2574 6.71864 15.1944 6.81311 15.1466 6.92784L15.1455 6.93067C15.1002 7.03479 15.0765 7.14995 15.0765 7.27861C15.0765 7.40667 15.1 7.52539 15.146 7.63653C15.1931 7.74436 15.2558 7.83988 15.3345 7.92408C15.4187 8.00273 15.5142 8.06544 15.622 8.1125C15.7332 8.15859 15.8519 8.18207 15.9799 8.18207C16.1086 8.18207 16.2238 8.15839 16.3279 8.11312L16.3307 8.11189C16.4454 8.06409 16.5399 8.00117 16.6169 7.92415C16.7017 7.83935 16.767 7.74375 16.8138 7.63653C16.8599 7.52538 16.8834 7.40667 16.8834 7.27861C16.8834 7.14995 16.8597 7.03478 16.8144 6.93066Z" fill="black"/>
<path d="M16.279 14.7812L15.3234 15.6649L14.4599 14.641L16.5008 12.9434H17.7055V19.3996H16.279V14.7812Z" fill="black"/>
<path d="M13.0012 9.37554C12.8149 9.56185 12.5636 9.64359 12.3203 9.62075C12.2938 9.62323 12.2671 9.62449 12.24 9.62449H10.3748V18.5996C10.3748 19.0138 10.039 19.3496 9.62476 19.3496C9.21055 19.3496 8.87476 19.0138 8.87476 18.5996V9.62449H6.85002C6.50623 9.62449 6.19629 9.4174 6.06473 9.09978C5.93316 8.78215 6.00589 8.41655 6.24898 8.17345L9.02413 5.39847C9.35608 5.06653 9.89427 5.06653 10.2262 5.39847L13.0012 8.17345C13.3331 8.5054 13.3331 9.04359 13.0012 9.37554Z" fill="black"/>
</svg>
