<svg width="24" height="24" viewBox="0 0 24 24" fill="none" xmlns="http://www.w3.org/2000/svg">
<path d="M8.62539 18.1001C9.0396 18.1001 9.37539 17.7643 9.37539 17.3501V5.75C9.37539 5.33579 9.0396 5 8.62539 5C8.21118 5 7.87539 5.33579 7.87539 5.75V17.3501C7.87539 17.7643 8.21118 18.1001 8.62539 18.1001Z" fill="black"/>
<path d="M5.24896 13.9741C4.91701 14.306 4.91701 14.8442 5.24896 15.1762L8.02394 17.9511C8.35589 18.2831 8.89408 18.2831 9.22602 17.9511C9.55797 17.6192 9.55797 17.081 9.22602 16.7491L6.45104 13.9741C6.1191 13.6421 5.5809 13.6421 5.24896 13.9741Z" fill="black"/>
<path d="M5 14.5751C5 15.0446 5.38056 15.4251 5.85 15.4251H9.34805L8.02411 16.7491C7.69216 17.081 7.692 17.6192 8.02394 17.9511C8.35589 18.2831 8.89408 18.2831 9.22602 17.9511L12.0012 15.1762C12.2443 14.9331 12.317 14.5675 12.1854 14.2498C12.0539 13.9322 11.7439 13.7251 11.4001 13.7251H5.85C5.38056 13.7251 5 14.1057 5 14.5751Z" fill="black"/>
<path d="M13.9203 9.17236C13.9203 9.58658 14.2561 9.92236 14.6703 9.92236H17.6194C18.0336 9.92236 18.3694 9.58658 18.3694 9.17236C18.3694 8.75815 18.0336 8.42236 17.6194 8.42236H14.6703C14.2561 8.42236 13.9203 8.75815 13.9203 9.17236Z" fill="black"/>
<path d="M16.4454 5.06183C16.0651 4.89776 15.6238 5.07308 15.4597 5.45342L13.6613 9.62239C13.4973 10.0027 13.6726 10.4441 14.0529 10.6081C14.4333 10.7722 14.8746 10.5969 15.0387 10.2165L16.837 6.04756C17.0011 5.66722 16.8258 5.2259 16.4454 5.06183Z" fill="black"/>
<path d="M15.8526 5.06145C15.4721 5.22503 15.2962 5.66614 15.4598 6.04668L17.2519 10.2156C17.4155 10.5962 17.8566 10.7721 18.2371 10.6085C18.6177 10.4449 18.7935 10.0038 18.63 9.62327L16.8379 5.4543C16.6743 5.07375 16.2332 4.89787 15.8526 5.06145Z" fill="black"/>
<path d="M13.6 13.2222C13.6 13.6364 13.9358 13.9722 14.35 13.9722H16.2945L13.7841 16.8587C13.5912 17.0805 13.5457 17.3944 13.6675 17.6618C13.7893 17.9293 14.0561 18.1009 14.35 18.1009H17.9408C18.355 18.1009 18.6908 17.7651 18.6908 17.3509C18.6908 16.9367 18.355 16.6009 17.9408 16.6009H15.9962L18.5067 13.7143C18.6995 13.4926 18.7451 13.1787 18.6233 12.9112C18.5014 12.6438 18.2346 12.4722 17.9408 12.4722H14.35C13.9358 12.4722 13.6 12.808 13.6 13.2222Z" fill="black"/>
</svg>
