<svg width="24" height="24" viewBox="0 0 24 24" fill="none" xmlns="http://www.w3.org/2000/svg">
<path d="M11.35 7.50049C11.35 8.05277 11.7977 8.50049 12.35 8.50049H19.35C19.9023 8.50049 20.35 8.05277 20.35 7.50049C20.35 6.9482 19.9023 6.50049 19.35 6.50049H12.35C11.7977 6.50049 11.35 6.9482 11.35 7.50049Z" fill="black"/>
<path d="M11.35 12.0005C11.35 12.5528 11.7977 13.0005 12.35 13.0005H19.35C19.9023 13.0005 20.35 12.5528 20.35 12.0005C20.35 11.4482 19.9023 11.0005 19.35 11.0005H12.35C11.7977 11.0005 11.35 11.4482 11.35 12.0005Z" fill="black"/>
<path d="M11.35 16.5005C11.35 17.0528 11.7977 17.5005 12.35 17.5005H19.35C19.9023 17.5005 20.35 17.0528 20.35 16.5005C20.35 15.9482 19.9023 15.5005 19.35 15.5005H12.35C11.7977 15.5005 11.35 15.9482 11.35 16.5005Z" fill="black"/>
<path d="M6.62539 16.6001C7.17768 16.6001 7.62539 16.1524 7.62539 15.6001V7C7.62539 6.44771 7.17768 6 6.62539 6C6.07311 6 5.62539 6.44771 5.62539 7V15.6001C5.62539 16.1524 6.07311 16.6001 6.62539 16.6001Z" fill="black"/>
<path d="M3.24896 13.2241C2.91701 13.556 2.91701 14.0942 3.24896 14.4262L6.02394 17.2011C6.35589 17.5331 6.89408 17.5331 7.22602 17.2011C7.55797 16.8692 7.55797 16.331 7.22602 15.9991L4.45104 13.2241C4.1191 12.8921 3.5809 12.8921 3.24896 13.2241Z" fill="black"/>
<path d="M3 13.8251C3 14.2946 3.38056 14.6751 3.85 14.6751H7.34805L6.02411 15.9991C5.69216 16.331 5.692 16.8692 6.02394 17.2011C6.35589 17.5331 6.89408 17.5331 7.22602 17.2011L10.0012 14.4262C10.2443 14.1831 10.317 13.8175 10.1854 13.4998C10.0539 13.1822 9.74392 12.9751 9.40013 12.9751H3.85C3.38056 12.9751 3 13.3557 3 13.8251Z" fill="black"/>
</svg>
