<svg width="24" height="24" viewBox="0 0 24 24" fill="none" xmlns="http://www.w3.org/2000/svg">
<path d="M15.8341 9.39683L14.4313 11.5588H16.3667L18.1835 8.21036L18.1839 8.20932C18.3032 7.92022 18.3612 7.60337 18.3612 7.2615C18.3612 6.92003 18.3033 6.60565 18.1837 6.32153C18.0706 6.03964 17.9061 5.79828 17.6897 5.60066C17.4796 5.40361 17.2273 5.25628 16.9364 5.15692C16.6501 5.05145 16.3391 5 16.0056 5C15.6763 5 15.3651 5.05189 15.0736 5.15734L15.0723 5.15782C14.7861 5.26358 14.5347 5.4171 14.3203 5.61886C14.1103 5.8162 13.9466 6.05662 13.8283 6.33687C13.7083 6.62102 13.65 6.93305 13.65 7.27006C13.65 7.55455 13.6964 7.826 13.7904 8.08298L13.792 8.08696C13.8916 8.34212 14.0295 8.5685 14.2062 8.76421L14.2086 8.76677C14.3919 8.96264 14.607 9.11753 14.8525 9.23087C15.1036 9.34675 15.3778 9.40325 15.672 9.40325C15.7261 9.40325 15.7801 9.40111 15.8341 9.39683ZM16.8132 6.92784L16.8144 6.93066C16.8597 7.03478 16.8834 7.14995 16.8834 7.27861C16.8834 7.40667 16.8599 7.52538 16.8138 7.63653C16.767 7.74375 16.7017 7.83935 16.6169 7.92415C16.5399 8.00117 16.4454 8.06409 16.3307 8.11189L16.3279 8.11312C16.2238 8.15839 16.1086 8.18207 15.9799 8.18207C15.8519 8.18207 15.7332 8.15859 15.622 8.1125C15.5142 8.06544 15.4187 8.00273 15.3345 7.92408C15.2558 7.83988 15.1931 7.74436 15.146 7.63653C15.1 7.52539 15.0765 7.40667 15.0765 7.27861C15.0765 7.14995 15.1002 7.03479 15.1454 6.93067L15.1466 6.92784C15.1944 6.81311 15.2574 6.71864 15.3344 6.64162C15.4192 6.55682 15.5148 6.49154 15.622 6.44472C15.7332 6.39863 15.8519 6.37515 15.9799 6.37515C16.1086 6.37515 16.2238 6.39886 16.3279 6.44413L16.3307 6.44531C16.443 6.4921 16.536 6.55651 16.6127 6.63775L16.621 6.6456C16.7023 6.72233 16.7664 6.81554 16.8132 6.92784Z" fill="black"/>
<path d="M15.3234 15.6649L16.279 14.7812V19.3996H17.7055V12.9434H16.5008L14.4599 14.641L15.3234 15.6649Z" fill="black"/>
<path d="M6.92989 14.8786C6.68656 14.8557 6.43527 14.9375 6.24896 15.1238C5.91701 15.4557 5.91701 15.9939 6.24896 16.3259L9.02394 19.1008C9.35589 19.4328 9.89408 19.4328 10.226 19.1008L13.0012 16.3259C13.2443 16.0828 13.317 15.7172 13.1854 15.3995C13.0539 15.0819 12.7439 14.8748 12.4001 14.8748H10.3754V5.89971C10.3754 5.48549 10.0396 5.14971 9.62539 5.14971C9.21118 5.14971 8.87539 5.48549 8.87539 5.89971V14.8748H7.01016C6.98309 14.8748 6.95631 14.8761 6.92989 14.8786Z" fill="black"/>
</svg>
