<svg width="24" height="24" viewBox="0 0 24 24" fill="none" xmlns="http://www.w3.org/2000/svg">
<path d="M11.3494 7.35C11.3494 7.90228 11.7971 8.35 12.3494 8.35H19.3494C19.9017 8.35 20.3494 7.90228 20.3494 7.35C20.3494 6.79772 19.9017 6.35 19.3494 6.35H12.3494C11.7971 6.35 11.3494 6.79772 11.3494 7.35Z" fill="black"/>
<path d="M11.3494 11.85C11.3494 12.4023 11.7971 12.85 12.3494 12.85H19.3494C19.9017 12.85 20.3494 12.4023 20.3494 11.85C20.3494 11.2977 19.9017 10.85 19.3494 10.85H12.3494C11.7971 10.85 11.3494 11.2977 11.3494 11.85Z" fill="black"/>
<path d="M11.3494 16.35C11.3494 16.9023 11.7971 17.35 12.3494 17.35H19.3494C19.9017 17.35 20.3494 16.9023 20.3494 16.35C20.3494 15.7977 19.9017 15.35 19.3494 15.35H12.3494C11.7971 15.35 11.3494 15.7977 11.3494 16.35Z" fill="black"/>
<path d="M6.62476 6.85C6.07248 6.85 5.62476 7.29772 5.62476 7.85V16.4501C5.62476 17.0024 6.07248 17.4501 6.62476 17.4501C7.17705 17.4501 7.62476 17.0024 7.62476 16.4501V7.85C7.62476 7.29772 7.17705 6.85 6.62476 6.85Z" fill="black"/>
<path d="M10.0012 10.226C10.3331 9.89408 10.3331 9.35589 10.0012 9.02394L7.22621 6.24896C6.89427 5.91701 6.35608 5.91701 6.02413 6.24896C5.69219 6.5809 5.69219 7.1191 6.02413 7.45104L8.79911 10.226C9.13106 10.558 9.66925 10.558 10.0012 10.226Z" fill="black"/>
<path d="M10.2502 9.62498C10.2502 9.15554 9.8696 8.77498 9.40015 8.77498H5.90211L7.22605 7.45104C7.55799 7.1191 7.55816 6.5809 7.22621 6.24896C6.89427 5.91701 6.35608 5.91701 6.02413 6.24896L3.24898 9.02394C3.00589 9.26704 2.93316 9.63264 3.06473 9.95026C3.19629 10.2679 3.50623 10.475 3.85002 10.475H9.40015C9.8696 10.475 10.2502 10.0944 10.2502 9.62498Z" fill="black"/>
</svg>
