<svg width="24" height="24" viewBox="0 0 24 24" fill="none" xmlns="http://www.w3.org/2000/svg">
<path d="M6 5.5V18.5C6 19.8807 7.11929 21 8.5 21H16.5C17.8807 21 19 19.8807 19 18.5V5.5C19 4.11929 17.8807 3 16.5 3H8.5C7.11929 3 6 4.11929 6 5.5ZM15.5 15C15.5 16.6569 14.1569 18 12.5 18C10.8431 18 9.5 16.6569 9.5 15C9.5 13.3431 10.8431 12 12.5 12C14.1569 12 15.5 13.3431 15.5 15ZM12.5 8C11.9477 8 11.5 7.55228 11.5 7C11.5 6.44772 11.9477 6 12.5 6C13.0523 6 13.5 6.44772 13.5 7C13.5 7.55228 13.0523 8 12.5 8Z" fill="black"/>
</svg>
