<svg width="24" height="24" viewBox="0 0 24 24" fill="none" xmlns="http://www.w3.org/2000/svg">
<path d="M12.8 2.9C12.8 2.40294 12.3971 2 11.9 2C11.4029 2 11 2.40294 11 2.9V5.9C11 6.39706 11.4029 6.8 11.9 6.8C12.3971 6.8 12.8 6.39706 12.8 5.9V2.9ZM17.1796 4.55986C17.428 4.12932 17.2803 3.57893 16.8497 3.33054C16.4192 3.08215 15.8688 3.22982 15.6204 3.66036L14.1204 6.26036C13.872 6.6909 14.0197 7.24129 14.4502 7.48968C14.8808 7.73807 15.4312 7.5904 15.6796 7.15986L17.1796 4.55986ZM20.4696 6.9504C20.2212 6.51986 19.6708 6.37219 19.2402 6.62058L16.6403 8.12058C16.2097 8.36897 16.062 8.91936 16.3104 9.3499C16.5588 9.78044 17.1092 9.92811 17.5398 9.67972L20.1398 8.17972C20.5703 7.93133 20.718 7.38094 20.4696 6.9504ZM17.9 11C17.4029 11 17 11.4029 17 11.9C17 12.3971 17.4029 12.8 17.9 12.8H20.9C21.3971 12.8 21.8 12.3971 21.8 11.9C21.8 11.4029 21.3971 11 20.9 11H17.9ZM2 11.9C2 12.3971 2.40294 12.8 2.9 12.8H5.9C6.39706 12.8 6.8 12.3971 6.8 11.9C6.8 11.4029 6.39706 11 5.9 11H2.9C2.40294 11 2 11.4029 2 11.9ZM4.55974 6.62058C4.1292 6.37219 3.57881 6.51986 3.33042 6.9504C3.08203 7.38094 3.2297 7.93133 3.66024 8.17972L6.26024 9.67972C6.69078 9.92811 7.24117 9.78044 7.48956 9.3499C7.73795 8.91936 7.59028 8.36897 7.15974 8.12058L4.55974 6.62058ZM6.95025 3.33054C7.38079 3.08215 7.93117 3.22982 8.17956 3.66036L9.67956 6.26036C9.92796 6.6909 9.78029 7.24129 9.34975 7.48968C8.91921 7.73807 8.36882 7.5904 8.12043 7.15986L6.62043 4.55986C6.37204 4.12932 6.5197 3.57893 6.95025 3.33054ZM12.8 17.9C12.8 17.4029 12.3971 17 11.9 17C11.4029 17 11 17.4029 11 17.9V20.9C11 21.3971 11.4029 21.8 11.9 21.8C12.3971 21.8 12.8 21.3971 12.8 20.9V17.9ZM9.34975 16.311C8.91921 16.0626 8.36882 16.2103 8.12043 16.6408L6.62043 19.2408C6.37204 19.6714 6.5197 20.2218 6.95025 20.4701C7.38079 20.7185 7.93117 20.5709 8.17956 20.1403L9.67956 17.5403C9.92796 17.1098 9.78029 16.5594 9.34975 16.311ZM7.15974 15.6797C7.59028 15.4313 7.73795 14.8809 7.48956 14.4504C7.24117 14.0199 6.69078 13.8722 6.26024 14.1206L3.66024 15.6206C3.2297 15.869 3.08203 16.4194 3.33042 16.8499C3.57881 17.2804 4.1292 17.4281 4.55974 17.1797L7.15974 15.6797ZM16.3104 14.4504C16.062 14.8809 16.2097 15.4313 16.6403 15.6797L19.2402 17.1797C19.6708 17.4281 20.2212 17.2804 20.4696 16.8499C20.718 16.4194 20.5703 15.869 20.1398 15.6206L17.5398 14.1206C17.1092 13.8722 16.5588 14.0199 16.3104 14.4504ZM15.6796 16.6408C15.4312 16.2103 14.8808 16.0626 14.4502 16.311C14.0197 16.5594 13.872 17.1098 14.1204 17.5403L15.6204 20.1403C15.8688 20.5709 16.4192 20.7185 16.8497 20.4701C17.2803 20.2218 17.428 19.6714 17.1796 19.2408L15.6796 16.6408Z" fill="black"/>
</svg>
