<svg width="24" height="24" viewBox="0 0 24 24" fill="none" xmlns="http://www.w3.org/2000/svg">
<path d="M11.0216 3.57507L9.06336 7.74675C8.92179 8.04832 8.63933 8.2596 8.31004 8.31021L3.84915 8.99583C3.0449 9.11944 2.71711 10.1006 3.28556 10.6828L6.57413 14.0509C6.79595 14.2781 6.8967 14.5971 6.84558 14.9105L6.07843 19.6139C5.94404 20.4378 6.81875 21.054 7.54932 20.65L11.4429 18.4968C11.7441 18.3303 12.1097 18.3303 12.4108 18.4968L16.3044 20.65C17.035 21.054 17.9097 20.4378 17.7753 19.6139L17.0081 14.9105C16.957 14.5971 17.0578 14.2781 17.2796 14.0509L20.5682 10.6828C21.1366 10.1006 20.8088 9.11944 20.0046 8.99583L15.5437 8.31021C15.2144 8.2596 14.9319 8.04832 14.7904 7.74675L12.8321 3.57507C12.4722 2.80831 11.3816 2.80831 11.0216 3.57507Z" fill="black"/>
</svg>
