<svg width="24" height="24" viewBox="0 0 24 24" fill="none" xmlns="http://www.w3.org/2000/svg">
<path d="M15.0078 10.6249L9.5368 5.22615C9.50235 5.19216 9.46594 5.15992 9.42495 5.13419C8.78818 4.73434 8 5.27424 8 6.14316V17.8564C8 18.7255 8.78857 19.2665 9.42543 18.8651C9.46608 18.8395 9.50223 18.8075 9.53643 18.7737L15.0078 13.3738V18.1861C15.0078 18.6003 15.3436 18.9361 15.7578 18.9361C16.172 18.9361 16.5078 18.6003 16.5078 18.1861V5.81445C16.5078 5.40024 16.172 5.06445 15.7578 5.06445C15.3436 5.06445 15.0078 5.40024 15.0078 5.81445V10.6249Z" fill="black"/>
</svg>
