<svg width="24" height="24" viewBox="0 0 24 24" fill="none" xmlns="http://www.w3.org/2000/svg">
<path d="M8.75 18.9355C9.16421 18.9355 9.5 18.5998 9.5 18.1855V5.81395C9.5 5.39974 9.16421 5.06395 8.75 5.06395C8.33579 5.06395 8 5.39974 8 5.81395V18.1855C8 18.5998 8.33579 18.9355 8.75 18.9355Z" fill="black"/>
<path d="M14.973 18.7739C15.0074 18.8078 15.0438 18.8401 15.0848 18.8658C15.7216 19.2657 16.5098 18.7258 16.5098 17.8568V6.14363C16.5098 5.27449 15.7212 4.7335 15.0843 5.13486C15.0437 5.16048 15.0075 5.1925 14.9733 5.22626L9.14253 10.9809C9.10761 11.0154 9.0696 11.0466 9.03221 11.0784C8.49954 11.5307 8.49977 12.4698 9.03212 12.9226C9.06899 12.954 9.10643 12.9848 9.14088 13.0188L14.973 18.7739Z" fill="black"/>
</svg>
