<svg width="24" height="24" viewBox="0 0 24 24" fill="none" xmlns="http://www.w3.org/2000/svg">
<path d="M14.6802 6.68084C14.9731 6.38799 14.9732 5.91312 14.6804 5.62018L12.2808 3.21976C12.1402 3.07907 11.9494 3.00002 11.7504 3C11.5515 2.99998 11.3607 3.079 11.22 3.21967L8.81963 5.62008C8.52674 5.91298 8.52674 6.38785 8.81963 6.68074C9.11253 6.97364 9.5874 6.97364 9.88029 6.68074L11 5.56104V8.8675C11 9.28171 11.3358 9.6175 11.75 9.6175C12.1642 9.6175 12.5 9.28171 12.5 8.8675V5.56072L13.6195 6.68065C13.9124 6.9736 14.3873 6.97368 14.6802 6.68084ZM5.89849 9.8371C5.6056 9.54421 5.13073 9.54421 4.83783 9.8371C4.54494 10.13 4.54494 10.6049 4.83783 10.8978L5.41056 11.4705C5.70345 11.7634 6.17833 11.7634 6.47122 11.4705C6.76411 11.1776 6.76411 10.7027 6.47122 10.4098L5.89849 9.8371ZM2.75 15.9993C2.33579 15.9993 2 16.3351 2 16.7493C2 17.1635 2.33579 17.4993 2.75 17.4993H3.56818C3.9824 17.4993 4.31818 17.1635 4.31818 16.7493C4.31818 16.3351 3.9824 15.9993 3.56818 15.9993H2.75ZM18.6621 10.8978C18.955 10.6049 18.955 10.13 18.6621 9.8371C18.3692 9.54421 17.8944 9.54421 17.6015 9.8371L17.0288 10.4098C16.7359 10.7027 16.7359 11.1776 17.0288 11.4705C17.3216 11.7634 17.7965 11.7634 18.0894 11.4705L18.6621 10.8978ZM19.1818 16.7493C19.1818 17.1635 19.5176 17.4993 19.9318 17.4993H20.75C21.1642 17.4993 21.5 17.1635 21.5 16.7493C21.5 16.3351 21.1642 15.9993 20.75 15.9993H19.9318C19.5176 15.9993 19.1818 16.3351 19.1818 16.7493ZM2.75 19.2722C2.33579 19.2722 2 19.608 2 20.0222C2 20.4364 2.33579 20.7722 2.75 20.7722H20.75C21.1642 20.7722 21.5 20.4364 21.5 20.0222C21.5 19.608 21.1642 19.2722 20.75 19.2722H2.75ZM17.75 17.25C17.75 13.9363 15.0637 11.25 11.75 11.25C8.43629 11.25 5.75 13.9363 5.75 17.25C5.75 17.3605 5.83954 17.45 5.95 17.45H17.55C17.6605 17.45 17.75 17.3605 17.75 17.25Z" fill="black"/>
</svg>
