<svg width="24" height="24" viewBox="0 0 24 24" fill="none" xmlns="http://www.w3.org/2000/svg">
<path d="M12.1661 3.29289C11.7756 3.68342 11.7756 4.31658 12.1661 4.70711L13.059 5.59999L12.1661 6.49288C11.7756 6.8834 11.7756 7.51657 12.1661 7.90709C12.5567 8.29761 13.1898 8.29761 13.5804 7.90709L15.1803 6.3071C15.5709 5.91657 15.5709 5.28341 15.1803 4.89288L13.5804 3.29289C13.1898 2.90237 12.5567 2.90237 12.1661 3.29289Z" fill="black"/>
<path d="M12.6354 16.0929C12.2449 15.7024 11.6117 15.7024 11.2212 16.0929L9.62117 17.6929C9.23065 18.0835 9.23065 18.7166 9.62117 19.1071L11.2212 20.7071C11.6117 21.0977 12.2449 21.0977 12.6354 20.7071C13.0259 20.3166 13.0259 19.6834 12.6354 19.2929L11.7425 18.4L12.6354 17.5072C13.0259 17.1166 13.0259 16.4835 12.6354 16.0929Z" fill="black"/>
<path d="M17.7978 8.42529C17.2963 8.6567 17.0774 9.25081 17.3088 9.75228C17.6239 10.4351 17.8004 11.1951 17.8004 11.9999C17.8004 14.982 15.3825 17.3998 12.4004 17.3998C11.8725 17.3998 11.3618 17.3207 10.8736 17.1772C10.3437 17.0215 9.7879 17.3248 9.63218 17.8547C9.47646 18.3846 9.77978 18.9404 10.3097 19.0961C10.9702 19.2902 11.6707 19.3998 12.4004 19.3998C16.4871 19.3998 19.8004 16.0865 19.8004 11.9999C19.8004 10.8992 19.5583 9.85382 19.1247 8.91425C18.8933 8.41279 18.2992 8.19387 17.7978 8.42529Z" fill="black"/>
<path d="M12.4 6.59956C12.9278 6.59956 13.4386 6.67871 13.9268 6.82219C14.4567 6.97791 15.0125 6.67459 15.1682 6.14471C15.3239 5.61483 15.0206 5.05905 14.4907 4.90333C13.8302 4.70922 13.1297 4.59956 12.4 4.59956C8.3133 4.59956 5 7.91286 5 11.9995C5 13.099 5.24102 14.1445 5.67348 15.0845C5.90431 15.5862 6.49817 15.8058 6.9999 15.575C7.50163 15.3441 7.72124 14.7503 7.4904 14.2485C7.17594 13.565 7 12.8042 7 11.9995C7 9.01743 9.41787 6.59956 12.4 6.59956Z" fill="black"/>
</svg>
