<svg width="24" height="24" viewBox="0 0 24 24" fill="none" xmlns="http://www.w3.org/2000/svg">
<path d="M8 4.5H17C17.8284 4.5 18.5 5.17157 18.5 6V17.5H6.5V6C6.5 5.17157 7.17157 4.5 8 4.5ZM5 6V18C5 19.6569 6.34315 21 8 21H17C18.6569 21 20 19.6569 20 18V6C20 4.34315 18.6569 3 17 3H8C6.34315 3 5 4.34315 5 6ZM12.5004 20.1004C12.0309 20.1004 11.6504 19.7198 11.6504 19.2504C11.6504 18.7809 12.0309 18.4004 12.5004 18.4004C12.9698 18.4004 13.3504 18.7809 13.3504 19.2504C13.3504 19.7198 12.9698 20.1004 12.5004 20.1004Z" fill="black"/>
</svg>
