<svg width="24" height="24" viewBox="0 0 24 24" fill="none" xmlns="http://www.w3.org/2000/svg">
<path d="M14.0339 4.88205C13.4711 4.31738 12.7066 4 11.9093 4H7C5.34315 4 4 5.34314 4 7V11.9109C4 12.7068 4.31629 13.4701 4.87925 14.0328L10.7446 19.8949C11.9103 21.06 13.7977 21.0665 14.9714 19.9094L19.9055 15.0453C21.0901 13.8776 21.0984 11.969 19.9241 10.7909L14.0339 4.88205ZM10.2404 9.14218C10.2404 9.74899 9.7485 10.2409 9.14169 10.2409C8.53488 10.2409 8.04297 9.74899 8.04297 9.14218C8.04297 8.53537 8.53488 8.04346 9.14169 8.04346C9.7485 8.04346 10.2404 8.53537 10.2404 9.14218Z" fill="black"/>
</svg>
