<svg width="24" height="24" viewBox="0 0 24 24" fill="none" xmlns="http://www.w3.org/2000/svg">
<path d="M14.8651 6.34334C14.5717 6.63577 14.571 7.11064 14.8634 7.404L18.3401 10.8917C19.2208 11.7752 19.2145 13.2067 18.3261 14.0825L14.6766 17.6803C14.3816 17.9711 14.3782 18.4459 14.669 18.7409C14.9598 19.0359 15.4347 19.0393 15.7297 18.7485L19.3792 15.1507C20.8599 13.691 20.8703 11.3053 19.4024 9.83274L15.9257 6.34502C15.6333 6.05167 15.1584 6.05091 14.8651 6.34334Z" fill="black"/>
<path d="M11.4226 5.73504C10.9535 5.26448 10.3164 5 9.65198 5H5.5C4.11929 5 3 6.11929 3 7.5V11.6533C3 12.3166 3.26358 12.9527 3.73271 13.4216L8.67938 18.3656C9.65085 19.3365 11.2237 19.3419 12.2018 18.3777L16.3748 14.2638C17.3619 13.2907 17.3688 11.7002 16.3903 10.7185L11.4226 5.73504ZM8.24232 9.3194C8.24232 9.82911 7.82911 10.2423 7.3194 10.2423C6.80969 10.2423 6.39648 9.82911 6.39648 9.3194C6.39648 8.80969 6.80969 8.39648 7.3194 8.39648C7.82911 8.39648 8.24232 8.80969 8.24232 9.3194Z" fill="black"/>
</svg>
