<svg width="24" height="24" viewBox="0 0 24 24" fill="none" xmlns="http://www.w3.org/2000/svg">
<path d="M10.2598 17C10.2598 17.5523 10.7075 18 11.2598 18H18.0005C18.5528 18 19.0005 17.5523 19.0005 17C19.0005 16.4477 18.5528 16 18.0005 16H11.2598C10.7075 16 10.2598 16.4477 10.2598 17Z" fill="black"/>
<path d="M4.30636 6.27968C3.90854 6.66277 3.89659 7.29582 4.27968 7.69364L8.42654 12L4.27968 16.3064C3.89659 16.7042 3.90854 17.3372 4.30636 17.7203C4.70418 18.1034 5.33723 18.0915 5.72032 17.6936L10.5351 12.6936C10.908 12.3064 10.908 11.6936 10.5351 11.3064L5.72032 6.30636C5.33723 5.90854 4.70418 5.89659 4.30636 6.27968Z" fill="black"/>
</svg>
