<svg width="24" height="24" viewBox="0 0 24 24" fill="none" xmlns="http://www.w3.org/2000/svg">
<path d="M11.675 3.9C11.675 3.40294 11.2721 3 10.775 3H2.9C2.40294 3 2 3.40294 2 3.9C2 4.39706 2.40294 4.8 2.9 4.8H10.775C11.2721 4.8 11.675 4.39706 11.675 3.9ZM16.1019 10.2798L20.2999 10.2798C21.1831 10.2798 21.6699 9.563 21.6699 8.6798V4.73733C21.6699 3.85413 20.9531 3.13733 20.0699 3.13733L16.1019 3.13734C15.2187 3.13734 14.5019 3.85414 14.5019 4.73734V8.67981C14.5019 9.56301 15.2187 10.2798 16.1019 10.2798ZM10.775 8.625H2.9C2.40294 8.625 2 9.02794 2 9.525C2 10.0221 2.40294 10.425 2.9 10.425H10.775C11.2721 10.425 11.675 10.0221 11.675 9.525C11.675 9.02794 11.2721 8.625 10.775 8.625ZM21.8 15.15C21.8 14.6529 21.3971 14.25 20.9 14.25H2.9C2.40294 14.25 2 14.6529 2 15.15C2 15.6471 2.40294 16.05 2.9 16.05H20.9C21.3971 16.05 21.8 15.6471 21.8 15.15ZM20.9 19.875H2.9C2.40294 19.875 2 20.2779 2 20.775C2 21.2721 2.40294 21.675 2.9 21.675H20.9C21.3971 21.675 21.8 21.2721 21.8 20.775C21.8 20.2779 21.3971 19.875 20.9 19.875Z" fill="black"/>
</svg>
