<svg width="24" height="24" viewBox="0 0 24 24" fill="none" xmlns="http://www.w3.org/2000/svg">
<path d="M11.9009 3C11.2693 3 10.7143 3.24525 10.3157 3.64387C9.91707 4.0425 9.67183 4.59752 9.67183 5.2291V13.3639C9.67183 13.6939 9.5025 13.9961 9.25921 14.2192C8.97152 14.4829 8.72387 14.7923 8.52623 15.1348C8.19117 15.7156 8 16.3914 8 17.0991C8 18.1718 8.43825 19.1474 9.14542 19.8546C9.85259 20.5617 10.8282 21 11.9009 21C12.9737 21 13.9493 20.5617 14.6564 19.8546C15.3636 19.1474 15.8019 18.1718 15.8019 17.0991C15.8019 16.3914 15.6107 15.7156 15.2756 15.1348C15.078 14.7923 14.8303 14.4829 14.5426 14.2192C14.2994 13.9961 14.13 13.6939 14.13 13.3639V5.2291C14.13 4.59752 13.8848 4.0425 13.4862 3.64387C13.0875 3.24525 12.5325 3 11.9009 3Z" fill="black"/>
</svg>
