<svg width="24" height="24" viewBox="0 0 24 24" fill="none" xmlns="http://www.w3.org/2000/svg">
<path d="M12.8714 6.45009C12.8714 5.19708 11.9375 4.16218 10.7278 4.00344C10.5319 3.97773 10.3519 4.0987 10.2717 4.27927L7.11328 11.3856V19.4342C7.11328 19.9864 7.561 20.4342 8.11328 20.4342H15.9003C17.2664 20.4342 18.46 19.5112 18.8037 18.189L20.0241 13.4953C20.5181 11.5952 19.084 9.74044 17.1206 9.74044H12.8714V6.45009ZM4.5 20.4341H5.6V11.3857H4.5C3.67157 11.3857 3 12.0572 3 12.8857V18.9341C3 19.7625 3.67157 20.4341 4.5 20.4341Z" fill="black"/>
</svg>
