<svg width="24" height="24" viewBox="0 0 24 24" fill="none" xmlns="http://www.w3.org/2000/svg">
<path d="M13.5022 1.37375C11.9788 0.564936 10.0711 1.11109 9.2343 2.60428L0.389899 18.387C0.134227 18.8433 0 19.3557 0 19.8767C0 21.5904 1.41764 22.9702 3.15525 22.9702H20.844C21.3686 22.9702 21.885 22.842 22.3466 22.597C23.883 21.7813 24.4535 19.8933 23.6094 18.387L14.765 2.60428C14.473 2.0832 14.0344 1.65628 13.5022 1.37375ZM15.4085 11.2697C15.7014 11.5626 15.7014 12.0374 15.4085 12.3303L13.0595 14.6793L15.4074 17.0273C15.7003 17.3201 15.7003 17.795 15.4074 18.0879C15.1145 18.3808 14.6397 18.3808 14.3468 18.0879L11.9988 15.74L9.65091 18.0879C9.35801 18.3808 8.88314 18.3808 8.59025 18.0879C8.29735 17.795 8.29735 17.3201 8.59025 17.0273L10.9382 14.6793L8.58918 12.3303C8.29628 12.0374 8.29628 11.5626 8.58918 11.2697C8.88207 10.9768 9.35694 10.9768 9.64984 11.2697L11.9988 13.6187L14.3478 11.2697C14.6407 10.9768 15.1156 10.9768 15.4085 11.2697Z" fill="black"/>
</svg>
