<svg width="24" height="24" viewBox="0 0 24 24" fill="none" xmlns="http://www.w3.org/2000/svg">
<path d="M6.8582 8.20223L10.4465 11.7905L6.8587 15.3782C6.48771 15.7492 6.48771 16.3507 6.8587 16.7217C7.2297 17.0927 7.83121 17.0927 8.20221 16.7217L11.79 13.134L15.3777 16.7217C15.7487 17.0927 16.3502 17.0927 16.7212 16.7217C17.0922 16.3507 17.0922 15.7492 16.7212 15.3782L13.1335 11.7905L16.7217 8.20223C17.0927 7.83123 17.0927 7.22972 16.7217 6.85872C16.3507 6.48773 15.7492 6.48773 15.3782 6.85872L11.79 10.447L8.20171 6.85872C7.83071 6.48773 7.2292 6.48773 6.8582 6.85872C6.48721 7.22972 6.48721 7.83123 6.8582 8.20223Z" fill="black"/>
</svg>
