<svg width="24" height="24" viewBox="0 0 24 24" fill="none" xmlns="http://www.w3.org/2000/svg">
<path d="M9.77008 8.97823L7.7434 6.95155L8.22791 5.49804C8.3081 5.25746 8.24549 4.99222 8.06617 4.8129L5.60455 2.35128C5.34309 2.08982 4.91918 2.08982 4.65772 2.35128L2.19609 4.81291C2.07054 4.93846 2 5.10875 2 5.28632C2 5.46388 2.07054 5.63418 2.19609 5.75973L4.65772 8.22136C4.83704 8.40067 5.10227 8.46329 5.34285 8.38309L6.79668 7.89848L8.76571 9.86751L9.77008 8.97823ZM11.3611 16.7707L15.4712 20.8808C16.9634 22.373 19.3215 22.373 20.8138 20.8808C22.306 19.3885 22.306 17.0305 20.8138 15.5382L20.8028 15.5275L20.7942 15.5194L17.5131 12.4934C17.4886 12.498 17.464 12.5015 17.4392 12.504C16.701 12.5778 15.9547 12.6009 15.1921 12.4438L11.3611 16.7707Z" fill="black"/>
<path d="M19.4528 6.87738C18.8266 7.50357 17.8109 7.50309 17.1732 6.86543L16.3877 6.07994C15.7549 5.44715 15.7505 4.42564 16.3758 3.80034L17.8794 2.29671C17.264 2.03297 16.6486 1.94505 15.9453 2.03297C13.4836 2.2088 11.4616 4.40668 11.5495 6.95622C11.5495 7.48371 11.6374 7.92329 11.8132 8.36286L3.37338 15.8357C2.14257 16.9785 2.05465 18.9127 3.19755 20.0556C4.42836 21.2864 6.3625 21.1985 7.41748 19.8797L14.8903 11.4399C15.6815 11.7036 16.4727 11.7036 17.3519 11.6157C19.1102 11.2641 20.5168 9.94533 21.0443 8.18703C21.3081 7.21996 21.3081 6.2529 20.9564 5.37374L19.4528 6.87738Z" fill="black"/>
</svg>
