<svg width="24" height="24" viewBox="0 0 24 24" fill="none" xmlns="http://www.w3.org/2000/svg">
<path d="M3 12.3398C3 17.3108 7.029 21.3398 12 21.3398C16.971 21.3398 21 17.3108 21 12.3398C21 7.36884 16.971 3.33984 12 3.33984C7.029 3.33984 3 7.36884 3 12.3398ZM10.4804 9.63984C10.867 9.63984 11.1804 9.95324 11.1804 10.3398C11.1804 10.7264 10.867 11.0398 10.4804 11.0398H9.26641V14.3398C9.26641 14.7264 8.95301 15.0398 8.56641 15.0398C8.17981 15.0398 7.86641 14.7264 7.86641 14.3398V11.0398H6.65039C6.26379 11.0398 5.95039 10.7264 5.95039 10.3398C5.95039 9.95324 6.26379 9.63984 6.65039 9.63984H10.4804ZM12.5574 9.69029C12.8227 9.58374 13.1261 9.64918 13.3238 9.8556L14.7344 11.328L16.1449 9.8556C16.3426 9.64918 16.646 9.58374 16.9113 9.69029C17.1765 9.79685 17.3504 10.054 17.3504 10.3398V14.3398C17.3504 14.7264 17.037 15.0398 16.6504 15.0398C16.2638 15.0398 15.9504 14.7264 15.9504 14.3398V12.0824L15.2398 12.8241C15.1078 12.9619 14.9252 13.0398 14.7344 13.0398C14.5435 13.0398 14.3609 12.9619 14.2289 12.8241L13.5184 12.0824V14.3398C13.5184 14.7264 13.205 15.0398 12.8184 15.0398C12.4318 15.0398 12.1184 14.7264 12.1184 14.3398V10.3398C12.1184 10.054 12.2922 9.79685 12.5574 9.69029Z" fill="black"/>
</svg>
