<svg width="24" height="24" viewBox="0 0 24 24" fill="none" xmlns="http://www.w3.org/2000/svg">
<path d="M18.9604 5.8418H5.69727L6.51238 18.1972C6.6164 19.7739 7.92568 20.9997 9.50587 20.9997H15.1518C16.732 20.9997 18.0413 19.7739 18.1453 18.1972L18.9604 5.8418ZM11.3945 11.0527V16.1685C11.3945 16.5827 11.0587 16.9185 10.6445 16.9185C10.2303 16.9185 9.89453 16.5827 9.89453 16.1685V11.0527C9.89453 10.6385 10.2303 10.3027 10.6445 10.3027C11.0587 10.3027 11.3945 10.6385 11.3945 11.0527ZM14.7637 11.0527V16.1685C14.7637 16.5827 14.4279 16.9185 14.0137 16.9185C13.5995 16.9185 13.2637 16.5827 13.2637 16.1685V11.0527C13.2637 10.6385 13.5995 10.3027 14.0137 10.3027C14.4279 10.3027 14.7637 10.6385 14.7637 11.0527Z" fill="black"/>
<path d="M14.118 4.5C14.3942 4.5 14.618 4.72386 14.618 5V5.76316H10.0391V5C10.0391 4.72386 10.2629 4.5 10.5391 4.5H14.118ZM10.5391 3C9.43449 3 8.53906 3.89543 8.53906 5V7.26316H16.118V5C16.118 3.89543 15.2226 3 14.118 3H10.5391Z" fill="black"/>
<path d="M4 6.31641C4 6.73062 4.33579 7.06641 4.75 7.06641H19.9079C20.3221 7.06641 20.6579 6.73062 20.6579 6.31641C20.6579 5.90219 20.3221 5.56641 19.9079 5.56641H4.75C4.33579 5.56641 4 5.90219 4 6.31641Z" fill="black"/>
</svg>
