<svg width="24" height="24" viewBox="0 0 24 24" fill="none" xmlns="http://www.w3.org/2000/svg">
<path d="M14.118 4.5C14.3942 4.5 14.618 4.72386 14.618 5V5.56641H10.0391V5C10.0391 4.72386 10.2629 4.5 10.5391 4.5H14.118ZM16.118 5.56641V5C16.118 3.89543 15.2226 3 14.118 3H10.5391C9.43449 3 8.53906 3.89543 8.53906 5V5.56641H4.75C4.33579 5.56641 4 5.90219 4 6.31641C4 6.73062 4.33579 7.06641 4.75 7.06641H5.77806L6.51238 18.1972C6.6164 19.7739 7.92568 20.9997 9.50587 20.9997H15.1518C16.732 20.9997 18.0413 19.7739 18.1453 18.1972L18.8796 7.06641H19.9079C20.3221 7.06641 20.6579 6.73062 20.6579 6.31641C20.6579 5.90219 20.3221 5.56641 19.9079 5.56641H16.118ZM11.9684 11.1609V12.3625C12.7592 12.3992 13.6385 12.6196 14.2741 13.2064C14.8054 13.6968 15.1779 14.4418 15.1779 15.5663C15.1779 15.6673 15.1749 15.7651 15.169 15.86C15.1587 16.028 14.9115 16.0491 14.8338 15.8998C14.7983 15.8316 14.7597 15.7622 14.7181 15.6913C14.1265 14.6834 13.5023 14.3633 11.9684 14.3342V15.5278C11.9684 15.6709 11.7954 15.7425 11.6943 15.6414L9.62434 13.5714C9.49892 13.446 9.49892 13.2427 9.62434 13.1173L11.6943 11.0474C11.7954 10.9462 11.9684 11.0178 11.9684 11.1609Z" fill="black"/>
</svg>
