<svg width="24" height="24" viewBox="0 0 24 24" fill="none" xmlns="http://www.w3.org/2000/svg">
<path d="M16.5299 7C15.9953 7 15.7276 7.64629 16.1056 8.02426L17.8853 9.8039L13.5179 14.1713C13.4203 14.2689 13.262 14.2689 13.1643 14.1713L10.3154 11.3223C9.63199 10.6389 8.52395 10.6389 7.84054 11.3223L3.21967 15.9432C2.92678 16.2361 2.92678 16.711 3.21967 17.0039C3.51256 17.2968 3.98744 17.2968 4.28033 17.0039L8.9012 12.383C8.99883 12.2854 9.15712 12.2854 9.25475 12.383L12.1037 15.2319C12.7871 15.9153 13.8951 15.9153 14.5785 15.2319L18.9459 10.8646L20.7255 12.6442C21.1035 13.0222 21.7498 12.7545 21.7498 12.2199V7.6C21.7498 7.26863 21.4812 7 21.1498 7H16.5299Z" fill="black"/>
</svg>
