<svg width="24" height="24" viewBox="0 0 24 24" fill="none" xmlns="http://www.w3.org/2000/svg">
<path d="M16.5299 17.2235H21.1498C21.4812 17.2235 21.7498 16.9549 21.7498 16.6235V12.0036C21.7498 11.4691 21.1035 11.2014 20.7255 11.5794L18.9459 13.359L14.5785 8.99161C13.8951 8.3082 12.7871 8.3082 12.1037 8.99161L9.25475 11.8405C9.15712 11.9382 8.99883 11.9382 8.9012 11.8405L4.28033 7.21967C3.98744 6.92678 3.51256 6.92678 3.21967 7.21967C2.92678 7.51256 2.92678 7.98744 3.21967 8.28033L7.84054 12.9012C8.52395 13.5846 9.63199 13.5846 10.3154 12.9012L13.1643 10.0523C13.262 9.95464 13.4203 9.95464 13.5179 10.0523L17.8853 14.4196L16.1056 16.1993C15.7276 16.5773 15.9953 17.2235 16.5299 17.2235Z" fill="black"/>
</svg>
