<svg width="24" height="24" viewBox="0 0 24 24" fill="none" xmlns="http://www.w3.org/2000/svg">
<path d="M4 4.7881C3.44772 4.7881 3 5.23581 3 5.7881V10.5602C3 11.1125 3.44772 11.5602 4 11.5602H8.80018C9.35246 11.5602 9.80018 11.1125 9.80018 10.5602C9.80018 10.0079 9.35246 9.5602 8.80018 9.5602H5V5.7881C5 5.23581 4.55229 4.7881 4 4.7881Z" fill="black"/>
<path d="M7.0188 6.37172L3.31736 9.82946C2.91378 10.2065 2.89224 10.8393 3.26925 11.2429C3.64626 11.6464 4.27906 11.668 4.68264 11.291L8.39478 7.82324C8.40215 7.81635 8.40941 7.80936 8.41657 7.80226C10.3707 5.86281 13.3822 5.44071 15.8011 6.77008C18.2185 8.09862 19.4565 10.853 18.8452 13.5235C18.2337 16.195 15.9166 18.1483 13.1558 18.3063C10.3948 18.4643 7.86669 16.7878 6.95064 14.2029C6.76616 13.6824 6.19461 13.4099 5.67404 13.5944C5.15348 13.7789 4.88103 14.3504 5.06551 14.871C6.28075 18.3001 9.62781 20.5114 13.27 20.303C16.9125 20.0946 19.9831 17.5157 20.7947 13.9698C21.6066 10.423 19.9602 6.77369 16.7643 5.01733C13.5746 3.2643 9.60401 3.81565 7.0188 6.37172Z" fill="black"/>
</svg>
