<svg width="24" height="24" viewBox="0 0 24 24" fill="none" xmlns="http://www.w3.org/2000/svg">
<path d="M12.6656 4.43004L10.6073 6.48833C10.2168 6.87885 10.2168 7.51202 10.6073 7.90254C10.9979 8.29307 11.631 8.29307 12.0216 7.90254L14.0799 5.84425C15.2055 4.71858 17.0306 4.71858 18.1563 5.84425C19.282 6.96992 19.282 8.79503 18.1563 9.9207L16.098 11.979C15.7075 12.3695 15.7075 13.0027 16.098 13.3932C16.4885 13.7837 17.1217 13.7837 17.5122 13.3932L19.5705 11.3349C21.4772 9.4282 21.4772 6.33675 19.5705 4.43004C17.6638 2.52332 14.5724 2.52332 12.6656 4.43004Z" fill="black"/>
<path d="M10.9425 13.0575C10.5519 12.667 9.91878 12.667 9.52825 13.0575L7.7636 14.8222C7.37307 15.2127 7.37307 15.8459 7.7636 16.2364C8.15412 16.6269 8.78729 16.6269 9.17781 16.2364L10.9425 14.4718C11.333 14.0812 11.333 13.4481 10.9425 13.0575Z" fill="black"/>
<path d="M16.2374 7.7636C15.8469 7.37307 15.2137 7.37307 14.8232 7.7636L13.0585 9.52825C12.668 9.91878 12.668 10.5519 13.0585 10.9425C13.449 11.333 14.0822 11.333 14.4727 10.9425L16.2374 9.17781C16.6279 8.78729 16.6279 8.15412 16.2374 7.7636Z" fill="black"/>
<path d="M4.67567 4.67567C4.28514 5.06619 4.28514 5.69936 4.67567 6.08988L17.9101 19.3243C18.3006 19.7148 18.9338 19.7148 19.3243 19.3243C19.7148 18.9338 19.7148 18.3006 19.3243 17.9101L6.08988 4.67567C5.69936 4.28514 5.06619 4.28514 4.67567 4.67567Z" fill="black"/>
<path d="M7.90254 10.6073C7.51202 10.2168 6.87885 10.2168 6.48833 10.6073L4.43004 12.6656C2.52332 14.5724 2.52332 17.6638 4.43004 19.5705C6.33675 21.4772 9.4282 21.4772 11.3349 19.5705L13.3932 17.5122C13.7837 17.1217 13.7837 16.4885 13.3932 16.098C13.0027 15.7075 12.3695 15.7075 11.979 16.098L9.9207 18.1563C8.79503 19.282 6.96992 19.282 5.84425 18.1563C4.71858 17.0306 4.71858 15.2055 5.84425 14.0799L7.90254 12.0216C8.29307 11.631 8.29307 10.9979 7.90254 10.6073Z" fill="black"/>
</svg>
