<svg width="24" height="24" viewBox="0 0 24 24" fill="none" xmlns="http://www.w3.org/2000/svg">
<path d="M12 15.6667C12.5523 15.6667 13 15.219 13 14.6667V6.4134L15.7382 9.1516C16.1287 9.54213 16.7619 9.54213 17.1524 9.1516C17.5429 8.76108 17.5429 8.12792 17.1524 7.73739L12.708 3.29295C12.5472 3.13215 12.3452 3.03756 12.136 3.00918C12.0916 3.00313 12.0461 3 12 3C11.7108 3 11.4504 3.12273 11.2678 3.31894L6.84932 7.73739C6.4588 8.12792 6.4588 8.76108 6.84932 9.1516C7.23984 9.54213 7.87301 9.54213 8.26353 9.1516L11 6.41513V14.6667C11 15.219 11.4477 15.6667 12 15.6667Z" fill="black"/>
<path d="M19 14.6667V18.2222C19 18.6518 18.6518 19 18.2222 19H5.77778C5.34822 19 5 18.6518 5 18.2222V14.6667C5 14.1144 4.55228 13.6667 4 13.6667C3.44772 13.6667 3 14.1144 3 14.6667V18.2222C3 19.7563 4.24365 21 5.77778 21H18.2222C19.7563 21 21 19.7563 21 18.2222V14.6667C21 14.1144 20.5523 13.6667 20 13.6667C19.4477 13.6667 19 14.1144 19 14.6667Z" fill="black"/>
</svg>
