<svg width="24" height="24" viewBox="0 0 24 24" fill="none" xmlns="http://www.w3.org/2000/svg">
<path d="M10.6145 11.6731C12.9933 11.6731 14.9217 9.7316 14.9217 7.33657C14.9217 4.94155 12.9933 3 10.6145 3C8.23575 3 6.30737 4.94155 6.30737 7.33657C6.30737 9.7316 8.23575 11.6731 10.6145 11.6731ZM13.3848 20.6103L15.666 20.6335L20.7133 16.5463C21.3571 16.025 21.4563 15.0804 20.935 14.4366L20.5083 13.9097C19.987 13.2659 19.0424 13.1666 18.3986 13.688L17.0799 14.7559C17.0799 14.7559 17.0799 14.7559 17.0799 14.7559L13.3514 17.7751V17.7751L12.8998 20.0113C12.8998 20.0113 12.8998 20.0113 12.8998 20.0113C12.8823 20.0979 12.8882 20.183 12.9127 20.2606C12.9754 20.4586 13.1593 20.608 13.3848 20.6103ZM13.4199 13.4395H7.8108L7.57374 13.4443C4.77924 13.5581 2.5002 15.6762 2.02719 18.4254C2.01357 18.5045 2.00465 18.637 2.00041 18.8227L2 18.8591C2 19.744 2.72014 20.4612 3.60847 20.4612H10.6143H11.4198C11.3772 20.222 11.3778 19.9698 11.4295 19.7143L11.8811 17.4781C11.9502 17.1361 12.1363 16.8289 12.4074 16.6094L15.7255 13.9224C15.0184 13.6117 14.2393 13.4395 13.4199 13.4395Z" fill="black"/>
</svg>
