<svg width="24" height="24" viewBox="0 0 24 24" fill="none" xmlns="http://www.w3.org/2000/svg">
<path d="M16.6997 8.05296C15.8389 8.91439 15.8389 10.3109 16.6997 11.1723C17.5608 12.0339 18.9569 12.0339 19.818 11.1723C20.6788 10.3109 20.6788 8.91439 19.818 8.05296C18.9569 7.19132 17.5608 7.19132 16.6997 8.05296Z" fill="black"/>
<path d="M14.3123 5.94389C13.053 4.68537 11.0114 4.68537 9.75206 5.94389C8.49254 7.20261 8.49254 9.24354 9.75206 10.5023C11.0114 11.7608 13.053 11.7608 14.3124 10.5023C15.5719 9.24353 15.5719 7.2026 14.3123 5.94389Z" fill="black"/>
<path d="M8.19729 12.9644C6.90785 13.4723 6.05775 14.7143 6.05109 16.1001L6.04848 16.641C6.04369 17.6383 6.69923 18.5184 7.65611 18.7995C8.83295 19.1451 10.2968 19.3101 12.0318 19.3101C13.767 19.3101 15.2309 19.1451 16.4078 18.7994C17.3645 18.5184 18.0199 17.6385 18.0154 16.6415L18.0129 16.1003C18.0066 14.7146 17.1568 13.4726 15.8675 12.9648C14.6766 12.4958 13.3963 12.2638 12.0318 12.2638C10.6676 12.2638 9.38767 12.4956 8.19729 12.9644Z" fill="black"/>
<path d="M18.7783 16.3252H21.1533C21.6093 16.3252 22.0596 15.9405 21.9935 15.3962C21.8084 13.8713 20.5104 12.6903 18.9358 12.6903H16.898C18.1749 13.4606 18.9884 14.9381 18.7783 16.3252Z" fill="black"/>
<path d="M7.11843 8.05296C6.25739 7.19132 4.86122 7.19132 4.00019 8.05296C3.13937 8.91439 3.13937 10.3109 4.00019 11.1723C4.86122 12.0339 6.25739 12.0339 7.11843 11.1723C7.97925 10.3109 7.97925 8.91439 7.11843 8.05296Z" fill="black"/>
<path d="M5.22167 16.3252C5.01156 14.9381 5.82514 13.4606 7.10204 12.6903H5.06419C3.48956 12.6903 2.19161 13.8713 2.00648 15.3962C1.9404 15.9405 2.39067 16.3252 2.84669 16.3252H5.22167Z" fill="black"/>
</svg>
