<svg width="24" height="24" viewBox="0 0 24 24" fill="none" xmlns="http://www.w3.org/2000/svg">
<path d="M12.6609 9.74619C13.9763 11.0607 16.1089 11.0607 17.4243 9.74619C18.7396 8.43167 18.7396 6.30041 17.4243 4.98589C16.1089 3.67137 13.9763 3.67137 12.6609 4.98589C11.3456 6.3004 11.3456 8.43166 12.6609 9.74619ZM8.57329 15.9986L8.57036 16.643C8.56629 17.536 9.15336 18.3241 10.0102 18.5757C11.3298 18.9634 13.0046 19.1572 15.0347 19.1572C17.0646 19.1572 18.7393 18.9634 20.0588 18.5759C20.9158 18.3242 21.503 17.5358 21.4987 16.6426L21.4956 15.9986C21.4889 14.6186 20.6424 13.3819 19.3585 12.8762C18.0241 12.3507 16.5828 12.0879 15.0347 12.0879C13.4862 12.0879 12.0445 12.3508 10.7095 12.8766C9.42576 13.3822 8.57957 14.6189 8.57329 15.9986ZM7.26707 16.3503L7.26916 15.8914C7.27712 14.1445 8.30652 12.5715 9.88737 11.8594H6.85667C4.93468 11.8594 3.33945 13.2513 3.02155 15.0822C2.88119 15.8906 3.4478 16.3397 4.09763 16.3503H7.26707ZM6.02482 8.39477C6.90173 9.27168 8.32348 9.27168 9.20039 8.39477C10.0773 7.51786 10.0773 6.09612 9.20039 5.21921C8.32348 4.3423 6.90173 4.3423 6.02482 5.21921C5.14791 6.09612 5.14791 7.51786 6.02482 8.39477Z" fill="black"/>
</svg>
