<svg width="24" height="24" viewBox="0 0 24 24" fill="none" xmlns="http://www.w3.org/2000/svg">
<path d="M15.9217 7.33657C15.9217 4.94155 13.9933 3 11.6145 3C9.23575 3 7.30737 4.94155 7.30737 7.33657C7.30737 9.7316 9.23575 11.6731 11.6145 11.6731C13.9933 11.6731 15.9217 9.7316 15.9217 7.33657ZM19.5 18C16.8869 18 14.7421 15.9955 14.5191 13.4403C14.4861 13.4397 14.453 13.4395 14.4199 13.4395H8.8108L8.57374 13.4443C5.77924 13.5581 3.5002 15.6762 3.02719 18.4254C3.01357 18.5045 3.00465 18.637 3.00041 18.8227L3 18.8591C3 19.744 3.72014 20.4612 4.60847 20.4612H11.6143H18.6201C18.6316 20.4612 18.643 20.4611 18.6545 20.4609C19.5426 20.4419 20.2471 19.7094 20.2282 18.8248C20.2239 18.6282 20.2146 18.4885 20.2 18.4054C20.1739 18.2562 20.1424 18.1089 20.1058 17.9637C19.9072 17.9877 19.705 18 19.5 18ZM21.4242 11.0758C21.1899 10.8414 20.81 10.8414 20.5756 11.0758L19.4999 12.1515L18.4241 11.0758C18.1898 10.8414 17.8099 10.8414 17.5756 11.0758C17.3413 11.3101 17.3413 11.69 17.5756 11.9243L18.6514 13L17.5756 14.0758C17.3413 14.3101 17.3413 14.69 17.5756 14.9243C17.81 15.1586 18.1899 15.1586 18.4242 14.9243L19.4999 13.8486L20.5756 14.9243C20.8099 15.1586 21.1898 15.1586 21.4241 14.9243C21.6584 14.69 21.6584 14.3101 21.4241 14.0758L20.3484 13L21.4242 11.9243C21.6585 11.69 21.6585 11.3101 21.4242 11.0758Z" fill="black"/>
</svg>
