<svg width="24" height="24" viewBox="0 0 24 24" fill="none" xmlns="http://www.w3.org/2000/svg">
<path d="M10.6145 11.6731C12.9933 11.6731 14.9217 9.7316 14.9217 7.33657C14.9217 4.94155 12.9933 3 10.6145 3C8.23575 3 6.30737 4.94155 6.30737 7.33657C6.30737 9.7316 8.23575 11.6731 10.6145 11.6731ZM19.1058 17.9637C18.9072 17.9877 18.705 18 18.5 18C15.8869 18 13.7421 15.9955 13.5191 13.4403C13.4861 13.4397 13.453 13.4395 13.4199 13.4395H7.8108L7.57374 13.4443C4.77924 13.5581 2.5002 15.6762 2.02719 18.4254C2.01357 18.5045 2.00465 18.637 2.00041 18.8227L2 18.8591C2 19.744 2.72014 20.4612 3.60847 20.4612H10.6143H17.6201C17.6316 20.4612 17.643 20.4611 17.6545 20.4609C18.5426 20.4419 19.2471 19.7094 19.2282 18.8248C19.2239 18.6282 19.2146 18.4885 19.2 18.4054C19.1739 18.2562 19.1424 18.1089 19.1058 17.9637ZM21.0303 12.3301C21.3232 12.0372 21.3232 11.5624 21.0303 11.2695C20.7374 10.9766 20.2626 10.9766 19.9697 11.2695L17.75 13.4891L17.0303 12.7695C16.7374 12.4766 16.2626 12.4766 15.9697 12.7695C15.6768 13.0624 15.6768 13.5372 15.9697 13.8301L17.2197 15.0801C17.5126 15.373 17.9874 15.373 18.2803 15.0801L21.0303 12.3301Z" fill="black"/>
</svg>
