<svg width="24" height="24" viewBox="0 0 24 24" fill="none" xmlns="http://www.w3.org/2000/svg">
<path d="M10.6145 10.6731C12.9933 10.6731 14.9217 8.7316 14.9217 6.33657C14.9217 3.94155 12.9933 2 10.6145 2C8.23575 2 6.30737 3.94155 6.30737 6.33657C6.30737 8.7316 8.23575 10.6731 10.6145 10.6731ZM12.6535 12.4395H7.8108L7.57374 12.4443C4.77924 12.5581 2.5002 14.6762 2.02719 17.4254C2.01357 17.5045 2.00465 17.637 2.00041 17.8227L2 17.8591C2 18.744 2.72014 19.4612 3.60847 19.4612H10.6143H11.1988C10.8776 18.7051 10.7 17.8733 10.7 17C10.7 15.2059 11.4499 13.5869 12.6535 12.4395ZM17 22C19.7614 22 22 19.7614 22 17C22 14.2386 19.7614 12 17 12C14.2386 12 12 14.2386 12 17C12 19.7614 14.2386 22 17 22ZM16.9999 14.9C17.3313 14.9 17.5999 15.1687 17.5999 15.5V16.8449H18.9999C19.3313 16.8449 19.5999 17.1135 19.5999 17.4449C19.5999 17.7763 19.3313 18.0449 18.9999 18.0449H16.9999C16.8408 18.0449 16.6882 17.9817 16.5756 17.8692C16.4631 17.7566 16.3999 17.604 16.3999 17.4449V15.5C16.3999 15.1687 16.6685 14.9 16.9999 14.9Z" fill="black"/>
</svg>
