<svg width="24" height="24" viewBox="0 0 24 24" fill="none" xmlns="http://www.w3.org/2000/svg">
<path d="M14.9217 7.33657C14.9217 4.94155 12.9933 3 10.6145 3C8.23575 3 6.30737 4.94155 6.30737 7.33657C6.30737 9.7316 8.23575 11.6731 10.6145 11.6731C12.9933 11.6731 14.9217 9.7316 14.9217 7.33657ZM18.5 18C15.8869 18 13.7421 15.9955 13.5191 13.4403C13.4861 13.4397 13.453 13.4395 13.4199 13.4395H7.8108L7.57374 13.4443C4.77924 13.5581 2.5002 15.6762 2.02719 18.4254C2.01357 18.5045 2.00465 18.637 2.00041 18.8227L2 18.8591C2 19.744 2.72014 20.4612 3.60847 20.4612H10.6143H17.6201C17.6316 20.4612 17.643 20.4611 17.6545 20.4609C18.5426 20.4419 19.2471 19.7094 19.2282 18.8248C19.2239 18.6282 19.2146 18.4885 19.2 18.4054C19.1739 18.2562 19.1424 18.1089 19.1058 17.9637C18.9072 17.9877 18.705 18 18.5 18ZM15.85 13C15.85 13.359 16.141 13.65 16.5 13.65H17.85V15C17.85 15.359 18.141 15.65 18.5 15.65C18.859 15.65 19.15 15.359 19.15 15V13.65H20.5C20.859 13.65 21.15 13.359 21.15 13C21.15 12.641 20.859 12.35 20.5 12.35H19.15V11C19.15 10.641 18.859 10.35 18.5 10.35C18.141 10.35 17.85 10.641 17.85 11V12.35H16.5C16.141 12.35 15.85 12.641 15.85 13Z" fill="black"/>
</svg>
