<svg width="24" height="24" viewBox="0 0 24 24" fill="none" xmlns="http://www.w3.org/2000/svg">
<path d="M17.2923 18.395C15.8557 19.5852 14.0114 20.3007 12 20.3007C9.98861 20.3007 8.14432 19.5852 6.7077 18.395C7.34897 16.9298 9.47552 15.8541 12 15.8541C14.5245 15.8541 16.651 16.9299 17.2923 18.395ZM12 2C6.47715 2 2 6.47715 2 12C2 17.5228 6.47715 22 12 22C17.5228 22 22 17.5228 22 12C22 6.47715 17.5228 2 12 2ZM12.0251 14.0082C10.2024 14.0082 8.78386 12.6429 8.78343 10.7163C8.78343 8.7895 10.2024 7.42562 12.0251 7.42562C13.8482 7.42562 15.2148 8.78973 15.2148 10.7163C15.2148 12.6427 13.848 14.0082 12.0251 14.0082Z" fill="black"/>
</svg>
