<svg width="24" height="24" viewBox="0 0 24 24" fill="none" xmlns="http://www.w3.org/2000/svg">
<path d="M16.2219 6.33657C16.2219 3.94155 14.2935 2 11.9148 2C9.53598 2 7.6076 3.94155 7.6076 6.33657C7.6076 6.40887 7.60936 6.48075 7.61284 6.55218L11.7299 10.6692C11.7912 10.6718 11.8528 10.6731 11.9148 10.6731C14.2935 10.6731 16.2219 8.7316 16.2219 6.33657ZM16.4006 19.4612L18.4697 21.5303C18.7626 21.8232 19.2374 21.8232 19.5303 21.5303C19.8232 21.2374 19.8232 20.7626 19.5303 20.4697L4.53033 5.46967C4.23744 5.17678 3.76256 5.17678 3.46967 5.46967C3.17678 5.76256 3.17678 6.23744 3.46967 6.53033L9.37879 12.4395H9.11078L8.87373 12.4443C6.07923 12.5581 3.80019 14.6762 3.32718 17.4254C3.31356 17.5045 3.30464 17.637 3.3004 17.8227L3.29999 17.8591C3.29999 18.744 4.02013 19.4612 4.90846 19.4612H16.4006ZM13.5001 12.4395L20.055 18.9943C20.3556 18.6961 20.538 18.2806 20.5282 17.8248C20.5239 17.6282 20.5146 17.4885 20.5 17.4054C20.0059 14.5887 17.6149 12.4395 14.7199 12.4395H13.5001Z" fill="black"/>
</svg>
