<svg width="24" height="24" viewBox="0 0 24 24" fill="none" xmlns="http://www.w3.org/2000/svg">
<path d="M10.6145 11.6731C12.9933 11.6731 14.9217 9.7316 14.9217 7.33657C14.9217 4.94155 12.9933 3 10.6145 3C8.23575 3 6.30737 4.94155 6.30737 7.33657C6.30737 9.7316 8.23575 11.6731 10.6145 11.6731ZM19.1058 17.9637C18.9072 17.9877 18.705 18 18.5 18C15.8869 18 13.7421 15.9955 13.5191 13.4403C13.4861 13.4397 13.453 13.4395 13.4199 13.4395H7.8108L7.57374 13.4443C4.77924 13.5581 2.5002 15.6762 2.02719 18.4254C2.01357 18.5045 2.00465 18.637 2.00041 18.8227L2 18.8591C2 19.744 2.72014 20.4612 3.60847 20.4612H10.6143H17.6201C17.6316 20.4612 17.643 20.4611 17.6545 20.4609C18.5426 20.4419 19.2471 19.7094 19.2282 18.8248C19.2239 18.6282 19.2146 18.4885 19.2 18.4054C19.1739 18.2562 19.1424 18.1089 19.1058 17.9637ZM19.1474 10.2524C19.1474 9.89188 18.8551 9.59961 18.4946 9.59961C18.1341 9.59961 17.8418 9.89188 17.8418 10.2524V10.6975C17.4612 10.7952 17.1196 10.99 16.845 11.2538L16.4805 11.0424C16.1686 10.8614 15.7692 10.9676 15.5883 11.2794C15.4073 11.5913 15.5135 11.9908 15.8253 12.1717L16.2056 12.3923C16.1714 12.5483 16.1533 12.7104 16.1533 12.8766C16.1533 13.0955 16.1846 13.3071 16.2429 13.5072L15.8253 13.7494C15.5135 13.9303 15.4073 14.3298 15.5883 14.6417C15.7692 14.9535 16.1686 15.0597 16.4805 14.8787L16.9585 14.6014C17.2116 14.8136 17.512 14.9711 17.8418 15.0558V15.667C17.8418 16.0275 18.1341 16.3198 18.4946 16.3198C18.8551 16.3198 19.1474 16.0275 19.1474 15.667V15.0005C19.435 14.8999 19.6958 14.7425 19.9165 14.5419L20.5121 14.8813C20.8254 15.0598 21.224 14.9505 21.4025 14.6373C21.581 14.324 21.4718 13.9254 21.1585 13.7469L20.5865 13.421C20.6298 13.2467 20.6527 13.0644 20.6527 12.8766C20.6527 12.7417 20.6408 12.6095 20.6181 12.4812L21.1585 12.1732C21.4718 11.9947 21.581 11.5961 21.4025 11.2828C21.224 10.9696 20.8254 10.8604 20.5121 11.0389L20.0247 11.3166C19.7831 11.0654 19.4835 10.8704 19.1474 10.7528V10.2524ZM19.3471 12.8766C19.3471 13.3991 18.9255 13.8207 18.403 13.8207C17.8813 13.8207 17.4589 13.3978 17.4589 12.8766C17.4589 12.3555 17.8813 11.9326 18.403 11.9326C18.9255 11.9326 19.3471 12.3542 19.3471 12.8766Z" fill="black"/>
</svg>
