<svg width="24" height="24" viewBox="0 0 24 24" fill="none" xmlns="http://www.w3.org/2000/svg">
<path d="M5.02903 4.21967C4.73613 3.92678 4.26126 3.92678 3.96837 4.21967C3.67547 4.51256 3.67547 4.98744 3.96837 5.28033L6.08983 7.4018C6.05936 8.30104 6.38755 9.21016 7.07441 9.89658C7.76072 10.5824 8.66952 10.9105 9.56864 10.8806L11.019 12.331C10.5132 12.2692 9.9949 12.2383 9.46401 12.2383C7.91588 12.2383 6.47462 12.501 5.14023 13.0266C3.85625 13.5323 3.00976 14.769 3.00312 16.149L3.00002 16.793C2.99573 17.6862 3.58288 18.4745 4.43992 18.7263C5.75945 19.1138 7.43414 19.3076 9.46401 19.3076C11.4941 19.3076 13.1689 19.1137 14.4885 18.7261C15.2122 18.5136 15.7434 17.9184 15.8886 17.2006L18.9684 20.2803C19.2613 20.5732 19.7361 20.5732 20.029 20.2803C20.3219 19.9874 20.3219 19.5126 20.029 19.2197L5.02903 4.21967ZM11.8378 5.13628C10.6712 3.97051 8.86196 3.83859 7.54997 4.74053L12.2325 9.42311C13.1364 8.11181 13.0048 6.30257 11.8378 5.13628ZM19.3101 16.5007H20.4011C21.0509 16.4901 21.6175 16.041 21.4771 15.2326C21.1593 13.4017 19.564 12.0098 17.642 12.0098H14.8192L15.0425 12.2331C15.6978 12.6192 16.2351 13.1629 16.6132 13.8038L19.3101 16.5007ZM18.4739 8.54517C19.3508 7.66826 19.3508 6.24651 18.4739 5.3696C17.597 4.49269 16.1752 4.49269 15.2983 5.3696C14.4214 6.24651 14.4214 7.66825 15.2983 8.54517C16.1752 9.42208 17.597 9.42208 18.4739 8.54517Z" fill="black"/>
</svg>
