<svg width="24" height="24" viewBox="0 0 24 24" fill="none" xmlns="http://www.w3.org/2000/svg">
<path d="M15.9217 7.33657C15.9217 4.94155 13.9933 3 11.6145 3C9.23575 3 7.30737 4.94155 7.30737 7.33657C7.30737 9.7316 9.23575 11.6731 11.6145 11.6731C13.9933 11.6731 15.9217 9.7316 15.9217 7.33657ZM20.2 18.4054C19.7059 15.5887 17.3149 13.4395 14.4199 13.4395H8.8108L8.57374 13.4443C5.77924 13.5581 3.5002 15.6762 3.02719 18.4254C3.01357 18.5045 3.00465 18.637 3.00041 18.8227L3 18.8591C3 19.744 3.72014 20.4612 4.60847 20.4612H11.6143H18.6201C18.6316 20.4612 18.643 20.4611 18.6545 20.4609C19.5426 20.4419 20.2471 19.7094 20.2282 18.8248C20.2239 18.6282 20.2146 18.4885 20.2 18.4054Z" fill="black"/>
</svg>
