<svg width="24" height="24" viewBox="0 0 24 24" fill="none" xmlns="http://www.w3.org/2000/svg">
<path d="M11.8378 9.74619C13.1531 8.43166 13.1531 6.3004 11.8378 4.98589C10.5224 3.67137 8.38977 3.67137 7.07441 4.98589C5.75905 6.30041 5.75905 8.43167 7.07441 9.74619C8.38978 11.0607 10.5224 11.0607 11.8378 9.74619ZM15.9254 15.9986C15.9191 14.6189 15.0729 13.3822 13.7892 12.8766C12.4542 12.3508 11.0125 12.0879 9.46401 12.0879C7.91588 12.0879 6.47462 12.3507 5.14023 12.8762C3.85625 13.3819 3.00976 14.6186 3.00312 15.9986L3.00002 16.6426C2.99573 17.5358 3.58288 18.3242 4.43992 18.5759C5.75945 18.9634 7.43414 19.1572 9.46401 19.1572C11.4941 19.1572 13.1689 18.9634 14.4885 18.5757C15.3453 18.3241 15.9324 17.536 15.9283 16.643L15.9254 15.9986ZM17.2316 16.3503H20.4011C21.0509 16.3397 21.6175 15.8906 21.4771 15.0822C21.1593 13.2513 19.564 11.8594 17.642 11.8594H14.6113C16.1922 12.5715 17.2216 14.1445 17.2295 15.8914L17.2316 16.3503ZM18.4739 8.39477C19.3508 7.51786 19.3508 6.09612 18.4739 5.21921C17.597 4.3423 16.1752 4.3423 15.2983 5.21921C14.4214 6.09612 14.4214 7.51786 15.2983 8.39477C16.1752 9.27168 17.597 9.27168 18.4739 8.39477Z" fill="black"/>
</svg>
