<svg width="24" height="24" viewBox="0 0 24 24" fill="none" xmlns="http://www.w3.org/2000/svg">
<path d="M12.2204 11.2763C14.4904 11.2763 16.3305 9.42359 16.3305 7.13815C16.3305 4.85271 14.4904 3 12.2204 3C9.9505 3 8.11035 4.85271 8.11035 7.13815C8.11035 9.42359 9.9505 11.2763 12.2204 11.2763ZM11.5 14.9315C11.5 14.0289 11.8516 13.2084 12.4254 12.5996H8.8108L8.57374 12.6044C5.77924 12.7183 3.5002 14.8364 3.02719 17.5856C3.01357 17.6646 3.00465 17.7971 3.00041 17.9829L3 18.0193C3 18.9041 3.72014 19.6214 4.60847 19.6214H11.6143H11.8588C11.6292 19.1635 11.5 18.6465 11.5 18.0993V14.9315ZM14.7152 13.0397C14.7123 13.04 14.7093 13.0403 14.7064 13.0406C13.7479 13.1379 13 13.9474 13 14.9315V18.0993C13 18.722 13.2994 19.2747 13.7621 19.6214C14.0794 19.8592 14.4736 20.0001 14.9007 20.0001H19.9693C21.019 20.0001 21.87 19.1491 21.87 18.0993V14.9315C21.87 13.96 21.1413 13.1588 20.2006 13.0447C20.2017 13.028 20.2023 13.0112 20.2023 12.9942C20.2023 11.4786 18.9737 10.25 17.4581 10.25C15.9425 10.25 14.7139 11.4786 14.7139 12.9942C14.7139 13.0095 14.7143 13.0247 14.7152 13.0397ZM18.7023 12.9942C18.7023 13.0065 18.7026 13.0187 18.7032 13.0308H16.213C16.2136 13.0187 16.2139 13.0065 16.2139 12.9942C16.2139 12.3071 16.7709 11.75 17.4581 11.75C18.1452 11.75 18.7023 12.3071 18.7023 12.9942ZM17.4351 15.5C17.7753 15.5 18.051 15.7758 18.051 16.116V16.884C18.051 17.2242 17.7753 17.5 17.4351 17.5C17.0949 17.5 16.8191 17.2242 16.8191 16.884V16.116C16.8191 15.7758 17.0949 15.5 17.4351 15.5Z" fill="black"/>
</svg>
