<svg width="24" height="24" viewBox="0 0 24 24" fill="none" xmlns="http://www.w3.org/2000/svg">
<path d="M4.53033 4.21967L20.0303 19.7197C20.3232 20.0126 20.3232 20.4874 20.0303 20.7803C19.7374 21.0732 19.2626 21.0732 18.9697 20.7803L16.6156 18.4262C16.5481 18.4535 16.4788 18.4776 16.4078 18.4985C15.2309 18.8442 13.767 19.0092 12.0318 19.0092C10.2968 19.0092 8.83295 18.8442 7.65611 18.4986C6.69923 18.2175 6.04369 17.3374 6.04849 16.3401L6.05109 15.7992C6.05775 14.4134 6.90786 13.1714 8.1973 12.6635C8.86574 12.4003 9.56242 12.2118 10.2864 12.0971L7.75004 9.5607C7.69599 10.0396 7.48545 10.5041 7.11843 10.8714C6.25739 11.733 4.86122 11.733 4.00019 10.8714C3.13937 10.01 3.13937 8.61349 4.00019 7.75206C4.36702 7.38497 4.83098 7.17428 5.30931 7.11997L3.46967 5.28033C3.17678 4.98744 3.17678 4.51256 3.46967 4.21967C3.76256 3.92678 4.23744 3.92678 4.53033 4.21967ZM9.75206 5.64299C11.0114 4.38447 13.053 4.38447 14.3123 5.64298C15.5719 6.9017 15.5719 8.94263 14.3124 10.2014C13.9926 10.5209 13.6223 10.7594 13.2273 10.9166L9.03679 6.72613C9.19419 6.33178 9.43262 5.96222 9.75206 5.64299ZM15.8675 12.6639C17.126 13.1595 17.9658 14.3548 18.011 15.7004L14.5641 12.2534C15.0097 12.3604 15.4442 12.4972 15.8675 12.6639ZM16.6997 7.75206C17.5608 6.89042 18.9569 6.89042 19.818 7.75206C20.6788 8.61349 20.6788 10.01 19.818 10.8714C18.9569 11.733 17.5608 11.733 16.6997 10.8714C15.8389 10.01 15.8389 8.61349 16.6997 7.75206ZM16.898 12.3894H18.9358C20.5104 12.3894 21.8084 13.5704 21.9935 15.0953C22.0596 15.6396 21.6093 16.0243 21.1533 16.0243H18.7783C18.9884 14.6372 18.1749 13.1597 16.898 12.3894ZM5.22167 16.0243H2.84669C2.39067 16.0243 1.9404 15.6396 2.00648 15.0953C2.19161 13.5704 3.48956 12.3894 5.06419 12.3894H7.10204C5.82514 13.1597 5.01157 14.6372 5.22167 16.0243Z" fill="black"/>
</svg>
