<svg width="24" height="24" viewBox="0 0 24 24" fill="none" xmlns="http://www.w3.org/2000/svg">
<path d="M5.02903 4.21967C4.73613 3.92678 4.26126 3.92678 3.96837 4.21967C3.67547 4.51256 3.67547 4.98744 3.96837 5.28033L4.95493 6.2669C4.71927 7.1775 4.95805 8.1855 5.67127 8.89872C6.38449 9.61194 7.39249 9.85072 8.30309 9.61505L11.4528 12.7648C11.2015 12.8434 10.9537 12.9308 10.7095 13.027C9.42577 13.5326 8.57957 14.7692 8.57329 16.149L8.57036 16.7934C8.56629 17.6864 9.15336 18.4745 10.0102 18.7261C11.3298 19.1137 13.0046 19.3076 15.0347 19.3076C16.0631 19.3076 17.0003 19.2578 17.8464 19.1583L18.9684 20.2803C19.2613 20.5732 19.7361 20.5732 20.029 20.2803C20.3219 19.9874 20.3219 19.5126 20.029 19.2197L5.02903 4.21967ZM9.55394 5.01604C8.88023 4.34233 7.94349 4.09195 7.07427 4.26491L10.3051 7.49572C10.478 6.6265 10.2277 5.68976 9.55394 5.01604ZM13.0114 10.202C14.3313 11.2017 16.2202 11.0999 17.4243 9.89658C18.7396 8.58206 18.7396 6.4508 17.4243 5.13628C16.1089 3.82176 13.9763 3.82176 12.6609 5.13628C11.4574 6.33905 11.3551 8.22559 12.354 9.54463L13.0114 10.202ZM20.9693 18.16C21.3036 17.7964 21.5012 17.3124 21.4987 16.793L21.4956 16.149C21.4889 14.769 20.6424 13.5323 19.3585 13.0266C18.0278 12.5025 16.5909 12.2397 15.0476 12.2383L20.9693 18.16ZM7.26916 16.0418C7.27712 14.2948 8.30652 12.7219 9.88737 12.0098L6.85667 12.0098C4.93468 12.0098 3.33945 13.4017 3.02155 15.2326C2.88119 16.041 3.4478 16.4901 4.09763 16.5007H7.26707L7.26916 16.0418Z" fill="black"/>
</svg>
