<svg width="24" height="24" viewBox="0 0 24 24" fill="none" xmlns="http://www.w3.org/2000/svg">
<path d="M6 5C4.34315 5 3 6.34315 3 8V17C3 18.6569 4.34315 20 6 20H18C19.6569 20 21 18.6569 21 17V8C21 6.34315 19.6569 5 18 5H6ZM13.25 11C13.25 10.5858 13.5858 10.25 14 10.25H17.5C17.9142 10.25 18.25 10.5858 18.25 11C18.25 11.4142 17.9142 11.75 17.5 11.75H14C13.5858 11.75 13.25 11.4142 13.25 11ZM14 13.25H17.5C17.9142 13.25 18.25 13.5858 18.25 14C18.25 14.4142 17.9142 14.75 17.5 14.75H14C13.5858 14.75 13.25 14.4142 13.25 14C13.25 13.5858 13.5858 13.25 14 13.25ZM10.272 9.4276C10.975 10.1305 10.975 11.2702 10.272 11.9732C9.56907 12.6761 8.42937 12.6761 7.72643 11.9732C7.02348 11.2702 7.02348 10.1305 7.72643 9.4276C8.42937 8.72465 9.56907 8.72465 10.272 9.4276ZM7.14961 15.2273C7.14961 15.5863 6.85859 15.8773 6.49961 15.8773C6.14062 15.8773 5.84961 15.5863 5.84961 15.2273C5.84961 14.8072 5.95731 14.4307 6.19119 14.1238C6.42114 13.822 6.72888 13.6455 7.02734 13.5404C7.56941 13.3494 8.22689 13.3497 8.69897 13.35H8.69898L8.74961 13.35L8.80023 13.35H8.80025C9.27232 13.3497 9.92981 13.3494 10.4719 13.5404C10.7703 13.6455 11.0781 13.822 11.308 14.1238C11.5419 14.4307 11.6496 14.8072 11.6496 15.2273C11.6496 15.5863 11.3586 15.8773 10.9996 15.8773C10.6406 15.8773 10.3496 15.5863 10.3496 15.2273C10.3496 15.0337 10.3031 14.95 10.274 14.9117C10.241 14.8683 10.1768 14.8147 10.0399 14.7665C9.73078 14.6576 9.29146 14.65 8.74961 14.65C8.20776 14.65 7.76844 14.6576 7.45934 14.7665C7.3224 14.8147 7.25827 14.8683 7.22521 14.9117C7.19607 14.95 7.14961 15.0337 7.14961 15.2273Z" fill="black"/>
</svg>
