<svg width="24" height="24" viewBox="0 0 24 24" fill="none" xmlns="http://www.w3.org/2000/svg">
<path d="M18.0567 5.27815C18.3484 4.98406 18.3464 4.50919 18.0523 4.2175C17.7582 3.92581 17.2834 3.92776 16.9917 4.22185L3.2175 18.1096C2.92581 18.4037 2.92776 18.8785 3.22185 19.1702C3.51594 19.4619 3.99081 19.46 4.2825 19.1659L6.15988 17.273H14.0152C15.3142 17.273 16.3684 16.2188 16.3684 14.9198V7.86008C16.3684 7.59608 16.3249 7.34218 16.2446 7.10519L18.0567 5.27815Z" fill="black"/>
<path d="M3.42564 7.86008V14.9198C3.42564 15.2192 3.48164 15.5056 3.58373 15.769L5.28916 14.0225L13.7352 5.50685H5.77887C4.47988 5.50685 3.42564 6.5611 3.42564 7.86008Z" fill="black"/>
<path d="M19.9099 15.7326C20.6799 16.3519 21.8245 15.8041 21.8245 14.8157V7.96311C21.8245 6.97475 20.6799 6.42692 19.9099 7.04629L17.9256 8.64365V14.1352L19.9099 15.7326Z" fill="black"/>
</svg>
