<svg width="24" height="24" viewBox="0 0 24 24" fill="none" xmlns="http://www.w3.org/2000/svg">
<path d="M9.05861 14.5781C10.3863 13.0065 10.3096 10.6528 8.82842 9.17158C7.26634 7.60948 4.73368 7.60948 3.17158 9.17158C1.60948 10.7337 1.60948 13.2663 3.17158 14.8284C3.90954 15.5664 4.86412 15.9557 5.83065 15.9964C5.93289 16.0487 6.0487 16.0781 6.17139 16.0781H18.1714C18.3214 16.0781 18.4611 16.0341 18.5783 15.9582C19.4017 15.8386 20.1949 15.462 20.8284 14.8284C22.3905 13.2663 22.3905 10.7337 20.8284 9.17158C19.2663 7.60948 16.7337 7.60948 15.1716 9.17158C13.6904 10.6527 13.6137 13.0065 14.9414 14.5781H9.05861Z" fill="black"/>
</svg>
