<svg width="24" height="24" viewBox="0 0 24 24" fill="none" xmlns="http://www.w3.org/2000/svg">
<path d="M6.92859 15.5782L10.2325 18.2213C10.8873 18.7451 11.8572 18.2789 11.8572 17.4404V5.79714C11.8572 4.95581 10.8815 4.49052 10.2278 5.02007L6.92859 7.6924H3.97144C2.8832 7.6924 2 8.57561 2 9.66384V13.6067C2 14.6949 2.8832 15.5782 3.97144 15.5782H6.92859Z" fill="black"/>
<path d="M16.4023 4.30225C16.1549 4.63453 16.2238 5.10438 16.5561 5.35169C18.4853 6.78755 19.7429 9.05926 19.7429 11.635C19.7429 14.2106 18.4838 16.4825 16.5559 17.9186C16.2237 18.166 16.155 18.6359 16.4024 18.9681C16.6499 19.3003 17.1198 19.369 17.4519 19.1215C19.7342 17.4215 21.2429 14.7155 21.2429 11.635C21.2429 8.55481 19.7361 5.84866 17.4517 4.1484C17.1194 3.90109 16.6496 3.96997 16.4023 4.30225Z" fill="black"/>
<path d="M14.162 8.40284C13.9147 8.73512 13.9836 9.20497 14.3159 9.45228C15.0211 9.97713 15.4756 10.8028 15.4756 11.7356C15.4756 12.6682 15.0205 13.4941 14.3156 14.0192C13.9835 14.2666 13.9148 14.7365 14.1622 15.0687C14.4096 15.4008 14.8795 15.4695 15.2117 15.2221C16.271 14.4331 16.9756 13.1731 16.9756 11.7356C16.9756 10.2984 16.2719 9.03825 15.2115 8.24898C14.8792 8.00167 14.4093 8.07056 14.162 8.40284Z" fill="black"/>
</svg>
