<svg width="24" height="24" viewBox="0 0 24 24" fill="none" xmlns="http://www.w3.org/2000/svg">
<path d="M7.92859 15.7829L11.2325 18.426C11.8873 18.9498 12.8572 18.4837 12.8572 17.6452L12.8572 6.00189C12.8572 5.16056 11.8815 4.69527 11.2278 5.22482L7.92859 7.89715L4.97144 7.89715C3.8832 7.89715 3 8.78036 3 9.86859L3 13.8115C3 14.8997 3.8832 15.7829 4.97144 15.7829L7.92859 15.7829Z" fill="black"/>
<path d="M15.6507 14.295C15.968 14.5612 16.4411 14.5198 16.7073 14.2025L19.9213 10.3723C20.1875 10.055 20.1461 9.58191 19.8288 9.31566C19.5115 9.04941 19.0385 9.0908 18.7722 9.40811L15.5583 13.2383C15.292 13.5556 15.3334 14.0287 15.6507 14.295Z" fill="black"/>
<path d="M20.2308 13.8939C20.497 13.5766 20.4556 13.1035 20.1383 12.8373L16.3082 9.62329C15.9909 9.35703 15.5178 9.39842 15.2516 9.71573C14.9853 10.033 15.0267 10.5061 15.344 10.7724L19.1742 13.9864C19.4915 14.2526 19.9645 14.2112 20.2308 13.8939Z" fill="black"/>
</svg>
