<svg width="24" height="24" viewBox="0 0 24 24" fill="none" xmlns="http://www.w3.org/2000/svg">
<path d="M5.25 4.5H17.75C18.1642 4.5 18.5 4.16421 18.5 3.75C18.5 3.33579 18.1642 3 17.75 3H5.25C4.00779 3 3 4.00779 3 5.25C3 5.41378 3.01752 5.57348 3.05078 5.72733V18.1579C3.05078 19.8147 4.39393 21.1579 6.05078 21.1579H18.9981C20.655 21.1579 21.9981 19.8147 21.9981 18.1579V9C21.9981 7.34315 20.655 6 18.9981 6H12.5245H11.75H7.78762H5.4192H5.33222C5.27701 6 5.22194 5.99848 5.16707 5.99545C4.79221 5.9541 4.5 5.63576 4.5 5.25C4.5 4.83621 4.83621 4.5 5.25 4.5ZM17.5508 14.45C16.9985 14.45 16.5508 14.0022 16.5508 13.45C16.5508 12.8977 16.9985 12.45 17.5508 12.45C18.1031 12.45 18.5508 12.8977 18.5508 13.45C18.5508 14.0022 18.1031 14.45 17.5508 14.45Z" fill="black"/>
</svg>
