<svg width="24" height="24" viewBox="0 0 24 24" fill="none" xmlns="http://www.w3.org/2000/svg">
<path d="M7.15675 2.5873L6.26786 6.5873L6.26671 6.59258C4.87332 7.87204 4 9.70893 4 11.75C4 13.7911 4.87332 15.628 6.26671 16.9074C6.26709 16.9092 6.26747 16.9109 6.26786 16.9127L7.15675 20.9127C7.233 21.2559 7.53736 21.5 7.88889 21.5H14.1111C14.4626 21.5 14.767 21.2559 14.8433 20.9127L15.7321 16.9127C15.7325 16.9109 15.7329 16.9092 15.7333 16.9074C16.9538 15.7867 17.7752 14.2384 17.9603 12.4998H18.3421C18.7563 12.4998 19.0921 12.164 19.0921 11.7498C19.0921 11.3355 18.7563 10.9998 18.3421 10.9998H17.9603C17.7751 9.26132 16.9537 7.71316 15.7333 6.59258L15.7321 6.5873L14.8433 2.5873C14.767 2.24415 14.4626 2 14.1111 2H7.88889C7.53736 2 7.233 2.24415 7.15675 2.5873ZM8.0704 18.1095C8.96161 18.5206 9.95399 18.75 11 18.75C12.046 18.75 13.0384 18.5206 13.9296 18.1095L13.5095 20H8.49052L8.0704 18.1095ZM13.5095 3.5L13.9296 5.39055C13.0384 4.97936 12.046 4.75 11 4.75C9.95399 4.75 8.96161 4.97936 8.0704 5.39055L8.49052 3.5H13.5095ZM11 7.9999C11.359 7.9999 11.65 8.29092 11.65 8.6499V11.0999H13.8421C14.2011 11.0999 14.4921 11.3909 14.4921 11.7499C14.4921 12.1089 14.2011 12.3999 13.8421 12.3999H11C10.641 12.3999 10.35 12.1089 10.35 11.7499V8.6499C10.35 8.29092 10.641 7.9999 11 7.9999Z" fill="black"/>
</svg>
