<svg width="24" height="24" viewBox="0 0 24 24" fill="none" xmlns="http://www.w3.org/2000/svg">
<path d="M6.79883 5C6.79883 5.42918 6.93397 5.82676 7.16403 6.15252L7.83855 8.34469C7.83746 8.34494 7.83637 8.34519 7.83528 8.34544L9.12508 12.5468C9.28622 13.0716 9.77099 13.4299 10.32 13.4299H15.2705C15.3295 13.4299 15.3874 13.4368 15.4433 13.4501H15.9045L17.8494 17.8261C17.9974 18.159 18.3632 18.3374 18.7166 18.2491L20.8595 17.7134C21.2613 17.6129 21.5057 17.2057 21.4052 16.8039C21.3047 16.402 20.8975 16.1577 20.4957 16.2582L18.9642 16.641L17.0773 12.3955C16.9569 12.1246 16.6883 11.9501 16.3919 11.9501H10.5173L9.9898 10.2357H14.9797C15.3939 10.2357 15.7297 9.89993 15.7297 9.48572C15.7297 9.0715 15.3939 8.73572 14.9797 8.73572H9.52826L8.99138 6.99085C10.0057 6.89398 10.7988 6.03971 10.7988 5C10.7988 3.89533 9.90349 3 8.79883 3C7.69416 3 6.79883 3.89533 6.79883 5ZM6.38723 8.73971C5.74527 8.97459 5.06009 9.36448 5.06009 9.36448C4.67931 9.59712 4.3248 9.86853 4.00206 10.1732C2.76929 11.3371 2 12.9867 2 14.8161C2 18.3421 4.85786 21.2 8.38391 21.2C11.4054 21.2 13.9363 19.1014 14.5987 16.2822C14.5987 16.2822 14.7355 15.5386 14.7853 14.9334L14.7837 14.9299H10.32C9.11213 14.9299 8.04563 14.1417 7.69114 12.987L6.38723 8.73971Z" fill="black"/>
</svg>
