<svg width="24" height="24" viewBox="0 0 24 24" fill="none" xmlns="http://www.w3.org/2000/svg">
<path d="M3.86849 3.02394C3.54578 2.95215 3.19439 3.04181 2.9433 3.29289C2.55277 3.68342 2.55277 4.31658 2.9433 4.70711L4.93128 6.69509C4.01912 7.18779 3.14962 7.78789 2.34136 8.4954C1.9258 8.85917 1.8838 9.49094 2.24757 9.9065C2.61133 10.3221 3.2431 10.3641 3.65867 10.0003C4.50927 9.25572 5.43904 8.64973 6.41851 8.18232L7.96953 9.73334C7.03108 10.1232 6.14192 10.6685 5.34136 11.3693C4.9258 11.7331 4.8838 12.3648 5.24757 12.7804C5.61133 13.196 6.2431 13.238 6.65867 12.8742C7.515 12.1246 8.49987 11.5999 9.53616 11.3L11.2644 13.0282C10.2636 13.1259 9.28244 13.4778 8.42353 14.0837C7.97225 14.4021 7.86452 15.0261 8.18291 15.4773C8.50129 15.9286 9.12522 16.0363 9.5765 15.718C10.8016 14.8536 12.404 14.7697 13.7023 15.4662L18.9433 20.7071C19.3338 21.0976 19.967 21.0976 20.3575 20.7071C20.7213 20.3433 20.7462 19.7691 20.4323 19.3764C20.2531 19.3366 20.0827 19.2469 19.9433 19.1075L3.94328 3.1075C3.91652 3.08073 3.89159 3.05283 3.86849 3.02394ZM16.0968 12.4325C16.2868 12.5699 16.4719 12.7171 16.6514 12.8742C17.0669 13.238 17.6987 13.196 18.0625 12.7804C18.4262 12.3648 18.3842 11.7331 17.9687 11.3693C16.4498 10.0397 14.6119 9.26972 12.7235 9.05933L16.0968 12.4325ZM10.7015 7.03732C13.8685 6.78937 17.1142 7.77703 19.6541 10.0003C20.0697 10.3641 20.7014 10.3221 21.0652 9.9065C21.429 9.49094 21.387 8.85917 20.9714 8.4954C17.5778 5.52484 13.1046 4.44768 8.92811 5.2639L10.7015 7.03732ZM11.75 19.5C12.4404 19.5 13 18.9404 13 18.25C13 17.5596 12.4404 17 11.75 17C11.0597 17 10.5 17.5596 10.5 18.25C10.5 18.9404 11.0597 19.5 11.75 19.5Z" fill="black"/>
</svg>
