<svg width="24" height="24" viewBox="0 0 24 24" fill="none" xmlns="http://www.w3.org/2000/svg">
<path d="M19.6541 10.0003C20.0697 10.3641 20.7014 10.3221 21.0652 9.9065C21.429 9.49094 21.387 8.85917 20.9714 8.4954C15.6472 3.83487 7.66555 3.83487 2.34136 8.4954C1.9258 8.85917 1.8838 9.49094 2.24757 9.9065C2.61133 10.3221 3.2431 10.3641 3.65867 10.0003C8.22871 5.9999 15.084 5.9999 19.6541 10.0003Z" fill="black"/>
<path d="M16.6514 12.8742C17.0669 13.238 17.6987 13.196 18.0625 12.7804C18.4262 12.3648 18.3842 11.7331 17.9687 11.3693C14.3598 8.21023 8.95027 8.21023 5.34136 11.3693C4.9258 11.7331 4.8838 12.3648 5.24757 12.7804C5.61133 13.196 6.2431 13.238 6.65867 12.8742C9.51343 10.3753 13.7966 10.3753 16.6514 12.8742Z" fill="black"/>
<path d="M14.1099 15.718C14.5612 16.0363 15.1851 15.9286 15.5035 15.4773C15.8219 15.0261 15.7141 14.4021 15.2629 14.0837C13.2147 12.6388 10.4717 12.6388 8.42353 14.0837C7.97225 14.4021 7.86452 15.0261 8.18291 15.4773C8.50129 15.9286 9.12522 16.0363 9.5765 15.718C10.9334 14.7607 12.753 14.7607 14.1099 15.718Z" fill="black"/>
<path d="M11.75 19.5C12.4404 19.5 13 18.9404 13 18.25C13 17.5596 12.4404 17 11.75 17C11.0597 17 10.5 17.5596 10.5 18.25C10.5 18.9404 11.0597 19.5 11.75 19.5Z" fill="black"/>
</svg>
