<svg width="24" height="24" viewBox="0 0 24 24" fill="none" xmlns="http://www.w3.org/2000/svg">
<path d="M18.5103 9.2587C18.9044 9.47999 19.0762 9.91336 18.9678 10.3078C18.8579 10.7078 18.4735 11.0146 18.0019 11.0157H4C3.44772 11.0157 3 11.4634 3 12.0157C3 12.568 3.44772 13.0157 4 13.0157L18.0047 13.0157C19.3421 13.0134 20.5393 12.137 20.8963 10.8377C21.2549 9.53273 20.6624 8.1735 19.4897 7.5149C18.3243 6.86038 16.8518 7.04383 15.8905 7.97601C15.494 8.3605 15.4843 8.99359 15.8688 9.39006C16.2533 9.78653 16.8864 9.79625 17.2828 9.41177C17.6026 9.1017 18.1091 9.03333 18.5103 9.2587ZM13.6003 14.1275H4C3.44772 14.1275 3 14.5752 3 15.1275C3 15.6798 3.44772 16.1275 4 16.1275H13.602L13.6061 16.1275C13.898 16.1263 14.1262 16.3146 14.1903 16.5454C14.2527 16.7704 14.1573 17.0254 13.9192 17.1589C13.4374 17.429 13.2658 18.0385 13.5358 18.5202C13.8059 19.002 14.4154 19.1736 14.8971 18.9035C15.9164 18.3321 16.4331 17.1479 16.1174 16.0104C15.8034 14.8796 14.759 14.1238 13.6003 14.1275Z" fill="black"/>
<path d="M12.4966 5.12788C12.0148 4.85783 11.4054 5.02944 11.1353 5.5112C10.8653 5.99295 11.0369 6.60242 11.5186 6.87247C11.7568 7.00597 11.8522 7.26099 11.7897 7.48599C11.7257 7.71678 11.4975 7.90513 11.2056 7.90395H4C3.44772 7.90395 3 8.35166 3 8.90395C3 9.45623 3.44772 9.90395 4 9.90395H11.1997C12.3584 9.90768 13.4029 9.15187 13.7169 8.02097C14.0326 6.88355 13.5159 5.69927 12.4966 5.12788Z" fill="black"/>
</svg>
