<svg width="24" height="24" viewBox="0 0 24 24" fill="none" xmlns="http://www.w3.org/2000/svg">
<path d="M15.5256 3.00001C14.2452 3.09147 13.077 3.7079 12.2459 4.63877C11.4297 5.5529 10.9408 6.76687 10.9821 8.069C10.983 8.42156 11.0212 8.73748 11.0959 9.03984L4.10692 15.228C3.41064 15.871 3.03907 16.7392 3.00293 17.6066C2.96626 18.4867 3.27343 19.3638 3.92616 20.0165C4.6242 20.7146 5.52265 21.0335 6.39379 20.9972C7.27179 20.9606 8.12629 20.564 8.73218 19.816L14.9208 12.8265C15.5482 12.9563 16.1872 12.9497 16.9566 12.8691C17.8623 12.688 18.6779 12.259 19.3354 11.6485C19.9903 11.0403 20.4883 10.2516 20.7644 9.33052C21.1535 7.9037 20.8099 6.47493 20.2246 5.31656L17.6493 7.89183L16.0509 6.29338L18.6533 3.69097C17.6074 3.23131 16.7096 2.99806 15.5256 3.00001Z" fill="black"/>
</svg>
