<svg width="24" height="24" viewBox="0 0 24 24" fill="none" xmlns="http://www.w3.org/2000/svg">
<path d="M7.42857 1.5H16.5714C19.8457 1.5 22.5 4.15431 22.5 7.42857V16.5714C22.5 19.8457 19.8457 22.5 16.5714 22.5H7.42857C4.15431 22.5 1.5 19.8457 1.5 16.5714V7.42857C1.5 4.15431 4.15431 1.5 7.42857 1.5ZM0 7.42857V16.5714C0 20.6741 3.32588 24 7.42857 24H16.5714C20.6741 24 24 20.6741 24 16.5714V7.42857C24 3.32588 20.6741 0 16.5714 0H7.42857C3.32588 0 0 3.32588 0 7.42857ZM15 6H9C7.34315 6 6 7.34315 6 9V15C6 16.6569 7.34315 18 9 18H15C16.6569 18 18 16.6569 18 15V9C18 7.34315 16.6569 6 15 6ZM13.0586 8.90075C13.2592 8.88999 13.4427 9.01351 13.5082 9.20344L14.5583 12.2496H15.5C15.7486 12.2496 15.95 12.451 15.95 12.6996C15.95 12.9481 15.7486 13.1496 15.5 13.1496H14.4454C14.1289 13.1496 13.8473 12.9488 13.7442 12.6496L13.1704 10.9853L12.2637 14.9504C12.2185 15.1482 12.0464 15.2913 11.8437 15.2997C11.6409 15.3081 11.4576 15.1798 11.3962 14.9864L10.5541 12.3359L10.3285 12.7577C10.1995 12.9989 9.94807 13.1496 9.67447 13.1496H8.50005C8.25152 13.1496 8.05005 12.9481 8.05005 12.6996C8.05005 12.451 8.25152 12.2496 8.50005 12.2496H9.5796L10.2633 10.9712C10.3486 10.8117 10.5212 10.7188 10.7013 10.7353C10.8815 10.7519 11.0342 10.8748 11.089 11.0472L11.7542 13.1411L12.644 9.25013C12.6888 9.05428 12.858 8.91151 13.0586 8.90075Z" fill="black"/>
</svg>
