<svg width="24" height="24" viewBox="0 0 24 24" fill="none" xmlns="http://www.w3.org/2000/svg">
<path d="M7.42857 1.5H16.5714C19.8457 1.5 22.5 4.15431 22.5 7.42857V16.5714C22.5 19.8457 19.8457 22.5 16.5714 22.5H7.42857C4.15431 22.5 1.5 19.8457 1.5 16.5714V7.42857C1.5 4.15431 4.15431 1.5 7.42857 1.5ZM0 7.42857V16.5714C0 20.6741 3.32588 24 7.42857 24H16.5714C20.6741 24 24 20.6741 24 16.5714V7.42857C24 3.32588 20.6741 0 16.5714 0H7.42857C3.32588 0 0 3.32588 0 7.42857ZM6.24794 6.71667L5.5657 6.03442C5.25328 5.722 4.74675 5.722 4.43433 6.03442C4.12191 6.34684 4.12191 6.85338 4.43433 7.1658L5.51291 8.24438C5.50437 8.32842 5.5 8.4137 5.5 8.5V15.5C5.5 16.8807 6.61929 18 8 18H15.2685L16.4343 19.1658C16.7467 19.4782 17.2533 19.4782 17.5657 19.1658C17.8781 18.8534 17.8781 18.3468 17.5657 18.0344L17.5623 18.031C17.5152 18.0002 17.4707 17.9639 17.4297 17.9222L6.25084 6.71382L6.24794 6.71667ZM18.4231 15.5V8.5C18.4231 7.11929 17.3038 6 15.9231 6H8C7.93472 6 7.87002 6.0025 7.806 6.00742L12.3393 10.5527L12.7151 8.89533C12.768 8.66211 12.9712 8.49187 13.2122 8.47926C13.4532 8.46666 13.6732 8.61441 13.7506 8.84082L14.8111 11.943H15.7199C16.0173 11.943 16.2584 12.1818 16.2584 12.4763C16.2584 12.7709 16.0173 13.0097 15.7199 13.0097H14.7898L18.2318 16.4607C18.355 16.165 18.4231 15.8404 18.4231 15.5ZM13.3457 10.9823L13.2386 11.4544L13.647 11.8639L13.3457 10.9823ZM9.21155 11.943L10.1653 12.8968C10.0395 12.9694 9.89449 13.0097 9.74343 13.0097H8.54041C8.24303 13.0097 8.00195 12.7709 8.00195 12.4763C8.00195 12.1818 8.24303 11.943 8.54041 11.943H9.21155ZM11.1186 13.8501L12.3389 15.0703C12.245 15.167 12.1151 15.2279 11.9726 15.2336C11.7291 15.2435 11.5093 15.0901 11.4367 14.8596L11.1186 13.8501Z" fill="black"/>
</svg>
