<svg width="24" height="24" viewBox="0 0 24 24" fill="none" xmlns="http://www.w3.org/2000/svg">
<path d="M22.5 7.42857V16.5714C22.5 19.8457 19.8457 22.5 16.5714 22.5H7.42857C4.15431 22.5 1.5 19.8457 1.5 16.5714V7.42857C1.5 4.15431 4.15431 1.5 7.42857 1.5H16.5714C19.8457 1.5 22.5 4.15431 22.5 7.42857ZM16.5714 0H7.42857C3.32588 0 0 3.32588 0 7.42857V16.5714C0 20.6741 3.32588 24 7.42857 24H16.5714C20.6741 24 24 20.6741 24 16.5714V7.42857C24 3.32588 20.6741 0 16.5714 0ZM8.22226 5.5C7.11769 5.5 6.22226 6.39543 6.22226 7.5V8.51108H5.5C5.16862 8.51108 4.9 8.77971 4.9 9.11108C4.9 9.44246 5.16862 9.71108 5.5 9.71108H6.22222L6.22226 14.2889H5.5C5.16862 14.2889 4.9 14.5575 4.9 14.8889C4.9 15.2203 5.16862 15.4889 5.5 15.4889H6.22222L6.22226 16.5C6.22226 17.6046 7.11769 18.5 8.22226 18.5H15.7778C16.8824 18.5 17.7778 17.6046 17.7778 16.5V7.5C17.7778 6.39543 16.8824 5.5 15.7778 5.5H8.22226ZM15.4031 14.435C15.4089 14.4679 15.4126 14.5233 15.4143 14.6012C15.4218 14.9519 15.1425 15.2424 14.7904 15.2499L14.7767 15.25H9.22161C8.86942 15.25 8.58391 14.9656 8.58391 14.6148L8.58407 14.6004C8.58575 14.5268 8.58929 14.4742 8.59469 14.4429C8.78222 13.3529 9.68578 12.5132 10.7937 12.468L10.8877 12.4661H13.1115C14.2593 12.4661 15.2072 13.3182 15.4031 14.435ZM11.9992 11.8275C11.0561 11.8275 10.2915 11.0578 10.2915 10.1082C10.2915 9.15868 11.0561 8.38892 11.9992 8.38892C12.9423 8.38892 13.7068 9.15868 13.7068 10.1082C13.7068 11.0578 12.9423 11.8275 11.9992 11.8275Z" fill="black"/>
</svg>
