<svg width="24" height="24" viewBox="0 0 24 24" fill="none" xmlns="http://www.w3.org/2000/svg">
<path d="M7.42857 1.5H16.5714C19.8457 1.5 22.5 4.15431 22.5 7.42857V16.5714C22.5 19.8457 19.8457 22.5 16.5714 22.5H7.42857C4.15431 22.5 1.5 19.8457 1.5 16.5714V7.42857C1.5 4.15431 4.15431 1.5 7.42857 1.5ZM0 7.42857V16.5714C0 20.6741 3.32588 24 7.42857 24H16.5714C20.6741 24 24 20.6741 24 16.5714V7.42857C24 3.32588 20.6741 0 16.5714 0H7.42857C3.32588 0 0 3.32588 0 7.42857ZM5.25 8.90002V13.5667C5.25 14.7176 6.18245 15.65 7.33333 15.65C7.74755 15.65 8.08333 15.3142 8.08333 14.9C8.08333 14.4858 7.74755 14.15 7.33333 14.15C7.01088 14.15 6.75 13.8891 6.75 13.5667V8.90002C6.75 8.20967 7.30964 7.65002 8 7.65002H16C16.6904 7.65002 17.25 8.20967 17.25 8.90002V13.5667C17.25 13.8891 16.9891 14.15 16.6667 14.15C16.2525 14.15 15.9167 14.4858 15.9167 14.9C15.9167 15.3142 16.2525 15.65 16.6667 15.65C17.8175 15.65 18.75 14.7176 18.75 13.5667V8.90002C18.75 7.38124 17.5188 6.15002 16 6.15002H8C6.48122 6.15002 5.25 7.38124 5.25 8.90002ZM12.6079 13.2754C12.2886 12.9029 11.7124 12.9029 11.3931 13.2754L9.13246 15.9128C8.68765 16.4317 9.05638 17.2334 9.73986 17.2334H14.2611C14.9446 17.2334 15.3133 16.4317 14.8685 15.9128L12.6079 13.2754Z" fill="black"/>
</svg>
