<svg width="24" height="24" viewBox="0 0 24 24" fill="none" xmlns="http://www.w3.org/2000/svg">
<path d="M7.42857 1.5H16.5714C19.8457 1.5 22.5 4.15431 22.5 7.42857V16.5714C22.5 19.8457 19.8457 22.5 16.5714 22.5H7.42857C4.15431 22.5 1.5 19.8457 1.5 16.5714V7.42857C1.5 4.15431 4.15431 1.5 7.42857 1.5ZM0 7.42857V16.5714C0 20.6741 3.32588 24 7.42857 24H16.5714C20.6741 24 24 20.6741 24 16.5714V7.42857C24 3.32588 20.6741 0 16.5714 0H7.42857C3.32588 0 0 3.32588 0 7.42857ZM8.30291 5.10433C8.03961 5.12668 7.77877 5.2183 7.54866 5.38381C7.31854 5.54932 7.1487 5.76747 7.04374 6.00997C6.8392 6.4826 6.88112 7.04778 7.20368 7.49626L9.66111 5.72879C9.33854 5.28031 8.81606 5.06076 8.30291 5.10433ZM17.6713 12.4459C17.6713 9.31136 15.1302 6.77027 11.9956 6.77027C8.86103 6.77027 6.31995 9.31136 6.31995 12.4459C6.31995 14.1779 7.0957 15.7286 8.31869 16.7697L7.31345 18.11C7.09806 18.3972 7.15626 18.8046 7.44345 19.02C7.73064 19.2354 8.13806 19.1772 8.35345 18.89L9.39996 17.4946C10.1778 17.8954 11.0603 18.1216 11.9956 18.1216C12.9309 18.1216 13.8134 17.8954 14.5913 17.4946L15.6379 18.8901C15.8533 19.1773 16.2607 19.2355 16.5479 19.0201C16.8351 18.8047 16.8933 18.3973 16.6779 18.1101L15.6726 16.7697C16.8956 15.7286 17.6713 14.1779 17.6713 12.4459ZM12 9.35C12.359 9.35 12.65 9.64102 12.65 10V11.85H14.5C14.859 11.85 15.15 12.141 15.15 12.5C15.15 12.859 14.859 13.15 14.5 13.15H12C11.641 13.15 11.35 12.859 11.35 12.5V10C11.35 9.64102 11.641 9.35 12 9.35ZM14.3301 5.72879L16.7875 7.49626C17.1101 7.04778 17.152 6.4826 16.9475 6.00997C16.8425 5.76747 16.6727 5.54932 16.4426 5.38381C16.2124 5.2183 15.9516 5.12668 15.6883 5.10433C15.1752 5.06076 14.6527 5.28031 14.3301 5.72879Z" fill="black"/>
</svg>
