<svg width="24" height="24" viewBox="0 0 24 24" fill="none" xmlns="http://www.w3.org/2000/svg">
<path d="M16.5714 22.5H7.42857C4.15431 22.5 1.5 19.8457 1.5 16.5714V7.42857C1.5 4.15431 4.15431 1.5 7.42857 1.5H16.5714C19.8457 1.5 22.5 4.15431 22.5 7.42857V16.5714C22.5 19.8457 19.8457 22.5 16.5714 22.5ZM24 16.5714V7.42857C24 3.32588 20.6741 -1.90735e-06 16.5714 -1.90735e-06H7.42857C3.32588 -1.90735e-06 0 3.32588 0 7.42857V16.5714C0 20.6741 3.32588 24 7.42857 24H16.5714C20.6741 24 24 20.6741 24 16.5714ZM6 9V15C6 16.6569 7.34315 18 9 18H15C16.6569 18 18 16.6569 18 15V9C18 7.34315 16.6569 6 15 6H9C7.34315 6 6 7.34315 6 9ZM12.0001 16.0001C9.79099 16.0001 8.00012 14.2093 8.00012 12.0001C8.00012 9.79098 9.79099 8.00012 12.0001 8.00012C14.2093 8.00012 16.0001 9.79098 16.0001 12.0001C16.0001 14.2093 14.2093 16.0001 12.0001 16.0001ZM11.9999 12.6667C12.3681 12.6667 12.6666 12.3683 12.6666 12.0001C12.6666 11.6319 12.3681 11.3334 11.9999 11.3334C11.6317 11.3334 11.3333 11.6319 11.3333 12.0001C11.3333 12.3683 11.6317 12.6667 11.9999 12.6667Z" fill="black"/>
</svg>
