<svg width="24" height="24" viewBox="0 0 24 24" fill="none" xmlns="http://www.w3.org/2000/svg">
<path d="M16.5714 22.5H7.42857C4.15431 22.5 1.5 19.8457 1.5 16.5714V7.42857C1.5 4.15431 4.15431 1.5 7.42857 1.5H16.5714C19.8457 1.5 22.5 4.15431 22.5 7.42857V16.5714C22.5 19.8457 19.8457 22.5 16.5714 22.5ZM24 16.5714V7.42857C24 3.32588 20.6741 0 16.5714 0H7.42857C3.32588 0 0 3.32588 0 7.42857V16.5714C0 20.6741 3.32588 24 7.42857 24H16.5714C20.6741 24 24 20.6741 24 16.5714ZM6.99922 11.2C6.55739 11.2 6.19922 11.5581 6.19922 12C6.19922 12.4418 6.55739 12.8 6.99922 12.8H16.9992C17.441 12.8 17.7992 12.4418 17.7992 12C17.7992 11.5581 17.441 11.2 16.9992 11.2H6.99922ZM6.19922 7.99995C6.19922 8.44178 6.55739 8.79995 6.99922 8.79995H16.9992C17.441 8.79995 17.7992 8.44178 17.7992 7.99995C17.7992 7.55813 17.441 7.19995 16.9992 7.19995H6.99922C6.55739 7.19995 6.19922 7.55813 6.19922 7.99995ZM6.99922 15.2C6.55739 15.2 6.19922 15.5581 6.19922 16C6.19922 16.4418 6.55739 16.8 6.99922 16.8H16.9992C17.441 16.8 17.7992 16.4418 17.7992 16C17.7992 15.5581 17.441 15.2 16.9992 15.2H6.99922Z" fill="black"/>
</svg>
