<svg width="24" height="24" viewBox="0 0 24 24" fill="none" xmlns="http://www.w3.org/2000/svg">
<path d="M7.42857 1.5L16.5714 1.5C19.8457 1.5 22.5 4.15431 22.5 7.42857L22.5 16.5714C22.5 19.8457 19.8457 22.5 16.5714 22.5L7.42857 22.5C4.15431 22.5 1.5 19.8457 1.5 16.5714L1.5 7.42857C1.5 4.15431 4.15431 1.5 7.42857 1.5ZM-1.90735e-06 7.42857L-1.90735e-06 16.5714C-1.90735e-06 20.6741 3.32588 24 7.42857 24L16.5714 24C20.6741 24 24 20.6741 24 16.5714L24 7.42857C24 3.32588 20.6741 -1.90735e-06 16.5714 -1.90735e-06L7.42857 -1.90735e-06C3.32588 -1.90735e-06 -1.90735e-06 3.32588 -1.90735e-06 7.42857ZM17.0008 12.8C17.4426 12.8 17.8008 12.4419 17.8008 12C17.8008 11.5582 17.4426 11.2 17.0008 11.2L12.0008 11.2C11.559 11.2 11.2008 11.5582 11.2008 12C11.2008 12.4419 11.559 12.8 12.0008 12.8L17.0008 12.8ZM17.8008 16C17.8008 15.5582 17.4426 15.2 17.0008 15.2L7.00078 15.2C6.55895 15.2 6.20078 15.5582 6.20078 16C6.20078 16.4419 6.55895 16.8 7.00078 16.8H17.0008C17.4426 16.8 17.8008 16.4419 17.8008 16ZM17.0008 8.80005C17.4426 8.80005 17.8008 8.44187 17.8008 8.00005C17.8008 7.55822 17.4426 7.20005 17.0008 7.20005L7.00078 7.20005C6.55895 7.20005 6.20078 7.55822 6.20078 8.00005C6.20078 8.44187 6.55895 8.80005 7.00078 8.80005L17.0008 8.80005Z" fill="black"/>
</svg>
