<svg width="24" height="24" viewBox="0 0 24 24" fill="none" xmlns="http://www.w3.org/2000/svg">
<path d="M7.42857 1.5H16.5714C19.8457 1.5 22.5 4.15431 22.5 7.42857V16.5714C22.5 19.8457 19.8457 22.5 16.5714 22.5H7.42857C4.15431 22.5 1.5 19.8457 1.5 16.5714V7.42857C1.5 4.15431 4.15431 1.5 7.42857 1.5ZM0 7.42857V16.5714C0 20.6741 3.32588 24 7.42857 24H16.5714C20.6741 24 24 20.6741 24 16.5714V7.42857C24 3.32588 20.6741 0 16.5714 0H7.42857C3.32588 0 0 3.32588 0 7.42857ZM15.8257 13.3282H16.5711C16.2387 15.2678 14.7182 16.7948 12.7945 17.1309V10.5487C13.6891 10.2205 14.3278 9.35777 14.3278 8.34507C14.3278 7.04992 13.2831 6 11.9945 6C10.7058 6 9.66113 7.04992 9.66113 8.34507C9.66113 9.35776 10.2998 10.2205 11.1945 10.5487V17.1309C9.27072 16.7949 7.75021 15.2678 7.41776 13.3282H8.16317C8.605 13.3282 8.96317 12.97 8.96317 12.5282C8.96317 12.0863 8.605 11.7282 8.16317 11.7282H6.55C6.10817 11.7282 5.75 12.0863 5.75 12.5282C5.75 15.9885 8.54169 18.8 11.9944 18.8C15.4472 18.8 18.2389 15.9885 18.2389 12.5282C18.2389 12.0863 17.8807 11.7282 17.4389 11.7282H15.8257C15.3839 11.7282 15.0257 12.0863 15.0257 12.5282C15.0257 12.97 15.3839 13.3282 15.8257 13.3282Z" fill="black"/>
</svg>
