<svg width="24" height="24" viewBox="0 0 24 24" fill="none" xmlns="http://www.w3.org/2000/svg">
<path d="M16.5714 1.5C19.8457 1.5 22.5 4.15431 22.5 7.42857V16.5714C22.5 19.8457 19.8457 22.5 16.5714 22.5H7.42857C4.15431 22.5 1.5 19.8457 1.5 16.5714V7.42857C1.5 4.15431 4.15431 1.5 7.42857 1.5H16.5714ZM7.42857 0C3.32588 0 0 3.32588 0 7.42857V16.5714C0 20.6741 3.32588 24 7.42857 24H16.5714C20.6741 24 24 20.6741 24 16.5714V7.42857C24 3.32588 20.6741 0 16.5714 0H7.42857Z" fill="black"/>
<path d="M7.43431 9.43431C7.12189 9.74673 7.12189 10.2533 7.43431 10.5657L11.4343 14.5657C11.7467 14.8781 12.2533 14.8781 12.5657 14.5657L16.5657 10.5657C16.8781 10.2533 16.8781 9.74673 16.5657 9.43431C16.2533 9.12189 15.7467 9.12189 15.4343 9.43431L12 12.8686L8.56569 9.43431C8.25327 9.12189 7.74673 9.12189 7.43431 9.43431Z" fill="black"/>
</svg>
