<svg width="24" height="24" viewBox="0 0 24 24" fill="none" xmlns="http://www.w3.org/2000/svg">
<path d="M1.5 7.42857C1.5 4.15431 4.15431 1.5 7.42857 1.5H16.5714C19.8457 1.5 22.5 4.15431 22.5 7.42857V16.5714C22.5 19.8457 19.8457 22.5 16.5714 22.5H7.42857C4.15431 22.5 1.5 19.8457 1.5 16.5714V7.42857ZM0 16.5714C0 20.6741 3.32588 24 7.42857 24H16.5714C20.6741 24 24 20.6741 24 16.5714V7.42857C24 3.32588 20.6741 0 16.5714 0L7.42857 0C3.32588 0 0 3.32588 0 7.42857L0 16.5714Z" fill="black"/>
<path d="M9.43431 16.5657C9.74673 16.8781 10.2533 16.8781 10.5657 16.5657L14.5657 12.5657C14.8781 12.2533 14.8781 11.7467 14.5657 11.4343L10.5657 7.43432C10.2533 7.1219 9.74673 7.1219 9.43431 7.43432C9.12189 7.74674 9.12189 8.25327 9.43431 8.56569L12.8686 12L9.43431 15.4343C9.12189 15.7467 9.12189 16.2533 9.43431 16.5657Z" fill="black"/>
</svg>
