<svg width="24" height="24" viewBox="0 0 24 24" fill="none" xmlns="http://www.w3.org/2000/svg">
<path d="M22.5 16.5714C22.5 19.8457 19.8457 22.5 16.5714 22.5H7.42857C4.15431 22.5 1.5 19.8457 1.5 16.5714V7.42857C1.5 4.15431 4.15431 1.5 7.42857 1.5H16.5714C19.8457 1.5 22.5 4.15431 22.5 7.42857V16.5714ZM24 7.42857C24 3.32588 20.6741 0 16.5714 0L7.42857 0C3.32588 0 0 3.32588 0 7.42857L0 16.5714C0 20.6741 3.32588 24 7.42857 24H16.5714C20.6741 24 24 20.6741 24 16.5714V7.42857Z" fill="black"/>
<path d="M14.5657 7.43431C14.2533 7.12189 13.7467 7.12189 13.4343 7.43431L9.43432 11.4343C9.1219 11.7467 9.1219 12.2533 9.43432 12.5657L13.4343 16.5657C13.7467 16.8781 14.2533 16.8781 14.5657 16.5657C14.8781 16.2533 14.8781 15.7467 14.5657 15.4343L11.1314 12L14.5657 8.56569C14.8781 8.25327 14.8781 7.74673 14.5657 7.43431Z" fill="black"/>
</svg>
