<svg width="24" height="24" viewBox="0 0 24 24" fill="none" xmlns="http://www.w3.org/2000/svg">
<path d="M7.42857 22.5C4.15431 22.5 1.5 19.8457 1.5 16.5714V7.42857C1.5 4.15431 4.15431 1.5 7.42857 1.5H16.5714C19.8457 1.5 22.5 4.15431 22.5 7.42857V16.5714C22.5 19.8457 19.8457 22.5 16.5714 22.5H7.42857ZM16.5714 24C20.6741 24 24 20.6741 24 16.5714V7.42857C24 3.32588 20.6741 0 16.5714 0L7.42857 0C3.32588 0 0 3.32588 0 7.42857L0 16.5714C0 20.6741 3.32588 24 7.42857 24H16.5714Z" fill="black"/>
<path d="M16.5657 14.5657C16.8781 14.2533 16.8781 13.7467 16.5657 13.4343L12.5657 9.43432C12.2533 9.1219 11.7467 9.1219 11.4343 9.43432L7.43432 13.4343C7.1219 13.7467 7.1219 14.2533 7.43432 14.5657C7.74674 14.8781 8.25327 14.8781 8.56569 14.5657L12 11.1314L15.4343 14.5657C15.7467 14.8781 16.2533 14.8781 16.5657 14.5657Z" fill="black"/>
</svg>
