<svg width="24" height="24" viewBox="0 0 24 24" fill="none" xmlns="http://www.w3.org/2000/svg">
<path d="M7.42857 22.5C4.15431 22.5 1.5 19.8457 1.5 16.5714V7.42857C1.5 4.15431 4.15431 1.5 7.42857 1.5H16.5714C19.8457 1.5 22.5 4.15431 22.5 7.42857V16.5714C22.5 19.8457 19.8457 22.5 16.5714 22.5H7.42857ZM16.5714 24C20.6741 24 24 20.6741 24 16.5714V7.42857C24 3.32589 20.6741 0 16.5714 0H7.42857C3.32589 0 0 3.32589 0 7.42857V16.5714C0 20.6741 3.32589 24 7.42857 24H16.5714ZM8.23437 11.7657C8.54678 12.0782 9.05332 12.0782 9.36574 11.7657L12.0001 9.13142L14.6344 11.7657C14.9468 12.0782 15.4533 12.0782 15.7657 11.7657C16.0782 11.4533 16.0782 10.9468 15.7657 10.6344L12.5657 7.43436C12.2533 7.12195 11.7468 7.12195 11.4344 7.43436L8.23437 10.6344C7.92195 10.9468 7.92195 11.4533 8.23437 11.7657ZM8.23437 14.8343C7.92195 15.1467 7.92195 15.6533 8.23437 15.9657C8.54678 16.2781 9.05332 16.2781 9.36574 15.9657L12.0001 13.3314L14.6344 15.9657C14.9468 16.2781 15.4533 16.2781 15.7657 15.9657C16.0782 15.6533 16.0782 15.1467 15.7657 14.8343L12.5657 11.6343C12.2533 11.3219 11.7468 11.3219 11.4344 11.6343L8.23437 14.8343Z" fill="black"/>
</svg>
