<svg width="24" height="24" viewBox="0 0 24 24" fill="none" xmlns="http://www.w3.org/2000/svg">
<path d="M7.42857 22.5C4.15431 22.5 1.5 19.8457 1.5 16.5714V7.42857C1.5 4.15431 4.15431 1.5 7.42857 1.5H16.5714C19.8457 1.5 22.5 4.15431 22.5 7.42857V16.5714C22.5 19.8457 19.8457 22.5 16.5714 22.5H7.42857ZM16.5714 24C20.6741 24 24 20.6741 24 16.5714V7.42857C24 3.32589 20.6741 0 16.5714 0L7.42857 0C3.32589 0 0 3.32589 0 7.42857L0 16.5714C0 20.6741 3.32589 24 7.42857 24H16.5714Z" fill="black"/>
<path d="M12 5.86699C11.5582 5.86699 11.2 6.22517 11.2 6.66699V17.3337C11.2 17.7755 11.5582 18.1337 12 18.1337C12.4418 18.1337 12.8 17.7755 12.8 17.3337V6.66699C12.8 6.22517 12.4418 5.86699 12 5.86699Z" fill="black"/>
<path d="M11.4343 6.10131L7.43432 10.1013C7.1219 10.4137 7.1219 10.9203 7.43432 11.2327C7.74674 11.5451 8.25327 11.5451 8.56569 11.2327L12 7.79836L15.4343 11.2327C15.7467 11.5451 16.2533 11.5451 16.5657 11.2327C16.8781 10.9203 16.8781 10.4137 16.5657 10.1013L12.5657 6.10131C12.2533 5.78889 11.7467 5.78889 11.4343 6.10131Z" fill="black"/>
</svg>
