<svg width="24" height="24" viewBox="0 0 24 24" fill="none" xmlns="http://www.w3.org/2000/svg">
<path d="M16.5714 1.5C19.8457 1.5 22.5 4.15431 22.5 7.42857V16.5714C22.5 19.8457 19.8457 22.5 16.5714 22.5H7.42857C4.15431 22.5 1.5 19.8457 1.5 16.5714V7.42857C1.5 4.15431 4.15431 1.5 7.42857 1.5H16.5714ZM7.42857 0C3.32588 0 0 3.32588 0 7.42857V16.5714C0 20.6741 3.32588 24 7.42857 24H16.5714C20.6741 24 24 20.6741 24 16.5714V7.42857C24 3.32588 20.6741 0 16.5714 0H7.42857Z" fill="black"/>
<path d="M12 18.083C12.4142 18.083 12.75 17.7472 12.75 17.333V6.66634C12.75 6.25213 12.4142 5.91634 12 5.91634C11.5858 5.91634 11.25 6.25213 11.25 6.66634V17.333C11.25 17.7472 11.5858 18.083 12 18.083Z" fill="black"/>
<path d="M12.5303 17.8633L16.5303 13.8633C16.8232 13.5704 16.8232 13.0956 16.5303 12.8027C16.2374 12.5098 15.7626 12.5098 15.4697 12.8027L12 16.2723L8.53033 12.8027C8.23744 12.5098 7.76256 12.5098 7.46967 12.8027C7.17678 13.0956 7.17678 13.5704 7.46967 13.8633L11.4697 17.8633C11.7626 18.1562 12.2374 18.1562 12.5303 17.8633Z" fill="black"/>
</svg>
