<svg width="24" height="24" viewBox="0 0 24 24" fill="none" xmlns="http://www.w3.org/2000/svg">
<path d="M22.5 16.5714C22.5 19.8457 19.8457 22.5 16.5714 22.5H7.42857C4.15431 22.5 1.5 19.8457 1.5 16.5714V7.42857C1.5 4.15431 4.15431 1.5 7.42857 1.5H16.5714C19.8457 1.5 22.5 4.15431 22.5 7.42857V16.5714ZM24 7.42857C24 3.32588 20.6741 0 16.5714 0L7.42857 0C3.32589 0 0 3.32588 0 7.42857L0 16.5714C0 20.6741 3.32589 24 7.42857 24H16.5714C20.6741 24 24 20.6741 24 16.5714V7.42857Z" fill="black"/>
<path d="M5.86602 12C5.86602 12.4418 6.22419 12.8 6.66602 12.8H17.3327C17.7745 12.8 18.1327 12.4418 18.1327 12C18.1327 11.5582 17.7745 11.2 17.3327 11.2H6.66602C6.22419 11.2 5.86602 11.5582 5.86602 12Z" fill="black"/>
<path d="M6.10033 12.5657L10.1003 16.5657C10.4128 16.8781 10.9193 16.8781 11.2317 16.5657C11.5441 16.2533 11.5441 15.7467 11.2317 15.4343L7.79739 12L11.2317 8.56568C11.5441 8.25327 11.5441 7.74673 11.2317 7.43431C10.9193 7.12189 10.4128 7.12189 10.1003 7.43431L6.10033 11.4343C5.78791 11.7467 5.78791 12.2533 6.10033 12.5657Z" fill="black"/>
</svg>
