<svg width="24" height="24" viewBox="0 0 24 24" fill="none" xmlns="http://www.w3.org/2000/svg">
<path d="M1.5 7.42857C1.5 4.15431 4.15431 1.5 7.42857 1.5H16.5714C19.8457 1.5 22.5 4.15431 22.5 7.42857V16.5714C22.5 19.8457 19.8457 22.5 16.5714 22.5H7.42857C4.15431 22.5 1.5 19.8457 1.5 16.5714V7.42857ZM0 16.5714C0 20.6741 3.32588 24 7.42857 24H16.5714C20.6741 24 24 20.6741 24 16.5714V7.42857C24 3.32588 20.6741 0 16.5714 0H7.42857C3.32588 0 0 3.32588 0 7.42857V16.5714Z" fill="black"/>
<path d="M9.05193 8.94027C8.73956 8.6278 8.23303 8.62771 7.92056 8.94008L5.43441 11.4254C5.28434 11.5754 5.20002 11.7789 5.2 11.9911C5.19998 12.2033 5.28427 12.4068 5.43431 12.5568L7.92046 15.043C8.23288 15.3554 8.73941 15.3554 9.05183 15.043C9.36425 14.7306 9.36425 14.224 9.05183 13.9116L7.13147 11.9912L9.05173 10.0716C9.3642 9.75928 9.36429 9.25275 9.05193 8.94027Z" fill="black"/>
<path d="M14.9481 15.0363C15.2604 15.3488 15.767 15.3489 16.0794 15.0365L18.5656 12.5512C18.7157 12.4012 18.8 12.1977 18.8 11.9855C18.8 11.7733 18.7157 11.5698 18.5657 11.4197L16.0795 8.93359C15.7671 8.62117 15.2606 8.62117 14.9482 8.93359C14.6358 9.24601 14.6358 9.75254 14.9482 10.065L16.8685 11.9853L14.9483 13.9049C14.6358 14.2173 14.6357 14.7238 14.9481 15.0363Z" fill="black"/>
<path d="M5.2 11.9883C5.2 12.4301 5.55817 12.7883 6 12.7883H18C18.4418 12.7883 18.8 12.4301 18.8 11.9883C18.8 11.5465 18.4418 11.1883 18 11.1883H6C5.55817 11.1883 5.2 11.5465 5.2 11.9883Z" fill="black"/>
</svg>
