<svg width="24" height="24" viewBox="0 0 24 24" fill="none" xmlns="http://www.w3.org/2000/svg">
<path d="M1.5 7.42857C1.5 4.15431 4.15431 1.5 7.42857 1.5H16.5714C19.8457 1.5 22.5 4.15431 22.5 7.42857V16.5714C22.5 19.8457 19.8457 22.5 16.5714 22.5H7.42857C4.15431 22.5 1.5 19.8457 1.5 16.5714V7.42857ZM0 16.5714C0 20.6741 3.32588 24 7.42857 24H16.5714C20.6741 24 24 20.6741 24 16.5714V7.42857C24 3.32589 20.6741 0 16.5714 0L7.42857 0C3.32588 0 0 3.32589 0 7.42857L0 16.5714Z" fill="black"/>
<path d="M18.1348 12C18.1348 11.5581 17.7766 11.2 17.3348 11.2H6.6681C6.22627 11.2 5.8681 11.5581 5.8681 12C5.8681 12.4418 6.22627 12.8 6.6681 12.8H17.3348C17.7766 12.8 18.1348 12.4418 18.1348 12Z" fill="black"/>
<path d="M17.9005 11.4343L13.9005 7.43427C13.588 7.12185 13.0815 7.12185 12.7691 7.43427C12.4567 7.74669 12.4567 8.25322 12.7691 8.56564L16.2034 12L12.7691 15.4343C12.4567 15.7467 12.4567 16.2532 12.7691 16.5656C13.0815 16.8781 13.588 16.8781 13.9005 16.5656L17.9005 12.5656C18.2129 12.2532 18.2129 11.7467 17.9005 11.4343Z" fill="black"/>
</svg>
