<svg width="24" height="24" viewBox="0 0 24 24" fill="none" xmlns="http://www.w3.org/2000/svg">
<path d="M16.5714 22.5H7.42857C4.15431 22.5 1.5 19.8457 1.5 16.5714V7.42857C1.5 4.15431 4.15431 1.5 7.42857 1.5H16.5714C19.8457 1.5 22.5 4.15431 22.5 7.42857V16.5714C22.5 19.8457 19.8457 22.5 16.5714 22.5ZM24 16.5714V7.42857C24 3.32589 20.6741 0 16.5714 0H7.42857C3.32589 0 0 3.32589 0 7.42857V16.5714C0 20.6741 3.32589 24 7.42857 24H16.5714C20.6741 24 24 20.6741 24 16.5714ZM4.5792 6.46518C4.343 6.69759 4.33994 7.07748 4.57235 7.31368L6.42862 9.20013V15.9288L6.43126 16.0257C6.48035 16.9239 7.20747 17.6367 8.09726 17.6367H14.7302L15.9937 18.9208C16.2261 19.157 16.606 19.1601 16.8422 18.9277C17.0784 18.6952 17.0815 18.3154 16.8491 18.0792L5.4277 6.47202C5.19528 6.23582 4.8154 6.23276 4.5792 6.46518ZM10.8397 13.683L13.6798 16.5693H8.09726L8.03329 16.566C7.71775 16.5332 7.47152 16.2604 7.47152 15.9288L7.4742 10.2627L8.16177 10.9615C8.14921 11.0098 8.14252 11.0605 8.14252 11.1128C8.14252 11.4442 8.41115 11.7128 8.74252 11.7128H8.90108L9.65912 12.4832H8.74252C8.41115 12.4832 8.14252 12.7518 8.14252 13.0832C8.14252 13.4146 8.41115 13.6832 8.74252 13.6832H10.8237L10.8397 13.683ZM12.0614 11.7128H12.3399C12.6712 11.7128 12.9399 11.4442 12.9399 11.1128C12.9399 10.7814 12.6712 10.5128 12.3399 10.5128H10.8614L12.0614 11.7128ZM15.3434 14.9949L17.6523 12.7244L16.418 11.49L14.1265 13.7464C14.1213 13.7518 14.1163 13.7573 14.1114 13.7628L15.3434 14.9949ZM16.3334 15.9849L17.147 16.7984C17.2944 16.5437 17.3791 16.2464 17.3791 15.9288V14.0328L16.3362 15.1803V15.9288L16.3334 15.9849ZM9.44647 9.09791L15.2917 9.10009L15.2933 9.10009C15.8693 9.10119 16.3353 9.56901 16.3342 10.145L16.3336 10.4828L16.7494 10.0276C16.9086 9.85318 17.1418 9.76562 17.3765 9.79206L17.3791 8.13647L17.3765 8.03955C17.3274 7.14139 16.6003 6.42855 15.7105 6.42855H8.09726L8.00257 6.43126C7.66908 6.45035 7.36175 6.56968 7.10885 6.76029L9.44647 9.09791ZM18.0519 12.3314L18.4319 11.9578C18.6272 11.7658 18.6316 11.4524 18.4419 11.2549L17.9248 10.7167C17.7318 10.5158 17.4119 10.5113 17.2134 10.7068L16.8173 11.0968L18.0519 12.3314Z" fill="black"/>
</svg>
