<svg width="24" height="24" viewBox="0 0 24 24" fill="none" xmlns="http://www.w3.org/2000/svg">
<path d="M7.42857 22.5C4.15431 22.5 1.5 19.8457 1.5 16.5714V7.42857C1.5 4.15431 4.15431 1.5 7.42857 1.5H16.5714C19.8457 1.5 22.5 4.15431 22.5 7.42857V16.5714C22.5 19.8457 19.8457 22.5 16.5714 22.5H7.42857ZM16.5714 24C20.6741 24 24 20.6741 24 16.5714V7.42857C24 3.32589 20.6741 0 16.5714 0H7.42857C3.32589 0 0 3.32589 0 7.42857V16.5714C0 20.6741 3.32589 24 7.42857 24H16.5714Z" fill="black"/>
<path d="M15.7648 5.5H6.93524L6.82542 5.50314C5.80771 5.56141 5 6.42455 5 7.48078V16.5181L5.00307 16.6305C5.06 17.6721 5.90329 18.4988 6.93524 18.4988H15.7648L15.8746 18.4957C16.8923 18.4374 17.7 17.5743 17.7 16.5181V14.3191L16.4905 15.6499V16.5181L16.4867 16.594C16.4496 16.9686 16.1405 17.2609 15.7648 17.2609H6.93524L6.86104 17.257C6.49509 17.219 6.20953 16.9027 6.20953 16.5181L6.2127 9.80449C6.21314 9.13654 6.75484 8.59529 7.4228 8.59542L15.2809 8.59835C15.9489 8.59963 16.4894 9.14218 16.4882 9.81018L16.4874 10.2019L16.9696 9.67399C17.1544 9.47176 17.4248 9.37021 17.6969 9.40087L17.7 7.48078L17.6969 7.36838C17.64 6.32672 16.7967 5.5 15.7648 5.5Z" fill="black"/>
<path d="M18.4803 12.3459L18.6249 12.2037C19.0155 11.8197 19.0244 11.1929 18.6449 10.7979L18.6276 10.7799C18.2416 10.3781 17.6018 10.3692 17.2048 10.7601L17.0484 10.9141L18.4803 12.3459ZM16.5853 11.3701L13.9277 13.9869C13.8193 14.0998 13.7587 14.2522 13.7587 14.4113L13.51 15.6319C13.4813 15.7729 13.6063 15.8972 13.7471 15.8676L14.9211 15.6207C15.0739 15.6207 15.2205 15.5577 15.3283 15.4455L18.0169 12.8016L16.5853 11.3701Z" fill="black"/>
<path d="M6.9336 10.9326C6.9336 11.3468 7.26938 11.6826 7.6836 11.6826H11.8557C12.2699 11.6826 12.6057 11.3468 12.6057 10.9326C12.6057 10.5184 12.2699 10.1826 11.8557 10.1826H7.6836C7.26938 10.1826 6.9336 10.5184 6.9336 10.9326Z" fill="black"/>
<path d="M6.9336 13.2178C6.9336 13.632 7.26938 13.9678 7.6836 13.9678H10.0972C10.5114 13.9678 10.8472 13.632 10.8472 13.2178C10.8472 12.8036 10.5114 12.4678 10.0972 12.4678H7.6836C7.26938 12.4678 6.9336 12.8036 6.9336 13.2178Z" fill="black"/>
</svg>
