<svg width="24" height="24" viewBox="0 0 24 24" fill="none" xmlns="http://www.w3.org/2000/svg">
<path d="M16.5714 1.5C19.8457 1.5 22.5 4.15431 22.5 7.42857V16.5714C22.5 19.8457 19.8457 22.5 16.5714 22.5H7.42857C4.15431 22.5 1.5 19.8457 1.5 16.5714V7.42857C1.5 4.15431 4.15431 1.5 7.42857 1.5H16.5714ZM7.42857 0C3.32588 0 0 3.32588 0 7.42857V16.5714C0 20.6741 3.32588 24 7.42857 24H16.5714C20.6741 24 24 20.6741 24 16.5714V7.42857C24 3.32588 20.6741 0 16.5714 0H7.42857Z" fill="black"/>
<path d="M12.2097 5C11.6574 5 11.2097 5.44772 11.2097 6V10.2816L7.50014 8.13999C7.02184 7.86386 6.41025 8.02775 6.13413 8.50605C5.858 8.98436 6.02189 9.59594 6.50019 9.87207L10.2098 12.0137L6.5118 14.1492C6.03353 14.4254 5.86972 15.037 6.14591 15.5153C6.4221 15.9936 7.03371 16.1574 7.51198 15.8812L11.2094 13.7459V18.0002C11.2094 18.5525 11.6572 19.0002 12.2094 19.0002C12.7617 19.0002 13.2094 18.5525 13.2094 18.0002V13.746L16.8575 15.8523C17.3358 16.1285 17.9473 15.9646 18.2235 15.4864C18.4997 15.0081 18.3358 14.3965 17.8575 14.1203L14.2109 12.0148L17.868 9.90329C18.3463 9.62714 18.5102 9.01555 18.234 8.53726C17.9579 8.05897 17.3463 7.89511 16.868 8.17126L13.2097 10.2834V6C13.2097 5.44772 12.762 5 12.2097 5Z" fill="black"/>
</svg>
