<svg width="24" height="24" viewBox="0 0 24 24" fill="none" xmlns="http://www.w3.org/2000/svg">
<path d="M16.5714 1.5C19.8457 1.5 22.5 4.15431 22.5 7.42857V16.5714C22.5 19.8457 19.8457 22.5 16.5714 22.5H7.42857C4.15431 22.5 1.5 19.8457 1.5 16.5714V7.42857C1.5 4.15431 4.15431 1.5 7.42857 1.5H16.5714ZM7.42857 0C3.32588 0 0 3.32588 0 7.42857V16.5714C0 20.6741 3.32588 24 7.42857 24H16.5714C20.6741 24 24 20.6741 24 16.5714V7.42857C24 3.32588 20.6741 0 16.5714 0H7.42857Z" fill="black"/>
<path d="M11.9992 5.79995C15.4228 5.79995 18.1992 8.57638 18.1992 12V13.1662C18.1992 13.9322 17.5777 14.553 16.8124 14.553C16.0474 14.553 15.4256 13.9311 15.4256 13.1662V12C15.4256 10.1077 13.8928 8.57495 12.0006 8.57495C10.1084 8.57495 8.57562 10.1077 8.57562 12C8.57562 13.8922 10.1084 15.425 12.0006 15.425C12.8401 15.425 13.6089 15.1232 14.2044 14.6223C14.7156 15.5353 15.6924 16.153 16.8124 16.153C18.4607 16.153 19.7992 14.8165 19.7992 13.1662V12C19.7992 7.69272 16.3064 4.19995 11.9992 4.19995C7.69199 4.19995 4.19922 7.69272 4.19922 12C4.19922 16.3072 7.69199 19.7999 11.9992 19.7999C12.9941 19.7999 14.0068 19.6111 14.9842 19.2074C15.3926 19.0387 15.5869 18.5709 15.4182 18.1625C15.2495 17.7542 14.7817 17.5599 14.3734 17.7286C13.5953 18.05 12.7907 18.2 11.9992 18.2C8.57565 18.2 5.79922 15.4235 5.79922 12C5.79922 8.57638 8.57565 5.79995 11.9992 5.79995ZM13.8256 12C13.8256 13.0085 13.0092 13.825 12.0006 13.825C10.992 13.825 10.1756 13.0085 10.1756 12C10.1756 10.9914 10.992 10.175 12.0006 10.175C13.0092 10.175 13.8256 10.9914 13.8256 12Z" fill="black"/>
</svg>
