<svg width="24" height="24" viewBox="0 0 24 24" fill="none" xmlns="http://www.w3.org/2000/svg">
<path d="M16.5606 17.6901L15.6745 15.209C15.6402 15.258 15.6084 15.3093 15.5795 15.3624L15.5432 15.4289C15.0221 16.3852 13.8909 16.8052 12.8891 16.4143L12.8195 16.3871C12.7831 16.3729 12.7464 16.3601 12.7093 16.3488L13.5782 18.7852L13.6027 18.8382C13.6792 18.9711 13.8419 19.0345 13.9914 18.9811C14.0318 18.9667 14.069 18.9444 14.1007 18.9155L15.014 18.0824L16.2457 18.122L16.304 18.1186C16.4556 18.0961 16.5742 17.9678 16.5792 17.8092C16.5805 17.7687 16.5742 17.7283 16.5606 17.6901Z" fill="black"/>
<path d="M8.92691 15.3624C8.89793 15.3093 8.86617 15.258 8.83184 15.209L7.94576 17.6901C7.93215 17.7283 7.92582 17.7687 7.92712 17.8092C7.93285 17.9876 8.08218 18.1277 8.26066 18.122L9.49234 18.0824L10.4057 18.9155C10.4374 18.9444 10.4745 18.9667 10.5149 18.9811C10.6831 19.0411 10.8681 18.9534 10.9281 18.7852L11.7965 16.3489L11.6869 16.3871L11.6173 16.4143C10.6154 16.8052 9.48423 16.3852 8.96314 15.4289L8.92691 15.3624Z" fill="black"/>
<path d="M12.955 5.22858L12.8715 5.17294C12.4925 4.94239 12.0139 4.94239 11.6347 5.17275C11.5751 5.20914 11.518 5.25122 11.464 5.299L11.4077 5.34884C10.9358 5.76629 10.3294 5.9914 9.70485 5.981L9.63029 5.97976L9.52547 5.98263C8.97178 6.02224 8.51007 6.44636 8.42118 7.01462L8.40799 7.09893C8.31044 7.7226 7.98819 8.28907 7.50339 8.69044L7.44549 8.73838C6.98008 9.12369 6.86327 9.79943 7.17141 10.3239L7.17721 10.3337L7.21638 10.4004C7.53359 10.9403 7.6442 11.5769 7.52766 12.1922L7.51026 12.2841C7.41662 12.7784 7.62821 13.2687 8.02223 13.5379L8.10897 13.5923C8.16903 13.6259 8.23264 13.6548 8.29945 13.6783L8.35045 13.6963L8.35968 13.6996L8.36993 13.7032C8.96032 13.9113 9.45462 14.3343 9.75807 14.8913L9.7943 14.9577C10.0855 15.4921 10.7176 15.7268 11.2775 15.5084L11.3471 15.4812C11.9306 15.2535 12.5758 15.2535 13.1592 15.4812L13.2289 15.5084C13.7887 15.7268 14.4209 15.4921 14.7121 14.9577L14.7483 14.8913C15.0518 14.3343 15.5461 13.9113 16.1364 13.7032L16.1461 13.6992L16.1559 13.6963L16.2069 13.6783C16.2737 13.6548 16.3373 13.6259 16.3974 13.5923L16.4841 13.5379C16.8782 13.2687 17.0898 12.7784 16.9961 12.2841L16.9787 12.1922C16.8622 11.5769 16.9728 10.9403 17.29 10.4004L17.3292 10.3337L17.335 10.3239C17.6431 9.79943 17.5263 9.12369 17.0609 8.73838L17.003 8.69044L16.8863 8.58764C16.466 8.19426 16.1878 7.67063 16.0984 7.09893L16.0852 7.01462C15.9907 6.41085 15.4754 5.96979 14.8761 5.97976L14.8015 5.981C14.177 5.9914 13.5706 5.76629 13.0987 5.34884L13.0424 5.299C13.0141 5.27396 12.9849 5.25049 12.955 5.22858ZM9.71742 10.4205C9.71742 8.99198 10.8527 7.83396 12.2532 7.83396C13.6537 7.83396 14.789 8.99198 14.789 10.4205C14.789 11.8489 13.6537 13.007 12.2532 13.007C10.8527 13.007 9.71742 11.8489 9.71742 10.4205Z" fill="black"/>
<path d="M0 7.42857V16.5714C0 20.6741 3.32588 24 7.42857 24H16.5714C20.6741 24 24 20.6741 24 16.5714V7.42857C24 3.32588 20.6741 0 16.5714 0H7.42857C3.32588 0 0 3.32588 0 7.42857ZM7.42857 1.5H16.5714C19.8457 1.5 22.5 4.15431 22.5 7.42857V16.5714C22.5 19.8457 19.8457 22.5 16.5714 22.5H7.42857C4.15431 22.5 1.5 19.8457 1.5 16.5714V7.42857C1.5 4.15431 4.15431 1.5 7.42857 1.5Z" fill="black"/>
</svg>
