<svg width="24" height="24" viewBox="0 0 24 24" fill="none" xmlns="http://www.w3.org/2000/svg">
<path d="M16.5714 1.5C19.8457 1.5 22.5 4.15431 22.5 7.42857V16.5714C22.5 19.8457 19.8457 22.5 16.5714 22.5H7.42857C4.15431 22.5 1.5 19.8457 1.5 16.5714V7.42857C1.5 4.15431 4.15431 1.5 7.42857 1.5H16.5714ZM24 7.42857C24 3.32588 20.6741 0 16.5714 0H7.42857C3.32588 0 0 3.32588 0 7.42857V16.5714C0 20.6741 3.32588 24 7.42857 24H16.5714C20.6741 24 24 20.6741 24 16.5714V7.42857ZM6.34953 12.6503L10.8956 16.4364C11.3904 16.7432 12.033 16.3901 12.033 15.8106V12.331C12.0903 12.4565 12.1847 12.5687 12.3163 12.6503L16.8624 16.4364C17.3572 16.7432 17.9998 16.3901 17.9998 15.8106V8.23924C17.9998 7.65975 17.3572 7.30594 16.8624 7.61348L12.317 11.3995C12.1851 11.481 12.0904 11.5933 12.033 11.719V8.23924C12.033 7.65975 11.3904 7.30594 10.8956 7.61348L6.35024 11.3995C5.88337 11.6878 5.88337 12.3613 6.34953 12.6503Z" fill="black"/>
</svg>
