<svg width="24" height="24" viewBox="0 0 24 24" fill="none" xmlns="http://www.w3.org/2000/svg">
<path d="M7.42857 1.5H16.5714C19.8457 1.5 22.5 4.15431 22.5 7.42857V16.5714C22.5 19.8457 19.8457 22.5 16.5714 22.5H7.42857C4.15431 22.5 1.5 19.8457 1.5 16.5714V7.42857C1.5 4.15431 4.15431 1.5 7.42857 1.5ZM0 7.42857V16.5714C0 20.6741 3.32588 24 7.42857 24H16.5714C20.6741 24 24 20.6741 24 16.5714V7.42857C24 3.32588 20.6741 0 16.5714 0H7.42857C3.32588 0 0 3.32588 0 7.42857ZM6 7.32999C5.72386 7.32999 5.5 7.55384 5.5 7.82999V8.45499C5.5 8.73113 5.72386 8.95499 6 8.95499H18C18.2761 8.95499 18.5 8.73113 18.5 8.45499V7.82999C18.5 7.55384 18.2761 7.32999 18 7.32999H6ZM5.5 11.6894V12.3144C5.5 12.5905 5.72386 12.8144 6 12.8144H18C18.2761 12.8144 18.5 12.5905 18.5 12.3144V11.6894C18.5 11.4132 18.2761 11.1894 18 11.1894H6C5.72386 11.1894 5.5 11.4132 5.5 11.6894ZM5.5 15.5487V16.1737C5.5 16.4499 5.72386 16.6737 6 16.6737H18C18.2761 16.6737 18.5 16.4499 18.5 16.1737V15.5487C18.5 15.2726 18.2761 15.0487 18 15.0487H6C5.72386 15.0487 5.5 15.2726 5.5 15.5487Z" fill="black"/>
</svg>
