<svg width="24" height="24" viewBox="0 0 24 24" fill="none" xmlns="http://www.w3.org/2000/svg">
<path d="M16.5714 1.5C19.8457 1.5 22.5 4.15431 22.5 7.42857V16.5714C22.5 19.8457 19.8457 22.5 16.5714 22.5H7.42857C4.15431 22.5 1.5 19.8457 1.5 16.5714V7.42857C1.5 4.15431 4.15431 1.5 7.42857 1.5H16.5714ZM7.42857 0C3.32588 0 0 3.32588 0 7.42857V16.5714C0 20.6741 3.32588 24 7.42857 24H16.5714C20.6741 24 24 20.6741 24 16.5714V7.42857C24 3.32588 20.6741 0 16.5714 0H7.42857ZM6 13.1594C5.72386 13.1594 5.5 13.3832 5.5 13.6594V14.2844C5.5 14.5605 5.72386 14.7844 6 14.7844H18C18.2761 14.7844 18.5 14.5605 18.5 14.2844V13.6594C18.5 13.3832 18.2761 13.1594 18 13.1594H6ZM5.5 9.79999V10.425C5.5 10.7011 5.72386 10.925 6 10.925H18C18.2761 10.925 18.5 10.7011 18.5 10.425V9.79999C18.5 9.52385 18.2761 9.29999 18 9.29999H6C5.72386 9.29999 5.5 9.52385 5.5 9.79999Z" fill="black"/>
</svg>
