<svg width="24" height="24" viewBox="0 0 24 24" fill="none" xmlns="http://www.w3.org/2000/svg">
<path d="M7.42857 1.5H16.5714C19.8457 1.5 22.5 4.15431 22.5 7.42857V16.5714C22.5 19.8457 19.8457 22.5 16.5714 22.5H7.42857C4.15431 22.5 1.5 19.8457 1.5 16.5714V7.42857C1.5 4.15431 4.15431 1.5 7.42857 1.5ZM0 7.42857V16.5714C0 20.6741 3.32588 24 7.42857 24H16.5714C20.6741 24 24 20.6741 24 16.5714V7.42857C24 3.32588 20.6741 0 16.5714 0H7.42857C3.32588 0 0 3.32588 0 7.42857ZM5.43431 6.63451C5.1219 6.94693 5.1219 7.45346 5.43431 7.76588L5.61757 7.94913C5.09079 8.35958 4.75 9.01346 4.75 9.75V14.25C4.75 15.4926 5.72005 16.5 6.91667 16.5H14.1684L15.6002 17.9318C15.9127 18.2442 16.4192 18.2442 16.7316 17.9318C17.044 17.6194 17.044 17.1129 16.7316 16.8004L6.56569 6.63451C6.25327 6.32209 5.74673 6.32209 5.43431 6.63451ZM6.7872 9.11876L12.5684 14.9H6.91667C6.66008 14.9 6.35 14.6664 6.35 14.25V9.75C6.35 9.40213 6.56638 9.18186 6.7872 9.11876ZM16.15 14.0186L17.4765 15.3451C17.6507 15.021 17.75 14.6475 17.75 14.25V9.75C17.75 8.50736 16.7799 7.5 15.5833 7.5H9.63137L11.2314 9.1H15.5833C15.8399 9.1 16.15 9.33356 16.15 9.75V14.0186ZM19.2499 9.59951C18.7529 9.59951 18.3499 10.0025 18.3499 10.4995V13.4995C18.3499 13.9966 18.7529 14.3995 19.2499 14.3995C19.747 14.3995 20.1499 13.9966 20.1499 13.4995V10.4995C20.1499 10.0025 19.747 9.59951 19.2499 9.59951Z" fill="black"/>
</svg>
