<svg width="24" height="24" viewBox="0 0 24 24" fill="none" xmlns="http://www.w3.org/2000/svg">
<path d="M7.42857 1.5H16.5714C19.8457 1.5 22.5 4.15431 22.5 7.42857V16.5714C22.5 19.8457 19.8457 22.5 16.5714 22.5H7.42857C4.15431 22.5 1.5 19.8457 1.5 16.5714V7.42857C1.5 4.15431 4.15431 1.5 7.42857 1.5ZM0 7.42857V16.5714C0 20.6741 3.32588 24 7.42857 24H16.5714C20.6741 24 24 20.6741 24 16.5714V7.42857C24 3.32588 20.6741 0 16.5714 0H7.42857C3.32588 0 0 3.32588 0 7.42857ZM7.1 7.8002C5.9402 7.8002 5 8.7404 5 9.9002V14.1002C5 15.26 5.9402 16.2002 7.1 16.2002H15.5C16.6598 16.2002 17.6 15.26 17.6 14.1002V9.9002C17.6 8.7404 16.6598 7.8002 15.5 7.8002H7.1ZM19.75 10.5995C19.75 10.1853 19.4142 9.84952 19 9.84952C18.5858 9.84952 18.25 10.1853 18.25 10.5995V13.3995C18.25 13.8137 18.5858 14.1495 19 14.1495C19.4142 14.1495 19.75 13.8137 19.75 13.3995V10.5995ZM6.75 10.2502C6.75 9.8636 7.0634 9.5502 7.45 9.5502H10.95C11.3366 9.5502 11.65 9.8636 11.65 10.2502V13.7502C11.65 14.1368 11.3366 14.4502 10.95 14.4502H7.45C7.0634 14.4502 6.75 14.1368 6.75 13.7502V10.2502Z" fill="black"/>
</svg>
