<svg width="24" height="24" viewBox="0 0 24 24" fill="none" xmlns="http://www.w3.org/2000/svg">
<path d="M16.5714 1.5C19.8457 1.5 22.5 4.15431 22.5 7.42857V16.5714C22.5 19.8457 19.8457 22.5 16.5714 22.5H7.42857C4.15431 22.5 1.5 19.8457 1.5 16.5714V7.42857C1.5 4.15431 4.15431 1.5 7.42857 1.5H16.5714ZM7.42857 0C3.32588 0 0 3.32588 0 7.42857V16.5714C0 20.6741 3.32588 24 7.42857 24H16.5714C20.6741 24 24 20.6741 24 16.5714V7.42857C24 3.32588 20.6741 0 16.5714 0H7.42857ZM19.2499 9.59951C18.7529 9.59951 18.3499 10.0025 18.3499 10.4995V13.4995C18.3499 13.9966 18.7529 14.3995 19.2499 14.3995C19.747 14.3995 20.1499 13.9966 20.1499 13.4995V10.4995C20.1499 10.0025 19.747 9.59951 19.2499 9.59951ZM6.91667 9.1H15.5833C15.8399 9.1 16.15 9.33356 16.15 9.75V14.25C16.15 14.6664 15.8399 14.9 15.5833 14.9H6.91667C6.66008 14.9 6.35 14.6664 6.35 14.25V9.75C6.35 9.33356 6.66008 9.1 6.91667 9.1ZM4.75 9.75V14.25C4.75 15.4926 5.72005 16.5 6.91667 16.5H15.5833C16.7799 16.5 17.75 15.4926 17.75 14.25V9.75C17.75 8.50736 16.7799 7.5 15.5833 7.5H6.91667C5.72005 7.5 4.75 8.50736 4.75 9.75Z" fill="black"/>
</svg>
