<svg width="24" height="24" viewBox="0 0 24 24" fill="none" xmlns="http://www.w3.org/2000/svg">
<path d="M16.5714 1.5C19.8457 1.5 22.5 4.15431 22.5 7.42857V16.5714C22.5 19.8457 19.8457 22.5 16.5714 22.5H7.42857C4.15431 22.5 1.5 19.8457 1.5 16.5714V7.42857C1.5 4.15431 4.15431 1.5 7.42857 1.5H16.5714ZM7.42857 0C3.32588 0 0 3.32588 0 7.42857V16.5714C0 20.6741 3.32588 24 7.42857 24H16.5714C20.6741 24 24 20.6741 24 16.5714V7.42857C24 3.32588 20.6741 0 16.5714 0H7.42857Z" fill="black"/>
<path d="M11.9966 6C9.70969 6 7.8558 7.85389 7.8558 10.1408L7.85523 12.3244C7.13344 12.5082 6.59961 13.1625 6.59961 13.9415C6.59961 14.863 7.34666 15.6101 8.26819 15.6101H15.6775C16.599 15.6101 17.3461 14.863 17.3461 13.9415C17.3461 13.1795 16.8352 12.5367 16.1373 12.3371L16.1373 10.1408C16.1373 7.85389 14.2835 6 11.9966 6Z" fill="black"/>
<path d="M10.0557 16.2797C9.73229 16.4356 9.59649 16.8241 9.75235 17.1475C9.75676 17.1566 9.76214 17.1679 9.76837 17.1811C9.81398 17.2774 9.90531 17.4701 9.99738 17.6029C10.435 18.2341 11.1667 18.6498 11.9957 18.6498C13.02 18.6498 13.8948 18.0162 14.2526 17.1219C14.386 16.7886 14.2239 16.4104 13.8906 16.277C13.5573 16.1437 13.179 16.3057 13.0456 16.639C12.8786 17.0566 12.4705 17.3498 11.9957 17.3498C11.611 17.3498 11.2709 17.1582 11.0658 16.8622C11.0396 16.8245 11.0013 16.7448 10.9449 16.6276C10.938 16.6133 10.9309 16.5984 10.9234 16.583C10.7676 16.2596 10.3791 16.1238 10.0557 16.2797Z" fill="black"/>
</svg>
