<svg width="24" height="24" viewBox="0 0 24 24" fill="none" xmlns="http://www.w3.org/2000/svg">
<path d="M16.5714 1.5C19.8457 1.5 22.5 4.15431 22.5 7.42857V16.5714C22.5 19.8457 19.8457 22.5 16.5714 22.5H7.42857C4.15431 22.5 1.5 19.8457 1.5 16.5714V7.42857C1.5 4.15431 4.15431 1.5 7.42857 1.5H16.5714ZM7.42857 0C3.32588 0 0 3.32588 0 7.42857V16.5714C0 20.6741 3.32588 24 7.42857 24H16.5714C20.6741 24 24 20.6741 24 16.5714V7.42857C24 3.32588 20.6741 0 16.5714 0H7.42857Z" fill="black"/>
<path d="M7.79694 5.55284C7.61601 5.5556 7.43555 5.62346 7.29363 5.75749C6.99249 6.0419 6.97893 6.51658 7.26333 6.81772L7.89739 7.48913C7.57382 8.11747 7.39115 8.83023 7.39115 9.58565L7.39052 12.0039C6.59118 12.2074 6 12.932 6 13.7947C6 14.8153 6.82731 15.6426 7.84785 15.6426H15.813L16.724 16.5783C17.013 16.875 17.4878 16.8814 17.7846 16.5924C17.9381 16.4429 18.0139 16.2437 18.0113 16.0451C17.8122 16.0482 17.6122 15.9724 17.4623 15.8184L9.38584 7.52367L8.00162 6.05789C7.86715 5.91552 7.79929 5.73435 7.79694 5.55284Z" fill="black"/>
<path d="M17.8769 14.094C17.8928 13.9966 17.901 13.8966 17.901 13.7947C17.901 12.9508 17.3353 12.239 16.5624 12.0179L16.5624 9.58565C16.5624 7.05308 14.5094 5.00002 11.9768 5.00002C11.1312 5.00002 10.339 5.2289 9.65892 5.62809L10.4725 6.48952L17.8769 14.094Z" fill="black"/>
<path d="M9.81496 16.3576C9.44182 16.5374 9.28513 16.9857 9.46498 17.3588L9.48242 17.3955C9.53268 17.5016 9.63513 17.7179 9.7387 17.8673C10.2287 18.5741 11.0482 19.0396 11.9765 19.0396C13.1236 19.0396 14.1033 18.3301 14.5039 17.3287C14.6578 16.9441 14.4707 16.5076 14.0862 16.3538C13.7016 16.1999 13.2651 16.3869 13.1112 16.7715C12.9306 17.2229 12.4896 17.5396 11.9765 17.5396C11.5608 17.5396 11.1932 17.3326 10.9715 17.0127L10.97 17.0105L10.9657 17.0037C10.962 16.9977 10.9573 16.9897 10.9515 16.9795C10.9398 16.9587 10.9263 16.9332 10.911 16.9029C10.8876 16.8569 10.8668 16.8132 10.8443 16.7662L10.8162 16.7076C10.6364 16.3344 10.1881 16.1777 9.81496 16.3576Z" fill="black"/>
</svg>
