<svg width="24" height="24" viewBox="0 0 24 24" fill="none" xmlns="http://www.w3.org/2000/svg">
<path d="M16.5714 1.5C19.8457 1.5 22.5 4.15431 22.5 7.42857V16.5714C22.5 19.8457 19.8457 22.5 16.5714 22.5H7.42857C4.15431 22.5 1.5 19.8457 1.5 16.5714V7.42857C1.5 4.15431 4.15431 1.5 7.42857 1.5H16.5714ZM7.42857 0C3.32588 0 0 3.32588 0 7.42857V16.5714C0 20.6741 3.32588 24 7.42857 24H16.5714C20.6741 24 24 20.6741 24 16.5714V7.42857C24 3.32588 20.6741 0 16.5714 0H7.42857Z" fill="black"/>
<path d="M6.5 6V18C6.5 18.5523 6.94772 19 7.5 19H13.5C15.7091 19 17.5 17.2091 17.5 15C17.5 13.5456 16.7238 12.2725 15.563 11.5724C16.1476 10.8769 16.4997 9.97959 16.4997 9C16.4997 6.79086 14.7089 5 12.4997 5H7.5C6.94772 5 6.5 5.44772 6.5 6ZM8.5 13H13.5C14.6046 13 15.5 13.8954 15.5 15C15.5 16.1046 14.6046 17 13.5 17H8.5V13ZM12.4997 11H8.5V7H12.4997C13.6043 7 14.4997 7.89543 14.4997 9C14.4997 10.1046 13.6043 11 12.4997 11Z" fill="black"/>
</svg>
