<svg width="24" height="24" viewBox="0 0 24 24" fill="none" xmlns="http://www.w3.org/2000/svg">
<path d="M16.5714 1.5C19.8457 1.5 22.5 4.15431 22.5 7.42857V16.5714C22.5 19.8457 19.8457 22.5 16.5714 22.5H7.42857C4.15431 22.5 1.5 19.8457 1.5 16.5714V7.42857C1.5 4.15431 4.15431 1.5 7.42857 1.5H16.5714ZM7.42857 0C3.32588 0 0 3.32588 0 7.42857V16.5714C0 20.6741 3.32588 24 7.42857 24H16.5714C20.6741 24 24 20.6741 24 16.5714V7.42857C24 3.32588 20.6741 0 16.5714 0H7.42857Z" fill="black"/>
<path d="M6.67304 12.5823C6.40455 12.9085 6.6366 13.4 7.0591 13.4H11.6567C11.9571 13.4 12.1897 13.6631 12.1529 13.9613L11.6152 18.3172C11.5906 18.5159 11.8409 18.6234 11.9681 18.4688L17.7714 11.4177C18.0399 11.0915 17.8078 10.6 17.3853 10.6H12.7877C12.4873 10.6 12.2547 10.3369 12.2915 10.0387L12.8293 5.68282C12.8538 5.48414 12.6036 5.37665 12.4764 5.53122L6.67304 12.5823Z" fill="black"/>
</svg>
