<svg width="24" height="24" viewBox="0 0 24 24" fill="none" xmlns="http://www.w3.org/2000/svg">
<path d="M7.42857 1.5H16.5714C19.8457 1.5 22.5 4.15431 22.5 7.42857V16.5714C22.5 19.8457 19.8457 22.5 16.5714 22.5H7.42857C4.15431 22.5 1.5 19.8457 1.5 16.5714V7.42857C1.5 4.15431 4.15431 1.5 7.42857 1.5ZM0 7.42857V16.5714C0 20.6741 3.32588 24 7.42857 24H16.5714C20.6741 24 24 20.6741 24 16.5714V7.42857C24 3.32588 20.6741 0 16.5714 0H7.42857C3.32588 0 0 3.32588 0 7.42857ZM12.1141 17.1164V16.4262H6.2002V17.1164C6.2002 17.6044 6.58382 18 7.05703 18H8.30029C8.77351 18 9.15713 17.6044 9.15713 17.1164C9.15713 17.6044 9.54075 18 10.014 18H11.2572C11.7304 18 12.1141 17.6044 12.1141 17.1164ZM17.7833 16.5475L17.61 15.8808L14.7539 16.6699L14.9271 17.3367C15.0496 17.808 15.5194 18.0878 15.9765 17.9615L17.1774 17.6297C17.6345 17.5034 17.9058 17.0189 17.7833 16.5475ZM17.4594 15.3012L15.5708 8.03C15.5483 8.05208 15.5221 8.07073 15.4929 8.08485L15.443 8.10365L12.723 8.85468L14.6033 16.0904L17.4594 15.3012ZM12.1141 15.8262V8.35456H6.2002V15.8262H12.1141ZM15.4388 7.52201L15.2149 6.66331C15.0924 6.19196 14.6226 5.91224 14.1655 6.03854L12.9646 6.37035C12.5075 6.49665 12.2362 6.98114 12.3587 7.45248L12.5724 8.27513L15.2924 7.5241L15.3421 7.51488C15.3751 7.51169 15.4077 7.51429 15.4388 7.52201ZM9.15321 6.79846C9.11169 6.35041 8.74568 6 8.30029 6H7.05703C6.58382 6 6.2002 6.39558 6.2002 6.88355V7.75456H12.1141V6.88355C12.1141 6.39558 11.7304 6 11.2572 6H10.014C9.54075 6 9.15713 6.39558 9.15713 6.88355L9.15321 6.79846Z" fill="black"/>
</svg>
