<svg width="24" height="24" viewBox="0 0 24 24" fill="none" xmlns="http://www.w3.org/2000/svg">
<path d="M16.5714 1.5C19.8457 1.5 22.5 4.15431 22.5 7.42857V16.5714C22.5 19.8457 19.8457 22.5 16.5714 22.5H7.42857C4.15431 22.5 1.5 19.8457 1.5 16.5714V7.42857C1.5 4.15431 4.15431 1.5 7.42857 1.5H16.5714ZM7.42857 0C3.32588 0 0 3.32588 0 7.42857V16.5714C0 20.6741 3.32588 24 7.42857 24H16.5714C20.6741 24 24 20.6741 24 16.5714V7.42857C24 3.32588 20.6741 0 16.5714 0H7.42857Z" fill="black"/>
<path d="M7.69922 7.71429V17.1395C7.69922 17.7901 8.32805 18.2058 8.84779 17.8947C10.1171 17.1327 11.9849 16.0124 11.9849 16.0124C11.9849 16.0124 13.8527 17.1335 15.1221 17.8947C15.6418 18.2058 16.2706 17.7901 16.2706 17.1395V7.71429C16.2706 6.76751 15.5031 6 14.5564 6H9.4135C8.46673 6 7.69922 6.76751 7.69922 7.71429Z" fill="black"/>
</svg>
