<svg width="24" height="24" viewBox="0 0 24 24" fill="none" xmlns="http://www.w3.org/2000/svg">
<path d="M9 5C7.34315 5 6 6.34315 6 8V14.2258C6.57816 13.7712 7.30739 13.5 8.09995 13.5H17.6586C17.7411 13.5 17.8217 13.5065 17.9 13.519V6C17.9 5.44772 17.4523 5 16.9 5H9ZM9.63999 8.54999H14.19C14.549 8.54999 14.84 8.841 14.84 9.19999C14.84 9.55897 14.549 9.84999 14.19 9.84999H9.63999C9.281 9.84999 8.98999 9.55897 8.98999 9.19999C8.98999 8.841 9.281 8.54999 9.63999 8.54999ZM8.98999 11.3C8.98999 10.941 9.281 10.65 9.63999 10.65H14.19C14.549 10.65 14.84 10.941 14.84 11.3C14.84 11.659 14.549 11.95 14.19 11.95H9.63999C9.281 11.95 8.98999 11.659 8.98999 11.3Z" fill="black"/>
<path d="M6 16.9C6 17.8004 6.56669 18.5685 7.36288 18.867C7.59221 18.953 7.84059 19 8.09995 19H17.6495C17.7778 19 17.8727 18.88 17.845 18.7547C17.7546 18.3452 17.6894 18.0153 17.6495 17.7141L17.6477 17.7C17.5462 16.9201 17.6154 16.3291 17.8553 15.0381C17.8782 14.9148 17.784 14.8 17.6586 14.8H8.09995C6.94498 14.8 6.00779 15.7324 6 16.8855V16.9Z" fill="black"/>
<path d="M0 7.42857V16.5714C0 20.6741 3.32588 24 7.42857 24H16.5714C20.6741 24 24 20.6741 24 16.5714V7.42857C24 3.32588 20.6741 0 16.5714 0H7.42857C3.32588 0 0 3.32588 0 7.42857ZM7.42857 1.5H16.5714C19.8457 1.5 22.5 4.15431 22.5 7.42857V16.5714C22.5 19.8457 19.8457 22.5 16.5714 22.5H7.42857C4.15431 22.5 1.5 19.8457 1.5 16.5714V7.42857C1.5 4.15431 4.15431 1.5 7.42857 1.5Z" fill="black"/>
</svg>
