<svg width="24" height="24" viewBox="0 0 24 24" fill="none" xmlns="http://www.w3.org/2000/svg">
<path d="M16.5714 1.5H7.42857C4.15431 1.5 1.5 4.15431 1.5 7.42857V16.5714C1.5 19.8457 4.15431 22.5 7.42857 22.5H16.5714C19.8457 22.5 22.5 19.8457 22.5 16.5714V7.42857C22.5 4.15431 19.8457 1.5 16.5714 1.5ZM7.42857 0H16.5714C20.6741 0 24 3.32588 24 7.42857V16.5714C24 20.6741 20.6741 24 16.5714 24H7.42857C3.32588 24 0 20.6741 0 16.5714V7.42857C0 3.32588 3.32588 0 7.42857 0ZM18.5 8.75V7.5C18.5 6.94771 18.0523 6.5 17.5 6.5H6.5C5.94771 6.5 5.5 6.94772 5.5 7.5V8.75C5.5 9.30228 5.94772 9.75 6.5 9.75H17.5C18.0523 9.75 18.5 9.30228 18.5 8.75ZM17.7207 16.2V10.4H6.28027V16.2C6.28027 17.3045 7.1757 18.2 8.28027 18.2H15.7207C16.8252 18.2 17.7207 17.3045 17.7207 16.2ZM9.59473 13.1299C9.59473 12.7709 9.88574 12.4799 10.2447 12.4799H13.7547C14.1137 12.4799 14.4047 12.7709 14.4047 13.1299C14.4047 13.4889 14.1137 13.7799 13.7547 13.7799H10.2447C9.88574 13.7799 9.59473 13.4889 9.59473 13.1299Z" fill="black"/>
</svg>
