<svg width="24" height="24" viewBox="0 0 24 24" fill="none" xmlns="http://www.w3.org/2000/svg">
<path d="M7.42857 1.5H16.5714C19.8457 1.5 22.5 4.15431 22.5 7.42857V16.5714C22.5 19.8457 19.8457 22.5 16.5714 22.5H7.42857C4.15431 22.5 1.5 19.8457 1.5 16.5714V7.42857C1.5 4.15431 4.15431 1.5 7.42857 1.5ZM0 7.42857V16.5714C0 20.6741 3.32588 24 7.42857 24H16.5714C20.6741 24 24 20.6741 24 16.5714V7.42857C24 3.32588 20.6741 0 16.5714 0H7.42857C3.32588 0 0 3.32588 0 7.42857ZM12 19C15.866 19 19 15.866 19 12C19 8.13401 15.866 5 12 5C8.13401 5 5 8.13401 5 12C5 15.866 8.13401 19 12 19ZM10.0733 12.1189H10.3903L10.9298 12.6346C10.9685 12.6715 11.0294 12.6715 11.068 12.6346L11.6076 12.1189H11.9246C13.1801 12.1189 14.1979 13.1367 14.1979 14.3922C14.1979 14.8107 13.8586 15.15 13.4401 15.15H8.55776C8.13926 15.15 7.8 14.8107 7.8 14.3922C7.8 13.1367 8.81779 12.1189 10.0733 12.1189ZM12.453 10.3741C12.453 11.1772 11.802 11.8282 10.9989 11.8282C10.1959 11.8282 9.54487 11.1772 9.54487 10.3741C9.54487 9.57107 10.1959 8.92007 10.9989 8.92007C11.802 8.92007 12.453 9.57107 12.453 10.3741ZM12.7 9.62126C12.7 9.00201 13.1986 8.5 13.8137 8.5C14.4287 8.5 14.9273 9.00201 14.9273 9.62126C14.9273 10.2405 14.4287 10.7425 13.8137 10.7425C13.1986 10.7425 12.7 10.2405 12.7 9.62126ZM15.7015 13.3998H14.8972C14.5609 12.5613 13.8783 11.8991 13.0263 11.59C13.1082 11.4334 13.2713 11.321 13.4698 11.321H14.4265L14.4985 11.3224C15.3463 11.3561 16.0377 11.9832 16.1812 12.7971C16.1854 12.8205 16.1881 12.8597 16.1894 12.9147L16.1895 12.9255C16.1895 13.1875 15.971 13.3998 15.7015 13.3998Z" fill="black"/>
</svg>
