<svg width="24" height="24" viewBox="0 0 24 24" fill="none" xmlns="http://www.w3.org/2000/svg">
<path d="M7.42857 1.5H16.5714C19.8457 1.5 22.5 4.15431 22.5 7.42857V16.5714C22.5 19.8457 19.8457 22.5 16.5714 22.5H7.42857C4.15431 22.5 1.5 19.8457 1.5 16.5714V7.42857C1.5 4.15431 4.15431 1.5 7.42857 1.5ZM0 7.42857V16.5714C0 20.6741 3.32588 24 7.42857 24H16.5714C20.6741 24 24 20.6741 24 16.5714V7.42857C24 3.32588 20.6741 0 16.5714 0H7.42857C3.32588 0 0 3.32588 0 7.42857ZM13.0843 17.6C15.5106 17.6 17.516 15.6547 17.5974 13.2443L17.5444 13.2671C17.0951 13.4547 16.6013 13.5584 16.0833 13.5584C15.8636 13.5584 15.6483 13.5398 15.4396 13.5035C15.3254 14.1884 14.9119 14.7756 14.34 15.1267C14.3372 15.1284 14.334 15.1303 14.3307 15.1323C14.2792 15.1635 14.1683 15.2308 14.0799 15.325C14.0102 15.3994 13.9577 15.4965 13.928 15.5513C13.9233 15.5599 13.9192 15.5675 13.9157 15.5738C13.5205 16.2827 12.9628 16.8898 12.2948 17.3453C12.2568 17.3713 12.1889 17.4215 12.2102 17.4727C12.2299 17.5197 12.3389 17.5368 12.3866 17.5442C12.6136 17.5808 12.8466 17.6 13.0843 17.6ZM11.6353 8.61662C11.6583 8.51457 12.0799 6.52289 10.0917 6.39999C9.92893 6.40079 9.87803 6.48235 9.85709 6.59228L9.45761 8.70223L9.22093 8.7115C8.75061 8.74216 8.29919 8.84495 7.87778 9.01045L7.95168 8.62069L7.95261 8.61662C7.97554 8.51457 8.39716 6.52289 6.409 6.39999C6.24704 6.40059 6.19571 6.48155 6.17498 6.59048L5.08269 12.3575L5.04933 12.5518C5.01996 12.7474 5.00283 12.947 5.00037 13.1498C4.96896 15.6036 6.94314 17.6 9.40116 17.6C11.8598 17.6 13.8853 15.6036 13.9169 13.1498L13.9154 12.9888L13.9089 12.8737C13.4256 12.5342 13.0269 12.0845 12.7507 11.5606C12.4822 11.5851 12.2202 11.7113 12.0511 11.9319C11.779 12.2863 11.7848 12.8075 11.7876 13.0646C11.788 13.0977 11.7883 13.1264 11.7879 13.1498C11.7812 13.6841 11.5915 14.1754 11.2819 14.5686C10.9822 14.1754 10.8053 13.6841 10.812 13.1498C10.8254 12.1042 11.5318 11.2177 12.4884 10.9276C12.3832 10.5856 12.3267 10.2226 12.3267 9.84641C12.3267 9.46686 12.3843 9.10077 12.4915 8.75574C12.1689 8.8075 11.8573 8.89389 11.5605 9.01045L11.6344 8.62069L11.6353 8.61662ZM7.12912 13.1498C7.14349 12.0179 7.97056 11.0738 9.04767 10.8676L8.76541 12.3575L8.73211 12.5518C8.70284 12.7474 8.68586 12.947 8.68309 13.1498C8.67242 13.9991 8.90213 14.793 9.30878 15.4688C8.081 15.4057 7.11311 14.3913 7.12912 13.1498ZM16.0833 12.7184L16.2289 12.7149L16.2423 12.7142C16.2615 12.7132 16.2807 12.712 16.3 12.7106C16.3365 12.708 16.3729 12.7047 16.4089 12.7007C16.4258 12.6989 16.4427 12.6969 16.4594 12.6948C16.4949 12.6903 16.5301 12.6852 16.5655 12.6793C16.5849 12.6762 16.6043 12.6728 16.6232 12.6693C16.6531 12.6638 16.6827 12.6579 16.7123 12.6514C16.7351 12.6465 16.7579 12.6413 16.7806 12.6358C16.8781 12.6123 16.9736 12.5839 17.0672 12.5508C17.0891 12.5431 17.1109 12.5351 17.1324 12.527C17.159 12.5169 17.1854 12.5065 17.2113 12.4956C17.2354 12.4856 17.2592 12.4754 17.2831 12.465C17.3049 12.4552 17.3266 12.4453 17.3481 12.4348C17.3704 12.4243 17.3925 12.4134 17.4144 12.4023L17.5302 12.3403L17.5554 12.3263C18.4196 11.8278 19 10.9039 19 9.84641C19 8.26024 17.6942 6.9744 16.0833 6.9744C14.8849 6.9744 13.8554 7.68607 13.4067 8.70424L13.3942 8.73235C13.3678 8.79414 13.3435 8.85704 13.3215 8.92076L13.3105 8.95301C13.2985 8.98934 13.2871 9.02599 13.2766 9.06261C13.2702 9.08498 13.264 9.10745 13.258 9.13043C13.2303 9.23676 13.2086 9.34546 13.1933 9.4563L13.1891 9.48836C13.1839 9.52923 13.1797 9.57038 13.1763 9.61185C13.1746 9.63211 13.1731 9.65242 13.1719 9.67279L13.1667 9.84641C13.1667 9.89899 13.1681 9.95125 13.171 10.0036C13.1718 10.0192 13.1728 10.0349 13.1739 10.0502C13.1767 10.0892 13.1802 10.128 13.1846 10.1665C13.1864 10.1829 13.1884 10.1992 13.1905 10.2157C13.1954 10.2532 13.2011 10.2905 13.2075 10.3277C13.2102 10.3433 13.213 10.3589 13.2158 10.3742C13.2218 10.406 13.2283 10.4376 13.2355 10.469C13.2405 10.4912 13.2458 10.5133 13.2512 10.5356C13.5124 11.5799 14.3538 12.3994 15.4208 12.644C15.4393 12.6482 15.4578 12.6523 15.4762 12.6561C15.5008 12.6612 15.5256 12.6661 15.5504 12.6706C15.5704 12.6742 15.5905 12.6777 15.6107 12.6809C15.6409 12.6857 15.6712 12.6901 15.7014 12.694C15.7245 12.697 15.7476 12.6997 15.7709 12.7021C15.8059 12.7058 15.8411 12.7089 15.8769 12.7113C15.892 12.7124 15.9071 12.7133 15.9223 12.7141L16.0833 12.7184ZM17.4144 12.4023L17.4054 12.4071C17.4458 12.3868 17.4857 12.3657 17.5302 12.3403C17.4921 12.3618 17.4535 12.3825 17.4144 12.4023ZM13.1667 9.82987C13.167 9.77716 13.1688 9.72479 13.1719 9.67279V9.67278C13.1688 9.72478 13.167 9.77716 13.1667 9.82987ZM15.9281 12.7144C15.9262 12.7143 15.9242 12.7142 15.9223 12.7141H15.9222C15.9242 12.7142 15.9262 12.7143 15.9281 12.7144ZM15.8978 8.56275L15.9159 8.54826C15.9361 8.53788 15.9614 8.5399 15.98 8.5554C15.9952 8.56813 16.0029 8.58772 16.0005 8.60741L15.8949 9.44937L15.8957 9.48906C15.8999 9.51507 15.9116 9.53965 15.9296 9.55978C15.9568 9.58998 15.9957 9.60727 16.0367 9.60727H17.3236L17.3463 9.61186C17.3672 9.62071 17.3819 9.64144 17.3819 9.66561C17.3819 9.67928 17.3771 9.69252 17.3683 9.70302L16.1755 11.1301L16.1575 11.1446C16.1372 11.1549 16.1119 11.1529 16.0934 11.1374C16.0781 11.1247 16.0704 11.1051 16.0729 11.0854L16.1784 10.2435L16.1777 10.2038C16.1734 10.1777 16.1618 10.1532 16.1437 10.133C16.1166 10.1028 16.0776 10.0855 16.0367 10.0855H14.7498L14.7271 10.081C14.7061 10.0721 14.6915 10.0514 14.6915 10.0272C14.6915 10.0135 14.6963 10.0003 14.705 9.9898L15.8978 8.56275Z" fill="black"/>
</svg>
