<svg width="24" height="24" viewBox="0 0 24 24" fill="none" xmlns="http://www.w3.org/2000/svg">
<path d="M16.5714 22.5H7.42857C4.15431 22.5 1.5 19.8457 1.5 16.5714V7.42857C1.5 4.15431 4.15431 1.5 7.42857 1.5H16.5714C19.8457 1.5 22.5 4.15431 22.5 7.42857V16.5714C22.5 19.8457 19.8457 22.5 16.5714 22.5ZM24 16.5714V7.42857C24 3.32589 20.6741 2.08956e-09 16.5714 1.44246e-09L7.42857 0C3.32588 -6.47105e-10 0 3.32589 0 7.42857V16.5714C0 20.6741 3.32588 24 7.42857 24H16.5714C20.6741 24 24 20.6741 24 16.5714ZM17.4972 7.65813L12.2453 5L11.0196 5.62624L16.2238 8.25738L16.2953 8.25695L15.4733 8.66678L10.2613 6.0255L9.0098 6.64234L14.214 9.27349L14.2567 9.27306L13.4488 9.67544L8.24358 7.02894L7.00134 7.65745L7.00113 7.65772L7 7.65845L7.00067 7.65881L7.02371 16.3862L8.22958 16.9678V8.33585L8.17908 8.25424L9.03324 8.68643L9.0335 17.4023L10.2394 17.9839V9.35195L10.1895 9.27035L11.043 9.70185L11.0433 18.4184L12.2492 19L12.2489 15.5817L17.4813 12.9945L17.4864 11.7278L12.2489 14.338V13.5488L17.4764 10.9382L17.4864 9.6956L12.2489 12.3058V11.5166L17.4809 8.91874L17.5 7.65687L17.4972 7.65813Z" fill="black"/>
</svg>
