<svg width="24" height="24" viewBox="0 0 24 24" fill="none" xmlns="http://www.w3.org/2000/svg">
<path d="M7.42857 1.5H16.5714C19.8457 1.5 22.5 4.15431 22.5 7.42857V16.5714C22.5 19.8457 19.8457 22.5 16.5714 22.5H7.42857C4.15431 22.5 1.5 19.8457 1.5 16.5714V7.42857C1.5 4.15431 4.15431 1.5 7.42857 1.5ZM0 7.42857V16.5714C0 20.6741 3.32588 24 7.42857 24H16.5714C20.6741 24 24 20.6741 24 16.5714V7.42857C24 3.32588 20.6741 0 16.5714 0H7.42857C3.32588 0 0 3.32588 0 7.42857ZM8.20833 15.4167C9.98025 15.4167 11.4167 13.9802 11.4167 12.2083C11.4167 10.4364 9.98025 9 8.20833 9C6.43642 9 5 10.4364 5 12.2083C5 13.9802 6.43642 15.4167 8.20833 15.4167ZM16.0833 12.2084C16.0833 10.5976 15.1692 9.29172 14.0417 9.29172C12.9141 9.29172 12 10.5976 12 12.2084C12 13.8192 12.9141 15.1251 14.0417 15.1251C15.1692 15.1251 16.0833 13.8192 16.0833 12.2084ZM17.8333 14.8333C18.4777 14.8333 19 13.658 19 12.2083C19 10.7585 18.4777 9.58328 17.8333 9.58328C17.189 9.58328 16.6667 10.7585 16.6667 12.2083C16.6667 13.658 17.189 14.8333 17.8333 14.8333Z" fill="black"/>
</svg>
