<svg width="24" height="24" viewBox="0 0 24 24" fill="none" xmlns="http://www.w3.org/2000/svg">
<path d="M18.4444 11.3062C18.4444 7.82453 15.6584 5 12.2222 5C8.78516 5 6 7.82453 6 11.3071C6 14.7914 8.78516 17.6141 12.2222 17.6141C12.728 17.6141 13.218 17.552 13.6887 17.4365C14.2192 18.4022 15.0016 19.1152 16.5429 18.9845C16.8615 18.9575 17.089 18.6769 17.089 18.3572C17.089 18.052 16.8802 17.7863 16.6022 17.6606C16.2171 17.4865 15.7093 17.1731 15.4912 16.6726C17.264 15.5622 18.4444 13.5733 18.4444 11.3062ZM14.5672 14.8561C13.9903 14.2408 13.1366 13.719 12.0665 13.6172C11.723 13.5845 11.4522 13.8756 11.4522 14.2207C11.4522 14.5698 11.735 14.8684 12.0466 15.0259C12.3466 15.1774 12.7088 15.456 13.0062 15.9674C12.7691 16.0374 12.5241 16.075 12.2694 16.075C10.5142 16.075 9.09229 14.3136 9.09229 12.141V10.5169C9.09229 8.34341 10.5142 6.58202 12.2694 6.58202C14.0247 6.58202 15.4484 8.34341 15.4484 10.5169L15.4475 12.1418C15.4475 13.1945 15.1115 14.1509 14.5672 14.8561Z" fill="black"/>
<path d="M0 7.42857V16.5714C0 20.6741 3.32588 24 7.42857 24H16.5714C20.6741 24 24 20.6741 24 16.5714V7.42857C24 3.32588 20.6741 0 16.5714 0H7.42857C3.32588 0 0 3.32588 0 7.42857ZM22.5 7.42857V16.5714C22.5 19.8457 19.8457 22.5 16.5714 22.5H7.42857C4.15431 22.5 1.5 19.8457 1.5 16.5714V7.42857C1.5 4.15431 4.15431 1.5 7.42857 1.5H16.5714C19.8457 1.5 22.5 4.15431 22.5 7.42857Z" fill="black"/>
</svg>
