<svg width="24" height="24" viewBox="0 0 24 24" fill="none" xmlns="http://www.w3.org/2000/svg">
<path d="M7.42857 1.5H16.5714C19.8457 1.5 22.5 4.15431 22.5 7.42857V16.5714C22.5 19.8457 19.8457 22.5 16.5714 22.5H7.42857C4.15431 22.5 1.5 19.8457 1.5 16.5714V7.42857C1.5 4.15431 4.15431 1.5 7.42857 1.5ZM0 7.42857V16.5714C0 20.6741 3.32588 24 7.42857 24H16.5714C20.6741 24 24 20.6741 24 16.5714V7.42857C24 3.32588 20.6741 0 16.5714 0H7.42857C3.32588 0 0 3.32588 0 7.42857ZM5.12342 9.75351C5.0555 10.6017 5 11.5642 5 12.4444C5 13.3247 5.0555 14.2871 5.12342 15.1354C5.23555 16.5358 6.36281 17.6162 7.76448 17.7109C9.08963 17.8005 10.7217 17.8889 12 17.8889C13.2783 17.8889 14.9104 17.8005 16.2355 17.7109C17.6372 17.6162 18.7645 16.5358 18.8766 15.1354C18.9445 14.2871 19 13.3247 19 12.4444C19 11.5642 18.9445 10.6017 18.8766 9.75351C18.7645 8.35313 17.6372 7.27273 16.2355 7.17799C14.9104 7.08843 13.2783 7 12 7C10.7217 7 9.08963 7.08843 7.76448 7.17799C6.36281 7.27273 5.23555 8.35313 5.12342 9.75351ZM10.4434 14.1214V10.7662C10.4434 10.3031 10.9457 10.0146 11.3457 10.2479L14.2216 11.9255C14.6185 12.157 14.6185 12.7305 14.2216 12.9621L11.3457 14.6397C10.9457 14.873 10.4434 14.5845 10.4434 14.1214Z" fill="black"/>
</svg>
