<svg width="24" height="24" viewBox="0 0 24 24" fill="none" xmlns="http://www.w3.org/2000/svg">
<path d="M7.42857 1.5H16.5714C19.8457 1.5 22.5 4.15431 22.5 7.42857V16.5714C22.5 19.8457 19.8457 22.5 16.5714 22.5H7.42857C4.15431 22.5 1.5 19.8457 1.5 16.5714V7.42857C1.5 4.15431 4.15431 1.5 7.42857 1.5ZM0 7.42857V16.5714C0 20.6741 3.32588 24 7.42857 24H16.5714C20.6741 24 24 20.6741 24 16.5714V7.42857C24 3.32588 20.6741 0 16.5714 0H7.42857C3.32588 0 0 3.32588 0 7.42857ZM14.0095 5.99995C14.0095 5.55812 13.6513 5.19995 13.2095 5.19995C12.7676 5.19995 12.4095 5.55812 12.4095 5.99995V14.9032C12.4095 16.1696 11.3795 17.2 10.1043 17.2C8.82923 17.2 7.79922 16.1696 7.79922 14.9032C7.79922 13.6367 8.82923 12.6064 10.1043 12.6064C10.5462 12.6064 10.9043 12.2482 10.9043 11.8064C10.9043 11.3646 10.5462 11.0064 10.1043 11.0064C7.94963 11.0064 6.19922 12.749 6.19922 14.9032C6.19922 17.0573 7.94963 18.8 10.1043 18.8C12.259 18.8 14.0095 17.0573 14.0095 14.9032V9.48384C14.7908 10.3368 15.8965 11.058 17.2849 11.058C17.7268 11.058 18.0849 10.6998 18.0849 10.258C18.0849 9.81619 17.7268 9.45802 17.2849 9.45802C16.3669 9.45802 15.5563 8.90546 14.9344 8.0998C14.6292 7.70455 14.3919 7.27458 14.233 6.88207C14.0687 6.4765 14.0095 6.16452 14.0095 5.99995Z" fill="black"/>
</svg>
