<svg width="24" height="24" viewBox="0 0 24 24" fill="none" xmlns="http://www.w3.org/2000/svg">
<path d="M7.42857 22.5C4.15431 22.5 1.5 19.8457 1.5 16.5714V7.42857C1.5 4.15431 4.15431 1.5 7.42857 1.5H16.5714C19.8457 1.5 22.5 4.15431 22.5 7.42857V16.5714C22.5 19.8457 19.8457 22.5 16.5714 22.5H7.42857ZM16.5714 24C20.6741 24 24 20.6741 24 16.5714V7.42857C24 3.32589 20.6741 0 16.5714 0H7.42857C3.32589 0 0 3.32589 0 7.42857V16.5714C0 20.6741 3.32589 24 7.42857 24H16.5714Z" fill="black"/>
<path d="M10.3487 18.4601C10.9456 18.7963 11.673 18.8036 12.2765 18.4795L17.2509 15.808C17.6474 15.5951 17.8528 15.1434 17.7527 14.7046L16.2776 8.2394C16.1134 7.51962 15.2526 7.21985 14.6768 7.68193L6.1533 14.522C5.60118 14.9651 5.67162 15.8258 6.28844 16.1732L10.3487 18.4601Z" fill="black"/>
<path d="M11.42 8.02077L12.2537 9.51553C12.4285 9.82905 12.8244 9.94145 13.1379 9.76659C13.4515 9.59173 13.5639 9.19582 13.389 8.8823L12.2598 6.85773C11.9035 6.21882 10.989 6.20553 10.6143 6.83382L5.94174 14.6675C5.75784 14.9758 5.8587 15.3748 6.16701 15.5587C6.47531 15.7426 6.87432 15.6418 7.05821 15.3335L11.42 8.02077Z" fill="black"/>
<path d="M7.36305 7.13394L8.87001 9.54357C9.06036 9.84794 9.4614 9.94037 9.76576 9.75002C10.0701 9.55967 10.1626 9.15863 9.97221 8.85426L7.86271 5.48117C7.36681 4.68822 6.14414 5.0136 6.10797 5.94816L5.75088 15.1749C5.737 15.5336 6.01654 15.8356 6.37526 15.8495C6.73397 15.8634 7.03602 15.5839 7.04991 15.2251L7.36305 7.13394Z" fill="black"/>
</svg>
