<svg width="24" height="24" viewBox="0 0 24 24" fill="none" xmlns="http://www.w3.org/2000/svg">
<path d="M7.42857 1.5H16.5714C19.8457 1.5 22.5 4.15431 22.5 7.42857V16.5714C22.5 19.8457 19.8457 22.5 16.5714 22.5H7.42857C4.15431 22.5 1.5 19.8457 1.5 16.5714V7.42857C1.5 4.15431 4.15431 1.5 7.42857 1.5ZM0 7.42857V16.5714C0 20.6741 3.32588 24 7.42857 24H16.5714C20.6741 24 24 20.6741 24 16.5714V7.42857C24 3.32588 20.6741 0 16.5714 0H7.42857C3.32588 0 0 3.32588 0 7.42857ZM15 18C16.6569 18 18 16.6569 18 15V9C18 7.34315 16.6569 6 15 6H9C7.34315 6 6 7.34315 6 9V15C6 16.6569 7.34315 18 9 18H15ZM14.666 8.66765C14.666 8.30025 14.9643 8.00198 15.3317 8C15.7011 8 16.0013 8.29827 15.9993 8.66765C15.9993 9.03506 15.7011 9.33333 15.3337 9.33333C14.9663 9.33333 14.666 9.03506 14.666 8.66765ZM13.2367 10.7623C12.5532 10.0789 11.4452 10.0789 10.7618 10.7623C10.0784 11.4457 10.0784 12.5537 10.7618 13.2371C11.4452 13.9206 12.5532 13.9206 13.2367 13.2371C13.9201 12.5537 13.9201 11.4457 13.2367 10.7623ZM9.84254 9.84303C11.0336 8.65193 12.9648 8.65193 14.1559 9.84303C15.347 11.0341 15.347 12.9653 14.1559 14.1564C12.9648 15.3475 11.0336 15.3475 9.84254 14.1564C8.65144 12.9653 8.65144 11.0341 9.84254 9.84303Z" fill="black"/>
</svg>
