<svg width="24" height="24" viewBox="0 0 24 24" fill="none" xmlns="http://www.w3.org/2000/svg">
<path d="M7.42857 1.5H16.5714C19.8457 1.5 22.5 4.15431 22.5 7.42857V16.5714C22.5 19.8457 19.8457 22.5 16.5714 22.5H7.42857C4.15431 22.5 1.5 19.8457 1.5 16.5714V7.42857C1.5 4.15431 4.15431 1.5 7.42857 1.5ZM0 7.42857V16.5714C0 20.6741 3.32588 24 7.42857 24H16.5714C20.6741 24 24 20.6741 24 16.5714V7.42857C24 3.32588 20.6741 0 16.5714 0H7.42857C3.32588 0 0 3.32588 0 7.42857ZM17 8H7C5.89543 8 5 8.89543 5 10V14.437C5 15.5415 5.89543 16.437 7 16.437H10.9087L13.5305 17.9006C13.8638 18.0867 14.2743 17.8457 14.2743 17.464V16.437H17C18.1046 16.437 19 15.5415 19 14.437V10C19 8.89543 18.1046 8 17 8ZM10.9875 10.4662C11.2532 10.6163 11.3469 10.9535 11.1967 11.2192C11.0349 11.5054 10.9149 12.0042 10.8431 12.5754C10.7738 13.1277 10.7579 13.6737 10.7644 14.0002C10.769 14.227 10.6344 14.4336 10.425 14.5211C10.2157 14.6086 9.97408 14.5592 9.81584 14.3966C9.50369 14.0758 9.26127 13.6596 9.07935 13.2647C9.03222 13.3619 8.98482 13.4563 8.93781 13.5458C8.81031 13.7885 8.66196 14.0419 8.5095 14.2117C8.44912 14.2789 8.30285 14.434 8.08143 14.4837C7.94397 14.5146 7.77976 14.5037 7.62702 14.4146C7.48728 14.3332 7.4093 14.2166 7.3672 14.1324C7.28941 13.9769 7.21986 13.7507 7.16025 13.5313C7.09683 13.298 7.03205 13.0233 6.97065 12.7427C6.8477 12.181 6.73394 11.5759 6.6665 11.1891C6.61409 10.8884 6.81535 10.6022 7.11603 10.5497C7.4167 10.4973 7.70294 10.6986 7.75535 10.9993C7.82083 11.3749 7.93161 11.9639 8.05035 12.5064C8.06804 12.5872 8.08582 12.6666 8.10355 12.7437C8.29755 12.3395 8.49154 11.8735 8.62605 11.5248C8.71424 11.2962 8.9424 11.153 9.18658 11.1729C9.43077 11.1929 9.63269 11.3712 9.68265 11.611C9.70624 11.7242 9.74598 11.881 9.80158 12.0608C9.88417 11.5706 10.0166 11.0609 10.2345 10.6753C10.3847 10.4096 10.7218 10.316 10.9875 10.4662ZM12.7763 12.0062C12.6592 12.1161 12.5422 12.3081 12.4876 12.5633C12.4329 12.8184 12.4611 13.0415 12.5229 13.1897C12.5857 13.3403 12.656 13.3648 12.6724 13.3683C12.6888 13.3718 12.7629 13.3783 12.8819 13.2666C12.999 13.1567 13.116 12.9647 13.1707 12.7095C13.2253 12.4543 13.1971 12.2312 13.1353 12.083C13.0725 11.9325 13.0022 11.908 12.9858 11.9045C12.9694 11.901 12.8953 11.8945 12.7763 12.0062ZM12.0199 11.2003C12.3188 10.9198 12.7466 10.7229 13.2172 10.8237C13.6879 10.9245 13.9976 11.2793 14.1554 11.6575C14.3142 12.0381 14.3472 12.4935 14.2514 12.9409C14.1556 13.3884 13.939 13.7903 13.6383 14.0725C13.3395 14.353 12.9116 14.5498 12.441 14.4491C11.9703 14.3483 11.6606 13.9935 11.5028 13.6153C11.344 13.2346 11.311 12.7793 11.4068 12.3318C11.5026 11.8844 11.7192 11.4825 12.0199 11.2003ZM15.7551 12.5633C15.7005 12.8184 15.7286 13.0415 15.7905 13.1897C15.8533 13.3403 15.9236 13.3648 15.94 13.3683C15.9564 13.3718 16.0305 13.3783 16.1495 13.2666C16.2666 13.1567 16.3836 12.9647 16.4382 12.7095C16.4929 12.4543 16.4647 12.2312 16.4029 12.083C16.3401 11.9325 16.2698 11.908 16.2534 11.9045C16.237 11.901 16.1629 11.8945 16.0439 12.0062C15.9268 12.1161 15.8098 12.3081 15.7551 12.5633ZM16.4848 10.8237C16.9555 10.9245 17.2652 11.2793 17.423 11.6575C17.5818 12.0381 17.6148 12.4935 17.519 12.9409C17.4232 13.3884 17.2066 13.7903 16.9059 14.0725C16.607 14.353 16.1792 14.5498 15.7085 14.4491C15.2379 14.3483 14.9282 13.9935 14.7704 13.6153C14.6116 13.2346 14.5785 12.7793 14.6744 12.3318C14.7702 11.8844 14.9868 11.4825 15.2875 11.2003C15.5863 10.9198 16.0141 10.7229 16.4848 10.8237Z" fill="black"/>
</svg>
