<svg width="24" height="24" viewBox="0 0 24 24" fill="none" xmlns="http://www.w3.org/2000/svg">
<path d="M7.42857 1.5H16.5714C19.8457 1.5 22.5 4.15431 22.5 7.42857V16.5714C22.5 19.8457 19.8457 22.5 16.5714 22.5H7.42857C4.15431 22.5 1.5 19.8457 1.5 16.5714V7.42857C1.5 4.15431 4.15431 1.5 7.42857 1.5ZM0 7.42857V16.5714C0 20.6741 3.32588 24 7.42857 24H16.5714C20.6741 24 24 20.6741 24 16.5714V7.42857C24 3.32588 20.6741 0 16.5714 0H7.42857C3.32588 0 0 3.32588 0 7.42857ZM7.20608 14.9674L6.50659 15.1926L6.1741 15.2995C6.51287 15.7114 6.87594 16.0894 7.32912 16.3981C7.97197 16.8359 8.82661 17.1527 10.0983 17.1527C12.3652 17.1527 14.0994 16.3773 15.2704 15.0998C16.4468 13.8164 17.0996 11.9771 17.0996 9.77514C17.0996 9.6709 17.1314 9.56915 17.1907 9.48346L18 8.31497H16.9288C16.7598 8.31497 16.6016 8.2316 16.5061 8.09214C16.267 7.74292 15.9872 7.47782 15.6337 7.29624C15.2784 7.11372 14.8182 7 14.1966 7C13.3126 7 12.6081 7.30251 12.1182 7.78437C11.6268 8.26767 11.3219 8.96063 11.2933 9.79273C11.288 9.94595 11.2144 10.0888 11.0927 10.1819C10.971 10.2751 10.8139 10.3089 10.6646 10.274C9.07869 9.90295 7.62731 8.7569 6.68008 7.4357C5.52098 9.53339 5.8274 12.1654 7.72332 14.0104C7.85209 14.1357 7.90579 14.3193 7.86485 14.4943C7.82391 14.6692 7.69427 14.81 7.52327 14.8651L7.20608 14.9674Z" fill="black"/>
</svg>
