<svg width="24" height="24" viewBox="0 0 24 24" fill="none" xmlns="http://www.w3.org/2000/svg">
<path d="M7.42857 1.5H16.5714C19.8457 1.5 22.5 4.15431 22.5 7.42857V16.5714C22.5 19.8457 19.8457 22.5 16.5714 22.5H7.42857C4.15431 22.5 1.5 19.8457 1.5 16.5714V7.42857C1.5 4.15431 4.15431 1.5 7.42857 1.5ZM0 7.42857V16.5714C0 20.6741 3.32588 24 7.42857 24H16.5714C20.6741 24 24 20.6741 24 16.5714V7.42857C24 3.32588 20.6741 0 16.5714 0H7.42857C3.32588 0 0 3.32588 0 7.42857ZM8.26315 12.9474C7.56553 12.9474 7 13.5129 7 14.2105V17.7473C7 17.8868 7.11311 17.9999 7.25263 17.9999C8.50834 17.9999 9.52629 16.982 9.52629 15.7263V14.2105C9.52629 13.5129 8.96076 12.9474 8.26315 12.9474ZM10.7894 10.4211V17.7474C10.7894 17.8869 10.9025 18 11.0421 18C12.2978 18 13.3157 16.982 13.3157 15.7263V10.4211C13.3157 9.72348 12.7502 9.15795 12.0526 9.15795C11.355 9.15795 10.7894 9.72348 10.7894 10.4211ZM15.842 6C15.1444 6 14.5789 6.56553 14.5789 7.26315V17.7473C14.5789 17.8868 14.692 17.9999 14.8315 17.9999C16.0872 17.9999 17.1052 16.9819 17.1052 15.7262V7.26315C17.1052 6.56553 16.5396 6 15.842 6Z" fill="black"/>
</svg>
