<svg width="24" height="24" viewBox="0 0 24 24" fill="none" xmlns="http://www.w3.org/2000/svg">
<path d="M7.42857 1.5H16.5714C19.8457 1.5 22.5 4.15431 22.5 7.42857V16.5714C22.5 19.8457 19.8457 22.5 16.5714 22.5H7.42857C4.15431 22.5 1.5 19.8457 1.5 16.5714V7.42857C1.5 4.15431 4.15431 1.5 7.42857 1.5ZM0 7.42857V16.5714C0 20.6741 3.32588 24 7.42857 24H16.5714C20.6741 24 24 20.6741 24 16.5714V7.42857C24 3.32588 20.6741 0 16.5714 0H7.42857C3.32588 0 0 3.32588 0 7.42857ZM18.994 8.80097C19.0771 6.97747 18.3986 6.04468 16.9601 6.00253C15.3322 5.95012 14.1448 6.71216 13.3982 8.28979C13.2175 8.67149 13.6312 9.05818 14.0535 9.05818C14.7655 9.05818 15.0797 9.45854 14.9959 10.2572C14.9536 10.7412 14.6394 11.4454 14.0535 12.3708C13.4665 13.2968 13.0261 13.7595 12.7334 13.7595C12.3561 13.7595 12.0105 13.0468 11.6959 11.6198C11.5904 11.2011 11.402 10.1316 11.13 8.4116C10.8783 6.81764 10.2076 6.07306 9.11854 6.17787C8.65746 6.22002 7.96519 6.63895 7.04367 7.43486C6.50318 7.92487 5.95552 8.41435 5.4015 8.90365C5.17664 9.10223 5.14424 9.44139 5.32818 9.67837C5.51357 9.91723 5.85288 9.96705 6.10525 9.80053C6.46345 9.56418 6.6811 9.44561 6.75793 9.44561C7.2387 9.44561 7.68781 10.1994 8.10694 11.7053C8.30595 12.4347 8.50478 13.164 8.70361 13.8933L8.79804 14.2397L9.23671 15.8486C9.80094 17.3553 10.4915 18.1082 11.3079 18.1082C12.6248 18.1082 14.2353 16.871 16.1387 14.3979C17.98 12.0293 18.9317 10.1637 18.994 8.80097Z" fill="black"/>
</svg>
