<svg width="24" height="24" viewBox="0 0 24 24" fill="none" xmlns="http://www.w3.org/2000/svg">
<path d="M16.5714 1.5C19.8457 1.5 22.5 4.15431 22.5 7.42857V16.5714C22.5 19.8457 19.8457 22.5 16.5714 22.5H7.42857C4.15431 22.5 1.5 19.8457 1.5 16.5714V7.42857C1.5 4.15431 4.15431 1.5 7.42857 1.5H16.5714ZM7.42857 0C3.32588 0 0 3.32588 0 7.42857V16.5714C0 20.6741 3.32588 24 7.42857 24H16.5714C20.6741 24 24 20.6741 24 16.5714V7.42857C24 3.32588 20.6741 0 16.5714 0H7.42857ZM9.81914 7.5667C8.64961 7.5667 7.57948 8.2815 6.9765 9.3301C5.7639 11.4356 6.66424 14.5466 7.84701 16.2578C8.42763 17.091 9.11179 18.0286 10.0196 17.9988C10.4223 17.9816 10.7087 17.8592 11.0049 17.7327C11.349 17.5857 11.7062 17.4331 12.2741 17.4331C12.8086 17.4331 13.148 17.5798 13.4742 17.7209C13.7886 17.8568 14.0908 17.9874 14.5436 17.9765C15.4812 17.9615 16.0767 17.1283 16.6491 16.2876C16.9071 15.9109 17.1064 15.5386 17.2544 15.2215C17.4808 14.7363 17.2002 14.1728 16.795 13.8229C16.3039 13.3988 15.7683 12.678 15.7562 11.5474C15.7491 10.7122 16.0758 10.086 16.4252 9.65625C16.7965 9.19947 16.9621 8.49547 16.4799 8.15773C15.7852 7.67108 15.0458 7.59561 14.73 7.57416C14.0244 7.51909 13.3897 7.76876 12.881 7.96887C12.5632 8.09385 12.2946 8.1995 12.0886 8.1995C11.8495 8.1995 11.5517 8.07695 11.2182 7.93972C10.7938 7.7651 10.3117 7.5667 9.81914 7.5667ZM13.2906 7.30163C14.0103 7.03366 14.7064 6.2041 14.8454 5.44875C14.9843 4.6934 14.5135 4.2983 13.7938 4.56627C13.0741 4.83423 12.378 5.6638 12.239 6.41915C12.1001 7.1745 12.5709 7.56959 13.2906 7.30163Z" fill="black"/>
</svg>
