<svg width="24" height="24" viewBox="0 0 24 24" fill="none" xmlns="http://www.w3.org/2000/svg">
<path d="M16.5714 22.5H7.42851C4.15425 22.5 1.49994 19.8457 1.49994 16.5714V7.42857C1.49994 4.15431 4.15425 1.5 7.42851 1.5H16.5714C19.8456 1.5 22.4999 4.15431 22.4999 7.42857V16.5714C22.4999 19.8457 19.8456 22.5 16.5714 22.5ZM23.9999 16.5714V7.42857C23.9999 3.32589 20.6741 0 16.5714 0H7.42851C3.32582 0 -6.10352e-05 3.32589 -6.10352e-05 7.42857V16.5714C-6.10352e-05 20.6741 3.32582 24 7.42851 24H16.5714C20.6741 24 23.9999 20.6741 23.9999 16.5714ZM14.23 18.5C15.3345 18.5 16.23 17.6046 16.23 16.5V7.5C16.23 6.39543 15.3345 5.5 14.23 5.5H9.77997C8.6754 5.5 7.77997 6.39543 7.77997 7.5V16.5C7.77997 17.6046 8.6754 18.5 9.77997 18.5H14.23ZM10.9942 11.1436L11.1062 10.545C10.6787 10.6279 10.3505 11.0072 10.3448 11.462C10.3385 11.9608 10.7226 12.3684 11.2098 12.3937C11.0484 12.1222 10.9572 11.8032 10.9615 11.462C10.963 11.3533 10.9744 11.247 10.9942 11.1436ZM12.1326 9.64224L12.1033 9.79885C12.3053 9.71854 12.5245 9.67389 12.7533 9.67389C13.7289 9.67389 14.5123 10.4761 14.4998 11.462C14.4873 12.4479 13.6834 13.25 12.708 13.25C12.6137 13.25 12.5212 13.2423 12.4311 13.2276C12.4122 13.2246 12.369 13.2177 12.3611 13.1988C12.3527 13.1783 12.3796 13.1581 12.3947 13.1477C12.6598 12.9647 12.8811 12.7208 13.0379 12.4359L13.0428 12.4268C13.0546 12.4047 13.0755 12.3658 13.1031 12.3359C13.1382 12.2981 13.1822 12.271 13.2026 12.2585L13.2063 12.2562C13.4714 12.0915 13.6508 11.7971 13.6551 11.462C13.6616 10.9468 13.2522 10.5277 12.7425 10.5277C12.2329 10.5277 11.8128 10.9468 11.8063 11.462C11.8036 11.6767 11.8738 11.8741 11.9928 12.032C12.1156 11.8741 12.1909 11.6767 12.1936 11.462C12.1936 11.4573 12.1936 11.452 12.1936 11.4463C12.1936 11.4406 12.1935 11.4344 12.1934 11.4278C12.1923 11.3245 12.19 11.1151 12.298 10.9727C12.4297 10.7986 12.7037 10.7708 12.8599 10.9115C12.9762 11.0163 13.0417 11.196 13.0384 11.462C13.0259 12.4479 12.2221 13.25 11.2464 13.25C10.271 13.25 9.48762 12.4479 9.50009 11.462C9.50139 11.3533 9.51304 11.247 9.53275 11.1436L9.9662 8.82654C9.97443 8.78277 9.9948 8.75024 10.0591 8.75C10.8688 8.80068 10.6712 9.64224 10.6712 9.64224L10.6419 9.79885C10.837 9.72127 11.0483 9.67798 11.2688 9.67501L11.4274 8.82726C11.4357 8.78309 11.4559 8.75032 11.5205 8.75C12.3302 8.80068 12.1326 9.64224 12.1326 9.64224ZM10.38 16.7444C10.38 16.3854 10.671 16.0944 11.03 16.0944H12.98C13.339 16.0944 13.63 16.3854 13.63 16.7444C13.63 17.1034 13.339 17.3944 12.98 17.3944H11.03C10.671 17.3944 10.38 17.1034 10.38 16.7444Z" fill="black"/>
</svg>
