<svg width="24" height="24" viewBox="0 0 24 24" fill="none" xmlns="http://www.w3.org/2000/svg">
<path d="M18.5 8.5C18.5 6.84315 17.1569 5.5 15.5 5.5H8.5C6.84315 5.5 5.5 6.84315 5.5 8.5V15.5C5.5 17.1569 6.84315 18.5 8.5 18.5H15.5C17.1569 18.5 18.5 17.1569 18.5 15.5V8.5ZM8.84961 14.8737V10.9585C8.84961 10.8481 8.93915 10.7585 9.04961 10.7585H9.94961C10.0601 10.7585 10.1496 10.8481 10.1496 10.9585V14.8737C10.1496 14.9842 10.0601 15.0737 9.94961 15.0737H9.04961C8.93915 15.0737 8.84961 14.9842 8.84961 14.8737ZM12.5422 12.7991V14.8737C12.5422 14.9842 12.4526 15.0737 12.3422 15.0737H11.4422C11.3317 15.0737 11.2422 14.9842 11.2422 14.8737V10.9585C11.2422 10.8481 11.3317 10.7585 11.4422 10.7585H12.3422C12.4526 10.7585 12.5422 10.8481 12.5422 10.9585V11.157C12.7423 10.9692 13.0162 10.8296 13.3913 10.7461C14.851 10.4884 15.43 11.4169 15.43 12.7849V14.874C15.43 14.9844 15.3405 15.074 15.23 15.074H14.2C14.0895 15.074 14 14.9844 14 14.874V12.7849C14 12.257 13.8279 11.8295 13.3 11.8295C12.7721 11.8295 12.5483 12.257 12.5483 12.7849L12.5422 12.7991ZM9.49668 8.5C9.91334 8.5 10.25 8.83333 10.25 9.24999C10.25 9.66331 9.91334 9.99998 9.50001 9.99998C9.08669 9.99998 8.75002 9.66331 8.75002 9.24999C8.74669 8.83666 9.08335 8.5 9.49668 8.5Z" fill="black"/>
<path d="M0 7.42857V16.5714C0 20.6741 3.32588 24 7.42857 24H16.5714C20.6741 24 24 20.6741 24 16.5714V7.42857C24 3.32588 20.6741 0 16.5714 0H7.42857C3.32588 0 0 3.32588 0 7.42857ZM7.42857 1.5H16.5714C19.8457 1.5 22.5 4.15431 22.5 7.42857V16.5714C22.5 19.8457 19.8457 22.5 16.5714 22.5H7.42857C4.15431 22.5 1.5 19.8457 1.5 16.5714V7.42857C1.5 4.15431 4.15431 1.5 7.42857 1.5Z" fill="black"/>
</svg>
