<svg width="24" height="24" viewBox="0 0 24 24" fill="none" xmlns="http://www.w3.org/2000/svg">
<path d="M16.5714 22.5H7.42857C4.15431 22.5 1.5 19.8457 1.5 16.5714V7.42857C1.5 4.15431 4.15431 1.5 7.42857 1.5H16.5714C19.8457 1.5 22.5 4.15431 22.5 7.42857V16.5714C22.5 19.8457 19.8457 22.5 16.5714 22.5ZM24 16.5714V7.42857C24 3.32589 20.6741 2.08956e-09 16.5714 1.44246e-09L7.42857 0C3.32588 -6.47105e-10 0 3.32589 0 7.42857V16.5714C0 20.6741 3.32588 24 7.42857 24H16.5714C20.6741 24 24 20.6741 24 16.5714ZM5.43798 9.65502C6.3006 8.70295 7.44294 8.19487 8.77029 8.19487H8.78024C10.8397 8.19806 13.0164 9.50494 13.7358 11.1695H13.7327C13.9905 11.6742 13.9305 12.1951 13.8477 12.5242C13.7557 12.8843 13.6194 13.0604 13.5612 13.1356C13.559 13.1385 13.5569 13.1412 13.5549 13.1438L13.5257 13.1819C13.4206 13.3128 13.437 13.5049 13.5611 13.6199C13.5834 13.6391 13.6184 13.6647 13.6662 13.6967L13.7489 13.7478C14.1531 14.0034 15.0667 14.2651 15.8944 14.2651C16.5278 14.2651 17.3552 14.1661 18.1319 13.3834C19.4369 12.0735 18.9338 10.2459 18.7492 9.71555C18.4341 8.81779 17.1262 5.83391 13.456 5.13104C13.0104 5.04478 12.5522 5 12.097 5C9.06988 5 6.49477 6.81479 5.43798 9.65502ZM5.02393 11.4571C4.77246 14.3836 6.53889 17.0094 8.63974 18.1851C8.94213 18.3544 9.90333 18.8403 11.2434 19C10.0593 18.4377 9.15861 17.4568 8.7448 16.182C8.05725 14.0638 8.92 11.8021 10.9413 10.4219L10.9444 10.425C11.25 10.2238 11.6224 10.1087 12.0044 10.1087H12.0074C12.0508 10.1087 12.0914 10.1087 12.1349 10.1149C11.2405 9.34814 9.9739 8.83704 8.78024 8.83384H8.77029C7.11508 8.83384 5.78787 9.76385 5.02393 11.4571ZM9.35283 15.9842C9.92897 17.7606 11.6131 18.885 13.6662 18.8914C15.2641 18.5336 16.6547 17.5971 17.8198 16.0859L17.8484 16.0479C17.9279 15.9297 17.9219 15.7728 17.8328 15.661C17.7405 15.5524 17.5878 15.5143 17.4573 15.5718L17.3044 15.6423C17.2551 15.6645 17.2098 15.6807 17.1593 15.6988C17.1446 15.7041 17.1294 15.7095 17.1135 15.7153C17.0403 15.7408 16.9575 15.7729 16.8493 15.8176C16.4387 15.9869 15.8277 16.0828 15.1719 16.0828C14.6213 16.0828 14.0833 16.0128 13.66 15.885C13.0615 15.7061 11.2371 15.1532 10.2854 13.0446C10.1676 12.7826 10.0882 12.4472 10.0914 12.083C9.2065 13.2236 8.91674 14.6392 9.35283 15.9842Z" fill="black"/>
</svg>
