<svg width="24" height="24" viewBox="0 0 24 24" fill="none" xmlns="http://www.w3.org/2000/svg">
<path d="M16.5714 1.5C19.8457 1.5 22.5 4.15431 22.5 7.42857V16.5714C22.5 19.8457 19.8457 22.5 16.5714 22.5H7.42857C4.15431 22.5 1.5 19.8457 1.5 16.5714V7.42857C1.5 4.15431 4.15431 1.5 7.42857 1.5H16.5714ZM7.42857 0C3.32588 0 0 3.32588 0 7.42857V16.5714C0 20.6741 3.32588 24 7.42857 24H16.5714C20.6741 24 24 20.6741 24 16.5714V7.42857C24 3.32588 20.6741 0 16.5714 0H7.42857ZM8.75958 12.7595L9.49473 16.2335C9.49859 16.2518 9.50323 16.2698 9.50864 16.2876C9.75318 17.0938 10.7636 17.3524 11.3664 16.7665L12.8326 15.34C12.8582 15.3151 12.8813 15.2887 12.9019 15.2609L15.1026 16.8867C15.4782 17.1643 16.015 16.9605 16.1123 16.5032L17.9875 7.66536C18.0784 7.23791 17.6587 6.88076 17.2512 7.03768L6.23488 11.2866C5.91039 11.4115 5.92601 11.8752 6.2576 11.9789L8.75958 12.7595ZM11.8491 14.4831L10.6914 15.6094L10.0285 12.4764L14.0183 10.6291C14.0183 10.6291 12.18 12.2877 11.2371 13.1391C10.9552 13.3933 10.9787 13.8406 11.284 14.0657L11.8491 14.4831Z" fill="black"/>
</svg>
