<svg width="24" height="24" viewBox="0 0 24 24" fill="none" xmlns="http://www.w3.org/2000/svg">
<path d="M7.42857 1.5H16.5714C19.8457 1.5 22.5 4.15431 22.5 7.42857V16.5714C22.5 19.8457 19.8457 22.5 16.5714 22.5H7.42857C4.15431 22.5 1.5 19.8457 1.5 16.5714V7.42857C1.5 4.15431 4.15431 1.5 7.42857 1.5ZM0 7.42857V16.5714C0 20.6741 3.32588 24 7.42857 24H16.5714C20.6741 24 24 20.6741 24 16.5714V7.42857C24 3.32588 20.6741 0 16.5714 0H7.42857C3.32588 0 0 3.32588 0 7.42857ZM7.31234 7.31051C7.13164 7.49121 6.96354 7.67975 6.80805 7.87503L8.33712 10.6685L11.3895 5.3963C9.90168 5.5334 8.45138 6.17147 7.31234 7.31051ZM5.90518 14.6142H9.01488L7.79826 12.3915C7.7602 12.341 7.73003 12.2856 7.70828 12.2271L6.0173 9.13789C5.19337 10.8607 5.156 12.8657 5.90518 14.6142ZM7.31234 16.689C8.38472 17.7613 9.733 18.3897 11.1287 18.5739L12.6685 15.9142H6.64737C6.84589 16.185 7.06754 16.4442 7.31234 16.689ZM16.6908 16.689C16.9179 16.4619 17.1251 16.2224 17.3123 15.9727L15.7245 13.2302L12.6139 18.6031C14.1016 18.466 15.5518 17.8279 16.6908 16.689ZM18.0532 9.28331H14.9416L18.0679 14.6832C18.8264 12.9674 18.8215 10.9958 18.0532 9.28331ZM11.3939 7.98331H17.2795C17.1009 7.74927 16.9047 7.5244 16.6908 7.31051C15.6185 6.23819 14.2703 5.60987 12.8747 5.42555L11.3939 7.98331Z" fill="black"/>
</svg>
