<svg width="24" height="24" viewBox="0 0 24 24" fill="none" xmlns="http://www.w3.org/2000/svg">
<path d="M7.42857 1.5H16.5714C19.8457 1.5 22.5 4.15431 22.5 7.42857V16.5714C22.5 19.8457 19.8457 22.5 16.5714 22.5H7.42857C4.15431 22.5 1.5 19.8457 1.5 16.5714V7.42857C1.5 4.15431 4.15431 1.5 7.42857 1.5ZM0 7.42857V16.5714C0 20.6741 3.32588 24 7.42857 24H16.5714C20.6741 24 24 20.6741 24 16.5714V7.42857C24 3.32588 20.6741 0 16.5714 0H7.42857C3.32588 0 0 3.32588 0 7.42857ZM16.9497 7.05026C14.2161 4.31658 9.78393 4.31658 7.05026 7.05026C4.31658 9.78391 4.31658 14.2161 7.05026 16.9497C9.78391 19.6834 14.2161 19.6834 16.9497 16.9497C19.6834 14.2161 19.6834 9.78393 16.9497 7.05026ZM12.4481 10.3498C11.0991 10.1904 9.64657 10.2526 8.41077 10.6182C8.06654 10.7201 7.70491 10.5236 7.60306 10.1794C7.5012 9.83514 7.69768 9.47351 8.04191 9.37165C9.48641 8.94423 11.123 8.88421 12.6006 9.05875C14.0691 9.23223 15.456 9.64657 16.3823 10.2324C16.6857 10.4243 16.7761 10.8258 16.5842 11.1292C16.3923 11.4326 15.9908 11.523 15.6874 11.3311C14.9834 10.8858 13.8061 10.5102 12.4481 10.3498ZM8.74198 12.6585C8.39924 12.7653 8.03483 12.5741 7.92804 12.2313C7.82125 11.8886 8.01251 11.5242 8.35525 11.4174C10.9024 10.6237 13.8898 11.18 15.5915 12.2746C15.8935 12.4688 15.9808 12.871 15.7866 13.1729C15.5924 13.4748 15.1902 13.5621 14.8883 13.3679C13.5059 12.4787 10.9171 11.9808 8.74198 12.6585ZM14.2222 15.1375C13.0031 14.406 11.353 14.0053 8.8686 14.5626C8.51833 14.6412 8.17066 14.421 8.09208 14.0707C8.01349 13.7204 8.23374 13.3728 8.58402 13.2942C11.3538 12.6728 13.3521 13.0994 14.891 14.0227C15.1989 14.2074 15.2987 14.6067 15.114 14.9145C14.9293 15.2224 14.53 15.3222 14.2222 15.1375Z" fill="black"/>
</svg>
