<svg width="24" height="24" viewBox="0 0 24 24" fill="none" xmlns="http://www.w3.org/2000/svg">
<path d="M16.5714 1.5C19.8457 1.5 22.5 4.15431 22.5 7.42857V16.5714C22.5 19.8457 19.8457 22.5 16.5714 22.5H7.42857C4.15431 22.5 1.5 19.8457 1.5 16.5714V7.42857C1.5 4.15431 4.15431 1.5 7.42857 1.5H16.5714ZM7.42857 0C3.32588 0 0 3.32588 0 7.42857V16.5714C0 20.6741 3.32588 24 7.42857 24H16.5714C20.6741 24 24 20.6741 24 16.5714V7.42857C24 3.32588 20.6741 0 16.5714 0H7.42857ZM18 15V9C18 7.34315 16.6569 6 15 6H9C7.34315 6 6 7.34315 6 9V15C6 16.6569 7.34315 18 9 18H11.1328V13.3996H10.1992V11.7996H11.1328V10.57C11.1328 9.15084 12.2837 8 13.7028 8H14.3328V9.6H13.7028C13.1673 9.6 12.7328 10.0345 12.7328 10.57V11.7996H14.3L13.8 13.3996H12.7328V18H15C16.6569 18 18 16.6569 18 15Z" fill="black"/>
</svg>
