<svg width="24" height="24" viewBox="0 0 24 24" fill="none" xmlns="http://www.w3.org/2000/svg">
<path d="M7.42857 1.5H16.5714C19.8457 1.5 22.5 4.15431 22.5 7.42857V16.5714C22.5 19.8457 19.8457 22.5 16.5714 22.5H7.42857C4.15431 22.5 1.5 19.8457 1.5 16.5714V7.42857C1.5 4.15431 4.15431 1.5 7.42857 1.5ZM0 7.42857V16.5714C0 20.6741 3.32588 24 7.42857 24H16.5714C20.6741 24 24 20.6741 24 16.5714V7.42857C24 3.32588 20.6741 0 16.5714 0H7.42857C3.32588 0 0 3.32588 0 7.42857ZM16.9497 7.05026C14.2161 4.31658 9.78393 4.31658 7.05026 7.05026C4.31658 9.78391 4.31658 14.2161 7.05026 16.9497C9.78391 19.6834 14.2161 19.6834 16.9497 16.9497C19.6834 14.2161 19.6834 9.78393 16.9497 7.05026ZM10.2372 14.4653C10.3264 14.083 10.8318 11.9 10.8318 11.9C10.8318 11.9 10.6845 11.5995 10.6845 11.1556C10.6845 10.4578 11.0809 9.93701 11.5743 9.93701C11.9947 9.93701 12.1971 10.2588 12.1971 10.6436C12.1971 10.9179 12.0878 11.2792 11.9727 11.6596L11.9727 11.6596L11.9727 11.6596C11.9073 11.8758 11.84 12.098 11.7899 12.314C11.6743 12.8134 12.0354 13.2208 12.518 13.2208C13.3929 13.2208 13.9822 12.0749 13.9822 10.7181C13.9822 9.68668 13.3007 8.91445 12.0612 8.91445C10.6605 8.91445 9.78866 9.97914 9.78866 11.1684C9.78866 11.5787 9.90664 11.8676 10.0929 12.0914C10.1779 12.1946 10.1899 12.2361 10.1588 12.354C10.1489 12.3927 10.1334 12.4557 10.1173 12.5209C10.0974 12.6017 10.0767 12.686 10.0647 12.7316C10.0342 12.851 9.93957 12.8934 9.83359 12.8498C9.18869 12.5808 8.88867 11.8612 8.88867 11.0515C8.88867 9.71414 9.99468 8.11108 12.1875 8.11108C13.9504 8.11108 15.1109 9.41116 15.1109 10.8072C15.1109 12.6537 14.1037 14.0335 12.6193 14.0335C12.121 14.0335 11.6522 13.7584 11.4917 13.4464C11.4917 13.4464 11.2234 14.5313 11.1672 14.7404C11.069 15.103 10.6437 15.9931 10.3424 15.8788C10.0411 15.7645 10.1545 14.8228 10.2372 14.4653Z" fill="black"/>
</svg>
