<svg width="24" height="24" viewBox="0 0 24 24" fill="none" xmlns="http://www.w3.org/2000/svg">
<path d="M7.42857 1.5H16.5714C19.8457 1.5 22.5 4.15431 22.5 7.42857V16.5714C22.5 19.8457 19.8457 22.5 16.5714 22.5H7.42857C4.15431 22.5 1.5 19.8457 1.5 16.5714V7.42857C1.5 4.15431 4.15431 1.5 7.42857 1.5ZM0 7.42857V16.5714C0 20.6741 3.32588 24 7.42857 24H16.5714C20.6741 24 24 20.6741 24 16.5714V7.42857C24 3.32588 20.6741 0 16.5714 0H7.42857C3.32588 0 0 3.32588 0 7.42857ZM12.1506 7.00359L11.9999 7C11.1412 7 10.3636 7.34816 9.80073 7.91102C9.23786 8.47389 8.88971 9.25145 8.88971 10.1102C8.88971 10.777 8.8831 11.3454 8.81739 11.8382L8.07661 11.2801C7.8663 11.1485 7.62199 11.1002 7.38756 11.132C7.16372 11.1624 6.94893 11.2658 6.78151 11.4391C6.6007 11.6264 6.51585 11.8706 6.53522 12.1209C6.55262 12.3458 6.65528 12.5812 6.86983 12.7756L7.93972 13.586C7.66439 13.8136 7.3116 14.0179 6.86369 14.2139L6.62559 14.3181C6.38632 14.4228 6.38585 14.7621 6.62481 14.8675L6.86262 14.9723C7.8241 15.3963 7.82829 15.4025 8.66768 16.6366L8.68648 16.6643C9.48805 16.6643 9.99859 16.9606 10.4558 17.2259C10.4663 17.232 10.4767 17.238 10.4871 17.244C10.9783 17.5289 11.4279 17.7688 11.9999 17.7688C12.572 17.7688 13.0216 17.5289 13.5128 17.244C13.5236 17.2378 13.5345 17.2315 13.5454 17.2251C14.0025 16.9599 14.5213 16.6587 15.6879 16.4269L15.6961 16.4096C16.1716 15.4025 16.1742 15.3971 17.1373 14.9723L17.3751 14.8674C17.6141 14.762 17.6136 14.4228 17.3743 14.3181L17.1362 14.2139C16.7123 14.0284 16.3735 13.8355 16.1049 13.6223L17.122 12.7695C17.3144 12.5901 17.4132 12.349 17.4175 12.1063C17.4216 11.8686 17.3351 11.6294 17.157 11.445C16.9734 11.2549 16.732 11.1519 16.4858 11.1389C16.2396 11.1259 15.9887 11.2028 15.7861 11.3725L15.187 11.8742C15.1168 11.3733 15.1102 10.7935 15.1102 10.1102C15.1102 9.25145 14.762 8.47389 14.1992 7.91102C13.6694 7.38127 12.9495 7.0417 12.1506 7.00359Z" fill="black"/>
</svg>
