<svg width="24" height="24" viewBox="0 0 24 24" fill="none" xmlns="http://www.w3.org/2000/svg">
<path d="M7.42857 1.5H16.5714C19.8457 1.5 22.5 4.15431 22.5 7.42857V16.5714C22.5 19.8457 19.8457 22.5 16.5714 22.5H7.42857C4.15431 22.5 1.5 19.8457 1.5 16.5714V7.42857C1.5 4.15431 4.15431 1.5 7.42857 1.5ZM0 7.42857V16.5714C0 20.6741 3.32588 24 7.42857 24H16.5714C20.6741 24 24 20.6741 24 16.5714V7.42857C24 3.32588 20.6741 0 16.5714 0H7.42857C3.32588 0 0 3.32588 0 7.42857ZM16.2518 7.74402C15.1238 6.62023 13.6237 6.00068 12.0257 6C8.73149 6 6.05135 8.6672 6.05066 11.9458C6.04939 12.9192 6.28856 13.8772 6.74591 14.7356C6.80892 14.8538 6.82763 14.9914 6.79209 15.1206L6.22973 17.1647C6.12762 17.5359 6.46566 17.8784 6.83813 17.7812L8.97636 17.2229C9.09907 17.1908 9.22896 17.2075 9.34239 17.2642C10.1735 17.6797 11.0911 17.897 12.0229 17.897H12.0257C15.3184 17.897 17.9986 15.2291 18 11.9505C18.0006 10.3621 17.3798 8.86848 16.2518 7.74402ZM10.8084 13.1931L10.8095 13.1946C9.69991 12.0841 8.99291 10.6794 9.82494 9.84332L10.0277 9.64053C10.2981 9.37015 10.7454 9.40826 10.963 9.72235C11.0997 9.91955 11.2476 10.1315 11.4128 10.3658C11.5846 10.6087 11.5581 10.9426 11.3487 11.1536L11.121 11.3828C11.301 11.6669 11.5322 11.9484 11.793 12.2092L11.794 12.2102C12.0552 12.4709 12.3363 12.7022 12.6204 12.8821L12.8497 12.6544C13.0606 12.445 13.394 12.4191 13.637 12.5898C13.8581 12.7453 14.0593 12.8855 14.2471 13.0164L14.2478 13.0168L14.282 13.0406C14.5951 13.2587 14.6327 13.7054 14.3628 13.9753L14.16 14.1781C13.3239 15.0106 11.918 14.3031 10.8084 13.1931Z" fill="black"/>
</svg>
