<svg width="24" height="24" viewBox="0 0 24 24" fill="none" xmlns="http://www.w3.org/2000/svg">
<path d="M7.42857 22.5C4.15431 22.5 1.5 19.8457 1.5 16.5714V7.42857C1.5 4.15431 4.15431 1.5 7.42857 1.5H16.5714C19.8457 1.5 22.5 4.15431 22.5 7.42857V16.5714C22.5 19.8457 19.8457 22.5 16.5714 22.5H7.42857ZM16.5714 24C20.6741 24 24 20.6741 24 16.5714V7.42857C24 3.32589 20.6741 0 16.5714 0H7.42857C3.32589 0 0 3.32589 0 7.42857V16.5714C0 20.6741 3.32589 24 7.42857 24H16.5714ZM11.8594 6.32566V6C11.8594 5.58579 11.5236 5.25 11.1094 5.25C10.6952 5.25 10.3594 5.58579 10.3594 6V7.23635C10.3427 8.13881 9.60566 8.86551 8.69922 8.86551C8.28501 8.86551 7.94922 9.2013 7.94922 9.61551C7.94922 10.0297 8.28501 10.3655 8.69922 10.3655H10.3594V15.6927C10.3594 17.382 11.7293 18.75 13.4167 18.75C14.3694 18.75 15.2342 18.3626 15.858 17.7389C16.1509 17.446 16.1509 16.9711 15.858 16.6782C15.5651 16.3853 15.0902 16.3853 14.7973 16.6782C14.4435 17.0321 13.9558 17.25 13.4167 17.25C12.5571 17.25 11.8594 16.553 11.8594 15.6927V10.3655H15.3279C15.7422 10.3655 16.0779 10.0297 16.0779 9.61551C16.0779 9.2013 15.7422 8.86551 15.3279 8.86551H11.8594V7.24824C11.8596 7.23387 11.8597 7.21948 11.8597 7.20507V6.34668C11.8597 6.33965 11.8596 6.33264 11.8594 6.32566Z" fill="black"/>
</svg>
