<svg width="24" height="24" viewBox="0 0 24 24" fill="none" xmlns="http://www.w3.org/2000/svg">
<path d="M7.42857 1.5H16.5714C19.8457 1.5 22.5 4.15431 22.5 7.42857V16.5714C22.5 19.8457 19.8457 22.5 16.5714 22.5H7.42857C4.15431 22.5 1.5 19.8457 1.5 16.5714V7.42857C1.5 4.15431 4.15431 1.5 7.42857 1.5ZM0 7.42857V16.5714C0 20.6741 3.32588 24 7.42857 24H16.5714C20.6741 24 24 20.6741 24 16.5714V7.42857C24 3.32588 20.6741 0 16.5714 0H7.42857C3.32588 0 0 3.32588 0 7.42857ZM8.934 8.99333L10.5479 9.58722C11.0037 9.47161 11.4913 9.40588 12 9.40588C12.5087 9.40588 12.9963 9.47161 13.4521 9.58801L15.066 8.99412C15.4253 8.86188 15.8072 9.12715 15.8173 9.51595L15.8578 11.0458C16.2544 11.5447 16.487 12.1243 16.487 12.7459C16.487 14.5173 15.2332 15.9521 13.6536 16.0646C14.3466 17.1494 14.3333 18.433 14.3333 18.433V19C15.1173 18.6745 16.606 17.9167 17.621 16.5334C18.4548 15.3971 19 13.8783 19 12.2732C19 10.1526 18.2004 8.47862 17.124 7.294C15.703 5.73167 13.7477 5 12 5C10.2523 5 8.297 5.73167 6.876 7.294C5.79956 8.47862 5 10.1526 5 12.2732C5 13.8775 5.54522 15.3971 6.379 16.5334C7.394 17.9167 8.88267 18.6745 9.66667 19V18.433C9.66667 18.433 9.65345 17.1494 10.3464 16.0646C8.76678 15.9521 7.513 14.5173 7.513 12.7459C7.513 12.1243 7.74478 11.5447 8.14222 11.0458L8.18267 9.51516C8.19278 9.12636 8.57467 8.86109 8.934 8.99333Z" fill="black"/>
</svg>
