<svg width="24" height="24" viewBox="0 0 24 24" fill="none" xmlns="http://www.w3.org/2000/svg">
<path d="M7.42857 1.5H16.5714C19.8457 1.5 22.5 4.15431 22.5 7.42857V16.5714C22.5 19.8457 19.8457 22.5 16.5714 22.5H7.42857C4.15431 22.5 1.5 19.8457 1.5 16.5714V7.42857C1.5 4.15431 4.15431 1.5 7.42857 1.5ZM0 7.42857V16.5714C0 20.6741 3.32588 24 7.42857 24H16.5714C20.6741 24 24 20.6741 24 16.5714V7.42857C24 3.32588 20.6741 0 16.5714 0H7.42857C3.32588 0 0 3.32588 0 7.42857ZM11.5531 13.6583C12.0896 13.616 12.5911 13.4111 12.9086 13.0041L15.3314 14.4468C15.4795 14.5362 15.6668 14.5263 15.7932 14.4035C15.9319 14.2806 15.9596 14.094 15.8746 13.9309L14.7462 11.7337C15.3146 11.1932 15.8095 10.577 16.1686 9.85898C16.7331 8.7202 16.9379 7.45176 16.7811 6.17805C16.7357 5.87837 16.6775 5.57832 16.5942 5.29067C16.5472 5.09064 16.3371 4.9627 16.1247 5.00975C15.8368 5.08066 15.549 5.17611 15.2606 5.28429C14.07 5.74104 13.0496 6.51198 12.3244 7.56138C11.8662 8.22817 11.5446 8.94653 11.3469 9.70411L8.86576 9.75637C8.69116 9.75392 8.53992 9.87639 8.50019 10.0505C8.44791 10.2242 8.52037 10.3873 8.68083 10.4892L11.1037 11.9319C10.8854 12.4025 10.9524 12.9391 11.17 13.4286C11.2426 13.5792 11.3909 13.6686 11.5531 13.6583ZM14.3 9.57121C13.7445 9.5508 13.3108 9.08399 13.3312 8.52857C13.3517 7.97314 13.8185 7.53943 14.3739 7.55985C14.9293 7.58026 15.363 8.04707 15.3426 8.60249C15.3222 9.15792 14.8554 9.59163 14.3 9.57121ZM9.05067 17.4651C8.98528 17.7273 9.30467 17.9108 9.49827 17.7223L12.9118 15.1154C13.0299 15.0005 12.9669 14.8003 12.8049 14.7705C11.9037 14.6047 10.4129 13.7816 9.93853 13.1109C9.83405 12.9632 9.59555 12.9974 9.55177 13.173L9.05067 17.4651ZM11.4838 7.10654C11.8971 7.0791 12.2099 6.72181 12.1825 6.30851C12.1551 5.89521 11.7978 5.5824 11.3845 5.60983C9.13746 5.75898 7.00037 6.99106 5.78825 9.09052C4.19433 11.8513 4.69806 15.2455 6.80222 17.4317C6.99472 17.6317 7.28195 17.7091 7.54884 17.6327C7.81574 17.5564 8.01864 17.3389 8.07626 17.0673L9.00679 12.6823C9.09277 12.2771 8.834 11.8789 8.42881 11.7929C8.02362 11.7069 7.62545 11.9657 7.53946 12.3709L6.96038 15.0998C6.13596 13.4953 6.11878 11.518 7.08728 9.84052C8.03865 8.19269 9.71495 7.22395 11.4838 7.10654ZM17.4082 9.32535C17.0365 9.50824 16.8835 9.95779 17.0664 10.3294C17.8492 11.92 17.8483 13.8561 16.897 15.504C15.9285 17.1815 14.2075 18.1552 12.4057 18.2435L14.4795 16.3775C14.7874 16.1005 14.8124 15.6263 14.5354 15.3184C14.2583 15.0104 13.7841 14.9854 13.4762 15.2625L10.1439 18.2609C9.93751 18.4466 9.85059 18.731 9.91793 19.0003C9.98527 19.2696 10.1958 19.4797 10.4653 19.5464C13.4107 20.2756 16.6021 19.0147 18.196 16.254C19.4081 14.1545 19.4066 11.6877 18.4122 9.66712C18.2294 9.29547 17.7798 9.14245 17.4082 9.32535Z" fill="black"/>
</svg>
