<svg width="24" height="24" viewBox="0 0 24 24" fill="none" xmlns="http://www.w3.org/2000/svg">
<path d="M7.42857 1.5H16.5714C19.8457 1.5 22.5 4.15431 22.5 7.42857V16.5714C22.5 19.8457 19.8457 22.5 16.5714 22.5H7.42857C4.15431 22.5 1.5 19.8457 1.5 16.5714V7.42857C1.5 4.15431 4.15431 1.5 7.42857 1.5ZM0 7.42857V16.5714C0 20.6741 3.32588 24 7.42857 24H16.5714C20.6741 24 24 20.6741 24 16.5714V7.42857C24 3.32588 20.6741 0 16.5714 0H7.42857C3.32588 0 0 3.32588 0 7.42857ZM8.26667 6H6.4C6.17909 6 6 6.17909 6 6.4V17.6C6 17.8209 6.17909 18 6.4 18H8.26667C8.48758 18 8.66667 17.8209 8.66667 17.6V6.4C8.66667 6.17909 8.48758 6 8.26667 6ZM18 8.26667V6.4C18 6.17909 17.8209 6 17.6 6H10.4C10.1791 6 10 6.17909 10 6.4V8.26667C10 8.48758 10.1791 8.66667 10.4 8.66667H17.6C17.8209 8.66667 18 8.48758 18 8.26667ZM18 11.0665C18 10.8456 17.8209 10.6665 17.6 10.6665H10.4C10.1791 10.6665 10 10.8456 10 11.0665V12.9332C10 13.1541 10.1791 13.3332 10.4 13.3332H17.6C17.8209 13.3332 18 13.1541 18 12.9332V11.0665ZM18 17.6V15.7333C18 15.5124 17.8209 15.3333 17.6 15.3333H10.4C10.1791 15.3333 10 15.5124 10 15.7333V17.6C10 17.8209 10.1791 18 10.4 18H17.6C17.8209 18 18 17.8209 18 17.6Z" fill="black"/>
</svg>
