<svg width="24" height="24" viewBox="0 0 24 24" fill="none" xmlns="http://www.w3.org/2000/svg">
<path d="M7.42857 1.5H16.5714C19.8457 1.5 22.5 4.15431 22.5 7.42857V16.5714C22.5 19.8457 19.8457 22.5 16.5714 22.5H7.42857C4.15431 22.5 1.5 19.8457 1.5 16.5714V7.42857C1.5 4.15431 4.15431 1.5 7.42857 1.5ZM0 7.42857V16.5714C0 20.6741 3.32588 24 7.42857 24H16.5714C20.6741 24 24 20.6741 24 16.5714V7.42857C24 3.32588 20.6741 0 16.5714 0H7.42857C3.32588 0 0 3.32588 0 7.42857ZM12.4896 5.18113C12.2159 4.93959 11.8051 4.93959 11.5314 5.18113L6.47056 9.64657C6.42166 9.68973 6.38007 9.73784 6.34581 9.78942C6.13836 9.91678 6 10.1457 6 10.407V13.5933C6 13.8547 6.13854 14.0838 6.3462 14.2111C6.38039 14.2625 6.42185 14.3104 6.47056 14.3534L11.5314 18.8188C11.8051 19.0603 12.2159 19.0603 12.4896 18.8188L17.5505 14.3534C17.5992 14.3104 17.6406 14.2625 17.6748 14.2112C17.8825 14.0839 18.0211 13.8548 18.0211 13.5933V10.407C18.0211 10.1457 17.8827 9.91673 17.6752 9.78938C17.6409 9.73781 17.5994 9.68972 17.5505 9.64657L12.4896 5.18113ZM16.1141 12L16.5728 11.5953V12.4047L16.1141 12ZM7.44832 12.4046V11.5953L7.90694 12L7.44832 12.4046ZM8.04421 13.8104L9.00146 12.9657L11.2864 14.9818V16.6711L8.04421 13.8104ZM12.7347 16.6711V14.9818L15.0196 12.9657L15.9768 13.8104L12.7347 16.6711ZM12.0105 13.6893L10.096 12L12.0105 10.3107L13.925 12L12.0105 13.6893ZM9.00146 11.0342L8.04421 10.1896L11.2864 7.32886V9.01814L9.00146 11.0342ZM15.0196 11.0342L12.7347 9.01813V7.32885L15.9768 10.1896L15.0196 11.0342Z" fill="black"/>
</svg>
