<svg width="24" height="24" viewBox="0 0 24 24" fill="none" xmlns="http://www.w3.org/2000/svg">
<path d="M7.42857 1.5H16.5714C19.8457 1.5 22.5 4.15431 22.5 7.42857V16.5714C22.5 19.8457 19.8457 22.5 16.5714 22.5H7.42857C4.15431 22.5 1.5 19.8457 1.5 16.5714V7.42857C1.5 4.15431 4.15431 1.5 7.42857 1.5ZM0 7.42857V16.5714C0 20.6741 3.32588 24 7.42857 24H16.5714C20.6741 24 24 20.6741 24 16.5714V7.42857C24 3.32588 20.6741 0 16.5714 0H7.42857C3.32588 0 0 3.32588 0 7.42857ZM19 11.9984C19 8.13367 15.8663 5 12.0016 5C8.13444 5 5 8.13444 5 12.0016C5 15.8663 8.13367 19 11.9984 19H12.0016C15.8663 19 19 15.8663 19 12.0016V11.9984ZM7.95508 11.9893C7.95305 11.0093 8.74537 10.214 9.72537 10.2109H9.73044C10.7104 10.2109 11.5058 11.0063 11.5058 11.9863C11.5058 12.9663 10.7115 13.7606 9.73146 13.7617C8.75247 13.7627 7.95711 12.9693 7.95508 11.9893ZM14.3406 10.2109H14.3457C15.3257 10.2109 16.121 11.0063 16.121 11.9863C16.121 12.9663 15.3267 13.7606 14.3467 13.7617C13.3677 13.7627 12.5723 12.9693 12.5703 11.9893C12.5683 11.0093 13.3606 10.214 14.3406 10.2109Z" fill="black"/>
</svg>
