<svg width="24" height="24" viewBox="0 0 24 24" fill="none" xmlns="http://www.w3.org/2000/svg">
<path d="M7.42857 1.5H16.5714C19.8457 1.5 22.5 4.15431 22.5 7.42857V16.5714C22.5 19.8457 19.8457 22.5 16.5714 22.5H7.42857C4.15431 22.5 1.5 19.8457 1.5 16.5714V7.42857C1.5 4.15431 4.15431 1.5 7.42857 1.5ZM0 7.42857V16.5714C0 20.6741 3.32588 24 7.42857 24H16.5714C20.6741 24 24 20.6741 24 16.5714V7.42857C24 3.32588 20.6741 0 16.5714 0H7.42857C3.32588 0 0 3.32588 0 7.42857ZM17.0505 9.23063C17.0578 9.22633 17.0611 9.21739 17.0581 9.20939C17.0548 9.20027 17.0447 9.19558 17.0356 9.19892L16.6839 9.33103C13.186 10.6786 10.2409 12.8215 7.84865 15.7597L6.06613 13.4541C6.05633 13.4415 6.03946 13.4366 6.02439 13.442C6.00521 13.4489 5.99528 13.4701 6.0022 13.4892L7.58655 17.8781C7.60084 17.9177 7.62823 17.9512 7.66418 17.9731C7.75125 18.0261 7.86478 17.9984 7.91779 17.9114C9.43537 15.4178 11.1389 13.4122 13.0283 11.8945C13.9794 11.1305 15.3202 10.2425 17.0505 9.23063ZM16.9498 12.7291C16.94 12.6502 16.8687 12.5937 16.7896 12.6021L16.7888 12.6022C16.7106 12.6111 16.6544 12.6816 16.6633 12.7598L17.0022 15.7542C17.0028 15.7589 17.003 15.7636 17.003 15.7683C17.0027 15.8346 16.9487 15.8881 16.8824 15.8878L9.63587 15.8545C9.54755 15.9725 9.45978 16.0919 9.37255 16.2127L17.0501 16.3154C17.0638 16.3156 17.0774 16.3148 17.091 16.3131C17.2554 16.2928 17.3723 16.1429 17.3519 15.9785L16.9498 12.7291ZM16.1254 12.0844C16.117 12.0057 16.0463 11.9487 15.9677 11.9572C15.8886 11.9656 15.831 12.036 15.8383 12.1151L16.0898 14.8374L16.0902 14.8457C16.0917 14.912 16.0392 14.9669 15.9729 14.9684L10.2268 15.0968C10.1303 15.2155 10.0344 15.3359 9.93909 15.4579L16.1477 15.4002C16.1574 15.4001 16.1671 15.3995 16.1768 15.3985C16.3415 15.3809 16.4609 15.2331 16.4433 15.0683L16.1254 12.0844ZM13.6132 7.73828C13.6079 7.61042 13.5891 7.48343 13.5572 7.35942C13.3074 6.38934 12.3246 5.80693 11.3619 6.05858L11.0535 6.13919L10.9988 6.15423C10.0185 6.43654 9.33888 7.34044 9.33888 8.37241L9.33881 9.10207L8.35099 9.31894C8.03047 9.38927 7.79483 9.66272 7.77263 9.99011L7.4544 14.6852L7.81872 15.1245L7.87994 15.0603C7.93608 15.002 7.99235 14.944 8.04876 14.8863L8.04863 12.9729L8.05244 12.8806C8.09286 12.3934 8.45079 11.9853 8.93726 11.8873L9.17751 11.8397L9.10634 11.8228C8.75835 11.7193 8.53215 11.3357 8.59037 10.9182C8.6458 10.5208 8.94075 10.2244 9.28205 10.1945L9.35583 10.1922L9.4306 10.1985L9.50419 10.2132C9.86416 10.3072 10.1008 10.6979 10.0414 11.1237C10.0018 11.4076 9.84002 11.64 9.62641 11.7605L9.6488 11.7587L9.74225 11.7591C10.1801 11.78 10.5708 12.0611 10.7251 12.4773C10.8094 12.411 10.8941 12.3454 10.979 12.2804L10.9792 11.8384L10.9833 11.7427C11.0242 11.2688 11.3656 10.8691 11.8358 10.7597L11.9567 10.7312L11.8935 10.7264L11.8238 10.7122C11.5289 10.6328 11.3283 10.3289 11.3432 9.98419L11.3506 9.90399L11.3654 9.82487C11.4515 9.46352 11.765 9.21715 12.0974 9.26423C12.4536 9.31467 12.6967 9.68288 12.6404 10.0867L12.6236 10.1735C12.5744 10.3714 12.4569 10.5341 12.3058 10.6319L12.24 10.6686L12.2567 10.6659C12.5342 10.6273 12.8053 10.7113 13.0086 10.8805C13.1264 10.8078 13.2447 10.7362 13.3634 10.6658L13.3645 10.6553C13.3973 10.2765 13.6237 9.94554 13.9544 9.77445C13.6884 9.69139 13.5164 9.39573 13.5612 9.07432C13.604 8.76813 13.8294 8.53905 14.0916 8.51214L14.1528 8.50957L14.2148 8.51453L14.2757 8.52699C14.5536 8.60176 14.7358 8.90441 14.6898 9.23415C14.6647 9.41423 14.5764 9.56764 14.4545 9.66893C14.6036 9.68688 14.7417 9.7535 14.8482 9.8559C14.9719 9.79417 15.096 9.73359 15.2207 9.67418L15.177 8.70512C15.1751 8.66322 15.1696 8.62157 15.1606 8.58061C15.0732 8.18234 14.6795 7.93032 14.2812 8.01771L13.6147 8.16407L13.6148 7.81507L13.6132 7.73828ZM15.5898 14.3026L15.2735 10.641L15.0237 10.8041L14.8116 10.9443L14.7081 11.0137L14.5059 11.1507C14.4396 11.1961 14.3744 11.241 14.3103 11.2857L14.1213 11.4185L13.9388 11.5492L13.763 11.6778L13.5938 11.8042L13.4312 11.9285L13.2751 12.0507L13.1996 12.1109C12.2591 12.8664 11.3645 13.7454 10.5161 14.748L15.2984 14.6284L15.3166 14.6274C15.4818 14.6131 15.604 14.4677 15.5898 14.3026ZM11.5918 6.95187L11.6313 6.9425C12.0915 6.84424 12.5514 7.12766 12.6707 7.59115C12.6895 7.66428 12.699 7.73952 12.699 7.81507L12.6989 8.36451L10.2546 8.90103L10.2547 8.37241L10.2555 8.32406C10.2765 7.71377 10.6932 7.18677 11.2835 7.03247L11.5918 6.95187Z" fill="black"/>
</svg>
