<svg width="24" height="24" viewBox="0 0 24 24" fill="none" xmlns="http://www.w3.org/2000/svg">
<path d="M7.42857 22.5C4.15431 22.5 1.5 19.8457 1.5 16.5714V7.42857C1.5 4.15431 4.15431 1.5 7.42857 1.5H16.5714C19.8457 1.5 22.5 4.15431 22.5 7.42857V16.5714C22.5 19.8457 19.8457 22.5 16.5714 22.5H7.42857ZM16.5714 24C20.6741 24 24 20.6741 24 16.5714V7.42857C24 3.32588 20.6741 0 16.5714 0H7.42857C3.32588 0 0 3.32588 0 7.42857V16.5714C0 20.6741 3.32588 24 7.42857 24H16.5714ZM13.0617 8.29981H6.87943C6.39373 8.29981 6 8.69354 6 9.17923V13.328C6 14.6463 7.06871 15.715 8.38702 15.715H14.5693C15.055 15.715 15.4487 15.3213 15.4487 14.8356V10.6868C15.4487 9.36851 14.38 8.29981 13.0617 8.29981ZM17.1836 15.0977C17.2676 15.1488 17.364 15.1758 17.4622 15.1758C17.7584 15.1758 17.9985 14.9357 17.9985 14.6395V9.52755C17.9985 9.42325 17.9681 9.3212 17.911 9.23392C17.7488 8.98608 17.4164 8.91664 17.1686 9.0788L16.152 9.74398C16.0105 9.83661 15.9253 9.99455 15.9258 10.1637L15.9363 14.0597C15.9368 14.2338 16.0278 14.3951 16.1766 14.4855L17.1836 15.0977Z" fill="black"/>
</svg>
