<svg width="24" height="24" viewBox="0 0 24 24" fill="none" xmlns="http://www.w3.org/2000/svg">
<path d="M7.42857 1.5H16.5714C19.8457 1.5 22.5 4.15431 22.5 7.42857V16.5714C22.5 19.8457 19.8457 22.5 16.5714 22.5H7.42857C4.15431 22.5 1.5 19.8457 1.5 16.5714V7.42857C1.5 4.15431 4.15431 1.5 7.42857 1.5ZM0 7.42857V16.5714C0 20.6741 3.32588 24 7.42857 24H16.5714C20.6741 24 24 20.6741 24 16.5714V7.42857C24 3.32588 20.6741 0 16.5714 0H7.42857C3.32588 0 0 3.32588 0 7.42857ZM6.05448 15.116C6.08104 14.8952 5.92359 14.6947 5.7028 14.6682C5.482 14.6416 5.28148 14.799 5.25492 15.0198C5.04764 16.7427 6.29141 18.225 8.02409 18.32C8.24613 18.3322 8.43602 18.162 8.44819 17.94C8.46037 17.7179 8.29024 17.5281 8.06819 17.5159C6.80014 17.4463 5.90278 16.3769 6.05448 15.116ZM10.3853 6.25768L10.3306 6.20147C10.0828 5.97451 9.69882 5.96432 9.43863 6.18959C9.15842 6.43219 9.12793 6.85601 9.37054 7.13622L11.6393 9.75565C11.7872 10.0529 11.5436 10.2796 11.2522 10.061L8.22658 6.68294L8.171 6.62765C7.91945 6.40489 7.5353 6.40116 7.27894 6.63078C7.00285 6.87806 6.9795 7.30234 7.22678 7.57843L10.308 11.0197C10.3228 11.0408 10.3395 11.0609 10.3583 11.0798C10.7605 11.4853 10.4529 11.9906 10.092 11.7316L7.5922 8.92107L7.53681 8.8656C7.286 8.64199 6.90187 8.63696 6.64473 8.86572C6.36781 9.11207 6.34303 9.53626 6.58938 9.81318L9.86103 13.4907L9.84698 13.4676C10.0902 13.8205 9.72759 14.1932 9.3801 13.9076L7.81017 12.1417L7.75478 12.0862C7.50397 11.8626 7.11985 11.8575 6.86271 12.0863C6.58579 12.3326 6.561 12.7568 6.80735 13.0338L9.79707 16.3951C11.826 18.89 13.9256 19.1052 16.3877 16.5226C17.3203 15.4712 17.6636 14.1136 17.6037 12.5227C17.5897 12.1486 17.5549 11.7841 17.5004 11.3899L17.33 10.3026L17.3203 10.227C17.1862 9.41982 16.8489 9.02408 16.3083 9.03982C16.2529 9.04152 16.2041 9.07704 16.1857 9.1293L15.2279 11.8405L12.8483 9.09909L12.8451 9.09905L10.3853 6.25768ZM7.41099 15.1902C7.43755 14.9694 7.2801 14.7689 7.05931 14.7424C6.83852 14.7158 6.638 14.8732 6.61143 15.094C6.49389 16.071 7.20238 16.9153 8.18488 16.9692C8.40693 16.9814 8.59681 16.8112 8.60899 16.5892C8.62117 16.3671 8.45103 16.1773 8.22898 16.1651C7.71112 16.1367 7.34903 15.7052 7.41099 15.1902ZM14.7341 8.72742C14.9532 8.7655 15.1617 8.61876 15.1998 8.39966C15.3683 7.43022 14.705 6.54996 13.7267 6.44472C13.5056 6.42094 13.307 6.5809 13.2832 6.80201C13.2595 7.02312 13.4194 7.22164 13.6405 7.24543C14.1562 7.3009 14.4952 7.75077 14.4064 8.26175C14.3683 8.48085 14.515 8.68933 14.7341 8.72742ZM16.0865 8.87461C16.3056 8.91269 16.5141 8.76595 16.5522 8.54685C16.8493 6.8372 15.6848 5.29188 13.9595 5.10629C13.7384 5.0825 13.5399 5.24247 13.5161 5.46357C13.4923 5.68468 13.6523 5.88321 13.8734 5.90699C15.136 6.04281 15.9762 7.15775 15.7587 8.40894C15.7207 8.62804 15.8674 8.83653 16.0865 8.87461Z" fill="black"/>
</svg>
