<svg width="24" height="24" viewBox="0 0 24 24" fill="none" xmlns="http://www.w3.org/2000/svg">
<path d="M16.5714 1.5C19.8457 1.5 22.5 4.15431 22.5 7.42857V16.5714C22.5 19.8457 19.8457 22.5 16.5714 22.5H7.42857C4.15431 22.5 1.5 19.8457 1.5 16.5714V7.42857C1.5 4.15431 4.15431 1.5 7.42857 1.5H16.5714ZM7.42857 0C3.32588 0 0 3.32588 0 7.42857V16.5714C0 20.6741 3.32588 24 7.42857 24H16.5714C20.6741 24 24 20.6741 24 16.5714V7.42857C24 3.32588 20.6741 0 16.5714 0H7.42857ZM9.33331 7.33345C8.22874 7.33345 7.33331 8.22888 7.33331 9.33345V16C7.33331 17.1046 8.22874 18 9.33331 18H15.9999C17.1045 18 17.9999 17.1046 17.9999 16V9.33345C17.9999 8.22888 17.1045 7.33345 15.9999 7.33345H9.33331ZM11.1302 15.3334H10.4999C10.2238 15.3334 9.99994 15.1096 9.99994 14.8334V11.3756C9.99994 10.616 10.6158 10.0001 11.3754 10.0001H13.4669C14.4529 10.0001 15.2523 10.7995 15.2523 11.7855C15.2523 12.031 15.2016 12.2739 15.1035 12.499C14.8533 13.0728 14.6127 13.4944 14.3816 13.7638L14.8527 14.5845C15.044 14.9178 14.8034 15.3334 14.419 15.3334H13.9525C13.7632 15.3334 13.5901 15.2265 13.5054 15.0571L12.769 13.5852C12.6888 13.4249 12.7682 13.2329 12.923 13.1426C13.1698 12.9986 13.3625 12.8034 13.501 12.5569C13.7373 12.1363 13.5879 11.6037 13.1673 11.3674C13.0366 11.294 12.8893 11.2555 12.7394 11.2555H12.3179C11.9381 11.2555 11.6302 11.5634 11.6302 11.9432V14.8334C11.6302 15.1096 11.4063 15.3334 11.1302 15.3334ZM6.64998 8.35293C6.64998 7.41243 7.4124 6.65001 8.3529 6.65001H12.3909C12.7498 6.65001 13.0409 6.35899 13.0409 6.00001C13.0409 5.64102 12.7498 5.35001 12.3909 5.35001H8.3529C6.69443 5.35001 5.34998 6.69446 5.34998 8.35293V12.3137C5.34998 12.6727 5.64099 12.9637 5.99998 12.9637C6.35896 12.9637 6.64998 12.6727 6.64998 12.3137V8.35293Z" fill="black"/>
</svg>
