<svg width="24" height="24" viewBox="0 0 24 24" fill="none" xmlns="http://www.w3.org/2000/svg">
<path d="M7.42857 1.5H16.5714C19.8457 1.5 22.5 4.15431 22.5 7.42857V16.5714C22.5 19.8457 19.8457 22.5 16.5714 22.5H7.42857C4.15431 22.5 1.5 19.8457 1.5 16.5714V7.42857C1.5 4.15431 4.15431 1.5 7.42857 1.5ZM0 7.42857V16.5714C0 20.6741 3.32588 24 7.42857 24H16.5714C20.6741 24 24 20.6741 24 16.5714V7.42857C24 3.32588 20.6741 0 16.5714 0H7.42857C3.32588 0 0 3.32588 0 7.42857ZM4 8.5C4 9.05228 4.44772 9.5 5 9.5C5.99408 9.5 6.79994 10.3059 6.79994 11.2999V15.4999C6.79994 16.0521 7.24766 16.4999 7.79994 16.4999C8.35223 16.4999 8.79994 16.0521 8.79994 15.4999V11.2999C8.79994 10.3059 9.60664 9.5 10.6007 9.5C11.5861 9.5 12.3865 10.2918 12.4005 11.2738L12.4004 11.2999V15.4999C12.4004 16.0436 12.8344 16.486 13.3749 16.4995C13.3833 16.4997 13.3919 16.4999 13.4004 16.4999H13.4007C13.9529 16.4999 14.4007 16.0521 14.4007 15.4999V11.2999L14.4006 11.2738C14.4146 10.2918 15.215 9.5 16.2003 9.5C17.1944 9.5 18.0003 10.3059 18.0003 11.2999V15.4999C18.0003 16.0521 18.448 16.4999 19.0003 16.4999C19.5526 16.4999 20.0003 16.0521 20.0003 15.4999V11.2999C20.0003 9.20129 18.299 7.5 16.2003 7.5C15.0923 7.5 14.0951 7.97421 13.4005 8.73074C12.7059 7.97421 11.7087 7.5 10.6007 7.5C9.49256 7.5 8.49496 7.97436 7.80013 8.7311C7.48392 8.3866 7.10497 8.10062 6.68137 7.89128C6.17449 7.64077 5.60368 7.5 5 7.5C4.44772 7.5 4 7.94772 4 8.5Z" fill="black"/>
</svg>
