<svg width="24" height="24" viewBox="0 0 24 24" fill="none" xmlns="http://www.w3.org/2000/svg">
<path d="M16.5714 1.5C19.8457 1.5 22.5 4.15431 22.5 7.42857V16.5714C22.5 19.8457 19.8457 22.5 16.5714 22.5H7.42857C4.15431 22.5 1.5 19.8457 1.5 16.5714V7.42857C1.5 4.15431 4.15431 1.5 7.42857 1.5H16.5714ZM7.42857 0C3.32588 0 0 3.32588 0 7.42857V16.5714C0 20.6741 3.32588 24 7.42857 24H16.5714C20.6741 24 24 20.6741 24 16.5714V7.42857C24 3.32588 20.6741 0 16.5714 0H7.42857ZM8.68719 8.3299H8C6.89543 8.3299 6 9.22532 6 10.3299V15.6632C6 16.7678 6.89543 17.6632 8 17.6632H16C17.1046 17.6632 18 16.7678 18 15.6632V10.3299C18 9.22533 17.1046 8.3299 16 8.3299H15.3128C15.2357 6.85344 14.0142 5.67999 12.5185 5.67999H11.4815C9.98583 5.67999 8.76426 6.85344 8.68719 8.3299ZM9.99057 8.3299C10.065 7.57208 10.7041 6.97999 11.4815 6.97999H12.5185C13.2959 6.97999 13.935 7.57208 14.0094 8.3299H9.99057ZM9.33335 10.3464C9.69234 10.3464 9.98335 10.6375 9.98335 10.9964V15.1446C9.98335 15.5036 9.69234 15.7946 9.33335 15.7946C8.97436 15.7946 8.68335 15.5036 8.68335 15.1446V10.9964C8.68335 10.6375 8.97436 10.3464 9.33335 10.3464ZM14.6667 10.3464C15.0257 10.3464 15.3167 10.6375 15.3167 10.9964V15.1446C15.3167 15.5036 15.0257 15.7946 14.6667 15.7946C14.3077 15.7946 14.0167 15.5036 14.0167 15.1446V10.9964C14.0167 10.6375 14.3077 10.3464 14.6667 10.3464Z" fill="black"/>
</svg>
