<svg width="24" height="24" viewBox="0 0 24 24" fill="none" xmlns="http://www.w3.org/2000/svg">
<path d="M22.5 16.5714C22.5 19.8457 19.8457 22.5 16.5714 22.5H7.42857C4.15431 22.5 1.5 19.8457 1.5 16.5714V7.42857C1.5 4.15431 4.15431 1.5 7.42857 1.5H16.5714C19.8457 1.5 22.5 4.15431 22.5 7.42857V16.5714ZM24 7.42857C24 3.32588 20.6741 0 16.5714 0H7.42857C3.32588 0 0 3.32588 0 7.42857V16.5714C0 20.6741 3.32588 24 7.42857 24H16.5714C20.6741 24 24 20.6741 24 16.5714V7.42857Z" fill="black"/>
<path d="M8 5C6.34315 5 5 6.34315 5 8V8.19961H19V8C19 6.34315 17.6569 5 16 5H8ZM19 9.49961H5V16C5 17.6569 6.34315 19 8 19H16C17.6569 19 19 17.6569 19 16V9.49961ZM13 14.3969H15.3851C15.7441 14.3969 16.0351 14.6879 16.0351 15.0469C16.0351 15.4059 15.7441 15.6969 15.3851 15.6969H13C12.641 15.6969 12.35 15.4059 12.35 15.0469C12.35 14.6879 12.641 14.3969 13 14.3969ZM8.74835 11.0416C9.00694 10.7926 9.41842 10.8003 9.66743 11.0589L11.3711 12.8281C11.6135 13.0798 11.6135 13.4781 11.3711 13.7298L9.66743 15.499C9.41842 15.7576 9.00694 15.7653 8.74835 15.5163C8.48977 15.2673 8.48201 14.8558 8.73101 14.5972L10.0005 13.2789L8.73101 11.9606C8.48201 11.702 8.48977 11.2906 8.74835 11.0416ZM8.14961 6.8248C8.14961 7.11475 7.91456 7.3498 7.62461 7.3498C7.33466 7.3498 7.09961 7.11475 7.09961 6.8248C7.09961 6.53486 7.33466 6.2998 7.62461 6.2998C7.91456 6.2998 8.14961 6.53486 8.14961 6.8248ZM9.025 7.3498C8.73505 7.3498 8.5 7.11475 8.5 6.8248C8.5 6.53486 8.73505 6.2998 9.025 6.2998C9.31495 6.2998 9.55 6.53486 9.55 6.8248C9.55 7.11475 9.31495 7.3498 9.025 7.3498Z" fill="black"/>
</svg>
