<svg width="24" height="24" viewBox="0 0 24 24" fill="none" xmlns="http://www.w3.org/2000/svg">
<path d="M22.5 16.5714C22.5 19.8457 19.8457 22.5 16.5714 22.5H7.42857C4.15431 22.5 1.5 19.8457 1.5 16.5714V7.42857C1.5 4.15431 4.15431 1.5 7.42857 1.5H16.5714C19.8457 1.5 22.5 4.15431 22.5 7.42857V16.5714ZM24 7.42857C24 3.32588 20.6741 0 16.5714 0H7.42857C3.32588 0 0 3.32588 0 7.42857V16.5714C0 20.6741 3.32588 24 7.42857 24H16.5714C20.6741 24 24 20.6741 24 16.5714V7.42857Z" fill="black"/>
<path d="M8 5C6.34315 5 5 6.34315 5 8V8.19958H19V8C19 6.34315 17.6569 5 16 5H8ZM19 9.49959H5V16C5 17.6569 6.34315 19 8 19H16C17.6569 19 19 17.6569 19 16V9.49959ZM8.14961 6.92539C8.14961 7.21534 7.91456 7.45039 7.62461 7.45039C7.33466 7.45039 7.09961 7.21534 7.09961 6.92539C7.09961 6.63544 7.33466 6.40039 7.62461 6.40039C7.91456 6.40039 8.14961 6.63544 8.14961 6.92539ZM9.025 7.45039C8.73505 7.45039 8.5 7.21534 8.5 6.92539C8.5 6.63544 8.73505 6.40039 9.025 6.40039C9.31495 6.40039 9.55 6.63544 9.55 6.92539C9.55 7.21534 9.31495 7.45039 9.025 7.45039Z" fill="black"/>
</svg>
