<svg width="24" height="24" viewBox="0 0 24 24" fill="none" xmlns="http://www.w3.org/2000/svg">
<path d="M16.5714 22.5H7.42857C4.15431 22.5 1.5 19.8457 1.5 16.5714V7.42857C1.5 4.15431 4.15431 1.5 7.42857 1.5H16.5714C19.8457 1.5 22.5 4.15431 22.5 7.42857V16.5714C22.5 19.8457 19.8457 22.5 16.5714 22.5ZM24 16.5714V7.42857C24 3.32589 20.6741 0 16.5714 0H7.42857C3.32589 0 0 3.32589 0 7.42857V16.5714C0 20.6741 3.32589 24 7.42857 24H16.5714C20.6741 24 24 20.6741 24 16.5714ZM8.38796 5.63949C8.18883 5.3408 7.78526 5.26008 7.48657 5.45921C7.18788 5.65834 7.10716 6.06191 7.30629 6.3606L8.55328 8.23108C8.34558 8.53123 8.17799 8.86125 8.05824 9.21338H6.57002C6.21104 9.21338 5.92002 9.50439 5.92002 9.86338C5.92002 10.2224 6.21104 10.5134 6.57002 10.5134H7.84668V11.5776H6.57002C6.21104 11.5776 5.92002 11.8686 5.92002 12.2276C5.92002 12.5866 6.21104 12.8776 6.57002 12.8776H7.84668V14.0015H6.56992C6.21094 14.0015 5.91992 14.2925 5.91992 14.6515C5.91992 15.0104 6.21094 15.3015 6.56992 15.3015H8.06038C8.59714 16.8711 10.0851 17.9998 11.8366 17.9998C13.5881 17.9998 15.0761 16.8711 15.6128 15.3015H17.4223C17.7813 15.3015 18.0723 15.0104 18.0723 14.6515C18.0723 14.2925 17.7813 14.0015 17.4223 14.0015H15.8265V12.8776H17.4223C17.7813 12.8776 18.0723 12.5866 18.0723 12.2276C18.0723 11.8686 17.7813 11.5776 17.4223 11.5776H15.8265V10.5134H17.4226C17.7816 10.5134 18.0726 10.2224 18.0726 9.86338C18.0726 9.50439 17.7816 9.21338 17.4226 9.21338H15.615C15.4463 8.7175 15.1828 8.26548 14.8461 7.87896L16.1503 6.63307C16.4098 6.38509 16.4193 5.97365 16.1713 5.71407C15.9233 5.45449 15.5119 5.44508 15.2523 5.69305L13.8366 7.04547C13.2486 6.70419 12.5654 6.50879 11.8366 6.50879C10.9553 6.50879 10.1408 6.79451 9.48054 7.27837L8.38796 5.63949ZM10.879 10.1685H12.7942C13.1532 10.1685 13.4442 10.4595 13.4442 10.8185C13.4442 11.1774 13.1532 11.4685 12.7942 11.4685H10.879C10.52 11.4685 10.229 11.1774 10.229 10.8185C10.229 10.4595 10.52 10.1685 10.879 10.1685ZM10.229 13.6905C10.229 13.3315 10.52 13.0405 10.879 13.0405H12.7942C13.1532 13.0405 13.4442 13.3315 13.4442 13.6905C13.4442 14.0495 13.1532 14.3405 12.7942 14.3405H10.879C10.52 14.3405 10.229 14.0495 10.229 13.6905Z" fill="black"/>
</svg>
