<svg width="24" height="24" viewBox="0 0 24 24" fill="none" xmlns="http://www.w3.org/2000/svg">
<path d="M7.42857 1.5H16.5714C19.8457 1.5 22.5 4.15431 22.5 7.42857V16.5714C22.5 19.8457 19.8457 22.5 16.5714 22.5H7.42857C4.15431 22.5 1.5 19.8457 1.5 16.5714V7.42857C1.5 4.15431 4.15431 1.5 7.42857 1.5ZM0 7.42857V16.5714C0 20.6741 3.32588 24 7.42857 24H16.5714C20.6741 24 24 20.6741 24 16.5714V7.42857C24 3.32588 20.6741 0 16.5714 0H7.42857C3.32588 0 0 3.32588 0 7.42857ZM14.5498 13.8695L16.834 15.3923C17.3327 15.7243 18 15.3677 18 14.7683V7.07166C18 6.47232 17.3327 6.11499 16.834 6.44699L14.5498 7.96972V13.8695ZM13.0498 8.66956H8.25C7.00733 8.66956 6 9.67689 6 10.9196C6 12.1622 7.00733 13.1696 8.25 13.1696H9L9.544 16.4329C9.66267 17.1469 10.28 17.6696 11.0033 17.6696C11.9173 17.6696 12.6127 16.8489 12.4627 15.9469L12 13.1696H13.0498V8.66956Z" fill="black"/>
</svg>
