<svg width="24" height="24" viewBox="0 0 24 24" fill="none" xmlns="http://www.w3.org/2000/svg">
<path d="M22.5 16.5714C22.5 19.8457 19.8457 22.5 16.5714 22.5H7.42857C4.15431 22.5 1.5 19.8457 1.5 16.5714V7.42857C1.5 4.15431 4.15431 1.5 7.42857 1.5H16.5714C19.8457 1.5 22.5 4.15431 22.5 7.42857V16.5714ZM24 7.42857C24 3.32588 20.6741 0 16.5714 0H7.42857C3.32588 0 0 3.32588 0 7.42857V16.5714C0 20.6741 3.32588 24 7.42857 24H16.5714C20.6741 24 24 20.6741 24 16.5714V7.42857ZM11.2819 7.08555C11.6409 7.08555 11.9319 6.79454 11.9319 6.43555C11.9319 6.07657 11.6409 5.78555 11.2819 5.78555C7.45315 5.78555 4.34961 8.88909 4.34961 12.7179C4.34961 16.5467 7.45399 19.6502 11.2827 19.6502C15.1114 19.6502 18.215 16.5466 18.215 12.7179C18.215 12.3589 17.924 12.0679 17.565 12.0679C17.206 12.0679 16.915 12.3589 16.915 12.7179C16.915 15.8287 14.3935 18.3502 11.2827 18.3502C8.17176 18.3502 5.64961 15.8286 5.64961 12.7179C5.64961 9.60707 8.17112 7.08555 11.2819 7.08555ZM8.4416 12.7175C8.4416 11.1489 9.71343 9.87706 11.282 9.87706C11.641 9.87706 11.932 9.58604 11.932 9.22706C11.932 8.86807 11.641 8.57706 11.282 8.57706C8.99546 8.57706 7.1416 10.4309 7.1416 12.7175C7.1416 15.004 8.99546 16.8579 11.282 16.8579C13.5686 16.8579 15.4224 15.004 15.4224 12.7175C15.4224 12.3585 15.1314 12.0675 14.7724 12.0675C14.4135 12.0675 14.1224 12.3585 14.1224 12.7175C14.1224 14.2861 12.8506 15.5579 11.282 15.5579C9.71343 15.5579 8.4416 14.2861 8.4416 12.7175ZM16.7309 5.62069C16.5783 5.31537 16.1714 5.24929 15.9301 5.49064L13.8418 7.57895V9.25387C13.8097 9.27601 13.7791 9.30137 13.7505 9.32995L10.8253 12.2553C10.5714 12.5092 10.5714 12.9207 10.8253 13.1746C11.0791 13.4284 11.4907 13.4284 11.7445 13.1746L14.6698 10.2492C14.6983 10.2206 14.7237 10.19 14.7458 10.1579H16.4207L18.509 8.06959C18.7504 7.82824 18.6843 7.42136 18.379 7.26878L17.2801 6.71961L16.7309 5.62069Z" fill="black"/>
</svg>
