<svg width="24" height="24" viewBox="0 0 24 24" fill="none" xmlns="http://www.w3.org/2000/svg">
<path d="M7.42857 1.5H16.5714C19.8457 1.5 22.5 4.15431 22.5 7.42857V16.5714C22.5 19.8457 19.8457 22.5 16.5714 22.5H7.42857C4.15431 22.5 1.5 19.8457 1.5 16.5714V7.42857C1.5 4.15431 4.15431 1.5 7.42857 1.5ZM0 7.42857V16.5714C0 20.6741 3.32588 24 7.42857 24H16.5714C20.6741 24 24 20.6741 24 16.5714V7.42857C24 3.32588 20.6741 0 16.5714 0H7.42857C3.32588 0 0 3.32588 0 7.42857ZM9.1582 5.25C8.74399 5.25 8.4082 5.58579 8.4082 6V6.63184H7.91381C6.85684 6.63184 6 7.53001 6 8.63796V9.53748H17.368V8.63796C17.368 7.53001 16.5112 6.63184 15.4542 6.63184H14.9609V6C14.9609 5.58579 14.6252 5.25 14.2109 5.25C13.7967 5.25 13.4609 5.58579 13.4609 6V6.63184H9.9082V6C9.9082 5.58579 9.57242 5.25 9.1582 5.25ZM6 10.8375V15.9938C6 17.1017 6.85684 17.9999 7.91381 17.9999H15.4542C16.5112 17.9999 17.368 17.1017 17.368 15.9938V10.8375H6Z" fill="black"/>
</svg>
