<svg width="24" height="24" viewBox="0 0 24 24" fill="none" xmlns="http://www.w3.org/2000/svg">
<path d="M7.42857 1.5H16.5714C19.8457 1.5 22.5 4.15431 22.5 7.42857V16.5714C22.5 19.8457 19.8457 22.5 16.5714 22.5H7.42857C4.15431 22.5 1.5 19.8457 1.5 16.5714V7.42857C1.5 4.15431 4.15431 1.5 7.42857 1.5ZM0 7.42857V16.5714C0 20.6741 3.32588 24 7.42857 24H16.5714C20.6741 24 24 20.6741 24 16.5714V7.42857C24 3.32588 20.6741 0 16.5714 0H7.42857C3.32588 0 0 3.32588 0 7.42857ZM5.46967 6.23529C5.17678 6.52819 5.17678 7.00306 5.46967 7.29596L7.10578 8.93207C6.44387 9.32376 6 10.045 6 10.8698V15.124C6 16.3667 7.00736 17.374 8.25 17.374H15.5477L16.9403 18.7665C17.2332 19.0594 17.708 19.0594 18.0009 18.7665C18.2938 18.4736 18.2938 17.9988 18.0009 17.7059L6.53033 6.23529C6.23744 5.9424 5.76256 5.9424 5.46967 6.23529ZM12.0082 13.8345L13.2124 15.0387C12.2128 15.5575 10.9557 15.394 10.1184 14.5482C9.28763 13.7091 9.12174 12.4527 9.62066 11.4469L10.84 12.6662C10.844 12.9663 10.9588 13.2651 11.1843 13.4928C11.4125 13.7233 11.7108 13.8372 12.0082 13.8345ZM14.6502 12.8249L17.8238 15.9985C17.9373 15.7296 18 15.4342 18 15.124V10.8698C18 9.62717 16.9926 8.61981 15.75 8.61981H15.3333L14.739 7.42955C14.4851 6.92096 13.9655 6.59961 13.397 6.59961H10.5831C10.0175 6.59961 9.50096 6.91762 9.24569 7.42038L11.7977 9.97242C12.543 9.91592 13.3074 10.1755 13.8773 10.7512C14.4405 11.3201 14.6981 12.0806 14.6502 12.8249Z" fill="black"/>
</svg>
