<svg width="24" height="24" viewBox="0 0 24 24" fill="none" xmlns="http://www.w3.org/2000/svg">
<path d="M16.5714 1.5C19.8457 1.5 22.5 4.15431 22.5 7.42857V16.5714C22.5 19.8457 19.8457 22.5 16.5714 22.5H7.42857C4.15431 22.5 1.5 19.8457 1.5 16.5714V7.42857C1.5 4.15431 4.15431 1.5 7.42857 1.5H16.5714ZM7.42857 0C3.32589 0 0 3.32589 0 7.42857V16.5714C0 20.6741 3.32589 24 7.42857 24H16.5714C20.6741 24 24 20.6741 24 16.5714V7.42857C24 3.32589 20.6741 0 16.5714 0H7.42857ZM6.6 12C6.6 10.8032 6.98933 9.69736 7.64824 8.80219L15.0015 16.4897C14.1431 17.0647 13.1107 17.4 12 17.4C9.01766 17.4 6.6 14.9823 6.6 12ZM16.1853 15.4125L8.77665 7.66715C9.67629 6.99678 10.7918 6.6 12 6.6C14.9823 6.6 17.4 9.01766 17.4 12C17.4 13.2944 16.9446 14.4824 16.1853 15.4125ZM12 5C8.13401 5 5 8.13401 5 12C5 15.866 8.13401 19 12 19C15.866 19 19 15.866 19 12C19 8.13401 15.866 5 12 5Z" fill="black"/>
</svg>
