<svg width="24" height="24" viewBox="0 0 24 24" fill="none" xmlns="http://www.w3.org/2000/svg">
<path d="M16.5714 1.5C19.8457 1.5 22.5 4.15431 22.5 7.42857V16.5714C22.5 19.8457 19.8457 22.5 16.5714 22.5H7.42857C4.15431 22.5 1.5 19.8457 1.5 16.5714V7.42857C1.5 4.15431 4.15431 1.5 7.42857 1.5H16.5714ZM24 7.42857C24 3.32589 20.6741 0 16.5714 0H7.42857C3.32588 0 0 3.32589 0 7.42857V16.5714C0 20.6741 3.32588 24 7.42857 24H16.5714C20.6741 24 24 20.6741 24 16.5714V7.42857ZM16.1315 8.5H7.8685C7.06981 8.5 6.59342 9.39015 7.03646 10.0547L11.1679 16.2519C11.5638 16.8457 12.4362 16.8457 12.832 16.2519L16.9635 10.0547C17.4066 9.39015 16.9302 8.5 16.1315 8.5Z" fill="black"/>
</svg>
