<svg width="24" height="24" viewBox="0 0 24 24" fill="none" xmlns="http://www.w3.org/2000/svg">
<path d="M1.5 16.5714V7.42857C1.5 4.15431 4.15431 1.5 7.42857 1.5H16.5714C19.8457 1.5 22.5 4.15431 22.5 7.42857V16.5714C22.5 19.8457 19.8457 22.5 16.5714 22.5H7.42857C4.15431 22.5 1.5 19.8457 1.5 16.5714ZM7.42857 24H16.5714C20.6741 24 24 20.6741 24 16.5714V7.42857C24 3.32588 20.6741 0 16.5714 0H7.42857C3.32589 0 0 3.32588 0 7.42857V16.5714C0 20.6741 3.32589 24 7.42857 24ZM8.5 16.1315C8.5 16.9302 9.39015 17.4066 10.0547 16.9635L16.2519 12.8321C16.8457 12.4362 16.8457 11.5638 16.2519 11.168L10.0547 7.03647C9.39015 6.59343 8.5 7.06982 8.5 7.86852V16.1315Z" fill="black"/>
</svg>
