<svg width="24" height="24" viewBox="0 0 24 24" fill="none" xmlns="http://www.w3.org/2000/svg">
<path d="M22.5 16.5714C22.5 19.8457 19.8457 22.5 16.5714 22.5H7.42857C4.15431 22.5 1.5 19.8457 1.5 16.5714V7.42857C1.5 4.15431 4.15431 1.5 7.42857 1.5H16.5714C19.8457 1.5 22.5 4.15431 22.5 7.42857V16.5714ZM16.5714 24C20.6741 24 24 20.6741 24 16.5714V7.42857C24 3.32588 20.6741 0 16.5714 0H7.42857C3.32588 0 0 3.32588 0 7.42857V16.5714C0 20.6741 3.32588 24 7.42857 24H16.5714ZM15.5 16.1315V7.86852C15.5 7.06982 14.6099 6.59343 13.9453 7.03647L7.74808 11.168C7.15434 11.5638 7.15434 12.4362 7.74808 12.8321L13.9453 16.9635C14.6099 17.4066 15.5 16.9302 15.5 16.1315Z" fill="black"/>
</svg>
