<svg width="24" height="24" viewBox="0 0 24 24" fill="none" xmlns="http://www.w3.org/2000/svg">
<path d="M7.42857 22.5C4.15431 22.5 1.5 19.8457 1.5 16.5714V7.42857C1.5 4.15431 4.15431 1.5 7.42857 1.5H16.5714C19.8457 1.5 22.5 4.15431 22.5 7.42857V16.5714C22.5 19.8457 19.8457 22.5 16.5714 22.5H7.42857ZM16.5714 24C20.6741 24 24 20.6741 24 16.5714V7.42857C24 3.32588 20.6741 0 16.5714 0L7.42857 0C3.32588 0 0 3.32588 0 7.42857L0 16.5714C0 20.6741 3.32588 24 7.42857 24H16.5714Z" fill="black"/>
<path d="M16.9635 13.9453L12.8321 7.74808C12.4362 7.15434 11.5638 7.15435 11.168 7.74808L7.03647 13.9453C6.59343 14.6099 7.06982 15.5 7.86852 15.5H16.1315C16.9302 15.5 17.4066 14.6099 16.9635 13.9453Z" fill="black"/>
</svg>
