<svg width="24" height="24" viewBox="0 0 24 24" fill="none" xmlns="http://www.w3.org/2000/svg">
<path d="M16.5714 1.5C19.8457 1.5 22.5 4.15431 22.5 7.42857V16.5714C22.5 19.8457 19.8457 22.5 16.5714 22.5H7.42857C4.15431 22.5 1.5 19.8457 1.5 16.5714V7.42857C1.5 4.15431 4.15431 1.5 7.42857 1.5H16.5714ZM7.42857 0C3.32588 0 0 3.32588 0 7.42857V16.5714C0 20.6741 3.32588 24 7.42857 24H16.5714C20.6741 24 24 20.6741 24 16.5714V7.42857C24 3.32588 20.6741 0 16.5714 0H7.42857Z" fill="black"/>
<path d="M6 6.34699C5.64102 6.34699 5.35 6.63801 5.35 6.99699V15.6637C5.35 17.1272 6.53645 18.3137 8 18.3137H18C18.359 18.3137 18.65 18.0226 18.65 17.6637C18.65 17.3047 18.359 17.0137 18 17.0137H8C7.25442 17.0137 6.65 16.4092 6.65 15.6637V6.99699C6.65 6.63801 6.35898 6.34699 6 6.34699Z" fill="black"/>
<path d="M10.5001 12.2694L9.32146 11.8694C8.67295 11.6493 8.00007 12.1315 8.00007 12.8163V14.6633C8.00007 15.2156 8.44779 15.6633 9.00008 15.6633H17.0001C17.5524 15.6633 18.0001 15.2156 18.0001 14.6633V8.996C18.0001 8.07208 16.8544 7.64234 16.2468 8.33834L14.6667 10.1482L12.9535 9.56673C12.4975 9.41194 11.9958 9.60425 11.7601 10.0243L10.5001 12.2694Z" fill="black"/>
</svg>
