<svg width="24" height="24" viewBox="0 0 24 24" fill="none" xmlns="http://www.w3.org/2000/svg">
<path d="M5.25 17C5.25 17.4142 5.58579 17.75 6 17.75H18C18.4142 17.75 18.75 17.4142 18.75 17C18.75 16.5858 18.4142 16.25 18 16.25H16.7493V10.2378C16.7493 9.82762 16.4168 9.49512 16.0067 9.49512H14.5732C14.1631 9.49512 13.8306 9.82762 13.8306 10.2378V16.25H13.0882V6.48534C13.0882 6.07518 12.7557 5.74267 12.3455 5.74267H10.9121C10.5019 5.74267 10.1694 6.07518 10.1694 6.48534V16.25H9.42659V8.36157C9.42659 7.9514 9.09408 7.61889 8.68392 7.61889H7.25048C6.84032 7.61889 6.50781 7.9514 6.50781 8.36157V16.25H6C5.58579 16.25 5.25 16.5858 5.25 17Z" fill="black"/>
<path d="M0 16.5714C0 20.6741 3.32588 24 7.42857 24H16.5714C20.6741 24 24 20.6741 24 16.5714V7.42857C24 3.32589 20.6741 0 16.5714 0H7.42857C3.32588 0 0 3.32589 0 7.42857V16.5714ZM1.5 7.42857C1.5 4.15431 4.15431 1.5 7.42857 1.5H16.5714C19.8457 1.5 22.5 4.15431 22.5 7.42857V16.5714C22.5 19.8457 19.8457 22.5 16.5714 22.5H7.42857C4.15431 22.5 1.5 19.8457 1.5 16.5714V7.42857Z" fill="black"/>
</svg>
