<svg width="24" height="24" viewBox="0 0 24 24" fill="none" xmlns="http://www.w3.org/2000/svg">
<path d="M16.5714 1.5C19.8457 1.5 22.5 4.15431 22.5 7.42857V16.5714C22.5 19.8457 19.8457 22.5 16.5714 22.5H7.42857C4.15431 22.5 1.5 19.8457 1.5 16.5714V7.42857C1.5 4.15431 4.15431 1.5 7.42857 1.5H16.5714ZM7.42857 0C3.32588 0 0 3.32588 0 7.42857V16.5714C0 20.6741 3.32588 24 7.42857 24H16.5714C20.6741 24 24 20.6741 24 16.5714V7.42857C24 3.32588 20.6741 0 16.5714 0H7.42857Z" fill="black"/>
<path d="M7 5.25C6.58579 5.25 6.25 5.58579 6.25 6V18C6.25 18.4142 6.58579 18.75 7 18.75C7.41421 18.75 7.75 18.4142 7.75 18V6C7.75 5.58579 7.41421 5.25 7 5.25Z" fill="black"/>
<path d="M7 13.8306V16.7493H13.7622C14.1724 16.7493 14.5049 16.4168 14.5049 16.0067V14.5732C14.5049 14.1631 14.1724 13.8306 13.7622 13.8306H7Z" fill="black"/>
<path d="M7 10.1694V13.0882H17.5147C17.9248 13.0882 18.2573 12.7557 18.2573 12.3455V10.9121C18.2573 10.5019 17.9248 10.1694 17.5147 10.1694H7Z" fill="black"/>
<path d="M7 6.50781V9.42659H15.6384C16.0486 9.42659 16.3811 9.09408 16.3811 8.68392V7.25048C16.3811 6.84032 16.0486 6.50781 15.6384 6.50781H7Z" fill="black"/>
</svg>
