<svg width="24" height="24" viewBox="0 0 24 24" fill="none" xmlns="http://www.w3.org/2000/svg">
<path d="M16.5714 1.5C19.8457 1.5 22.5 4.15431 22.5 7.42857V16.5714C22.5 19.8457 19.8457 22.5 16.5714 22.5H7.42857C4.15431 22.5 1.5 19.8457 1.5 16.5714V7.42857C1.5 4.15431 4.15431 1.5 7.42857 1.5H16.5714ZM7.42857 0C3.32588 0 0 3.32588 0 7.42857V16.5714C0 20.6741 3.32588 24 7.42857 24H16.5714C20.6741 24 24 20.6741 24 16.5714V7.42857C24 3.32588 20.6741 0 16.5714 0H7.42857Z" fill="black"/>
<path d="M6 6.35C5.64102 6.35 5.35 6.64102 5.35 7V15.6667C5.35 17.1302 6.53645 18.3167 8 18.3167H18C18.359 18.3167 18.65 18.0257 18.65 17.6667C18.65 17.3077 18.359 17.0167 18 17.0167H8C7.25442 17.0167 6.65 16.4123 6.65 15.6667V7C6.65 6.64102 6.35898 6.35 6 6.35Z" fill="black"/>
<path d="M17.5256 9.87339C17.2718 9.61955 16.8602 9.61955 16.6064 9.87339L12.866 13.6138L11.5256 12.2734C11.2718 12.0195 10.8602 12.0195 10.6064 12.2734L8.2064 14.6734C7.95256 14.9272 7.95256 15.3388 8.2064 15.5926C8.46024 15.8465 8.87179 15.8465 9.12564 15.5926L11.066 13.6522L12.4064 14.9926C12.6602 15.2465 13.0718 15.2465 13.3256 14.9926L17.5256 10.7926C17.7795 10.5388 17.7795 10.1272 17.5256 9.87339Z" fill="black"/>
<path d="M14.016 10.3331C14.016 10.6921 14.307 10.9831 14.666 10.9831H16.416V12.7331C16.416 13.0921 16.707 13.3831 17.066 13.3831C17.4249 13.3831 17.716 13.0921 17.716 12.7331V10.3331C17.716 9.9741 17.4249 9.68308 17.066 9.68308H14.666C14.307 9.68308 14.016 9.9741 14.016 10.3331Z" fill="black"/>
</svg>
