<svg width="24" height="24" viewBox="0 0 24 24" fill="none" xmlns="http://www.w3.org/2000/svg">
<path d="M16.5714 1.5C19.8457 1.5 22.5 4.15431 22.5 7.42857V16.5714C22.5 19.8457 19.8457 22.5 16.5714 22.5H7.42857C4.15431 22.5 1.5 19.8457 1.5 16.5714V7.42857C1.5 4.15431 4.15431 1.5 7.42857 1.5H16.5714ZM7.42857 0C3.32588 0 0 3.32588 0 7.42857V16.5714C0 20.6741 3.32588 24 7.42857 24H16.5714C20.6741 24 24 20.6741 24 16.5714V7.42857C24 3.32588 20.6741 0 16.5714 0H7.42857ZM17.4094 7.15437C16.4513 6.06879 15.1285 5.31263 13.6328 5.07751C13.0872 4.99174 12.6367 5.44772 12.6367 6V10.3636C12.6367 10.9159 13.0844 11.3636 13.6367 11.3636H18.0004C18.5526 11.3636 19.0086 10.9132 18.9229 10.3676C18.7309 9.14646 18.1917 8.04064 17.4094 7.15437ZM17.6498 13.6325C17.7355 13.087 17.2796 12.6364 16.7273 12.6364H11.9636C11.6323 12.6364 11.3636 12.3677 11.3636 12.0364V7.27272C11.3636 6.72044 10.913 6.26447 10.3675 6.35024C7.32612 6.82838 5 9.46072 5 12.6364C5 16.1509 7.8491 19 11.3636 19C14.5393 19 17.1716 16.6739 17.6498 13.6325Z" fill="black"/>
</svg>
