<svg width="24" height="24" viewBox="0 0 24 24" fill="none" xmlns="http://www.w3.org/2000/svg">
<path d="M15.4508 8.21105V8.80039C15.4508 9.2146 15.7866 9.55039 16.2008 9.55039C16.615 9.55039 16.9508 9.2146 16.9508 8.80039V6.40039L16.9507 6.3871C16.9438 5.99103 16.6299 5.66982 16.2368 5.65125C16.2248 5.65068 16.2128 5.65039 16.2008 5.65039H13.8008C13.3866 5.65039 13.0508 5.98618 13.0508 6.40039C13.0508 6.8146 13.3866 7.15039 13.8008 7.15039H14.3901L12.0008 9.53973L10.7311 8.27006C10.4382 7.97717 9.96334 7.97717 9.67045 8.27006L7.27045 10.6701C6.97756 10.963 6.97756 11.4378 7.27045 11.7307C7.56334 12.0236 8.03822 12.0236 8.33111 11.7307L10.2008 9.86105L11.4705 11.1307C11.7633 11.4236 12.2382 11.4236 12.5311 11.1307L15.4508 8.21105Z" fill="black"/>
<path d="M12.5335 18.4H11.4668C10.9145 18.4 10.4668 17.9523 10.4668 17.4V14C10.4668 13.4477 10.9145 13 11.4668 13H12.5335C13.0857 13 13.5335 13.4477 13.5335 14V17.4C13.5335 17.9523 13.0857 18.4 12.5335 18.4Z" fill="black"/>
<path d="M18.0003 17.4006V11.6006C18.0003 11.0483 17.5525 10.6006 17.0003 10.6006H15.9336C15.3813 10.6006 14.9336 11.0483 14.9336 11.6006V17.4006C14.9336 17.9529 15.3813 18.4006 15.9336 18.4006H17.0003C17.5525 18.4006 18.0003 17.9529 18.0003 17.4006Z" fill="black"/>
<path d="M8.06667 18.4004C8.61895 18.4004 9.06667 17.9527 9.06667 17.4004V16.4004C9.06667 15.8481 8.61895 15.4004 8.06667 15.4004H7C6.44772 15.4004 6 15.8481 6 16.4004V17.4004C6 17.9527 6.44772 18.4004 7 18.4004H8.06667Z" fill="black"/>
<path d="M0 7.42857V16.5714C0 20.6741 3.32588 24 7.42857 24H16.5714C20.6741 24 24 20.6741 24 16.5714V7.42857C24 3.32588 20.6741 0 16.5714 0H7.42857C3.32588 0 0 3.32588 0 7.42857ZM22.5 7.42857V16.5714C22.5 19.8457 19.8457 22.5 16.5714 22.5H7.42857C4.15431 22.5 1.5 19.8457 1.5 16.5714V7.42857C1.5 4.15431 4.15431 1.5 7.42857 1.5H16.5714C19.8457 1.5 22.5 4.15431 22.5 7.42857Z" fill="black"/>
</svg>
