<svg width="25" height="24" viewBox="0 0 25 24" fill="none" xmlns="http://www.w3.org/2000/svg">
<path d="M16.5734 1.5C19.8476 1.5 22.502 4.15431 22.502 7.42857V16.5714C22.502 19.8457 19.8476 22.5 16.5734 22.5H7.43052C4.15627 22.5 1.50195 19.8457 1.50195 16.5714V7.42857C1.50195 4.15431 4.15627 1.5 7.43052 1.5H16.5734ZM7.43052 0C3.32784 0 0.00195312 3.32588 0.00195312 7.42857V16.5714C0.00195312 20.6741 3.32784 24 7.43052 24H16.5734C20.6761 24 24.002 20.6741 24.002 16.5714V7.42857C24.002 3.32588 20.6761 0 16.5734 0H7.43052Z" fill="black"/>
<path d="M17.5676 8.43431C17.2552 8.12189 16.7487 8.12189 16.4363 8.43431L10.127 14.7436L7.56764 12.1843C7.25522 11.8719 6.74869 11.8719 6.43627 12.1843C6.12385 12.4967 6.12385 13.0033 6.43627 13.3157L9.56127 16.4407C9.87369 16.7531 10.3802 16.7531 10.6926 16.4407L17.5676 9.56569C17.8801 9.25327 17.8801 8.74673 17.5676 8.43431Z" fill="black"/>
</svg>
