<svg width="24" height="24" viewBox="0 0 24 24" fill="none" xmlns="http://www.w3.org/2000/svg">
<path d="M16.5714 1.5C19.8457 1.5 22.5 4.15431 22.5 7.42857V16.5714C22.5 19.8457 19.8457 22.5 16.5714 22.5H7.42857C4.15431 22.5 1.5 19.8457 1.5 16.5714V7.42857C1.5 4.15431 4.15431 1.5 7.42857 1.5H16.5714ZM7.42857 0C3.32588 0 0 3.32588 0 7.42857V16.5714C0 20.6741 3.32588 24 7.42857 24H16.5714C20.6741 24 24 20.6741 24 16.5714V7.42857C24 3.32588 20.6741 0 16.5714 0H7.42857Z" fill="black"/>
<path d="M7.5 7.15364C6.86596 7.32882 6.40039 7.90984 6.40039 8.59961V17.4995C6.40039 18.3279 7.07196 18.9995 7.90039 18.9995H16.1003C16.9287 18.9995 17.6003 18.3279 17.6003 17.4995V8.59961C17.6003 7.90958 17.1343 7.32837 16.4999 7.15344V7.48789C16.4999 8.49111 15.6246 9.1101 14.7999 9.1101H9.19999C8.37529 9.1101 7.5 8.49111 7.5 7.48789V7.15364ZM8.69922 15.333C8.69922 15.0569 8.92308 14.833 9.19922 14.833H14.7992C15.0753 14.833 15.2992 15.0569 15.2992 15.333C15.2992 15.6091 15.0753 15.833 14.7992 15.833H9.19922C8.92308 15.833 8.69922 15.6091 8.69922 15.333ZM9.19922 11.7998H14.7992C15.0753 11.7998 15.2992 12.0237 15.2992 12.2998C15.2992 12.5759 15.0753 12.7998 14.7992 12.7998H9.19922C8.92308 12.7998 8.69922 12.5759 8.69922 12.2998C8.69922 12.0237 8.92308 11.7998 9.19922 11.7998Z" fill="black"/>
<path d="M8.50037 7.09961L8.5 7.48789C8.5 7.83135 8.8136 8.1101 9.19999 8.1101H14.7999C15.1863 8.1101 15.4999 7.83135 15.4999 7.48789V7.09961H8.50037Z" fill="black"/>
<path d="M9.60756 6.24443H9.19999C8.8136 6.24443 8.5 6.52318 8.5 6.86665V7.48789C8.5 7.83135 8.8136 8.1101 9.19999 8.1101H14.7999C15.1863 8.1101 15.4999 7.83135 15.4999 7.48789V6.86665C15.4999 6.52318 15.1863 6.24443 14.7999 6.24443H14.3924C14.2117 6.24443 14.0451 6.147 13.9566 5.98956L13.787 5.68817C13.5497 5.26631 13.0653 5 12.5348 5H11.4652C10.9353 5 10.4502 5.26631 10.2129 5.68817L10.0433 5.98956C9.95479 6.147 9.7882 6.24443 9.60756 6.24443Z" fill="black"/>
</svg>
