<svg width="24" height="24" viewBox="0 0 24 24" fill="none" xmlns="http://www.w3.org/2000/svg">
<path d="M7.42857 1.5H16.5714C19.8457 1.5 22.5 4.15431 22.5 7.42857V16.5714C22.5 19.8457 19.8457 22.5 16.5714 22.5H7.42857C4.15431 22.5 1.5 19.8457 1.5 16.5714V7.42857C1.5 4.15431 4.15431 1.5 7.42857 1.5ZM0 7.42857V16.5714C0 20.6741 3.32588 24 7.42857 24H16.5714C20.6741 24 24 20.6741 24 16.5714V7.42857C24 3.32588 20.6741 0 16.5714 0H7.42857C3.32588 0 0 3.32588 0 7.42857ZM7 6.7998C5.89543 6.7998 5 7.69524 5 8.7998V15.2998C5 16.4044 5.89543 17.2998 7 17.2998H17C18.1046 17.2998 19 16.4044 19 15.2998V8.7998C19 7.69524 18.1046 6.7998 17 6.7998H7ZM10.4348 9.34924C11.019 9.34924 11.5479 9.52267 11.9953 9.9004L11.3196 10.8486C11.0908 10.6554 10.8084 10.5492 10.4348 10.5492C9.98101 10.5492 9.6212 10.6991 9.32542 10.9915C9.03946 11.2795 8.90129 11.6202 8.90129 12.0522C8.90129 12.4834 9.03899 12.8236 9.32395 13.1113C9.62047 13.3995 9.98143 13.5492 10.4348 13.5492C10.8159 13.5492 11.0958 13.4421 11.316 13.2529L11.9988 14.1951C11.5542 14.5768 11.0228 14.7492 10.4348 14.7492C9.72893 14.7492 9.09912 14.5038 8.58485 14.0017L8.57901 13.996L8.57905 13.9959C8.06587 13.4803 7.79883 12.8195 7.79883 12.0522C7.79883 11.2848 8.06587 10.624 8.57905 10.1084L8.58187 10.1055L8.58188 10.1055C9.09717 9.59498 9.72858 9.34924 10.4348 9.34924ZM12.7811 10.1055C13.2964 9.59498 13.9278 9.34924 14.634 9.34924C15.2182 9.34924 15.7471 9.52267 16.1945 9.9004L15.5188 10.8486C15.29 10.6554 15.0076 10.5492 14.634 10.5492C14.1802 10.5492 13.8204 10.6991 13.5246 10.9915C13.2387 11.2795 13.1005 11.6202 13.1005 12.0522C13.1005 12.4834 13.2382 12.8236 13.5232 13.1113C13.8197 13.3995 14.1806 13.5492 14.634 13.5492C15.0151 13.5492 15.295 13.4421 15.5152 13.2529L16.198 14.1951C15.7535 14.5768 15.222 14.7492 14.634 14.7492C13.9281 14.7492 13.2983 14.5038 12.7841 14.0017L12.7782 13.996L12.7783 13.9959C12.2651 13.4803 11.998 12.8195 11.998 12.0522C11.998 11.2848 12.2651 10.624 12.7783 10.1084L12.7811 10.1055Z" fill="black"/>
</svg>
