<svg width="24" height="25" viewBox="0 0 24 25" fill="none" xmlns="http://www.w3.org/2000/svg">
<path d="M7.42857 1.89404H16.5714C19.8457 1.89404 22.5 4.54836 22.5 7.82261V16.9655C22.5 20.2397 19.8457 22.894 16.5714 22.894H7.42857C4.15431 22.894 1.5 20.2397 1.5 16.9655V7.82261C1.5 4.54836 4.15431 1.89404 7.42857 1.89404ZM0 7.82261V16.9655C0 21.0682 3.32588 24.394 7.42857 24.394H16.5714C20.6741 24.394 24 21.0682 24 16.9655V7.82261C24 3.71993 20.6741 0.394043 16.5714 0.394043H7.42857C3.32588 0.394043 0 3.71993 0 7.82261ZM10.2272 7.30374C12.1238 7.30374 13.6734 8.5431 14.057 10.1987C14.1051 10.4065 14.2342 10.5864 14.4155 10.6986C14.5969 10.8108 14.8155 10.8459 15.0229 10.7961C15.2771 10.7352 15.4201 10.7048 15.5454 10.7048C16.7898 10.7048 17.7 11.6247 17.7 12.7391C17.7 13.1997 17.5486 13.6149 17.2915 13.9488C17.022 14.2989 17.0872 14.8012 17.4373 15.0707C17.7874 15.3403 18.2897 15.275 18.5593 14.9249C19.0266 14.3179 19.3 13.5613 19.3 12.7391C19.3 10.679 17.6101 9.10483 15.5454 9.10483C15.4929 9.10483 15.4409 9.10672 15.3896 9.11012C14.5888 7.07734 12.5536 5.70374 10.2272 5.70374C7.21706 5.70374 4.69995 8.07155 4.69995 11.0385C4.69995 12.6485 5.4471 14.088 6.60431 15.0606C6.94254 15.3449 7.44718 15.3011 7.73146 14.9629C8.01574 14.6247 7.972 14.12 7.63377 13.8358C6.8092 13.1427 6.29995 12.1393 6.29995 11.0385C6.29995 9.01723 8.03738 7.30374 10.2272 7.30374ZM9.47212 11.7037C9.91395 11.7037 10.2721 12.0619 10.2721 12.5037V16.1148C10.2721 16.5567 9.91395 16.9148 9.47212 16.9148C9.03029 16.9148 8.67212 16.5567 8.67212 16.1148V12.5037C8.67212 12.0619 9.03029 11.7037 9.47212 11.7037ZM12.361 13.8702C11.9192 13.8702 11.561 14.2284 11.561 14.6702V18.2814C11.561 18.7232 11.9192 19.0814 12.361 19.0814C12.8029 19.0814 13.161 18.7232 13.161 18.2814V14.6702C13.161 14.2284 12.8029 13.8702 12.361 13.8702ZM16.05 12.5039C16.05 12.062 15.6918 11.7039 15.25 11.7039C14.8081 11.7039 14.45 12.062 14.45 12.5039V16.115C14.45 16.5568 14.8081 16.915 15.25 16.915C15.6918 16.915 16.05 16.5568 16.05 16.115V12.5039Z" fill="black"/>
</svg>
