<svg width="24" height="24" viewBox="0 0 24 24" fill="none" xmlns="http://www.w3.org/2000/svg">
<path d="M7.42857 1.5H16.5714C19.8457 1.5 22.5 4.15431 22.5 7.42857V16.5714C22.5 19.8457 19.8457 22.5 16.5714 22.5H7.42857C4.15431 22.5 1.5 19.8457 1.5 16.5714V7.42857C1.5 4.15431 4.15431 1.5 7.42857 1.5ZM0 7.42857V16.5714C0 20.6741 3.32588 24 7.42857 24H16.5714C20.6741 24 24 20.6741 24 16.5714V7.42857C24 3.32588 20.6741 0 16.5714 0H7.42857C3.32588 0 0 3.32588 0 7.42857ZM6.30001 10.7547C6.30001 8.73342 8.03744 7.01992 10.2273 7.01992C12.1239 7.01992 13.6735 8.25929 14.057 9.91493C14.1051 10.1227 14.2342 10.3026 14.4156 10.4148C14.5969 10.5269 14.8156 10.5621 15.0229 10.5123C15.2772 10.4514 15.4201 10.421 15.5455 10.421C16.7899 10.421 17.7 11.3409 17.7 12.4553C17.7 12.9159 17.5487 13.331 17.2916 13.665C17.022 14.0151 17.0873 14.5174 17.4374 14.7869C17.7875 15.0565 18.2898 14.9912 18.5593 14.6411C19.0267 14.0341 19.3 13.2775 19.3 12.4553C19.3 10.3952 17.6102 8.82101 15.5455 8.82101C15.493 8.82101 15.4409 8.82291 15.3896 8.8263C14.5889 6.79353 12.5536 5.41992 10.2273 5.41992C7.21713 5.41992 4.70001 7.78773 4.70001 10.7547C4.70001 12.3647 5.44717 13.8042 6.60437 14.7768C6.9426 15.0611 7.44724 15.0173 7.73152 14.6791C8.0158 14.3409 7.97206 13.8362 7.63383 13.552C6.80927 12.8589 6.30001 11.8555 6.30001 10.7547ZM13.1611 14.1645C13.1611 13.7227 12.8029 13.3645 12.3611 13.3645C11.9193 13.3645 11.5611 13.7227 11.5611 14.1645V14.8867C11.5611 15.3286 11.9193 15.6867 12.3611 15.6867C12.8029 15.6867 13.1611 15.3286 13.1611 14.8867V14.1645ZM9.47224 11.9199C9.03041 11.9199 8.67224 12.2781 8.67224 12.7199V13.4421C8.67224 13.884 9.03041 14.2421 9.47224 14.2421C9.91407 14.2421 10.2722 13.884 10.2722 13.4421V12.7199C10.2722 12.2781 9.91407 11.9199 9.47224 11.9199ZM16.05 12.7199C16.05 12.2781 15.6918 11.9199 15.25 11.9199C14.8082 11.9199 14.45 12.2781 14.45 12.7199V13.4421C14.45 13.884 14.8082 14.2421 15.25 14.2421C15.6918 14.2421 16.05 13.884 16.05 13.4421V12.7199ZM12.3611 16.2534C11.9193 16.2534 11.5611 16.6116 11.5611 17.0534V17.7756C11.5611 18.2175 11.9193 18.5756 12.3611 18.5756C12.8029 18.5756 13.1611 18.2175 13.1611 17.7756V17.0534C13.1611 16.6116 12.8029 16.2534 12.3611 16.2534ZM10.2722 15.6088C10.2722 15.167 9.91401 14.8088 9.47218 14.8088C9.03035 14.8088 8.67218 15.167 8.67218 15.6088V16.3311C8.67218 16.7729 9.03035 17.1311 9.47218 17.1311C9.91401 17.1311 10.2722 16.7729 10.2722 16.3311V15.6088ZM15.25 14.8088C14.8082 14.8088 14.45 15.167 14.45 15.6088V16.3311C14.45 16.7729 14.8082 17.1311 15.25 17.1311C15.6918 17.1311 16.05 16.7729 16.05 16.3311V15.6088C16.05 15.167 15.6918 14.8088 15.25 14.8088Z" fill="black"/>
</svg>
