<svg width="24" height="24" viewBox="0 0 24 24" fill="none" xmlns="http://www.w3.org/2000/svg">
<path d="M7.42857 1.5H16.5714C19.8457 1.5 22.5 4.15431 22.5 7.42857V16.5714C22.5 19.8457 19.8457 22.5 16.5714 22.5H7.42857C4.15431 22.5 1.5 19.8457 1.5 16.5714V7.42857C1.5 4.15431 4.15431 1.5 7.42857 1.5ZM0 7.42857V16.5714C0 20.6741 3.32588 24 7.42857 24H16.5714C20.6741 24 24 20.6741 24 16.5714V7.42857C24 3.32588 20.6741 0 16.5714 0H7.42857C3.32588 0 0 3.32588 0 7.42857ZM8.0268 9.8476C6.3195 10.0807 5 11.529 5 13.3C5 15.2327 6.5673 16.8 8.5 16.8H16.2C17.7463 16.8 19 15.5463 19 14C19 12.4537 17.7463 11.2 16.2 11.2C16.2 8.8802 14.3198 7 12 7C10.1541 7 8.5903 8.1921 8.0268 9.8476ZM11.9996 10.1996C12.3586 10.1996 12.6496 10.4906 12.6496 10.8496V12.78L13.0562 12.3734C13.3101 12.1196 13.7216 12.1196 13.9755 12.3734C14.2293 12.6272 14.2293 13.0388 13.9755 13.2926L12.4723 14.7958C12.4187 14.8525 12.3551 14.8996 12.2842 14.9342C12.0417 15.0526 11.7408 15.011 11.5393 14.8095L10.0224 13.2926C9.76857 13.0388 9.76857 12.6272 10.0224 12.3734C10.2763 12.1196 10.6878 12.1196 10.9417 12.3734L11.3496 12.7814V10.8496C11.3496 10.4906 11.6406 10.1996 11.9996 10.1996Z" fill="black"/>
</svg>
