<svg width="24" height="24" viewBox="0 0 24 24" fill="none" xmlns="http://www.w3.org/2000/svg">
<path d="M22.5 7.42857V16.5714C22.5 19.8457 19.8457 22.5 16.5714 22.5H7.42857C4.15431 22.5 1.5 19.8457 1.5 16.5714V7.42857C1.5 4.15431 4.15431 1.5 7.42857 1.5H16.5714C19.8457 1.5 22.5 4.15431 22.5 7.42857ZM16.5714 0H7.42857C3.32588 0 0 3.32588 0 7.42857V16.5714C0 20.6741 3.32588 24 7.42857 24H16.5714C20.6741 24 24 20.6741 24 16.5714V7.42857C24 3.32588 20.6741 0 16.5714 0ZM4.46967 7.13617C4.17678 7.42907 4.17678 7.90394 4.46967 8.19683L5.69723 9.42439C5.25439 10.1477 5 10.9886 5 11.8836C5 14.5492 7.16086 16.71 9.82642 16.71H12.9829L15.1363 18.8634C15.4291 19.1563 15.904 19.1563 16.1969 18.8634C16.4898 18.5705 16.4898 18.0956 16.1969 17.8028L5.53033 7.13617C5.23744 6.84328 4.76257 6.84328 4.46967 7.13617ZM17.0256 16.5316C18.1772 16.1142 19 15.0107 19 13.715C19 12.0057 17.6 10.6627 15.8182 10.6627C15.5636 10.6627 15.3091 10.7238 15.0545 10.7848C14.5455 8.58718 12.5091 7 10.0909 7C9.32726 7 8.60147 7.16347 7.94971 7.45572L17.0256 16.5316Z" fill="black"/>
</svg>
