<svg width="24" height="24" viewBox="0 0 24 24" fill="none" xmlns="http://www.w3.org/2000/svg">
<path d="M16.5714 1.5C19.8457 1.5 22.5 4.15431 22.5 7.42857V16.5714C22.5 19.8457 19.8457 22.5 16.5714 22.5H7.42857C4.15431 22.5 1.5 19.8457 1.5 16.5714V7.42857C1.5 4.15431 4.15431 1.5 7.42857 1.5H16.5714ZM7.42857 0C3.32588 0 0 3.32588 0 7.42857V16.5714C0 20.6741 3.32588 24 7.42857 24H16.5714C20.6741 24 24 20.6741 24 16.5714V7.42857C24 3.32588 20.6741 0 16.5714 0H7.42857ZM9.93989 5.00693C9.87466 4.98975 9.80617 4.9806 9.73555 4.9806C9.65499 4.9806 9.57722 4.99251 9.50389 5.01465C8.40433 5.14217 7.55078 6.07658 7.55078 7.21035C7.55078 7.21036 7.55078 7.21036 7.55078 7.21037C7.55078 8.13928 8.12375 8.93437 8.93555 9.2615V14.7383C8.12375 15.0655 7.55078 15.8606 7.55078 16.7895C7.55078 18.0103 8.54047 19 9.76131 19C10.9821 19 11.9718 18.0103 11.9718 16.7895C11.9718 15.841 11.3745 15.0321 10.5355 14.7183V14.1451C10.8255 14.0671 11.2279 13.993 11.6871 13.993L11.7199 13.993C12.2998 13.9932 13.3278 13.9935 14.3196 13.5268C14.9656 13.2228 15.5603 12.7403 16.0273 12.0126C16.0966 12.0191 16.1668 12.0225 16.2379 12.0225C17.4587 12.0225 18.4484 11.0328 18.4484 9.81193C18.4484 8.59109 17.4587 7.60141 16.2379 7.60141C15.017 7.60141 14.0273 8.59109 14.0273 9.81193C14.0273 10.3772 14.2395 10.893 14.5886 11.2838C14.2959 11.6881 13.9609 11.9272 13.6383 12.0791C12.9911 12.3836 12.2841 12.393 11.6871 12.393C11.2674 12.393 10.877 12.4382 10.5355 12.5042V9.28152C11.1552 9.04978 11.643 8.54796 11.8557 7.91932C11.9078 7.76525 11.9434 7.60356 11.9604 7.43636C11.968 7.36206 11.9718 7.28667 11.9718 7.21037C11.9718 7.21036 11.9718 7.21036 11.9718 7.21035C11.9718 6.04963 11.0772 5.09786 9.93989 5.00693Z" fill="black"/>
</svg>
