<svg width="24" height="24" viewBox="0 0 24 24" fill="none" xmlns="http://www.w3.org/2000/svg">
<path d="M16.5714 1.5C19.8457 1.5 22.5 4.15431 22.5 7.42857V16.5714C22.5 19.8457 19.8457 22.5 16.5714 22.5H7.42857C4.15431 22.5 1.5 19.8457 1.5 16.5714V7.42857C1.5 4.15431 4.15431 1.5 7.42857 1.5H16.5714ZM7.42857 0C3.32588 0 0 3.32588 0 7.42857V16.5714C0 20.6741 3.32588 24 7.42857 24H16.5714C20.6741 24 24 20.6741 24 16.5714V7.42857C24 3.32588 20.6741 0 16.5714 0H7.42857Z" fill="black"/>
<path d="M12.9823 7.58824C12.551 7.49228 12.1236 7.76411 12.0277 8.19539L10.4125 15.4547C10.3165 15.886 10.5883 16.3134 11.0196 16.4094C11.4509 16.5053 11.8783 16.2335 11.9743 15.8022L13.5895 8.54289C13.6854 8.11161 13.4136 7.6842 12.9823 7.58824Z" fill="black"/>
<path d="M14.6199 9.61693C14.3074 9.92935 14.3074 10.4359 14.6199 10.7483L15.869 11.9974L14.6199 13.2466C14.3074 13.559 14.3074 14.0655 14.6199 14.378C14.9323 14.6904 15.4388 14.6904 15.7512 14.378L17.5661 12.5631C17.8785 12.2507 17.8785 11.7442 17.5661 11.4318L15.7512 9.61693C15.4388 9.30451 14.9323 9.30451 14.6199 9.61693Z" fill="black"/>
<path d="M9.38052 9.61693C9.0681 9.30451 8.56157 9.30451 8.24915 9.61693L6.43431 11.4318C6.12189 11.7442 6.12189 12.2507 6.43431 12.5631L8.24915 14.378C8.56157 14.6904 9.0681 14.6904 9.38052 14.378C9.69294 14.0655 9.69294 13.559 9.38052 13.2466L8.13137 11.9974L9.38052 10.7483C9.69294 10.4359 9.69294 9.92935 9.38052 9.61693Z" fill="black"/>
</svg>
