<svg width="24" height="24" viewBox="0 0 24 24" fill="none" xmlns="http://www.w3.org/2000/svg">
<path d="M16.5714 1.5C19.8457 1.5 22.5 4.15431 22.5 7.42857V16.5714C22.5 19.8457 19.8457 22.5 16.5714 22.5H7.42857C4.15431 22.5 1.5 19.8457 1.5 16.5714V7.42857C1.5 4.15431 4.15431 1.5 7.42857 1.5H16.5714ZM7.42857 0C3.32588 0 0 3.32588 0 7.42857V16.5714C0 20.6741 3.32588 24 7.42857 24H16.5714C20.6741 24 24 20.6741 24 16.5714V7.42857C24 3.32588 20.6741 0 16.5714 0H7.42857ZM15.9967 13.9093V13.4253C15.9967 13.0234 15.669 12.6976 15.2708 12.6976H14.8983C14.6315 12.6976 14.3316 12.4957 14.228 12.2454L14.1893 12.152C14.0859 11.9023 14.1575 11.5443 14.3436 11.3583L14.6069 11.095C14.8904 10.8115 14.8875 10.3491 14.6057 10.0673L14.2635 9.72506C13.9793 9.44093 13.5173 9.44225 13.2358 9.72381L12.9725 9.98712C12.7838 10.1757 12.429 10.2451 12.1787 10.1414L12.0853 10.1028C11.8356 9.99938 11.6331 9.69565 11.6331 9.43244V9.05997C11.6331 8.65902 11.3041 8.33398 10.9054 8.33398H10.4214C10.0195 8.33398 9.69371 8.66169 9.69371 9.05997V9.43244C9.69371 9.69926 9.49179 9.99916 9.24152 10.1028L9.14809 10.1414C8.89835 10.2448 8.54043 10.1732 8.35437 9.98712L8.09105 9.72381C7.80761 9.44037 7.34524 9.44319 7.06337 9.72506L6.72115 10.0673C6.43702 10.3514 6.43835 10.8134 6.7199 11.095L6.98321 11.3583C7.17184 11.5469 7.24115 11.9017 7.13754 12.152L7.09886 12.2454C6.99547 12.4952 6.69174 12.6976 6.42854 12.6976H6.05606C5.65511 12.6976 5.33008 13.0266 5.33008 13.4253V13.9093C5.33008 14.3112 5.65778 14.637 6.05606 14.637H6.42854C6.69535 14.637 6.99525 14.8389 7.09886 15.0892L7.13754 15.1826C7.24093 15.4324 7.16928 15.7903 6.98321 15.9764L6.7199 16.2397C6.43646 16.5231 6.43928 16.9855 6.72115 17.2674L7.06337 17.6096C7.3475 17.8937 7.8095 17.8924 8.09105 17.6108L8.35437 17.3475C8.54299 17.1589 8.89782 17.0896 9.14809 17.1932L9.24152 17.2319C9.49126 17.3353 9.69371 17.639 9.69371 17.9022V18.2747C9.69371 18.6756 10.0227 19.0007 10.4214 19.0007H10.9054C11.3073 19.0007 11.6331 18.6729 11.6331 18.2747V17.9022C11.6331 17.6354 11.835 17.3355 12.0853 17.2319L12.1787 17.1932C12.4285 17.0898 12.7864 17.1614 12.9725 17.3475L13.2358 17.6108C13.5192 17.8943 13.9816 17.8914 14.2635 17.6096L14.6057 17.2674C14.8898 16.9832 14.8885 16.5212 14.6069 16.2397L14.3436 15.9764C14.155 15.7877 14.0857 15.4329 14.1893 15.1826L14.228 15.0892C14.3314 14.8395 14.6351 14.637 14.8983 14.637H15.2708C15.6717 14.637 15.9967 14.308 15.9967 13.9093ZM10.6645 13.1406C10.3729 13.1406 10.1367 13.3768 10.1367 13.6684C10.1367 13.96 10.3729 14.1962 10.6645 14.1962C10.9561 14.1962 11.1923 13.96 11.1923 13.6684C11.1923 13.3768 10.9561 13.1406 10.6645 13.1406ZM10.6645 12.1406C11.5083 12.1406 12.1923 12.8246 12.1923 13.6684C12.1923 14.5122 11.5083 15.1962 10.6645 15.1962C9.82065 15.1962 9.13672 14.5122 9.13672 13.6684C9.13672 12.8246 9.82065 12.1406 10.6645 12.1406ZM16.8712 5.5C16.8712 5.22386 16.6473 5 16.3712 5C16.095 5 15.8712 5.22386 15.8712 5.5V5.8407C15.5792 5.91534 15.3172 6.06453 15.1065 6.26672L14.8272 6.1047C14.5884 5.96613 14.2824 6.04743 14.1438 6.28629C14.0053 6.52515 14.0866 6.83111 14.3254 6.96968L14.6165 7.13852C14.5901 7.25824 14.5763 7.38261 14.5763 7.51019C14.5763 7.67788 14.6002 7.84002 14.6449 7.99334L14.3254 8.17874C14.0865 8.31731 14.0052 8.62327 14.1438 8.86213C14.2823 9.10099 14.5883 9.18229 14.8272 9.04372L15.1932 8.83139C15.3868 8.99376 15.6168 9.11434 15.8692 9.17918V9.64666C15.8692 9.92281 16.0931 10.1467 16.3692 10.1467C16.6454 10.1467 16.8692 9.92281 16.8692 9.64666V9.137C17.0895 9.05996 17.2893 8.93948 17.4584 8.78581L17.9144 9.04565C18.1543 9.18237 18.4596 9.09871 18.5963 8.85878C18.733 8.61886 18.6494 8.31353 18.4095 8.17682L17.9717 7.92735C18.0048 7.7938 18.0224 7.65407 18.0224 7.51019C18.0224 7.40651 18.0133 7.30498 17.9958 7.20637L18.4095 6.97064C18.6494 6.83392 18.733 6.52859 18.5963 6.28867C18.4596 6.04875 18.1543 5.96508 17.9144 6.1018L17.5408 6.31467C17.3562 6.12303 17.1276 5.9741 16.8712 5.88406V5.5ZM17.0224 7.51019C17.0224 7.91038 16.6995 8.23327 16.2993 8.23327C15.8998 8.23327 15.5763 7.90934 15.5763 7.51019C15.5763 7.11104 15.8998 6.78711 16.2993 6.78711C16.6995 6.78711 17.0224 7.11001 17.0224 7.51019Z" fill="black"/>
</svg>
