<svg width="24" height="24" viewBox="0 0 24 24" fill="none" xmlns="http://www.w3.org/2000/svg">
<path d="M7.42857 1.5H16.5714C19.8457 1.5 22.5 4.15431 22.5 7.42857V16.5714C22.5 19.8457 19.8457 22.5 16.5714 22.5H7.42857C4.15431 22.5 1.5 19.8457 1.5 16.5714V7.42857C1.5 4.15431 4.15431 1.5 7.42857 1.5ZM0 7.42857V16.5714C0 20.6741 3.32588 24 7.42857 24H16.5714C20.6741 24 24 20.6741 24 16.5714V7.42857C24 3.32588 20.6741 0 16.5714 0H7.42857C3.32588 0 0 3.32588 0 7.42857ZM16.15 13.8587C16.7587 13.6063 17.2921 13.2997 17.7278 12.9515V14.1875C17.7278 14.7673 17.2917 15.3647 16.2109 15.8509C16.1908 15.8599 16.1705 15.8689 16.15 15.8779V13.8587ZM14.85 14.285V16.2971C14.187 16.4515 13.4426 16.5507 12.65 16.5858V14.6083C13.4271 14.568 14.1674 14.4563 14.85 14.285ZM11.35 14.6082V16.5858C10.5556 16.5505 9.81141 16.4508 9.14998 16.2956V14.2849C9.83256 14.4563 10.5729 14.568 11.35 14.6082ZM6.3 12.9736C6.73048 13.3126 7.25415 13.6116 7.84998 13.8587V15.8719L7.80432 15.8515C6.73314 15.3667 6.3 14.7702 6.3 14.1875V12.9736ZM12 6.75C8.1562 6.75 5.036 8.4927 5.00031 10.6501L5 10.6875V14.1875C5 15.5379 6.02364 16.4726 7.26836 17.0359C8.53612 17.6095 10.2224 17.9 12 17.9C13.7777 17.9 15.4702 17.6095 16.7442 17.0365C17.9932 16.4746 19.0278 15.5408 19.0278 14.1875V10.6501H18.9997C18.964 8.4927 15.8438 6.75 12 6.75Z" fill="black"/>
</svg>
