<svg width="24" height="24" viewBox="0 0 24 24" fill="none" xmlns="http://www.w3.org/2000/svg">
<path d="M7 5.5C6.17157 5.5 5.5 6.17157 5.5 7V17C5.5 17.8284 6.17157 18.5 7 18.5H10C10.8284 18.5 11.5 17.8284 11.5 17V7C11.5 6.17157 10.8284 5.5 10 5.5H7ZM14 5.5C13.1716 5.5 12.5 6.17157 12.5 7V17C12.5 17.8284 13.1716 18.5 14 18.5H17C17.8284 18.5 18.5 17.8284 18.5 17V7C18.5 6.17157 17.8284 5.5 17 5.5H14Z" fill="black"/>
<path d="M16.5714 1.5C19.8457 1.5 22.5 4.15431 22.5 7.42857V16.5714C22.5 19.8457 19.8457 22.5 16.5714 22.5H7.42857C4.15431 22.5 1.5 19.8457 1.5 16.5714V7.42857C1.5 4.15431 4.15431 1.5 7.42857 1.5H16.5714ZM7.42857 0C3.32588 0 0 3.32588 0 7.42857V16.5714C0 20.6741 3.32588 24 7.42857 24H16.5714C20.6741 24 24 20.6741 24 16.5714V7.42857C24 3.32588 20.6741 0 16.5714 0H7.42857Z" fill="black"/>
</svg>
