<svg width="24" height="24" viewBox="0 0 24 24" fill="none" xmlns="http://www.w3.org/2000/svg">
<path d="M16.5714 22.5H7.42857C4.15431 22.5 1.5 19.8457 1.5 16.5714V7.42857C1.5 4.15431 4.15431 1.5 7.42857 1.5H16.5714C19.8457 1.5 22.5 4.15431 22.5 7.42857V16.5714C22.5 19.8457 19.8457 22.5 16.5714 22.5ZM24 16.5714V7.42857C24 3.32588 20.6741 0 16.5714 0H7.42857C3.32588 0 0 3.32588 0 7.42857V16.5714C0 20.6741 3.32588 24 7.42857 24H16.5714C20.6741 24 24 20.6741 24 16.5714ZM4.73412 5.53437C4.4217 5.84678 4.4217 6.35332 4.73412 6.66574L6.04242 7.97404C5.66756 8.49962 5.4139 9.11246 5.33148 9.7647C5.05691 11.9325 6.60153 13.7995 8.64705 14.0528C8.7186 14.0616 8.77338 14.1212 8.77338 14.1933V15.0624C8.77338 15.4258 9.19255 15.6289 9.47778 15.4038L10.6915 14.4458C10.9888 14.2111 11.3566 14.0835 11.7354 14.0835H12.1519L13.1394 15.071C12.7767 15.0821 12.4252 15.0718 12.085 15.0402C12.3354 15.3954 12.6077 15.659 12.9018 15.8311C13.343 16.0891 13.9972 16.1929 14.2295 16.2179C14.251 16.2202 14.2725 16.2228 14.294 16.2256L16.7341 18.6657C17.0465 18.9782 17.5531 18.9782 17.8655 18.6657C18.0822 18.449 18.1486 18.1388 18.0646 17.8649C17.9416 17.8272 17.826 17.7592 17.7295 17.661L5.72946 5.46084C5.7068 5.4378 5.68582 5.41374 5.66652 5.38881C5.36547 5.23349 4.98647 5.28201 4.73412 5.53437ZM19.2744 12.7066C19.2214 12.2818 19.0043 11.8308 18.6254 11.4248C18.3728 11.154 18.0434 10.9368 17.637 10.7729C17.6491 12.0869 17.3422 13.0635 16.7163 13.7025C16.6239 13.7968 16.5147 13.9037 16.3871 14.0146L17.9967 15.651C18.8852 15.0179 19.4264 13.9202 19.2744 12.7066ZM16.7601 10.3805C16.8251 8.21664 15.0904 6.24946 12.9412 6.24946H9.26498C9.10213 6.24946 8.94069 6.26057 8.78144 6.28204L15.4643 13.0764C16.2278 12.4083 16.7279 11.4581 16.7601 10.3805Z" fill="black"/>
</svg>
