<svg width="24" height="24" viewBox="0 0 24 24" fill="none" xmlns="http://www.w3.org/2000/svg">
<path d="M7.42857 1.5H16.5714C19.8457 1.5 22.5 4.15431 22.5 7.42857V16.5714C22.5 19.8457 19.8457 22.5 16.5714 22.5H7.42857C4.15431 22.5 1.5 19.8457 1.5 16.5714V7.42857C1.5 4.15431 4.15431 1.5 7.42857 1.5ZM0 7.42857V16.5714C0 20.6741 3.32588 24 7.42857 24H16.5714C20.6741 24 24 20.6741 24 16.5714V7.42857C24 3.32588 20.6741 0 16.5714 0H7.42857C3.32588 0 0 3.32588 0 7.42857ZM5.03868 10.4526C4.69645 13.1547 6.66817 15.4741 9.24269 15.7066V17.6924C9.24269 18.0392 9.66037 18.2135 9.90537 17.9685C10.1582 17.7157 10.4241 17.4496 10.689 17.1847C11.2162 16.6573 11.7393 16.134 12.1462 15.7276H14.1374C16.6924 15.7276 18.9216 13.759 18.9978 11.2047C19.0772 8.56177 16.9585 6.39404 14.3334 6.39404H9.84315C7.46619 6.39404 5.33658 8.09509 5.03868 10.4526Z" fill="black"/>
</svg>
