<svg width="24" height="24" viewBox="0 0 24 24" fill="none" xmlns="http://www.w3.org/2000/svg">
<path d="M7.42857 1.5H16.5714C19.8457 1.5 22.5 4.15431 22.5 7.42857V16.5714C22.5 19.8457 19.8457 22.5 16.5714 22.5H7.42857C4.15431 22.5 1.5 19.8457 1.5 16.5714V7.42857C1.5 4.15431 4.15431 1.5 7.42857 1.5ZM0 7.42857V16.5714C0 20.6741 3.32588 24 7.42857 24H16.5714C20.6741 24 24 20.6741 24 16.5714V7.42857C24 3.32588 20.6741 0 16.5714 0H7.42857C3.32588 0 0 3.32588 0 7.42857ZM5.5 12.2895C5.5 13.6702 6.63781 14.7895 8.01852 14.7895V15.7677C8.01852 16.6196 9.01572 17.0814 9.6654 16.5303L11.4377 15.0269C11.6184 14.8736 11.8477 14.7895 12.0846 14.7895H14.3333C15.714 14.7895 16.8333 13.6702 16.8333 12.2895V8.5C16.8333 7.11929 15.714 6 14.3333 6H8C6.61929 6 5.5 7.11929 5.5 8.5V12.2895ZM8.49994 9.98853H8.56661C8.9256 9.98853 9.21661 10.2795 9.21661 10.6385C9.21661 10.9975 8.9256 11.2885 8.56661 11.2885H8.49994C8.14096 11.2885 7.84995 10.9975 7.84995 10.6385C7.84995 10.2795 8.14096 9.98853 8.49994 9.98853ZM10.5169 10.6385C10.5169 10.2795 10.8079 9.98853 11.1669 9.98853H11.2335C11.5925 9.98853 11.8835 10.2795 11.8835 10.6385C11.8835 10.9975 11.5925 11.2885 11.2335 11.2885H11.1669C10.8079 11.2885 10.5169 10.9975 10.5169 10.6385ZM13.8334 9.98853H13.9001C14.2591 9.98853 14.5501 10.2795 14.5501 10.6385C14.5501 10.9975 14.2591 11.2885 13.9001 11.2885H13.8334C13.4745 11.2885 13.1834 10.9975 13.1834 10.6385C13.1834 10.2795 13.4745 9.98853 13.8334 9.98853ZM18.5 10.3198C18.141 10.3198 17.85 10.6108 17.85 10.9698V13.4561C17.85 14.6926 16.8476 15.695 15.6111 15.695C15.2521 15.695 14.9611 15.986 14.9611 16.345V17.0189L14.4822 16.3676C14.1713 15.9447 13.6777 15.695 13.1529 15.695H12.1667C11.8077 15.695 11.5167 15.986 11.5167 16.345C11.5167 16.704 11.8077 16.995 12.1667 16.995H13.1529C13.2642 16.995 13.3689 17.048 13.4349 17.1377L14.1846 18.1573C14.8426 19.0522 16.2611 18.5868 16.2611 17.4761V16.9355C17.9051 16.6302 19.15 15.1886 19.15 13.4561V10.9698C19.15 10.6108 18.859 10.3198 18.5 10.3198Z" fill="black"/>
</svg>
