<svg width="24" height="24" viewBox="0 0 24 24" fill="none" xmlns="http://www.w3.org/2000/svg">
<path d="M7.42857 22.5C4.15431 22.5 1.5 19.8457 1.5 16.5714V7.42857C1.5 4.15431 4.15431 1.5 7.42857 1.5H16.5714C19.8457 1.5 22.5 4.15431 22.5 7.42857V16.5714C22.5 19.8457 19.8457 22.5 16.5714 22.5H7.42857ZM16.5714 24C20.6741 24 24 20.6741 24 16.5714V7.42857C24 3.32588 20.6741 0 16.5714 0H7.42857C3.32588 0 0 3.32588 0 7.42857V16.5714C0 20.6741 3.32588 24 7.42857 24H16.5714ZM8.96518 6.34961C7.01912 6.34961 5.27557 7.93471 5.03167 9.86485C4.75711 12.0327 6.30172 13.8997 8.34724 14.1529C8.4188 14.1618 8.47357 14.2214 8.47357 14.2935V15.1625C8.47357 15.5259 8.89275 15.7291 9.17797 15.5039L10.3917 14.546C10.689 14.3113 11.0568 14.1836 11.4356 14.1836H12.4809C14.5728 14.1836 16.3979 12.5719 16.4603 10.4806C16.5253 8.31679 14.7906 6.34961 12.6414 6.34961H8.96518ZM8.82039 10.9992C8.4687 10.9992 8.1836 10.7141 8.1836 10.3624C8.1836 10.0107 8.4687 9.72559 8.82039 9.72559C9.17209 9.72559 9.45719 10.0107 9.45719 10.3624C9.45719 10.7141 9.17209 10.9992 8.82039 10.9992ZM10.7306 10.9992C10.3789 10.9992 10.0938 10.7141 10.0938 10.3624C10.0938 10.0107 10.3789 9.72559 10.7306 9.72559C11.0822 9.72559 11.3673 10.0107 11.3673 10.3624C11.3673 10.7141 11.0822 10.9992 10.7306 10.9992ZM13.2775 10.3624C13.2775 10.7141 12.9924 10.9992 12.6407 10.9992C12.289 10.9992 12.0039 10.7141 12.0039 10.3624C12.0039 10.0107 12.289 9.72559 12.6407 9.72559C12.9924 9.72559 13.2775 10.0107 13.2775 10.3624ZM18.3256 11.5249C18.073 11.2542 17.7436 11.0369 17.3372 10.873C17.3493 12.1871 17.0424 13.1636 16.4164 13.8027C16.0084 14.2192 15.2735 14.8799 14.0619 15.0596C13.2542 15.1793 12.4953 15.2063 11.7852 15.1403C12.0356 15.4956 12.3079 15.7592 12.602 15.9312C13.0432 16.1892 13.6974 16.2931 13.9297 16.318C14.162 16.343 14.3995 16.3987 14.5844 16.5463L15.9296 17.6205L15.9632 17.6416C16.0337 17.6751 16.1204 17.6571 16.1712 17.5935C16.1955 17.563 16.2088 17.5252 16.2088 17.4862V16.406L16.2138 16.3729C16.2268 16.331 16.2639 16.2989 16.3103 16.2931C17.954 16.0872 19.1953 14.5693 18.9746 12.8068C18.9216 12.3819 18.7045 11.931 18.3256 11.5249Z" fill="black"/>
</svg>
