<svg width="24" height="24" viewBox="0 0 24 24" fill="none" xmlns="http://www.w3.org/2000/svg">
<path d="M7.42857 1.5H16.5714C19.8457 1.5 22.5 4.15431 22.5 7.42857V16.5714C22.5 19.8457 19.8457 22.5 16.5714 22.5H7.42857C4.15431 22.5 1.5 19.8457 1.5 16.5714V7.42857C1.5 4.15431 4.15431 1.5 7.42857 1.5ZM0 7.42857V16.5714C0 20.6741 3.32588 24 7.42857 24H16.5714C20.6741 24 24 20.6741 24 16.5714V7.42857C24 3.32588 20.6741 0 16.5714 0H7.42857C3.32588 0 0 3.32588 0 7.42857ZM4.92977 6.09461C5.23966 5.77968 5.74617 5.77559 6.0611 6.08548L18.0981 17.9297C18.4131 18.2396 18.4172 18.7461 18.1073 19.0611C17.7974 19.376 17.2909 19.3801 16.9759 19.0702L14.7945 16.9237H13.0493C12.8113 16.9237 12.5811 17.0086 12.4001 17.1631L9.76028 19.416C9.11119 19.97 8.11111 19.5087 8.11111 18.6554V16.9237H8C6.34315 16.9237 5 15.5806 5 13.9237V8.99996C5 8.50138 5.12162 8.03121 5.33682 7.6175L4.9389 7.22595C4.62397 6.91606 4.61988 6.40954 4.92977 6.09461ZM18.1303 16.036C18.6679 15.4938 19 14.7475 19 13.9237V8.99995C19 7.3431 17.6569 5.99995 16 5.99995H8.09434L18.1303 16.036Z" fill="black"/>
</svg>
