<svg width="24" height="24" viewBox="0 0 24 24" fill="none" xmlns="http://www.w3.org/2000/svg">
<path d="M7.42857 1.5H16.5714C19.8457 1.5 22.5 4.15431 22.5 7.42857V16.5714C22.5 19.8457 19.8457 22.5 16.5714 22.5H7.42857C4.15431 22.5 1.5 19.8457 1.5 16.5714V7.42857C1.5 4.15431 4.15431 1.5 7.42857 1.5ZM0 7.42857V16.5714C0 20.6741 3.32588 24 7.42857 24H16.5714C20.6741 24 24 20.6741 24 16.5714V7.42857C24 3.32588 20.6741 0 16.5714 0H7.42857C3.32588 0 0 3.32588 0 7.42857ZM8 16.9237H8.11111V18.6554C8.11111 19.5088 9.11119 19.97 9.76028 19.416L12.4001 17.1631C12.5811 17.0086 12.8113 16.9237 13.0493 16.9237H16C17.6569 16.9237 19 15.5806 19 13.9237V9C19 7.34315 17.6569 6 16 6H8C6.34315 6 5 7.34315 5 9V13.9237C5 15.5806 6.34314 16.9237 8 16.9237Z" fill="black"/>
</svg>
