<svg width="24" height="24" viewBox="0 0 24 24" fill="none" xmlns="http://www.w3.org/2000/svg">
<path d="M7.42857 1.5H16.5714C19.8457 1.5 22.5 4.15431 22.5 7.42857V16.5714C22.5 19.8457 19.8457 22.5 16.5714 22.5H7.42857C4.15431 22.5 1.5 19.8457 1.5 16.5714V7.42857C1.5 4.15431 4.15431 1.5 7.42857 1.5ZM0 7.42857V16.5714C0 20.6741 3.32588 24 7.42857 24H16.5714C20.6741 24 24 20.6741 24 16.5714V7.42857C24 3.32588 20.6741 0 16.5714 0H7.42857C3.32588 0 0 3.32588 0 7.42857ZM9.24269 15.5122V17.4979C9.24269 17.8448 9.66037 18.019 9.90537 17.774L10.6904 16.9888L10.6915 16.9878L10.6915 16.9877C11.2179 16.4612 11.7399 15.9389 12.1462 15.5332H14.1374C16.6924 15.5332 18.9216 13.5646 18.9978 11.0103C19.0772 8.36731 16.9585 6.19958 14.3334 6.19958H9.84315C7.46619 6.19958 5.33658 7.90063 5.03868 10.2581C4.69645 12.9602 6.66817 15.2796 9.24269 15.5122ZM12.551 10.3163C12.8555 10.6208 12.8555 11.1117 12.551 11.4163C12.2465 11.7208 11.7556 11.7208 11.451 11.4163C11.1465 11.1117 11.1465 10.6208 11.451 10.3163C11.7556 10.0118 12.2465 10.0149 12.551 10.3163ZM15.6624 11.4163C15.3578 11.7208 14.8669 11.7208 14.5624 11.4163C14.2579 11.1117 14.2579 10.6208 14.5624 10.3163C14.8669 10.0118 15.3578 10.0149 15.6624 10.3163C15.9669 10.6208 15.9669 11.1117 15.6624 11.4163ZM9.4397 10.3163C9.74422 10.6208 9.74422 11.1117 9.4397 11.4163C9.13519 11.7208 8.64423 11.7208 8.33972 11.4163C8.0352 11.1117 8.0352 10.6208 8.33972 10.3163C8.64423 10.0118 9.13519 10.0149 9.4397 10.3163Z" fill="black"/>
</svg>
