<svg width="24" height="24" viewBox="0 0 24 24" fill="none" xmlns="http://www.w3.org/2000/svg">
<path d="M16.5714 1.5C19.8457 1.5 22.5 4.15431 22.5 7.42857V16.5714C22.5 19.8457 19.8457 22.5 16.5714 22.5H7.42857C4.15431 22.5 1.5 19.8457 1.5 16.5714V7.42857C1.5 4.15431 4.15431 1.5 7.42857 1.5H16.5714ZM7.42857 0C3.32588 0 0 3.32588 0 7.42857V16.5714C0 20.6741 3.32588 24 7.42857 24H16.5714C20.6741 24 24 20.6741 24 16.5714V7.42857C24 3.32588 20.6741 0 16.5714 0H7.42857Z" fill="black"/>
<path d="M11.9996 10.3638C11.0958 10.3638 10.3633 11.0963 10.3633 12.0001C10.3633 12.904 11.0958 13.6365 11.9996 13.6365C12.9035 13.6365 13.636 12.904 13.636 12.0001C13.636 11.0963 12.9035 10.3638 11.9996 10.3638Z" fill="black"/>
<path d="M6.63218 6.6312C6.37834 6.88504 6.37834 7.2966 6.63218 7.55044L9.30986 10.2281C9.5637 10.482 9.97526 10.482 10.2291 10.2281C10.4829 9.97429 10.4829 9.56273 10.2291 9.30889L7.55142 6.6312C7.29758 6.37736 6.88602 6.37736 6.63218 6.6312Z" fill="black"/>
<path d="M17.3678 6.6312C17.1139 6.37736 16.7024 6.37736 16.4485 6.6312L13.7708 9.30889C13.517 9.56273 13.517 9.97429 13.7708 10.2281C14.0247 10.482 14.4362 10.482 14.6901 10.2281L17.3678 7.55044C17.6216 7.2966 17.6216 6.88504 17.3678 6.6312Z" fill="black"/>
<path d="M10.2291 13.7723C9.97526 13.5185 9.5637 13.5185 9.30986 13.7723L6.63218 16.45C6.37834 16.7038 6.37834 17.1154 6.63218 17.3692C6.88602 17.6231 7.29758 17.6231 7.55142 17.3692L10.2291 14.6916C10.4829 14.4377 10.4829 14.0262 10.2291 13.7723Z" fill="black"/>
<path d="M13.7708 13.7723C13.517 14.0262 13.517 14.4377 13.7708 14.6916L16.4485 17.3692C16.7024 17.6231 17.1139 17.6231 17.3678 17.3692C17.6216 17.1154 17.6216 16.7038 17.3678 16.45L14.6901 13.7723C14.4362 13.5185 14.0247 13.5185 13.7708 13.7723Z" fill="black"/>
<path d="M10.3636 9.86364V7.20711C10.3636 6.76165 9.82506 6.53857 9.51008 6.85355L6.85355 9.51008C6.53857 9.82507 6.76165 10.3636 7.20711 10.3636H9.86364C10.1398 10.3636 10.3636 10.1398 10.3636 9.86364Z" fill="black"/>
<path d="M13.6364 14.1364V16.7929C13.6364 17.2383 14.1749 17.4614 14.4899 17.1464L17.1464 14.4899C17.4614 14.1749 17.2383 13.6364 16.7929 13.6364H14.1364C13.8602 13.6364 13.6364 13.8602 13.6364 14.1364Z" fill="black"/>
<path d="M9.86364 13.6364H7.20711C6.76165 13.6364 6.53857 14.1749 6.85355 14.4899L9.51008 17.1464C9.82507 17.4614 10.3636 17.2383 10.3636 16.7929V14.1364C10.3636 13.8602 10.1398 13.6364 9.86364 13.6364Z" fill="black"/>
<path d="M14.1364 10.3636H16.7929C17.2383 10.3636 17.4614 9.82506 17.1464 9.51008L14.4899 6.85355C14.1749 6.53857 13.6364 6.76165 13.6364 7.20711V9.86364C13.6364 10.1398 13.8602 10.3636 14.1364 10.3636Z" fill="black"/>
</svg>
