<svg width="24" height="24" viewBox="0 0 24 24" fill="none" xmlns="http://www.w3.org/2000/svg">
<path d="M16.5714 1.5C19.8457 1.5 22.5 4.15431 22.5 7.42857V16.5714C22.5 19.8457 19.8457 22.5 16.5714 22.5H7.42857C4.15431 22.5 1.5 19.8457 1.5 16.5714V7.42857C1.5 4.15431 4.15431 1.5 7.42857 1.5H16.5714ZM7.42857 0C3.32588 0 0 3.32588 0 7.42857V16.5714C0 20.6741 3.32588 24 7.42857 24H16.5714C20.6741 24 24 20.6741 24 16.5714V7.42857C24 3.32588 20.6741 0 16.5714 0H7.42857Z" fill="black"/>
<path d="M10.9766 16.7496H15.3763C16.757 16.7496 17.8763 15.6303 17.8763 14.2496V8.59416C17.8763 7.98188 17.6516 7.39088 17.2448 6.93325L16.2722 5.83909C15.7978 5.30537 15.1178 5 14.4037 5H10.9766C9.59585 5 8.47656 6.11929 8.47656 7.5V14.2496C8.47656 15.6303 9.59585 16.7496 10.9766 16.7496Z" fill="black"/>
<path d="M8 9.40391H8.59732V8.10391H8C6.53644 8.10391 5.35 9.29035 5.35 10.7539V17.0006C5.35 18.4641 6.53644 19.6506 8 19.6506H12.1973C13.6609 19.6506 14.8473 18.4641 14.8473 17.0006V16.0795H13.5473V17.0006C13.5473 17.7461 12.9429 18.3506 12.1973 18.3506H8C7.25441 18.3506 6.65 17.7461 6.65 17.0006V10.7539C6.65 10.0083 7.25442 9.40391 8 9.40391Z" fill="black"/>
</svg>
