<svg width="24" height="24" viewBox="0 0 24 24" fill="none" xmlns="http://www.w3.org/2000/svg">
<path d="M16.5714 22.5H7.42857C4.15431 22.5 1.5 19.8457 1.5 16.5714V7.42857C1.5 4.15431 4.15431 1.5 7.42857 1.5H16.5714C19.8457 1.5 22.5 4.15431 22.5 7.42857V16.5714C22.5 19.8457 19.8457 22.5 16.5714 22.5ZM7.42857 24H16.5714C20.6741 24 24 20.6741 24 16.5714V7.42857C24 3.32589 20.6741 0 16.5714 0H7.42857C3.32588 0 0 3.32589 0 7.42857V16.5714C0 20.6741 3.32588 24 7.42857 24ZM13.3094 10.1843C12.9969 10.4967 12.9969 11.0032 13.3094 11.3156L15.0687 13.075H9.50005C9.04918 13.075 8.61678 12.8958 8.29797 12.577C7.97915 12.2582 7.80005 11.8258 7.80005 11.375V6.99995C7.80005 6.55813 7.44188 6.19995 7.00005 6.19995C6.55822 6.19995 6.20005 6.55813 6.20005 6.99995V11.375C6.20005 12.2502 6.54773 13.0895 7.1666 13.7084C7.78547 14.3273 8.62483 14.675 9.50005 14.675H15.0687L13.3094 16.4343C12.9969 16.7467 12.9969 17.2532 13.3094 17.5656C13.6218 17.8781 14.1283 17.8781 14.4407 17.5656L17.5657 14.4406C17.7213 14.285 17.7994 14.0813 17.8 13.8774L17.8 13.875L17.8 13.8726C17.7997 13.765 17.7782 13.6624 17.7393 13.5687C17.7003 13.4744 17.6424 13.386 17.5657 13.3093L14.4407 10.1843C14.1283 9.87185 13.6218 9.87185 13.3094 10.1843Z" fill="black"/>
</svg>
