<svg width="24" height="24" viewBox="0 0 24 24" fill="none" xmlns="http://www.w3.org/2000/svg">
<path d="M7.42857 22.5C4.15431 22.5 1.5 19.8457 1.5 16.5714V7.42857C1.5 4.15431 4.15431 1.5 7.42857 1.5H16.5714C19.8457 1.5 22.5 4.15431 22.5 7.42857V16.5714C22.5 19.8457 19.8457 22.5 16.5714 22.5H7.42857ZM16.5714 24C20.6741 24 24 20.6741 24 16.5714V7.42857C24 3.32589 20.6741 0 16.5714 0H7.42857C3.32589 0 0 3.32589 0 7.42857V16.5714C0 20.6741 3.32589 24 7.42857 24H16.5714ZM10.6906 10.1843C10.3782 9.87185 9.87169 9.87185 9.55927 10.1843L6.43427 13.3093C6.35757 13.386 6.2997 13.4744 6.26066 13.5687C6.22183 13.6624 6.20027 13.765 6.19996 13.8726L6.19995 13.875L6.19996 13.8774C6.20056 14.0813 6.27867 14.285 6.43427 14.4406L9.55927 17.5656C9.87169 17.8781 10.3782 17.8781 10.6906 17.5656C11.0031 17.2532 11.0031 16.7467 10.6906 16.4343L8.93132 14.675H14.5C15.3752 14.675 16.2145 14.3273 16.8334 13.7084C17.4523 13.0895 17.8 12.2502 17.8 11.375V6.99995C17.8 6.55813 17.4418 6.19995 17 6.19995C16.5581 6.19995 16.2 6.55813 16.2 6.99995V11.375C16.2 11.8258 16.0208 12.2582 15.702 12.577C15.3832 12.8958 14.9508 13.075 14.5 13.075H8.93132L10.6906 11.3156C11.0031 11.0032 11.0031 10.4967 10.6906 10.1843Z" fill="black"/>
</svg>
