<svg width="24" height="24" viewBox="0 0 24 24" fill="none" xmlns="http://www.w3.org/2000/svg">
<path d="M7.42857 1.5H16.5714C19.8457 1.5 22.5 4.15431 22.5 7.42857V16.5714C22.5 19.8457 19.8457 22.5 16.5714 22.5H7.42857C4.15431 22.5 1.5 19.8457 1.5 16.5714V7.42857C1.5 4.15431 4.15431 1.5 7.42857 1.5ZM0 7.42857V16.5714C0 20.6741 3.32588 24 7.42857 24H16.5714C20.6741 24 24 20.6741 24 16.5714V7.42857C24 3.32588 20.6741 0 16.5714 0H7.42857C3.32588 0 0 3.32588 0 7.42857ZM4.72977 5.63905C4.41988 5.95398 4.42397 6.46049 4.7389 6.77038L6.39001 8.39505L6.78735 14.0217C6.83565 14.7057 7.31121 15.2842 7.97285 15.464L8.63879 15.645L8.99765 15.6444C8.90421 15.3364 8.85388 15.0096 8.85388 14.6712C8.85388 13.6132 9.3444 12.6697 10.1104 12.0559L10.9752 12.9068C10.6362 13.1432 10.3685 13.4749 10.211 13.863C10.136 14.0477 10.0859 14.2453 10.065 14.4514C10.0576 14.5237 10.0539 14.597 10.0539 14.6712C10.0539 15.0207 10.1373 15.3508 10.2853 15.6425H10.2854C10.4135 15.8951 10.5902 16.119 10.803 16.302V17.943C10.803 17.9744 10.8285 17.9999 10.8599 17.9999C10.8706 17.9999 10.8811 17.9969 10.8902 17.9912L11.8958 17.3585C12.0832 17.2405 12.3222 17.242 12.5081 17.3624L13.4792 17.9909C13.5056 18.0078 13.5407 18.0002 13.5577 17.974C13.5634 17.9652 13.5666 17.955 13.5668 17.9445C13.5826 17.269 13.5906 16.7253 13.5906 16.3135C13.7424 16.1852 13.8761 16.0362 13.9875 15.8709L17.2389 19.0702C17.5538 19.3801 18.0603 19.376 18.3702 19.0611C18.6801 18.7461 18.676 18.2396 18.3611 17.9297L15.9772 15.584L15.9839 15.5822L15.5222 15.1285L15.5212 15.1353L14.1734 13.8091L14.1687 13.7985L13.0417 12.691L13.0337 12.6876L11.6858 11.3613L11.6882 11.3609L5.80565 5.58014C5.48926 5.32149 5.02205 5.342 4.72977 5.63905ZM17.5973 14.0269L18.1 7.15334C18.105 7.08526 18.1035 7.01685 18.0955 6.94906C18.026 6.35953 17.4917 5.93798 16.9022 6.0075C16.1956 6.09083 15.5043 6.2093 14.8283 6.36292C14.2085 6.50378 13.4763 6.74329 12.6316 7.08144C12.3589 7.19062 12.0545 7.19015 11.7821 7.0801C10.8909 6.72003 10.1852 6.48097 9.66487 6.36292C9.36884 6.29575 9.04585 6.23383 8.69592 6.17715L17.3852 14.7161C17.5046 14.5098 17.5791 14.2754 17.5973 14.0269Z" fill="black"/>
</svg>
