<svg width="24" height="24" viewBox="0 0 24 24" fill="none" xmlns="http://www.w3.org/2000/svg">
<path d="M7.42857 1.5H16.5714C19.8457 1.5 22.5 4.15431 22.5 7.42857V16.5714C22.5 19.8457 19.8457 22.5 16.5714 22.5H7.42857C4.15431 22.5 1.5 19.8457 1.5 16.5714V7.42857C1.5 4.15431 4.15431 1.5 7.42857 1.5ZM0 7.42857V16.5714C0 20.6741 3.32588 24 7.42857 24H16.5714C20.6741 24 24 20.6741 24 16.5714V7.42857C24 3.32588 20.6741 0 16.5714 0H7.42857C3.32588 0 0 3.32588 0 7.42857ZM11.0136 5.99998C11.0136 5.64099 10.7226 5.34998 10.3636 5.34998C10.0046 5.34998 9.71362 5.64099 9.71362 5.99998V6.96968C9.71362 6.97988 9.71386 6.99003 9.71432 7.00012H9.5C8.11929 7.00012 7 8.11941 7 9.50012V9.71443C6.98999 9.71398 6.97992 9.71375 6.9698 9.71375H6.0001C5.64111 9.71375 5.3501 10.0048 5.3501 10.3637C5.3501 10.7227 5.64111 11.0137 6.0001 11.0137H6.9698C6.97992 11.0137 6.98999 11.0135 7 11.0131V12.4418C6.98999 12.4413 6.97992 12.4411 6.9698 12.4411H6.0001C5.64111 12.4411 5.3501 12.7321 5.3501 13.0911C5.3501 13.4501 5.64111 13.7411 6.0001 13.7411H6.9698C6.97992 13.7411 6.98999 13.7409 7 13.7404V14.5001C7 15.8809 8.11929 17.0001 9.5 17.0001H9.71431C9.71385 17.0101 9.71362 17.0202 9.71362 17.0302V17.9999C9.71362 18.3589 10.0046 18.6499 10.3636 18.6499C10.7226 18.6499 11.0136 18.3589 11.0136 17.9999V17.0302C11.0136 17.0202 11.0134 17.0101 11.0129 17.0001H12.9873C12.9868 17.0101 12.9866 17.0202 12.9866 17.0302V17.9999C12.9866 18.3589 13.2776 18.6499 13.6366 18.6499C13.9956 18.6499 14.2866 18.3589 14.2866 17.9999V17.0302C14.2866 17.0202 14.2863 17.0101 14.2859 17.0001H14.5C15.8807 17.0001 17 15.8809 17 14.5001V13.7404C17.0101 13.7409 17.0202 13.7411 17.0304 13.7411H18.0001C18.3591 13.7411 18.6501 13.4501 18.6501 13.0911C18.6501 12.7321 18.3591 12.4411 18.0001 12.4411H17.0304C17.0202 12.4411 17.0101 12.4413 17 12.4418V11.0131C17.0101 11.0135 17.0202 11.0137 17.0304 11.0137H18.0001C18.3591 11.0137 18.6501 10.7227 18.6501 10.3637C18.6501 10.0048 18.3591 9.71375 18.0001 9.71375H17.0304C17.0202 9.71375 17.0101 9.71398 17 9.71444V9.50012C17 8.11941 15.8807 7.00012 14.5 7.00012H14.2859C14.2863 6.99003 14.2866 6.97988 14.2866 6.96968V5.99998C14.2866 5.64099 13.9956 5.34998 13.6366 5.34998C13.2776 5.34998 12.9866 5.64099 12.9866 5.99998V6.96968C12.9866 6.97988 12.9868 6.99003 12.9873 7.00012H11.0129C11.0134 6.99003 11.0136 6.97988 11.0136 6.96968V5.99998ZM11.3 12.7001H12.7V11.3001H11.3V12.7001ZM10 11.0001C10 10.4478 10.4477 10.0001 11 10.0001H13C13.5523 10.0001 14 10.4478 14 11.0001V13.0001C14 13.5524 13.5523 14.0001 13 14.0001H11C10.4477 14.0001 10 13.5524 10 13.0001V11.0001Z" fill="black"/>
</svg>
