<svg width="24" height="24" viewBox="0 0 24 24" fill="none" xmlns="http://www.w3.org/2000/svg">
<path d="M7.30664 7.30005C6.20207 7.30005 5.30664 8.19548 5.30664 9.30005V9.73281H18.659V9.30005C18.659 8.19548 17.7636 7.30005 16.659 7.30005H7.30664Z" fill="black"/>
<path d="M5.30664 14.6467C5.30664 15.7513 6.20207 16.6467 7.30664 16.6467H16.659C17.7636 16.6467 18.659 15.7513 18.659 14.6467V11.0328H5.30664V14.6467ZM6.85156 14.2099C6.85156 14.0994 6.94111 14.0099 7.05156 14.0099H8.65485C8.76531 14.0099 8.85485 14.0994 8.85485 14.2099V15.1454C8.85485 15.2559 8.76531 15.3454 8.65485 15.3454H7.05156C6.94111 15.3454 6.85156 15.2559 6.85156 15.1454V14.2099ZM9.52258 14.2099C9.52258 14.0994 9.61213 14.0099 9.72258 14.0099H12.6614C12.7719 14.0099 12.8614 14.0994 12.8614 14.2099V15.1454C12.8614 15.2559 12.7719 15.3454 12.6614 15.3454H9.72258C9.61213 15.3454 9.52258 15.2559 9.52258 15.1454V14.2099Z" fill="black"/>
<path d="M0 7.42857V16.5714C0 20.6741 3.32588 24 7.42857 24H16.5714C20.6741 24 24 20.6741 24 16.5714V7.42857C24 3.32588 20.6741 0 16.5714 0H7.42857C3.32588 0 0 3.32588 0 7.42857ZM7.42857 1.5H16.5714C19.8457 1.5 22.5 4.15431 22.5 7.42857V16.5714C22.5 19.8457 19.8457 22.5 16.5714 22.5H7.42857C4.15431 22.5 1.5 19.8457 1.5 16.5714V7.42857C1.5 4.15431 4.15431 1.5 7.42857 1.5Z" fill="black"/>
</svg>
