<svg width="24" height="24" viewBox="0 0 24 24" fill="none" xmlns="http://www.w3.org/2000/svg">
<path d="M16.5714 1.5C19.8457 1.5 22.5 4.15431 22.5 7.42857V16.5714C22.5 19.8457 19.8457 22.5 16.5714 22.5H7.42857C4.15431 22.5 1.5 19.8457 1.5 16.5714V7.42857C1.5 4.15431 4.15431 1.5 7.42857 1.5H16.5714ZM7.42857 0C3.32588 0 0 3.32588 0 7.42857V16.5714C0 20.6741 3.32588 24 7.42857 24H16.5714C20.6741 24 24 20.6741 24 16.5714V7.42857C24 3.32588 20.6741 0 16.5714 0H7.42857Z" fill="black"/>
<path d="M11.9998 8.35C14.0158 8.35 15.6496 9.98382 15.6496 11.9998C15.6496 14.0158 14.0158 15.6496 11.9998 15.6496C9.98382 15.6496 8.35 14.0158 8.35 11.9998C8.35 9.98382 9.98382 8.35 11.9998 8.35ZM11.9998 6.75C9.10017 6.75 6.75 9.10017 6.75 11.9998C6.75 14.8995 9.10017 17.2496 11.9998 17.2496C14.8995 17.2496 17.2496 14.8995 17.2496 11.9998C17.2496 9.10017 14.8995 6.75 11.9998 6.75Z" fill="black"/>
<path d="M11 12C11 12.5523 11.4477 13 12 13C12.5523 13 13 12.5523 13 12C13 11.4477 12.5523 11 12 11C11.4477 11 11 11.4477 11 12Z" fill="black"/>
<path d="M4.2 12C4.2 12.4418 4.55817 12.8 5 12.8H9.08319C9.52502 12.8 9.88319 12.4418 9.88319 12C9.88319 11.5582 9.52502 11.2 9.08319 11.2H5C4.55817 11.2 4.2 11.5582 4.2 12Z" fill="black"/>
<path d="M14.116 12C14.116 12.4418 14.4742 12.8 14.916 12.8H18.9992C19.441 12.8 19.7992 12.4418 19.7992 12C19.7992 11.5582 19.441 11.2 18.9992 11.2H14.916C14.4742 11.2 14.116 11.5582 14.116 12Z" fill="black"/>
<path d="M12 4.2C11.5582 4.2 11.2 4.55817 11.2 5V9.08319C11.2 9.52502 11.5582 9.88319 12 9.88319C12.4418 9.88319 12.8 9.52502 12.8 9.08319V5C12.8 4.55817 12.4418 4.2 12 4.2Z" fill="black"/>
<path d="M12 14.116C11.5582 14.116 11.2 14.4742 11.2 14.916V18.9992C11.2 19.441 11.5582 19.7992 12 19.7992C12.4418 19.7992 12.8 19.441 12.8 18.9992V14.916C12.8 14.4742 12.4418 14.116 12 14.116Z" fill="black"/>
</svg>
