<svg width="24" height="24" viewBox="0 0 24 24" fill="none" xmlns="http://www.w3.org/2000/svg">
<path d="M7.42857 1.5H16.5714C19.8457 1.5 22.5 4.15431 22.5 7.42857V16.5714C22.5 19.8457 19.8457 22.5 16.5714 22.5H7.42857C4.15431 22.5 1.5 19.8457 1.5 16.5714V7.42857C1.5 4.15431 4.15431 1.5 7.42857 1.5ZM0 7.42857V16.5714C0 20.6741 3.32588 24 7.42857 24H16.5714C20.6741 24 24 20.6741 24 16.5714V7.42857C24 3.32588 20.6741 0 16.5714 0H7.42857C3.32588 0 0 3.32588 0 7.42857ZM17.9186 8.21546C18.0377 7.81872 17.8125 7.40061 17.4158 7.28158C17.019 7.16256 16.6009 7.3877 16.4819 7.78444L16.1172 9H13.4833L13.1186 7.78444C13.0253 7.4732 12.7421 7.25749 12.4172 7.25014C12.0924 7.2428 11.7997 7.44549 11.6924 7.75219L11.2556 9H8.62337L8.32788 7.81805C8.22742 7.41621 7.82022 7.17189 7.41837 7.27235C7.01653 7.37281 6.77221 7.78001 6.87267 8.18186L7.0772 9H5.9999C5.66853 9 5.3999 9.26863 5.3999 9.6C5.3999 9.93137 5.66853 10.2 5.9999 10.2H7.3772L7.67715 11.3998H5.9999C5.66853 11.3998 5.3999 11.6684 5.3999 11.9998C5.3999 12.3312 5.66853 12.5998 5.9999 12.5998H7.97715L8.87267 16.1819C8.95304 16.5033 9.23487 16.734 9.5659 16.7492C9.89693 16.7644 10.1987 16.5605 10.3082 16.2477L11.5849 12.5998H12.9972L14.0819 16.2155C14.1771 16.5327 14.4691 16.75 14.8003 16.75C15.1315 16.75 15.4235 16.5327 15.5186 16.2155L16.6033 12.5998H17.9999C18.3313 12.5998 18.5999 12.3312 18.5999 11.9998C18.5999 11.6684 18.3313 11.3998 17.9999 11.3998H16.9634L17.3233 10.2H17.9999C18.3313 10.2 18.5999 9.93137 18.5999 9.6C18.5999 9.26863 18.3313 9 17.9999 9H17.6833L17.9186 8.21546ZM15.3973 11.3998H14.2032L13.8433 10.2H15.7572L15.3973 11.3998ZM14.5632 12.5998H15.0373L14.8003 13.3899L14.5632 12.5998ZM12.6372 11.3998H12.0049L12.3454 10.4271L12.6372 11.3998ZM10.4157 11.3998H9.22331L8.92337 10.2H10.8356L10.4157 11.3998ZM9.52331 12.5998H9.99572L9.72015 13.3871L9.52331 12.5998Z" fill="black"/>
</svg>
