<svg width="24" height="24" viewBox="0 0 24 24" fill="none" xmlns="http://www.w3.org/2000/svg">
<path d="M7.42857 1.5H16.5714C19.8457 1.5 22.5 4.15431 22.5 7.42857V16.5714C22.5 19.8457 19.8457 22.5 16.5714 22.5H7.42857C4.15431 22.5 1.5 19.8457 1.5 16.5714V7.42857C1.5 4.15431 4.15431 1.5 7.42857 1.5ZM0 7.42857V16.5714C0 20.6741 3.32588 24 7.42857 24H16.5714C20.6741 24 24 20.6741 24 16.5714V7.42857C24 3.32588 20.6741 0 16.5714 0H7.42857C3.32588 0 0 3.32588 0 7.42857ZM16.5879 10.4286C16.5879 10.3725 16.5867 10.3165 16.5843 10.2607H16.9431C17.4125 10.2607 17.7931 9.88011 17.7931 9.41067C17.7931 8.94123 17.4125 8.56067 16.9431 8.56067H16.1252C15.8934 8.11756 15.582 7.71718 15.2068 7.37563C14.775 6.98261 14.2666 6.67459 13.7125 6.46566C13.1584 6.25675 12.5669 6.15002 11.9711 6.15002H8.50575C8.28031 6.15002 8.06411 6.23958 7.90471 6.39898C7.7453 6.55839 7.65575 6.77459 7.65575 7.00002V8.56067H7.3002C6.83075 8.56067 6.4502 8.94123 6.4502 9.41067C6.4502 9.88011 6.83075 10.2607 7.3002 10.2607H7.65575V10.7418H7.3002C6.83075 10.7418 6.4502 11.1224 6.4502 11.5918C6.4502 12.0613 6.83075 12.4418 7.3002 12.4418H7.65575V13.8562L7.65575 13.8572L7.65575 13.8581V19C7.65575 19.4695 8.03631 19.85 8.50575 19.85C8.97519 19.85 9.35575 19.4695 9.35575 19V14.7072H11.9711C12.5669 14.7072 13.1584 14.6004 13.7125 14.3915C14.2666 14.1826 14.775 13.8746 15.2068 13.4816C15.5406 13.1778 15.8238 12.8274 16.0455 12.4418H16.9431C17.4125 12.4418 17.7931 12.0613 17.7931 11.5918C17.7931 11.1224 17.4125 10.7418 16.9431 10.7418H16.5755C16.5837 10.6378 16.5879 10.5333 16.5879 10.4286ZM14.8662 10.7418H9.35575V10.2607H14.8817C14.8858 10.3166 14.8879 10.3726 14.8879 10.4286C14.8879 10.5333 14.8806 10.6379 14.8662 10.7418ZM13.7917 12.4418C13.5865 12.587 13.3584 12.7082 13.1128 12.8008C12.7528 12.9365 12.3647 13.0072 11.9711 13.0072H9.35575V12.4418H13.7917ZM13.1128 8.05636C13.4364 8.17838 13.7295 8.35006 13.98 8.56067H9.35575V7.85002H11.9711C12.3647 7.85002 12.7528 7.92066 13.1128 8.05636Z" fill="black"/>
</svg>
