<svg width="24" height="24" viewBox="0 0 24 24" fill="none" xmlns="http://www.w3.org/2000/svg">
<path d="M15.0401 8.24512C15.4961 8.443 16.0262 8.23377 16.224 7.77779C16.4219 7.32182 16.2127 6.79177 15.7567 6.5939C13.6082 5.66152 11.015 6.04017 9.24233 7.81288C8.31488 8.74033 7.75936 9.89874 7.57578 11.1029H7.4C6.90294 11.1029 6.5 11.5058 6.5 12.0029C6.5 12.4999 6.90294 12.9029 7.4 12.9029H7.57666C7.76111 14.1048 8.31621 15.2608 9.24196 16.1867C11.0133 17.9601 13.6067 18.3382 15.7564 17.4062C16.2125 17.2085 16.4219 16.6785 16.2242 16.2225C16.0264 15.7664 15.4965 15.557 15.0404 15.7547C13.5299 16.4096 11.7348 16.1354 10.5151 14.9143C9.94142 14.3406 9.57218 13.64 9.40741 12.9029H13.4251C13.9221 12.9029 14.3251 12.4999 14.3251 12.0029C14.3251 11.5058 13.9221 11.1029 13.4251 11.1029H9.40612C9.57026 10.3637 9.93993 9.66087 10.5151 9.08567C11.7368 7.86395 13.5319 7.59059 15.0401 8.24512Z" fill="black"/>
<path d="M0 7.42857V16.5714C0 20.6741 3.32588 24 7.42857 24H16.5714C20.6741 24 24 20.6741 24 16.5714V7.42857C24 3.32588 20.6741 0 16.5714 0H7.42857C3.32588 0 0 3.32588 0 7.42857ZM7.42857 1.5H16.5714C19.8457 1.5 22.5 4.15431 22.5 7.42857V16.5714C22.5 19.8457 19.8457 22.5 16.5714 22.5H7.42857C4.15431 22.5 1.5 19.8457 1.5 16.5714V7.42857C1.5 4.15431 4.15431 1.5 7.42857 1.5Z" fill="black"/>
</svg>
