<svg width="24" height="24" viewBox="0 0 24 24" fill="none" xmlns="http://www.w3.org/2000/svg">
<path d="M8.05 6.325C7.60817 6.325 7.25 6.68317 7.25 7.125C7.25 7.56682 7.60817 7.925 8.05 7.925H8.375V16.075H8.05C7.60817 16.075 7.25 16.4331 7.25 16.875C7.25 17.3168 7.60817 17.675 8.05 17.675H9.5V18C9.5 18.4418 9.85817 18.8 10.3 18.8C10.7418 18.8 11.1 18.4418 11.1 18V17.675H11.75V18C11.75 18.4418 12.1082 18.8 12.55 18.8C12.9918 18.8 13.35 18.4418 13.35 18V17.6577C13.9368 17.61 14.6468 17.4532 15.2724 17.0602C16.1134 16.5319 16.725 15.6206 16.725 14.25C16.725 13.5584 16.5447 12.9626 16.2139 12.4706C15.8979 12.0006 15.4719 11.6654 15.0221 11.4284C15.1692 11.3062 15.3067 11.1679 15.4295 11.0113C15.7778 10.5672 15.975 10.0171 15.975 9.375C15.975 8.09997 15.3043 7.28839 14.4762 6.8425C14.1147 6.64787 13.7257 6.52218 13.35 6.44348V6C13.35 5.55817 12.9918 5.2 12.55 5.2C12.1082 5.2 11.75 5.55817 11.75 6V6.325H11.1V6C11.1 5.55817 10.7418 5.2 10.3 5.2C9.85817 5.2 9.5 5.55817 9.5 6V6.325H8.05ZM11.4515 10.825H9.975V7.925H12.175C12.674 7.925 13.2732 8.01197 13.7176 8.25125C14.1083 8.46161 14.375 8.77503 14.375 9.375C14.375 9.67045 14.291 9.87032 14.1705 10.0239C14.0408 10.1893 13.8353 10.3418 13.5419 10.4702C12.9478 10.7301 12.152 10.8227 11.4515 10.825ZM11.4541 12.425H12.175C12.872 12.425 13.6624 12.5304 14.2488 12.8297C14.5322 12.9743 14.7441 13.152 14.8861 13.3633C15.0241 13.5686 15.125 13.8478 15.125 14.25C15.125 15.0668 14.7992 15.468 14.4213 15.7054C13.9892 15.9768 13.4091 16.075 12.925 16.075H9.975V12.425H11.425C11.4347 12.425 11.4443 12.425 11.4541 12.425Z" fill="black"/>
<path d="M0 7.42862V16.5715C0 20.6742 3.32588 24 7.42857 24H16.5714C20.6741 24 24 20.6742 24 16.5715V7.42862C24 3.32593 20.6741 4.57764e-05 16.5714 4.57764e-05H7.42857C3.32588 4.57764e-05 0 3.32593 0 7.42862ZM7.42857 1.50005H16.5714C19.8457 1.50005 22.5 4.15436 22.5 7.42862V16.5715C22.5 19.8457 19.8457 22.5 16.5714 22.5H7.42857C4.15431 22.5 1.5 19.8457 1.5 16.5715V7.42862C1.5 4.15436 4.15431 1.50005 7.42857 1.50005Z" fill="black"/>
</svg>
