<svg width="24" height="24" viewBox="0 0 24 24" fill="none" xmlns="http://www.w3.org/2000/svg">
<path d="M16.5638 7.61204C16.3425 7.11065 16.0199 6.65892 15.6174 6.28103C15.2149 5.90325 14.7401 5.60637 14.2216 5.40473C13.703 5.20313 13.1491 5.09998 12.5908 5.09998H9.45445C9.21575 5.09998 8.98684 5.1948 8.81805 5.36358C8.64927 5.53236 8.55445 5.76128 8.55445 5.99998V11.5H7.9999C7.50285 11.5 7.0999 11.9029 7.0999 12.4C7.0999 12.897 7.50285 13.3 7.9999 13.3H8.55445V14.1H8.00059C7.50353 14.1 7.10059 14.5029 7.10059 15C7.10059 15.497 7.50353 15.9 8.00059 15.9H8.55445V18C8.55445 18.497 8.95739 18.9 9.45445 18.9C9.9515 18.9 10.3544 18.497 10.3544 18V15.9H14.4006C14.8976 15.9 15.3006 15.497 15.3006 15C15.3006 14.5029 14.8976 14.1 14.4006 14.1H10.3544V13.3H12.5908C13.1491 13.3 13.703 13.1968 14.2216 12.9952C14.7401 12.7936 15.2149 12.4967 15.6174 12.1189C16.0199 11.741 16.3425 11.2893 16.5638 10.7879C16.7851 10.2864 16.8999 9.74659 16.8999 9.19998C16.8999 8.65336 16.7851 8.1136 16.5638 7.61204ZM10.3544 11.5V6.89998H12.5908C12.9279 6.89998 13.2606 6.96237 13.5693 7.08239C13.8779 7.20239 14.1548 7.37692 14.3854 7.59343C14.616 7.80984 14.7956 8.06364 14.917 8.33874C15.0383 8.61366 15.0999 8.90613 15.0999 9.19998C15.0999 9.49382 15.0383 9.78629 14.917 10.0612C14.7956 10.3363 14.616 10.5901 14.3854 10.8065C14.1548 11.023 13.8779 11.1976 13.5693 11.3176C13.2606 11.4376 12.9279 11.5 12.5908 11.5H10.3544Z" fill="black"/>
<path d="M7.42857 0C3.32588 0 0 3.32588 0 7.42857V16.5714C0 20.6741 3.32588 24 7.42857 24H16.5714C20.6741 24 24 20.6741 24 16.5714V7.42857C24 3.32588 20.6741 0 16.5714 0H7.42857ZM16.5714 1.5C19.8457 1.5 22.5 4.15431 22.5 7.42857V16.5714C22.5 19.8457 19.8457 22.5 16.5714 22.5H7.42857C4.15431 22.5 1.5 19.8457 1.5 16.5714V7.42857C1.5 4.15431 4.15431 1.5 7.42857 1.5H16.5714Z" fill="black"/>
</svg>
