<svg width="24" height="24" viewBox="0 0 24 24" fill="none" xmlns="http://www.w3.org/2000/svg">
<path d="M16.5714 1.5C19.8457 1.5 22.5 4.15431 22.5 7.42857V16.5714C22.5 19.8457 19.8457 22.5 16.5714 22.5H7.42857C4.15431 22.5 1.5 19.8457 1.5 16.5714V7.42857C1.5 4.15431 4.15431 1.5 7.42857 1.5H16.5714ZM7.42857 0C3.32588 0 0 3.32588 0 7.42857V16.5714C0 20.6741 3.32588 24 7.42857 24H16.5714C20.6741 24 24 20.6741 24 16.5714V7.42857C24 3.32588 20.6741 0 16.5714 0H7.42857ZM7.03449 15.9567C6.53844 15.6735 6.36503 15.0398 6.64879 14.5428C6.93196 14.0467 7.56561 13.8733 8.0627 14.1571C8.55874 14.4402 8.73216 15.0739 8.4484 15.571C8.16523 16.067 7.53158 16.2404 7.03449 15.9567ZM6.29085 17.2594C7.50687 17.9535 9.05692 17.5306 9.75109 16.3146C10.1365 15.6395 10.1776 14.8614 9.92977 14.184L11.2112 13.2775L17.011 17.2953C17.6361 17.7286 18.4939 17.573 18.9272 16.9479C18.9536 16.9097 18.9779 16.8707 19 16.8309L12.5272 12.3466L18.9377 7.81174C18.9152 7.77225 18.8906 7.7335 18.8638 7.69562C18.4246 7.07475 17.5653 6.92748 16.9443 7.3667L11.2167 11.4387L9.89149 10.5206C10.3756 9.35713 9.9289 7.98693 8.80634 7.34612C7.59032 6.65195 6.04027 7.07484 5.3461 8.29086C4.65193 9.50688 5.07483 11.0569 6.29085 11.7511C7.13724 12.2343 8.14545 12.1763 8.91424 11.6863L9.90398 12.3719L9.0268 12.9956C8.95652 12.9453 8.88301 12.8981 8.80634 12.8544C7.59032 12.1602 6.04027 12.5831 5.3461 13.7991C4.65193 15.0151 5.07483 16.5652 6.29085 17.2594ZM8.4484 10.0627C8.16523 10.5588 7.53158 10.7322 7.03449 10.4484C6.53844 10.1652 6.36503 9.53159 6.64879 9.0345C6.93196 8.53846 7.56561 8.36504 8.0627 8.6488C8.55874 8.93197 8.73216 9.56562 8.4484 10.0627Z" fill="black"/>
</svg>
