<svg width="24" height="24" viewBox="0 0 24 24" fill="none" xmlns="http://www.w3.org/2000/svg">
<path d="M16.5714 1.5C19.8457 1.5 22.5 4.15431 22.5 7.42857V16.5714C22.5 19.8457 19.8457 22.5 16.5714 22.5H7.42857C4.15431 22.5 1.5 19.8457 1.5 16.5714V7.42857C1.5 4.15431 4.15431 1.5 7.42857 1.5H16.5714ZM7.42857 0C3.32588 0 0 3.32588 0 7.42857V16.5714C0 20.6741 3.32588 24 7.42857 24H16.5714C20.6741 24 24 20.6741 24 16.5714V7.42857C24 3.32588 20.6741 0 16.5714 0H7.42857Z" fill="black"/>
<path d="M11.9412 18C14.6701 18 16.8824 17.2101 16.8824 16.2353V14.8607C16.6121 15.0223 16.3003 15.1628 15.9627 15.2834C14.9083 15.6599 13.4864 15.8827 11.9413 15.8827C10.3961 15.8827 8.97429 15.6599 7.91989 15.2834C7.58214 15.1628 7.27031 15.0222 7 14.8606V16.2353C7 17.2101 9.21224 18 11.9412 18ZM16.8824 13.4121V12.0365C16.6121 12.1981 16.3003 12.3386 15.9627 12.4592C14.9083 12.8357 13.4864 13.0585 11.9413 13.0585C10.3961 13.0585 8.97429 12.8357 7.91989 12.4592C7.58214 12.3386 7.27031 12.198 7 12.0364V13.4121H7.03539C7.03539 13.4639 7.06331 13.5848 7.27467 13.7633C7.48358 13.9397 7.81728 14.1224 8.27598 14.2862C9.18877 14.6122 10.4846 14.8239 11.9413 14.8239C13.3979 14.8239 14.6938 14.6122 15.6066 14.2862C16.0653 14.1224 16.399 13.9397 16.6079 13.7633C16.8192 13.5848 16.8472 13.4639 16.8472 13.4121H16.8824ZM7 9.21216V10.5879H7.03539C7.03539 10.6397 7.06331 10.7606 7.27467 10.9391C7.48358 11.1155 7.81728 11.2982 8.27598 11.462C9.18877 11.788 10.4846 11.9997 11.9413 11.9997C13.3979 11.9997 14.6938 11.788 15.6066 11.462C16.0653 11.2982 16.399 11.1155 16.6079 10.9391C16.8192 10.7606 16.8472 10.6397 16.8472 10.5879H16.8824V9.21227C16.6121 9.37386 16.3003 9.51436 15.9627 9.63495C14.9083 10.0115 13.4864 10.2343 11.9413 10.2343C10.3961 10.2343 8.97429 10.0115 7.91989 9.63495C7.58214 9.51433 7.27031 9.3738 7 9.21216ZM7 7.76367H7.03539C7.03539 7.81551 7.06331 7.9364 7.27467 8.11487C7.48358 8.29128 7.81728 8.47399 8.27598 8.6378C9.18877 8.96377 10.4846 9.17544 11.9413 9.17544C13.3979 9.17544 14.6938 8.96377 15.6066 8.6378C16.0653 8.47399 16.399 8.29128 16.6079 8.11487C16.8192 7.9364 16.8472 7.81551 16.8472 7.76367H16.8824C16.8808 6.78932 14.6692 6 11.9412 6C9.2132 6 7.00156 6.78932 7 7.76367Z" fill="black"/>
</svg>
