<svg width="24" height="24" viewBox="0 0 24 24" fill="none" xmlns="http://www.w3.org/2000/svg">
<path d="M7.42857 1.5H16.5714C19.8457 1.5 22.5 4.15431 22.5 7.42857V16.5714C22.5 19.8457 19.8457 22.5 16.5714 22.5H7.42857C4.15431 22.5 1.5 19.8457 1.5 16.5714V7.42857C1.5 4.15431 4.15431 1.5 7.42857 1.5ZM0 7.42857V16.5714C0 20.6741 3.32588 24 7.42857 24H16.5714C20.6741 24 24 20.6741 24 16.5714V7.42857C24 3.32588 20.6741 0 16.5714 0H7.42857C3.32588 0 0 3.32588 0 7.42857ZM5.29066 11.0065C4.90311 11.5485 4.90311 12.2776 5.29066 12.8195L7.87231 16.0693C8.25172 16.5469 8.82834 16.8252 9.43831 16.8252H17C18.1046 16.8252 19 15.9298 19 14.8252V9C19 7.89543 18.1046 7 17 7H9.43843C8.82839 7 8.25171 7.27842 7.87231 7.75611L5.29066 11.0065ZM10.7425 9.89351C10.9963 9.63966 11.4079 9.63966 11.6617 9.89351L12.7617 10.9934L13.8616 9.89351C14.1154 9.63966 14.527 9.63966 14.7808 9.89351C15.0347 10.1473 15.0347 10.5589 14.7808 10.8127L13.6809 11.9127L14.7808 13.0126C15.0347 13.2665 15.0347 13.678 14.7808 13.9319C14.527 14.1857 14.1154 14.1857 13.8616 13.9319L12.7617 12.8319L11.6617 13.9319C11.4079 14.1857 10.9963 14.1857 10.7425 13.9319C10.4886 13.678 10.4886 13.2665 10.7425 13.0126L11.8424 11.9127L10.7425 10.8127C10.4886 10.5589 10.4886 10.1473 10.7425 9.89351Z" fill="black"/>
</svg>
