<svg width="24" height="24" viewBox="0 0 24 24" fill="none" xmlns="http://www.w3.org/2000/svg">
<path d="M7.42857 22.5C4.15431 22.5 1.5 19.8457 1.5 16.5714V7.42857C1.5 4.15431 4.15431 1.5 7.42857 1.5H16.5714C19.8457 1.5 22.5 4.15431 22.5 7.42857V16.5714C22.5 19.8457 19.8457 22.5 16.5714 22.5H7.42857ZM16.5714 24C20.6741 24 24 20.6741 24 16.5714V7.42857C24 3.32588 20.6741 0 16.5714 0H7.42857C3.32588 0 0 3.32588 0 7.42857V16.5714C0 20.6741 3.32588 24 7.42857 24H16.5714Z" fill="black"/>
<path d="M16 15.5533C17.1046 15.5533 18 14.6579 18 13.5533V8.22C18 7.11543 17.1046 6.22 16 6.22H8C6.89543 6.22 6 7.11543 6 8.22V13.5533C6 14.6579 6.89543 15.5533 8 15.5533H10.9326L10.5742 16.27H8.86719C8.45298 16.27 8.11719 16.6058 8.11719 17.02C8.11719 17.4342 8.45298 17.77 8.86719 17.77H15.1339C15.5481 17.77 15.8839 17.4342 15.8839 17.02C15.8839 16.6058 15.5481 16.27 15.1339 16.27H13.4242L13.0659 15.5533H16ZM8 14.0533C7.72386 14.0533 7.5 13.8295 7.5 13.5533V8.22C7.5 7.94386 7.72386 7.72 8 7.72H16C16.2761 7.72 16.5 7.94386 16.5 8.22V13.5533C16.5 13.8295 16.2761 14.0533 16 14.0533H8Z" fill="black"/>
</svg>
