<svg width="24" height="24" viewBox="0 0 24 24" fill="none" xmlns="http://www.w3.org/2000/svg">
<path d="M7.42857 1.5H16.5714C19.8457 1.5 22.5 4.15431 22.5 7.42857V16.5714C22.5 19.8457 19.8457 22.5 16.5714 22.5H7.42857C4.15431 22.5 1.5 19.8457 1.5 16.5714V7.42857C1.5 4.15431 4.15431 1.5 7.42857 1.5ZM0 7.42857L0 16.5714C0 20.6741 3.32588 24 7.42857 24H16.5714C20.6741 24 24 20.6741 24 16.5714V7.42857C24 3.32588 20.6741 0 16.5714 0L7.42857 0C3.32588 0 0 3.32588 0 7.42857ZM18.2998 13.8333C18.2998 13.3915 17.9416 13.0333 17.4998 13.0333C17.058 13.0333 16.6998 13.3915 16.6998 13.8333V16.2778C16.6998 16.511 16.5108 16.7 16.2776 16.7H7.72203C7.48884 16.7 7.2998 16.511 7.2998 16.2778V13.8333C7.2998 13.3915 6.94163 13.0333 6.4998 13.0333C6.05798 13.0333 5.6998 13.3915 5.6998 13.8333V16.2778C5.6998 17.3946 6.60518 18.3 7.72203 18.3H16.2776C17.3944 18.3 18.2998 17.3946 18.2998 16.2778V13.8333ZM15.6221 11.3433C15.9346 11.0309 15.9346 10.5244 15.6221 10.212C15.3097 9.89956 14.8032 9.89956 14.4908 10.212L12.7998 11.9029V6.49995C12.7998 6.05812 12.4416 5.69995 11.9998 5.69995C11.558 5.69995 11.1998 6.05812 11.1998 6.49995V11.9008L9.51102 10.212C9.1986 9.89956 8.69207 9.89956 8.37965 10.212C8.06723 10.5244 8.06723 11.0309 8.37965 11.3433L11.4091 14.3728C11.5554 14.5329 11.7659 14.6333 11.9998 14.6333C12.0251 14.6333 12.05 14.6321 12.0747 14.6298C12.2542 14.6133 12.4292 14.5363 12.5666 14.3989L15.6221 11.3433Z" fill="black"/>
</svg>
