<svg width="24" height="24" viewBox="0 0 24 24" fill="none" xmlns="http://www.w3.org/2000/svg">
<path d="M16.5714 1.5C19.8457 1.5 22.5 4.15431 22.5 7.42857V16.5714C22.5 19.8457 19.8457 22.5 16.5714 22.5H7.42857C4.15431 22.5 1.5 19.8457 1.5 16.5714V7.42857C1.5 4.15431 4.15431 1.5 7.42857 1.5H16.5714ZM7.42857 0C3.32588 0 0 3.32588 0 7.42857V16.5714C0 20.6741 3.32588 24 7.42857 24H16.5714C20.6741 24 24 20.6741 24 16.5714V7.42857C24 3.32588 20.6741 0 16.5714 0H7.42857Z" fill="black"/>
<path d="M10.8242 6.65H16.0009C16.7465 6.65 17.3509 7.25442 17.3509 8V13.1767C17.3509 13.9223 16.7465 14.5267 16.0009 14.5267H15.8832V15.8267H16.0009C17.4645 15.8267 18.6509 14.6403 18.6509 13.1767V8C18.6509 6.53644 17.4645 5.35 16.0009 5.35H10.8242C9.36066 5.35 8.17422 6.53644 8.17422 8V8.1177H9.47422V8C9.47422 7.25442 10.0786 6.65 10.8242 6.65Z" fill="black"/>
<path d="M6 9.99905V15.9993C6 17.1039 6.89543 17.9993 8 17.9993H14.0003C15.1048 17.9993 16.0003 17.1039 16.0003 15.9993V9.99905C16.0003 8.89448 15.1048 7.99905 14.0003 7.99905H8C6.89543 7.99905 6 8.89448 6 9.99905ZM10.9996 10.683C11.3586 10.683 11.6496 10.974 11.6496 11.333V12.35H12.667C13.026 12.35 13.317 12.641 13.317 13C13.317 13.359 13.026 13.65 12.667 13.65H11.6496V14.6664C11.6496 15.0254 11.3586 15.3164 10.9996 15.3164C10.6406 15.3164 10.3496 15.0254 10.3496 14.6664V13.65H9.33359C8.97461 13.65 8.68359 13.359 8.68359 13C8.68359 12.641 8.97461 12.35 9.33359 12.35H10.3496V11.333C10.3496 10.974 10.6406 10.683 10.9996 10.683Z" fill="black"/>
</svg>
