<svg width="24" height="24" viewBox="0 0 24 24" fill="none" xmlns="http://www.w3.org/2000/svg">
<path d="M16.5714 1.5C19.8457 1.5 22.5 4.15431 22.5 7.42857V16.5714C22.5 19.8457 19.8457 22.5 16.5714 22.5H7.42857C4.15431 22.5 1.5 19.8457 1.5 16.5714V7.42857C1.5 4.15431 4.15431 1.5 7.42857 1.5H16.5714ZM7.42857 0C3.32588 0 0 3.32588 0 7.42857V16.5714C0 20.6741 3.32588 24 7.42857 24H16.5714C20.6741 24 24 20.6741 24 16.5714V7.42857C24 3.32588 20.6741 0 16.5714 0H7.42857Z" fill="black"/>
<path d="M17.0055 12.3324L12.7832 5.99894C12.4665 5.52396 11.7685 5.52396 11.4519 5.99894L7.22956 12.3324C6.87513 12.8641 7.25625 13.5762 7.8952 13.5762H16.3398C16.9788 13.5762 17.3599 12.8641 17.0055 12.3324Z" fill="black"/>
<path d="M7.01367 15.6701V17.2009C7.01367 17.6428 7.37184 18.0009 7.81367 18.0009H16.4228C16.8647 18.0009 17.2228 17.6428 17.2228 17.2009V15.6701C17.2228 15.2283 16.8647 14.8701 16.4228 14.8701H7.81367C7.37184 14.8701 7.01367 15.2283 7.01367 15.6701Z" fill="black"/>
</svg>
