<svg width="24" height="24" viewBox="0 0 24 24" fill="none" xmlns="http://www.w3.org/2000/svg">
<path d="M16.5714 1.5C19.8457 1.5 22.5 4.15431 22.5 7.42857V16.5714C22.5 19.8457 19.8457 22.5 16.5714 22.5H7.42857C4.15431 22.5 1.5 19.8457 1.5 16.5714V7.42857C1.5 4.15431 4.15431 1.5 7.42857 1.5H16.5714ZM7.42857 0C3.32588 0 0 3.32588 0 7.42857V16.5714C0 20.6741 3.32588 24 7.42857 24H16.5714C20.6741 24 24 20.6741 24 16.5714V7.42857C24 3.32588 20.6741 0 16.5714 0H7.42857Z" fill="black"/>
<path d="M8.68421 12.0023C8.68421 10.9849 7.85947 10.1602 6.84211 10.1602C5.82474 10.1602 5 10.9849 5 12.0023C5 13.0196 5.82474 13.8444 6.84211 13.8444C7.85947 13.8444 8.68421 13.0196 8.68421 12.0023Z" fill="black"/>
<path d="M13.8424 12.0023C13.8424 10.9849 13.0177 10.1602 12.0003 10.1602C10.9829 10.1602 10.1582 10.9849 10.1582 12.0023C10.1582 13.0196 10.9829 13.8444 12.0003 13.8444C13.0177 13.8444 13.8424 13.0196 13.8424 12.0023Z" fill="black"/>
<path d="M19.0006 12.0023C19.0006 10.9849 18.1759 10.1602 17.1585 10.1602C16.1411 10.1602 15.3164 10.9849 15.3164 12.0023C15.3164 13.0196 16.1411 13.8444 17.1585 13.8444C18.1759 13.8444 19.0006 13.0196 19.0006 12.0023Z" fill="black"/>
</svg>
