<svg width="24" height="24" viewBox="0 0 24 24" fill="none" xmlns="http://www.w3.org/2000/svg">
<path d="M1.5 7.42857C1.5 4.15431 4.15431 1.5 7.42857 1.5H16.5714C19.8457 1.5 22.5 4.15431 22.5 7.42857V16.5714C22.5 19.8457 19.8457 22.5 16.5714 22.5H7.42857C4.15431 22.5 1.5 19.8457 1.5 16.5714V7.42857ZM0 16.5714C0 20.6741 3.32588 24 7.42857 24H16.5714C20.6741 24 24 20.6741 24 16.5714V7.42857C24 3.32588 20.6741 0 16.5714 0L7.42857 0C3.32588 0 0 3.32588 0 7.42857L0 16.5714Z" fill="black"/>
<path d="M12.0023 15.3158C10.9849 15.3158 10.1602 16.1405 10.1602 17.1579C10.1602 18.1753 10.9849 19 12.0023 19C13.0196 19 13.8444 18.1753 13.8444 17.1579C13.8444 16.1405 13.0196 15.3158 12.0023 15.3158Z" fill="black"/>
<path d="M12.0023 10.1576C10.9849 10.1576 10.1602 10.9823 10.1602 11.9997C10.1602 13.0171 10.9849 13.8418 12.0023 13.8418C13.0196 13.8418 13.8444 13.0171 13.8444 11.9997C13.8444 10.9823 13.0196 10.1576 12.0023 10.1576Z" fill="black"/>
<path d="M12.0023 4.99938C10.9849 4.99938 10.1602 5.82412 10.1602 6.84149C10.1602 7.85886 10.9849 8.6836 12.0023 8.6836C13.0196 8.6836 13.8444 7.85886 13.8444 6.84149C13.8444 5.82412 13.0196 4.99938 12.0023 4.99938Z" fill="black"/>
</svg>
