<svg width="24" height="24" viewBox="0 0 24 24" fill="none" xmlns="http://www.w3.org/2000/svg">
<path d="M7.42857 1.5H16.5714C19.8457 1.5 22.5 4.15431 22.5 7.42857V16.5714C22.5 19.8457 19.8457 22.5 16.5714 22.5H7.42857C4.15431 22.5 1.5 19.8457 1.5 16.5714V7.42857C1.5 4.15431 4.15431 1.5 7.42857 1.5ZM0 7.42857V16.5714C0 20.6741 3.32588 24 7.42857 24H16.5714C20.6741 24 24 20.6741 24 16.5714V7.42857C24 3.32588 20.6741 0 16.5714 0H7.42857C3.32588 0 0 3.32588 0 7.42857ZM19 12C19 8.14067 15.8593 5 12 5C8.13989 5 5 8.13989 5 12C5 15.8601 8.13989 19 12 19C15.8601 19 19 15.8593 19 12ZM9.27777 8.9165C9.69198 8.9165 10.0278 9.25229 10.0278 9.6665V10.4443C10.0278 10.8585 9.69198 11.1943 9.27777 11.1943C8.86356 11.1943 8.52777 10.8585 8.52777 10.4443V9.6665C8.52777 9.25229 8.86356 8.9165 9.27777 8.9165ZM15.4722 9.6665V10.4443C15.4722 10.8585 15.1364 11.1943 14.7222 11.1943C14.308 11.1943 13.9722 10.8585 13.9722 10.4443V9.6665C13.9722 9.25229 14.308 8.9165 14.7222 8.9165C15.1364 8.9165 15.4722 9.25229 15.4722 9.6665ZM12 15.889C10.7034 15.889 9.66663 14.8522 9.66663 13.5557H14.3333C14.3333 14.8522 13.2965 15.889 12 15.889Z" fill="black"/>
</svg>
