<svg width="24" height="24" viewBox="0 0 24 24" fill="none" xmlns="http://www.w3.org/2000/svg">
<path d="M7.42857 1.5H16.5714C19.8457 1.5 22.5 4.15431 22.5 7.42857V16.5714C22.5 19.8457 19.8457 22.5 16.5714 22.5H7.42857C4.15431 22.5 1.5 19.8457 1.5 16.5714V7.42857C1.5 4.15431 4.15431 1.5 7.42857 1.5ZM0 7.42857V16.5714C0 20.6741 3.32588 24 7.42857 24H16.5714C20.6741 24 24 20.6741 24 16.5714V7.42857C24 3.32588 20.6741 0 16.5714 0H7.42857C3.32588 0 0 3.32588 0 7.42857ZM16.9497 16.9497C19.6834 14.2161 19.6834 9.78393 16.9497 7.05026C14.2161 4.31658 9.78393 4.31658 7.05026 7.05026C4.31658 9.78391 4.31658 14.2161 7.05026 16.9497C9.78391 19.6834 14.2161 19.6834 16.9497 16.9497ZM9.68986 14.0304C10.3653 13.6621 11.14 13.4408 12 13.4408C12.8603 13.4408 13.6351 13.6621 14.3105 14.0304C14.7206 14.254 15.0131 14.483 15.1818 14.6517C15.4357 14.9055 15.4357 15.3171 15.1818 15.5709C14.928 15.8248 14.5164 15.8248 14.2626 15.5709C14.1762 15.4845 13.9797 15.3308 13.6881 15.1717C13.1939 14.9022 12.6288 14.7408 12 14.7408C11.3716 14.7408 10.8065 14.9022 10.3122 15.1718C10.1037 15.2854 9.94388 15.3963 9.838 15.4819L9.73722 15.5711C9.48329 15.8248 9.07173 15.8247 8.81798 15.5708C8.56423 15.3168 8.56438 14.9053 8.81832 14.6515C8.9871 14.4829 9.27973 14.254 9.68986 14.0304ZM8.52777 9.6665C8.52777 9.25229 8.86356 8.9165 9.27777 8.9165C9.65746 8.9165 9.97126 9.19865 10.0209 9.56473L10.0278 9.6665V10.4443C10.0278 10.8585 9.69198 11.1943 9.27777 11.1943C8.89807 11.1943 8.58428 10.9121 8.53462 10.546L8.52777 10.4443V9.6665ZM13.9722 9.6665C13.9722 9.25229 14.308 8.9165 14.7222 8.9165C15.1019 8.9165 15.4157 9.19865 15.4654 9.56473L15.4722 9.6665V10.4443C15.4722 10.8585 15.1364 11.1943 14.7222 11.1943C14.3425 11.1943 14.0287 10.9121 13.9791 10.546L13.9722 10.4443V9.6665Z" fill="black"/>
</svg>
