<svg width="24" height="24" viewBox="0 0 24 24" fill="none" xmlns="http://www.w3.org/2000/svg">
<path d="M7.42857 22.5C4.15431 22.5 1.5 19.8457 1.5 16.5714V7.42857C1.5 4.15431 4.15431 1.5 7.42857 1.5H16.5714C19.8457 1.5 22.5 4.15431 22.5 7.42857V16.5714C22.5 19.8457 19.8457 22.5 16.5714 22.5H7.42857ZM16.5714 24C20.6741 24 24 20.6741 24 16.5714V7.42857C24 3.32588 20.6741 0 16.5714 0H7.42857C3.32588 0 0 3.32588 0 7.42857V16.5714C0 20.6741 3.32588 24 7.42857 24H16.5714Z" fill="black"/>
<path d="M8 7C6.89543 7 6 7.89543 6 9V14.8929C6 15.9975 6.89543 16.8929 8 16.8929H16C17.1046 16.8929 18 15.9975 18 14.8929V9C18 7.89543 17.1046 7 16 7H8ZM8.35678 9.18432L10.9247 11.1125C11.5516 11.5832 12.4141 11.5832 13.041 11.1125L15.5934 9.19601C15.8584 8.99704 16.2345 9.05056 16.4335 9.31555C16.6324 9.58054 16.5789 9.95665 16.3139 10.1556L13.7615 12.0721C12.7078 12.8633 11.258 12.8633 10.2042 12.0721L7.63626 10.1439C7.37127 9.94496 7.31775 9.56885 7.51672 9.30386C7.71569 9.03887 8.0918 8.98535 8.35678 9.18432Z" fill="black"/>
</svg>
