<svg width="24" height="24" viewBox="0 0 24 24" fill="none" xmlns="http://www.w3.org/2000/svg">
<path d="M1.5 16.5714V7.42857C1.5 4.15431 4.15431 1.5 7.42857 1.5H16.5714C19.8457 1.5 22.5 4.15431 22.5 7.42857V16.5714C22.5 19.8457 19.8457 22.5 16.5714 22.5H7.42857C4.15431 22.5 1.5 19.8457 1.5 16.5714ZM7.42857 24H16.5714C20.6741 24 24 20.6741 24 16.5714V7.42857C24 3.32588 20.6741 0 16.5714 0H7.42857C3.32588 0 0 3.32588 0 7.42857V16.5714C0 20.6741 3.32588 24 7.42857 24ZM5.5 16.4991C5.5 17.6037 6.39543 18.4991 7.5 18.4991H16.5C17.6046 18.4991 18.5 17.6037 18.5 16.4991V12.5561L14.2858 15.3914C12.9028 16.3219 11.0948 16.3219 9.71189 15.3914L5.5 12.5577V16.4991ZM12.8063 5.74646C12.5547 5.57737 12.2633 5.49529 11.9731 5.50021C11.6996 5.50498 11.4271 5.58706 11.1899 5.74645L6.13871 9.1445C5.28793 9.7165 5.28793 10.9688 6.13943 11.5416L10.3818 14.3958C11.3597 15.0537 12.638 15.0537 13.6159 14.3958L17.8582 11.5416C18.2176 11.2996 18.4252 10.9366 18.4809 10.5547H18.4802C18.5565 10.0326 18.3489 9.47531 17.8575 9.14452L12.8063 5.74646Z" fill="black"/>
</svg>
