<svg width="24" height="24" viewBox="0 0 24 24" fill="none" xmlns="http://www.w3.org/2000/svg">
<path d="M16.5722 1.5C19.8465 1.5 22.5008 4.15431 22.5008 7.42857V16.5714C22.5008 19.8457 19.8465 22.5 16.5722 22.5H7.42935C4.15509 22.5 1.50078 19.8457 1.50078 16.5714V7.42857C1.50078 4.15431 4.15509 1.5 7.42935 1.5H16.5722ZM7.42935 0C3.32667 0 0.000782013 3.32588 0.000782013 7.42857V16.5714C0.000782013 20.6741 3.32667 24 7.42935 24H16.5722C20.6749 24 24.0008 20.6741 24.0008 16.5714V7.42857C24.0008 3.32588 20.6749 0 16.5722 0H7.42935ZM13.6839 7.96566L14.5684 8.8501H7.49961C7.05778 8.8501 6.69961 9.20827 6.69961 9.6501C6.69961 10.0919 7.05778 10.4501 7.49961 10.4501H14.5681L13.6839 11.3343C13.3715 11.6467 13.3715 12.1532 13.6839 12.4657C13.9963 12.7781 14.5029 12.7781 14.8153 12.4657L17.0569 10.2241C17.0963 10.1858 17.1317 10.1435 17.1626 10.0979C17.1764 10.0775 17.1892 10.0566 17.2009 10.0353C17.2638 9.92107 17.2996 9.78976 17.2996 9.6501V9.65004L17.2994 9.63269C17.2977 9.55153 17.2837 9.47059 17.2574 9.39289C17.2192 9.28012 17.1552 9.17417 17.0653 9.08429L14.8153 6.83429C14.5029 6.52187 13.9963 6.52187 13.6839 6.83429C13.3715 7.14671 13.3715 7.65324 13.6839 7.96566ZM10.3157 11.8343C10.0033 11.5219 9.49673 11.5219 9.18431 11.8343L6.93432 14.0843C6.84443 14.1742 6.78041 14.2801 6.74225 14.3929C6.71595 14.4706 6.70193 14.5515 6.70019 14.6327L6.7 14.65V14.6501C6.7 14.7898 6.73579 14.9211 6.7987 15.0353C6.81002 15.0559 6.82232 15.0761 6.83559 15.0959C6.8668 15.1423 6.90274 15.1852 6.94272 15.2241L9.18431 17.4657C9.49673 17.7781 10.0033 17.7781 10.3157 17.4657C10.6281 17.1532 10.6281 16.6467 10.3157 16.3343L9.43149 15.4501H16.5C16.9418 15.4501 17.3 15.0919 17.3 14.6501C17.3 14.2083 16.9418 13.8501 16.5 13.8501H9.43125L10.3157 12.9657C10.6281 12.6532 10.6281 12.1467 10.3157 11.8343Z" fill="black"/>
</svg>
