<svg width="24" height="24" viewBox="0 0 24 24" fill="none" xmlns="http://www.w3.org/2000/svg">
<path d="M7.42857 1.5H16.5714C19.8457 1.5 22.5 4.15431 22.5 7.42857V16.5714C22.5 19.8457 19.8457 22.5 16.5714 22.5H7.42857C4.15431 22.5 1.5 19.8457 1.5 16.5714V7.42857C1.5 4.15431 4.15431 1.5 7.42857 1.5ZM0 7.42857V16.5714C0 20.6741 3.32588 24 7.42857 24H16.5714C20.6741 24 24 20.6741 24 16.5714V7.42857C24 3.32588 20.6741 -1.90735e-06 16.5714 -1.90735e-06H7.42857C3.32588 -1.90735e-06 0 3.32588 0 7.42857ZM11.9844 6L11.8659 6.00544C11.2416 6.06281 10.6494 6.57705 10.6494 7.1925V7.21185L10.9041 13.3661L10.9121 13.4701C10.978 13.9827 11.4323 14.3772 11.9805 14.3772C12.5654 14.3772 13.0436 13.9285 13.0578 13.3661L13.3156 7.21182V7.10397C13.2713 6.50288 12.6536 6.01537 12.0145 6.00035L11.9844 6ZM10.7822 16.7655C10.7822 17.4471 11.3343 17.9997 12.0153 17.9997C12.6964 17.9997 13.2485 17.4471 13.2485 16.7655C13.2485 16.0838 12.6964 15.5312 12.0153 15.5312C11.3343 15.5312 10.7822 16.0838 10.7822 16.7655Z" fill="black"/>
</svg>
