<svg width="25" height="24" viewBox="0 0 25 24" fill="none" xmlns="http://www.w3.org/2000/svg">
<path d="M16.5734 1.5C19.8476 1.5 22.502 4.15431 22.502 7.42857V16.5714C22.502 19.8457 19.8476 22.5 16.5734 22.5H7.43052C4.15627 22.5 1.50195 19.8457 1.50195 16.5714V7.42857C1.50195 4.15431 4.15627 1.5 7.43052 1.5H16.5734ZM7.43052 0C3.32784 0 0.00195312 3.32588 0.00195312 7.42857V16.5714C0.00195312 20.6741 3.32784 24 7.43052 24H16.5734C20.6761 24 24.002 20.6741 24.002 16.5714V7.42857C24.002 3.32588 20.6761 0 16.5734 0H7.43052Z" fill="black"/>
<path d="M16.5708 7.43771C16.2602 7.12343 15.7537 7.1204 15.4394 7.43094L12.5783 10.258C12.2641 10.5685 12.261 11.0751 12.5716 11.3893C12.8821 11.7036 13.3886 11.7067 13.7029 11.3961L16.564 8.56906C16.8783 8.25852 16.8813 7.75199 16.5708 7.43771Z" fill="black"/>
<path d="M17.6075 6H13.9391C13.6718 6 13.538 6.32314 13.727 6.51213L17.3953 10.1805C17.5843 10.3695 17.9075 10.2356 17.9075 9.96837V6.3C17.9075 6.13431 17.7732 6 17.6075 6Z" fill="black"/>
<path d="M7.86587 16.1499C8.17702 16.4635 8.68355 16.4656 8.99723 16.1544L11.4306 13.7407C11.7443 13.4296 11.7463 12.923 11.4352 12.6094C11.124 12.2957 10.6175 12.2936 10.3038 12.6048L7.87045 15.0185C7.55677 15.3297 7.55471 15.8362 7.86587 16.1499Z" fill="black"/>
<path d="M6.40033 18H10.0687C10.336 18 10.4698 17.6769 10.2808 17.4879L6.61247 13.8195C6.42348 13.6305 6.10033 13.7644 6.10033 14.0316V17.7C6.10033 17.8657 6.23465 18 6.40033 18Z" fill="black"/>
</svg>
