<svg width="24" height="24" viewBox="0 0 24 24" fill="none" xmlns="http://www.w3.org/2000/svg">
<path d="M8.36131 9.42245C7.53951 10.1003 6.91978 10.889 6.52187 11.4743C6.16575 11.9982 6.16575 12.6694 6.52187 13.1933C7.38072 14.4567 9.27299 16.6671 12 16.6671C13.0598 16.6671 13.9936 16.3332 14.7896 15.8508L16.8023 17.8634C17.0952 18.1563 17.57 18.1563 17.8629 17.8634C18.1558 17.5705 18.1558 17.0956 17.8629 16.8028L7.19635 6.13617C6.90345 5.84328 6.42858 5.84328 6.13569 6.13617C5.84279 6.42907 5.84279 6.90394 6.13569 7.19683L8.36131 9.42245ZM10.1589 11.22L12.7864 13.8476C12.5486 13.9458 12.2876 14 12.014 14C10.9017 14 10 13.1045 10 12C10 11.7233 10.0566 11.4597 10.1589 11.22Z" fill="black"/>
<path d="M13.9856 11.5901L16.6533 14.2577C16.9895 13.8768 17.2654 13.506 17.478 13.1933C17.8342 12.6694 17.8342 11.9982 17.478 11.4743C16.6192 10.2109 14.7269 8.00049 12 8.00049C11.5041 8.00049 11.0358 8.07358 10.5963 8.20078L12.4404 10.0449C13.215 10.2108 13.8239 10.819 13.9856 11.5901Z" fill="black"/>
<path d="M7.42857 0C3.32588 0 0 3.32588 0 7.42857V16.5714C0 20.6741 3.32588 24 7.42857 24H16.5714C20.6741 24 24 20.6741 24 16.5714V7.42857C24 3.32588 20.6741 0 16.5714 0H7.42857ZM16.5714 1.5C19.8457 1.5 22.5 4.15431 22.5 7.42857V16.5714C22.5 19.8457 19.8457 22.5 16.5714 22.5H7.42857C4.15431 22.5 1.5 19.8457 1.5 16.5714V7.42857C1.5 4.15431 4.15431 1.5 7.42857 1.5H16.5714Z" fill="black"/>
</svg>
