<svg width="24" height="24" viewBox="0 0 24 24" fill="none" xmlns="http://www.w3.org/2000/svg">
<path d="M16.5714 1.5C19.8456 1.5 22.4999 4.15431 22.4999 7.42857V16.5714C22.4999 19.8457 19.8456 22.5 16.5714 22.5H7.42851C4.15425 22.5 1.49994 19.8457 1.49994 16.5714V7.42857C1.49994 4.15431 4.15425 1.5 7.42851 1.5H16.5714ZM7.42851 0C3.32582 0 -6.10352e-05 3.32588 -6.10352e-05 7.42857V16.5714C-6.10352e-05 20.6741 3.32582 24 7.42851 24H16.5714C20.6741 24 23.9999 20.6741 23.9999 16.5714V7.42857C23.9999 3.32588 20.6741 0 16.5714 0H7.42851Z" fill="black"/>
<path d="M5.8006 10.7785C5.24599 11.55 5.24599 12.5611 5.8006 13.3326C6.87721 14.8303 9.00793 17.1111 11.9999 17.1111C14.9919 17.1111 17.1227 14.8303 18.1993 13.3326C18.7539 12.5611 18.7539 11.55 18.1993 10.7785C17.1227 9.2808 14.9919 7 11.9999 7C9.00793 7 6.87721 9.2808 5.8006 10.7785ZM13.0653 12.0555C13.0653 11.4933 12.6039 11.0222 12.0156 11.0222C11.4273 11.0222 10.966 11.4933 10.966 12.0555C10.966 12.6177 11.4273 13.0888 12.0156 13.0888C12.6039 13.0888 13.0653 12.6177 13.0653 12.0555ZM12.0156 14.3888C10.7179 14.3888 9.66595 13.3442 9.66595 12.0555C9.66595 10.7668 10.7179 9.72217 12.0156 9.72217C13.3133 9.72217 14.3653 10.7668 14.3653 12.0555C14.3653 13.3442 13.3133 14.3888 12.0156 14.3888Z" fill="black"/>
</svg>
