<svg width="24" height="24" viewBox="0 0 24 24" fill="none" xmlns="http://www.w3.org/2000/svg">
<path d="M7.42857 22.5C4.15431 22.5 1.5 19.8457 1.5 16.5714V7.42857C1.5 4.15431 4.15431 1.5 7.42857 1.5H16.5714C19.8457 1.5 22.5 4.15431 22.5 7.42857V16.5714C22.5 19.8457 19.8457 22.5 16.5714 22.5H7.42857ZM0 16.5714C0 20.6741 3.32589 24 7.42857 24H16.5714C20.6741 24 24 20.6741 24 16.5714V7.42857C24 3.32589 20.6741 0 16.5714 0H7.42857C3.32588 0 0 3.32589 0 7.42857V16.5714ZM8.04351 11.4206C7.98919 11.4546 7.94165 11.4941 7.90088 11.5379V8.5544C7.90088 8.14019 7.56509 7.8044 7.15088 7.8044C6.73667 7.8044 6.40088 8.14019 6.40088 8.5544V15.4115C6.40088 15.8257 6.73667 16.1615 7.15088 16.1615C7.56509 16.1615 7.90088 15.8257 7.90088 15.4115V12.4806C7.94181 12.5245 7.98958 12.5641 8.04418 12.5981L12.2917 16.1622C12.7541 16.4517 13.3545 16.1186 13.3545 15.5731V13.5321L16.4889 16.1622C16.9513 16.4517 17.5518 16.1186 17.5518 15.5731V8.44562C17.5518 7.90011 16.9513 7.56771 16.4889 7.85655L13.3545 10.4862V8.44562C13.3545 7.90011 12.7541 7.56771 12.2917 7.85655L8.04351 11.4206Z" fill="black"/>
</svg>
