<svg width="24" height="24" viewBox="0 0 24 24" fill="none" xmlns="http://www.w3.org/2000/svg">
<path d="M16.5714 22.5C19.8457 22.5 22.5 19.8457 22.5 16.5714L22.5 7.42857C22.5 4.15431 19.8457 1.5 16.5714 1.5L7.42857 1.5C4.15431 1.5 1.5 4.15431 1.5 7.42857L1.5 16.5714C1.5 19.8457 4.15431 22.5 7.42857 22.5L16.5714 22.5ZM24 16.5714C24 20.6741 20.6741 24 16.5714 24L7.42857 24C3.32589 24 0 20.6741 0 16.5714L0 7.42857C0 3.32588 3.32589 -1.90735e-06 7.42857 -1.90735e-06L16.5714 -1.90735e-06C20.6741 -1.90735e-06 24 3.32588 24 7.42857L24 16.5714ZM15.9565 11.4206C16.0108 11.4546 16.0584 11.4941 16.0991 11.5379L16.0991 8.5544C16.0991 8.14019 16.4349 7.8044 16.8491 7.8044C17.2633 7.8044 17.5991 8.14019 17.5991 8.5544L17.5991 15.4115C17.5991 15.8257 17.2633 16.1615 16.8491 16.1615C16.4349 16.1615 16.0991 15.8257 16.0991 15.4115V12.4806C16.0582 12.5245 16.0104 12.5641 15.9558 12.5981L11.7083 16.1622C11.2459 16.4517 10.6455 16.1186 10.6455 15.5731V13.5321L7.51107 16.1622C7.04866 16.4517 6.4482 16.1186 6.4482 15.5731L6.4482 8.44561C6.4482 7.9001 7.04866 7.56771 7.51107 7.85654L10.6455 10.4862V8.44561C10.6455 7.9001 11.2459 7.56771 11.7083 7.85654L15.9565 11.4206Z" fill="black"/>
</svg>
