<svg width="24" height="24" viewBox="0 0 24 24" fill="none" xmlns="http://www.w3.org/2000/svg">
<path d="M7.42857 1.5H16.5714C19.8457 1.5 22.5 4.15431 22.5 7.42857V16.5714C22.5 19.8457 19.8457 22.5 16.5714 22.5H7.42857C4.15431 22.5 1.5 19.8457 1.5 16.5714V7.42857C1.5 4.15431 4.15431 1.5 7.42857 1.5ZM0 7.42857V16.5714C0 20.6741 3.32588 24 7.42857 24H16.5714C20.6741 24 24 20.6741 24 16.5714V7.42857C24 3.32588 20.6741 0 16.5714 0H7.42857C3.32588 0 0 3.32588 0 7.42857ZM11.8281 16.3188C12.0914 16.3188 12.3441 16.215 12.5313 16.0298L13.926 14.6501H10.7392L12.0489 13.3501H15.2214L15.2399 13.3504L17.6304 10.9855C18.7898 9.82609 18.7898 8.02899 17.6304 6.86957C16.471 5.71014 14.6739 5.71014 13.5145 6.86957L8.47405 11.91C8.28651 12.0975 8.18115 12.3519 8.18115 12.6171V15.3188C8.18115 15.3315 8.18139 15.3442 8.18186 15.3568L6.04207 17.4807C5.78729 17.7336 5.78576 18.1452 6.03865 18.3999C6.29155 18.6547 6.7031 18.6563 6.95788 18.4034L9.06472 16.3121C9.10292 16.3166 9.14177 16.3188 9.18115 16.3188H11.8281Z" fill="black"/>
</svg>
