<svg width="24" height="24" viewBox="0 0 24 24" fill="none" xmlns="http://www.w3.org/2000/svg">
<path d="M16.5714 22.4998H7.42857C4.15431 22.4998 1.5 19.8454 1.5 16.5712V7.42833C1.5 4.15407 4.15431 1.49976 7.42857 1.49976H16.5714C19.8457 1.49976 22.5 4.15407 22.5 7.42833V16.5712C22.5 19.8454 19.8457 22.4998 16.5714 22.4998ZM24 16.5712V7.42833C24 3.32564 20.6741 -0.000244141 16.5714 -0.000244141H7.42857C3.32588 -0.000244141 0 3.32564 0 7.42833V16.5712C0 20.6739 3.32588 23.9998 7.42857 23.9998H16.5714C20.6741 23.9998 24 20.6739 24 16.5712ZM15.6 18.8104C16.7046 18.8104 17.6 17.915 17.6 16.8104V11.1104V8.72083C17.6 8.231 17.4202 7.7582 17.0948 7.3921L15.3967 5.4817C15.0172 5.05472 14.4731 4.81043 13.9019 4.81043H12H8.4C7.29543 4.81043 6.4 5.70586 6.4 6.81043V16.8104C6.4 17.915 7.29543 18.8104 8.4 18.8104H15.6ZM14.2844 11.2133V11.6985H15.0986C15.3195 11.6985 15.4986 11.8776 15.4986 12.0985C15.4986 12.3194 15.3195 12.4985 15.0986 12.4985H14.2844V13.3884C14.2844 13.6093 14.1053 13.7884 13.8844 13.7884C13.6635 13.7884 13.4844 13.6093 13.4844 13.3884V12.0985V10.8133C13.4844 10.5924 13.6635 10.4133 13.8844 10.4133H15.3506C15.5715 10.4133 15.7506 10.5924 15.7506 10.8133C15.7506 11.0342 15.5715 11.2133 15.3506 11.2133H14.2844ZM12.7434 10.8104V13.3877C12.7434 13.6086 12.5643 13.7877 12.3434 13.7877C12.1225 13.7877 11.9434 13.6086 11.9434 13.3877V10.8104C11.9434 10.5895 12.1225 10.4104 12.3434 10.4104C12.5643 10.4104 12.7434 10.5895 12.7434 10.8104ZM8.25001 12.0991C8.25001 11.1662 9.00584 10.4104 9.93867 10.4104H10.7978C11.0187 10.4104 11.1978 10.5895 11.1978 10.8104C11.1978 11.0313 11.0187 11.2104 10.7978 11.2104H9.93867C9.44767 11.2104 9.05001 11.6081 9.05001 12.0991C9.05001 12.5901 9.44767 12.9877 9.93867 12.9877H10.3978V12.4991H10.0819C9.86094 12.4991 9.68186 12.32 9.68186 12.0991C9.68186 11.8782 9.86094 11.6991 10.0819 11.6991H10.7978C11.0187 11.6991 11.1978 11.8782 11.1978 12.0991V13.3877C11.1978 13.6086 11.0187 13.7877 10.7978 13.7877H9.93867C9.00584 13.7877 8.25001 13.0319 8.25001 12.0991Z" fill="black"/>
</svg>
