<svg width="24" height="24" viewBox="0 0 24 24" fill="none" xmlns="http://www.w3.org/2000/svg">
<path d="M16.5714 22.4998H7.42857C4.15431 22.4998 1.5 19.8454 1.5 16.5712V7.42833C1.5 4.15407 4.15431 1.49976 7.42857 1.49976H16.5714C19.8457 1.49976 22.5 4.15407 22.5 7.42833V16.5712C22.5 19.8454 19.8457 22.4998 16.5714 22.4998ZM24 16.5712V7.42833C24 3.32564 20.6741 -0.000244141 16.5714 -0.000244141H7.42857C3.32589 -0.000244141 0 3.32564 0 7.42833V16.5712C0 20.6739 3.32589 23.9998 7.42857 23.9998H16.5714C20.6741 23.9998 24 20.6739 24 16.5712ZM8.4 18.8104H15.6C16.7046 18.8104 17.6 17.915 17.6 16.8104V11.1104V8.72083C17.6 8.231 17.4202 7.7582 17.0948 7.3921L15.3967 5.4817C15.0172 5.05472 14.4731 4.81043 13.9019 4.81043H12H8.4C7.29543 4.81043 6.4 5.70586 6.4 6.81043V16.8104C6.4 17.915 7.29543 18.8104 8.4 18.8104ZM8.8 14.8105C8.8 14.4791 9.06863 14.2105 9.4 14.2105H14.4C14.7314 14.2105 15 14.4791 15 14.8105C15 15.1418 14.7314 15.4105 14.4 15.4105H9.4C9.06863 15.4105 8.8 15.1418 8.8 14.8105ZM9.4 12.2105H14.4C14.7314 12.2105 15 12.4791 15 12.8105C15 13.1418 14.7314 13.4105 14.4 13.4105H9.4C9.06863 13.4105 8.8 13.1418 8.8 12.8105C8.8 12.4791 9.06863 12.2105 9.4 12.2105ZM8.8 10.8105C8.8 10.4791 9.06863 10.2105 9.4 10.2105H14.4C14.7314 10.2105 15 10.4791 15 10.8105C15 11.1418 14.7314 11.4105 14.4 11.4105H9.4C9.06863 11.4105 8.8 11.1418 8.8 10.8105Z" fill="black"/>
</svg>
