<svg width="24" height="25" viewBox="0 0 24 25" fill="none" xmlns="http://www.w3.org/2000/svg">
<path d="M16.5714 23.3104H7.42857C4.15431 23.3104 1.5 20.6561 1.5 17.3819V8.239C1.5 4.96474 4.15431 2.31042 7.42857 2.31043L16.5714 2.31043C19.8457 2.31043 22.5 4.96474 22.5 8.239V17.3819C22.5 20.6561 19.8457 23.3104 16.5714 23.3104ZM24 17.3819L24 8.239C24 4.13631 20.6741 0.810425 16.5714 0.810425L7.42857 0.810425C3.32588 0.810425 3.37175e-07 4.13631 1.68587e-07 8.239L0 17.3819C6.7435e-07 21.4845 3.32589 24.8104 7.42857 24.8104L16.5714 24.8104C20.6741 24.8104 24 21.4845 24 17.3819ZM18.6646 10.083C18.4 9.81839 17.9476 10.0058 17.9476 10.38V12.0733L16.9998 12.0734V9.72083C16.9998 9.23101 16.8201 8.75821 16.4946 8.39211L14.7965 6.48171C14.417 6.05473 13.873 5.81044 13.3017 5.81044L7.79981 5.81044C6.69524 5.81044 5.79981 6.70587 5.79981 7.81044L5.79981 17.8104C5.79981 18.915 6.69524 19.8104 7.79981 19.8104H14.9998C16.1044 19.8104 16.9998 18.915 16.9998 17.8104L16.9998 13.5736L12.2911 13.5738C11.8769 13.5739 11.541 13.2382 11.5409 12.824C11.5408 12.4097 11.8765 12.0739 12.2908 12.0738L17.0215 12.0736L17.0215 13.5734L17.9476 13.5733V15.2937C17.9476 15.6679 18.4 15.8553 18.6646 15.5907L21.1215 13.1338C21.2855 12.9698 21.2855 12.7039 21.1215 12.5399L18.6646 10.083Z" fill="black"/>
</svg>
