<svg width="24" height="24" viewBox="0 0 24 24" fill="none" xmlns="http://www.w3.org/2000/svg">
<path d="M16.5714 22.4998H7.42857C4.15431 22.4998 1.5 19.8454 1.5 16.5712V7.42833C1.5 4.15407 4.15431 1.49976 7.42857 1.49976H16.5714C19.8457 1.49976 22.5 4.15407 22.5 7.42833V16.5712C22.5 19.8454 19.8457 22.4998 16.5714 22.4998ZM24 16.5712V7.42833C24 3.32564 20.6741 -0.000244141 16.5714 -0.000244141H7.42857C3.32589 -0.000244141 0 3.32564 0 7.42833V16.5712C0 20.6739 3.32589 23.9998 7.42857 23.9998H16.5714C20.6741 23.9998 24 20.6739 24 16.5712ZM8.40039 18.9998H15.6004C16.705 18.9998 17.6004 18.1043 17.6004 16.9998V11.2998V8.91016C17.6004 8.42033 17.4206 7.94753 17.0952 7.58143L15.3971 5.67103C15.0175 5.24405 14.4735 4.99976 13.9023 4.99976H12.0004H8.40039C7.29582 4.99976 6.40039 5.89519 6.40039 6.99976V16.9998C6.40039 18.1043 7.29582 18.9998 8.40039 18.9998ZM10.1539 12.5199C9.95868 12.7152 9.6421 12.7152 9.44684 12.5199C9.25158 12.3247 9.25158 12.0081 9.44684 11.8128L11.6135 9.6462C11.8087 9.45094 12.1253 9.45094 12.3206 9.6462L14.4872 11.8128C14.6825 12.0081 14.6825 12.3247 14.4872 12.5199C14.2919 12.7152 13.9754 12.7152 13.7801 12.5199L12.4674 11.2072V14.9999C12.4674 15.276 12.2435 15.4999 11.9674 15.4999C11.6912 15.4999 11.4674 15.276 11.4674 14.9999V11.2065L10.1539 12.5199Z" fill="black"/>
</svg>
