<svg width="24" height="24" viewBox="0 0 24 24" fill="none" xmlns="http://www.w3.org/2000/svg">
<path d="M16.5714 22.4998H7.42857C4.15431 22.4998 1.5 19.8454 1.5 16.5712V7.42833C1.5 4.15407 4.15431 1.49976 7.42857 1.49976H16.5714C19.8457 1.49976 22.5 4.15407 22.5 7.42833V16.5712C22.5 19.8454 19.8457 22.4998 16.5714 22.4998ZM24 16.5712V7.42833C24 3.32564 20.6741 -0.000244141 16.5714 -0.000244141H7.42857C3.32589 -0.000244141 0 3.32564 0 7.42833V16.5712C0 20.6739 3.32589 23.9998 7.42857 23.9998H16.5714C20.6741 23.9998 24 20.6739 24 16.5712ZM8.40033 18.9998H15.6003C16.7049 18.9998 17.6003 18.1043 17.6003 16.9998V11.2998V8.91016C17.6003 8.42033 17.4206 7.94753 17.0951 7.58143L15.397 5.67103C15.0175 5.24405 14.4735 4.99976 13.9022 4.99976H12.0003H8.40033C7.29576 4.99976 6.40033 5.89519 6.40033 6.99976V16.9998C6.40033 18.1043 7.29576 18.9998 8.40033 18.9998ZM15.347 10.4998L14.2803 14.9998H12.8302L12.1735 11.9708H12.1469L11.5016 14.9998H10.0742L8.99994 10.4998H10.359L10.8866 13.6774H10.9132L11.5433 10.4998H12.8302L13.468 13.6774H13.4945L14.0184 10.4998H15.347Z" fill="black"/>
</svg>
