<svg width="24" height="24" viewBox="0 0 24 24" fill="none" xmlns="http://www.w3.org/2000/svg">
<path d="M16.5714 22.5H7.42857C4.15431 22.5 1.5 19.8457 1.5 16.5714V7.42857C1.5 4.15431 4.15431 1.5 7.42857 1.5H16.5714C19.8457 1.5 22.5 4.15431 22.5 7.42857V16.5714C22.5 19.8457 19.8457 22.5 16.5714 22.5ZM24 16.5714V7.42857C24 3.32589 20.6741 0 16.5714 0H7.42857C3.32589 0 0 3.32589 0 7.42857V16.5714C0 20.6741 3.32589 24 7.42857 24H16.5714C20.6741 24 24 20.6741 24 16.5714ZM8.40039 19H15.6004C16.705 19 17.6004 18.1046 17.6004 17V11.3V8.9104C17.6004 8.42057 17.4206 7.94777 17.0952 7.58167L15.3971 5.67127C15.0175 5.2443 14.4735 5 13.9023 5H12.0004H8.40039C7.29582 5 6.40039 5.89543 6.40039 7V17C6.40039 18.1046 7.29582 19 8.40039 19ZM12 9.90003C13.933 9.90003 15.5 11.467 15.5 13.4C15.5 15.333 13.933 16.9 12 16.9C10.067 16.9 8.5 15.333 8.5 13.4C8.5 11.467 10.067 9.90003 12 9.90003ZM12.0008 14.1C12.3874 14.1 12.7008 13.7866 12.7008 13.4C12.7008 13.0134 12.3874 12.7 12.0008 12.7C11.6142 12.7 11.3008 13.0134 11.3008 13.4C11.3008 13.7866 11.6142 14.1 12.0008 14.1Z" fill="black"/>
</svg>
