<svg width="24" height="24" viewBox="0 0 24 24" fill="none" xmlns="http://www.w3.org/2000/svg">
<path d="M16.5714 22.4998H7.42857C4.15431 22.4998 1.5 19.8454 1.5 16.5712V7.42833C1.5 4.15407 4.15431 1.49976 7.42857 1.49976H16.5714C19.8457 1.49976 22.5 4.15407 22.5 7.42833V16.5712C22.5 19.8454 19.8457 22.4998 16.5714 22.4998ZM24 16.5712V7.42833C24 3.32564 20.6741 -0.000244141 16.5714 -0.000244141H7.42857C3.32589 -0.000244141 0 3.32564 0 7.42833V16.5712C0 20.6739 3.32589 23.9998 7.42857 23.9998H16.5714C20.6741 23.9998 24 20.6739 24 16.5712ZM8.40039 18.9998H15.6004C16.705 18.9998 17.6004 18.1043 17.6004 16.9998V11.2998V8.91016C17.6004 8.42033 17.4206 7.94753 17.0952 7.58143L15.3971 5.67103C15.0175 5.24405 14.4735 4.99976 13.9023 4.99976H12.0004H8.40039C7.29582 4.99976 6.40039 5.89519 6.40039 6.99976V16.9998C6.40039 18.1043 7.29582 18.9998 8.40039 18.9998ZM11.9825 9.49993C12.3021 9.50744 12.6109 9.7512 12.6331 10.0517V10.1057L12.5042 13.1828C12.4971 13.464 12.258 13.6883 11.9655 13.6883C11.6914 13.6883 11.4643 13.4911 11.4313 13.2348L11.4274 13.1828L11.3 10.1057V10.096C11.3 9.78828 11.5961 9.53116 11.9082 9.50248L11.9675 9.49976L11.9825 9.49993ZM11.9833 14.2656C12.3238 14.2656 12.5998 14.5419 12.5998 14.8827C12.5998 15.2235 12.3238 15.4998 11.9833 15.4998C11.6428 15.4998 11.3667 15.2235 11.3667 14.8827C11.3667 14.5419 11.6428 14.2656 11.9833 14.2656Z" fill="black"/>
</svg>
