<svg width="24" height="24" viewBox="0 0 24 24" fill="none" xmlns="http://www.w3.org/2000/svg">
<path d="M16.5714 22.4998H7.42857C4.15431 22.4998 1.5 19.8454 1.5 16.5712V7.42833C1.5 4.15407 4.15431 1.49976 7.42857 1.49976H16.5714C19.8457 1.49976 22.5 4.15407 22.5 7.42833V16.5712C22.5 19.8454 19.8457 22.4998 16.5714 22.4998ZM24 16.5712V7.42833C24 3.32564 20.6741 -0.000244141 16.5714 -0.000244141H7.42857C3.32589 -0.000244141 0 3.32564 0 7.42833V16.5712C0 20.6739 3.32589 23.9998 7.42857 23.9998H16.5714C20.6741 23.9998 24 20.6739 24 16.5712ZM15.5999 18.9998C16.7045 18.9998 17.5999 18.1043 17.5999 16.9998V11.2998V8.91016C17.5999 8.42033 17.4201 7.94753 17.0947 7.58143L15.3966 5.67103C15.0171 5.24405 14.473 4.99976 13.9018 4.99976H11.9999H8.39991C7.29534 4.99976 6.39991 5.89519 6.39991 6.99976V16.9998C6.39991 18.1043 7.29533 18.9998 8.3999 18.9998H15.5999ZM8.15059 15.3568C8.15059 15.2242 8.20327 15.0971 8.29704 15.0033L9.24395 14.0564C9.4199 13.8804 9.69845 13.8606 9.89751 14.0099L10.6264 14.5566C10.8154 14.6983 11.0778 14.6884 11.2556 14.5328L13.4293 12.6309C13.6143 12.469 13.8897 12.4656 14.0786 12.6231L15.6707 13.9498C15.7847 14.0448 15.8506 14.1855 15.8506 14.3339V16.7497C15.8506 17.0259 15.6267 17.2497 15.3506 17.2497H8.65059C8.37445 17.2497 8.15059 17.0259 8.15059 16.7497V15.3568ZM10.6005 11.9997C10.6005 12.5796 10.1304 13.0497 9.55049 13.0497C8.97059 13.0497 8.50049 12.5796 8.50049 11.9997C8.50049 11.4198 8.97059 10.9497 9.55049 10.9497C10.1304 10.9497 10.6005 11.4198 10.6005 11.9997Z" fill="black"/>
</svg>
