<svg width="24" height="24" viewBox="0 0 24 24" fill="none" xmlns="http://www.w3.org/2000/svg">
<path d="M7.42857 1.49976H16.5714C19.8457 1.49976 22.5 4.15407 22.5 7.42833V16.5712C22.5 19.8454 19.8457 22.4998 16.5714 22.4998H7.42857C4.15431 22.4998 1.5 19.8454 1.5 16.5712V7.42833C1.5 4.15407 4.15431 1.49976 7.42857 1.49976ZM0 7.42833V16.5712C0 20.6739 3.32588 23.9998 7.42857 23.9998H16.5714C20.6741 23.9998 24 20.6739 24 16.5712V7.42833C24 3.32564 20.6741 -0.000244141 16.5714 -0.000244141H7.42857C3.32588 -0.000244141 0 3.32564 0 7.42833ZM15.5999 18.9998C16.7045 18.9998 17.5999 18.1043 17.5999 16.9998V11.2998V8.91015C17.5999 8.42033 17.4201 7.94753 17.0947 7.58143L15.3966 5.67103C15.0171 5.24405 14.473 4.99976 13.9018 4.99976H11.9999H8.3999C7.29533 4.99976 6.3999 5.89519 6.3999 6.99976V16.9998C6.3999 18.1043 7.29533 18.9998 8.3999 18.9998H15.5999ZM10 9.51014H11.45V9.1603C11.45 8.967 11.6067 8.8103 11.8 8.8103C11.9933 8.8103 12.15 8.967 12.15 9.1603V9.51014H13.6C14.1523 9.51014 14.6 9.95786 14.6 10.5101V12.7102C14.6 13.234 14.1972 13.6638 13.6844 13.7066L14.2321 15.3496C14.2932 15.533 14.1941 15.7312 14.0107 15.7923C13.8273 15.8535 13.6291 15.7544 13.568 15.571L12.9477 13.7102H10.6523L10.032 15.571C9.97091 15.7544 9.7727 15.8535 9.58932 15.7923C9.40594 15.7312 9.30684 15.533 9.36796 15.3496L9.91562 13.7066C9.40282 13.6638 9 13.234 9 12.7102V10.5101C9 9.95786 9.44772 9.51014 10 9.51014Z" fill="black"/>
</svg>
