<svg width="25" height="24" viewBox="0 0 25 24" fill="none" xmlns="http://www.w3.org/2000/svg">
<path d="M8.78061 8.07987L8.78061 4.94069C7.57587 5.09542 6.66114 6.12648 6.68311 7.37632L6.84401 16.5332C6.86787 17.8908 7.98783 18.9924 9.34551 18.9938L15.4376 18.9998C16.7952 19.0011 17.8765 17.9017 17.8527 16.5441L17.718 8.88315C17.7091 8.37523 17.517 7.88422 17.1771 7.50052L15.5391 5.65181C15.1309 5.19097 14.5461 4.926 13.936 4.9254L11.5901 4.92309L11.5901 8.07987L11.5903 8.12159C11.5913 8.2261 11.5923 8.33379 11.5407 8.38927C11.4653 8.47039 11.2964 8.46107 11.2005 8.38927C10.7844 8.07742 10.1853 7.61807 10.1853 7.61807C10.1853 7.61807 9.57314 8.07707 9.15708 8.38927C9.06544 8.45784 8.92114 8.46166 8.84646 8.38927C8.7823 8.32708 8.78061 8.20304 8.78061 8.07987ZM9.67279 14.773C9.67244 14.5017 9.89226 14.2815 10.1638 14.2811L14.3776 14.2757C14.6492 14.2753 14.8695 14.495 14.8699 14.7663C14.8702 15.0376 14.6504 15.2578 14.3789 15.2582L10.165 15.2636C9.89352 15.264 9.67314 15.0443 9.67279 14.773ZM10.1615 12.5252L14.3754 12.5198C14.6469 12.5194 14.8673 12.7391 14.8676 13.0104C14.868 13.2817 14.6482 13.5019 14.3766 13.5023L10.1628 13.5077C9.89126 13.5081 9.67087 13.2884 9.67052 13.0171C9.67017 12.7458 9.88999 12.5256 10.1615 12.5252ZM9.66825 11.2612C9.6679 10.9899 9.88773 10.7697 10.1592 10.7693L14.3731 10.7639C14.6446 10.7635 14.865 10.9832 14.8654 11.2545C14.8657 11.5258 14.6459 11.746 14.3744 11.7464L10.1605 11.7518C9.88899 11.7521 9.66861 11.5325 9.66825 11.2612Z" fill="black"/>
<path d="M0.261512 16.5712C0.277047 20.6738 3.6155 23.9996 7.71816 23.9995L16.8609 23.9995C20.9636 23.9995 24.2769 20.6736 24.2613 16.5711L24.2267 7.42842C24.2112 3.32583 20.8727 3.9897e-05 16.7701 6.10353e-05L7.62728 0.000108143C3.52462 0.000129282 0.211356 3.32595 0.226892 7.42854L0.261512 16.5712ZM16.7757 1.49807C20.0425 1.49806 22.7105 4.14776 22.7229 7.42843L22.7575 16.5711C22.77 19.8517 20.122 22.5015 16.8553 22.5015L7.71248 22.5015C4.44576 22.5015 1.77771 19.8518 1.76529 16.5712L1.73067 7.42853C1.71825 4.14787 4.36623 1.49814 7.63295 1.49812L16.7757 1.49807Z" fill="black"/>
</svg>
