<svg width="24" height="24" viewBox="0 0 24 24" fill="none" xmlns="http://www.w3.org/2000/svg">
<path d="M7.42857 1.49976H16.5714C19.8457 1.49976 22.5 4.15407 22.5 7.42833V16.5712C22.5 19.8454 19.8457 22.4998 16.5714 22.4998H7.42857C4.15431 22.4998 1.5 19.8454 1.5 16.5712V7.42833C1.5 4.15407 4.15431 1.49976 7.42857 1.49976ZM0 7.42833V16.5712C0 20.6739 3.32588 23.9998 7.42857 23.9998H16.5714C20.6741 23.9998 24 20.6739 24 16.5712V7.42833C24 3.32564 20.6741 -0.000244141 16.5714 -0.000244141H7.42857C3.32588 -0.000244141 0 3.32564 0 7.42833ZM15.6 18.9998C16.7046 18.9998 17.6 18.1043 17.6 16.9998V11.2998V8.91015C17.6 8.42033 17.4202 7.94753 17.0948 7.58143L15.3967 5.67103C15.0172 5.24405 14.4731 4.99976 13.9019 4.99976H12H8.4C7.29543 4.99976 6.4 5.89519 6.4 6.99976V16.9998C6.4 18.1043 7.29543 18.9998 8.4 18.9998H15.6ZM8.6002 9.99976H11.0667C11.3429 9.99976 11.5667 10.2236 11.5667 10.4998V11.6663C11.5667 11.9425 11.3429 12.1663 11.0667 12.1663H8.6002C8.32405 12.1663 8.1002 11.9425 8.1002 11.6663V10.4998C8.1002 10.2236 8.32405 9.99976 8.6002 9.99976ZM12.4332 10.4998C12.4332 10.2236 12.6571 9.99976 12.9332 9.99976H15.3997C15.6759 9.99976 15.8997 10.2236 15.8997 10.4998V11.6663C15.8997 11.9425 15.6759 12.1663 15.3997 12.1663H12.9332C12.6571 12.1663 12.4332 11.9425 12.4332 11.6663V10.4998ZM8.6002 13.0332H11.0667C11.3429 13.0332 11.5667 13.2571 11.5667 13.5332V14.6998C11.5667 14.976 11.3429 15.1998 11.0667 15.1998H8.6002C8.32405 15.1998 8.1002 14.976 8.1002 14.6998V13.5332C8.1002 13.2571 8.32405 13.0332 8.6002 13.0332ZM12.4332 13.5332C12.4332 13.2571 12.6571 13.0332 12.9332 13.0332H15.3997C15.6759 13.0332 15.8997 13.2571 15.8997 13.5332V14.6998C15.8997 14.9759 15.6759 15.1998 15.3997 15.1998H12.9332C12.6571 15.1998 12.4332 14.9759 12.4332 14.6998V13.5332Z" fill="black"/>
</svg>
