<svg width="24" height="24" viewBox="0 0 24 24" fill="none" xmlns="http://www.w3.org/2000/svg">
<path d="M7.42857 1.49976H16.5714C19.8457 1.49976 22.5 4.15407 22.5 7.42833V16.5712C22.5 19.8454 19.8457 22.4998 16.5714 22.4998H7.42857C4.15431 22.4998 1.5 19.8454 1.5 16.5712V7.42833C1.5 4.15407 4.15431 1.49976 7.42857 1.49976ZM0 7.42833V16.5712C0 20.6739 3.32588 23.9998 7.42857 23.9998H16.5714C20.6741 23.9998 24 20.6739 24 16.5712V7.42833C24 3.32564 20.6741 -0.000244141 16.5714 -0.000244141H7.42857C3.32588 -0.000244141 0 3.32564 0 7.42833ZM8.40039 18.9998H15.6004C16.705 18.9998 17.6004 18.1043 17.6004 16.9998V11.2998V8.91015C17.6004 8.42033 17.4206 7.94753 17.0952 7.58143L15.3971 5.67103C15.0175 5.24405 14.4735 4.99976 13.9023 4.99976H12.0004H8.40039C7.29582 4.99976 6.40039 5.89519 6.40039 6.99976V16.9998C6.40039 18.1043 7.29582 18.9998 8.40039 18.9998ZM13.5999 16.2998H10.3999C9.84762 16.2998 9.3999 15.852 9.3999 15.2998V9.49976C9.3999 8.94747 9.84762 8.49976 10.3999 8.49976H13.5999C14.1522 8.49976 14.5999 8.94747 14.5999 9.49976V15.2998C14.5999 15.852 14.1522 16.2998 13.5999 16.2998ZM11.9893 14.1328C11.7078 14.1328 11.4795 14.3611 11.4795 14.6426C11.4795 14.9242 11.7078 15.1524 11.9893 15.1524H12.0097C12.2913 15.1524 12.5195 14.9242 12.5195 14.6426C12.5195 14.3611 12.2913 14.1328 12.0097 14.1328H11.9893Z" fill="black"/>
</svg>
