<svg width="24" height="24" viewBox="0 0 24 24" fill="none" xmlns="http://www.w3.org/2000/svg">
<path d="M7.42857 1.49976H16.5714C19.8457 1.49976 22.5 4.15407 22.5 7.42833V16.5712C22.5 19.8454 19.8457 22.4998 16.5714 22.4998H7.42857C4.15431 22.4998 1.5 19.8454 1.5 16.5712V7.42833C1.5 4.15407 4.15431 1.49976 7.42857 1.49976ZM0 7.42833V16.5712C0 20.6739 3.32588 23.9998 7.42857 23.9998H16.5714C20.6741 23.9998 24 20.6739 24 16.5712V7.42833C24 3.32564 20.6741 -0.000244141 16.5714 -0.000244141H7.42857C3.32588 -0.000244141 0 3.32564 0 7.42833ZM8.4 18.9998H15.6C16.7046 18.9998 17.6 18.1043 17.6 16.9998V11.2998V8.91015C17.6 8.42033 17.4202 7.94753 17.0948 7.58143L15.3967 5.67103C15.0172 5.24405 14.4731 4.99976 13.9019 4.99976H12H8.4C7.29543 4.99976 6.4 5.89519 6.4 6.99976V16.9998C6.4 18.1043 7.29543 18.9998 8.4 18.9998ZM9.57152 13.8998C9.57152 13.955 9.52675 13.9998 9.47152 13.9998H8.79002C8.73479 13.9998 8.69002 13.955 8.69002 13.8998V11.8004C8.69002 11.7452 8.64525 11.7004 8.59002 11.7004H8C7.94477 11.7004 7.9 11.6556 7.9 11.6004V11.0998C7.9 11.0445 7.94477 10.9998 8 10.9998H10.2615C10.3168 10.9998 10.3615 11.0445 10.3615 11.0998V11.6004C10.3615 11.6556 10.3168 11.7004 10.2615 11.7004H9.67152C9.61629 11.7004 9.57152 11.7452 9.57152 11.8004V13.8998ZM10.7151 13.9998C10.6378 13.9998 10.5897 13.9157 10.6289 13.8491L11.4197 12.5038C11.4225 12.4991 11.4239 12.4938 11.4239 12.4884C11.4239 12.4829 11.4224 12.4775 11.4196 12.4728L10.6288 11.1511C10.5889 11.0844 10.6369 10.9998 10.7146 10.9998H11.5031C11.5412 10.9998 11.5759 11.0214 11.5928 11.0555L12.0335 11.9486C12.0358 11.9532 12.0404 11.9561 12.0455 11.9561C12.0506 11.9561 12.0553 11.9532 12.0575 11.9487L12.5003 11.0553C12.5172 11.0213 12.5519 10.9998 12.5899 10.9998H13.3244C13.403 10.9998 13.4509 11.0862 13.4092 11.1528L12.5801 12.4771C12.5772 12.4817 12.5757 12.4871 12.5757 12.4925C12.5757 12.4979 12.5772 12.5032 12.58 12.5078L13.4067 13.8472C13.4478 13.9139 13.3999 13.9998 13.3216 13.9998H12.5776C12.5417 13.9998 12.5086 13.9805 12.4908 13.9493L12.0086 13.1035C12.0057 13.0985 12.0004 13.0954 11.9946 13.0954C11.9888 13.0954 11.9835 13.0985 11.9806 13.1035L11.5005 13.9491C11.4827 13.9804 11.4495 13.9998 11.4135 13.9998H10.7151ZM15.2553 13.9998H14.5738C14.5186 13.9998 14.4738 13.955 14.4738 13.8998V11.8004C14.4738 11.7452 14.429 11.7004 14.3738 11.7004H13.7838C13.7286 11.7004 13.6838 11.6556 13.6838 11.6004V11.0998C13.6838 11.0445 13.7286 10.9998 13.7838 10.9998H16.0453C16.1006 10.9998 16.1453 11.0445 16.1453 11.0998V11.6004C16.1453 11.6556 16.1006 11.7004 16.0453 11.7004H15.4553C15.4001 11.7004 15.3553 11.7452 15.3553 11.8004V13.8998C15.3553 13.955 15.3105 13.9998 15.2553 13.9998Z" fill="black"/>
</svg>
