<svg width="24" height="24" viewBox="0 0 24 24" fill="none" xmlns="http://www.w3.org/2000/svg">
<path d="M16.5714 22.4998H7.42857C4.15431 22.4998 1.5 19.8454 1.5 16.5712V7.42833C1.5 4.15407 4.15431 1.49976 7.42857 1.49976H16.5714C19.8457 1.49976 22.5 4.15407 22.5 7.42833V16.5712C22.5 19.8454 19.8457 22.4998 16.5714 22.4998ZM24 16.5712V7.42833C24 3.32564 20.6741 -0.000244141 16.5714 -0.000244141H7.42857C3.32589 -0.000244141 0 3.32564 0 7.42833V16.5712C0 20.6739 3.32589 23.9998 7.42857 23.9998H16.5714C20.6741 23.9998 24 20.6739 24 16.5712ZM8.40039 18.9998H15.6004C16.705 18.9998 17.6004 18.1043 17.6004 16.9998V11.2998V8.91016C17.6004 8.42033 17.4206 7.94753 17.0952 7.58143L15.3971 5.67103C15.0175 5.24405 14.4735 4.99976 13.9023 4.99976H12.0004H8.40039C7.29582 4.99976 6.40039 5.89519 6.40039 6.99976V16.9998C6.40039 18.1043 7.29582 18.9998 8.40039 18.9998ZM12.4674 9.99976V13.7923L13.7801 12.4796C13.9753 12.2843 14.2919 12.2843 14.4872 12.4796C14.6825 12.6748 14.6825 12.9914 14.4872 13.1867L12.3206 15.3533C12.1253 15.5486 11.8087 15.5486 11.6135 15.3533L9.44684 13.1867C9.25158 12.9914 9.25158 12.6748 9.44684 12.4796C9.6421 12.2843 9.95868 12.2843 10.1539 12.4796L11.4674 13.793V9.99976C11.4674 9.72362 11.6912 9.49976 11.9674 9.49976C12.2435 9.49976 12.4674 9.72362 12.4674 9.99976Z" fill="black"/>
</svg>
