<svg width="24" height="25" viewBox="0 0 24 25" fill="none" xmlns="http://www.w3.org/2000/svg">
<path d="M16.5714 23.3103L7.42857 23.3103C4.15431 23.3103 1.5 20.656 1.5 17.3817L1.5 8.23887C1.5 4.96461 4.15431 2.3103 7.42857 2.3103L16.5714 2.3103C19.8457 2.3103 22.5 4.96461 22.5 8.23887L22.5 17.3817C22.5 20.656 19.8457 23.3103 16.5714 23.3103ZM24 17.3817L24 8.23887C24 4.13619 20.6741 0.810303 16.5714 0.810303L7.42857 0.810303C3.32589 0.810303 -5.24571e-10 4.13619 -1.17166e-09 8.23887L-2.6137e-09 17.3817C-3.26079e-09 21.4844 3.32589 24.8103 7.42857 24.8103L16.5714 24.8103C20.6741 24.8103 24 21.4844 24 17.3817ZM15.9998 19.8103C17.1044 19.8103 17.9998 18.9149 17.9998 17.8103L17.9998 12.1103L17.9998 9.72072C17.9998 9.23089 17.82 8.7581 17.4946 8.39199L15.7965 6.4816C15.417 6.05462 14.8729 5.81032 14.3017 5.81032L12.3998 5.81032L8.7998 5.81032C7.69524 5.81032 6.7998 6.70575 6.7998 7.81032L6.7998 12.0733L10.3559 12.0731L10.3559 10.3797C10.3559 10.0056 10.8083 9.81816 11.0729 10.0827L13.5298 12.5396C13.6938 12.7037 13.6938 12.9696 13.5298 13.1336L11.0729 15.5905C10.8083 15.8551 10.3559 15.6677 10.3559 15.2935L10.3559 13.5731L6.8494 13.5733L6.84949 12.0735L4.69915 12.0736C4.28493 12.0737 3.94922 12.4096 3.94932 12.8238C3.94941 13.238 4.28527 13.5737 4.69949 13.5736L6.7998 13.5735L6.7998 17.8103C6.7998 18.9149 7.69523 19.8103 8.7998 19.8103L15.9998 19.8103Z" fill="black"/>
</svg>
