<svg width="24" height="25" viewBox="0 0 24 25" fill="none" xmlns="http://www.w3.org/2000/svg">
<path d="M7.42857 2.3103H16.5714C19.8457 2.3103 22.5 4.96461 22.5 8.23887V17.3817C22.5 20.656 19.8457 23.3103 16.5714 23.3103H7.42857C4.15431 23.3103 1.5 20.656 1.5 17.3817V8.23887C1.5 4.96461 4.15431 2.3103 7.42857 2.3103ZM0 8.23887V17.3817C0 21.4844 3.32588 24.8103 7.42857 24.8103H16.5714C20.6741 24.8103 24 21.4844 24 17.3817V8.23887C24 4.13619 20.6741 0.810303 16.5714 0.810303H7.42857C3.32588 0.810303 0 4.13619 0 8.23887ZM15.6004 19.8103C16.705 19.8103 17.6004 18.9149 17.6004 17.8103V12.1103V9.7207C17.6004 9.23087 17.4206 8.75808 17.0952 8.39197L15.3971 6.48157C15.0175 6.0546 14.4735 5.8103 13.9023 5.8103H12.0004H8.40039C7.29582 5.8103 6.40039 6.70573 6.40039 7.8103V17.8103C6.40039 18.9149 7.29582 19.8103 8.40039 19.8103H15.6004ZM12.5006 11.0105V12.511H14C14.2761 12.511 14.5 12.7348 14.5 13.011C14.5 13.2871 14.2761 13.511 14 13.511H12.5006V15.0105C12.5006 15.2866 12.2767 15.5105 12.0006 15.5105C11.7244 15.5105 11.5006 15.2866 11.5006 15.0105V13.511H10C9.72386 13.511 9.5 13.2871 9.5 13.011C9.5 12.7348 9.72386 12.511 10 12.511H11.5006V11.0105C11.5006 10.7344 11.7244 10.5105 12.0006 10.5105C12.2767 10.5105 12.5006 10.7344 12.5006 11.0105Z" fill="black"/>
</svg>
