<svg width="24" height="24" viewBox="0 0 24 24" fill="none" xmlns="http://www.w3.org/2000/svg">
<path d="M16.5714 22.4998H7.42857C4.15431 22.4998 1.5 19.8454 1.5 16.5712V7.42833C1.5 4.15407 4.15431 1.49976 7.42857 1.49976H16.5714C19.8457 1.49976 22.5 4.15407 22.5 7.42833V16.5712C22.5 19.8454 19.8457 22.4998 16.5714 22.4998ZM24 16.5712V7.42833C24 3.32564 20.6741 -0.000244141 16.5714 -0.000244141H7.42857C3.32589 -0.000244141 0 3.32564 0 7.42833V16.5712C0 20.6739 3.32589 23.9998 7.42857 23.9998H16.5714C20.6741 23.9998 24 20.6739 24 16.5712ZM15.6 18.9998C16.7046 18.9998 17.6 18.1043 17.6 16.9998V11.2998V8.91016C17.6 8.42033 17.4202 7.94753 17.0948 7.58143L15.3967 5.67103C15.0172 5.24405 14.4731 4.99976 13.9019 4.99976H12H8.4C7.29543 4.99976 6.4 5.89519 6.4 6.99976V16.9998C6.4 18.1043 7.29543 18.9998 8.4 18.9998H15.6ZM11.4664 10.5664H12.1331C12.4645 10.5664 12.7331 10.835 12.7331 11.1664V13.9081C13.0169 13.9557 13.2331 14.2025 13.2331 14.4998C13.2331 14.8311 12.9645 15.0998 12.6331 15.0998H11.6331C11.3017 15.0998 11.0331 14.8311 11.0331 14.4998C11.0331 14.2025 11.2493 13.9557 11.5331 13.9081V11.7664H11.4664C11.135 11.7664 10.8664 11.4978 10.8664 11.1664C10.8664 10.835 11.135 10.5664 11.4664 10.5664ZM11.964 8.49976C12.3347 8.49976 12.6334 8.79843 12.6334 9.16643C12.6334 9.53444 12.3347 9.83311 11.9667 9.83311C11.5987 9.83311 11.3 9.53444 11.3 9.16643C11.2974 8.79843 11.596 8.49976 11.964 8.49976Z" fill="black"/>
</svg>
