<svg width="25" height="26" viewBox="0 0 25 26" fill="none" xmlns="http://www.w3.org/2000/svg">
<path d="M7.42142 2.50388L16.5642 2.49204C19.8309 2.48781 22.5023 5.13412 22.519 8.41483L22.5654 17.5576C22.582 20.8383 19.9375 23.4915 16.6708 23.4957L7.52805 23.5076C4.26134 23.5118 1.58989 20.8655 1.57324 17.5848L1.52682 8.44201C1.51017 5.1613 4.15472 2.50811 7.42142 2.50388ZM0.0230529 8.44396L0.0694662 17.5867C0.090294 21.6894 3.43302 25.0109 7.53565 25.0056L16.6784 24.9938C20.781 24.9885 24.09 21.6583 24.0692 17.5556L24.0227 8.41288C24.0019 4.31024 20.6592 0.988693 16.5566 0.994006L7.41381 1.00585C3.31118 1.01116 0.00222558 4.34132 0.0230529 8.44396ZM8.55164 20.0039L15.6772 19.9993C16.7817 19.9986 17.6684 19.1027 17.6575 17.9981L17.6016 12.2961L17.5781 9.90171C17.5733 9.41427 17.3906 8.94373 17.0645 8.5785L15.3621 6.67229C14.9782 6.24246 14.4297 5.99646 13.856 5.99683L11.9769 5.99804L8.41418 6.00033C7.30961 6.00103 6.42297 6.89702 6.43382 8.00156L6.53201 18.0053C6.54286 19.1098 7.44707 20.0046 8.55164 20.0039ZM11.8984 13.6991C11.8976 13.4233 12.1215 13.1991 12.3983 13.1984L14.8544 13.1921C15.1313 13.1914 15.3563 13.4144 15.357 13.6901C15.3577 13.9659 15.1338 14.19 14.857 14.1908L12.4009 14.1971C12.1241 14.1978 11.8991 13.9748 11.8984 13.6991ZM12.405 15.8201L14.8612 15.8138C15.138 15.8131 15.363 16.0361 15.3637 16.3119C15.3644 16.5876 15.1406 16.8118 14.8637 16.8125L12.4076 16.8188C12.1308 16.8195 11.9058 16.5965 11.9051 16.3208C11.9044 16.045 12.1282 15.8209 12.405 15.8201ZM8.73286 10.9109C8.73215 10.6351 8.95599 10.411 9.23282 10.4103L14.8468 10.3958C15.1236 10.3951 15.3486 10.6181 15.3493 10.8939C15.35 11.1696 15.1262 11.3938 14.8494 11.3945L9.23539 11.4089C8.95856 11.4096 8.73356 11.1867 8.73286 10.9109ZM10.9982 13.53L10.1267 14.4068C10.0331 14.5009 9.90561 14.5539 9.77236 14.5541C9.63912 14.5543 9.51109 14.5016 9.41656 14.4077L8.88843 13.8831C8.69203 13.688 8.69098 13.3718 8.88609 13.1769C9.0812 12.982 9.39859 12.9821 9.59499 13.1772L9.76626 13.3474L10.2845 12.826C10.479 12.6304 10.7963 12.6294 10.9934 12.8238C11.1905 13.0182 11.1926 13.3344 10.9982 13.53ZM11.0001 15.4455C11.1972 15.6399 11.1994 15.9561 11.005 16.1517L10.1334 17.0285C10.0398 17.1227 9.91235 17.1757 9.77911 17.1759C9.64586 17.176 9.51783 17.1233 9.4233 17.0294L8.89518 16.5048C8.69878 16.3097 8.69774 15.9936 8.89285 15.7987C9.08796 15.6037 9.40534 15.6039 9.60174 15.799L9.77301 15.9691L10.2913 15.4477C10.4857 15.2521 10.8031 15.2511 11.0001 15.4455Z" fill="black"/>
</svg>
