<svg width="24" height="24" viewBox="0 0 24 24" fill="none" xmlns="http://www.w3.org/2000/svg">
<path d="M16.5714 22.5L7.42857 22.5C4.15431 22.5 1.5 19.8457 1.5 16.5714L1.5 7.42857C1.5 4.15431 4.15431 1.5 7.42857 1.5L16.5714 1.5C19.8457 1.5 22.5 4.15431 22.5 7.42857L22.5 16.5714C22.5 19.8457 19.8457 22.5 16.5714 22.5ZM24 16.5714L24 7.42857C24 3.32589 20.6741 3.2608e-09 16.5714 2.6137e-09L7.42857 1.17166e-09C3.32589 5.24571e-10 -5.24571e-10 3.32589 -1.17166e-09 7.42857L-2.6137e-09 16.5714C-3.2608e-09 20.6741 3.32589 24 7.42857 24L16.5714 24C20.6741 24 24 20.6741 24 16.5714ZM8.4 19L15.6 19C16.7046 19 17.6 18.1046 17.6 17L17.6 11.3L17.6 8.9104C17.6 8.42057 17.4202 7.94777 17.0948 7.58167L15.3967 5.67127C15.0172 5.2443 14.4731 5 13.9019 5L12 5L10.55 5L10.55 5.7L9.85 5.7L9.85 6.4L9.15 6.4L9.15 5.7L9.84997 5.7L9.84997 5L8.4 5C7.29543 5 6.4 5.89543 6.4 7L6.4 17C6.4 18.1046 7.29543 19 8.4 19ZM9.85 6.4L10.55 6.4L10.55 7.1L9.85 7.1L9.85 6.4ZM9.41038 12.0001L9.14997 12.0001L9.14997 11.3001L9.84997 11.3001L9.84997 12L10.2838 12C10.4402 12 10.5766 12.1065 10.6145 12.2582L10.9104 13.4418C11.0829 14.1317 10.5611 14.8 9.84997 14.8C9.13884 14.8 8.61705 14.1317 8.78953 13.4418L9.08541 12.2582C9.12289 12.1084 9.25637 12.0026 9.41038 12.0001ZM9.85002 14.408C10.2366 14.408 10.55 14.1823 10.55 13.904C10.55 13.6256 10.2366 13.4 9.85002 13.4C9.46342 13.4 9.15002 13.6256 9.15002 13.904C9.15002 14.1823 9.46342 14.408 9.85002 14.408ZM9.84997 7.10005L9.84997 7.80005L9.14997 7.80005L9.14997 7.10005L9.84997 7.10005ZM9.14997 8.50005L9.84997 8.50005L9.84997 9.20005L9.14997 9.20005L9.14997 8.50005ZM9.84997 9.90005L9.84997 10.6L9.14997 10.6L9.14997 9.90005L9.84997 9.90005ZM10.55 7.8L10.55 8.5L9.85 8.5L9.85 7.8L10.55 7.8ZM9.85 9.2L10.55 9.2L10.55 9.9L9.85 9.9L9.85 9.2ZM10.55 10.6L10.55 11.3L9.85 11.3L9.85 10.6L10.55 10.6Z" fill="black"/>
</svg>
