<svg width="24" height="24" viewBox="0 0 24 24" fill="none" xmlns="http://www.w3.org/2000/svg">
<path d="M16.5714 22.5H7.42857C4.15431 22.5 1.5 19.8457 1.5 16.5714V7.42857C1.5 4.15431 4.15431 1.5 7.42857 1.5H16.5714C19.8457 1.5 22.5 4.15431 22.5 7.42857V16.5714C22.5 19.8457 19.8457 22.5 16.5714 22.5ZM24 16.5714V7.42857C24 3.32588 20.6741 0 16.5714 0H7.42857C3.32588 0 0 3.32588 0 7.42857V16.5714C0 20.6741 3.32588 24 7.42857 24H16.5714C20.6741 24 24 20.6741 24 16.5714ZM15.6004 19C16.705 19 17.6004 18.1046 17.6004 17V11.3V8.9104C17.6004 8.42057 17.4206 7.94777 17.0952 7.58167L15.3971 5.67127C15.0175 5.2443 14.4735 5 13.9023 5H12.0004H8.40039C7.29582 5 6.40039 5.89543 6.40039 7V17C6.40039 18.1046 7.29582 19 8.40039 19H15.6004ZM11.8839 15.1324L10.6857 14.1738H9.67427C9.30207 14.1738 9 13.8717 9 13.4995V12.151C9 11.7788 9.30207 11.4767 9.67427 11.4767H10.6857L11.8825 10.5073C12.0787 10.3484 12.3714 10.488 12.3714 10.7404V14.8981C12.3714 15.1497 12.0804 15.2896 11.8839 15.1324ZM13.388 10.1214C13.5529 9.8999 13.8661 9.85398 14.0876 10.0189C14.937 10.651 15.4996 11.6593 15.4996 12.8086C15.4996 13.9581 14.9362 14.9663 14.0878 15.5983C13.8663 15.7632 13.5531 15.7174 13.3881 15.496C13.2232 15.2745 13.269 14.9613 13.4904 14.7963C14.1026 14.3403 14.4996 13.6214 14.4996 12.8086C14.4996 11.9956 14.1031 11.2769 13.4906 10.8211C13.269 10.6562 13.2231 10.3429 13.388 10.1214Z" fill="black"/>
</svg>
