<svg width="24" height="24" viewBox="0 0 24 24" fill="none" xmlns="http://www.w3.org/2000/svg">
<path d="M16.5714 22.4998H7.42857C4.15431 22.4998 1.5 19.8455 1.5 16.5712V7.42839C1.5 4.15413 4.15431 1.49982 7.42857 1.49982H16.5714C19.8457 1.49982 22.5 4.15413 22.5 7.42839V16.5712C22.5 19.8455 19.8457 22.4998 16.5714 22.4998ZM24 16.5712V7.42839C24 3.3257 20.6741 -0.000183105 16.5714 -0.000183105H7.42857C3.32589 -0.000183105 0 3.3257 0 7.42839V16.5712C0 20.6739 3.32589 23.9998 7.42857 23.9998H16.5714C20.6741 23.9998 24 20.6739 24 16.5712ZM8.40039 18.9998H15.6004C16.705 18.9998 17.6004 18.1044 17.6004 16.9998V11.2998V8.91022C17.6004 8.42039 17.4206 7.94759 17.0952 7.58149L15.3971 5.67109C15.0175 5.24411 14.4735 4.99982 13.9023 4.99982H12.0004H8.40039C7.29582 4.99982 6.40039 5.89525 6.40039 6.99982V16.9998C6.40039 18.1044 7.29582 18.9998 8.40039 18.9998ZM9.88187 11.0517C10.1824 10.1688 11.0164 9.53302 12.0009 9.53302C13.2381 9.53302 14.2409 10.5358 14.2409 11.773C15.0656 11.773 15.7342 12.4417 15.7342 13.2664C15.7342 14.091 15.0656 14.7597 14.2409 14.7597H10.1342C9.10347 14.7597 8.26758 13.9238 8.26758 12.893C8.26758 11.9485 8.97131 11.1761 9.88187 11.0517Z" fill="black"/>
</svg>
