<svg width="24" height="24" viewBox="0 0 24 24" fill="none" xmlns="http://www.w3.org/2000/svg">
<path d="M22.5 7.42857V16.5714C22.5 19.8457 19.8457 22.5 16.5714 22.5H7.42857C4.15431 22.5 1.5 19.8457 1.5 16.5714V7.42857C1.5 4.15431 4.15431 1.5 7.42857 1.5H16.5714C19.8457 1.5 22.5 4.15431 22.5 7.42857ZM16.5714 0H7.42857C3.32588 0 0 3.32588 0 7.42857V16.5714C0 20.6741 3.32588 24 7.42857 24H16.5714C20.6741 24 24 20.6741 24 16.5714V7.42857C24 3.32588 20.6741 0 16.5714 0ZM15.6 19C16.7046 19 17.6 18.1046 17.6 17V11.3V8.9104C17.6 8.42057 17.4202 7.94777 17.0948 7.58167L15.3967 5.67127C15.0171 5.2443 14.4731 5 13.9019 5H12H8.4C7.29543 5 6.4 5.89543 6.4 7V17C6.4 18.1046 7.29542 19 8.39999 19H15.6ZM14.0783 12.3174H11.7023H10.7403C10.5747 12.3174 10.4403 12.1831 10.4403 12.0174V11.6C10.4403 11.4343 10.5747 11.3 10.7403 11.3H11.7023H14.0783H15.0403C15.206 11.3 15.3403 11.4343 15.3403 11.6V12.0174C15.3403 12.1831 15.206 12.3174 15.0403 12.3174H14.0783ZM8.73096 11.8087C8.73096 11.5278 8.95872 11.3 9.23968 11.3C9.52064 11.3 9.7484 11.5278 9.7484 11.8087C9.7484 12.0897 9.52064 12.3174 9.23968 12.3174C8.95872 12.3174 8.73096 12.0897 8.73096 11.8087ZM14.0783 14.3523H11.7023H10.7403C10.5747 14.3523 10.4403 14.218 10.4403 14.0523V13.6349C10.4403 13.4692 10.5747 13.3349 10.7403 13.3349H11.7023H14.0783H15.0403C15.206 13.3349 15.3403 13.4692 15.3403 13.6349V14.0523C15.3403 14.218 15.206 14.3523 15.0403 14.3523H14.0783ZM8.73102 13.8436C8.73102 13.5626 8.95878 13.3349 9.23974 13.3349C9.5207 13.3349 9.74846 13.5626 9.74846 13.8436C9.74846 14.1246 9.5207 14.3523 9.23974 14.3523C8.95878 14.3523 8.73102 14.1246 8.73102 13.8436ZM14.0783 16.3872H11.7023H10.7403C10.5747 16.3872 10.4403 16.2529 10.4403 16.0872V15.6698C10.4403 15.5041 10.5747 15.3698 10.7403 15.3698H11.7023H14.0783H15.0403C15.206 15.3698 15.3403 15.5041 15.3403 15.6698V16.0872C15.3403 16.2529 15.206 16.3872 15.0403 16.3872H14.0783ZM8.73102 15.8785C8.73102 15.5975 8.95878 15.3698 9.23974 15.3698C9.5207 15.3698 9.74846 15.5975 9.74846 15.8785C9.74846 16.1594 9.5207 16.3872 9.23974 16.3872C8.95878 16.3872 8.73102 16.1594 8.73102 15.8785Z" fill="black"/>
</svg>
