<svg width="24" height="24" viewBox="0 0 24 24" fill="none" xmlns="http://www.w3.org/2000/svg">
<path d="M16.5714 22.4998H7.42857C4.15431 22.4998 1.5 19.8455 1.5 16.5712V7.42839C1.5 4.15413 4.15431 1.49982 7.42857 1.49982H16.5714C19.8457 1.49982 22.5 4.15413 22.5 7.42839V16.5712C22.5 19.8455 19.8457 22.4998 16.5714 22.4998ZM24 16.5712V7.42839C24 3.3257 20.6741 -0.000183105 16.5714 -0.000183105H7.42857C3.32588 -0.000183105 0 3.3257 0 7.42839V16.5712C0 20.6739 3.32588 23.9998 7.42857 23.9998H16.5714C20.6741 23.9998 24 20.6739 24 16.5712ZM15.6004 18.9998C16.705 18.9998 17.6004 18.1044 17.6004 16.9998V11.2998V8.91022C17.6004 8.42039 17.4206 7.94759 17.0952 7.58149L15.3971 5.67109C15.0175 5.24411 14.4735 4.99982 13.9023 4.99982H12.0004H8.40039C7.29582 4.99982 6.40039 5.89525 6.40039 6.99982V16.9998C6.40039 18.1044 7.29582 18.9998 8.40039 18.9998H15.6004ZM14.9901 14.7968C14.9952 14.8252 14.9984 14.8729 14.9999 14.9401C15.0065 15.2425 14.7612 15.4928 14.4519 15.4993L14.4399 15.4995H9.56017C9.2508 15.4995 9 15.2543 9 14.9518L9.00015 14.9394C9.00162 14.8759 9.00473 14.8306 9.00947 14.8036C9.1742 13.864 9.9679 13.14 10.9411 13.1011L11.0237 13.0994H12.9771C13.9853 13.0994 14.818 13.8341 14.9901 14.7968ZM12.0001 12.4998C11.1716 12.4998 10.5001 11.8283 10.5001 10.9998C10.5001 10.1714 11.1716 9.49982 12.0001 9.49982C12.8285 9.49982 13.5001 10.1714 13.5001 10.9998C13.5001 11.8283 12.8285 12.4998 12.0001 12.4998Z" fill="black"/>
</svg>
