<svg width="24" height="24" viewBox="0 0 24 24" fill="none" xmlns="http://www.w3.org/2000/svg">
<path d="M16.5714 22.4998H7.42857C4.15431 22.4998 1.5 19.8454 1.5 16.5712V7.42833C1.5 4.15407 4.15431 1.49976 7.42857 1.49976H16.5714C19.8457 1.49976 22.5 4.15407 22.5 7.42833V16.5712C22.5 19.8454 19.8457 22.4998 16.5714 22.4998ZM24 16.5712V7.42833C24 3.32564 20.6741 -0.000244141 16.5714 -0.000244141H7.42857C3.32588 -0.000244141 0 3.32564 0 7.42833V16.5712C0 20.6739 3.32588 23.9998 7.42857 23.9998H16.5714C20.6741 23.9998 24 20.6739 24 16.5712ZM15.6 18.9998C16.7046 18.9998 17.6 18.1043 17.6 16.9998V11.2998V8.91016C17.6 8.42033 17.4202 7.94753 17.0948 7.58143L15.3967 5.67103C15.0171 5.24405 14.4731 4.99976 13.9019 4.99976H12H8.4C7.29543 4.99976 6.4 5.89519 6.4 6.99976V16.9998C6.4 18.1043 7.29542 18.9998 8.39999 18.9998H15.6ZM12.0701 14.4797C12.0701 15.0981 11.5685 15.5997 10.9501 15.5997C10.5301 15.5997 10.3201 15.5297 10.1101 15.4597C9.90012 15.3897 9.69012 15.3197 9.27011 15.3197C9.46526 15.1246 9.5924 14.8275 9.72263 14.5231L9.72263 14.5231C9.96612 13.954 10.2204 13.3597 10.9501 13.3597C11.5685 13.3597 12.0701 13.8614 12.0701 14.4797ZM15.3492 10.1975C15.6003 10.4486 15.6138 10.8518 15.3796 11.1187L13.1218 13.6994C12.8777 13.9789 12.4475 13.9934 12.1847 13.7307L11.8156 13.3615C11.5529 13.0993 11.5673 12.669 11.8469 12.4245L14.4276 10.1667C14.695 9.93293 15.0977 9.946 15.3492 10.1975Z" fill="black"/>
</svg>
