<svg width="24" height="24" viewBox="0 0 24 24" fill="none" xmlns="http://www.w3.org/2000/svg">
<path d="M7.42857 1.49976H16.5714C19.8457 1.49976 22.5 4.15407 22.5 7.42833V16.5712C22.5 19.8454 19.8457 22.4998 16.5714 22.4998H7.42857C4.15431 22.4998 1.5 19.8454 1.5 16.5712V7.42833C1.5 4.15407 4.15431 1.49976 7.42857 1.49976ZM0 7.42833V16.5712C0 20.6739 3.32588 23.9998 7.42857 23.9998H16.5714C20.6741 23.9998 24 20.6739 24 16.5712V7.42833C24 3.32564 20.6741 -0.000244141 16.5714 -0.000244141H7.42857C3.32588 -0.000244141 0 3.32564 0 7.42833ZM8.40039 18.9998H15.6004C16.705 18.9998 17.6004 18.1043 17.6004 16.9998V11.2998V8.91015C17.6004 8.42033 17.4206 7.94753 17.0952 7.58143L15.3971 5.67103C15.0175 5.24405 14.4735 4.99976 13.9023 4.99976H12.0004H8.40039C7.29582 4.99976 6.40039 5.89519 6.40039 6.99976V16.9998C6.40039 18.1043 7.29582 18.9998 8.40039 18.9998ZM11.7686 9.49976C12.1603 9.49976 12.4363 9.72359 12.4363 10.4309C12.4363 10.6995 12.4096 11.0039 12.3116 11.4515C12.5965 11.9977 12.9793 12.5349 13.3443 12.9288C13.4385 12.9193 13.5261 12.9076 13.6097 12.8965C13.7632 12.8759 13.9035 12.8572 14.0476 12.8572C14.7241 12.8572 15.0357 13.2243 15.0357 13.6093C15.0357 13.9853 14.6796 14.415 14.1188 14.415C13.7805 14.415 13.4244 14.2449 13.0238 13.9047C12.4185 14.0211 11.7686 14.2449 11.1899 14.4688C10.8606 15.1403 10.3977 15.9998 9.7923 15.9998C9.34719 15.9998 9 15.5879 9 15.2029C9 14.7015 9.49853 14.2449 10.5134 13.7704C10.8428 13.0989 11.1632 12.2663 11.368 11.5321C11.1365 11.0845 11.0208 10.6995 11.0208 10.3772C11.0208 9.83102 11.2701 9.49976 11.7686 9.49976ZM11.8932 12.32C11.8021 12.6512 11.678 12.9824 11.5554 13.3093C11.5223 13.3977 11.4892 13.4858 11.457 13.5734L11.5845 13.5295C11.9088 13.4175 12.2393 13.3034 12.5698 13.2243C12.3294 12.9467 12.1158 12.6423 11.8932 12.32Z" fill="black"/>
</svg>
