<svg width="24" height="24" viewBox="0 0 24 24" fill="none" xmlns="http://www.w3.org/2000/svg">
<path d="M7.42857 1.49976H16.5714C19.8457 1.49976 22.5 4.15407 22.5 7.42833V16.5712C22.5 19.8454 19.8457 22.4998 16.5714 22.4998H7.42857C4.15431 22.4998 1.5 19.8454 1.5 16.5712V7.42833C1.5 4.15407 4.15431 1.49976 7.42857 1.49976ZM0 7.42833V16.5712C0 20.6739 3.32588 23.9998 7.42857 23.9998H16.5714C20.6741 23.9998 24 20.6739 24 16.5712V7.42833C24 3.32564 20.6741 -0.000244141 16.5714 -0.000244141H7.42857C3.32588 -0.000244141 0 3.32564 0 7.42833ZM6.4 16.8104C6.4 17.915 7.29543 18.8104 8.4 18.8104H15.6C16.7046 18.8104 17.6 17.915 17.6 16.8104V11.1104V8.72083C17.6 8.231 17.4202 7.75819 17.0948 7.39209L15.3967 5.4817C15.0172 5.05472 14.4731 4.81042 13.9019 4.81042H12H8.4C7.29543 4.81042 6.4 5.70585 6.4 6.81042V16.8104ZM8.75877 13.2986L10.1549 10.0622C10.1919 9.967 10.2656 9.88611 10.3668 9.84259C10.4178 9.82067 10.4708 9.81034 10.523 9.81042C10.5752 9.81042 10.6282 9.82082 10.6792 9.84279C10.7804 9.88645 10.854 9.96741 10.8908 10.0627L12.2889 13.315C12.2961 13.3294 12.3025 13.3442 12.308 13.3595L12.6073 14.0558C12.6934 14.2559 12.6008 14.488 12.4007 14.574C12.2005 14.66 11.9685 14.5675 11.8825 14.3674L11.676 13.8871H9.36417L9.15681 14.3678C9.07051 14.5679 8.83838 14.6601 8.63833 14.5738C8.43829 14.4875 8.34607 14.2554 8.43237 14.0553L8.72534 13.3761C8.73374 13.3489 8.745 13.323 8.75877 13.2986ZM10.5221 11.2028L9.70451 13.0981H11.3369L10.5221 11.2028ZM14.6921 14.2841C14.6921 14.4188 14.79 14.5306 14.9185 14.5524C14.8061 14.5334 14.717 14.4456 14.6964 14.3339C14.6934 14.3178 14.6921 14.301 14.6921 14.2841ZM14.6626 14.3636C14.435 14.5576 14.1701 14.655 13.8694 14.655C13.5551 14.655 13.2988 14.5764 13.1045 14.4152C12.913 14.2486 12.8181 14.0174 12.8181 13.728C12.8181 13.4346 12.9143 13.204 13.1105 13.0422C13.305 12.8818 13.5927 12.7934 13.9676 12.7714L14.6524 12.7321V12.6806C14.6524 12.4742 14.6084 12.3268 14.5272 12.2313C14.447 12.1371 14.325 12.0869 14.1534 12.0869C13.9834 12.0869 13.859 12.1339 13.7738 12.2224C13.7582 12.2394 13.7441 12.2571 13.7315 12.2755C13.6802 12.3502 13.6182 12.4298 13.5447 12.4901C13.4709 12.5506 13.3829 12.5937 13.2808 12.5901L13.2434 12.5888C13.1481 12.5854 13.0601 12.5438 13.0026 12.4786C12.9445 12.4127 12.9176 12.3223 12.9479 12.2267C13.0016 12.057 13.1008 11.903 13.2442 11.7648C13.4737 11.5394 13.7762 11.4281 14.1475 11.4281C14.5449 11.4281 14.856 11.5346 15.0747 11.7532C15.2934 11.9679 15.4 12.2752 15.4 12.6688V14.2221C15.4 14.4285 15.2326 14.5959 15.0262 14.5959H14.9641C14.8194 14.5959 14.6977 14.4973 14.6626 14.3636ZM14.6583 13.3263L14.0668 13.365C13.8906 13.3747 13.7648 13.4113 13.6839 13.47C13.6054 13.5269 13.5656 13.6072 13.5656 13.7161C13.5656 13.821 13.5998 13.8938 13.6638 13.942C13.7299 13.9918 13.8337 14.0199 13.9818 14.0199C14.1962 14.0199 14.3595 13.9664 14.4765 13.864C14.5959 13.7591 14.6583 13.6036 14.6583 13.3907V13.3263Z" fill="black"/>
</svg>
