<svg width="24" height="25" viewBox="0 0 24 25" fill="none" xmlns="http://www.w3.org/2000/svg">
<path d="M7.42857 2.3103L16.5714 2.3103C19.8457 2.3103 22.5 4.96461 22.5 8.23887L22.5 17.3817C22.5 20.656 19.8457 23.3103 16.5714 23.3103L7.42857 23.3103C4.15431 23.3103 1.5 20.656 1.5 17.3817L1.5 8.23887C1.5 4.96461 4.15431 2.3103 7.42857 2.3103ZM-1.17166e-09 8.23887L-2.6137e-09 17.3817C-3.2608e-09 21.4844 3.32588 24.8103 7.42857 24.8103L16.5714 24.8103C20.6741 24.8103 24 21.4844 24 17.3817L24 8.23887C24 4.13619 20.6741 0.810303 16.5714 0.810303L7.42857 0.810303C3.32588 0.810303 -5.2457e-10 4.13619 -1.17166e-09 8.23887ZM7.19972 6.4104C6.31607 6.4104 5.59972 7.12674 5.59972 8.0104L5.59972 9.01025L5.6 9.01025L7.84454 9.01025L7.84454 6.4104L7.19972 6.4104ZM5.59972 12.2905L5.59993 12.2905L7.84454 12.2905L7.84454 10.2103L5.6 10.2103L5.59972 10.2103L5.59972 12.2905ZM5.59972 15.4104L5.6 15.4104L7.84454 15.4104L7.84454 13.3305L5.59993 13.3305L5.59972 13.3305L5.59972 15.4104ZM5.59972 17.6104C5.59972 18.4941 6.31607 19.2104 7.19972 19.2104L7.84454 19.2104L7.84454 19.2103L7.84454 16.6104L5.6 16.6104L5.59972 16.6104L5.59972 17.6104ZM14.9555 19.2104L14.9555 19.2103L14.9555 16.0104L14.9555 13.3305L9.04454 13.3305L9.04454 19.2103L9.04454 19.2104L14.9555 19.2104ZM16.7997 19.2104C17.6834 19.2104 18.3997 18.4941 18.3997 17.6104L18.3997 16.6104L16.1555 16.6104L16.1555 19.2103L16.1555 19.2104L16.7997 19.2104ZM18.3997 13.3305L16.1555 13.3305L16.1555 15.4104L18.3997 15.4104L18.3997 13.3305ZM18.3997 10.2103L16.1555 10.2103L16.1555 12.2905L18.3997 12.2905L18.3997 10.2103ZM18.3997 8.0104C18.3997 7.12674 17.6834 6.4104 16.7997 6.4104L16.1555 6.4104L16.1555 9.01025L18.3997 9.01025L18.3997 8.0104ZM9.04454 6.4104L9.04454 12.2905L14.9555 12.2905L14.9555 9.61025L14.9555 6.4104L9.04454 6.4104Z" fill="black"/>
</svg>
