<svg width="24" height="24" viewBox="0 0 24 24" fill="none" xmlns="http://www.w3.org/2000/svg">
<path d="M16.5714 22.5H7.42857C4.15431 22.5 1.5 19.8457 1.5 16.5714V7.42857C1.5 4.15431 4.15431 1.5 7.42857 1.5H16.5714C19.8457 1.5 22.5 4.15431 22.5 7.42857V16.5714C22.5 19.8457 19.8457 22.5 16.5714 22.5ZM24 16.5714V7.42857C24 3.32589 20.6741 0 16.5714 0H7.42857C3.32589 0 0 3.32589 0 7.42857V16.5714C0 20.6741 3.32589 24 7.42857 24H16.5714C20.6741 24 24 20.6741 24 16.5714ZM17.1776 7H6.8148C6.4825 7 6.2951 7.38172 6.49833 7.64463L10.3334 12.6059V16.2011C10.3334 16.3694 10.4387 16.5197 10.5969 16.5771L13.0636 17.472C13.3244 17.5667 13.6 17.3735 13.6 17.096V12.6059L17.4922 7.64697C17.6983 7.38449 17.5113 7 17.1776 7Z" fill="black"/>
</svg>
