<svg width="24" height="24" viewBox="0 0 24 24" fill="none" xmlns="http://www.w3.org/2000/svg">
<path d="M16.5714 22.5H7.42857C4.15431 22.5 1.5 19.8457 1.5 16.5714V7.42857C1.5 4.15431 4.15431 1.5 7.42857 1.5H16.5714C19.8457 1.5 22.5 4.15431 22.5 7.42857V16.5714C22.5 19.8457 19.8457 22.5 16.5714 22.5ZM24 16.5714V7.42857C24 3.32589 20.6741 0 16.5714 0H7.42857C3.32589 0 0 3.32589 0 7.42857V16.5714C0 20.6741 3.32589 24 7.42857 24H16.5714C20.6741 24 24 20.6741 24 16.5714ZM7.59961 5.98438C7.1854 5.98438 6.84961 6.32016 6.84961 6.73438V17.9999C6.84961 18.4141 7.1854 18.7499 7.59961 18.7499C8.01382 18.7499 8.34961 18.4141 8.34961 17.9999V13.0131H16.938C17.327 13.0131 17.567 12.5883 17.3662 12.2551L16.0212 10.0226C15.8299 9.70516 15.8299 9.30794 16.0212 8.99048L17.3662 6.75804C17.567 6.42479 17.327 6 16.938 6H8.01204C7.94714 6 7.8837 6.00618 7.82226 6.01798C7.75192 5.99614 7.67714 5.98438 7.59961 5.98438Z" fill="black"/>
</svg>
