<svg width="24" height="24" viewBox="0 0 24 24" fill="none" xmlns="http://www.w3.org/2000/svg">
<path d="M7.42857 1.5H16.5714C19.8457 1.5 22.5 4.15431 22.5 7.42857V16.5714C22.5 19.8457 19.8457 22.5 16.5714 22.5H7.42857C4.15431 22.5 1.5 19.8457 1.5 16.5714V7.42857C1.5 4.15431 4.15431 1.5 7.42857 1.5ZM0 7.42857V16.5714C0 20.6741 3.32588 24 7.42857 24H16.5714C20.6741 24 24 20.6741 24 16.5714V7.42857C24 3.32588 20.6741 0 16.5714 0H7.42857C3.32588 0 0 3.32588 0 7.42857ZM14.5656 13.6362H9.46925L10.9066 11.6594C10.9874 11.5483 11.0309 11.4145 11.0309 11.2772V6.64998H13.0036V11.2772C13.0036 11.4145 13.0472 11.5484 13.1279 11.6595L14.5656 13.6362ZM13.6536 5.34998H10.3809H9.33945C8.98047 5.34998 8.68945 5.64099 8.68945 5.99998C8.68945 6.35896 8.98047 6.64998 9.33945 6.64998H9.7309V11.0658L6.85653 15.0189C6.59411 15.3795 6.4558 15.7813 6.42408 16.181C6.39011 16.609 6.47941 17.0312 6.66773 17.4011C6.85605 17.771 7.14493 18.0916 7.51104 18.316C7.85287 18.5254 8.25914 18.65 8.70527 18.65H15.3298C15.7759 18.65 16.1822 18.5254 16.5241 18.3158C16.8901 18.0914 17.1789 17.7708 17.3672 17.401C17.5555 17.0311 17.6449 16.609 17.6109 16.181C17.5793 15.7814 17.4409 15.3795 17.1784 15.0188L14.3036 11.0658V6.64998H14.6947C15.0537 6.64998 15.3447 6.35896 15.3447 5.99998C15.3447 5.64099 15.0537 5.34998 14.6947 5.34998H13.6536Z" fill="black"/>
</svg>
