<svg width="24" height="24" viewBox="0 0 24 24" fill="none" xmlns="http://www.w3.org/2000/svg">
<path d="M7.42857 1.49976H16.5714C19.8457 1.49976 22.5 4.15407 22.5 7.42833V16.5712C22.5 19.8454 19.8457 22.4998 16.5714 22.4998H7.42857C4.15431 22.4998 1.5 19.8454 1.5 16.5712V7.42833C1.5 4.15407 4.15431 1.49976 7.42857 1.49976ZM0 7.42833V16.5712C0 20.6739 3.32588 23.9998 7.42857 23.9998H16.5714C20.6741 23.9998 24 20.6739 24 16.5712V7.42833C24 3.32564 20.6741 -0.000244141 16.5714 -0.000244141H7.42857C3.32588 -0.000244141 0 3.32564 0 7.42833ZM13.0282 8.12773C12.7913 8.12773 12.5587 8.0646 12.3542 7.94485L11.0532 7.18264C10.8488 7.06288 10.6161 6.99976 10.3792 6.99976H8C6.89543 6.99976 6 7.89519 6 8.99976V14.3331C6 15.4377 6.89543 16.3331 8 16.3331H16C17.1046 16.3331 18 15.4377 18 14.3331V10.1277C18 9.02316 17.1046 8.12773 16 8.12773H13.0282Z" fill="black"/>
</svg>
