<svg width="24" height="24" viewBox="0 0 24 24" fill="none" xmlns="http://www.w3.org/2000/svg">
<path d="M16.5714 22.5H7.42857C4.15431 22.5 1.5 19.8457 1.5 16.5714V7.42857C1.5 4.15431 4.15431 1.5 7.42857 1.5H16.5714C19.8457 1.5 22.5 4.15431 22.5 7.42857V16.5714C22.5 19.8457 19.8457 22.5 16.5714 22.5ZM24 16.5714V7.42857C24 3.32589 20.6741 0 16.5714 0H7.42857C3.32589 0 0 3.32589 0 7.42857V16.5714C0 20.6741 3.32589 24 7.42857 24H16.5714C20.6741 24 24 20.6741 24 16.5714ZM7.58733 6.34986C6.07533 6.34986 4.84961 7.57557 4.84961 9.08757V14.6548C4.84961 16.1668 6.07533 17.3925 7.58733 17.3925H15.2014C15.2778 17.3925 15.3512 17.3794 15.4193 17.3551H16.5248C16.9757 17.3551 17.3709 17.0533 17.4895 16.6182L19.1546 10.513C19.3281 9.87683 18.8492 9.24986 18.1898 9.24986H17.9181C17.8847 8.99859 17.8108 8.764 17.6898 8.55164C17.516 8.2466 17.2679 8.02735 16.9891 7.87515C16.4597 7.58616 15.797 7.5273 15.2014 7.5273H12.8361C12.7043 7.5273 12.5748 7.49218 12.4611 7.42555L11.103 6.62992C10.7899 6.44652 10.4337 6.34986 10.0709 6.34986H7.58733ZM16.5866 9.24986H8.5442C8.06091 9.24986 7.64678 9.59548 7.56033 10.071L6.54656 15.6467C6.30061 15.3887 6.14961 15.0394 6.14961 14.6548V9.08757C6.14961 8.29354 6.7933 7.64986 7.58733 7.64986H10.0709C10.2027 7.64986 10.3321 7.68498 10.4459 7.7516L11.804 8.54724C12.117 8.73063 12.4733 8.8273 12.8361 8.8273H15.2014C15.7587 8.8273 16.1399 8.89268 16.3661 9.01619C16.4651 9.07024 16.5227 9.1293 16.5602 9.19514C16.5691 9.21076 16.5781 9.22885 16.5866 9.24986Z" fill="black"/>
</svg>
