<svg width="24" height="24" viewBox="0 0 24 24" fill="none" xmlns="http://www.w3.org/2000/svg">
<path d="M16.5714 22.5H7.42857C4.15431 22.5 1.5 19.8457 1.5 16.5714V7.42857C1.5 4.15431 4.15431 1.5 7.42857 1.5H16.5714C19.8457 1.5 22.5 4.15431 22.5 7.42857V16.5714C22.5 19.8457 19.8457 22.5 16.5714 22.5ZM24 16.5714V7.42857C24 3.32589 20.6741 0 16.5714 0H7.42857C3.32589 0 0 3.32589 0 7.42857V16.5714C0 20.6741 3.32589 24 7.42857 24H16.5714C20.6741 24 24 20.6741 24 16.5714ZM5.46967 6.21967C5.17678 6.51257 5.17678 6.98744 5.46967 7.28033L6.33142 8.14208C6.12197 8.45827 6 8.83745 6 9.24512V14.5785C6 15.683 6.89543 16.5785 8 16.5785H14.7678L16.7197 18.5303C17.0126 18.8232 17.4874 18.8232 17.7803 18.5303C18.0732 18.2374 18.0732 17.7626 17.7803 17.4697L17.5864 17.2757C17.5451 17.2484 17.506 17.2166 17.4697 17.1802L6.41364 6.1242C6.12244 5.93128 5.72624 5.96311 5.46967 6.21967ZM18 14.5785V10.3731C18 9.26852 17.1046 8.37309 16 8.37309H13.0282C12.7913 8.37309 12.5587 8.30997 12.3542 8.19021L11.0532 7.428C10.8488 7.30825 10.6161 7.24512 10.3792 7.24512H9.65588L17.8199 15.4091C17.9355 15.1561 18 14.8748 18 14.5785Z" fill="black"/>
</svg>
