<svg width="24" height="24" viewBox="0 0 24 24" fill="none" xmlns="http://www.w3.org/2000/svg">
<path d="M7.42857 22.4998C4.15431 22.4998 1.5 19.8454 1.5 16.5712V7.42833C1.5 4.15407 4.15431 1.49976 7.42857 1.49976H16.5714C19.8457 1.49976 22.5 4.15407 22.5 7.42833V16.5712C22.5 19.8454 19.8457 22.4998 16.5714 22.4998H7.42857ZM16.5714 23.9998C20.6741 23.9998 24 20.6739 24 16.5712V7.42833C24 3.32564 20.6741 -0.000244141 16.5714 -0.000244141H7.42857C3.32588 -0.000244141 0 3.32564 0 7.42833V16.5712C0 20.6739 3.32588 23.9998 7.42857 23.9998H16.5714Z" fill="black"/>
<path d="M16.9368 17.103V11.2523C16.9368 10.0535 15.9676 9.08179 14.7721 9.08179H8.16471C6.96918 9.08179 6 10.0535 6 11.2523V15.8298C6 17.0285 6.96918 18.0003 8.16471 18.0003H17.1356" fill="black"/>
<path d="M9.31369 6.64976H10.9384C11.2563 6.64976 11.5566 6.79569 11.753 7.04563C12.1959 7.60917 12.873 7.9382 13.5898 7.9382H15.9356C16.7722 7.9382 17.4503 8.61636 17.4503 9.45291V16.4595C17.4503 16.5947 17.3407 16.7044 17.2055 16.7044C17.0615 16.7044 16.9514 16.5861 16.9514 16.4595V13.7749H15.6514V16.4595C15.6514 17.3214 16.361 18.0044 17.2055 18.0044C18.0587 18.0044 18.7503 17.3127 18.7503 16.4595V9.45291C18.7503 7.89839 17.4901 6.6382 15.9356 6.6382H13.5898C13.2719 6.6382 12.9716 6.49227 12.7752 6.24233C12.3323 5.67879 11.6552 5.34976 10.9384 5.34976H9.31369C7.95843 5.34976 6.85977 6.44842 6.85977 7.80368V10.5431H8.15977V7.80368C8.15977 7.16639 8.6764 6.64976 9.31369 6.64976Z" fill="black"/>
</svg>
