<svg width="24" height="24" viewBox="0 0 24 24" fill="none" xmlns="http://www.w3.org/2000/svg">
<path d="M16.5714 1.5C19.8457 1.5 22.5 4.15431 22.5 7.42857V16.5714C22.5 19.8457 19.8457 22.5 16.5714 22.5H7.42857C4.15431 22.5 1.5 19.8457 1.5 16.5714V7.42857C1.5 4.15431 4.15431 1.5 7.42857 1.5H16.5714ZM7.42857 0C3.32588 0 0 3.32588 0 7.42857V16.5714C0 20.6741 3.32588 24 7.42857 24H16.5714C20.6741 24 24 20.6741 24 16.5714V7.42857C24 3.32588 20.6741 0 16.5714 0H7.42857Z" fill="black"/>
<path d="M15.9996 8.12807H13.0278C12.7909 8.12807 12.5583 8.06494 12.3538 7.94519L11.0528 7.18298C10.8484 7.06322 10.6157 7.0001 10.3788 7.0001H7.99961C6.89504 7.0001 5.99961 7.89553 5.99961 9.0001V14.3334C5.99961 15.438 6.89504 16.3334 7.99961 16.3334H15.9996C17.1042 16.3334 17.9996 15.438 17.9996 14.3334V10.1281C17.9996 9.0235 17.1042 8.12807 15.9996 8.12807ZM12 9.9C12.3314 9.9 12.6 10.1686 12.6 10.5V11.4H13.5C13.8314 11.4 14.1 11.6686 14.1 12C14.1 12.3314 13.8314 12.6 13.5 12.6H12.6V13.5C12.6 13.8314 12.3314 14.1 12 14.1C11.6686 14.1 11.4 13.8314 11.4 13.5V12.6H10.5C10.1686 12.6 9.9 12.3314 9.9 12C9.9 11.6686 10.1686 11.4 10.5 11.4H11.4V10.5C11.4 10.1686 11.6686 9.9 12 9.9Z" fill="black"/>
</svg>
