<svg width="24" height="24" viewBox="0 0 24 24" fill="none" xmlns="http://www.w3.org/2000/svg">
<path d="M16.5714 1.5C19.8457 1.5 22.5 4.15431 22.5 7.42857V16.5714C22.5 19.8457 19.8457 22.5 16.5714 22.5H7.42857C4.15431 22.5 1.5 19.8457 1.5 16.5714V7.42857C1.5 4.15431 4.15431 1.5 7.42857 1.5H16.5714ZM7.42857 0C3.32588 0 0 3.32588 0 7.42857V16.5714C0 20.6741 3.32588 24 7.42857 24H16.5714C20.6741 24 24 20.6741 24 16.5714V7.42857C24 3.32588 20.6741 0 16.5714 0H7.42857ZM5.80902 12H9.2437L7.4064 16.1995C7.26188 16.5299 7.50391 16.9 7.86448 16.9H11.25V18.9999C11.25 19.4141 11.5858 19.7499 12 19.7499C12.4142 19.7499 12.75 19.4141 12.75 18.9999V16.9H16.1355C16.496 16.9 16.7381 16.5299 16.5935 16.1995L14.7563 12H18.191C18.5627 12 18.8044 11.6088 18.6382 11.2764L15.9472 5.89444C15.763 5.52592 15.2371 5.52592 15.0528 5.89445L13.47 9.06007L12.4581 6.74699C12.2833 6.34753 11.7167 6.34753 11.5419 6.74699L10.5299 9.06002L8.94721 5.89445C8.76295 5.52592 8.23704 5.52592 8.05278 5.89444L5.3618 11.2764C5.19558 11.6088 5.43733 12 5.80902 12Z" fill="black"/>
</svg>
