<svg width="24" height="24" viewBox="0 0 24 24" fill="none" xmlns="http://www.w3.org/2000/svg">
<path d="M7.42857 1.5H16.5714C19.8457 1.5 22.5 4.15431 22.5 7.42857V16.5714C22.5 19.8457 19.8457 22.5 16.5714 22.5H7.42857C4.15431 22.5 1.5 19.8457 1.5 16.5714V7.42857C1.5 4.15431 4.15431 1.5 7.42857 1.5ZM0 7.42857V16.5714C0 20.6741 3.32588 24 7.42857 24H16.5714C20.6741 24 24 20.6741 24 16.5714V7.42857C24 3.32588 20.6741 0 16.5714 0H7.42857C3.32588 0 0 3.32588 0 7.42857ZM17.6505 12.6503C18.1166 12.3613 18.1166 11.6878 17.6498 11.3995L13.1044 7.61348C12.6096 7.30594 11.967 7.65975 11.967 8.23924V11.719C11.9096 11.5933 11.8149 11.481 11.683 11.3995L7.1376 7.61348C6.64276 7.30594 6.00018 7.65975 6.00018 8.23924V15.8106C6.00018 16.3901 6.64276 16.7432 7.1376 16.4364L11.6837 12.6503C11.8153 12.5687 11.9097 12.4565 11.967 12.331V15.8106C11.967 16.3901 12.6096 16.7432 13.1044 16.4364L17.6505 12.6503Z" fill="black"/>
</svg>
