<svg width="24" height="24" viewBox="0 0 24 24" fill="none" xmlns="http://www.w3.org/2000/svg">
<path d="M16.5714 1.5C19.8457 1.5 22.5 4.15431 22.5 7.42857V16.5714C22.5 19.8457 19.8457 22.5 16.5714 22.5H7.42857C4.15431 22.5 1.5 19.8457 1.5 16.5714V7.42857C1.5 4.15431 4.15431 1.5 7.42857 1.5H16.5714ZM7.42857 0C3.32588 0 0 3.32588 0 7.42857V16.5714C0 20.6741 3.32588 24 7.42857 24H16.5714C20.6741 24 24 20.6741 24 16.5714V7.42857C24 3.32588 20.6741 0 16.5714 0H7.42857Z" fill="black"/>
<path d="M7.34375 7.68438L5.4332 10.5502H8.29902L7.34375 7.68438ZM8.73235 11.8502H5.50015L11.204 19.2652L8.73235 11.8502ZM12.0004 17.5433L13.8981 11.8502H10.1027L12.0004 17.5433ZM9.66934 10.5502H14.3314L15.5148 7H8.48594L9.66934 10.5502ZM15.2684 11.8502L12.7973 19.2635L18.4998 11.8502H15.2684ZM16.6568 7.68516L15.7018 10.5502H18.5668L16.6568 7.68516Z" fill="black"/>
</svg>
