<svg width="24" height="24" viewBox="0 0 24 24" fill="none" xmlns="http://www.w3.org/2000/svg">
<path d="M7.42857 1.5H16.5714C19.8457 1.5 22.5 4.15431 22.5 7.42857V16.5714C22.5 19.8457 19.8457 22.5 16.5714 22.5H7.42857C4.15431 22.5 1.5 19.8457 1.5 16.5714V7.42857C1.5 4.15431 4.15431 1.5 7.42857 1.5ZM0 7.42857V16.5714C0 20.6741 3.32588 24 7.42857 24H16.5714C20.6741 24 24 20.6741 24 16.5714V7.42857C24 3.32588 20.6741 0 16.5714 0H7.42857C3.32588 0 0 3.32588 0 7.42857ZM19 15.3889V8.5C19 7.39543 18.1046 6.5 17 6.5H7C5.89543 6.5 5 7.39543 5 8.5V15.3889C5 16.4935 5.89543 17.3889 7 17.3889H17C18.1046 17.3889 19 16.4935 19 15.3889ZM9.36756 9.80566H10.4646C10.7868 9.80566 11.0479 10.0668 11.0479 10.389C11.0479 10.7112 10.7868 10.9723 10.4646 10.9723H9.36756C8.78065 10.9723 8.30534 11.4476 8.30534 12.0346C8.30534 12.6215 8.78065 13.0968 9.36756 13.0968H9.88126V12.6179H9.5504C9.22823 12.6179 8.96707 12.3567 8.96707 12.0346C8.96707 11.7124 9.22823 11.4512 9.5504 11.4512H10.4646C10.7868 11.4512 11.0479 11.7124 11.0479 12.0346V13.6801C11.0479 14.0023 10.7868 14.2634 10.4646 14.2634H9.36756C8.13632 14.2634 7.13867 13.2658 7.13867 12.0346C7.13867 10.8033 8.13632 9.80566 9.36756 9.80566ZM12.4388 9.80566C12.761 9.80566 13.0221 10.0668 13.0221 10.389V13.6801C13.0221 14.0023 12.761 14.2634 12.4388 14.2634C12.1166 14.2634 11.8555 14.0023 11.8555 13.6801V10.389C11.8555 10.0668 12.1166 9.80566 12.4388 9.80566ZM14.4056 9.80762H16.2779C16.6 9.80762 16.8612 10.0688 16.8612 10.391C16.8612 10.7131 16.6 10.9743 16.2779 10.9743H14.9889V11.4512H15.958C16.2802 11.4512 16.5414 11.7123 16.5414 12.0345C16.5414 12.3567 16.2802 12.6178 15.958 12.6178H14.9889V13.6791C14.9889 14.0013 14.7278 14.2625 14.4056 14.2625C14.0834 14.2625 13.8223 14.0013 13.8223 13.6791V10.391C13.8223 10.0688 14.0834 9.80762 14.4056 9.80762Z" fill="black"/>
</svg>
