<svg width="24" height="24" viewBox="0 0 24 24" fill="none" xmlns="http://www.w3.org/2000/svg">
<path d="M5 8.36699V9.85588C5 10.5186 5.53726 11.0559 6.2 11.0559H17.8C18.4627 11.0559 19 10.5186 19 9.85588V8.36699C19 7.70425 18.4627 7.16699 17.8 7.16699H6.2C5.53726 7.16699 5 7.70425 5 8.36699Z" fill="black"/>
<path d="M10.3161 7.16676C10.3161 6.88142 10.5474 6.6501 10.8328 6.6501C11.1181 6.6501 11.3494 6.88142 11.3494 7.16676H12.6494C12.6494 6.88142 12.8814 6.6501 13.1668 6.6501C13.4521 6.6501 13.6834 6.88142 13.6834 7.16676H14.9834C14.9834 6.16345 14.1701 5.3501 13.1668 5.3501C12.7225 5.3501 12.3154 5.50959 11.9998 5.77444C11.6841 5.50959 11.2771 5.3501 10.8328 5.3501C9.82946 5.3501 9.01611 6.16345 9.01611 7.16676H10.3161Z" fill="black"/>
<path d="M7.42857 0C3.32588 0 0 3.32588 0 7.42857V16.5714C0 20.6741 3.32588 24 7.42857 24H16.5714C20.6741 24 24 20.6741 24 16.5714V7.42857C24 3.32588 20.6741 0 16.5714 0H7.42857ZM16.5714 1.5C19.8457 1.5 22.5 4.15431 22.5 7.42857V16.5714C22.5 19.8457 19.8457 22.5 16.5714 22.5H7.42857C4.15431 22.5 1.5 19.8457 1.5 16.5714V7.42857C1.5 4.15431 4.15431 1.5 7.42857 1.5H16.5714Z" fill="black"/>
<path d="M11.35 12.2998H5.77734V17.6334C5.77734 18.2961 6.3146 18.8334 6.97734 18.8334H11.35V12.2998Z" fill="black"/>
<path d="M17.0218 18.8334C17.6845 18.8334 18.2218 18.2961 18.2218 17.6334V12.2998H12.65V18.8334H17.0218Z" fill="black"/>
</svg>
