<svg width="24" height="24" viewBox="0 0 24 24" fill="none" xmlns="http://www.w3.org/2000/svg">
<path d="M16.5714 22.5H7.42857C4.15431 22.5 1.5 19.8457 1.5 16.5714V7.42857C1.5 4.15431 4.15431 1.5 7.42857 1.5H16.5714C19.8457 1.5 22.5 4.15431 22.5 7.42857V16.5714C22.5 19.8457 19.8457 22.5 16.5714 22.5ZM24 16.5714V7.42857C24 3.32589 20.6741 0 16.5714 0H7.42857C3.32589 0 0 3.32589 0 7.42857V16.5714C0 20.6741 3.32589 24 7.42857 24H16.5714C20.6741 24 24 20.6741 24 16.5714ZM14.2772 16.9817L11.8482 15.2809C11.3482 15.6502 11.2266 16.3773 11.5766 16.905C11.6436 17.006 11.7253 17.0952 11.8188 17.1692L13.6578 18.5402C14.4683 19.1444 15.5768 19.154 16.3977 18.5639L18.2052 17.2644C18.6993 16.8864 18.8094 16.1572 18.4512 15.6358C18.3827 15.5361 18.2997 15.4484 18.2052 15.3761L15.7727 16.9986C15.3184 17.3017 14.7246 17.295 14.2772 16.9817ZM17.9898 10.3774C17.473 7.29008 14.8187 5 11.6897 5C8.16068 5 5.29981 7.89385 5.29981 11.4636C5.29981 14.5916 7.51197 17.2549 10.5179 17.8187C10.7553 17.8632 10.9834 17.7046 11.0274 17.4645C11.0714 17.2245 10.9147 16.9937 10.6773 16.9492C9.63065 16.7529 8.69533 16.2613 7.95288 15.5678C9.63766 14.5557 9.72581 13.1246 8.93507 12.6552C8.13959 12.183 7.65981 11.7069 8.02592 11.0808C8.20965 10.7666 8.45639 10.6875 8.75931 10.5903C9.05997 10.4939 9.41597 10.3797 9.82063 10.0002C10.3579 9.49653 9.96439 8.42419 8.64022 6.78324L8.65627 6.80307C9.23292 6.41826 9.8852 6.14002 10.5857 5.99722C10.7677 6.51363 11.0678 6.83844 11.4862 6.97166C12.2668 7.22024 12.6516 7.34376 12.5967 7.78216C12.5418 8.22057 12.7029 8.93062 13.8688 9.20373C14.5489 9.36304 15.4407 9.23276 16.5451 8.8123C16.8253 9.33644 17.0253 9.91257 17.1278 10.525C17.1681 10.7657 17.3937 10.9279 17.6318 10.8871C17.8698 10.8464 18.0301 10.6181 17.9898 10.3774ZM8.60784 6.74324C8.6187 6.75661 8.62949 6.76995 8.64022 6.78324L8.60784 6.74324ZM15.6032 11.2199C15.2492 10.9811 14.7867 10.9774 14.4289 11.2104L11.9696 12.8116C11.4777 13.1319 11.3385 13.7904 11.6588 14.2823C11.7334 14.3969 11.8294 14.4959 11.9414 14.5741L14.4212 16.3041C14.7816 16.5554 15.2594 16.5592 15.6237 16.3136L18.0833 14.6549C18.57 14.3267 18.6985 13.666 18.3703 13.1793C18.294 13.0661 18.1965 12.9687 18.0833 12.8924L15.6032 11.2199Z" fill="black"/>
</svg>
