<svg width="24" height="24" viewBox="0 0 24 24" fill="none" xmlns="http://www.w3.org/2000/svg">
<path d="M16.5714 22.5H7.42857C4.15431 22.5 1.5 19.8457 1.5 16.5714V7.42857C1.5 4.15431 4.15431 1.5 7.42857 1.5H16.5714C19.8457 1.5 22.5 4.15431 22.5 7.42857V16.5714C22.5 19.8457 19.8457 22.5 16.5714 22.5ZM24 16.5714V7.42857C24 3.32588 20.6741 0 16.5714 0H7.42857C3.32588 0 0 3.32588 0 7.42857V16.5714C0 20.6741 3.32588 24 7.42857 24H16.5714C20.6741 24 24 20.6741 24 16.5714ZM5.72153 8.9246L10.2975 6.43218C11.3567 5.85594 12.6433 5.85594 13.7025 6.43218L16.0875 7.73126L13.0564 9.24681C12.76 9.39501 12.6399 9.75541 12.7881 10.0518C12.9363 10.3482 13.2967 10.4683 13.5931 10.3201L17.3718 8.43076L18.2785 8.9246C19.2405 9.44852 19.2405 10.8045 18.2785 11.3284L18.1679 11.3886C18.1076 11.3999 18.048 11.4207 17.9912 11.4516L13.4152 13.944C12.5348 14.4229 11.4635 14.4227 10.5841 13.944L6.0082 11.4516C5.95169 11.4208 5.8924 11.4001 5.8324 11.3888L5.72153 11.3284C4.75949 10.8045 4.75949 9.44852 5.72153 8.9246ZM7.54688 13.6562L10.0103 14.9979C11.2476 15.6716 12.7513 15.6713 13.9891 14.9979L16.4535 13.6556V15.1727C16.4535 15.8616 16.1022 16.5054 15.5167 16.8869L14.3256 17.6637C12.9174 18.5821 11.0837 18.5821 9.67478 17.6637L8.48372 16.8869C7.89893 16.5054 7.54688 15.8623 7.54688 15.1727V13.6562Z" fill="black"/>
</svg>
