<svg width="24" height="24" viewBox="0 0 24 24" fill="none" xmlns="http://www.w3.org/2000/svg">
<path d="M16.5714 1.5C19.8457 1.5 22.5 4.15431 22.5 7.42857V16.5714C22.5 19.8457 19.8457 22.5 16.5714 22.5H7.42857C4.15431 22.5 1.5 19.8457 1.5 16.5714V7.42857C1.5 4.15431 4.15431 1.5 7.42857 1.5H16.5714ZM7.42857 0C3.32588 0 0 3.32588 0 7.42857V16.5714C0 20.6741 3.32588 24 7.42857 24H16.5714C20.6741 24 24 20.6741 24 16.5714V7.42857C24 3.32588 20.6741 0 16.5714 0H7.42857Z" fill="black"/>
<path d="M6 7V10.3333C6 10.8856 6.44772 11.3333 7 11.3333H10.3333C10.8856 11.3333 11.3333 10.8856 11.3333 10.3333V7C11.3333 6.44772 10.8856 6 10.3333 6H7C6.44772 6 6 6.44772 6 7Z" fill="black"/>
<path d="M6 13.667V17.0003C6 17.5526 6.44772 18.0003 7 18.0003H10.3333C10.8856 18.0003 11.3333 17.5526 11.3333 17.0003V13.667C11.3333 13.1147 10.8856 12.667 10.3333 12.667H7C6.44772 12.667 6 13.1147 6 13.667Z" fill="black"/>
<path d="M12.666 7V10.3333C12.666 10.8856 13.1137 11.3333 13.666 11.3333H16.9993C17.5516 11.3333 17.9993 10.8856 17.9993 10.3333V7C17.9993 6.44772 17.5516 6 16.9993 6H13.666C13.1137 6 12.666 6.44772 12.666 7Z" fill="black"/>
<path d="M12.666 13.667V17.0003C12.666 17.5526 13.1137 18.0003 13.666 18.0003H16.9993C17.5516 18.0003 17.9993 17.5526 17.9993 17.0003V13.667C17.9993 13.1147 17.5516 12.667 16.9993 12.667H13.666C13.1137 12.667 12.666 13.1147 12.666 13.667Z" fill="black"/>
</svg>
