<svg width="24" height="24" viewBox="0 0 24 24" fill="none" xmlns="http://www.w3.org/2000/svg">
<path d="M16.5714 1.5C19.8457 1.5 22.5 4.15431 22.5 7.42857V16.5714C22.5 19.8457 19.8457 22.5 16.5714 22.5H7.42857C4.15431 22.5 1.5 19.8457 1.5 16.5714V7.42857C1.5 4.15431 4.15431 1.5 7.42857 1.5H16.5714ZM7.42857 0C3.32588 0 0 3.32588 0 7.42857V16.5714C0 20.6741 3.32588 24 7.42857 24H16.5714C20.6741 24 24 20.6741 24 16.5714V7.42857C24 3.32588 20.6741 0 16.5714 0H7.42857Z" fill="black"/>
<path d="M8.22935 5.5C7.71652 5.5 7.30078 5.91574 7.30078 6.42857V17.5714C7.30078 18.0843 7.71652 18.5 8.22935 18.5C8.74219 18.5 9.15792 18.0843 9.15792 17.5714V6.42857C9.15792 5.91574 8.74219 5.5 8.22935 5.5Z" fill="black"/>
<path d="M7.30078 12.0106C7.30078 12.5234 7.71652 12.9392 8.22935 12.9392H15.6378C16.1507 12.9392 16.5664 12.5234 16.5664 12.0106C16.5664 11.4978 16.1507 11.082 15.6378 11.082H8.22935C7.71652 11.082 7.30078 11.4978 7.30078 12.0106Z" fill="black"/>
<path d="M15.6376 5.5C15.1247 5.5 14.709 5.91574 14.709 6.42857V17.5714C14.709 18.0843 15.1247 18.5 15.6376 18.5C16.1504 18.5 16.5661 18.0843 16.5661 17.5714V6.42857C16.5661 5.91574 16.1504 5.5 15.6376 5.5Z" fill="black"/>
</svg>
