<svg width="24" height="24" viewBox="0 0 24 24" fill="none" xmlns="http://www.w3.org/2000/svg">
<path d="M16.5714 1.5C19.8457 1.5 22.5 4.15431 22.5 7.42857V16.5714C22.5 19.8457 19.8457 22.5 16.5714 22.5H7.42857C4.15431 22.5 1.5 19.8457 1.5 16.5714V7.42857C1.5 4.15431 4.15431 1.5 7.42857 1.5H16.5714ZM7.42857 0C3.32588 0 0 3.32588 0 7.42857V16.5714C0 20.6741 3.32588 24 7.42857 24H16.5714C20.6741 24 24 20.6741 24 16.5714V7.42857C24 3.32588 20.6741 0 16.5714 0H7.42857Z" fill="black"/>
<path d="M14.4643 7C13.2543 7 12.46 7.58629 12 8.10743C11.54 7.58629 10.7457 7 9.53571 7C7.42 7 6 8.9306 6 10.7279C6 14.3759 11.8929 17.3636 12 17.3636C12.1071 17.3636 18 14.3759 18 10.7279C18 8.9306 16.58 7 14.4643 7Z" fill="black"/>
</svg>
