<svg width="24" height="24" viewBox="0 0 24 24" fill="none" xmlns="http://www.w3.org/2000/svg">
<path d="M7.42857 1.5H16.5714C19.8457 1.5 22.5 4.15431 22.5 7.42857V16.5714C22.5 19.8457 19.8457 22.5 16.5714 22.5H7.42857C4.15431 22.5 1.5 19.8457 1.5 16.5714V7.42857C1.5 4.15431 4.15431 1.5 7.42857 1.5ZM0 7.42857V16.5714C0 20.6741 3.32588 24 7.42857 24H16.5714C20.6741 24 24 20.6741 24 16.5714V7.42857C24 3.32588 20.6741 0 16.5714 0H7.42857C3.32588 0 0 3.32588 0 7.42857ZM16.3341 11.7561L12.378 7.76236C12.1669 7.54929 11.8329 7.5491 11.6216 7.76193L7.65652 11.7561L8.12319 16.4629C8.20979 17.3363 8.91239 18 9.75054 18H14.2599C15.1007 18 15.8047 17.3321 15.8879 16.4554L16.3341 11.7561ZM13.3996 6.56827L13.3184 6.4905C12.5719 5.81628 11.4226 5.83649 10.7002 6.55508L6.16163 11.0722L6.11601 11.1236C5.94861 11.3378 5.96222 11.6488 6.15785 11.8473C6.36979 12.0624 6.7151 12.0641 6.92911 11.8511L11.4676 7.33411L11.5301 7.27799C11.8527 7.01629 12.3266 7.0374 12.6248 7.33981L17.0672 11.8474L17.1183 11.8932C17.3315 12.0614 17.6409 12.0477 17.8384 11.851C18.0524 11.638 18.0541 11.291 17.8421 11.0759L13.3996 6.56827Z" fill="black"/>
</svg>
