<svg width="24" height="24" viewBox="0 0 24 24" fill="none" xmlns="http://www.w3.org/2000/svg">
<path d="M16.5714 1.5C19.8457 1.5 22.5 4.15431 22.5 7.42857V16.5714C22.5 19.8457 19.8457 22.5 16.5714 22.5H7.42857C4.15431 22.5 1.5 19.8457 1.5 16.5714V7.42857C1.5 4.15431 4.15431 1.5 7.42857 1.5H16.5714ZM7.42857 0C3.32588 0 0 3.32588 0 7.42857V16.5714C0 20.6741 3.32588 24 7.42857 24H16.5714C20.6741 24 24 20.6741 24 16.5714V7.42857C24 3.32588 20.6741 0 16.5714 0H7.42857Z" fill="black"/>
<path d="M13.4999 10.7931C14.1627 10.7931 14.6999 11.3303 14.6999 11.9931V15.3264C14.6999 15.9891 14.1627 16.5264 13.4999 16.5264H8.5C7.83726 16.5264 7.3 15.9891 7.3 15.3264V11.9931C7.3 11.3303 7.83726 10.7931 8.5 10.7931H13.4999ZM8.5 9.49308C7.11929 9.49308 6 10.6124 6 11.9931V15.3264C6 16.7071 7.11929 17.8264 8.5 17.8264H13.4999C14.8806 17.8264 15.9999 16.7071 15.9999 15.3264V11.9931C15.9999 10.6124 14.8806 9.49308 13.4999 9.49308H8.5Z" fill="black"/>
<path d="M6.99935 16.827H15.3326V15.1603L13.8213 13.9781C13.4229 13.589 12.788 13.5852 12.385 13.9694L11.7092 14.6134C11.4666 14.8446 11.0843 14.8415 10.8455 14.6063L9.44379 13.2257C8.98175 12.7706 8.24003 12.7705 7.77782 13.2254L6.66602 14.5492" fill="black"/>
<path d="M11.3594 13.1597C11.9116 13.1597 12.3594 12.712 12.3594 12.1597C12.3594 11.6074 11.9116 11.1597 11.3594 11.1597C10.8071 11.1597 10.3594 11.6074 10.3594 12.1597C10.3594 12.712 10.8071 13.1597 11.3594 13.1597Z" fill="black"/>
<path d="M8.01602 8.16V9.82664C8.01602 10.1856 8.30703 10.4766 8.66602 10.4766C9.025 10.4766 9.31602 10.1856 9.31602 9.82664V8.16C9.31602 7.41442 9.92043 6.81 10.666 6.81H15.9993C16.7449 6.81 17.3493 7.41442 17.3493 8.16V11.8266C17.3493 12.5722 16.7449 13.1766 15.9993 13.1766C15.6403 13.1766 15.3493 13.4676 15.3493 13.8266C15.3493 14.1856 15.6403 14.4766 15.9993 14.4766C17.4628 14.4766 18.6493 13.2902 18.6493 11.8266V8.16C18.6493 6.69644 17.4628 5.51 15.9993 5.51H10.666C9.20246 5.51 8.01602 6.69644 8.01602 8.16Z" fill="black"/>
<path d="M11.9312 6.2833H10.6313V9.71185H11.9312V6.2833Z" fill="black"/>
<path d="M15.9312 6.28265H14.6313V10.6264H15.9312V6.28265Z" fill="black"/>
<path d="M17.9943 9.07668V7.77668H15.2324V9.07668H17.9943Z" fill="black"/>
<path d="M11.3283 9.07668V7.77668H8.56639V9.07668H11.3283Z" fill="black"/>
<path d="M17.9943 11.8096V10.5096H15.2324V11.8096H17.9943Z" fill="black"/>
</svg>
