<svg width="24" height="24" viewBox="0 0 24 24" fill="none" xmlns="http://www.w3.org/2000/svg">
<path d="M7.42857 1.5H16.5714C19.8457 1.5 22.5 4.15431 22.5 7.42857V16.5714C22.5 19.8457 19.8457 22.5 16.5714 22.5H7.42857C4.15431 22.5 1.5 19.8457 1.5 16.5714V7.42857C1.5 4.15431 4.15431 1.5 7.42857 1.5ZM0 7.42857V16.5714C0 20.6741 3.32588 24 7.42857 24H16.5714C20.6741 24 24 20.6741 24 16.5714V7.42857C24 3.32588 20.6741 0 16.5714 0H7.42857C3.32588 0 0 3.32588 0 7.42857ZM5.46967 6.21967C5.17678 6.51256 5.17678 6.98744 5.46967 7.28033L7.78572 9.59638C6.75304 9.90372 6 10.8603 6 11.9928V15.3261C6 16.7068 7.11929 17.8261 8.5 17.8261H13.4999C14.1942 17.8261 14.8224 17.5431 15.2754 17.0861L16.7197 18.5303C17.0126 18.8232 17.4874 18.8232 17.7803 18.5303C18.0732 18.2374 18.0732 17.7626 17.7803 17.4697L17.5864 17.2757C17.5451 17.2484 17.506 17.2166 17.4697 17.1802L6.41364 6.1242C6.12244 5.93128 5.72623 5.96311 5.46967 6.21967ZM18.6497 11.8264V8.15977C18.6497 6.69621 17.4633 5.50977 15.9997 5.50977H10.6664C9.91027 5.50977 9.22807 5.82649 8.74526 6.33451L9.66509 7.25433C9.9047 6.9895 10.2479 6.82016 10.6308 6.81023V7.77644H10.1872L13.2036 10.7928H13.4999C14.1627 10.7928 14.6999 11.3301 14.6999 11.9928V12.2892L16.7726 14.3619C17.8592 14.0311 18.6497 13.0211 18.6497 11.8264ZM8.98219 10.7928L10.3599 12.1706C10.3659 12.7139 10.8053 13.1533 11.3486 13.1593L12.2694 14.0801L11.7102 14.6131C11.4676 14.8443 11.0852 14.8412 10.8465 14.606L9.44477 13.2254C8.98273 12.7703 8.241 12.7701 7.7788 13.2251L7.3 13.7952V11.9928C7.3 11.3301 7.83726 10.7928 8.5 10.7928H8.98219ZM15.9999 13.1764V11.9928C15.9999 11.9311 15.9977 11.8699 15.9933 11.8093H17.3497V11.8264C17.3497 12.5719 16.7454 13.1763 15.9999 13.1764ZM17.3497 9.07637V10.5093H15.9308V9.07637H17.3497ZM15.9997 6.80977C16.6121 6.80977 17.1293 7.21753 17.2945 7.77637H15.9308V6.80977H15.9997ZM14.6308 9.76262C14.2912 9.5901 13.9069 9.49285 13.4999 9.49285H11.9308V6.80977H14.6308V9.76262Z" fill="black"/>
</svg>
