<svg width="24" height="24" viewBox="0 0 24 24" fill="none" xmlns="http://www.w3.org/2000/svg">
<path d="M16.5714 1.5C19.8457 1.5 22.5 4.15431 22.5 7.42857V16.5714C22.5 19.8457 19.8457 22.5 16.5714 22.5H7.42857C4.15431 22.5 1.5 19.8457 1.5 16.5714V7.42857C1.5 4.15431 4.15431 1.5 7.42857 1.5H16.5714ZM7.42857 0C3.32588 0 0 3.32588 0 7.42857V16.5714C0 20.6741 3.32588 24 7.42857 24H16.5714C20.6741 24 24 20.6741 24 16.5714V7.42857C24 3.32588 20.6741 0 16.5714 0H7.42857ZM7.17514 8.9858C7.17511 8.99056 7.1751 8.99533 7.1751 9.0001V13.4375C7.1751 14.8182 8.29439 15.9375 9.6751 15.9375H14.1268L16.7197 18.5303C17.0126 18.8232 17.4874 18.8232 17.7803 18.5303C18.0732 18.2374 18.0732 17.7626 17.7803 17.4697L6.53033 6.21967C6.23744 5.92678 5.76256 5.92678 5.46967 6.21967C5.17678 6.51256 5.17678 6.98744 5.46967 7.28033L7.17514 8.9858ZM8.4751 10.2858L9.12689 10.9376L8.4751 11.5791V10.2858ZM13.0409 10.6302L13.0572 10.6303C13.5788 10.6303 14.0017 10.2075 14.0017 9.68582C14.0017 9.16418 13.5788 8.74131 13.0572 8.74131C12.5355 8.74131 12.1127 9.16418 12.1127 9.68582L12.1128 9.70215L13.0409 10.6302ZM14.2569 11.8463L17.6902 15.2795C18.1879 14.8225 18.4999 14.1664 18.4999 13.4375V9.0001C18.4999 7.61939 17.3806 6.5001 15.9999 6.5001H9.6751C9.44201 6.5001 9.21638 6.532 9.00232 6.59166L10.2108 7.8001H15.9999C16.6627 7.8001 17.1999 8.33736 17.1999 9.0001V12.6684L16.0397 11.7035C15.5897 11.264 14.8725 11.2596 14.4171 11.6936L14.2569 11.8463ZM5.5 9.88437C5.14101 9.88437 4.85 10.1754 4.85 10.5344V14.8011C4.85 16.817 6.48416 18.4511 8.5 18.4511H12.7668C13.1257 18.4511 13.4168 18.1601 13.4168 17.8011C13.4168 17.4422 13.1257 17.1511 12.7668 17.1511H8.5C7.20213 17.1511 6.15 16.099 6.15 14.8011V10.5344C6.15 10.1754 5.85898 9.88437 5.5 9.88437Z" fill="black"/>
</svg>
