<svg width="24" height="24" viewBox="0 0 24 24" fill="none" xmlns="http://www.w3.org/2000/svg">
<path d="M7.42857 1.5H16.5714C19.8457 1.5 22.5 4.15431 22.5 7.42857V16.5714C22.5 19.8457 19.8457 22.5 16.5714 22.5H7.42857C4.15431 22.5 1.5 19.8457 1.5 16.5714V7.42857C1.5 4.15431 4.15431 1.5 7.42857 1.5ZM0 7.42857V16.5714C0 20.6741 3.32588 24 7.42857 24H16.5714C20.6741 24 24 20.6741 24 16.5714V7.42857C24 3.32588 20.6741 0 16.5714 0H7.42857C3.32588 0 0 3.32588 0 7.42857ZM8.5 8.14551H15.5C16.3284 8.14551 17 8.81708 17 9.64551V13.6819L15.5023 12.4363C14.9539 11.9007 14.08 11.8954 13.5251 12.4242L12.595 13.3108C12.2611 13.6291 11.7348 13.6247 11.4061 13.301L9.47669 11.4006C8.8407 10.7742 7.81973 10.774 7.18351 11.4002L7 11.5925V9.64551C7 8.81708 7.67157 8.14551 8.5 8.14551ZM5.5 9.64551V14.4788C5.5 16.1357 6.84315 17.4788 8.5 17.4788H15.5C17.1569 17.4788 18.5 16.1357 18.5 14.4788V9.64551C18.5 7.98865 17.1569 6.64551 15.5 6.64551H8.5C6.84315 6.64551 5.5 7.98865 5.5 9.64551ZM12.6124 11.341C13.4102 11.341 14.0569 10.6943 14.0569 9.89659C14.0569 9.09885 13.4102 8.45215 12.6124 8.45215C11.8147 8.45215 11.168 9.09885 11.168 9.89659C11.168 10.6943 11.8147 11.341 12.6124 11.341Z" fill="black"/>
</svg>
