<svg width="24" height="24" viewBox="0 0 24 24" fill="none" xmlns="http://www.w3.org/2000/svg">
<path d="M16.5718 1.5C19.8461 1.5 22.5004 4.15431 22.5004 7.42857V16.5714C22.5004 19.8457 19.8461 22.5 16.5718 22.5H7.42897C4.15471 22.5 1.5004 19.8457 1.5004 16.5714V7.42857C1.5004 4.15431 4.15471 1.5 7.42897 1.5H16.5718ZM7.42897 0C3.32628 0 0.000396729 3.32588 0.000396729 7.42857V16.5714C0.000396729 20.6741 3.32628 24 7.42897 24H16.5718C20.6745 24 24.0004 20.6741 24.0004 16.5714V7.42857C24.0004 3.32588 20.6745 0 16.5718 0H7.42897ZM16 7.8C16.6628 7.8 17.2 8.33726 17.2 9V12.6691L16.0392 11.7036C15.5892 11.2641 14.872 11.2598 14.4166 11.6938L13.6533 12.4214C13.3792 12.6825 12.9473 12.679 12.6776 12.4133L11.0941 10.8537C10.5722 10.3396 9.73427 10.3394 9.21214 10.8533L8.4752 11.5786V9C8.4752 8.33726 9.01246 7.8 9.6752 7.8H16ZM9.6752 6.5C8.29449 6.5 7.1752 7.61929 7.1752 9V13.4374C7.1752 14.8181 8.29449 15.9374 9.6752 15.9374H16C17.3807 15.9374 18.5 14.8181 18.5 13.4374V9C18.5 7.61929 17.3807 6.5 16 6.5H9.6752ZM6.15001 10.5343C6.15001 10.1753 5.85899 9.88428 5.50001 9.88428C5.14102 9.88428 4.85001 10.1753 4.85001 10.5343V14.801C4.85001 16.8169 6.48416 18.451 8.5 18.451H12.7668C13.1258 18.451 13.4168 18.16 13.4168 17.801C13.4168 17.4421 13.1258 17.151 12.7668 17.151H8.5C7.20214 17.151 6.15001 16.0989 6.15001 14.801V10.5343ZM14.0017 9.68597C14.0017 9.16433 13.5789 8.74146 13.0572 8.74146C12.5356 8.74146 12.1127 9.16433 12.1127 9.68597C12.1127 10.2076 12.5356 10.6305 13.0572 10.6305C13.5789 10.6305 14.0017 10.2076 14.0017 9.68597Z" fill="black"/>
</svg>
