<svg width="24" height="24" viewBox="0 0 24 24" fill="none" xmlns="http://www.w3.org/2000/svg">
<path d="M16.5714 1.5C19.8457 1.5 22.5 4.15431 22.5 7.42857V16.5714C22.5 19.8457 19.8457 22.5 16.5714 22.5H7.42857C4.15431 22.5 1.5 19.8457 1.5 16.5714V7.42857C1.5 4.15431 4.15431 1.5 7.42857 1.5H16.5714ZM7.42857 0C3.32588 0 0 3.32588 0 7.42857V16.5714C0 20.6741 3.32588 24 7.42857 24H16.5714C20.6741 24 24 20.6741 24 16.5714V7.42857C24 3.32588 20.6741 0 16.5714 0H7.42857Z" fill="black"/>
<path d="M7.34468 6.87604C6.26133 7.3285 5.5 8.39809 5.5 9.64551V14.4788C5.5 16.1357 6.84315 17.4788 8.5 17.4788H15.5C16.1876 17.4788 16.8211 17.2475 17.3271 16.8585L13.2017 12.733L12.5955 13.3108C12.2616 13.6291 11.7353 13.6247 11.4066 13.301L9.47718 11.4006C8.84119 10.7742 7.82022 10.774 7.184 11.4002L7 11.593V9.64551C7 8.81708 7.67157 8.14551 8.5 8.14551H8.61414L7.34468 6.87604ZM13.5689 10.979C13.8682 10.7143 14.0569 10.3275 14.0569 9.89659C14.0569 9.09885 13.4102 8.45215 12.6124 8.45215C12.1815 8.45215 11.7947 8.64083 11.53 8.94008L13.5689 10.979ZM14.6259 12.036L18.256 15.666C18.413 15.3019 18.5 14.9005 18.5 14.4788V9.64551C18.5 7.98865 17.1569 6.64551 15.5 6.64551H9.23547L10.7355 8.14551H15.5C16.3284 8.14551 17 8.81708 17 9.64551V13.6815L15.5027 12.4363C15.2566 12.1959 14.9449 12.0623 14.6259 12.036Z" fill="black"/>
<path d="M5.73529 5.73529C5.4424 6.02819 5.4424 6.50306 5.73529 6.79596L17.2059 18.2665C17.4988 18.5594 17.9737 18.5594 18.2665 18.2665C18.5594 17.9737 18.5594 17.4988 18.2665 17.2059L6.79596 5.73529C6.50306 5.4424 6.02819 5.4424 5.73529 5.73529Z" fill="black"/>
</svg>
