<svg width="24" height="24" viewBox="0 0 24 24" fill="none" xmlns="http://www.w3.org/2000/svg">
<path d="M16.5714 22.5H7.42857C4.15431 22.5 1.5 19.8457 1.5 16.5714V7.42857C1.5 4.15431 4.15431 1.5 7.42857 1.5H16.5714C19.8457 1.5 22.5 4.15431 22.5 7.42857V16.5714C22.5 19.8457 19.8457 22.5 16.5714 22.5ZM24 16.5714V7.42857C24 3.32588 20.6741 0 16.5714 0H7.42857C3.32588 0 0 3.32588 0 7.42857V16.5714C0 20.6741 3.32588 24 7.42857 24H16.5714C20.6741 24 24 20.6741 24 16.5714ZM6 8V12.6826H9.33334C10.0917 12.6826 10.5563 13.2908 10.7238 13.7746C10.9071 14.304 11.4102 14.6826 12 14.6826C12.5898 14.6826 13.0929 14.304 13.2762 13.7746C13.4437 13.2908 13.9083 12.6826 14.6667 12.6826H18V8C18 6.89543 17.1046 6 16 6H8C6.89543 6 6 6.89543 6 8ZM14.6667 13.9826L14.6656 13.9827C14.6653 13.9828 14.6638 13.9831 14.6607 13.9844C14.6545 13.987 14.6407 13.9943 14.6214 14.0117C14.5799 14.0492 14.5338 14.1155 14.5047 14.1999C14.1457 15.2366 13.1608 15.9826 12 15.9826C10.8392 15.9826 9.8543 15.2366 9.49535 14.1999C9.46616 14.1155 9.4201 14.0492 9.37858 14.0117C9.35931 13.9943 9.34548 13.987 9.33926 13.9844C9.33624 13.9831 9.33468 13.9828 9.33437 13.9827L9.33334 13.9826H6V16C6 17.1046 6.89543 18 8 18H16C17.1046 18 18 17.1046 18 16V13.9826H14.6667Z" fill="black"/>
</svg>
