<svg width="24" height="24" viewBox="0 0 24 24" fill="none" xmlns="http://www.w3.org/2000/svg">
<path d="M16.5714 1.5C19.8457 1.5 22.5 4.15431 22.5 7.42857V16.5714C22.5 19.8457 19.8457 22.5 16.5714 22.5H7.42857C4.15431 22.5 1.5 19.8457 1.5 16.5714V7.42857C1.5 4.15431 4.15431 1.5 7.42857 1.5H16.5714ZM7.42857 0C3.32588 0 0 3.32588 0 7.42857V16.5714C0 20.6741 3.32588 24 7.42857 24H16.5714C20.6741 24 24 20.6741 24 16.5714V7.42857C24 3.32588 20.6741 0 16.5714 0H7.42857Z" fill="black"/>
<path d="M5.25 7C5.25 7.41421 5.58579 7.75 6 7.75H18C18.4142 7.75 18.75 7.41421 18.75 7C18.75 6.58579 18.4142 6.25 18 6.25H6C5.58579 6.25 5.25 6.58579 5.25 7Z" fill="black"/>
<path d="M10.584 10.5C10.584 10.9142 10.9198 11.25 11.334 11.25H18.0007C18.4149 11.25 18.7507 10.9142 18.7507 10.5C18.7507 10.0858 18.4149 9.75 18.0007 9.75H11.334C10.9198 9.75 10.584 10.0858 10.584 10.5Z" fill="black"/>
<path d="M10.584 14C10.584 14.4142 10.9198 14.75 11.334 14.75H18.0007C18.4149 14.75 18.7507 14.4142 18.7507 14C18.7507 13.5858 18.4149 13.25 18.0007 13.25H11.334C10.9198 13.25 10.584 13.5858 10.584 14Z" fill="black"/>
<path d="M5.25 17.5C5.25 17.9142 5.58579 18.25 6 18.25H18C18.4142 18.25 18.75 17.9142 18.75 17.5C18.75 17.0858 18.4142 16.75 18 16.75H6C5.58579 16.75 5.25 17.0858 5.25 17.5Z" fill="black"/>
<path d="M6 14.2129C6 14.6401 6.50106 14.8705 6.8254 14.5925L9.0571 12.6796C9.28991 12.4801 9.28991 12.1199 9.0571 11.9204L6.8254 10.0075C6.50106 9.72948 6 9.95993 6 10.3871V14.2129Z" fill="black"/>
</svg>
