<svg width="24" height="24" viewBox="0 0 24 24" fill="none" xmlns="http://www.w3.org/2000/svg">
<path d="M7.42857 1.5H16.5714C19.8457 1.5 22.5 4.15431 22.5 7.42857V16.5714C22.5 19.8457 19.8457 22.5 16.5714 22.5H7.42857C4.15431 22.5 1.5 19.8457 1.5 16.5714V7.42857C1.5 4.15431 4.15431 1.5 7.42857 1.5ZM0 7.42857V16.5714C0 20.6741 3.32588 24 7.42857 24H16.5714C20.6741 24 24 20.6741 24 16.5714V7.42857C24 3.32588 20.6741 0 16.5714 0H7.42857C3.32588 0 0 3.32588 0 7.42857ZM12.8763 5.71802C13.1867 5.88283 13.4426 6.13187 13.6129 6.43583L18.7721 15.6424C19.2645 16.5211 18.9318 17.6224 18.0355 18.0982C17.7663 18.2412 17.465 18.316 17.159 18.316H6.84056C5.82695 18.316 5 17.511 5 16.5114C5 16.2075 5.0783 15.9086 5.22744 15.6424L10.3867 6.43583C10.8748 5.5648 11.9876 5.24621 12.8763 5.71802ZM11.4137 10.9609C11.0547 10.9609 10.7637 11.252 10.7637 11.6109C10.7637 11.9699 11.0547 12.2609 11.4137 12.2609H11.5414V14.8532C11.2138 14.8866 10.9581 15.1633 10.9581 15.4998C10.9581 15.8588 11.2491 16.1498 11.6081 16.1498H12.7748C13.1338 16.1498 13.4248 15.8588 13.4248 15.4998C13.4248 15.1633 13.1691 14.8866 12.8414 14.8532V11.6109C12.8414 11.252 12.5504 10.9609 12.1915 10.9609H11.4137ZM11.9944 8.5C11.5651 8.5 11.2166 8.84844 11.2197 9.27778C11.2197 9.70711 11.5682 10.0556 11.9975 10.0556C12.4269 10.0556 12.7753 9.70711 12.7753 9.27778C12.7753 8.84844 12.4269 8.5 11.9944 8.5Z" fill="black"/>
</svg>
