<svg width="24" height="24" viewBox="0 0 24 24" fill="none" xmlns="http://www.w3.org/2000/svg">
<path d="M16.5714 1.5C19.8457 1.5 22.5 4.15431 22.5 7.42857V16.5714C22.5 19.8457 19.8457 22.5 16.5714 22.5H7.42857C4.15431 22.5 1.5 19.8457 1.5 16.5714V7.42857C1.5 4.15431 4.15431 1.5 7.42857 1.5H16.5714ZM7.42857 0C3.32588 0 0 3.32589 0 7.42857V16.5714C0 20.6741 3.32588 24 7.42857 24H16.5714C20.6741 24 24 20.6741 24 16.5714V7.42857C24 3.32589 20.6741 0 16.5714 0H7.42857ZM10.1543 10.8888C10.1543 11.3858 10.5572 11.7888 11.0543 11.7888H11.3765V16.0999H11.3599C10.8628 16.0999 10.4599 16.5028 10.4599 16.9999C10.4599 17.4969 10.8628 17.8999 11.3599 17.8999H13.1932C13.6902 17.8999 14.0932 17.4969 14.0932 16.9999C14.0932 16.5028 13.6902 16.0999 13.1932 16.0999H13.1765V10.8888C13.1765 10.3917 12.7736 9.98877 12.2765 9.98877H11.0543C10.5572 9.98877 10.1543 10.3917 10.1543 10.8888ZM10.75 7.22222C10.75 7.89689 11.2976 8.44444 11.9723 8.44444C12.6469 8.44444 13.1945 7.89689 13.1945 7.22222C13.1945 6.54756 12.6469 6 11.9674 6C11.2927 6 10.7451 6.54756 10.75 7.22222Z" fill="black"/>
</svg>
