<svg width="24" height="24" viewBox="0 0 24 24" fill="none" xmlns="http://www.w3.org/2000/svg">
<path d="M16.5714 1.5C19.8457 1.5 22.5 4.15431 22.5 7.42857V16.5714C22.5 19.8457 19.8457 22.5 16.5714 22.5H7.42857C4.15431 22.5 1.5 19.8457 1.5 16.5714V7.42857C1.5 4.15431 4.15431 1.5 7.42857 1.5H16.5714ZM7.42857 0C3.32588 0 0 3.32588 0 7.42857V16.5714C0 20.6741 3.32588 24 7.42857 24H16.5714C20.6741 24 24 20.6741 24 16.5714V7.42857C24 3.32588 20.6741 0 16.5714 0H7.42857Z" fill="black"/>
<path d="M9.214 6.42857C9.214 6.94141 9.62974 7.35714 10.1426 7.35714H12.7766L9.20365 15.715H6.42857C5.91574 15.715 5.5 16.1307 5.5 16.6436C5.5 17.1564 5.91574 17.5721 6.42857 17.5721H13.8574C14.3703 17.5721 14.786 17.1564 14.786 16.6436C14.786 16.1307 14.3703 15.715 13.8574 15.715H11.2234L14.7964 7.35714H17.5714C18.0843 7.35714 18.5 6.94141 18.5 6.42857C18.5 5.91574 18.0843 5.5 17.5714 5.5H10.1426C9.62974 5.5 9.214 5.91574 9.214 6.42857Z" fill="black"/>
</svg>
