<svg width="24" height="24" viewBox="0 0 24 24" fill="none" xmlns="http://www.w3.org/2000/svg">
<path d="M6.11772 6.16094C5.8931 6.37965 5.88831 6.73903 6.10702 6.96364L7.28535 8.17382C5.93044 8.8509 5 10.2513 5 11.8689C5 14.149 6.84831 15.9973 9.12832 15.9973C10.7068 15.9973 12.0783 15.1114 12.7729 13.8097L16.6084 17.7489C16.8271 17.9735 17.1865 17.9783 17.4111 17.7596C17.6257 17.5507 17.6397 17.2135 17.4499 16.9879C17.42 16.9673 17.3916 16.9434 17.3653 16.9163L6.86387 6.13112C6.85405 6.12103 6.84468 6.11067 6.83577 6.10007C6.61711 5.94912 6.31528 5.96858 6.11772 6.16094ZM9.16272 13.0386C8.53572 13.0386 8.02743 12.5303 8.02743 11.9033C8.02743 11.2763 8.53572 10.7681 9.16272 10.7681C9.78972 10.7681 10.298 11.2763 10.298 11.9033C10.298 12.5303 9.78972 13.0386 9.16272 13.0386Z" fill="black"/>
<path d="M16.8491 14.7588L14.9072 12.7644V12.4366H14.588L13.5523 11.3729L9.7682 7.58948C11.6553 8.07161 13.121 9.50437 13.5364 11.3013H14.9072V11.298H18.2098V11.3013H18.6228C18.9363 11.3013 19.1904 11.5555 19.1904 11.869C19.1904 12.1825 18.9363 12.4366 18.6228 12.4366H18.2098V14.002C18.2098 14.42 17.871 14.7588 17.453 14.7588H16.8491Z" fill="black"/>
<path d="M0 16.5714C0 20.6741 3.32588 24 7.42857 24H16.5714C20.6741 24 24 20.6741 24 16.5714V7.42857C24 3.32588 20.6741 0 16.5714 0H7.42857C3.32588 0 0 3.32588 0 7.42857V16.5714ZM16.5714 1.5C19.8457 1.5 22.5 4.15431 22.5 7.42857V16.5714C22.5 19.8457 19.8457 22.5 16.5714 22.5H7.42857C4.15431 22.5 1.5 19.8457 1.5 16.5714V7.42857C1.5 4.15431 4.15431 1.5 7.42857 1.5H16.5714Z" fill="black"/>
</svg>
