<svg width="24" height="24" viewBox="0 0 24 24" fill="none" xmlns="http://www.w3.org/2000/svg">
<path d="M9.24242 16.4848C11.3131 16.4848 13.0372 15.0014 13.4101 13.0393C13.4346 13.0415 13.4593 13.0427 13.4844 13.0427H15.1816V14.2123C15.1816 14.7645 15.6294 15.2123 16.1816 15.2123H17.5756C18.1279 15.2123 18.5756 14.7645 18.5756 14.2123V13.0427H18.9995C19.4414 13.0427 19.7995 12.6845 19.7995 12.2427C19.7995 11.8008 19.4414 11.4427 18.9995 11.4427H13.4844C13.4594 11.4427 13.4346 11.4438 13.4102 11.4461C13.0375 9.48371 11.3133 8 9.24242 8C6.8994 8 5 9.8994 5 12.2424C5 14.5855 6.8994 16.4848 9.24242 16.4848ZM9.27799 13.4447C8.63366 13.4447 8.11133 12.9223 8.11133 12.278C8.11133 11.6337 8.63366 11.1113 9.27799 11.1113C9.92233 11.1113 10.4447 11.6337 10.4447 12.278C10.4447 12.9223 9.92233 13.4447 9.27799 13.4447Z" fill="black"/>
<path d="M0 7.42857V16.5714C0 20.6741 3.32588 24 7.42857 24H16.5714C20.6741 24 24 20.6741 24 16.5714V7.42857C24 3.32588 20.6741 0 16.5714 0H7.42857C3.32588 0 0 3.32588 0 7.42857ZM7.42857 1.5H16.5714C19.8457 1.5 22.5 4.15431 22.5 7.42857V16.5714C22.5 19.8457 19.8457 22.5 16.5714 22.5H7.42857C4.15431 22.5 1.5 19.8457 1.5 16.5714V7.42857C1.5 4.15431 4.15431 1.5 7.42857 1.5Z" fill="black"/>
</svg>
