<svg width="24" height="24" viewBox="0 0 24 24" fill="none" xmlns="http://www.w3.org/2000/svg">
<path d="M7.42857 1.5H16.5714C19.8457 1.5 22.5 4.15431 22.5 7.42857V16.5714C22.5 19.8457 19.8457 22.5 16.5714 22.5H7.42857C4.15431 22.5 1.5 19.8457 1.5 16.5714V7.42857C1.5 4.15431 4.15431 1.5 7.42857 1.5ZM0 7.42857V16.5714C0 20.6741 3.32588 24 7.42857 24H16.5714C20.6741 24 24 20.6741 24 16.5714V7.42857C24 3.32588 20.6741 0 16.5714 0H7.42857C3.32588 0 0 3.32588 0 7.42857ZM16.4508 13.6989H7.55078V8.40997C7.55078 8.13383 7.77464 7.90997 8.05078 7.90997H15.9508C16.2269 7.90997 16.4508 8.13383 16.4508 8.40997V13.6989ZM6.05078 13.7H5.3C5.13431 13.7 5 13.8343 5 14V15.5889C5 16.6935 5.89543 17.5889 7 17.5889H17C18.1046 17.5889 19 16.6935 19 15.5889V14C19 13.8343 18.8657 13.7 18.7 13.7H17.9508V8.40997C17.9508 7.3054 17.0553 6.40997 15.9508 6.40997H8.05078C6.94621 6.40997 6.05078 7.3054 6.05078 8.40997V13.7ZM17 16.0889H7C6.72386 16.0889 6.5 15.865 6.5 15.5889V15.2H9.75624C9.82584 15.3924 10.0101 15.5299 10.2266 15.5299H13.7732C13.9896 15.5299 14.1739 15.3924 14.2435 15.2H17.5V15.5889C17.5 15.865 17.2761 16.0889 17 16.0889Z" fill="black"/>
</svg>
