<svg width="24" height="24" viewBox="0 0 24 24" fill="none" xmlns="http://www.w3.org/2000/svg">
<path d="M16.5714 1.5C19.8457 1.5 22.5 4.15431 22.5 7.42857V16.5714C22.5 19.8457 19.8457 22.5 16.5714 22.5H7.42857C4.15431 22.5 1.5 19.8457 1.5 16.5714V7.42857C1.5 4.15431 4.15431 1.5 7.42857 1.5H16.5714ZM7.42857 0C3.32588 0 0 3.32588 0 7.42857V16.5714C0 20.6741 3.32588 24 7.42857 24H16.5714C20.6741 24 24 20.6741 24 16.5714V7.42857C24 3.32588 20.6741 0 16.5714 0H7.42857Z" fill="black"/>
<path d="M15.6906 17C15.6906 16.5582 15.3325 16.2 14.8906 16.2H9.17634C8.73451 16.2 8.37634 16.5582 8.37634 17C8.37634 17.4418 8.73451 17.8 9.17634 17.8H14.8906C15.3325 17.8 15.6906 17.4418 15.6906 17Z" fill="black"/>
<path d="M15.569 14.5671C15.8032 14.1924 15.6893 13.6988 15.3146 13.4647L10.6858 10.5716L15.3146 7.67861C15.6893 7.44444 15.8032 6.95088 15.569 6.57621C15.3349 6.20154 14.8413 6.08764 14.4666 6.32181L8.75234 9.89324C8.51844 10.0394 8.37634 10.2958 8.37634 10.5716C8.37634 10.8475 8.51844 11.1038 8.75234 11.25L14.4666 14.8215C14.8413 15.0556 15.3349 14.9417 15.569 14.5671Z" fill="black"/>
</svg>
