<svg width="24" height="24" viewBox="0 0 24 24" fill="none" xmlns="http://www.w3.org/2000/svg">
<path d="M16.5714 1.5C19.8457 1.5 22.5 4.15431 22.5 7.42857V16.5714C22.5 19.8457 19.8457 22.5 16.5714 22.5H7.42857C4.15431 22.5 1.5 19.8457 1.5 16.5714V7.42857C1.5 4.15431 4.15431 1.5 7.42857 1.5H16.5714ZM7.42857 0C3.32588 0 0 3.32588 0 7.42857V16.5714C0 20.6741 3.32588 24 7.42857 24H16.5714C20.6741 24 24 20.6741 24 16.5714V7.42857C24 3.32588 20.6741 0 16.5714 0H7.42857Z" fill="black"/>
<path d="M15.6777 16.4241C15.9119 16.0494 15.798 15.5558 15.4233 15.3217L10.1088 12.0001L15.4233 8.67846C15.798 8.44429 15.9119 7.95073 15.6777 7.57606C15.4436 7.20139 14.95 7.08749 14.5753 7.32166L8.17533 11.3217C7.94142 11.4679 7.79933 11.7242 7.79933 12.0001C7.79933 12.2759 7.94142 12.5323 8.17533 12.6785L14.5753 16.6785C14.95 16.9126 15.4436 16.7987 15.6777 16.4241Z" fill="black"/>
</svg>
