<svg width="24" height="24" viewBox="0 0 24 24" fill="none" xmlns="http://www.w3.org/2000/svg">
<path d="M7.42857 1.5H16.5714C19.8457 1.5 22.5 4.15431 22.5 7.42857V16.5714C22.5 19.8457 19.8457 22.5 16.5714 22.5H7.42857C4.15431 22.5 1.5 19.8457 1.5 16.5714V7.42857C1.5 4.15431 4.15431 1.5 7.42857 1.5ZM0 7.42857V16.5714C0 20.6741 3.32588 24 7.42857 24H16.5714C20.6741 24 24 20.6741 24 16.5714V7.42857C24 3.32588 20.6741 0 16.5714 0H7.42857C3.32588 0 0 3.32588 0 7.42857ZM12 19C15.866 19 19 15.866 19 12C19 8.13401 15.866 5 12 5C8.13401 5 5 8.13401 5 12C5 15.866 8.13401 19 12 19ZM12 14.5C10.6193 14.5 9.5 13.3807 9.5 12C9.5 10.6193 10.6193 9.5 12 9.5C13.3807 9.5 14.5 10.6193 14.5 12C14.5 13.3807 13.3807 14.5 12 14.5ZM9.7467 9.74669C9.49286 10.0005 9.08131 10.0006 8.82746 9.74672L8.54036 9.45963L7.96616 8.88546L7.67906 8.59837C7.42522 8.34454 7.42521 7.93298 7.67904 7.67913C7.93288 7.42529 8.34443 7.42528 8.59828 7.67911L8.88538 7.9662L9.45958 8.54037L9.74668 8.82746C10.0005 9.08129 10.0005 9.49285 9.7467 9.74669ZM16.3209 16.3209C16.0671 16.5747 15.6555 16.5747 15.4017 16.3209L15.1146 16.0338L14.5404 15.4596L14.2533 15.1726C13.9994 14.9187 13.9994 14.5072 14.2532 14.2533C14.5071 13.9995 14.9186 13.9995 15.1725 14.2533L15.4596 14.5404L16.0338 15.1146L16.3209 15.4016C16.5747 15.6555 16.5747 16.067 16.3209 16.3209ZM16.3209 8.59836L16.0338 8.88544L15.4596 9.45962L15.1725 9.7467C14.9187 10.0005 14.5071 10.0005 14.2533 9.74668C13.9994 9.49283 13.9994 9.08127 14.2533 8.82744L14.5404 8.54035L15.1146 7.96618L15.4017 7.6791C15.6555 7.42526 16.0671 7.42527 16.3209 7.67912C16.5748 7.93297 16.5748 8.34452 16.3209 8.59836ZM8.82755 14.2533C9.0814 13.9994 9.49296 13.9995 9.74679 14.2533C10.0006 14.5072 10.0006 14.9187 9.74677 15.1725L9.45967 15.4596L8.88547 16.0338L8.59837 16.3209C8.34452 16.5747 7.93297 16.5747 7.67913 16.3209C7.4253 16.067 7.42531 15.6555 7.67915 15.4016L7.96625 15.1145L8.54045 14.5404L8.82755 14.2533Z" fill="black"/>
</svg>
