<svg width="24" height="24" viewBox="0 0 24 24" fill="none" xmlns="http://www.w3.org/2000/svg">
<path d="M15.0359 7.24651C14.2627 6.47331 13.1905 6 11.9967 6C10.8028 6 9.73065 6.47331 8.95745 7.24651C8.18425 8.01971 7.71094 9.09184 7.71094 10.2857C7.71094 11.8494 8.54232 13.2072 9.76808 13.908V15.4429C9.76808 15.719 9.99194 15.9429 10.2681 15.9429H13.7252C14.0014 15.9429 14.2252 15.719 14.2252 15.4429V13.9223C15.4444 13.1428 16.2824 11.7858 16.2824 10.2857C16.2824 9.09184 15.8091 8.01971 15.0359 7.24651Z" fill="black"/>
<path d="M10.1113 17.4998C10.1113 17.776 10.3352 17.9998 10.6113 17.9998H13.3828C13.6589 17.9998 13.8828 17.776 13.8828 17.4998V16.6284H10.1113V17.4998Z" fill="black"/>
<path d="M0 7.42857V16.5714C0 20.6741 3.32588 24 7.42857 24H16.5714C20.6741 24 24 20.6741 24 16.5714V7.42857C24 3.32588 20.6741 0 16.5714 0H7.42857C3.32588 0 0 3.32588 0 7.42857ZM7.42857 1.5H16.5714C19.8457 1.5 22.5 4.15431 22.5 7.42857V16.5714C22.5 19.8457 19.8457 22.5 16.5714 22.5H7.42857C4.15431 22.5 1.5 19.8457 1.5 16.5714V7.42857C1.5 4.15431 4.15431 1.5 7.42857 1.5Z" fill="black"/>
</svg>
