<svg width="24" height="24" viewBox="0 0 24 24" fill="none" xmlns="http://www.w3.org/2000/svg">
<path d="M16.5714 1.5C19.8457 1.5 22.5 4.15431 22.5 7.42857V16.5714C22.5 19.8457 19.8457 22.5 16.5714 22.5H7.42857C4.15431 22.5 1.5 19.8457 1.5 16.5714V7.42857C1.5 4.15431 4.15431 1.5 7.42857 1.5H16.5714ZM7.42857 0C3.32588 0 0 3.32588 0 7.42857V16.5714C0 20.6741 3.32588 24 7.42857 24H16.5714C20.6741 24 24 20.6741 24 16.5714V7.42857C24 3.32588 20.6741 0 16.5714 0H7.42857Z" fill="black"/>
<path d="M12.2589 6.7009L11.2992 7.65484C10.9859 7.96634 10.9844 8.47287 11.2959 8.7862C11.6075 9.09953 12.114 9.10101 12.4273 8.7895L13.3742 7.84808C14.1457 7.10688 15.3689 7.11875 16.1259 7.8757C16.8826 8.63241 16.8947 9.85502 16.1542 10.6266L14.5001 12.2807C14.0969 12.684 13.5384 12.8924 12.9695 12.8516C12.4006 12.8109 11.8775 12.5251 11.5359 12.0684C11.2713 11.7146 10.7699 11.6423 10.4161 11.907C10.0623 12.1716 9.99006 12.673 10.2547 13.0268C10.8744 13.8552 11.8233 14.3736 12.8552 14.4475C13.8871 14.5214 14.9003 14.1435 15.6316 13.4119L17.291 11.7527L17.3007 11.7427C18.6519 10.3436 18.6326 8.11971 17.2572 6.74433C15.8818 5.36895 13.658 5.34963 12.2589 6.7009Z" fill="black"/>
<path d="M8.37081 10.5767L6.71135 12.236L6.70169 12.246C5.35042 13.6451 5.36975 15.869 6.74513 17.2444C8.1205 18.6197 10.3445 18.6391 11.7436 17.2879L12.6992 16.3322C13.0116 16.0198 13.0116 15.5133 12.6992 15.2008C12.3868 14.8884 11.8803 14.8884 11.5679 15.2008L10.6273 16.1414C9.8558 16.8818 8.6332 16.8697 7.8765 16.113C7.11979 15.3563 7.10769 14.1337 7.84814 13.3621L9.50228 11.708C9.90548 11.3046 10.464 11.0963 11.0328 11.137C11.6017 11.1778 12.1248 11.4636 12.4664 11.9203C12.7311 12.2741 13.2324 12.3464 13.5862 12.0817C13.94 11.8171 14.0123 11.3157 13.7476 10.9619C13.128 10.1335 12.179 9.61504 11.1471 9.54114C10.1153 9.46724 9.1022 9.84513 8.37081 10.5767Z" fill="black"/>
</svg>
