<svg width="24" height="24" viewBox="0 0 24 24" fill="none" xmlns="http://www.w3.org/2000/svg">
<path d="M7.42857 1.5H16.5714C19.8457 1.5 22.5 4.15431 22.5 7.42857V16.5714C22.5 19.8457 19.8457 22.5 16.5714 22.5H7.42857C4.15431 22.5 1.5 19.8457 1.5 16.5714V7.42857C1.5 4.15431 4.15431 1.5 7.42857 1.5ZM0 7.42857V16.5714C0 20.6741 3.32588 24 7.42857 24H16.5714C20.6741 24 24 20.6741 24 16.5714V7.42857C24 3.32588 20.6741 0 16.5714 0H7.42857C3.32588 0 0 3.32588 0 7.42857ZM9.11114 7.26001V8.42668C9.11114 8.70282 9.33499 8.92668 9.61114 8.92668H18C18.2762 8.92668 18.5 8.70282 18.5 8.42668V7.26001C18.5 6.98387 18.2762 6.76001 18 6.76001H9.61114C9.33499 6.76001 9.11114 6.98387 9.11114 7.26001ZM6.29723 9.68643C6.29723 9.86515 6.44211 10.01 6.62084 10.01C6.79956 10.01 6.94444 9.86515 6.94444 9.68643V7.61965C6.94444 7.34434 6.72126 7.12115 6.44594 7.12115C6.35025 7.12115 6.25659 7.14868 6.17613 7.20047L5.60849 7.56583C5.54087 7.60935 5.5 7.68426 5.5 7.76468C5.5 7.95186 5.70714 8.06485 5.86451 7.96352L6.25128 7.71448C6.2561 7.71138 6.2617 7.70973 6.26742 7.70973C6.28388 7.70973 6.29723 7.72308 6.29723 7.73954V9.68643ZM5.50976 11.6575H6.0617C6.06817 11.6575 6.07341 11.6522 6.07341 11.6457C6.07341 11.3861 6.27001 11.2066 6.55671 11.2066C6.82703 11.2066 7.01953 11.3666 7.01953 11.593C7.01953 11.7765 6.91509 11.9229 6.49937 12.3094L5.62606 13.1241C5.56786 13.1784 5.53481 13.2544 5.53481 13.334C5.53481 13.4926 5.66334 13.6211 5.82189 13.6211H7.4217C7.55699 13.6211 7.66667 13.5114 7.66667 13.3761C7.66667 13.2409 7.55699 13.1312 7.4217 13.1312H6.39676C6.3833 13.1312 6.3724 13.1203 6.3724 13.1068C6.3724 13.1 6.3753 13.0934 6.38038 13.0888L6.93762 12.5827C7.44959 12.124 7.62366 11.8605 7.62366 11.554C7.62366 11.0699 7.1936 10.7322 6.57719 10.7322C5.93825 10.7322 5.5 11.1031 5.5 11.6477C5.5 11.6531 5.50437 11.6575 5.50976 11.6575ZM6.21964 15.7557C6.21964 15.874 6.31556 15.9699 6.43388 15.9699H6.56592C6.87932 15.9699 7.07083 16.1185 7.07083 16.3584C7.07083 16.5926 6.86771 16.7545 6.57559 16.7545C6.39638 16.7545 6.25309 16.7021 6.1631 16.6104L6.14151 16.5882C6.04353 16.4876 5.93451 16.3755 5.79676 16.3755C5.63525 16.3755 5.50133 16.5146 5.5615 16.6645C5.70256 17.0159 6.07191 17.2325 6.56979 17.2325C7.20625 17.2325 7.66667 16.884 7.66667 16.4022C7.66667 16.046 7.43424 15.7969 7.06163 15.7492C7.05152 15.7479 7.04375 15.7394 7.04375 15.7292C7.04375 15.7197 7.05051 15.7115 7.0598 15.7094C7.36217 15.6414 7.55833 15.3969 7.55833 15.0844C7.55833 14.6521 7.14628 14.3436 6.57366 14.3436C6.08158 14.3436 5.73078 14.5572 5.60378 14.9132C5.55173 15.0591 5.68096 15.191 5.83587 15.191C5.97992 15.191 6.08919 15.0663 6.18129 14.9556C6.26219 14.8583 6.39335 14.8026 6.55818 14.8026C6.83095 14.8026 7.00506 14.9435 7.00506 15.1644C7.00506 15.3891 6.82515 15.5414 6.56012 15.5414H6.43388C6.31556 15.5414 6.21964 15.6374 6.21964 15.7557ZM9.61108 10.7322H18C18.2761 10.7322 18.5 10.956 18.5 11.2322V12.3988C18.5 12.675 18.2761 12.8988 18 12.8988H9.61108C9.33494 12.8988 9.11108 12.675 9.11108 12.3988V11.2322C9.11108 10.956 9.33494 10.7322 9.61108 10.7322ZM9.11114 15.2046V16.3712C9.11114 16.6474 9.33499 16.8712 9.61114 16.8712H18C18.2762 16.8712 18.5 16.6474 18.5 16.3712V15.2046C18.5 14.9284 18.2762 14.7046 18 14.7046H9.61114C9.33499 14.7046 9.11114 14.9284 9.11114 15.2046Z" fill="black"/>
</svg>
