<svg width="24" height="24" viewBox="0 0 24 24" fill="none" xmlns="http://www.w3.org/2000/svg">
<path d="M16.5714 1.5C19.8457 1.5 22.5 4.15431 22.5 7.42857V16.5714C22.5 19.8457 19.8457 22.5 16.5714 22.5H7.42857C4.15431 22.5 1.5 19.8457 1.5 16.5714V7.42857C1.5 4.15431 4.15431 1.5 7.42857 1.5H16.5714ZM7.42857 0C3.32588 0 0 3.32588 0 7.42857V16.5714C0 20.6741 3.32588 24 7.42857 24H16.5714C20.6741 24 24 20.6741 24 16.5714V7.42857C24 3.32588 20.6741 0 16.5714 0H7.42857Z" fill="black"/>
<path d="M16.7499 6.58528L6.99248 11.1535C6.60431 11.3353 6.60975 11.8892 7.00141 12.0633L10.2424 13.5037C10.3556 13.554 10.446 13.6444 10.4963 13.7576L11.9367 16.9986C12.1108 17.3903 12.6647 17.3957 12.8465 17.0075L17.4147 7.25012C17.613 6.82666 17.1733 6.38703 16.7499 6.58528Z" fill="black"/>
</svg>
