<svg width="24" height="24" viewBox="0 0 24 24" fill="none" xmlns="http://www.w3.org/2000/svg">
<path d="M16.5714 1.5C19.8457 1.5 22.5 4.15431 22.5 7.42857V16.5714C22.5 19.8457 19.8457 22.5 16.5714 22.5H7.42857C4.15431 22.5 1.5 19.8457 1.5 16.5714V7.42857C1.5 4.15431 4.15431 1.5 7.42857 1.5H16.5714ZM7.42857 0C3.32588 0 0 3.32588 0 7.42857V16.5714C0 20.6741 3.32588 24 7.42857 24H16.5714C20.6741 24 24 20.6741 24 16.5714V7.42857C24 3.32588 20.6741 0 16.5714 0H7.42857ZM6.60001 12.1012V15.788C6.60001 17.0097 7.63615 18.0001 8.91429 18.0001H15.0857C16.3639 18.0001 17.4 17.0097 17.4 15.788V12.1012C17.4 10.8795 16.3639 9.88916 15.0857 9.88916H15.0735C15.0735 9.88889 15.0735 9.88861 15.0735 9.88834V8.427C15.0735 6.72762 13.6959 5.35 11.9965 5.35H11.5768C10.1092 5.35 8.91952 6.53969 8.91952 8.00725C8.91952 8.36624 9.21053 8.65725 9.56952 8.65725C9.9285 8.65725 10.2195 8.36624 10.2195 8.00725C10.2195 7.25766 10.8272 6.65 11.5768 6.65H11.9965C12.9779 6.65 13.7735 7.44559 13.7735 8.427V9.88834C13.7735 9.88861 13.7735 9.88889 13.7735 9.88916H8.91429C7.63615 9.88916 6.60001 10.8795 6.60001 12.1012Z" fill="black"/>
</svg>
