<svg width="24" height="24" viewBox="0 0 24 24" fill="none" xmlns="http://www.w3.org/2000/svg">
<path d="M7.42857 1.5H16.5714C19.8457 1.5 22.5 4.15431 22.5 7.42857V16.5714C22.5 19.8457 19.8457 22.5 16.5714 22.5H7.42857C4.15431 22.5 1.5 19.8457 1.5 16.5714V7.42857C1.5 4.15431 4.15431 1.5 7.42857 1.5ZM0 7.42857V16.5714C0 20.6741 3.32588 24 7.42857 24H16.5714C20.6741 24 24 20.6741 24 16.5714V7.42857C24 3.32588 20.6741 0 16.5714 0H7.42857C3.32588 0 0 3.32588 0 7.42857ZM11.6146 17.853C11.824 18.049 12.1397 18.049 12.3491 17.853C13.4033 16.8662 16.3638 13.8455 16.3638 11.0442C16.3638 8.5345 14.4019 6.5 11.9819 6.5C9.56181 6.5 7.59998 8.5345 7.59998 11.0442C7.59998 13.8455 10.5605 16.8662 11.6146 17.853Z" fill="black"/>
</svg>
