<svg width="24" height="24" viewBox="0 0 24 24" fill="none" xmlns="http://www.w3.org/2000/svg">
<path d="M7.42857 1.5H16.5714C19.8457 1.5 22.5 4.15431 22.5 7.42857V16.5714C22.5 19.8457 19.8457 22.5 16.5714 22.5H7.42857C4.15431 22.5 1.5 19.8457 1.5 16.5714V7.42857C1.5 4.15431 4.15431 1.5 7.42857 1.5ZM0 7.42857V16.5714C0 20.6741 3.32588 24 7.42857 24H16.5714C20.6741 24 24 20.6741 24 16.5714V7.42857C24 3.32588 20.6741 0 16.5714 0H7.42857C3.32588 0 0 3.32588 0 7.42857ZM8.94922 6.63106L5.64102 7.90345C5.25483 8.05198 5 8.42302 5 8.83679V16.0371C5 16.7669 5.75644 17.2509 6.41906 16.945L8.94922 15.7773V6.63106ZM10.1492 15.7397L14.1992 17.3597V7.94973L10.1492 6.59973V15.7397ZM18.4472 15.7764C18.786 15.607 19 15.2607 19 14.882V7.89999C19 7.18641 18.2741 6.70246 17.6154 6.97691L15.3992 7.90032V17.3004L18.4472 15.7764Z" fill="black"/>
</svg>
