<svg width="24" height="24" viewBox="0 0 24 24" fill="none" xmlns="http://www.w3.org/2000/svg">
<path d="M7.42857 1.5H16.5714C19.8457 1.5 22.5 4.15431 22.5 7.42857V16.5714C22.5 19.8457 19.8457 22.5 16.5714 22.5H7.42857C4.15431 22.5 1.5 19.8457 1.5 16.5714V7.42857C1.5 4.15431 4.15431 1.5 7.42857 1.5ZM0 7.42857V16.5714C0 20.6741 3.32588 24 7.42857 24H16.5714C20.6741 24 24 20.6741 24 16.5714V7.42857C24 3.32588 20.6741 0 16.5714 0H7.42857C3.32588 0 0 3.32588 0 7.42857ZM15.4352 6.54563C15.0432 6.19535 14.5339 6 14.0041 6H9.84031L9.71257 6.00379C9.16126 6.03655 8.64198 6.28036 8.26539 6.68697L5.98349 9.15075L5.93754 9.20648C5.91935 9.23136 5.90327 9.25725 5.88991 9.28377C5.8329 9.37328 5.7998 9.47997 5.7998 9.59451V15.7091C5.7998 16.9743 6.80934 18 8.05466 18H15.9467C17.192 18 18.2015 16.9743 18.2015 15.7091V9.59451C18.2015 9.47603 18.1661 9.36595 18.1061 9.27472C18.079 9.2251 18.0446 9.17836 18.0028 9.13611L15.5306 6.6364L15.4352 6.54563ZM9.84031 7.23451H14.0041L14.0941 7.23899C14.3027 7.25981 14.4985 7.35247 14.6468 7.50246L16.1488 9.0216L13.838 9.02178V12.6493L13.8334 12.7008C13.8096 12.8344 13.6945 12.9357 13.5561 12.9357C13.4927 12.9357 13.4311 12.9139 13.3813 12.874L12.3503 12.0459L12.2864 12.0015C12.0883 11.883 11.8355 11.8978 11.6511 12.0459L10.62 12.874L10.5775 12.9023C10.4595 12.9661 10.3099 12.9372 10.2241 12.8269C10.1848 12.7763 10.1634 12.7138 10.1634 12.6493V9.02178L7.78881 9.0216L9.17719 7.52375L9.24438 7.45839C9.40824 7.3148 9.61988 7.23451 9.84031 7.23451Z" fill="black"/>
</svg>
