<svg width="24" height="24" viewBox="0 0 24 24" fill="none" xmlns="http://www.w3.org/2000/svg">
<path d="M16.5714 22.5H7.42857C4.15431 22.5 1.5 19.8457 1.5 16.5714V7.42857C1.5 4.15431 4.15431 1.5 7.42857 1.5H16.5714C19.8457 1.5 22.5 4.15431 22.5 7.42857V16.5714C22.5 19.8457 19.8457 22.5 16.5714 22.5ZM24 16.5714V7.42857C24 3.32589 20.6741 0 16.5714 0H7.42857C3.32588 0 0 3.32589 0 7.42857V16.5714C0 20.6741 3.32588 24 7.42857 24H16.5714C20.6741 24 24 20.6741 24 16.5714ZM5 7.78027V16.2247C5 17.3293 5.89543 18.2247 7 18.2247H17C18.1046 18.2247 19 17.3293 19 16.2247V7.78028C19 6.67571 18.1046 5.78028 17 5.78028H7C5.89543 5.78028 5 6.6757 5 7.78027ZM6.55554 8.12461C6.55554 7.9037 6.73463 7.72461 6.95554 7.72461H17.0444C17.2653 7.72461 17.4444 7.9037 17.4444 8.12461V9.65794C17.4444 9.87886 17.2653 10.0579 17.0444 10.0579H6.95554C6.73463 10.0579 6.55554 9.87886 6.55554 9.65794V8.12461Z" fill="black"/>
</svg>
