<svg width="24" height="24" viewBox="0 0 24 24" fill="none" xmlns="http://www.w3.org/2000/svg">
<path d="M7.42857 1.5H16.5714C19.8457 1.5 22.5 4.15431 22.5 7.42857V16.5714C22.5 19.8457 19.8457 22.5 16.5714 22.5H7.42857C4.15431 22.5 1.5 19.8457 1.5 16.5714V7.42857C1.5 4.15431 4.15431 1.5 7.42857 1.5ZM0 7.42857V16.5714C0 20.6741 3.32588 24 7.42857 24H16.5714C20.6741 24 24 20.6741 24 16.5714V7.42857C24 3.32588 20.6741 0 16.5714 0H7.42857C3.32588 0 0 3.32588 0 7.42857ZM5 8.55005V15.4389C5 16.5435 5.89543 17.4389 7 17.4389H17C18.1046 17.4389 19 16.5435 19 15.4389V8.55005C19 7.44548 18.1046 6.55005 17 6.55005H7C5.89543 6.55005 5 7.44548 5 8.55005ZM9.09675 10.0468C9.16873 9.89342 9.38685 9.89342 9.45884 10.0468L9.83333 10.8445C9.86164 10.9049 9.91813 10.9471 9.98399 10.9572L10.8378 11.0885C10.9986 11.1132 11.0642 11.3094 10.9505 11.4259L10.3206 12.071C10.2762 12.1165 10.256 12.1803 10.2663 12.2429L10.4131 13.1434C10.44 13.3082 10.2651 13.4314 10.119 13.3506L9.37458 12.939C9.31435 12.9057 9.24123 12.9057 9.18101 12.939L8.43661 13.3506C8.2905 13.4314 8.11556 13.3082 8.14244 13.1434L8.28931 12.2429C8.29954 12.1803 8.27939 12.1165 8.23502 12.071L7.60509 11.4259C7.49139 11.3094 7.55695 11.1132 7.7178 11.0885L8.57159 10.9572C8.63745 10.9471 8.69394 10.9049 8.72226 10.8445L9.09675 10.0468ZM12.9265 10.5668H16.0376C16.3966 10.5668 16.6876 10.8578 16.6876 11.2168C16.6876 11.5758 16.3966 11.8668 16.0376 11.8668H12.9265C12.5675 11.8668 12.2765 11.5758 12.2765 11.2168C12.2765 10.8578 12.5675 10.5668 12.9265 10.5668ZM12.2765 13.55C12.2765 13.191 12.5675 12.9 12.9265 12.9H14.482C14.841 12.9 15.132 13.191 15.132 13.55C15.132 13.909 14.841 14.2 14.482 14.2H12.9265C12.5675 14.2 12.2765 13.909 12.2765 13.55Z" fill="black"/>
</svg>
