<svg width="24" height="24" viewBox="0 0 24 24" fill="none" xmlns="http://www.w3.org/2000/svg">
<path d="M16.5714 1.5C19.8457 1.5 22.5 4.15431 22.5 7.42857L22.5 16.5714C22.5 19.8457 19.8457 22.5 16.5714 22.5L7.42857 22.5C4.15431 22.5 1.5 19.8457 1.5 16.5714L1.5 7.42857C1.5 4.15431 4.15431 1.5 7.42857 1.5L16.5714 1.5ZM7.42857 1.17166e-09C3.32588 5.2457e-10 -5.2457e-10 3.32588 -1.17166e-09 7.42857L-2.6137e-09 16.5714C-3.2608e-09 20.6741 3.32588 24 7.42857 24L16.5714 24C20.6741 24 24 20.6741 24 16.5714L24 7.42857C24 3.32588 20.6741 3.2608e-09 16.5714 2.6137e-09L7.42857 1.17166e-09ZM14.3518 8.22584L13.1281 7.00211C12.9391 6.81313 12.616 6.94697 12.616 7.21425L12.616 10.8826C12.616 11.0483 12.7503 11.1826 12.916 11.1826L16.5843 11.1826C16.8516 11.1826 16.9855 10.8595 16.7965 10.6705L15.4832 9.35723L17.9451 6.92463C18.2594 6.61409 18.2624 6.10756 17.9519 5.79328C17.6413 5.479 17.1348 5.47597 16.8205 5.78651L14.3518 8.22584ZM9.60081 15.4797L10.8299 16.7088C11.0189 16.8978 11.342 16.764 11.342 16.4967L11.342 12.8283C11.342 12.6626 11.2077 12.5283 11.042 12.5283L7.37368 12.5283C7.10641 12.5283 6.97256 12.8515 7.16155 13.0405L8.47073 14.3496C8.46207 14.3575 8.45354 14.3656 8.44516 14.3739L6.01181 16.7876C5.69812 17.0988 5.69607 17.6053 6.00722 17.919C6.31837 18.2327 6.8249 18.2347 7.13859 17.9236L9.57193 15.5099C9.58187 15.5 9.5915 15.49 9.60081 15.4797Z" fill="black"/>
</svg>
