<svg width="24" height="24" viewBox="0 0 24 24" fill="none" xmlns="http://www.w3.org/2000/svg">
<path d="M16.5714 1.5C19.8457 1.5 22.5 4.15431 22.5 7.42857V16.5714C22.5 19.8457 19.8457 22.5 16.5714 22.5H7.42857C4.15431 22.5 1.5 19.8457 1.5 16.5714V7.42857C1.5 4.15431 4.15431 1.5 7.42857 1.5H16.5714ZM7.42857 0C3.32588 0 0 3.32588 0 7.42857V16.5714C0 20.6741 3.32588 24 7.42857 24H16.5714C20.6741 24 24 20.6741 24 16.5714V7.42857C24 3.32588 20.6741 0 16.5714 0H7.42857Z" fill="black"/>
<path d="M9.91714 8.1009C9.91226 8.15828 9.90977 8.21635 9.90977 8.275V11.435C9.90977 12.5534 10.8164 13.46 11.9348 13.46C12.8098 13.46 13.5552 12.905 13.8381 12.1279L9.91714 8.1009ZM14.7089 13.0222C14.1636 13.9506 13.1546 14.5738 12 14.5738C10.2661 14.5738 8.86055 13.1682 8.86055 11.4343V10.8027C8.86055 10.4437 8.56953 10.1527 8.21055 10.1527C7.85156 10.1527 7.56055 10.4437 7.56055 10.8027V11.4343C7.56055 13.6652 9.20608 15.5118 11.3496 15.8265V17.1H9.47422C9.11523 17.1 8.82422 17.391 8.82422 17.75C8.82422 18.109 9.11523 18.4 9.47422 18.4H14.5269C14.8858 18.4 15.1769 18.109 15.1769 17.75C15.1769 17.391 14.8858 17.1 14.5269 17.1H12.6496V15.8266C13.8845 15.6455 14.9541 14.9561 15.6392 13.9776L14.7089 13.0222ZM16.2454 12.7367C16.3716 12.3248 16.4395 11.8875 16.4395 11.4343V10.8027C16.4395 10.4437 16.1485 10.1527 15.7895 10.1527C15.4305 10.1527 15.1395 10.4437 15.1395 10.8027V11.4343C15.1395 11.4888 15.1381 11.5429 15.1354 11.5967L16.2454 12.7367ZM13.9598 10.3893V8.275C13.9598 7.15662 13.0531 6.25 11.9348 6.25C11.3766 6.25 10.8712 6.47581 10.5049 6.84107L13.9598 10.3893Z" fill="black"/>
<path d="M6.54655 5.53429C6.28935 5.78473 6.28386 6.19625 6.53429 6.45345L17.326 17.5368C17.5764 17.794 17.9879 17.7995 18.2451 17.549C18.5023 17.2986 18.5078 16.8871 18.2574 16.6299L7.46571 5.54655C7.21527 5.28935 6.80375 5.28386 6.54655 5.53429Z" fill="black"/>
</svg>
