<svg width="24" height="24" viewBox="0 0 24 24" fill="none" xmlns="http://www.w3.org/2000/svg">
<path d="M16.5714 1.5C19.8457 1.5 22.5 4.15431 22.5 7.42857V16.5714C22.5 19.8457 19.8457 22.5 16.5714 22.5H7.42857C4.15431 22.5 1.5 19.8457 1.5 16.5714V7.42857C1.5 4.15431 4.15431 1.5 7.42857 1.5H16.5714ZM7.42857 0C3.32588 0 0 3.32588 0 7.42857V16.5714C0 20.6741 3.32588 24 7.42857 24H16.5714C20.6741 24 24 20.6741 24 16.5714V7.42857C24 3.32588 20.6741 0 16.5714 0H7.42857Z" fill="black"/>
<path d="M9.91016 8.275V11.435C9.91016 12.5534 10.8168 13.46 11.9352 13.46C13.0535 13.46 13.9602 12.5534 13.9602 11.435V8.275C13.9602 7.15662 13.0535 6.25 11.9352 6.25C10.8168 6.25 9.91016 7.15662 9.91016 8.275Z" fill="black"/>
<path d="M8.21094 10.1527C8.56992 10.1527 8.86094 10.4437 8.86094 10.8027V11.4343C8.86094 13.1682 10.2665 14.5738 12.0004 14.5738C13.7343 14.5738 15.1399 13.1682 15.1399 11.4343V10.8027C15.1399 10.4437 15.4309 10.1527 15.7899 10.1527C16.1489 10.1527 16.4399 10.4437 16.4399 10.8027V11.4343C16.4399 13.8862 14.4523 15.8738 12.0004 15.8738C9.54856 15.8738 7.56094 13.8862 7.56094 11.4343V10.8027C7.56094 10.4437 7.85195 10.1527 8.21094 10.1527Z" fill="black"/>
<path d="M12 14.6283C11.641 14.6283 11.35 14.9193 11.35 15.2783V17.2554C11.35 17.6144 11.641 17.9054 12 17.9054C12.359 17.9054 12.65 17.6144 12.65 17.2554V15.2783C12.65 14.9193 12.359 14.6283 12 14.6283Z" fill="black"/>
<path d="M8.82461 17.75C8.82461 18.109 9.11562 18.4 9.47461 18.4H14.5272C14.8862 18.4 15.1772 18.109 15.1772 17.75C15.1772 17.391 14.8862 17.1 14.5272 17.1H9.47461C9.11562 17.1 8.82461 17.391 8.82461 17.75Z" fill="black"/>
</svg>
