<svg width="24" height="24" viewBox="0 0 24 24" fill="none" xmlns="http://www.w3.org/2000/svg">
<path d="M1.50002 16.5714V7.42857C1.50002 4.15431 4.15434 1.5 7.42859 1.5H16.5715C19.8457 1.5 22.5 4.15431 22.5 7.42857V16.5714C22.5 19.8457 19.8457 22.5 16.5715 22.5H7.42859C4.15434 22.5 1.50002 19.8457 1.50002 16.5714ZM7.42859 24H16.5715C20.6741 24 24 20.6741 24 16.5714V7.42857C24 3.32588 20.6741 0 16.5715 0L7.42859 0C3.32591 0 2.28882e-05 3.32588 2.28882e-05 7.42857V16.5714C2.28882e-05 20.6741 3.32591 24 7.42859 24ZM6.99993 11.15C6.53048 11.15 6.14993 11.5306 6.14993 12C6.14993 12.4695 6.53048 12.85 6.99993 12.85H16.9999C17.4694 12.85 17.8499 12.4695 17.8499 12C17.8499 11.5306 17.4694 11.15 16.9999 11.15H6.99993Z" fill="black"/>
</svg>
