<svg width="24" height="24" viewBox="0 0 24 24" fill="none" xmlns="http://www.w3.org/2000/svg">
<path d="M7.42857 22.5C4.15431 22.5 1.5 19.8457 1.5 16.5714V7.42857C1.5 4.15431 4.15431 1.5 7.42857 1.5H16.5714C19.8457 1.5 22.5 4.15431 22.5 7.42857V16.5714C22.5 19.8457 19.8457 22.5 16.5714 22.5H7.42857ZM16.5714 24C20.6741 24 24 20.6741 24 16.5714V7.42857C24 3.32588 20.6741 0 16.5714 0H7.42857C3.32588 0 0 3.32588 0 7.42857V16.5714C0 20.6741 3.32588 24 7.42857 24H16.5714Z" fill="black"/>
<path d="M8.94922 15.5V7C8.94922 6.72386 9.17308 6.5 9.44922 6.5H14.5492C14.8254 6.5 15.0492 6.72386 15.0492 7V15.5H8.94922ZM16.5492 17V7C16.5492 5.89543 15.6538 5 14.5492 5H9.44922C8.34465 5 7.44922 5.89543 7.44922 7V17C7.44922 18.1046 8.34465 19 9.44922 19H14.5492C15.6538 19 16.5492 18.1046 16.5492 17ZM11.0547 16.5094H12.9447C13.2761 16.5094 13.5447 16.778 13.5447 17.1094C13.5447 17.4407 13.2761 17.7094 12.9447 17.7094H11.0547C10.7233 17.7094 10.4547 17.4407 10.4547 17.1094C10.4547 16.778 10.7233 16.5094 11.0547 16.5094Z" fill="black"/>
</svg>
