<svg width="24" height="25" viewBox="0 0 24 25" fill="none" xmlns="http://www.w3.org/2000/svg">
<path d="M7.42857 1.89404H16.5714C19.8457 1.89404 22.5 4.54836 22.5 7.82261V16.9655C22.5 20.2397 19.8457 22.894 16.5714 22.894H7.42857C4.15431 22.894 1.5 20.2397 1.5 16.9655V7.82261C1.5 4.54836 4.15431 1.89404 7.42857 1.89404ZM0 7.82261V16.9655C0 21.0682 3.32588 24.394 7.42857 24.394H16.5714C20.6741 24.394 24 21.0682 24 16.9655V7.82261C24 3.71993 20.6741 0.394043 16.5714 0.394043H7.42857C3.32588 0.394043 0 3.71993 0 7.82261ZM11.1026 7.24855C11.2082 6.86244 10.9096 6.45308 10.5218 6.55245C10.4915 6.56022 10.4611 6.56824 10.4309 6.57651C9.13976 6.92905 8.02087 7.69916 7.23061 8.73349C6.45877 9.74371 6 11.0056 6 12.3761C6 14.0379 6.67352 15.5423 7.76246 16.6312C8.85141 17.7202 10.3558 18.3937 12.0175 18.3937C13.388 18.3937 14.6497 17.935 15.6598 17.1632C16.6941 16.373 17.4643 15.2541 17.8171 13.9629C17.8254 13.9327 17.8334 13.9024 17.8412 13.8721C17.9407 13.4843 17.5314 13.1854 17.1451 13.291C16.7311 13.4043 16.2969 13.4702 15.8469 13.4702C14.4873 13.4702 13.2564 12.9192 12.3654 12.0282C11.4745 11.1373 10.9234 9.90641 10.9234 8.54681C10.9234 8.09678 10.9894 7.66259 11.1026 7.24855Z" fill="black"/>
</svg>
