<svg width="24" height="24" viewBox="0 0 24 24" fill="none" xmlns="http://www.w3.org/2000/svg">
<path d="M7.42857 22.5C4.15431 22.5 1.5 19.8457 1.5 16.5714V7.42857C1.5 4.15431 4.15431 1.5 7.42857 1.5H16.5714C19.8457 1.5 22.5 4.15431 22.5 7.42857V16.5714C22.5 19.8457 19.8457 22.5 16.5714 22.5H7.42857ZM16.5714 24C20.6741 24 24 20.6741 24 16.5714V7.42857C24 3.32588 20.6741 0 16.5714 0H7.42857C3.32588 0 0 3.32588 0 7.42857V16.5714C0 20.6741 3.32588 24 7.42857 24H16.5714Z" fill="black"/>
<path d="M8.3216 7.576C8.08744 7.95067 8.20133 8.44423 8.576 8.6784L13.8906 12L8.576 15.3216C8.20133 15.5558 8.08744 16.0493 8.3216 16.424C8.55577 16.7987 9.04933 16.9126 9.424 16.6784L15.824 12.6784C16.0579 12.5322 16.2 12.2758 16.2 12C16.2 11.7242 16.0579 11.4678 15.824 11.3216L9.424 7.3216C9.04933 7.08743 8.55577 7.20133 8.3216 7.576Z" fill="black"/>
</svg>
