<svg width="24" height="24" viewBox="0 0 24 24" fill="none" xmlns="http://www.w3.org/2000/svg">
<path d="M7.42857 1.5C4.15431 1.5 1.5 4.15431 1.5 7.42857V16.5714C1.5 19.8457 4.15431 22.5 7.42857 22.5H16.5714C19.8457 22.5 22.5 19.8457 22.5 16.5714V7.42857C22.5 4.15431 19.8457 1.5 16.5714 1.5H7.42857ZM16.5714 0C20.6741 0 24 3.32588 24 7.42857V16.5714C24 20.6741 20.6741 24 16.5714 24H7.42857C3.32588 24 -1.90735e-06 20.6741 -1.90735e-06 16.5714V7.42857C-1.90735e-06 3.32588 3.32588 0 7.42857 0H16.5714Z" fill="black"/>
<path d="M8.30937 17C8.30937 16.5582 8.66755 16.2 9.10938 16.2H14.8237C15.2655 16.2 15.6237 16.5582 15.6237 17C15.6237 17.4418 15.2655 17.8 14.8237 17.8H9.10938C8.66755 17.8 8.30937 17.4418 8.30937 17Z" fill="black"/>
<path d="M8.43098 14.5671C8.19681 14.1924 8.31071 13.6988 8.68538 13.4647L13.3142 10.5716L8.68538 7.67861C8.31071 7.44444 8.19681 6.95088 8.43098 6.57621C8.66514 6.20154 9.1587 6.08764 9.53337 6.32181L15.2477 9.89324C15.4816 10.0394 15.6237 10.2958 15.6237 10.5716C15.6237 10.8475 15.4816 11.1038 15.2477 11.25L9.53337 14.8215C9.1587 15.0556 8.66514 14.9417 8.43098 14.5671Z" fill="black"/>
</svg>
