<svg width="24" height="24" viewBox="0 0 24 24" fill="none" xmlns="http://www.w3.org/2000/svg">
<path d="M7.42857 1.5H16.5714C19.8457 1.5 22.5 4.15431 22.5 7.42857V16.5714C22.5 19.8457 19.8457 22.5 16.5714 22.5H7.42857C4.15431 22.5 1.5 19.8457 1.5 16.5714V7.42857C1.5 4.15431 4.15431 1.5 7.42857 1.5ZM0 7.42857V16.5714C0 20.6741 3.32588 24 7.42857 24H16.5714C20.6741 24 24 20.6741 24 16.5714V7.42857C24 3.32588 20.6741 0 16.5714 0H7.42857C3.32588 0 0 3.32588 0 7.42857ZM8.35407 6.25878C7.74612 5.94223 7.04762 6.48685 7.20636 7.15363L9.15764 15.35C9.34615 16.1419 10.3513 16.3888 10.8852 15.7744L12.224 14.2339L14.8189 17.5768C15.1489 18.0018 15.7611 18.0786 16.1858 17.7482L16.3798 17.5978C16.8167 17.2593 16.8961 16.6306 16.5572 16.1941L13.9893 12.8868L15.8705 11.9712C16.6091 11.6117 16.6233 10.5644 15.8947 10.1851L8.35407 6.25878Z" fill="black"/>
</svg>
