<svg width="24" height="24" viewBox="0 0 24 24" fill="none" xmlns="http://www.w3.org/2000/svg">
<path d="M22.5 7.42857V16.5714C22.5 19.8457 19.8457 22.5 16.5714 22.5H7.42857C4.15431 22.5 1.5 19.8457 1.5 16.5714V7.42857C1.5 4.15431 4.15431 1.5 7.42857 1.5H16.5714C19.8457 1.5 22.5 4.15431 22.5 7.42857ZM16.5714 0H7.42857C3.32588 0 0 3.32588 0 7.42857V16.5714C0 20.6741 3.32588 24 7.42857 24H16.5714C20.6741 24 24 20.6741 24 16.5714V7.42857C24 3.32588 20.6741 0 16.5714 0ZM17.4358 8.04322V6.89338C17.4358 5.87556 16.4388 5.16424 15.4834 5.48128L12.2097 6.01503C12.1701 6.02149 12.1312 6.0319 12.0937 6.04613C11.5155 6.2652 11.135 6.81915 11.135 7.43576V14.1221C10.1011 13.4331 8.69157 13.5447 7.77942 14.4568C6.74012 15.4961 6.74012 17.1812 7.77942 18.2205C8.81872 19.2598 10.5038 19.2598 11.5431 18.2205C12.08 17.6835 12.3395 16.9743 12.3217 16.2707C12.3304 16.23 12.335 16.1877 12.335 16.1444V9.91417L17.0503 8.70606C17.272 8.61839 17.4099 8.41002 17.4186 8.18624C17.4299 8.1404 17.4358 8.09251 17.4358 8.04322Z" fill="black"/>
</svg>
