<svg width="24" height="24" viewBox="0 0 24 24" fill="none" xmlns="http://www.w3.org/2000/svg">
<path d="M22.5 7.42857V16.5714C22.5 19.8457 19.8457 22.5 16.5714 22.5H7.42857C4.15431 22.5 1.5 19.8457 1.5 16.5714V7.42857C1.5 4.15431 4.15431 1.5 7.42857 1.5H16.5714C19.8457 1.5 22.5 4.15431 22.5 7.42857ZM16.5714 0H7.42857C3.32588 0 0 3.32588 0 7.42857V16.5714C0 20.6741 3.32588 24 7.42857 24H16.5714C20.6741 24 24 20.6741 24 16.5714V7.42857C24 3.32588 20.6741 0 16.5714 0ZM10.1459 15.6224V11.7237L16.2376 9.28701V12.6361C15.4675 12.2804 14.525 12.4199 13.8902 13.0547C13.0766 13.8682 13.0766 15.1873 13.8902 16.0009C14.7038 16.8145 16.0229 16.8145 16.8365 16.0009C17.2931 15.5444 17.4934 14.9287 17.4376 14.3324V6.69858C17.4376 5.79283 16.5305 5.16584 15.6823 5.48928L9.78055 7.73751C9.27738 7.9284 8.9459 8.41074 8.9459 8.9472V14.0197C8.17801 13.6707 7.24179 13.812 6.6102 14.4436C5.7966 15.2572 5.7966 16.5763 6.6102 17.3899C7.42379 18.2034 8.74289 18.2034 9.55648 17.3899C10.0383 16.908 10.2348 16.2488 10.1459 15.6224Z" fill="black"/>
</svg>
