<svg width="24" height="24" viewBox="0 0 24 24" fill="none" xmlns="http://www.w3.org/2000/svg">
<path d="M7.42857 1.5H16.5714C19.8457 1.5 22.5 4.15431 22.5 7.42857V16.5714C22.5 19.8457 19.8457 22.5 16.5714 22.5H7.42857C4.15431 22.5 1.5 19.8457 1.5 16.5714V7.42857C1.5 4.15431 4.15431 1.5 7.42857 1.5ZM0 7.42857V16.5714C0 20.6741 3.32588 24 7.42857 24H16.5714C20.6741 24 24 20.6741 24 16.5714V7.42857C24 3.32588 20.6741 0 16.5714 0H7.42857C3.32588 0 0 3.32588 0 7.42857ZM6 6.25C5.58579 6.25 5.25 6.58579 5.25 7C5.25 7.41421 5.58579 7.75 6 7.75H18C18.4142 7.75 18.75 7.41421 18.75 7C18.75 6.58579 18.4142 6.25 18 6.25H6ZM10.584 10.5C10.584 10.9142 10.9198 11.25 11.334 11.25H18.0007C18.4149 11.25 18.7507 10.9142 18.7507 10.5C18.7507 10.0858 18.4149 9.75 18.0007 9.75H11.334C10.9198 9.75 10.584 10.0858 10.584 10.5ZM11.334 13.25C10.9198 13.25 10.584 13.5858 10.584 14C10.584 14.4142 10.9198 14.75 11.334 14.75H18.0007C18.4149 14.75 18.7507 14.4142 18.7507 14C18.7507 13.5858 18.4149 13.25 18.0007 13.25H11.334ZM5.25 17.5C5.25 17.9142 5.58579 18.25 6 18.25H18C18.4142 18.25 18.75 17.9142 18.75 17.5C18.75 17.0858 18.4142 16.75 18 16.75H6C5.58579 16.75 5.25 17.0858 5.25 17.5ZM8.5 10.3869C8.5 9.95971 7.99894 9.72926 7.6746 10.0073L5.4429 11.9202C5.21009 12.1197 5.21009 12.4799 5.4429 12.6794L7.6746 14.5923C7.99894 14.8703 8.5 14.6398 8.5 14.2127V10.3869Z" fill="black"/>
</svg>
