<svg width="24" height="24" viewBox="0 0 24 24" fill="none" xmlns="http://www.w3.org/2000/svg">
<path d="M16.5714 1.5C19.8457 1.5 22.5 4.15431 22.5 7.42857V16.5714C22.5 19.8457 19.8457 22.5 16.5714 22.5H7.42857C4.15431 22.5 1.5 19.8457 1.5 16.5714V7.42857C1.5 4.15431 4.15431 1.5 7.42857 1.5H16.5714ZM7.42857 0C3.32588 0 0 3.32588 0 7.42857V16.5714C0 20.6741 3.32588 24 7.42857 24H16.5714C20.6741 24 24 20.6741 24 16.5714V7.42857C24 3.32588 20.6741 0 16.5714 0H7.42857Z" fill="black"/>
<path d="M18.0456 6.72669C18.2242 6.24552 17.7554 5.77677 17.2743 5.95539L5.75061 10.2332C5.26572 10.4132 5.22056 11.0814 5.67681 11.325L9.67694 13.4609L13.5212 9.61659C13.7751 9.36275 14.1866 9.36275 14.4405 9.61659C14.6943 9.87043 14.6943 10.282 14.4405 10.5358L10.5791 14.3971L12.676 18.3241C12.9196 18.7804 13.5877 18.7352 13.7677 18.2503L18.0456 6.72669Z" fill="black"/>
</svg>
