<svg width="24" height="24" viewBox="0 0 24 24" fill="none" xmlns="http://www.w3.org/2000/svg">
<path d="M7.42857 1.5H16.5714C19.8457 1.5 22.5 4.15431 22.5 7.42857V16.5714C22.5 19.8457 19.8457 22.5 16.5714 22.5H7.42857C4.15431 22.5 1.5 19.8457 1.5 16.5714V7.42857C1.5 4.15431 4.15431 1.5 7.42857 1.5ZM0 7.42857V16.5714C0 20.6741 3.32588 24 7.42857 24H16.5714C20.6741 24 24 20.6741 24 16.5714V7.42857C24 3.32588 20.6741 0 16.5714 0H7.42857C3.32588 0 0 3.32588 0 7.42857ZM13.2889 7.24601C13.8784 6.65159 14.8313 6.65159 15.4208 7.24601C16.0139 7.84414 16.0139 8.81665 15.4208 9.41478L10.1089 14.7654C9.97069 14.9049 9.74932 14.9049 9.61107 14.7654C9.46913 14.6223 9.46913 14.3875 9.61107 14.2444L14.5126 9.30742C14.8239 8.99388 14.8221 8.48735 14.5086 8.17606C14.195 7.86476 13.6885 7.86659 13.3772 8.18013L8.47497 13.1177C7.7145 13.8846 7.7145 15.1252 8.47497 15.8921C9.23903 16.6625 10.4809 16.6623 11.245 15.8921L16.5569 10.5414C17.7686 9.31954 17.7686 7.34125 16.5569 6.11938C15.3415 4.8938 13.3682 4.8938 12.1528 6.11938L6.84678 11.47C5.18389 13.1469 5.18389 15.8629 6.84678 17.5398C8.51336 19.2203 11.2182 19.2203 12.8848 17.5398L18.1908 12.1891C18.502 11.8754 18.4998 11.3689 18.1861 11.0577C17.8724 10.7466 17.3659 10.7488 17.0548 11.0625L11.7487 16.4131C10.708 17.4626 9.02355 17.4626 7.98287 16.4131C6.93852 15.36 6.93852 13.6498 7.98287 12.5967L13.2889 7.24601Z" fill="black"/>
</svg>
