<svg width="24" height="24" viewBox="0 0 24 24" fill="none" xmlns="http://www.w3.org/2000/svg">
<path d="M16.5714 1.5C19.8457 1.5 22.5 4.15431 22.5 7.42857V16.5714C22.5 19.8457 19.8457 22.5 16.5714 22.5H7.42857C4.15431 22.5 1.5 19.8457 1.5 16.5714V7.42857C1.5 4.15431 4.15431 1.5 7.42857 1.5H16.5714ZM7.42857 0C3.32588 0 0 3.32588 0 7.42857V16.5714C0 20.6741 3.32588 24 7.42857 24H16.5714C20.6741 24 24 20.6741 24 16.5714V7.42857C24 3.32588 20.6741 0 16.5714 0H7.42857Z" fill="black"/>
<path d="M8.23047 6C7.1259 6 6.23047 6.89543 6.23047 8V14.3958C6.23047 15.5003 7.1259 16.3958 8.23047 16.3958H9.87695V11.0332C9.87695 9.8734 10.8172 8.9332 11.977 8.9332H15.4711V8C15.4711 6.89543 14.5757 6 13.4711 6H8.23047ZM12.3516 17.9996H16.2821C17.1105 17.9996 17.7821 17.3281 17.7821 16.4996V11.4141C17.7821 10.6671 17.2361 10.0477 16.5215 9.93306C16.4116 10.0559 16.2519 10.1332 16.0741 10.1332H11.977C11.4799 10.1332 11.077 10.5361 11.077 11.0332V16.9521C11.077 17.04 11.0581 17.1235 11.0241 17.1987C11.2754 17.675 11.7756 17.9996 12.3516 17.9996ZM9.20742 6.94687H12.4944C12.8258 6.94687 13.0944 7.2155 13.0944 7.54687C13.0944 7.87824 12.8258 8.14687 12.4944 8.14687H9.20742C8.87605 8.14687 8.60742 7.87824 8.60742 7.54687C8.60742 7.2155 8.87605 6.94687 9.20742 6.94687ZM13.3441 10.9H15.3441C15.6755 10.9 15.9441 11.1686 15.9441 11.5C15.9441 11.8314 15.6755 12.1 15.3441 12.1H13.3441C13.0128 12.1 12.7441 11.8314 12.7441 11.5C12.7441 11.1686 13.0128 10.9 13.3441 10.9Z" fill="black"/>
</svg>
