<svg width="24" height="24" viewBox="0 0 24 24" fill="none" xmlns="http://www.w3.org/2000/svg">
<path d="M16.5714 1.5C19.8457 1.5 22.5 4.15431 22.5 7.42857V16.5714C22.5 19.8457 19.8457 22.5 16.5714 22.5H7.42857C4.15431 22.5 1.5 19.8457 1.5 16.5714V7.42857C1.5 4.15431 4.15431 1.5 7.42857 1.5H16.5714ZM7.42857 0C3.32588 0 0 3.32588 0 7.42857V16.5714C0 20.6741 3.32588 24 7.42857 24H16.5714C20.6741 24 24 20.6741 24 16.5714V7.42857C24 3.32588 20.6741 0 16.5714 0H7.42857ZM8.39999 7.5V16.5C8.39999 16.7761 8.62385 17 8.89999 17H9.56666C9.8428 17 10.0667 16.7761 10.0667 16.5V7.5C10.0667 7.22386 9.8428 7 9.56666 7H8.89999C8.62385 7 8.39999 7.22386 8.39999 7.5ZM14.4 7C14.1239 7 13.9 7.22386 13.9 7.5V16.5C13.9 16.7761 14.1239 17 14.4 17H15.0667C15.3428 17 15.5667 16.7761 15.5667 16.5V7.5C15.5667 7.22386 15.3428 7 15.0667 7H14.4Z" fill="black"/>
</svg>
