<svg width="25" height="25" viewBox="0 0 25 25" fill="none" xmlns="http://www.w3.org/2000/svg">
<path d="M16.6034 1.53613C19.8777 1.53613 22.532 4.19045 22.532 7.4647V16.6076C22.532 19.8818 19.8777 22.5361 16.6034 22.5361H7.46055C4.18629 22.5361 1.53198 19.8818 1.53198 16.6076L1.53198 7.4647C1.53198 4.19044 4.1863 1.53613 7.46055 1.53613L16.6034 1.53613ZM7.46055 0.0361328C3.35787 0.0361328 0.0319824 3.36202 0.0319824 7.4647V16.6076C0.0319824 20.7103 3.35787 24.0361 7.46055 24.0361H16.6034C20.7061 24.0361 24.032 20.7103 24.032 16.6076V7.4647C24.032 3.36202 20.7061 0.0361328 16.6034 0.0361328H7.46055ZM16.7197 10.0489C16.7792 10.2113 16.7527 10.4 16.6338 10.5422L15.2025 12.2532C15.0253 12.465 15.0534 12.7804 15.2652 12.9575C15.477 13.1347 15.7923 13.1067 15.9695 12.8949L17.4008 11.1838C17.9324 10.5484 17.8482 9.6024 17.2128 9.07086L17.1833 9.04623C17.2794 8.39481 17.0446 7.71028 16.5026 7.25683C15.6731 6.56297 14.4382 6.67289 13.7444 7.50233L8.81944 13.3897C7.74913 14.6691 7.27623 16.3448 7.51973 17.995C9.18702 17.9432 10.7528 17.1818 11.8231 15.9024L16.7197 10.0489Z" fill="black"/>
</svg>
