<svg width="24" height="24" viewBox="0 0 24 24" fill="none" xmlns="http://www.w3.org/2000/svg">
<path d="M16.5714 1.5C19.8457 1.5 22.5 4.15431 22.5 7.42857L22.5 16.5714C22.5 19.8457 19.8457 22.5 16.5714 22.5L7.42857 22.5C4.15431 22.5 1.5 19.8457 1.5 16.5714L1.5 7.42857C1.5 4.15431 4.15431 1.5 7.42857 1.5L16.5714 1.5ZM7.42857 0C3.32588 0 0 3.32588 0 7.42857L0 16.5714C0 20.6741 3.32588 24 7.42857 24L16.5714 24C20.6741 24 24 20.6741 24 16.5714L24 7.42857C24 3.32588 20.6741 0 16.5714 0L7.42857 0ZM16.4085 10.8234L17.0779 10.1511C17.5838 9.64308 17.5829 8.82148 17.076 8.31457L15.6826 6.92123C15.1742 6.41278 14.3495 6.41366 13.8422 6.9232L13.1766 7.5916L16.4069 10.8219C16.4074 10.8224 16.4079 10.8229 16.4085 10.8234ZM15.5618 11.6737C15.5606 11.6726 15.5595 11.6715 15.5584 11.6704L12.3299 8.44195L6.89572 13.8995L6.16438 17.2475C6.08711 17.6012 6.39972 17.9172 6.75425 17.8438L9.81599 17.2098C10.0078 17.1701 10.1836 17.0749 10.3218 16.9362L15.5618 11.6737Z" fill="black"/>
</svg>
