<svg width="24" height="24" viewBox="0 0 24 24" fill="none" xmlns="http://www.w3.org/2000/svg">
<path d="M7.42857 1.5H16.5714C19.8457 1.5 22.5 4.15431 22.5 7.42857V16.5714C22.5 19.8457 19.8457 22.5 16.5714 22.5H7.42857C4.15431 22.5 1.5 19.8457 1.5 16.5714V7.42857C1.5 4.15431 4.15431 1.5 7.42857 1.5ZM0 7.42857V16.5714C0 20.6741 3.32588 24 7.42857 24H16.5714C20.6741 24 24 20.6741 24 16.5714V7.42857C24 3.32588 20.6741 0 16.5714 0H7.42857C3.32588 0 0 3.32588 0 7.42857ZM8.49515 11.2068C8.41314 11.0194 8.46114 10.8001 8.60582 10.6554L9.15184 10.1094C9.59919 9.66206 9.59919 9.02936 9.20851 8.63868L8.42648 7.85665C7.90579 7.33596 7.06175 7.33596 6.54107 7.85665L6.10638 8.29067C5.61236 8.78469 5.40635 9.49738 5.53969 10.2041C5.86904 11.9461 6.88108 13.8536 8.51381 15.4863C10.1465 17.119 12.054 18.1311 13.796 18.4604C14.5027 18.5938 15.2154 18.3877 15.7094 17.8937L16.1435 17.4597C16.6641 16.939 16.6641 16.095 16.1435 15.5743L15.3614 14.7923C14.9707 14.4016 14.3374 14.4016 13.9474 14.7923L13.3453 15.395C13.2007 15.5396 12.9813 15.5883 12.794 15.5056C11.908 15.1143 11.0339 14.5256 10.2539 13.7462C9.47385 12.9662 8.88583 12.0928 8.49515 11.2068ZM13.5 5.75C13.0857 5.75 12.75 6.08579 12.75 6.5V10.5002C12.75 10.6019 12.7702 10.6988 12.8069 10.7872C12.8426 10.8737 12.8953 10.9548 12.9648 11.0256C12.968 11.0289 12.9712 11.0321 12.9745 11.0354C13.1099 11.1682 13.2953 11.2502 13.5 11.2502H17.5001C17.9143 11.2502 18.2501 10.9144 18.2501 10.5002C18.2501 10.0859 17.9143 9.75016 17.5001 9.75016H15.3106L18.0304 7.03033C18.3233 6.73744 18.3233 6.26256 18.0304 5.96967C17.7376 5.67678 17.2627 5.67678 16.9698 5.96967L14.25 8.6895V6.5C14.25 6.08579 13.9142 5.75 13.5 5.75Z" fill="black"/>
</svg>
