<svg width="24" height="24" viewBox="0 0 24 24" fill="none" xmlns="http://www.w3.org/2000/svg">
<path d="M7.42857 1.5H16.5714C19.8457 1.5 22.5 4.15431 22.5 7.42857V16.5714C22.5 19.8457 19.8457 22.5 16.5714 22.5H7.42857C4.15431 22.5 1.5 19.8457 1.5 16.5714V7.42857C1.5 4.15431 4.15431 1.5 7.42857 1.5ZM0 7.42857V16.5714C0 20.6741 3.32588 24 7.42857 24H16.5714C20.6741 24 24 20.6741 24 16.5714V7.42857C24 3.32588 20.6741 0 16.5714 0H7.42857C3.32588 0 0 3.32588 0 7.42857ZM8.99515 10.7065C8.91314 10.5191 8.96114 10.2998 9.10582 10.1551L9.65184 9.60909C10.0992 9.16174 10.0992 8.52905 9.70851 8.13837L8.92648 7.35634C8.40579 6.83565 7.56175 6.83565 7.04107 7.35634L6.60638 7.79035C6.11236 8.28437 5.90635 8.99707 6.03969 9.70376C6.36904 11.4458 7.38108 13.3532 9.01381 14.986C10.6465 16.6187 12.554 17.6308 14.296 17.9601C15.0027 18.0934 15.7154 17.8874 16.2094 17.3934L16.6435 16.9594C17.1641 16.4387 17.1641 15.5947 16.6435 15.074L15.8614 14.292C15.4707 13.9013 14.8374 13.9013 14.4474 14.292L13.8453 14.8946C13.7007 15.0393 13.4813 15.088 13.294 15.0053C12.408 14.614 11.5339 14.0253 10.7539 13.2459C9.97385 12.4659 9.38583 11.5925 8.99515 10.7065ZM13.9999 6.75H16.1894L13.4696 9.46983C13.1767 9.76272 13.1767 10.2376 13.4696 10.5305C13.7625 10.8234 14.2374 10.8234 14.5303 10.5305L17.2501 7.81066V10.0002C17.2501 10.4144 17.5859 10.7502 18.0001 10.7502C18.4143 10.7502 18.7501 10.4144 18.7501 10.0002V6C18.7501 5.98706 18.7498 5.97419 18.7491 5.96141C18.7446 5.87296 18.7248 5.78856 18.6923 5.7108C18.6568 5.62579 18.605 5.54598 18.5369 5.47617C18.5326 5.47176 18.5282 5.46741 18.5238 5.4631C18.3886 5.33124 18.2038 5.25 18.0001 5.25H13.9999C13.5857 5.25 13.2499 5.58579 13.2499 6C13.2499 6.41421 13.5857 6.75 13.9999 6.75Z" fill="black"/>
</svg>
