<svg width="24" height="24" viewBox="0 0 24 24" fill="none" xmlns="http://www.w3.org/2000/svg">
<path d="M16.5714 1.5C19.8457 1.5 22.5 4.15431 22.5 7.42857V16.5714C22.5 19.8457 19.8457 22.5 16.5714 22.5H7.42857C4.15431 22.5 1.5 19.8457 1.5 16.5714V7.42857C1.5 4.15431 4.15431 1.5 7.42857 1.5H16.5714ZM7.42857 0C3.32588 0 0 3.32588 0 7.42857V16.5714C0 20.6741 3.32588 24 7.42857 24H16.5714C20.6741 24 24 20.6741 24 16.5714V7.42857C24 3.32588 20.6741 0 16.5714 0H7.42857Z" fill="black"/>
<path d="M11.1701 12.8299C10.3218 11.9816 9.68226 11.0318 9.25737 10.0681C9.16819 9.8644 9.22039 9.62586 9.37773 9.46852L9.97156 8.87469C10.4581 8.38818 10.4581 7.70009 10.0332 7.2752L9.18269 6.42471C8.61642 5.85843 7.69849 5.85843 7.13221 6.42471L6.65947 6.89672C6.1222 7.43399 5.89816 8.20909 6.04317 8.97765C6.40135 10.8722 7.502 12.9466 9.27767 14.7223C11.0534 16.498 13.1278 17.5987 15.0223 17.9568C15.7909 18.1018 16.566 17.8778 17.1033 17.3405L17.5753 16.8685C18.1416 16.3022 18.1416 15.3843 17.5753 14.818L16.7248 13.9675C16.2999 13.5426 15.6111 13.5426 15.1869 13.9675L14.5322 14.623C14.3749 14.7803 14.1363 14.8333 13.9326 14.7434C12.969 14.3177 12.0184 13.6775 11.1701 12.8299Z" fill="black"/>
</svg>
