<svg width="24" height="24" viewBox="0 0 24 24" fill="none" xmlns="http://www.w3.org/2000/svg">
<path d="M7.42857 1.5H16.5714C19.8457 1.5 22.5 4.15431 22.5 7.42857V16.5714C22.5 19.8457 19.8457 22.5 16.5714 22.5H7.42857C4.15431 22.5 1.5 19.8457 1.5 16.5714V7.42857C1.5 4.15431 4.15431 1.5 7.42857 1.5ZM0 7.42857V16.5714C0 20.6741 3.32588 24 7.42857 24H16.5714C20.6741 24 24 20.6741 24 16.5714V7.42857C24 3.32588 20.6741 0 16.5714 0H7.42857C3.32588 0 0 3.32588 0 7.42857ZM15.8415 14.2989C15.4516 13.909 14.8195 13.909 14.4303 14.2989L13.8168 14.9124C13.6798 15.0494 13.4722 15.0953 13.2952 15.0175C12.4063 14.6283 11.528 14.0381 10.7449 13.255C9.96514 12.4752 9.37698 11.6009 8.98709 10.7154C8.90591 10.5324 8.95315 10.3175 9.09487 10.1758L9.64445 9.6262C10.0909 9.17976 10.0909 8.54835 9.701 8.15846L8.92055 7.37801C8.40092 6.85837 7.55859 6.85837 7.03896 7.37801L6.60515 7.81115C6.11213 8.30417 5.90654 9.01542 6.03961 9.72068C6.36829 11.4592 7.37828 13.3628 9.00771 14.9922C10.6371 16.6216 12.5407 17.6316 14.2792 17.9603C14.9845 18.0934 15.6958 17.8878 16.1888 17.3948L16.6219 16.9616C17.1415 16.442 17.1415 15.5997 16.6219 15.0794L15.8415 14.2989ZM12.6633 9.42986C13.1574 9.42315 13.6485 9.60556 14.0217 9.97874C14.0286 9.98562 14.0355 9.99234 14.0426 9.99889C14.4016 10.3693 14.5771 10.8512 14.5705 11.336C14.5649 11.7501 14.8961 12.0905 15.3103 12.0961C15.7244 12.1017 16.0648 11.7705 16.0704 11.3563C16.0823 10.4785 15.7564 9.59101 15.0823 8.91694C15.0729 8.90756 15.0634 8.89849 15.0536 8.88972C14.3832 8.23486 13.5084 7.91825 12.6429 7.93C12.2287 7.93563 11.8976 8.27594 11.9032 8.69012C11.9088 9.10429 12.2491 9.43549 12.6633 9.42986ZM12.6531 5.25C12.2389 5.25 11.9031 5.58579 11.9031 6C11.9031 6.41421 12.2389 6.75 12.6531 6.75C13.8286 6.75 15.0025 7.19768 15.8997 8.09298C15.9009 8.09423 15.9022 8.09549 15.9034 8.09674C16.8011 8.99442 17.25 10.1698 17.25 11.3469C17.25 11.7611 17.5858 12.0969 18 12.0969C18.4142 12.0969 18.75 11.7611 18.75 11.3469C18.75 9.78992 18.1556 8.22993 16.9683 7.04029C16.9668 7.03882 16.9654 7.03735 16.9639 7.03589C15.7738 5.84572 14.2119 5.25 12.6531 5.25Z" fill="black"/>
</svg>
