<svg width="24" height="24" viewBox="0 0 24 24" fill="none" xmlns="http://www.w3.org/2000/svg">
<path d="M16.5714 1.5C19.8457 1.5 22.5 4.15431 22.5 7.42857V16.5714C22.5 19.8457 19.8457 22.5 16.5714 22.5H7.42857C4.15431 22.5 1.5 19.8457 1.5 16.5714V7.42857C1.5 4.15431 4.15431 1.5 7.42857 1.5H16.5714ZM7.42857 0C3.32588 0 0 3.32588 0 7.42857V16.5714C0 20.6741 3.32588 24 7.42857 24H16.5714C20.6741 24 24 20.6741 24 16.5714V7.42857C24 3.32588 20.6741 0 16.5714 0H7.42857ZM11.1701 13.8299C10.3218 12.9816 9.68226 12.0318 9.25737 11.0681C9.16819 10.8644 9.22039 10.6259 9.37773 10.4685L9.97156 9.87469C10.4581 9.38818 10.4581 8.70009 10.0332 8.2752L9.18269 7.42471C8.61642 6.85843 7.69849 6.85843 7.13221 7.42471L6.65947 7.89672C6.1222 8.43399 5.89816 9.20909 6.04317 9.97765C6.40135 11.8722 7.50199 13.9466 9.27767 15.7223C11.0534 17.498 13.1278 18.5987 15.0223 18.9568C15.7909 19.1018 16.566 18.8778 17.1033 18.3405L17.5753 17.8685C18.1416 17.3022 18.1416 16.3843 17.5753 15.818L16.7248 14.9675C16.2999 14.5426 15.6111 14.5426 15.1869 14.9675L14.5322 15.623C14.3749 15.7803 14.1363 15.8333 13.9326 15.7434C12.969 15.3177 12.0184 14.6775 11.1701 13.8299ZM14.418 7.50583C14.1642 7.25198 13.7526 7.25198 13.4988 7.50583C13.2449 7.75967 13.2449 8.17122 13.4988 8.42506L14.5772 9.50354L13.4988 10.582C13.2449 10.8358 13.2449 11.2474 13.4988 11.5012C13.7526 11.7551 14.1642 11.7551 14.418 11.5012L15.4965 10.4228L16.5749 11.5012C16.8288 11.7551 17.2403 11.7551 17.4942 11.5012C17.748 11.2474 17.748 10.8358 17.4942 10.582L16.4157 9.50354L17.4942 8.42506C17.748 8.17122 17.748 7.75967 17.4942 7.50583C17.2403 7.25198 16.8288 7.25198 16.5749 7.50583L15.4965 8.5843L14.418 7.50583Z" fill="black"/>
</svg>
