<svg width="24" height="24" viewBox="0 0 24 24" fill="none" xmlns="http://www.w3.org/2000/svg">
<path d="M16.5714 1.5C19.8457 1.5 22.5 4.15431 22.5 7.42857V16.5714C22.5 19.8457 19.8457 22.5 16.5714 22.5H7.42857C4.15431 22.5 1.5 19.8457 1.5 16.5714V7.42857C1.5 4.15431 4.15431 1.5 7.42857 1.5H16.5714ZM7.42857 0C3.32588 0 0 3.32588 0 7.42857V16.5714C0 20.6741 3.32588 24 7.42857 24H16.5714C20.6741 24 24 20.6741 24 16.5714V7.42857C24 3.32588 20.6741 0 16.5714 0H7.42857Z" fill="black"/>
<path d="M16.8919 9.94596C16.8919 7.21438 14.6775 5 11.946 5C9.21438 5 7 7.21438 7 9.94596C7 12.6775 9.21438 14.8919 11.946 14.8919C14.6775 14.8919 16.8919 12.6775 16.8919 9.94596ZM11.3522 17.7027L12.0008 19L12.6495 17.7027V15.5514C12.6495 15.5514 12.3252 15.6379 12.0008 15.6379C11.6765 15.6379 11.3522 15.5514 11.3522 15.5514V17.7027ZM12.6139 9.06067C12.6422 9.12099 12.6987 9.16324 12.7645 9.17336L13.8696 9.34321C14.0305 9.36793 14.096 9.56417 13.9823 9.68061L13.1706 10.512C13.1262 10.5574 13.106 10.6213 13.1163 10.6839L13.3061 11.8475C13.3329 12.0123 13.158 12.1355 13.0119 12.0547L12.0427 11.5188C11.9825 11.4855 11.9094 11.4855 11.8492 11.5188L10.88 12.0547C10.7339 12.1355 10.559 12.0123 10.5859 11.8475L10.7756 10.6839C10.7859 10.6213 10.7657 10.5574 10.7214 10.512L9.90958 9.68061C9.79589 9.56417 9.86145 9.36793 10.0223 9.34321L11.1274 9.17336C11.1932 9.16324 11.2497 9.12099 11.278 9.06067L11.7649 8.02352C11.8369 7.87017 12.055 7.87017 12.127 8.02352L12.6139 9.06067Z" fill="black"/>
</svg>
