<svg width="24" height="24" viewBox="0 0 24 24" fill="none" xmlns="http://www.w3.org/2000/svg">
<path d="M7.42857 1.5H16.5714C19.8457 1.5 22.5 4.15431 22.5 7.42857V16.5714C22.5 19.8457 19.8457 22.5 16.5714 22.5H7.42857C4.15431 22.5 1.5 19.8457 1.5 16.5714V7.42857C1.5 4.15431 4.15431 1.5 7.42857 1.5ZM0 7.42857V16.5714C0 20.6741 3.32588 24 7.42857 24H16.5714C20.6741 24 24 20.6741 24 16.5714V7.42857C24 3.32588 20.6741 0 16.5714 0H7.42857C3.32588 0 0 3.32588 0 7.42857ZM6.07241 8.32796L6.55736 9.2806C6.58066 9.26713 6.60506 9.25496 6.63049 9.24422C8.2986 8.53981 10.131 8.15002 12.0536 8.15002C13.6841 8.15002 15.2504 8.43037 16.7064 8.94541C16.967 9.0376 17.2241 9.13729 17.4773 9.24422L17.4872 9.2485L17.9558 8.32796C18.2136 7.82165 17.9991 7.19944 17.468 6.9978C15.7727 6.35423 13.935 6 12.0141 6C10.0932 6 8.25556 6.35423 6.56027 6.9978C6.02911 7.19944 5.81467 7.82165 6.07241 8.32796ZM16.2729 10.171C14.954 9.70445 13.5341 9.45002 12.0536 9.45002C10.312 9.45002 8.6549 9.80205 7.14631 10.4376L11.123 18.2494C11.4938 18.9778 12.5345 18.9778 12.9053 18.2494L16.8959 10.4101C16.6909 10.3251 16.4832 10.2454 16.2729 10.171ZM12.4738 14.8598C12.22 15.1136 11.8084 15.1136 11.5546 14.8598C11.3008 14.6059 11.3008 14.1944 11.5546 13.9405L12.2546 13.2405C12.5084 12.9867 12.92 12.9867 13.1738 13.2405C13.4277 13.4944 13.4277 13.9059 13.1738 14.1598L12.4738 14.8598ZM11.7738 12.0595C11.52 12.3133 11.1084 12.3133 10.8546 12.0595L10.1546 11.3595C9.90073 11.1056 9.90073 10.6941 10.1546 10.4402C10.4084 10.1864 10.82 10.1864 11.0738 10.4402L11.7738 11.1402C12.0276 11.3941 12.0276 11.8056 11.7738 12.0595Z" fill="black"/>
</svg>
