<svg width="24" height="24" viewBox="0 0 24 24" fill="none" xmlns="http://www.w3.org/2000/svg">
<path d="M1.5 7.42857C1.5 4.15431 4.15431 1.5 7.42857 1.5H16.5714C19.8457 1.5 22.5 4.15431 22.5 7.42857V16.5714C22.5 19.8457 19.8457 22.5 16.5714 22.5H7.42857C4.15431 22.5 1.5 19.8457 1.5 16.5714L1.5 7.42857ZM0 16.5714C0 20.6741 3.32588 24 7.42857 24H16.5714C20.6741 24 24 20.6741 24 16.5714V7.42857C24 3.32588 20.6741 -1.90735e-06 16.5714 -1.90735e-06H7.42857C3.32588 -1.90735e-06 0 3.32588 0 7.42857L0 16.5714ZM11.9999 6.15002C11.5305 6.15002 11.1499 6.53058 11.1499 7.00002L11.1499 11.15H6.9999C6.53046 11.15 6.1499 11.5306 6.1499 12C6.1499 12.4695 6.53046 12.85 6.9999 12.85H11.1499V17C11.1499 17.4695 11.5305 17.85 11.9999 17.85C12.4693 17.85 12.8499 17.4695 12.8499 17V12.85H16.9999C17.4693 12.85 17.8499 12.4695 17.8499 12C17.8499 11.5306 17.4693 11.15 16.9999 11.15H12.8499L12.8499 7.00002C12.8499 6.53058 12.4693 6.15002 11.9999 6.15002Z" fill="black"/>
</svg>
