<svg width="24" height="24" viewBox="0 0 24 24" fill="none" xmlns="http://www.w3.org/2000/svg">
<path d="M7.42857 1.5H16.5714C19.8457 1.5 22.5 4.15431 22.5 7.42857V16.5714C22.5 19.8457 19.8457 22.5 16.5714 22.5H7.42857C4.15431 22.5 1.5 19.8457 1.5 16.5714V7.42857C1.5 4.15431 4.15431 1.5 7.42857 1.5ZM0 7.42857V16.5714C0 20.6741 3.32588 24 7.42857 24H16.5714C20.6741 24 24 20.6741 24 16.5714V7.42857C24 3.32588 20.6741 0 16.5714 0H7.42857C3.32588 0 0 3.32588 0 7.42857ZM12 19C15.8663 19 19 15.8663 19 12V8C19 6.34315 17.6569 5 16 5H8C6.34315 5 5 6.34315 5 8V12C5 15.8663 8.13367 19 12 19ZM7.58063 9.13666C7.87353 8.84377 8.3484 8.84377 8.64129 9.13666L11.9999 12.4952L15.3584 9.13666C15.6513 8.84377 16.1262 8.84377 16.4191 9.13666C16.712 9.42956 16.712 9.90443 16.4191 10.1973L12.5302 14.0862C12.2373 14.3791 11.7624 14.3791 11.4695 14.0862L7.58063 10.1973C7.28774 9.90443 7.28774 9.42956 7.58063 9.13666Z" fill="black"/>
</svg>
