<svg width="24" height="24" viewBox="0 0 24 24" fill="none" xmlns="http://www.w3.org/2000/svg">
<path d="M22.5 16.5714C22.5 19.8457 19.8457 22.5 16.5714 22.5H7.42857C4.15431 22.5 1.5 19.8457 1.5 16.5714V7.42857C1.5 4.15431 4.15431 1.5 7.42857 1.5H16.5714C19.8457 1.5 22.5 4.15431 22.5 7.42857V16.5714ZM24 7.42857C24 3.32588 20.6741 0 16.5714 0H7.42857C3.32588 0 0 3.32588 0 7.42857V16.5714C0 20.6741 3.32588 24 7.42857 24H16.5714C20.6741 24 24 20.6741 24 16.5714V7.42857Z" fill="black"/>
<path d="M19 8C19 6.34315 17.6569 5 16 5H8C6.34315 5 5 6.34315 5 8V16C5 17.6569 6.34315 19 8 19H16C17.6569 19 19 17.6569 19 16V8ZM16.0008 12.8H8.00078C7.55896 12.8 7.20078 12.4418 7.20078 12C7.20078 11.5581 7.55896 11.2 8.00078 11.2H16.0008C16.4426 11.2 16.8008 11.5581 16.8008 12C16.8008 12.4418 16.4426 12.8 16.0008 12.8ZM13.2012 8.49995C13.2012 8.94178 12.843 9.29995 12.4012 9.29995H8.01207C7.57024 9.29995 7.21207 8.94178 7.21207 8.49995C7.21207 8.05812 7.57024 7.69995 8.01207 7.69995H12.4012C12.843 7.69995 13.2012 8.05812 13.2012 8.49995ZM10.4012 16.3H8.01207C7.57024 16.3 7.21207 15.9418 7.21207 15.5C7.21207 15.0581 7.57024 14.7 8.01207 14.7H10.4012C10.843 14.7 11.2012 15.0581 11.2012 15.5C11.2012 15.9418 10.843 16.3 10.4012 16.3Z" fill="black"/>
</svg>
