<svg width="24" height="25" viewBox="0 0 24 25" fill="none" xmlns="http://www.w3.org/2000/svg">
<path d="M8 5.66016C6.34315 5.66016 5 7.0033 5 8.66016V16.6602C5 18.317 6.34315 19.6602 8 19.6602H16C17.6569 19.6602 19 18.317 19 16.6602V8.66016C19 7.0033 17.6569 5.66016 16 5.66016H8ZM12 7.86016C12.4418 7.86016 12.8 8.21833 12.8 8.66016V16.6602C12.8 17.102 12.4418 17.4602 12 17.4602C11.5582 17.4602 11.2 17.102 11.2 16.6602V8.66016C11.2 8.21833 11.5582 7.86016 12 7.86016ZM8.5 11.4598C8.94183 11.4598 9.3 11.8179 9.3 12.2598V16.6489C9.3 17.0907 8.94183 17.4489 8.5 17.4489C8.05817 17.4489 7.7 17.0907 7.7 16.6489V12.2598C7.7 11.8179 8.05817 11.4598 8.5 11.4598ZM15.5 13.4598C15.9418 13.4598 16.3 13.8179 16.3 14.2598V16.6489C16.3 17.0907 15.9418 17.4489 15.5 17.4489C15.0582 17.4489 14.7 17.0907 14.7 16.6489V14.2598C14.7 13.8179 15.0582 13.4598 15.5 13.4598Z" fill="black"/>
<path d="M7.42857 0.660156C3.32588 0.660156 0 3.98604 0 8.08873V17.2316C0 21.3343 3.32588 24.6602 7.42857 24.6602H16.5714C20.6741 24.6602 24 21.3343 24 17.2316V8.08873C24 3.98604 20.6741 0.660156 16.5714 0.660156H7.42857ZM16.5714 2.16016C19.8457 2.16016 22.5 4.81447 22.5 8.08873V17.2316C22.5 20.5058 19.8457 23.1602 16.5714 23.1602H7.42857C4.15431 23.1602 1.5 20.5058 1.5 17.2316V8.08873C1.5 4.81447 4.15431 2.16016 7.42857 2.16016H16.5714Z" fill="black"/>
</svg>
