<svg width="24" height="24" viewBox="0 0 24 24" fill="none" xmlns="http://www.w3.org/2000/svg">
<path d="M6.4 16.2H7.7997V17.4444C7.7997 18.3035 8.49615 19 9.35526 19H14.6441C15.5033 19 16.1997 18.3035 16.1997 17.4444V16.2H17.6C17.6525 16.2 17.7043 16.1971 17.7553 16.1915C17.7982 16.1867 17.8405 16.18 17.8822 16.1715C18.5201 16.041 19 15.4765 19 14.8V11.2999C19 10.5267 18.3732 9.8999 17.6 9.8999H6.4C5.6268 9.8999 5 10.5267 5 11.2999V14.8C5 15.5205 5.5443 16.1139 6.24414 16.1914L6.25686 16.1927C6.30392 16.1975 6.35168 16.2 6.4 16.2ZM9.35525 14.9555H14.6441V17.4444H9.35525V14.9555Z" fill="black"/>
<path d="M14.6441 6.55557V8.77196H16.1997V6.55557C16.1997 5.69645 15.5033 5 14.6441 5H9.35525C8.49614 5 7.7997 5.69645 7.7997 6.55557V8.77196H9.35525V6.55557L14.6441 6.55557Z" fill="black"/>
<path d="M24 7.42857C24 3.32588 20.6741 0 16.5714 0H7.42857C3.32588 0 0 3.32588 0 7.42857V16.5714C0 20.6741 3.32588 24 7.42857 24H16.5714C20.6741 24 24 20.6741 24 16.5714V7.42857ZM22.5 16.5714C22.5 19.8457 19.8457 22.5 16.5714 22.5H7.42857C4.15431 22.5 1.5 19.8457 1.5 16.5714V7.42857C1.5 4.15431 4.15431 1.5 7.42857 1.5H16.5714C19.8457 1.5 22.5 4.15431 22.5 7.42857V16.5714Z" fill="black"/>
</svg>
