<svg width="24" height="24" viewBox="0 0 24 24" fill="none" xmlns="http://www.w3.org/2000/svg">
<path d="M7.42857 1.5H16.5714C19.8457 1.5 22.5 4.15431 22.5 7.42857V16.5714C22.5 19.8457 19.8457 22.5 16.5714 22.5H7.42857C4.15431 22.5 1.5 19.8457 1.5 16.5714V7.42857C1.5 4.15431 4.15431 1.5 7.42857 1.5ZM0 7.42857V16.5714C0 20.6741 3.32588 24 7.42857 24H16.5714C20.6741 24 24 20.6741 24 16.5714V7.42857C24 3.32588 20.6741 0 16.5714 0H7.42857C3.32588 0 0 3.32588 0 7.42857ZM10.3867 5.93583C10.8748 5.0648 11.9876 4.74621 12.8763 5.21802C13.1867 5.38283 13.4426 5.63187 13.6129 5.93583L18.7721 15.1424C19.2645 16.0211 18.9318 17.1224 18.0355 17.5982C17.7663 17.7412 17.465 17.816 17.159 17.816H6.84056C5.82695 17.816 5 17.011 5 16.0114C5 15.7075 5.0783 15.4086 5.22744 15.1424L10.3867 5.93583ZM12.4933 14.9175C12.4933 14.5958 12.2325 14.335 11.9107 14.335C11.589 14.335 11.3281 14.5958 11.3281 14.9175C11.3281 15.2393 11.589 15.5001 11.9107 15.5001C12.2325 15.5001 12.4933 15.2393 12.4933 14.9175ZM12.0014 10.5004C12.0803 10.5004 12.1436 10.5124 12.1959 10.531C12.2501 10.5502 12.2901 10.5749 12.3221 10.6031C12.3471 10.6251 12.3714 10.6555 12.3931 10.7033C12.4018 10.7224 12.4171 10.7709 12.4213 10.8851C12.4254 10.9954 12.3833 11.1683 12.1713 11.4157C12.1166 11.4687 12.046 11.5426 11.9891 11.6023L11.9392 11.6547L11.9391 11.6548C11.8861 11.7105 11.8437 11.7551 11.8185 11.7803C11.7077 11.8911 11.61 12.0136 11.5251 12.1466C11.4287 12.2974 11.3573 12.461 11.3075 12.6334C11.2538 12.8192 11.2309 13.0139 11.2309 13.2118V13.3342C11.2309 13.6655 11.4995 13.9342 11.8309 13.9342C12.1622 13.9342 12.4309 13.6655 12.4309 13.3342V13.2118C12.4309 13.1053 12.4433 13.0253 12.4603 12.9664C12.4812 12.8941 12.5076 12.8376 12.5363 12.7926C12.5764 12.7298 12.6201 12.6757 12.667 12.6288C12.7039 12.5919 12.762 12.5309 12.8171 12.4729L12.8577 12.4302C12.9331 12.3511 12.9904 12.292 13.0155 12.2686L13.0373 12.2483L13.0569 12.2259C13.4076 11.8267 13.6398 11.3605 13.6205 10.8406C13.6134 10.651 13.5856 10.4268 13.4856 10.2067C13.3985 10.0153 13.276 9.84447 13.1161 9.70333C12.9633 9.56849 12.7885 9.46806 12.598 9.40031C12.4056 9.33191 12.2052 9.30039 12.0014 9.30039C11.5755 9.30039 11.1779 9.43552 10.8666 9.7421C10.5839 10.0206 10.4178 10.3705 10.3565 10.7617C10.3051 11.0891 10.5289 11.3961 10.8562 11.4474C11.1836 11.4988 11.4906 11.275 11.542 10.9476C11.5676 10.7842 11.6272 10.6773 11.7088 10.597C11.7618 10.5447 11.84 10.5004 12.0014 10.5004Z" fill="black"/>
</svg>
