<svg width="24" height="24" viewBox="0 0 24 24" fill="none" xmlns="http://www.w3.org/2000/svg">
<path d="M16.5714 1.5C19.8457 1.5 22.5 4.15431 22.5 7.42857V16.5714C22.5 19.8457 19.8457 22.5 16.5714 22.5H7.42857C4.15431 22.5 1.5 19.8457 1.5 16.5714V7.42857C1.5 4.15431 4.15431 1.5 7.42857 1.5H16.5714ZM7.42857 0C3.32588 0 0 3.32588 0 7.42857V16.5714C0 20.6741 3.32588 24 7.42857 24H16.5714C20.6741 24 24 20.6741 24 16.5714V7.42857C24 3.32588 20.6741 0 16.5714 0H7.42857Z" fill="black"/>
<path d="M9.5347 7.53854C9.92059 7.28128 10.0249 6.75991 9.76761 6.37403C9.51035 5.98814 8.98898 5.88387 8.6031 6.14112C7.58549 6.81952 6.72245 7.43756 6.18566 8.51116C5.66425 9.55398 5.5 10.9226 5.5 12.9804V16.3919C5.5 17.2323 6.18163 17.9139 7.02203 17.9139H9.75119C10.5916 17.9139 11.2732 17.2323 11.2732 16.3919V13.6627C11.2732 12.8223 10.5916 12.1407 9.75119 12.1407H7.19105C7.23526 10.6504 7.40546 9.82698 7.68783 9.26224C8.0039 8.63011 8.50544 8.22472 9.5347 7.53854Z" fill="black"/>
<path d="M16.7613 7.53854C17.1472 7.28128 17.2514 6.75991 16.9942 6.37403C16.7369 5.98814 16.2155 5.88387 15.8297 6.14112C14.8121 6.81952 13.949 7.43756 13.4122 8.51116C12.8908 9.55398 12.7266 10.9226 12.7266 12.9804V16.3919C12.7266 17.2323 13.4082 17.9139 14.2486 17.9139H16.9778C17.8182 17.9139 18.4998 17.2323 18.4998 16.3919V13.6627C18.4998 12.8223 17.8182 12.1407 16.9778 12.1407H14.4176C14.4618 10.6504 14.632 9.82698 14.9144 9.26224C15.2305 8.63011 15.732 8.22472 16.7613 7.53854Z" fill="black"/>
</svg>
