<svg width="24" height="24" viewBox="0 0 24 24" fill="none" xmlns="http://www.w3.org/2000/svg">
<path d="M7.42857 1.5H16.5714C19.8457 1.5 22.5 4.15431 22.5 7.42857V16.5714C22.5 19.8457 19.8457 22.5 16.5714 22.5H7.42857C4.15431 22.5 1.5 19.8457 1.5 16.5714V7.42857C1.5 4.15431 4.15431 1.5 7.42857 1.5ZM0 7.42857V16.5714C0 20.6741 3.32588 24 7.42857 24H16.5714C20.6741 24 24 20.6741 24 16.5714V7.42857C24 3.32588 20.6741 0 16.5714 0H7.42857C3.32588 0 0 3.32588 0 7.42857ZM15.0501 7.85503C14.7183 7.60708 14.2483 7.67505 14.0004 8.00686C13.7524 8.33866 13.8204 8.80865 14.1522 9.05659C15.0456 9.72419 15.6245 10.7772 15.6245 11.9689C15.6245 13.1607 15.0449 14.2144 14.1523 14.8812C13.8205 15.1291 13.7524 15.5991 14.0003 15.9309C14.2483 16.2628 14.7182 16.3308 15.0501 16.0829C16.2979 15.1507 17.1245 13.6627 17.1245 11.9689C17.1245 10.2752 16.2987 8.78805 15.0501 7.85503ZM16.4204 6.46862C16.1269 6.76093 16.126 7.2358 16.4183 7.52927C18.8606 9.98133 18.8606 13.9568 16.4183 16.4089C16.126 16.7024 16.1269 17.1772 16.4204 17.4695C16.7138 17.7619 17.1887 17.7609 17.481 17.4674C20.5063 14.4301 20.5063 9.50808 17.481 6.47073C17.1887 6.17725 16.7138 6.17631 16.4204 6.46862ZM9.84844 9.05649C8.95621 9.72356 8.37607 10.7767 8.37607 11.9689C8.37607 13.1614 8.95562 14.2144 9.84823 14.8812C10.1801 15.1291 10.2481 15.5991 10.0002 15.9309C9.75228 16.2628 9.2823 16.3308 8.95047 16.0829C7.7027 15.1507 6.87607 13.6635 6.87607 11.9689C6.87607 10.2741 7.70367 8.78713 8.95026 7.85513C9.28201 7.6071 9.75201 7.67497 10 8.00672C10.2481 8.33847 10.1802 8.80847 9.84844 9.05649ZM7.57963 6.46862C7.28616 6.17631 6.81129 6.17725 6.51898 6.47073C3.49367 9.50808 3.49367 14.4301 6.51898 17.4674C6.81129 17.7609 7.28616 17.7619 7.57963 17.4695C7.87311 17.1772 7.87405 16.7024 7.58174 16.4089C5.13942 13.9568 5.13942 9.98133 7.58174 7.52927C7.87405 7.2358 7.87311 6.76093 7.57963 6.46862ZM13.2374 13.211C13.921 12.5251 13.921 11.4129 13.2374 10.7269C12.5538 10.0409 11.4462 10.0409 10.7626 10.7269C10.0789 11.4129 10.0789 12.5251 10.7626 13.211C11.4462 13.897 12.5538 13.897 13.2374 13.211Z" fill="black"/>
</svg>
