<svg width="24" height="24" viewBox="0 0 24 24" fill="none" xmlns="http://www.w3.org/2000/svg">
<path d="M16.3599 13.5802C16.0609 13.7041 15.866 13.9958 15.866 14.3193V14.8611L15.3454 14.8634C15.1729 14.8638 15.0116 14.7815 14.9112 14.6434L13.8579 13.1954C13.598 12.8381 13.0976 12.7592 12.7403 13.0191C12.383 13.279 12.3041 13.7793 12.564 14.1366L13.6173 15.5846C14.0209 16.1397 14.6671 16.4655 15.3517 16.4633L15.866 16.4611V16.986C15.866 17.3096 16.0609 17.6013 16.3599 17.7251C16.6588 17.8489 17.0029 17.7805 17.2317 17.5517L18.565 16.2184C18.8483 15.9351 18.8747 15.4922 18.6443 15.1791C18.6168 15.1417 18.5862 15.1068 18.5528 15.0747L17.2317 13.7537C17.0029 13.5249 16.6588 13.4564 16.3599 13.5802Z" fill="black"/>
<path d="M8.64725 7.53595L5.99658 7.54728C5.55476 7.54917 5.19812 7.90887 5.20001 8.3507C5.2019 8.79252 5.5616 9.14916 6.00342 9.14727L8.65351 9.13594C8.82603 9.13552 8.98736 9.21781 9.08773 9.35589L10.1411 10.8039C10.401 11.1612 10.9013 11.2401 11.2586 10.9802C11.6159 10.7203 11.6948 10.22 11.4349 9.86267L10.3818 8.41489C9.9782 7.85986 9.33184 7.53382 8.64725 7.53595Z" fill="black"/>
<path d="M15.866 7V7.53815L15.3531 7.53596C14.6668 7.53286 14.0212 7.86066 13.6182 8.4149L9.08757 14.6442C8.98721 14.7823 8.82565 14.8644 8.65316 14.864L6.00342 14.8526C5.5616 14.8507 5.2019 15.2074 5.20001 15.6492C5.19812 16.091 5.55476 16.4507 5.99658 16.4526L8.64818 16.4639C9.3328 16.4661 9.9782 16.1401 10.3818 15.585L14.9124 9.35567C15.0134 9.21676 15.1751 9.13515 15.3459 9.13594L15.866 9.13817V9.66667C15.866 9.99024 16.0609 10.2819 16.3599 10.4058C16.6588 10.5296 17.0029 10.4612 17.2317 10.2324L18.4675 8.99651C18.668 8.85192 18.7989 8.61676 18.8 8.35071C18.8001 8.33427 18.7996 8.31795 18.7987 8.30176C18.7911 8.10767 18.7132 7.91583 18.565 7.76765L17.2317 6.43431C17.0029 6.20552 16.6588 6.13707 16.3599 6.2609C16.0609 6.38472 15.866 6.67643 15.866 7Z" fill="black"/>
<path d="M24 7.42857C24 3.32588 20.6741 0 16.5714 0H7.42857C3.32588 0 0 3.32588 0 7.42857V16.5714C0 20.6741 3.32588 24 7.42857 24H16.5714C20.6741 24 24 20.6741 24 16.5714V7.42857ZM22.5 16.5714C22.5 19.8457 19.8457 22.5 16.5714 22.5H7.42857C4.15431 22.5 1.5 19.8457 1.5 16.5714V7.42857C1.5 4.15431 4.15431 1.5 7.42857 1.5H16.5714C19.8457 1.5 22.5 4.15431 22.5 7.42857V16.5714Z" fill="black"/>
</svg>
