<svg width="24" height="24" viewBox="0 0 24 24" fill="none" xmlns="http://www.w3.org/2000/svg">
<path d="M7.42857 1.5H16.5714C19.8457 1.5 22.5 4.15431 22.5 7.42857V16.5714C22.5 19.8457 19.8457 22.5 16.5714 22.5H7.42857C4.15431 22.5 1.5 19.8457 1.5 16.5714V7.42857C1.5 4.15431 4.15431 1.5 7.42857 1.5ZM0 7.42857V16.5714C0 20.6741 3.32588 24 7.42857 24H16.5714C20.6741 24 24 20.6741 24 16.5714V7.42857C24 3.32588 20.6741 0 16.5714 0H7.42857C3.32588 0 0 3.32588 0 7.42857ZM17.25 17.4693V6.99997C17.25 6.63066 17.0465 6.29141 16.7206 6.11761L15.0956 5.25095C14.8015 5.09409 14.4485 5.09409 14.1544 5.25095L12.4706 6.14899C12.1765 6.30585 11.8235 6.30585 11.5294 6.14899L9.84559 5.25095C9.55147 5.09409 9.19853 5.09409 8.90441 5.25095L7.27941 6.11761C6.95355 6.29141 6.75 6.63066 6.75 6.99997V17.4693C6.75 18.143 7.48487 18.559 8.0625 18.2125L9.375 17.425L10.6875 18.2125L11.4855 18.6913C11.8022 18.8813 12.1978 18.8813 12.5145 18.6913L13.3125 18.2125L14.625 17.425L15.9375 18.2125C16.5151 18.559 17.25 18.143 17.25 17.4693ZM8.90005 11.9124C8.90005 11.5535 9.19106 11.2624 9.55005 11.2624H14.45C14.809 11.2624 15.1 11.5535 15.1 11.9124C15.1 12.2714 14.809 12.5624 14.45 12.5624H9.55005C9.19106 12.5624 8.90005 12.2714 8.90005 11.9124ZM9.55005 9.16247H14.45C14.809 9.16247 15.1 9.45348 15.1 9.81247C15.1 10.1715 14.809 10.4625 14.45 10.4625H9.55005C9.19106 10.4625 8.90005 10.1715 8.90005 9.81247C8.90005 9.45348 9.19106 9.16247 9.55005 9.16247ZM8.90005 14.0124C8.90005 13.6534 9.19106 13.3624 9.55005 13.3624H14.45C14.809 13.3624 15.1 13.6534 15.1 14.0124C15.1 14.3714 14.809 14.6624 14.45 14.6624H9.55005C9.19106 14.6624 8.90005 14.3714 8.90005 14.0124Z" fill="black"/>
</svg>
