<svg width="24" height="24" viewBox="0 0 24 24" fill="none" xmlns="http://www.w3.org/2000/svg">
<path d="M1.5 16.5714V7.42857C1.5 4.15431 4.15431 1.5 7.42857 1.5H16.5714C19.8457 1.5 22.5 4.15431 22.5 7.42857V16.5714C22.5 19.8457 19.8457 22.5 16.5714 22.5H7.42857C4.15431 22.5 1.5 19.8457 1.5 16.5714ZM-3.8147e-06 7.42857V16.5714C-3.8147e-06 20.6741 3.32588 24 7.42857 24H16.5714C20.6741 24 24 20.6741 24 16.5714V7.42857C24 3.32588 20.6741 0 16.5714 0H7.42857C3.32588 0 -3.8147e-06 3.32588 -3.8147e-06 7.42857Z" fill="black"/>
<path d="M18 6.79082C17.5582 6.79082 17.2 7.14899 17.2 7.59082V10.3699H14.3999C13.958 10.3699 13.5999 10.7281 13.5999 11.1699C13.5999 11.6117 13.958 11.9699 14.3999 11.9699H18C18.4418 11.9699 18.8 11.6117 18.8 11.1699V7.59082C18.8 7.14899 18.4418 6.79082 18 6.79082Z" fill="black"/>
<path d="M15.7705 7.99273C13.8159 6.06051 10.8141 5.64388 8.40266 6.96917C5.98633 8.29713 4.74129 11.0565 5.35521 13.7385C5.96896 16.4198 8.29074 18.3696 11.0446 18.5272C13.7983 18.6847 16.3291 17.0129 17.248 14.4199C17.3956 14.0035 17.1776 13.5462 16.7612 13.3987C16.3447 13.2511 15.8875 13.469 15.7399 13.8855C15.0603 15.803 13.1847 17.047 11.136 16.9298C9.08747 16.8126 7.3685 15.3632 6.91487 13.3815C6.4614 11.4005 7.37969 9.35708 9.17327 8.37137C10.9681 7.38499 13.2025 7.69824 14.6524 9.13717C14.6581 9.14285 14.6639 9.14845 14.6698 9.15396L17.4539 11.7548C17.7768 12.0564 18.283 12.0391 18.5846 11.7163C18.8862 11.3934 18.869 10.8872 18.5461 10.5855L15.7705 7.99273Z" fill="black"/>
</svg>
