<svg width="24" height="24" viewBox="0 0 24 24" fill="none" xmlns="http://www.w3.org/2000/svg">
<path d="M22.5 16.5714C22.5 19.8457 19.8457 22.5 16.5714 22.5H7.42857C4.15431 22.5 1.5 19.8457 1.5 16.5714V7.42857C1.5 4.15431 4.15431 1.5 7.42857 1.5H16.5714C19.8457 1.5 22.5 4.15431 22.5 7.42857V16.5714ZM24 7.42857C24 3.32588 20.6741 0 16.5714 0H7.42857C3.32588 0 0 3.32588 0 7.42857V16.5714C0 20.6741 3.32588 24 7.42857 24H16.5714C20.6741 24 24 20.6741 24 16.5714V7.42857Z" fill="black"/>
<path d="M19.0004 12C19.0004 8.13403 15.8664 5.00002 12.0004 5.00002C8.1344 5.00002 5.00039 8.13403 5.00039 12C5.00039 15.866 8.1344 19 12.0004 19C15.8664 19 19.0004 15.866 19.0004 12ZM12.0188 13.0611H10.9V14.8004C10.9 15.1594 10.609 15.4504 10.25 15.4504C9.89102 15.4504 9.6 15.1594 9.6 14.8004V9.20898C9.6 8.85 9.89102 8.55898 10.25 8.55898C10.2752 8.55898 10.3001 8.56042 10.3246 8.56322V8.5502H12.1776L12.1852 8.55037C12.787 8.56443 13.3311 8.81474 13.7268 9.21042C14.1343 9.61791 14.3874 10.1827 14.3874 10.8054C14.3874 11.4281 14.1343 11.993 13.7268 12.4004C13.599 12.5283 13.4557 12.6409 13.3 12.7353L14.1219 14.521C14.272 14.8471 14.1293 15.2332 13.8032 15.3833C13.4771 15.5334 13.0911 15.3907 12.941 15.0646L12.0188 13.0611ZM10.9 9.85019V11.7611H12.1318C12.3958 11.7611 12.6339 11.6549 12.8075 11.4812C12.9812 11.3076 13.0874 11.0695 13.0874 10.8054C13.0874 10.5414 12.9812 10.3033 12.8075 10.1297C12.6403 9.96241 12.4134 9.85779 12.1614 9.85019H10.9Z" fill="black"/>
</svg>
