<svg width="24" height="24" viewBox="0 0 24 24" fill="none" xmlns="http://www.w3.org/2000/svg">
<path d="M22.5 7.42857V16.5714C22.5 19.8457 19.8457 22.5 16.5714 22.5H7.42857C4.15431 22.5 1.5 19.8457 1.5 16.5714V7.42857C1.5 4.15431 4.15431 1.5 7.42857 1.5H16.5714C19.8457 1.5 22.5 4.15431 22.5 7.42857ZM16.5714 0H7.42857C3.32588 0 0 3.32588 0 7.42857V16.5714C0 20.6741 3.32588 24 7.42857 24H16.5714C20.6741 24 24 20.6741 24 16.5714V7.42857C24 3.32588 20.6741 0 16.5714 0ZM15.7325 4.93433C15.4201 4.62191 14.9136 4.62191 14.6011 4.93433C14.2887 5.24675 14.2887 5.75328 14.6011 6.0657L15.4021 6.8667H9.50001C7.40133 6.8667 5.70001 8.56802 5.70001 10.6667V11.2778C5.70001 11.7196 6.05819 12.0778 6.50001 12.0778C6.94184 12.0778 7.30001 11.7196 7.30001 11.2778V10.6667C7.30001 9.45167 8.28499 8.4667 9.50001 8.4667H15.4021L14.6011 9.26766C14.2887 9.58008 14.2887 10.0866 14.6011 10.399C14.9136 10.7114 15.4201 10.7114 15.7325 10.399L17.8992 8.23236C18.2116 7.91994 18.2116 7.41341 17.8992 7.10099L15.7325 4.93433ZM16.6111 11.9222C17.053 11.9222 17.4111 12.2804 17.4111 12.7222V13.3334C17.4111 15.432 15.7098 17.1334 13.6111 17.1334H8.43151L9.23251 17.9343C9.54493 18.2468 9.54493 18.7533 9.23251 19.0657C8.92009 19.3781 8.41356 19.3781 8.10114 19.0657L5.94297 16.9075C5.79313 16.7622 5.70001 16.5586 5.70001 16.3334C5.70001 16.1077 5.79348 15.9038 5.94381 15.7583L8.10114 13.601C8.41356 13.2886 8.92009 13.2886 9.23251 13.601C9.54493 13.9134 9.54493 14.42 9.23251 14.7324L8.43154 15.5334H13.6111C14.8262 15.5334 15.8111 14.5484 15.8111 13.3334V12.7222C15.8111 12.2804 16.1693 11.9222 16.6111 11.9222Z" fill="black"/>
</svg>
