<svg width="24" height="24" viewBox="0 0 24 24" fill="none" xmlns="http://www.w3.org/2000/svg">
<path d="M7.42857 1.5H16.5714C19.8457 1.5 22.5 4.15431 22.5 7.42857V16.5714C22.5 19.8457 19.8457 22.5 16.5714 22.5H7.42857C4.15431 22.5 1.5 19.8457 1.5 16.5714V7.42857C1.5 4.15431 4.15431 1.5 7.42857 1.5ZM0 7.42857V16.5714C0 20.6741 3.32588 24 7.42857 24H16.5714C20.6741 24 24 20.6741 24 16.5714V7.42857C24 3.32588 20.6741 0 16.5714 0H7.42857C3.32588 0 0 3.32588 0 7.42857ZM11.3369 6.96574C11.3369 6.60938 10.906 6.43091 10.6541 6.6829L6.42378 10.9132C6.18947 11.1475 6.18947 11.5274 6.42378 11.7617L10.6541 15.992C10.906 16.244 11.3369 16.0655 11.3369 15.7091V13.3921C14.5212 13.4527 15.8169 14.1171 17.045 16.2095C17.1564 16.3992 17.2572 16.5837 17.3474 16.7645C17.4879 17.0459 17.9477 17.0102 17.9717 16.6966C17.99 16.4572 17.9995 16.2084 17.9995 15.95C17.9995 13.6157 17.2262 12.069 16.1234 11.051C14.8038 9.83296 12.9785 9.37545 11.3369 9.29924V6.96574Z" fill="black"/>
</svg>
