<svg width="24" height="24" viewBox="0 0 24 24" fill="none" xmlns="http://www.w3.org/2000/svg">
<path d="M7.42857 1.5H16.5714C19.8457 1.5 22.5 4.15431 22.5 7.42857V16.5714C22.5 19.8457 19.8457 22.5 16.5714 22.5H7.42857C4.15431 22.5 1.5 19.8457 1.5 16.5714V7.42857C1.5 4.15431 4.15431 1.5 7.42857 1.5ZM0 7.42857V16.5714C0 20.6741 3.32588 24 7.42857 24H16.5714C20.6741 24 24 20.6741 24 16.5714V7.42857C24 3.32588 20.6741 0 16.5714 0H7.42857C3.32588 0 0 3.32588 0 7.42857ZM9.55099 7.50846C9.8318 7.20397 9.8126 6.72948 9.50811 6.44867C9.20362 6.16786 8.72913 6.18705 8.44832 6.49155L5.38701 9.81101C4.59181 10.6733 4.59242 12.0017 5.38841 12.8633L8.44878 16.1756C8.72988 16.4799 9.20438 16.4986 9.50862 16.2175C9.81285 15.9364 9.83162 15.4619 9.55052 15.1577L6.49015 11.8453C6.22482 11.5582 6.22462 11.1153 6.48968 10.8279L9.55099 7.50846ZM12.337 6.72427C12.337 6.457 12.0139 6.32315 11.8249 6.51214L7.4239 10.9131C7.18959 11.1474 7.18959 11.5273 7.4239 11.7616L11.8249 16.1626C12.0139 16.3516 12.337 16.2178 12.337 15.9505V13.3921C15.5213 13.4527 16.817 14.1171 18.0451 16.2094C18.1565 16.3992 18.2574 16.5837 18.3476 16.7644C18.488 17.0458 18.9478 17.0101 18.9718 16.6966C18.9902 16.4571 18.9996 16.2084 18.9996 15.95C18.9996 13.6156 18.2263 12.0689 17.1235 11.051C15.804 9.83291 13.9786 9.3754 12.337 9.29918V6.72427Z" fill="black"/>
</svg>
