<svg width="24" height="24" viewBox="0 0 24 24" fill="none" xmlns="http://www.w3.org/2000/svg">
<path d="M16.5714 1.5C19.8457 1.5 22.5 4.15431 22.5 7.42857V16.5714C22.5 19.8457 19.8457 22.5 16.5714 22.5H7.42857C4.15431 22.5 1.5 19.8457 1.5 16.5714V7.42857C1.5 4.15431 4.15431 1.5 7.42857 1.5H16.5714ZM7.42857 0C3.32588 0 0 3.32588 0 7.42857V16.5714C0 20.6741 3.32588 24 7.42857 24H16.5714C20.6741 24 24 20.6741 24 16.5714V7.42857C24 3.32588 20.6741 0 16.5714 0H7.42857Z" fill="black"/>
<path d="M10.2771 7.42481C8.99949 7.38013 7.70732 7.84561 6.73199 8.82124C6.44008 9.11324 6.19951 9.4363 5.99893 9.77607L6.88001 10.6564C7.69184 9.61597 8.80806 8.44217 10.2683 7.43092C10.2712 7.42889 10.2742 7.42685 10.2771 7.42481Z" fill="black"/>
<path d="M16.2893 12.2615L16.2886 12.2594C17.1815 10.7137 17.8471 8.80653 17.9787 6.48849C17.9932 6.23255 17.7931 6.02019 17.5413 6.01532C17.531 6.01517 17.5207 6.01535 17.5103 6.0159C14.7162 6.1617 12.522 7.08656 10.8376 8.25304C8.36941 9.96232 6.94506 12.1798 6.36211 13.2455C6.16322 13.6091 6.25369 14.0474 6.5549 14.332L9.73929 17.3415C9.91902 17.5114 10.1508 17.6057 10.3853 17.61C10.5352 17.6124 10.6863 17.578 10.8255 17.5031C11.2751 17.261 11.8989 16.8889 12.5926 16.37L12.5934 16.3709C13.796 15.4715 15.2089 14.1309 16.2893 12.2615ZM12.0901 10.3085C12.4806 9.91797 13.1137 9.91797 13.5042 10.3085C13.8948 10.699 13.8948 11.3321 13.5042 11.7227C13.1137 12.1132 12.4806 12.1132 12.0901 11.7227C11.6995 11.3321 11.6995 10.699 12.0901 10.3085Z" fill="black"/>
<path d="M16.5694 13.6895C15.5489 15.168 14.3577 16.283 13.3062 17.0847L14.2197 17.9994C14.5599 17.7988 14.8829 17.5581 15.1748 17.2661C16.1577 16.2829 16.6227 14.9775 16.5694 13.6895Z" fill="black"/>
<path d="M6.28465 15.4525C6.17651 15.4831 6.07488 15.5421 5.99168 15.6293C5.74387 15.889 5.75347 16.3005 6.01312 16.5484L7.36931 17.8432C7.62896 18.0911 8.04034 18.0815 8.28816 17.8218C8.37573 17.73 8.43116 17.6192 8.45476 17.5035L6.28465 15.4525Z" fill="black"/>
</svg>
