<svg width="24" height="24" viewBox="0 0 24 24" fill="none" xmlns="http://www.w3.org/2000/svg">
<path d="M16.5714 1.5C19.8457 1.5 22.5 4.15431 22.5 7.42857V16.5714C22.5 19.8457 19.8457 22.5 16.5714 22.5H7.42857C4.15431 22.5 1.5 19.8457 1.5 16.5714V7.42857C1.5 4.15431 4.15431 1.5 7.42857 1.5H16.5714ZM7.42857 0C3.32588 0 0 3.32588 0 7.42857V16.5714C0 20.6741 3.32588 24 7.42857 24H16.5714C20.6741 24 24 20.6741 24 16.5714V7.42857C24 3.32588 20.6741 0 16.5714 0H7.42857Z" fill="black"/>
<path d="M8.68398 6H8C6.89543 6 6 6.89543 6 8V16C6 17.1046 6.89543 18 8 18L8.68398 17.9993V13.666C8.68398 12.7547 9.42271 12.016 10.334 12.016H13.6673C14.5786 12.016 15.3173 12.7547 15.3173 13.666V17.9993L16 18C17.1046 18 18 17.1046 18 16V9.82731C18 9.1096 17.6154 8.44691 16.9923 8.09083L13.7945 6.26351C13.4923 6.09083 13.1503 6 12.8022 6H9.98398V8.33333C9.98398 8.52663 10.1407 8.68333 10.334 8.68333H13.334C13.693 8.68333 13.984 8.97435 13.984 9.33333C13.984 9.69232 13.693 9.98333 13.334 9.98333H10.334C9.42272 9.98333 8.68398 9.2446 8.68398 8.33333V6Z" fill="black"/>
<path d="M14.0173 17.9993V13.666C14.0173 13.4727 13.8606 13.316 13.6673 13.316H10.334C10.1407 13.316 9.98398 13.4727 9.98398 13.666V17.9993H14.0173Z" fill="black"/>
</svg>
