<svg width="24" height="24" viewBox="0 0 24 24" fill="none" xmlns="http://www.w3.org/2000/svg">
<path d="M1.5 7.42857C1.5 4.15431 4.15431 1.5 7.42857 1.5H16.5714C19.8457 1.5 22.5 4.15431 22.5 7.42857V16.5714C22.5 19.8457 19.8457 22.5 16.5714 22.5H7.42857C4.15431 22.5 1.5 19.8457 1.5 16.5714V7.42857ZM0 16.5714C0 20.6741 3.32588 24 7.42857 24H16.5714C20.6741 24 24 20.6741 24 16.5714V7.42857C24 3.32588 20.6741 0 16.5714 0H7.42857C3.32588 0 0 3.32588 0 7.42857V16.5714ZM15.9567 16.9655C15.6735 17.4616 15.0398 17.635 14.5428 17.3512C14.0467 17.068 13.8733 16.4344 14.1571 15.9373C14.4402 15.4413 15.0739 15.2678 15.571 15.5516C16.067 15.8348 16.2404 16.4684 15.9567 16.9655ZM17.2594 17.7092C17.9535 16.4931 17.5306 14.9431 16.3146 14.2489C15.6395 13.8635 14.8614 13.8224 14.184 14.0702L13.2775 12.7888L17.2953 6.98905C17.7286 6.36394 17.573 5.50607 16.9479 5.07281C16.9097 5.04637 16.8707 5.02213 16.8309 5.00002L12.3466 11.4728L7.81174 5.06233C7.77225 5.08475 7.7335 5.10938 7.69562 5.13622C7.07475 5.57538 6.92748 6.43475 7.3667 7.05569L11.4387 12.7833L10.5206 14.1085C9.35713 13.6244 7.98693 14.0711 7.34612 15.1937C6.65195 16.4097 7.07484 17.9597 8.29086 18.6539C9.50688 19.3481 11.0569 18.9252 11.7511 17.7092C12.2343 16.8628 12.1763 15.8546 11.6863 15.0858L12.3719 14.096L12.9956 14.9732C12.9453 15.0435 12.8981 15.117 12.8544 15.1937C12.1602 16.4097 12.5831 17.9597 13.7991 18.6539C15.0151 19.3481 16.5652 18.9252 17.2594 17.7092ZM10.0627 15.5516C10.5588 15.8348 10.7322 16.4684 10.4484 16.9655C10.1652 17.4616 9.53159 17.635 9.0345 17.3512C8.53846 17.068 8.36504 16.4344 8.6488 15.9373C8.93197 15.4413 9.56562 15.2678 10.0627 15.5516Z" fill="black"/>
</svg>
