<svg width="24" height="24" viewBox="0 0 24 24" fill="none" xmlns="http://www.w3.org/2000/svg">
<path d="M22.5 7.42857V16.5714C22.5 19.8457 19.8457 22.5 16.5714 22.5H7.42857C4.15431 22.5 1.5 19.8457 1.5 16.5714V7.42857C1.5 4.15431 4.15431 1.5 7.42857 1.5H16.5714C19.8457 1.5 22.5 4.15431 22.5 7.42857ZM7.42857 24H16.5714C20.6741 24 24 20.6741 24 16.5714V7.42857C24 3.32588 20.6741 0 16.5714 0H7.42857C3.32588 0 0 3.32588 0 7.42857V16.5714C0 20.6741 3.32588 24 7.42857 24ZM15.9843 14.5758C16.5919 13.6941 16.9476 12.6254 16.9476 11.4737C16.9476 8.45066 14.4969 6 11.4738 6C8.45071 6 6 8.45066 6 11.4737C6 14.4967 8.45071 16.9474 11.4738 16.9474C12.6463 16.9474 13.7327 16.5787 14.6235 15.951L16.9502 18.0453C17.3323 18.3892 17.9168 18.3738 18.2802 18.0101C18.6715 17.6186 18.6546 16.979 18.2432 16.6087L15.9843 14.5758ZM9.76315 10.7236H13.1842C13.5984 10.7236 13.9342 11.0594 13.9342 11.4736C13.9342 11.8878 13.5984 12.2236 13.1842 12.2236H9.76315C9.34894 12.2236 9.01315 11.8878 9.01315 11.4736C9.01315 11.0594 9.34894 10.7236 9.76315 10.7236Z" fill="black"/>
</svg>
