<svg width="24" height="24" viewBox="0 0 24 24" fill="none" xmlns="http://www.w3.org/2000/svg">
<path d="M16.5714 1.5C19.8457 1.5 22.5 4.15431 22.5 7.42857V16.5714C22.5 19.8457 19.8457 22.5 16.5714 22.5H7.42857C4.15431 22.5 1.5 19.8457 1.5 16.5714V7.42857C1.5 4.15431 4.15431 1.5 7.42857 1.5H16.5714ZM7.42857 0C3.32588 0 0 3.32588 0 7.42857V16.5714C0 20.6741 3.32588 24 7.42857 24H16.5714C20.6741 24 24 20.6741 24 16.5714V7.42857C24 3.32588 20.6741 0 16.5714 0H7.42857Z" fill="black"/>
<path d="M13.3762 8.85811C10.2439 8.61985 7.55066 10.3119 9.3375 14.622C9.45988 14.9172 9.90109 14.8101 9.93282 14.4921C10.2174 11.6398 12.1877 12.1934 13.3762 12.4038V14.0405C13.3762 14.486 13.9147 14.7091 14.2297 14.3941L17.2929 11.3309C17.6834 10.9404 17.6834 10.3072 17.2929 9.91672L14.2297 6.85355C13.9147 6.53857 13.3762 6.76165 13.3762 7.20711V8.85811Z" fill="black"/>
<path d="M9 8.25429H9.46524C9.82422 8.25429 10.1152 7.96327 10.1152 7.60429C10.1152 7.2453 9.82422 6.95429 9.46524 6.95429H9C6.98416 6.95429 5.35 8.58845 5.35 10.6043V15C5.35 17.0158 6.98416 18.65 9 18.65H13.508C15.4618 18.65 17.0457 17.0661 17.0457 15.1123C17.0457 14.7533 16.7547 14.4623 16.3957 14.4623C16.0367 14.4623 15.7457 14.7533 15.7457 15.1123C15.7457 16.3482 14.7439 17.35 13.508 17.35H9C7.70213 17.35 6.65 16.2979 6.65 15V10.6043C6.65 9.30642 7.70213 8.25429 9 8.25429Z" fill="black"/>
</svg>
