<svg width="24" height="24" viewBox="0 0 24 24" fill="none" xmlns="http://www.w3.org/2000/svg">
<path d="M16.5714 1.5C19.8457 1.5 22.5 4.15431 22.5 7.42857V16.5714C22.5 19.8457 19.8457 22.5 16.5714 22.5H7.42857C4.15431 22.5 1.5 19.8457 1.5 16.5714V7.42857C1.5 4.15431 4.15431 1.5 7.42857 1.5H16.5714ZM7.42857 0C3.32588 0 0 3.32588 0 7.42857V16.5714C0 20.6741 3.32588 24 7.42857 24H16.5714C20.6741 24 24 20.6741 24 16.5714V7.42857C24 3.32588 20.6741 0 16.5714 0H7.42857Z" fill="black"/>
<path d="M9.77369 10.4365C8.9104 9.57324 7.51075 9.57324 6.64746 10.4365C5.78418 11.2998 5.78418 12.6995 6.64746 13.5627C7.51075 14.426 8.9104 14.426 9.77369 13.5627C10.637 12.6995 10.637 11.2998 9.77369 10.4365Z" fill="black"/>
<path d="M17.3518 6.64746C16.4885 5.78418 15.0889 5.78418 14.2256 6.64746C13.3623 7.51075 13.3623 8.9104 14.2256 9.77369C15.0889 10.637 16.4885 10.637 17.3518 9.77369C18.2151 8.9104 18.2151 7.51075 17.3518 6.64746Z" fill="black"/>
<path d="M17.3518 14.2256C16.4885 13.3623 15.0889 13.3623 14.2256 14.2256C13.3623 15.0889 13.3623 16.4885 14.2256 17.3518C15.0889 18.2151 16.4885 18.2151 17.3518 17.3518C18.2151 16.4885 18.2151 15.0889 17.3518 14.2256Z" fill="black"/>
<path d="M14.7737 8.71537C14.5885 8.34489 14.138 8.19472 13.7675 8.37996L9.56107 10.4832C9.19059 10.6684 9.04042 11.1189 9.22566 11.4894C9.41091 11.8599 9.86141 12.01 10.2319 11.8248L14.4383 9.7216C14.8088 9.53636 14.959 9.08586 14.7737 8.71537Z" fill="black"/>
<path d="M9.22566 12.5103C9.04042 12.8808 9.19059 13.3313 9.56107 13.5165L13.7675 15.6197C14.138 15.805 14.5885 15.6548 14.7737 15.2843C14.959 14.9138 14.8088 14.4633 14.4383 14.2781L10.2319 12.1749C9.86141 11.9896 9.41091 12.1398 9.22566 12.5103Z" fill="black"/>
</svg>
