<svg width="24" height="24" viewBox="0 0 24 24" fill="none" xmlns="http://www.w3.org/2000/svg">
<path d="M16.5714 1.5C19.8457 1.5 22.5 4.15431 22.5 7.42857V16.5714C22.5 19.8457 19.8457 22.5 16.5714 22.5H7.42857C4.15431 22.5 1.5 19.8457 1.5 16.5714V7.42857C1.5 4.15431 4.15431 1.5 7.42857 1.5H16.5714ZM7.42857 0C3.32588 0 0 3.32588 0 7.42857V16.5714C0 20.6741 3.32588 24 7.42857 24H16.5714C20.6741 24 24 20.6741 24 16.5714V7.42857C24 3.32588 20.6741 0 16.5714 0H7.42857Z" fill="black"/>
<path d="M12.3487 9.49325C8.4547 9.19705 5.116 11.3416 7.52955 16.8115C7.65856 17.1038 8.09627 16.9942 8.11623 16.6753C8.35531 12.8557 10.8562 13.5627 12.3487 13.8269V16.0956C12.3487 16.541 12.8872 16.7641 13.2022 16.4491L17.2929 12.3585C17.6834 11.9679 17.6834 11.3348 17.2929 10.9442L13.2022 6.85355C12.8872 6.53857 12.3487 6.76165 12.3487 7.20711V9.49325Z" fill="black"/>
</svg>
