<svg width="24" height="24" viewBox="0 0 24 24" fill="none" xmlns="http://www.w3.org/2000/svg">
<path d="M7.42857 1.5H16.5714C19.8457 1.5 22.5 4.15431 22.5 7.42857V16.5714C22.5 19.8457 19.8457 22.5 16.5714 22.5H7.42857C4.15431 22.5 1.5 19.8457 1.5 16.5714V7.42857C1.5 4.15431 4.15431 1.5 7.42857 1.5ZM0 7.42857V16.5714C0 20.6741 3.32588 24 7.42857 24H16.5714C20.6741 24 24 20.6741 24 16.5714V7.42857C24 3.32588 20.6741 0 16.5714 0H7.42857C3.32588 0 0 3.32588 0 7.42857ZM12.0536 19C15.6966 18.1812 18.4072 14.809 18.4072 11.2025V8.3696C18.4072 7.72471 18.0173 7.14415 17.4201 6.89953L13.449 5.2746C12.5548 4.90847 11.5525 4.90847 10.6582 5.2746L6.68721 6.89953C6.08997 7.14335 5.70001 7.72471 5.70001 8.3696V11.2025C5.70001 14.809 8.41063 18.1812 12.0536 19Z" fill="black"/>
</svg>
