<svg width="24" height="24" viewBox="0 0 24 24" fill="none" xmlns="http://www.w3.org/2000/svg">
<path d="M7.42857 1.5H16.5714C19.8457 1.5 22.5 4.15431 22.5 7.42857V16.5714C22.5 19.8457 19.8457 22.5 16.5714 22.5H7.42857C4.15431 22.5 1.5 19.8457 1.5 16.5714V7.42857C1.5 4.15431 4.15431 1.5 7.42857 1.5ZM0 7.42857V16.5714C0 20.6741 3.32588 24 7.42857 24H16.5714C20.6741 24 24 20.6741 24 16.5714V7.42857C24 3.32588 20.6741 0 16.5714 0H7.42857C3.32588 0 0 3.32588 0 7.42857ZM18.3078 11.2025V8.3696C18.3078 7.72471 17.9179 7.14415 17.3206 6.89953L13.3496 5.2746C12.4553 4.90847 11.4531 4.90847 10.5588 5.2746L6.58778 6.89953C5.99054 7.14335 5.60059 7.72471 5.60059 8.3696V11.2025C5.60059 14.809 8.3112 18.1812 11.9542 19C15.5972 18.1812 18.3078 14.809 18.3078 11.2025ZM8.42383 11.5562V9.98235C8.42383 9.62408 8.64047 9.3011 8.97227 9.16565L11.1784 8.26291C11.333 8.19959 11.4935 8.15598 11.6562 8.13208C11.82 8.10801 11.9549 8.24458 11.9549 8.4102L11.9537 15.5133C11.9536 15.7055 11.775 15.8484 11.5919 15.7902C9.75286 15.2059 8.42383 13.4385 8.42383 11.5562Z" fill="black"/>
</svg>
