<svg width="24" height="24" viewBox="0 0 24 24" fill="none" xmlns="http://www.w3.org/2000/svg">
<path d="M16.5714 1.5C19.8457 1.5 22.5 4.15431 22.5 7.42857V16.5714C22.5 19.8457 19.8457 22.5 16.5714 22.5H7.42857C4.15431 22.5 1.5 19.8457 1.5 16.5714V7.42857C1.5 4.15431 4.15431 1.5 7.42857 1.5H16.5714ZM7.42857 0C3.32588 0 0 3.32588 0 7.42857V16.5714C0 20.6741 3.32588 24 7.42857 24H16.5714C20.6741 24 24 20.6741 24 16.5714V7.42857C24 3.32588 20.6741 0 16.5714 0H7.42857ZM6.00037 6.65C6.00037 7.00899 6.29138 7.3 6.65037 7.3H7.63672V13.8318C7.63672 14.7431 8.37545 15.4818 9.28672 15.4818H16.6503C17.0093 15.4818 17.3003 15.1908 17.3003 14.8318C17.3003 14.4728 17.0093 14.1818 16.6503 14.1818H9.28672C9.09342 14.1818 8.93672 14.0251 8.93672 13.8318V13.1958H15.6667C16.1354 13.1958 16.5412 12.8703 16.6429 12.4127L17.2894 9.50364C17.4282 8.87913 16.9529 8.28671 16.3132 8.28671H8.93672V6.65C8.93672 6.29101 8.64571 6 8.28672 6H6.65037C6.29138 6 6.00037 6.29101 6.00037 6.65ZM9.37802 16.4684C8.77529 16.4684 8.28711 16.9565 8.28711 17.5593C8.28711 18.162 8.77529 18.6502 9.37802 18.6502C9.98074 18.6502 10.4689 18.162 10.4689 17.5593C10.4689 16.9565 9.98074 16.4684 9.37802 16.4684ZM14.4691 17.5593C14.4691 18.162 14.9573 18.6502 15.56 18.6502C16.1627 18.6502 16.6509 18.162 16.6509 17.5593C16.6509 16.9565 16.1627 16.4684 15.56 16.4684C14.9573 16.4684 14.4691 16.9565 14.4691 17.5593Z" fill="black"/>
</svg>
