<svg width="24" height="24" viewBox="0 0 24 24" fill="none" xmlns="http://www.w3.org/2000/svg">
<path d="M1.5 7.42857C1.5 4.15431 4.15431 1.5 7.42857 1.5H16.5714C19.8457 1.5 22.5 4.15431 22.5 7.42857V16.5714C22.5 19.8457 19.8457 22.5 16.5714 22.5H7.42857C4.15431 22.5 1.5 19.8457 1.5 16.5714V7.42857ZM0 7.42857V16.5714C0 20.6741 3.32588 24 7.42857 24H16.5714C20.6741 24 24 20.6741 24 16.5714V7.42857C24 3.32588 20.6741 0 16.5714 0H7.42857C3.32588 0 0 3.32588 0 7.42857ZM6.26452 10.5231L5.70615 16.3212L5.70523 16.3319C5.61561 17.501 6.53995 18.5 7.71331 18.5H16.2677C17.4408 18.5 18.3665 17.5011 18.2758 16.3307L17.7165 10.5223C17.6623 9.85732 17.107 9.34509 16.4391 9.34509H15.3533V8.97887C15.3533 7.05765 13.7956 5.5 11.8744 5.5C9.95315 5.5 8.39551 7.05765 8.39551 8.97887V9.34509H7.54193C6.87366 9.34509 6.31863 9.85765 6.26452 10.5231ZM14.2547 8.97887V9.34509H9.4941V8.97887C9.4941 7.66438 10.5599 6.59859 11.8744 6.59859C13.1889 6.59859 14.2547 7.66438 14.2547 8.97887Z" fill="black"/>
</svg>
