<svg width="24" height="24" viewBox="0 0 24 24" fill="none" xmlns="http://www.w3.org/2000/svg">
<path d="M14.5273 6.61769C14.3161 6.32736 13.9096 6.26318 13.6193 6.47432C13.329 6.68546 13.2648 7.09199 13.4759 7.38231L15.6221 10.3333H8.37983L10.526 7.38231C10.7372 7.09199 10.673 6.68546 10.3827 6.47432C10.0923 6.26318 9.68581 6.32736 9.47467 6.61769L6.808 10.2844C6.77715 10.3268 6.75218 10.3717 6.73293 10.4181C6.34223 10.5907 6.08683 11.0056 6.14495 11.4601L6.71513 15.9203C6.84277 16.9187 7.69247 17.6667 8.69899 17.6667H15.3028C16.3093 17.6667 17.159 16.9187 17.2867 15.9203L17.8568 11.4601C17.9149 11.0057 17.6597 10.5909 17.2691 10.4182C17.2498 10.3717 17.2248 10.3268 17.194 10.2844L14.5273 6.61769ZM10.0005 12.35C10.3595 12.35 10.6505 12.641 10.6505 13V15C10.6505 15.359 10.3595 15.65 10.0005 15.65C9.64152 15.65 9.3505 15.359 9.3505 15V13C9.3505 12.641 9.64152 12.35 10.0005 12.35ZM12.6505 13V15C12.6505 15.359 12.3595 15.65 12.0005 15.65C11.6415 15.65 11.3505 15.359 11.3505 15V13C11.3505 12.641 11.6415 12.35 12.0005 12.35C12.3595 12.35 12.6505 12.641 12.6505 13ZM14.0005 12.35C14.3595 12.35 14.6505 12.641 14.6505 13V15C14.6505 15.359 14.3595 15.65 14.0005 15.65C13.6415 15.65 13.3505 15.359 13.3505 15V13C13.3505 12.641 13.6415 12.35 14.0005 12.35Z" fill="black"/>
<path d="M0 7.42857V16.5714C0 20.6741 3.32588 24 7.42857 24H16.5714C20.6741 24 24 20.6741 24 16.5714V7.42857C24 3.32588 20.6741 0 16.5714 0H7.42857C3.32588 0 0 3.32588 0 7.42857ZM7.42857 1.5H16.5714C19.8457 1.5 22.5 4.15431 22.5 7.42857V16.5714C22.5 19.8457 19.8457 22.5 16.5714 22.5H7.42857C4.15431 22.5 1.5 19.8457 1.5 16.5714V7.42857C1.5 4.15431 4.15431 1.5 7.42857 1.5Z" fill="black"/>
</svg>
