<svg width="24" height="24" viewBox="0 0 24 24" fill="none" xmlns="http://www.w3.org/2000/svg">
<path d="M7.42857 1.5H16.5714C19.8457 1.5 22.5 4.15431 22.5 7.42857V16.5714C22.5 19.8457 19.8457 22.5 16.5714 22.5H7.42857C4.15431 22.5 1.5 19.8457 1.5 16.5714V7.42857C1.5 4.15431 4.15431 1.5 7.42857 1.5ZM0 7.42857V16.5714C0 20.6741 3.32588 24 7.42857 24H16.5714C20.6741 24 24 20.6741 24 16.5714V7.42857C24 3.32588 20.6741 0 16.5714 0H7.42857C3.32588 0 0 3.32588 0 7.42857ZM16.5 6.55005H11.8221V17.4389H16.5C17.8807 17.4389 19 16.3196 19 14.9389V9.05005C19 7.66934 17.8807 6.55005 16.5 6.55005ZM7.5 6.55005C6.11929 6.55005 5 7.66934 5 9.05005V14.9389C5 16.3196 6.11929 17.4389 7.5 17.4389H10.6221V6.55005H7.5ZM7.00039 10.2278H8.55595C8.88732 10.2278 9.15595 10.4964 9.15595 10.8278C9.15595 11.1592 8.88732 11.4278 8.55595 11.4278H7.00039C6.66902 11.4278 6.40039 11.1592 6.40039 10.8278C6.40039 10.4964 6.66902 10.2278 7.00039 10.2278ZM6.40039 13.1612C6.40039 12.8298 6.66902 12.5612 7.00039 12.5612H8.55595C8.88732 12.5612 9.15595 12.8298 9.15595 13.1612C9.15595 13.4925 8.88732 13.7612 8.55595 13.7612H7.00039C6.66902 13.7612 6.40039 13.4925 6.40039 13.1612Z" fill="black"/>
</svg>
