<svg width="24" height="24" viewBox="0 0 24 24" fill="none" xmlns="http://www.w3.org/2000/svg">
<path d="M16.5714 1.5C19.8457 1.5 22.5 4.15431 22.5 7.42857V16.5714C22.5 19.8457 19.8457 22.5 16.5714 22.5H7.42857C4.15431 22.5 1.5 19.8457 1.5 16.5714V7.42857C1.5 4.15431 4.15431 1.5 7.42857 1.5H16.5714ZM7.42857 0C3.32588 0 0 3.32588 0 7.42857V16.5714C0 20.6741 3.32588 24 7.42857 24H16.5714C20.6741 24 24 20.6741 24 16.5714V7.42857C24 3.32588 20.6741 0 16.5714 0H7.42857Z" fill="black"/>
<path d="M8.22222 7.3H10.6667C11.1085 7.3 11.4667 6.94183 11.4667 6.5C11.4667 6.05817 11.1085 5.7 10.6667 5.7H8.22222C7.10538 5.7 6.2 6.60538 6.2 7.72222V16.2778C6.2 17.3946 7.10538 18.3 8.22222 18.3H10.6667C11.1085 18.3 11.4667 17.9418 11.4667 17.5C11.4667 17.0582 11.1085 16.7 10.6667 16.7H8.22222C7.98904 16.7 7.8 16.511 7.8 16.2778V7.72222C7.8 7.48904 7.98904 7.3 8.22222 7.3Z" fill="black"/>
<path d="M14.3796 8.37767C14.0672 8.69009 14.0672 9.19662 14.3796 9.50904L16.8695 11.9989L14.3796 14.4888C14.0672 14.8012 14.0672 15.3077 14.3796 15.6202C14.692 15.9326 15.1986 15.9326 15.511 15.6202L18.5666 12.5646C18.879 12.2522 18.879 11.7456 18.5666 11.4332L15.511 8.37767C15.1986 8.06525 14.692 8.06525 14.3796 8.37767Z" fill="black"/>
<path d="M9.86602 12C9.86602 12.4418 10.2242 12.8 10.666 12.8H17.9993C18.4412 12.8 18.7993 12.4418 18.7993 12C18.7993 11.5582 18.4412 11.2 17.9993 11.2H10.666C10.2242 11.2 9.86602 11.5582 9.86602 12Z" fill="black"/>
</svg>
