<svg width="24" height="24" viewBox="0 0 24 24" fill="none" xmlns="http://www.w3.org/2000/svg">
<path d="M7.42857 1.5H16.5714C19.8457 1.5 22.5 4.15431 22.5 7.42857V16.5714C22.5 19.8457 19.8457 22.5 16.5714 22.5H7.42857C4.15431 22.5 1.5 19.8457 1.5 16.5714V7.42857C1.5 4.15431 4.15431 1.5 7.42857 1.5ZM0 7.42857V16.5714C0 20.6741 3.32588 24 7.42857 24H16.5714C20.6741 24 24 20.6741 24 16.5714V7.42857C24 3.32588 20.6741 0 16.5714 0H7.42857C3.32588 0 0 3.32588 0 7.42857ZM7.58182 17.1835C7.91319 17.1835 8.18182 16.9149 8.18182 16.5835V14.5108C8.18182 14.1794 7.91319 13.9108 7.58182 13.9108H6.6C6.26863 13.9108 6 14.1794 6 14.5108V16.5835C6 16.9149 6.26863 17.1835 6.6 17.1835H7.58182Z" fill="black"/>
</svg>
