<svg width="24" height="24" viewBox="0 0 24 24" fill="none" xmlns="http://www.w3.org/2000/svg">
<path d="M1.5 7.42857C1.5 4.15431 4.15431 1.5 7.42857 1.5H16.5714C19.8457 1.5 22.5 4.15431 22.5 7.42857V16.5714C22.5 19.8457 19.8457 22.5 16.5714 22.5H7.42857C4.15431 22.5 1.5 19.8457 1.5 16.5714V7.42857ZM0 16.5714C0 20.6741 3.32588 24 7.42857 24H16.5714C20.6741 24 24 20.6741 24 16.5714V7.42857C24 3.32588 20.6741 0 16.5714 0H7.42857C3.32588 0 0 3.32588 0 7.42857V16.5714Z" fill="black"/>
<path d="M12.0723 18.17C12.4865 18.17 12.8223 17.8342 12.8223 17.42V6.57672C12.8223 6.16251 12.4865 5.82672 12.0723 5.82672C11.6581 5.82672 11.3223 6.16251 11.3223 6.57672V17.42C11.3223 17.8342 11.6581 18.17 12.0723 18.17Z" fill="black"/>
<path d="M7.73438 18.17C8.14859 18.17 8.48438 17.8342 8.48438 17.42V6.57672C8.48438 6.16251 8.14859 5.82672 7.73438 5.82672C7.32016 5.82672 6.98438 6.16251 6.98438 6.57672V17.42C6.98438 17.8342 7.32016 18.17 7.73438 18.17Z" fill="black"/>
<path d="M16.4102 18.17C16.8244 18.17 17.1602 17.8342 17.1602 17.42V6.57672C17.1602 6.16251 16.8244 5.82672 16.4102 5.82672C15.9959 5.82672 15.6602 6.16251 15.6602 6.57672V17.42C15.6602 17.8342 15.9959 18.17 16.4102 18.17Z" fill="black"/>
<path d="M7.66264 7.58885C6.74439 7.58885 6 8.33324 6 9.25149C6 10.1697 6.74439 10.9141 7.66264 10.9141C8.58088 10.9141 9.32527 10.1697 9.32527 9.25149C9.32527 8.33324 8.58088 7.58885 7.66264 7.58885Z" fill="black"/>
<path d="M16.3365 7.58887C15.4182 7.58887 14.6738 8.33326 14.6738 9.25151C14.6738 10.1698 15.4182 10.9141 16.3365 10.9141C17.2547 10.9141 17.9991 10.1698 17.9991 9.25151C17.9991 8.33326 17.2547 7.58887 16.3365 7.58887Z" fill="black"/>
<path d="M12.0005 13.3721C11.0823 13.3721 10.3379 14.1165 10.3379 15.0347C10.3379 15.953 11.0823 16.6973 12.0005 16.6973C12.9188 16.6973 13.6632 15.953 13.6632 15.0347C13.6632 14.1165 12.9188 13.3721 12.0005 13.3721Z" fill="black"/>
</svg>
