<svg width="24" height="24" viewBox="0 0 24 24" fill="none" xmlns="http://www.w3.org/2000/svg">
<path d="M16.5713 1.5C19.8455 1.5 22.4998 4.15431 22.4998 7.42857V16.5714C22.4998 19.8457 19.8455 22.5 16.5713 22.5H7.42842C4.15416 22.5 1.49984 19.8457 1.49984 16.5714V7.42857C1.49984 4.15431 4.15416 1.5 7.42842 1.5H16.5713ZM7.42842 0C3.32573 0 -0.000156403 3.32588 -0.000156403 7.42857V16.5714C-0.000156403 20.6741 3.32573 24 7.42842 24H16.5713C20.674 24 23.9998 20.6741 23.9998 16.5714V7.42857C23.9998 3.32588 20.674 0 16.5713 0H7.42842Z" fill="black"/>
<path d="M5.82977 12.0728C5.82977 12.487 6.16555 12.8228 6.57977 12.8228H17.423C17.8373 12.8228 18.173 12.487 18.173 12.0728C18.173 11.6585 17.8373 11.3228 17.423 11.3228H6.57977C6.16555 11.3228 5.82977 11.6585 5.82977 12.0728Z" fill="black"/>
<path d="M5.82984 7.73481C5.82984 8.14902 6.16563 8.48481 6.57984 8.48481H17.4231C17.8373 8.48481 18.1731 8.14902 18.1731 7.73481C18.1731 7.3206 17.8373 6.98481 17.4231 6.98481H6.57984C6.16563 6.98481 5.82984 7.3206 5.82984 7.73481Z" fill="black"/>
<path d="M5.82977 16.4092C5.82977 16.8234 6.16555 17.1592 6.57977 17.1592H17.423C17.8373 17.1592 18.173 16.8234 18.173 16.4092C18.173 15.995 17.8373 15.6592 17.423 15.6592H6.57977C6.16555 15.6592 5.82977 15.995 5.82977 16.4092Z" fill="black"/>
<path d="M16.411 7.66264C16.411 6.74439 15.6666 6 14.7484 6C13.8301 6 13.0857 6.74439 13.0857 7.66264C13.0857 8.58088 13.8301 9.32527 14.7484 9.32527C15.6666 9.32527 16.411 8.58088 16.411 7.66264Z" fill="black"/>
<path d="M16.4109 16.337C16.4109 15.4187 15.6665 14.6743 14.7483 14.6743C13.83 14.6743 13.0856 15.4187 13.0856 16.337C13.0856 17.2552 13.83 17.9996 14.7483 17.9996C15.6665 17.9996 16.4109 17.2552 16.4109 16.337Z" fill="black"/>
<path d="M10.6277 12C10.6277 11.0818 9.88331 10.3374 8.96506 10.3374C8.04681 10.3374 7.30242 11.0818 7.30242 12C7.30242 12.9183 8.04681 13.6627 8.96506 13.6627C9.88331 13.6627 10.6277 12.9183 10.6277 12Z" fill="black"/>
</svg>
