<svg width="24" height="24" viewBox="0 0 24 24" fill="none" xmlns="http://www.w3.org/2000/svg">
<path d="M14.4602 15.0112L15.2532 14.2778V18.1996H16.5331V12.6086H15.4616L13.6821 14.0887L14.4602 15.0112Z" fill="black"/>
<path d="M10.179 18.0003L12.5569 15.6219C12.8 15.3788 12.8728 15.0132 12.7412 14.6956C12.6096 14.378 12.2997 14.1709 11.9559 14.1709H10.3281V6.59937C10.3281 6.18515 9.99234 5.84937 9.57812 5.84937C9.16391 5.84937 8.82812 6.18515 8.82812 6.59937V14.1709H7.33594C7.31287 14.1709 7.29002 14.1718 7.26742 14.1736C7.02777 14.1544 6.78155 14.2365 6.59823 14.4198C6.26628 14.7518 6.26628 15.29 6.59823 15.6219L8.97678 18.0005C9.30872 18.3324 9.84703 18.3323 10.179 18.0003Z" fill="black"/>
<path d="M7.42857 24C3.32588 24 0 20.6741 0 16.5714V7.42857C0 3.32588 3.32588 0 7.42857 0H16.5714C20.6741 0 24 3.32588 24 7.42857V16.5714C24 20.6741 20.6741 24 16.5714 24H7.42857ZM7.42857 1.5C4.15431 1.5 1.5 4.15431 1.5 7.42857V16.5714C1.5 19.8457 4.15431 22.5 7.42857 22.5H16.5714C19.8457 22.5 22.5 19.8457 22.5 16.5714V7.42857C22.5 4.15431 19.8457 1.5 16.5714 1.5H7.42857Z" fill="black"/>
<path d="M13.6449 11.479H15.1934L16.5795 9.29663L16.5808 9.29442C16.7276 9.05658 16.8477 8.82182 16.9405 8.59017C17.0442 8.33854 17.0945 8.06324 17.0945 7.767C17.0945 7.47114 17.0444 7.1979 16.9402 6.95044C16.8418 6.70521 16.6985 6.49482 16.5098 6.32246C16.3266 6.15066 16.1069 6.02247 15.8543 5.93615C15.6054 5.84452 15.3356 5.8 15.0469 5.8C14.7616 5.8 14.4916 5.84497 14.2383 5.93657L14.237 5.93705C13.9883 6.02895 13.7695 6.16251 13.5828 6.3382C13.3996 6.5103 13.2571 6.71976 13.1543 6.96334C13.0498 7.21084 12.9992 7.48213 12.9992 7.77433C12.9992 8.02135 13.0395 8.25736 13.1213 8.48094L13.1229 8.48492C13.2094 8.70668 13.3294 8.90373 13.4834 9.07419L13.4857 9.07674C13.6454 9.24736 13.8328 9.38229 14.0466 9.48097C14.2659 9.58218 14.505 9.63135 14.7609 9.63135C14.789 9.63135 14.817 9.63069 14.845 9.62937L13.6449 11.479ZM15.7128 7.49199L15.714 7.49481C15.7511 7.58019 15.7707 7.675 15.7707 7.78166C15.7707 7.88772 15.7513 7.98566 15.7133 8.07725C15.6747 8.16574 15.6208 8.24464 15.5507 8.31478C15.4875 8.37794 15.4097 8.42987 15.3145 8.46953L15.3117 8.47075C15.2263 8.50787 15.1315 8.52748 15.0249 8.52748C14.9188 8.52748 14.8209 8.50808 14.7293 8.47013C14.6402 8.43122 14.5614 8.37951 14.4918 8.31471C14.427 8.24517 14.3753 8.16635 14.3364 8.07727C14.2985 7.98567 14.2791 7.88773 14.2791 7.78166C14.2791 7.675 14.2987 7.5802 14.3358 7.49482L14.337 7.49199C14.3766 7.39681 14.4286 7.31904 14.4918 7.25588C14.5619 7.18574 14.6408 7.13187 14.7293 7.09319C14.8209 7.05525 14.9188 7.03584 15.0249 7.03584C15.1315 7.03584 15.2263 7.05548 15.3117 7.0926L15.3145 7.09378C15.4073 7.13242 15.4836 7.18543 15.5464 7.25201L15.5548 7.25986C15.6213 7.32273 15.6741 7.39924 15.7128 7.49199Z" fill="black"/>
</svg>
