<svg width="24" height="24" viewBox="0 0 24 24" fill="none" xmlns="http://www.w3.org/2000/svg">
<path d="M1.5 16.5714C1.5 19.8457 4.15431 22.5 7.42857 22.5H16.5714C19.8457 22.5 22.5 19.8457 22.5 16.5714V7.42857C22.5 4.15431 19.8457 1.5 16.5714 1.5H7.42857C4.15431 1.5 1.5 4.15431 1.5 7.42857V16.5714ZM7.42857 24C3.32588 24 0 20.6741 0 16.5714V7.42857C0 3.32588 3.32588 0 7.42857 0H16.5714C20.6741 0 24 3.32588 24 7.42857V16.5714C24 20.6741 20.6741 24 16.5714 24H7.42857ZM16.879 9.856L12.7294 5.7064C12.3389 5.31587 11.7057 5.31587 11.3152 5.7064L7.16561 9.856C6.66163 10.36 7.01857 11.2217 7.73129 11.2217H16.3133C17.0261 11.2217 17.383 10.36 16.879 9.856Z" fill="black"/>
</svg>
