<svg width="24" height="24" viewBox="0 0 24 24" fill="none" xmlns="http://www.w3.org/2000/svg">
<path d="M1.5 7.42857C1.5 4.15431 4.15431 1.5 7.42857 1.5H16.5714C19.8457 1.5 22.5 4.15431 22.5 7.42857V16.5714C22.5 19.8457 19.8457 22.5 16.5714 22.5H7.42857C4.15431 22.5 1.5 19.8457 1.5 16.5714V7.42857ZM0 16.5714C0 20.6741 3.32588 24 7.42857 24H16.5714C20.6741 24 24 20.6741 24 16.5714V7.42857C24 3.32588 20.6741 0 16.5714 0H7.42857C3.32588 0 0 3.32588 0 7.42857V16.5714Z" fill="black"/>
<path d="M11.7801 8.66775C11.7801 9.10958 12.1383 9.46775 12.5801 9.46775H17.9994C18.4412 9.46775 18.7994 9.10958 18.7994 8.66775C18.7994 8.22592 18.4412 7.86775 17.9994 7.86775H12.5801C12.1383 7.86775 11.7801 8.22592 11.7801 8.66775Z" fill="black"/>
<path d="M11.7801 12.1512C11.7801 12.593 12.1383 12.9511 12.5801 12.9511H17.9994C18.4412 12.9511 18.7994 12.593 18.7994 12.1512C18.7994 11.7093 18.4412 11.3512 17.9994 11.3512H12.5801C12.1383 11.3512 11.7801 11.7093 11.7801 12.1512Z" fill="black"/>
<path d="M11.7801 15.6355C11.7801 16.0774 12.1383 16.4355 12.5801 16.4355H17.9994C18.4412 16.4355 18.7994 16.0774 18.7994 15.6355C18.7994 15.1937 18.4412 14.8355 17.9994 14.8355H12.5801C12.1383 14.8355 11.7801 15.1937 11.7801 15.6355Z" fill="black"/>
<path d="M8.14844 15.7395C8.59027 15.7395 8.94844 15.3813 8.94844 14.9395V8.28136C8.94844 7.83953 8.59027 7.48136 8.14844 7.48136C7.70661 7.48136 7.34844 7.83953 7.34844 8.28136V14.9395C7.34844 15.3813 7.70661 15.7395 8.14844 15.7395Z" fill="black"/>
<path d="M5.39896 12.9645C5.06701 13.2964 5.06701 13.8346 5.39896 14.1665L7.54732 16.3149C7.87926 16.6469 8.41745 16.6469 8.7494 16.3149C9.08135 15.983 9.08135 15.4448 8.7494 15.1128L6.60104 12.9645C6.2691 12.6325 5.7309 12.6325 5.39896 12.9645Z" fill="black"/>
<path d="M5.15 13.5655C5.15 14.035 5.53056 14.4155 6 14.4155H8.24476L7.54744 15.1128C7.2155 15.4448 7.21537 15.983 7.54732 16.3149C7.87926 16.6469 8.41745 16.6469 8.7494 16.3149L10.8979 14.1665C11.141 13.9235 11.2137 13.5579 11.0821 13.2402C10.9506 12.9226 10.6406 12.7155 10.2968 12.7155H6C5.53056 12.7155 5.15 13.0961 5.15 13.5655Z" fill="black"/>
</svg>
