<svg width="24" height="24" viewBox="0 0 24 24" fill="none" xmlns="http://www.w3.org/2000/svg">
<path d="M7.42857 1.5H16.5714C19.8457 1.5 22.5 4.15431 22.5 7.42857V16.5714C22.5 19.8457 19.8457 22.5 16.5714 22.5H7.42857C4.15431 22.5 1.5 19.8457 1.5 16.5714V7.42857C1.5 4.15431 4.15431 1.5 7.42857 1.5ZM0 7.42857V16.5714C0 20.6741 3.32588 24 7.42857 24H16.5714C20.6741 24 24 20.6741 24 16.5714V7.42857C24 3.32588 20.6741 0 16.5714 0H7.42857C3.32588 0 0 3.32588 0 7.42857ZM8.93994 5C7.83537 5 6.93994 5.89543 6.93994 7V17C6.93994 18.1046 7.83537 19 8.93994 19H15.0511C16.1556 19 17.0511 18.1046 17.0511 17V7C17.0511 5.89543 16.1556 5 15.0511 5H8.93994ZM11.9954 16.6667C10.7068 16.6667 9.66211 15.622 9.66211 14.3333C9.66211 13.0447 10.7068 12 11.9954 12C13.2841 12 14.3288 13.0447 14.3288 14.3333C14.3288 15.622 13.2841 16.6667 11.9954 16.6667ZM12.7733 8.11103C12.7733 8.54058 12.4251 8.88881 11.9956 8.88881C11.566 8.88881 11.2178 8.54058 11.2178 8.11103C11.2178 7.68147 11.566 7.33325 11.9956 7.33325C12.4251 7.33325 12.7733 7.68147 12.7733 8.11103Z" fill="black"/>
</svg>
