<svg width="24" height="24" viewBox="0 0 24 24" fill="none" xmlns="http://www.w3.org/2000/svg">
<path d="M7.42857 1.5H16.5714C19.8457 1.5 22.5 4.15431 22.5 7.42857V16.5714C22.5 19.8457 19.8457 22.5 16.5714 22.5H7.42857C4.15431 22.5 1.5 19.8457 1.5 16.5714V7.42857C1.5 4.15431 4.15431 1.5 7.42857 1.5ZM0 7.42857V16.5714C0 20.6741 3.32588 24 7.42857 24H16.5714C20.6741 24 24 20.6741 24 16.5714V7.42857C24 3.32588 20.6741 0 16.5714 0H7.42857C3.32588 0 0 3.32588 0 7.42857ZM12.2026 3.51393C11.3818 3.40201 10.6257 3.9767 10.5137 4.79753C10.4018 5.61836 10.9765 6.37451 11.7973 6.48643C14.6634 6.87721 16.8725 9.33728 16.8725 12.3108C16.8725 13.3841 16.5863 14.3859 16.087 15.2491C15.6721 15.9662 15.9172 16.8838 16.6343 17.2986C17.3514 17.7134 18.269 17.4684 18.6838 16.7513C19.4401 15.4438 19.8725 13.9255 19.8725 12.3108C19.8725 7.81672 16.5349 4.10464 12.2026 3.51393Z" fill="black"/>
</svg>
