<svg width="24" height="24" viewBox="0 0 24 24" fill="none" xmlns="http://www.w3.org/2000/svg">
<path d="M16.5714 1.5C19.8457 1.5 22.5 4.15431 22.5 7.42857V16.5714C22.5 19.8457 19.8457 22.5 16.5714 22.5H7.42857C4.15431 22.5 1.5 19.8457 1.5 16.5714V7.42857C1.5 4.15431 4.15431 1.5 7.42857 1.5H16.5714ZM7.42857 0C3.32588 0 0 3.32588 0 7.42857V16.5714C0 20.6741 3.32588 24 7.42857 24H16.5714C20.6741 24 24 20.6741 24 16.5714V7.42857C24 3.32588 20.6741 0 16.5714 0H7.42857ZM12 4.25C11.5858 4.25 11.25 4.58579 11.25 5V7.33333C11.25 7.74755 11.5858 8.08333 12 8.08333C12.4142 8.08333 12.75 7.74755 12.75 7.33333V5C12.75 4.58579 12.4142 4.25 12 4.25ZM16.1496 6.31583C16.3566 5.95705 16.2336 5.49839 15.8748 5.2914C15.516 5.08441 15.0573 5.20746 14.8504 5.56625L13.6837 7.58847C13.4767 7.94726 13.5998 8.40591 13.9585 8.6129C14.3173 8.81989 14.776 8.69684 14.983 8.33805L16.1496 6.31583ZM18.7085 8.12521C18.5015 7.76642 18.0428 7.64337 17.6841 7.85036L15.6618 9.01703C15.303 9.22402 15.18 9.68267 15.387 10.0415C15.594 10.4002 16.0526 10.5233 16.4114 10.3163L18.4336 9.14964C18.7924 8.94265 18.9155 8.48399 18.7085 8.12521ZM16.6667 11.25C16.2525 11.25 15.9167 11.5858 15.9167 12C15.9167 12.4142 16.2525 12.75 16.6667 12.75H19C19.4142 12.75 19.75 12.4142 19.75 12C19.75 11.5858 19.4142 11.25 19 11.25H16.6667ZM4.25 12C4.25 12.4142 4.58579 12.75 5 12.75H7.33333C7.74755 12.75 8.08333 12.4142 8.08333 12C8.08333 11.5858 7.74755 11.25 7.33333 11.25H5C4.58579 11.25 4.25 11.5858 4.25 12ZM6.31588 7.85036C5.95709 7.64337 5.49844 7.76642 5.29145 8.12521C5.08446 8.48399 5.20751 8.94265 5.56629 9.14964L7.58852 10.3163C7.9473 10.5233 8.40596 10.4002 8.61295 10.0415C8.81994 9.68267 8.69689 9.22402 8.3381 9.01703L6.31588 7.85036ZM8.12521 5.2914C7.76642 5.49839 7.64337 5.95705 7.85036 6.31583L9.01703 8.33805C9.22402 8.69684 9.68267 8.81989 10.0415 8.6129C10.4002 8.40591 10.5233 7.94726 10.3163 7.58847L9.14964 5.56625C8.94265 5.20746 8.48399 5.08441 8.12521 5.2914ZM12.75 16.6666C12.75 16.2524 12.4142 15.9166 12 15.9166C11.5858 15.9166 11.25 16.2524 11.25 16.6666V19C11.25 19.4142 11.5858 19.75 12 19.75C12.4142 19.75 12.75 19.4142 12.75 19V16.6666ZM10.0415 15.387C9.68267 15.18 9.22402 15.303 9.01703 15.6618L7.85036 17.6841C7.64337 18.0428 7.76642 18.5015 8.12521 18.7085C8.48399 18.9155 8.94265 18.7924 9.14964 18.4336L10.3163 16.4114C10.5233 16.0526 10.4002 15.594 10.0415 15.387ZM8.3381 14.983C8.69689 14.776 8.81994 14.3174 8.61295 13.9586C8.40596 13.5998 7.9473 13.4767 7.58852 13.6837L5.56629 14.8504C5.20751 15.0574 5.08446 15.516 5.29145 15.8748C5.49844 16.2336 5.95709 16.3567 6.31588 16.1497L8.3381 14.983ZM15.387 13.9586C15.18 14.3174 15.303 14.776 15.6618 14.983L17.6841 16.1497C18.0428 16.3567 18.5015 16.2336 18.7085 15.8748C18.9155 15.516 18.7924 15.0574 18.4336 14.8504L16.4114 13.6837C16.0526 13.4767 15.594 13.5998 15.387 13.9586ZM14.983 15.6618C14.776 15.303 14.3173 15.18 13.9585 15.387C13.5998 15.594 13.4767 16.0526 13.6837 16.4114L14.8504 18.4336C15.0573 18.7924 15.516 18.9155 15.8748 18.7085C16.2336 18.5015 16.3566 18.0428 16.1496 17.6841L14.983 15.6618Z" fill="black"/>
</svg>
