<svg width="24" height="24" viewBox="0 0 24 24" fill="none" xmlns="http://www.w3.org/2000/svg">
<path d="M1.5 16.5714V7.42857C1.5 4.15431 4.15431 1.5 7.42857 1.5H16.5714C19.8457 1.5 22.5 4.15431 22.5 7.42857V16.5714C22.5 19.8457 19.8457 22.5 16.5714 22.5H7.42857C4.15431 22.5 1.5 19.8457 1.5 16.5714ZM7.42857 24H16.5714C20.6741 24 24 20.6741 24 16.5714V7.42857C24 3.32588 20.6741 0 16.5714 0H7.42857C3.32588 0 0 3.32588 0 7.42857V16.5714C0 20.6741 3.32588 24 7.42857 24ZM12.4526 5.96419C12.2726 5.58081 11.7274 5.58081 11.5474 5.96419L10.0635 9.12529C9.92192 9.42687 9.63947 9.63814 9.31018 9.68875L5.96114 10.2035C5.55902 10.2653 5.39512 10.7559 5.67935 11.047L8.14727 13.5746C8.36909 13.8018 8.46983 14.1208 8.41872 14.4342L7.83978 17.9836C7.77259 18.3956 8.20994 18.7036 8.57523 18.5016L11.5161 16.8754C11.8172 16.7089 12.1828 16.7089 12.4839 16.8754L15.4248 18.5016C15.7901 18.7036 16.2274 18.3956 16.1602 17.9836L15.5813 14.4342C15.5302 14.1208 15.6309 13.8018 15.8527 13.5746L18.3207 11.047C18.6049 10.7559 18.441 10.2653 18.0389 10.2035L14.6898 9.68875C14.3605 9.63814 14.0781 9.42687 13.9365 9.12529L12.4526 5.96419Z" fill="black"/>
</svg>
