<svg width="24" height="24" viewBox="0 0 24 24" fill="none" xmlns="http://www.w3.org/2000/svg">
<path d="M1.5 7.42857C1.5 4.15431 4.15431 1.5 7.42857 1.5H16.5714C19.8457 1.5 22.5 4.15431 22.5 7.42857V16.5714C22.5 19.8457 19.8457 22.5 16.5714 22.5H7.42857C4.15431 22.5 1.5 19.8457 1.5 16.5714V7.42857ZM0 16.5714C0 20.6741 3.32588 24 7.42857 24H16.5714C20.6741 24 24 20.6741 24 16.5714V7.42857C24 3.32588 20.6741 0 16.5714 0H7.42857C3.32588 0 0 3.32588 0 7.42857V16.5714Z" fill="black"/>
<path d="M8.19922 18.75C8.61343 18.75 8.94922 18.4142 8.94922 18V5.99998C8.94922 5.58577 8.61343 5.24998 8.19922 5.24998C7.78501 5.24998 7.44922 5.58577 7.44922 5.99998V18C7.44922 18.4142 7.78501 18.75 8.19922 18.75Z" fill="black"/>
<path d="M14.5007 17.6232C14.5351 17.6572 14.5716 17.6897 14.6129 17.7148C15.1405 18.0347 15.7871 17.587 15.7871 16.8694V7.13107C15.7871 6.41322 15.1401 5.96461 14.6125 6.28592C14.5714 6.31091 14.5353 6.34317 14.5011 6.37692L9.67085 11.1441C9.63593 11.1785 9.59778 11.2096 9.56085 11.2419C9.13054 11.6183 9.13076 12.3824 9.56091 12.7591C9.59732 12.791 9.63491 12.8217 9.66936 12.8557L14.5007 17.6232Z" fill="black"/>
</svg>
