<svg width="24" height="24" viewBox="0 0 24 24" fill="none" xmlns="http://www.w3.org/2000/svg">
<path d="M1.5 7.42857C1.5 4.15431 4.15431 1.5 7.42857 1.5H16.5714C19.8457 1.5 22.5 4.15431 22.5 7.42857V16.5714C22.5 19.8457 19.8457 22.5 16.5714 22.5H7.42857C4.15431 22.5 1.5 19.8457 1.5 16.5714V7.42857ZM0 16.5714C0 20.6741 3.32588 24 7.42857 24H16.5714C20.6741 24 24 20.6741 24 16.5714V7.42857C24 3.32588 20.6741 0 16.5714 0H7.42857C3.32588 0 0 3.32588 0 7.42857V16.5714Z" fill="black"/>
<path d="M15.7871 5.25002C15.3729 5.25002 15.0371 5.5858 15.0371 6.00002V18C15.0371 18.4142 15.3729 18.75 15.7871 18.75C16.2013 18.75 16.5371 18.4142 16.5371 18V6.00002C16.5371 5.5858 16.2013 5.25002 15.7871 5.25002Z" fill="black"/>
<path d="M9.48563 6.3768C9.45119 6.34281 9.41476 6.31034 9.37339 6.28524C8.84586 5.96527 8.19922 6.41297 8.19922 7.1306V16.8689C8.19922 17.5868 8.84626 18.0354 9.37388 17.7141C9.41492 17.6891 9.45106 17.6568 9.48526 17.6231L14.3155 12.8559C14.3504 12.8215 14.3885 12.7904 14.4255 12.7581C14.8558 12.3817 14.8556 11.6176 14.4254 11.2409C14.389 11.209 14.3514 11.1783 14.317 11.1443L9.48563 6.3768Z" fill="black"/>
</svg>
