<svg width="24" height="24" viewBox="0 0 24 24" fill="none" xmlns="http://www.w3.org/2000/svg">
<path d="M1.5 7.42857C1.5 4.15431 4.15431 1.5 7.42857 1.5H16.5714C19.8457 1.5 22.5 4.15431 22.5 7.42857V16.5714C22.5 19.8457 19.8457 22.5 16.5714 22.5H7.42857C4.15431 22.5 1.5 19.8457 1.5 16.5714V7.42857ZM0 16.5714C0 20.6741 3.32588 24 7.42857 24H16.5714C20.6741 24 24 20.6741 24 16.5714V7.42857C24 3.32588 20.6741 0 16.5714 0H7.42857C3.32588 0 0 3.32588 0 7.42857V16.5714Z" fill="black"/>
<path d="M11.8806 4.46967C11.5877 4.76257 11.5877 5.23744 11.8806 5.53033L12.7503 6.39998L11.8806 7.26962C11.5877 7.56251 11.5877 8.03739 11.8806 8.33028C12.1735 8.62317 12.6484 8.62317 12.9413 8.33028L14.3412 6.93031C14.6341 6.63741 14.6341 6.16254 14.3412 5.86965L12.9413 4.46967C12.6484 4.17678 12.1735 4.17678 11.8806 4.46967Z" fill="black"/>
<path d="M12.1147 15.6696C11.8218 15.3767 11.3469 15.3767 11.054 15.6696L9.65405 17.0696C9.36115 17.3625 9.36115 17.8374 9.65405 18.1303L11.054 19.5302C11.3469 19.8231 11.8218 19.8231 12.1147 19.5302C12.4076 19.2373 12.4076 18.7625 12.1147 18.4696L11.245 17.5999L12.1147 16.7303C12.4076 16.4374 12.4076 15.9625 12.1147 15.6696Z" fill="black"/>
<path d="M16.7745 8.98528C16.3984 9.15884 16.2342 9.60442 16.4077 9.98052C16.6909 10.594 16.8494 11.2769 16.8494 11.9995C16.8494 14.6778 14.6778 16.8494 11.9995 16.8494C11.525 16.8494 11.0662 16.7783 10.6283 16.6495C10.2309 16.5328 9.81401 16.7602 9.69723 17.1577C9.58044 17.5551 9.80793 17.9719 10.2053 18.0887C10.7725 18.2554 11.3736 18.3494 11.9995 18.3494C15.5062 18.3494 18.3494 15.5063 18.3494 11.9995C18.3494 11.0549 18.1417 10.1581 17.7697 9.352C17.5961 8.9759 17.1506 8.81172 16.7745 8.98528Z" fill="black"/>
<path d="M11.9991 7.14966C12.4736 7.14966 12.9323 7.22082 13.3703 7.34953C13.7677 7.46632 14.1846 7.23883 14.3014 6.84142C14.4181 6.44401 14.1907 6.02717 13.7932 5.91038C13.226 5.7437 12.625 5.64966 11.9991 5.64966C8.49236 5.64966 5.64922 8.4928 5.64922 11.9996C5.64922 12.9432 5.85604 13.8402 6.22706 14.6466C6.40019 15.0229 6.84558 15.1876 7.22188 15.0145C7.59818 14.8413 7.76288 14.3959 7.58976 14.0196C7.30724 13.4056 7.14922 12.7221 7.14922 11.9996C7.14922 9.32123 9.32078 7.14966 11.9991 7.14966Z" fill="black"/>
</svg>
