<svg width="24" height="24" viewBox="0 0 24 24" fill="none" xmlns="http://www.w3.org/2000/svg">
<path d="M1.5 16.5714V7.42857C1.5 4.15431 4.15431 1.5 7.42857 1.5H16.5714C19.8457 1.5 22.5 4.15431 22.5 7.42857V16.5714C22.5 19.8457 19.8457 22.5 16.5714 22.5H7.42857C4.15431 22.5 1.5 19.8457 1.5 16.5714ZM7.42857 24H16.5714C20.6741 24 24 20.6741 24 16.5714V7.42857C24 3.32588 20.6741 0 16.5714 0H7.42857C3.32588 0 0 3.32588 0 7.42857V16.5714C0 20.6741 3.32588 24 7.42857 24ZM11.79 5.5H7.5C6.39543 5.5 5.5 6.39543 5.5 7.5V11.791C5.5 12.3217 5.71086 12.8305 6.08617 13.2056L10.9798 18.0966C11.757 18.8734 13.0152 18.8777 13.7977 18.1063L18.1097 13.8555C18.8994 13.077 18.9049 11.8046 18.122 11.0192L13.2065 6.08804C12.8312 5.71159 12.3216 5.5 11.79 5.5ZM9.49909 10.3541C9.02713 10.3541 8.64453 9.97155 8.64453 9.49958C8.64453 9.02762 9.02713 8.64502 9.49909 8.64502C9.97106 8.64502 10.3537 9.02762 10.3537 9.49958C10.3537 9.97155 9.97106 10.3541 9.49909 10.3541Z" fill="black"/>
</svg>
