<svg width="24" height="24" viewBox="0 0 24 24" fill="none" xmlns="http://www.w3.org/2000/svg">
<path d="M7.42857 22.5C4.15431 22.5 1.5 19.8457 1.5 16.5714V7.42857C1.5 4.15431 4.15431 1.5 7.42857 1.5H16.5714C19.8457 1.5 22.5 4.15431 22.5 7.42857V16.5714C22.5 19.8457 19.8457 22.5 16.5714 22.5H7.42857ZM16.5714 24C20.6741 24 24 20.6741 24 16.5714V7.42857C24 3.32588 20.6741 0 16.5714 0H7.42857C3.32588 0 0 3.32588 0 7.42857V16.5714C0 20.6741 3.32588 24 7.42857 24H16.5714Z" fill="black"/>
<path d="M11.0145 15.6924C11.0145 16.1342 11.3726 16.4924 11.8145 16.4924H16.9996C17.4415 16.4924 17.7996 16.1342 17.7996 15.6924C17.7996 15.2506 17.4415 14.8924 16.9996 14.8924H11.8145C11.3726 14.8924 11.0145 15.2506 11.0145 15.6924Z" fill="black"/>
<path d="M6.44509 7.42375C6.12683 7.73022 6.11728 8.23666 6.42375 8.55492L9.59309 11.8462L6.42375 15.1374C6.11728 15.4557 6.12683 15.9621 6.44509 16.2686C6.76335 16.575 7.26979 16.5655 7.57626 16.2472L11.28 12.4011C11.5783 12.0913 11.5783 11.601 11.28 11.2912L7.57626 7.44509C7.26979 7.12683 6.76335 7.11728 6.44509 7.42375Z" fill="black"/>
</svg>
