<svg width="24" height="24" viewBox="0 0 24 24" fill="none" xmlns="http://www.w3.org/2000/svg">
<path d="M16.5714 1.5C19.8457 1.5 22.5 4.15431 22.5 7.42857V16.5714C22.5 19.8457 19.8457 22.5 16.5714 22.5H7.42857C4.15431 22.5 1.5 19.8457 1.5 16.5714V7.42857C1.5 4.15431 4.15431 1.5 7.42857 1.5H16.5714ZM24 7.42857C24 3.32588 20.6741 0 16.5714 0H7.42857C3.32588 0 0 3.32588 0 7.42857V16.5714C0 20.6741 3.32588 24 7.42857 24H16.5714C20.6741 24 24 20.6741 24 16.5714V7.42857ZM17.1241 10.8663C17.6888 10.8663 18 10.4081 18 9.84341V7.32295C18 6.75831 17.5417 6.30005 16.9771 6.30005L14.4403 6.30005C13.8757 6.30005 13.4174 6.75831 13.4174 7.32295V9.84342C13.4174 10.4081 13.8757 10.8663 14.4403 10.8663L17.1241 10.8663ZM11.7846 6.78772C11.7846 6.37351 11.4488 6.03772 11.0346 6.03772H6.00003C5.58582 6.03772 5.25003 6.37351 5.25003 6.78772C5.25003 7.20194 5.58582 7.53772 6.00003 7.53772H11.0346C11.4488 7.53772 11.7846 7.20194 11.7846 6.78772ZM11.0346 9.63377H6.00003C5.58582 9.63377 5.25003 9.96956 5.25003 10.3838C5.25003 10.798 5.58582 11.1338 6.00003 11.1338H11.0346C11.4488 11.1338 11.7846 10.798 11.7846 10.3838C11.7846 9.96956 11.4488 9.63377 11.0346 9.63377ZM18.2578 13.9797C18.2578 14.3939 17.922 14.7297 17.5078 14.7297H6.0002C5.58599 14.7297 5.2502 14.3939 5.2502 13.9797C5.2502 13.5655 5.58599 13.2297 6.0002 13.2297H17.5078C17.922 13.2297 18.2578 13.5655 18.2578 13.9797ZM17.5078 16.8261H6.0002C5.58599 16.8261 5.2502 17.1619 5.2502 17.5761C5.2502 17.9903 5.58599 18.3261 6.0002 18.3261H17.5078C17.922 18.3261 18.2578 17.9903 18.2578 17.5761C18.2578 17.1619 17.922 16.8261 17.5078 16.8261Z" fill="black"/>
</svg>
