<svg width="24" height="24" viewBox="0 0 24 24" fill="none" xmlns="http://www.w3.org/2000/svg">
<path d="M1.5 7.42857C1.5 4.15431 4.15431 1.5 7.42857 1.5H16.5714C19.8457 1.5 22.5 4.15431 22.5 7.42857V16.5714C22.5 19.8457 19.8457 22.5 16.5714 22.5H7.42857C4.15431 22.5 1.5 19.8457 1.5 16.5714V7.42857ZM0 16.5714C0 20.6741 3.32588 24 7.42857 24H16.5714C20.6741 24 24 20.6741 24 16.5714V7.42857C24 3.32588 20.6741 0 16.5714 0H7.42857C3.32588 0 0 3.32588 0 7.42857V16.5714Z" fill="black"/>
<path d="M11.4191 14.1614V16.3549C11.4191 17.2635 12.1557 18.0001 13.0643 18.0001L15.2578 13.0646V7.83229C15.2578 7.39046 14.8996 7.03229 14.4578 7.03229H9.24522C8.42555 7.03229 7.70939 7.58606 7.50314 8.37935L6.58558 11.9085C6.28915 13.0486 7.14965 14.1614 8.32766 14.1614H11.4191Z" fill="black"/>
<path d="M16.2667 7.03181V13.0641H17C17.5523 13.0641 18 12.6163 18 12.0641V8.03181C18 7.47952 17.5523 7.03181 17 7.03181H16.2667Z" fill="black"/>
</svg>
