<svg width="24" height="24" viewBox="0 0 24 24" fill="none" xmlns="http://www.w3.org/2000/svg">
<path d="M22.5 16.5714C22.5 19.8457 19.8457 22.5 16.5714 22.5H7.42857C4.15431 22.5 1.5 19.8457 1.5 16.5714V7.42857C1.5 4.15431 4.15431 1.5 7.42857 1.5H16.5714C19.8457 1.5 22.5 4.15431 22.5 7.42857V16.5714ZM24 7.42857C24 3.32588 20.6741 0 16.5714 0H7.42857C3.32588 0 0 3.32588 0 7.42857V16.5714C0 20.6741 3.32588 24 7.42857 24H16.5714C20.6741 24 24 20.6741 24 16.5714V7.42857Z" fill="black"/>
<path d="M12.5809 9.83864V7.64509C12.5809 6.73649 11.8443 5.99993 10.9357 5.99993L8.74219 10.9354V16.1677C8.74219 16.6096 9.10036 16.9677 9.54219 16.9677H14.7548C15.5745 16.9677 16.2906 16.414 16.4969 15.6207L17.4144 12.0916C17.7108 10.9515 16.8503 9.83864 15.6723 9.83864H12.5809Z" fill="black"/>
<path d="M7.73332 16.9682V10.936H7C6.44772 10.936 6 11.3837 6 11.936V15.9682C6 16.5205 6.44772 16.9682 7 16.9682H7.73332Z" fill="black"/>
</svg>
