<svg width="24" height="24" viewBox="0 0 24 24" fill="none" xmlns="http://www.w3.org/2000/svg">
<path d="M22.5 7.42857V16.5714C22.5 19.8457 19.8457 22.5 16.5714 22.5H7.42857C4.15431 22.5 1.5 19.8457 1.5 16.5714L1.5 7.42857C1.5 4.15431 4.15431 1.5 7.42857 1.5L16.5714 1.5C19.8457 1.5 22.5 4.15431 22.5 7.42857ZM16.5714 0L7.42857 0C3.32589 0 0 3.32588 0 7.42857L0 16.5714C0 20.6741 3.32589 24 7.42857 24H16.5714C20.6741 24 24 20.6741 24 16.5714V7.42857C24 3.32588 20.6741 0 16.5714 0ZM7.32824 16.8715C7.69924 17.2425 8.30074 17.2425 8.67174 16.8715L12.2598 13.2835L15.8478 16.8715C16.2188 17.2425 16.8203 17.2425 17.1913 16.8715C17.5623 16.5005 17.5623 15.899 17.1913 15.528L13.6033 11.94L17.1913 8.35201C17.5623 7.98102 17.5623 7.37951 17.1913 7.00851C16.8203 6.63751 16.2188 6.63751 15.8478 7.00851L12.2598 10.5965L8.67174 7.0085C8.30074 6.6375 7.69924 6.6375 7.32824 7.0085C6.95724 7.3795 6.95724 7.981 7.32824 8.352L10.9163 11.94L7.32824 15.528C6.95724 15.899 6.95724 16.5005 7.32824 16.8715Z" fill="black"/>
</svg>
