<svg width="24" height="24" viewBox="0 0 24 24" fill="none" xmlns="http://www.w3.org/2000/svg">
<path d="M22.5 16.5714C22.5 19.8457 19.8457 22.5 16.5714 22.5H7.42857C4.15431 22.5 1.5 19.8457 1.5 16.5714V7.42857C1.5 4.15431 4.15431 1.5 7.42857 1.5H16.5714C19.8457 1.5 22.5 4.15431 22.5 7.42857V16.5714ZM24 7.42857C24 3.32588 20.6741 0 16.5714 0H7.42857C3.32588 0 0 3.32588 0 7.42857V16.5714C0 20.6741 3.32588 24 7.42857 24H16.5714C20.6741 24 24 20.6741 24 16.5714V7.42857Z" fill="black"/>
<path d="M14.7222 16.2003C17.0848 16.2003 19 14.3199 19 12.0003C19 9.68072 17.0848 7.80032 14.7222 7.80032H9.27778C6.91523 7.80032 5 9.68072 5 12.0003C5 14.3199 6.91523 16.2003 9.27778 16.2003H14.7222ZM12.35 12.0003C12.35 10.6472 13.4469 9.55032 14.8 9.55032C16.1531 9.55032 17.25 10.6472 17.25 12.0003C17.25 13.3534 16.1531 14.4503 14.8 14.4503C13.4469 14.4503 12.35 13.3534 12.35 12.0003Z" fill="black"/>
</svg>
