<svg width="24" height="24" viewBox="0 0 24 24" fill="none" xmlns="http://www.w3.org/2000/svg">
<path d="M22.5 7.42857V16.5714C22.5 19.8457 19.8457 22.5 16.5714 22.5H7.42857C4.15431 22.5 1.5 19.8457 1.5 16.5714V7.42857C1.5 4.15431 4.15431 1.5 7.42857 1.5H16.5714C19.8457 1.5 22.5 4.15431 22.5 7.42857ZM16.5714 0H7.42857C3.32588 0 0 3.32588 0 7.42857V16.5714C0 20.6741 3.32588 24 7.42857 24H16.5714C20.6741 24 24 20.6741 24 16.5714V7.42857C24 3.32588 20.6741 0 16.5714 0ZM14.7222 7.7998H9.27778C6.91523 7.7998 5 9.68021 5 11.9998C5 14.3194 6.91523 16.1998 9.27778 16.1998H14.7222C17.0848 16.1998 19 14.3194 19 11.9998C19 9.68021 17.0848 7.7998 14.7222 7.7998ZM9.2 14.4498C7.8469 14.4498 6.75 13.3529 6.75 11.9998C6.75 10.6467 7.8469 9.5498 9.2 9.5498C10.5531 9.5498 11.65 10.6467 11.65 11.9998C11.65 13.3529 10.5531 14.4498 9.2 14.4498Z" fill="black"/>
</svg>
