<svg width="24" height="24" viewBox="0 0 24 24" fill="none" xmlns="http://www.w3.org/2000/svg">
<path d="M16.5714 1.5C19.8457 1.5 22.5 4.15431 22.5 7.42857V16.5714C22.5 19.8457 19.8457 22.5 16.5714 22.5H7.42857C4.15431 22.5 1.5 19.8457 1.5 16.5714V7.42857C1.5 4.15431 4.15431 1.5 7.42857 1.5H16.5714ZM7.42857 0C3.32588 0 0 3.32588 0 7.42857V16.5714C0 20.6741 3.32588 24 7.42857 24H16.5714C20.6741 24 24 20.6741 24 16.5714V7.42857C24 3.32588 20.6741 0 16.5714 0H7.42857Z" fill="black"/>
<path d="M10.6622 10.1868L9.4461 8.9707L9.73681 8.09858C9.78493 7.95423 9.74736 7.79509 9.63977 7.68749L8.16277 6.21049C8.00589 6.05361 7.75154 6.05361 7.59466 6.21049L6.11766 7.68749C6.04232 7.76283 6 7.86501 6 7.97155C6 8.07809 6.04232 8.18027 6.11766 8.2556L7.59466 9.7326C7.70225 9.84019 7.8614 9.87776 8.00574 9.82965L8.87806 9.53887L10.0596 10.7204L10.6622 10.1868ZM11.6168 14.8624L14.0828 17.3284C14.9782 18.2238 16.3931 18.2238 17.2885 17.3284C18.1838 16.433 18.1838 15.0182 17.2885 14.1228L17.2819 14.1164L17.2767 14.1115L15.3079 12.2957C15.2934 12.2984 15.2788 12.3005 15.2641 12.302C14.8212 12.3463 14.3734 12.3601 13.9158 12.2659L11.6168 14.8624Z" fill="black"/>
<path d="M16.4726 8.92648C16.0969 9.3022 15.4875 9.30191 15.1049 8.91931L14.6336 8.44801C14.2539 8.06833 14.2512 7.45541 14.6264 7.08023L15.5286 6.17803C15.1593 6.01978 14.7901 5.96703 14.3681 6.01978C12.8911 6.12528 11.6778 7.44403 11.7306 8.97378C11.7306 9.29028 11.7833 9.55403 11.8888 9.81778L6.82482 14.3015C6.08632 14.9873 6.03357 16.1478 6.71932 16.8335C7.45782 17.572 8.61832 17.5193 9.25132 16.728L13.7351 11.664C14.2098 11.8223 14.6846 11.8223 15.2121 11.7695C16.2671 11.5585 17.1111 10.7673 17.4276 9.71228C17.5858 9.13203 17.5858 8.55178 17.3748 8.02428L16.4726 8.92648Z" fill="black"/>
</svg>
