<svg width="24" height="24" viewBox="0 0 24 24" fill="none" xmlns="http://www.w3.org/2000/svg">
<path d="M22.5 7.42857V16.5714C22.5 19.8457 19.8457 22.5 16.5714 22.5H7.42857C4.15431 22.5 1.5 19.8457 1.5 16.5714V7.42857C1.5 4.15431 4.15431 1.5 7.42857 1.5H16.5714C19.8457 1.5 22.5 4.15431 22.5 7.42857ZM16.5714 0H7.42857C3.32588 0 0 3.32588 0 7.42857V16.5714C0 20.6741 3.32588 24 7.42857 24H16.5714C20.6741 24 24 20.6741 24 16.5714V7.42857C24 3.32588 20.6741 0 16.5714 0ZM12.9412 6.3C13.3038 6.3 13.602 6.57576 13.6376 6.92902H10.35C10.3856 6.57576 10.6838 6.3 11.0465 6.3H12.9412ZM14.9399 6.92902C14.9025 5.85732 14.022 5 12.9412 5H11.0465C9.96568 5 9.0851 5.85732 9.04772 6.92902H6.09922C5.74024 6.92902 5.44922 7.22004 5.44922 7.57902C5.44922 7.93801 5.74024 8.22902 6.09922 8.22902H6.9031L7.49045 17.132C7.5598 18.1831 8.43265 19.0003 9.48611 19.0003H14.5015C15.5549 19.0003 16.4278 18.1831 16.4971 17.132L17.0845 8.22902H17.8886C18.2476 8.22902 18.5386 7.93801 18.5386 7.57902C18.5386 7.22004 18.2476 6.92902 17.8886 6.92902H14.9399ZM10.6832 10.6136C11.0422 10.6136 11.3332 10.9047 11.3332 11.2636V15.2426C11.3332 15.6015 11.0422 15.8926 10.6832 15.8926C10.3242 15.8926 10.0332 15.6015 10.0332 15.2426V11.2636C10.0332 10.9047 10.3242 10.6136 10.6832 10.6136ZM13.9543 11.2636V15.2426C13.9543 15.6015 13.6633 15.8926 13.3043 15.8926C12.9453 15.8926 12.6543 15.6015 12.6543 15.2426V11.2636C12.6543 10.9047 12.9453 10.6136 13.3043 10.6136C13.6633 10.6136 13.9543 10.9047 13.9543 11.2636Z" fill="black"/>
</svg>
