<svg width="24" height="24" viewBox="0 0 24 24" fill="none" xmlns="http://www.w3.org/2000/svg">
<path d="M16.5714 22.5H7.42857C4.15431 22.5 1.5 19.8457 1.5 16.5714V7.42857C1.5 4.15431 4.15431 1.5 7.42857 1.5H16.5714C19.8457 1.5 22.5 4.15431 22.5 7.42857V16.5714C22.5 19.8457 19.8457 22.5 16.5714 22.5ZM7.42857 24H16.5714C20.6741 24 24 20.6741 24 16.5714V7.42857C24 3.32588 20.6741 0 16.5714 0H7.42857C3.32588 0 0 3.32588 0 7.42857V16.5714C0 20.6741 3.32588 24 7.42857 24ZM17.8998 15.5C18.2312 15.5 18.4998 15.2314 18.4998 14.9V12.1323C18.4998 11.5977 17.8535 11.33 17.4755 11.708L16.6223 12.5612L13.1646 9.10347C12.4811 8.42006 11.3731 8.42006 10.6897 9.10347L9.02487 10.7683C8.92724 10.8659 8.76895 10.8659 8.67132 10.7683L5.53033 7.62729C5.23744 7.3344 4.76256 7.3344 4.46967 7.62729C4.17678 7.92019 4.17678 8.39506 4.46967 8.68796L7.61066 11.8289C8.29408 12.5124 9.40212 12.5124 10.0855 11.8289L11.7503 10.1641C11.848 10.0665 12.0063 10.0665 12.1039 10.1641L15.5617 13.6219L14.7078 14.4757C14.3298 14.8537 14.5975 15.5 15.1321 15.5H17.8998Z" fill="black"/>
</svg>
