<svg width="24" height="24" viewBox="0 0 24 24" fill="none" xmlns="http://www.w3.org/2000/svg">
<path d="M16.5714 1.5C19.8457 1.5 22.5 4.15431 22.5 7.42857V16.5714C22.5 19.8457 19.8457 22.5 16.5714 22.5H7.42857C4.15431 22.5 1.5 19.8457 1.5 16.5714V7.42857C1.5 4.15431 4.15431 1.5 7.42857 1.5H16.5714ZM7.42857 0C3.32588 0 0 3.32588 0 7.42857V16.5714C0 20.6741 3.32588 24 7.42857 24H16.5714C20.6741 24 24 20.6741 24 16.5714V7.42857C24 3.32588 20.6741 0 16.5714 0H7.42857ZM17.8998 8.5H15.1321C14.5975 8.5 14.3298 9.14629 14.7078 9.52426L15.5617 10.3781L12.1039 13.8359C12.0063 13.9335 11.848 13.9335 11.7503 13.8359L10.0855 12.1711C9.40212 11.4876 8.29408 11.4876 7.61066 12.1711L4.46967 15.312C4.17678 15.6049 4.17678 16.0798 4.46967 16.3727C4.76256 16.6656 5.23744 16.6656 5.53033 16.3727L8.67132 13.2317C8.76895 13.1341 8.92724 13.1341 9.02487 13.2317L10.6897 14.8965C11.3731 15.5799 12.4811 15.5799 13.1646 14.8965L16.6223 11.4388L17.4755 12.292C17.8535 12.67 18.4998 12.4023 18.4998 11.8677V9.1C18.4998 8.76863 18.2312 8.5 17.8998 8.5Z" fill="black"/>
</svg>
