<svg width="24" height="24" viewBox="0 0 24 24" fill="none" xmlns="http://www.w3.org/2000/svg">
<path d="M16.5714 1.5C19.8457 1.5 22.5 4.15431 22.5 7.42857V16.5714C22.5 19.8457 19.8457 22.5 16.5714 22.5H7.42857C4.15431 22.5 1.5 19.8457 1.5 16.5714V7.42857C1.5 4.15431 4.15431 1.5 7.42857 1.5H16.5714ZM7.42857 0C3.32588 0 0 3.32588 0 7.42857V16.5714C0 20.6741 3.32588 24 7.42857 24H16.5714C20.6741 24 24 20.6741 24 16.5714V7.42857C24 3.32588 20.6741 0 16.5714 0H7.42857ZM6 10.6601V15.3267C6 16.4313 6.89543 17.3267 8 17.3267H16C17.1046 17.3267 18 16.4313 18 15.3267V10.6601C18 9.55551 17.1046 8.66008 16 8.66008H12.9192L14.4596 7.11965C14.7135 6.86581 14.7135 6.45426 14.4596 6.20041C14.2058 5.94657 13.7942 5.94657 13.5404 6.20041L12 7.7408L10.4596 6.20041C10.2058 5.94657 9.79421 5.94657 9.54037 6.20041C9.28653 6.45426 9.28653 6.86581 9.54037 7.11965L11.0808 8.66008H8C6.89543 8.66008 6 9.55551 6 10.6601Z" fill="black"/>
</svg>
