<svg width="24" height="24" viewBox="0 0 24 24" fill="none" xmlns="http://www.w3.org/2000/svg">
<path d="M7.42857 1.5H16.5714C19.8457 1.5 22.5 4.15431 22.5 7.42857V16.5714C22.5 19.8457 19.8457 22.5 16.5714 22.5H7.42857C4.15431 22.5 1.5 19.8457 1.5 16.5714V7.42857C1.5 4.15431 4.15431 1.5 7.42857 1.5ZM0 7.42857V16.5714C0 20.6741 3.32588 24 7.42857 24H16.5714C20.6741 24 24 20.6741 24 16.5714V7.42857C24 3.32588 20.6741 0 16.5714 0H7.42857C3.32588 0 0 3.32588 0 7.42857ZM5.07014 11.518C5.02423 11.8101 5.25642 12.0656 5.55211 12.0656H11.3225C11.3199 12.0895 11.3185 12.1139 11.3185 12.1385V17.1286C11.3185 18.5212 12.4472 19.6499 13.8398 19.6499C15.2323 19.6499 16.3611 18.5212 16.3611 17.1286C16.3611 16.7697 16.0701 16.4786 15.7111 16.4786C15.3521 16.4786 15.0611 16.7697 15.0611 17.1286C15.0611 17.8032 14.5144 18.3499 13.8398 18.3499C13.1652 18.3499 12.6185 17.8032 12.6185 17.1286V12.1385C12.6185 12.1139 12.6171 12.0895 12.6144 12.0656H18.3842C18.6798 12.0656 18.912 11.8101 18.8661 11.518C18.3684 8.35152 16.2865 5.341 12.6089 5.02695C12.556 4.72113 12.2894 4.48853 11.9685 4.48853C11.6476 4.48853 11.381 4.72107 11.328 5.02683C7.64962 5.34023 5.56789 8.35112 5.07014 11.518Z" fill="black"/>
</svg>
