<svg width="24" height="24" viewBox="0 0 24 24" fill="none" xmlns="http://www.w3.org/2000/svg">
<path d="M16.5714 1.5C19.8457 1.5 22.5 4.15431 22.5 7.42857V16.5714C22.5 19.8457 19.8457 22.5 16.5714 22.5H7.42857C4.15431 22.5 1.5 19.8457 1.5 16.5714V7.42857C1.5 4.15431 4.15431 1.5 7.42857 1.5H16.5714ZM7.42857 0C3.32588 0 0 3.32588 0 7.42857V16.5714C0 20.6741 3.32588 24 7.42857 24H16.5714C20.6741 24 24 20.6741 24 16.5714V7.42857C24 3.32588 20.6741 0 16.5714 0H7.42857Z" fill="black"/>
<path d="M7 18.0667C7 18.5821 7.41787 19 7.93333 19H16.3333C16.8488 19 17.2667 18.5821 17.2667 18.0667C17.2667 17.5512 16.8488 17.1333 16.3333 17.1333H7.93333C7.41787 17.1333 7 17.5512 7 18.0667Z" fill="black"/>
<path d="M8.63255 5C8.11709 5 7.69922 5.41787 7.69922 5.93333V10.8333C7.69922 13.2815 9.68439 15.2667 12.1326 15.2667C14.5807 15.2667 16.5659 13.2815 16.5659 10.8333V5.93333C16.5659 5.41787 16.148 5 15.6326 5C15.1171 5 14.6992 5.41787 14.6992 5.93333V10.8333C14.6992 12.2506 13.5498 13.4 12.1326 13.4C10.7153 13.4 9.56589 12.2506 9.56589 10.8333V5.93333C9.56589 5.41787 9.14802 5 8.63255 5Z" fill="black"/>
</svg>
