<svg width="24" height="24" viewBox="0 0 24 24" fill="none" xmlns="http://www.w3.org/2000/svg">
<path d="M22.5 16.5714C22.5 19.8457 19.8457 22.5 16.5714 22.5H7.42857C4.15431 22.5 1.5 19.8457 1.5 16.5714V7.42857C1.5 4.15431 4.15431 1.5 7.42857 1.5H16.5714C19.8457 1.5 22.5 4.15431 22.5 7.42857V16.5714ZM24 7.42857C24 3.32588 20.6741 0 16.5714 0H7.42857C3.32588 0 0 3.32588 0 7.42857V16.5714C0 20.6741 3.32588 24 7.42857 24H16.5714C20.6741 24 24 20.6741 24 16.5714V7.42857Z" fill="black"/>
<path d="M6 6.79082C5.55817 6.79082 5.2 7.14899 5.2 7.59082V11.1699C5.2 11.6117 5.55817 11.9699 6 11.9699H9.60013C10.042 11.9699 10.4001 11.6117 10.4001 11.1699C10.4001 10.7281 10.042 10.3699 9.60013 10.3699H6.8V7.59082C6.8 7.14899 6.44183 6.79082 6 6.79082Z" fill="black"/>
<path d="M8.22945 7.99273L5.45389 10.5855C5.13102 10.8872 5.11379 11.3934 5.4154 11.7163C5.71701 12.0391 6.22325 12.0564 6.54611 11.7548L9.33021 9.15396C9.33611 9.14845 9.34192 9.14285 9.34765 9.13717C10.7975 7.69824 13.0319 7.38499 14.8267 8.37137C16.6203 9.35708 17.5386 11.4005 17.0851 13.3815C16.6315 15.3632 14.9125 16.8126 12.864 16.9298C10.8153 17.047 8.93967 15.803 8.26011 13.8855C8.11252 13.469 7.65528 13.2511 7.23883 13.3987C6.82238 13.5462 6.60442 14.0035 6.75201 14.4199C7.67091 17.0129 10.2017 18.6847 12.9554 18.5272C15.7093 18.3696 18.031 16.4198 18.6448 13.7385C19.2587 11.0565 18.0137 8.29713 15.5973 6.96917C13.1859 5.64388 10.1841 6.06051 8.22945 7.99273Z" fill="black"/>
</svg>
