<svg width="24" height="24" viewBox="0 0 24 24" fill="none" xmlns="http://www.w3.org/2000/svg">
<path d="M17.4998 13.0333C17.058 13.0333 16.6998 13.3915 16.6998 13.8333V16.2778C16.6998 16.511 16.5108 16.7 16.2776 16.7H7.72203C7.48884 16.7 7.2998 16.511 7.2998 16.2778V13.8333C7.2998 13.3915 6.94163 13.0333 6.4998 13.0333C6.05798 13.0333 5.6998 13.3915 5.6998 13.8333V16.2778C5.6998 17.3946 6.60518 18.3 7.72203 18.3H16.2776C17.3944 18.3 18.2998 17.3946 18.2998 16.2778V13.8333C18.2998 13.3915 17.9416 13.0333 17.4998 13.0333Z" fill="black"/>
<path d="M15.6221 10.1218C15.9345 9.80935 15.9345 9.30281 15.6221 8.99039L12.5666 5.93484C12.4292 5.79741 12.2542 5.72044 12.0747 5.70391C12.05 5.70162 12.025 5.70046 11.9998 5.70046C11.7659 5.70046 11.5554 5.80087 11.4091 5.96094L8.37965 8.99039C8.06723 9.30281 8.06723 9.80935 8.37965 10.1218C8.69207 10.4342 9.1986 10.4342 9.51102 10.1218L11.1998 8.43298V13.8338C11.1998 14.2756 11.558 14.6338 11.9998 14.6338C12.4416 14.6338 12.7998 14.2756 12.7998 13.8338V8.43081L14.4908 10.1218C14.8032 10.4342 15.3097 10.4342 15.6221 10.1218Z" fill="black"/>
<path d="M0 16.5714C0 20.6741 3.32588 24 7.42857 24H16.5714C20.6741 24 24 20.6741 24 16.5714V7.42857C24 3.32588 20.6741 0 16.5714 0H7.42857C3.32588 0 0 3.32588 0 7.42857V16.5714ZM16.5714 1.5C19.8457 1.5 22.5 4.15431 22.5 7.42857V16.5714C22.5 19.8457 19.8457 22.5 16.5714 22.5H7.42857C4.15431 22.5 1.5 19.8457 1.5 16.5714V7.42857C1.5 4.15431 4.15431 1.5 7.42857 1.5H16.5714Z" fill="black"/>
</svg>
