<svg width="24" height="24" viewBox="0 0 24 24" fill="none" xmlns="http://www.w3.org/2000/svg">
<path d="M7.42857 1.5H16.5714C19.8457 1.5 22.5 4.15431 22.5 7.42857V16.5714C22.5 19.8457 19.8457 22.5 16.5714 22.5H7.42857C4.15431 22.5 1.5 19.8457 1.5 16.5714V7.42857C1.5 4.15431 4.15431 1.5 7.42857 1.5ZM0 7.42857V16.5714C0 20.6741 3.32588 24 7.42857 24H16.5714C20.6741 24 24 20.6741 24 16.5714V7.42857C24 3.32588 20.6741 0 16.5714 0H7.42857C3.32588 0 0 3.32588 0 7.42857ZM14.4711 8.84273C14.4711 7.27273 13.207 6 11.6476 6C10.0883 6 8.82419 7.27273 8.82419 8.84273C8.82419 8.89447 8.82557 8.94589 8.82828 8.99695L11.5136 11.6823C11.558 11.6844 11.6027 11.6855 11.6476 11.6855C13.207 11.6855 14.4711 10.4127 14.4711 8.84273ZM13.6335 17.4467L15.8343 19.6475C16.0882 19.9014 16.4997 19.9014 16.7536 19.6475C17.0074 19.3937 17.0074 18.9821 16.7536 18.7283L6.16565 8.14036C5.91181 7.88652 5.50025 7.88652 5.24641 8.14036C4.99257 8.3942 4.99257 8.80575 5.24641 9.0596L9.0979 12.9111C7.52589 13.2127 6.29585 14.4961 6.0178 16.1122C6.00887 16.164 6.00302 16.2509 6.00025 16.3726L5.99998 16.3965C5.99998 16.9765 6.47205 17.4467 7.05437 17.4467H13.6335ZM16.9776 17.1463C17.178 16.9504 17.3 16.6757 17.2935 16.374C17.2907 16.2451 17.2846 16.1535 17.275 16.0991C16.9511 14.2527 15.3838 12.8438 13.486 12.8438H12.6751L16.9776 17.1463Z" fill="black"/>
</svg>
