<svg width="24" height="24" viewBox="0 0 24 24" fill="none" xmlns="http://www.w3.org/2000/svg">
<path d="M7.42857 1.5H16.5714C19.8457 1.5 22.5 4.15431 22.5 7.42857V16.5714C22.5 19.8457 19.8457 22.5 16.5714 22.5H7.42857C4.15431 22.5 1.5 19.8457 1.5 16.5714V7.42857C1.5 4.15431 4.15431 1.5 7.42857 1.5ZM0 7.42857V16.5714C0 20.6741 3.32588 24 7.42857 24H16.5714C20.6741 24 24 20.6741 24 16.5714V7.42857C24 3.32588 20.6741 0 16.5714 0H7.42857C3.32588 0 0 3.32588 0 7.42857ZM14.2774 8.81302C14.2774 7.09352 12.8929 5.69958 11.1851 5.69958C9.47725 5.69958 8.09277 7.09352 8.09277 8.81302C8.09277 10.5325 9.47725 11.9265 11.1851 11.9265C12.8929 11.9265 14.2774 10.5325 14.2774 8.81302ZM16.5897 16.34C14.7577 16.34 13.2462 14.9676 13.0272 13.1948H9.17185L9.00166 13.1982C6.99535 13.28 5.35912 14.8007 5.01952 16.7744C5.00975 16.8312 5.00334 16.9263 5.0003 17.0597L5 17.0858C5 17.7211 5.51702 18.236 6.1548 18.236H11.1846H16.2144L16.2392 18.2358C16.8768 18.2222 17.3826 17.6963 17.369 17.0612C17.3659 16.92 17.3592 16.8197 17.3487 16.7601C17.3202 16.5974 17.2828 16.4377 17.2372 16.2818C17.0272 16.32 16.8108 16.34 16.5897 16.34ZM14.5543 12.7504C14.5543 13.0817 14.8229 13.3504 15.1543 13.3504H18.0261C18.3575 13.3504 18.6261 13.0817 18.6261 12.7504C18.6261 12.419 18.3575 12.1504 18.0261 12.1504H15.1543C14.8229 12.1504 14.5543 12.419 14.5543 12.7504Z" fill="black"/>
</svg>
