<svg width="24" height="24" viewBox="0 0 24 24" fill="none" xmlns="http://www.w3.org/2000/svg">
<path d="M7.42857 1.5H16.5714C19.8457 1.5 22.5 4.15431 22.5 7.42857V16.5714C22.5 19.8457 19.8457 22.5 16.5714 22.5H7.42857C4.15431 22.5 1.5 19.8457 1.5 16.5714V7.42857C1.5 4.15431 4.15431 1.5 7.42857 1.5ZM0 7.42857V16.5714C0 20.6741 3.32588 24 7.42857 24H16.5714C20.6741 24 24 20.6741 24 16.5714V7.42857C24 3.32588 20.6741 0 16.5714 0H7.42857C3.32588 0 0 3.32588 0 7.42857ZM6.15855 7.35975C5.8756 7.66227 5.89147 8.13688 6.19398 8.41982L6.85662 9.0396C6.69113 9.11428 6.5361 9.21964 6.40013 9.35571C5.79756 9.9587 5.79756 10.9362 6.40013 11.5392C7.00286 12.1424 7.98018 12.1424 8.5829 11.5392C8.74483 11.3772 8.86325 11.1881 8.93815 10.9865L10.5035 12.4506C10.1025 12.5315 9.71394 12.6457 9.33811 12.7937C8.4355 13.1492 7.84043 14.0186 7.83576 14.9887L7.83394 15.3673C7.83059 16.0654 8.28946 16.6815 8.95927 16.8783C9.78306 17.1202 10.8077 17.2357 12.0222 17.2357C13.2369 17.2357 14.2616 17.1202 15.0855 16.8782C15.1234 16.867 15.1607 16.8545 15.1973 16.8408L16.4877 18.0478C16.7902 18.3307 17.2648 18.3148 17.5478 18.0123C17.8307 17.7098 17.8149 17.2352 17.5124 16.9523L7.21862 7.32432C6.91611 7.04138 6.4415 7.05724 6.15855 7.35975ZM10.0115 8.4486L13.1365 11.4378C13.309 11.3398 13.4715 11.2173 13.6186 11.0702C14.5003 10.1891 14.5003 8.76045 13.6186 7.87935C12.7371 6.99839 11.308 6.99839 10.4264 7.87935C10.2547 8.05102 10.1164 8.24347 10.0115 8.4486ZM14.4572 12.7011L16.0927 14.2655C15.8773 13.6046 15.377 13.0578 14.7072 12.794C14.6245 12.7614 14.5411 12.7304 14.4572 12.7011ZM16.7666 14.9102L17.0134 15.1463H18.4073C18.7265 15.1463 19.0417 14.877 18.9955 14.496C18.8659 13.4286 17.9573 12.6018 16.8551 12.6018H15.4286C16.2503 13.0975 16.7979 14.0116 16.7666 14.9102ZM17.4726 9.35571C16.8699 8.75256 15.8925 8.75256 15.2898 9.35571C14.6872 9.9587 14.6872 10.9362 15.2898 11.5392C15.8925 12.1424 16.8699 12.1424 17.4726 11.5392C18.0751 10.9362 18.0751 9.9587 17.4726 9.35571ZM8.57143 12.6018H7.14494C6.0427 12.6018 5.13413 13.4286 5.00454 14.496C4.95828 14.877 5.27347 15.1463 5.59269 15.1463H7.25517C7.1081 14.1753 7.6776 13.141 8.57143 12.6018Z" fill="black"/>
</svg>
