<svg width="24" height="24" viewBox="0 0 24 24" fill="none" xmlns="http://www.w3.org/2000/svg">
<path d="M16.5714 1.5C19.8457 1.5 22.5 4.15431 22.5 7.42857V16.5714C22.5 19.8457 19.8457 22.5 16.5714 22.5H7.42857C4.15431 22.5 1.5 19.8457 1.5 16.5714V7.42857C1.5 4.15431 4.15431 1.5 7.42857 1.5H16.5714ZM24 7.42857C24 3.32588 20.6741 0 16.5714 0H7.42857C3.32589 0 0 3.32588 0 7.42857V16.5714C0 20.6741 3.32589 24 7.42857 24H16.5714C20.6741 24 24 20.6741 24 16.5714V7.42857ZM12.2685 11.2271C13.1217 12.0797 14.505 12.0797 15.3582 11.2271C16.2113 10.3745 16.2113 8.9921 15.3582 8.13947C14.505 7.28684 13.1217 7.28684 12.2685 8.13947C11.4154 8.99209 11.4154 10.3745 12.2685 11.2271ZM9.61438 15.7006C9.61174 16.2799 9.99253 16.791 10.5483 16.9543C11.4042 17.2057 12.4905 17.3314 13.8073 17.3314C15.1239 17.3314 16.2102 17.2057 17.066 16.9543C17.6219 16.7911 18.0028 16.2797 18 15.7004L17.998 15.2826C17.9937 14.3876 17.4446 13.5854 16.6118 13.2574C15.7463 12.9165 14.8114 12.7461 13.8073 12.7461C12.8029 12.7461 11.8678 12.9166 11.0019 13.2576C10.1692 13.5856 9.62036 14.3877 9.61628 15.2826L9.61438 15.7006ZM8.76787 15.2132C8.77303 14.0799 9.44103 13.0594 10.4668 12.5977H8.50063C7.25399 12.5977 6.21928 13.5005 6.01309 14.688C5.92204 15.2124 6.28956 15.5037 6.71106 15.5106H8.76651L8.76787 15.2132ZM7.75155 8.07793C7.06562 8.76387 7.06562 9.87599 7.75155 10.5619C8.43749 11.2479 9.54961 11.2479 10.2355 10.5619C10.9215 9.87599 10.9215 8.76387 10.2355 8.07793C9.54961 7.39199 8.43749 7.39199 7.75155 8.07793Z" fill="black"/>
</svg>
