<svg width="24" height="24" viewBox="0 0 24 24" fill="none" xmlns="http://www.w3.org/2000/svg">
<path d="M7.42857 1.5H16.5714C19.8457 1.5 22.5 4.15431 22.5 7.42857V16.5714C22.5 19.8457 19.8457 22.5 16.5714 22.5H7.42857C4.15431 22.5 1.5 19.8457 1.5 16.5714V7.42857C1.5 4.15431 4.15431 1.5 7.42857 1.5ZM0 7.42857V16.5714C0 20.6741 3.32588 24 7.42857 24H16.5714C20.6741 24 24 20.6741 24 16.5714V7.42857C24 3.32588 20.6741 0 16.5714 0H7.42857C3.32588 0 0 3.32588 0 7.42857ZM11.9993 14.3119C13.5145 14.3119 14.7907 14.9578 15.1751 15.8373C14.3131 16.5513 13.2067 16.9804 12 16.9804C10.7928 16.9804 9.686 16.5509 8.82393 15.8364C9.2087 14.9573 10.4846 14.3119 11.9993 14.3119ZM6 12C6 15.3137 8.68629 18 12 18C15.3137 18 18 15.3137 18 12C18 8.68629 15.3137 6 12 6C8.68629 6 6 8.68629 6 12ZM13.9282 11.2292C13.9282 12.3851 13.1081 13.2044 12.0144 13.2044C10.9207 13.2044 10.0696 12.3852 10.0694 11.2292C10.0694 10.0731 10.9207 9.25482 12.0144 9.25482C13.1082 9.25482 13.9282 10.0733 13.9282 11.2292Z" fill="black"/>
</svg>
