<svg width="24" height="24" viewBox="0 0 24 24" fill="none" xmlns="http://www.w3.org/2000/svg">
<path d="M7.42857 1.5H16.5714C19.8457 1.5 22.5 4.15431 22.5 7.42857V16.5714C22.5 19.8457 19.8457 22.5 16.5714 22.5H7.42857C4.15431 22.5 1.5 19.8457 1.5 16.5714V7.42857C1.5 4.15431 4.15431 1.5 7.42857 1.5ZM0 7.42857V16.5714C0 20.6741 3.32588 24 7.42857 24H16.5714C20.6741 24 24 20.6741 24 16.5714V7.42857C24 3.32588 20.6741 0 16.5714 0H7.42857C3.32588 0 0 3.32588 0 7.42857ZM13.6187 11.0702C14.5003 10.1891 14.5003 8.76047 13.6187 7.87937C12.7371 6.99841 11.308 6.99841 10.4265 7.87938C9.54481 8.76048 9.54481 10.1891 10.4265 11.0702C11.308 11.9512 12.7371 11.9512 13.6187 11.0702ZM17.4726 9.35573C16.8699 8.75258 15.8926 8.75258 15.2898 9.35573C14.6873 9.95873 14.6873 10.9363 15.2898 11.5393C15.8926 12.1424 16.8699 12.1424 17.4726 11.5393C18.0752 10.9363 18.0752 9.95873 17.4726 9.35573ZM12.0223 12.3033C11.0674 12.3033 10.1714 12.4656 9.33813 12.7938C8.43553 13.1492 7.84045 14.0187 7.83579 14.9887L7.83397 15.3674C7.83061 16.0654 8.28949 16.6816 8.9593 16.8783C9.78309 17.1202 10.8078 17.2357 12.0223 17.2357C13.2369 17.2357 14.2617 17.1202 15.0855 16.8782C15.7552 16.6815 16.214 16.0656 16.2108 15.3677L16.2091 14.9888C16.2046 14.0189 15.6098 13.1495 14.7073 12.794C13.8737 12.4657 12.9774 12.3033 12.0223 12.3033ZM16.7449 15.1463H18.4073C18.7266 15.1463 19.0417 14.877 18.9955 14.496C18.8659 13.4286 17.9573 12.6019 16.8551 12.6019H15.4286C16.3224 13.1411 16.8919 14.1753 16.7449 15.1463ZM8.58293 9.35573C7.9802 8.75258 7.00288 8.75258 6.40016 9.35573C5.79759 9.95873 5.79759 10.9363 6.40016 11.5393C7.00288 12.1424 7.9802 12.1424 8.58293 11.5393C9.1855 10.9363 9.1855 9.95873 8.58293 9.35573ZM8.57146 12.6019H7.14496C6.04272 12.6019 5.13415 13.4286 5.00457 14.496C4.95831 14.877 5.2735 15.1463 5.59271 15.1463H7.2552C7.10812 14.1753 7.67763 13.1411 8.57146 12.6019Z" fill="black"/>
</svg>
