<svg width="24" height="24" viewBox="0 0 24 24" fill="none" xmlns="http://www.w3.org/2000/svg">
<path d="M16.5717 1.5C19.8459 1.5 22.5002 4.15431 22.5002 7.42857V16.5714C22.5002 19.8457 19.8459 22.5 16.5717 22.5H7.42882C4.15456 22.5 1.50024 19.8457 1.50024 16.5714L1.50024 7.42857C1.50024 4.15431 4.15456 1.5 7.42882 1.5L16.5717 1.5ZM24.0002 7.42857C24.0002 3.32588 20.6744 0 16.5717 0L7.42882 0C3.32613 0 0.000244141 3.32588 0.000244141 7.42857L0.000244141 16.5714C0.000244141 20.6741 3.32613 24 7.42882 24H16.5717C20.6744 24 24.0002 20.6741 24.0002 16.5714V7.42857ZM6.1588 7.35975C5.87585 7.66227 5.89171 8.13688 6.19423 8.41982L7.23903 9.39705C7.25753 9.82052 7.42845 10.2386 7.7518 10.5619C8.10499 10.9151 8.57118 11.0864 9.034 11.0759L11.263 13.1608C11.1754 13.1914 11.0884 13.2237 11.0021 13.2576C10.1695 13.5856 9.6206 14.3877 9.61653 15.2826L9.61462 15.7006C9.61199 16.2799 9.99278 16.791 10.5485 16.9543C11.4045 17.2057 12.4908 17.3314 13.8075 17.3314C14.47 17.3314 15.0742 17.2996 15.62 17.2359L16.488 18.0478C16.7905 18.3307 17.2651 18.3148 17.548 18.0123C17.831 17.7098 17.8151 17.2352 17.5126 16.9523L7.21887 7.32432C6.91635 7.04138 6.44175 7.05724 6.1588 7.35975ZM9.08913 7.56605L10.7418 9.14687C10.7033 8.75665 10.5347 8.37683 10.2358 8.07793C9.91708 7.75922 9.50636 7.58859 9.08913 7.56605ZM11.655 10.0204L13.571 11.8532C14.2079 11.9239 14.87 11.7152 15.3584 11.2271C16.2116 10.3745 16.2116 8.9921 15.3584 8.13947C14.5052 7.28684 13.122 7.28684 12.2688 8.13947C11.7561 8.65179 11.5515 9.35539 11.655 10.0204ZM14.5369 12.7771L17.9551 16.0468C17.9851 15.9358 18.0008 15.8195 18.0002 15.7004L17.9982 15.2826C17.9939 14.3876 17.4449 13.5854 16.612 13.2574C15.9597 13.0005 15.268 12.8404 14.5369 12.7771ZM8.76676 15.5106L8.76811 15.2132C8.77327 14.0799 9.44127 13.0594 10.467 12.5977H8.50087C7.25423 12.5977 6.21952 13.5005 6.01333 14.688C5.92229 15.2124 6.2898 15.5037 6.7113 15.5106H8.76676Z" fill="black"/>
</svg>
