<svg width="24" height="24" viewBox="0 0 24 24" fill="none" xmlns="http://www.w3.org/2000/svg">
<path d="M7.42857 1.5H16.5714C19.8457 1.5 22.5 4.15431 22.5 7.42857V16.5714C22.5 19.8457 19.8457 22.5 16.5714 22.5H7.42857C4.15431 22.5 1.5 19.8457 1.5 16.5714V7.42857C1.5 4.15431 4.15431 1.5 7.42857 1.5ZM0 7.42857V16.5714C0 20.6741 3.32588 24 7.42857 24H16.5714C20.6741 24 24 20.6741 24 16.5714V7.42857C24 3.32588 20.6741 0 16.5714 0H7.42857C3.32588 0 0 3.32588 0 7.42857ZM11.7315 11.2271C12.5846 10.3745 12.5846 8.99209 11.7315 8.13947C10.8783 7.28684 9.49501 7.28684 8.64183 8.13947C7.78866 8.9921 7.78866 10.3745 8.64183 11.2271C9.49501 12.0797 10.8783 12.0797 11.7315 11.2271ZM14.3856 15.7006L14.3837 15.2826C14.3796 14.3877 13.8308 13.5856 12.9981 13.2576C12.1322 12.9166 11.1971 12.7461 10.1927 12.7461C9.18855 12.7461 8.25372 12.9165 7.3882 13.2574C6.55538 13.5854 6.00633 14.3876 6.00202 15.2826L6.00002 15.7004C5.99723 16.2797 6.37807 16.7911 6.93397 16.9543C7.78984 17.2057 8.87609 17.3314 10.1927 17.3314C11.5095 17.3314 12.5958 17.2057 13.4517 16.9543C14.0075 16.791 14.3883 16.2799 14.3856 15.7006ZM15.2321 15.2132L15.2335 15.5106H17.2889C17.7104 15.5037 18.078 15.2124 17.9869 14.688C17.7807 13.5005 16.746 12.5977 15.4994 12.5977H13.5332C14.559 13.0594 15.227 14.0799 15.2321 15.2132ZM16.2484 8.07793C15.5625 7.39199 14.4504 7.39199 13.7645 8.07793C13.0785 8.76387 13.0785 9.87599 13.7645 10.5619C14.4504 11.2479 15.5625 11.2479 16.2484 10.5619C16.9344 9.87599 16.9344 8.76387 16.2484 8.07793Z" fill="black"/>
</svg>
