<svg width="24" height="24" viewBox="0 0 24 24" fill="none" xmlns="http://www.w3.org/2000/svg">
<path d="M7.42857 1.5H16.5714C19.8457 1.5 22.5 4.15431 22.5 7.42857V16.5714C22.5 19.8457 19.8457 22.5 16.5714 22.5H7.42857C4.15431 22.5 1.5 19.8457 1.5 16.5714V7.42857C1.5 4.15431 4.15431 1.5 7.42857 1.5ZM0 7.42857V16.5714C0 20.6741 3.32588 24 7.42857 24H16.5714C20.6741 24 24 20.6741 24 16.5714V7.42857C24 3.32588 20.6741 0 16.5714 0H7.42857C3.32588 0 0 3.32588 0 7.42857ZM11.1851 11.9265C12.8929 11.9265 14.2774 10.5325 14.2774 8.81302C14.2774 7.09352 12.8929 5.69958 11.1851 5.69958C9.47725 5.69958 8.09277 7.09352 8.09277 8.81302C8.09277 10.5325 9.47725 11.9265 11.1851 11.9265ZM17.2369 16.2809C17.027 16.3191 16.8107 16.339 16.5897 16.339C14.758 16.339 13.2468 14.9671 13.0274 13.1948H9.17185L9.00166 13.1983C6.99535 13.28 5.35912 14.8007 5.01952 16.7745C5.00975 16.8313 5.00334 16.9264 5.0003 17.0598L5 17.0859C5 17.7211 5.51702 18.2361 6.1548 18.2361H11.1846H16.2144L16.2392 18.2358C16.8768 18.2222 17.3826 17.6963 17.369 17.0612C17.3659 16.9201 17.3592 16.8198 17.3487 16.7601C17.3201 16.5971 17.2827 16.4371 17.2369 16.2809ZM15.1543 12.1494C14.8229 12.1494 14.5543 12.418 14.5543 12.7494C14.5543 13.0808 14.8229 13.3494 15.1543 13.3494H15.9898V14.1849C15.9898 14.5163 16.2585 14.7849 16.5898 14.7849C16.9212 14.7849 17.1898 14.5163 17.1898 14.1849V13.3494H18.0261C18.3575 13.3494 18.6261 13.0808 18.6261 12.7494C18.6261 12.418 18.3575 12.1494 18.0261 12.1494H17.1898V11.3131C17.1898 10.9818 16.9212 10.7131 16.5898 10.7131C16.2585 10.7131 15.9898 10.9818 15.9898 11.3131V12.1494H15.1543Z" fill="black"/>
</svg>
