<svg width="24" height="24" viewBox="0 0 24 24" fill="none" xmlns="http://www.w3.org/2000/svg">
<path d="M7.42857 1.5H16.5714C19.8457 1.5 22.5 4.15431 22.5 7.42857V16.5714C22.5 19.8457 19.8457 22.5 16.5714 22.5H7.42857C4.15431 22.5 1.5 19.8457 1.5 16.5714V7.42857C1.5 4.15431 4.15431 1.5 7.42857 1.5ZM0 7.42857V16.5714C0 20.6741 3.32588 24 7.42857 24H16.5714C20.6741 24 24 20.6741 24 16.5714V7.42857C24 3.32588 20.6741 0 16.5714 0H7.42857C3.32588 0 0 3.32588 0 7.42857ZM14.7772 8.2941C14.7772 6.5746 13.3927 5.18066 11.6848 5.18066C9.97701 5.18066 8.59253 6.5746 8.59253 8.2941C8.59253 10.0136 9.97701 11.4075 11.6848 11.4075C13.3927 11.4075 14.7772 10.0136 14.7772 8.2941ZM9.67185 12.6758L9.50166 12.6793C7.49535 12.761 5.85912 14.2817 5.51952 16.2554C5.50975 16.3122 5.50334 16.4073 5.5003 16.5407L5.5 16.5668C5.5 17.2021 6.01702 17.7171 6.6548 17.7171H11.6846H11.8153C11.3745 16.9924 11.1206 16.1415 11.1206 15.2313C11.1206 14.2917 11.3911 13.4153 11.8586 12.6758H9.67185ZM19.5 15.2313C19.5 13.2488 17.8929 11.6416 15.9103 11.6416C13.9277 11.6416 12.3206 13.2488 12.3206 15.2313C12.3206 17.2139 13.9277 18.8211 15.9103 18.8211C17.8929 18.8211 19.5 17.2139 19.5 15.2313ZM16.5104 14.1543V14.9506H17.3463C17.6777 14.9506 17.9463 15.2192 17.9463 15.5506C17.9463 15.882 17.6777 16.1506 17.3463 16.1506H15.9104C15.7513 16.1506 15.5987 16.0874 15.4862 15.9748C15.3736 15.8623 15.3104 15.7097 15.3104 15.5506V14.1543C15.3104 13.8229 15.5791 13.5543 15.9104 13.5543C16.2418 13.5543 16.5104 13.8229 16.5104 14.1543Z" fill="black"/>
</svg>
