<svg width="24" height="24" viewBox="0 0 24 24" fill="none" xmlns="http://www.w3.org/2000/svg">
<path d="M7.42857 1.5H16.5714C19.8457 1.5 22.5 4.15431 22.5 7.42857V16.5714C22.5 19.8457 19.8457 22.5 16.5714 22.5H7.42857C4.15431 22.5 1.5 19.8457 1.5 16.5714V7.42857C1.5 4.15431 4.15431 1.5 7.42857 1.5ZM0 7.42857V16.5714C0 20.6741 3.32588 24 7.42857 24H16.5714C20.6741 24 24 20.6741 24 16.5714V7.42857C24 3.32588 20.6741 0 16.5714 0H7.42857C3.32588 0 0 3.32588 0 7.42857ZM14.4972 8.71868C14.4972 7.09045 13.1862 5.77051 11.569 5.77051C9.95186 5.77051 8.64087 7.09045 8.64087 8.71868C8.64087 10.3469 9.95186 11.6669 11.569 11.6669C13.1862 11.6669 14.4972 10.3469 14.4972 8.71868ZM13.6329 17.6126L14.3801 17.6202L18.0293 14.6651C18.4585 14.3175 18.5246 13.6878 18.1771 13.2586L17.7867 12.7765C17.4391 12.3473 16.8094 12.2812 16.3802 12.6287L12.731 15.5838L12.4437 17.0065C12.4427 17.0113 12.4418 17.0161 12.441 17.0209L12.4092 17.1781C12.365 17.3973 12.5312 17.6026 12.7548 17.6048L13.5514 17.6129H13.6327L13.6329 17.6126ZM11.3617 16.9666L11.6835 15.3734C11.7327 15.1298 11.8653 14.9109 12.0585 14.7545L14.4423 12.8241C14.0316 12.6854 13.5926 12.6104 13.1359 12.6104H9.13983L8.97094 12.6138C6.98004 12.6949 5.35636 14.2039 5.01937 16.1625C5.00967 16.2189 5.00331 16.3133 5.0003 16.4456L5 16.4715C5 17.1019 5.51305 17.6129 6.14593 17.6129H11.1371H11.3801C11.3262 17.4094 11.3166 17.1898 11.3617 16.9666Z" fill="black"/>
</svg>
