<svg width="24" height="24" viewBox="0 0 24 24" fill="none" xmlns="http://www.w3.org/2000/svg">
<path d="M16.5714 1.5C19.8457 1.5 22.5 4.15431 22.5 7.42857V16.5714C22.5 19.8457 19.8457 22.5 16.5714 22.5H7.42857C4.15431 22.5 1.5 19.8457 1.5 16.5714V7.42857C1.5 4.15431 4.15431 1.5 7.42857 1.5H16.5714ZM7.42857 0C3.32588 0 0 3.32588 0 7.42857V16.5714C0 20.6741 3.32588 24 7.42857 24H16.5714C20.6741 24 24 20.6741 24 16.5714V7.42857C24 3.32588 20.6741 0 16.5714 0H7.42857ZM13.613 13.1187H9.87376L9.71573 13.1219C7.85278 13.1978 6.33346 14.6098 6.01813 16.4425C6.00905 16.4953 6.0031 16.5836 6.00028 16.7074L6 16.7317C6 17.3216 6.48008 17.7997 7.07228 17.7997H11.7427H16.4131L16.4361 17.7995C17.0281 17.7868 17.4978 17.2985 17.4852 16.7088C17.4823 16.5777 17.4761 16.4846 17.4664 16.4292C17.137 14.5515 15.543 13.1187 13.613 13.1187ZM14.6138 9.05064C14.6138 7.454 13.3283 6.15967 11.7425 6.15967C10.1566 6.15967 8.87109 7.454 8.87109 9.05064C8.87109 10.6473 10.1566 11.9416 11.7425 11.9416C13.3283 11.9416 14.6138 10.6473 14.6138 9.05064Z" fill="black"/>
</svg>
