<svg width="24" height="24" viewBox="0 0 24 24" fill="none" xmlns="http://www.w3.org/2000/svg">
<path d="M16.5714 1.5C19.8457 1.5 22.5 4.15431 22.5 7.42857V16.5714C22.5 19.8457 19.8457 22.5 16.5714 22.5H7.42857C4.15431 22.5 1.5 19.8457 1.5 16.5714V7.42857C1.5 4.15431 4.15431 1.5 7.42857 1.5H16.5714ZM7.42857 0C3.32588 0 0 3.32588 0 7.42857V16.5714C0 20.6741 3.32588 24 7.42857 24H16.5714C20.6741 24 24 20.6741 24 16.5714V7.42857C24 3.32588 20.6741 0 16.5714 0H7.42857Z" fill="black"/>
<path d="M13.0597 15.8441C13.9257 15.8441 14.6285 15.1413 14.6285 14.2753V9.56882C14.6285 8.70283 13.9257 8 13.0597 8H7.56882C6.70283 8 6 8.70283 6 9.56882V14.2753C6 15.1413 6.70283 15.8441 7.56882 15.8441H13.0597Z" fill="black"/>
<path d="M15.4004 13.7522L16.7232 14.8171C17.2365 15.23 17.9996 14.8648 17.9996 14.2059V9.63751C17.9996 8.9786 17.2365 8.61338 16.7232 9.0263L15.4004 10.0912V13.7522Z" fill="black"/>
</svg>
