<svg width="24" height="24" viewBox="0 0 24 24" fill="none" xmlns="http://www.w3.org/2000/svg">
<path d="M7.42857 1.5H16.5714C19.8457 1.5 22.5 4.15431 22.5 7.42857V16.5714C22.5 19.8457 19.8457 22.5 16.5714 22.5H7.42857C4.15431 22.5 1.5 19.8457 1.5 16.5714V7.42857C1.5 4.15431 4.15431 1.5 7.42857 1.5ZM0 7.42857V16.5714C0 20.6741 3.32588 24 7.42857 24H16.5714C20.6741 24 24 20.6741 24 16.5714V7.42857C24 3.32588 20.6741 0 16.5714 0H7.42857C3.32588 0 0 3.32588 0 7.42857ZM18.2796 13.7799C19.3731 12.6864 19.3731 10.9136 18.2796 9.8201C17.1862 8.72663 15.4133 8.72663 14.3198 9.8201C13.4151 10.7249 13.2589 12.0948 13.8515 13.1602H10.2483C10.8407 12.0949 10.6845 10.7251 9.77978 9.82035C8.68631 8.72688 6.91345 8.72688 5.81998 9.82035C4.72651 10.9138 4.72651 12.6867 5.81998 13.7801C6.25985 14.22 6.80967 14.4829 7.38098 14.5689C7.48756 14.6271 7.60981 14.6602 7.73979 14.6602H16.1398C16.2477 14.6602 16.3503 14.6374 16.443 14.5964C17.1111 14.5623 17.7693 14.2902 18.2796 13.7799Z" fill="black"/>
</svg>
