<svg width="24" height="24" viewBox="0 0 24 24" fill="none" xmlns="http://www.w3.org/2000/svg">
<path d="M22.5 16.5714C22.5 19.8457 19.8457 22.5 16.5714 22.5H7.42857C4.15431 22.5 1.5 19.8457 1.5 16.5714V7.42857C1.5 4.15431 4.15431 1.5 7.42857 1.5H16.5714C19.8457 1.5 22.5 4.15431 22.5 7.42857V16.5714ZM24 7.42857C24 3.32588 20.6741 0 16.5714 0H7.42857C3.32588 0 0 3.32588 0 7.42857V16.5714C0 20.6741 3.32588 24 7.42857 24H16.5714C20.6741 24 24 20.6741 24 16.5714V7.42857Z" fill="black"/>
<path d="M11.7383 15.0093L14.5018 17.2201C14.8947 17.5344 15.4766 17.2547 15.4766 16.7516V7.25814C15.4766 6.75334 14.8912 6.47417 14.499 6.7919L11.7383 9.02804H9.49533C8.66991 9.02804 8 9.69794 8 10.5234V13.514C8 14.3394 8.66991 15.0093 9.49533 15.0093H11.7383Z" fill="black"/>
</svg>
