<svg width="24" height="24" viewBox="0 0 24 24" fill="none" xmlns="http://www.w3.org/2000/svg">
<path d="M22.5 16.5714C22.5 19.8457 19.8457 22.5 16.5714 22.5H7.42857C4.15431 22.5 1.5 19.8457 1.5 16.5714V7.42857C1.5 4.15431 4.15431 1.5 7.42857 1.5H16.5714C19.8457 1.5 22.5 4.15431 22.5 7.42857V16.5714ZM24 7.42857C24 3.32588 20.6741 0 16.5714 0H7.42857C3.32588 0 0 3.32588 0 7.42857V16.5714C0 20.6741 3.32588 24 7.42857 24H16.5714C20.6741 24 24 20.6741 24 16.5714V7.42857Z" fill="black"/>
<path d="M10.2383 15.0093L13.0018 17.2201C13.3947 17.5344 13.9766 17.2547 13.9766 16.7516V7.25814C13.9766 6.75334 13.3912 6.47417 12.999 6.7919L10.2383 9.02804H7.99533C7.16991 9.02804 6.5 9.69794 6.5 10.5234V13.514C6.5 14.3394 7.16991 15.0093 7.99533 15.0093H10.2383Z" fill="black"/>
<path d="M15.8419 9.44199C15.6275 9.72997 15.6872 10.1372 15.9752 10.3515C16.4909 10.7353 16.8222 11.3381 16.8222 12.0183C16.8222 12.6983 16.4905 13.3013 15.975 13.6853C15.6871 13.8998 15.6276 14.307 15.842 14.5949C16.0565 14.8828 16.4637 14.9423 16.7516 14.7279C17.5742 14.1151 18.1222 13.136 18.1222 12.0183C18.1222 10.9009 17.5749 9.92161 16.7514 9.30865C16.4634 9.09431 16.0562 9.15401 15.8419 9.44199Z" fill="black"/>
</svg>
