<svg width="24" height="24" viewBox="0 0 24 24" fill="none" xmlns="http://www.w3.org/2000/svg">
<path d="M22.5 16.5714C22.5 19.8457 19.8457 22.5 16.5714 22.5H7.42857C4.15431 22.5 1.5 19.8457 1.5 16.5714V7.42857C1.5 4.15431 4.15431 1.5 7.42857 1.5H16.5714C19.8457 1.5 22.5 4.15431 22.5 7.42857V16.5714ZM24 7.42857C24 3.32588 20.6741 0 16.5714 0H7.42857C3.32588 0 0 3.32588 0 7.42857V16.5714C0 20.6741 3.32588 24 7.42857 24H16.5714C20.6741 24 24 20.6741 24 16.5714V7.42857Z" fill="black"/>
<path d="M8.77834 15.0863L11.5819 17.3291C11.9747 17.6434 12.5567 17.3637 12.5567 16.8605V7.23861C12.5567 6.73381 11.9713 6.45464 11.579 6.77237L8.77834 9.04092H6.51134C5.67708 9.04092 5 9.718 5 10.5523V13.5749C5 14.4092 5.67708 15.0863 6.51134 15.0863H8.77834Z" fill="black"/>
<path d="M14.6505 14.0018C14.9255 14.2326 15.3355 14.1967 15.5663 13.9217L18.0302 10.9854C18.2609 10.7104 18.225 10.3004 17.95 10.0697C17.675 9.83894 17.265 9.87481 17.0343 10.1498L14.5704 13.0861C14.3397 13.3611 14.3755 13.7711 14.6505 14.0018Z" fill="black"/>
<path d="M18.2675 13.6854C18.4982 13.4104 18.4624 13.0004 18.1874 12.7697L15.251 10.3058C14.976 10.0751 14.566 10.1109 14.3353 10.3859C14.1045 10.6609 14.1404 11.0709 14.4154 11.3017L17.3517 13.7655C17.6267 13.9963 18.0367 13.9604 18.2675 13.6854Z" fill="black"/>
</svg>
