<svg width="24" height="24" viewBox="0 0 24 24" fill="none" xmlns="http://www.w3.org/2000/svg">
<path d="M15.31 7.28C15.5862 7.28 15.81 7.05614 15.81 6.78C15.81 6.50386 15.5862 6.28 15.31 6.28H7.39336C6.59282 6.28 5.94336 6.92946 5.94336 7.73C5.94336 7.86964 5.96312 8.00469 6 8.1325V15.705C6 16.8096 6.89543 17.705 8 17.705H16C17.1046 17.705 18 16.8096 18 15.705V10.105C18 9.00043 17.1046 8.105 16 8.105H7.5C7.36209 8.105 7.22546 8.0911 7.092 8.064C7.00076 7.98161 6.94336 7.86242 6.94336 7.73C6.94336 7.48174 7.1451 7.28 7.39336 7.28H15.31ZM14.5508 12.8233C14.5508 12.4735 14.8343 12.19 15.1841 12.19C15.5339 12.19 15.8174 12.4735 15.8174 12.8233C15.8174 13.1731 15.5339 13.4566 15.1841 13.4566C14.8343 13.4566 14.5508 13.1731 14.5508 12.8233Z" fill="black"/>
<path d="M0 7.42857V16.5714C0 20.6741 3.32588 24 7.42857 24H16.5714C20.6741 24 24 20.6741 24 16.5714V7.42857C24 3.32588 20.6741 0 16.5714 0H7.42857C3.32588 0 0 3.32588 0 7.42857ZM7.42857 1.5H16.5714C19.8457 1.5 22.5 4.15431 22.5 7.42857V16.5714C22.5 19.8457 19.8457 22.5 16.5714 22.5H7.42857C4.15431 22.5 1.5 19.8457 1.5 16.5714V7.42857C1.5 4.15431 4.15431 1.5 7.42857 1.5Z" fill="black"/>
</svg>
