<svg width="24" height="24" viewBox="0 0 24 24" fill="none" xmlns="http://www.w3.org/2000/svg">
<path d="M7.42857 1.5H16.5714C19.8457 1.5 22.5 4.15431 22.5 7.42857V16.5714C22.5 19.8457 19.8457 22.5 16.5714 22.5H7.42857C4.15431 22.5 1.5 19.8457 1.5 16.5714V7.42857C1.5 4.15431 4.15431 1.5 7.42857 1.5ZM0 7.42857V16.5714C0 20.6741 3.32588 24 7.42857 24H16.5714C20.6741 24 24 20.6741 24 16.5714V7.42857C24 3.32588 20.6741 0 16.5714 0H7.42857C3.32588 0 0 3.32588 0 7.42857ZM9.91669 4.3999C9.63179 4.3999 9.38618 4.60025 9.32893 4.87934L8.66226 8.12934C8.65921 8.14423 8.65673 8.1591 8.65482 8.17393C7.63613 9.13151 7 10.4914 7 12C7 13.5086 7.63615 14.8685 8.65486 15.8261C8.65676 15.8408 8.65922 15.8556 8.66226 15.8704L9.32893 19.1204C9.38618 19.3995 9.63179 19.5999 9.91669 19.5999H14.5834C14.8683 19.5999 15.1139 19.3995 15.1711 19.1204L15.8378 15.8704C15.8408 15.8556 15.8433 15.8408 15.8452 15.8261C16.7153 15.0081 17.3064 13.8966 17.4602 12.6496H17.7566C18.1155 12.6496 18.4066 12.3586 18.4066 11.9996C18.4066 11.6406 18.1155 11.3496 17.7566 11.3496H17.4601C17.3061 10.103 16.7152 8.99177 15.8452 8.17398C15.8433 8.15913 15.8408 8.14424 15.8378 8.12934L15.1711 4.87934C15.1139 4.60025 14.8683 4.3999 14.5834 4.3999H9.91669ZM10.4061 18.3999L10.0737 16.7792C10.7367 17.0815 11.4736 17.25 12.25 17.25C13.0264 17.25 13.7634 17.0815 14.4264 16.7791L14.0939 18.3999H10.4061ZM14.4264 7.22089C13.7634 6.91848 13.0264 6.75 12.25 6.75C11.4736 6.75 10.7366 6.91848 10.0736 7.22087L10.4061 5.5999H14.0939L14.4264 7.22089ZM12.75 9.6748V11.4998H14.3816C14.6577 11.4998 14.8816 11.7237 14.8816 11.9998C14.8816 12.2759 14.6577 12.4998 14.3816 12.4998H12.25C11.9739 12.4998 11.75 12.2759 11.75 11.9998V9.6748C11.75 9.39866 11.9739 9.1748 12.25 9.1748C12.5261 9.1748 12.75 9.39866 12.75 9.6748Z" fill="black"/>
</svg>
