<svg width="24" height="24" viewBox="0 0 24 24" fill="none" xmlns="http://www.w3.org/2000/svg">
<path d="M22.5 16.5714C22.5 19.8457 19.8457 22.5 16.5714 22.5H7.42857C4.15431 22.5 1.5 19.8457 1.5 16.5714V7.42857C1.5 4.15431 4.15431 1.5 7.42857 1.5H16.5714C19.8457 1.5 22.5 4.15431 22.5 7.42857V16.5714ZM24 7.42857C24 3.32588 20.6741 0 16.5714 0H7.42857C3.32588 0 0 3.32588 0 7.42857V16.5714C0 20.6741 3.32588 24 7.42857 24H16.5714C20.6741 24 24 20.6741 24 16.5714V7.42857Z" fill="black"/>
<path d="M7.36745 6.28874C7.06641 6.13345 6.68743 6.18197 6.43509 6.43431C6.12267 6.74673 6.12267 7.25327 6.43509 7.56569L7.2682 8.3988C6.63649 8.74194 6.03417 9.15875 5.47385 9.64923C5.1414 9.94024 5.1078 10.4457 5.39882 10.7781C5.68983 11.1106 6.19524 11.1442 6.5277 10.8531C7.12197 10.3329 7.77273 9.91159 8.4585 9.5891L9.37209 10.5027C8.72325 10.7763 8.10842 11.1558 7.55393 11.6412C7.22148 11.9322 7.18788 12.4376 7.47889 12.77C7.76991 13.1025 8.27532 13.1361 8.60777 12.8451C9.20722 12.3203 9.89946 11.9579 10.6271 11.7577L11.6424 12.773C10.957 12.8524 10.287 13.1 9.69779 13.5156C9.33677 13.7704 9.25058 14.2695 9.50529 14.6305C9.76 14.9915 10.2591 15.0777 10.6202 14.823C11.5237 14.1856 12.7356 14.1856 13.6392 14.823C13.6797 14.8516 13.7219 14.8759 13.7654 14.896L16.601 17.7316C16.9134 18.044 17.42 18.044 17.7324 17.7316C18.0204 17.4437 18.0429 16.9908 17.8 16.677C17.7283 16.64 17.6611 16.5915 17.601 16.5314L7.43508 6.36549C7.41062 6.34103 7.38808 6.31539 7.36745 6.28874Z" fill="black"/>
<path d="M16.2867 12.9544C16.3737 12.9096 16.4538 12.8481 16.5221 12.77C16.8131 12.4376 16.7795 11.9322 16.4471 11.6412C15.5693 10.8728 14.5402 10.3697 13.4644 10.1321L16.2867 12.9544Z" fill="black"/>
<path d="M12.1334 8.80105C14.0437 8.8313 15.9455 9.51533 17.4739 10.8531C17.8063 11.1442 18.3117 11.1106 18.6027 10.7781C18.8937 10.4457 18.8601 9.94024 18.5277 9.64923C16.295 7.69486 13.3955 6.91011 10.6273 7.29498L12.1334 8.80105Z" fill="black"/>
<path d="M12.0664 17.3578C12.5449 17.3578 12.9328 16.9699 12.9328 16.4914C12.9328 16.0129 12.5449 15.625 12.0664 15.625C11.5879 15.625 11.2 16.0129 11.2 16.4914C11.2 16.9699 11.5879 17.3578 12.0664 17.3578Z" fill="black"/>
</svg>
