<svg width="24" height="24" viewBox="0 0 24 24" fill="none" xmlns="http://www.w3.org/2000/svg">
<path d="M7.42857 1.5H16.5714C19.8457 1.5 22.5 4.15431 22.5 7.42857V16.5714C22.5 19.8457 19.8457 22.5 16.5714 22.5H7.42857C4.15431 22.5 1.5 19.8457 1.5 16.5714V7.42857C1.5 4.15431 4.15431 1.5 7.42857 1.5ZM0 7.42857V16.5714C0 20.6741 3.32588 24 7.42857 24H16.5714C20.6741 24 24 20.6741 24 16.5714V7.42857C24 3.32588 20.6741 0 16.5714 0H7.42857C3.32588 0 0 3.32588 0 7.42857ZM15.9969 10.0846C16.2207 9.86758 16.5764 9.81917 16.8583 9.97747C17.1343 10.1325 17.2527 10.4344 17.1776 10.7075C17.1014 10.985 16.8334 11.2008 16.5014 11.2016H6C5.55817 11.2016 5.2 11.5598 5.2 12.0016C5.2 12.4435 5.55817 12.8016 6 12.8016H16.5022L16.5036 12.8016C17.5283 12.7999 18.4465 12.1283 18.7205 11.1314C18.9956 10.1299 18.5407 9.08732 17.6418 8.58244C16.7486 8.08081 15.62 8.22128 14.8831 8.93597C14.5659 9.24356 14.5581 9.75003 14.8657 10.0672C15.1733 10.3844 15.6798 10.3922 15.9969 10.0846ZM15.1362 14.9843C14.8945 14.1137 14.0908 13.5326 13.2001 13.5355H6C5.55817 13.5355 5.2 13.8936 5.2 14.3355C5.2 14.7773 5.55817 15.1355 6 15.1355H13.2015L13.2048 15.1355C13.402 15.1346 13.5527 15.2617 13.5945 15.4123C13.635 15.5582 13.574 15.7263 13.4149 15.8154C13.0295 16.0315 12.8922 16.5191 13.1083 16.9045C13.3243 17.2899 13.8119 17.4272 14.1973 17.2111C14.9813 16.7716 15.3794 15.8602 15.1362 14.9843Z" fill="black"/>
<path d="M11.3079 7.09881C11.0918 7.48421 11.2291 7.97178 11.6145 8.18783C11.7736 8.277 11.8346 8.44503 11.7941 8.59097C11.7523 8.74154 11.6016 8.86863 11.4044 8.86782H11.4011H6C5.55817 8.86782 5.2 9.22599 5.2 9.66782C5.2 10.1096 5.55817 10.4678 6 10.4678H11.3997C12.2904 10.4706 13.0941 9.8896 13.3358 9.01895C13.579 8.14308 13.1809 7.23164 12.3969 6.79215C12.0115 6.57611 11.5239 6.7134 11.3079 7.09881Z" fill="black"/>
</svg>
