<svg width="24" height="24" viewBox="0 0 24 24" fill="none" xmlns="http://www.w3.org/2000/svg">
<path d="M22.5 16.5714C22.5 19.8457 19.8457 22.5 16.5714 22.5H7.42857C4.15431 22.5 1.5 19.8457 1.5 16.5714V7.42857C1.5 4.15431 4.15431 1.5 7.42857 1.5H16.5714C19.8457 1.5 22.5 4.15431 22.5 7.42857V16.5714ZM24 7.42857C24 3.32588 20.6741 0 16.5714 0H7.42857C3.32588 0 0 3.32588 0 7.42857V16.5714C0 20.6741 3.32588 24 7.42857 24H16.5714C20.6741 24 24 20.6741 24 16.5714V7.42857Z" fill="black"/>
<path d="M14.3504 6.00001C13.4968 6.06098 12.718 6.47193 12.1639 7.09251C11.6198 7.70193 11.2938 8.51125 11.3214 9.37933C11.322 9.61437 11.3475 9.82499 11.3973 10.0266L6.73795 14.152C6.27376 14.5807 6.02605 15.1595 6.00196 15.7377C5.97751 16.3245 6.18229 16.9092 6.61744 17.3444C7.0828 17.8097 7.68177 18.0223 8.26253 17.9981C8.84786 17.9738 9.41753 17.7093 9.82145 17.2107L13.9472 12.551C14.3655 12.6375 14.7915 12.6332 15.3044 12.5794C15.9082 12.4587 16.4519 12.1726 16.8902 11.7657C17.3269 11.3602 17.6589 10.8344 17.8429 10.2203C18.1023 9.26913 17.8733 8.31662 17.4831 7.54437L15.7662 9.26122L14.7006 8.19559L16.4355 6.46064C15.7383 6.1542 15.1397 5.99871 14.3504 6.00001Z" fill="black"/>
</svg>
