<svg width="24" height="24" viewBox="0 0 24 24" fill="none" xmlns="http://www.w3.org/2000/svg">
<path d="M12 24C18.6274 24 24 18.6274 24 12C24 5.37258 18.6274 0 12 0C5.37258 0 0 5.37258 0 12C0 18.6274 5.37258 24 12 24ZM6.54793 6.71667L6.55083 6.71382L17.7297 17.9222C17.7707 17.9639 17.8152 18.0002 17.8623 18.031L17.8657 18.0344C18.1781 18.3468 18.1781 18.8534 17.8657 19.1658C17.5533 19.4782 17.0467 19.4782 16.7343 19.1658L15.5685 18H8.29999C6.91928 18 5.79999 16.8807 5.79999 15.5V8.5C5.79999 8.4137 5.80436 8.32842 5.8129 8.24438L4.73431 7.1658C4.4219 6.85338 4.4219 6.34684 4.73431 6.03442C5.04673 5.722 5.55327 5.722 5.86569 6.03442L6.54793 6.71667ZM18.7231 15.5C18.7231 15.8404 18.655 16.165 18.5318 16.4607L15.0898 13.0097H16.0199C16.3173 13.0097 16.5584 12.7709 16.5584 12.4763C16.5584 12.1818 16.3173 11.943 16.0199 11.943H15.111L14.0506 8.84082C13.9732 8.61441 13.7532 8.46666 13.5122 8.47926C13.2712 8.49187 13.068 8.66211 13.0151 8.89533L12.6393 10.5527L8.10599 6.00742C8.17001 6.0025 8.23471 6 8.29999 6H16.2231C17.6038 6 18.7231 7.11929 18.7231 8.5V15.5ZM13.6457 10.9823L13.947 11.8639L13.5386 11.4544L13.6457 10.9823ZM9.51153 11.943H8.8404C8.54302 11.943 8.30194 12.1818 8.30194 12.4763C8.30194 12.7709 8.54302 13.0097 8.8404 13.0097H10.0434C10.1945 13.0097 10.3395 12.9694 10.4653 12.8968L9.51153 11.943ZM11.4186 13.8501L11.7366 14.8596C11.8092 15.0901 12.0291 15.2435 12.2726 15.2336C12.4151 15.2279 12.545 15.167 12.6389 15.0703L11.4186 13.8501Z" fill="black"/>
</svg>
