<svg width="24" height="24" viewBox="0 0 24 24" fill="none" xmlns="http://www.w3.org/2000/svg">
<path d="M12 0C5.37258 0 0 5.37258 0 12C0 18.6274 5.37258 24 12 24C18.6274 24 24 18.6274 24 12C24 5.37258 18.6274 0 12 0ZM5.25 8.90002C5.25 7.38124 6.48122 6.15002 8 6.15002H16C17.5188 6.15002 18.75 7.38124 18.75 8.90002V13.5667C18.75 14.7176 17.8175 15.65 16.6667 15.65C16.2525 15.65 15.9167 15.3142 15.9167 14.9C15.9167 14.4858 16.2525 14.15 16.6667 14.15C16.9891 14.15 17.25 13.8891 17.25 13.5667V8.90002C17.25 8.20967 16.6904 7.65002 16 7.65002H8C7.30964 7.65002 6.75 8.20967 6.75 8.90002V13.5667C6.75 13.8891 7.01088 14.15 7.33333 14.15C7.74755 14.15 8.08333 14.4858 8.08333 14.9C8.08333 15.3142 7.74755 15.65 7.33333 15.65C6.18245 15.65 5.25 14.7176 5.25 13.5667V8.90002ZM12.6079 13.2754L14.8685 15.9128C15.3133 16.4317 14.9446 17.2334 14.2611 17.2334H9.73986C9.05638 17.2334 8.68765 16.4317 9.13246 15.9128L11.3931 13.2754C11.7124 12.9029 12.2886 12.9029 12.6079 13.2754Z" fill="black"/>
</svg>
