<svg width="24" height="24" viewBox="0 0 24 24" fill="none" xmlns="http://www.w3.org/2000/svg">
<path d="M12 0C5.37258 0 0 5.37258 0 12C0 18.6274 5.37258 24 12 24C18.6274 24 24 18.6274 24 12C24 5.37258 18.6274 0 12 0ZM8.30291 5.10433C8.81606 5.06076 9.33854 5.28031 9.66111 5.72879L7.20368 7.49626C6.88112 7.04778 6.8392 6.4826 7.04374 6.00997C7.1487 5.76747 7.31854 5.54932 7.54866 5.38381C7.77877 5.2183 8.03961 5.12668 8.30291 5.10433ZM17.6713 12.4459C17.6713 14.1779 16.8956 15.7286 15.6726 16.7697L16.6779 18.1101C16.8933 18.3973 16.8351 18.8047 16.5479 19.0201C16.2607 19.2355 15.8533 19.1773 15.6379 18.8901L14.5913 17.4946C13.8134 17.8954 12.9309 18.1216 11.9956 18.1216C11.0603 18.1216 10.1778 17.8954 9.39996 17.4946L8.35345 18.89C8.13806 19.1772 7.73064 19.2354 7.44345 19.02C7.15626 18.8046 7.09806 18.3972 7.31345 18.11L8.31869 16.7697C7.0957 15.7286 6.31995 14.1779 6.31995 12.4459C6.31995 9.31136 8.86103 6.77027 11.9956 6.77027C15.1302 6.77027 17.6713 9.31136 17.6713 12.4459ZM12 9.35C11.641 9.35 11.35 9.64102 11.35 10V12.5C11.35 12.859 11.641 13.15 12 13.15H14.5C14.859 13.15 15.15 12.859 15.15 12.5C15.15 12.141 14.859 11.85 14.5 11.85H12.65V10C12.65 9.64102 12.359 9.35 12 9.35ZM14.3301 5.72879C14.6527 5.28031 15.1752 5.06076 15.6883 5.10433C15.9516 5.12668 16.2124 5.2183 16.4426 5.38381C16.6727 5.54932 16.8425 5.76747 16.9475 6.00997C17.152 6.4826 17.1101 7.04778 16.7875 7.49626L14.3301 5.72879Z" fill="black"/>
</svg>
