<svg width="24" height="24" viewBox="0 0 24 24" fill="none" xmlns="http://www.w3.org/2000/svg">
<path d="M12 24C18.6274 24 24 18.6274 24 12C24 5.37258 18.6274 0 12 0C5.37258 0 0 5.37258 0 12C0 18.6274 5.37258 24 12 24ZM6 9C6 7.34315 7.34315 6 9 6H15C16.6569 6 18 7.34315 18 9V15C18 16.6569 16.6569 18 15 18H9C7.34315 18 6 16.6569 6 15V9ZM12.0001 16.0001C14.2093 16.0001 16.0001 14.2093 16.0001 12.0001C16.0001 9.79098 14.2093 8.00012 12.0001 8.00012C9.79098 8.00012 8.00012 9.79098 8.00012 12.0001C8.00012 14.2093 9.79098 16.0001 12.0001 16.0001ZM11.9999 12.6667C11.6317 12.6667 11.3333 12.3683 11.3333 12.0001C11.3333 11.6319 11.6317 11.3334 11.9999 11.3334C12.3681 11.3334 12.6666 11.6319 12.6666 12.0001C12.6666 12.3683 12.3681 12.6667 11.9999 12.6667Z" fill="black"/>
</svg>
