<svg width="24" height="24" viewBox="0 0 24 24" fill="none" xmlns="http://www.w3.org/2000/svg">
<path d="M12 0C5.37258 0 0 5.37258 0 12C0 18.6274 5.37258 24 12 24C18.6274 24 24 18.6274 24 12C24 5.37258 18.6274 0 12 0ZM17.0008 12.8L12.0008 12.8C11.559 12.8 11.2008 12.4419 11.2008 12C11.2008 11.5582 11.559 11.2 12.0008 11.2L17.0008 11.2C17.4426 11.2 17.8008 11.5582 17.8008 12C17.8008 12.4419 17.4426 12.8 17.0008 12.8ZM17.8008 16C17.8008 16.4419 17.4426 16.8 17.0008 16.8H7.00078C6.55895 16.8 6.20078 16.4419 6.20078 16C6.20078 15.5582 6.55895 15.2 7.00078 15.2L17.0008 15.2C17.4426 15.2 17.8008 15.5582 17.8008 16ZM17.0008 8.80005L7.00078 8.80005C6.55895 8.80005 6.20078 8.44188 6.20078 8.00005C6.20078 7.55822 6.55895 7.20005 7.00078 7.20005L17.0008 7.20005C17.4426 7.20005 17.8008 7.55822 17.8008 8.00005C17.8008 8.44188 17.4426 8.80005 17.0008 8.80005Z" fill="black"/>
</svg>
