<svg width="24" height="24" viewBox="0 0 24 24" fill="none" xmlns="http://www.w3.org/2000/svg">
<path d="M12 0C5.37258 0 0 5.37258 0 12C0 18.6274 5.37258 24 12 24C18.6274 24 24 18.6274 24 12C24 5.37258 18.6274 0 12 0ZM8.5649 9.43451L11.9992 12.8688L15.4335 9.43451C15.746 9.12209 16.2525 9.12209 16.5649 9.43451C16.8773 9.74693 16.8773 10.2535 16.5649 10.5659L12.5649 14.5659C12.2525 14.8783 11.746 14.8783 11.4335 14.5659L7.43353 10.5659C7.12111 10.2535 7.12111 9.74693 7.43353 9.43451C7.74595 9.12209 8.25248 9.12209 8.5649 9.43451Z" fill="black"/>
</svg>
