<svg width="24" height="24" viewBox="0 0 24 24" fill="none" xmlns="http://www.w3.org/2000/svg">
<path d="M12 24C18.6274 24 24 18.6274 24 12C24 5.37258 18.6274 0 12 0C5.37258 0 0 5.37258 0 12C0 18.6274 5.37258 24 12 24ZM15.4351 14.5655L12.0008 11.1312L8.56647 14.5655C8.25405 14.8779 7.74751 14.8779 7.4351 14.5655C7.12268 14.2531 7.12268 13.7465 7.4351 13.4341L11.4351 9.43412C11.7475 9.1217 12.254 9.1217 12.5665 9.43412L16.5665 13.4341C16.8789 13.7465 16.8789 14.2531 16.5665 14.5655C16.254 14.8779 15.7475 14.8779 15.4351 14.5655Z" fill="black"/>
</svg>
