<svg width="24" height="24" viewBox="0 0 24 24" fill="none" xmlns="http://www.w3.org/2000/svg">
<path d="M0 12C0 18.6274 5.37258 24 12 24C18.6274 24 24 18.6274 24 12C24 5.37258 18.6274 0 12 0C5.37258 0 0 5.37258 0 12ZM15.7656 12.2343C16.0781 12.5467 16.0781 13.0532 15.7656 13.3656L12.5656 16.5656C12.2532 16.8781 11.7467 16.8781 11.4343 16.5656L8.23427 13.3656C7.92185 13.0532 7.92185 12.5467 8.23427 12.2343C8.54669 11.9218 9.05322 11.9218 9.36564 12.2343L12 14.8686L14.6343 12.2343C14.9467 11.9218 15.4532 11.9218 15.7656 12.2343ZM15.7656 9.16569L12.5656 12.3657C12.2532 12.6781 11.7467 12.6781 11.4343 12.3657L8.23427 9.16569C7.92185 8.85327 7.92185 8.34673 8.23427 8.03432C8.54669 7.7219 9.05322 7.7219 9.36564 8.03432L12 10.6686L14.6343 8.03432C14.9467 7.7219 15.4532 7.7219 15.7656 8.03432C16.0781 8.34673 16.0781 8.85327 15.7656 9.16569Z" fill="black"/>
</svg>
