<svg width="24" height="24" viewBox="0 0 24 24" fill="none" xmlns="http://www.w3.org/2000/svg">
<path d="M24 12C24 5.37258 18.6274 0 12 0C5.37258 0 0 5.37258 0 12C0 18.6274 5.37258 24 12 24C18.6274 24 24 18.6274 24 12ZM14.5665 8.56588L11.1322 12.0002L14.5665 15.4345C14.8789 15.7469 14.8789 16.2535 14.5665 16.5659C14.254 16.8783 13.7475 16.8783 13.4351 16.5659L9.4351 12.5659C9.12268 12.2535 9.12268 11.7469 9.4351 11.4345L13.4351 7.43451C13.7475 7.12209 14.254 7.12209 14.5665 7.43451C14.8789 7.74693 14.8789 8.25346 14.5665 8.56588Z" fill="black"/>
</svg>
