<svg width="24" height="24" viewBox="0 0 24 24" fill="none" xmlns="http://www.w3.org/2000/svg">
<path d="M0 12C0 18.6274 5.37258 24 12 24C18.6274 24 24 18.6274 24 12C24 5.37258 18.6274 0 12 0C5.37258 0 0 5.37258 0 12ZM9.43353 15.4341L12.8678 11.9998L9.43353 8.56549C9.12111 8.25307 9.12111 7.74654 9.43353 7.43412C9.74595 7.1217 10.2525 7.1217 10.5649 7.43412L14.5649 11.4341C14.8773 11.7465 14.8773 12.2531 14.5649 12.5655L10.5649 16.5655C10.2525 16.8779 9.74595 16.8779 9.43353 16.5655C9.12111 16.2531 9.12111 15.7465 9.43353 15.4341Z" fill="black"/>
</svg>
