<svg width="24" height="24" viewBox="0 0 24 24" fill="none" xmlns="http://www.w3.org/2000/svg">
<path d="M12 24C18.6274 24 24 18.6274 24 12C24 5.37258 18.6274 0 12 0C5.37258 0 0 5.37258 0 12C0 18.6274 5.37258 24 12 24ZM12.2343 8.23436C12.5467 7.92194 13.0532 7.92194 13.3656 8.23436L16.5656 11.4344C16.8781 11.7468 16.8781 12.2533 16.5656 12.5657L13.3656 15.7657C13.0532 16.0782 12.5467 16.0782 12.2343 15.7657C11.9218 15.4533 11.9218 14.9468 12.2343 14.6344L14.8686 12L12.2343 9.36573C11.9218 9.05332 11.9218 8.54678 12.2343 8.23436ZM9.16569 8.23436L12.3657 11.4344C12.6781 11.7468 12.6781 12.2533 12.3657 12.5657L9.16569 15.7657C8.85327 16.0782 8.34673 16.0782 8.03432 15.7657C7.7219 15.4533 7.7219 14.9468 8.03432 14.6344L10.6686 12L8.03432 9.36573C7.7219 9.05332 7.7219 8.54678 8.03432 8.23436C8.34673 7.92194 8.85327 7.92194 9.16569 8.23436Z" fill="black"/>
</svg>
