<svg width="24" height="24" viewBox="0 0 24 24" fill="none" xmlns="http://www.w3.org/2000/svg">
<path d="M12 0C5.372 0 0 5.372 0 12C0 18.628 5.372 24 12 24C18.628 24 24 18.628 24 12C24 5.372 18.628 0 12 0ZM15.4034 12.8H6.6681C6.22627 12.8 5.8681 12.4419 5.8681 12C5.8681 11.5582 6.22627 11.2 6.6681 11.2H15.4034L12.7691 8.56573C12.4567 8.25331 12.4567 7.74678 12.7691 7.43436C13.0815 7.12194 13.588 7.12194 13.9005 7.43436L17.9005 11.4344C17.9772 11.5111 18.035 11.5995 18.0741 11.6938C18.1129 11.7875 18.1344 11.8901 18.1348 11.9976L18.1348 12L18.1348 12.0024C18.1344 12.11 18.1129 12.2126 18.0741 12.3063C18.035 12.4006 17.9772 12.489 17.9005 12.5657L13.9005 16.5657C13.588 16.8782 13.0815 16.8782 12.7691 16.5657C12.4567 16.2533 12.4567 15.7468 12.7691 15.4344L15.4034 12.8Z" fill="black"/>
</svg>
