<svg width="24" height="24" viewBox="0 0 24 24" fill="none" xmlns="http://www.w3.org/2000/svg">
<path d="M0 12C0 18.628 5.372 24 12 24C18.628 24 24 18.628 24 12C24 5.372 18.628 0 12 0C5.372 0 0 5.372 0 12ZM12.8008 15.4017L15.4351 12.7674C15.7475 12.455 16.254 12.455 16.5665 12.7674C16.8789 13.0798 16.8789 13.5863 16.5665 13.8987L12.5665 17.8987C12.4898 17.9754 12.4014 18.0333 12.307 18.0724C12.2134 18.1112 12.1108 18.1327 12.0032 18.1331L12.0008 18.1331L11.9984 18.1331C11.8908 18.1327 11.7882 18.1112 11.6946 18.0724C11.6002 18.0333 11.5118 17.9754 11.4351 17.8987L7.4351 13.8987C7.12268 13.5863 7.12268 13.0798 7.4351 12.7674C7.74751 12.455 8.25405 12.455 8.56647 12.7674L11.2008 15.4017V6.66639C11.2008 6.22456 11.559 5.86639 12.0008 5.86639C12.4426 5.86639 12.8008 6.22456 12.8008 6.66639V15.4017Z" fill="black"/>
</svg>
