<svg width="24" height="24" viewBox="0 0 24 24" fill="none" xmlns="http://www.w3.org/2000/svg">
<path d="M0 12C0 18.6274 5.37258 24 12 24C18.6274 24 24 18.6274 24 12C24 5.37258 18.6274 0 12 0C5.37258 0 0 5.37258 0 12ZM9.05168 10.0689L7.93466 11.1855H16.068L14.9482 10.0657C14.6358 9.75332 14.6358 9.24679 14.9482 8.93437C15.2606 8.62195 15.7672 8.62195 16.0796 8.93437L18.5476 11.4024C18.6876 11.5339 18.7802 11.7152 18.7971 11.918C18.7991 11.9406 18.8 11.9634 18.8 11.9863C18.8 12.1985 18.7157 12.402 18.5656 12.552L16.0795 15.0373C15.767 15.3496 15.2605 15.3495 14.9481 15.0371C14.6358 14.7246 14.6358 14.2181 14.9483 13.9057L16.0689 12.7855H7.92846L9.05178 13.9089C9.3642 14.2213 9.3642 14.7278 9.05178 15.0402C8.73936 15.3527 8.23283 15.3527 7.92041 15.0402L5.43427 12.5541C5.28422 12.4041 5.19993 12.2005 5.19995 11.9883C5.19995 11.9879 5.19995 11.9874 5.19995 11.987C5.19995 11.9865 5.19995 11.986 5.19995 11.9855C5.19995 11.744 5.30696 11.5275 5.47616 11.3808L7.92051 8.93734C8.23298 8.62498 8.73951 8.62506 9.05188 8.93754C9.36424 9.25001 9.36416 9.75654 9.05168 10.0689Z" fill="black"/>
</svg>
