<svg width="24" height="24" viewBox="0 0 24 24" fill="none" xmlns="http://www.w3.org/2000/svg">
<path d="M24 12C24 5.372 18.628 0 12 0C5.372 0 0 5.372 0 12C0 18.628 5.372 24 12 24C18.628 24 24 18.628 24 12ZM11.1992 8.59783L8.5649 11.2321C8.25248 11.5446 7.74595 11.5446 7.43353 11.2321C7.12111 10.9197 7.12111 10.4132 7.43353 10.1008L11.4335 6.10077C11.5102 6.02407 11.5986 5.9662 11.693 5.92716C11.7866 5.88833 11.8892 5.86677 11.9968 5.86646C11.9976 5.86646 11.9984 5.86646 11.9992 5.86646C12 5.86646 12.0008 5.86646 12.0016 5.86646C12.1092 5.86677 12.2118 5.88833 12.3054 5.92716C12.3998 5.9662 12.4882 6.02407 12.5649 6.10077L16.5649 10.1008C16.8773 10.4132 16.8773 10.9197 16.5649 11.2321C16.2525 11.5446 15.746 11.5446 15.4335 11.2321L12.7992 8.59783V17.3331C12.7992 17.775 12.441 18.1331 11.9992 18.1331C11.5574 18.1331 11.1992 17.775 11.1992 17.3331V8.59783Z" fill="black"/>
</svg>
