<svg width="24" height="24" viewBox="0 0 24 24" fill="none" xmlns="http://www.w3.org/2000/svg">
<path d="M0 12C0 18.6274 5.37258 24 12 24C18.6274 24 24 18.6274 24 12C24 5.37258 18.6274 0 12 0C5.37258 0 0 5.37258 0 12ZM14.9473 15.0362C14.6349 14.7238 14.635 14.2172 14.9475 13.9049L16.0645 12.7882H7.92773L9.05105 13.9115C9.36347 14.224 9.36347 14.7305 9.05105 15.0429C8.73863 15.3553 8.2321 15.3553 7.91968 15.0429L5.43353 12.5568C5.28349 12.4067 5.1992 12.2032 5.19922 11.991L5.19922 11.9897L5.19922 11.9882C5.19922 11.7467 5.30623 11.5302 5.47542 11.3835L7.91977 8.94002C8.23225 8.62766 8.73878 8.62774 9.05114 8.94022C9.36351 9.25269 9.36342 9.75922 9.05095 10.0716L7.93393 11.1882H16.0707L14.9474 10.0649C14.635 9.75249 14.635 9.24595 14.9474 8.93353C15.2598 8.62111 15.7663 8.62111 16.0788 8.93353L18.5649 11.4197C18.715 11.5697 18.7992 11.7732 18.7992 11.9854L18.7992 11.9868L18.7992 11.9882C18.7992 12.2297 18.6922 12.4462 18.523 12.5929L16.0787 15.0364C15.7662 15.3488 15.2597 15.3487 14.9473 15.0362Z" fill="black"/>
</svg>
