<svg width="24" height="24" viewBox="0 0 24 24" fill="none" xmlns="http://www.w3.org/2000/svg">
<path d="M12 24C18.6274 24 24 18.6274 24 12C24 5.37258 18.6274 0 12 0C5.37258 0 0 5.37258 0 12C0 18.6274 5.37258 24 12 24ZM13.2097 6V10.2834L16.868 8.17126C17.3463 7.89511 17.9579 8.05898 18.234 8.53726C18.5102 9.01555 18.3463 9.62714 17.868 9.90329L14.2109 12.0148L17.8575 14.1203C18.3358 14.3965 18.4997 15.0081 18.2235 15.4864C17.9473 15.9646 17.3358 16.1285 16.8575 15.8523L13.2094 13.746V18.0002C13.2094 18.5525 12.7617 19.0002 12.2094 19.0002C11.6572 19.0002 11.2094 18.5525 11.2094 18.0002V13.7459L7.51198 15.8812C7.03371 16.1574 6.4221 15.9936 6.14591 15.5153C5.86972 15.037 6.03353 14.4254 6.5118 14.1492L10.2098 12.0137L6.50019 9.87207C6.02189 9.59594 5.858 8.98436 6.13413 8.50605C6.41025 8.02775 7.02184 7.86386 7.50014 8.13999L11.2097 10.2816V6C11.2097 5.44772 11.6574 5 12.2097 5C12.762 5 13.2097 5.44772 13.2097 6Z" fill="black"/>
</svg>
