<svg width="24" height="24" viewBox="0 0 24 24" fill="none" xmlns="http://www.w3.org/2000/svg">
<path d="M12 0C5.37258 0 0 5.37258 0 12C0 18.6274 5.37258 24 12 24C18.6274 24 24 18.6274 24 12C24 5.37258 18.6274 0 12 0ZM5.84953 12.6503C5.38337 12.3613 5.38337 11.6878 5.85024 11.3995L10.3956 7.61348C10.8904 7.30594 11.533 7.65975 11.533 8.23924V11.719C11.5904 11.5933 11.6851 11.481 11.817 11.3995L16.3624 7.61348C16.8572 7.30594 17.4998 7.65975 17.4998 8.23924V15.8106C17.4998 16.3901 16.8572 16.7432 16.3624 16.4364L11.8163 12.6503C11.6847 12.5687 11.5903 12.4565 11.533 12.331V15.8106C11.533 16.3901 10.8904 16.7432 10.3956 16.4364L5.84953 12.6503Z" fill="black"/>
</svg>
