<svg width="24" height="24" viewBox="0 0 24 24" fill="none" xmlns="http://www.w3.org/2000/svg">
<path d="M0 12C0 18.6274 5.37258 24 12 24C18.6274 24 24 18.6274 24 12C24 5.37258 18.6274 0 12 0C5.37258 0 0 5.37258 0 12ZM6 13.1594H18C18.2761 13.1594 18.5 13.3832 18.5 13.6594V14.2844C18.5 14.5605 18.2761 14.7844 18 14.7844H6C5.72386 14.7844 5.5 14.5605 5.5 14.2844V13.6594C5.5 13.3832 5.72386 13.1594 6 13.1594ZM5.5 9.79999C5.5 9.52385 5.72386 9.29999 6 9.29999H18C18.2761 9.29999 18.5 9.52385 18.5 9.79999V10.425C18.5 10.7011 18.2761 10.925 18 10.925H6C5.72386 10.925 5.5 10.7011 5.5 10.425V9.79999Z" fill="black"/>
</svg>
