<svg width="24" height="24" viewBox="0 0 24 24" fill="none" xmlns="http://www.w3.org/2000/svg">
<path d="M12 0C5.37258 0 0 5.37258 0 12C0 18.6274 5.37258 24 12 24C18.6274 24 24 18.6274 24 12C24 5.37258 18.6274 0 12 0ZM5.5 11.6894C5.5 11.4132 5.72386 11.1894 6 11.1894H18C18.2761 11.1894 18.5 11.4132 18.5 11.6894V12.3144C18.5 12.5905 18.2761 12.8144 18 12.8144H6C5.72386 12.8144 5.5 12.5905 5.5 12.3144V11.6894ZM6 15.0488H18C18.2761 15.0488 18.5 15.2726 18.5 15.5488V16.1738C18.5 16.4499 18.2761 16.6738 18 16.6738H6C5.72386 16.6738 5.5 16.4499 5.5 16.1738V15.5488C5.5 15.2726 5.72386 15.0488 6 15.0488ZM5.5 7.83002C5.5 7.55387 5.72386 7.33002 6 7.33002H18C18.2761 7.33002 18.5 7.55387 18.5 7.83002V8.45502C18.5 8.73116 18.2761 8.95502 18 8.95502H6C5.72386 8.95502 5.5 8.73116 5.5 8.45502V7.83002Z" fill="black"/>
</svg>
