<svg width="24" height="24" viewBox="0 0 24 24" fill="none" xmlns="http://www.w3.org/2000/svg">
<path d="M12 24C18.6274 24 24 18.6274 24 12C24 5.37258 18.6274 0 12 0C5.37258 0 0 5.37258 0 12C0 18.6274 5.37258 24 12 24ZM7.1 7.8002H15.5C16.6598 7.8002 17.6 8.7404 17.6 9.9002V14.1002C17.6 15.26 16.6598 16.2002 15.5 16.2002H7.1C5.9402 16.2002 5 15.26 5 14.1002V9.9002C5 8.7404 5.9402 7.8002 7.1 7.8002ZM19.75 10.5995V13.3995C19.75 13.8137 19.4142 14.1495 19 14.1495C18.5858 14.1495 18.25 13.8137 18.25 13.3995V10.5995C18.25 10.1853 18.5858 9.84952 19 9.84952C19.4142 9.84952 19.75 10.1853 19.75 10.5995ZM6.75 10.2502V13.7502C6.75 14.1368 7.0634 14.4502 7.45 14.4502H10.95C11.3366 14.4502 11.65 14.1368 11.65 13.7502V10.2502C11.65 9.8636 11.3366 9.5502 10.95 9.5502H7.45C7.0634 9.5502 6.75 9.8636 6.75 10.2502Z" fill="black"/>
</svg>
