<svg width="24" height="24" viewBox="0 0 24 24" fill="none" xmlns="http://www.w3.org/2000/svg">
<path d="M24 12C24 5.37258 18.6274 0 12 0C5.37258 0 0 5.37258 0 12C0 18.6274 5.37258 24 12 24C18.6274 24 24 18.6274 24 12ZM18.25 11.3847L17.2501 11.3848C17.25 11.3848 17.25 11.3848 17.25 11.3848V12.5097H18.25V11.3847ZM17.2495 14.0097C17.2267 15.0944 16.3402 15.9668 15.25 15.9668H10.6254L13.4611 12.4155C13.6409 12.1903 13.6758 11.882 13.5508 11.6223C13.4259 11.3626 13.1632 11.1975 12.875 11.1975H10.909L13.3289 8.08789H15.25C16.286 8.08789 17.1381 8.87566 17.2398 9.88489C17.2432 9.88484 17.2466 9.88482 17.2499 9.88482L18.4999 9.88473C19.1903 9.88467 19.75 10.4443 19.75 11.1347V12.7597C19.75 13.45 19.1904 14.0097 18.5 14.0097H17.25C17.2498 14.0097 17.2497 14.0097 17.2495 14.0097ZM7 15.9668C5.89543 15.9668 5 15.0714 5 13.9668V10.0879C5 8.98332 5.89543 8.08789 7 8.08789H11.4282L8.7831 11.4869C8.60716 11.713 8.57538 12.0195 8.70121 12.2769C8.82705 12.5343 9.08851 12.6975 9.37499 12.6975H11.3164L8.70592 15.9668H7Z" fill="black"/>
</svg>
