<svg width="24" height="24" viewBox="0 0 24 24" fill="none" xmlns="http://www.w3.org/2000/svg">
<path d="M12 0C5.37258 0 0 5.37258 0 12C0 18.6274 5.37258 24 12 24C18.6274 24 24 18.6274 24 12C24 5.37258 18.6274 0 12 0ZM14.8297 4.34998C15.1887 4.34998 15.4797 4.64099 15.4797 4.99998V5.74996H16.2297C16.5886 5.74996 16.8797 6.04097 16.8797 6.39996C16.8797 6.75894 16.5886 7.04996 16.2297 7.04996H15.4797V7.79994C15.4797 8.15892 15.1887 8.44994 14.8297 8.44994C14.4707 8.44994 14.1797 8.15892 14.1797 7.79994V7.04996L13.4297 7.04996C13.0707 7.04996 12.7797 6.75894 12.7797 6.39996C12.7797 6.04097 13.0707 5.74996 13.4297 5.74996H14.1797V4.99998C14.1797 4.64099 14.4707 4.34998 14.8297 4.34998ZM14.8302 9.20002C15.5363 9.20002 16.1813 8.93871 16.6738 8.50752C16.7933 8.92807 16.8573 9.372 16.8573 9.83087L16.8573 12.3932C17.6715 12.6261 18.2675 13.376 18.2675 14.265C18.2675 15.3401 17.3959 16.2117 16.3208 16.2117H7.67665C6.60153 16.2117 5.72998 15.3401 5.72998 14.265C5.72998 13.3562 6.35278 12.5928 7.19486 12.3784L7.19553 9.83087C7.19553 7.16286 9.35838 5 12.0264 5C12.151 5 12.2746 5.00472 12.3969 5.01399C12.1636 5.42267 12.0303 5.8958 12.0303 6.40006C12.0303 7.94644 13.2839 9.20002 14.8302 9.20002ZM10.6778 17.3943L10.7041 17.4489L10.7041 17.4489C10.768 17.5819 10.8167 17.6831 10.8524 17.7347C11.1111 18.1079 11.5405 18.3501 12.0263 18.3501C12.6262 18.3501 13.1411 17.9798 13.3519 17.4529C13.4852 17.1196 13.8635 16.9575 14.1968 17.0908C14.5301 17.2242 14.6922 17.6025 14.5589 17.9358C14.1574 18.9393 13.1756 19.6501 12.0263 19.6501C11.0963 19.6501 10.2752 19.1839 9.78405 18.4754C9.68239 18.3287 9.58056 18.1141 9.52644 18L9.50675 17.9587C9.35089 17.6354 9.48669 17.2468 9.81007 17.091C10.1335 16.9351 10.522 17.0709 10.6778 17.3943Z" fill="black"/>
</svg>
