<svg width="24" height="24" viewBox="0 0 24 24" fill="none" xmlns="http://www.w3.org/2000/svg">
<path d="M12 24C18.6274 24 24 18.6274 24 12C24 5.37258 18.6274 0 12 0C5.37258 0 0 5.37258 0 12C0 18.6274 5.37258 24 12 24ZM8 5H12.9997C15.2089 5 16.9997 6.79086 16.9997 9C16.9997 9.97959 16.6476 10.8769 16.063 11.5724C17.2238 12.2725 18 13.5456 18 15C18 17.2091 16.2091 19 14 19H8C7.44772 19 7 18.5523 7 18V6C7 5.44772 7.44772 5 8 5ZM9 17H14C15.1046 17 16 16.1046 16 15C16 13.8954 15.1046 13 14 13H9V17ZM9 11V7H12.9997C14.1043 7 14.9997 7.89543 14.9997 9C14.9997 10.1046 14.1043 11 12.9997 11H9Z" fill="black"/>
</svg>
