<svg width="24" height="24" viewBox="0 0 24 24" fill="none" xmlns="http://www.w3.org/2000/svg">
<path d="M12 24C18.6274 24 24 18.6274 24 12C24 5.37258 18.6274 0 12 0C5.37258 0 0 5.37258 0 12C0 18.6274 5.37258 24 12 24ZM7.05955 13.4C6.63705 13.4 6.405 12.9084 6.67349 12.5822L12.4768 5.53119C12.604 5.37662 12.8543 5.48411 12.8297 5.68279L12.292 10.0387C12.2552 10.3369 12.4878 10.6 12.7882 10.6H17.3858C17.8083 10.6 18.0403 11.0915 17.7719 11.4177L11.9685 18.4688C11.8413 18.6233 11.5911 18.5158 11.6156 18.3172L12.1534 13.9612C12.1902 13.6631 11.9576 13.4 11.6571 13.4H7.05955Z" fill="black"/>
</svg>
