<svg width="24" height="24" viewBox="0 0 24 24" fill="none" xmlns="http://www.w3.org/2000/svg">
<path d="M12 0C5.37258 0 0 5.37258 0 12C0 18.6274 5.37258 24 12 24C18.6274 24 24 18.6274 24 12C24 5.37258 18.6274 0 12 0ZM12.1141 17.1164C12.1141 17.6044 11.7304 18 11.2572 18H10.014C9.54075 18 9.15713 17.6044 9.15713 17.1164C9.15713 17.6044 8.77351 18 8.30029 18H7.05703C6.58382 18 6.2002 17.6044 6.2002 17.1164V16.4262H12.1141V17.1164ZM17.7833 16.5475C17.9058 17.0189 17.6345 17.5034 17.1774 17.6297L15.9765 17.9615C15.5194 18.0878 15.0496 17.808 14.9271 17.3367L14.7539 16.6699L17.61 15.8808L17.7833 16.5475ZM17.4594 15.3012L14.6033 16.0904L12.723 8.85468L15.443 8.10365L15.4929 8.08485C15.5221 8.07073 15.5483 8.05208 15.5708 8.03L17.4594 15.3012ZM12.1141 15.8262H6.2002V8.35456H12.1141V15.8262ZM15.4388 7.52201C15.4077 7.51429 15.3751 7.51169 15.3421 7.51488L15.2924 7.5241L12.5724 8.27513L12.3587 7.45248C12.2362 6.98114 12.5075 6.49665 12.9646 6.37035L14.1655 6.03854C14.6226 5.91224 15.0924 6.19196 15.2149 6.66331L15.4388 7.52201ZM9.15321 6.79846L9.15713 6.88355C9.15713 6.39558 9.54075 6 10.014 6H11.2572C11.7304 6 12.1141 6.39558 12.1141 6.88355V7.75456H6.2002V6.88355C6.2002 6.39558 6.58382 6 7.05703 6H8.30029C8.74568 6 9.11169 6.35041 9.15321 6.79846Z" fill="black"/>
</svg>
