<svg width="24" height="24" viewBox="0 0 24 24" fill="none" xmlns="http://www.w3.org/2000/svg">
<path d="M12 0C5.37258 0 0 5.37258 0 12C0 18.6274 5.37258 24 12 24C18.6274 24 24 18.6274 24 12C24 5.37258 18.6274 0 12 0ZM15 7C16.6571 7 18 7.71627 18 8.6V16.4596C18 16.905 17.4782 17.1092 17.1253 16.8374C16.6117 16.4417 15.9017 16.0667 15 16.0667C13.9586 16.0667 13.1729 16.567 12.6501 17.0215V10.3336C12.6501 9.97461 12.3591 9.68359 12.0001 9.68359C11.6411 9.68359 11.3501 9.97461 11.3501 10.3336V16.8597C10.8213 16.353 10.1447 16.0667 9 16.0667C8.24473 16.0667 7.55473 16.399 7.0274 16.7608C6.6425 17.0249 6 16.76 6 16.2932V8.6C6 7.71627 7.34291 7 9 7C10.6571 7 12 7.71627 12 8.6C12 7.71627 13.3429 7 15 7Z" fill="black"/>
</svg>
