<svg width="24" height="24" viewBox="0 0 24 24" fill="none" xmlns="http://www.w3.org/2000/svg">
<path d="M12 0C5.37258 0 0 5.37258 0 12C0 18.6274 5.37258 24 12 24C18.6274 24 24 18.6274 24 12C24 5.37258 18.6274 0 12 0ZM7.69922 17.1395V7.71429C7.69922 6.76751 8.46673 6 9.4135 6H14.5564C15.5031 6 16.2706 6.76751 16.2706 7.71429V17.1395C16.2706 17.7901 15.6418 18.2058 15.1221 17.8947C13.8527 17.1335 11.9849 16.0124 11.9849 16.0124C11.9849 16.0124 10.1171 17.1327 8.84779 17.8947C8.32805 18.2058 7.69922 17.7901 7.69922 17.1395Z" fill="black"/>
</svg>
