<svg width="24" height="24" viewBox="0 0 24 24" fill="none" xmlns="http://www.w3.org/2000/svg">
<path d="M0 12C0 18.6274 5.37258 24 12 24C18.6274 24 24 18.6274 24 12C24 5.37258 18.6274 0 12 0C5.37258 0 0 5.37258 0 12ZM18.5 8.75C18.5 9.30228 18.0523 9.75 17.5 9.75H6.5C5.94772 9.75 5.5 9.30228 5.5 8.75V7.5C5.5 6.94772 5.94771 6.5 6.5 6.5H17.5C18.0523 6.5 18.5 6.94771 18.5 7.5V8.75ZM17.7207 16.2C17.7207 17.3045 16.8252 18.2 15.7207 18.2H8.28027C7.1757 18.2 6.28027 17.3045 6.28027 16.2V10.4H17.7207V16.2ZM9.59473 13.1299C9.59473 13.4889 9.88574 13.7799 10.2447 13.7799H13.7547C14.1137 13.7799 14.4047 13.4889 14.4047 13.1299C14.4047 12.7709 14.1137 12.4799 13.7547 12.4799H10.2447C9.88574 12.4799 9.59473 12.7709 9.59473 13.1299Z" fill="black"/>
</svg>
