<svg width="24" height="24" viewBox="0 0 24 24" fill="none" xmlns="http://www.w3.org/2000/svg">
<path d="M24 12C24 5.37258 18.6274 0 12 0C5.37258 0 0 5.37258 0 12C0 18.6274 5.37258 24 12 24C18.6274 24 24 18.6274 24 12ZM11.8594 6.32566C11.8596 6.33264 11.8597 6.33965 11.8597 6.34668V7.20507C11.8597 7.21948 11.8596 7.23387 11.8594 7.24824V8.86551H15.3279C15.7422 8.86551 16.0779 9.2013 16.0779 9.61551C16.0779 10.0297 15.7422 10.3655 15.3279 10.3655H11.8594V15.6927C11.8594 16.553 12.5571 17.25 13.4167 17.25C13.9558 17.25 14.4435 17.0321 14.7973 16.6782C15.0902 16.3853 15.5651 16.3853 15.858 16.6782C16.1509 16.9711 16.1509 17.446 15.858 17.7389C15.2342 18.3626 14.3694 18.75 13.4167 18.75C11.7293 18.75 10.3594 17.382 10.3594 15.6927V10.3655H8.69922C8.28501 10.3655 7.94922 10.0297 7.94922 9.61551C7.94922 9.2013 8.28501 8.86551 8.69922 8.86551C9.60566 8.86551 10.3427 8.13881 10.3594 7.23635V6C10.3594 5.58579 10.6952 5.25 11.1094 5.25C11.5236 5.25 11.8594 5.58579 11.8594 6V6.32566Z" fill="black"/>
</svg>
