<svg width="24" height="24" viewBox="0 0 24 24" fill="none" xmlns="http://www.w3.org/2000/svg">
<path d="M12 0C5.37258 0 0 5.37258 0 12C0 18.6274 5.37258 24 12 24C18.6274 24 24 18.6274 24 12C24 5.37258 18.6274 0 12 0ZM14.23 18.5H9.78003C8.67546 18.5 7.78003 17.6046 7.78003 16.5V7.5C7.78003 6.39543 8.67546 5.5 9.78003 5.5H14.23C15.3346 5.5 16.23 6.39543 16.23 7.5V16.5C16.23 17.6046 15.3346 18.5 14.23 18.5ZM10.9942 11.1436C10.9745 11.247 10.963 11.3533 10.9615 11.462C10.9573 11.8032 11.0485 12.1222 11.2098 12.3937C10.7226 12.3684 10.3385 11.9608 10.3449 11.462C10.3506 11.0072 10.6788 10.6279 11.1062 10.545L10.9942 11.1436ZM12.1327 9.64224C12.1327 9.64224 12.3302 8.80068 11.5205 8.75C11.4559 8.75032 11.4357 8.78309 11.4274 8.82726L11.2689 9.67501C11.0484 9.67798 10.8371 9.72127 10.642 9.79885L10.6713 9.64224C10.6713 9.64224 10.8688 8.80068 10.0591 8.75C9.99485 8.75024 9.97449 8.78277 9.96626 8.82654L9.53281 11.1436C9.5131 11.247 9.50145 11.3533 9.50015 11.462C9.48768 12.4479 10.2711 13.25 11.2465 13.25C12.2221 13.25 13.0259 12.4479 13.0385 11.462C13.0418 11.196 12.9763 11.0163 12.86 10.9115C12.7037 10.7708 12.4298 10.7986 12.2981 10.9727C12.1901 11.1151 12.1924 11.3245 12.1935 11.4278C12.1936 11.4344 12.1936 11.4406 12.1937 11.4463C12.1937 11.452 12.1937 11.4573 12.1936 11.462C12.1909 11.6767 12.1157 11.8741 11.9928 12.032C11.8739 11.8741 11.8037 11.6767 11.8064 11.462C11.8129 10.9468 12.233 10.5277 12.7426 10.5277C13.2523 10.5277 13.6616 10.9468 13.6552 11.462C13.6509 11.7971 13.4715 12.0915 13.2063 12.2562L13.2027 12.2585C13.1823 12.271 13.1383 12.298 13.1031 12.3359C13.0755 12.3658 13.0547 12.4047 13.0429 12.4268L13.038 12.4359C12.8812 12.7208 12.6598 12.9647 12.3948 13.1477C12.3797 13.1581 12.3527 13.1783 12.3612 13.1988C12.369 13.2177 12.4123 13.2246 12.4312 13.2276C12.5213 13.2423 12.6137 13.25 12.7081 13.25C13.6835 13.25 14.4874 12.4479 14.4999 11.462C14.5124 10.4761 13.729 9.67388 12.7533 9.67388C12.5246 9.67388 12.3053 9.71854 12.1034 9.79885L12.1327 9.64224ZM10.3801 16.7444C10.3801 17.1034 10.6711 17.3944 11.0301 17.3944H12.9801C13.3391 17.3944 13.6301 17.1034 13.6301 16.7444C13.6301 16.3854 13.3391 16.0944 12.9801 16.0944H11.0301C10.6711 16.0944 10.3801 16.3854 10.3801 16.7444Z" fill="black"/>
</svg>
