<svg width="24" height="24" viewBox="0 0 24 24" fill="none" xmlns="http://www.w3.org/2000/svg">
<path d="M12 0C5.37258 0 0 5.37258 0 12C0 18.6274 5.37258 24 12 24C18.6274 24 24 18.6274 24 12C24 5.37258 18.6274 0 12 0ZM15.5 18.5H8.5C6.84315 18.5 5.5 17.1569 5.5 15.5V8.5C5.5 6.84315 6.84315 5.5 8.5 5.5H15.5C17.1569 5.5 18.5 6.84315 18.5 8.5V15.5C18.5 17.1569 17.1569 18.5 15.5 18.5ZM8.84961 14.8737C8.84961 14.9842 8.93915 15.0737 9.04961 15.0737H9.94961C10.0601 15.0737 10.1496 14.9842 10.1496 14.8737V10.9585C10.1496 10.8481 10.0601 10.7585 9.94961 10.7585H9.04961C8.93915 10.7585 8.84961 10.8481 8.84961 10.9585V14.8737ZM13.3 11.8295C13.8279 11.8295 14 12.257 14 12.7849V14.874C14 14.9844 14.0895 15.074 14.2 15.074H15.23C15.3405 15.074 15.43 14.9844 15.43 14.874V12.7849C15.43 11.4169 14.851 10.4884 13.3913 10.7461C13.0162 10.8296 12.7423 10.9692 12.5422 11.157V10.9585C12.5422 10.8481 12.4526 10.7585 12.3422 10.7585H11.4422C11.3317 10.7585 11.2422 10.8481 11.2422 10.9585V14.8737C11.2422 14.9842 11.3317 15.0737 11.4422 15.0737H12.3422C12.4526 15.0737 12.5422 14.9842 12.5422 14.8737V12.7991L12.5483 12.7849C12.5483 12.257 12.7721 11.8295 13.3 11.8295ZM9.50001 9.99998C9.91334 9.99998 10.25 9.66331 10.25 9.24999C10.25 8.83333 9.91334 8.5 9.49668 8.5C9.08335 8.5 8.74669 8.83666 8.75002 9.24999C8.75002 9.66331 9.08669 9.99998 9.50001 9.99998Z" fill="black"/>
</svg>
