<svg width="24" height="24" viewBox="0 0 24 24" fill="none" xmlns="http://www.w3.org/2000/svg">
<path d="M12 24C18.6274 24 24 18.6274 24 12C24 5.37258 18.6274 0 12 0C5.37258 0 0 5.37258 0 12C0 18.6274 5.37258 24 12 24ZM8.26315 12.9474C8.96076 12.9474 9.52629 13.5129 9.52629 14.2105V15.7263C9.52629 16.982 8.50834 17.9999 7.25263 17.9999C7.11311 17.9999 7 17.8868 7 17.7473V14.2105C7 13.5129 7.56553 12.9474 8.26315 12.9474ZM10.7894 10.4211C10.7894 9.72348 11.355 9.15795 12.0526 9.15795C12.7502 9.15795 13.3157 9.72348 13.3157 10.4211V15.7263C13.3157 16.982 12.2978 18 11.0421 18C10.9025 18 10.7894 17.8869 10.7894 17.7474V10.4211ZM15.842 6C16.5396 6 17.1052 6.56553 17.1052 7.26315V15.7262C17.1052 16.9819 16.0872 17.9999 14.8315 17.9999C14.692 17.9999 14.5789 17.8868 14.5789 17.7473V7.26315C14.5789 6.56553 15.1444 6 15.842 6Z" fill="black"/>
</svg>
