<svg width="24" height="24" viewBox="0 0 24 24" fill="none" xmlns="http://www.w3.org/2000/svg">
<path d="M12 24C18.6274 24 24 18.6274 24 12C24 5.37258 18.6274 0 12 0C5.37258 0 0 5.37258 0 12C0 18.6274 5.37258 24 12 24ZM13.8915 15.8889H12.1473C12.0677 15.8889 11.9914 15.9205 11.9351 15.9768L9.76545 18.1464C9.45046 18.4614 8.91189 18.2383 8.91189 17.7929V16.1717C8.91189 16.0155 8.78527 15.8889 8.62906 15.8889C7.06705 15.8889 5.80078 14.6226 5.80078 13.0606V9.35375C5.80078 8.5581 6.11685 7.79504 6.67946 7.23243L8.03321 5.87868C8.59582 5.31607 9.35888 5 10.1545 5H15.2452C16.9021 5 18.2452 6.34315 18.2452 8V11.9494C18.2452 12.4798 18.0345 12.9885 17.6594 13.3636L16.0128 15.0102C15.4502 15.5728 14.6871 15.8889 13.8915 15.8889ZM15.1348 7.36133C14.7206 7.36133 14.3848 7.69711 14.3848 8.11133V10.4447C14.3848 10.8589 14.7206 11.1947 15.1348 11.1947C15.549 11.1947 15.8848 10.8589 15.8848 10.4447V8.11133C15.8848 7.69711 15.549 7.36133 15.1348 7.36133ZM12.7734 8.11133C12.7734 7.69711 12.4377 7.36133 12.0234 7.36133C11.6092 7.36133 11.2734 7.69711 11.2734 8.11133V10.4447C11.2734 10.8589 11.6092 11.1947 12.0234 11.1947C12.4377 11.1947 12.7734 10.8589 12.7734 10.4447V8.11133Z" fill="black"/>
</svg>
