<svg width="24" height="24" viewBox="0 0 24 24" fill="none" xmlns="http://www.w3.org/2000/svg">
<path d="M12 24C18.6274 24 24 18.6274 24 12C24 5.37258 18.6274 0 12 0C5.37258 0 0 5.37258 0 12C0 18.6274 5.37258 24 12 24ZM14.0095 5.99995C14.0095 6.16452 14.0687 6.4765 14.233 6.88207C14.3919 7.27458 14.6292 7.70455 14.9344 8.0998C15.5563 8.90546 16.3669 9.45802 17.2849 9.45802C17.7268 9.45802 18.0849 9.81619 18.0849 10.258C18.0849 10.6998 17.7268 11.058 17.2849 11.058C15.8965 11.058 14.7908 10.3368 14.0095 9.48384V14.9032C14.0095 17.0573 12.259 18.8 10.1043 18.8C7.94963 18.8 6.19922 17.0573 6.19922 14.9032C6.19922 12.749 7.94963 11.0064 10.1043 11.0064C10.5462 11.0064 10.9043 11.3646 10.9043 11.8064C10.9043 12.2482 10.5462 12.6064 10.1043 12.6064C8.82923 12.6064 7.79922 13.6367 7.79922 14.9032C7.79922 16.1696 8.82923 17.2 10.1043 17.2C11.3795 17.2 12.4095 16.1696 12.4095 14.9032V5.99995C12.4095 5.55812 12.7676 5.19995 13.2095 5.19995C13.6513 5.19995 14.0095 5.55812 14.0095 5.99995Z" fill="black"/>
</svg>
