<svg width="24" height="24" viewBox="0 0 24 24" fill="none" xmlns="http://www.w3.org/2000/svg">
<path d="M12 0C5.37258 0 0 5.37258 0 12C0 18.6274 5.37258 24 12 24C18.6274 24 24 18.6274 24 12C24 5.37258 18.6274 0 12 0ZM8.68841 6.00001C8.68841 5.64102 8.97942 5.35001 9.33841 5.35001H13.9329C14.2919 5.35001 14.5829 5.64102 14.5829 6.00001C14.5829 6.35899 14.2919 6.65001 13.9329 6.65001H13.456V7.27815C15.2614 7.95868 16.5457 9.70224 16.5457 11.7457V17.3636C16.5457 17.7151 16.2608 18 15.9093 18C15.8742 18 15.8391 17.9971 15.8044 17.9913L11.7078 17.3064C8.9908 16.8521 7 14.5008 7 11.7461C7 9.87325 8.07866 8.25222 9.64861 7.47056V6.65001H9.33841C8.97942 6.65001 8.68841 6.35899 8.68841 6.00001ZM10.9486 7.04382C11.2164 6.9972 11.4918 6.9729 11.7728 6.9729C11.9018 6.9729 12.0296 6.97802 12.156 6.98806V6.65001H10.9486V7.04382ZM11.7646 14.9168C13.5925 14.9168 15.0744 13.4982 15.0744 11.7483C15.0744 11.6506 15.0569 11.3924 15.0221 10.9738C14.9528 10.1412 14.2568 9.50079 13.4213 9.50079C12.6102 9.50079 12.0535 10.0575 12.0535 10.8687V13.4814C12.0535 13.5927 12.0339 13.7839 11.751 13.7839C11.6397 13.7839 11.4486 13.7839 11.4486 13.4814V10.9051C11.4486 10.0738 10.8756 9.50079 10.0443 9.50079C9.20172 9.50079 8.50988 10.1669 8.47799 11.0089C8.46255 11.4161 8.45483 11.6626 8.45483 11.7483C8.45483 13.4982 9.93667 14.9168 11.7646 14.9168ZM9.91425 10.7988C10.1904 10.7988 10.4142 11.0226 10.4142 11.2988V12.0874C10.4142 12.3636 10.1904 12.5874 9.91425 12.5874C9.6381 12.5874 9.41425 12.3636 9.41425 12.0874V11.2988C9.41425 11.0226 9.6381 10.7988 9.91425 10.7988ZM14.1035 11.2988V12.0874C14.1035 12.3636 13.8797 12.5874 13.6035 12.5874C13.3274 12.5874 13.1035 12.3636 13.1035 12.0874V11.2988C13.1035 11.0226 13.3274 10.7988 13.6035 10.7988C13.8797 10.7988 14.1035 11.0226 14.1035 11.2988Z" fill="black"/>
</svg>
