<svg width="24" height="24" viewBox="0 0 24 24" fill="none" xmlns="http://www.w3.org/2000/svg">
<path d="M12 0C5.37258 0 0 5.37258 0 12C0 18.6274 5.37258 24 12 24C18.6274 24 24 18.6274 24 12C24 5.37258 18.6274 0 12 0ZM5.12342 9.25351C5.23555 7.85313 6.36281 6.77273 7.76448 6.67799C9.08963 6.58843 10.7217 6.5 12 6.5C13.2783 6.5 14.9104 6.58843 16.2355 6.67799C17.6372 6.77273 18.7645 7.85313 18.8766 9.25351C18.9445 10.1017 19 11.0642 19 11.9444C19 12.8247 18.9445 13.7871 18.8766 14.6354C18.7645 16.0358 17.6372 17.1162 16.2355 17.2109C14.9104 17.3005 13.2783 17.3889 12 17.3889C10.7217 17.3889 9.08963 17.3005 7.76448 17.2109C6.36281 17.1162 5.23555 16.0358 5.12342 14.6354C5.0555 13.7871 5 12.8247 5 11.9444C5 11.0642 5.0555 10.1017 5.12342 9.25351ZM10.4434 13.6214C10.4434 14.0845 10.9457 14.373 11.3457 14.1397L14.2216 12.4621C14.6185 12.2305 14.6185 11.657 14.2216 11.4255L11.3457 9.74792C10.9457 9.51459 10.4434 9.80311 10.4434 10.2662V13.6214Z" fill="black"/>
</svg>
