<svg width="24" height="24" viewBox="0 0 24 24" fill="none" xmlns="http://www.w3.org/2000/svg">
<path d="M12 24C18.6274 24 24 18.6274 24 12C24 5.37258 18.6274 0 12 0C5.37258 0 0 5.37258 0 12C0 18.6274 5.37258 24 12 24ZM18.4444 11.3062C18.4444 13.5733 17.264 15.5622 15.4912 16.6726C15.7093 17.1731 16.2171 17.4865 16.6022 17.6606C16.8802 17.7863 17.089 18.052 17.089 18.3572C17.089 18.6769 16.8615 18.9575 16.5429 18.9845C15.0016 19.1152 14.2192 18.4022 13.6887 17.4365C13.218 17.552 12.728 17.6141 12.2222 17.6141C8.78516 17.6141 6 14.7914 6 11.3071C6 7.82453 8.78516 5 12.2222 5C15.6584 5 18.4444 7.82453 18.4444 11.3062ZM14.5672 14.8561C15.1115 14.1509 15.4475 13.1945 15.4475 12.1418L15.4484 10.5169C15.4484 8.34341 14.0247 6.58202 12.2694 6.58202C10.5142 6.58202 9.09229 8.34341 9.09229 10.5169V12.141C9.09229 14.3136 10.5142 16.075 12.2694 16.075C12.5241 16.075 12.7691 16.0374 13.0062 15.9674C12.7088 15.456 12.3466 15.1774 12.0466 15.0259C11.735 14.8684 11.4522 14.5698 11.4522 14.2207C11.4522 13.8756 11.723 13.5845 12.0665 13.6172C13.1366 13.719 13.9903 14.2408 14.5672 14.8561Z" fill="black"/>
</svg>
