<svg width="24" height="24" viewBox="0 0 24 24" fill="none" xmlns="http://www.w3.org/2000/svg">
<path d="M12 0C5.37258 0 0 5.37258 0 12C0 18.6274 5.37258 24 12 24C18.6274 24 24 18.6274 24 12C24 5.37258 18.6274 0 12 0ZM10.9251 16.4029L10.7611 16.7439C10.687 16.8777 10.5544 16.967 10.4054 16.9872L10.3406 16.9916H6.49529C6.14138 16.9916 5.91646 16.6264 6.05552 16.3164L6.08591 16.259L10.9251 8.39475V16.4029ZM15.9662 7.00516C14.9211 7.11702 14.1075 8.00149 14.1075 9.076C14.1075 10.0799 14.8178 10.918 15.7635 11.1135C14.3183 11.2698 13.1933 12.4938 13.1933 13.9806C13.1933 15.5617 14.4656 16.8456 16.0422 16.8644C16.0424 16.8644 16.0425 16.8643 16.0426 16.8643L16.0773 16.8646C16.0656 16.8646 16.0539 16.8645 16.0422 16.8644C16.0161 16.8728 15.9889 16.879 15.961 16.8827L15.8958 16.8871H12.0504C11.8071 16.8871 11.606 16.7063 11.5741 16.4717L11.5698 16.4065V7.48071C11.5698 7.23736 11.7506 7.03625 11.9852 7.00443L12.0504 7.00004H15.8958C15.9197 7.00004 15.9432 7.00179 15.9662 7.00516ZM16.1838 12.0608C16.1881 12.0611 16.1925 12.0613 16.1969 12.0616C16.2047 12.0621 16.2127 12.0626 16.2207 12.0632C16.2447 12.065 16.2681 12.0671 16.2914 12.0697C16.3085 12.0716 16.3257 12.0737 16.3427 12.0761C16.3542 12.0777 16.3656 12.0794 16.377 12.0811C16.4586 12.0939 16.5385 12.1118 16.6163 12.1345C17.4159 12.3676 18 13.1059 18 13.9806C18 14.9404 17.2966 15.736 16.3772 15.88C16.361 15.8826 16.3447 15.8849 16.3283 15.887L16.3279 15.8871C16.3158 15.8887 16.3036 15.8901 16.2913 15.8915L16.2915 15.8915C16.2682 15.8941 16.2447 15.8962 16.2211 15.898C16.209 15.8989 16.197 15.8996 16.1849 15.9003L16.1851 15.9003C16.1494 15.9023 16.1135 15.9033 16.0773 15.9033C15.0155 15.9033 14.1546 15.0425 14.1546 13.9806C14.1546 12.9187 15.0155 12.0579 16.0773 12.0579C16.113 12.0579 16.1485 12.0589 16.1838 12.0608ZM17.4722 9.076C17.4722 9.78391 16.8983 10.3578 16.1904 10.3578C15.4825 10.3578 14.9086 9.78391 14.9086 9.076C14.9086 8.36809 15.4825 7.79421 16.1904 7.79421C16.8983 7.79421 17.4722 8.36809 17.4722 9.076ZM9.20446 8.61328C9.20446 9.49817 8.48712 10.2155 7.60223 10.2155C6.71734 10.2155 6 9.49817 6 8.61328C6 7.72839 6.71734 7.01105 7.60223 7.01105C8.48712 7.01105 9.20446 7.72839 9.20446 8.61328Z" fill="black"/>
</svg>
