<svg width="24" height="24" viewBox="0 0 24 24" fill="none" xmlns="http://www.w3.org/2000/svg">
<path d="M12 0C5.37258 0 0 5.37258 0 12C0 18.6274 5.37258 24 12 24C18.6274 24 24 18.6274 24 12C24 5.37258 18.6274 0 12 0ZM9.18379 12.7022L9.49741 11.026C8.30063 11.2581 7.38166 12.3201 7.36569 13.5936C7.3479 14.9902 8.42334 16.1314 9.78754 16.2025C9.33569 15.4422 9.08046 14.549 9.09232 13.5936C9.09643 13.2893 9.12859 12.9916 9.18379 12.7022ZM12.3716 8.49828L12.2894 8.93677C12.8549 8.7119 13.4689 8.58688 14.1094 8.58688C16.8412 8.58688 19.0347 10.8331 18.9996 13.5936C18.9647 16.354 16.7137 18.6 13.9825 18.6C13.7184 18.6 13.4595 18.5784 13.2073 18.5373C13.1544 18.5289 13.0332 18.5096 13.0113 18.4568C12.9876 18.3992 13.0631 18.3428 13.1053 18.3135C13.8475 17.801 14.4672 17.1181 14.9063 16.3205C14.9103 16.3134 14.9149 16.3048 14.9201 16.2949C14.9531 16.2332 15.0114 16.1242 15.0888 16.0406C15.1871 15.9345 15.3104 15.8589 15.3675 15.8238C15.3712 15.8215 15.3746 15.8194 15.3778 15.8175C16.1202 15.3561 16.6224 14.5319 16.6345 13.5936C16.6526 12.151 15.5064 10.9777 14.0793 10.9777C12.6523 10.9777 11.4761 12.151 11.4578 13.5936C11.4503 14.1946 11.6469 14.7473 11.9799 15.1897C12.3239 14.7473 12.5346 14.1946 12.5422 13.5936C12.5425 13.5672 12.5422 13.535 12.5418 13.4978C12.5386 13.2086 12.5322 12.6222 12.8346 12.2234C13.2034 11.7361 13.9705 11.6581 14.4079 12.0521C14.7336 12.3458 14.917 12.8488 14.9077 13.5936C14.8725 16.354 12.622 18.6 9.89018 18.6C7.15904 18.6 4.96551 16.354 5.00041 13.5936C5.00406 13.2893 5.03668 12.9916 5.09187 12.7022L6.30553 6.2143C6.32857 6.09175 6.38559 6.00067 6.56556 6C8.83276 6.14189 8.27964 8.49828 8.27964 8.49828L8.19753 8.93677C8.7438 8.71955 9.33546 8.59834 9.9529 8.59002L10.3968 6.21632C10.42 6.09265 10.4766 6.0009 10.6575 6C12.9247 6.14189 12.3716 8.49828 12.3716 8.49828Z" fill="black"/>
</svg>
