<svg width="24" height="24" viewBox="0 0 24 24" fill="none" xmlns="http://www.w3.org/2000/svg">
<path d="M12 1.14441e-05C5.37258 1.14441e-05 0 5.37259 0 12C0 18.6274 5.37258 24 12 24C18.6274 24 24 18.6274 24 12C24 5.37259 18.6274 1.14441e-05 12 1.14441e-05ZM7.3124 7.31052C8.45143 6.17148 9.90172 5.53341 11.3895 5.39631L8.33715 10.6685L6.80809 7.87506C6.96359 7.67978 7.13169 7.49123 7.3124 7.31052ZM5.90524 14.6142C5.15607 12.8657 5.19344 10.8608 6.01734 9.13793L7.70831 12.2272C7.73007 12.2856 7.76023 12.341 7.79829 12.3915L9.01491 14.6142H5.90524ZM7.3124 16.689C7.06761 16.4442 6.84595 16.185 6.64743 15.9142H12.6686L11.1287 18.574C9.73304 18.3897 8.38477 17.7613 7.3124 16.689ZM16.6909 16.689C15.5519 17.828 14.1016 18.466 12.614 18.6032L15.7246 13.2302L17.3124 15.9728C17.1251 16.2224 16.9179 16.4619 16.6909 16.689ZM18.0533 9.28332C18.8216 10.9958 18.8265 12.9675 18.068 14.6832L14.9417 9.28332H18.0533ZM11.3939 7.98331L12.8747 5.42555C14.2703 5.60987 15.6185 6.23819 16.6909 7.31052C16.9048 7.52441 17.101 7.74928 17.2795 7.98331H11.3939Z" fill="black"/>
</svg>
