<svg width="24" height="24" viewBox="0 0 24 24" fill="none" xmlns="http://www.w3.org/2000/svg">
<path d="M12 24C18.6274 24 24 18.6274 24 12C24 5.37258 18.6274 0 12 0C5.37258 0 0 5.37258 0 12C0 18.6274 5.37258 24 12 24ZM17.4972 7.65813L17.5 7.65687L17.4809 8.91874L12.2489 11.5166V12.3058L17.4864 9.6956L17.4764 10.9382L12.2489 13.5488V14.338L17.4864 11.7278L17.4813 12.9945L12.2489 15.5817L12.2492 19L11.0433 18.4184L11.043 9.70185L10.1895 9.27035L10.2394 9.35195V17.9839L9.0335 17.4023L9.03324 8.68643L8.17908 8.25424L8.22958 8.33585V16.9678L7.02371 16.3862L7.00067 7.65881L7 7.65845L7.00113 7.65771L7.00134 7.65745L8.24358 7.02894L13.4488 9.67543L14.2567 9.27306L14.214 9.27349L9.0098 6.64234L10.2613 6.0255L15.4733 8.66678L16.2953 8.25695L16.2238 8.25738L11.0196 5.62624L12.2453 5L17.4972 7.65813Z" fill="black"/>
</svg>
