<svg width="24" height="24" viewBox="0 0 24 24" fill="none" xmlns="http://www.w3.org/2000/svg">
<path d="M12 0C5.37258 0 0 5.37258 0 12C0 18.6274 5.37258 24 12 24C18.6274 24 24 18.6274 24 12C24 5.37258 18.6274 0 12 0ZM5 10.3976C5.76801 10.325 6.45103 10.395 7.04904 10.6078C7.80654 10.8773 8.5476 11.5363 9.27223 12.5848C11.5918 9.90769 15.0859 9.90152 17.9826 12.0961C17.9834 12.0967 17.9773 12.1001 17.9656 12.1068L17.9656 12.1068C17.9163 12.1347 17.768 12.2188 17.6213 12.3793C17.4785 12.5354 17.412 12.6784 17.3878 12.7305C17.3812 12.7445 17.3778 12.752 17.3767 12.7513C14.324 10.5996 11.6225 10.7436 9.27223 13.1833C8.14069 11.2908 6.71661 10.3622 5 10.3976ZM18.3946 13.6239C18.0603 13.6239 17.7892 13.3529 17.7892 13.0185C17.7892 12.6842 18.0603 12.4131 18.3946 12.4131C18.729 12.4131 19 12.6842 19 13.0185C19 13.3529 18.729 13.6239 18.3946 13.6239Z" fill="black"/>
</svg>
