<svg width="24" height="24" viewBox="0 0 24 24" fill="none" xmlns="http://www.w3.org/2000/svg">
<path d="M12 24C18.6274 24 24 18.6274 24 12C24 5.37258 18.6274 0 12 0C5.37258 0 0 5.37258 0 12C0 18.6274 5.37258 24 12 24ZM19 10V14.437C19 15.5415 18.1046 16.437 17 16.437H14.2743V17.464C14.2743 17.8457 13.8638 18.0867 13.5305 17.9006L10.9087 16.437H7C5.89543 16.437 5 15.5415 5 14.437V10C5 8.89543 5.89543 8 7 8H17C18.1046 8 19 8.89543 19 10ZM10.9875 10.4662C10.7218 10.316 10.3847 10.4096 10.2345 10.6753C10.0166 11.0609 9.88417 11.5706 9.80158 12.0608C9.74598 11.881 9.70624 11.7242 9.68265 11.611C9.63269 11.3712 9.43077 11.1929 9.18658 11.1729C8.9424 11.153 8.71424 11.2962 8.62605 11.5248C8.49154 11.8735 8.29755 12.3395 8.10355 12.7437C8.08582 12.6666 8.06804 12.5872 8.05035 12.5064C7.93161 11.9639 7.82083 11.3749 7.75535 10.9993C7.70294 10.6986 7.4167 10.4973 7.11603 10.5497C6.81535 10.6022 6.61409 10.8884 6.6665 11.1891C6.73394 11.5759 6.8477 12.181 6.97065 12.7427C7.03205 13.0233 7.09683 13.298 7.16025 13.5313C7.21986 13.7507 7.28941 13.9769 7.3672 14.1324C7.4093 14.2166 7.48728 14.3332 7.62702 14.4146C7.77976 14.5037 7.94397 14.5146 8.08143 14.4837C8.30285 14.434 8.44912 14.2789 8.5095 14.2117C8.66196 14.0419 8.81031 13.7885 8.93781 13.5458C8.98482 13.4563 9.03222 13.3619 9.07935 13.2647C9.26127 13.6596 9.50369 14.0758 9.81584 14.3966C9.97408 14.5592 10.2157 14.6086 10.425 14.5211C10.6344 14.4336 10.769 14.227 10.7644 14.0002C10.7579 13.6737 10.7738 13.1277 10.8431 12.5754C10.9149 12.0042 11.0349 11.5054 11.1967 11.2192C11.3469 10.9535 11.2532 10.6163 10.9875 10.4662ZM12.7763 12.0062C12.8953 11.8945 12.9694 11.901 12.9858 11.9045C13.0022 11.908 13.0725 11.9325 13.1353 12.083C13.1971 12.2312 13.2253 12.4543 13.1707 12.7095C13.116 12.9647 12.999 13.1567 12.8819 13.2666C12.7629 13.3783 12.6888 13.3718 12.6724 13.3683C12.656 13.3648 12.5857 13.3403 12.5229 13.1897C12.4611 13.0415 12.4329 12.8184 12.4876 12.5633C12.5422 12.3081 12.6592 12.1161 12.7763 12.0062ZM12.0199 11.2003C11.7192 11.4825 11.5026 11.8844 11.4068 12.3318C11.311 12.7793 11.344 13.2346 11.5028 13.6153C11.6606 13.9935 11.9703 14.3483 12.441 14.4491C12.9116 14.5498 13.3395 14.353 13.6383 14.0725C13.939 13.7903 14.1556 13.3884 14.2514 12.9409C14.3472 12.4935 14.3142 12.0381 14.1554 11.6575C13.9976 11.2793 13.6879 10.9245 13.2172 10.8237C12.7466 10.7229 12.3188 10.9198 12.0199 11.2003ZM15.7551 12.5633C15.8098 12.3081 15.9268 12.1161 16.0439 12.0062C16.1629 11.8945 16.237 11.901 16.2534 11.9045C16.2698 11.908 16.3401 11.9325 16.4029 12.083C16.4647 12.2312 16.4929 12.4543 16.4382 12.7095C16.3836 12.9647 16.2666 13.1567 16.1495 13.2666C16.0305 13.3783 15.9564 13.3718 15.94 13.3683C15.9236 13.3648 15.8533 13.3403 15.7905 13.1897C15.7286 13.0415 15.7005 12.8184 15.7551 12.5633ZM16.4848 10.8237C16.0141 10.7229 15.5863 10.9198 15.2875 11.2003C14.9868 11.4825 14.7702 11.8844 14.6744 12.3318C14.5785 12.7793 14.6116 13.2346 14.7704 13.6153C14.9282 13.9935 15.2379 14.3483 15.7085 14.4491C16.1792 14.5498 16.607 14.353 16.9059 14.0725C17.2066 13.7903 17.4232 13.3884 17.519 12.9409C17.6148 12.4935 17.5818 12.0381 17.423 11.6575C17.2652 11.2793 16.9555 10.9245 16.4848 10.8237Z" fill="black"/>
</svg>
