<svg width="24" height="24" viewBox="0 0 24 24" fill="none" xmlns="http://www.w3.org/2000/svg">
<path d="M12 24C18.6274 24 24 18.6274 24 12C24 5.37258 18.6274 0 12 0C5.37258 0 0 5.37258 0 12C0 18.6274 5.37258 24 12 24ZM19 12C19 14.6737 17.501 16.9973 15.2975 18.1762C14.59 17.5315 13.6929 17.0916 12.6997 16.9496L12.6993 16.8503L12.7 16.8504L12.7 15.9288L12.6993 15.9284V14.2582L12.7001 13.7561L12.6993 13.7556L12.7 11.3H10.7864V11.9905H11.3L11.2993 13.7556L11.2992 13.7558L11.2993 14.2582V15.9284L11.2993 15.9287L11.2993 16.8503L11.2993 16.8496L11.2996 16.9497C10.3066 17.0918 9.40973 17.5316 8.70219 18.1758C6.49902 16.9973 5 14.6737 5 12C5 8.13401 8.13401 5 12 5C15.866 5 19 8.13401 19 12ZM7.1 12C7.1 14.156 8.49249 15.9868 10.4272 16.6421L10.5993 16.6969L10.5992 15.7372C9.08658 15.1699 8.01 13.7107 8.01 12C8.01 9.79638 9.79638 8.01 12 8.01C14.2036 8.01 15.99 9.79638 15.99 12C15.99 13.6539 14.9837 15.0728 13.5499 15.6778L13.4001 15.7374L13.4 16.6971C15.4241 16.0947 16.9 14.2197 16.9 12C16.9 9.2938 14.7062 7.1 12 7.1C9.2938 7.1 7.1 9.2938 7.1 12ZM9.2 12C9.2 12.9815 9.70505 13.8451 10.4695 14.345L10.5992 14.425L10.5992 13.2688C10.2952 12.9334 10.11 12.4883 10.11 12C10.11 10.9562 10.9562 10.11 12 10.11C13.0438 10.11 13.89 10.9562 13.89 12C13.89 12.4398 13.7398 12.8445 13.4878 13.1657L13.4001 13.2695L13.4001 14.4254C14.237 13.9412 14.8 13.0364 14.8 12C14.8 10.4536 13.5464 9.2 12 9.2C10.4536 9.2 9.2 10.4536 9.2 12Z" fill="black"/>
</svg>
