<svg width="24" height="24" viewBox="0 0 24 24" fill="none" xmlns="http://www.w3.org/2000/svg">
<path d="M12 0C5.37258 0 0 5.37258 0 12C0 18.6274 5.37258 24 12 24C18.6274 24 24 18.6274 24 12C24 5.37258 18.6274 0 12 0ZM7.50059 7.86387C7.99188 7.37258 8.54351 6.97841 9.13163 6.68137C9.83973 7.74178 10.5147 8.92088 11.1335 10.1584C9.33837 10.6764 7.4732 10.8943 5.82595 10.8193C6.09573 9.73637 6.65394 8.71051 7.50059 7.86387ZM11.566 11.3865C11.6114 11.3731 11.6568 11.3596 11.7021 11.346C11.9333 11.8505 12.1544 12.3612 12.3641 12.8743C12.3318 12.8855 12.2997 12.8967 12.2675 12.9081C10.2344 13.6267 8.36224 14.8112 7.03506 16.3447C6.04734 15.1158 5.58288 13.6054 5.64167 12.1118C7.49675 12.2121 9.58022 11.9683 11.566 11.3865ZM17.0628 8.5066C17.9011 9.60397 18.3343 10.9116 18.3625 12.2263C16.8111 12.0078 15.1799 12.1227 13.6174 12.5053C13.4024 11.9744 13.1756 11.4457 12.9382 10.9232C14.4576 10.3388 15.8895 9.53669 17.0628 8.5066ZM12.3797 9.74485C11.7619 8.49451 11.0875 7.29756 10.3776 6.2093C12.3583 5.68905 14.5409 6.13867 16.1725 7.55817C15.1191 8.47434 13.8061 9.20651 12.3797 9.74485ZM7.95131 17.2735C9.10675 15.9046 10.8021 14.8049 12.7008 14.1338C12.7459 14.1178 12.7911 14.1021 12.8363 14.0867C13.3772 15.546 13.8167 17.0009 14.1219 18.3648C12.0647 19.0904 9.70914 18.7266 7.95131 17.2735ZM14.09 13.729C15.4855 13.4068 16.9183 13.3249 18.2578 13.5247C18.032 14.7478 17.4461 15.9175 16.5001 16.8634C16.1378 17.2257 15.7426 17.5353 15.3242 17.7919C15.0175 16.4858 14.5977 15.1095 14.09 13.729Z" fill="black"/>
</svg>
