<svg width="24" height="24" viewBox="0 0 24 24" fill="none" xmlns="http://www.w3.org/2000/svg">
<path d="M12 0C5.37258 0 0 5.37258 0 12C0 18.6274 5.37258 24 12 24C18.6274 24 24 18.6274 24 12C24 5.37258 18.6274 0 12 0ZM6.28805 16.6735C5.98818 16.5046 5.81745 16.2143 5.7846 15.9098C5.75954 15.8363 5.74731 15.7571 5.7505 15.6749L6.10758 6.44816C6.14375 5.5136 7.36643 5.18822 7.86233 5.98117L9.68349 8.89321L10.6139 7.33334C10.9887 6.70504 11.9031 6.71833 12.2595 7.35724L13.3246 9.26698L14.6764 8.18219C15.2522 7.72011 16.113 8.01988 16.2772 8.73966L17.7523 15.2049C17.8524 15.6437 17.647 16.0953 17.2505 16.3083L12.2761 18.9798C11.6726 19.3039 10.9452 19.2965 10.3483 18.9604L6.28805 16.6735ZM7.14951 13.1415L8.94113 10.1378C8.91493 10.1091 8.89096 10.0777 8.86963 10.0436L7.36267 7.63394L7.14951 13.1415ZM12.2533 10.015L11.4196 8.52028L8.81627 12.8849L12.3009 10.0885C12.2837 10.0654 12.2677 10.0409 12.2533 10.015Z" fill="black"/>
</svg>
