<svg width="24" height="24" viewBox="0 0 24 24" fill="none" xmlns="http://www.w3.org/2000/svg">
<path d="M12 0C5.37258 0 0 5.37258 0 12C0 18.6274 5.37258 24 12 24C18.6274 24 24 18.6274 24 12C24 5.37258 18.6274 0 12 0ZM12.0494 18.6174L15.0477 13.6966L15.0554 13.6847C15.8394 12.3291 15.7037 10.5871 14.6483 9.36521L18.1691 9.36511C19.1041 11.7999 18.5899 14.6635 16.6267 16.6267C15.3575 17.8959 13.712 18.5595 12.0494 18.6174ZM8.57219 13.6928C8.73265 13.9699 8.92874 14.2263 9.16204 14.4596C10.0498 15.3474 11.2723 15.6964 12.4232 15.5066L10.5904 18.512C9.27333 18.2733 8.01299 17.6449 6.99483 16.6267C4.882 14.5138 4.44753 11.3582 5.69141 8.81655L8.57219 13.6928ZM13.4124 9.96223L13.5403 10.0814L13.6594 10.2093C14.4936 11.1701 14.4539 12.6267 13.5403 13.5404C12.5851 14.4955 11.0365 14.4955 10.0813 13.5404C9.12611 12.5852 9.12611 11.0366 10.0813 10.0814C10.5568 9.60588 11.1794 9.36709 11.8107 9.36576L11.8429 9.36523C12.4036 9.37254 12.9624 9.57154 13.4124 9.96223ZM17.5007 8.06513L11.7116 8.06633C10.7863 8.09068 9.86826 8.45596 9.16204 9.16216C8.73965 9.58456 8.43922 10.0827 8.26075 10.6129L6.47147 7.58145C6.63268 7.37845 6.80713 7.18253 6.99483 6.99483C9.65461 4.33506 13.967 4.33506 16.6267 6.99483C16.9597 7.32785 17.251 7.68678 17.5007 8.06513Z" fill="black"/>
</svg>
