<svg width="24" height="24" viewBox="0 0 24 24" fill="none" xmlns="http://www.w3.org/2000/svg">
<path d="M0 12C0 18.6274 5.37258 24 12 24C18.6274 24 24 18.6274 24 12C24 5.37258 18.6274 0 12 0C5.37258 0 0 5.37258 0 12ZM8.75958 12.7595L6.2576 11.9789C5.92601 11.8752 5.91039 11.4115 6.23488 11.2866L17.2512 7.03768C17.6587 6.88076 18.0784 7.23791 17.9875 7.66536L16.1123 16.5032C16.015 16.9605 15.4782 17.1643 15.1026 16.8867L12.9019 15.2609C12.8813 15.2887 12.8582 15.3151 12.8326 15.34L11.3664 16.7665C10.7636 17.3524 9.75318 17.0938 9.50864 16.2876C9.50323 16.2698 9.49859 16.2518 9.49473 16.2335L8.75958 12.7595ZM11.8491 14.4831L11.284 14.0657C10.9787 13.8406 10.9552 13.3933 11.2371 13.1391C12.18 12.2877 14.0183 10.6291 14.0183 10.6291L10.0285 12.4764L10.6914 15.6094L11.8491 14.4831Z" fill="black"/>
</svg>
