<svg width="24" height="24" viewBox="0 0 24 24" fill="none" xmlns="http://www.w3.org/2000/svg">
<path d="M12 0C5.37258 0 0 5.37258 0 12C0 18.6274 5.37258 24 12 24C18.6274 24 24 18.6274 24 12C24 5.37258 18.6274 0 12 0ZM12 19C8.13367 19 5 15.8663 5 12C5 8.13367 8.13367 5 12 5C15.8663 5 19 8.13367 19 12C19 15.8663 15.8663 19 12 19ZM12.65 7.4498C12.65 7.09082 12.359 6.7998 12 6.7998C11.641 6.7998 11.35 7.09082 11.35 7.4498V7.7998C11.35 8.15879 11.641 8.4498 12 8.4498C12.359 8.4498 12.65 8.15879 12.65 7.7998V7.4498ZM7.45005 11.3501C7.09106 11.3501 6.80005 11.6411 6.80005 12.0001C6.80005 12.3591 7.09106 12.6501 7.45005 12.6501H7.80005C8.15903 12.6501 8.45005 12.3591 8.45005 12.0001C8.45005 11.6411 8.15903 11.3501 7.80005 11.3501H7.45005ZM16.2 11.3501C15.8411 11.3501 15.55 11.6411 15.55 12.0001C15.55 12.3591 15.8411 12.6501 16.2 12.6501H16.55C16.909 12.6501 17.2 12.3591 17.2 12.0001C17.2 11.6411 16.909 11.3501 16.55 11.3501H16.2ZM12 15.5498C11.641 15.5498 11.35 15.8408 11.35 16.1998V16.5498C11.35 16.9088 11.641 17.1998 12 17.1998C12.359 17.1998 12.65 16.9088 12.65 16.5498V16.1998C12.65 15.8408 12.359 15.5498 12 15.5498ZM14.5083 14.5085C14.2545 14.7623 14.2545 15.1739 14.5083 15.4277L14.7603 15.6797C15.0142 15.9336 15.4257 15.9336 15.6796 15.6797C15.9334 15.4259 15.9334 15.0143 15.6796 14.7605L15.4276 14.5085C15.1737 14.2547 14.7622 14.2547 14.5083 14.5085ZM9.2395 8.32026C8.98566 8.06642 8.5741 8.06642 8.32026 8.32026C8.06642 8.5741 8.06642 8.98566 8.32026 9.2395L8.57226 9.4915C8.8261 9.74534 9.23766 9.74534 9.4915 9.4915C9.74534 9.23766 9.74534 8.8261 9.4915 8.57226L9.2395 8.32026ZM14.9737 8.06797C15.3905 7.85791 15.8423 8.28288 15.6581 8.71176L13.533 13.6607L9.02628 15.9319C8.60948 16.142 8.15766 15.717 8.34183 15.2881L10.467 10.3392L14.9737 8.06797ZM12 12.7003C12.3866 12.7003 12.7 12.3869 12.7 12.0003C12.7 11.6137 12.3866 11.3003 12 11.3003C11.6134 11.3003 11.3 11.6137 11.3 12.0003C11.3 12.3869 11.6134 12.7003 12 12.7003Z" fill="black"/>
</svg>
