<svg width="24" height="24" viewBox="0 0 24 24" fill="none" xmlns="http://www.w3.org/2000/svg">
<path d="M12 0C5.37258 0 0 5.37258 0 12C0 18.6274 5.37258 24 12 24C18.6274 24 24 18.6274 24 12C24 5.37258 18.6274 0 12 0ZM16.9497 7.05026C19.6834 9.78393 19.6834 14.2161 16.9497 16.9497C14.2161 19.6834 9.78391 19.6834 7.05026 16.9497C4.31658 14.2161 4.31658 9.78391 7.05026 7.05026C9.78393 4.31658 14.2161 4.31658 16.9497 7.05026ZM10.2372 14.4653C10.1545 14.8228 10.0411 15.7645 10.3424 15.8788C10.6437 15.9931 11.069 15.103 11.1672 14.7404C11.2234 14.5313 11.4917 13.4464 11.4917 13.4464C11.6522 13.7584 12.121 14.0335 12.6193 14.0335C14.1037 14.0335 15.1109 12.6537 15.1109 10.8072C15.1109 9.41116 13.9504 8.11108 12.1875 8.11108C9.99468 8.11108 8.88867 9.71414 8.88867 11.0515C8.88867 11.8612 9.18869 12.5808 9.83359 12.8498C9.93957 12.8934 10.0342 12.851 10.0647 12.7316C10.0767 12.686 10.0974 12.6018 10.1173 12.521L10.1173 12.5209L10.1174 12.5206C10.1334 12.4555 10.1489 12.3926 10.1588 12.354C10.1899 12.2361 10.1779 12.1946 10.0929 12.0914C9.90664 11.8676 9.78866 11.5787 9.78866 11.1684C9.78866 9.97914 10.6605 8.91445 12.0612 8.91445C13.3007 8.91445 13.9822 9.68668 13.9822 10.7181C13.9822 12.0749 13.3929 13.2208 12.518 13.2208C12.0354 13.2208 11.6743 12.8134 11.7899 12.314C11.84 12.098 11.9073 11.8758 11.9727 11.6596L11.9727 11.6596L11.9727 11.6596C12.0878 11.2792 12.1971 10.9179 12.1971 10.6436C12.1971 10.2588 11.9947 9.93701 11.5743 9.93701C11.0809 9.93701 10.6845 10.4578 10.6845 11.1556C10.6845 11.5995 10.8318 11.9 10.8318 11.9C10.8318 11.9 10.3264 14.083 10.2372 14.4653Z" fill="black"/>
</svg>
