<svg width="24" height="24" viewBox="0 0 24 24" fill="none" xmlns="http://www.w3.org/2000/svg">
<path d="M12 24C18.6274 24 24 18.6274 24 12C24 5.37258 18.6274 0 12 0C5.37258 0 0 5.37258 0 12C0 18.6274 5.37258 24 12 24ZM5 7.5C6.10828 7.5 7.10575 7.97446 7.80036 8.73135C8.49498 7.97446 9.49244 7.5 10.6007 7.5C11.7087 7.5 12.706 7.97422 13.4006 8.73076C14.0951 7.97422 15.0924 7.5 16.2004 7.5C18.299 7.5 20.0003 9.20129 20.0003 11.2999V15.4999C20.0003 16.0521 19.5526 16.4999 19.0003 16.4999C18.448 16.4999 18.0003 16.0521 18.0003 15.4999V11.2999C18.0003 10.3059 17.1945 9.5 16.2004 9.5C15.2143 9.5 14.4134 10.2929 14.4006 11.2759C14.4006 11.2839 14.4007 11.2919 14.4007 11.2999V15.4999C14.4007 16.0521 13.9527 16.4999 13.4004 16.4999C13.3832 16.4999 13.3662 16.4994 13.3492 16.4986C12.8207 16.4719 12.4004 16.035 12.4004 15.4999V11.2999C12.4004 11.2919 12.4005 11.2839 12.4005 11.2759C12.3877 10.2929 11.5868 9.5 10.6007 9.5C9.60664 9.5 8.80078 10.3059 8.80078 11.2999V15.4999C8.80078 16.0521 8.35223 16.4999 7.79994 16.4999C7.24766 16.4999 6.79994 16.0521 6.79994 15.4999V11.2999C6.79994 10.3059 5.99408 9.5 5 9.5C4.44772 9.5 4 9.05229 4 8.5C4 7.94772 4.44772 7.5 5 7.5Z" fill="black"/>
</svg>
