<svg width="24" height="24" viewBox="0 0 24 24" fill="none" xmlns="http://www.w3.org/2000/svg">
<path d="M12 24C18.6274 24 24 18.6274 24 12C24 5.37258 18.6274 0 12 0C5.37258 0 0 5.37258 0 12C0 18.6274 5.37258 24 12 24ZM16.3434 16.4968H7.64237C7.21523 16.4968 6.83524 16.2255 6.69655 15.8215L5.05747 11.0467C4.74408 10.1339 5.77797 9.35063 6.57192 9.89947L7.63191 10.6322C7.59783 10.7588 7.57965 10.8918 7.57965 11.0291C7.57965 11.87 8.26128 12.5516 9.10211 12.5516C9.94294 12.5516 10.6246 11.87 10.6246 11.0291C10.6246 10.354 10.1851 9.78154 9.57671 9.58211L11.0598 6.55951C11.4266 5.81193 12.4929 5.81394 12.8569 6.5629L14.3267 9.58732C13.7264 9.79136 13.2945 10.3598 13.2945 11.0291C13.2945 11.87 13.9761 12.5516 14.817 12.5516C15.6578 12.5516 16.3394 11.87 16.3394 11.0291C16.3394 10.8908 16.321 10.7567 16.2864 10.6293L17.4368 9.8498C18.2319 9.31101 19.2554 10.0939 18.9436 11.0023L17.2892 15.8215C17.1505 16.2255 16.7705 16.4968 16.3434 16.4968Z" fill="black"/>
</svg>
