<svg width="24" height="24" viewBox="0 0 24 24" fill="none" xmlns="http://www.w3.org/2000/svg">
<path d="M12 0C5.37258 0 0 5.37258 0 12C0 18.6274 5.37258 24 12 24C18.6274 24 24 18.6274 24 12C24 5.37258 18.6274 0 12 0ZM7.20608 14.9674L7.52327 14.8651C7.69427 14.81 7.82391 14.6692 7.86485 14.4943C7.90579 14.3193 7.85209 14.1357 7.72332 14.0104C5.8274 12.1654 5.52098 9.53339 6.68008 7.4357C7.62731 8.7569 9.07869 9.90295 10.6646 10.274C10.8139 10.3089 10.971 10.2751 11.0927 10.1819C11.2144 10.0888 11.288 9.94595 11.2933 9.79273C11.3219 8.96063 11.6268 8.26767 12.1182 7.78437C12.6081 7.30251 13.3126 7 14.1966 7C14.8182 7 15.2784 7.11372 15.6337 7.29624C15.9872 7.47782 16.267 7.74292 16.5061 8.09214C16.6016 8.2316 16.7598 8.31497 16.9288 8.31497H18L17.1907 9.48346C17.1314 9.56915 17.0996 9.6709 17.0996 9.77514C17.0996 11.9771 16.4468 13.8164 15.2704 15.0998C14.0994 16.3773 12.3652 17.1527 10.0983 17.1527C8.82661 17.1527 7.97197 16.8359 7.32912 16.3981C6.87594 16.0894 6.51287 15.7114 6.1741 15.2995L6.50659 15.1926L7.20608 14.9674Z" fill="black"/>
</svg>
