<svg width="24" height="24" viewBox="0 0 24 24" fill="none" xmlns="http://www.w3.org/2000/svg">
<path d="M12 0C5.37258 0 0 5.37258 0 12C0 18.6274 5.37258 24 12 24C18.6274 24 24 18.6274 24 12C24 5.37258 18.6274 0 12 0ZM13.6428 5C14.0519 5 14.3833 5.3245 14.3833 5.72502C14.3833 6.12553 14.0519 6.45004 13.6428 6.45004C13.2338 6.45004 12.9023 6.12553 12.9023 5.72502C12.9023 5.3245 13.2338 5 13.6428 5ZM7.48047 7.41229C7.48047 7.14626 7.70142 6.92992 7.97313 6.92992C8.24484 6.92992 8.46579 7.14626 8.46579 7.41229C8.46579 7.67833 8.24484 7.89467 7.97313 7.89467C7.70142 7.89467 7.48047 7.67833 7.48047 7.41229ZM18.8247 11.759C19.0964 11.759 19.3174 11.9754 19.3174 12.2414C19.3174 12.5075 19.0964 12.7238 18.8247 12.7238C18.553 12.7238 18.332 12.5075 18.332 12.2414C18.332 11.9754 18.553 11.759 18.8247 11.759ZM6.98633 16.3458C6.98633 16.2113 7.0968 16.1032 7.23415 16.1032C7.3715 16.1032 7.48197 16.2113 7.48197 16.3458C7.48197 16.4803 7.3715 16.5885 7.23415 16.5885C7.0968 16.5885 6.98633 16.4803 6.98633 16.3458ZM16.1096 17.071C16.5187 17.071 16.8501 17.3955 16.8501 17.796C16.8501 18.1965 16.5187 18.521 16.1096 18.521C15.7006 18.521 15.3691 18.1965 15.3691 17.796C15.3691 17.3955 15.7006 17.071 16.1096 17.071ZM11.9184 18.0353C12.1931 18.0353 12.4111 18.2516 12.4111 18.5176C12.4111 18.7837 12.1902 19 11.9184 19C11.6467 19 11.4258 18.7837 11.4258 18.5176C11.4258 18.2516 11.6467 18.0353 11.9184 18.0353ZM11.4252 6.44708C12.1209 6.44708 12.7569 6.68388 13.2585 7.0727C13.5362 6.98208 13.8288 6.92945 14.1364 6.92945C15.6323 6.92945 16.8475 8.11638 16.8475 9.58395C16.8475 9.62055 16.8449 9.65587 16.8423 9.6916L16.8423 9.69164C16.8409 9.71013 16.8396 9.72873 16.8385 9.74767C17.4238 10.0195 17.8328 10.5984 17.8328 11.2737C17.8328 11.7239 17.6507 12.1274 17.3581 12.4314C17.6567 12.8582 17.8328 13.3757 17.8328 13.9311C17.8328 15.3373 16.7161 16.4862 15.3008 16.5769C15.0859 17.4101 14.3185 18.0327 13.3959 18.0327C12.8525 18.0327 12.3628 17.8164 12.0045 17.4685C11.5745 17.8164 11.0341 18.0327 10.4369 18.0327C9.0754 18.0327 7.97064 16.9511 7.97064 15.618L7.97662 15.5712C6.85096 15.3519 6 14.3755 6 13.2061C6 12.5396 6.27768 11.9344 6.72556 11.4988C6.58224 11.2123 6.49565 10.8937 6.49565 10.5516C6.49565 9.37639 7.44812 8.42626 8.63648 8.38534C9.03957 7.25688 10.1354 6.44708 11.4252 6.44708ZM12.4853 10.406C12.3385 10.4178 12.242 10.4926 12.1053 10.6068C12.0964 10.6145 12.0856 10.6246 12.0733 10.6362C11.991 10.7135 11.8388 10.8566 11.6972 10.7899C11.6288 10.7544 11.3835 10.6363 11.2066 10.5615C10.8728 10.4198 10.3883 10.6521 10.2114 10.9611C9.99137 11.3442 9.59748 12.6679 9.42912 13.2338L9.4291 13.2338L9.4291 13.2338C9.39589 13.3454 9.37145 13.4276 9.35887 13.4671C9.18193 13.9986 9.58204 14.4396 10.1128 14.4101C10.338 14.3983 10.4868 14.3176 10.6316 14.0616C10.674 13.9857 10.8985 13.4171 11.1147 12.8695L11.1147 12.8695L11.1148 12.8693L11.1148 12.8691C11.3187 12.3528 11.5151 11.8554 11.5444 11.8076C11.5846 11.7387 11.7253 11.6462 11.8419 11.7052C11.9585 11.7682 11.9827 11.8942 11.9646 12.0084C11.9523 12.1163 11.7781 12.5395 11.6219 12.919L11.6219 12.9191C11.4959 13.2252 11.3815 13.5029 11.3735 13.5636C11.3051 14.0223 11.9244 14.0971 12.1636 13.6443C12.187 13.6004 12.2834 13.41 12.4083 13.1636C12.6918 12.6039 13.1219 11.755 13.1749 11.6757C13.2634 11.5497 13.3257 11.5084 13.4142 11.5143C13.4785 11.5143 13.5831 11.532 13.559 11.7328C13.5453 11.8243 13.3772 12.1663 13.1984 12.5299C13.0078 12.9174 12.8052 13.3293 12.7648 13.4888C12.6703 13.9022 12.8995 14.3176 13.2735 14.5026C13.5067 14.6168 14.5522 14.8156 14.4698 14.2802C14.4394 14.0795 14.2397 14.053 14.038 14.0263C13.826 13.9982 13.6118 13.9698 13.5891 13.7388C13.5572 13.4102 13.7925 12.8877 14.0195 12.3835L14.0195 12.3835C14.2359 11.9029 14.4447 11.4389 14.4074 11.1757C14.3371 10.6954 14.0093 10.593 13.7238 10.5871C13.4614 10.5796 13.3851 10.6221 13.2985 10.6704L13.2855 10.6776C13.2789 10.6813 13.2721 10.6854 13.2651 10.6895C13.2085 10.7233 13.1393 10.7646 13.0463 10.6717C13.03 10.6565 13.0141 10.6414 12.9986 10.6265C12.8915 10.5241 12.7977 10.4345 12.6502 10.4139C12.5879 10.404 12.5336 10.402 12.4853 10.406Z" fill="black"/>
</svg>
