<svg width="24" height="24" viewBox="0 0 24 24" fill="none" xmlns="http://www.w3.org/2000/svg">
<path d="M12 24C18.6274 24 24 18.6274 24 12C24 5.37258 18.6274 0 12 0C5.37258 0 0 5.37258 0 12C0 18.6274 5.37258 24 12 24ZM5.43798 9.65502C6.49477 6.81478 9.06988 5 12.097 5C12.5522 5 13.0104 5.04478 13.456 5.13104C17.1262 5.83391 18.4341 8.81779 18.7492 9.71555C18.9338 10.2459 19.4369 12.0735 18.1319 13.3834C17.3552 14.1661 16.5278 14.2651 15.8944 14.2651C15.0667 14.2651 14.1531 14.0034 13.7489 13.7478L13.6662 13.6966C13.6184 13.6647 13.5834 13.6391 13.5611 13.6199C13.437 13.5049 13.4206 13.3128 13.5257 13.1819L13.5549 13.1438C13.5569 13.1412 13.559 13.1385 13.5612 13.1356C13.6194 13.0604 13.7557 12.8843 13.8477 12.5242C13.9305 12.1951 13.9905 11.6742 13.7327 11.1695H13.7358C13.0164 9.50493 10.8397 8.19806 8.78024 8.19487H8.77029C7.44294 8.19487 6.3006 8.70295 5.43798 9.65502ZM5.02393 11.4571C5.78787 9.76384 7.11508 8.83384 8.77029 8.83384H8.78024C9.9739 8.83703 11.2405 9.34814 12.1349 10.1149C12.0914 10.1087 12.0508 10.1087 12.0074 10.1087H12.0044C11.6224 10.1087 11.25 10.2238 10.9444 10.425L10.9413 10.4219C8.92 11.8021 8.05725 14.0638 8.7448 16.182C9.15861 17.4568 10.0593 18.4377 11.2434 19C9.90333 18.8403 8.94213 18.3544 8.63974 18.1851C6.53889 17.0093 4.77246 14.3836 5.02393 11.4571ZM9.35283 15.9842C8.91674 14.6392 9.2065 13.2236 10.0914 12.083C10.0882 12.4472 10.1676 12.7826 10.2854 13.0446C11.2371 15.1532 13.0615 15.7061 13.66 15.885C14.0833 16.0128 14.6213 16.0828 15.1719 16.0828C15.8277 16.0828 16.4387 15.9869 16.8493 15.8176C16.9575 15.7729 17.0403 15.7408 17.1135 15.7153C17.1294 15.7095 17.1446 15.7041 17.1593 15.6988C17.2098 15.6807 17.2551 15.6645 17.3044 15.6423L17.4573 15.5718C17.5878 15.5143 17.7405 15.5524 17.8328 15.661C17.9219 15.7728 17.9279 15.9297 17.8484 16.0479L17.8198 16.0859C16.6547 17.5971 15.2641 18.5336 13.6662 18.8914C11.6131 18.885 9.92897 17.7606 9.35283 15.9842Z" fill="black"/>
</svg>
