<svg width="24" height="24" viewBox="0 0 24 24" fill="none" xmlns="http://www.w3.org/2000/svg">
<path d="M12 0C5.37258 0 0 5.37258 0 12C0 18.6274 5.37258 24 12 24C18.6274 24 24 18.6274 24 12C24 5.37258 18.6274 0 12 0ZM14.0094 8.3299C13.935 7.57208 13.2959 6.97999 12.5185 6.97999H11.4815C10.7041 6.97999 10.065 7.57208 9.99059 8.3299H14.0094ZM16 8.3299C17.1046 8.3299 18 9.22533 18 10.3299V15.6632C18 16.7678 17.1046 17.6632 16 17.6632H8C6.89543 17.6632 6 16.7678 6 15.6632V10.3299C6 9.22532 6.89543 8.3299 8 8.3299H8.68721C8.76428 6.85344 9.98585 5.67999 11.4815 5.67999H12.5185C14.0142 5.67999 15.2358 6.85344 15.3128 8.3299H16ZM9.98335 10.9964C9.98335 10.6375 9.69234 10.3464 9.33335 10.3464C8.97436 10.3464 8.68335 10.6375 8.68335 10.9964V15.1446C8.68335 15.5036 8.97436 15.7946 9.33335 15.7946C9.69234 15.7946 9.98335 15.5036 9.98335 15.1446V10.9964ZM15.3167 10.9964C15.3167 10.6375 15.0257 10.3464 14.6667 10.3464C14.3077 10.3464 14.0167 10.6375 14.0167 10.9964V15.1446C14.0167 15.5036 14.3077 15.7946 14.6667 15.7946C15.0257 15.7946 15.3167 15.5036 15.3167 15.1446V10.9964Z" fill="black"/>
</svg>
