<svg width="24" height="24" viewBox="0 0 24 24" fill="none" xmlns="http://www.w3.org/2000/svg">
<path d="M24 12C24 5.37258 18.6274 0 12 0C5.37258 0 0 5.37258 0 12C0 18.6274 5.37258 24 12 24C18.6274 24 24 18.6274 24 12ZM5 8C5 6.34315 6.34315 5 8 5H16C17.6569 5 19 6.34315 19 8V8.19961H5V8ZM5 16V9.49961H19V16C19 17.6569 17.6569 19 16 19H8C6.34315 19 5 17.6569 5 16ZM12.35 15.0469C12.35 15.4059 12.641 15.6969 13 15.6969H15.3851C15.7441 15.6969 16.0351 15.4059 16.0351 15.0469C16.0351 14.6879 15.7441 14.3969 15.3851 14.3969H13C12.641 14.3969 12.35 14.6879 12.35 15.0469ZM9.66743 11.0589C9.41842 10.8003 9.00694 10.7926 8.74835 11.0416C8.48977 11.2906 8.482 11.702 8.73101 11.9606L10.0005 13.2789L8.73101 14.5972C8.482 14.8558 8.48977 15.2673 8.74835 15.5163C9.00694 15.7653 9.41842 15.7576 9.66743 15.499L11.3711 13.7298C11.6135 13.4781 11.6135 13.0798 11.3711 12.8281L9.66743 11.0589ZM7.62461 7.3498C7.91456 7.3498 8.14961 7.11475 8.14961 6.8248C8.14961 6.53485 7.91456 6.2998 7.62461 6.2998C7.33466 6.2998 7.09961 6.53485 7.09961 6.8248C7.09961 7.11475 7.33466 7.3498 7.62461 7.3498ZM9.55 6.8248C9.55 6.53485 9.31495 6.2998 9.025 6.2998C8.73505 6.2998 8.5 6.53485 8.5 6.8248C8.5 7.11475 8.73505 7.3498 9.025 7.3498C9.31495 7.3498 9.55 7.11475 9.55 6.8248Z" fill="black"/>
</svg>
