<svg width="24" height="24" viewBox="0 0 24 24" fill="none" xmlns="http://www.w3.org/2000/svg">
<path d="M24 12C24 5.37258 18.6274 0 12 0C5.37258 0 0 5.37258 0 12C0 18.6274 5.37258 24 12 24C18.6274 24 24 18.6274 24 12ZM8 5H16C17.6569 5 19 6.34315 19 8V8.19962H5V8C5 6.34315 6.34315 5 8 5ZM5 16V9.49962H19V16C19 17.6569 17.6569 19 16 19H8C6.34315 19 5 17.6569 5 16ZM13.0709 12.1412C13.1489 11.7907 12.928 11.4435 12.5776 11.3655C12.2272 11.2875 11.8799 11.5084 11.8019 11.8588L10.9297 15.7788C10.8517 16.1292 11.0726 16.4765 11.423 16.5545C11.7734 16.6324 12.1207 16.4116 12.1987 16.0612L13.0709 12.1412ZM14.0107 12.5199C13.7569 12.7737 13.7569 13.1853 14.0107 13.4391L14.5311 13.9595L14.0107 14.4799C13.7569 14.7337 13.7569 15.1453 14.0107 15.3991C14.2645 15.6529 14.6761 15.6529 14.9299 15.3991L15.9099 14.4191C16.1638 14.1653 16.1638 13.7537 15.9099 13.4999L14.9299 12.5199C14.6761 12.266 14.2645 12.266 14.0107 12.5199ZM9.99001 13.4391C10.2439 13.1853 10.2439 12.7737 9.99001 12.5199C9.73617 12.266 9.32461 12.266 9.07077 12.5199L8.09077 13.4999C7.83693 13.7537 7.83693 14.1653 8.09077 14.4191L9.07077 15.3991C9.32461 15.6529 9.73617 15.6529 9.99001 15.3991C10.2439 15.1453 10.2439 14.7337 9.99001 14.4799L9.46963 13.9595L9.99001 13.4391ZM7.62461 7.3498C7.91456 7.3498 8.14961 7.11475 8.14961 6.8248C8.14961 6.53485 7.91456 6.2998 7.62461 6.2998C7.33466 6.2998 7.09961 6.53485 7.09961 6.8248C7.09961 7.11475 7.33466 7.3498 7.62461 7.3498ZM9.55 6.8248C9.55 6.53485 9.31495 6.2998 9.025 6.2998C8.73505 6.2998 8.5 6.53485 8.5 6.8248C8.5 7.11475 8.73505 7.3498 9.025 7.3498C9.31495 7.3498 9.55 7.11475 9.55 6.8248Z" fill="black"/>
</svg>
