<svg width="24" height="24" viewBox="0 0 24 24" fill="none" xmlns="http://www.w3.org/2000/svg">
<path d="M12 0C5.37258 0 0 5.37258 0 12C0 18.6274 5.37258 24 12 24C18.6274 24 24 18.6274 24 12C24 5.37258 18.6274 0 12 0ZM8.38795 5.63949L9.48054 7.27837C10.1408 6.7945 10.9553 6.50878 11.8366 6.50878C12.5654 6.50878 13.2486 6.70419 13.8366 7.04546L15.2523 5.69305C15.5119 5.44508 15.9233 5.45449 16.1713 5.71407C16.4193 5.97364 16.4098 6.38509 16.1503 6.63306L14.8461 7.87895C15.1828 8.26548 15.4463 8.7175 15.615 9.21337H17.4226C17.7816 9.21337 18.0726 9.50439 18.0726 9.86337C18.0726 10.2224 17.7816 10.5134 17.4226 10.5134H15.8265V11.5776H17.4223C17.7813 11.5776 18.0723 11.8686 18.0723 12.2276C18.0723 12.5866 17.7813 12.8776 17.4223 12.8776H15.8265V14.0015H17.4223C17.7813 14.0015 18.0723 14.2925 18.0723 14.6515C18.0723 15.0104 17.7813 15.3015 17.4223 15.3015H15.6128C15.0761 16.8711 13.5881 17.9998 11.8366 17.9998C10.0851 17.9998 8.59713 16.8711 8.06038 15.3015H6.56992C6.21094 15.3015 5.91992 15.0104 5.91992 14.6515C5.91992 14.2925 6.21094 14.0015 6.56992 14.0015H7.84668V12.8776H6.57002C6.21103 12.8776 5.92002 12.5866 5.92002 12.2276C5.92002 11.8686 6.21103 11.5776 6.57002 11.5776H7.84668V10.5134H6.57002C6.21103 10.5134 5.92002 10.2224 5.92002 9.86337C5.92002 9.50439 6.21103 9.21337 6.57002 9.21337H8.05824C8.17799 8.86124 8.34558 8.53123 8.55328 8.23108L7.30629 6.3606C7.10716 6.06191 7.18787 5.65834 7.48657 5.45921C7.78526 5.26008 8.18883 5.3408 8.38795 5.63949ZM10.879 10.1685C10.52 10.1685 10.229 10.4595 10.229 10.8185C10.229 11.1774 10.52 11.4685 10.879 11.4685H12.7942C13.1532 11.4685 13.4442 11.1774 13.4442 10.8185C13.4442 10.4595 13.1532 10.1685 12.7942 10.1685H10.879ZM10.229 13.6905C10.229 14.0495 10.52 14.3405 10.879 14.3405H12.7942C13.1532 14.3405 13.4442 14.0495 13.4442 13.6905C13.4442 13.3315 13.1532 13.0405 12.7942 13.0405H10.879C10.52 13.0405 10.229 13.3315 10.229 13.6905Z" fill="black"/>
</svg>
