<svg width="24" height="24" viewBox="0 0 24 24" fill="none" xmlns="http://www.w3.org/2000/svg">
<path d="M12 24C18.6274 24 24 18.6274 24 12C24 5.37258 18.6274 0 12 0C5.37258 0 0 5.37258 0 12C0 18.6274 5.37258 24 12 24ZM14.5498 13.8695V7.96972L16.834 6.44699C17.3327 6.11499 18 6.47232 18 7.07166V14.7683C18 15.3677 17.3327 15.7243 16.834 15.3923L14.5498 13.8695ZM13.0498 8.66956V13.1696H12L12.4627 15.9469C12.6127 16.8489 11.9173 17.6696 11.0033 17.6696C10.28 17.6696 9.66267 17.1469 9.544 16.4329L9 13.1696H8.25C7.00733 13.1696 6 12.1622 6 10.9196C6 9.67689 7.00733 8.66956 8.25 8.66956H13.0498Z" fill="black"/>
</svg>
