<svg width="24" height="24" viewBox="0 0 24 24" fill="none" xmlns="http://www.w3.org/2000/svg">
<path d="M12 0C5.37258 0 0 5.37258 0 12C0 18.6274 5.37258 24 12 24C18.6274 24 24 18.6274 24 12C24 5.37258 18.6274 0 12 0ZM11.2819 7.08555C8.17112 7.08555 5.64961 9.60707 5.64961 12.7179C5.64961 15.8286 8.17176 18.3502 11.2827 18.3502C14.3935 18.3502 16.915 15.8287 16.915 12.7179C16.915 12.3589 17.206 12.0679 17.565 12.0679C17.924 12.0679 18.215 12.3589 18.215 12.7179C18.215 16.5466 15.1114 19.6502 11.2827 19.6502C7.45399 19.6502 4.34961 16.5467 4.34961 12.7179C4.34961 8.88909 7.45315 5.78555 11.2819 5.78555C11.6409 5.78555 11.9319 6.07657 11.9319 6.43555C11.9319 6.79454 11.6409 7.08555 11.2819 7.08555ZM8.4416 12.7175C8.4416 14.2861 9.71343 15.5579 11.282 15.5579C12.8506 15.5579 14.1224 14.2861 14.1224 12.7175C14.1224 12.3585 14.4135 12.0675 14.7724 12.0675C15.1314 12.0675 15.4224 12.3585 15.4224 12.7175C15.4224 15.004 13.5686 16.8579 11.282 16.8579C8.99546 16.8579 7.1416 15.004 7.1416 12.7175C7.1416 10.4309 8.99546 8.57706 11.282 8.57706C11.641 8.57706 11.932 8.86807 11.932 9.22706C11.932 9.58604 11.641 9.87706 11.282 9.87706C9.71343 9.87706 8.4416 11.1489 8.4416 12.7175ZM16.7309 5.62069L17.2801 6.71961L18.379 7.26878C18.6843 7.42136 18.7504 7.82824 18.509 8.06959L16.4207 10.1579H14.7458C14.7237 10.19 14.6983 10.2206 14.6698 10.2492L11.7445 13.1746C11.4907 13.4284 11.0791 13.4284 10.8253 13.1746C10.5714 12.9207 10.5714 12.5092 10.8253 12.2553L13.7505 9.32995C13.7791 9.30137 13.8096 9.27601 13.8418 9.25387V7.57895L15.9301 5.49064C16.1714 5.24929 16.5783 5.31537 16.7309 5.62069Z" fill="black"/>
</svg>
