<svg width="24" height="24" viewBox="0 0 24 24" fill="none" xmlns="http://www.w3.org/2000/svg">
<path d="M12 0C5.37258 0 0 5.37258 0 12C0 18.6274 5.37258 24 12 24C18.6274 24 24 18.6274 24 12C24 5.37258 18.6274 0 12 0ZM18 10.8698V15.124C18 16.3667 16.9926 17.374 15.75 17.374H8.25C7.00736 17.374 6 16.3667 6 15.124V10.8698C6 9.62717 7.00736 8.61981 8.25 8.61981H8.66667L9.23211 7.44781C9.48231 6.92921 10.0073 6.59961 10.5831 6.59961H13.397C13.9655 6.59961 14.4851 6.92096 14.739 7.42955L15.3333 8.61981H15.75C16.9926 8.61981 18 9.62717 18 10.8698ZM11.1843 13.4928C10.725 13.0289 10.725 12.2705 11.1843 11.8065C11.6354 11.3509 12.3603 11.3509 12.8114 11.8065C13.2707 12.2705 13.2707 13.0289 12.8114 13.4928C12.3603 13.9484 11.6354 13.9484 11.1843 13.4928ZM10.1184 14.5482C11.1564 15.5967 12.8393 15.5967 13.8773 14.5482C14.9153 13.4997 14.9153 11.7997 13.8773 10.7512C12.8393 9.70272 11.1564 9.70272 10.1184 10.7512C9.08034 11.7997 9.08034 13.4997 10.1184 14.5482Z" fill="black"/>
</svg>
