<svg width="24" height="24" viewBox="0 0 24 24" fill="none" xmlns="http://www.w3.org/2000/svg">
<path d="M12 0C5.37258 0 0 5.37258 0 12C0 18.6274 5.37258 24 12 24C18.6274 24 24 18.6274 24 12C24 5.37258 18.6274 0 12 0ZM5.46967 6.23529C5.76256 5.9424 6.23744 5.9424 6.53033 6.23529L18.0009 17.7059C18.2938 17.9988 18.2938 18.4736 18.0009 18.7665C17.708 19.0594 17.2332 19.0594 16.9403 18.7665L15.5477 17.374H8.25C7.00736 17.374 6 16.3667 6 15.124V10.8698C6 10.045 6.44387 9.32376 7.10578 8.93207L5.46967 7.29596C5.17678 7.00306 5.17678 6.52819 5.46967 6.23529ZM12.0082 13.8345C11.7108 13.8372 11.4125 13.7233 11.1843 13.4928C10.9588 13.2651 10.844 12.9663 10.84 12.6662L9.62066 11.4469C9.12174 12.4527 9.28763 13.7091 10.1184 14.5482C10.9557 15.394 12.2128 15.5575 13.2124 15.0387L12.0082 13.8345ZM14.6502 12.8249C14.6981 12.0806 14.4405 11.3201 13.8773 10.7512C13.3074 10.1755 12.543 9.91592 11.7977 9.97242L9.24569 7.42038C9.50096 6.91762 10.0175 6.59961 10.5831 6.59961H13.397C13.9655 6.59961 14.4851 6.92096 14.739 7.42955L15.3333 8.61981H15.75C16.9926 8.61981 18 9.62717 18 10.8698V15.124C18 15.4342 17.9373 15.7296 17.8238 15.9985L14.6502 12.8249Z" fill="black"/>
</svg>
