<svg width="24" height="24" viewBox="0 0 24 24" fill="none" xmlns="http://www.w3.org/2000/svg">
<path d="M12 24C18.6274 24 24 18.6274 24 12C24 5.37258 18.6274 0 12 0C5.37258 0 0 5.37258 0 12C0 18.6274 5.37258 24 12 24ZM6.6 12C6.6 14.9823 9.01766 17.4 12 17.4C13.1107 17.4 14.1431 17.0647 15.0015 16.4897L7.64824 8.80219C6.98933 9.69736 6.6 10.8032 6.6 12ZM17.4 12C17.4 9.01766 14.9823 6.6 12 6.6C10.7918 6.6 9.67629 6.99678 8.77665 7.66715L16.1853 15.4125C16.9446 14.4824 17.4 13.2944 17.4 12ZM12 5C15.866 5 19 8.13401 19 12C19 15.866 15.866 19 12 19C8.13401 19 5 15.866 5 12C5 8.13401 8.13401 5 12 5Z" fill="black"/>
</svg>
