<svg width="24" height="24" viewBox="0 0 24 24" fill="none" xmlns="http://www.w3.org/2000/svg">
<path d="M12 0C5.37258 0 0 5.37258 0 12C0 18.6274 5.37258 24 12 24C18.6274 24 24 18.6274 24 12C24 5.37258 18.6274 0 12 0ZM19 13.95C19 14.1575 18.8736 14.3355 18.6935 14.4112C18.3753 13.335 17.3794 12.55 16.2 12.55C15.0064 12.55 14.0008 13.354 13.6953 14.45H10.3047C9.99909 13.354 8.99353 12.55 7.79995 12.55C6.62052 12.55 5.62469 13.335 5.3064 14.4111C5.1264 14.3355 5 14.1575 5 13.95V11.6318C5 11.0795 5.44771 10.6318 6 10.6318H7.54545L8.56674 8.07862C8.7186 7.69896 9.08631 7.45001 9.49521 7.45001H13.8684C14.2773 7.45001 14.645 7.69896 14.7969 8.07862L15.8182 10.6318H18C18.5523 10.6318 19 11.0795 19 11.6318V13.95ZM14.9873 14.45H14.9872C15.2292 14.0315 15.6816 13.75 16.2 13.75C16.28 13.75 16.3584 13.7567 16.4347 13.7696C17.0963 13.8811 17.6 14.4566 17.6 15.15C17.6 15.9234 16.9734 16.55 16.2 16.55C15.4267 16.55 14.8 15.9234 14.8 15.15C14.8 14.895 14.8682 14.6559 14.9873 14.45ZM8.03465 13.7696C8.69626 13.8811 9.20002 14.4566 9.20002 15.15C9.20002 15.9234 8.57338 16.55 7.80002 16.55C7.02666 16.55 6.40002 15.9234 6.40002 15.15C6.40002 14.895 6.46816 14.6559 6.58724 14.45H6.58716C6.82917 14.0315 7.28161 13.75 7.79995 13.75C7.87993 13.75 7.95834 13.7567 8.03465 13.7696ZM11.3634 8.75925C11.032 8.75925 10.7634 9.02788 10.7634 9.35925V10.632C10.7634 10.9634 11.032 11.232 11.3634 11.232H13.2725C13.6039 11.232 13.8725 10.9634 13.8725 10.632C13.8725 10.3006 13.6039 10.032 13.2725 10.032H11.9634V9.35925C11.9634 9.02788 11.6948 8.75925 11.3634 8.75925Z" fill="black"/>
</svg>
