<svg width="24" height="24" viewBox="0 0 24 24" fill="none" xmlns="http://www.w3.org/2000/svg">
<path d="M0 12C0 18.6274 5.37258 24 12 24C18.6274 24 24 18.6274 24 12C24 5.37258 18.6274 0 12 0C5.37258 0 0 5.37258 0 12ZM5.49327 8.58727C5.49323 7.15298 6.65594 5.99023 8.09024 5.99023H16.4999C18.0187 5.99023 19.25 7.22151 19.2499 8.74033L19.2497 14.7534C19.2497 16.2695 18.0226 17.4995 16.5065 17.5033L14.4159 17.5085C14.0017 17.5095 13.6651 17.1746 13.6641 16.7604C13.663 16.3461 13.998 16.0095 14.4122 16.0085L16.5028 16.0033C17.1919 16.0016 17.7497 15.4425 17.7497 14.7534L17.7499 8.74028C17.7499 8.0499 17.1903 7.49023 16.4999 7.49023H8.09024C7.48438 7.49023 6.99325 7.98139 6.99327 8.58724L6.24327 8.58727H6.99327V8.95869C6.99327 9.3729 6.65748 9.70869 6.24327 9.70869C5.82906 9.70869 5.49327 9.3729 5.49327 8.95869V8.5873V8.58727ZM6.24268 12.6657C7.42702 12.6657 8.46694 13.0433 9.21239 13.7888C9.95783 14.5342 10.3355 15.5741 10.3355 16.7585C10.3355 17.1727 9.99967 17.5085 9.58545 17.5085C9.17124 17.5085 8.83545 17.1727 8.83545 16.7585C8.83545 15.8949 8.56567 15.2634 8.15172 14.8494C7.73778 14.4355 7.1063 14.1657 6.24268 14.1657C5.82846 14.1657 5.49268 13.8299 5.49268 13.4157C5.49268 13.0015 5.82846 12.6657 6.24268 12.6657ZM5.49268 11.1872C5.49268 10.773 5.82846 10.4372 6.24268 10.4372C8.10592 10.4372 9.78133 11.0276 10.9994 12.1389C12.2247 13.2567 12.9354 14.8556 12.9354 16.7585C12.9354 17.1727 12.5996 17.5085 12.1854 17.5085C11.7712 17.5085 11.4354 17.1727 11.4354 16.7585C11.4354 15.2483 10.8813 14.0616 9.98846 13.247C9.08847 12.4259 7.79252 11.9372 6.24268 11.9372C5.82846 11.9372 5.49268 11.6014 5.49268 11.1872ZM6.46569 17.2042C5.93235 17.2042 5.5 16.7718 5.5 16.2385C5.5 15.7051 5.93235 15.2728 6.46569 15.2728C6.99903 15.2728 7.43138 15.7051 7.43138 16.2385C7.43138 16.7718 6.99903 17.2042 6.46569 17.2042Z" fill="black"/>
</svg>
