<svg width="24" height="24" viewBox="0 0 24 24" fill="none" xmlns="http://www.w3.org/2000/svg">
<path d="M12 24C18.6274 24 24 18.6274 24 12C24 5.37258 18.6274 0 12 0C5.37258 0 0 5.37258 0 12C0 18.6274 5.37258 24 12 24ZM7.99439 7H15.9719C17.0734 7 17.9663 7.89292 17.9663 8.99439V14.9775C17.9663 16.079 17.0734 16.9719 15.9719 16.9719H13.5749C14.4894 16.3797 15.0945 15.3505 15.0945 14.1799C15.0945 12.3441 13.6063 10.8559 11.7705 10.8559C9.93471 10.8559 8.44651 12.3441 8.44651 14.1799C8.44651 15.3505 9.0516 16.3797 9.96606 16.9719H7.99439C6.89292 16.9719 6 16.079 6 14.9775V8.99439C6 7.89292 6.89292 7 7.99439 7ZM14.1879 14.1799C14.1879 15.1993 13.557 16.0713 12.6643 16.4267V18.4286C12.6643 18.7063 12.3883 18.8995 12.1274 18.8044L11.6256 18.6217L11.1239 18.8044C10.863 18.8995 10.587 18.7063 10.587 18.4286V16.2883C9.85053 15.874 9.35305 15.0851 9.35305 14.1799C9.35305 12.8448 10.4354 11.7625 11.7705 11.7625C13.1056 11.7625 14.1879 12.8448 14.1879 14.1799Z" fill="black"/>
</svg>
