<svg width="24" height="24" viewBox="0 0 24 24" fill="none" xmlns="http://www.w3.org/2000/svg">
<path d="M12 24C5.37258 24 0 18.6274 0 12C0 5.37258 5.37258 0 12 0C18.6274 0 24 5.37258 24 12C24 18.6274 18.6274 24 12 24ZM17.4094 7.15438C16.4513 6.0688 15.1285 5.31264 13.6328 5.07751C13.0872 4.99175 12.6367 5.44772 12.6367 6.00001V10.3636C12.6367 10.9159 13.0844 11.3636 13.6367 11.3636H18.0004C18.5526 11.3636 19.0086 10.9132 18.9229 10.3676C18.7309 9.14647 18.1917 8.04064 17.4094 7.15438ZM11.3636 19C14.5393 19 17.1716 16.6739 17.6498 13.6325C17.7355 13.087 17.2796 12.6364 16.7273 12.6364H11.9636C11.6323 12.6364 11.3636 12.3677 11.3636 12.0364V7.27273C11.3636 6.72045 10.913 6.26448 10.3675 6.35025C7.32612 6.82838 5 9.46073 5 12.6364C5 16.1509 7.8491 19 11.3636 19Z" fill="black"/>
</svg>
