<svg width="24" height="24" viewBox="0 0 24 24" fill="none" xmlns="http://www.w3.org/2000/svg">
<path d="M0 12C0 18.6274 5.37258 24 12 24C18.6274 24 24 18.6274 24 12C24 5.37258 18.6274 0 12 0C5.37258 0 0 5.37258 0 12ZM8 5.25C8.41421 5.25 8.75 5.58579 8.75 6V6.50781H16.6384C17.0486 6.50781 17.3811 6.84032 17.3811 7.25048V8.68392C17.3811 9.09408 17.0486 9.42659 16.6384 9.42659H8.75V10.1694H18.5147C18.9248 10.1694 19.2573 10.5019 19.2573 10.9121V12.3455C19.2573 12.7557 18.9248 13.0882 18.5147 13.0882H8.75V13.8306H14.7622C15.1724 13.8306 15.5049 14.1631 15.5049 14.5732V16.0067C15.5049 16.4168 15.1724 16.7493 14.7622 16.7493H8.75V18C8.75 18.4142 8.41421 18.75 8 18.75C7.58579 18.75 7.25 18.4142 7.25 18V6C7.25 5.58579 7.58579 5.25 8 5.25Z" fill="black"/>
</svg>
