<svg width="24" height="24" viewBox="0 0 24 24" fill="none" xmlns="http://www.w3.org/2000/svg">
<path d="M12 24C18.6274 24 24 18.6274 24 12C24 5.37258 18.6274 0 12 0C5.37258 0 0 5.37258 0 12C0 18.6274 5.37258 24 12 24ZM6.79922 7.00001V15.6667C6.79922 16.3294 7.33648 16.8667 7.99922 16.8667H17.9992C18.441 16.8667 18.7992 17.2248 18.7992 17.6667C18.7992 18.1085 18.441 18.4667 17.9992 18.4667H7.99922C6.45282 18.4667 5.19922 17.2131 5.19922 15.6667V7.00001C5.19922 6.55818 5.55739 6.20001 5.99922 6.20001C6.44105 6.20001 6.79922 6.55818 6.79922 7.00001ZM15.1338 11.1331H14.6652C14.2234 11.1331 13.8652 10.7749 13.8652 10.3331C13.8652 9.89127 14.2234 9.5331 14.6652 9.5331H17.0542C17.2626 9.53024 17.4719 9.60832 17.6309 9.76733C17.7896 9.92601 17.8677 10.1347 17.8652 10.3427V12.7331C17.8652 13.1749 17.507 13.5331 17.0652 13.5331C16.6234 13.5331 16.2652 13.1749 16.2652 12.7331V12.2644L13.4309 15.0987C13.1185 15.4111 12.612 15.4111 12.2995 15.0987L11.0652 13.8644L9.23092 15.6987C8.9185 16.0111 8.41197 16.0111 8.09955 15.6987C7.78713 15.3863 7.78713 14.8798 8.09955 14.5673L10.4995 12.1673C10.812 11.8549 11.3185 11.8549 11.6309 12.1673L12.8652 13.4016L15.1338 11.1331Z" fill="black"/>
</svg>
