<svg width="24" height="24" viewBox="0 0 24 24" fill="none" xmlns="http://www.w3.org/2000/svg">
<path d="M12 24C18.6274 24 24 18.6274 24 12C24 5.37258 18.6274 0 12 0C5.37258 0 0 5.37258 0 12C0 18.6274 5.37258 24 12 24ZM6.64961 6.99711V15.6638C6.64961 16.4094 7.25402 17.0138 7.99961 17.0138H17.9996C18.3586 17.0138 18.6496 17.3048 18.6496 17.6638C18.6496 18.0228 18.3586 18.3138 17.9996 18.3138H7.99961C6.53606 18.3138 5.34961 17.1273 5.34961 15.6638V6.99711C5.34961 6.63812 5.64062 6.34711 5.99961 6.34711C6.35859 6.34711 6.64961 6.63812 6.64961 6.99711ZM11.7597 10.0244C11.9954 9.60436 12.4971 9.41205 12.9531 9.56684L14.6664 10.1483L16.2464 8.33846C16.854 7.64245 17.9997 8.0722 17.9997 8.99612V14.6634C17.9997 15.2157 17.552 15.6634 16.9997 15.6634H8.99968C8.4474 15.6634 7.99968 15.2157 7.99968 14.6634V12.8164C7.99968 12.1316 8.67256 11.6494 9.32107 11.8695L10.4997 12.2695L11.7597 10.0244Z" fill="black"/>
</svg>
