<svg width="24" height="24" viewBox="0 0 24 24" fill="none" xmlns="http://www.w3.org/2000/svg">
<path d="M12 24C18.6274 24 24 18.6274 24 12C24 5.37258 18.6274 0 12 0C5.37258 0 0 5.37258 0 12C0 18.6274 5.37258 24 12 24ZM5.25 16C5.25 15.5858 5.58579 15.25 6 15.25H6.50781V7.36156C6.50781 6.9514 6.84032 6.61889 7.25048 6.61889H8.68392C9.09408 6.61889 9.42659 6.9514 9.42659 7.36156V15.25H10.1694V5.48534C10.1694 5.07518 10.5019 4.74267 10.9121 4.74267H12.3455C12.7557 4.74267 13.0882 5.07518 13.0882 5.48534V15.25H13.8306V9.23779C13.8306 8.82762 14.1631 8.49512 14.5732 8.49512H16.0067C16.4168 8.49512 16.7493 8.82762 16.7493 9.23779V15.25H18C18.4142 15.25 18.75 15.5858 18.75 16C18.75 16.4142 18.4142 16.75 18 16.75H6C5.58579 16.75 5.25 16.4142 5.25 16Z" fill="black"/>
</svg>
