<svg width="24" height="24" viewBox="0 0 24 24" fill="none" xmlns="http://www.w3.org/2000/svg">
<path d="M0 12C0 18.6274 5.37258 24 12 24C18.6274 24 24 18.6274 24 12C24 5.37258 18.6274 0 12 0C5.37258 0 0 5.37258 0 12ZM17.8005 7.75873C18.0934 8.05163 18.0934 8.5265 17.8005 8.81939L13.5277 13.0922C12.6489 13.971 11.2241 13.9709 10.3455 13.092L8.74005 11.4861C8.44719 11.1932 8.44726 10.7183 8.74019 10.4255C9.03312 10.1326 9.50799 10.1327 9.80085 10.4256L11.4063 12.0315C11.6992 12.3245 12.1741 12.3245 12.467 12.0316L16.7399 7.75873C17.0328 7.46584 17.5076 7.46584 17.8005 7.75873ZM8.5 5.25H12C12.4142 5.25 12.75 5.58579 12.75 6C12.75 6.41421 12.4142 6.75 12 6.75H8.5C7.5335 6.75 6.75 7.5335 6.75 8.5V15.5C6.75 16.4665 7.5335 17.25 8.5 17.25H15.5C16.4665 17.25 17.25 16.4665 17.25 15.5V13.0631C17.25 12.6488 17.5858 12.3131 18 12.3131C18.4142 12.3131 18.75 12.6488 18.75 13.0631V15.5C18.75 17.2949 17.2949 18.75 15.5 18.75H8.5C6.70507 18.75 5.25 17.2949 5.25 15.5V8.5C5.25 6.70507 6.70507 5.25 8.5 5.25Z" fill="black"/>
</svg>
