<svg width="24" height="24" viewBox="0 0 24 24" fill="none" xmlns="http://www.w3.org/2000/svg">
<path d="M12 0C5.37258 0 0 5.37258 0 12C0 18.6274 5.37258 24 12 24C18.6274 24 24 18.6274 24 12C24 5.37258 18.6274 0 12 0ZM17.5657 9.56569L10.6907 16.4407C10.3783 16.7531 9.87173 16.7531 9.55931 16.4407L6.43431 13.3157C6.1219 13.0033 6.1219 12.4967 6.43431 12.1843C6.74673 11.8719 7.25327 11.8719 7.56569 12.1843L10.125 14.7436L16.4343 8.43431C16.7467 8.12189 17.2533 8.12189 17.5657 8.43431C17.8781 8.74673 17.8781 9.25327 17.5657 9.56569Z" fill="black"/>
</svg>
