<svg width="24" height="24" viewBox="0 0 24 24" fill="none" xmlns="http://www.w3.org/2000/svg">
<path d="M12 0C5.37258 0 0 5.37258 0 12C0 18.6274 5.37258 24 12 24C18.6274 24 24 18.6274 24 12C24 5.37258 18.6274 0 12 0ZM7 6.7998H17C18.1046 6.7998 19 7.69524 19 8.7998V15.2998C19 16.4044 18.1046 17.2998 17 17.2998H7C5.89543 17.2998 5 16.4044 5 15.2998V8.7998C5 7.69524 5.89543 6.7998 7 6.7998ZM10.4348 9.34924C9.72858 9.34924 9.09717 9.59498 8.58188 10.1055L8.58187 10.1055L8.57905 10.1084C8.06587 10.624 7.79883 11.2848 7.79883 12.0522C7.79883 12.8195 8.06587 13.4803 8.57905 13.9959L8.57901 13.996L8.58485 14.0017C9.09912 14.5038 9.72893 14.7492 10.4348 14.7492C11.0228 14.7492 11.5542 14.5768 11.9988 14.1951L11.316 13.2529C11.0958 13.4421 10.8159 13.5492 10.4348 13.5492C9.98143 13.5492 9.62047 13.3995 9.32395 13.1113C9.03899 12.8236 8.90129 12.4834 8.90129 12.0522C8.90129 11.6202 9.03946 11.2795 9.32542 10.9915C9.6212 10.6991 9.98101 10.5492 10.4348 10.5492C10.8084 10.5492 11.0908 10.6554 11.3196 10.8486L11.9953 9.9004C11.5479 9.52267 11.019 9.34924 10.4348 9.34924ZM12.7811 10.1055L12.7783 10.1084C12.2651 10.624 11.998 11.2848 11.998 12.0522C11.998 12.8195 12.2651 13.4803 12.7783 13.9959L12.7782 13.996L12.7841 14.0017C13.2983 14.5038 13.9281 14.7492 14.634 14.7492C15.222 14.7492 15.7535 14.5768 16.198 14.1951L15.5152 13.2529C15.295 13.4421 15.0151 13.5492 14.634 13.5492C14.1806 13.5492 13.8197 13.3995 13.5232 13.1113C13.2382 12.8236 13.1005 12.4834 13.1005 12.0522C13.1005 11.6202 13.2387 11.2795 13.5246 10.9915C13.8204 10.6991 14.1802 10.5492 14.634 10.5492C15.0076 10.5492 15.29 10.6554 15.5188 10.8486L16.1945 9.9004C15.7471 9.52267 15.2182 9.34924 14.634 9.34924C13.9278 9.34924 13.2964 9.59498 12.7811 10.1055Z" fill="black"/>
</svg>
