<svg width="24" height="24" viewBox="0 0 24 24" fill="none" xmlns="http://www.w3.org/2000/svg">
<path d="M24 12C24 5.37258 18.6274 0 12 0C5.37258 0 0 5.37258 0 12C0 18.6274 5.37258 24 12 24C18.6274 24 24 18.6274 24 12ZM4.46967 7.13617C4.76256 6.84328 5.23744 6.84328 5.53033 7.13617L16.1969 17.8028C16.4898 18.0956 16.4898 18.5705 16.1969 18.8634C15.904 19.1563 15.4291 19.1563 15.1363 18.8634L12.9829 16.71H9.82642C7.16086 16.71 5 14.5492 5 11.8836C5 10.9886 5.25439 10.1477 5.69723 9.42439L4.46967 8.19683C4.17678 7.90394 4.17678 7.42907 4.46967 7.13617ZM17.0256 16.5316L7.9497 7.45572C8.60147 7.16347 9.32726 7 10.0909 7C12.5091 7 14.5455 8.58718 15.0545 10.7848C15.3091 10.7238 15.5636 10.6627 15.8182 10.6627C17.6 10.6627 19 12.0057 19 13.715C19 15.0107 18.1772 16.1142 17.0256 16.5316Z" fill="black"/>
</svg>
