<svg width="24" height="24" viewBox="0 0 24 24" fill="none" xmlns="http://www.w3.org/2000/svg">
<path d="M12 0C5.37258 0 0 5.37258 0 12C0 18.6274 5.37258 24 12 24C18.6274 24 24 18.6274 24 12C24 5.37258 18.6274 0 12 0ZM10.2272 6.90969C8.03738 6.90969 6.29995 8.62319 6.29995 10.6445C6.29995 11.7453 6.8092 12.7487 7.63377 13.4417C7.972 13.726 8.01574 14.2306 7.73146 14.5689C7.44718 14.9071 6.94254 14.9508 6.60431 14.6666C5.4471 13.6939 4.69995 12.2544 4.69995 10.6445C4.69995 7.6775 7.21706 5.30969 10.2272 5.30969C12.5536 5.30969 14.5888 6.6833 15.3896 8.71607C15.4409 8.71268 15.4929 8.71078 15.5454 8.71078C17.6101 8.71078 19.3 10.285 19.3 12.345C19.3 13.1672 19.0266 13.9239 18.5593 14.5309C18.2897 14.881 17.7874 14.9462 17.4373 14.6767C17.0872 14.4072 17.022 13.9049 17.2915 13.5548C17.5486 13.2208 17.7 12.8057 17.7 12.345C17.7 11.2307 16.7898 10.3108 15.5454 10.3108C15.4201 10.3108 15.2771 10.3411 15.0229 10.4021C14.8155 10.4518 14.5969 10.4167 14.4155 10.3045C14.2342 10.1924 14.1051 10.0124 14.057 9.8047C13.6734 8.14906 12.1238 6.90969 10.2272 6.90969ZM9.47212 11.3097C9.91395 11.3097 10.2721 11.6679 10.2721 12.1097V15.7208C10.2721 16.1626 9.91395 16.5208 9.47212 16.5208C9.03029 16.5208 8.67212 16.1626 8.67212 15.7208V12.1097C8.67212 11.6679 9.03029 11.3097 9.47212 11.3097ZM12.361 13.4762C12.8029 13.4762 13.161 13.8344 13.161 14.2762V17.8873C13.161 18.3291 12.8029 18.6873 12.361 18.6873C11.9192 18.6873 11.561 18.3291 11.561 17.8873V14.2762C11.561 13.8344 11.9192 13.4762 12.361 13.4762ZM16.05 12.1098V15.7209C16.05 16.1628 15.6918 16.5209 15.25 16.5209C14.8081 16.5209 14.45 16.1628 14.45 15.7209V12.1098C14.45 11.668 14.8081 11.3098 15.25 11.3098C15.6918 11.3098 16.05 11.668 16.05 12.1098Z" fill="black"/>
</svg>
