<svg width="24" height="24" viewBox="0 0 24 24" fill="none" xmlns="http://www.w3.org/2000/svg">
<path d="M12 0C5.37258 0 0 5.37258 0 12C0 18.6274 5.37258 24 12 24C18.6274 24 24 18.6274 24 12C24 5.37258 18.6274 0 12 0ZM6.29995 10.7547C6.29995 11.8555 6.8092 12.8589 7.63377 13.552C7.972 13.8362 8.01574 14.3409 7.73146 14.6791C7.44718 15.0173 6.94254 15.0611 6.60431 14.7768C5.4471 13.8042 4.69995 12.3647 4.69995 10.7547C4.69995 7.78773 7.21706 5.41992 10.2272 5.41992C12.5536 5.41992 14.5888 6.79353 15.3896 8.8263C15.4409 8.82291 15.4929 8.82101 15.5454 8.82101C17.6101 8.82101 19.3 10.3952 19.3 12.4553C19.3 13.2775 19.0266 14.0341 18.5593 14.6411C18.2897 14.9912 17.7874 15.0565 17.4373 14.7869C17.0872 14.5174 17.022 14.0151 17.2915 13.665C17.5486 13.331 17.7 12.9159 17.7 12.4553C17.7 11.3409 16.7898 10.421 15.5454 10.421C15.4201 10.421 15.2771 10.4514 15.0229 10.5123C14.8155 10.5621 14.5969 10.5269 14.4155 10.4148C14.2342 10.3026 14.1051 10.1227 14.057 9.91493C13.6734 8.25929 12.1238 7.01992 10.2272 7.01992C8.03738 7.01992 6.29995 8.73342 6.29995 10.7547ZM13.161 14.1645V14.8867C13.161 15.3286 12.8029 15.6867 12.361 15.6867C11.9192 15.6867 11.561 15.3286 11.561 14.8867V14.1645C11.561 13.7227 11.9192 13.3645 12.361 13.3645C12.8029 13.3645 13.161 13.7227 13.161 14.1645ZM9.47218 11.9199C9.91401 11.9199 10.2722 12.2781 10.2722 12.7199V13.4421C10.2722 13.884 9.91401 14.2421 9.47218 14.2421C9.03035 14.2421 8.67218 13.884 8.67218 13.4421V12.7199C8.67218 12.2781 9.03035 11.9199 9.47218 11.9199ZM16.05 12.7199V13.4421C16.05 13.884 15.6918 14.2421 15.25 14.2421C14.8081 14.2421 14.45 13.884 14.45 13.4421V12.7199C14.45 12.2781 14.8081 11.9199 15.25 11.9199C15.6918 11.9199 16.05 12.2781 16.05 12.7199ZM12.3611 16.2534C12.8029 16.2534 13.1611 16.6116 13.1611 17.0534V17.7756C13.1611 18.2175 12.8029 18.5756 12.3611 18.5756C11.9192 18.5756 11.5611 18.2175 11.5611 17.7756V17.0534C11.5611 16.6116 11.9192 16.2534 12.3611 16.2534ZM10.2722 15.6088V16.3311C10.2722 16.7729 9.91398 17.1311 9.47215 17.1311C9.03032 17.1311 8.67215 16.7729 8.67215 16.3311V15.6088C8.67215 15.167 9.03032 14.8088 9.47215 14.8088C9.91398 14.8088 10.2722 15.167 10.2722 15.6088ZM15.25 14.8088C15.6918 14.8088 16.05 15.167 16.05 15.6088V16.3311C16.05 16.7729 15.6918 17.1311 15.25 17.1311C14.8081 17.1311 14.45 16.7729 14.45 16.3311V15.6088C14.45 15.167 14.8081 14.8088 15.25 14.8088Z" fill="black"/>
</svg>
