<svg width="24" height="24" viewBox="0 0 24 24" fill="none" xmlns="http://www.w3.org/2000/svg">
<path d="M13.0929 12.7914C13.3272 13.0257 13.7071 13.0257 13.9415 12.7914C14.1758 12.5571 14.1758 12.1772 13.9415 11.9429L12.4246 10.426C12.2385 10.24 11.9608 10.2016 11.7369 10.311C11.6713 10.343 11.6124 10.3866 11.5628 10.4392L10.0591 11.9429C9.82481 12.1772 9.82481 12.5571 10.0591 12.7914C10.2934 13.0257 10.6733 13.0257 10.9077 12.7914L11.3996 12.2995V14.3506C11.3996 14.6819 11.6682 14.9506 11.9996 14.9506C12.331 14.9506 12.5996 14.6819 12.5996 14.3506V12.2981L13.0929 12.7914Z" fill="black"/>
<path d="M12 24C18.6274 24 24 18.6274 24 12C24 5.37258 18.6274 0 12 0C5.37258 0 0 5.37258 0 12C0 18.6274 5.37258 24 12 24ZM5 13.3C5 11.529 6.3195 10.0807 8.0268 9.8476C8.5903 8.1921 10.1541 7 12 7C14.3198 7 16.2 8.8802 16.2 11.2C17.7463 11.2 19 12.4537 19 14C19 15.5463 17.7463 16.8 16.2 16.8H8.5C6.5673 16.8 5 15.2327 5 13.3Z" fill="black"/>
</svg>
