<svg width="24" height="24" viewBox="0 0 24 24" fill="none" xmlns="http://www.w3.org/2000/svg">
<path d="M12 0C5.37258 0 0 5.37258 0 12C0 18.6274 5.37258 24 12 24C18.6274 24 24 18.6274 24 12C24 5.37258 18.6274 0 12 0ZM10.2272 7.1C8.03738 7.1 6.29995 8.8135 6.29995 10.8348C6.29995 11.9356 6.8092 12.939 7.63377 13.632C7.972 13.9163 8.01574 14.4209 7.73146 14.7592C7.44718 15.0974 6.94254 15.1411 6.60431 14.8569C5.4471 13.8842 4.69995 12.4448 4.69995 10.8348C4.69995 7.86781 7.21706 5.5 10.2272 5.5C12.5536 5.5 14.5888 6.87361 15.3896 8.90638C15.4409 8.90299 15.4929 8.90109 15.5454 8.90109C17.6101 8.90109 19.3 10.4753 19.3 12.5353C19.3 13.3575 19.0266 14.1142 18.5593 14.7212C18.2897 15.0713 17.7874 15.1366 17.4373 14.867C17.0872 14.5975 17.022 14.0952 17.2915 13.7451C17.5486 13.4111 17.7 12.996 17.7 12.5353C17.7 11.421 16.7898 10.5011 15.5454 10.5011C15.4201 10.5011 15.2771 10.5314 15.0229 10.5924C14.8155 10.6421 14.5969 10.607 14.4155 10.4948C14.2342 10.3827 14.1051 10.2027 14.057 9.995C13.6734 8.33937 12.1238 7.1 10.2272 7.1ZM9.48564 14.5346C9.04381 14.5346 8.68564 14.1764 8.68564 13.7346V13.687C8.68564 13.2451 9.04381 12.887 9.48564 12.887C9.92747 12.887 10.2856 13.2451 10.2856 13.687V13.7346C10.2856 14.1764 9.92746 14.5346 9.48564 14.5346ZM11.5753 14.8234V14.7758C11.5753 14.334 11.9335 13.9758 12.3753 13.9758C12.8171 13.9758 13.1753 14.334 13.1753 14.7758V14.8234C13.1753 15.2653 12.8171 15.6234 12.3753 15.6234C11.9335 15.6234 11.5753 15.2653 11.5753 14.8234ZM15.2467 14.1475C14.8049 14.1475 14.4467 13.7893 14.4467 13.3475V13.2999C14.4467 12.8581 14.8049 12.4999 15.2467 12.4999C15.6886 12.4999 16.0467 12.8581 16.0467 13.2999V13.3475C16.0467 13.7893 15.6886 14.1475 15.2467 14.1475ZM8.68564 16.6235V16.5759C8.68564 16.1341 9.04381 15.7759 9.48564 15.7759C9.92747 15.7759 10.2856 16.1341 10.2856 16.5759V16.6235C10.2856 17.0653 9.92746 17.4235 9.48564 17.4235C9.04381 17.4235 8.68564 17.0653 8.68564 16.6235ZM12.3753 18.5124C11.9335 18.5124 11.5753 18.1542 11.5753 17.7124V17.6647C11.5753 17.2229 11.9335 16.8647 12.3753 16.8647C12.8171 16.8647 13.1753 17.2229 13.1753 17.6647V17.7124C13.1753 18.1542 12.8171 18.5124 12.3753 18.5124ZM14.4467 16.2365V16.1889C14.4467 15.7471 14.8049 15.3889 15.2467 15.3889C15.6886 15.3889 16.0467 15.7471 16.0467 16.1889V16.2365C16.0467 16.6784 15.6886 17.0365 15.2467 17.0365C14.8049 17.0365 14.4467 16.6784 14.4467 16.2365Z" fill="black"/>
</svg>
