<svg width="24" height="24" viewBox="0 0 24 24" fill="none" xmlns="http://www.w3.org/2000/svg">
<path d="M12 0C5.37258 0 0 5.37258 0 12C0 18.6274 5.37258 24 12 24C18.6274 24 24 18.6274 24 12C24 5.37258 18.6274 0 12 0ZM5 13.3C5 11.529 6.3195 10.0807 8.0268 9.8476C8.5903 8.1921 10.1541 7 12 7C14.3198 7 16.2 8.8802 16.2 11.2C17.7463 11.2 19 12.4537 19 14C19 15.5463 17.7463 16.8 16.2 16.8H8.5C6.5673 16.8 5 15.2327 5 13.3ZM10.0224 12.3734C9.76857 12.6272 9.76857 13.0388 10.0224 13.2926L11.5393 14.8095C11.7409 15.0111 12.0418 15.0526 12.2843 14.9341C12.3552 14.8995 12.4188 14.8525 12.4723 14.7958L13.9755 13.2926C14.2293 13.0388 14.2293 12.6272 13.9755 12.3734C13.7216 12.1196 13.3101 12.1196 13.0562 12.3734L12.6496 12.78V10.8496C12.6496 10.4906 12.3586 10.1996 11.9996 10.1996C11.6406 10.1996 11.3496 10.4906 11.3496 10.8496V12.7814L10.9417 12.3734C10.6878 12.1196 10.2763 12.1196 10.0224 12.3734Z" fill="black"/>
</svg>
