<svg width="24" height="24" viewBox="0 0 24 24" fill="none" xmlns="http://www.w3.org/2000/svg">
<path d="M12 24C18.6274 24 24 18.6274 24 12C24 5.37258 18.6274 0 12 0C5.37258 0 0 5.37258 0 12C0 18.6274 5.37258 24 12 24ZM13.5889 8.54289L11.9737 15.8022C11.8777 16.2335 11.4503 16.5053 11.019 16.4094C10.5877 16.3134 10.3159 15.886 10.4118 15.4547L12.027 8.19539C12.123 7.76411 12.5504 7.49228 12.9817 7.58824C13.413 7.6842 13.6848 8.11161 13.5889 8.54289ZM14.6191 9.61693C14.9315 9.30451 15.438 9.30451 15.7505 9.61693L17.5653 11.4318C17.8777 11.7442 17.8777 12.2507 17.5653 12.5631L15.7505 14.378C15.438 14.6904 14.9315 14.6904 14.6191 14.378C14.3067 14.0655 14.3067 13.559 14.6191 13.2466L15.8682 11.9974L14.6191 10.7483C14.3067 10.4359 14.3067 9.92935 14.6191 9.61693ZM9.37974 10.7483L8.13059 11.9974L9.37974 13.2466C9.69216 13.559 9.69216 14.0655 9.37974 14.378C9.06732 14.6904 8.56079 14.6904 8.24837 14.378L6.43353 12.5631C6.12111 12.2507 6.12111 11.7442 6.43353 11.4318L8.24837 9.61693C8.56079 9.30451 9.06732 9.30451 9.37974 9.61693C9.69216 9.92935 9.69216 10.4359 9.37974 10.7483Z" fill="black"/>
</svg>
