<svg width="24" height="24" viewBox="0 0 24 24" fill="none" xmlns="http://www.w3.org/2000/svg">
<path d="M12 0C5.37258 0 0 5.37258 0 12C0 18.6274 5.37258 24 12 24C18.6274 24 24 18.6274 24 12C24 5.37258 18.6274 0 12 0ZM13.6004 12.4473C12.7943 12.7352 11.6499 12.9221 10.3635 12.9221C9.07708 12.9221 7.93272 12.7352 7.12662 12.4473C6.72154 12.3026 6.42684 12.1413 6.24234 11.9855C6.05569 11.8279 6.03103 11.7211 6.03103 11.6753H6C6.00007 10.949 7.3907 10.339 9.27271 10.166V9.8377C9.45123 9.94443 9.65024 10.0407 9.864 10.1271C10.028 10.1204 10.1947 10.117 10.3636 10.117C11.7891 10.117 13.0549 10.361 13.8513 10.7386C15.1324 10.719 16.3055 10.5259 17.1875 10.2109C17.4858 10.1044 17.7612 9.98027 18 9.83751V11.052H17.9686C17.9686 11.0978 17.944 11.2045 17.7573 11.3621C17.5728 11.5179 17.2781 11.6793 16.8731 11.8239C16.1387 12.0862 15.1237 12.2646 13.9763 12.2944C13.8638 12.3467 13.7385 12.398 13.6004 12.4473ZM18 8.55837H17.9686C17.9686 8.60415 17.944 8.7109 17.7573 8.86852C17.5728 9.02431 17.2781 9.18567 16.8731 9.33033C16.067 9.6182 14.9226 9.80512 13.6362 9.80512C12.3498 9.80512 11.2054 9.6182 10.3993 9.33033C9.99422 9.18567 9.69952 9.02431 9.51503 8.86852C9.32837 8.7109 9.30371 8.60415 9.30371 8.55837H9.27271C9.27282 7.69752 11.2264 7 13.6363 7C16.0462 7 17.9999 7.69752 18 8.55837ZM13.6004 14.9407C12.7943 15.2286 11.6499 15.4155 10.3635 15.4155C9.07708 15.4155 7.93272 15.2286 7.12662 14.9407C6.72154 14.796 6.42684 14.6347 6.24234 14.4789C6.05569 14.3213 6.03103 14.2145 6.03103 14.1687H6V12.9547C6.23867 13.0974 6.51397 13.2214 6.81215 13.3279C7.74331 13.6604 8.99895 13.8572 10.3635 13.8572C11.7281 13.8572 12.9837 13.6604 13.9149 13.3279C14.2131 13.2214 14.4885 13.0973 14.7273 12.9545V13.1909C15.6635 13.116 16.5111 12.9461 17.1875 12.7045C17.4858 12.598 17.7612 12.4739 18 12.3311V13.2338C18 14.0537 16.2276 14.7255 13.9768 14.7875C13.8642 14.8399 13.7387 14.8913 13.6004 14.9407ZM6 16.3507V15.4481C6.23867 15.5907 6.51397 15.7148 6.81215 15.8213C7.74331 16.1538 8.99895 16.3506 10.3635 16.3506C11.7281 16.3506 12.9837 16.1538 13.9149 15.8213C14.2131 15.7148 14.4885 15.5906 14.7273 15.4479V16.3507C14.7273 17.2116 12.7736 17.9092 10.3636 17.9092C7.95366 17.9092 6 17.2116 6 16.3507Z" fill="black"/>
</svg>
