<svg width="24" height="24" viewBox="0 0 24 24" fill="none" xmlns="http://www.w3.org/2000/svg">
<path d="M12 24C18.6274 24 24 18.6274 24 12C24 5.37258 18.6274 0 12 0C5.37258 0 0 5.37258 0 12C0 18.6274 5.37258 24 12 24ZM5.5 7C5.5 6.17157 6.17157 5.5 7 5.5H10C10.8284 5.5 11.5 6.17157 11.5 7V17C11.5 17.8284 10.8284 18.5 10 18.5H7C6.17157 18.5 5.5 17.8284 5.5 17V7ZM12.5 7C12.5 6.17157 13.1716 5.5 14 5.5H17C17.8284 5.5 18.5 6.17157 18.5 7V17C18.5 17.8284 17.8284 18.5 17 18.5H14C13.1716 18.5 12.5 17.8284 12.5 17V7Z" fill="black"/>
</svg>
