<svg width="24" height="24" viewBox="0 0 24 24" fill="none" xmlns="http://www.w3.org/2000/svg">
<path d="M12 24C18.6274 24 24 18.6274 24 12C24 5.37258 18.6274 0 12 0C5.37258 0 0 5.37258 0 12C0 18.6274 5.37258 24 12 24ZM5.03868 10.5586C5.33658 8.20105 7.46619 6.5 9.84315 6.5H14.3334C16.9585 6.5 19.0772 8.66773 18.9978 11.3107C18.9216 13.865 16.6924 15.8336 14.1374 15.8336H12.1462C11.7393 16.24 11.2162 16.7632 10.689 17.2906C10.4241 17.5556 10.1582 17.8216 9.90537 18.0744C9.66037 18.3194 9.24269 18.1452 9.24269 17.7983V15.8126C6.66817 15.58 4.69645 13.2606 5.03868 10.5586Z" fill="black"/>
</svg>
