<svg width="24" height="24" viewBox="0 0 24 24" fill="none" xmlns="http://www.w3.org/2000/svg">
<path d="M12 24C18.6274 24 24 18.6274 24 12C24 5.37258 18.6274 0 12 0C5.37258 0 0 5.37258 0 12C0 18.6274 5.37258 24 12 24ZM7.75825 6.83587L7.765 6.83278L16.0427 15.3342L16.0357 15.3371L17.1585 16.4902C17.3833 16.721 17.3784 17.0904 17.1475 17.3151C16.9167 17.5399 16.5474 17.5349 16.3226 17.3041L14.7383 15.677C14.5407 15.7011 14.34 15.7135 14.1374 15.7135H12.1462C11.7398 16.1193 11.2176 16.6417 10.6911 17.1684L10.69 17.1695L9.90537 17.9543C9.66037 18.1993 9.24269 18.0251 9.24269 17.6782V15.6925C6.66817 15.4599 4.69645 13.1405 5.03868 10.4384C5.19206 9.22465 5.83098 8.18489 6.73921 7.46169L5.71999 6.41493C5.49524 6.1841 5.50016 5.81477 5.73099 5.59002C5.96182 5.36526 6.33114 5.37019 6.5559 5.60102L7.75825 6.83587ZM18.9978 11.1906C18.9542 12.6524 18.2054 13.9225 17.0939 14.7414L9.01918 6.44845C9.28872 6.40329 9.56423 6.37987 9.84315 6.37987H14.3334C16.9585 6.37987 19.0772 8.5476 18.9978 11.1906Z" fill="black"/>
</svg>
