<svg width="24" height="24" viewBox="0 0 24 24" fill="none" xmlns="http://www.w3.org/2000/svg">
<path d="M12 24C18.6274 24 24 18.6274 24 12C24 5.37258 18.6274 0 12 0C5.37258 0 0 5.37258 0 12C0 18.6274 5.37258 24 12 24ZM9.24269 15.8126C6.66817 15.58 4.69645 13.2606 5.03868 10.5586C5.33658 8.20105 7.46619 6.5 9.84315 6.5H14.3334C16.9585 6.5 19.0772 8.66773 18.9978 11.3107C18.9216 13.865 16.6924 15.8336 14.1374 15.8336H12.1462C11.7402 16.2391 11.2187 16.7608 10.6926 17.287L10.6915 17.2882L10.6915 17.2882L10.6904 17.2893L9.90537 18.0744C9.66037 18.3194 9.24269 18.1452 9.24269 17.7983V15.8126ZM12.551 10.6169C12.2465 10.3155 11.7556 10.3124 11.451 10.6169C11.1465 10.9214 11.1465 11.4123 11.451 11.7169C11.7556 12.0214 12.2465 12.0214 12.551 11.7169C12.8555 11.4123 12.8555 10.9214 12.551 10.6169ZM15.6624 11.7169C15.9669 11.4123 15.9669 10.9214 15.6624 10.6169C15.3578 10.3155 14.8669 10.3124 14.5624 10.6169C14.2579 10.9214 14.2579 11.4123 14.5624 11.7169C14.8669 12.0214 15.3578 12.0214 15.6624 11.7169ZM9.4397 10.6169C9.13519 10.3155 8.64423 10.3124 8.33972 10.6169C8.0352 10.9214 8.0352 11.4123 8.33972 11.7169C8.64423 12.0214 9.13519 12.0214 9.4397 11.7169C9.74422 11.4123 9.74422 10.9214 9.4397 10.6169Z" fill="black"/>
</svg>
