<svg width="24" height="24" viewBox="0 0 24 24" fill="none" xmlns="http://www.w3.org/2000/svg">
<path d="M24 12C24 5.37258 18.6274 0 12 0C5.37258 0 0 5.37258 0 12C0 18.6274 5.37258 24 12 24C18.6274 24 24 18.6274 24 12ZM8.23333 8.23333H7.66667C7.3536 8.23333 7.1 7.97973 7.1 7.66667C7.1 7.3536 7.3536 7.1 7.66667 7.1C7.97973 7.1 8.23333 7.3536 8.23333 7.66667V8.23333ZM8.38885 9.83333H8.23333H7.66667C6.46994 9.83333 5.5 8.86339 5.5 7.66667C5.5 6.46994 6.46994 5.5 7.66667 5.5C8.86339 5.5 9.83333 6.46994 9.83333 7.66667V8.23333V8.38892H9.98886H14.0111H14.1667V8.23333V7.66667C14.1667 6.46994 15.1366 5.5 16.3334 5.5C17.5301 5.5 18.5 6.46994 18.5 7.66667C18.5 8.86339 17.5301 9.83333 16.3334 9.83333H15.7667H15.6111V9.98892V14.0111V14.1667H15.7667H16.3334C17.5301 14.1667 18.5 15.1366 18.5 16.3334C18.5 17.5301 17.5301 18.5 16.3334 18.5C15.1366 18.5 14.1667 17.5301 14.1667 16.3334V15.7667V15.6111H14.0111H9.98886H9.83333V15.7667V16.3334C9.83333 17.5301 8.86339 18.5 7.66667 18.5C6.46994 18.5 5.5 17.5301 5.5 16.3334C5.5 15.1366 6.46994 14.1667 7.66667 14.1667H8.23333H8.38885V14.0111V9.98892V9.83333ZM9.98886 9.98892H14.0111V14.0111H9.98886V9.98892ZM7.1 16.3334C7.1 16.6464 7.3536 16.9 7.66667 16.9C7.97973 16.9 8.23333 16.6464 8.23333 16.3334V15.7667H7.66667C7.3536 15.7667 7.1 16.0203 7.1 16.3334ZM15.7667 15.7667H16.3334C16.6464 15.7667 16.9 16.0203 16.9 16.3334C16.9 16.6464 16.6464 16.9 16.3334 16.9C16.0203 16.9 15.7667 16.6464 15.7667 16.3334V15.7667ZM16.9 7.66667C16.9 7.97973 16.6464 8.23333 16.3334 8.23333H15.7667V7.66667C15.7667 7.3536 16.0203 7.1 16.3334 7.1C16.6464 7.1 16.9 7.3536 16.9 7.66667Z" fill="black"/>
</svg>
