<svg width="24" height="24" viewBox="0 0 24 24" fill="none" xmlns="http://www.w3.org/2000/svg">
<path d="M12 24C18.6274 24 24 18.6274 24 12C24 5.37258 18.6274 0 12 0C5.37258 0 0 5.37258 0 12C0 18.6274 5.37258 24 12 24ZM4.92976 6.09461C5.23965 5.77968 5.74617 5.77559 6.0611 6.08548L18.0981 17.9297C18.4131 18.2396 18.4172 18.7461 18.1073 19.0611C17.7974 19.376 17.2909 19.3801 16.9759 19.0702L14.7945 16.9237H13.0493C12.8113 16.9237 12.5811 17.0086 12.4001 17.1631L9.76028 19.416C9.11118 19.97 8.11111 19.5087 8.11111 18.6554V16.9237H8C6.34314 16.9237 5 15.5806 5 13.9237V8.99996C5 8.50138 5.12162 8.03121 5.33682 7.6175L4.9389 7.22595C4.62397 6.91606 4.61988 6.40954 4.92976 6.09461ZM18.1303 16.036L8.09433 5.99995H16C17.6569 5.99995 19 7.3431 19 8.99995V13.9237C19 14.7475 18.6679 15.4938 18.1303 16.036Z" fill="black"/>
</svg>
