<svg width="24" height="24" viewBox="0 0 24 24" fill="none" xmlns="http://www.w3.org/2000/svg">
<path d="M12 24C18.6274 24 24 18.6274 24 12C24 5.37258 18.6274 0 12 0C5.37258 0 0 5.37258 0 12C0 18.6274 5.37258 24 12 24ZM5.22977 5.63905C5.53965 5.32411 6.04617 5.32003 6.3611 5.62991L18.3981 17.4742C18.7131 17.7841 18.7172 18.2906 18.4073 18.6055C18.0974 18.9204 17.5909 18.9245 17.2759 18.6146L14.1517 15.5404H13.0574C12.1174 15.5404 11.3553 14.7819 11.3553 13.8463V12.7888L10.5046 11.9517V13.8456C10.5046 14.1627 10.5629 14.4662 10.6695 14.7461L9.29355 16.0808C9.171 16.1996 8.98884 16.2339 8.83117 16.1677C8.6735 16.1015 8.571 15.9478 8.571 15.7775V14.5618C7.30006 14.4619 6.3 13.4037 6.3 12.113V9.00089C6.3 8.65106 6.37347 8.31831 6.5059 8.01709L5.2389 6.77038C4.92397 6.46049 4.91988 5.95398 5.22977 5.63905ZM17.847 14.9971L12.7295 9.87951C12.8356 9.8589 12.9452 9.8481 13.0574 9.8481H16.5979C17.5379 9.8481 18.3 10.6066 18.3 11.5422V13.8463C18.3 14.2906 18.1282 14.6949 17.847 14.9971ZM12.0542 9.20423L9.39433 6.54438H13.7669C15.1298 6.54438 16.2347 7.64393 16.235 9.00039H13.0578C12.7015 9.00039 12.3622 9.07302 12.0542 9.20423Z" fill="black"/>
</svg>
