<svg width="24" height="24" viewBox="0 0 24 24" fill="none" xmlns="http://www.w3.org/2000/svg">
<path d="M12 0C5.37258 0 0 5.37258 0 12C0 18.6274 5.37258 24 12 24C18.6274 24 24 18.6274 24 12C24 5.37258 18.6274 0 12 0ZM9.81289 16.5778H8C6.34315 16.5778 5 15.2346 5 13.5778V9C5 7.34315 6.34315 6 8 6H16C17.6569 6 19 7.34314 19 9V13.5778C19 15.2346 17.6569 16.5778 16 16.5778H14.1871L12.7 18.8256C12.35 19.3544 11.65 19.3544 11.3 18.8256L9.81289 16.5778ZM12.9281 8.46209C12.6372 8.47746 12.392 8.68459 12.3282 8.96883L11.742 11.5787L11.4294 10.5768C11.3511 10.3259 11.1295 10.1469 10.8677 10.1231C10.606 10.0993 10.3557 10.2355 10.2335 10.4682L9.69539 11.4926H8.88889C8.52991 11.4926 8.23889 11.7836 8.23889 12.1426C8.23889 12.5016 8.52991 12.7926 8.88889 12.7926H9.93151C10.2151 12.7926 10.479 12.6607 10.6494 12.4414L11.224 14.2826C11.3116 14.5634 11.577 14.7504 11.8709 14.7384C12.1649 14.7264 12.4142 14.5185 12.4787 14.2314L13.0892 11.5127L13.3135 12.175C13.4385 12.5442 13.7849 12.7926 14.1747 12.7926H15.1111C15.4701 12.7926 15.7611 12.5016 15.7611 12.1426C15.7611 11.7836 15.4701 11.4926 15.1111 11.4926H14.4549L13.578 8.90273C13.4846 8.6268 13.219 8.44673 12.9281 8.46209Z" fill="black"/>
</svg>
