<svg width="24" height="24" viewBox="0 0 24 24" fill="none" xmlns="http://www.w3.org/2000/svg">
<path d="M12 24C18.6274 24 24 18.6274 24 12C24 5.37258 18.6274 0 12 0C5.37258 0 0 5.37258 0 12C0 18.6274 5.37258 24 12 24ZM5.5 12.2895V8.5C5.5 7.11929 6.61929 6 8 6H14.3333C15.714 6 16.8333 7.11929 16.8333 8.5V12.2895C16.8333 13.6702 15.714 14.7895 14.3333 14.7895H12.0846C11.8477 14.7895 11.6184 14.8736 11.4377 15.0269L9.6654 16.5303C9.01572 17.0814 8.01852 16.6196 8.01852 15.7677V14.7895C6.63781 14.7895 5.5 13.6702 5.5 12.2895ZM8.49994 9.98853C8.14096 9.98853 7.84995 10.2795 7.84995 10.6385C7.84995 10.9975 8.14096 11.2885 8.49994 11.2885H8.56661C8.9256 11.2885 9.21661 10.9975 9.21661 10.6385C9.21661 10.2795 8.9256 9.98853 8.56661 9.98853H8.49994ZM10.5169 10.6385C10.5169 10.9975 10.8079 11.2885 11.1669 11.2885H11.2335C11.5925 11.2885 11.8835 10.9975 11.8835 10.6385C11.8835 10.2795 11.5925 9.98853 11.2335 9.98853H11.1669C10.8079 9.98853 10.5169 10.2795 10.5169 10.6385ZM13.8334 9.98853C13.4745 9.98853 13.1834 10.2795 13.1834 10.6385C13.1834 10.9975 13.4745 11.2885 13.8334 11.2885H13.9001C14.2591 11.2885 14.5501 10.9975 14.5501 10.6385C14.5501 10.2795 14.2591 9.98853 13.9001 9.98853H13.8334ZM18.5 10.3198C18.859 10.3198 19.15 10.6108 19.15 10.9698V13.4561C19.15 15.1886 17.9051 16.6302 16.2611 16.9355V17.4761C16.2611 18.5868 14.8426 19.0522 14.1846 18.1573L13.4349 17.1377C13.3689 17.048 13.2642 16.995 13.1529 16.995H12.1667C11.8077 16.995 11.5167 16.704 11.5167 16.345C11.5167 15.986 11.8077 15.695 12.1667 15.695H13.1529C13.6777 15.695 14.1713 15.9447 14.4822 16.3676L14.9611 17.0189V16.345C14.9611 15.986 15.2521 15.695 15.6111 15.695C16.8476 15.695 17.85 14.6926 17.85 13.4561V10.9698C17.85 10.6108 18.141 10.3198 18.5 10.3198Z" fill="black"/>
</svg>
