<svg width="24" height="24" viewBox="0 0 24 24" fill="none" xmlns="http://www.w3.org/2000/svg">
<path d="M12 0C5.37258 0 0 5.37258 0 12C0 18.6274 5.37258 24 12 24C18.6274 24 24 18.6274 24 12C24 5.37258 18.6274 0 12 0ZM13.636 12.0001C13.636 12.904 12.9035 13.6365 11.9996 13.6365C11.0958 13.6365 10.3633 12.904 10.3633 12.0001C10.3633 11.0963 11.0958 10.3638 11.9996 10.3638C12.9035 10.3638 13.636 11.0963 13.636 12.0001ZM6.63179 6.63118C6.88563 6.37734 7.29718 6.37734 7.55103 6.63118L8.6412 7.72136L9.50906 6.8535C9.82404 6.53852 10.3626 6.7616 10.3626 7.20706V9.50303C10.4694 9.74192 10.4248 10.032 10.2287 10.2281C10.0336 10.4232 9.74542 10.4683 9.50722 10.3636H7.20608C6.76063 10.3636 6.53754 9.82502 6.85253 9.51003L7.72197 8.64059L6.63179 7.55042C6.37795 7.29657 6.37795 6.88502 6.63179 6.63118ZM17.3674 7.55042L16.2766 8.64116L17.1455 9.51003C17.4605 9.82502 17.2374 10.3636 16.792 10.3636H14.492C14.2537 10.4683 13.9655 10.4232 13.7705 10.2281C13.5751 10.0327 13.5301 9.74396 13.6354 9.50556V7.20706C13.6354 6.7616 14.174 6.53852 14.489 6.8535L15.3574 7.72192L16.4481 6.63118C16.702 6.37734 17.1135 6.37734 17.3674 6.63118C17.6212 6.88502 17.6212 7.29657 17.3674 7.55042ZM10.2287 13.7723C10.4248 13.9683 10.4694 14.2585 10.3626 14.4974V16.7928C10.3626 17.2383 9.82404 17.4614 9.50906 17.1464L8.64146 16.2788L7.55103 17.3692C7.29718 17.6231 6.88563 17.6231 6.63179 17.3692C6.37795 17.1154 6.37795 16.7038 6.63179 16.45L7.72222 15.3595L6.85253 14.4898C6.53754 14.1749 6.76063 13.6363 7.20608 13.6363H9.50839C9.74636 13.5322 10.034 13.5775 10.2287 13.7723ZM14.4908 13.6363H16.792C17.2374 13.6363 17.4605 14.1749 17.1455 14.4898L16.2764 15.359L17.3674 16.45C17.6212 16.7038 17.6212 17.1154 17.3674 17.3692C17.1135 17.6231 16.702 17.6231 16.4481 17.3692L15.3571 16.2782L14.489 17.1464C14.174 17.4614 13.6354 17.2383 13.6354 16.7928V14.4948C13.5301 14.2564 13.5751 13.9677 13.7705 13.7723C13.9652 13.5775 14.2528 13.5322 14.4908 13.6363Z" fill="black"/>
</svg>
