<svg width="24" height="24" viewBox="0 0 24 24" fill="none" xmlns="http://www.w3.org/2000/svg">
<path d="M12 0C5.37258 0 0 5.37258 0 12C0 18.6274 5.37258 24 12 24C18.6274 24 24 18.6274 24 12C24 5.37258 18.6274 0 12 0ZM12 19C8.13401 19 5 15.866 5 12C5 8.13401 8.13401 5 12 5C15.866 5 19 8.13401 19 12C19 15.866 15.866 19 12 19ZM15.6041 8.83819C15.8067 8.36643 15.3097 7.89896 14.8512 8.13002L10.7923 10.1756C10.5823 10.2814 10.4163 10.4579 10.3235 10.674L8.39615 15.1622C8.19357 15.634 8.69057 16.1015 9.14905 15.8704L13.208 13.8248C13.418 13.719 13.584 13.5425 13.6768 13.3264L15.6041 8.83819ZM12.0008 12.6998C11.6142 12.6998 11.3008 12.3864 11.3008 11.9998C11.3008 11.6132 11.6142 11.2998 12.0008 11.2998C12.3874 11.2998 12.7008 11.6132 12.7008 11.9998C12.7008 12.3864 12.3874 12.6998 12.0008 12.6998Z" fill="black"/>
</svg>
