<svg width="24" height="24" viewBox="0 0 24 24" fill="none" xmlns="http://www.w3.org/2000/svg">
<path d="M12 0C5.37258 0 0 5.37258 0 12C0 18.6274 5.37258 24 12 24C18.6274 24 24 18.6274 24 12C24 5.37258 18.6274 0 12 0ZM12 19C8.13367 19 5 15.8663 5 12C5 8.13367 8.13367 5 12 5C15.8663 5 19 8.13367 19 12C19 15.8663 15.8663 19 12 19ZM12.0089 10.3161C12.4371 10.3161 12.8263 10.475 13.1256 10.7379C13.3954 10.9747 13.8061 10.9481 14.0429 10.6783C14.2798 10.4086 14.2531 9.99788 13.9834 9.76102C13.4579 9.29962 12.7673 9.01611 12.0089 9.01611C10.3581 9.01611 9.01562 10.3489 9.01562 11.9994C9.01562 13.65 10.3581 14.9828 12.0089 14.9828C12.7672 14.9828 13.4571 14.6978 13.9822 14.2389C14.2525 14.0027 14.2802 13.5921 14.044 13.3217C13.8078 13.0514 13.3971 13.0238 13.1268 13.26C12.8252 13.5235 12.4353 13.6828 12.0089 13.6828C11.0709 13.6828 10.3156 12.9268 10.3156 11.9994C10.3156 11.0721 11.0709 10.3161 12.0089 10.3161Z" fill="black"/>
</svg>
