<svg width="24" height="24" viewBox="0 0 24 24" fill="none" xmlns="http://www.w3.org/2000/svg">
<path d="M0 12C0 18.6274 5.37258 24 12 24C18.6274 24 24 18.6274 24 12C24 5.37258 18.6274 0 12 0C5.37258 0 0 5.37258 0 12ZM15.3763 16.7496H14.8469V17.0006C14.8469 18.4641 13.6605 19.6506 12.1969 19.6506H7.99961C6.53605 19.6506 5.34961 18.4641 5.34961 17.0006V10.7539C5.34961 9.29035 6.53605 8.10391 7.99961 8.10391H8.47656V7.5C8.47656 6.11929 9.59585 5 10.9766 5H13.1764H14.4037C15.1178 5 15.7978 5.30537 16.2722 5.83909L17.2448 6.93325C17.6516 7.39088 17.8763 7.98188 17.8763 8.59416V10.2873V14.2496C17.8763 15.6303 16.757 16.7496 15.3763 16.7496ZM13.5469 16.7496H10.9766C9.59585 16.7496 8.47656 15.6303 8.47656 14.2496V9.40391H7.99961C7.25403 9.40391 6.64961 10.0083 6.64961 10.7539V17.0006C6.64961 17.7461 7.25402 18.3506 7.99961 18.3506H12.1969C12.9425 18.3506 13.5469 17.7461 13.5469 17.0006V16.7496Z" fill="black"/>
</svg>
