<svg width="24" height="24" viewBox="0 0 24 24" fill="none" xmlns="http://www.w3.org/2000/svg">
<path d="M23.9999 12C23.9999 5.37258 18.6274 0 11.9999 0C5.37252 0 -6.10352e-05 5.37258 -6.10352e-05 12C-6.10352e-05 18.6274 5.37252 24 11.9999 24C18.6274 24 23.9999 18.6274 23.9999 12ZM13.3094 11.3156C12.9969 11.0032 12.9969 10.4967 13.3094 10.1843C13.6218 9.87185 14.1283 9.87185 14.4407 10.1843L17.5657 13.3093C17.6424 13.386 17.7003 13.4744 17.7393 13.5687C17.7782 13.6624 17.7997 13.765 17.8 13.8726L17.8 13.875L17.8 13.8774C17.7994 14.0813 17.7213 14.285 17.5657 14.4406L14.4407 17.5656C14.1283 17.8781 13.6218 17.8781 13.3094 17.5656C12.9969 17.2532 12.9969 16.7467 13.3094 16.4343L15.0687 14.675H9.50005C8.62483 14.675 7.78547 14.3273 7.1666 13.7084C6.54773 13.0895 6.20005 12.2502 6.20005 11.375V6.99995C6.20005 6.55812 6.55822 6.19995 7.00005 6.19995C7.44188 6.19995 7.80005 6.55812 7.80005 6.99995V11.375C7.80005 11.8258 7.97915 12.2582 8.29797 12.577C8.61678 12.8958 9.04918 13.075 9.50005 13.075H15.0687L13.3094 11.3156Z" fill="black"/>
</svg>
