<svg width="24" height="24" viewBox="0 0 24 24" fill="none" xmlns="http://www.w3.org/2000/svg">
<path d="M12 0C5.37258 0 0 5.37258 0 12C0 18.6274 5.37258 24 12 24C18.6274 24 24 18.6274 24 12C24 5.37258 18.6274 0 12 0ZM4.72977 5.63905C5.02205 5.342 5.48926 5.32149 5.80565 5.58014L11.6882 11.3609L11.6858 11.3613L13.0337 12.6876L13.0417 12.691L14.1687 13.7985L14.1734 13.8091L15.5212 15.1353L15.5222 15.1285L15.9839 15.5822L15.9772 15.584L18.3611 17.9297C18.676 18.2396 18.6801 18.7461 18.3702 19.0611C18.0603 19.376 17.5538 19.3801 17.2389 19.0702L13.9875 15.8709C13.8761 16.0362 13.7424 16.1852 13.5906 16.3135C13.5906 16.7253 13.5826 17.269 13.5668 17.9445C13.5666 17.955 13.5634 17.9652 13.5577 17.974C13.5407 18.0002 13.5056 18.0078 13.4792 17.9909L12.5081 17.3624C12.3222 17.242 12.0832 17.2405 11.8958 17.3585L10.8902 17.9912C10.8811 17.9969 10.8706 17.9999 10.8599 17.9999C10.8285 17.9999 10.803 17.9744 10.803 17.943V16.302C10.5902 16.119 10.4135 15.8951 10.2854 15.6425H10.2853C10.1373 15.3508 10.0539 15.0207 10.0539 14.6712C10.0539 14.597 10.0576 14.5237 10.065 14.4514C10.0859 14.2453 10.136 14.0477 10.211 13.863C10.3685 13.4749 10.6362 13.1432 10.9752 12.9068L10.1104 12.0559C9.3444 12.6697 8.85388 13.6132 8.85388 14.6712C8.85388 15.0096 8.90421 15.3364 8.99765 15.6444L8.63879 15.645L7.97285 15.464C7.31121 15.2842 6.83565 14.7057 6.78735 14.0217L6.39001 8.39505L4.7389 6.77038C4.42397 6.46049 4.41988 5.95398 4.72977 5.63905ZM17.5973 14.0269C17.5791 14.2754 17.5046 14.5098 17.3852 14.7161L8.69592 6.17715C9.04585 6.23383 9.36884 6.29575 9.66487 6.36292C10.1852 6.48097 10.8909 6.72003 11.7821 7.0801C12.0545 7.19015 12.3589 7.19062 12.6316 7.08144C13.4763 6.74329 14.2085 6.50378 14.8283 6.36292C15.5043 6.2093 16.1956 6.09083 16.9022 6.0075C17.4917 5.93798 18.026 6.35953 18.0955 6.94906C18.1035 7.01685 18.105 7.08526 18.1 7.15334L17.5973 14.0269Z" fill="black"/>
</svg>
