<svg width="24" height="24" viewBox="0 0 24 24" fill="none" xmlns="http://www.w3.org/2000/svg">
<path d="M12 0C5.37258 0 0 5.37258 0 12C0 18.6274 5.37258 24 12 24C18.6274 24 24 18.6274 24 12C24 5.37258 18.6274 0 12 0ZM7.67287 15.464C7.01123 15.2842 6.53566 14.7057 6.48736 14.0217L6.00272 7.1587C5.96089 6.56656 6.40702 6.05263 6.99916 6.01082C7.06427 6.00622 7.12966 6.00756 7.19452 6.01483C8.03213 6.10865 8.75559 6.22468 9.36489 6.36292C9.88521 6.48097 10.591 6.72003 11.4821 7.0801C11.7545 7.19015 12.0589 7.19062 12.3316 7.08144C13.1763 6.74329 13.9085 6.50378 14.5283 6.36292C15.2043 6.2093 15.8956 6.09083 16.6022 6.0075C17.1917 5.93798 17.726 6.35953 17.7955 6.94906C17.8035 7.01685 17.805 7.08526 17.8001 7.15334L17.2973 14.0269C17.2475 14.7083 16.7736 15.2843 16.1146 15.4645L15.4933 15.6343L15.1121 15.6349C15.2037 15.3297 15.253 15.0061 15.253 14.6712C15.253 12.8212 13.7533 11.3215 11.9034 11.3215C10.0534 11.3215 8.55371 12.8212 8.55371 14.6712C8.55371 15.0096 8.60404 15.3364 8.69748 15.6444L8.3388 15.645L7.67287 15.464ZM9.75371 14.6712C9.75371 13.6636 10.4469 12.818 11.3824 12.5851C11.5492 12.5435 11.7238 12.5215 11.9036 12.5215C13.0908 12.5215 14.0532 13.4839 14.0532 14.6711C14.0532 15.3298 13.757 15.9192 13.2906 16.3135C13.2906 16.7253 13.2827 17.269 13.2668 17.9445C13.2666 17.955 13.2634 17.9652 13.2577 17.974C13.2407 18.0002 13.2056 18.0078 13.1792 17.9909L12.2081 17.3624C12.0222 17.242 11.7833 17.2405 11.5958 17.3585L10.5902 17.9912C10.5811 17.9969 10.5706 17.9999 10.5599 17.9999C10.5285 17.9999 10.503 17.9744 10.503 17.943V16.302C10.2902 16.119 10.1135 15.8951 9.98537 15.6425H9.98515C9.83713 15.3508 9.75371 15.0207 9.75371 14.6712Z" fill="black"/>
</svg>
