<svg width="24" height="24" viewBox="0 0 24 24" fill="none" xmlns="http://www.w3.org/2000/svg">
<path d="M12 0C5.37258 0 0 5.37258 0 12C0 18.6274 5.37258 24 12 24C18.6274 24 24 18.6274 24 12C24 5.37258 18.6274 0 12 0ZM11.0136 5.99998V6.96968C11.0136 6.97988 11.0134 6.99003 11.0129 7.00012H12.9873C12.9868 6.99003 12.9866 6.97988 12.9866 6.96968V5.99998C12.9866 5.64099 13.2776 5.34998 13.6366 5.34998C13.9956 5.34998 14.2866 5.64099 14.2866 5.99998V6.96968C14.2866 6.97988 14.2863 6.99003 14.2859 7.00012H14.5C15.8807 7.00012 17 8.11941 17 9.50012V9.71444C17.0101 9.71398 17.0202 9.71375 17.0304 9.71375H18.0001C18.3591 9.71375 18.6501 10.0048 18.6501 10.3637C18.6501 10.7227 18.3591 11.0137 18.0001 11.0137H17.0304C17.0202 11.0137 17.0101 11.0135 17 11.0131V12.4418C17.0101 12.4413 17.0202 12.4411 17.0304 12.4411H18.0001C18.3591 12.4411 18.6501 12.7321 18.6501 13.0911C18.6501 13.4501 18.3591 13.7411 18.0001 13.7411H17.0304C17.0202 13.7411 17.0101 13.7409 17 13.7404V14.5001C17 15.8809 15.8807 17.0001 14.5 17.0001H14.2859C14.2863 17.0101 14.2866 17.0202 14.2866 17.0302V17.9999C14.2866 18.3589 13.9956 18.6499 13.6366 18.6499C13.2776 18.6499 12.9866 18.3589 12.9866 17.9999V17.0302C12.9866 17.0202 12.9868 17.0101 12.9873 17.0001H11.0129C11.0134 17.0101 11.0136 17.0202 11.0136 17.0302V17.9999C11.0136 18.3589 10.7226 18.6499 10.3636 18.6499C10.0046 18.6499 9.71362 18.3589 9.71362 17.9999V17.0302C9.71362 17.0202 9.71385 17.0101 9.71431 17.0001H9.5C8.11929 17.0001 7 15.8809 7 14.5001V13.7404C6.98999 13.7409 6.97992 13.7411 6.9698 13.7411H6.0001C5.64111 13.7411 5.3501 13.4501 5.3501 13.0911C5.3501 12.7321 5.64111 12.4411 6.0001 12.4411H6.9698C6.97992 12.4411 6.98999 12.4413 7 12.4418V11.0131C6.98999 11.0135 6.97992 11.0137 6.9698 11.0137H6.0001C5.64111 11.0137 5.3501 10.7227 5.3501 10.3637C5.3501 10.0048 5.64111 9.71375 6.0001 9.71375H6.9698C6.97992 9.71375 6.98999 9.71398 7 9.71443V9.50012C7 8.11941 8.11929 7.00012 9.5 7.00012H9.71432C9.71386 6.99003 9.71362 6.97988 9.71362 6.96968V5.99998C9.71362 5.64099 10.0046 5.34998 10.3636 5.34998C10.7226 5.34998 11.0136 5.64099 11.0136 5.99998ZM11.3 12.7001V11.3001H12.7V12.7001H11.3ZM10 11.0001V13.0001C10 13.5524 10.4477 14.0001 11 14.0001H13C13.5523 14.0001 14 13.5524 14 13.0001V11.0001C14 10.4478 13.5523 10.0001 13 10.0001H11C10.4477 10.0001 10 10.4478 10 11.0001Z" fill="black"/>
</svg>
