<svg width="24" height="24" viewBox="0 0 24 24" fill="none" xmlns="http://www.w3.org/2000/svg">
<path d="M6.85156 14.2099V15.1454C6.85156 15.2559 6.94111 15.3454 7.05156 15.3454H8.65485C8.76531 15.3454 8.85485 15.2559 8.85485 15.1454V14.2099C8.85485 14.0994 8.76531 14.0099 8.65485 14.0099H7.05156C6.94111 14.0099 6.85156 14.0994 6.85156 14.2099Z" fill="black"/>
<path d="M9.52258 14.2099V15.1454C9.52258 15.2559 9.61213 15.3454 9.72258 15.3454H12.6614C12.7719 15.3454 12.8614 15.2559 12.8614 15.1454V14.2099C12.8614 14.0994 12.7719 14.0099 12.6614 14.0099H9.72258C9.61213 14.0099 9.52258 14.0994 9.52258 14.2099Z" fill="black"/>
<path d="M12 0C5.37258 0 0 5.37258 0 12C0 18.6274 5.37258 24 12 24C18.6274 24 24 18.6274 24 12C24 5.37258 18.6274 0 12 0ZM7.30664 7.30005H16.659C17.7636 7.30005 18.659 8.19548 18.659 9.30005V9.73281H5.30664V9.30005C5.30664 8.19548 6.20207 7.30005 7.30664 7.30005ZM5.30664 14.6467V11.0328H18.659V14.6467C18.659 15.7513 17.7636 16.6467 16.659 16.6467H7.30664C6.20207 16.6467 5.30664 15.7513 5.30664 14.6467Z" fill="black"/>
</svg>
