<svg width="24" height="24" viewBox="0 0 24 24" fill="none" xmlns="http://www.w3.org/2000/svg">
<path d="M12 24C18.6274 24 24 18.6274 24 12C24 5.37258 18.6274 0 12 0C5.37258 0 0 5.37258 0 12C0 18.6274 5.37258 24 12 24ZM8.40039 5C8.95267 5 9.40039 5.44772 9.40039 6V13.6C9.40039 14.1522 9.84811 14.6 10.4004 14.6H15.5732C15.582 14.5997 15.5908 14.5996 15.5996 14.5996C15.6084 14.5996 15.6172 14.5997 15.626 14.6H18.0003C18.5526 14.6 19.0003 15.0477 19.0003 15.6C19.0003 16.1522 18.5526 16.6 18.0003 16.6H16.5996V17.9996C16.5996 18.5519 16.1519 18.9996 15.5996 18.9996C15.0473 18.9996 14.5996 18.5519 14.5996 17.9996V16.6H10.4004C8.74354 16.6 7.40039 15.2568 7.40039 13.6V9.39941H6C5.44772 9.39941 5 8.9517 5 8.39941C5 7.84713 5.44772 7.39941 6 7.39941H7.40039V6C7.40039 5.44772 7.84811 5 8.40039 5ZM12 7.39941H13.6C15.2568 7.39941 16.6 8.74256 16.6 10.3994V11.9994C16.6 12.5517 16.1523 12.9994 15.6 12.9994C15.0477 12.9994 14.6 12.5517 14.6 11.9994V10.3994C14.6 9.84713 14.1523 9.39941 13.6 9.39941H12C11.4477 9.39941 11 8.9517 11 8.39941C11 7.84713 11.4477 7.39941 12 7.39941Z" fill="black"/>
</svg>
