<svg width="24" height="24" viewBox="0 0 24 24" fill="none" xmlns="http://www.w3.org/2000/svg">
<path d="M0 12C0 18.6274 5.37258 24 12 24C18.6274 24 24 18.6274 24 12C24 5.37258 18.6274 0 12 0C5.37258 0 0 5.37258 0 12ZM12.7992 9.08315C12.7992 9.52497 12.441 9.88315 11.9992 9.88315C11.5574 9.88315 11.1992 9.52497 11.1992 9.08315V8.43805C9.82582 8.74533 8.74489 9.82645 8.43789 11.2H9.08241C9.52424 11.2 9.88241 11.5581 9.88241 12C9.88241 12.4418 9.52424 12.8 9.08241 12.8H8.43795C8.74503 14.1733 9.82591 15.2543 11.1992 15.5616V14.916C11.1992 14.4741 11.5574 14.116 11.9992 14.116C12.441 14.116 12.7992 14.4741 12.7992 14.916V15.5619C14.1731 15.255 15.2545 14.1737 15.5617 12.8H14.9152C14.4734 12.8 14.1152 12.4418 14.1152 12C14.1152 11.5581 14.4734 11.2 14.9152 11.2H15.5618C15.2547 9.82605 14.1732 8.7447 12.7992 8.43778V9.08315ZM11.1992 17.189C8.94051 16.8435 7.15591 15.0587 6.81057 12.8H4.99922C4.55739 12.8 4.19922 12.4418 4.19922 12C4.19922 11.5581 4.55739 11.2 4.99922 11.2H6.81053C7.15577 8.94105 8.94042 7.15619 11.1992 6.81064V4.99995C11.1992 4.55812 11.5574 4.19995 11.9992 4.19995C12.441 4.19995 12.7992 4.55812 12.7992 4.99995V6.81046C15.0586 7.15556 16.8438 8.94065 17.1891 11.2H18.9984C19.4403 11.2 19.7984 11.5581 19.7984 12C19.7984 12.4418 19.4403 12.8 18.9984 12.8H17.1891C16.8437 15.0591 15.0585 16.8441 12.7992 17.1892V18.9992C12.7992 19.441 12.441 19.7992 11.9992 19.7992C11.5574 19.7992 11.1992 19.441 11.1992 18.9992V17.189ZM12 11C12.5523 11 13 11.4477 13 12C13 12.5523 12.5523 13 12 13C11.4477 13 11 12.5523 11 12C11 11.4477 11.4477 11 12 11Z" fill="black"/>
</svg>
