<svg width="24" height="24" viewBox="0 0 24 24" fill="none" xmlns="http://www.w3.org/2000/svg">
<path d="M12 24C18.6274 24 24 18.6274 24 12C24 5.37258 18.6274 0 12 0C5.37258 0 0 5.37258 0 12C0 18.6274 5.37258 24 12 24ZM18.2472 14.8053C18.2472 15.3017 17.9827 15.7599 17.5529 16.0085L12.6929 18.8141C12.6783 18.8225 12.6635 18.8307 12.6486 18.8386V12.3669C12.7053 12.3429 12.7609 12.3155 12.8152 12.2848L18.2472 9.21704V14.8053ZM17.5529 7.99152C17.5886 8.01212 17.6232 8.03418 17.6566 8.05759L12.1759 11.1529C12.0681 11.2138 11.9361 11.2132 11.8288 11.1512L6.40038 8.01731C6.41482 8.00823 6.42946 7.9994 6.44429 7.99083L11.3043 5.1859C11.7341 4.93803 12.2631 4.93803 12.6929 5.1859L17.5529 7.99152ZM11.1788 12.2771C11.2341 12.309 11.2908 12.3375 11.3486 12.3625V18.8386C11.3337 18.8307 11.319 18.8226 11.3043 18.8141L6.44429 16.0085C6.01452 15.7606 5.75 15.3024 5.75 14.806V9.19403C5.75 9.17712 5.75031 9.16026 5.75092 9.14345L11.1788 12.2771Z" fill="black"/>
</svg>
