<svg width="24" height="24" viewBox="0 0 24 24" fill="none" xmlns="http://www.w3.org/2000/svg">
<path d="M12 24C18.6274 24 24 18.6274 24 12C24 5.37258 18.6274 0 12 0C5.37258 0 0 5.37258 0 12C0 18.6274 5.37258 24 12 24ZM8.69922 5.6H9.79922H15.2992C15.7963 5.6 16.1992 6.00294 16.1992 6.5C16.1992 6.99706 15.7963 7.4 15.2992 7.4H13.4226C13.5083 7.52714 13.5857 7.65965 13.654 7.79703C13.7428 7.97572 13.8152 8.16066 13.8703 8.35H15.2992C15.7963 8.35 16.1992 8.75294 16.1992 9.25C16.1992 9.74706 15.7963 10.15 15.2992 10.15H13.8703C13.8152 10.3393 13.7428 10.5243 13.654 10.703C13.4287 11.1562 13.1043 11.5564 12.7088 11.8859C12.3136 12.2153 11.8527 12.4699 11.3557 12.6414C11.0874 12.734 10.8099 12.802 10.5278 12.845L13.802 16.9378C14.1125 17.3259 14.0496 17.8923 13.6614 18.2028C13.2733 18.5133 12.7069 18.4504 12.3964 18.0622L7.99644 12.5622C7.78031 12.2921 7.73818 11.9219 7.88805 11.6101C8.03791 11.2983 8.35325 11.1 8.69922 11.1H9.79922C10.135 11.1 10.4647 11.0448 10.7684 10.9399C11.0722 10.8351 11.3389 10.6845 11.5565 10.5031C11.6883 10.3933 11.7996 10.2744 11.8906 10.15H8.69922C8.20216 10.15 7.79922 9.74706 7.79922 9.25C7.79922 8.75294 8.20216 8.35 8.69922 8.35H11.8906C11.7996 8.22563 11.6883 8.10665 11.5565 7.99686C11.3389 7.81551 11.0722 7.66493 10.7684 7.56007C10.4647 7.45524 10.135 7.4 9.79922 7.4H8.69922C8.20216 7.4 7.79922 6.99706 7.79922 6.5C7.79922 6.00294 8.20216 5.6 8.69922 5.6Z" fill="black"/>
</svg>
