<svg width="24" height="24" viewBox="0 0 24 24" fill="none" xmlns="http://www.w3.org/2000/svg">
<path d="M12 0C5.37258 0 0 5.37258 0 12C0 18.6274 5.37258 24 12 24C18.6274 24 24 18.6274 24 12C24 5.37258 18.6274 0 12 0ZM9.82138 9.53537C8.4598 10.897 8.4598 13.1033 9.82138 14.4649C11.183 15.8264 13.3893 15.8264 14.7509 14.4649C15.0633 14.1524 15.5698 14.1524 15.8822 14.4649C16.1947 14.7773 16.1947 15.2838 15.8822 15.5962C15.3168 16.1617 14.6515 16.5662 13.9431 16.8097V18C13.9431 18.4418 13.5849 18.8 13.1431 18.8C12.7013 18.8 12.3431 18.4418 12.3431 18V17.0857C12.0179 17.0893 11.6925 17.062 11.3716 17.0036V18C11.3716 18.4418 11.0135 18.8 10.5716 18.8C10.1298 18.8 9.77164 18.4418 9.77164 18V16.4222C9.38457 16.2018 9.02025 15.9265 8.69001 15.5962C6.70359 13.6098 6.70359 10.3904 8.69001 8.404C9.02025 8.07376 9.38457 7.79842 9.77164 7.57798V5.99995C9.77164 5.55812 10.1298 5.19995 10.5716 5.19995C11.0135 5.19995 11.3716 5.55812 11.3716 5.99995V6.99663C11.6925 6.93826 12.0179 6.91088 12.3431 6.9145V5.99995C12.3431 5.55812 12.7013 5.19995 13.1431 5.19995C13.5849 5.19995 13.9431 5.55812 13.9431 5.99995V7.19054C14.6515 7.43407 15.3168 7.83856 15.8822 8.404C16.1947 8.71642 16.1947 9.22295 15.8822 9.53537C15.5698 9.84779 15.0633 9.84779 14.7509 9.53537C13.3893 8.17379 11.183 8.17379 9.82138 9.53537Z" fill="black"/>
</svg>
