<svg width="24" height="24" viewBox="0 0 24 24" fill="none" xmlns="http://www.w3.org/2000/svg">
<path d="M12 24C18.6274 24 24 18.6274 24 12C24 5.37258 18.6274 0 12 0C5.37258 0 0 5.37258 0 12C0 18.6274 5.37258 24 12 24ZM9.49002 6.46L12.0133 9.82432L14.5365 6.46C14.8347 6.06236 15.3989 5.98177 15.7965 6.28C16.1942 6.57823 16.2747 7.14235 15.9765 7.54L13.8132 10.4244H15.527C16.0241 10.4244 16.427 10.8273 16.427 11.3244C16.427 11.8215 16.0241 12.2244 15.527 12.2244H12.9133V12.9H15.527C16.0241 12.9 16.427 13.3029 16.427 13.8C16.427 14.2971 16.0241 14.7 15.527 14.7H12.9133V17C12.9133 17.4971 12.5103 17.9 12.0133 17.9C11.5162 17.9 11.1133 17.4971 11.1133 17V14.7H8.5C8.00294 14.7 7.6 14.2971 7.6 13.8C7.6 13.3029 8.00294 12.9 8.5 12.9H11.1133V12.2244H8.5C8.00294 12.2244 7.6 11.8215 7.6 11.3244C7.6 10.8273 8.00294 10.4244 8.5 10.4244H10.2133L8.05002 7.54C7.75179 7.14235 7.83237 6.57823 8.23002 6.28C8.62766 5.98177 9.19179 6.06236 9.49002 6.46Z" fill="black"/>
</svg>
