<svg width="24" height="24" viewBox="0 0 24 24" fill="none" xmlns="http://www.w3.org/2000/svg">
<path d="M12 24C18.6274 24 24 18.6274 24 12C24 5.37258 18.6274 0 12 0C5.37258 0 0 5.37258 0 12C0 18.6274 5.37258 24 12 24ZM11.6591 6V6.74933L12.4376 6.08199C12.7941 5.77648 13.3307 5.81776 13.6362 6.17419C13.9417 6.53062 13.9004 7.06722 13.544 7.37273L11.6591 8.98836V9.97035L12.8015 8.99117C13.1579 8.68566 13.6945 8.72694 14 9.08337C14.3055 9.4398 14.2642 9.9764 13.9078 10.2819L11.6591 12.2094V16.5616C12.3953 16.0982 13.1853 15.4969 13.8328 14.8022C14.8761 13.6829 15.4018 12.4946 15.0799 11.3146C14.9564 10.8617 15.2234 10.3944 15.6763 10.2709C16.1292 10.1473 16.5965 10.4144 16.72 10.8673C17.2709 12.8873 16.2814 14.6686 15.0763 15.9614C13.8592 17.2671 12.2702 18.2518 11.171 18.7691C10.9077 18.893 10.5993 18.8736 10.3536 18.7177C10.1079 18.5618 9.95908 18.291 9.95908 18V13.6665L8.81689 14.6455C8.46046 14.9511 7.92386 14.9098 7.61835 14.5533C7.31284 14.1969 7.35412 13.6603 7.71054 13.3548L9.95908 11.4275V10.4455L8.45308 11.7364C8.09665 12.0419 7.56004 12.0006 7.25453 11.6442C6.94903 11.2877 6.9903 10.7511 7.34673 10.4456L9.95908 8.20647V6C9.95908 5.53056 10.3396 5.15 10.8091 5.15C11.2785 5.15 11.6591 5.53056 11.6591 6Z" fill="black"/>
</svg>
