<svg width="24" height="24" viewBox="0 0 24 24" fill="none" xmlns="http://www.w3.org/2000/svg">
<path d="M12 24C18.6274 24 24 18.6274 24 12C24 5.37258 18.6274 0 12 0C5.37258 0 0 5.37258 0 12C0 18.6274 5.37258 24 12 24ZM16.5878 10.4286C16.5878 10.5333 16.5836 10.6378 16.5754 10.7418H16.9431C17.4126 10.7418 17.7931 11.1224 17.7931 11.5918C17.7931 12.0613 17.4126 12.4418 16.9431 12.4418H16.0454C15.8237 12.8274 15.5405 13.1777 15.2067 13.4815C14.7749 13.8746 14.2665 14.1826 13.7124 14.3915C13.1583 14.6004 12.5668 14.7071 11.9711 14.7071H9.35565V19C9.35565 19.4694 8.97509 19.85 8.50565 19.85C8.03621 19.85 7.65565 19.4694 7.65565 19V13.8581L7.65565 13.8571L7.65565 13.8562V12.4418H7.30029C6.83085 12.4418 6.45029 12.0613 6.45029 11.5918C6.45029 11.1224 6.83085 10.7418 7.30029 10.7418H7.65565V10.2607H7.30029C6.83085 10.2607 6.45029 9.88012 6.45029 9.41068C6.45029 8.94124 6.83085 8.56068 7.30029 8.56068H7.65565V7C7.65565 6.77457 7.7452 6.55836 7.90461 6.39896C8.06402 6.23955 8.28022 6.15 8.50565 6.15H11.9711C12.5668 6.15 13.1583 6.25673 13.7124 6.46564C14.2665 6.67456 14.7749 6.98259 15.2067 7.37561C15.5819 7.71716 15.8934 8.11756 16.1252 8.56068H16.9431C17.4126 8.56068 17.7931 8.94124 17.7931 9.41068C17.7931 9.88012 17.4126 10.2607 16.9431 10.2607H16.5842C16.5866 10.3166 16.5878 10.3725 16.5878 10.4286ZM14.8661 10.7418C14.8805 10.6379 14.8878 10.5333 14.8878 10.4286C14.8878 10.3726 14.8857 10.3166 14.8816 10.2607H9.35565V10.7418H14.8661ZM13.7915 12.4418H9.35565V13.0071H11.9711C12.3646 13.0071 12.7527 12.9365 13.1127 12.8008C13.3583 12.7082 13.5864 12.587 13.7915 12.4418ZM13.1127 8.05633C12.7527 7.92064 12.3646 7.85 11.9711 7.85H9.35565V8.56068H13.9799C13.7294 8.35005 13.4363 8.17836 13.1127 8.05633Z" fill="black"/>
</svg>
