<svg width="24" height="24" viewBox="0 0 24 24" fill="none" xmlns="http://www.w3.org/2000/svg">
<path d="M12 24C18.6274 24 24 18.6274 24 12C24 5.37258 18.6274 0 12 0C5.37258 0 0 5.37258 0 12C0 18.6274 5.37258 24 12 24ZM15.0401 8.24512C13.5319 7.59059 11.7368 7.86395 10.5151 9.08567C9.93993 9.66087 9.57026 10.3637 9.40612 11.1029H13.4251C13.9221 11.1029 14.3251 11.5058 14.3251 12.0029C14.3251 12.4999 13.9221 12.9029 13.4251 12.9029H9.40741C9.57218 13.64 9.94142 14.3406 10.5151 14.9143C11.7348 16.1354 13.5299 16.4096 15.0404 15.7547C15.4965 15.557 16.0264 15.7664 16.2242 16.2225C16.4219 16.6785 16.2125 17.2085 15.7564 17.4062C13.6067 18.3382 11.0133 17.9601 9.24196 16.1867C8.31621 15.2608 7.76111 14.1048 7.57666 12.9029H7.4C6.90294 12.9029 6.5 12.4999 6.5 12.0029C6.5 11.5058 6.90294 11.1029 7.4 11.1029H7.57578C7.75936 9.89874 8.31488 8.74033 9.24233 7.81288C11.015 6.04017 13.6082 5.66152 15.7567 6.5939C16.2127 6.79177 16.4219 7.32182 16.224 7.77779C16.0262 8.23377 15.4961 8.443 15.0401 8.24512Z" fill="black"/>
</svg>
