<svg width="24" height="24" viewBox="0 0 24 24" fill="none" xmlns="http://www.w3.org/2000/svg">
<path d="M12 24C18.6274 24 24 18.6274 24 12C24 5.37258 18.6274 0 12 0C5.37258 0 0 5.37258 0 12C0 18.6274 5.37258 24 12 24ZM16.5 13.5533V8.22C16.5 7.94386 16.2761 7.72 16 7.72H8C7.72386 7.72 7.5 7.94386 7.5 8.22V13.5533C7.5 13.8295 7.72386 14.0533 8 14.0533H16C16.2761 14.0533 16.5 13.8295 16.5 13.5533ZM18 13.5533C18 14.6579 17.1046 15.5533 16 15.5533H13.0659L13.4242 16.27H15.1339C15.5481 16.27 15.8839 16.6058 15.8839 17.02C15.8839 17.4342 15.5481 17.77 15.1339 17.77H8.86719C8.45297 17.77 8.11719 17.4342 8.11719 17.02C8.11719 16.6058 8.45297 16.27 8.86719 16.27H10.5742L10.9325 15.5533H8C6.89543 15.5533 6 14.6579 6 13.5533V8.22C6 7.11543 6.89543 6.22 8 6.22H16C17.1046 6.22 18 7.11543 18 8.22V13.5533Z" fill="black"/>
</svg>
