<svg width="24" height="24" viewBox="0 0 24 24" fill="none" xmlns="http://www.w3.org/2000/svg">
<path d="M12 0C5.37255 0 -3.05176e-05 5.37258 -3.05176e-05 12C-3.05176e-05 18.6274 5.37255 24 12 24C18.6274 24 24 18.6274 24 12C24 5.37258 18.6274 0 12 0ZM4.99997 12C4.99997 8.13367 8.13364 5 12 5C15.8663 5 19 8.13367 19 12C19 15.8663 15.8663 19 12 19C8.13364 19 4.99997 15.8663 4.99997 12ZM11 12C11 12.5523 11.4476 13 12 13C12.5523 13 13 12.5523 13 12C13 11.4477 12.5523 11 12 11C11.4476 11 11 11.4477 11 12Z" fill="black"/>
</svg>
