<svg width="24" height="24" viewBox="0 0 24 24" fill="none" xmlns="http://www.w3.org/2000/svg">
<path d="M12 0C5.37258 0 0 5.37258 0 12C0 18.6274 5.37258 24 12 24C18.6274 24 24 18.6274 24 12C24 5.37258 18.6274 0 12 0ZM17.7998 13.8333V16.2778C17.7998 17.3946 16.8944 18.3 15.7776 18.3H7.22203C6.10518 18.3 5.1998 17.3946 5.1998 16.2778V13.8333C5.1998 13.3915 5.55798 13.0333 5.9998 13.0333C6.44163 13.0333 6.7998 13.3915 6.7998 13.8333V16.2778C6.7998 16.511 6.98884 16.7 7.22203 16.7H15.7776C16.0108 16.7 16.1998 16.511 16.1998 16.2778V13.8333C16.1998 13.3915 16.558 13.0333 16.9998 13.0333C17.4416 13.0333 17.7998 13.3915 17.7998 13.8333ZM15.1221 11.3433L12.0666 14.3989C11.9292 14.5363 11.7542 14.6133 11.5747 14.6298C11.55 14.6321 11.5251 14.6333 11.4998 14.6333C11.2659 14.6333 11.0554 14.5329 10.9091 14.3728L7.87965 11.3433C7.56723 11.0309 7.56723 10.5244 7.87965 10.212C8.19207 9.89956 8.6986 9.89956 9.01102 10.212L10.6998 11.9008V6.49995C10.6998 6.05812 11.058 5.69995 11.4998 5.69995C11.9416 5.69995 12.2998 6.05812 12.2998 6.49995V11.9029L13.9908 10.212C14.3032 9.89956 14.8097 9.89956 15.1221 10.212C15.4346 10.5244 15.4346 11.0309 15.1221 11.3433Z" fill="black"/>
</svg>
