<svg width="24" height="24" viewBox="0 0 24 24" fill="none" xmlns="http://www.w3.org/2000/svg">
<path d="M0 12C0 18.6274 5.37258 24 12 24C18.6274 24 24 18.6274 24 12C24 5.37258 18.6274 0 12 0C5.37258 0 0 5.37258 0 12ZM8.17383 7.99902C8.17434 6.53591 9.36059 5.34998 10.8238 5.34998H16.0005C17.4641 5.34998 18.6505 6.53642 18.6505 7.99998V13.1767C18.6505 14.6402 17.4641 15.8267 16.0005 15.8267H16.0003V15.9993C16.0003 17.1038 15.1048 17.9993 14.0003 17.9993H8C6.89543 17.9993 6 17.1039 6 15.9993V9.99903C6 8.89446 6.89543 7.99902 8 7.99902H8.17383ZM9.47383 7.99902H14.0003C15.1048 7.99902 16.0003 8.89445 16.0003 9.99902V14.5267H16.0005C16.7461 14.5267 17.3505 13.9223 17.3505 13.1767V7.99998C17.3505 7.25439 16.7461 6.64998 16.0005 6.64998H10.8238C10.0786 6.64998 9.47434 7.25388 9.47383 7.99902ZM11.6496 11.333C11.6496 10.974 11.3586 10.683 10.9996 10.683C10.6406 10.683 10.3496 10.974 10.3496 11.333V12.35H9.33359C8.97461 12.35 8.68359 12.641 8.68359 13C8.68359 13.359 8.97461 13.65 9.33359 13.65H10.3496V14.6664C10.3496 15.0254 10.6406 15.3164 10.9996 15.3164C11.3586 15.3164 11.6496 15.0254 11.6496 14.6664V13.65H12.667C13.026 13.65 13.317 13.359 13.317 13C13.317 12.641 13.026 12.35 12.667 12.35H11.6496V11.333Z" fill="black"/>
</svg>
