<svg width="24" height="24" viewBox="0 0 24 24" fill="none" xmlns="http://www.w3.org/2000/svg">
<path d="M0 12C0 18.6274 5.37258 24 12 24C18.6274 24 24 18.6274 24 12C24 5.37258 18.6274 0 12 0C5.37258 0 0 5.37258 0 12ZM13.8444 17.1579C13.8444 18.1753 13.0196 19 12.0023 19C10.9849 19 10.1602 18.1753 10.1602 17.1579C10.1602 16.1405 10.9849 15.3158 12.0023 15.3158C13.0196 15.3158 13.8444 16.1405 13.8444 17.1579ZM12.0023 10.1576C13.0196 10.1576 13.8444 10.9823 13.8444 11.9997C13.8444 13.0171 13.0196 13.8418 12.0023 13.8418C10.9849 13.8418 10.1602 13.0171 10.1602 11.9997C10.1602 10.9823 10.9849 10.1576 12.0023 10.1576ZM13.8444 6.84149C13.8444 7.85885 13.0196 8.68359 12.0023 8.68359C10.9849 8.68359 10.1602 7.85885 10.1602 6.84149C10.1602 5.82412 10.9849 4.99938 12.0023 4.99938C13.0196 4.99938 13.8444 5.82412 13.8444 6.84149Z" fill="black"/>
</svg>
