<svg width="24" height="24" viewBox="0 0 24 24" fill="none" xmlns="http://www.w3.org/2000/svg">
<path d="M12 0C5.37258 0 0 5.37258 0 12C0 18.6274 5.37258 24 12 24C18.6274 24 24 18.6274 24 12C24 5.37258 18.6274 0 12 0ZM19 12C19 15.8593 15.8601 19 12 19C8.13989 19 5 15.8601 5 12C5 8.13989 8.13989 5 12 5C15.8593 5 19 8.14067 19 12ZM9.27777 8.9165C8.86356 8.9165 8.52777 9.25229 8.52777 9.6665V10.4443C8.52777 10.8585 8.86356 11.1943 9.27777 11.1943C9.69198 11.1943 10.0278 10.8585 10.0278 10.4443V9.6665C10.0278 9.25229 9.69198 8.9165 9.27777 8.9165ZM15.4722 9.6665C15.4722 9.25229 15.1364 8.9165 14.7222 8.9165C14.308 8.9165 13.9722 9.25229 13.9722 9.6665V10.4443C13.9722 10.8585 14.308 11.1943 14.7222 11.1943C15.1364 11.1943 15.4722 10.8585 15.4722 10.4443V9.6665ZM12 15.889C13.2965 15.889 14.3333 14.8522 14.3333 13.5557H9.66663C9.66663 14.8522 10.7034 15.889 12 15.889Z" fill="black"/>
</svg>
