<svg width="24" height="24" viewBox="0 0 24 24" fill="none" xmlns="http://www.w3.org/2000/svg">
<path d="M12 0C5.37258 0 0 5.37258 0 12C0 18.6274 5.37258 24 12 24C18.6274 24 24 18.6274 24 12C24 5.37258 18.6274 0 12 0ZM7.05026 16.9497C4.31658 14.2161 4.31658 9.78391 7.05026 7.05026C9.78393 4.31658 14.2161 4.31658 16.9497 7.05026C19.6834 9.78393 19.6834 14.2161 16.9497 16.9497C14.2161 19.6834 9.78391 19.6834 7.05026 16.9497ZM9.68986 14.0304C9.27973 14.254 8.9871 14.4829 8.81832 14.6515C8.56438 14.9053 8.56423 15.3168 8.81798 15.5708C9.07173 15.8247 9.48329 15.8248 9.73722 15.5711L9.838 15.4819C9.94388 15.3963 10.1037 15.2854 10.3122 15.1718C10.8065 14.9022 11.3716 14.7408 12 14.7408C12.6288 14.7408 13.1939 14.9022 13.6881 15.1717C13.9797 15.3308 14.1762 15.4845 14.2626 15.5709C14.5164 15.8248 14.928 15.8248 15.1818 15.5709C15.4357 15.3171 15.4357 14.9055 15.1818 14.6517C15.0131 14.483 14.7206 14.254 14.3105 14.0304C13.6351 13.6621 12.8603 13.4408 12 13.4408C11.14 13.4408 10.3653 13.6621 9.68986 14.0304ZM8.52777 9.6665V10.4443L8.53462 10.546C8.58428 10.9121 8.89807 11.1943 9.27777 11.1943C9.69198 11.1943 10.0278 10.8585 10.0278 10.4443V9.6665L10.0209 9.56473C9.97126 9.19865 9.65746 8.9165 9.27777 8.9165C8.86356 8.9165 8.52777 9.25229 8.52777 9.6665ZM13.9722 9.6665V10.4443L13.9791 10.546C14.0287 10.9121 14.3425 11.1943 14.7222 11.1943C15.1364 11.1943 15.4722 10.8585 15.4722 10.4443V9.6665L15.4654 9.56473C15.4157 9.19865 15.1019 8.9165 14.7222 8.9165C14.308 8.9165 13.9722 9.25229 13.9722 9.6665Z" fill="black"/>
</svg>
