<svg width="24" height="24" viewBox="0 0 24 24" fill="none" xmlns="http://www.w3.org/2000/svg">
<path d="M15.4722 9.6665C15.4722 9.25229 15.1364 8.9165 14.7222 8.9165C14.308 8.9165 13.9722 9.25229 13.9722 9.6665V10.4443C13.9722 10.8585 14.308 11.1943 14.7222 11.1943C15.1364 11.1943 15.4722 10.8585 15.4722 10.4443V9.6665Z" fill="black"/>
<path d="M9.27777 8.9165C8.86356 8.9165 8.52777 9.25229 8.52777 9.6665V10.4443C8.52777 10.8585 8.86356 11.1943 9.27777 11.1943C9.69198 11.1943 10.0278 10.8585 10.0278 10.4443V9.6665C10.0278 9.25229 9.69198 8.9165 9.27777 8.9165Z" fill="black"/>
<path d="M8.74744 13.9697C8.45455 14.2626 8.45455 14.7374 8.74744 15.0303L8.74835 15.0312L8.74937 15.0322L8.75169 15.0345L8.7575 15.0402L8.77385 15.0559C8.78682 15.0682 8.80397 15.0841 8.82521 15.1031C8.86766 15.141 8.92667 15.1915 9.00161 15.2501C9.15115 15.3671 9.36621 15.5185 9.64165 15.6687C10.1923 15.969 10.9958 16.2704 12 16.2704C13.0038 16.2704 13.8073 15.9689 14.358 15.6687C14.6334 15.5185 14.8485 15.3672 14.9981 15.2502C15.0731 15.1916 15.1321 15.1412 15.1746 15.1033C15.1958 15.0843 15.213 15.0684 15.2259 15.0561L15.2423 15.0404L15.2481 15.0347L15.2504 15.0324L15.2514 15.0314C15.2514 15.0314 14.9593 15.3233 15.2523 15.0305C15.5453 14.7378 15.5455 14.2629 15.2527 13.9699C14.9612 13.6781 14.4891 13.6767 14.1958 13.9657C13.9026 14.2548 14.1947 13.9668 14.1947 13.9668L14.1923 13.969C13.9991 14.1178 13.8775 14.2079 13.64 14.3517C13.2548 14.5617 12.6972 14.7704 12 14.7704C11.3024 14.7704 10.7448 14.5617 10.3598 14.3518C10.1674 14.2468 9.89931 14.0402 9.80434 13.9659C9.51115 13.6768 9.03908 13.678 8.74744 13.9697Z" fill="black"/>
<path d="M0 12C0 18.6274 5.37258 24 12 24C18.6274 24 24 18.6274 24 12C24 5.37258 18.6274 0 12 0C5.37258 0 0 5.37258 0 12ZM19 12C19 15.8593 15.8601 19 12 19C8.13989 19 5 15.8601 5 12C5 8.13989 8.13989 5 12 5C15.8593 5 19 8.14067 19 12Z" fill="black"/>
</svg>
