<svg width="24" height="24" viewBox="0 0 24 24" fill="none" xmlns="http://www.w3.org/2000/svg">
<path d="M0 12C0 18.6274 5.37258 24 12 24C18.6274 24 24 18.6274 24 12C24 5.37258 18.6274 0 12 0C5.37258 0 0 5.37258 0 12ZM5.5 16.4991V12.5577L9.71189 15.3914C11.0948 16.3218 12.9028 16.3218 14.2858 15.3914L18.5 12.5561V16.4991C18.5 17.6037 17.6046 18.4991 16.5 18.4991H7.5C6.39543 18.4991 5.5 17.6037 5.5 16.4991ZM12.8063 5.74646L17.8575 9.14451C18.3489 9.4753 18.5565 10.0326 18.4802 10.5547H18.4809C18.4252 10.9366 18.2176 11.2996 17.8582 11.5416L13.6159 14.3958C12.638 15.0537 11.3597 15.0537 10.3818 14.3958L6.13943 11.5416C5.28793 10.9688 5.28793 9.7165 6.13871 9.1445L11.1899 5.74645C11.4271 5.58706 11.6996 5.50498 11.9731 5.50021C12.2633 5.49529 12.5547 5.57737 12.8063 5.74646Z" fill="black"/>
</svg>
