<svg width="24" height="24" viewBox="0 0 24 24" fill="none" xmlns="http://www.w3.org/2000/svg">
<path d="M0 12C0 18.6274 5.37258 24 12 24C18.6274 24 24 18.6274 24 12C24 5.37258 18.6274 0 12 0C5.37258 0 0 5.37258 0 12ZM13.6845 7.96566C13.3721 7.65324 13.3721 7.14671 13.6845 6.83429C13.9969 6.52187 14.5035 6.52187 14.8159 6.83429L17.0659 9.08429C17.1558 9.17417 17.2198 9.28012 17.2579 9.39289C17.2842 9.47059 17.2983 9.55153 17.3 9.63269L17.3002 9.65004V9.6501C17.3002 9.78976 17.2644 9.92107 17.2015 10.0353C17.1898 10.0566 17.177 10.0775 17.1632 10.0979C17.1323 10.1435 17.0969 10.1858 17.0575 10.2241L14.8159 12.4657C14.5035 12.7781 13.9969 12.7781 13.6845 12.4657C13.3721 12.1532 13.3721 11.6467 13.6845 11.3343L14.5687 10.4501H7.5002C7.05837 10.4501 6.7002 10.0919 6.7002 9.6501C6.7002 9.20827 7.05837 8.8501 7.5002 8.8501H14.5689L13.6845 7.96566ZM10.3163 11.8343C10.6287 12.1467 10.6287 12.6532 10.3163 12.9657L9.43184 13.8501H16.5006C16.9424 13.8501 17.3006 14.2083 17.3006 14.6501C17.3006 15.0919 16.9424 15.4501 16.5006 15.4501H9.43208L10.3163 16.3343C10.6287 16.6467 10.6287 17.1532 10.3163 17.4657C10.0039 17.7781 9.49732 17.7781 9.1849 17.4657L6.94331 15.2241C6.90332 15.1852 6.86738 15.1423 6.83618 15.0959C6.82291 15.0761 6.81061 15.0559 6.79929 15.0353C6.73638 14.9211 6.70059 14.7898 6.70059 14.6501V14.65L6.70077 14.6327C6.70251 14.5515 6.71654 14.4706 6.74283 14.3929C6.781 14.2801 6.84502 14.1742 6.9349 14.0843L9.1849 11.8343C9.49732 11.5219 10.0039 11.5219 10.3163 11.8343Z" fill="black"/>
</svg>
