<svg width="24" height="24" viewBox="0 0 24 24" fill="none" xmlns="http://www.w3.org/2000/svg">
<path d="M12 0C18.6274 -2.89694e-07 24 5.37258 24 12C24 18.6274 18.6274 24 12 24C5.37258 24 2.89694e-07 18.6274 0 12C-2.89694e-07 5.37258 5.37258 2.89694e-07 12 0ZM11.9844 6L11.8659 6.00544C11.2416 6.06281 10.6494 6.57705 10.6494 7.1925V7.21185L10.9041 13.3661L10.9121 13.4701C10.978 13.9827 11.4323 14.3772 11.9805 14.3772C12.5654 14.3772 13.0436 13.9285 13.0578 13.3661L13.3156 7.21182V7.10398C13.2713 6.50288 12.6536 6.01537 12.0145 6.00035L11.9844 6ZM10.7822 16.7655C10.7822 17.4471 11.3343 17.9997 12.0153 17.9997C12.6964 17.9997 13.2485 17.4471 13.2485 16.7655C13.2485 16.0838 12.6964 15.5312 12.0153 15.5312C11.3343 15.5313 10.7822 16.0838 10.7822 16.7655Z" fill="black"/>
</svg>
