<svg width="24" height="24" viewBox="0 0 24 24" fill="none" xmlns="http://www.w3.org/2000/svg">
<path d="M12 0C5.37258 0 0 5.37258 0 12C0 18.6274 5.37258 24 12 24C18.6274 24 24 18.6274 24 12C24 5.37258 18.6274 0 12 0ZM7.19635 6.13617L17.8629 16.8028C18.1558 17.0956 18.1558 17.5705 17.8629 17.8634C17.57 18.1563 17.0952 18.1563 16.8023 17.8634L14.7896 15.8508C13.9936 16.3332 13.0598 16.6671 12 16.6671C9.27299 16.6671 7.38072 14.4567 6.52187 13.1933C6.16575 12.6694 6.16575 11.9982 6.52187 11.4743C6.91978 10.889 7.53951 10.1003 8.36131 9.42245L6.13569 7.19683C5.84279 6.90394 5.84279 6.42907 6.13569 6.13617C6.42858 5.84328 6.90345 5.84328 7.19635 6.13617ZM12.7864 13.8476L10.1589 11.22C10.0566 11.4597 10 11.7233 10 12C10 13.1045 10.9017 14 12.014 14C12.2876 14 12.5486 13.9458 12.7864 13.8476ZM12.4404 10.0449L10.5963 8.20078C11.0358 8.07358 11.5041 8.00049 12 8.00049C14.7269 8.00049 16.6192 10.2109 17.478 11.4743C17.8342 11.9982 17.8342 12.6694 17.478 13.1933C17.2654 13.506 16.9895 13.8768 16.6533 14.2577L13.9856 11.5901C13.8239 10.819 13.215 10.2108 12.4404 10.0449Z" fill="black"/>
</svg>
