<svg width="24" height="24" viewBox="0 0 24 24" fill="none" xmlns="http://www.w3.org/2000/svg">
<path d="M11.9999 0C5.37252 0 -6.10352e-05 5.37258 -6.10352e-05 12C-6.10352e-05 18.6274 5.37252 24 11.9999 24C18.6274 24 23.9999 18.6274 23.9999 12C23.9999 5.37258 18.6274 0 11.9999 0ZM5.80066 13.3326C5.24605 12.5611 5.24605 11.55 5.80066 10.7785C6.87727 9.2808 9.00799 7 12 7C14.992 7 17.1227 9.2808 18.1993 10.7785C18.754 11.55 18.754 12.5611 18.1993 13.3326C17.1227 14.8303 14.992 17.1111 12 17.1111C9.00799 17.1111 6.87727 14.8303 5.80066 13.3326ZM12.0157 13.0888C11.4274 13.0888 10.966 12.6177 10.966 12.0555C10.966 11.4933 11.4274 11.0222 12.0157 11.0222C12.6039 11.0222 13.0653 11.4933 13.0653 12.0555C13.0653 12.6177 12.6039 13.0888 12.0157 13.0888ZM14.3653 12.0555C14.3653 10.7668 13.3133 9.72217 12.0157 9.72217C10.718 9.72217 9.66602 10.7668 9.66602 12.0555C9.66602 13.3442 10.718 14.3888 12.0157 14.3888C13.3133 14.3888 14.3653 13.3442 14.3653 12.0555Z" fill="black"/>
</svg>
