<svg width="24" height="24" viewBox="0 0 24 24" fill="none" xmlns="http://www.w3.org/2000/svg">
<path d="M12 0C18.6274 0 24 5.37258 24 12C24 18.6274 18.6274 24 12 24C5.37258 24 0 18.6274 0 12C0 5.37258 5.37258 0 12 0ZM8.04303 11.4207C7.98871 11.4546 7.94116 11.4941 7.90039 11.5379V8.55444C7.90039 8.14023 7.5646 7.80444 7.15039 7.80444C6.73618 7.80444 6.40039 8.14023 6.40039 8.55444L6.40039 15.4115C6.40039 15.8257 6.73618 16.1615 7.15039 16.1615C7.5646 16.1615 7.90039 15.8257 7.90039 15.4115L7.90039 12.4806C7.94133 12.5245 7.98909 12.5642 8.0437 12.5981L12.2912 16.1622C12.7536 16.4517 13.3541 16.1187 13.3541 15.5731V13.5321L16.4884 16.1622C16.9509 16.4517 17.5513 16.1187 17.5513 15.5731L17.5513 8.44566C17.5513 7.90015 16.9509 7.56775 16.4884 7.85659L13.3541 10.4863V8.44566C13.3541 7.90015 12.7536 7.56775 12.2912 7.85659L8.04303 11.4207Z" fill="black"/>
</svg>
