<svg width="24" height="24" viewBox="0 0 24 24" fill="none" xmlns="http://www.w3.org/2000/svg">
<path d="M12 0C5.37258 0 0 5.37258 0 12C0 18.6274 5.37258 24 12 24C18.6274 24 24 18.6274 24 12C24 5.37258 18.6274 0 12 0ZM15.957 11.4207C16.0113 11.4546 16.0588 11.4941 16.0996 11.5379V8.55444C16.0996 8.14023 16.4354 7.80444 16.8496 7.80444C17.2638 7.80444 17.5996 8.14023 17.5996 8.55444V15.4115C17.5996 15.8257 17.2638 16.1615 16.8496 16.1615C16.4354 16.1615 16.0996 15.8257 16.0996 15.4115V12.4806C16.0587 12.5245 16.0109 12.5642 15.9563 12.5981L11.7088 16.1622C11.2464 16.4517 10.6459 16.1187 10.6459 15.5731V13.5321L7.51156 16.1622C7.04915 16.4517 6.44868 16.1187 6.44868 15.5731L6.44868 8.44566C6.44868 7.90015 7.04915 7.56775 7.51156 7.85659L10.6459 10.4863V8.44566C10.6459 7.90015 11.2464 7.56775 11.7088 7.85659L15.957 11.4207Z" fill="black"/>
</svg>
