<svg width="24" height="24" viewBox="0 0 24 24" fill="none" xmlns="http://www.w3.org/2000/svg">
<path d="M0 12C0 18.6274 5.37258 24 12 24C18.6274 24 24 18.6274 24 12C24 5.37258 18.6274 0 12 0C5.37258 0 0 5.37258 0 12ZM11.8281 16.3188H9.18115C9.14177 16.3188 9.10292 16.3166 9.06472 16.3121L6.95788 18.4034C6.7031 18.6563 6.29155 18.6547 6.03865 18.3999C5.78576 18.1452 5.78729 17.7336 6.04207 17.4807L8.18186 15.3568C8.18139 15.3442 8.18115 15.3315 8.18115 15.3188V12.6171C8.18115 12.3519 8.28651 12.0975 8.47405 11.91L13.5145 6.86957C14.6739 5.71014 16.471 5.71014 17.6304 6.86957C18.7898 8.02899 18.7898 9.82609 17.6304 10.9855L15.2399 13.3504L15.2214 13.3501H12.0489L10.7392 14.6501H13.926L12.5313 16.0298C12.3441 16.215 12.0914 16.3188 11.8281 16.3188Z" fill="black"/>
</svg>
