<svg width="24" height="24" viewBox="0 0 24 24" fill="none" xmlns="http://www.w3.org/2000/svg">
<path d="M24 12C24 5.37258 18.6274 0 12 0C5.37258 0 0 5.37258 0 12C0 18.6274 5.37258 24 12 24C18.6274 24 24 18.6274 24 12ZM15.6 19H8.40002C7.29545 19 6.40002 18.1046 6.40002 17V7C6.40002 5.89543 7.29546 5 8.40002 5H12H13.9019C14.4732 5 15.0172 5.2443 15.3967 5.67127L17.0948 7.58167C17.4203 7.94777 17.6 8.42057 17.6 8.9104V11.3V17C17.6 18.1046 16.7046 19 15.6 19ZM14.1783 12.3174H11.8023H10.8403C10.6746 12.3174 10.5403 12.1831 10.5403 12.0174V11.6C10.5403 11.4343 10.6746 11.3 10.8403 11.3H11.8023H14.1783H15.1403C15.306 11.3 15.4403 11.4343 15.4403 11.6V12.0174C15.4403 12.1831 15.306 12.3174 15.1403 12.3174H14.1783ZM11.8023 14.3523H14.1783H15.1403C15.306 14.3523 15.4403 14.218 15.4403 14.0523V13.6349C15.4403 13.4692 15.306 13.3349 15.1403 13.3349H14.1783H11.8023H10.8403C10.6746 13.3349 10.5403 13.4692 10.5403 13.6349V14.0523C10.5403 14.218 10.6746 14.3523 10.8403 14.3523H11.8023ZM14.1783 16.3872H11.8023H10.8403C10.6746 16.3872 10.5403 16.2529 10.5403 16.0872V15.6698C10.5403 15.5041 10.6746 15.3698 10.8403 15.3698H11.8023H14.1783H15.1403C15.306 15.3698 15.4403 15.5041 15.4403 15.6698V16.0872C15.4403 16.2529 15.306 16.3872 15.1403 16.3872H14.1783ZM8.98636 12.5432C8.98636 12.6298 9.05657 12.7 9.14318 12.7C9.22979 12.7 9.30001 12.6298 9.30001 12.5432V11.5416C9.30001 11.4082 9.19184 11.3 9.05842 11.3C9.01205 11.3 8.96666 11.3133 8.92767 11.3384L8.65258 11.5155C8.61981 11.5366 8.60001 11.5729 8.60001 11.6119C8.60001 11.7026 8.70039 11.7573 8.77665 11.7082L8.96409 11.5875C8.96642 11.586 8.96914 11.5852 8.97191 11.5852C8.97989 11.5852 8.98636 11.5917 8.98636 11.5997V12.5432ZM8.60476 13.4984H8.87224C8.87537 13.4984 8.87791 13.4958 8.87791 13.4927C8.87791 13.3669 8.97319 13.2799 9.11213 13.2799C9.24313 13.2799 9.33642 13.3574 9.33642 13.4672C9.33642 13.5561 9.28581 13.627 9.08434 13.8143L8.66112 14.2092C8.63292 14.2355 8.6169 14.2723 8.6169 14.3109C8.6169 14.3877 8.67919 14.45 8.75602 14.45H9.53131C9.59688 14.45 9.65003 14.3968 9.65003 14.3313C9.65003 14.2657 9.59688 14.2126 9.53131 14.2126H9.03461C9.02809 14.2126 9.02281 14.2073 9.02281 14.2008C9.02281 14.1974 9.02421 14.1943 9.02668 14.192L9.29672 13.9468C9.54483 13.7245 9.62919 13.5968 9.62919 13.4482C9.62919 13.2136 9.42078 13.05 9.12205 13.05C8.81241 13.05 8.60003 13.2297 8.60003 13.4936C8.60003 13.4963 8.60215 13.4984 8.60476 13.4984ZM8.94878 15.4843C8.94878 15.5417 8.99526 15.5881 9.0526 15.5881H9.11659C9.26847 15.5881 9.36128 15.6601 9.36128 15.7764C9.36128 15.8899 9.26284 15.9684 9.12128 15.9684C9.03443 15.9684 8.96499 15.943 8.92138 15.8985L8.91092 15.8878C8.86343 15.839 8.8106 15.7847 8.74385 15.7847C8.66557 15.7847 8.60068 15.8521 8.62984 15.9248C8.6982 16.0951 8.87719 16.2 9.11847 16.2C9.42691 16.2 9.65003 16.0311 9.65003 15.7976C9.65003 15.625 9.53739 15.5043 9.35682 15.4812C9.35192 15.4806 9.34816 15.4764 9.34816 15.4715C9.34816 15.4669 9.35143 15.4629 9.35593 15.4619C9.50247 15.4289 9.59753 15.3105 9.59753 15.159C9.59753 14.9495 9.39784 14.8 9.12034 14.8C8.88187 14.8 8.71187 14.9035 8.65032 15.076C8.6251 15.1467 8.68773 15.2107 8.7628 15.2107C8.83261 15.2107 8.88556 15.1502 8.93019 15.0966C8.9694 15.0494 9.03296 15.0224 9.11284 15.0224C9.24503 15.0224 9.32941 15.0907 9.32941 15.1978C9.32941 15.3067 9.24222 15.3805 9.11378 15.3805H9.0526C8.99526 15.3805 8.94878 15.427 8.94878 15.4843Z" fill="black"/>
</svg>
