<svg width="24" height="24" viewBox="0 0 24 24" fill="none" xmlns="http://www.w3.org/2000/svg">
<path d="M12 23.9998C18.6274 23.9998 24 18.6272 24 11.9998C24 5.3724 18.6274 -0.000183105 12 -0.000183105C5.37258 -0.000183105 0 5.3724 0 11.9998C0 18.6272 5.37258 23.9998 12 23.9998ZM8.40039 18.9998C7.29582 18.9998 6.40039 18.1044 6.40039 16.9998V6.99982C6.40039 5.89525 7.29582 4.99982 8.40039 4.99982H12.0004H13.9023C14.4735 4.99982 15.0175 5.24411 15.3971 5.67109L17.0952 7.58149C17.4206 7.94759 17.6004 8.42039 17.6004 8.91022V11.2998V16.9998C17.6004 18.1044 16.705 18.9998 15.6004 18.9998H8.40039ZM9.88187 11.0517C8.97131 11.1761 8.26758 11.9485 8.26758 12.893C8.26758 13.9238 9.10347 14.7597 10.1342 14.7597H14.2409C15.0656 14.7597 15.7342 14.091 15.7342 13.2664C15.7342 12.4417 15.0656 11.773 14.2409 11.773C14.2409 10.5358 13.2381 9.53302 12.0009 9.53302C11.0164 9.53302 10.1824 10.1688 9.88187 11.0517Z" fill="black"/>
</svg>
