<svg width="24" height="24" viewBox="0 0 24 24" fill="none" xmlns="http://www.w3.org/2000/svg">
<path d="M12 -0.000244141C5.37258 -0.000244141 0 5.37234 0 11.9998C0 18.6272 5.37258 23.9998 12 23.9998C18.6274 23.9998 24 18.6272 24 11.9998C24 5.37234 18.6274 -0.000244141 12 -0.000244141ZM15.6004 18.9998H8.40039C7.29582 18.9998 6.40039 18.1043 6.40039 16.9998V6.99976C6.40039 5.89519 7.29582 4.99976 8.40039 4.99976H12.0004H13.9023C14.4735 4.99976 15.0175 5.24405 15.3971 5.67103L17.0952 7.58143C17.4206 7.94753 17.6004 8.42033 17.6004 8.91015V11.2998V16.9998C17.6004 18.1043 16.705 18.9998 15.6004 18.9998ZM12.8062 9.49976V12.122H13.2824V11.2449H13.8775C14.1314 11.2449 14.3451 11.1613 14.5184 10.994C14.6893 10.8268 14.7748 10.6192 14.7748 10.3714C14.7748 10.1236 14.6893 9.91605 14.5184 9.7488C14.3475 9.58277 14.1339 9.49976 13.8775 9.49976H12.8062ZM13.8262 10.7981H13.2824V9.94657H13.8262C13.9544 9.94657 14.0576 9.98563 14.1357 10.0638C14.2138 10.1419 14.2529 10.2444 14.2529 10.3714C14.2529 10.4984 14.2138 10.6009 14.1357 10.679C14.0563 10.7584 13.9532 10.7981 13.8262 10.7981ZM11.9591 15.9997C13.6487 15.9997 15.0183 14.6301 15.0183 12.9405H12.4591C12.183 12.9405 11.9591 12.7166 11.9591 12.4405V9.88128C10.2696 9.88128 8.8999 11.2509 8.8999 12.9405C8.8999 14.6301 10.2696 15.9997 11.9591 15.9997Z" fill="black"/>
</svg>
