<svg width="24" height="24" viewBox="0 0 24 24" fill="none" xmlns="http://www.w3.org/2000/svg">
<path d="M12 -0.000244141C5.37258 -0.000244141 0 5.37234 0 11.9998C0 18.6272 5.37258 23.9998 12 23.9998C18.6274 23.9998 24 18.6272 24 11.9998C24 5.37234 18.6274 -0.000244141 12 -0.000244141ZM8.39999 18.9998C7.29542 18.9998 6.39999 18.1043 6.39999 16.9998V6.99976C6.39999 5.89519 7.29542 4.99976 8.39999 4.99976H12H13.9019C14.4731 4.99976 15.0171 5.24405 15.3967 5.67103L17.0948 7.58143C17.4202 7.94753 17.6 8.42033 17.6 8.91015V11.2998V16.9998C17.6 18.1043 16.7046 18.9998 15.6 18.9998H8.39999ZM8.79999 14.9998C8.79999 15.3312 9.06862 15.5998 9.39999 15.5998H14.4C14.7314 15.5998 15 15.3312 15 14.9998C15 14.6684 14.7314 14.3998 14.4 14.3998H9.39999C9.06862 14.3998 8.79999 14.6684 8.79999 14.9998ZM9.39999 12.3998C9.06862 12.3998 8.79999 12.6684 8.79999 12.9998C8.79999 13.3312 9.06862 13.5998 9.39999 13.5998H14.4C14.7314 13.5998 15 13.3312 15 12.9998C15 12.6684 14.7314 12.3998 14.4 12.3998H9.39999ZM8.79999 10.9998C8.79999 11.3312 9.06862 11.5998 9.39999 11.5998H14.4C14.7314 11.5998 15 11.3312 15 10.9998C15 10.6684 14.7314 10.3998 14.4 10.3998H9.39999C9.06862 10.3998 8.79999 10.6684 8.79999 10.9998Z" fill="black"/>
</svg>
