<svg width="24" height="24" viewBox="0 0 24 24" fill="none" xmlns="http://www.w3.org/2000/svg">
<path d="M12 0C5.37258 0 0 5.37258 0 12C0 18.6274 5.37258 24 12 24C18.6274 24 24 18.6274 24 12C24 5.37258 18.6274 0 12 0ZM15.6004 19H8.40039C7.29582 19 6.40039 18.1046 6.40039 17V7C6.40039 5.89543 7.29582 5 8.40039 5H12.0004H13.9023C14.4735 5 15.0175 5.2443 15.3971 5.67127L17.0952 7.58167C17.4206 7.94777 17.6004 8.42057 17.6004 8.9104V11.3V17C17.6004 18.1046 16.705 19 15.6004 19Z" fill="black"/>
</svg>
