<svg width="24" height="24" viewBox="0 0 24 24" fill="none" xmlns="http://www.w3.org/2000/svg">
<path d="M12 23.9995C18.6274 23.9995 24 18.6269 24 11.9995C24 5.3721 18.6274 -0.000488281 12 -0.000488281C5.37258 -0.000488281 0 5.3721 0 11.9995C0 18.6269 5.37258 23.9995 12 23.9995ZM15.9998 18.8101L8.7998 18.8101C7.69523 18.8101 6.7998 17.9146 6.7998 16.8101V12.5732L4.69948 12.5734C4.28527 12.5734 3.94941 12.2377 3.94932 11.8235C3.94922 11.4093 4.28493 11.0734 4.69915 11.0734L6.84949 11.0732L6.8494 12.573L10.3559 12.5728V14.2932C10.3559 14.6674 10.8083 14.8548 11.0729 14.5902L13.5298 12.1333C13.6938 11.9693 13.6938 11.7034 13.5298 11.5394L11.0729 9.08249C10.8083 8.8179 10.3559 9.00529 10.3559 9.37947V11.0728L6.7998 11.073L6.7998 6.81006C6.7998 5.70549 7.69523 4.81006 8.7998 4.81006H14.3017C14.8729 4.81006 15.417 5.05435 15.7965 5.48133L17.4946 7.39173C17.82 7.75783 17.9998 8.23063 17.9998 8.72046L17.9998 16.8101C17.9998 17.9146 17.1044 18.8101 15.9998 18.8101Z" fill="black"/>
</svg>
