<svg width="24" height="24" viewBox="0 0 24 24" fill="none" xmlns="http://www.w3.org/2000/svg">
<path d="M12 23.9998C18.6274 23.9998 24 18.6272 24 11.9998C24 5.37234 18.6274 -0.000244141 12 -0.000244141C5.37258 -0.000244141 0 5.37234 0 11.9998C0 18.6272 5.37258 23.9998 12 23.9998ZM8.82031 18.9998C7.71574 18.9998 6.82031 18.1043 6.82031 16.9998V6.99976C6.82031 5.89519 7.71574 4.99976 8.82031 4.99976H12.4203H14.3222C14.8935 4.99976 15.4375 5.24405 15.817 5.67103L17.5151 7.58143C17.8406 7.94753 18.0203 8.42033 18.0203 8.91015V11.2998V16.9998C18.0203 18.1043 17.1249 18.9998 16.0203 18.9998H8.82031ZM9.35565 12.3778C9.75403 12.3341 9.9773 12.1327 9.9773 11.8153V11.4388C9.9773 11.1521 10.0714 11.047 10.3319 11.047H10.4326V10.4998H10.2487C9.52858 10.4998 9.23526 10.7471 9.23526 11.3491V11.627C9.23526 11.9357 9.08204 12.0604 8.70117 12.0626V12.774C9.08423 12.7784 9.23526 12.9032 9.23526 13.2096V13.4745C9.23526 14.0874 9.52858 14.3413 10.2487 14.3413H10.4326V13.7941H10.3319C10.0714 13.7941 9.9773 13.6912 9.9773 13.4044V13.0214C9.9773 12.704 9.75403 12.5026 9.35565 12.4588V12.3778ZM11.5489 13.2797C11.5489 13.0542 11.3673 12.8725 11.1418 12.8725C10.9163 12.8725 10.7369 13.0542 10.7369 13.2797C10.7369 13.5051 10.9163 13.6868 11.1418 13.6868C11.3673 13.6868 11.5489 13.5051 11.5489 13.2797ZM12.4464 13.6868C12.6718 13.6868 12.8535 13.5051 12.8535 13.2797C12.8535 13.0542 12.6718 12.8725 12.4464 12.8725C12.2209 12.8725 12.0414 13.0542 12.0414 13.2797C12.0414 13.5051 12.2209 13.6868 12.4464 13.6868ZM14.1581 13.2797C14.1581 13.0542 13.9764 12.8725 13.751 12.8725C13.5255 12.8725 13.346 13.0542 13.346 13.2797C13.346 13.5051 13.5255 13.6868 13.751 13.6868C13.9764 13.6868 14.1581 13.5051 14.1581 13.2797ZM15.5437 12.4588C15.1453 12.5026 14.9199 12.704 14.9199 13.0214V13.4044C14.9199 13.689 14.8257 13.7941 14.5674 13.7941H14.4667V14.3413H14.6506C15.3686 14.3413 15.6619 14.0852 15.6619 13.4701V13.2096C15.6619 12.9032 15.8129 12.7784 16.1982 12.774V12.0626C15.8151 12.0604 15.6619 11.9357 15.6619 11.627V11.3491C15.6619 10.7471 15.3708 10.4998 14.6506 10.4998H14.4667V11.047H14.5674C14.8279 11.047 14.9199 11.1521 14.9199 11.4388V11.8153C14.9199 12.1327 15.1453 12.3341 15.5437 12.3778V12.4588Z" fill="black"/>
</svg>
