<svg width="25" height="24" viewBox="0 0 25 24" fill="none" xmlns="http://www.w3.org/2000/svg">
<path d="M12.2594 -3.64315e-05C5.63207 0.00854597 0.286787 5.38804 0.320431 12.0154C0.354076 18.6428 5.7539 24.0084 12.3813 23.9998C19.0087 23.9912 24.3539 18.6117 24.3203 11.9843C24.2866 5.35696 18.8868 -0.00861915 12.2594 -3.64315e-05ZM8.82585 19.004C7.72128 19.0047 6.81706 18.1099 6.80622 17.0053L6.70802 7.00159C6.69718 5.89705 7.58382 5.00107 8.68839 5.00036L12.2512 4.99807L14.1303 4.99687C14.704 4.9965 15.2525 5.24249 15.6364 5.67232L17.3388 7.57854C17.6649 7.94376 17.8476 8.41431 17.8524 8.90175L17.8759 11.2961L17.9318 16.9982C17.9427 18.1027 17.056 18.9987 15.9515 18.9994L8.82585 19.004ZM12.1726 12.6991C12.1733 12.9749 12.3983 13.1978 12.6751 13.1971L15.1313 13.1908C15.4081 13.1901 15.632 12.966 15.6313 12.6902C15.6305 12.4144 15.4056 12.1914 15.1287 12.1921L12.6726 12.1985C12.3957 12.1992 12.1719 12.4233 12.1726 12.6991ZM12.6793 14.8202C12.4025 14.8209 12.1786 15.045 12.1793 15.3208C12.18 15.5966 12.405 15.8196 12.6819 15.8188L15.138 15.8125C15.4148 15.8118 15.6387 15.5877 15.638 15.3119C15.6373 15.0361 15.4123 14.8131 15.1354 14.8139L12.6793 14.8202ZM9.00708 9.91095C9.00779 10.1867 9.23278 10.4097 9.50962 10.409L15.1236 10.3945C15.4005 10.3938 15.6243 10.1697 15.6236 9.89391C15.6229 9.61814 15.3979 9.39516 15.1211 9.39588L9.50705 9.41033C9.23021 9.41104 9.00637 9.63517 9.00708 9.91095ZM11.2725 12.53C11.4669 12.3344 11.4647 12.0183 11.2677 11.8239C11.0706 11.6294 10.7532 11.6304 10.5588 11.826L10.0405 12.3474L9.86922 12.1773C9.67282 11.9822 9.35543 11.9821 9.16032 12.177C8.96521 12.3719 8.96626 12.6881 9.16266 12.8832L9.69079 13.4078C9.78532 13.5017 9.91335 13.5544 10.0466 13.5542C10.1798 13.554 10.3073 13.501 10.4009 13.4068L11.2725 12.53ZM11.2744 14.4456C11.0773 14.2512 10.7599 14.2522 10.5655 14.4478L10.0472 14.9692L9.87596 14.799C9.67956 14.6039 9.36217 14.6038 9.16706 14.7987C8.97195 14.9936 8.973 15.3098 9.1694 15.5049L9.69752 16.0295C9.79205 16.1234 9.92009 16.1761 10.0533 16.1759C10.1866 16.1757 10.3141 16.1227 10.4077 16.0286L11.2792 15.1518C11.4736 14.9562 11.4715 14.64 11.2744 14.4456Z" fill="black"/>
</svg>
