<svg width="24" height="24" viewBox="0 0 24 24" fill="none" xmlns="http://www.w3.org/2000/svg">
<path d="M12 -0.000244141C5.37258 -0.000244141 0 5.37234 0 11.9998C0 18.6272 5.37258 23.9998 12 23.9998C18.6274 23.9998 24 18.6272 24 11.9998C24 5.37234 18.6274 -0.000244141 12 -0.000244141ZM6.4 16.9998V6.99976C6.4 5.89519 7.29543 4.99976 8.4 4.99976H12H13.9019C14.4731 4.99976 15.0172 5.24405 15.3967 5.67103L17.0948 7.58143C17.4202 7.94753 17.6 8.42033 17.6 8.91015V11.2998V16.9998C17.6 18.1043 16.7046 18.9998 15.6 18.9998H8.4C7.29543 18.9998 6.4 18.1043 6.4 16.9998ZM9.57152 13.8998V11.8004C9.57152 11.7452 9.61629 11.7004 9.67152 11.7004H10.2615C10.3168 11.7004 10.3615 11.6556 10.3615 11.6004V11.0998C10.3615 11.0445 10.3168 10.9998 10.2615 10.9998H8C7.94477 10.9998 7.9 11.0445 7.9 11.0998V11.6004C7.9 11.6556 7.94477 11.7004 8 11.7004H8.59002C8.64525 11.7004 8.69002 11.7452 8.69002 11.8004V13.8998C8.69002 13.955 8.73479 13.9998 8.79002 13.9998H9.47152C9.52675 13.9998 9.57152 13.955 9.57152 13.8998ZM10.7151 13.9998H11.4135C11.4495 13.9998 11.4827 13.9804 11.5005 13.9491L11.9806 13.1035C11.9835 13.0985 11.9888 13.0954 11.9946 13.0954C12.0004 13.0954 12.0057 13.0985 12.0086 13.1035L12.4908 13.9493C12.5086 13.9805 12.5417 13.9998 12.5776 13.9998H13.3216C13.3999 13.9998 13.4478 13.9139 13.4067 13.8472L12.58 12.5078C12.5772 12.5032 12.5757 12.4979 12.5757 12.4925C12.5757 12.4871 12.5772 12.4817 12.5801 12.4771L13.4092 11.1528C13.4509 11.0862 13.403 10.9998 13.3244 10.9998H12.5899C12.5519 10.9998 12.5172 11.0213 12.5003 11.0553L12.0575 11.9487C12.0553 11.9532 12.0506 11.9561 12.0455 11.9561C12.0404 11.9561 12.0358 11.9532 12.0335 11.9486L11.5928 11.0555C11.5759 11.0214 11.5412 10.9998 11.5031 10.9998H10.7146C10.6369 10.9998 10.5889 11.0844 10.6288 11.1511L11.4196 12.4728C11.4224 12.4775 11.4239 12.4829 11.4239 12.4884C11.4239 12.4938 11.4225 12.4991 11.4197 12.5038L10.6289 13.8491C10.5897 13.9157 10.6378 13.9998 10.7151 13.9998ZM15.2553 13.9998C15.3105 13.9998 15.3553 13.955 15.3553 13.8998V11.8004C15.3553 11.7452 15.4001 11.7004 15.4553 11.7004H16.0453C16.1006 11.7004 16.1453 11.6556 16.1453 11.6004V11.0998C16.1453 11.0445 16.1006 10.9998 16.0453 10.9998H13.7838C13.7286 10.9998 13.6838 11.0445 13.6838 11.0998V11.6004C13.6838 11.6556 13.7286 11.7004 13.7838 11.7004H14.3738C14.429 11.7004 14.4738 11.7452 14.4738 11.8004V13.8998C14.4738 13.955 14.5186 13.9998 14.5738 13.9998H15.2553Z" fill="black"/>
</svg>
