<svg width="24" height="24" viewBox="0 0 24 24" fill="none" xmlns="http://www.w3.org/2000/svg">
<path d="M12 -0.000244141C5.37258 -0.000244141 0 5.37234 0 11.9998C0 18.6272 5.37258 23.9998 12 23.9998C18.6274 23.9998 24 18.6272 24 11.9998C24 5.37234 18.6274 -0.000244141 12 -0.000244141ZM15.5999 18.9998H8.3999C7.29533 18.9998 6.3999 18.1043 6.3999 16.9998V6.99976C6.3999 5.89519 7.29533 4.99976 8.3999 4.99976H11.9999H13.9018C14.473 4.99976 15.0171 5.24405 15.3966 5.67103L17.0947 7.58143C17.4201 7.94753 17.5999 8.42033 17.5999 8.91015V11.2998V16.9998C17.5999 18.1043 16.7045 18.9998 15.5999 18.9998ZM10 9.51014C9.44772 9.51014 9 9.95786 9 10.5101V12.7102C9 13.234 9.40282 13.6638 9.91562 13.7066L9.36796 15.3496C9.30684 15.533 9.40594 15.7312 9.58932 15.7923C9.7727 15.8535 9.97091 15.7544 10.032 15.571L10.6523 13.7102H12.9477L13.568 15.571C13.6291 15.7544 13.8273 15.8535 14.0107 15.7923C14.1941 15.7312 14.2932 15.533 14.2321 15.3496L13.6844 13.7066C14.1972 13.6638 14.6 13.234 14.6 12.7102V10.5101C14.6 9.95786 14.1523 9.51014 13.6 9.51014H12.15V9.1603C12.15 8.967 11.9933 8.8103 11.8 8.8103C11.6067 8.8103 11.45 8.967 11.45 9.1603V9.51014H10Z" fill="black"/>
</svg>
