<svg width="24" height="24" viewBox="0 0 24 24" fill="none" xmlns="http://www.w3.org/2000/svg">
<path d="M12 23.9998C18.6274 23.9998 24 18.6272 24 11.9998C24 5.37234 18.6274 -0.000244141 12 -0.000244141C5.37258 -0.000244141 0 5.37234 0 11.9998C0 18.6272 5.37258 23.9998 12 23.9998ZM15.6 18.9998H8.39999C7.29542 18.9998 6.39999 18.1043 6.39999 16.9998V6.99976C6.39999 5.89519 7.29542 4.99976 8.39999 4.99976H12H13.9019C14.4731 4.99976 15.0171 5.24405 15.3967 5.67103L17.0948 7.58143C17.4202 7.94753 17.6 8.42033 17.6 8.91015V11.2998V16.9998C17.6 18.1043 16.7046 18.9998 15.6 18.9998ZM11.4664 10.5664C11.135 10.5664 10.8664 10.835 10.8664 11.1664C10.8664 11.4978 11.135 11.7664 11.4664 11.7664H11.5331V13.9081C11.2493 13.9557 11.0331 14.2025 11.0331 14.4998C11.0331 14.8311 11.3017 15.0998 11.6331 15.0998H12.6331C12.9645 15.0998 13.2331 14.8311 13.2331 14.4998C13.2331 14.2025 13.0168 13.9557 12.7331 13.9081V11.1664C12.7331 10.835 12.4644 10.5664 12.1331 10.5664H11.4664ZM11.964 8.49976C11.596 8.49976 11.2973 8.79843 11.3 9.16643C11.3 9.53443 11.5987 9.8331 11.9667 9.8331C12.3347 9.8331 12.6334 9.53443 12.6334 9.16643C12.6334 8.79843 12.3347 8.49976 11.964 8.49976Z" fill="black"/>
</svg>
