<svg width="24" height="24" viewBox="0 0 24 24" fill="none" xmlns="http://www.w3.org/2000/svg">
<path d="M12 24C18.6274 24 24 18.6274 24 12C24 5.37258 18.6274 2.93798e-09 12 1.89268e-09C5.37258 8.47383e-10 -8.47383e-10 5.37258 -1.89268e-09 12C-2.93798e-09 18.6274 5.37258 24 12 24ZM6.40003 17L6.40003 7C6.40003 5.89543 7.29546 5 8.40003 5L9.84998 5L9.84998 5.69995L9.15005 5.69995L9.15005 6.39995L9.85005 6.39995L9.85005 5.7L10.55 5.7L10.55 5L12 5L13.9019 5C14.4732 5 15.0172 5.2443 15.3967 5.67127L17.0948 7.58167C17.4203 7.94777 17.6 8.42057 17.6 8.9104L17.6 11.3L17.6 17C17.6 18.1046 16.7046 19 15.6 19L8.40002 19C7.29545 19 6.40003 18.1046 6.40003 17ZM10.55 6.4L9.85 6.4L9.85 7.1L9.15003 7.1L9.15003 7.8L9.85 7.8L9.85 8.5L9.15003 8.5L9.15003 9.2L9.85 9.2L9.85 9.9L9.15003 9.9L9.15003 10.6L9.85 10.6L9.85 11.3L9.15003 11.3L9.15003 12L9.41617 12C9.25972 12 9.12336 12.1065 9.08541 12.2582L8.78952 13.4418C8.61705 14.1317 9.13884 14.8 9.84997 14.8C10.5611 14.8 11.0829 14.1317 10.9104 13.4418L10.6145 12.2582C10.5766 12.1065 10.4402 12 10.2838 12L9.85003 12L9.85003 11.3L10.55 11.3L10.55 10.6L9.85003 10.6L9.85003 9.9L10.55 9.9L10.55 9.2L9.85003 9.2L9.85003 8.5L10.55 8.5L10.55 7.8L9.85003 7.8L9.85003 7.1L10.55 7.1L10.55 6.4ZM9.85005 14.4079C9.46345 14.4079 9.15005 14.1823 9.15005 13.9039C9.15005 13.6256 9.46345 13.3999 9.85005 13.3999C10.2366 13.3999 10.55 13.6256 10.55 13.9039C10.55 14.1823 10.2366 14.4079 9.85005 14.4079Z" fill="black"/>
</svg>
