<svg width="24" height="24" viewBox="0 0 24 24" fill="none" xmlns="http://www.w3.org/2000/svg">
<path d="M12 -0.000244141C5.37258 -0.000244141 0 5.37234 0 11.9998C0 18.6272 5.37258 23.9998 12 23.9998C18.6274 23.9998 24 18.6272 24 11.9998C24 5.37234 18.6274 -0.000244141 12 -0.000244141ZM15.6004 18.9998H8.40039C7.29582 18.9998 6.40039 18.1043 6.40039 16.9998V6.99976C6.40039 5.89519 7.29582 4.99976 8.40039 4.99976H12.0004H13.9023C14.4735 4.99976 15.0175 5.24405 15.3971 5.67103L17.0952 7.58143C17.4206 7.94753 17.6004 8.42033 17.6004 8.91015V11.2998V16.9998C17.6004 18.1043 16.705 18.9998 15.6004 18.9998ZM9.55078 14.3748H12.6133C13.0963 14.3748 13.4883 13.9828 13.4883 13.4998V10.8748C13.4883 10.3918 13.0963 9.99976 12.6133 9.99976H9.55078C9.06778 9.99976 8.67578 10.3918 8.67578 10.8748V13.4998C8.67578 13.9828 9.06778 14.3748 9.55078 14.3748ZM13.8086 13.2149L14.5802 13.8361C14.8797 14.077 15.3248 13.864 15.3248 13.4796V10.8147C15.3248 10.4303 14.8797 10.2173 14.5802 10.4581L13.8086 11.0793V13.2149Z" fill="black"/>
</svg>
