<svg width="24" height="24" viewBox="0 0 24 24" fill="none" xmlns="http://www.w3.org/2000/svg">
<path d="M12 23.9998C18.6274 23.9998 24 18.6272 24 11.9998C24 5.37234 18.6274 -0.000244141 12 -0.000244141C5.37258 -0.000244141 0 5.37234 0 11.9998C0 18.6272 5.37258 23.9998 12 23.9998ZM15.5999 18.9998H8.3999C7.29533 18.9998 6.3999 18.1043 6.3999 16.9998V6.99976C6.3999 5.89519 7.29533 4.99976 8.3999 4.99976H11.9999H13.9018C14.473 4.99976 15.0171 5.24405 15.3966 5.67103L17.0947 7.58143C17.4201 7.94753 17.5999 8.42033 17.5999 8.91015V11.2998V16.9998C17.5999 18.1043 16.7045 18.9998 15.5999 18.9998ZM8.15059 15.3568V16.7497C8.15059 17.0259 8.37444 17.2497 8.65059 17.2497H15.3506C15.6267 17.2497 15.8506 17.0259 15.8506 16.7497V14.3339C15.8506 14.1855 15.7847 14.0448 15.6707 13.9498L14.0786 12.6231C13.8897 12.4656 13.6143 12.469 13.4293 12.6309L11.2556 14.5328C11.0778 14.6884 10.8154 14.6983 10.6263 14.5566L9.8975 14.0099C9.69844 13.8606 9.4199 13.8804 9.24395 14.0564L8.29703 15.0033C8.20326 15.0971 8.15059 15.2242 8.15059 15.3568ZM10.6005 11.9997C10.6005 11.4198 10.1304 10.9497 9.55049 10.9497C8.97059 10.9497 8.50049 11.4198 8.50049 11.9997C8.50049 12.5796 8.97059 13.0497 9.55049 13.0497C10.1304 13.0497 10.6005 12.5796 10.6005 11.9997Z" fill="black"/>
</svg>
