<svg width="24" height="24" viewBox="0 0 24 24" fill="none" xmlns="http://www.w3.org/2000/svg">
<path d="M12 23.9998C18.6274 23.9998 24 18.6272 24 11.9998C24 5.37234 18.6274 -0.000244141 12 -0.000244141C5.37258 -0.000244141 0 5.37234 0 11.9998C0 18.6272 5.37258 23.9998 12 23.9998ZM8.40039 18.9998C7.29582 18.9998 6.40039 18.1043 6.40039 16.9998V6.99976C6.40039 5.89519 7.29582 4.99976 8.40039 4.99976H12.0004H13.9023C14.4735 4.99976 15.0175 5.24405 15.3971 5.67103L17.0952 7.58143C17.4206 7.94753 17.6004 8.42033 17.6004 8.91015V11.2998V16.9998C17.6004 18.1043 16.705 18.9998 15.6004 18.9998H8.40039ZM10.1539 12.5199L11.4674 11.2065V14.9999C11.4674 15.276 11.6912 15.4999 11.9674 15.4999C12.2435 15.4999 12.4674 15.276 12.4674 14.9999V11.2072L13.7801 12.5199C13.9753 12.7152 14.2919 12.7152 14.4872 12.5199C14.6825 12.3247 14.6825 12.0081 14.4872 11.8128L12.3206 9.6462C12.1253 9.45094 11.8087 9.45094 11.6135 9.6462L9.44684 11.8128C9.25158 12.0081 9.25158 12.3247 9.44684 12.5199C9.6421 12.7152 9.95868 12.7152 10.1539 12.5199Z" fill="black"/>
</svg>
