<svg width="24" height="24" viewBox="0 0 24 24" fill="none" xmlns="http://www.w3.org/2000/svg">
<path d="M12 23.9998C18.6274 23.9998 24 18.6272 24 11.9998C24 5.37234 18.6274 -0.000244141 12 -0.000244141C5.37258 -0.000244141 0 5.37234 0 11.9998C0 18.6272 5.37258 23.9998 12 23.9998ZM8.40039 18.9998C7.29582 18.9998 6.40039 18.1043 6.40039 16.9998V6.99976C6.40039 5.89519 7.29582 4.99976 8.40039 4.99976H12.0004H13.9023C14.4735 4.99976 15.0175 5.24405 15.3971 5.67103L17.0952 7.58143C17.4206 7.94753 17.6004 8.42033 17.6004 8.91015V11.2998V16.9998C17.6004 18.1043 16.705 18.9998 15.6004 18.9998H8.40039ZM12.4674 9.99976C12.4674 9.72361 12.2435 9.49976 11.9674 9.49976C11.6912 9.49976 11.4674 9.72361 11.4674 9.99976V13.793L10.1539 12.4796C9.95868 12.2843 9.6421 12.2843 9.44684 12.4796C9.25157 12.6748 9.25157 12.9914 9.44684 13.1867L11.6135 15.3533C11.8087 15.5486 12.1253 15.5486 12.3206 15.3533L14.4872 13.1867C14.6825 12.9914 14.6825 12.6748 14.4872 12.4796C14.2919 12.2843 13.9753 12.2843 13.7801 12.4796L12.4674 13.7923V9.99976Z" fill="black"/>
</svg>
