<svg width="24" height="24" viewBox="0 0 24 24" fill="none" xmlns="http://www.w3.org/2000/svg">
<path d="M12 23.9998C18.6274 23.9998 24 18.6272 24 11.9998C24 5.3724 18.6274 -0.000183105 12 -0.000183105C5.37258 -0.000183105 0 5.3724 0 11.9998C0 18.6272 5.37258 23.9998 12 23.9998ZM8.40039 18.9998C7.29582 18.9998 6.40039 18.1044 6.40039 16.9998V6.99982C6.40039 5.89525 7.29582 4.99982 8.40039 4.99982H12.0004H13.9023C14.4735 4.99982 15.0175 5.24411 15.3971 5.67109L17.0952 7.58149C17.4206 7.94759 17.6004 8.42039 17.6004 8.91022V11.2998V16.9998C17.6004 18.1044 16.705 18.9998 15.6004 18.9998H8.40039ZM10.5644 10.6584C10.4082 10.5022 10.1549 10.5022 9.99871 10.6584L8.51794 12.1392C8.36173 12.2954 8.36173 12.5486 8.51794 12.7048L9.99871 14.1856C10.1549 14.3418 10.4082 14.3418 10.5644 14.1856C10.7206 14.0294 10.7206 13.7761 10.5644 13.6199L9.36646 12.422L10.5644 11.2241C10.7206 11.0679 10.7206 10.8146 10.5644 10.6584ZM13.2559 13.6203C13.0997 13.7765 13.0997 14.0298 13.2559 14.186C13.4121 14.3422 13.6654 14.3422 13.8216 14.186L15.3024 12.7052C15.4586 12.549 15.4586 12.2957 15.3024 12.1395L13.8216 10.6588C13.6654 10.5025 13.4121 10.5025 13.2559 10.6588C13.0997 10.815 13.0997 11.0682 13.2559 11.2244L14.4538 12.4224L13.2559 13.6203ZM12.4452 9.95967C12.2299 9.91 12.0152 10.0442 11.9655 10.2595L11.077 14.1095C11.0274 14.3247 11.1616 14.5395 11.3769 14.5892C11.5921 14.6389 11.8069 14.5046 11.8566 14.2894L12.745 10.4394C12.7947 10.2241 12.6605 10.0093 12.4452 9.95967Z" fill="black"/>
</svg>
