<svg width="24" height="24" viewBox="0 0 24 24" fill="none" xmlns="http://www.w3.org/2000/svg">
<path d="M12 -0.000244141C5.37258 -0.000244141 0 5.37234 0 11.9998C0 18.6272 5.37258 23.9998 12 23.9998C18.6274 23.9998 24 18.6272 24 11.9998C24 5.37234 18.6274 -0.000244141 12 -0.000244141ZM8.40039 18.9998C7.29582 18.9998 6.40039 18.1043 6.40039 16.9998V6.99976C6.40039 5.89519 7.29582 4.99976 8.40039 4.99976H12.0004H13.9023C14.4735 4.99976 15.0175 5.24405 15.3971 5.67103L17.0952 7.58143C17.4206 7.94753 17.6004 8.42033 17.6004 8.91015V11.2998V16.9998C17.6004 18.1043 16.705 18.9998 15.6004 18.9998H8.40039ZM13.1028 12.4753C13.2813 12.6156 13.5064 12.6993 13.7511 12.6993C14.3311 12.6993 14.8011 12.2292 14.8011 11.6493C14.8011 11.0693 14.3311 10.5993 13.7511 10.5993C13.1712 10.5993 12.7011 11.0693 12.7011 11.6493C12.7011 11.6959 12.7042 11.7418 12.71 11.7868C12.6936 11.7934 12.6775 11.8012 12.6617 11.8102L11.0546 12.7233C10.862 12.4946 10.5736 12.3493 10.2511 12.3493C9.67117 12.3493 9.20112 12.8193 9.20112 13.3993C9.20112 13.9792 9.67117 14.4493 10.2511 14.4493C10.5738 14.4493 10.8625 14.3037 11.0551 14.0747L12.6617 14.9876C12.6775 14.9966 12.6937 15.0044 12.7101 15.011C12.7042 15.0562 12.7011 15.1024 12.7011 15.1493C12.7011 15.7292 13.1712 16.1993 13.7511 16.1993C14.3311 16.1993 14.8011 15.7292 14.8011 15.1493C14.8011 14.5693 14.3311 14.0993 13.7511 14.0993C13.5067 14.0993 13.2818 14.1828 13.1033 14.3228C13.0888 14.3116 13.0733 14.3013 13.0569 14.292L11.485 13.3989L13.0569 12.5057C13.0731 12.4965 13.0884 12.4863 13.1028 12.4753Z" fill="black"/>
</svg>
