<svg width="24" height="24" viewBox="0 0 24 24" fill="none" xmlns="http://www.w3.org/2000/svg">
<path d="M12 24C18.6274 24 24 18.6274 24 12C24 5.37258 18.6274 0 12 0C5.37258 0 0 5.37258 0 12C0 18.6274 5.37258 24 12 24ZM15.6004 19H8.40039C7.29582 19 6.40039 18.1046 6.40039 17V7C6.40039 5.89543 7.29582 5 8.40039 5H12.0004H13.9023C14.4735 5 15.0175 5.2443 15.3971 5.67127L17.0952 7.58167C17.4206 7.94777 17.6004 8.42057 17.6004 8.9104V11.3V17C17.6004 18.1046 16.705 19 15.6004 19ZM11.8839 15.1324C12.0804 15.2896 12.3713 15.1497 12.3713 14.8982V10.7404C12.3713 10.488 12.0787 10.3484 11.8825 10.5073L10.6857 11.4768H9.67427C9.30207 11.4768 9 11.7788 9 12.151V13.4996C9 13.8718 9.30207 14.1738 9.67427 14.1738H10.6857L11.8839 15.1324ZM13.388 10.1214C13.2231 10.3429 13.269 10.6562 13.4905 10.8211C14.103 11.2769 14.4995 11.9956 14.4995 12.8086C14.4995 13.6214 14.1026 14.3403 13.4904 14.7963C13.2689 14.9613 13.2231 15.2745 13.3881 15.496C13.553 15.7174 13.8663 15.7632 14.0877 15.5983C14.9362 14.9663 15.4995 13.9581 15.4995 12.8086C15.4995 11.6593 14.9369 10.651 14.0876 10.0189C13.8661 9.85398 13.5528 9.8999 13.388 10.1214Z" fill="black"/>
</svg>
