<svg width="24" height="24" viewBox="0 0 24 24" fill="none" xmlns="http://www.w3.org/2000/svg">
<path d="M12 -0.000244141C5.37258 -0.000244141 0 5.37234 0 11.9998C0 18.6272 5.37258 23.9998 12 23.9998C18.6274 23.9998 24 18.6272 24 11.9998C24 5.37234 18.6274 -0.000244141 12 -0.000244141ZM8.40039 18.9998C7.29582 18.9998 6.40039 18.1043 6.40039 16.9998V6.99976C6.40039 5.89519 7.29582 4.99976 8.40039 4.99976H12.0004H13.9023C14.4735 4.99976 15.0175 5.24405 15.3971 5.67103L17.0952 7.58143C17.4206 7.94753 17.6004 8.42033 17.6004 8.91015V11.2998V16.9998C17.6004 18.1043 16.705 18.9998 15.6004 18.9998H8.40039ZM13.5999 16.2998C14.1522 16.2998 14.5999 15.852 14.5999 15.2998V9.49976C14.5999 8.94747 14.1522 8.49976 13.5999 8.49976H10.3999C9.84762 8.49976 9.3999 8.94747 9.3999 9.49976V15.2998C9.3999 15.852 9.84762 16.2998 10.3999 16.2998H13.5999ZM11.9893 14.1328H12.0097C12.2912 14.1328 12.5195 14.3611 12.5195 14.6426C12.5195 14.9242 12.2912 15.1524 12.0097 15.1524H11.9893C11.7077 15.1524 11.4795 14.9242 11.4795 14.6426C11.4795 14.3611 11.7077 14.1328 11.9893 14.1328Z" fill="black"/>
</svg>
