<svg width="25" height="24" viewBox="0 0 25 24" fill="none" xmlns="http://www.w3.org/2000/svg">
<path d="M9.94685 14.773C9.9472 15.0443 10.1676 15.264 10.4391 15.2636L14.653 15.2582C14.9245 15.2578 15.1443 15.0376 15.144 14.7663C15.1436 14.495 14.9232 14.2753 14.6517 14.2757L10.4378 14.2811C10.1663 14.2815 9.9465 14.5017 9.94685 14.773Z" fill="black"/>
<path d="M10.4356 12.5252C10.1641 12.5256 9.94424 12.7458 9.94459 13.0171C9.94494 13.2884 10.1653 13.5081 10.4368 13.5077L14.6507 13.5023C14.9222 13.5019 15.142 13.2817 15.1417 13.0104C15.1413 12.7391 14.921 12.5194 14.6494 12.5198L10.4356 12.5252Z" fill="black"/>
<path d="M9.94232 11.2612C9.94267 11.5325 10.1631 11.7521 10.4346 11.7518L14.6484 11.7464C14.92 11.746 15.1398 11.5258 15.1394 11.2545C15.1391 10.9832 14.9187 10.7635 14.6472 10.7639L10.4333 10.7693C10.1618 10.7697 9.94197 10.9899 9.94232 11.2612Z" fill="black"/>
<path d="M12.4573 0.00012207C5.82986 0.000156223 0.477712 5.39796 0.502712 11.9999C0.527711 18.6019 5.92073 23.9996 12.5482 23.9996C19.1756 23.9996 24.5277 18.6018 24.5027 11.9998C24.4777 5.39784 19.0847 8.79184e-05 12.4573 0.00012207ZM9.05468 8.07987C9.05468 8.20304 9.05637 8.32708 9.12052 8.38927C9.19521 8.46166 9.33951 8.45784 9.43115 8.38927C9.8472 8.07707 10.4594 7.61807 10.4594 7.61807C10.4594 7.61807 11.0585 8.07742 11.4746 8.38927C11.5705 8.46107 11.7393 8.47039 11.8148 8.38927C11.8663 8.33379 11.8654 8.2261 11.8644 8.12159L11.8642 8.07987L11.8642 4.92309L14.2101 4.9254C14.8201 4.926 15.4049 5.19097 15.8132 5.65181L17.4511 7.50052C17.7911 7.88422 17.9832 8.37523 17.9921 8.88315L18.1267 16.5441C18.1506 17.9017 17.0693 19.0011 15.7116 18.9998L9.61958 18.9938C8.2619 18.9924 7.14194 17.8908 7.11808 16.5332L6.95717 7.37632C6.93521 6.12648 7.84994 5.09542 9.05468 4.94069L9.05468 8.07987Z" fill="black"/>
</svg>
