<svg width="24" height="24" viewBox="0 0 24 24" fill="none" xmlns="http://www.w3.org/2000/svg">
<path d="M12 23.9998C18.6274 23.9998 24 18.6272 24 11.9998C24 5.37234 18.6274 -0.000244141 12 -0.000244141C5.37258 -0.000244141 0 5.37234 0 11.9998C0 18.6272 5.37258 23.9998 12 23.9998ZM15.6 18.9998H8.39999C7.29542 18.9998 6.39999 18.1043 6.39999 16.9998V6.99976C6.39999 5.89519 7.29542 4.99976 8.39999 4.99976H12H13.9019C14.4731 4.99976 15.0171 5.24405 15.3967 5.67103L17.0948 7.58143C17.4202 7.94753 17.6 8.42033 17.6 8.91015V11.2998V16.9998C17.6 18.1043 16.7046 18.9998 15.6 18.9998ZM12.0701 14.4797C12.0701 13.8614 11.5685 13.3597 10.9501 13.3597C10.2204 13.3597 9.96612 13.954 9.72263 14.5231C9.5924 14.8274 9.46526 15.1246 9.27011 15.3197C9.69011 15.3197 9.90012 15.3897 10.1101 15.4597C10.3201 15.5297 10.5301 15.5997 10.9501 15.5997C11.5685 15.5997 12.0701 15.0981 12.0701 14.4797ZM15.3492 10.1975C15.0977 9.94599 14.695 9.93293 14.4275 10.1667L11.8469 12.4245C11.5673 12.669 11.5529 13.0993 11.8156 13.3615L12.1847 13.7307C12.4475 13.9934 12.8777 13.9789 13.1218 13.6994L15.3796 11.1187C15.6138 10.8518 15.6003 10.4486 15.3492 10.1975Z" fill="black"/>
</svg>
