<svg width="24" height="24" viewBox="0 0 24 24" fill="none" xmlns="http://www.w3.org/2000/svg">
<path d="M12 23.9998C18.6274 23.9998 24 18.6272 24 11.9998C24 5.37234 18.6274 -0.000244141 12 -0.000244141C5.37258 -0.000244141 0 5.37234 0 11.9998C0 18.6272 5.37258 23.9998 12 23.9998ZM15.6 18.9998H8.39999C7.29542 18.9998 6.39999 18.1043 6.39999 16.9998V6.99976C6.39999 5.89519 7.29542 4.99976 8.39999 4.99976H12H13.9019C14.4731 4.99976 15.0171 5.24405 15.3967 5.67103L17.0948 7.58143C17.4202 7.94753 17.6 8.42033 17.6 8.91015V11.2998V16.9998C17.6 18.1043 16.7046 18.9998 15.6 18.9998ZM14.2844 11.4027H15.3506C15.5715 11.4027 15.7506 11.2236 15.7506 11.0027C15.7506 10.7817 15.5715 10.6027 15.3506 10.6027H13.8844C13.6635 10.6027 13.4844 10.7817 13.4844 11.0027V12.2878V13.5777C13.4844 13.7986 13.6635 13.9777 13.8844 13.9777C14.1053 13.9777 14.2844 13.7986 14.2844 13.5777V12.6878H15.0986C15.3195 12.6878 15.4986 12.5087 15.4986 12.2878C15.4986 12.0669 15.3195 11.8878 15.0986 11.8878H14.2844V11.4027ZM12.7434 10.9997C12.7434 10.7788 12.5643 10.5997 12.3434 10.5997C12.1224 10.5997 11.9434 10.7788 11.9434 10.9997V13.5771C11.9434 13.798 12.1224 13.9771 12.3434 13.9771C12.5643 13.9771 12.7434 13.798 12.7434 13.5771V10.9997ZM8.25 12.2884C8.25 13.2212 9.00583 13.9771 9.93866 13.9771H10.7978C11.0187 13.9771 11.1978 13.798 11.1978 13.5771V12.2884C11.1978 12.0675 11.0187 11.8884 10.7978 11.8884H10.0819C9.86094 11.8884 9.68185 12.0675 9.68185 12.2884C9.68185 12.5093 9.86094 12.6884 10.0819 12.6884H10.3978V13.1771H9.93866C9.44766 13.1771 9.05 12.7794 9.05 12.2884C9.05 11.7974 9.44766 11.3997 9.93866 11.3997H10.7978C11.0187 11.3997 11.1978 11.2206 11.1978 10.9997C11.1978 10.7788 11.0187 10.5997 10.7978 10.5997H9.93866C9.00583 10.5997 8.25 11.3556 8.25 12.2884Z" fill="black"/>
</svg>
