<svg width="24" height="24" viewBox="0 0 24 24" fill="none" xmlns="http://www.w3.org/2000/svg">
<path d="M12 -0.000244141C5.37258 -0.000244141 0 5.37234 0 11.9998C0 18.6272 5.37258 23.9998 12 23.9998C18.6274 23.9998 24 18.6272 24 11.9998C24 5.37234 18.6274 -0.000244141 12 -0.000244141ZM15.3967 5.48157L17.0948 7.39197C17.4202 7.75808 17.6 8.23087 17.6 8.7207V16.8103C17.6 17.9149 16.7046 18.8103 15.6 18.8103H8.39999C7.29542 18.8103 6.39999 17.9149 6.39999 16.8103V6.8103C6.39999 5.70573 7.29542 4.8103 8.39999 4.8103H13.9019C14.4731 4.8103 15.0171 5.0546 15.3967 5.48157ZM14.2287 16.1667C14.4751 16.1775 14.705 16.1936 14.8736 16.2072C14.9577 16.2139 15.0261 16.2201 15.0733 16.2244C15.0854 16.2255 15.096 16.2265 15.1052 16.2274C15.1139 16.2282 15.1213 16.229 15.1272 16.2295L15.1408 16.2309L15.1447 16.2313C15.4194 16.2593 15.6648 16.0591 15.6928 15.7844C15.7208 15.5097 15.5207 15.2643 15.246 15.2364L15.245 15.2433L15.2454 15.2364L15.2442 15.2362L15.2399 15.2358L15.2241 15.2343C15.2104 15.2329 15.1905 15.231 15.1652 15.2287C15.1147 15.224 15.0422 15.2176 14.9537 15.2105C14.777 15.1962 14.5344 15.1791 14.2723 15.1676C14.0113 15.1562 13.7248 15.1503 13.4619 15.1592C13.2116 15.1678 12.9372 15.1908 12.7249 15.2561C12.5117 15.3217 12.2808 15.4396 12.1223 15.5269C12.0388 15.5729 11.9665 15.6153 11.915 15.6465C11.8891 15.6621 11.8683 15.6748 11.8535 15.684L11.8361 15.695L11.8311 15.6981L11.8302 15.6986L11.829 15.6994L11.8286 15.6996L11.8152 15.7083L11.8027 15.7174L11.8008 15.7188L11.79 15.7263C11.78 15.7334 11.7644 15.7442 11.7445 15.7576C11.7042 15.7846 11.6476 15.8212 11.5826 15.8593C11.5248 15.893 11.4691 15.9226 11.418 15.9471L11.351 15.9763L11.3525 15.872C11.3602 15.6841 11.3946 15.4365 11.4389 15.1288L11.4416 15.1104C11.4958 14.7343 11.5636 14.2638 11.5201 13.8822C11.4975 13.6843 11.4392 13.4441 11.2773 13.2452C11.1227 13.0553 10.9123 12.9496 10.6781 12.9195L10.5592 12.9107C10.088 12.9007 9.72649 13.1516 9.476 13.4282C9.22676 13.7033 9.04122 14.0513 8.90587 14.3661C8.76825 14.6862 8.66977 15.0025 8.606 15.2358C8.57388 15.3533 8.55003 15.4517 8.53404 15.5216C8.52603 15.5566 8.51996 15.5847 8.51579 15.6044L8.51094 15.6277L8.50957 15.6346L8.50906 15.6372L8.50889 15.6381C8.45591 15.909 8.63267 16.1717 8.90368 16.2246C9.17469 16.2776 9.43734 16.101 9.49031 15.8299L9.49096 15.8267L9.49424 15.8109C9.49732 15.7963 9.50218 15.7739 9.50884 15.7448C9.52219 15.6863 9.54269 15.6017 9.57061 15.4995C9.62691 15.2935 9.71125 15.0246 9.82458 14.761C9.94019 14.4921 10.0738 14.2578 10.2171 14.0995C10.3356 13.9687 10.428 13.9235 10.4984 13.913L10.511 13.9113L10.509 13.9012C10.5044 13.8851 10.5005 13.8767 10.4993 13.8739C10.499 13.8734 10.4989 13.873 10.4988 13.8729C10.5093 13.8858 10.5171 13.8925 10.5243 13.8974L10.537 13.9043C10.5469 13.9095 10.5496 13.9103 10.5492 13.9106L10.5379 13.9105L10.511 13.9113L10.518 13.9387C10.521 13.9543 10.524 13.9731 10.5265 13.9955C10.553 14.2277 10.5099 14.5648 10.4492 14.9862C10.4461 15.0071 10.4431 15.0283 10.44 15.0497C10.3879 15.4088 10.3243 15.8475 10.3641 16.1856C10.3853 16.3664 10.4456 16.6214 10.6491 16.8103C10.8493 16.9962 11.0968 17.0382 11.3221 17.0138L11.4172 16.9995C11.6718 16.9506 11.9272 16.816 12.087 16.7226C12.1451 16.6888 12.1976 16.656 12.2419 16.6274L12.3019 16.5878C12.3286 16.57 12.3502 16.5549 12.3656 16.5441L12.374 16.5373C12.3685 16.5415 12.368 16.5418 12.3675 16.542L12.3665 16.5426C12.3602 16.5331 12.3336 16.4914 12.1982 16.2791L12.0975 16.1213L12.099 16.1233L12.1653 16.214C12.372 16.4965 12.3907 16.5223 12.3924 16.5246L12.3918 16.5254L12.3907 16.5263L12.3872 16.5288C12.3927 16.5264 12.4096 16.5159 12.4311 16.5029C12.4743 16.4769 12.535 16.4412 12.6047 16.4029C12.7527 16.3214 12.909 16.2458 13.019 16.2118C13.0958 16.1882 13.2563 16.1667 13.4959 16.1586C13.7229 16.1509 13.9811 16.156 14.2287 16.1667ZM12.3872 16.5288L12.3841 16.5309L12.382 16.5313L12.3872 16.5288Z" fill="black"/>
</svg>
