<svg width="24" height="24" viewBox="0 0 24 24" fill="none" xmlns="http://www.w3.org/2000/svg">
<path d="M12 -0.000244141C5.37258 -0.000244141 0 5.37234 0 11.9998C0 18.6272 5.37258 23.9998 12 23.9998C18.6274 23.9998 24 18.6272 24 11.9998C24 5.37234 18.6274 -0.000244141 12 -0.000244141ZM15.6 18.9998H8.39999C7.29542 18.9998 6.39999 18.1043 6.39999 16.9998V6.99976C6.39999 5.89519 7.29542 4.99976 8.39999 4.99976H12H13.9019C14.4731 4.99976 15.0171 5.24405 15.3967 5.67103L17.0948 7.58143C17.4202 7.94753 17.6 8.42033 17.6 8.91015V11.2998V16.9998C17.6 18.1043 16.7046 18.9998 15.6 18.9998ZM8.60019 9.99976C8.32405 9.99976 8.10019 10.2236 8.10019 10.4998V11.6663C8.10019 11.9425 8.32405 12.1663 8.60019 12.1663H11.0667C11.3429 12.1663 11.5667 11.9425 11.5667 11.6663V10.4998C11.5667 10.2236 11.3429 9.99976 11.0667 9.99976H8.60019ZM12.4332 10.4998V11.6663C12.4332 11.9425 12.6571 12.1663 12.9332 12.1663H15.3997C15.6759 12.1663 15.8997 11.9425 15.8997 11.6663V10.4998C15.8997 10.2236 15.6759 9.99976 15.3997 9.99976H12.9332C12.6571 9.99976 12.4332 10.2236 12.4332 10.4998ZM8.60019 13.0332C8.32405 13.0332 8.10019 13.2571 8.10019 13.5332V14.6998C8.10019 14.976 8.32405 15.1998 8.60019 15.1998H11.0667C11.3429 15.1998 11.5667 14.976 11.5667 14.6998V13.5332C11.5667 13.2571 11.3429 13.0332 11.0667 13.0332H8.60019ZM12.4332 13.5332V14.6998C12.4332 14.9759 12.6571 15.1998 12.9332 15.1998H15.3997C15.6759 15.1998 15.8997 14.9759 15.8997 14.6998V13.5332C15.8997 13.2571 15.6759 13.0332 15.3997 13.0332H12.9332C12.6571 13.0332 12.4332 13.2571 12.4332 13.5332Z" fill="black"/>
</svg>
