<svg width="24" height="24" viewBox="0 0 24 24" fill="none" xmlns="http://www.w3.org/2000/svg">
<path d="M24 12C24 5.37258 18.6274 0 12 0C5.37258 0 0 5.37258 0 12C0 18.6274 5.37258 24 12 24C18.6274 24 24 18.6274 24 12ZM15.6 19H8.40002C7.29545 19 6.40002 18.1046 6.40002 17V7C6.40002 5.89543 7.29546 5 8.40002 5H12H13.9019C14.4732 5 15.0172 5.2443 15.3967 5.67127L17.0948 7.58167C17.4203 7.94777 17.6 8.42057 17.6 8.9104V11.3V17C17.6 18.1046 16.7046 19 15.6 19ZM14.0784 12.3174H15.0404C15.2061 12.3174 15.3404 12.1831 15.3404 12.0174V11.6C15.3404 11.4343 15.2061 11.3 15.0404 11.3H14.0784H11.7024H10.7404C10.5747 11.3 10.4404 11.4343 10.4404 11.6V12.0174C10.4404 12.1831 10.5747 12.3174 10.7404 12.3174H11.7024H14.0784ZM8.73099 11.8087C8.73099 12.0897 8.95875 12.3174 9.23971 12.3174C9.52067 12.3174 9.74843 12.0897 9.74843 11.8087C9.74843 11.5278 9.52067 11.3 9.23971 11.3C8.95875 11.3 8.73099 11.5278 8.73099 11.8087ZM14.0784 14.3523H15.0404C15.2061 14.3523 15.3404 14.218 15.3404 14.0523V13.6349C15.3404 13.4692 15.2061 13.3349 15.0404 13.3349H14.0784H11.7024H10.7404C10.5747 13.3349 10.4404 13.4692 10.4404 13.6349V14.0523C10.4404 14.218 10.5747 14.3523 10.7404 14.3523H11.7024H14.0784ZM8.73105 13.8436C8.73105 14.1246 8.95881 14.3523 9.23977 14.3523C9.52073 14.3523 9.74849 14.1246 9.74849 13.8436C9.74849 13.5626 9.52073 13.3349 9.23977 13.3349C8.95881 13.3349 8.73105 13.5626 8.73105 13.8436ZM14.0784 16.3872H15.0404C15.2061 16.3872 15.3404 16.2529 15.3404 16.0872V15.6698C15.3404 15.5041 15.2061 15.3698 15.0404 15.3698H14.0784H11.7024H10.7404C10.5747 15.3698 10.4404 15.5041 10.4404 15.6698V16.0872C10.4404 16.2529 10.5747 16.3872 10.7404 16.3872H11.7024H14.0784ZM8.73105 15.8785C8.73105 16.1594 8.95881 16.3872 9.23977 16.3872C9.52073 16.3872 9.74849 16.1594 9.74849 15.8785C9.74849 15.5975 9.52073 15.3698 9.23977 15.3698C8.95881 15.3698 8.73105 15.5975 8.73105 15.8785Z" fill="black"/>
</svg>
