<svg width="24" height="24" viewBox="0 0 24 24" fill="none" xmlns="http://www.w3.org/2000/svg">
<path d="M24 11.9998C24 5.37234 18.6274 -0.000244141 12 -0.000244141C5.37258 -0.000244141 0 5.37234 0 11.9998C0 18.6272 5.37258 23.9998 12 23.9998C18.6274 23.9998 24 18.6272 24 11.9998ZM17.0924 18.0003H8.16471C6.96917 18.0003 6 17.0285 6 15.8298V11.2523C6 10.5449 6.33746 9.91661 6.85977 9.52035V7.80368C6.85977 6.44842 7.95843 5.34976 9.31369 5.34976H10.9384C11.6552 5.34976 12.3323 5.67879 12.7752 6.24233C12.9716 6.49227 13.2719 6.6382 13.5898 6.6382H15.9356C17.4901 6.6382 18.7503 7.89839 18.7503 9.45291V16.4595C18.7503 17.3127 18.0587 18.0044 17.2055 18.0044C17.1675 18.0044 17.1298 18.003 17.0924 18.0003ZM16.9368 13.7749H16.9514V16.4595C16.9514 16.5861 17.0615 16.7044 17.2055 16.7044C17.3407 16.7044 17.4503 16.5947 17.4503 16.4595V9.45291C17.4503 8.61636 16.7722 7.9382 15.9356 7.9382H13.5898C12.873 7.9382 12.1959 7.60917 11.753 7.04563C11.5566 6.79569 11.2563 6.64976 10.9384 6.64976H9.31369C8.6764 6.64976 8.15977 7.16639 8.15977 7.80368V9.08179C8.16141 9.08179 8.16306 9.08179 8.16471 9.08179H14.7721C15.9676 9.08179 16.9368 10.0535 16.9368 11.2523V13.7749Z" fill="black"/>
</svg>
