<svg width="24" height="24" viewBox="0 0 24 24" fill="none" xmlns="http://www.w3.org/2000/svg">
<path d="M12 -0.000244141C5.37258 -0.000244141 0 5.37234 0 11.9998C0 18.6272 5.37258 23.9998 12 23.9998C18.6274 23.9998 24 18.6272 24 11.9998C24 5.37234 18.6274 -0.000244141 12 -0.000244141ZM13.0282 8.12773H16C17.1046 8.12773 18 9.02316 18 10.1277V14.3331C18 15.4377 17.1046 16.3331 16 16.3331H8C6.89543 16.3331 6 15.4377 6 14.3331V8.99976C6 7.89519 6.89543 6.99976 8 6.99976H10.3792C10.6161 6.99976 10.8488 7.06288 11.0532 7.18264L12.3542 7.94485C12.5587 8.0646 12.7913 8.12773 13.0282 8.12773Z" fill="black"/>
</svg>
