<svg width="24" height="24" viewBox="0 0 24 24" fill="none" xmlns="http://www.w3.org/2000/svg">
<path d="M12 0C5.37258 0 0 5.37258 0 12C0 18.6274 5.37258 24 12 24C18.6274 24 24 18.6274 24 12C24 5.37258 18.6274 0 12 0ZM16 8.12797C17.1046 8.12797 18 9.0234 18 10.128V14.3333C18 15.4379 17.1046 16.3333 16 16.3333H8C6.89543 16.3333 6 15.4379 6 14.3333V9C6 7.89543 6.89543 7 8 7H10.3792C10.6161 7 10.8488 7.06313 11.0532 7.18288L12.3542 7.94509C12.5587 8.06485 12.7913 8.12797 13.0282 8.12797H16ZM12.0004 9.90015C11.669 9.90015 11.4004 10.1688 11.4004 10.5001V11.4001H10.5004C10.169 11.4001 9.90039 11.6688 9.90039 12.0001C9.90039 12.3315 10.169 12.6001 10.5004 12.6001H11.4004V13.5001C11.4004 13.8315 11.669 14.1001 12.0004 14.1001C12.3318 14.1001 12.6004 13.8315 12.6004 13.5001V12.6001H13.5004C13.8318 12.6001 14.1004 12.3315 14.1004 12.0001C14.1004 11.6688 13.8318 11.4001 13.5004 11.4001H12.6004V10.5001C12.6004 10.1688 12.3318 9.90015 12.0004 9.90015Z" fill="black"/>
</svg>
