<svg width="24" height="24" viewBox="0 0 24 24" fill="none" xmlns="http://www.w3.org/2000/svg">
<path d="M12 24C18.6274 24 24 18.6274 24 12C24 5.37258 18.6274 0 12 0C5.37258 0 0 5.37258 0 12C0 18.6274 5.37258 24 12 24ZM9.17865 7.2998C9.25509 7.29977 9.33257 7.31233 9.40815 7.33865C9.58743 7.40092 9.74094 7.53544 9.8218 7.72354L12.4048 13.7325C12.4166 13.756 12.427 13.7802 12.4361 13.8051L12.9883 15.0899C13.141 15.4451 12.9769 15.8568 12.6217 16.0095C12.2665 16.1621 11.8548 15.998 11.7021 15.6428L11.316 14.7446H7.03152L6.64371 15.6436C6.49058 15.9986 6.07868 16.1622 5.7237 16.0091C5.36872 15.856 5.20508 15.4441 5.35821 15.0891L5.89889 13.8357C5.91348 13.789 5.93284 13.7443 5.9564 13.7024L8.53586 7.72272C8.64997 7.45819 8.90778 7.29992 9.17865 7.2998ZM10.7142 13.3446L9.17753 9.76977L7.63544 13.3446H10.7142ZM15.7702 10.1758C16.4882 10.1758 17.0394 10.368 17.4238 10.7525C17.8082 11.1296 18.0004 11.6736 18.0004 12.3844V15.2402C18.0004 15.5797 17.7252 15.8549 17.3857 15.8549H17.2715C16.9951 15.8549 16.7711 15.6308 16.7711 15.3544C16.3431 15.7606 15.8391 15.9637 15.2588 15.9637C14.6931 15.9637 14.2398 15.8223 13.8989 15.5394C13.5653 15.2493 13.3984 14.8467 13.3984 14.3318C13.3984 13.2874 14.0802 12.7253 15.4438 12.6455L16.7711 12.5693V12.4061C16.7711 11.6301 16.441 11.242 15.781 11.242C15.4546 11.242 15.2044 11.3327 15.0304 11.514C15.0074 11.5389 14.9861 11.5647 14.9663 11.5913C14.7585 11.8704 14.4915 12.1783 14.1437 12.166C13.8129 12.1543 13.5383 11.8754 13.6441 11.5618C13.7409 11.2751 13.9128 11.0126 14.16 10.7742C14.5662 10.3753 15.1029 10.1758 15.7702 10.1758ZM16.7819 13.5158L15.6178 13.592C14.9578 13.6282 14.6278 13.8676 14.6278 14.31C14.6278 14.7307 14.9071 14.941 15.4655 14.941C15.8717 14.941 16.1908 14.8395 16.4229 14.6364C16.6623 14.4261 16.7819 14.1178 16.7819 13.7117V13.5158Z" fill="black"/>
</svg>
