<svg width="24" height="24" viewBox="0 0 24 24" fill="none" xmlns="http://www.w3.org/2000/svg">
<path d="M0 12C0 18.6274 5.37258 24 12 24C18.6274 24 24 18.6274 24 12C24 5.37258 18.6274 0 12 0C5.37258 0 0 5.37258 0 12ZM13.6044 16.4364C13.1096 16.7432 12.467 16.3901 12.467 15.8106V12.331C12.4097 12.4565 12.3153 12.5687 12.1837 12.6503L7.6376 16.4364C7.14276 16.7432 6.50018 16.3901 6.50018 15.8106V8.23924C6.50018 7.65975 7.14276 7.30594 7.6376 7.61348L12.183 11.3995C12.3149 11.481 12.4096 11.5933 12.467 11.719V8.23924C12.467 7.65975 13.1096 7.30594 13.6044 7.61348L18.1498 11.3995C18.6166 11.6878 18.6166 12.3613 18.1505 12.6503L13.6044 16.4364Z" fill="black"/>
</svg>
