<svg width="24" height="24" viewBox="0 0 24 24" fill="none" xmlns="http://www.w3.org/2000/svg">
<path d="M12 0C5.37258 0 0 5.37258 0 12C0 18.6274 5.37258 24 12 24C18.6274 24 24 18.6274 24 12C24 5.37258 18.6274 0 12 0ZM5.43359 10.5502L7.34414 7.68438L8.29941 10.5502H5.43359ZM5.50054 11.8502H8.73274L11.2044 19.2652L5.50054 11.8502ZM10.1031 11.8502H13.8985L12.0008 17.5433L10.1031 11.8502ZM8.48633 7H15.5152L14.3318 10.5502H9.66973L8.48633 7ZM12.7977 19.2635L15.2688 11.8502H18.5002L12.7977 19.2635ZM15.7022 10.5502L16.6572 7.68516L18.5672 10.5502H15.7022Z" fill="black"/>
</svg>
