<svg width="24" height="24" viewBox="0 0 24 24" fill="none" xmlns="http://www.w3.org/2000/svg">
<path d="M12 24C18.6274 24 24 18.6274 24 12C24 5.37258 18.6274 0 12 0C5.37258 0 0 5.37258 0 12C0 18.6274 5.37258 24 12 24ZM19 15.3889C19 16.4935 18.1046 17.3889 17 17.3889H7C5.89543 17.3889 5 16.4935 5 15.3889V8.5C5 7.39543 5.89543 6.5 7 6.5H17C18.1046 6.5 19 7.39543 19 8.5V15.3889ZM9.36756 9.80566C8.13632 9.80566 7.13867 10.8033 7.13867 12.0346C7.13867 13.2658 8.13632 14.2634 9.36756 14.2634H10.4646C10.7868 14.2634 11.0479 14.0023 11.0479 13.6801V12.0346C11.0479 11.7124 10.7868 11.4512 10.4646 11.4512H9.5504C9.22823 11.4512 8.96707 11.7124 8.96707 12.0346C8.96707 12.3567 9.22823 12.6179 9.5504 12.6179H9.88126V13.0968H9.36756C8.78065 13.0968 8.30534 12.6215 8.30534 12.0346C8.30534 11.4476 8.78065 10.9723 9.36756 10.9723H10.4646C10.7868 10.9723 11.0479 10.7112 11.0479 10.389C11.0479 10.0668 10.7868 9.80566 10.4646 9.80566H9.36756ZM12.4388 9.80566C12.1166 9.80566 11.8555 10.0668 11.8555 10.389V13.6801C11.8555 14.0023 12.1166 14.2634 12.4388 14.2634C12.761 14.2634 13.0221 14.0023 13.0221 13.6801V10.389C13.0221 10.0668 12.761 9.80566 12.4388 9.80566ZM14.4056 9.80762C14.0834 9.80762 13.8223 10.0688 13.8223 10.391V13.6791C13.8223 14.0013 14.0834 14.2625 14.4056 14.2625C14.7278 14.2625 14.9889 14.0013 14.9889 13.6791V12.6178H15.958C16.2802 12.6178 16.5414 12.3567 16.5414 12.0345C16.5414 11.7123 16.2802 11.4512 15.958 11.4512H14.9889V10.9743H16.2779C16.6 10.9743 16.8612 10.7131 16.8612 10.391C16.8612 10.0688 16.6 9.80762 16.2779 9.80762H14.4056Z" fill="black"/>
</svg>
