<svg width="24" height="24" viewBox="0 0 24 24" fill="none" xmlns="http://www.w3.org/2000/svg">
<path d="M0 12C0 5.37258 5.37258 0 12 0C18.6274 0 24 5.37258 24 12C24 18.6274 18.6274 24 12 24C5.37258 24 0 18.6274 0 12ZM19 8.36709C19 7.70435 18.4627 7.16709 17.8 7.16709L14.9833 7.16676C14.9833 6.16345 14.17 5.3501 13.1667 5.3501C12.7224 5.3501 12.3153 5.50954 11.9995 5.77433C11.6839 5.50954 11.2769 5.3501 10.8327 5.3501C9.82936 5.3501 9.01602 6.16345 9.01602 7.16676L6.2 7.16709C5.53726 7.16709 5 7.70435 5 8.36709V9.85598C5 10.5187 5.53726 11.056 6.2 11.056H17.8C18.4627 11.056 19 10.5187 19 9.85598V8.36709ZM11.3496 18.8331V12.2999H5.77734V17.6335C5.77734 18.2962 6.3146 18.8335 6.97734 18.8335L11.3496 18.8331ZM12.6496 18.8331L17.0218 18.8335C17.6845 18.8335 18.2218 18.2962 18.2218 17.6335V12.2999H12.6496V18.8331ZM13.1667 6.6501C12.8813 6.6501 12.6493 6.88142 12.6493 7.16676H13.6833C13.6833 6.88142 13.452 6.6501 13.1667 6.6501ZM10.8327 6.6501C10.5473 6.6501 10.316 6.88142 10.316 7.16676H11.3493C11.3493 6.88142 11.118 6.6501 10.8327 6.6501Z" fill="black"/>
</svg>
