<svg width="24" height="24" viewBox="0 0 24 24" fill="none" xmlns="http://www.w3.org/2000/svg">
<path d="M12 0C5.37258 0 0 5.37258 0 12C0 18.6274 5.37258 24 12 24C18.6274 24 24 18.6274 24 12C24 5.37258 18.6274 0 12 0ZM11.9658 5.8501C14.5916 5.8501 16.7203 7.97875 16.7203 10.6046V12.7136C17.0622 13.2058 17.2626 13.8036 17.2626 14.4482C17.2626 16.1294 15.9001 17.4919 14.2188 17.4919C14.0878 17.4919 13.959 17.4831 13.8326 17.4665C13.5665 17.4315 13.3887 17.1893 13.3887 16.9209V11.976C13.3887 11.7076 13.5664 11.4653 13.8326 11.43C13.9589 11.4133 14.0878 11.4044 14.2188 11.4044C14.6455 11.4044 15.0517 11.4922 15.4203 11.6507V10.6046C15.4203 8.69672 13.8737 7.1501 11.9658 7.1501C10.0579 7.1501 8.51133 8.69672 8.51133 10.6046V11.6716C8.88787 11.5048 9.30459 11.4122 9.74299 11.4122C9.87399 11.4122 10.0028 11.421 10.1292 11.4376C10.3953 11.4726 10.5731 11.7148 10.5731 11.9833V16.9281C10.5731 17.1966 10.3953 17.4388 10.1292 17.4741C10.0029 17.4908 9.87401 17.4997 9.74299 17.4997C8.06172 17.4997 6.69922 16.1367 6.69922 14.456C6.69922 13.8304 6.88784 13.249 7.21133 12.7655V10.6046C7.21133 7.97875 9.33998 5.8501 11.9658 5.8501Z" fill="black"/>
</svg>
