<svg width="24" height="24" viewBox="0 0 24 24" fill="none" xmlns="http://www.w3.org/2000/svg">
<path d="M12 24C18.6274 24 24 18.6274 24 12C24 5.37258 18.6274 0 12 0C5.37258 0 0 5.37258 0 12C0 18.6274 5.37258 24 12 24ZM9.15792 6.42857V11.082H14.709V6.42857C14.709 5.91574 15.1247 5.5 15.6376 5.5C16.1504 5.5 16.5661 5.91574 16.5661 6.42857V11.9872C16.5663 11.995 16.5664 12.0028 16.5664 12.0106C16.5664 12.0184 16.5663 12.0262 16.5661 12.034V17.5714C16.5661 18.0843 16.1504 18.5 15.6376 18.5C15.1247 18.5 14.709 18.0843 14.709 17.5714V12.9392H9.15792V17.5714C9.15792 18.0843 8.74219 18.5 8.22935 18.5C7.71652 18.5 7.30078 18.0843 7.30078 17.5714V12.0106V6.42857C7.30078 5.91574 7.71652 5.5 8.22935 5.5C8.74219 5.5 9.15792 5.91574 9.15792 6.42857Z" fill="black"/>
</svg>
