<svg width="24" height="24" viewBox="0 0 24 24" fill="none" xmlns="http://www.w3.org/2000/svg">
<path d="M12 24C18.6274 24 24 18.6274 24 12C24 5.37258 18.6274 0 12 0C5.37258 0 0 5.37258 0 12C0 18.6274 5.37258 24 12 24ZM16.3341 11.7561L15.8879 16.4554C15.8047 17.3321 15.1007 18 14.2599 18H9.75054C8.91239 18 8.20979 17.3363 8.12319 16.4629L7.65652 11.7561L11.6216 7.76193C11.8329 7.5491 12.1669 7.54929 12.378 7.76236L16.3341 11.7561ZM13.3996 6.56827L17.8421 11.0759C18.0541 11.291 18.0524 11.638 17.8384 11.851C17.6409 12.0477 17.3315 12.0614 17.1183 11.8932L17.0672 11.8474L12.6248 7.33981C12.3266 7.0374 11.8527 7.01629 11.5301 7.27799L11.4676 7.33411L6.92911 11.8511C6.7151 12.0641 6.36979 12.0624 6.15785 11.8473C5.96222 11.6488 5.94861 11.3378 6.11601 11.1236L6.16163 11.0722L10.7002 6.55508C11.4226 5.83649 12.5719 5.81628 13.3184 6.4905L13.3996 6.56827Z" fill="black"/>
</svg>
