<svg width="24" height="24" viewBox="0 0 24 24" fill="none" xmlns="http://www.w3.org/2000/svg">
<path d="M12 24C18.6274 24 24 18.6274 24 12C24 5.37258 18.6274 0 12 0C5.37258 0 0 5.37258 0 12C0 18.6274 5.37258 24 12 24ZM7 9.64551V11.5925L7.18351 11.4002C7.81973 10.774 8.8407 10.7742 9.47669 11.4006L11.4061 13.301C11.7348 13.6247 12.2611 13.6291 12.595 13.3108L13.5251 12.4242C14.08 11.8954 14.9539 11.9007 15.5023 12.4363L17 13.6819V9.64551C17 8.81708 16.3284 8.14551 15.5 8.14551H8.5C7.67157 8.14551 7 8.81708 7 9.64551ZM5.5 9.64551C5.5 7.98865 6.84315 6.64551 8.5 6.64551H15.5C17.1569 6.64551 18.5 7.98865 18.5 9.64551V14.4788C18.5 16.1357 17.1569 17.4788 15.5 17.4788H8.5C6.84315 17.4788 5.5 16.1357 5.5 14.4788V9.64551ZM12.6124 11.341C11.8147 11.341 11.168 10.6943 11.168 9.89659C11.168 9.09885 11.8147 8.45215 12.6124 8.45215C13.4102 8.45215 14.0569 9.09885 14.0569 9.89659C14.0569 10.6943 13.4102 11.341 12.6124 11.341Z" fill="black"/>
</svg>
