<svg width="24" height="24" viewBox="0 0 24 24" fill="none" xmlns="http://www.w3.org/2000/svg">
<path d="M12 24C18.6274 24 24 18.6274 24 12C24 5.37258 18.6274 0 12 0C5.37258 0 0 5.37258 0 12C0 18.6274 5.37258 24 12 24ZM8.01602 8.15999C8.01602 6.69644 9.20246 5.50999 10.666 5.50999H15.9993C17.4628 5.50999 18.6493 6.69644 18.6493 8.15999V11.8266C18.6493 13.29 17.4632 14.4763 15.9999 14.4766V15.3263C15.9999 16.7071 14.8806 17.8264 13.4999 17.8264H8.5C7.11929 17.8264 6 16.7071 6 15.3264V11.9931C6 10.7779 6.86693 9.7653 8.01602 9.53989V8.15999ZM17.3493 11.8266V11.8096H15.9933C15.9977 11.8702 15.9999 11.9314 15.9999 11.9931V13.1766C16.7452 13.1763 17.3493 12.572 17.3493 11.8266ZM17.3493 10.5096V9.07667H15.9312V10.5096H17.3493ZM17.2941 7.77667C17.1289 7.2178 16.6117 6.80999 15.9993 6.80999H15.9312V7.77667H17.2941ZM14.6313 6.80999H11.9312V9.49308H13.4999C13.9071 9.49308 14.2915 9.59042 14.6313 9.7631V6.80999ZM10.6313 6.81043C10.0341 6.82553 9.53327 7.22841 9.37121 7.77667H10.6313V6.81043ZM9.31602 9.07667V9.49308H10.6313V9.07667H9.31602ZM13.4999 10.7931H8.5C7.83726 10.7931 7.3 11.3303 7.3 11.9931V13.7943L7.77782 13.2254C8.24003 12.7705 8.98175 12.7706 9.44379 13.2257L10.8455 14.6063C11.0843 14.8415 11.4666 14.8446 11.7092 14.6134L12.385 13.9693C12.788 13.5852 13.4229 13.589 13.8213 13.9781L14.6999 14.6654V11.9931C14.6999 11.3303 14.1627 10.7931 13.4999 10.7931ZM12.3594 12.1597C12.3594 12.712 11.9116 13.1597 11.3594 13.1597C10.8071 13.1597 10.3594 12.712 10.3594 12.1597C10.3594 11.6074 10.8071 11.1597 11.3594 11.1597C11.9116 11.1597 12.3594 11.6074 12.3594 12.1597Z" fill="black"/>
</svg>
