<svg width="24" height="24" viewBox="0 0 24 24" fill="none" xmlns="http://www.w3.org/2000/svg">
<path d="M12 24C18.6274 24 24 18.6274 24 12C24 5.37258 18.6274 0 12 0C5.37258 0 0 5.37258 0 12C0 18.6274 5.37258 24 12 24ZM5.46967 6.21967C5.72623 5.96311 6.12244 5.93128 6.41364 6.1242L17.4697 17.1802C17.506 17.2166 17.5451 17.2484 17.5864 17.2757L17.7803 17.4697C18.0732 17.7626 18.0732 18.2374 17.7803 18.5303C17.4874 18.8232 17.0126 18.8232 16.7197 18.5303L15.2754 17.0861C14.8224 17.5431 14.1942 17.8261 13.4999 17.8261H8.5C7.11929 17.8261 6 16.7068 6 15.3261V11.9928C6 10.8603 6.75304 9.90372 7.78572 9.59638L5.46967 7.28033C5.17678 6.98744 5.17678 6.51256 5.46967 6.21967ZM18.6497 11.8264C18.6497 13.0211 17.8592 14.0311 16.7726 14.3619L14.6999 12.2892V11.9928C14.6999 11.3301 14.1627 10.7928 13.4999 10.7928H13.2036L10.1872 7.77644H10.6308V6.81023C10.2479 6.82016 9.9047 6.9895 9.66509 7.25433L8.74526 6.33451C9.22807 5.82649 9.91027 5.50977 10.6664 5.50977H15.9997C17.4633 5.50977 18.6497 6.69621 18.6497 8.15977V11.8264ZM8.98219 10.7928H8.5C7.83726 10.7928 7.3 11.3301 7.3 11.9928V13.7952L7.7788 13.2251C8.241 12.7701 8.98273 12.7703 9.44477 13.2254L10.8465 14.606C11.0852 14.8412 11.4676 14.8443 11.7102 14.6131L12.2694 14.0801L11.3486 13.1593C10.8053 13.1533 10.3659 12.7139 10.3599 12.1706L8.98219 10.7928ZM15.9999 13.1764C16.7454 13.1763 17.3497 12.5719 17.3497 11.8264V11.8093H15.9933C15.9977 11.8699 15.9999 11.9311 15.9999 11.9928V13.1764ZM17.3497 9.07637H15.9308V10.5093H17.3497V9.07637ZM15.9997 6.80977H15.9308V7.77637H17.2945C17.1293 7.21753 16.6121 6.80977 15.9997 6.80977ZM14.6308 9.76262V6.80977H11.9308V9.49285H13.4999C13.9069 9.49285 14.2912 9.5901 14.6308 9.76262Z" fill="black"/>
</svg>
