<svg width="24" height="24" viewBox="0 0 24 24" fill="none" xmlns="http://www.w3.org/2000/svg">
<path d="M24 12C24 5.37258 18.6274 0 12 0C5.37258 0 0 5.37258 0 12C0 18.6274 5.37258 24 12 24C18.6274 24 24 18.6274 24 12ZM7.17515 8.9858L5.46968 7.28033C5.17678 6.98744 5.17678 6.51256 5.46968 6.21967C5.76257 5.92678 6.23744 5.92678 6.53034 6.21967L17.7803 17.4697C18.0732 17.7626 18.0732 18.2374 17.7803 18.5303C17.4874 18.8232 17.0126 18.8232 16.7197 18.5303L14.1268 15.9375H9.67511C8.29439 15.9375 7.17511 14.8182 7.17511 13.4375V9.0001C7.17511 8.99533 7.17512 8.99056 7.17515 8.9858ZM8.47511 10.2858V11.5791L9.1269 10.9376L8.47511 10.2858ZM13.0409 10.6302L12.1128 9.70215L12.1127 9.68582C12.1127 9.16418 12.5356 8.74131 13.0572 8.74131C13.5788 8.74131 14.0017 9.16418 14.0017 9.68582C14.0017 10.2075 13.5788 10.6303 13.0572 10.6303L13.0409 10.6302ZM14.2569 11.8463L14.4171 11.6936C14.8725 11.2596 15.5897 11.264 16.0397 11.7035L17.1999 12.6684V9.0001C17.1999 8.33736 16.6627 7.8001 15.9999 7.8001H10.2108L9.00233 6.59166C9.21639 6.532 9.44202 6.5001 9.67511 6.5001H15.9999C17.3806 6.5001 18.4999 7.61939 18.4999 9.0001V13.4375C18.4999 14.1664 18.1879 14.8225 17.6902 15.2795L14.2569 11.8463ZM5.50001 9.88437C5.85899 9.88437 6.15001 10.1754 6.15001 10.5344V14.8011C6.15001 16.099 7.20214 17.1511 8.5 17.1511H12.7668C13.1258 17.1511 13.4168 17.4422 13.4168 17.8011C13.4168 18.1601 13.1258 18.4511 12.7668 18.4511H8.5C6.48416 18.4511 4.85001 16.817 4.85001 14.8011V10.5344C4.85001 10.1754 5.14102 9.88437 5.50001 9.88437Z" fill="black"/>
</svg>
