<svg width="24" height="24" viewBox="0 0 24 24" fill="none" xmlns="http://www.w3.org/2000/svg">
<path d="M12 24C18.6274 24 24 18.6274 24 12C24 5.37258 18.6274 0 12 0C5.37258 0 0 5.37258 0 12C0 18.6274 5.37258 24 12 24ZM6 6H18C18.4142 6 18.75 6.33579 18.75 6.75C18.75 7.16421 18.4142 7.5 18 7.5H6C5.58579 7.5 5.25 7.16421 5.25 6.75C5.25 6.33579 5.58579 6 6 6ZM10.584 10.25C10.584 9.83579 10.9198 9.5 11.334 9.5H18.0007C18.4149 9.5 18.7507 9.83579 18.7507 10.25C18.7507 10.6642 18.4149 11 18.0007 11H11.334C10.9198 11 10.584 10.6642 10.584 10.25ZM11.334 13H18.0007C18.4149 13 18.7507 13.3358 18.7507 13.75C18.7507 14.1642 18.4149 14.5 18.0007 14.5H11.334C10.9198 14.5 10.584 14.1642 10.584 13.75C10.584 13.3358 10.9198 13 11.334 13ZM5.25 17.25C5.25 16.8358 5.58579 16.5 6 16.5H18C18.4142 16.5 18.75 16.8358 18.75 17.25C18.75 17.6642 18.4142 18 18 18H6C5.58579 18 5.25 17.6642 5.25 17.25ZM6 10.1369C6 9.70975 6.50106 9.47929 6.8254 9.75729L9.0571 11.6702C9.28991 11.8697 9.28991 12.2299 9.0571 12.4294L6.8254 14.3423C6.50106 14.6203 6 14.3899 6 13.9627V10.1369Z" fill="black"/>
</svg>
