<svg width="24" height="24" viewBox="0 0 24 24" fill="none" xmlns="http://www.w3.org/2000/svg">
<path d="M12 0C18.6274 0 24 5.37258 24 12C24 18.6274 18.6274 24 12 24C5.37258 24 0 18.6274 0 12C0 5.37258 5.37258 0 12 0ZM10 10.8888C10 11.3858 10.4029 11.7888 10.9 11.7888H11.2222V16.0999H11.2056C10.7085 16.0999 10.3056 16.5028 10.3056 16.9999C10.3056 17.4969 10.7085 17.8999 11.2056 17.8999H13.0389C13.5359 17.8999 13.9389 17.4969 13.9389 16.9999C13.9389 16.5028 13.5359 16.0999 13.0389 16.0999H13.0222V10.8888C13.0222 10.3917 12.6193 9.98878 12.1222 9.98878H10.9C10.4029 9.98878 10 10.3917 10 10.8888ZM11.8131 6.00001C11.1384 6.00001 10.5908 6.54756 10.5957 7.22223C10.5957 7.8969 11.1433 8.44445 11.818 8.44445C12.4926 8.44445 13.0402 7.8969 13.0402 7.22223C13.0402 6.54756 12.4926 6.00001 11.8131 6.00001Z" fill="black"/>
</svg>
