<svg width="24" height="24" viewBox="0 0 24 24" fill="none" xmlns="http://www.w3.org/2000/svg">
<path d="M12 24C18.6274 24 24 18.6274 24 12C24 5.37258 18.6274 0 12 0C5.37258 0 0 5.37258 0 12C0 18.6274 5.37258 24 12 24ZM10.1494 5.90039H17.5893C18.1029 5.90039 18.5192 6.31674 18.5192 6.83034C18.5192 7.34393 18.1029 7.76028 17.5893 7.76028H14.8101L11.2318 16.1305H13.8698C14.3834 16.1305 14.7997 16.5469 14.7997 17.0604C14.7997 17.574 14.3834 17.9904 13.8698 17.9904H6.42995C5.91635 17.9904 5.5 17.574 5.5 17.0604C5.5 16.5469 5.91635 16.1305 6.42995 16.1305H9.20913L12.7874 7.76028H10.1494C9.63585 7.76028 9.2195 7.34393 9.2195 6.83034C9.2195 6.31674 9.63585 5.90039 10.1494 5.90039Z" fill="black"/>
</svg>
