<svg width="24" height="24" viewBox="0 0 24 24" fill="none" xmlns="http://www.w3.org/2000/svg">
<path d="M10.298 11.9033C10.298 11.2763 9.78972 10.7681 9.16272 10.7681C8.53572 10.7681 8.02743 11.2763 8.02743 11.9033C8.02743 12.5303 8.53572 13.0386 9.16272 13.0386C9.78972 13.0386 10.298 12.5303 10.298 11.9033Z" fill="black"/>
<path d="M12 0C5.37258 0 0 5.37258 0 12C0 18.6274 5.37258 24 12 24C18.6274 24 24 18.6274 24 12C24 5.37258 18.6274 0 12 0ZM6.83577 6.10007C6.84468 6.11067 6.85405 6.12103 6.86387 6.13112L17.3653 16.9163C17.3916 16.9434 17.42 16.9673 17.4499 16.9879C17.6397 17.2135 17.6257 17.5507 17.4111 17.7596C17.1865 17.9783 16.8271 17.9735 16.6084 17.7489L12.7729 13.8097C12.0783 15.1114 10.7068 15.9973 9.12832 15.9973C6.84831 15.9973 5 14.149 5 11.8689C5 10.2513 5.93044 8.8509 7.28535 8.17382L6.10702 6.96364C5.88831 6.73903 5.8931 6.37965 6.11772 6.16094C6.31528 5.96858 6.61711 5.94912 6.83577 6.10007ZM14.9072 12.7644V12.4366H14.588L13.5523 11.3729L9.7682 7.58948C11.6553 8.07161 13.121 9.50437 13.5364 11.3013H14.9072V11.298H18.2098V11.3013H18.6228C18.9363 11.3013 19.1904 11.5555 19.1904 11.869C19.1904 12.1825 18.9363 12.4366 18.6228 12.4366H18.2098V14.002C18.2098 14.42 17.871 14.7588 17.453 14.7588H16.8491L14.9072 12.7644Z" fill="black"/>
</svg>
