<svg width="24" height="24" viewBox="0 0 24 24" fill="none" xmlns="http://www.w3.org/2000/svg">
<path d="M12 0C5.37258 0 0 5.37258 0 12C0 18.6274 5.37258 24 12 24C18.6274 24 24 18.6274 24 12C24 5.37258 18.6274 0 12 0ZM9.24242 16.4848C6.8994 16.4848 5 14.5855 5 12.2424C5 9.8994 6.8994 8 9.24242 8C11.3133 8 13.0375 9.48371 13.4102 11.4461C13.4346 11.4438 13.4594 11.4427 13.4844 11.4427H18.9995C19.4414 11.4427 19.7995 11.8008 19.7995 12.2427C19.7995 12.6845 19.4414 13.0427 18.9995 13.0427H18.5756V14.2123C18.5756 14.7645 18.1279 15.2123 17.5756 15.2123H16.1816C15.6294 15.2123 15.1816 14.7645 15.1816 14.2123V13.0427H13.4844C13.4593 13.0427 13.4346 13.0415 13.4101 13.0393C13.0372 15.0014 11.3131 16.4848 9.24242 16.4848ZM9.27799 13.4447C9.92233 13.4447 10.4447 12.9223 10.4447 12.278C10.4447 11.6337 9.92233 11.1113 9.27799 11.1113C8.63366 11.1113 8.11133 11.6337 8.11133 12.278C8.11133 12.9223 8.63366 13.4447 9.27799 13.4447Z" fill="black"/>
</svg>
