<svg width="24" height="24" viewBox="0 0 24 24" fill="none" xmlns="http://www.w3.org/2000/svg">
<path d="M12 24C18.6274 24 24 18.6274 24 12C24 5.37258 18.6274 0 12 0C5.37258 0 0 5.37258 0 12C0 18.6274 5.37258 24 12 24ZM16.4508 13.6989H7.55078V8.40997C7.55078 8.13383 7.77464 7.90997 8.05078 7.90997H15.9508C16.2269 7.90997 16.4508 8.13383 16.4508 8.40997V13.6989ZM6.05078 13.7V8.40997C6.05078 7.3054 6.94621 6.40997 8.05078 6.40997H15.9508C17.0553 6.40997 17.9508 7.3054 17.9508 8.40997V13.7H18.7C18.8657 13.7 19 13.8343 19 14V15.5889C19 16.6935 18.1046 17.5889 17 17.5889H7C5.89543 17.5889 5 16.6935 5 15.5889V14C5 13.8343 5.13431 13.7 5.3 13.7H6.05078ZM17.5 15.5889V15.2H14.2435C14.1739 15.3924 13.9896 15.5299 13.7732 15.5299H10.2266C10.0101 15.5299 9.82584 15.3924 9.75624 15.2H6.5V15.5889C6.5 15.865 6.72386 16.0889 7 16.0889H17C17.2761 16.0889 17.5 15.865 17.5 15.5889Z" fill="black"/>
</svg>
