<svg width="24" height="24" viewBox="0 0 24 24" fill="none" xmlns="http://www.w3.org/2000/svg">
<path d="M12 24C18.6274 24 24 18.6274 24 12C24 5.37258 18.6274 0 12 0C5.37258 0 0 5.37258 0 12C0 18.6274 5.37258 24 12 24ZM11.7586 6.58274C11.9087 6.50021 12.0905 6.50021 12.2406 6.58274L17.203 9.3121C17.5484 9.50206 17.5484 9.99835 17.203 10.1883L12.2405 12.9177C12.0905 13.0002 11.9087 13.0002 11.7586 12.9177L6.79615 10.1883C6.45076 9.99835 6.45076 9.50206 6.79615 9.3121L11.7586 6.58274ZM6.01798 14.5599C6.17853 14.2388 6.56896 14.1087 6.89005 14.2692L11.9994 16.8239L17.1087 14.2692C17.4298 14.1087 17.8202 14.2388 17.9807 14.5599C18.1413 14.881 18.0111 15.2714 17.6901 15.432L12.2901 18.132C12.1071 18.2235 11.8917 18.2235 11.7087 18.132L6.30867 15.432C5.98759 15.2714 5.85744 14.881 6.01798 14.5599ZM6.89005 11.6686L11.9994 14.2233L17.1087 11.6686C17.4298 11.5081 17.8202 11.6383 17.9807 11.9593C18.1413 12.2804 18.0111 12.6709 17.6901 12.8314L12.2901 15.5314C12.1071 15.6229 11.8917 15.6229 11.7087 15.5314L6.30867 12.8314C5.98759 12.6709 5.85744 12.2804 6.01798 11.9593C6.17853 11.6383 6.56896 11.5081 6.89005 11.6686Z" fill="black"/>
</svg>
