<svg width="24" height="24" viewBox="0 0 24 24" fill="none" xmlns="http://www.w3.org/2000/svg">
<path d="M12 0C5.37258 0 0 5.37258 0 12C0 18.6274 5.37258 24 12 24C18.6274 24 24 18.6274 24 12C24 5.37258 18.6274 0 12 0ZM14.5748 16.6785L8.17483 12.6785C7.94092 12.5323 7.79883 12.2759 7.79883 12.0001C7.79883 11.7242 7.94092 11.4679 8.17483 11.3217L14.5748 7.32166C14.9495 7.08749 15.4431 7.20139 15.6772 7.57606C15.9114 7.95073 15.7975 8.44429 15.4228 8.67846L10.1083 12.0001L15.4228 15.3217C15.7975 15.5558 15.9114 16.0494 15.6772 16.4241C15.4431 16.7987 14.9495 16.9126 14.5748 16.6785Z" fill="black"/>
</svg>
