<svg width="24" height="24" viewBox="0 0 24 24" fill="none" xmlns="http://www.w3.org/2000/svg">
<path d="M0 12C0 18.6274 5.37258 24 12 24C18.6274 24 24 18.6274 24 12C24 5.37258 18.6274 0 12 0C5.37258 0 0 5.37258 0 12ZM15.6914 17C15.6914 17.4419 15.3332 17.8 14.8914 17.8H9.17712C8.73529 17.8 8.37712 17.4419 8.37712 17C8.37712 16.5582 8.73529 16.2 9.17712 16.2H14.8914C15.3332 16.2 15.6914 16.5582 15.6914 17ZM14.4673 14.8215L8.75301 11.2501C8.51911 11.1039 8.37701 10.8475 8.37701 10.5717C8.37701 10.2959 8.51911 10.0395 8.75301 9.89329L14.4673 6.32186C14.842 6.08769 15.3355 6.20159 15.5697 6.57626C15.8039 6.95093 15.69 7.44449 15.3153 7.67866L10.6865 10.5717L15.3153 13.4647C15.69 13.6989 15.8039 14.1924 15.5697 14.5671C15.3355 14.9418 14.842 15.0557 14.4673 14.8215Z" fill="black"/>
</svg>
