<svg width="24" height="24" viewBox="0 0 24 24" fill="none" xmlns="http://www.w3.org/2000/svg">
<path d="M12 0C5.37258 0 0 5.37258 0 12C0 18.6274 5.37258 24 12 24C18.6274 24 24 18.6274 24 12C24 5.37258 18.6274 0 12 0ZM15.0359 7.24651C15.8091 8.01971 16.2824 9.09184 16.2824 10.2857C16.2824 11.7858 15.4444 13.1428 14.2252 13.9223V15.4429C14.2252 15.719 14.0014 15.9429 13.7252 15.9429H10.2681C9.99194 15.9429 9.76808 15.719 9.76808 15.4429V13.908C8.54232 13.2072 7.71094 11.8494 7.71094 10.2857C7.71094 9.09184 8.18425 8.01971 8.95745 7.24651C9.73065 6.47331 10.8028 6 11.9967 6C13.1905 6 14.2627 6.47331 15.0359 7.24651ZM10.1113 17.4998V16.6284H13.8828V17.4998C13.8828 17.776 13.6589 17.9998 13.3828 17.9998H10.6113C10.3352 17.9998 10.1113 17.776 10.1113 17.4998Z" fill="black"/>
</svg>
