<svg width="24" height="24" viewBox="0 0 24 24" fill="none" xmlns="http://www.w3.org/2000/svg">
<path d="M0 12C0 18.6274 5.37258 24 12 24C18.6274 24 24 18.6274 24 12C24 5.37258 18.6274 0 12 0C5.37258 0 0 5.37258 0 12ZM12.2573 6.70092C13.6564 5.34965 15.8803 5.36898 17.2557 6.74436C18.631 8.11973 18.6504 10.3436 17.2991 11.7427L17.2894 11.7527L15.6301 13.4119C14.8987 14.1435 13.8855 14.5215 12.8536 14.4476C11.8217 14.3737 10.8728 13.8552 10.2531 13.0268C9.98849 12.673 10.0608 12.1716 10.4146 11.907C10.7684 11.6424 11.2697 11.7146 11.5344 12.0684C11.876 12.5251 12.3991 12.8109 12.9679 12.8517C13.5368 12.8924 14.0953 12.6841 14.4985 12.2807L16.1526 10.6266C16.8931 9.85505 16.881 8.63243 16.1243 7.87573C15.3673 7.11877 14.1442 7.10691 13.3727 7.84811L12.4257 8.78953C12.1124 9.10103 11.6059 9.09956 11.2944 8.78623C10.9829 8.4729 10.9844 7.96637 11.2977 7.65486L12.2573 6.70092ZM11.1456 9.54116C12.1775 9.61506 13.1264 10.1335 13.7461 10.9619C14.0107 11.3157 13.9385 11.8171 13.5847 12.0817C13.2309 12.3464 12.7295 12.2741 12.4649 11.9203C12.1233 11.4636 11.6001 11.1778 11.0313 11.1371C10.4624 11.0963 9.90392 11.3047 9.50072 11.708L7.84658 13.3622C7.10612 14.1337 7.11823 15.3563 7.87493 16.113C8.63163 16.8697 9.85424 16.8818 10.6258 16.1414L11.5663 15.2009C11.8787 14.8884 12.3852 14.8884 12.6977 15.2009C13.0101 15.5133 13.0101 16.0198 12.6977 16.3322L11.742 17.2879C10.3429 18.6392 8.11894 18.6198 6.74356 17.2444C5.36819 15.869 5.34886 13.6451 6.70013 12.246L6.70979 12.236L8.36924 10.5768C9.10064 9.84515 10.1137 9.46726 11.1456 9.54116Z" fill="black"/>
</svg>
