<svg width="24" height="24" viewBox="0 0 24 24" fill="none" xmlns="http://www.w3.org/2000/svg">
<path d="M12 0C5.37258 0 0 5.37258 0 12C0 18.6274 5.37258 24 12 24C18.6274 24 24 18.6274 24 12C24 5.37258 18.6274 0 12 0ZM17.4147 7.25012L12.8465 17.0075C12.6647 17.3957 12.1108 17.3902 11.9367 16.9986L10.4963 13.7576C10.446 13.6444 10.3556 13.554 10.2424 13.5037L7.00141 12.0633C6.60975 11.8892 6.60431 11.3353 6.99248 11.1535L16.7499 6.58528C17.1733 6.38703 17.613 6.82666 17.4147 7.25012Z" fill="black"/>
</svg>
