<svg width="24" height="24" viewBox="0 0 24 24" fill="none" xmlns="http://www.w3.org/2000/svg">
<path d="M12 0C5.37258 0 0 5.37258 0 12C0 18.6274 5.37258 24 12 24C18.6274 24 24 18.6274 24 12C24 5.37258 18.6274 0 12 0ZM8.91952 8.00735C8.91952 6.53979 10.1092 5.3501 11.5768 5.3501H11.9965C13.6959 5.3501 15.0735 6.72772 15.0735 8.4271V9.88844L15.0735 9.88926H15.0857C16.3638 9.88926 17.4 10.8796 17.4 12.1013V15.7881C17.4 17.0098 16.3638 18.0002 15.0857 18.0002H8.91426C7.63612 18.0002 6.59998 17.0098 6.59998 15.7881V12.1013C6.59998 10.8796 7.63612 9.88926 8.91426 9.88926H13.7735V9.88844V8.4271C13.7735 7.44569 12.9779 6.6501 11.9965 6.6501H11.5768C10.8272 6.6501 10.2195 7.25776 10.2195 8.00735C10.2195 8.36634 9.9285 8.65735 9.56952 8.65735C9.21053 8.65735 8.91952 8.36634 8.91952 8.00735Z" fill="black"/>
</svg>
