<svg width="24" height="24" viewBox="0 0 24 24" fill="none" xmlns="http://www.w3.org/2000/svg">
<path d="M12 0C5.37258 0 0 5.37258 0 12C0 18.6274 5.37258 24 12 24C18.6274 24 24 18.6274 24 12C24 5.37258 18.6274 0 12 0ZM8.94922 6.63106V15.7773L6.41906 16.945C5.75644 17.2509 5 16.7669 5 16.0371V8.83679C5 8.42302 5.25483 8.05198 5.64102 7.90345L8.94922 6.63106ZM10.1492 15.7397V6.59973L14.1992 7.94973V17.3597L10.1492 15.7397ZM18.4472 15.7764L15.3992 17.3004V7.90032L17.6154 6.97691C18.2741 6.70246 19 7.18641 19 7.89999V14.882C19 15.2607 18.786 15.607 18.4472 15.7764Z" fill="black"/>
</svg>
