<svg width="24" height="24" viewBox="0 0 24 24" fill="none" xmlns="http://www.w3.org/2000/svg">
<path d="M12 24C18.6274 24 24 18.6274 24 12C24 5.37258 18.6274 0 12 0C5.37258 0 0 5.37258 0 12C0 18.6274 5.37258 24 12 24ZM5 7.78027C5 6.6757 5.89543 5.78027 7 5.78027H17C18.1046 5.78027 19 6.6757 19 7.78027V16.2247C19 17.3293 18.1046 18.2247 17 18.2247H7C5.89543 18.2247 5 17.3293 5 16.2247V7.78027ZM6.55554 8.12461V9.65794C6.55554 9.87886 6.73463 10.0579 6.95554 10.0579H17.0444C17.2653 10.0579 17.4444 9.87886 17.4444 9.65794V8.12461C17.4444 7.9037 17.2653 7.72461 17.0444 7.72461H6.95554C6.73463 7.72461 6.55554 7.9037 6.55554 8.12461Z" fill="black"/>
</svg>
