<svg width="24" height="24" viewBox="0 0 24 24" fill="none" xmlns="http://www.w3.org/2000/svg">
<path d="M12 0C5.37258 0 0 5.37258 0 12C0 18.6274 5.37258 24 12 24C18.6274 24 24 18.6274 24 12C24 5.37258 18.6274 0 12 0ZM5 8.55005C5 7.44548 5.89543 6.55005 7 6.55005H17C18.1046 6.55005 19 7.44548 19 8.55005V15.4389C19 16.5435 18.1046 17.4389 17 17.4389H7C5.89543 17.4389 5 16.5435 5 15.4389V8.55005ZM9.09675 10.0468L8.72226 10.8445C8.69394 10.9049 8.63745 10.9471 8.57159 10.9572L7.7178 11.0885C7.55695 11.1132 7.49139 11.3094 7.60509 11.4259L8.23502 12.071C8.27939 12.1165 8.29954 12.1803 8.28931 12.2429L8.14244 13.1434C8.11556 13.3082 8.2905 13.4314 8.43661 13.3506L9.18101 12.939C9.24123 12.9057 9.31435 12.9057 9.37458 12.939L10.119 13.3506C10.2651 13.4314 10.44 13.3082 10.4131 13.1434L10.2663 12.2429C10.256 12.1803 10.2762 12.1165 10.3206 12.071L10.9505 11.4259C11.0642 11.3094 10.9986 11.1132 10.8378 11.0885L9.98399 10.9572C9.91813 10.9471 9.86164 10.9049 9.83333 10.8445L9.45884 10.0468C9.38685 9.89342 9.16873 9.89342 9.09675 10.0468ZM12.9265 10.5668C12.5675 10.5668 12.2765 10.8578 12.2765 11.2168C12.2765 11.5758 12.5675 11.8668 12.9265 11.8668H16.0376C16.3966 11.8668 16.6876 11.5758 16.6876 11.2168C16.6876 10.8578 16.3966 10.5668 16.0376 10.5668H12.9265ZM12.2765 13.55C12.2765 13.909 12.5675 14.2 12.9265 14.2H14.482C14.841 14.2 15.132 13.909 15.132 13.55C15.132 13.191 14.841 12.9 14.482 12.9H12.9265C12.5675 12.9 12.2765 13.191 12.2765 13.55Z" fill="black"/>
</svg>
