<svg width="24" height="24" viewBox="0 0 24 24" fill="none" xmlns="http://www.w3.org/2000/svg">
<path d="M-1.89268e-09 12C-2.93798e-09 18.6274 5.37258 24 12 24C18.6274 24 24 18.6274 24 12C24 5.37258 18.6274 2.93798e-09 12 1.89268e-09C5.37258 8.47383e-10 -8.47383e-10 5.37258 -1.89268e-09 12ZM14.3518 8.22584L16.8205 5.78651C17.1348 5.47597 17.6413 5.479 17.9519 5.79328C18.2624 6.10756 18.2594 6.61409 17.9451 6.92463L15.4832 9.35723L16.7965 10.6705C16.9855 10.8595 16.8516 11.1826 16.5843 11.1826L12.916 11.1826C12.7503 11.1826 12.616 11.0483 12.616 10.8826L12.616 7.21425C12.616 6.94697 12.9391 6.81313 13.1281 7.00211L14.3518 8.22584ZM9.60081 15.4797C9.5915 15.49 9.58187 15.5 9.57193 15.5099L7.13859 17.9236C6.8249 18.2347 6.31837 18.2327 6.00722 17.919C5.69607 17.6053 5.69812 17.0988 6.01181 16.7876L8.44516 14.3739C8.45354 14.3656 8.46207 14.3575 8.47073 14.3496L7.16155 13.0405C6.97256 12.8515 7.10641 12.5283 7.37368 12.5283L11.042 12.5283C11.2077 12.5283 11.342 12.6626 11.342 12.8283L11.342 16.4967C11.342 16.764 11.0189 16.8978 10.8299 16.7088L9.60081 15.4797Z" fill="black"/>
</svg>
