<svg width="24" height="24" viewBox="0 0 24 24" fill="none" xmlns="http://www.w3.org/2000/svg">
<path d="M0 12C0 18.6274 5.37258 24 12 24C18.6274 24 24 18.6274 24 12C24 5.37258 18.6274 0 12 0C5.37258 0 0 5.37258 0 12ZM9.91016 8.275C9.91016 7.15662 10.8168 6.25 11.9352 6.25C13.0535 6.25 13.9602 7.15662 13.9602 8.275V11.435C13.9602 12.5534 13.0535 13.46 11.9352 13.46C10.8168 13.46 9.91016 12.5534 9.91016 11.435V8.275ZM8.86055 10.8027V11.4343C8.86055 13.1682 10.2661 14.5738 12 14.5738C13.7339 14.5738 15.1395 13.1682 15.1395 11.4343V10.8027C15.1395 10.4437 15.4305 10.1527 15.7895 10.1527C16.1485 10.1527 16.4395 10.4437 16.4395 10.8027V11.4343C16.4395 13.6655 14.7935 15.5123 12.6496 15.8266V17.1H14.5269C14.8858 17.1 15.1769 17.391 15.1769 17.75C15.1769 18.109 14.8858 18.4 14.5269 18.4H9.47422C9.11523 18.4 8.82422 18.109 8.82422 17.75C8.82422 17.391 9.11523 17.1 9.47422 17.1H11.3496V15.8265C9.20608 15.5118 7.56055 13.6652 7.56055 11.4343V10.8027C7.56055 10.4437 7.85156 10.1527 8.21055 10.1527C8.56953 10.1527 8.86055 10.4437 8.86055 10.8027Z" fill="black"/>
</svg>
