<svg width="24" height="24" viewBox="0 0 24 24" fill="none" xmlns="http://www.w3.org/2000/svg">
<path d="M12 0C5.37258 0 0 5.37258 0 12C0 18.6274 5.37258 24 12 24C18.6274 24 24 18.6274 24 12C24 5.37258 18.6274 0 12 0ZM11.1026 6.85459C10.9894 7.26863 10.9234 7.70282 10.9234 8.15285C10.9234 9.51245 11.4745 10.7433 12.3654 11.6343C13.2564 12.5252 14.4873 13.0763 15.8469 13.0763C16.2969 13.0763 16.7311 13.0103 17.1451 12.8971C17.5314 12.7915 17.9407 13.0903 17.8412 13.4782C17.8334 13.5085 17.8254 13.5387 17.8171 13.569C17.4643 14.8601 16.6941 15.979 15.6598 16.7692C14.6497 17.541 13.388 17.9997 12.0175 17.9997C10.3558 17.9997 8.85141 17.3262 7.76246 16.2373C6.67352 15.1483 6 13.6439 6 11.9822C6 10.6117 6.45877 9.34975 7.23061 8.33953C8.02087 7.3052 9.13976 6.53509 10.4309 6.18255C10.4611 6.17428 10.4915 6.16626 10.5218 6.15849C10.9096 6.05912 11.2082 6.46848 11.1026 6.85459Z" fill="black"/>
</svg>
