<svg width="24" height="24" viewBox="0 0 24 24" fill="none" xmlns="http://www.w3.org/2000/svg">
<path d="M12 24C18.6274 24 24 18.6274 24 12C24 5.37258 18.6274 0 12 0C5.37258 0 0 5.37258 0 12C0 18.6274 5.37258 24 12 24ZM9.42332 7.3216L15.8233 11.3216C16.0572 11.4678 16.1993 11.7242 16.1993 12C16.1993 12.2758 16.0572 12.5322 15.8233 12.6784L9.42333 16.6784C9.04866 16.9126 8.5551 16.7987 8.32093 16.424C8.08676 16.0493 8.20066 15.5558 8.57533 15.3216L13.8899 12L8.57533 8.6784C8.20066 8.44423 8.08676 7.95067 8.32093 7.576C8.5551 7.20133 9.04866 7.08743 9.42332 7.3216Z" fill="black"/>
</svg>
