<svg width="24" height="24" viewBox="0 0 24 24" fill="none" xmlns="http://www.w3.org/2000/svg">
<path d="M24 12C24 5.37258 18.6274 0 12 0C5.37258 0 0 5.37258 0 12C0 18.6274 5.37258 24 12 24C18.6274 24 24 18.6274 24 12ZM17.4359 8.04322C17.4359 8.09256 17.4299 8.14051 17.4187 8.18639C17.4099 8.41011 17.2719 8.61841 17.0504 8.70606L12.335 9.91416V16.1444C12.335 16.1877 12.3305 16.23 12.3217 16.2707C12.3396 16.9743 12.08 17.6835 11.5431 18.2205C10.5038 19.2598 8.81878 19.2598 7.77948 18.2205C6.74017 17.1812 6.74017 15.4961 7.77948 14.4568C8.69163 13.5447 10.1012 13.4331 11.135 14.1221V7.43576C11.135 6.81915 11.5155 6.2652 12.0938 6.04613C12.1313 6.0319 12.1702 6.02149 12.2098 6.01503L15.4835 5.48128C16.4388 5.16424 17.4359 5.87556 17.4359 6.89338V8.04322Z" fill="black"/>
</svg>
