<svg width="24" height="24" viewBox="0 0 24 24" fill="none" xmlns="http://www.w3.org/2000/svg">
<path d="M12 0C5.37258 0 0 5.37258 0 12C0 18.6274 5.37258 24 12 24C18.6274 24 24 18.6274 24 12C24 5.37258 18.6274 0 12 0ZM17.4376 14.3324C17.4934 14.9287 17.293 15.5444 16.8365 16.0009C16.0229 16.8145 14.7038 16.8145 13.8902 16.0009C13.0766 15.1873 13.0766 13.8682 13.8902 13.0547C14.525 12.4199 15.4675 12.2804 16.2376 12.6361V9.28703L10.1459 11.7237V15.6224C10.2348 16.2488 10.0383 16.908 9.55648 17.3899C8.74288 18.2034 7.42379 18.2034 6.6102 17.3899C5.7966 16.5763 5.7966 15.2572 6.6102 14.4436C7.24179 13.812 8.17801 13.6707 8.9459 14.0197V8.9472C8.9459 8.41074 9.27682 7.92861 9.77999 7.73772L15.682 5.48941C16.5301 5.16598 17.4376 5.79282 17.4376 6.69858V14.3324Z" fill="black"/>
</svg>
