<svg width="24" height="24" viewBox="0 0 24 24" fill="none" xmlns="http://www.w3.org/2000/svg">
<path d="M12 0C5.37258 0 0 5.37258 0 12C0 18.6274 5.37258 24 12 24C18.6274 24 24 18.6274 24 12C24 5.37258 18.6274 0 12 0ZM8.97388 5H12H15.0261C15.3261 5 15.6101 5.13463 15.8001 5.36676L18.774 9.0015C18.9201 9.18017 19 9.4039 19 9.63474V12V14.3653C19 14.5961 18.9201 14.8198 18.774 14.9985L15.8001 18.6332C15.6101 18.8654 15.3261 19 15.0261 19H12H8.97388C8.67395 19 8.38985 18.8654 8.19992 18.6332L5.22604 14.9985C5.07986 14.8198 5 14.5961 5 14.3653V12V9.63474C5 9.4039 5.07986 9.18017 5.22604 9.0015L8.19992 5.36676C8.38985 5.13463 8.67395 5 8.97388 5Z" fill="black"/>
</svg>
