<svg width="24" height="24" viewBox="0 0 24 24" fill="none" xmlns="http://www.w3.org/2000/svg">
<path d="M12 0C5.37258 0 0 5.37258 0 12C0 18.6274 5.37258 24 12 24C18.6274 24 24 18.6274 24 12C24 5.37258 18.6274 0 12 0ZM12.7676 5.13569L17.7389 7.73328L15.6251 8.83211L10.1015 5.95078L11.6614 5.13569C12.0098 4.95477 12.4192 4.95477 12.7676 5.13569ZM12.8645 11.7323L18.4278 8.84031C18.4286 8.85878 18.429 8.87732 18.429 8.89592V15.085C18.4287 15.5779 18.1616 16.0282 17.7392 16.2475L12.8645 18.7946V11.7323ZM11.5645 11.7323V18.7978L6.68365 16.2475C6.26168 16.0253 5.99677 15.5723 6.00003 15.0785V8.89592C6.00004 8.87734 6.00043 8.85882 6.00119 8.84037L11.5645 11.7323ZM12.2145 10.605L6.69008 7.73332L8.70846 6.67868C8.73874 6.70214 8.77151 6.72324 8.80666 6.74157L14.2172 9.56395L12.2145 10.605Z" fill="black"/>
</svg>
