<svg width="24" height="24" viewBox="0 0 24 24" fill="none" xmlns="http://www.w3.org/2000/svg">
<path d="M12 24C18.6274 24 24 18.6274 24 12C24 5.37258 18.6274 0 12 0C5.37258 0 0 5.37258 0 12C0 18.6274 5.37258 24 12 24ZM17.2743 5.95539C17.7554 5.77677 18.2242 6.24552 18.0456 6.72669L13.7677 18.2503C13.5877 18.7352 12.9196 18.7804 12.676 18.3241L10.5791 14.3971L14.4405 10.5358C14.6943 10.282 14.6943 9.87043 14.4405 9.61659C14.1866 9.36275 13.7751 9.36275 13.5212 9.61659L9.67694 13.4609L5.67681 11.325C5.22056 11.0814 5.26572 10.4132 5.75061 10.2332L17.2743 5.95539Z" fill="black"/>
</svg>
