<svg width="24" height="24" viewBox="0 0 24 24" fill="none" xmlns="http://www.w3.org/2000/svg">
<path d="M12 24C18.6274 24 24 18.6274 24 12C24 5.37258 18.6274 0 12 0C5.37258 0 0 5.37259 0 12C0 18.6274 5.37258 24 12 24ZM6.23047 8C6.23047 6.89543 7.1259 6 8.23047 6H13.4711C14.5757 6 15.4711 6.89543 15.4711 8V8.9332H11.977C10.8172 8.9332 9.87695 9.8734 9.87695 11.0332V16.3958H8.23047C7.1259 16.3958 6.23047 15.5003 6.23047 14.3958V8ZM11.0241 17.1987C11.058 17.1235 11.077 17.04 11.077 16.9521V11.0332C11.077 10.5361 11.4799 10.1332 11.977 10.1332H17.0631C17.4943 10.3967 17.7821 10.8718 17.7821 11.4141V16.4996C17.7821 17.3281 17.1105 17.9996 16.2821 17.9996H12.3516C11.7756 17.9996 11.2754 17.675 11.0241 17.1987ZM8.60742 7.54687C8.60742 7.87824 8.87605 8.14687 9.20742 8.14687H12.4944C12.8258 8.14687 13.0944 7.87824 13.0944 7.54687C13.0944 7.2155 12.8258 6.94687 12.4944 6.94687H9.20742C8.87605 6.94687 8.60742 7.2155 8.60742 7.54687ZM12.7441 11.5C12.7441 11.8314 13.0128 12.1 13.3441 12.1H15.3441C15.6755 12.1 15.9441 11.8314 15.9441 11.5C15.9441 11.1686 15.6755 10.9 15.3441 10.9H13.3441C13.0128 10.9 12.7441 11.1686 12.7441 11.5Z" fill="black"/>
</svg>
