<svg width="24" height="24" viewBox="0 0 24 24" fill="none" xmlns="http://www.w3.org/2000/svg">
<path d="M12 0C5.37258 0 0 5.37258 0 12C0 18.6274 5.37258 24 12 24C18.6274 24 24 18.6274 24 12C24 5.37258 18.6274 0 12 0ZM10.3216 16.936C10.1835 17.0747 10.0076 17.1699 9.81581 17.2096L6.75406 17.8436C6.39953 17.9171 6.08693 17.601 6.16419 17.2473L6.89553 13.8993L12.3298 8.44167L15.5584 11.6702L15.5617 11.6735L10.3216 16.936ZM17.0777 10.1509L16.4084 10.8231L16.4069 10.8217L13.1765 7.59132L13.842 6.92302C14.3493 6.41348 15.174 6.41259 15.6824 6.92104L17.0758 8.31439C17.5827 8.8213 17.5836 9.6429 17.0777 10.1509Z" fill="black"/>
</svg>
