<svg width="24" height="24" viewBox="0 0 24 24" fill="none" xmlns="http://www.w3.org/2000/svg">
<path d="M12 0C5.37258 0 0 5.37258 0 12C0 18.6274 5.37258 24 12 24C18.6274 24 24 18.6274 24 12C24 5.37258 18.6274 0 12 0ZM8.49515 11.2068C8.88583 12.0928 9.47385 12.9662 10.2539 13.7462C11.0339 14.5256 11.908 15.1143 12.794 15.5056C12.9813 15.5883 13.2007 15.5396 13.3453 15.395L13.9474 14.7923C14.3374 14.4016 14.9707 14.4016 15.3614 14.7923L16.1435 15.5743C16.6641 16.095 16.6641 16.939 16.1435 17.4597L15.7094 17.8937C15.2154 18.3877 14.5027 18.5938 13.796 18.4604C12.054 18.1311 10.1465 17.119 8.51381 15.4863C6.88108 13.8536 5.86904 11.9461 5.53969 10.2041C5.40635 9.49738 5.61236 8.78469 6.10638 8.29067L6.54107 7.85665C7.06175 7.33596 7.90579 7.33596 8.42648 7.85665L9.20851 8.63868C9.59919 9.02936 9.59919 9.66206 9.15184 10.1094L8.60582 10.6554C8.46114 10.8001 8.41314 11.0194 8.49515 11.2068ZM13.5 5.75C13.9142 5.75 14.25 6.08579 14.25 6.5V8.6895L16.9698 5.96967C17.2627 5.67678 17.7376 5.67678 18.0304 5.96967C18.3233 6.26256 18.3233 6.73744 18.0304 7.03033L15.3106 9.75016H17.5001C17.9143 9.75016 18.2501 10.0859 18.2501 10.5002C18.2501 10.9144 17.9143 11.2502 17.5001 11.2502H13.5C13.2953 11.2502 13.1099 11.1682 12.9745 11.0354C12.9712 11.0321 12.968 11.0289 12.9648 11.0256C12.8953 10.9548 12.8426 10.8737 12.8069 10.7872C12.7702 10.6988 12.75 10.6019 12.75 10.5002V6.5C12.75 6.08579 13.0857 5.75 13.5 5.75Z" fill="black"/>
</svg>
