<svg width="24" height="24" viewBox="0 0 24 24" fill="none" xmlns="http://www.w3.org/2000/svg">
<path d="M12 0C5.37258 0 0 5.37258 0 12C0 18.6274 5.37258 24 12 24C18.6274 24 24 18.6274 24 12C24 5.37258 18.6274 0 12 0ZM7.99515 11.7068C8.38583 12.5928 8.97385 13.4662 9.75388 14.2462C10.5339 15.0256 11.408 15.6143 12.294 16.0056C12.4813 16.0883 12.7007 16.0396 12.8453 15.895L13.4474 15.2923C13.8374 14.9016 14.4707 14.9016 14.8614 15.2923L15.6435 16.0743C16.1641 16.595 16.1641 17.439 15.6435 17.9597L15.2094 18.3937C14.7154 18.8877 14.0027 19.0938 13.296 18.9604C11.554 18.6311 9.64655 17.619 8.01381 15.9863C6.38108 14.3536 5.36904 12.4461 5.03969 10.7041C4.90635 9.99738 5.11236 9.28469 5.60638 8.79067L6.04107 8.35665C6.56175 7.83596 7.40579 7.83596 7.92648 8.35665L8.70851 9.13868C9.09919 9.52936 9.09919 10.1621 8.65184 10.6094L8.10582 11.1554C7.96114 11.3001 7.91314 11.5194 7.99515 11.7068ZM13 7.75C12.5857 7.75 12.25 7.41421 12.25 7C12.25 6.58579 12.5857 6.25 13 6.25H17.0001C17.2039 6.25 17.3886 6.33124 17.5238 6.4631C17.5282 6.46741 17.5326 6.47176 17.5369 6.47617C17.605 6.54598 17.6568 6.62579 17.6923 6.7108C17.7249 6.78856 17.7447 6.87296 17.7491 6.96141C17.7498 6.97419 17.7501 6.98706 17.7501 7V11.0002C17.7501 11.4144 17.4143 11.7502 17.0001 11.7502C16.5859 11.7502 16.2501 11.4144 16.2501 11.0002V8.81066L13.5303 11.5305C13.2374 11.8234 12.7625 11.8234 12.4696 11.5305C12.1767 11.2376 12.1767 10.7627 12.4696 10.4698L15.1895 7.75H13Z" fill="black"/>
</svg>
