<svg width="24" height="24" viewBox="0 0 24 24" fill="none" xmlns="http://www.w3.org/2000/svg">
<path d="M0 12C0 18.6274 5.37258 24 12 24C18.6274 24 24 18.6274 24 12C24 5.37258 18.6274 0 12 0C5.37258 0 0 5.37258 0 12ZM10.1701 13.8299C11.0184 14.6775 11.969 15.3177 12.9326 15.7434C13.1363 15.8333 13.3749 15.7803 13.5322 15.623L14.1869 14.9675C14.6111 14.5426 15.2999 14.5426 15.7248 14.9675L16.5753 15.818C17.1416 16.3843 17.1416 17.3022 16.5753 17.8685L16.1033 18.3405C15.566 18.8778 14.7909 19.1018 14.0223 18.9568C12.1278 18.5987 10.0534 17.498 8.27767 15.7223C6.50199 13.9466 5.40135 11.8722 5.04317 9.97765C4.89816 9.20909 5.1222 8.43399 5.65947 7.89672L6.13221 7.42471C6.69849 6.85843 7.61642 6.85843 8.18269 7.42471L9.03319 8.2752C9.45808 8.70009 9.45808 9.38818 8.97156 9.87469L8.37773 10.4685C8.22039 10.6259 8.16819 10.8644 8.25737 11.0681C8.68226 12.0318 9.32176 12.9816 10.1701 13.8299ZM13.418 7.50583L14.4965 8.5843L15.5749 7.50583C15.8288 7.25198 16.2403 7.25198 16.4942 7.50583C16.748 7.75967 16.748 8.17122 16.4942 8.42506L15.4157 9.50354L16.4942 10.582C16.748 10.8358 16.748 11.2474 16.4942 11.5012C16.2403 11.7551 15.8288 11.7551 15.5749 11.5012L14.4965 10.4228L13.418 11.5012C13.1642 11.7551 12.7526 11.7551 12.4988 11.5012C12.2449 11.2474 12.2449 10.8358 12.4988 10.582L13.5772 9.50354L12.4988 8.42506C12.2449 8.17122 12.2449 7.75967 12.4988 7.50583C12.7526 7.25198 13.1642 7.25198 13.418 7.50583Z" fill="black"/>
</svg>
