<svg width="24" height="24" viewBox="0 0 24 24" fill="none" xmlns="http://www.w3.org/2000/svg">
<path d="M12 0C5.37258 0 0 5.37258 0 12C0 18.6274 5.37258 24 12 24C18.6274 24 24 18.6274 24 12C24 5.37258 18.6274 0 12 0ZM14.8415 15.2989L15.6219 16.0794C16.1415 16.5997 16.1415 17.442 15.6219 17.9616L15.1888 18.3948C14.6958 18.8878 13.9845 19.0934 13.2792 18.9603C11.5407 18.6316 9.63714 17.6216 8.00771 15.9922C6.37828 14.3628 5.36829 12.4592 5.03961 10.7207C4.90654 10.0154 5.11213 9.30417 5.60515 8.81115L6.03896 8.37801C6.55859 7.85837 7.40092 7.85837 7.92055 8.37801L8.701 9.15846C9.09089 9.54835 9.09089 10.1798 8.64445 10.6262L8.09487 11.1758C7.95315 11.3175 7.90591 11.5324 7.98709 11.7154C8.37698 12.6009 8.96514 13.4752 9.74493 14.255C10.528 15.0381 11.4063 15.6283 12.2952 16.0175C12.4722 16.0953 12.6798 16.0494 12.8168 15.9124L13.4303 15.2989C13.8195 14.909 14.4516 14.909 14.8415 15.2989ZM11.6633 10.4299C11.2491 10.4355 10.9088 10.1043 10.9031 9.69012C10.8975 9.27594 11.2287 8.93563 11.6429 8.93C12.508 8.91826 13.3825 9.23463 14.0529 9.88902C14.0629 9.89801 14.0727 9.90731 14.0823 9.91694C14.7564 10.591 15.0823 11.4785 15.0704 12.3563C15.0648 12.7705 14.7245 13.1017 14.3103 13.0961C13.8961 13.0905 13.5649 12.7501 13.5705 12.336C13.5771 11.8515 13.4019 11.3698 13.0432 10.9994C13.0359 10.9927 13.0287 10.9858 13.0216 10.9787C12.6485 10.6056 12.1574 10.4232 11.6633 10.4299ZM11.6531 6.25C13.2119 6.25 14.7737 6.84572 15.9639 8.03589C15.9654 8.03738 15.9669 8.03887 15.9683 8.04036C17.1556 9.22999 17.7499 10.7899 17.7499 12.3469C17.7499 12.7611 17.4142 13.0969 16.9999 13.0969C16.5857 13.0969 16.2499 12.7611 16.2499 12.3469C16.2499 11.1698 15.8011 9.99442 14.9034 9.09674C14.9021 9.09549 14.9009 9.09424 14.8997 9.09298C14.0024 8.19768 12.8286 7.75 11.6531 7.75C11.2389 7.75 10.9031 7.41421 10.9031 7C10.9031 6.58579 11.2389 6.25 11.6531 6.25Z" fill="black"/>
</svg>
