<svg width="24" height="24" viewBox="0 0 24 24" fill="none" xmlns="http://www.w3.org/2000/svg">
<path d="M12 0C5.37258 0 0 5.37258 0 12C0 18.6274 5.37258 24 12 24C18.6274 24 24 18.6274 24 12C24 5.37258 18.6274 0 12 0ZM11.9458 14.8917C9.21432 14.8917 7 12.6773 7 9.94583C7 7.21432 9.21432 5 11.9458 5C14.6773 5 16.8917 7.21432 16.8917 9.94583C16.8917 12.6773 14.6773 14.8917 11.9458 14.8917ZM9.80664 9.70966C9.80664 8.732 10.5992 7.93945 11.5768 7.93945C11.853 7.93945 12.0768 7.7156 12.0768 7.43945C12.0768 7.16331 11.853 6.93945 11.5768 6.93945C10.0469 6.93945 8.80664 8.17972 8.80664 9.70966C8.80664 9.9858 9.0305 10.2097 9.30664 10.2097C9.58278 10.2097 9.80664 9.9858 9.80664 9.70966ZM11.3516 17.9108V15.551C11.3516 15.551 11.6759 15.6236 12.0002 15.6236C12.3245 15.6236 12.6488 15.551 12.6488 15.551V17.9108L12.0002 18.9999L11.3516 17.9108Z" fill="black"/>
</svg>
