<svg width="24" height="24" viewBox="0 0 24 24" fill="none" xmlns="http://www.w3.org/2000/svg">
<path d="M12 0C5.37258 0 0 5.37258 0 12C0 18.6274 5.37258 24 12 24C18.6274 24 24 18.6274 24 12C24 5.37258 18.6274 0 12 0ZM6.07241 8.32796C5.81467 7.82165 6.02911 7.19944 6.56027 6.9978C8.25556 6.35423 10.0932 6 12.0141 6C13.935 6 15.7727 6.35423 17.468 6.9978C17.9991 7.19944 18.2136 7.82165 17.9558 8.32796L17.4872 9.2485L17.4773 9.24422C17.2241 9.13729 16.967 9.0376 16.7064 8.94541C15.2504 8.43037 13.6841 8.15002 12.0536 8.15002C10.131 8.15002 8.2986 8.53981 6.63049 9.24422C6.60506 9.25496 6.58066 9.26713 6.55736 9.2806L6.07241 8.32796ZM16.2729 10.171C16.4832 10.2454 16.6909 10.3251 16.8959 10.4101L12.9053 18.2494C12.5345 18.9778 11.4938 18.9778 11.123 18.2494L7.14631 10.4376C8.6549 9.80205 10.312 9.45002 12.0536 9.45002C13.5341 9.45002 14.954 9.70445 16.2729 10.171ZM12.4738 14.8598L13.1738 14.1598C13.4277 13.9059 13.4277 13.4944 13.1738 13.2405C12.92 12.9867 12.5084 12.9867 12.2546 13.2405L11.5546 13.9405C11.3008 14.1944 11.3008 14.6059 11.5546 14.8598C11.8084 15.1136 12.22 15.1136 12.4738 14.8598ZM11.7738 12.0595C12.0276 11.8056 12.0276 11.3941 11.7738 11.1402L11.0738 10.4402C10.82 10.1864 10.4084 10.1864 10.1546 10.4402C9.90073 10.6941 9.90073 11.1056 10.1546 11.3595L10.8546 12.0595C11.1084 12.3133 11.52 12.3133 11.7738 12.0595Z" fill="black"/>
</svg>
