<svg width="24" height="24" viewBox="0 0 24 24" fill="none" xmlns="http://www.w3.org/2000/svg">
<path d="M12 0C5.37258 0 0 5.37258 0 12C0 18.6274 5.37258 24 12 24C18.6274 24 24 18.6274 24 12C24 5.37258 18.6274 0 12 0ZM9.32968 5.34985C9.68866 5.34985 9.97968 5.64087 9.97968 5.99985V8.01685H14.0136V5.99985C14.0136 5.64087 14.3046 5.34985 14.6636 5.34985C15.0226 5.34985 15.3136 5.64087 15.3136 5.99985V8.01685H16.663C17.022 8.01685 17.313 8.30786 17.313 8.66685C17.313 9.02583 17.022 9.31685 16.663 9.31685H15.9957V11.3335C15.9957 13.0742 14.8817 14.5515 13.329 15.1008V16.1668C13.329 16.443 13.1051 16.6668 12.829 16.6668H11.1623C10.8862 16.6668 10.6623 16.443 10.6623 16.1668V15.1008C9.10966 14.5515 7.99566 13.0742 7.99566 11.3335V9.31685H7.32969C6.9707 9.31685 6.67969 9.02583 6.67969 8.66685C6.67969 8.30786 6.9707 8.01685 7.32969 8.01685H8.67968V5.99985C8.67968 5.64087 8.97069 5.34985 9.32968 5.34985ZM10.6796 17.9999C10.6796 17.6409 10.9706 17.3499 11.3296 17.3499H12.6629C13.0219 17.3499 13.3129 17.6409 13.3129 17.9999C13.3129 18.3588 13.0219 18.6499 12.6629 18.6499H11.3296C10.9706 18.6499 10.6796 18.3588 10.6796 17.9999Z" fill="black"/>
</svg>
