<svg width="24" height="24" viewBox="0 0 24 24" fill="none" xmlns="http://www.w3.org/2000/svg">
<path d="M12 24C18.6274 24 24 18.6274 24 12C24 5.37258 18.6274 0 12 0C5.37258 0 0 5.37258 0 12C0 18.6274 5.37258 24 12 24ZM11.9999 6.15002C12.4693 6.15002 12.8499 6.53058 12.8499 7.00002L12.8499 11.15H16.9999C17.4693 11.15 17.8499 11.5306 17.8499 12C17.8499 12.4695 17.4693 12.85 16.9999 12.85H12.8499V17C12.8499 17.4695 12.4693 17.85 11.9999 17.85C11.5305 17.85 11.1499 17.4695 11.1499 17V12.85H6.9999C6.53046 12.85 6.1499 12.4695 6.1499 12C6.1499 11.5306 6.53046 11.15 6.9999 11.15H11.1499L11.1499 7.00002C11.1499 6.53058 11.5305 6.15002 11.9999 6.15002Z" fill="black"/>
</svg>
