<svg width="24" height="24" viewBox="0 0 24 24" fill="none" xmlns="http://www.w3.org/2000/svg">
<path d="M12 0C5.37258 0 0 5.37258 0 12C0 18.6274 5.37258 24 12 24C18.6274 24 24 18.6274 24 12C24 5.37258 18.6274 0 12 0ZM12 20C8.13367 20 5 16.8663 5 13V9C5 7.34315 6.34315 6 8 6H16C17.6569 6 19 7.34315 19 9V13C19 16.8663 15.8663 20 12 20ZM7.58063 10.1367C7.28774 10.4296 7.28774 10.9044 7.58063 11.1973L11.4695 15.0862C11.7624 15.3791 12.2373 15.3791 12.5302 15.0862L16.4191 11.1973C16.712 10.9044 16.712 10.4296 16.4191 10.1367C16.1262 9.84377 15.6513 9.84377 15.3584 10.1367L11.9999 13.4952L8.64129 10.1367C8.3484 9.84377 7.87353 9.84377 7.58063 10.1367Z" fill="black"/>
</svg>
