<svg width="24" height="24" viewBox="0 0 24 24" fill="none" xmlns="http://www.w3.org/2000/svg">
<path d="M12 0C5.37258 0 0 5.37258 0 12C0 18.6274 5.37258 24 12 24C18.6274 24 24 18.6274 24 12C24 5.37258 18.6274 0 12 0ZM5 8C5 6.34315 6.34315 5 8 5H16C17.6569 5 19 6.34315 19 8V16C19 17.6569 17.6569 19 16 19H8C6.34315 19 5 17.6569 5 16V8ZM12 7.2C11.5582 7.2 11.2 7.55817 11.2 8V16C11.2 16.4418 11.5582 16.8 12 16.8C12.4418 16.8 12.8 16.4418 12.8 16V8C12.8 7.55817 12.4418 7.2 12 7.2ZM9.3 11.5996C9.3 11.1578 8.94183 10.7996 8.5 10.7996C8.05817 10.7996 7.7 11.1578 7.7 11.5996V15.9887C7.7 16.4305 8.05817 16.7887 8.5 16.7887C8.94183 16.7887 9.3 16.4305 9.3 15.9887V11.5996ZM15.5 12.7996C15.0582 12.7996 14.7 13.1578 14.7 13.5996V15.9887C14.7 16.4305 15.0582 16.7887 15.5 16.7887C15.9418 16.7887 16.3 16.4305 16.3 15.9887V13.5996C16.3 13.1578 15.9418 12.7996 15.5 12.7996Z" fill="black"/>
</svg>
