<svg width="24" height="24" viewBox="0 0 24 24" fill="none" xmlns="http://www.w3.org/2000/svg">
<path d="M24 12C24 5.37258 18.6274 0 12 0C5.37258 0 0 5.37258 0 12C0 18.6274 5.37258 24 12 24C18.6274 24 24 18.6274 24 12ZM12.807 5.99995V11.9989C12.807 12.4408 12.4488 12.7989 12.007 12.7989C11.5652 12.7989 11.207 12.4408 11.207 11.9989V5.99995C11.207 5.55812 11.5652 5.19995 12.007 5.19995C12.4488 5.19995 12.807 5.55812 12.807 5.99995ZM8.82415 9.3447C7.05886 11.1421 7.05918 14.0615 8.82485 15.8585C10.5828 17.6476 13.4267 17.6476 15.1847 15.8585C16.9503 14.0615 16.9506 11.1421 15.1854 9.3447C14.8758 9.02947 14.8803 8.52296 15.1956 8.21337C15.5108 7.90378 16.0173 7.90834 16.3269 8.22357C18.7036 10.6435 18.7032 14.5605 16.3259 16.9799C13.941 19.4071 10.0685 19.4071 7.68357 16.9799C5.30636 14.5605 5.30595 10.6435 7.68263 8.22357C7.99222 7.90834 8.49873 7.90378 8.81396 8.21337C9.12918 8.52296 9.13374 9.02947 8.82415 9.3447Z" fill="black"/>
</svg>
