<svg width="24" height="24" viewBox="0 0 24 24" fill="none" xmlns="http://www.w3.org/2000/svg">
<path d="M12 24C5.37258 24 0 18.6274 0 12C0 5.37258 5.37258 0 12 0C18.6274 0 24 5.37258 24 12C24 18.6274 18.6274 24 12 24ZM12.0428 8.3C12.1968 8.3 12.3249 8.32343 12.4341 8.36228C12.5461 8.4021 12.6332 8.45478 12.7045 8.51771C12.7651 8.57121 12.82 8.64204 12.8663 8.74385C12.893 8.80263 12.9213 8.90956 12.9291 9.11911C12.9382 9.36327 12.8412 9.70329 12.4504 10.1575C12.3573 10.2477 12.2331 10.3774 12.1305 10.485L12.0444 10.5755C11.951 10.6736 11.8748 10.7537 11.8292 10.7993C11.6432 10.9853 11.4789 11.1914 11.3357 11.4155C11.1755 11.6663 11.056 11.9395 10.9724 12.2288C10.883 12.5383 10.8442 12.8648 10.8442 13.2V13.4143C10.8442 13.9113 11.2471 14.3143 11.7442 14.3143C12.2412 14.3143 12.6442 13.9113 12.6442 13.4143V13.2C12.6442 13.0019 12.6673 12.8474 12.7017 12.7284C12.7419 12.5891 12.7938 12.4766 12.8526 12.3846C12.9285 12.2657 13.0118 12.1623 13.102 12.0721C13.1651 12.009 13.2648 11.9042 13.3612 11.8028L13.4335 11.7269C13.5643 11.5896 13.6682 11.4823 13.716 11.4377L13.7487 11.4072L13.7782 11.3736C14.3767 10.6922 14.7598 9.91189 14.7279 9.05232C14.7159 8.72977 14.6687 8.35927 14.505 7.99901C14.3608 7.68176 14.1586 7.40022 13.8954 7.168C13.6429 6.94522 13.3537 6.77885 13.0372 6.66629C12.7178 6.55276 12.384 6.5 12.0428 6.5C11.3301 6.5 10.6739 6.72526 10.1612 7.23027C9.69125 7.6932 9.4138 8.27539 9.31081 8.93196C9.23378 9.42301 9.56941 9.88353 10.0605 9.96056C10.5515 10.0376 11.012 9.70195 11.0891 9.2109C11.1384 8.89604 11.2562 8.67823 11.4244 8.51259C11.5498 8.38903 11.7269 8.3 12.0428 8.3ZM11.8334 15.563C11.3262 15.563 10.915 15.9742 10.915 16.4814C10.915 16.9886 11.3262 17.3997 11.8334 17.3997C12.3406 17.3997 12.7518 16.9886 12.7518 16.4814C12.7518 15.9742 12.3406 15.563 11.8334 15.563Z" fill="black"/>
</svg>
