<svg width="24" height="24" viewBox="0 0 24 24" fill="none" xmlns="http://www.w3.org/2000/svg">
<path d="M24 12C24 5.37258 18.6274 0 12 0C5.37258 0 0 5.37258 0 12C0 18.6274 5.37258 24 12 24C18.6274 24 24 18.6274 24 12ZM9.5347 7.53854C8.50544 8.22472 8.0039 8.63011 7.68783 9.26224C7.40546 9.82698 7.23526 10.6504 7.19105 12.1407H9.75119C10.5916 12.1407 11.2732 12.8223 11.2732 13.6627V16.3919C11.2732 17.2323 10.5916 17.9139 9.75119 17.9139H7.02203C6.18163 17.9139 5.5 17.2323 5.5 16.3919V12.9804C5.5 10.9226 5.66425 9.55398 6.18566 8.51116C6.72245 7.43756 7.58549 6.81952 8.6031 6.14112C8.98898 5.88387 9.51035 5.98814 9.76761 6.37403C10.0249 6.75991 9.92059 7.28128 9.5347 7.53854ZM16.9942 6.37403C17.2514 6.75991 17.1472 7.28128 16.7613 7.53854C15.732 8.22472 15.2305 8.63011 14.9144 9.26224C14.632 9.82698 14.4618 10.6504 14.4176 12.1407H16.9778C17.8182 12.1407 18.4998 12.8223 18.4998 13.6627V16.3919C18.4998 17.2323 17.8182 17.9139 16.9778 17.9139H14.2486C13.4082 17.9139 12.7266 17.2323 12.7266 16.3919V12.9804C12.7266 10.9226 12.8908 9.55398 13.4122 8.51116C13.949 7.43756 14.8121 6.81952 15.8297 6.14112C16.2155 5.88387 16.7369 5.98814 16.9942 6.37403Z" fill="black"/>
</svg>
