<svg width="24" height="24" viewBox="0 0 24 24" fill="none" xmlns="http://www.w3.org/2000/svg">
<path d="M0 12C0 18.6274 5.37258 24 12 24C18.6274 24 24 18.6274 24 12C24 5.37258 18.6274 0 12 0C5.37258 0 0 5.37258 0 12ZM14.4653 16.4615C15.4946 15.7753 15.9961 15.3699 16.3122 14.7378C16.5945 14.173 16.7647 13.3496 16.809 11.8593H14.2488C13.4084 11.8593 12.7268 11.1777 12.7268 10.3373V7.60811C12.7268 6.76771 13.4084 6.08608 14.2488 6.08608L16.978 6.08608C17.8184 6.08608 18.5 6.76771 18.5 7.60811V11.0196C18.5 13.0774 18.3358 14.446 17.8143 15.4888C17.2775 16.5624 16.4145 17.1805 15.3969 17.8589C15.011 18.1161 14.4896 18.0119 14.2324 17.626C13.9751 17.2401 14.0794 16.7187 14.4653 16.4615ZM7.00583 17.626C6.74857 17.2401 6.85285 16.7187 7.23873 16.4615C8.268 15.7753 8.76954 15.3699 9.08561 14.7378C9.36798 14.173 9.53817 13.3496 9.58239 11.8593H7.02225C6.18185 11.8593 5.50022 11.1777 5.50022 10.3373V7.60811C5.50022 6.76771 6.18185 6.08608 7.02225 6.08608H9.75141C10.5918 6.08608 11.2734 6.76771 11.2734 7.60811V11.0196C11.2734 13.0774 11.1092 14.446 10.5878 15.4888C10.051 16.5624 9.18794 17.1805 8.17034 17.8589C7.78446 18.1161 7.26309 18.0119 7.00583 17.626Z" fill="black"/>
</svg>
