<svg width="24" height="24" viewBox="0 0 24 24" fill="none" xmlns="http://www.w3.org/2000/svg">
<path d="M24 12C24 5.37258 18.6274 0 12 0C5.37258 0 0 5.37258 0 12C0 18.6274 5.37258 24 12 24C18.6274 24 24 18.6274 24 12ZM17.2329 6.43429L18.5662 7.76762C18.7144 7.91577 18.7923 8.10757 18.7999 8.30163C18.8008 8.31785 18.8012 8.33421 18.8012 8.35068C18.8 8.61674 18.6691 8.8519 18.4687 8.99649L17.2329 10.2323C17.0041 10.4611 16.66 10.5296 16.361 10.4057C16.0621 10.2819 15.8672 9.99021 15.8672 9.66664V9.13814L15.3471 9.13592C15.1762 9.13512 15.0146 9.21673 14.9136 9.35565L10.3829 15.585C9.97937 16.14 9.33397 16.4661 8.64935 16.4639L5.99775 16.4526C5.55593 16.4507 5.19929 16.091 5.20118 15.6492C5.20307 15.2073 5.56277 14.8507 6.00459 14.8526L8.65433 14.8639C8.82682 14.8643 8.98838 14.7823 9.08874 14.6442L13.6194 8.41487C14.0224 7.86063 14.6679 7.53283 15.3542 7.53594L15.8672 7.53813V6.99997C15.8672 6.6764 16.0621 6.3847 16.361 6.26087C16.66 6.13705 17.0041 6.20549 17.2329 6.43429ZM10.3829 8.41486L11.4361 9.86264C11.696 10.2199 11.6171 10.7203 11.2598 10.9802C10.9025 11.2401 10.4021 11.1612 10.1422 10.8039L9.0889 9.35586C8.98853 9.21778 8.82719 9.13549 8.65468 9.13591L6.00459 9.14724C5.56277 9.14913 5.20307 8.7925 5.20118 8.35067C5.19929 7.90885 5.55593 7.54915 5.99775 7.54726L8.64842 7.53593C9.33301 7.5338 9.97937 7.85983 10.3829 8.41486ZM16.361 13.5802C16.66 13.4564 17.0041 13.5248 17.2329 13.7536L18.5539 15.0747C18.5875 15.1069 18.6183 15.142 18.6458 15.1796C18.8759 15.4926 18.8493 15.9352 18.5662 16.2183L17.2329 17.5517C17.0041 17.7805 16.66 17.8489 16.361 17.7251C16.0621 17.6013 15.8672 17.3095 15.8672 16.986V16.4611L15.3529 16.4633C14.6683 16.4654 14.0221 16.1396 13.6185 15.5846L12.5652 14.1366C12.3053 13.7793 12.3842 13.279 12.7415 13.0191C13.0988 12.7591 13.5991 12.8381 13.859 13.1954L14.9124 14.6434C15.0128 14.7815 15.1741 14.8638 15.3466 14.8633L15.8672 14.8611V14.3193C15.8672 13.9957 16.0621 13.704 16.361 13.5802Z" fill="black"/>
</svg>
