<svg width="24" height="24" viewBox="0 0 24 24" fill="none" xmlns="http://www.w3.org/2000/svg">
<path d="M12 0C5.37258 0 0 5.37258 0 12C0 18.6274 5.37258 24 12 24C18.6274 24 24 18.6274 24 12C24 5.37258 18.6274 0 12 0ZM11.3374 6.96569V9.29918C12.979 9.37539 14.8043 9.83291 16.1239 11.051C17.2267 12.0689 18 13.6156 18 15.95C18 16.2084 17.9905 16.4571 17.9722 16.6966C17.9481 17.0101 17.4883 17.0458 17.3479 16.7644C17.2577 16.5837 17.1569 16.3992 17.0455 16.2094C15.8174 14.1171 14.5217 13.4527 11.3374 13.3921V15.7091C11.3374 16.0654 10.9065 16.2439 10.6545 15.9919L6.42426 11.7616C6.18995 11.5273 6.18995 11.1474 6.42426 10.9131L10.6545 6.68284C10.9065 6.43086 11.3374 6.60932 11.3374 6.96569Z" fill="black"/>
</svg>
