<svg width="24" height="24" viewBox="0 0 24 24" fill="none" xmlns="http://www.w3.org/2000/svg">
<path d="M12 0C5.37258 0 0 5.37258 0 12C0 18.6274 5.37258 24 12 24C18.6274 24 24 18.6274 24 12C24 5.37258 18.6274 0 12 0ZM15.134 17.0016C14.6739 12.7325 11.2972 9.34142 7.04527 8.87772C6.49625 8.81785 6.04688 8.37589 6.04688 7.82361V7.00003C6.04688 6.44775 6.49616 5.99565 7.04655 6.0414C12.852 6.52397 17.4803 11.1716 17.9591 17.0003C18.0043 17.5508 17.5523 18 17 18H16.1875C15.6352 18 15.1932 17.5507 15.134 17.0016ZM11.5 17.9992C10.9477 17.9992 10.5115 17.5458 10.3899 17.007C10.0127 15.3359 8.70297 14.02 7.03884 13.64C6.50042 13.517 6.04688 13.0809 6.04688 12.5286V11.7051C6.04688 11.1528 6.4971 10.6978 7.04422 10.7732C10.2602 11.2164 12.8053 13.7726 13.2452 17.0018C13.3197 17.549 12.8648 17.9992 12.3125 17.9992H11.5ZM7.40625 17.9993C6.6296 17.9993 6 17.3672 6 16.5875C6 15.8078 6.6296 15.1758 7.40625 15.1758C8.1829 15.1758 8.8125 15.8078 8.8125 16.5875C8.8125 17.3672 8.1829 17.9993 7.40625 17.9993Z" fill="black"/>
</svg>
