<svg width="24" height="24" viewBox="0 0 24 24" fill="none" xmlns="http://www.w3.org/2000/svg">
<path d="M12 0C5.37258 0 0 5.37258 0 12C0 18.6274 5.37258 24 12 24C18.6274 24 24 18.6274 24 12C24 5.37258 18.6274 0 12 0ZM10.4057 12.2617L14.2621 14.1899C15.1279 13.3625 16.5006 13.3744 17.3518 14.2256C18.2151 15.0889 18.2151 16.4885 17.3518 17.3518C16.4885 18.2151 15.0889 18.2151 14.2256 17.3518C13.7286 16.8549 13.5178 16.1802 13.5929 15.5324L9.73303 13.6024C8.867 14.4258 7.49732 14.4126 6.64746 13.5627C5.78418 12.6995 5.78418 11.2998 6.64746 10.4365C7.49741 9.58658 8.86727 9.57345 9.73328 10.3971L13.593 8.46727C13.5177 7.81936 13.7285 7.14451 14.2256 6.64746C15.0889 5.78418 16.4885 5.78418 17.3518 6.64746C18.2151 7.51075 18.2151 8.9104 17.3518 9.77369C16.5007 10.6248 15.1282 10.6368 14.2624 9.80963L10.4057 11.738C10.4263 11.9119 10.4263 12.0878 10.4057 12.2617Z" fill="black"/>
</svg>
