<svg width="24" height="24" viewBox="0 0 24 24" fill="none" xmlns="http://www.w3.org/2000/svg">
<path d="M12 24C18.6274 24 24 18.6274 24 12C24 5.37258 18.6274 0 12 0C5.37258 0 0 5.37258 0 12C0 18.6274 5.37258 24 12 24ZM12.3488 7.20706C12.3488 6.7616 12.8874 6.53852 13.2024 6.8535L17.293 10.9442C17.6836 11.3347 17.6836 11.9679 17.293 12.3584L13.2024 16.4491C12.8874 16.7641 12.3488 16.541 12.3488 16.0955V13.8269C12.2618 13.8115 12.1713 13.7945 12.078 13.7771C10.5723 13.4956 8.34152 13.0784 8.11638 16.6752C8.09642 16.9941 7.65871 17.1038 7.52971 16.8114C5.11615 11.3415 8.45485 9.197 12.3488 9.4932V7.20706Z" fill="black"/>
</svg>
