<svg width="24" height="24" viewBox="0 0 24 24" fill="none" xmlns="http://www.w3.org/2000/svg">
<path d="M12 0C5.37258 0 0 5.37258 0 12C0 18.6274 5.37258 24 12 24C18.6274 24 24 18.6274 24 12C24 5.37258 18.6274 0 12 0ZM12.0536 19C8.41063 18.1812 5.70001 14.809 5.70001 11.2025V8.3696C5.70001 7.72471 6.08997 7.14335 6.68721 6.89953L10.6582 5.2746C11.5525 4.90847 12.5548 4.90847 13.449 5.2746L17.4201 6.89953C18.0173 7.14415 18.4072 7.72471 18.4072 8.3696V11.2025C18.4072 14.809 15.6966 18.1812 12.0536 19Z" fill="black"/>
</svg>
