<svg width="24" height="24" viewBox="0 0 24 24" fill="none" xmlns="http://www.w3.org/2000/svg">
<path d="M12 24C18.6274 24 24 18.6274 24 12C24 5.37258 18.6274 0 12 0C5.37258 0 0 5.37258 0 12C0 18.6274 5.37258 24 12 24ZM9.47467 6.61769C9.68581 6.32736 10.0923 6.26318 10.3827 6.47432C10.673 6.68546 10.7372 7.09199 10.526 7.38231L8.37983 10.3333H15.6221L13.4759 7.38231C13.2648 7.09199 13.329 6.68546 13.6193 6.47432C13.9096 6.26318 14.3161 6.32736 14.5273 6.61769L17.194 10.2844C17.2248 10.3268 17.2498 10.3717 17.2691 10.4182C17.6596 10.5909 17.9149 11.0057 17.8568 11.4601L17.2867 15.9203C17.159 16.9187 16.3093 17.6667 15.3028 17.6667H8.69899C7.69247 17.6667 6.84277 16.9187 6.71513 15.9203L6.14495 11.4601C6.08683 11.0056 6.34223 10.5907 6.73293 10.4181C6.75218 10.3717 6.77715 10.3268 6.808 10.2844L9.47467 6.61769ZM10.6505 13C10.6505 12.641 10.3595 12.35 10.0005 12.35C9.64152 12.35 9.3505 12.641 9.3505 13V15C9.3505 15.359 9.64152 15.65 10.0005 15.65C10.3595 15.65 10.6505 15.359 10.6505 15V13ZM12.0005 12.35C11.6415 12.35 11.3505 12.641 11.3505 13V15C11.3505 15.359 11.6415 15.65 12.0005 15.65C12.3595 15.65 12.6505 15.359 12.6505 15V13C12.6505 12.641 12.3595 12.35 12.0005 12.35ZM14.0005 12.35C14.3595 12.35 14.6505 12.641 14.6505 13V15C14.6505 15.359 14.3595 15.65 14.0005 15.65C13.6415 15.65 13.3505 15.359 13.3505 15V13C13.3505 12.641 13.6415 12.35 14.0005 12.35Z" fill="black"/>
<path d="M12 24C18.6274 24 24 18.6274 24 12C24 5.37258 18.6274 0 12 0C5.37258 0 0 5.37258 0 12C0 18.6274 5.37258 24 12 24ZM9.47467 6.61769C9.68581 6.32736 10.0923 6.26318 10.3827 6.47432C10.673 6.68546 10.7372 7.09199 10.526 7.38231L8.37983 10.3333H15.6221L13.4759 7.38231C13.2648 7.09199 13.329 6.68546 13.6193 6.47432C13.9096 6.26318 14.3161 6.32736 14.5273 6.61769L17.194 10.2844C17.2248 10.3268 17.2498 10.3717 17.2691 10.4182C17.6596 10.5909 17.9149 11.0057 17.8568 11.4601L17.2867 15.9203C17.159 16.9187 16.3093 17.6667 15.3028 17.6667H8.69899C7.69247 17.6667 6.84277 16.9187 6.71513 15.9203L6.14495 11.4601C6.08683 11.0056 6.34223 10.5907 6.73293 10.4181C6.75218 10.3717 6.77715 10.3268 6.808 10.2844L9.47467 6.61769ZM10.6505 13C10.6505 12.641 10.3595 12.35 10.0005 12.35C9.64152 12.35 9.3505 12.641 9.3505 13V15C9.3505 15.359 9.64152 15.65 10.0005 15.65C10.3595 15.65 10.6505 15.359 10.6505 15V13ZM12.0005 12.35C11.6415 12.35 11.3505 12.641 11.3505 13V15C11.3505 15.359 11.6415 15.65 12.0005 15.65C12.3595 15.65 12.6505 15.359 12.6505 15V13C12.6505 12.641 12.3595 12.35 12.0005 12.35ZM14.0005 12.35C14.3595 12.35 14.6505 12.641 14.6505 13V15C14.6505 15.359 14.3595 15.65 14.0005 15.65C13.6415 15.65 13.3505 15.359 13.3505 15V13C13.3505 12.641 13.6415 12.35 14.0005 12.35Z" stroke="black"/>
</svg>
