<svg width="24" height="24" viewBox="0 0 24 24" fill="none" xmlns="http://www.w3.org/2000/svg">
<path d="M24 12C24 5.37258 18.6274 0 12 0C5.37258 0 0 5.37258 0 12C0 18.6274 5.37258 24 12 24C18.6274 24 24 18.6274 24 12ZM11.8227 6.55005H16.5C17.8807 6.55005 19 7.66934 19 9.05005V14.9389C19 16.3196 17.8807 17.4389 16.5 17.4389H11.8227V6.55005ZM10.6221 6.55005V17.4389H7.5C6.11929 17.4389 5 16.3196 5 14.9389V9.05005C5 7.66934 6.11929 6.55005 7.5 6.55005H10.6221ZM6.4 10.8278C6.4 11.1469 6.64917 11.4078 6.96357 11.4267C6.97575 11.4274 6.98803 11.4278 7.00039 11.4278H8.55595C8.88732 11.4278 9.15595 11.1592 9.15595 10.8278C9.15595 10.5093 8.9078 10.2488 8.5943 10.229C8.58149 10.2282 8.56857 10.2278 8.55556 10.2278H7C6.66863 10.2278 6.4 10.4964 6.4 10.8278ZM6.96357 13.76C6.97575 13.7608 6.98803 13.7612 7.00039 13.7612H8.55595C8.88732 13.7612 9.15595 13.4925 9.15595 13.1612C9.15595 12.8427 8.9078 12.5821 8.5943 12.5624C8.58149 12.5615 8.56857 12.5611 8.55556 12.5611H7C6.66863 12.5611 6.4 12.8298 6.4 13.1611C6.4 13.4803 6.64917 13.7412 6.96357 13.76Z" fill="black"/>
</svg>
