<svg width="24" height="24" viewBox="0 0 24 24" fill="none" xmlns="http://www.w3.org/2000/svg">
<path d="M0 12C0 18.6274 5.37258 24 12 24C18.6274 24 24 18.6274 24 12C24 5.37258 18.6274 0 12 0C5.37258 0 0 5.37258 0 12ZM11.4546 16.5836C11.4546 16.915 11.186 17.1836 10.8546 17.1836H9.8728C9.54143 17.1836 9.2728 16.915 9.2728 16.5836V12.3291C9.2728 11.9977 9.54143 11.7291 9.8728 11.7291H10.8546C11.186 11.7291 11.4546 11.9977 11.4546 12.3291V16.5836ZM7.58182 17.1835H6.6C6.26863 17.1835 6 16.9149 6 16.5835V14.5108C6 14.1794 6.26863 13.9108 6.6 13.9108H7.58182C7.91319 13.9108 8.18182 14.1794 8.18182 14.5108V16.5835C8.18182 16.9149 7.91319 17.1835 7.58182 17.1835Z" fill="black"/>
</svg>
