<svg width="24" height="24" viewBox="0 0 24 24" fill="none" xmlns="http://www.w3.org/2000/svg">
<path d="M0 12C0 18.6274 5.37258 24 12 24C18.6274 24 24 18.6274 24 12C24 5.37258 18.6274 0 12 0C5.37258 0 0 5.37258 0 12ZM6.98438 7.73303V6.57672C6.98438 6.16251 7.32016 5.82672 7.73438 5.82672C8.14859 5.82672 8.48438 6.16251 8.48438 6.57672V7.80578C8.98662 8.09187 9.32527 8.63213 9.32527 9.25149C9.32527 9.87084 8.98662 10.4111 8.48438 10.6972V17.42C8.48438 17.8342 8.14859 18.17 7.73438 18.17C7.32016 18.17 6.98438 17.8342 6.98438 17.42V10.7699C6.40423 10.5104 6 9.92815 6 9.25149C6 8.57482 6.40423 7.99257 6.98438 7.73303ZM11.3223 17.42V16.5532C10.7421 16.2936 10.3379 15.7114 10.3379 15.0347C10.3379 14.358 10.7421 13.7758 11.3223 13.5163V6.57672C11.3223 6.16251 11.6581 5.82672 12.0723 5.82672C12.4865 5.82672 12.8223 6.16251 12.8223 6.57672V13.589C13.3245 13.8751 13.6632 14.4154 13.6632 15.0347C13.6632 15.6541 13.3245 16.1943 12.8223 16.4804V17.42C12.8223 17.8342 12.4865 18.17 12.0723 18.17C11.6581 18.17 11.3223 17.8342 11.3223 17.42ZM16.4102 18.17C15.9959 18.17 15.6602 17.8342 15.6602 17.42V10.7708C15.079 10.5117 14.6738 9.92893 14.6738 9.2515C14.6738 8.57408 15.079 7.99128 15.6602 7.73218V6.57672C15.6602 6.16251 15.9959 5.82672 16.4102 5.82672C16.8244 5.82672 17.1602 6.16251 17.1602 6.57672V7.80691C17.6613 8.09329 17.9991 8.63295 17.9991 9.2515C17.9991 9.87006 17.6613 10.4097 17.1602 10.6961V17.42C17.1602 17.8342 16.8244 18.17 16.4102 18.17Z" fill="black"/>
</svg>
