<svg width="24" height="24" viewBox="0 0 24 24" fill="none" xmlns="http://www.w3.org/2000/svg">
<path d="M11.9997 0C5.37228 0 -0.000305176 5.37258 -0.000305176 12C-0.000305176 18.6274 5.37228 24 11.9997 24C18.6271 24 23.9997 18.6274 23.9997 12C23.9997 5.37258 18.6271 0 11.9997 0ZM16.267 6.98481H17.4231C17.8373 6.98481 18.1731 7.3206 18.1731 7.73481C18.1731 8.14902 17.8373 8.48481 17.4231 8.48481H16.1938C15.9077 8.98681 15.3675 9.32527 14.7484 9.32527C14.1292 9.32527 13.5891 8.98681 13.3029 8.48481H6.57985C6.16564 8.48481 5.82985 8.14902 5.82985 7.73481C5.82985 7.3206 6.16564 6.98481 6.57985 6.98481H13.2297C13.4892 6.40443 14.0715 6 14.7484 6C15.4252 6 16.0076 6.40443 16.267 6.98481ZM6.57977 11.3228H7.44618C7.7055 10.7421 8.28802 10.3374 8.96507 10.3374C9.64211 10.3374 10.2246 10.7421 10.484 11.3228H17.423C17.8373 11.3228 18.173 11.6585 18.173 12.0728C18.173 12.487 17.8373 12.8228 17.423 12.8228H10.4102C10.124 13.3245 9.58402 13.6627 8.96507 13.6627C8.34611 13.6627 7.80615 13.3245 7.51992 12.8228H6.57977C6.16556 12.8228 5.82977 12.487 5.82977 12.0728C5.82977 11.6585 6.16556 11.3228 6.57977 11.3228ZM5.82977 16.4092C5.82977 15.995 6.16556 15.6592 6.57977 15.6592H13.2296C13.489 15.0788 14.0714 14.6743 14.7483 14.6743C15.4251 14.6743 16.0075 15.0788 16.2669 15.6592H17.423C17.8373 15.6592 18.173 15.995 18.173 16.4092C18.173 16.8234 17.8373 17.1592 17.423 17.1592H16.1937C15.9075 17.6612 15.3674 17.9996 14.7483 17.9996C14.1291 17.9996 13.589 17.6612 13.3028 17.1592H6.57977C6.16556 17.1592 5.82977 16.8234 5.82977 16.4092Z" fill="black"/>
</svg>
