<svg width="24" height="24" viewBox="0 0 24 24" fill="none" xmlns="http://www.w3.org/2000/svg">
<path d="M0 12C0 18.6274 5.37258 24 12 24C18.6274 24 24 18.6274 24 12C24 5.37258 18.6274 0 12 0C5.37258 0 0 5.37258 0 12ZM16.2458 6C16.332 5.99989 16.4196 6.01702 16.5038 6.05333C16.6746 6.12699 16.7976 6.26513 16.8568 6.42701L18.1715 9.48523C18.1876 9.51582 18.2015 9.54785 18.2127 9.58108L18.4862 10.2174C18.628 10.5472 18.4755 10.9295 18.1457 11.0712C17.8159 11.213 17.4336 11.0606 17.2919 10.7308L17.1664 10.4388H15.3199L15.1937 10.7315C15.0515 11.0612 14.669 11.2131 14.3394 11.0709C14.0097 10.9287 13.8578 10.5462 14 10.2166L14.2815 9.5639C14.2896 9.54202 14.2988 9.5207 14.3091 9.50001L15.635 6.42623C15.6945 6.26443 15.8177 6.12644 15.9886 6.053C16.0725 6.01691 16.1599 5.99989 16.2458 6ZM16.2448 8.29489L15.8807 9.13883H16.6075L16.2448 8.29489ZM11.6312 9.89882C11.5082 10.1995 11.2156 10.3959 10.8908 10.3959H8.99548V17.6905C8.99548 18.0495 8.70447 18.3405 8.34548 18.3405C7.9865 18.3405 7.69548 18.0495 7.69548 17.6905V10.3959H5.80002C5.47645 10.3959 5.18474 10.201 5.06092 9.90203C4.9371 9.60309 5.00554 9.25899 5.23434 9.03019L7.60001 6.66453C7.63446 6.60206 7.6779 6.5432 7.73035 6.48982C7.89255 6.32478 8.10874 6.24498 8.32315 6.25089C8.53521 6.24504 8.74916 6.32305 8.91101 6.4849C8.96368 6.53757 9.00747 6.59576 9.04238 6.6576L11.4515 9.02531C11.6832 9.253 11.7542 9.59817 11.6312 9.89882ZM13.9467 13.5037C13.9467 13.1447 14.2377 12.8537 14.5967 12.8537H17.8902C18.1449 12.8537 18.3761 13.0024 18.4817 13.2342C18.5873 13.466 18.5478 13.738 18.3807 13.9302L16.0234 16.6407H17.8902C18.2492 16.6407 18.5402 16.9317 18.5402 17.2907C18.5402 17.6497 18.2492 17.9407 17.8902 17.9407H14.5967C14.342 17.9407 14.1107 17.7919 14.0052 17.5602C13.8996 17.3284 13.9391 17.0563 14.1062 16.8641L16.4635 14.1537H14.5967C14.2377 14.1537 13.9467 13.8627 13.9467 13.5037Z" fill="black"/>
</svg>
