<svg width="24" height="24" viewBox="0 0 24 24" fill="none" xmlns="http://www.w3.org/2000/svg">
<path d="M15.714 7.49461L15.7128 7.49179C15.6741 7.39905 15.6213 7.32254 15.5548 7.25966L15.5464 7.25181C15.4836 7.18523 15.4073 7.13222 15.3146 7.09358L15.3117 7.0924C15.2263 7.05528 15.1315 7.03565 15.0249 7.03565C14.9188 7.03565 14.8209 7.05505 14.7293 7.09299C14.6408 7.13167 14.5619 7.18554 14.4918 7.25568C14.4286 7.31884 14.3766 7.39661 14.337 7.49179L14.3358 7.49462C14.2987 7.58 14.2791 7.6748 14.2791 7.78147C14.2791 7.88753 14.2985 7.98548 14.3364 8.07707C14.3753 8.16615 14.427 8.24498 14.4918 8.31451C14.5614 8.37931 14.6402 8.43102 14.7293 8.46993C14.8209 8.50788 14.9188 8.52729 15.0249 8.52729C15.1315 8.52729 15.2263 8.50767 15.3117 8.47055L15.3145 8.46933C15.4097 8.42967 15.4875 8.37775 15.5507 8.31458C15.6208 8.24444 15.6747 8.16555 15.7134 8.07705C15.7513 7.98546 15.7707 7.88752 15.7707 7.78147C15.7707 7.6748 15.7511 7.57999 15.714 7.49461Z" fill="black"/>
<path d="M0 12C0 18.6274 5.37258 24 12 24C18.6274 24 24 18.6274 24 12C24 5.37258 18.6274 0 12 0C5.37258 0 0 5.37258 0 12ZM15.1934 11.4788H13.6449L14.845 9.62917C14.817 9.63049 14.789 9.63115 14.7609 9.63115C14.505 9.63115 14.2659 9.58198 14.0466 9.48077C13.8328 9.38209 13.6454 9.24716 13.4858 9.07654L13.4834 9.07399C13.3294 8.90353 13.2094 8.70648 13.1229 8.48472L13.1213 8.48074C13.0395 8.25716 12.9992 8.02115 12.9992 7.77413C12.9992 7.48193 13.0498 7.21064 13.1543 6.96315C13.2571 6.71956 13.3996 6.5101 13.5828 6.33801C13.7695 6.16232 13.9883 6.02876 14.237 5.93685L14.2383 5.93637C14.4916 5.84477 14.7616 5.7998 15.0469 5.7998C15.3356 5.7998 15.6054 5.84433 15.8543 5.93595C16.1069 6.02227 16.3266 6.15046 16.5098 6.32226C16.6985 6.49462 16.8418 6.70501 16.9402 6.95024C17.0444 7.1977 17.0945 7.47094 17.0945 7.7668C17.0945 8.06305 17.0443 8.33835 16.9405 8.58998C16.8478 8.82162 16.7276 9.05638 16.5808 9.29422L16.5795 9.29643L15.1934 11.4788ZM15.2532 14.2776L14.4602 15.011L13.6821 14.0885L15.4616 12.6084H16.5331V18.1994H15.2532V14.2776ZM8.97622 6.09903C9.30816 5.76709 9.84648 5.76696 10.1784 6.09891L12.557 8.47746C12.8889 8.80941 12.8889 9.3476 12.557 9.67954C12.3737 9.86286 12.1274 9.94494 11.8878 9.92578C11.8652 9.92758 11.8423 9.9285 11.8193 9.9285H10.3271V17.5C10.3271 17.9142 9.99129 18.25 9.57707 18.25C9.16286 18.25 8.82707 17.9142 8.82707 17.5V9.9285H7.1993C6.85551 9.9285 6.54556 9.72141 6.414 9.40378C6.28244 9.08616 6.35516 8.72056 6.59826 8.47746L8.97622 6.09903Z" fill="black"/>
</svg>
