<svg width="24" height="24" viewBox="0 0 24 24" fill="none" xmlns="http://www.w3.org/2000/svg">
<path d="M12 24C18.6274 24 24 18.6274 24 12C24 5.37258 18.6274 0 12 0C5.37258 0 0 5.37258 0 12C0 18.6274 5.37258 24 12 24ZM11.7812 8.66775C11.7812 8.22592 12.1394 7.86775 12.5813 7.86775H18.0006C18.4424 7.86775 18.8006 8.22592 18.8006 8.66775C18.8006 9.10958 18.4424 9.46775 18.0006 9.46775H12.5813C12.1394 9.46775 11.7812 9.10958 11.7812 8.66775ZM12.5813 11.3512H18.0006C18.4424 11.3512 18.8006 11.7093 18.8006 12.1512C18.8006 12.593 18.4424 12.9512 18.0006 12.9512H12.5813C12.1394 12.9512 11.7812 12.593 11.7812 12.1512C11.7812 11.7093 12.1394 11.3512 12.5813 11.3512ZM11.7812 15.6355C11.7812 15.1937 12.1394 14.8355 12.5813 14.8355H18.0006C18.4424 14.8355 18.8006 15.1937 18.8006 15.6355C18.8006 16.0774 18.4424 16.4355 18.0006 16.4355H12.5813C12.1394 16.4355 11.7812 16.0774 11.7812 15.6355ZM8.14875 16.5639C8.11473 16.5639 8.08072 16.5618 8.0469 16.5578C7.86444 16.5359 7.68773 16.4549 7.54771 16.3149L5.39935 14.1665C5.23338 14.0006 5.15039 13.783 5.15039 13.5655C5.15039 13.4503 5.17333 13.3404 5.21489 13.2401C5.25542 13.1422 5.31507 13.0502 5.39383 12.97C5.39749 12.9663 5.40119 12.9626 5.40492 12.9589C5.48446 12.8808 5.57555 12.8215 5.67263 12.781C5.7735 12.7388 5.88422 12.7155 6.00039 12.7155H7.34961V8.28135C7.34961 7.83952 7.70778 7.48135 8.14961 7.48135C8.59144 7.48135 8.94961 7.83952 8.94961 8.28135V12.7155H10.2972C10.641 12.7155 10.951 12.9226 11.0825 13.2402C11.2141 13.5578 11.1414 13.9234 10.8983 14.1665L8.74992 16.3149C8.58391 16.4809 8.36633 16.5639 8.14875 16.5639Z" fill="black"/>
</svg>
