<svg width="24" height="24" viewBox="0 0 24 24" fill="none" xmlns="http://www.w3.org/2000/svg">
<path d="M0 12C0 18.6274 5.37258 24 12 24C18.6274 24 24 18.6274 24 12C24 5.37258 18.6274 0 12 0C5.37258 0 0 5.37258 0 12ZM13.6452 11.479L14.8454 9.62935C14.8173 9.63067 14.7893 9.63133 14.7613 9.63133C14.5053 9.63133 14.2662 9.58217 14.0469 9.48095C13.8331 9.38227 13.6457 9.24735 13.4861 9.07673L13.4837 9.07417C13.3297 8.90371 13.2098 8.70666 13.1232 8.4849L13.1217 8.48093C13.0399 8.25734 12.9996 8.02133 12.9996 7.77432C12.9996 7.48212 13.0501 7.21082 13.1546 6.96333C13.2575 6.71974 13.3999 6.51028 13.5831 6.33819C13.7698 6.1625 13.9887 6.02894 14.2374 5.93703L14.2387 5.93655C14.4919 5.84495 14.7619 5.79999 15.0472 5.79999C15.3359 5.79999 15.6057 5.84451 15.8546 5.93613C16.1072 6.02246 16.3269 6.15065 16.5101 6.32244C16.6988 6.4948 16.8422 6.70519 16.9405 6.95043C17.0447 7.19788 17.0949 7.47112 17.0949 7.76698C17.0949 8.06323 17.0446 8.33853 16.9408 8.59016C16.8481 8.82181 16.7279 9.05656 16.5812 9.2944L16.5798 9.29661L15.1938 11.479H13.6452ZM15.7131 7.49197C15.6745 7.39923 15.6217 7.32272 15.5551 7.25984L15.5468 7.25199C15.4839 7.18542 15.4076 7.13241 15.3149 7.09376L15.3121 7.09258C15.2267 7.05546 15.1319 7.03583 15.0252 7.03583C14.9192 7.03583 14.8212 7.05523 14.7296 7.09318C14.6411 7.13186 14.5622 7.18572 14.4921 7.25586C14.4289 7.31903 14.377 7.3968 14.3373 7.49197L14.3361 7.49481C14.299 7.58019 14.2794 7.67498 14.2794 7.78165C14.2794 7.88771 14.2988 7.98566 14.3367 8.07726C14.3757 8.16634 14.4274 8.24516 14.4922 8.31469C14.5617 8.37949 14.6405 8.4312 14.7296 8.47012C14.8212 8.50807 14.9192 8.52747 15.0252 8.52747C15.1319 8.52747 15.2267 8.50786 15.3121 8.47074L15.3149 8.46951C15.4101 8.42985 15.4878 8.37793 15.551 8.31476C15.6211 8.24462 15.675 8.16573 15.7137 8.07724C15.7516 7.98564 15.771 7.88771 15.771 7.78165C15.771 7.67498 15.7514 7.58018 15.7143 7.4948L15.7131 7.49197ZM15.2536 14.2778L14.4605 15.0112L13.6825 14.0887L15.4619 12.6086H16.5334V18.1996H15.2536V14.2778ZM10.1793 18.0003L10.1792 18.0004C9.84725 18.3324 9.30906 18.3324 8.97712 18.0004L6.59857 15.6219C6.26662 15.2899 6.26662 14.7518 6.59857 14.4198C6.78189 14.2365 7.02812 14.1544 7.26778 14.1736C7.29037 14.1718 7.31322 14.1709 7.33628 14.1709H8.82847V6.59935C8.82847 6.18514 9.16425 5.84935 9.57847 5.84935C9.99268 5.84935 10.3285 6.18514 10.3285 6.59935V14.1709H11.9562C12.3 14.1709 12.61 14.3779 12.7415 14.6956C12.8731 15.0132 12.8004 15.3788 12.5573 15.6219L10.1793 18.0003Z" fill="black"/>
</svg>
