<svg width="24" height="24" viewBox="0 0 24 24" fill="none" xmlns="http://www.w3.org/2000/svg">
<path d="M0 12C0 18.6274 5.37258 24 12 24C18.6274 24 24 18.6274 24 12C24 5.37258 18.6274 0 12 0C5.37258 0 0 5.37258 0 12ZM12.5805 7.86796H17.9998C18.4416 7.86796 18.7998 8.22614 18.7998 8.66796C18.7998 9.10979 18.4416 9.46796 17.9998 9.46796H12.5805C12.1386 9.46796 11.7805 9.10979 11.7805 8.66796C11.7805 8.22614 12.1386 7.86796 12.5805 7.86796ZM12.5805 11.3514H17.9998C18.4416 11.3514 18.7998 11.7095 18.7998 12.1514C18.7998 12.5932 18.4416 12.9514 17.9998 12.9514H12.5805C12.1386 12.9514 11.7805 12.5932 11.7805 12.1514C11.7805 11.7095 12.1386 11.3514 12.5805 11.3514ZM11.7805 15.6357C11.7805 15.1939 12.1386 14.8357 12.5805 14.8357H17.9998C18.4416 14.8357 18.7998 15.1939 18.7998 15.6357C18.7998 16.0776 18.4416 16.4357 17.9998 16.4357H12.5805C12.1386 16.4357 11.7805 16.0776 11.7805 15.6357ZM7.34882 11.2796H6.00042C5.65662 11.2796 5.34668 11.0725 5.21512 10.7549C5.08355 10.4373 5.15628 10.0717 5.39937 9.82856L7.54786 7.6802C7.87981 7.34826 8.418 7.34826 8.74994 7.6802L10.8983 9.82856C10.9798 9.91006 11.0413 10.004 11.0828 10.1042C11.1243 10.2045 11.1473 10.3144 11.1473 10.4296C11.1473 10.5449 11.1243 10.6547 11.0828 10.755C11.0422 10.8529 10.9826 10.9449 10.9038 11.0251L10.8927 11.0362C10.8132 11.1143 10.7221 11.1736 10.625 11.2141C10.5242 11.2563 10.4134 11.2796 10.2973 11.2796H8.94882V15.7138C8.94882 16.1556 8.59065 16.5138 8.14882 16.5138C7.707 16.5138 7.34882 16.1556 7.34882 15.7138V11.2796Z" fill="black"/>
</svg>
