<svg width="24" height="24" viewBox="0 0 24 24" fill="none" xmlns="http://www.w3.org/2000/svg">
<path d="M12 0C5.37258 0 0 5.37258 0 12C0 18.6274 5.37258 24 12 24C18.6274 24 24 18.6274 24 12C24 5.37258 18.6274 0 12 0ZM12.2026 3.51393C16.5349 4.10464 19.8725 7.81672 19.8725 12.3108C19.8725 13.9255 19.4401 15.4438 18.6838 16.7513C18.269 17.4684 17.3514 17.7134 16.6343 17.2986C15.9172 16.8838 15.6721 15.9662 16.087 15.2491C16.5863 14.3859 16.8725 13.3841 16.8725 12.3108C16.8725 9.33728 14.6634 6.87721 11.7973 6.48643C10.9765 6.37451 10.4018 5.61836 10.5137 4.79753C10.6257 3.9767 11.3818 3.40201 12.2026 3.51393Z" fill="black"/>
</svg>
