<svg width="24" height="24" viewBox="0 0 24 24" fill="none" xmlns="http://www.w3.org/2000/svg">
<path d="M0 12C0 18.6274 5.37258 24 12 24C18.6274 24 24 18.6274 24 12C24 5.37258 18.6274 0 12 0C5.37258 0 0 5.37258 0 12ZM13.9365 9.12529C14.0781 9.42687 14.3605 9.63814 14.6898 9.68875L18.0389 10.2035C18.441 10.2653 18.6049 10.7559 18.3207 11.047L15.8527 13.5746C15.6309 13.8018 15.5302 14.1208 15.5813 14.4342L16.1602 17.9836C16.2274 18.3956 15.7901 18.7036 15.4248 18.5016L12.4839 16.8754C12.1828 16.7089 11.8172 16.7089 11.5161 16.8754L8.57523 18.5016C8.20994 18.7036 7.77259 18.3956 7.83978 17.9836L8.41872 14.4342C8.46983 14.1208 8.36909 13.8018 8.14727 13.5746L5.67935 11.047C5.39512 10.7559 5.55902 10.2653 5.96114 10.2035L9.31018 9.68875C9.63947 9.63814 9.92192 9.42687 10.0635 9.12529L11.5474 5.96419C11.7274 5.58081 12.2726 5.58081 12.4526 5.96419L13.9365 9.12529Z" fill="black"/>
</svg>
