<svg width="24" height="24" viewBox="0 0 24 24" fill="none" xmlns="http://www.w3.org/2000/svg">
<path d="M12 24C18.6274 24 24 18.6274 24 12C24 5.37258 18.6274 0 12 0C5.37258 0 0 5.37258 0 12C0 18.6274 5.37258 24 12 24ZM15.7871 5.25C16.2013 5.25 16.5371 5.58579 16.5371 6V18C16.5371 18.4142 16.2013 18.75 15.7871 18.75C15.3729 18.75 15.0371 18.4142 15.0371 18V6C15.0371 5.58579 15.3729 5.25 15.7871 5.25ZM14.317 11.1443C14.3422 11.1692 14.3691 11.1923 14.3959 11.2154C14.4058 11.2239 14.4156 11.2323 14.4254 11.2409C14.8556 11.6176 14.8558 12.3817 14.4255 12.7581C14.4156 12.7667 14.4055 12.7753 14.3955 12.7839C14.3683 12.8073 14.341 12.8307 14.3155 12.8559L9.48526 17.6231C9.45106 17.6568 9.41492 17.6891 9.37388 17.7141C8.84626 18.0354 8.19922 17.5868 8.19922 16.8689V7.13058C8.19922 6.41295 8.84586 5.96525 9.37339 6.28522C9.41476 6.31032 9.45119 6.34279 9.48563 6.37678L14.317 11.1443Z" fill="black"/>
</svg>
