<svg width="24" height="24" viewBox="0 0 24 24" fill="none" xmlns="http://www.w3.org/2000/svg">
<path d="M0 12C0 18.6274 5.37258 24 12 24C18.6274 24 24 18.6274 24 12C24 5.37258 18.6274 0 12 0C5.37258 0 0 5.37258 0 12ZM7.44922 18V6C7.44922 5.58579 7.78501 5.25 8.19922 5.25C8.61343 5.25 8.94922 5.58579 8.94922 6V18C8.94922 18.4142 8.61343 18.75 8.19922 18.75C7.78501 18.75 7.44922 18.4142 7.44922 18ZM9.66936 12.8557C9.64416 12.8308 9.61727 12.8077 9.59039 12.7846L9.56091 12.7591C9.13076 12.3824 9.13054 11.6183 9.56085 11.2419L9.59081 11.2161C9.61806 11.1927 9.64532 11.1693 9.67085 11.1441L14.5011 6.37693C14.5353 6.34318 14.5714 6.31092 14.6125 6.28593C15.1401 5.96463 15.7871 6.41323 15.7871 7.13109V16.8694C15.7871 17.5871 15.1405 18.0348 14.6129 17.7148C14.5716 17.6897 14.5351 17.6572 14.5007 17.6232L9.66936 12.8557Z" fill="black"/>
</svg>
