<svg width="24" height="24" viewBox="0 0 24 24" fill="none" xmlns="http://www.w3.org/2000/svg">
<path d="M12 0C5.37258 0 0 5.37258 0 12C0 18.6274 5.37258 24 12 24C18.6274 24 24 18.6274 24 12C24 5.37258 18.6274 0 12 0ZM12.75 6V7.63636C12.75 8.05058 12.4142 8.38636 12 8.38636C11.5858 8.38636 11.25 8.05058 11.25 7.63636V6C11.25 5.58579 11.5858 5.25 12 5.25C12.4142 5.25 12.75 5.58579 12.75 6ZM12 9.27295C13.5061 9.27295 14.7273 10.4941 14.7273 12.0002C14.7273 13.5064 13.5061 14.7275 12 14.7275C10.4938 14.7275 9.27271 13.5064 9.27271 12.0002C9.27271 10.4941 10.4938 9.27295 12 9.27295ZM16.1945 7.80561C16.4874 8.0985 16.4874 8.57337 16.1945 8.86627L15.6158 9.44499C15.3229 9.73789 14.848 9.73789 14.5551 9.44499C14.2622 9.1521 14.2622 8.67723 14.5551 8.38433L15.1338 7.80561C15.4267 7.51271 15.9016 7.51271 16.1945 7.80561ZM15.6158 14.5551L16.1945 15.1338C16.4874 15.4267 16.4874 15.9016 16.1945 16.1945C15.9016 16.4874 15.4267 16.4874 15.1338 16.1945L14.5551 15.6158C14.2622 15.3229 14.2622 14.848 14.5551 14.5551C14.848 14.2622 15.3229 14.2622 15.6158 14.5551ZM9.44499 14.5551C9.73789 14.848 9.73789 15.3229 9.44499 15.6158L8.86627 16.1945C8.57337 16.4874 8.0985 16.4874 7.80561 16.1945C7.51271 15.9016 7.51271 15.4267 7.80561 15.1338L8.38433 14.5551C8.67723 14.2622 9.1521 14.2622 9.44499 14.5551ZM8.86627 7.80561L9.44499 8.38433C9.73789 8.67723 9.73789 9.1521 9.44499 9.44499C9.1521 9.73789 8.67723 9.73789 8.38433 9.44499L7.80561 8.86627C7.51271 8.57337 7.51271 8.0985 7.80561 7.80561C8.0985 7.51271 8.57337 7.51271 8.86627 7.80561ZM15.6136 12C15.6136 11.5858 15.9494 11.25 16.3636 11.25H18C18.4142 11.25 18.75 11.5858 18.75 12C18.75 12.4142 18.4142 12.75 18 12.75H16.3636C15.9494 12.75 15.6136 12.4142 15.6136 12ZM12.75 16.3638V18.0001C12.75 18.4143 12.4142 18.7501 12 18.7501C11.5858 18.7501 11.25 18.4143 11.25 18.0001V16.3638C11.25 15.9496 11.5858 15.6138 12 15.6138C12.4142 15.6138 12.75 15.9496 12.75 16.3638ZM5.25 12C5.25 11.5858 5.58579 11.25 6 11.25H7.63636C8.05058 11.25 8.38636 11.5858 8.38636 12C8.38636 12.4142 8.05058 12.75 7.63636 12.75H6C5.58579 12.75 5.25 12.4142 5.25 12Z" fill="black"/>
</svg>
