<svg width="24" height="24" viewBox="0 0 24 24" fill="none" xmlns="http://www.w3.org/2000/svg">
<path d="M0 12C0 18.6274 5.37258 24 12 24C18.6274 24 24 18.6274 24 12C24 5.37258 18.6274 0 12 0C5.37258 0 0 5.37258 0 12ZM12.942 4.46967L14.342 5.86964C14.6349 6.16254 14.6349 6.63741 14.342 6.9303L14.1365 7.1358C14.1215 7.15227 14.1057 7.16801 14.0893 7.18299L12.942 8.33028C12.6492 8.62317 12.1743 8.62317 11.8814 8.33028C11.5885 8.03738 11.5885 7.56251 11.8814 7.26962L12.0013 7.14966H11.9999C9.32157 7.14966 7.15 9.32122 7.15 11.9996C7.15 12.7221 7.30802 13.4056 7.59054 14.0196C7.76366 14.3959 7.59896 14.8413 7.22266 15.0145C6.84637 15.1876 6.40097 15.0229 6.22784 14.6466C5.85682 13.8402 5.65 12.9432 5.65 11.9996C5.65 8.4928 8.49396 5.64966 12.0007 5.64966L11.8814 5.53033C11.5885 5.23744 11.5885 4.76256 11.8814 4.46967C12.1743 4.17678 12.6492 4.17678 12.942 4.46967ZM12.1155 16.7303L11.9964 16.8493L12.0004 16.8493C14.6788 16.8493 16.8503 14.6778 16.8503 11.9995C16.8503 11.2768 16.6918 10.594 16.4087 9.98046C16.2352 9.60436 16.3993 9.15877 16.7754 8.98521C17.1515 8.81165 17.5971 8.97584 17.7707 9.35194C18.1427 10.158 18.3503 11.0549 18.3503 11.9995C18.3503 15.5062 15.5072 18.3493 12.0004 18.3493L11.9952 18.3493L12.1155 18.4696C12.4084 18.7625 12.4084 19.2373 12.1155 19.5302C11.8226 19.8231 11.3477 19.8231 11.0548 19.5302L9.65483 18.1303C9.36193 17.8374 9.36193 17.3625 9.65483 17.0696L11.0548 15.6696C11.3477 15.3767 11.8226 15.3767 12.1155 15.6696C12.4084 15.9625 12.4084 16.4374 12.1155 16.7303Z" fill="black"/>
</svg>
