<svg width="24" height="24" viewBox="0 0 24 24" fill="none" xmlns="http://www.w3.org/2000/svg">
<path d="M12 24C18.6274 24 24 18.6274 24 12C24 5.37258 18.6274 0 12 0C5.37258 0 0 5.37258 0 12C0 18.6274 5.37258 24 12 24ZM15.3333 7H8.5C8.22386 7 8 7.22386 8 7.5V15.9717H15.8333V7.5C15.8333 7.22386 15.6095 7 15.3333 7ZM8.5 5.5H15.3333C16.4379 5.5 17.3333 6.39543 17.3333 7.5V16.5C17.3333 17.6046 16.4379 18.5 15.3333 18.5H8.5C7.39543 18.5 6.5 17.6046 6.5 16.5V7.5C6.5 6.39543 7.39543 5.5 8.5 5.5ZM12.5305 17.2369C12.5305 16.8979 12.2557 16.623 11.9166 16.623C11.5776 16.623 11.3027 16.8979 11.3027 17.2369C11.3027 17.576 11.5776 17.8508 11.9166 17.8508C12.2557 17.8508 12.5305 17.576 12.5305 17.2369Z" fill="black"/>
</svg>
