<svg width="24" height="24" viewBox="0 0 24 24" fill="none" xmlns="http://www.w3.org/2000/svg">
<path d="M12 24C18.6274 24 24 18.6274 24 12C24 5.37258 18.6274 0 12 0C5.37258 0 0 5.37258 0 12C0 18.6274 5.37258 24 12 24ZM14.1799 7.11787C14.4341 6.86444 14.8457 6.86509 15.0991 7.11933L18.0398 10.0694C19.0771 11.11 19.0697 12.7959 18.0234 13.8274L14.9462 16.861C14.6905 17.113 14.279 17.1101 14.027 16.8544C13.7749 16.5988 13.7779 16.1872 14.0335 15.9352L17.1107 12.9016C17.6438 12.3761 17.6475 11.5173 17.1191 10.9872L14.1784 8.03711C13.925 7.78287 13.9256 7.37131 14.1799 7.11787ZM10.2337 6.12012C10.7121 6.12012 11.1708 6.31054 11.5085 6.64935L15.5171 10.6707C16.2217 11.3775 16.2167 12.5227 15.506 13.2233L12.0548 16.6256C11.3506 17.3198 10.2181 17.316 9.51869 16.6169L5.52755 12.6279C5.18978 12.2903 5 11.8323 5 11.3548V7.92012C5 6.926 5.80589 6.12012 6.8 6.12012H10.2337ZM8.35845 10.1974C8.75489 10.1974 9.07627 9.87598 9.07627 9.47954C9.07627 9.0831 8.75489 8.76172 8.35845 8.76172C7.962 8.76172 7.64062 9.0831 7.64062 9.47954C7.64062 9.87598 7.962 10.1974 8.35845 10.1974Z" fill="black"/>
</svg>
