<svg width="24" height="24" viewBox="0 0 24 24" fill="none" xmlns="http://www.w3.org/2000/svg">
<path d="M24 12C24 5.37258 18.6274 0 12 0C5.37258 0 0 5.37258 0 12C0 18.6274 5.37258 24 12 24C18.6274 24 24 18.6274 24 12ZM11.0137 15.6923C11.0137 15.2505 11.3718 14.8923 11.8137 14.8923H16.9989C17.4407 14.8923 17.7989 15.2505 17.7989 15.6923C17.7989 16.1342 17.4407 16.4923 16.9989 16.4923H11.8137C11.3718 16.4923 11.0137 16.1342 11.0137 15.6923ZM7.57548 7.44504L11.2792 11.2912C11.5775 11.601 11.5775 12.0912 11.2792 12.401L7.57548 16.2472C7.26901 16.5654 6.76256 16.575 6.44431 16.2685C6.12605 15.962 6.11649 15.4556 6.42296 15.1373L9.59231 11.8461L6.42296 8.55487C6.11649 8.23661 6.12605 7.73017 6.44431 7.4237C6.76256 7.11723 7.26901 7.12678 7.57548 7.44504Z" fill="black"/>
</svg>
