<svg width="24" height="24" viewBox="0 0 24 24" fill="none" xmlns="http://www.w3.org/2000/svg">
<path d="M12 0C5.37258 0 0 5.37258 0 12C0 18.6274 5.37258 24 12 24C18.6274 24 24 18.6274 24 12C24 5.37258 18.6274 0 12 0ZM17.1241 10.8663L14.4403 10.8663C13.8757 10.8663 13.4174 10.4081 13.4174 9.84342V7.32295C13.4174 6.75831 13.8757 6.30005 14.4403 6.30005L16.9771 6.30005C17.5417 6.30005 18 6.75831 18 7.32295V9.84341C18 10.4081 17.6888 10.8663 17.1241 10.8663ZM11.7846 6.78772C11.7846 7.20194 11.4488 7.53772 11.0346 7.53772H6.00003C5.58582 7.53772 5.25003 7.20194 5.25003 6.78772C5.25003 6.37351 5.58582 6.03772 6.00003 6.03772H11.0346C11.4488 6.03772 11.7846 6.37351 11.7846 6.78772ZM11.0346 9.63377C11.4488 9.63377 11.7846 9.96956 11.7846 10.3838C11.7846 10.798 11.4488 11.1338 11.0346 11.1338H6.00003C5.58582 11.1338 5.25003 10.798 5.25003 10.3838C5.25003 9.96956 5.58582 9.63377 6.00003 9.63377H11.0346ZM18.2578 13.9797C18.2578 14.3939 17.922 14.7297 17.5078 14.7297H6.0002C5.58598 14.7297 5.2502 14.3939 5.2502 13.9797C5.2502 13.5655 5.58598 13.2297 6.0002 13.2297H17.5078C17.922 13.2297 18.2578 13.5655 18.2578 13.9797ZM17.5078 16.8261C17.922 16.8261 18.2578 17.1619 18.2578 17.5761C18.2578 17.9903 17.922 18.3261 17.5078 18.3261H6.0002C5.58599 18.3261 5.2502 17.9903 5.2502 17.5761C5.2502 17.1619 5.58599 16.8261 6.0002 16.8261H17.5078Z" fill="black"/>
</svg>
