<svg width="24" height="24" viewBox="0 0 24 24" fill="none" xmlns="http://www.w3.org/2000/svg">
<path d="M12 24C18.6274 24 24 18.6274 24 12C24 5.37258 18.6274 0 12 0C5.37258 0 0 5.37258 0 12C0 18.6274 5.37258 24 12 24ZM11.4191 14.1612H8.32766C7.14965 14.1612 6.28915 13.0483 6.58558 11.9082L7.50314 8.37913C7.70939 7.58584 8.42555 7.03207 9.24522 7.03207H14.4578C14.8996 7.03207 15.2578 7.39024 15.2578 7.83207V13.0644L13.0643 17.9999C12.1557 17.9999 11.4191 17.2633 11.4191 16.3547V14.1612ZM17 7.03159C17.5523 7.03159 18 7.4793 18 8.03159V12.0638C18 12.6161 17.5523 13.0638 17 13.0638H16.2667V7.03159H17Z" fill="black"/>
</svg>
