<svg width="24" height="24" viewBox="0 0 24 24" fill="none" xmlns="http://www.w3.org/2000/svg">
<path d="M12 0C5.37258 0 0 5.37258 0 12C0 18.6274 5.37258 24 12 24C18.6274 24 24 18.6274 24 12C24 5.37258 18.6274 0 12 0ZM12.5809 9.83859H15.6723C16.8503 9.83859 17.7108 10.9514 17.4144 12.0915L16.4969 15.6206C16.2906 16.4139 15.5745 16.9677 14.7548 16.9677H9.54219C9.10036 16.9677 8.74219 16.6095 8.74219 16.1677V10.9354L10.9357 5.99988C11.8443 5.99988 12.5809 6.73644 12.5809 7.64504V9.83859ZM7 16.9682C6.44772 16.9682 6 16.5205 6 15.9682V11.9359C6 11.3836 6.44772 10.9359 7 10.9359H7.73332V16.9682H7Z" fill="black"/>
</svg>
