<svg width="24" height="24" viewBox="0 0 24 24" fill="none" xmlns="http://www.w3.org/2000/svg">
<path d="M24 12C24 18.6274 18.6274 24 12 24C5.37258 24 0 18.6274 0 12C0 5.37258 5.37258 0 12 0C18.6274 0 24 5.37258 24 12ZM7.32825 16.8719C7.69925 17.2429 8.30075 17.2429 8.67175 16.8719L12.2598 13.2839L15.8478 16.8719C16.2188 17.2429 16.8203 17.2429 17.1913 16.8719C17.5623 16.5009 17.5623 15.8994 17.1913 15.5284L13.6033 11.9404L17.1913 8.35243C17.5623 7.98143 17.5623 7.37992 17.1913 7.00893C16.8203 6.63793 16.2188 6.63793 15.8478 7.00893L12.2598 10.5969L8.67175 7.00891C8.30075 6.63792 7.69925 6.63792 7.32825 7.00891C6.95725 7.37991 6.95725 7.98142 7.32825 8.35242L10.9163 11.9404L7.32825 15.5284C6.95725 15.8994 6.95725 16.5009 7.32825 16.8719Z" fill="black"/>
</svg>
