<svg width="24" height="24" viewBox="0 0 24 24" fill="none" xmlns="http://www.w3.org/2000/svg">
<path d="M12 0C5.37258 0 0 5.37258 0 12C0 18.6274 5.37258 24 12 24C18.6274 24 24 18.6274 24 12C24 5.37258 18.6274 0 12 0ZM12.8763 5.21802C13.1867 5.38283 13.4426 5.63187 13.6129 5.93583L18.7721 15.1424C19.2645 16.0211 18.9318 17.1224 18.0355 17.5982C17.7663 17.7412 17.465 17.816 17.159 17.816H6.84056C5.82695 17.816 5 17.011 5 16.0114C5 15.7075 5.0783 15.4086 5.22744 15.1424L10.3867 5.93583C10.8748 5.0648 11.9876 4.74621 12.8763 5.21802ZM9.69077 11.6096L11.1101 13.0289L9.69038 14.4486C9.43654 14.7025 9.43654 15.114 9.69038 15.3679C9.94422 15.6217 10.3558 15.6217 10.6096 15.3679L12.0293 13.9482L13.4489 15.3678C13.7027 15.6216 14.1143 15.6216 14.3681 15.3678C14.622 15.1139 14.622 14.7024 14.3681 14.4485L12.9485 13.0289L14.3678 11.6097C14.6216 11.3559 14.6216 10.9443 14.3678 10.6905C14.1139 10.4366 13.7024 10.4366 13.4485 10.6905L12.0293 12.1097L10.61 10.6904C10.3562 10.4365 9.94461 10.4365 9.69077 10.6904C9.43692 10.9442 9.43692 11.3558 9.69077 11.6096Z" fill="black"/>
</svg>
