<svg width="24" height="24" viewBox="0 0 24 24" fill="none" xmlns="http://www.w3.org/2000/svg">
<path d="M24 12C24 5.37258 18.6274 0 12 0C5.37258 0 0 5.37258 0 12C0 18.6274 5.37258 24 12 24C18.6274 24 24 18.6274 24 12ZM19 12.0003C19 14.3199 17.0848 16.2003 14.7222 16.2003H9.27778C6.91523 16.2003 5 14.3199 5 12.0003C5 9.6807 6.91523 7.80029 9.27778 7.80029H14.7222C17.0848 7.80029 19 9.6807 19 12.0003ZM9.2 14.4503C10.5531 14.4503 11.65 13.3534 11.65 12.0003C11.65 10.6472 10.5531 9.55029 9.2 9.55029C7.8469 9.55029 6.75 10.6472 6.75 12.0003C6.75 13.3534 7.8469 14.4503 9.2 14.4503Z" fill="black"/>
</svg>
