<svg width="24" height="24" viewBox="0 0 24 24" fill="none" xmlns="http://www.w3.org/2000/svg">
<path d="M24 12C24 5.37258 18.6274 0 12 0C5.37258 0 0 5.37258 0 12C0 18.6274 5.37258 24 12 24C18.6274 24 24 18.6274 24 12ZM11.0469 6.3H12.9416C13.3041 6.3 13.6023 6.5756 13.638 6.92871H10.3505C10.3862 6.5756 10.6843 6.3 11.0469 6.3ZM12.9416 5C14.0223 5 14.9028 5.85716 14.9403 6.92871H17.8889C18.2479 6.92871 18.5389 7.21973 18.5389 7.57871C18.5389 7.9377 18.2479 8.22871 17.8889 8.22871H17.0845L16.4971 17.132C16.4278 18.1831 15.5549 19.0003 14.5015 19.0003H9.48611C8.43265 19.0003 7.5598 18.1831 7.49045 17.132L6.90308 8.22871H6.09959C5.7406 8.22871 5.44958 7.9377 5.44958 7.57871C5.44958 7.21973 5.7406 6.92871 6.09959 6.92871H9.04812C9.08566 5.85716 9.96617 5 11.0469 5H12.9416ZM11.531 11.0379L9.87505 12.6938C9.77472 12.7942 9.77472 12.9568 9.87505 13.0572L11.531 14.7131C11.6119 14.794 11.7503 14.7367 11.7503 14.6223V13.6673C12.9774 13.6907 13.4768 13.9467 13.9501 14.753C13.9834 14.8098 14.0142 14.8653 14.0426 14.9198C14.1048 15.0393 14.3025 15.0224 14.3108 14.888C14.3155 14.8121 14.3179 14.7338 14.3179 14.6531C14.3179 13.7535 14.0199 13.1574 13.5949 12.7651C13.0864 12.2957 12.3829 12.1194 11.7503 12.09V11.1287C11.7503 11.0143 11.6119 10.957 11.531 11.0379Z" fill="black"/>
</svg>
