<svg width="24" height="24" viewBox="0 0 24 24" fill="none" xmlns="http://www.w3.org/2000/svg">
<path d="M0 12C0 18.6274 5.37258 24 12 24C18.6274 24 24 18.6274 24 12C24 5.37258 18.6274 0 12 0C5.37258 0 0 5.37258 0 12ZM17.8998 8.5C18.2312 8.5 18.4998 8.76863 18.4998 9.1V11.8677C18.4998 12.4023 17.8535 12.67 17.4755 12.292L16.6223 11.4388L13.1646 14.8965C12.4811 15.5799 11.3731 15.5799 10.6897 14.8965L9.02487 13.2317C8.92724 13.1341 8.76895 13.1341 8.67132 13.2317L5.53033 16.3727C5.23744 16.6656 4.76256 16.6656 4.46967 16.3727C4.17678 16.0798 4.17678 15.6049 4.46967 15.312L7.61066 12.1711C8.29408 11.4876 9.40212 11.4876 10.0855 12.1711L11.7503 13.8359C11.848 13.9335 12.0063 13.9335 12.1039 13.8359L15.5617 10.3781L14.7078 9.52426C14.3298 9.14629 14.5975 8.5 15.1321 8.5H17.8998Z" fill="black"/>
</svg>
