<svg width="24" height="24" viewBox="0 0 24 24" fill="none" xmlns="http://www.w3.org/2000/svg">
<path d="M0 12C0 5.37258 5.37258 0 12 0C18.6274 0 24 5.37258 24 12C24 18.6274 18.6274 24 12 24C5.37258 24 0 18.6274 0 12ZM17.8998 15.5C18.2312 15.5 18.4998 15.2314 18.4998 14.9V12.1323C18.4998 11.5977 17.8535 11.33 17.4755 11.708L16.6223 12.5612L13.1646 9.10347C12.4811 8.42005 11.3731 8.42006 10.6897 9.10347L9.02487 10.7683C8.92724 10.8659 8.76895 10.8659 8.67132 10.7683L5.53033 7.62729C5.23744 7.3344 4.76256 7.3344 4.46967 7.62729C4.17678 7.92019 4.17678 8.39506 4.46967 8.68795L7.61066 11.8289C8.29408 12.5124 9.40212 12.5124 10.0855 11.8289L11.7503 10.1641C11.848 10.0665 12.0063 10.0665 12.1039 10.1641L15.5617 13.6219L14.7078 14.4757C14.3298 14.8537 14.5975 15.5 15.1321 15.5H17.8998Z" fill="black"/>
</svg>
