<svg width="24" height="24" viewBox="0 0 24 24" fill="none" xmlns="http://www.w3.org/2000/svg">
<path d="M12 0C5.37258 0 0 5.37258 0 12C0 18.6274 5.37258 24 12 24C18.6274 24 24 18.6274 24 12C24 5.37258 18.6274 0 12 0ZM5.07014 11.518C5.56789 8.35112 7.64962 5.34023 11.328 5.02683C11.381 4.72107 11.6476 4.48853 11.9685 4.48853C12.2894 4.48853 12.556 4.72113 12.6089 5.02695C16.2865 5.341 18.3684 8.35152 18.8661 11.518C18.912 11.8101 18.6798 12.0656 18.3842 12.0656H12.6144C12.6171 12.0895 12.6185 12.1139 12.6185 12.1385V17.1286C12.6185 17.8032 13.1652 18.3499 13.8398 18.3499C14.5144 18.3499 15.0611 17.8032 15.0611 17.1286C15.0611 16.7697 15.3521 16.4786 15.7111 16.4786C16.0701 16.4786 16.3611 16.7697 16.3611 17.1286C16.3611 18.5212 15.2323 19.6499 13.8398 19.6499C12.4472 19.6499 11.3185 18.5212 11.3185 17.1286V12.1385C11.3185 12.1139 11.3199 12.0895 11.3225 12.0656H5.55211C5.25642 12.0656 5.02423 11.8101 5.07014 11.518Z" fill="black"/>
</svg>
