<svg width="24" height="24" viewBox="0 0 24 24" fill="none" xmlns="http://www.w3.org/2000/svg">
<path d="M12 0C5.37258 0 0 5.37258 0 12C0 18.6274 5.37258 24 12 24C18.6274 24 24 18.6274 24 12C24 5.37258 18.6274 0 12 0ZM5.99922 6.79078C6.44105 6.79078 6.79922 7.14895 6.79922 7.59078V9.32802L8.22867 7.99269C10.1834 6.06047 13.1851 5.64384 15.5966 6.96913C18.0129 8.29709 19.2579 11.0565 18.644 13.7385C18.0303 16.4197 15.7085 18.3696 12.9546 18.5271C10.2009 18.6847 7.67013 17.0128 6.75123 14.4199C6.60364 14.0034 6.8216 13.5462 7.23805 13.3986C7.6545 13.251 8.11174 13.469 8.25933 13.8854C8.93889 15.803 10.8145 17.047 12.8632 16.9298C14.9117 16.8125 16.6307 15.3632 17.0844 13.3814C17.5378 11.4004 16.6195 9.35704 14.8259 8.37133C13.0312 7.38495 10.7967 7.6982 9.34687 9.13713C9.34114 9.14282 9.33533 9.14841 9.32943 9.15392L8.0278 10.3699H9.59935C10.0412 10.3699 10.3994 10.728 10.3994 11.1699C10.3994 11.6117 10.0412 11.9699 9.59935 11.9699H6.01969C5.79905 11.9754 5.57713 11.8902 5.41462 11.7162C5.27002 11.5614 5.1987 11.3645 5.19922 11.1682M5.19922 11.1682V7.59078C5.19922 7.14895 5.55739 6.79078 5.99922 6.79078" fill="black"/>
</svg>
