<svg width="24" height="24" viewBox="0 0 24 24" fill="none" xmlns="http://www.w3.org/2000/svg">
<path d="M24 12C24 5.37258 18.6274 0 12 0C5.37258 0 0 5.37258 0 12C0 18.6274 5.37258 24 12 24C18.6274 24 24 18.6274 24 12ZM12.4977 6.32251C13.9278 4.8925 16.2463 4.8925 17.6763 6.32251C19.1063 7.75253 19.1063 10.0711 17.6763 11.5011L16.1326 13.0448C15.8397 13.3377 15.3649 13.3377 15.072 13.0448C14.7791 12.7519 14.7791 12.277 15.072 11.9841L16.6157 10.4404C17.4599 9.59621 17.4599 8.2274 16.6157 7.38317C15.7714 6.53894 14.4026 6.53894 13.5584 7.38317L12.0147 8.92687C11.7218 9.21976 11.2469 9.21976 10.954 8.92687C10.6612 8.63397 10.6612 8.1591 10.954 7.86621L12.4977 6.32251ZM11.2073 12.7929C11.5002 13.0858 11.5002 13.5607 11.2073 13.8536L9.88385 15.177C9.59095 15.4699 9.11608 15.4699 8.82318 15.177C8.53029 14.8841 8.53029 14.4093 8.82318 14.1164L10.1467 12.7929C10.4395 12.5 10.9144 12.5 11.2073 12.7929ZM15.178 9.88385L13.8545 11.2073C13.5617 11.5002 13.0868 11.5002 12.7939 11.2073C12.501 10.9144 12.501 10.4395 12.7939 10.1467L14.1174 8.82318C14.4103 8.53029 14.8851 8.53029 15.178 8.82318C15.4709 9.11608 15.4709 9.59095 15.178 9.88385ZM6.50678 6.50678C6.79967 6.21389 7.27455 6.21389 7.56744 6.50678L17.4931 16.4324C17.786 16.7253 17.786 17.2002 17.4931 17.4931C17.2002 17.786 16.7253 17.786 16.4324 17.4931L6.50678 7.56744C6.21389 7.27455 6.21389 6.79967 6.50678 6.50678ZM8.92687 12.0157L7.38317 13.5594C6.53894 14.4036 6.53894 15.7724 7.38317 16.6166C8.2274 17.4609 9.59621 17.4609 10.4404 16.6166L11.9841 15.073C12.277 14.7801 12.7519 14.7801 13.0448 15.073C13.3377 15.3658 13.3377 15.8407 13.0448 16.1336L11.5011 17.6773C10.0711 19.1073 7.75253 19.1073 6.32251 17.6773C4.8925 16.2473 4.8925 13.9287 6.32251 12.4987L7.86621 10.955C8.1591 10.6621 8.63397 10.6621 8.92687 10.955C9.21976 11.2479 9.21976 11.7228 8.92687 12.0157Z" fill="black"/>
</svg>
