<svg width="24" height="24" viewBox="0 0 24 24" fill="none" xmlns="http://www.w3.org/2000/svg">
<path d="M12 0C5.37258 0 0 5.37258 0 12C0 18.6274 5.37258 24 12 24C18.6274 24 24 18.6274 24 12C24 5.37258 18.6274 0 12 0ZM15.6223 8.99013C15.9347 9.30255 15.9347 9.80908 15.6223 10.1215C15.3099 10.4339 14.8034 10.4339 14.491 10.1215L12.8 8.43055V13.8335C12.8 14.2754 12.4418 14.6335 12 14.6335C11.5582 14.6335 11.2 14.2754 11.2 13.8335V8.43272L9.51121 10.1215C9.19879 10.4339 8.69226 10.4339 8.37984 10.1215C8.06742 9.80908 8.06742 9.30255 8.37984 8.99013L11.4093 5.96068C11.5556 5.80061 11.7661 5.7002 12 5.7002C12.0252 5.7002 12.0502 5.70136 12.0749 5.70365C12.2544 5.72018 12.4293 5.79715 12.5668 5.93458L15.6223 8.99013ZM16.7 13.8331C16.7 13.3912 17.0582 13.0331 17.5 13.0331C17.9418 13.0331 18.3 13.3912 18.3 13.8331V16.2775C18.3 17.3944 17.3946 18.2997 16.2778 18.2997H7.72222C6.60538 18.2997 5.7 17.3944 5.7 16.2775V13.8331C5.7 13.3912 6.05817 13.0331 6.5 13.0331C6.94182 13.0331 7.3 13.3912 7.3 13.8331V16.2775C7.3 16.5107 7.48903 16.6997 7.72222 16.6997H16.2778C16.511 16.6997 16.7 16.5107 16.7 16.2775V13.8331Z" fill="black"/>
</svg>
