<svg width="24" height="24" viewBox="0 0 24 24" fill="none" xmlns="http://www.w3.org/2000/svg">
<path d="M12.0002 0C5.37283 0 0.000244141 5.37258 0.000244141 12C0.000244141 18.6274 5.37283 24 12.0002 24C18.6277 24 24.0002 18.6274 24.0002 12C24.0002 5.37258 18.6277 0 12.0002 0ZM6.1588 7.35975C6.44174 7.05724 6.91635 7.04138 7.21886 7.32432L17.5126 16.9523C17.8151 17.2352 17.831 17.7098 17.548 18.0123C17.2651 18.3148 16.7905 18.3307 16.488 18.0478L15.62 17.2359C15.0742 17.2996 14.47 17.3314 13.8075 17.3314C12.4908 17.3314 11.4045 17.2057 10.5485 16.9543C9.99277 16.791 9.61199 16.2799 9.61462 15.7006L9.61653 15.2826C9.6206 14.3877 10.1695 13.5856 11.0021 13.2576C11.0884 13.2237 11.1754 13.1914 11.263 13.1608L9.034 11.0759C8.57118 11.0864 8.10499 10.9151 7.7518 10.5619C7.42845 10.2386 7.25752 9.82052 7.23903 9.39705L6.19423 8.41982C5.89171 8.13688 5.87585 7.66227 6.1588 7.35975ZM9.08913 7.56605C9.50636 7.58859 9.91708 7.75922 10.2358 8.07793C10.5347 8.37683 10.7033 8.75665 10.7417 9.14687L9.08913 7.56605ZM11.655 10.0204C11.5515 9.35539 11.7561 8.65179 12.2688 8.13947C13.122 7.28684 14.5052 7.28684 15.3584 8.13947C16.2116 8.9921 16.2116 10.3745 15.3584 11.2271C14.87 11.7152 14.2079 11.9239 13.5709 11.8532L11.655 10.0204ZM14.5369 12.7771C15.268 12.8404 15.9597 13.0005 16.612 13.2574C17.4449 13.5854 17.9939 14.3876 17.9982 15.2826L18.0002 15.7004C18.0008 15.8195 17.9851 15.9358 17.9551 16.0468L14.5369 12.7771ZM8.76676 15.5106H6.7113C6.2898 15.5037 5.92229 15.2124 6.01333 14.688C6.21952 13.5005 7.25423 12.5977 8.50087 12.5977H10.467C9.44127 13.0594 8.77327 14.0799 8.76811 15.2132L8.76676 15.5106Z" fill="black"/>
</svg>
