<svg width="24" height="24" viewBox="0 0 24 24" fill="none" xmlns="http://www.w3.org/2000/svg">
<path d="M12 24C18.6274 24 24 18.6274 24 12C24 5.37258 18.6274 0 12 0C5.37258 0 0 5.37258 0 12C0 18.6274 5.37258 24 12 24ZM13.6187 11.0702C12.7371 11.9512 11.308 11.9512 10.4265 11.0702C9.54481 10.1891 9.54481 8.76048 10.4265 7.87938C11.308 6.99841 12.7371 6.99841 13.6187 7.87937C14.5003 8.76047 14.5003 10.1891 13.6187 11.0702ZM17.4726 9.35573C18.0752 9.95873 18.0752 10.9363 17.4726 11.5393C16.8699 12.1424 15.8926 12.1424 15.2898 11.5393C14.6873 10.9363 14.6873 9.95873 15.2898 9.35573C15.8926 8.75258 16.8699 8.75258 17.4726 9.35573ZM12.0223 12.3033C12.9774 12.3033 13.8737 12.4657 14.7073 12.794C15.6098 13.1495 16.2046 14.0189 16.2091 14.9888L16.2108 15.3677C16.214 16.0656 15.7552 16.6815 15.0855 16.8782C14.2617 17.1202 13.2369 17.2357 12.0223 17.2357C10.8078 17.2357 9.78309 17.1202 8.9593 16.8783C8.28949 16.6816 7.83061 16.0654 7.83397 15.3674L7.83579 14.9887C7.84045 14.0187 8.43553 13.1492 9.33813 12.7938C10.1714 12.4656 11.0674 12.3033 12.0223 12.3033ZM16.7449 15.1463C16.8919 14.1753 16.3224 13.1411 15.4286 12.6019H16.8551C17.9573 12.6019 18.8659 13.4286 18.9955 14.496C19.0417 14.877 18.7266 15.1463 18.4073 15.1463H16.7449ZM8.58293 9.35573C9.1855 9.95873 9.1855 10.9363 8.58293 11.5393C7.9802 12.1424 7.00288 12.1424 6.40016 11.5393C5.79759 10.9363 5.79759 9.95873 6.40016 9.35573C7.00288 8.75258 7.9802 8.75258 8.58293 9.35573ZM8.57146 12.6019C7.67763 13.1411 7.10812 14.1753 7.2552 15.1463H5.59271C5.2735 15.1463 4.95831 14.877 5.00457 14.496C5.13415 13.4286 6.04272 12.6019 7.14496 12.6019H8.57146Z" fill="black"/>
</svg>
