<svg width="24" height="24" viewBox="0 0 24 24" fill="none" xmlns="http://www.w3.org/2000/svg">
<path d="M12 24C18.6274 24 24 18.6274 24 12C24 5.37258 18.6274 0 12 0C5.37258 0 0 5.37258 0 12C0 18.6274 5.37258 24 12 24ZM5 8.53328C5 7.24462 6.04467 6.19995 7.33333 6.19995H16.6667C17.9553 6.19995 19 7.24462 19 8.53329V15.5333C19 16.8219 17.9553 17.8666 16.6667 17.8666H7.33333C6.04467 17.8666 5 16.8219 5 15.5333V8.53328ZM13.5562 10.2168C13.1973 10.2168 12.9062 10.5078 12.9062 10.8668C12.9062 11.2258 13.1973 11.5168 13.5562 11.5168H16.2785C16.6375 11.5168 16.9285 11.2258 16.9285 10.8668C16.9285 10.5078 16.6375 10.2168 16.2785 10.2168H13.5562ZM12.9062 13.2C12.9062 13.559 13.1973 13.85 13.5562 13.85H16.2785C16.6375 13.85 16.9285 13.559 16.9285 13.2C16.9285 12.8411 16.6375 12.55 16.2785 12.55H13.5562C13.1973 12.55 12.9062 12.8411 12.9062 13.2ZM10.6556 11.6237C11.2023 11.077 11.2023 10.1905 10.6556 9.64382C10.1088 9.09708 9.22241 9.09708 8.67568 9.64382C8.12894 10.1905 8.12894 11.077 8.67568 11.6237C9.22241 12.1705 10.1088 12.1705 10.6556 11.6237ZM8.38692 14.0285C8.39302 14.0085 8.39892 14 8.40151 13.9966C8.40534 13.9916 8.42816 13.9636 8.51673 13.9324C8.72906 13.8575 9.04338 13.85 9.47227 13.85C9.90115 13.85 10.2155 13.8575 10.4278 13.9324C10.5164 13.9636 10.5392 13.9916 10.543 13.9966C10.5456 14 10.5515 14.0085 10.5576 14.0285C10.5641 14.0499 10.5723 14.0895 10.5723 14.1545C10.5723 14.5135 10.8633 14.8045 11.2223 14.8045C11.5813 14.8045 11.8723 14.5135 11.8723 14.1545C11.8723 13.8026 11.7817 13.4773 11.577 13.2087C11.3763 12.9453 11.1099 12.7943 10.8598 12.7062C10.4141 12.5492 9.88041 12.5496 9.51821 12.55L9.47227 12.55L9.42632 12.55C9.06412 12.5496 8.53045 12.5492 8.08473 12.7062C7.83464 12.7943 7.56822 12.9453 7.36749 13.2087C7.16284 13.4773 7.07227 13.8026 7.07227 14.1545C7.07227 14.5135 7.36328 14.8045 7.72227 14.8045C8.08125 14.8045 8.37227 14.5135 8.37227 14.1545C8.37227 14.0895 8.38043 14.0499 8.38692 14.0285Z" fill="black"/>
</svg>
