<svg width="24" height="24" viewBox="0 0 24 24" fill="none" xmlns="http://www.w3.org/2000/svg">
<path d="M12 0C5.37258 0 0 5.37258 0 12C0 18.6274 5.37258 24 12 24C18.6274 24 24 18.6274 24 12C24 5.37258 18.6274 0 12 0ZM6.15855 7.35975C6.4415 7.05724 6.91611 7.04138 7.21862 7.32432L17.5124 16.9523C17.8149 17.2352 17.8307 17.7098 17.5478 18.0123C17.2648 18.3148 16.7902 18.3307 16.4877 18.0478L14.3421 16.0409C14.2274 16.4721 13.8953 16.824 13.4518 16.9543C12.5959 17.2057 11.5095 17.3314 10.1928 17.3314C8.87617 17.3314 7.78992 17.2057 6.93405 16.9543C6.37815 16.7911 5.99731 16.2797 6.0001 15.7004L6.0021 15.2826C6.00641 14.3876 6.55546 13.5854 7.38828 13.2574C8.2538 12.9165 9.18863 12.7461 10.1928 12.7461C10.4139 12.7461 10.6316 12.7544 10.8459 12.7709L9.85163 11.8409C9.40883 11.7726 8.98301 11.568 8.64191 11.2271C8.33742 10.9228 8.1416 10.551 8.05445 10.16L6.19398 8.41982C5.89147 8.13688 5.8756 7.66227 6.15855 7.35975ZM9.24305 7.71352C10.0554 7.32483 11.0584 7.46682 11.7315 8.13947C12.3808 8.78827 12.536 9.74381 12.1971 10.5393L9.24305 7.71352ZM14.349 12.5977H15.4995C16.7461 12.5977 17.7808 13.5005 17.987 14.688C18.0709 15.1712 17.7654 15.4565 17.3871 15.5037L14.349 12.5977ZM13.7645 8.07793C14.4505 7.39199 15.5626 7.39199 16.2485 8.07793C16.9345 8.76387 16.9345 9.87599 16.2485 10.5619C15.5626 11.2479 14.4505 11.2479 13.7645 10.5619C13.0786 9.87599 13.0786 8.76387 13.7645 8.07793Z" fill="black"/>
</svg>
