<svg width="24" height="24" viewBox="0 0 24 24" fill="none" xmlns="http://www.w3.org/2000/svg">
<path d="M12 0C5.37258 0 0 5.37258 0 12C0 18.6274 5.37258 24 12 24C18.6274 24 24 18.6274 24 12C24 5.37258 18.6274 0 12 0ZM14.4972 8.71911C14.4972 10.3473 13.1862 11.6673 11.569 11.6673C9.95186 11.6673 8.64087 10.3473 8.64087 8.71911C8.64087 7.09088 9.95186 5.77094 11.569 5.77094C13.1862 5.77094 14.4972 7.09088 14.4972 8.71911ZM13.6329 17.613L13.6327 17.6134H13.5514L12.7548 17.6053C12.5312 17.603 12.365 17.3977 12.4092 17.1785L12.4415 17.0187C12.4422 17.0147 12.443 17.0108 12.4438 17.0069L12.7311 15.5842L16.3803 12.6291C16.8095 12.2816 17.4392 12.3478 17.7868 12.777L18.1771 13.2591C18.5247 13.6883 18.4585 14.318 18.0293 14.6655L14.3801 17.6206L13.6329 17.613ZM11.3617 16.967C11.3166 17.1902 11.3262 17.4098 11.3801 17.6134H11.1371H6.14593C5.51305 17.6134 5 17.1023 5 16.4719L5.0003 16.446C5.00331 16.3137 5.00967 16.2193 5.01937 16.1629C5.35636 14.2043 6.98004 12.6953 8.97094 12.6142L9.13983 12.6108H13.1359C13.5926 12.6108 14.0316 12.6858 14.4423 12.8245L12.0585 14.7549C11.8653 14.9113 11.7327 15.1302 11.6835 15.3738L11.3617 16.967Z" fill="black"/>
</svg>
