<svg width="24" height="24" viewBox="0 0 24 24" fill="none" xmlns="http://www.w3.org/2000/svg">
<path d="M12 24C18.6274 24 24 18.6274 24 12C24 5.37258 18.6274 0 12 0C5.37258 0 0 5.37258 0 12C0 18.6274 5.37258 24 12 24ZM14.7772 8.2941C14.7772 10.0136 13.3927 11.4075 11.6848 11.4075C9.97701 11.4075 8.59253 10.0136 8.59253 8.2941C8.59253 6.5746 9.97701 5.18066 11.6848 5.18066C13.3927 5.18066 14.7772 6.5746 14.7772 8.2941ZM9.67185 12.6758H11.8586C11.3911 13.4153 11.1206 14.2917 11.1206 15.2313C11.1206 16.1415 11.3745 16.9924 11.8153 17.7171H11.6846H6.6548C6.01702 17.7171 5.5 17.2021 5.5 16.5668L5.5003 16.5407C5.50334 16.4073 5.50975 16.3122 5.51952 16.2554C5.85912 14.2817 7.49535 12.761 9.50166 12.6793L9.67185 12.6758ZM19.5 15.2313C19.5 17.2139 17.8929 18.8211 15.9103 18.8211C13.9277 18.8211 12.3206 17.2139 12.3206 15.2313C12.3206 13.2488 13.9277 11.6416 15.9103 11.6416C17.8929 11.6416 19.5 13.2488 19.5 15.2313ZM16.5104 14.1543C16.5104 13.8229 16.2418 13.5543 15.9104 13.5543C15.5791 13.5543 15.3104 13.8229 15.3104 14.1543V15.5506C15.3104 15.7097 15.3736 15.8623 15.4862 15.9748C15.5987 16.0874 15.7513 16.1506 15.9104 16.1506H17.3463C17.6777 16.1506 17.9463 15.882 17.9463 15.5506C17.9463 15.2192 17.6777 14.9506 17.3463 14.9506H16.5104V14.1543Z" fill="black"/>
</svg>
