<svg width="24" height="24" viewBox="0 0 24 24" fill="none" xmlns="http://www.w3.org/2000/svg">
<path d="M12 0C5.37258 0 0 5.37258 0 12C0 18.6274 5.37258 24 12 24C18.6274 24 24 18.6274 24 12C24 5.37258 18.6274 0 12 0ZM11.7315 11.2271C10.8783 12.0797 9.49501 12.0797 8.64183 11.2271C7.78866 10.3745 7.78866 8.9921 8.64183 8.13947C9.49501 7.28684 10.8783 7.28684 11.7315 8.13947C12.5846 8.99209 12.5846 10.3745 11.7315 11.2271ZM14.3856 15.7006C14.3883 16.2799 14.0075 16.791 13.4517 16.9543C12.5958 17.2057 11.5095 17.3314 10.1927 17.3314C8.87609 17.3314 7.78984 17.2057 6.93397 16.9543C6.37807 16.7911 5.99723 16.2797 6.00002 15.7004L6.00202 15.2826C6.00633 14.3876 6.55538 13.5854 7.3882 13.2574C8.25372 12.9165 9.18855 12.7461 10.1927 12.7461C11.1971 12.7461 12.1322 12.9166 12.9981 13.2576C13.8308 13.5856 14.3796 14.3877 14.3837 15.2826L14.3856 15.7006ZM15.2321 15.2132C15.227 14.0799 14.559 13.0594 13.5332 12.5977H15.4994C16.746 12.5977 17.7807 13.5005 17.9869 14.688C18.078 15.2124 17.7104 15.5037 17.2889 15.5106H15.2335L15.2321 15.2132ZM16.2484 8.07793C16.9344 8.76387 16.9344 9.87599 16.2484 10.5619C15.5625 11.2479 14.4504 11.2479 13.7645 10.5619C13.0785 9.87599 13.0785 8.76387 13.7645 8.07793C14.4504 7.39199 15.5625 7.39199 16.2484 8.07793Z" fill="black"/>
</svg>
