<svg width="24" height="24" viewBox="0 0 24 24" fill="none" xmlns="http://www.w3.org/2000/svg">
<path d="M12 24C18.6274 24 24 18.6274 24 12C24 5.37258 18.6274 0 12 0C5.37258 0 0 5.37258 0 12C0 18.6274 5.37258 24 12 24ZM11.9993 14.3119C10.4846 14.3119 9.2087 14.9573 8.82393 15.8364C9.686 16.5509 10.7928 16.9804 12 16.9804C13.2067 16.9804 14.3131 16.5513 15.1751 15.8373C14.7907 14.9578 13.5145 14.3119 11.9993 14.3119ZM6 12C6 8.68629 8.68629 6 12 6C15.3137 6 18 8.68629 18 12C18 15.3137 15.3137 18 12 18C8.68629 18 6 15.3137 6 12ZM13.9282 11.2292C13.9282 10.0733 13.1082 9.25482 12.0144 9.25482C10.9207 9.25482 10.0694 10.0731 10.0694 11.2292C10.0696 12.3852 10.9207 13.2044 12.0144 13.2044C13.1081 13.2044 13.9282 12.3851 13.9282 11.2292Z" fill="black"/>
</svg>
