<svg width="24" height="24" viewBox="0 0 24 24" fill="none" xmlns="http://www.w3.org/2000/svg">
<path d="M12 24C18.6274 24 24 18.6274 24 12C24 5.37258 18.6274 0 12 0C5.37258 0 0 5.37258 0 12C0 18.6274 5.37258 24 12 24ZM6.15855 7.35975C6.4415 7.05724 6.91611 7.04138 7.21862 7.32432L17.5124 16.9523C17.8149 17.2352 17.8307 17.7098 17.5478 18.0123C17.2648 18.3148 16.7902 18.3307 16.4877 18.0478L15.1973 16.8408C15.1607 16.8545 15.1234 16.867 15.0855 16.8782C14.2616 17.1202 13.2369 17.2357 12.0222 17.2357C10.8077 17.2357 9.78306 17.1202 8.95927 16.8783C8.28946 16.6815 7.83059 16.0654 7.83394 15.3673L7.83576 14.9887C7.84043 14.0186 8.4355 13.1492 9.33811 12.7937C9.71394 12.6457 10.1025 12.5315 10.5035 12.4506L8.93815 10.9865C8.86325 11.1881 8.74483 11.3772 8.5829 11.5392C7.98018 12.1424 7.00286 12.1424 6.40013 11.5392C5.79756 10.9362 5.79756 9.9587 6.40013 9.35571C6.5361 9.21964 6.69113 9.11428 6.85662 9.0396L6.19398 8.41982C5.89147 8.13688 5.8756 7.66227 6.15855 7.35975ZM10.0115 8.4486C10.1164 8.24347 10.2547 8.05102 10.4264 7.87935C11.308 6.99839 12.7371 6.99839 13.6186 7.87935C14.5003 8.76045 14.5003 10.1891 13.6186 11.0702C13.4715 11.2173 13.309 11.3398 13.1365 11.4378L10.0115 8.4486ZM14.4572 12.7011C14.5411 12.7304 14.6245 12.7614 14.7072 12.794C15.377 13.0578 15.8773 13.6046 16.0927 14.2655L14.4572 12.7011ZM16.7666 14.9102C16.7979 14.0116 16.2503 13.0975 15.4286 12.6018H16.8551C17.9573 12.6018 18.8659 13.4286 18.9955 14.496C19.0417 14.877 18.7265 15.1463 18.4073 15.1463H17.0134L16.7666 14.9102ZM17.4726 9.35571C18.0751 9.9587 18.0751 10.9362 17.4726 11.5392C16.8699 12.1424 15.8925 12.1424 15.2898 11.5392C14.6872 10.9362 14.6872 9.9587 15.2898 9.35571C15.8925 8.75256 16.8699 8.75256 17.4726 9.35571ZM8.57143 12.6018C7.6776 13.141 7.1081 14.1753 7.25517 15.1463H5.59269C5.27347 15.1463 4.95828 14.877 5.00454 14.496C5.13413 13.4286 6.0427 12.6018 7.14494 12.6018H8.57143Z" fill="black"/>
</svg>
