<svg width="24" height="24" viewBox="0 0 24 24" fill="none" xmlns="http://www.w3.org/2000/svg">
<path d="M0 12C0 18.6274 5.37258 24 12 24C18.6274 24 24 18.6274 24 12C24 5.37258 18.6274 0 12 0C5.37258 0 0 5.37258 0 12ZM13.0597 15.8441H7.56882C6.70283 15.8441 6 15.1413 6 14.2753V9.56882C6 8.70283 6.70283 8 7.56882 8H13.0597C13.9257 8 14.6285 8.70283 14.6285 9.56882V14.2753C14.6285 15.1413 13.9257 15.8441 13.0597 15.8441ZM16.7232 14.8171L15.4004 13.7522V10.0912L16.7232 9.0263C17.2365 8.61338 17.9996 8.9786 17.9996 9.63751V14.2059C17.9996 14.8648 17.2365 15.23 16.7232 14.8171Z" fill="black"/>
</svg>
