<svg width="24" height="24" viewBox="0 0 24 24" fill="none" xmlns="http://www.w3.org/2000/svg">
<path d="M12 24C18.6274 24 24 18.6274 24 12C24 5.37258 18.6274 0 12 0C5.37258 0 0 5.37258 0 12C0 18.6274 5.37258 24 12 24ZM15.7263 8.6706L14.4461 9.96136C14.4552 10.0287 14.4599 10.0973 14.4599 10.1671V14.7466C14.4599 15.5893 13.776 16.2732 12.9334 16.2732H8.18591L6.79119 17.6794C6.53839 17.9342 6.12684 17.9359 5.87196 17.6831C5.61708 17.4303 5.61539 17.0188 5.86819 16.7639L14.8033 7.75514C15.0561 7.50026 15.4677 7.49857 15.7225 7.75136C15.9774 8.00416 15.9791 8.41571 15.7263 8.6706ZM7.59057 8.6406H12.3809L7.08598 13.9791L6.08563 15.0036C6.07145 14.92 6.06406 14.8342 6.06406 14.7466V10.1671C6.06406 9.32448 6.74794 8.6406 7.59057 8.6406ZM15.4703 14.2382V10.6759L16.7575 9.63972C17.2569 9.23795 17.9994 9.59332 17.9994 10.2345V14.6796C17.9994 15.3208 17.2569 15.6762 16.7575 15.2744L15.4703 14.2382Z" fill="black"/>
</svg>
