<svg width="24" height="24" viewBox="0 0 24 24" fill="none" xmlns="http://www.w3.org/2000/svg">
<path d="M12 0C5.37258 0 0 5.37258 0 12C0 18.6274 5.37258 24 12 24C18.6274 24 24 18.6274 24 12C24 5.37258 18.6274 0 12 0ZM9.7799 9.8201C10.6846 10.7248 10.8408 12.0946 10.2484 13.1599H13.8515C13.2591 12.0946 13.4153 10.7248 14.32 9.8201C15.4135 8.72663 17.1863 8.72663 18.2798 9.8201C19.3732 10.9136 19.3732 12.6864 18.2798 13.7799C17.7693 14.2904 17.1108 14.5625 16.4425 14.5964C16.3499 14.6372 16.2476 14.6599 16.1399 14.6599H7.73993C7.60995 14.6599 7.4877 14.6268 7.38112 14.5687C6.80981 14.4827 6.25998 14.2198 5.8201 13.7799C4.72663 12.6864 4.72663 10.9136 5.8201 9.8201C6.91357 8.72663 8.68643 8.72663 9.7799 9.8201Z" fill="black"/>
</svg>
