<svg width="24" height="24" viewBox="0 0 24 24" fill="none" xmlns="http://www.w3.org/2000/svg">
<path d="M24 12C24 5.37258 18.6274 0 12 0C5.37258 0 0 5.37258 0 12C0 18.6274 5.37258 24 12 24C18.6274 24 24 18.6274 24 12ZM5.43433 7.13471C5.68667 6.88236 6.06566 6.83384 6.36671 6.98914C6.38733 7.01579 6.40987 7.04143 6.43433 7.06588L16.6003 17.2318C16.6603 17.2919 16.7276 17.3404 16.7992 17.3774C17.0421 17.6912 17.0196 18.144 16.7316 18.432C16.4192 18.7444 15.9127 18.7444 15.6003 18.432L12.3963 15.2281V16.3773C12.3963 16.8804 11.8144 17.1601 11.4215 16.8458L9.19816 15.0672H7.27926C6.57311 15.0672 6 14.494 6 13.7879V11.2294C6 10.5746 6.49269 10.0343 7.1273 9.95905L5.43433 8.26608C5.12191 7.95366 5.12191 7.44712 5.43433 7.13471ZM18.6503 12.5083C18.6503 13.7914 18.2577 14.9766 17.5926 15.9614L16.6516 15.0205C17.0949 14.2853 17.3503 13.4274 17.3503 12.5083C17.3503 10.8918 16.5614 9.46502 15.3483 8.56209C15.0603 8.34776 15.0006 7.94055 15.2149 7.65258C15.4293 7.3646 15.8365 7.3049 16.1244 7.51924C17.6455 8.65133 18.6503 10.4546 18.6503 12.5083ZM15.8819 12.5739C15.8819 13.0623 15.7634 13.5207 15.5559 13.9247L14.5466 12.9154C14.5698 12.8051 14.5819 12.6909 14.5819 12.5739C14.5819 12.0235 14.314 11.535 13.8951 11.2232C13.6072 11.0089 13.5475 10.6017 13.7618 10.3137C13.9761 10.0257 14.3833 9.96603 14.6713 10.1804C15.3981 10.7213 15.8819 11.5863 15.8819 12.5739ZM12.3963 8.61773V10.7651L10.5148 8.88362L11.4187 8.1515C11.8109 7.83376 12.3963 8.11294 12.3963 8.61773Z" fill="black"/>
</svg>
