<svg width="24" height="24" viewBox="0 0 24 24" fill="none" xmlns="http://www.w3.org/2000/svg">
<path d="M24 12C24 5.37258 18.6274 0 12 0C5.37258 0 0 5.37258 0 12C0 18.6274 5.37258 24 12 24C18.6274 24 24 18.6274 24 12ZM11.5819 17.329L8.77834 15.0862H6.51133C5.67708 15.0862 5 14.4092 5 13.5749V10.5522C5 9.71798 5.67708 9.0409 6.51133 9.0409H8.77834L11.579 6.77235C11.9713 6.45461 12.5567 6.73379 12.5567 7.23858V16.8605C12.5567 17.3636 11.9747 17.6433 11.5819 17.329ZM14.6505 14.0018C14.3755 13.7711 14.3397 13.3611 14.5704 13.0861L15.385 12.1153L14.4154 11.3017C14.1404 11.0709 14.1045 10.6609 14.3353 10.3859C14.566 10.1109 14.976 10.075 15.251 10.3058L16.2207 11.1194L17.0343 10.1498C17.265 9.87479 17.675 9.83892 17.95 10.0697C18.225 10.3004 18.2609 10.7104 18.0302 10.9854L17.2165 11.955L18.1874 12.7696C18.4624 13.0004 18.4982 13.4104 18.2675 13.6854C18.0367 13.9604 17.6267 13.9962 17.3517 13.7655L16.3809 12.9509L15.5663 13.9217C15.3355 14.1967 14.9255 14.2326 14.6505 14.0018Z" fill="black"/>
</svg>
