<svg width="24" height="24" viewBox="0 0 24 24" fill="none" xmlns="http://www.w3.org/2000/svg">
<path d="M12 24C18.6274 24 24 18.6274 24 12C24 5.37258 18.6274 0 12 0C5.37258 0 0 5.37258 0 12C0 18.6274 5.37258 24 12 24ZM6.94336 7.73C6.94336 7.86242 7.00076 7.98161 7.092 8.064C7.22546 8.0911 7.36209 8.105 7.5 8.105H9H12H16C17.1046 8.105 18 9.00043 18 10.105V15.705C18 16.8096 17.1046 17.705 16 17.705H8C6.89543 17.705 6 16.8096 6 15.705V8.1325C5.96312 8.00469 5.94336 7.86965 5.94336 7.73C5.94336 6.92946 6.59282 6.28 7.39336 6.28H15.31C15.5862 6.28 15.81 6.50386 15.81 6.78C15.81 7.05614 15.5862 7.28 15.31 7.28H7.39336C7.1451 7.28 6.94336 7.48174 6.94336 7.73ZM15.8174 12.8233C15.8174 12.4735 15.5339 12.19 15.1841 12.19C14.8343 12.19 14.5508 12.4735 14.5508 12.8233C14.5508 13.1731 14.8343 13.4566 15.1841 13.4566C15.5339 13.4566 15.8174 13.1731 15.8174 12.8233Z" fill="black"/>
</svg>
