<svg width="24" height="24" viewBox="0 0 24 24" fill="none" xmlns="http://www.w3.org/2000/svg">
<path d="M12 0C5.37258 0 0 5.37258 0 12C0 18.6274 5.37258 24 12 24C18.6274 24 24 18.6274 24 12C24 5.37258 18.6274 0 12 0ZM17.4723 10.8532C14.345 8.11563 9.6535 8.11563 6.52615 10.8532C6.1937 11.1442 5.68828 11.1106 5.39727 10.7781C5.10626 10.4457 5.13985 9.94025 5.47231 9.64924C9.20297 6.3836 14.7955 6.3836 18.5262 9.64924C18.8586 9.94025 18.8922 10.4457 18.6012 10.7781C18.3102 11.1106 17.8048 11.1442 17.4723 10.8532ZM8.60623 12.8451C8.27378 13.1361 7.76836 13.1025 7.47735 12.77C7.18634 12.4376 7.21993 11.9322 7.55238 11.6412C10.0941 9.41624 13.9038 9.41624 16.4456 11.6412C16.778 11.9322 16.8116 12.4376 16.5206 12.77C16.2296 13.1025 15.7242 13.1361 15.3917 12.8451C13.4533 11.1483 10.5447 11.1483 8.60623 12.8451ZM13.6377 14.823C12.7342 14.1856 11.5222 14.1856 10.6187 14.823C10.2577 15.0777 9.75851 14.9916 9.5038 14.6305C9.24909 14.2695 9.33528 13.7704 9.6963 13.5157C11.1529 12.488 13.1035 12.488 14.5601 13.5157C14.9211 13.7704 15.0073 14.2695 14.7526 14.6305C14.4979 14.9916 13.9987 15.0777 13.6377 14.823ZM12.932 16.4914C12.932 16.9699 12.5441 17.3578 12.0656 17.3578C11.5871 17.3578 11.1992 16.9699 11.1992 16.4914C11.1992 16.0129 11.5871 15.625 12.0656 15.625C12.5441 15.625 12.932 16.0129 12.932 16.4914Z" fill="black"/>
</svg>
