<svg width="24" height="24" viewBox="0 0 24 24" fill="none" xmlns="http://www.w3.org/2000/svg">
<path d="M24 12C24 5.37258 18.6274 0 12 0C5.37258 0 0 5.37258 0 12C0 18.6274 5.37258 24 12 24C18.6274 24 24 18.6274 24 12ZM16.4355 6.46064L14.7006 8.19559L15.7662 9.26122L17.4831 7.54437C17.8733 8.31662 18.1023 9.26913 17.8429 10.2203C17.6588 10.8344 17.3269 11.3602 16.8902 11.7657C16.4519 12.1726 15.9082 12.4587 15.3044 12.5794C14.7915 12.6332 14.3655 12.6375 13.9472 12.551L9.82145 17.2107C9.41753 17.7093 8.84786 17.9738 8.26253 17.9981C7.68176 18.0223 7.0828 17.8097 6.61744 17.3444C6.18229 16.9092 5.97751 16.3245 6.00196 15.7377C6.02605 15.1595 6.27376 14.5807 6.73795 14.152L11.3973 10.0266C11.3475 9.82499 11.322 9.61438 11.3214 9.37933C11.2938 8.51125 11.6198 7.70193 12.1639 7.09251C12.718 6.47193 13.4968 6.06098 14.3504 6.00001C15.1397 5.99871 15.7383 6.1542 16.4355 6.46064Z" fill="black"/>
</svg>
