<svg xmlns="http://www.w3.org/2000/svg" xmlns:xlink="http://www.w3.org/1999/xlink" height="13.132783442735672" width="18.756736755371094">
  <g opacity="1">
    <path fill="rgb(29,35,39)" fill-opacity="1" opacity="1" fill-rule="evenodd" d="M7.9403533935546875 9.814424067735672Q7.9110565185546875 10.312470942735672 7.6473846435546875 10.927705317735672L0.49896240234375 8.320298701524734Q0.20599365234375 8.203111201524734 0.07415771484375 7.9247908890247345Q-0.05767822265625 7.6464705765247345 0.04486083984375 7.3388533890247345Q0.14739990234375 7.0312362015247345 0.41107177734375 6.8847518265247345L0.55755615234375 6.8261580765247345C1.02630615234375 6.5917830765247345 1.40716552734375 6.3281112015247345 1.7001266479492188 6.0351424515247345Q2.4618453979492188 5.2734237015247345 2.9891891479492188 3.8085799515247345C3.0673141479492188 3.5546737015247345 3.2137985229492188 3.144532710313797 3.4286422729492188 2.578126460313797Q3.8095016479492188 1.582032710313797 4.600517272949219 0.908204585313797C5.1278533935546875 0.458985835313797 5.7333221435546875 0.175782710313797 6.4169158935546875 0.058595210313797C7.1005096435546875 -0.058592289686203 7.7743377685546875 0.0000014603137969970703 8.438392639160156 0.234376460313797Q8.848548889160156 0.380860835313797 9.258705139160156 0.644532710313797C8.594642639160156 1.035157710313797 8.047775268554688 1.547853022813797 7.6180877685546875 2.182618647813797C7.1884002685546875 2.817384272813797 6.9247283935546875 3.5107283890247345 6.8270721435546875 4.2626815140247345Q6.6805877685546875 5.3906112015247345 7.0907440185546875 6.5038924515247345L7.5594940185546875 7.7636580765247345C7.8524627685546875 8.564439326524734 7.9794158935546875 9.248033076524734 7.9403533935546875 9.814424067735672ZM9.434486389160156 12.480439692735672C9.219650268554688 12.558564692735672 9.019454956054688 12.548799067735672 8.833908081054688 12.451142817735672Q8.555587768554688 12.304658442735672 8.438400268554688 12.011689692735672Q8.321212768554688 11.718720942735672 8.438400268554688 11.425752192735672L8.496994018554688 11.308564692735672C8.711837768554688 10.820283442735672 8.838790893554688 10.371064692735672 8.877853393554688 9.960923701524734Q8.965744018554688 8.876939326524734 8.438400268554688 7.4413924515247345L7.9696502685546875 6.1816268265247345C7.7352752685546875 5.5175643265247345 7.6766815185546875 4.8437362015247345 7.7938690185546875 4.160157710313797Q7.9696502685546875 3.134767085313797 8.643478393554688 2.329103022813797C9.092697143554688 1.791993647813797 9.649330139160156 1.406251460313797 10.313392639160156 1.171876460313797Q11.309486389160156 0.820313960313797 12.334877014160156 0.996095210313797C13.018463134765625 1.113282710313797 13.623931884765625 1.396485835313797 14.151275634765625 1.845704585313797Q14.942291259765625 2.519532710313797 15.323150634765625 3.515626460313797L15.762603759765625 4.7460799515247345C16.114158630371094 5.7226424515247345 16.543846130371094 6.4648299515247345 17.051658630371094 6.9726424515247345Q17.491111755371094 7.4120955765247345 18.223533630371094 7.7636580765247345Q18.282127380371094 7.8222518265247345 18.340721130371094 7.8222518265247345Q18.633689880371094 7.9980330765247345 18.721580505371094 8.291001826524734Q18.809463500976562 8.583970576524734 18.677635192871094 8.876939326524734Q18.545799255371094 9.169908076524734 18.252830505371094 9.257798701524734L9.434486389160156 12.480439692735672ZM4.0438690185546875 12.070283442735672Q4.6591033935546875 12.304658442735672 5.2596893310546875 12.099580317735672Q5.8602752685546875 11.894502192735672 6.2118377685546875 11.396455317735672L2.8427047729492188 10.165986567735672Q2.7841110229492188 10.781220942735672 3.1210250854492188 11.323213130235672C3.3456344604492188 11.684541255235672 3.6532516479492188 11.933564692735672 4.0438690185546875 12.070283442735672ZM14.707908630371094 13.007783442735672C14.297752380371094 13.164033442735672 13.892486572265625 13.173799067735672 13.492095947265625 13.037080317735672Q12.891510009765625 12.832002192735672 12.539947509765625 12.333955317735672L15.909080505371094 11.103486567735672Q15.967674255371094 11.718720942735672 15.630760192871094 12.260713130235672Q15.293846130371094 12.802705317735672 14.707908630371094 13.007783442735672Z"/>
  </g>
</svg>