<svg width="72" height="72" viewBox="0 0 72 72" fill="none" xmlns="http://www.w3.org/2000/svg">
<rect width="72" height="72" fill="black" fill-opacity="0"/>
<rect opacity="0.1" width="72" height="72" rx="26.31" fill="#F43149"/>
<rect width="39.7895" height="37.8947" fill="black" fill-opacity="0" transform="translate(20.8421 17.0527)"/>
<path fill-rule="evenodd" clip-rule="evenodd" d="M24.3039 54.7322C22.392 54.7322 20.8421 53.1823 20.8421 51.2704V20.5145C20.8421 18.6026 22.392 17.0527 24.3039 17.0527H41.3427L51.5885 27.3875V51.2704C51.5885 53.1823 50.0386 54.7322 48.1267 54.7322H24.3039Z" fill="#FF7889"/>
<path fill-rule="evenodd" clip-rule="evenodd" d="M41.3397 17.0527V23.9259C41.3397 25.8378 42.8896 27.3877 44.8015 27.3877H51.5885" fill="#F43149"/>
<rect x="25.9665" y="32.3906" width="19.8947" height="2.70677" rx="1.35338" fill="white"/>
<rect x="25.9665" y="25.1738" width="9.04306" height="2.70677" rx="1.35338" fill="white"/>
<rect x="25.9665" y="39.6094" width="19.8947" height="2.70677" rx="1.35338" fill="white"/>
<rect x="25.9665" y="46.8281" width="10.8517" height="2.70677" rx="1.35338" fill="white"/>
<path fill-rule="evenodd" clip-rule="evenodd" d="M57.53 24.8164C58.3874 25.6543 59.2366 26.498 60.0772 27.3516C60.8783 28.1699 60.8052 29.3848 59.8968 30.2988C59.5139 30.6895 59.1259 31.0781 58.7381 31.4648L58.6656 31.5352L58.1405 32.0527L57.6739 31.5938L53.2894 27.2422L53.1747 27.127L52.8132 26.7676L52.9052 26.6621L53.2646 26.3066C53.7034 25.8711 54.1357 25.4316 54.5812 24.9961C55.4904 24.1035 56.7289 24.0254 57.53 24.8164ZM51.9135 27.7676L50.8036 28.8535L48.2987 31.3535C45.1805 34.4648 42.0696 37.5762 38.9514 40.6934C38.8303 40.8145 38.7165 40.9492 38.6148 41.0918C38.5141 41.2344 38.4252 41.3828 38.3525 41.5312L36.1325 46.0215L35.6068 47.0918C35.4753 47.3535 35.3877 47.6094 35.3366 47.8711C35.1978 48.6445 35.636 49.3281 36.3589 49.4961C36.578 49.5469 36.7971 49.5469 37.0527 49.4961C37.2718 49.4453 37.5201 49.3516 37.7975 49.2188L38.8199 48.7168C40.0468 48.1191 41.2736 47.5137 42.5005 46.9023L42.6611 46.8223C43.2088 46.5527 43.8295 46.2383 44.3991 45.6777C46.0457 44.0215 47.6996 42.3711 49.3535 40.7207L49.3649 40.709L56.5142 33.5527L56.6173 33.459L56.6384 33.4375L57.1203 32.9844L51.9135 27.7676ZM41.9747 44.7539C41.3028 45.0801 40.6164 45.4238 39.9299 45.7734L39.8626 45.8008C39.8236 45.8145 39.7876 45.8242 39.7547 45.8242C39.6963 45.8164 39.6451 45.8027 39.5648 45.7285C39.4918 45.6426 39.4114 45.5625 39.3311 45.4746L39.1981 45.3477L39.0828 45.2266C39.0683 45.207 39.055 45.1777 39.0464 45.1484L39.0383 45.1074C39.0344 45.0723 39.038 45.0371 39.0536 45.0078C39.4041 44.2871 39.7547 43.5801 40.1125 42.8594L40.3608 42.3477L40.3709 42.3359C40.3766 42.3281 40.3845 42.3164 40.3973 42.3047L41.4562 43.375L41.7777 43.6934L42.5516 44.4688L41.9747 44.7539Z" fill="#F43149"/>
</svg>
