<svg width="72" height="72" viewBox="0 0 72 72" fill="none" xmlns="http://www.w3.org/2000/svg">
<path opacity="0.1" fill-rule="evenodd" clip-rule="evenodd" d="M0 26.5263C0 11.8762 11.8762 0 26.5263 0H45.4737C60.1238 0 72 11.8762 72 26.5263V45.4737C72 60.1238 60.1238 72 45.4737 72H26.5263C11.8762 72 0 60.1238 0 45.4737V26.5263Z" fill="#229FE7"/>
<path fill-rule="evenodd" clip-rule="evenodd" d="M0 2.9407C0 1.31659 1.3166 0 2.9407 0H3.94286V13.6489C3.94286 15.6774 5.58726 17.3218 7.61573 17.3218H27.5466V17.3667C27.5466 18.9908 26.23 20.3074 24.6059 20.3074H9.18341L4.38721 23.8589C3.90201 24.2181 3.21454 23.8718 3.21454 23.268V20.3074H2.9407C1.3166 20.3074 0 18.9908 0 17.3667V2.9407Z" transform="translate(56.2544 27.9697) scale(-1 1)" fill="#229FE7"/>
<path fill-rule="evenodd" clip-rule="evenodd" d="M0 3.57028C0 1.59847 1.59847 0 3.57028 0H29.8738C31.8456 0 33.4441 1.59847 33.4441 3.57028V21.1419C33.4441 23.1137 31.8456 24.7122 29.8738 24.7122H11.1495L5.32727 29.0335C4.73831 29.4706 3.90275 29.0502 3.90275 28.3167V24.7122H3.57028C1.59847 24.7122 0 23.1137 0 21.1419L0 3.57028Z" transform="translate(17.0526 18.9473)" fill="#6DC9FE"/>
<path fill-rule="evenodd" clip-rule="evenodd" d="M0 1.42105C0 0.636227 0.636227 0 1.42105 0H19.4211C20.2059 0 20.8421 0.636227 20.8421 1.42105C20.8421 2.20588 20.2059 2.84211 19.4211 2.84211H1.42105C0.636228 2.84211 0 2.20588 0 1.42105Z" transform="translate(23.1741 26.4473)" fill="white"/>
<path fill-rule="evenodd" clip-rule="evenodd" d="M0 1.42105C0 0.636227 0.636227 0 1.42105 0H9.94737C10.7322 0 11.3684 0.636227 11.3684 1.42105C11.3684 2.20588 10.7322 2.84211 9.94737 2.84211H1.42105C0.636228 2.84211 0 2.20588 0 1.42105Z" transform="translate(23.1741 33.1582)" fill="white"/>
</svg>
