<svg width="72" height="72" viewBox="0 0 72 72" fill="none" xmlns="http://www.w3.org/2000/svg">
<rect width="72" height="72" fill="black" fill-opacity="0"/>
<rect opacity="0.1" width="72" height="72" rx="26.31" fill="#F2B12C"/>
<rect width="38.7692" height="41.5385" fill="black" fill-opacity="0" transform="translate(16.6154 15.2305)"/>
<path d="M33.7043 41.1152C32.5064 42.3747 31.1903 43.0483 29.8541 43.0483C28.5179 43.0483 27.2009 42.3747 26.003 41.1152C20.6941 42.0811 16.8374 44.9919 16.8374 48.4327C16.8374 53.8983 22.6644 56.768 29.8541 56.768C37.0403 56.768 42.8699 53.8776 42.8699 48.4331C42.8699 44.9923 39.012 42.0816 33.7043 41.1152Z" fill="#F2B12C"/>
<path d="M29.8541 42.0347C33.5847 42.0347 36.6099 35.0441 36.6099 31.3537C36.6099 27.6637 33.5847 24.6719 29.8541 24.6719C26.1226 24.6719 23.0974 27.6637 23.0974 31.3537C23.0974 35.0446 26.1226 42.0347 29.8541 42.0347Z" fill="#F2B12C"/>
<path d="M48.0086 41.5059C47.0674 42.506 46.0333 43.0409 44.9834 43.0409C43.9336 43.0409 42.8988 42.506 41.9576 41.5059C40.9014 41.7001 39.9184 41.9933 39.0392 42.3673C39.0392 42.3673 43.2311 44.8159 43.4118 47.8522C43.6143 51.256 41.4501 53.5882 41.4501 53.5882C42.5306 53.7967 43.7692 53.936 44.9834 53.936C50.6298 53.936 55.2101 51.6407 55.2101 47.3171C55.2101 44.5847 52.1789 42.2732 48.0086 41.5059Z" fill="#FACE72"/>
<path d="M44.9834 42.2354C47.9147 42.2354 50.2916 36.6841 50.2916 33.7534C50.2916 30.8232 47.9147 28.4473 44.9834 28.4473C42.0516 28.4473 39.6747 30.8232 39.6747 33.7534C39.6747 36.6844 42.0516 42.2354 44.9834 42.2354Z" fill="#FACE72"/>
<rect x="39.3096" y="18.0625" width="9.45591" height="1.38462" rx="0.472795" fill="white"/>
<rect x="39.3096" y="20.8945" width="5.67355" height="1.38462" rx="0.472795" fill="white"/>
</svg>
