<svg width="72" height="72" viewBox="0 0 72 72" fill="none" xmlns="http://www.w3.org/2000/svg">
<rect width="72" height="72" fill="black" fill-opacity="0"/>
<rect opacity="0.1" width="72" height="72" rx="26.31" fill="#1FC1C1"/>
<rect width="41" height="40" fill="black" fill-opacity="0" transform="translate(16 16)"/>
<path fill-rule="evenodd" clip-rule="evenodd" d="M28.7273 33.4993C28.7273 30.8632 30.8639 28.7266 33.5 28.7266C36.1362 28.7266 38.2727 30.8632 38.2727 33.4993C38.2727 36.1354 36.1362 38.272 33.5 38.272C30.8639 38.272 28.7273 36.1354 28.7273 33.4993ZM49.6509 36.6818C50.396 36.6818 51 36.0778 51 35.3328V31.9182C51 31.0345 50.2837 30.3182 49.4 30.3182H45.8105C45.5098 29.1536 45.0516 28.0559 44.455 27.0441L46.9923 24.5068C47.6171 23.882 47.6171 22.8689 46.9923 22.2441L44.7559 20.0077C44.1311 19.3829 43.118 19.3829 42.4932 20.0077L39.9559 22.545C38.9441 21.9484 37.8464 21.4902 36.6818 21.1895V17.6C36.6818 16.7163 35.9655 16 35.0818 16H31.9182C31.0345 16 30.3182 16.7163 30.3182 17.6V21.1895C29.1536 21.4902 28.0559 21.9484 27.0441 22.545L24.5068 20.0077C23.882 19.3829 22.8689 19.3829 22.2441 20.0077L20.0077 22.2441C19.3829 22.8689 19.3829 23.882 20.0077 24.5068L22.545 27.0441C21.9484 28.0559 21.4902 29.1536 21.1895 30.3182H17.6C16.7163 30.3182 16 31.0345 16 31.9182V35.0818C16 35.9655 16.7163 36.6818 17.6 36.6818H21.1895C21.4902 37.8464 21.9484 38.9441 22.545 39.9559L20.0077 42.4932C19.3829 43.118 19.3829 44.1311 20.0077 44.7559L22.2441 46.9923C22.8689 47.6171 23.882 47.6171 24.5068 46.9923L27.0441 44.455C28.0543 45.0516 29.1536 45.5098 30.3182 45.8105V49.4C30.3182 50.2837 31.0345 51 31.9182 51H35.0818C35.9655 51 36.6818 50.2837 36.6818 49.4V46.7008C36.3174 46.5722 35.3615 46.2115 34.638 45.9369C34.1372 45.7468 33.8765 45.1953 34.0461 44.6872L35.6686 39.8276C35.8413 39.3104 36.3964 39.0269 36.9167 39.1902L39.3555 39.9559C39.3555 39.9559 39.8883 39.2717 40.7136 38.6564C41.5389 38.0412 42.487 37.6215 42.487 37.6215V35.1711C42.487 34.6188 42.9347 34.1711 43.487 34.1711H48.6488C49.2019 34.1711 49.6499 34.62 49.6492 35.1731C49.6482 35.8779 49.6478 36.6939 49.6509 36.6818V36.6818Z" fill="#24DBDB"/>
<path fill-rule="evenodd" clip-rule="evenodd" d="M46 49.5658C43.9938 49.5658 42.3524 47.9272 42.3524 45.9245C42.3524 43.9218 43.9938 42.2832 46 42.2832C48.0062 42.2832 49.6476 43.9218 49.6476 45.9245C49.6476 47.9272 48.0062 49.5658 46 49.5658V49.5658ZM56.9429 44.2853L55.8486 40.8261C55.7574 40.553 55.575 40.3709 55.3926 40.2799C55.2103 40.1888 54.9367 40.1888 54.6631 40.1888L52.4745 40.9171C51.4714 39.6426 50.1948 38.7323 48.7357 38.1861V35.9103C48.7357 35.3641 48.371 35 47.8238 35H44.1762C43.629 35 43.2643 35.3641 43.2643 35.9103V38.1861C41.8052 38.7323 40.4374 39.6426 39.5255 40.9171L37.3369 40.1888C37.0633 40.0978 36.7897 40.1888 36.6074 40.2799C36.425 40.3709 36.2426 40.553 36.1514 40.8261L35.0571 44.2853C34.8747 44.7405 35.1483 45.2866 35.6043 45.4687L37.7928 46.1059C37.7928 47.6535 38.34 49.201 39.2519 50.5665L37.884 52.3872C37.7017 52.5692 37.7017 52.8423 37.7017 53.0244C37.7017 53.2064 37.884 53.4795 38.0664 53.6616L40.9845 55.8464C41.4405 56.1195 41.9876 56.0284 42.3524 55.5733L43.7202 53.7526C45.2705 54.2078 46.8207 54.2078 48.371 53.7526L49.7388 55.5733C49.9212 55.8464 50.1948 55.9374 50.4683 55.9374C50.6507 55.9374 50.8331 55.8464 51.0155 55.7554L53.9336 53.5706C54.116 53.3885 54.2983 53.2064 54.2983 52.9334C54.2983 52.6603 54.2983 52.4782 54.116 52.2961L52.7481 50.4755C53.66 49.201 54.116 47.6535 54.2072 46.0149L56.3957 45.2866C56.8517 45.1956 57.1253 44.7405 56.9429 44.2853V44.2853Z" fill="#1FC1C1"/>
</svg>
