<svg width="72" height="72" viewBox="0 0 72 72" fill="none" xmlns="http://www.w3.org/2000/svg">
<rect width="72" height="72" fill="black" fill-opacity="0"/>
<rect opacity="0.1" width="72" height="72" rx="26.31" fill="#FF6D00"/>
<rect width="39" height="48" fill="black" fill-opacity="0" transform="translate(16.6154 12.4609)"/>
<path d="M41.6384 36.5801C39.8844 38.4272 37.9572 39.4152 36.0006 39.4152C34.044 39.4152 32.1155 38.4272 30.3615 36.5801C22.5877 37.9967 16.9405 42.2659 16.9405 47.3124C16.9405 55.3285 25.4728 59.5375 36.0006 59.5375C46.5233 59.5375 55.0594 55.2983 55.0594 47.313C55.0594 42.2665 49.4103 37.9973 41.6384 36.5801Z" fill="#FF6D00"/>
<path d="M36.0006 37.9265C41.4633 37.9265 45.893 27.6736 45.893 22.261C45.893 16.849 41.4633 12.4609 36.0006 12.4609C30.5366 12.4609 26.1069 16.849 26.1069 22.261C26.1069 27.6742 30.5366 37.9265 36.0006 37.9265Z" fill="#FF9344"/>
</svg>
