<svg xmlns="http://www.w3.org/2000/svg" viewBox="0 0 80 80">
  <g fill="none" fill-rule="evenodd">
    <circle cx="40" cy="40" r="40" fill="#939597" fill-opacity=".1"/>
    <g fill-rule="nonzero">
      <path d="M25.212 20H64v38.788H25.212z"/>
      <g fill="#C1C2C3" stroke="#F4F4F4">
        <path d="M22.263 35.58a2.242 2.242 0 01-.768-.998c-.303-.767-.46-1.885-.46-3.223 0-1.151.118-2.032.398-3.138.241-.95.85-2.125 1.643-3.076 1.433-1.718 3.37-2.645 5.696-2.645 4.022 0 7.068 2.794 7.743 6.457.145.788.217 1.57.21 2.42l-.012.756c-.03 1.29-.121 1.882-.409 2.517-.133.296-.31.557-.542.799l-.153.146a7.61 7.61 0 01-.064.365c-.154.77-.412 1.45-.787 2.029-.105.16-.215.318-.331.473-.191.255-.495.604-.872 1.014l-.41.433c-.067.091-.07.1-.077.094.09.078 2.045 1.107 4.687 2.439l2.507 1.254a2.253 2.253 0 011.238 2.022v2.806c0 1.239-.981 2.249-2.199 2.249H19a2.5 2.5 0 01-2.5-2.5v-2.577c0-.822.439-1.58 1.146-1.974l5.62-3.153c.367-.209.66-.378.874-.503l.307-.184a.64.64 0 00.004-.052l-.42-.446a9.427 9.427 0 01-.92-1.178 4.825 4.825 0 01-.395-.725 5.391 5.391 0 01-.453-1.901z"/>
        <path d="M44.263 35.58a2.242 2.242 0 01-.768-.998c-.303-.767-.46-1.885-.46-3.223 0-1.151.118-2.032.398-3.138.241-.95.85-2.125 1.643-3.076 1.433-1.718 3.37-2.645 5.696-2.645 4.022 0 7.068 2.794 7.743 6.457.145.788.217 1.57.21 2.42l-.012.756c-.03 1.29-.121 1.882-.409 2.517-.133.296-.31.557-.542.799l-.153.146c-.019.122-.04.244-.064.365-.154.77-.412 1.45-.787 2.029-.105.16-.215.318-.331.473-.191.255-.495.604-.872 1.014l-.41.433c-.067.091-.07.1-.077.094.09.078 2.045 1.107 4.687 2.439l2.507 1.254a2.253 2.253 0 011.238 2.022v2.555a2.5 2.5 0 01-2.5 2.5H40.699c-1.218 0-2.199-1.01-2.199-2.249v-2.828c0-.822.439-1.58 1.146-1.974l5.62-3.153c.367-.209.66-.378.874-.503l.307-.184a.64.64 0 00.004-.052l-.42-.446a9.427 9.427 0 01-.92-1.178 4.825 4.825 0 01-.395-.725 5.391 5.391 0 01-.453-1.901z"/>
      </g>
      <path fill="#C1C2C3" stroke="#F4F4F4" stroke-width="2.5" d="M32.686 39.124a2.046 2.046 0 01-.787-.953c-.328-.807-.505-2.03-.505-3.511 0-1.367.158-2.347.455-3.484.234-.9.864-2.199 1.833-3.327C35.212 26.069 37.317 25 40 25c4.874 0 7.95 3.439 8.624 6.988.151.799.248 1.671.239 2.683l-.014.87c-.033 1.393-.126 2.024-.433 2.684a2.63 2.63 0 01-.515.744l-.162.151-.166.134c-.025.191-.058.4-.101.61-.16.78-.431 1.511-.852 2.142a9.26 9.26 0 01-.37.514c-.245.317-.659.768-.995 1.124l-.537.556c-.265.357-.223.675-.022.863.15.14 2.214 1.202 5.721 2.92l2.983 1.45a2.02 2.02 0 011.142 1.819v3.081a3.273 3.273 0 01-3.273 3.273H29.273A3.273 3.273 0 0126 54.333v-3.107h0a2.02 2.02 0 011.059-1.777l6.687-3.645c.438-.243.789-.439 1.051-.588l.505-.295c.106-.066.175-.347.147-.615l-.018-.113-.629-.65c-.387-.413-.71-.807-1.04-1.29a4.956 4.956 0 01-.42-.752 5.514 5.514 0 01-.49-1.989l-.012-.291-.154-.097z"/>
    </g>
  </g>
</svg>