<?xml version="1.0" encoding="UTF-8"?>
<svg width="90px" height="90px" viewBox="0 0 90 90" version="1.1" xmlns="http://www.w3.org/2000/svg" xmlns:xlink="http://www.w3.org/1999/xlink">
    <!-- Generator: Sketch 53.2 (72643) - https://sketchapp.com -->
    <title>Courses@1x</title>
    <desc>Created with Sketch.</desc>
    <g id="Page-1" stroke="none" stroke-width="1" fill="none" fill-rule="evenodd">
        <g id="Search-result-category-icon" transform="translate(-377.000000, -362.000000)">
            <g id="Courses" transform="translate(377.000000, 362.000000)">
                <rect id="Rectangle-4-Copy" fill="#F5F5F5" x="0" y="0" width="90" height="90" rx="3"></rect>
                <g id="Group-64" transform="translate(22.000000, 23.000000)" fill="#C8CBCF">
                    <path d="M0,27.703743 L9.04283572,30.4888823 C9.8345618,30.7327292 10.6740596,30.2885854 10.9179065,29.4968593 C11.1617534,28.7051332 10.7176095,27.8656354 9.92588344,27.6217885 L-6.66133815e-16,24.5646758 L0,4.01571232 C0,1.80737969 1.72602081,0.481040465 3.85601521,1.05347646 L24,6.46717237 L33.9641285,3.78931283 L33.9641285,18.0208782 C33.9641285,18.5727998 34.2519121,18.6666572 34.5928381,18.2478045 L37.1687147,15.0831498 C37.3410721,14.871396 37.6778986,14.8082736 37.9134327,14.9379742 L40.35749,16.2838327 C40.596429,16.4154083 40.7901274,16.2932546 40.7901274,16.0206337 L40.7901274,1.95482564 L44.1417772,1.05406974 C46.2726148,0.481407134 48,1.80479711 48,4.01571232 L48,32.5686324 C48,34.7769651 46.2739792,37.0310405 44.1439848,37.6034765 L24,43.0171724 L3.85601521,37.6034765 C1.72639681,37.0311415 0,34.7795476 0,32.5686324 L0,27.703743 Z" id="Combined-Shape"></path>
                </g>
            </g>
        </g>
    </g>
</svg>