<svg xmlns="http://www.w3.org/2000/svg" viewBox="0 0 66 67">
  <g fill="none" fill-rule="evenodd">
    <path fill="#EEB960" fill-rule="nonzero" d="M19.417 30.605l-2.154-.542C9.734 28.171 4.352 21.276 4.352 13.478v-2.247h10.255a1.88 1.88 0 001.875-1.886 1.88 1.88 0 00-1.875-1.885H2.476A1.88 1.88 0 00.6 9.345v4.133c0 9.533 6.551 17.93 15.754 20.242l2.154.54a1.871 1.871 0 002.274-1.37 1.883 1.883 0 00-1.365-2.285zM63.751 7.46h-12.13a1.88 1.88 0 00-1.876 1.885 1.88 1.88 0 001.875 1.886h10.255v3.09c0 7.47-4.893 14.106-11.99 16.324l-4.189 1.311a1.887 1.887 0 00-1.234 2.36 1.876 1.876 0 002.348 1.24l4.19-1.31c8.673-2.713 14.627-10.796 14.627-19.925V9.345A1.88 1.88 0 0063.75 7.46zM27.986 40.747h11.255v18.977H27.986z"/>
    <path fill="#7790F1" fill-rule="nonzero" d="M46.7 57.625v7.5c0 1.05-.817 1.875-1.857 1.875H22.557c-1.04 0-1.857-.825-1.857-1.875v-7.5c0-3.113 2.488-5.625 5.571-5.625H41.13c3.083 0 5.571 2.512 5.571 5.625z"/>
    <path fill="#F8D370" fill-rule="nonzero" d="M56.094 3.213l-2.453 25.238C52.577 38.998 43.988 46.92 33.6 46.92s-18.977-7.922-20.04-18.47L11.105 3.214c-.082-1.167.736-2.168 1.84-2.293h41.308c1.104.125 1.922 1.126 1.84 2.293z"/>
    <path fill="#FFF" d="M36.354 18.84l-2.06-4.459c-.153-.307-.382-.461-.687-.461-.305 0-.534.154-.687.461l-2.06 4.46h-4.427c-.306 0-.611.154-.687.461-.077.308-.077.615.152.846l3.282 3.46-1.297 5.382c-.077.308 0 .616.305.77.229.153.61.23.84.076l4.655-2.691 4.656 2.691c.152.077.229.077.381.077.153 0 .306-.077.458-.154.23-.153.382-.538.306-.769l-1.298-5.382 3.282-3.46c.229-.23.305-.538.153-.846-.153-.307-.535-.461-.84-.461h-4.427z"/>
    <path fill="#EEB960" fill-rule="nonzero" d="M57.6 3c0 1.12-.812 2-1.846 2H11.446C10.412 5 9.6 4.12 9.6 3s.812-2 1.846-2h44.308c1.034 0 1.846.88 1.846 2z"/>
    <path fill="#6A83E6" fill-rule="nonzero" d="M50.2 65c0 1.12-.807 2-1.833 2H19.033c-1.026 0-1.833-.88-1.833-2s.807-2 1.833-2h29.334c1.026 0 1.833.88 1.833 2z"/>
  </g>
</svg>
