<?xml version="1.0" encoding="UTF-8"?>
<svg width="90px" height="90px" viewBox="0 0 90 90" version="1.1" xmlns="http://www.w3.org/2000/svg" xmlns:xlink="http://www.w3.org/1999/xlink">
    <!-- Generator: Sketch 53.2 (72643) - https://sketchapp.com -->
    <title>Forums@1x</title>
    <desc>Created with Sketch.</desc>
    <g id="Page-1" stroke="none" stroke-width="1" fill="none" fill-rule="evenodd">
        <g id="Search-result-category-icon" transform="translate(-525.000000, -362.000000)">
            <g id="Forums" transform="translate(525.000000, 362.000000)">
                <g id="Group-65-Copy" fill="#F5F5F5">
                    <rect id="Rectangle-4-Copy" x="0" y="0" width="90" height="90" rx="3"></rect>
                </g>
                <g id="Group-66" transform="translate(21.000000, 25.000000)" fill="#C8CBCF">
                    <path d="M4,3.12638804e-13 L33.6424948,3.10418358e-13 C35.8516338,3.13936765e-13 37.6424948,1.790861 37.6424948,4 L37.6424948,22.1590907 C37.6424948,24.3682297 35.8516338,26.1590907 33.6424948,26.1590907 L16.5134985,26.1590907 L6.70697587,35.7972182 C6.40761829,36.0914353 5.92643096,36.0872681 5.63221388,35.7879105 C5.49252382,35.6457798 5.41424872,35.4544682 5.41424872,35.2551834 L5.41424872,26.1590907 L4,26.1590907 C1.790861,26.1590907 1.71996971e-12,24.3682297 1.71773706e-12,22.1590907 L1.55253588e-12,4 C1.55226534e-12,1.790861 1.790861,3.13044616e-13 4,3.12638804e-13 Z M7.77601337,10.9444444 L25.8212474,10.9444444 C26.6496745,10.9444444 27.3212474,10.2728716 27.3212474,9.44444444 C27.3212474,8.61601732 26.6496745,7.94444444 25.8212474,7.94444444 L7.77601337,7.94444444 C6.94758624,7.94444444 6.27601337,8.61601732 6.27601337,9.44444444 C6.27601337,10.2728716 6.94758624,10.9444444 7.77601337,10.9444444 Z M7.77601337,18.2742725 L18.8212474,18.2742725 C19.6496745,18.2742725 20.3212474,17.6026996 20.3212474,16.7742725 C20.3212474,15.9458454 19.6496745,15.2742725 18.8212474,15.2742725 L7.77601337,15.2742725 C6.94758624,15.2742725 6.27601337,15.9458454 6.27601337,16.7742725 C6.27601337,17.6026996 6.94758624,18.2742725 7.77601337,18.2742725 Z M17.795067,28.8521626 L36.3424948,28.8521626 C38.5516338,28.8521626 40.3424948,27.0613016 40.3424948,24.8521626 L40.3424948,8.81320152 L44.7823881,8.81320145 C46.9915271,8.81320146 48.7823881,10.6040625 48.7823881,12.8132015 L48.782388,29.0378301 C48.7823879,31.2469691 46.9915269,33.0378301 44.782388,33.0378301 L39.9184738,33.0378301 L39.9184738,41.5281676 C39.9184738,41.7342934 39.8347486,41.9315784 39.6864953,42.0747874 C39.3846055,42.3664057 38.9034722,42.3580789 38.6118539,42.0561891 L29.9003379,33.0378301 L21.795067,33.0378301 C19.585928,33.0378301 17.795067,31.2469691 17.795067,29.0378301 L17.795067,28.8521626 Z" id="Combined-Shape"></path>
                </g>
            </g>
        </g>
    </g>
</svg>