<svg xmlns="http://www.w3.org/2000/svg" width="90" height="90">
  <g fill="none" fill-rule="evenodd">
    <rect width="90" height="90" fill="#F5F5F5" rx="3"/>
    <path fill="#C8CBCF" d="M21.011 64.049c.119-4.608 1.15-7.643 3.092-9.105 3.406-2.564 8.685-4.04 13.427-5.27 1.52-1.85 1.692-3.442.514-4.777-1.147-.936-2.262-3.05-3.346-6.342-1.658-.274-2.487-2.64-2.487-7.1.404-.606.92-.757 1.547-.454-1.436-2.493-1.436-4.95 0-7.374 2.23-4.401 5.532-6.602 9.904-6.602 3.283-.224 5.96 1.06 8.028 3.852 3.277 1.115 4.428 4.504 3.453 10.168.689-.339 1.176-.202 1.462.41-.266 5.768-3.113 6.96-3.494 6.69-.4 2.888-1.483 5.14-3.25 6.752-.975 2.408-.656 4 .956 4.778.301.145 3.897.895 7.358 2.09 2.826.977 5.483 2.353 6.832 3.093 1.876 1.029 2.873 4.063 2.99 9.103a2 2 0 0 1-.81 1.654c-6.637 4.908-14.366 7.362-23.189 7.362-8.818 0-16.234-2.442-22.248-7.324a2 2 0 0 1-.739-1.604z"/>
  </g>
</svg>