<svg xmlns="http://www.w3.org/2000/svg" xmlns:xlink="http://www.w3.org/1999/xlink" width="48" height="48">
  <defs>
    <circle id="a" cx="24" cy="24" r="24"/>
  </defs>
  <g fill="none" fill-rule="evenodd">
    <mask id="b" fill="#fff">
      <use xlink:href="#a"/>
    </mask>
    <use fill="#F5F5F5" xlink:href="#a"/>
    <path fill="#C8CBCF" d="M7.094 45.789c-.006-4.003.758-6.586 2.293-7.75 2.517-1.908 6.418-3.007 9.922-3.922 1.124-1.377 1.25-2.563.38-3.556-.847-.697-1.671-2.271-2.472-4.722-1.226-.203-1.838-1.965-1.838-5.284.298-.452.68-.564 1.143-.339-1.062-1.855-1.062-3.685 0-5.489 1.648-3.277 4.088-4.915 7.32-4.915 2.425-.166 4.403.79 5.931 2.868 2.422.83 3.272 3.353 2.552 7.57.51-.253.87-.151 1.08.305-.196 4.293-2.3 5.18-2.582 4.979-.294 2.15-1.095 3.826-2.402 5.027-.72 1.792-.484 2.977.707 3.556.405.197 6.198 1.062 9.75 3.187 2.367 1.416 3.597 4.245 3.687 8.485-5.411 3.795-11.235 5.692-17.47 5.692-6.237 0-12.237-1.897-18-5.692z" mask="url(#b)"/>
  </g>
</svg>
