<svg width="72" height="72" viewBox="0 0 72 72" fill="none" xmlns="http://www.w3.org/2000/svg">
<rect width="72" height="72" fill="black" fill-opacity="0"/>
<rect opacity="0.1" width="72" height="72" rx="26.31" fill="#1FC1C1"/>
<path d="M41.0292 36C39.4647 37.6897 37.7457 38.5934 36.0006 38.5934C34.2554 38.5934 32.5353 37.6897 30.9708 36C24.037 37.2959 19 41.201 19 45.8172C19 53.1499 26.6104 57 36.0006 57C45.3863 57 53 53.1222 53 45.8178C53 41.2016 47.9614 37.2964 41.0292 36Z" fill="#67E8E8"/>
<path d="M36.0006 37C40.9702 37 45 27.7398 45 22.8512C45 17.9632 40.9702 14 36.0006 14C31.0298 14 27 17.9632 27 22.8512C27 27.7404 31.0298 37 36.0006 37Z" fill="#1FC1C1"/>
<path fill-rule="evenodd" clip-rule="evenodd" d="M45.5 57C50.1944 57 54 53.1944 54 48.5C54 43.8056 50.1944 40 45.5 40C40.8056 40 37 43.8056 37 48.5C37 53.1944 40.8056 57 45.5 57Z" fill="#52DFDF" stroke="white" stroke-width="2"/>
<rect width="10" height="8" fill="black" fill-opacity="0" transform="translate(40 45)"/>
<rect width="10" height="8" fill="black" fill-opacity="0" transform="translate(40 45)"/>
<rect width="6.4" height="5.6" fill="black" fill-opacity="0" transform="translate(40 46.4004)"/>
<path d="M42.4533 47.0812C42.4533 46.7332 42.7509 46.4512 43.1179 46.4512C43.485 46.4512 43.7825 46.7332 43.7825 47.0812V51.2617C43.7825 51.6097 43.485 51.8917 43.1179 51.8917C42.7509 51.8917 42.4533 51.6097 42.4533 51.2617V47.0812Z" fill="white"/>
<path d="M45.327 48.541C45.6941 48.541 45.9916 48.8231 45.9916 49.171C45.9916 49.519 45.6941 49.801 45.327 49.801H40.9089C40.5418 49.801 40.2443 49.519 40.2443 49.171C40.2443 48.8231 40.5418 48.541 40.9089 48.541H45.327Z" fill="white"/>
<path fill-rule="evenodd" clip-rule="evenodd" d="M46.3574 47.2735V46.3102C46.8124 46.2904 47.1309 46.2606 47.3129 46.2209C47.6027 46.158 47.8386 46.0322 48.0206 45.8435C48.1453 45.7144 48.2397 45.5422 48.3037 45.3271C48.3408 45.198 48.3593 45.102 48.3593 45.0391H49.5574V52.2391H48.0813V47.2735H46.3574Z" fill="white"/>
</svg>
