<svg width="24" height="24" viewBox="0 0 24 24" fill="none" xmlns="http://www.w3.org/2000/svg">
<path d="M1.5 12C1.5 6.20101 6.20101 1.5 12 1.5C17.799 1.5 22.5 6.20101 22.5 12C22.5 17.799 17.799 22.5 12 22.5C6.20101 22.5 1.5 17.799 1.5 12ZM12 0C5.37258 0 0 5.37258 0 12C0 18.6274 5.37258 24 12 24C18.6274 24 24 18.6274 24 12C24 5.37258 18.6274 0 12 0ZM8.22228 5.5C7.11771 5.5 6.22228 6.39543 6.22228 7.5V8.51108H6.22225H5.50002C5.16865 8.51108 4.90002 8.77971 4.90002 9.11108C4.90002 9.44246 5.16865 9.71108 5.50002 9.71108H6.22225H6.22228V14.2889H6.22225H5.50002C5.16865 14.2889 4.90002 14.5575 4.90002 14.8889C4.90002 15.2203 5.16865 15.4889 5.50002 15.4889H6.22225H6.22228V16.5C6.22228 17.6046 7.11772 18.5 8.22229 18.5H15.7778C16.8824 18.5 17.7778 17.6046 17.7778 16.5V7.5C17.7778 6.39543 16.8824 5.5 15.7778 5.5H8.22228ZM15.4032 14.435C15.4089 14.4679 15.4126 14.5233 15.4144 14.6012C15.4219 14.9519 15.1425 15.2424 14.7904 15.2499L14.7768 15.25H9.22164C8.86945 15.25 8.58393 14.9656 8.58393 14.6148L8.5841 14.6004C8.58578 14.5268 8.58932 14.4742 8.59472 14.4429C8.78225 13.3529 9.68581 12.5132 10.7937 12.468L10.8877 12.4661H13.1115C14.2593 12.4661 15.2073 13.3182 15.4032 14.435ZM11.9992 11.8275C11.0561 11.8275 10.2916 11.0578 10.2916 10.1082C10.2916 9.15868 11.0561 8.38892 11.9992 8.38892C12.9423 8.38892 13.7069 9.15868 13.7069 10.1082C13.7069 11.0578 12.9423 11.8275 11.9992 11.8275Z" fill="black"/>
</svg>
