<svg width="24" height="24" viewBox="0 0 24 24" fill="none" xmlns="http://www.w3.org/2000/svg">
<path d="M12 1.5C17.799 1.5 22.5 6.20101 22.5 12C22.5 17.799 17.799 22.5 12 22.5C6.20101 22.5 1.5 17.799 1.5 12C1.5 6.20101 6.20101 1.5 12 1.5ZM24 12C24 5.37258 18.6274 0 12 0C5.37258 0 0 5.37258 0 12C0 18.6274 5.37258 24 12 24C18.6274 24 24 18.6274 24 12ZM6 9V15C6 16.6569 7.34315 18 9 18H15C16.6569 18 18 16.6569 18 15V9C18 7.34315 16.6569 6 15 6H9C7.34315 6 6 7.34315 6 9ZM12.0001 16.0001C9.79098 16.0001 8.00012 14.2093 8.00012 12.0001C8.00012 9.79098 9.79098 8.00012 12.0001 8.00012C14.2093 8.00012 16.0001 9.79098 16.0001 12.0001C16.0001 14.2093 14.2093 16.0001 12.0001 16.0001ZM11.9999 12.6667C12.3681 12.6667 12.6666 12.3683 12.6666 12.0001C12.6666 11.6319 12.3681 11.3334 11.9999 11.3334C11.6317 11.3334 11.3333 11.6319 11.3333 12.0001C11.3333 12.3683 11.6317 12.6667 11.9999 12.6667Z" fill="black"/>
</svg>
