<svg width="24" height="24" viewBox="0 0 24 24" fill="none" xmlns="http://www.w3.org/2000/svg">
<path d="M12 1.5C17.799 1.5 22.5 6.20101 22.5 12C22.5 17.799 17.799 22.5 12 22.5C6.20101 22.5 1.5 17.799 1.5 12C1.5 6.20101 6.20101 1.5 12 1.5ZM24 12C24 5.37258 18.6274 0 12 0C5.37258 0 0 5.37258 0 12C0 18.6274 5.37258 24 12 24C18.6274 24 24 18.6274 24 12ZM6.99922 11.2C6.55739 11.2 6.19922 11.5581 6.19922 12C6.19922 12.4418 6.55739 12.8 6.99922 12.8H16.9992C17.441 12.8 17.7992 12.4418 17.7992 12C17.7992 11.5581 17.441 11.2 16.9992 11.2H6.99922ZM8.69922 7.99995C8.69922 8.44178 9.05739 8.79995 9.49922 8.79995H14.4992C14.941 8.79995 15.2992 8.44178 15.2992 7.99995C15.2992 7.55812 14.941 7.19995 14.4992 7.19995H9.49922C9.05739 7.19995 8.69922 7.55812 8.69922 7.99995ZM9.49922 15.2C9.05739 15.2 8.69922 15.5581 8.69922 16C8.69922 16.4418 9.05739 16.8 9.49922 16.8H14.4992C14.941 16.8 15.2992 16.4418 15.2992 16C15.2992 15.5581 14.941 15.2 14.4992 15.2H9.49922Z" fill="black"/>
</svg>
