<svg width="24" height="24" viewBox="0 0 24 24" fill="none" xmlns="http://www.w3.org/2000/svg">
<path d="M12 1.5C17.799 1.5 22.5 6.20101 22.5 12C22.5 17.799 17.799 22.5 12 22.5C6.20101 22.5 1.5 17.799 1.5 12C1.5 6.20101 6.20101 1.5 12 1.5ZM24 12C24 5.37258 18.6274 0 12 0C5.37258 0 0 5.37258 0 12C0 18.6274 5.37258 24 12 24C18.6274 24 24 18.6274 24 12ZM6.99922 11.2C6.55739 11.2 6.19922 11.5581 6.19922 12C6.19922 12.4418 6.55739 12.8 6.99922 12.8H16.9992C17.441 12.8 17.7992 12.4418 17.7992 12C17.7992 11.5581 17.441 11.2 16.9992 11.2H6.99922ZM6.19922 7.99995C6.19922 8.44178 6.55739 8.79995 6.99922 8.79995H16.9992C17.441 8.79995 17.7992 8.44178 17.7992 7.99995C17.7992 7.55812 17.441 7.19995 16.9992 7.19995H6.99922C6.55739 7.19995 6.19922 7.55812 6.19922 7.99995ZM6.99922 15.2C6.55739 15.2 6.19922 15.5581 6.19922 16C6.19922 16.4418 6.55739 16.8 6.99922 16.8H16.9992C17.441 16.8 17.7992 16.4418 17.7992 16C17.7992 15.5581 17.441 15.2 16.9992 15.2H6.99922Z" fill="black"/>
</svg>
