<svg width="24" height="24" viewBox="0 0 24 24" fill="none" xmlns="http://www.w3.org/2000/svg">
<path d="M22.5 12C22.5 17.799 17.799 22.5 12 22.5C6.20101 22.5 1.5 17.799 1.5 12C1.5 6.20101 6.20101 1.5 12 1.5C17.799 1.5 22.5 6.20101 22.5 12ZM12 24C18.6274 24 24 18.6274 24 12C24 5.37258 18.6274 0 12 0C5.37258 0 0 5.37258 0 12C0 18.6274 5.37258 24 12 24Z" fill="black"/>
<path d="M16.5657 14.5657C16.8781 14.2533 16.8781 13.7467 16.5657 13.4343L12.5657 9.43431C12.2533 9.12189 11.7467 9.12189 11.4343 9.43431L7.43431 13.4343C7.12189 13.7467 7.12189 14.2533 7.43431 14.5657C7.74673 14.8781 8.25327 14.8781 8.56569 14.5657L12 11.1314L15.4343 14.5657C15.7467 14.8781 16.2533 14.8781 16.5657 14.5657Z" fill="black"/>
</svg>
