<svg width="24" height="24" viewBox="0 0 24 24" fill="none" xmlns="http://www.w3.org/2000/svg">
<path d="M1.5 12C1.5 6.20101 6.20101 1.5 12 1.5C17.799 1.5 22.5 6.20101 22.5 12C22.5 17.799 17.799 22.5 12 22.5C6.20101 22.5 1.5 17.799 1.5 12ZM12 0C5.37258 0 0 5.37258 0 12C0 18.6274 5.37258 24 12 24C18.6274 24 24 18.6274 24 12C24 5.37258 18.6274 0 12 0Z" fill="black"/>
<path d="M7.43431 9.43431C7.12189 9.74673 7.12189 10.2533 7.43431 10.5657L11.4343 14.5657C11.7467 14.8781 12.2533 14.8781 12.5657 14.5657L16.5657 10.5657C16.8781 10.2533 16.8781 9.74673 16.5657 9.43431C16.2533 9.12189 15.7467 9.12189 15.4343 9.43431L12 12.8686L8.56569 9.43431C8.25327 9.12189 7.74673 9.12189 7.43431 9.43431Z" fill="black"/>
</svg>
