<svg width="24" height="24" viewBox="0 0 24 24" fill="none" xmlns="http://www.w3.org/2000/svg">
<path d="M12 1.5C17.799 1.5 22.5 6.20101 22.5 12C22.5 17.799 17.799 22.5 12 22.5C6.20101 22.5 1.5 17.799 1.5 12C1.5 6.20101 6.20101 1.5 12 1.5ZM24 12C24 5.37258 18.6274 0 12 0C5.37258 0 0 5.37258 0 12C0 18.6274 5.37258 24 12 24C18.6274 24 24 18.6274 24 12ZM11.7657 15.7656C12.0782 15.4532 12.0782 14.9467 11.7657 14.6343L9.13142 12L11.7657 9.36564C12.0782 9.05322 12.0782 8.54669 11.7657 8.23427C11.4533 7.92185 10.9468 7.92185 10.6344 8.23427L7.43436 11.4343C7.12194 11.7467 7.12194 12.2532 7.43436 12.5656L10.6344 15.7656C10.9468 16.0781 11.4533 16.0781 11.7657 15.7656ZM14.8343 15.7656C15.1467 16.0781 15.6533 16.0781 15.9657 15.7656C16.2781 15.4532 16.2781 14.9467 15.9657 14.6343L13.3314 12L15.9657 9.36564C16.2781 9.05322 16.2781 8.54669 15.9657 8.23427C15.6533 7.92185 15.1467 7.92185 14.8343 8.23427L11.6343 11.4343C11.3219 11.7467 11.3219 12.2532 11.6343 12.5656L14.8343 15.7656Z" fill="black"/>
</svg>
