<svg width="24" height="24" viewBox="0 0 24 24" fill="none" xmlns="http://www.w3.org/2000/svg">
<path d="M22.5 12C22.5 17.799 17.799 22.5 12 22.5C6.20101 22.5 1.5 17.799 1.5 12C1.5 6.20101 6.20101 1.5 12 1.5C17.799 1.5 22.5 6.20101 22.5 12ZM12 24C18.6274 24 24 18.6274 24 12C24 5.37258 18.6274 0 12 0C5.37258 0 0 5.37258 0 12C0 18.6274 5.37258 24 12 24ZM8.23436 11.7657C8.54678 12.0782 9.05332 12.0782 9.36573 11.7657L12 9.13142L14.6344 11.7657C14.9468 12.0782 15.4533 12.0782 15.7657 11.7657C16.0782 11.4533 16.0782 10.9468 15.7657 10.6344L12.5657 7.43436C12.2533 7.12194 11.7468 7.12194 11.4344 7.43436L8.23436 10.6344C7.92194 10.9468 7.92194 11.4533 8.23436 11.7657ZM8.23436 14.8343C7.92194 15.1467 7.92194 15.6533 8.23436 15.9657C8.54678 16.2781 9.05332 16.2781 9.36573 15.9657L12 13.3314L14.6344 15.9657C14.9468 16.2781 15.4533 16.2781 15.7657 15.9657C16.0782 15.6533 16.0782 15.1467 15.7657 14.8343L12.5657 11.6343C12.2533 11.3219 11.7468 11.3219 11.4344 11.6343L8.23436 14.8343Z" fill="black"/>
</svg>
