<svg width="24" height="24" viewBox="0 0 24 24" fill="none" xmlns="http://www.w3.org/2000/svg">
<path d="M1.5 12C1.5 6.20101 6.20101 1.5 12 1.5C17.799 1.5 22.5 6.20101 22.5 12C22.5 17.799 17.799 22.5 12 22.5C6.20101 22.5 1.5 17.799 1.5 12ZM12 0C5.37258 0 0 5.37258 0 12C0 18.6274 5.37258 24 12 24C18.6274 24 24 18.6274 24 12C24 5.37258 18.6274 0 12 0ZM15.7656 12.2343C15.4532 11.9218 14.9467 11.9218 14.6343 12.2343L12 14.8686L9.36564 12.2343C9.05322 11.9218 8.54669 11.9218 8.23427 12.2343C7.92185 12.5467 7.92185 13.0532 8.23427 13.3656L11.4343 16.5656C11.7467 16.8781 12.2532 16.8781 12.5656 16.5656L15.7656 13.3656C16.0781 13.0532 16.0781 12.5467 15.7656 12.2343ZM15.7656 9.16569C16.0781 8.85327 16.0781 8.34673 15.7656 8.03432C15.4532 7.7219 14.9467 7.7219 14.6343 8.03432L12 10.6686L9.36564 8.03432C9.05322 7.7219 8.54669 7.7219 8.23427 8.03432C7.92185 8.34673 7.92185 8.85327 8.23427 9.16569L11.4343 12.3657C11.7467 12.6781 12.2532 12.6781 12.5656 12.3657L15.7656 9.16569Z" fill="black"/>
</svg>
