<svg width="24" height="24" viewBox="0 0 24 24" fill="none" xmlns="http://www.w3.org/2000/svg">
<path d="M12 1.5C17.799 1.5 22.5 6.20101 22.5 12C22.5 17.799 17.799 22.5 12 22.5C6.20101 22.5 1.5 17.799 1.5 12C1.5 6.20101 6.20101 1.5 12 1.5ZM24 12C24 5.37258 18.6274 0 12 0C5.37258 0 0 5.37258 0 12C0 18.6274 5.37258 24 12 24C18.6274 24 24 18.6274 24 12Z" fill="black"/>
<path d="M14.5657 7.43431C14.2533 7.12189 13.7467 7.12189 13.4343 7.43431L9.43431 11.4343C9.12189 11.7467 9.12189 12.2533 9.43431 12.5657L13.4343 16.5657C13.7467 16.8781 14.2533 16.8781 14.5657 16.5657C14.8781 16.2533 14.8781 15.7467 14.5657 15.4343L11.1314 12L14.5657 8.56569C14.8781 8.25327 14.8781 7.74673 14.5657 7.43431Z" fill="black"/>
</svg>
