<svg width="24" height="24" viewBox="0 0 24 24" fill="none" xmlns="http://www.w3.org/2000/svg">
<path d="M12 22.5C6.20101 22.5 1.5 17.799 1.5 12C1.5 6.20101 6.20101 1.5 12 1.5C17.799 1.5 22.5 6.20101 22.5 12C22.5 17.799 17.799 22.5 12 22.5ZM0 12C0 18.6274 5.37258 24 12 24C18.6274 24 24 18.6274 24 12C24 5.37258 18.6274 0 12 0C5.37258 0 0 5.37258 0 12ZM12.2343 8.23436C11.9218 8.54678 11.9218 9.05332 12.2343 9.36573L14.8686 12L12.2343 14.6344C11.9218 14.9468 11.9218 15.4533 12.2343 15.7657C12.5467 16.0782 13.0532 16.0782 13.3656 15.7657L16.5656 12.5657C16.8781 12.2533 16.8781 11.7468 16.5656 11.4344L13.3656 8.23436C13.0532 7.92194 12.5467 7.92194 12.2343 8.23436ZM9.16569 8.23436C8.85327 7.92194 8.34673 7.92194 8.03432 8.23436C7.7219 8.54678 7.7219 9.05332 8.03432 9.36573L10.6686 12L8.03432 14.6344C7.7219 14.9468 7.7219 15.4533 8.03432 15.7657C8.34673 16.0782 8.85327 16.0782 9.16569 15.7657L12.3657 12.5657C12.6781 12.2533 12.6781 11.7468 12.3657 11.4344L9.16569 8.23436Z" fill="black"/>
</svg>
