<svg width="24" height="24" viewBox="0 0 24 24" fill="none" xmlns="http://www.w3.org/2000/svg">
<path d="M12 22.5C6.20101 22.5 1.5 17.799 1.5 12C1.5 6.20101 6.20101 1.5 12 1.5C17.799 1.5 22.5 6.20101 22.5 12C22.5 17.799 17.799 22.5 12 22.5ZM0 12C0 18.6274 5.37258 24 12 24C18.6274 24 24 18.6274 24 12C24 5.37258 18.6274 0 12 0C5.37258 0 0 5.37258 0 12Z" fill="black"/>
<path d="M9.43431 16.5657C9.74673 16.8781 10.2533 16.8781 10.5657 16.5657L14.5657 12.5657C14.8781 12.2533 14.8781 11.7467 14.5657 11.4343L10.5657 7.43431C10.2533 7.12189 9.74673 7.12189 9.43431 7.43431C9.12189 7.74673 9.12189 8.25327 9.43431 8.56569L12.8686 12L9.43431 15.4343C9.12189 15.7467 9.12189 16.2533 9.43431 16.5657Z" fill="black"/>
</svg>
