<svg width="26" height="26" viewBox="0 0 26 26" fill="none" xmlns="http://www.w3.org/2000/svg">
<path d="M13.0013 24.2499C6.78755 24.2499 1.75134 19.2137 1.75134 12.9999C1.75134 6.78615 6.78755 1.74994 13.0013 1.74994C19.2151 1.74994 24.2513 6.78615 24.2513 12.9999C24.2513 19.2137 19.2151 24.2499 13.0013 24.2499ZM25.7513 12.9999C25.7513 5.95772 20.0436 0.249939 13.0013 0.249939C5.95913 0.249939 0.251343 5.95772 0.251343 12.9999C0.251343 20.0421 5.95913 25.7499 13.0013 25.7499C20.0436 25.7499 25.7513 20.0421 25.7513 12.9999Z" fill="black"/>
<path d="M13.0013 19.1334C13.4432 19.1334 13.8013 18.7753 13.8013 18.3334V7.66677C13.8013 7.22494 13.4432 6.86677 13.0013 6.86677C12.5595 6.86677 12.2013 7.22494 12.2013 7.66677V18.3334C12.2013 18.7753 12.5595 19.1334 13.0013 19.1334Z" fill="black"/>
<path d="M13.567 18.8991L17.567 14.8991C17.8794 14.5867 17.8794 14.0802 17.567 13.7677C17.2546 13.4553 16.7481 13.4553 16.4357 13.7677L13.0013 17.2021L9.56703 13.7677C9.25461 13.4553 8.74807 13.4553 8.43566 13.7677C8.12324 14.0802 8.12324 14.5867 8.43566 14.8991L12.4357 18.8991C12.7481 19.2115 13.2546 19.2115 13.567 18.8991Z" fill="black"/>
</svg>
