<svg width="24" height="24" viewBox="0 0 24 24" fill="none" xmlns="http://www.w3.org/2000/svg">
<path d="M12 1.5C17.799 1.5 22.5 6.20101 22.5 12C22.5 17.799 17.799 22.5 12 22.5C6.20101 22.5 1.5 17.799 1.5 12C1.5 6.20101 6.20101 1.5 12 1.5ZM24 12C24 5.37258 18.6274 0 12 0C5.37258 0 0 5.37258 0 12C0 18.6274 5.37258 24 12 24C18.6274 24 24 18.6274 24 12Z" fill="black"/>
<path d="M5.86601 12C5.86601 12.4418 6.22418 12.8 6.66601 12.8H17.3327C17.7745 12.8 18.1327 12.4418 18.1327 12C18.1327 11.5582 17.7745 11.2 17.3327 11.2H6.66601C6.22418 11.2 5.86601 11.5582 5.86601 12Z" fill="black"/>
<path d="M6.10032 12.5657L10.1003 16.5657C10.4127 16.8781 10.9193 16.8781 11.2317 16.5657C11.5441 16.2533 11.5441 15.7467 11.2317 15.4343L7.79738 12L11.2317 8.56569C11.5441 8.25327 11.5441 7.74673 11.2317 7.43431C10.9193 7.12189 10.4127 7.12189 10.1003 7.43431L6.10032 11.4343C5.7879 11.7467 5.7879 12.2533 6.10032 12.5657Z" fill="black"/>
</svg>
