<svg width="24" height="24" viewBox="0 0 24 24" fill="none" xmlns="http://www.w3.org/2000/svg">
<path d="M22.5 12C22.5 17.799 17.799 22.5 12 22.5C6.20101 22.5 1.5 17.799 1.5 12C1.5 6.20101 6.20101 1.5 12 1.5C17.799 1.5 22.5 6.20101 22.5 12ZM12 24C18.6274 24 24 18.6274 24 12C24 5.37258 18.6274 0 12 0C5.37258 0 0 5.37258 0 12C0 18.6274 5.37258 24 12 24Z" fill="black"/>
<path d="M8.93832 14.9481C8.62585 15.2604 8.62576 15.767 8.93812 16.0794L11.4234 18.5656C11.5734 18.7157 11.7769 18.8 11.9891 18.8C12.2013 18.8 12.4048 18.7157 12.5549 18.5657L15.041 16.0795C15.3534 15.7671 15.3534 15.2606 15.041 14.9482C14.7286 14.6358 14.2221 14.6358 13.9096 14.9482L11.9893 16.8685L10.0697 14.9483C9.75732 14.6358 9.25079 14.6357 8.93832 14.9481Z" fill="black"/>
<path d="M15.0363 9.05193C15.3488 8.73956 15.3489 8.23303 15.0365 7.92056L12.5512 5.43441C12.4012 5.28434 12.1977 5.20002 11.9855 5.2C11.7733 5.19998 11.5698 5.28427 11.4197 5.43431L8.93359 7.92046C8.62117 8.23288 8.62117 8.73941 8.93359 9.05183C9.24601 9.36425 9.75254 9.36425 10.065 9.05183L11.9853 7.13147L13.9049 9.05173C14.2173 9.3642 14.7238 9.36429 15.0363 9.05193Z" fill="black"/>
<path d="M11.9863 18.8C12.4282 18.8 12.7863 18.4418 12.7863 18V6C12.7863 5.55817 12.4273 5.2 11.9855 5.2C11.5437 5.2 11.1863 5.55817 11.1863 6V18C11.1863 18.4418 11.5445 18.8 11.9863 18.8Z" fill="black"/>
</svg>
