<svg width="24" height="24" viewBox="0 0 24 24" fill="none" xmlns="http://www.w3.org/2000/svg">
<path d="M12 1.41176C17.8483 1.41176 22.5882 6.15173 22.5882 12C22.5882 17.8483 17.8483 22.5882 12 22.5882C6.15173 22.5882 1.41176 17.8483 1.41176 12C1.41176 6.15173 6.15173 1.41176 12 1.41176ZM0 12C0 18.628 5.37203 24 12 24C18.628 24 24 18.628 24 12C24 5.37203 18.628 0 12 0C5.37203 0 0 5.37203 0 12Z" fill="black"/>
<path d="M12 6.2273C11.5842 6.2273 11.2471 6.5644 11.2471 6.98024V17.0195C11.2471 17.4353 11.5842 17.7724 12 17.7724C12.4158 17.7724 12.7529 17.4353 12.7529 17.0195V6.98024C12.7529 6.5644 12.4158 6.2273 12 6.2273Z" fill="black"/>
<path d="M11.4676 6.44783L7.70288 10.2125C7.40884 10.5066 7.40884 10.9833 7.70288 11.2774C7.99693 11.5714 8.47366 11.5714 8.7677 11.2774L12 8.04506L15.2323 11.2774C15.5263 11.5714 16.0031 11.5714 16.2971 11.2774C16.5912 10.9833 16.5912 10.5066 16.2971 10.2125L12.5324 6.44783C12.2384 6.15379 11.7616 6.15379 11.4676 6.44783Z" fill="black"/>
</svg>
