<svg width="24" height="24" viewBox="0 0 24 24" fill="none" xmlns="http://www.w3.org/2000/svg">
<path d="M1.5 12.0001C1.5 6.20107 6.20101 1.50006 12 1.50006C17.799 1.50006 22.5 6.20107 22.5 12.0001C22.5 17.7991 17.799 22.5001 12 22.5001C6.20101 22.5001 1.5 17.7991 1.5 12.0001ZM12 6.10352e-05C5.37258 6.10352e-05 0 5.37264 0 12.0001C0 18.6275 5.37258 24.0001 12 24.0001C18.6274 24.0001 24 18.6275 24 12.0001C24 5.37264 18.6274 6.10352e-05 12 6.10352e-05ZM9.12156 15.7743C8.80908 16.0867 8.809 16.5932 9.12136 16.9057L11.436 19.2211C11.586 19.3712 11.7895 19.4555 12.0017 19.4555C12.2139 19.4555 12.4174 19.3712 12.5674 19.2212L14.8828 16.9058C15.1953 16.5934 15.1953 16.0868 14.8828 15.7744C14.5704 15.462 14.0639 15.462 13.7515 15.7744L12.7869 16.739V12.813H16.713L15.7787 13.7469C15.4663 14.0593 15.4662 14.5658 15.7785 14.8783C16.0909 15.1908 16.5974 15.1909 16.9099 14.8785L19.2253 12.5639C19.3754 12.4139 19.4597 12.2104 19.4597 11.9982C19.4597 11.786 19.3754 11.5825 19.2254 11.4324L16.91 9.11705C16.5976 8.80463 16.0911 8.80463 15.7786 9.11705C15.4662 9.42947 15.4662 9.936 15.7786 10.2484L16.7432 11.213H12.7869V7.25665L13.7515 8.22118C14.0639 8.5336 14.5704 8.5336 14.8828 8.22118C15.1953 7.90877 15.1953 7.40223 14.8828 7.08981L12.5674 4.77441C12.4174 4.62437 12.2139 4.54008 12.0017 4.5401C11.7895 4.54012 11.586 4.62444 11.436 4.77451L9.12136 7.08991C8.809 7.40238 8.80908 7.90892 9.12156 8.22128C9.43403 8.53365 9.94056 8.53356 10.2529 8.22109L11.1869 7.28677V11.213H7.26086L8.2254 10.2484C8.53782 9.936 8.53782 9.42947 8.2254 9.11705C7.91298 8.80463 7.40644 8.80463 7.09403 9.11705L4.77863 11.4324C4.62858 11.5825 4.54429 11.786 4.54431 11.9982C4.54433 12.2104 4.62865 12.4139 4.77872 12.5639L7.09412 14.8785C7.4066 15.1909 7.91313 15.1908 8.22549 14.8783C8.53786 14.5658 8.53777 14.0593 8.2253 13.7469L7.29098 12.813H11.1869V16.7088L10.2529 15.7745C9.94056 15.462 9.43403 15.462 9.12156 15.7743Z" fill="black"/>
</svg>
