<svg width="24" height="24" viewBox="0 0 24 24" fill="none" xmlns="http://www.w3.org/2000/svg">
<path d="M12 1.5C17.799 1.5 22.5 6.20101 22.5 12C22.5 17.799 17.799 22.5 12 22.5C6.20101 22.5 1.5 17.799 1.5 12C1.5 6.20101 6.20101 1.5 12 1.5ZM0 12C0 18.6274 5.37258 24 12 24C18.6274 24 24 18.6274 24 12C24 5.37258 18.6274 0 12 0C5.37258 0 0 5.37258 0 12Z" fill="black"/>
<path d="M18.134 12C18.134 11.5582 17.7758 11.2 17.334 11.2H6.66733C6.2255 11.2 5.86733 11.5582 5.86733 12C5.86733 12.4418 6.2255 12.8 6.66733 12.8H17.334C17.7758 12.8 18.134 12.4418 18.134 12Z" fill="black"/>
<path d="M17.8997 12.5657C18.2121 12.2533 18.2121 11.7467 17.8997 11.4343L13.8997 7.43431C13.5873 7.12189 13.0807 7.12189 12.7683 7.43431C12.4559 7.74673 12.4559 8.25327 12.7683 8.56569L16.2026 12L12.7683 15.4343C12.4559 15.7467 12.4559 16.2533 12.7683 16.5657C13.0807 16.8781 13.5873 16.8781 13.8997 16.5657L17.8997 12.5657Z" fill="black"/>
</svg>
