<svg width="24" height="24" viewBox="0 0 24 24" fill="none" xmlns="http://www.w3.org/2000/svg">
<path d="M1.5 12C1.5 6.20101 6.20101 1.5 12 1.5C17.799 1.5 22.5 6.20101 22.5 12C22.5 17.799 17.799 22.5 12 22.5C6.20101 22.5 1.5 17.799 1.5 12ZM12 0C5.37258 0 0 5.37258 0 12C0 18.6274 5.37258 24 12 24C18.6274 24 24 18.6274 24 12C24 5.37258 18.6274 0 12 0Z" fill="black"/>
<path d="M12 5.8C15.4236 5.8 18.2 8.57643 18.2 12V13.1662C18.2 13.9322 17.5785 14.553 16.8132 14.553C16.0482 14.553 15.4264 13.9312 15.4264 13.1662V12C15.4264 10.1078 13.8936 8.575 12.0014 8.575C10.1092 8.575 8.5764 10.1078 8.5764 12C8.5764 13.8922 10.1092 15.425 12.0014 15.425C12.8409 15.425 13.6097 15.1233 14.2052 14.6223C14.7164 15.5354 15.6932 16.153 16.8132 16.153C18.4615 16.153 19.8 14.8166 19.8 13.1662V12C19.8 7.69277 16.3072 4.2 12 4.2C7.69277 4.2 4.2 7.69277 4.2 12C4.2 16.3072 7.69277 19.8 12 19.8C12.9949 19.8 14.0076 19.6112 14.985 19.2074C15.3934 19.0387 15.5877 18.5709 15.419 18.1626C15.2503 17.7542 14.7825 17.5599 14.3742 17.7286C13.596 18.05 12.7915 18.2 12 18.2C8.57643 18.2 5.8 15.4236 5.8 12C5.8 8.57643 8.57643 5.8 12 5.8ZM13.8264 12C13.8264 13.0086 13.01 13.825 12.0014 13.825C10.9928 13.825 10.1764 13.0086 10.1764 12C10.1764 10.9914 10.9928 10.175 12.0014 10.175C13.01 10.175 13.8264 10.9914 13.8264 12Z" fill="black"/>
</svg>
