<svg width="24" height="24" viewBox="0 0 24 24" fill="none" xmlns="http://www.w3.org/2000/svg">
<path d="M12 22.5C6.20101 22.5 1.5 17.799 1.5 12C1.5 6.20101 6.20101 1.5 12 1.5C17.799 1.5 22.5 6.20101 22.5 12C22.5 17.799 17.799 22.5 12 22.5ZM0 12C0 18.6274 5.37258 24 12 24C18.6274 24 24 18.6274 24 12C24 5.37258 18.6274 0 12 0C5.37258 0 0 5.37258 0 12ZM5 8.40002V15.6C5 16.7046 5.89543 17.6 7 17.6H17C18.1046 17.6 19 16.7046 19 15.6V8.40002C19 7.29545 18.1046 6.40002 17 6.40002H7C5.89543 6.40002 5 7.29545 5 8.40002ZM13.0992 9.25H14.5004C16.0115 9.25 17.2365 10.475 17.2365 11.9861C17.2365 13.4973 16.0115 14.7223 14.5004 14.7223H13.0992C12.7402 14.7223 12.4492 14.4313 12.4492 14.0723V9.9C12.4492 9.54101 12.7402 9.25 13.0992 9.25ZM13.7492 13.4223H14.5004C15.2935 13.4223 15.9365 12.7793 15.9365 11.9861C15.9365 11.193 15.2935 10.55 14.5004 10.55H13.7492V13.4223ZM8.59356 9.68384C8.70151 9.43361 8.94794 9.28577 9.20459 9.29129C9.45477 9.29357 9.69192 9.44103 9.79662 9.6858L11.2437 13.0689C11.2508 13.0838 11.2573 13.0991 11.2633 13.1147L11.5718 13.8359C11.713 14.1659 11.5598 14.548 11.2298 14.6891C10.8997 14.8303 10.5177 14.6772 10.3765 14.3471L10.2268 13.997H8.14877L7.997 14.3489C7.85481 14.6785 7.47233 14.8304 7.14271 14.6882C6.81308 14.546 6.66114 14.1636 6.80333 13.8339L7.10963 13.1239C7.11807 13.1008 7.12778 13.0783 7.13868 13.0565L8.59356 9.68384ZM9.19216 11.5783L8.70956 12.697H9.67071L9.19216 11.5783Z" fill="black"/>
</svg>
