<svg width="24" height="24" viewBox="0 0 24 24" fill="none" xmlns="http://www.w3.org/2000/svg">
<path d="M22.5 12C22.5 17.799 17.799 22.5 12 22.5C6.20101 22.5 1.5 17.799 1.5 12C1.5 6.20101 6.20101 1.5 12 1.5C17.799 1.5 22.5 6.20101 22.5 12ZM12 0C5.37258 0 0 5.37258 0 12C0 18.6274 5.37258 24 12 24C18.6274 24 24 18.6274 24 12C24 5.37258 18.6274 0 12 0ZM10.8956 16.4364C11.3904 16.7432 12.033 16.3901 12.033 15.8106V12.331C12.0903 12.4565 12.1847 12.5687 12.3163 12.6503L16.8624 16.4364C17.3572 16.7432 17.9998 16.3901 17.9998 15.8106V8.23924C17.9998 7.65975 17.3572 7.30594 16.8624 7.61348L12.317 11.3995C12.1851 11.481 12.0904 11.5933 12.033 11.719V8.23924C12.033 7.65975 11.3904 7.30594 10.8956 7.61348L6.35024 11.3995C5.88337 11.6878 5.88337 12.3613 6.34953 12.6503L10.8956 16.4364Z" fill="black"/>
</svg>
