<svg width="24" height="24" viewBox="0 0 24 24" fill="none" xmlns="http://www.w3.org/2000/svg">
<path d="M12 22.5C6.20101 22.5 1.5 17.799 1.5 12C1.5 6.20101 6.20101 1.5 12 1.5C17.799 1.5 22.5 6.20101 22.5 12C22.5 17.799 17.799 22.5 12 22.5ZM0 12C0 18.6274 5.37258 24 12 24C18.6274 24 24 18.6274 24 12C24 5.37258 18.6274 0 12 0C5.37258 0 0 5.37258 0 12ZM9.87204 10.3987L7.52916 9.71528L7.11734 7.92221C7.80106 7.07998 8.70344 6.42245 9.73803 6.03605L11.2728 6.99268L11.3725 9.35065L9.87204 10.3987ZM7.12765 10.9523L9.45495 11.6312L9.99561 13.4266L8.66844 15.4012L6.80649 15.2362C6.19984 14.3443 5.82194 13.2844 5.75718 12.1406L7.12765 10.9523ZM9.66489 16.2491L11.0446 14.1964H12.9145L14.3564 16.1303L13.7139 17.6493C13.1363 17.8293 12.5222 17.9262 11.8854 17.9262C11.3318 17.9262 10.7953 17.853 10.2852 17.7156L9.66489 16.2491ZM15.4268 15.3911L13.9689 13.4357L14.5471 11.6137L16.8616 10.9182L18.022 11.9244C17.9951 13.1592 17.6035 14.3042 16.9507 15.256L15.4268 15.3911ZM12.6748 9.37728L12.5759 7.03872L14.1969 6.10011C15.2511 6.52894 16.1592 7.2423 16.8258 8.14484L16.4739 9.67723L14.1179 10.3853L12.6748 9.37728ZM11.8854 4.34997C7.77739 4.34997 4.44723 7.68014 4.44723 11.7881C4.44723 15.8961 7.77739 19.2262 11.8854 19.2262C15.9933 19.2262 19.3235 15.8961 19.3235 11.7881C19.3235 7.68014 15.9933 4.34997 11.8854 4.34997Z" fill="black"/>
</svg>
