<svg width="24" height="24" viewBox="0 0 24 24" fill="none" xmlns="http://www.w3.org/2000/svg">
<path d="M1.5 12C1.5 6.20101 6.20101 1.5 12 1.5C17.799 1.5 22.5 6.20101 22.5 12C22.5 17.799 17.799 22.5 12 22.5C6.20101 22.5 1.5 17.799 1.5 12ZM12 0C5.37258 0 0 5.37258 0 12C0 18.6274 5.37258 24 12 24C18.6274 24 24 18.6274 24 12C24 5.37258 18.6274 0 12 0ZM6 13.1594C5.72386 13.1594 5.5 13.3832 5.5 13.6594V14.2844C5.5 14.5605 5.72386 14.7844 6 14.7844H18C18.2761 14.7844 18.5 14.5605 18.5 14.2844V13.6594C18.5 13.3832 18.2761 13.1594 18 13.1594H6ZM5.5 9.79999V10.425C5.5 10.7011 5.72386 10.925 6 10.925H18C18.2761 10.925 18.5 10.7011 18.5 10.425V9.79999C18.5 9.52385 18.2761 9.29999 18 9.29999H6C5.72386 9.29999 5.5 9.52385 5.5 9.79999Z" fill="black"/>
</svg>
