<svg width="24" height="24" viewBox="0 0 24 24" fill="none" xmlns="http://www.w3.org/2000/svg">
<path d="M12 22.5C6.20101 22.5 1.5 17.799 1.5 12C1.5 6.20101 6.20101 1.5 12 1.5C17.799 1.5 22.5 6.20101 22.5 12C22.5 17.799 17.799 22.5 12 22.5ZM0 12C0 18.6274 5.37258 24 12 24C18.6274 24 24 18.6274 24 12C24 5.37258 18.6274 0 12 0C5.37258 0 0 5.37258 0 12ZM6 7.32999C5.72386 7.32999 5.5 7.55384 5.5 7.82999V8.45499C5.5 8.73113 5.72386 8.95499 6 8.95499H18C18.2761 8.95499 18.5 8.73113 18.5 8.45499V7.82999C18.5 7.55384 18.2761 7.32999 18 7.32999H6ZM5.5 11.6894C5.5 11.4132 5.72386 11.1894 6 11.1894H18C18.2761 11.1894 18.5 11.4132 18.5 11.6894V12.3144C18.5 12.5905 18.2761 12.8144 18 12.8144H6C5.72386 12.8144 5.5 12.5905 5.5 12.3144V11.6894ZM5.5 15.5487C5.5 15.2726 5.72386 15.0487 6 15.0487H18C18.2761 15.0487 18.5 15.2726 18.5 15.5487V16.1737C18.5 16.4499 18.2761 16.6737 18 16.6737H6C5.72386 16.6737 5.5 16.4499 5.5 16.1737V15.5487Z" fill="black"/>
</svg>
