<svg width="24" height="24" viewBox="0 0 24 24" fill="none" xmlns="http://www.w3.org/2000/svg">
<path d="M12 1.5C17.799 1.5 22.5 6.20101 22.5 12C22.5 17.799 17.799 22.5 12 22.5C6.20101 22.5 1.5 17.799 1.5 12C1.5 6.20101 6.20101 1.5 12 1.5ZM24 12C24 5.37258 18.6274 0 12 0C5.37258 0 0 5.37258 0 12C0 18.6274 5.37258 24 12 24C18.6274 24 24 18.6274 24 12ZM7.1 7.8002C5.9402 7.8002 5 8.7404 5 9.9002V14.1002C5 15.26 5.9402 16.2002 7.1 16.2002H15.5C16.6598 16.2002 17.6 15.26 17.6 14.1002V9.9002C17.6 8.7404 16.6598 7.8002 15.5 7.8002H7.1ZM6.75 13.9502V10.0502C6.75 9.77406 6.97386 9.5502 7.25 9.5502H8.35C8.62614 9.5502 8.85 9.77406 8.85 10.0502V13.9502C8.85 14.2263 8.62614 14.4502 8.35 14.4502H7.25C6.97386 14.4502 6.75 14.2263 6.75 13.9502ZM19 9.85001C18.5858 9.85001 18.25 10.1858 18.25 10.6V13.4C18.25 13.8142 18.5858 14.15 19 14.15C19.4142 14.15 19.75 13.8142 19.75 13.4V10.6C19.75 10.1858 19.4142 9.85001 19 9.85001Z" fill="black"/>
</svg>
