<svg width="24" height="24" viewBox="0 0 24 24" fill="none" xmlns="http://www.w3.org/2000/svg">
<path d="M22.5 12C22.5 17.799 17.799 22.5 12 22.5C6.20101 22.5 1.5 17.799 1.5 12C1.5 6.20101 6.20101 1.5 12 1.5C17.799 1.5 22.5 6.20101 22.5 12ZM12 24C18.6274 24 24 18.6274 24 12C24 5.37258 18.6274 0 12 0C5.37258 0 0 5.37258 0 12C0 18.6274 5.37258 24 12 24ZM18.25 11.3847V12.5097H17.25V11.3848C17.25 11.3848 17.25 11.3848 17.2501 11.3848L18.25 11.3847ZM17.2495 14.0097C17.2497 14.0097 17.2498 14.0097 17.25 14.0097H18.5C19.1904 14.0097 19.75 13.45 19.75 12.7597V11.1347C19.75 10.4443 19.1903 9.88467 18.4999 9.88473L17.2499 9.88482C17.2466 9.88482 17.2432 9.88484 17.2398 9.88489C17.1381 8.87566 16.286 8.08789 15.25 8.08789H13.3289L10.909 11.1975H12.875C13.1632 11.1975 13.4259 11.3626 13.5508 11.6223C13.6758 11.882 13.6409 12.1903 13.4611 12.4155L10.6254 15.9668H15.25C16.3402 15.9668 17.2267 15.0944 17.2495 14.0097ZM7 15.9668H8.70592L11.3164 12.6975H9.37499C9.08851 12.6975 8.82705 12.5343 8.70121 12.2769C8.57538 12.0195 8.60716 11.713 8.7831 11.4869L11.4282 8.08789H7C5.89543 8.08789 5 8.98332 5 10.0879V13.9668C5 15.0714 5.89543 15.9668 7 15.9668Z" fill="black"/>
</svg>
