<svg width="24" height="24" viewBox="0 0 24 24" fill="none" xmlns="http://www.w3.org/2000/svg">
<path d="M12 22.5C6.20101 22.5 1.5 17.799 1.5 12C1.5 6.20101 6.20101 1.5 12 1.5C17.799 1.5 22.5 6.20101 22.5 12C22.5 17.799 17.799 22.5 12 22.5ZM0 12C0 18.6274 5.37258 24 12 24C18.6274 24 24 18.6274 24 12C24 5.37258 18.6274 0 12 0C5.37258 0 0 5.37258 0 12ZM14.9001 4.34998C14.5411 4.34998 14.2501 4.64099 14.2501 4.99998V5.74996H13.5001C13.1411 5.74996 12.8501 6.04097 12.8501 6.39996C12.8501 6.75894 13.1411 7.04996 13.5001 7.04996L14.2501 7.04996V7.79994C14.2501 8.15892 14.5411 8.44994 14.9001 8.44994C15.2591 8.44994 15.5501 8.15892 15.5501 7.79994V7.04996H16.3001C16.659 7.04996 16.9501 6.75894 16.9501 6.39996C16.9501 6.04097 16.659 5.74996 16.3001 5.74996H15.5501V4.99998C15.5501 4.64099 15.2591 4.34998 14.9001 4.34998ZM14.9006 9.20002C13.3543 9.20002 12.1007 7.94644 12.1007 6.40006C12.1007 5.8958 12.234 5.42267 12.4673 5.01399C12.345 5.00472 12.2215 5 12.0968 5C9.42879 5 7.26593 7.16286 7.26593 9.83087L7.26527 12.3784C6.42318 12.5928 5.80038 13.3562 5.80038 14.265C5.80038 15.3401 6.67194 16.2117 7.74705 16.2117H16.3912C17.4663 16.2117 18.3379 15.3401 18.3379 14.265C18.3379 13.376 17.7419 12.6261 16.9277 12.3932L16.9277 9.83087C16.9277 9.372 16.8637 8.92807 16.7442 8.50752C16.2517 8.93871 15.6067 9.20002 14.9006 9.20002ZM10.7482 17.3943C10.5924 17.0709 10.2039 16.9351 9.88047 17.091C9.55709 17.2468 9.42129 17.6354 9.57716 17.9587L9.59685 18C9.65096 18.1141 9.7528 18.3287 9.85446 18.4754C10.3456 19.1839 11.1667 19.6501 12.0967 19.6501C13.246 19.6501 14.2278 18.9393 14.6293 17.9358C14.7626 17.6025 14.6005 17.2242 14.2672 17.0908C13.9339 16.9575 13.5556 17.1196 13.4223 17.4529C13.2115 17.9798 12.6966 18.3501 12.0967 18.3501C11.6109 18.3501 11.1815 18.1079 10.9229 17.7347C10.8871 17.6831 10.8384 17.5819 10.7745 17.4489L10.7745 17.4489L10.7482 17.3943Z" fill="black"/>
</svg>
