<svg width="24" height="24" viewBox="0 0 24 24" fill="none" xmlns="http://www.w3.org/2000/svg">
<path d="M22.5 12C22.5 17.799 17.799 22.5 12 22.5C6.20101 22.5 1.5 17.799 1.5 12C1.5 6.20101 6.20101 1.5 12 1.5C17.799 1.5 22.5 6.20101 22.5 12ZM12 24C18.6274 24 24 18.6274 24 12C24 5.37258 18.6274 0 12 0C5.37258 0 0 5.37258 0 12C0 18.6274 5.37258 24 12 24Z" fill="black"/>
<path d="M7.79694 5.55282C7.61601 5.55558 7.43555 5.62344 7.29363 5.75747C6.99249 6.04188 6.97893 6.51656 7.26333 6.8177L7.89739 7.48911C7.57382 8.11745 7.39115 8.83021 7.39115 9.58564L7.39052 12.0039C6.59118 12.2074 6 12.932 6 13.7947C6 14.8152 6.82731 15.6425 7.84785 15.6425H15.813L16.724 16.5783C17.013 16.875 17.4878 16.8814 17.7846 16.5924C17.9381 16.4429 18.0139 16.2437 18.0113 16.0451C17.8122 16.0482 17.6122 15.9724 17.4623 15.8184L9.38584 7.52365L8.00162 6.05788C7.86715 5.9155 7.79929 5.73433 7.79694 5.55282Z" fill="black"/>
<path d="M17.8769 14.094C17.8928 13.9966 17.901 13.8966 17.901 13.7947C17.901 12.9508 17.3353 12.239 16.5624 12.0179L16.5624 9.58564C16.5624 7.05306 14.5094 5 11.9768 5C11.1312 5 10.339 5.22888 9.65892 5.62807L10.4725 6.4895L17.8769 14.094Z" fill="black"/>
<path d="M9.81496 16.3576C9.44182 16.5374 9.28513 16.9857 9.46498 17.3588L9.48242 17.3955C9.53268 17.5016 9.63513 17.7178 9.7387 17.8673C10.2287 18.5741 11.0482 19.0396 11.9765 19.0396C13.1236 19.0396 14.1033 18.33 14.5039 17.3287C14.6578 16.9441 14.4707 16.5076 14.0862 16.3537C13.7016 16.1999 13.2651 16.3869 13.1112 16.7715C12.9306 17.2229 12.4896 17.5396 11.9765 17.5396C11.5608 17.5396 11.1932 17.3326 10.9715 17.0127L10.97 17.0105L10.9657 17.0037C10.962 16.9977 10.9573 16.9897 10.9515 16.9795C10.9398 16.9587 10.9263 16.9332 10.911 16.9029C10.8876 16.8569 10.8668 16.8131 10.8443 16.7662L10.8162 16.7075C10.6364 16.3344 10.1881 16.1777 9.81496 16.3576Z" fill="black"/>
</svg>
