<svg width="24" height="24" viewBox="0 0 24 24" fill="none" xmlns="http://www.w3.org/2000/svg">
<path d="M12 22.5C6.20101 22.5 1.5 17.799 1.5 12C1.5 6.20101 6.20101 1.5 12 1.5C17.799 1.5 22.5 6.20101 22.5 12C22.5 17.799 17.799 22.5 12 22.5ZM0 12C0 18.6274 5.37258 24 12 24C18.6274 24 24 18.6274 24 12C24 5.37258 18.6274 0 12 0C5.37258 0 0 5.37258 0 12ZM12.616 5.42915C12.3861 5.20339 12.0432 5.13763 11.746 5.26231C11.4489 5.38699 11.2556 5.67777 11.2556 6V10.0934L9.56047 8.42915C9.2452 8.11961 8.73869 8.12426 8.42915 8.43953C8.11961 8.7548 8.12426 9.26131 8.43953 9.57085L10.9137 12L8.43953 14.4291C8.12426 14.7387 8.11961 15.2452 8.42915 15.5605C8.73869 15.8757 9.2452 15.8804 9.56047 15.5709L11.2556 13.9066V18C11.2556 18.3222 11.4489 18.613 11.746 18.7377C12.0432 18.8624 12.3861 18.7966 12.616 18.5709L15.6716 15.5709C15.8248 15.4204 15.9111 15.2147 15.9111 15C15.9111 14.7853 15.8248 14.5796 15.6716 14.4291L13.1975 12L15.6716 9.57085C15.8248 9.42042 15.9111 9.21472 15.9111 9C15.9111 8.78528 15.8248 8.57958 15.6716 8.42915L12.616 5.42915ZM13.9692 15L12.8556 16.0934V13.9066L13.9692 15ZM12.8556 7.90659L13.9692 9L12.8556 10.0934V7.90659Z" fill="black"/>
</svg>
