<svg width="24" height="24" viewBox="0 0 24 24" fill="none" xmlns="http://www.w3.org/2000/svg">
<path d="M1.5 12C1.5 6.20101 6.20101 1.5 12 1.5C17.799 1.5 22.5 6.20101 22.5 12C22.5 17.799 17.799 22.5 12 22.5C6.20101 22.5 1.5 17.799 1.5 12ZM12 0C5.37258 0 0 5.37258 0 12C0 18.6274 5.37258 24 12 24C18.6274 24 24 18.6274 24 12C24 5.37258 18.6274 0 12 0Z" fill="black"/>
<path d="M7 6V18C7 18.5523 7.44772 19 8 19H14C16.2091 19 18 17.2091 18 15C18 13.5456 17.2238 12.2725 16.063 11.5724C16.6476 10.8769 16.9997 9.97959 16.9997 9C16.9997 6.79086 15.2089 5 12.9997 5H8C7.44772 5 7 5.44772 7 6ZM9 13H14C15.1046 13 16 13.8954 16 15C16 16.1046 15.1046 17 14 17H9V13ZM12.9997 11H9V7H12.9997C14.1043 7 14.9997 7.89543 14.9997 9C14.9997 10.1046 14.1043 11 12.9997 11Z" fill="black"/>
</svg>
