<svg width="24" height="24" viewBox="0 0 24 24" fill="none" xmlns="http://www.w3.org/2000/svg">
<path d="M12 1.5C17.799 1.5 22.5 6.20101 22.5 12C22.5 17.799 17.799 22.5 12 22.5C6.20101 22.5 1.5 17.799 1.5 12C1.5 6.20101 6.20101 1.5 12 1.5ZM24 12C24 5.37258 18.6274 0 12 0C5.37258 0 0 5.37258 0 12C0 18.6274 5.37258 24 12 24C18.6274 24 24 18.6274 24 12ZM7.05955 13.4H11.6571C11.9576 13.4 12.1902 13.6631 12.1534 13.9612L11.6156 18.3172C11.5911 18.5158 11.8413 18.6233 11.9685 18.4688L17.7719 11.4177C18.0403 11.0915 17.8083 10.6 17.3858 10.6H12.7882C12.4878 10.6 12.2552 10.3369 12.292 10.0387L12.8297 5.68279C12.8543 5.48411 12.604 5.37662 12.4768 5.53119L6.67349 12.5822C6.405 12.9084 6.63705 13.4 7.05955 13.4Z" fill="black"/>
</svg>
