<svg width="24" height="24" viewBox="0 0 24 24" fill="none" xmlns="http://www.w3.org/2000/svg">
<path d="M12 22.5C6.20101 22.5 1.5 17.799 1.5 12C1.5 6.20101 6.20101 1.5 12 1.5C17.799 1.5 22.5 6.20101 22.5 12C22.5 17.799 17.799 22.5 12 22.5ZM0 12C0 18.6274 5.37258 24 12 24C18.6274 24 24 18.6274 24 12C24 5.37258 18.6274 0 12 0C5.37258 0 0 5.37258 0 12ZM15 7C13.3429 7 12 7.71627 12 8.6C12 7.71627 10.6571 7 9 7C7.34291 7 6 7.71627 6 8.6V16.2932C6 16.76 6.6425 17.0249 7.0274 16.7608C7.55473 16.399 8.24473 16.0667 9 16.0667C10.1447 16.0667 10.8213 16.353 11.3501 16.8597V10.3336C11.3501 9.97461 11.6411 9.68359 12.0001 9.68359C12.3591 9.68359 12.6501 9.97461 12.6501 10.3336V17.0215C13.1729 16.567 13.9586 16.0667 15 16.0667C15.9017 16.0667 16.6117 16.4417 17.1253 16.8374C17.4782 17.1092 18 16.905 18 16.4596V8.6C18 7.71627 16.6571 7 15 7Z" fill="black"/>
</svg>
