<svg width="24" height="24" viewBox="0 0 24 24" fill="none" xmlns="http://www.w3.org/2000/svg">
<path d="M12 22.5C6.20101 22.5 1.5 17.799 1.5 12C1.5 6.20101 6.20101 1.5 12 1.5C17.799 1.5 22.5 6.20101 22.5 12C22.5 17.799 17.799 22.5 12 22.5ZM0 12C0 18.6274 5.37258 24 12 24C18.6274 24 24 18.6274 24 12C24 5.37258 18.6274 0 12 0C5.37258 0 0 5.37258 0 12ZM12.6141 17.1164V16.4262H6.7002V17.1164C6.7002 17.6044 7.08382 18 7.55703 18H8.80029C9.27351 18 9.65713 17.6044 9.65713 17.1164C9.65713 17.6044 10.0408 18 10.514 18H11.7572C12.2304 18 12.6141 17.6044 12.6141 17.1164ZM18.2833 16.5475L18.11 15.8808L15.2539 16.6699L15.4271 17.3367C15.5496 17.808 16.0194 18.0878 16.4765 17.9615L17.6774 17.6297C18.1345 17.5034 18.4058 17.0189 18.2833 16.5475ZM17.9594 15.3012L16.0708 8.03C16.0483 8.05208 16.0221 8.07073 15.993 8.08485L15.943 8.10365L13.223 8.85468L15.1033 16.0904L17.9594 15.3012ZM12.6141 15.8262V8.35456H6.7002V15.8262H12.6141ZM15.9388 7.52201L15.7149 6.66331C15.5924 6.19196 15.1226 5.91224 14.6655 6.03854L13.4646 6.37035C13.0075 6.49665 12.7362 6.98114 12.8587 7.45248L13.0724 8.27513L15.7924 7.5241L15.8421 7.51488C15.8751 7.51169 15.9077 7.51429 15.9388 7.52201ZM9.65321 6.79846C9.61169 6.35041 9.24568 6 8.80029 6H7.55703C7.08382 6 6.7002 6.39558 6.7002 6.88355V7.75456H12.6141V6.88355C12.6141 6.39558 12.2304 6 11.7572 6H10.514C10.0408 6 9.65713 6.39558 9.65713 6.88355L9.65321 6.79846Z" fill="black"/>
</svg>
