<svg width="24" height="24" viewBox="0 0 24 24" fill="none" xmlns="http://www.w3.org/2000/svg">
<path d="M1.5 12C1.5 6.20101 6.20101 1.5 12 1.5C17.799 1.5 22.5 6.20101 22.5 12C22.5 17.799 17.799 22.5 12 22.5C6.20101 22.5 1.5 17.799 1.5 12ZM12 0C5.37258 0 0 5.37258 0 12C0 18.6274 5.37258 24 12 24C18.6274 24 24 18.6274 24 12C24 5.37258 18.6274 0 12 0Z" fill="black"/>
<path d="M7.69922 7.71429V17.1395C7.69922 17.7901 8.32805 18.2058 8.84779 17.8947C10.1171 17.1327 11.9849 16.0124 11.9849 16.0124C11.9849 16.0124 13.8527 17.1335 15.1221 17.8947C15.6418 18.2058 16.2706 17.7901 16.2706 17.1395V7.71429C16.2706 6.76751 15.5031 6 14.5564 6H9.4135C8.46673 6 7.69922 6.76751 7.69922 7.71429Z" fill="black"/>
</svg>
