<svg width="24" height="24" viewBox="0 0 24 24" fill="none" xmlns="http://www.w3.org/2000/svg">
<path d="M12 1.5C17.799 1.5 22.5 6.20101 22.5 12C22.5 17.799 17.799 22.5 12 22.5C6.20101 22.5 1.5 17.799 1.5 12C1.5 6.20101 6.20101 1.5 12 1.5ZM24 12C24 5.37258 18.6274 0 12 0C5.37258 0 0 5.37258 0 12C0 18.6274 5.37258 24 12 24C18.6274 24 24 18.6274 24 12ZM6.75 8.40039C6.75 7.98618 6.41421 7.65039 6 7.65039C5.58579 7.65039 5.25 7.98618 5.25 8.40039C5.25 8.59696 5.30242 8.85969 5.3766 9.13173C5.45665 9.42535 5.57972 9.7925 5.75647 10.2194C6.11002 11.0731 6.68373 12.1788 7.57408 13.4274C8.8257 15.2222 10.6475 16.2803 12.4131 16.2803H12.4151C12.8293 16.2803 13.1651 15.9445 13.1651 15.5303V12.7188H13.839C13.859 12.7188 13.8788 12.718 13.8983 12.7164C14.5492 12.7355 15.3049 13.0721 15.8577 13.72L15.8637 13.7268C16.3567 14.2908 16.7254 14.8298 16.9699 15.2265C17.0918 15.4244 17.1821 15.5856 17.2408 15.695C17.2702 15.7497 17.2916 15.7914 17.305 15.8182L17.3193 15.8468L17.3221 15.8527C17.5 16.2262 17.9468 16.3852 18.3207 16.2078C18.6949 16.0303 18.8544 15.583 18.6769 15.2087L18.0482 15.507C18.6769 15.2087 18.6764 15.2077 18.6763 15.2076L18.6756 15.206L18.6735 15.2017L18.667 15.1884C18.6617 15.1775 18.6543 15.1624 18.6448 15.1436C18.6258 15.1058 18.5984 15.0527 18.5627 14.986C18.4912 14.8529 18.3861 14.6654 18.2468 14.4395C17.9693 13.9893 17.5535 13.3812 16.9958 12.7428C16.7389 12.4423 16.4482 12.182 16.1356 11.9656C16.4482 11.7491 16.739 11.4888 16.9959 11.1883C17.5535 10.5496 17.9694 9.94131 18.2469 9.49102C18.3861 9.26505 18.4913 9.07762 18.5627 8.94444C18.5984 8.87781 18.6258 8.82465 18.6448 8.78691C18.6543 8.76804 18.6617 8.75301 18.667 8.74207L18.6735 8.72875L18.6756 8.72444L18.6763 8.72289L18.6769 8.72174C18.8544 8.3475 18.6949 7.9002 18.3207 7.72266C17.9465 7.54516 17.4992 7.70475 17.3216 8.07882L17.3193 8.08364L17.305 8.11233C17.2915 8.13909 17.2701 8.18077 17.2408 8.23548C17.1821 8.34497 17.0918 8.50618 16.9698 8.70412C16.7253 9.10089 16.3566 9.64014 15.8635 10.2045L15.8577 10.2112C15.2883 10.8786 14.5035 11.2156 13.8398 11.2156C13.8164 11.2156 13.7932 11.2166 13.7704 11.2188H13.1651V8.40039C13.1651 7.98618 12.8293 7.65039 12.4151 7.65039H10.9889C10.5747 7.65039 10.2389 7.98618 10.2389 8.40039C10.2389 8.8146 10.5747 9.15039 10.9889 9.15039H11.6651V11.901C11.6631 11.9233 11.6621 11.9459 11.6621 11.9688C11.6621 11.9916 11.6631 12.0142 11.6651 12.0365V14.6877C10.6804 14.4494 9.6265 13.7495 8.80247 12.5665L8.80251 12.5665L8.79762 12.5596C7.9717 11.4019 7.45261 10.3947 7.14235 9.64547C6.98705 9.27043 6.88541 8.96325 6.82377 8.73717C6.76899 8.53624 6.75454 8.43097 6.75104 8.40545L6.75103 8.40543L6.75028 8.40013C6.75017 8.3995 6.7501 8.39921 6.75006 8.39927C6.75002 8.39933 6.75 8.3997 6.75 8.40039ZM17.9992 8.40028L18.6769 8.72174C18.6769 8.72161 18.6769 8.72174 17.9992 8.40028Z" fill="black"/>
</svg>
