<svg width="24" height="24" viewBox="0 0 24 24" fill="none" xmlns="http://www.w3.org/2000/svg">
<path d="M1.5 12C1.5 6.20101 6.20101 1.5 12 1.5C17.799 1.5 22.5 6.20101 22.5 12C22.5 17.799 17.799 22.5 12 22.5C6.20101 22.5 1.5 17.799 1.5 12ZM12 0C5.37258 0 0 5.37258 0 12C0 18.6274 5.37258 24 12 24C18.6274 24 24 18.6274 24 12C24 5.37258 18.6274 0 12 0Z" fill="black"/>
<path d="M10.3487 18.9604C10.9456 19.2965 11.673 19.3039 12.2765 18.9798L17.2509 16.3083C17.6474 16.0953 17.8528 15.6437 17.7527 15.2049L16.2776 8.73966C16.1134 8.01988 15.2526 7.72011 14.6768 8.18219L6.1533 15.0222C5.60118 15.4653 5.67162 16.3261 6.28843 16.6735L10.3487 18.9604Z" fill="black"/>
<path d="M11.42 8.52028L12.2537 10.015C12.4285 10.3286 12.8244 10.441 13.138 10.2661C13.4515 10.0912 13.5639 9.69533 13.389 9.38181L12.2598 7.35724C11.9035 6.71833 10.989 6.70504 10.6143 7.33333L5.94176 15.167C5.75787 15.4753 5.85872 15.8743 6.16703 16.0582C6.47534 16.2421 6.87435 16.1413 7.05824 15.833L11.42 8.52028Z" fill="black"/>
<path d="M7.36305 7.63394L8.87001 10.0436C9.06035 10.3479 9.4614 10.4404 9.76576 10.25C10.0701 10.0597 10.1626 9.65863 9.97221 9.35426L7.86271 5.98117C7.36681 5.18822 6.14413 5.5136 6.10797 6.44816L5.75088 15.6749C5.73699 16.0336 6.01654 16.3356 6.37525 16.3495C6.73397 16.3634 7.03602 16.0839 7.0499 15.7251L7.36305 7.63394Z" fill="black"/>
</svg>
