<svg width="24" height="24" viewBox="0 0 24 24" fill="none" xmlns="http://www.w3.org/2000/svg">
<path d="M12 22.5C6.20101 22.5 1.5 17.799 1.5 12C1.5 6.20101 6.20101 1.5 12 1.5C17.799 1.5 22.5 6.20101 22.5 12C22.5 17.799 17.799 22.5 12 22.5ZM0 12C0 18.6274 5.37258 24 12 24C18.6274 24 24 18.6274 24 12C24 5.37258 18.6274 0 12 0C5.37258 0 0 5.37258 0 12ZM12.7615 9.30101L13.2027 7.33341C13.2916 6.93718 13.6803 6.68491 14.0785 6.76484L15.4831 7.04634C15.6691 7.31443 15.9791 7.48999 16.33 7.48999C16.8989 7.48999 17.36 7.02885 17.36 6.45999C17.36 5.89114 16.8989 5.42999 16.33 5.42999C16.1345 5.42999 15.9516 5.48451 15.7958 5.57918L14.3732 5.29409C13.1759 5.05386 12.0064 5.81341 11.7391 7.00515L11.2683 9.10437C11.2536 9.17009 11.248 9.23573 11.2506 9.29997C9.80112 9.42245 8.51704 9.89529 7.55758 10.5827C6.94091 10.0222 5.98822 10.0559 5.4157 10.6643C4.83645 11.2795 4.86638 12.2471 5.48156 12.8264C5.58708 12.9252 5.70982 13 5.83779 13.0659C5.80785 13.2343 5.78765 13.4049 5.78765 13.5778C5.78765 15.8918 8.52674 17.8877 12 17.8877C15.4733 17.8877 18.2124 15.8918 18.2124 13.5778C18.2124 13.4049 18.1921 13.2343 18.1622 13.0651C18.2902 13 18.4137 12.9244 18.5184 12.8256C19.1336 12.2471 19.1635 11.2787 18.5843 10.6635C18.011 10.0551 17.0583 10.0214 16.4424 10.582C15.4856 9.8971 14.206 9.42507 12.7615 9.30101ZM9.55819 12.0078C9.97075 12.0078 10.3073 12.3415 10.3073 12.7562C10.3073 13.1695 9.97221 13.5046 9.55894 13.5046C9.14635 13.5046 8.81165 13.1706 8.81055 12.7582C8.80864 12.3419 9.14639 12.0078 9.55819 12.0078ZM14.2437 12.0078C14.6563 12.0078 14.9929 12.3415 14.9929 12.7562C14.9929 13.1695 14.6578 13.5046 14.2445 13.5046C13.8319 13.5046 13.4972 13.1706 13.4961 12.7582C13.4942 12.3419 13.8319 12.0078 14.2437 12.0078ZM8.93239 14.7841C9.05583 14.447 9.42916 14.2738 9.76626 14.3972C10.4153 14.6349 11.1628 14.7789 12.0005 14.7789C12.8381 14.7789 13.5856 14.6349 14.2346 14.3972C14.5717 14.2738 14.9451 14.447 15.0685 14.7841C15.192 15.1212 15.0188 15.4945 14.6817 15.618C13.8878 15.9087 12.9889 16.0789 12.0005 16.0789C11.012 16.0789 10.1131 15.9087 9.31925 15.618C8.98215 15.4945 8.80895 15.1212 8.93239 14.7841Z" fill="black"/>
</svg>
