<svg width="24" height="24" viewBox="0 0 24 24" fill="none" xmlns="http://www.w3.org/2000/svg">
<path d="M12 22.5C6.20101 22.5 1.5 17.799 1.5 12C1.5 6.20101 6.20101 1.5 12 1.5C17.799 1.5 22.5 6.20101 22.5 12C22.5 17.799 17.799 22.5 12 22.5ZM0 12C0 18.6274 5.37258 24 12 24C18.6274 24 24 18.6274 24 12C24 5.37258 18.6274 0 12 0C5.37258 0 0 5.37258 0 12ZM18.994 8.80097C19.0771 6.97747 18.3986 6.04468 16.9601 6.00253C15.3322 5.95012 14.1448 6.71216 13.3982 8.28979C13.2175 8.67149 13.6312 9.05818 14.0535 9.05818C14.7655 9.05818 15.0797 9.45854 14.9959 10.2572C14.9536 10.7412 14.6394 11.4454 14.0535 12.3708C13.4665 13.2968 13.0261 13.7595 12.7334 13.7595C12.3561 13.7595 12.0105 13.0468 11.6959 11.6198C11.5904 11.2011 11.402 10.1316 11.13 8.4116C10.8783 6.81764 10.2076 6.07306 9.11854 6.17787C8.65746 6.22002 7.96519 6.63895 7.04367 7.43486C6.50318 7.92487 5.95552 8.41435 5.4015 8.90365C5.17664 9.10223 5.14424 9.44139 5.32818 9.67837C5.51357 9.91723 5.85288 9.96705 6.10525 9.80053C6.46345 9.56418 6.6811 9.44561 6.75793 9.44561C7.2387 9.44561 7.68781 10.1994 8.10694 11.7053C8.30595 12.4347 8.50478 13.164 8.70361 13.8933L8.79804 14.2397L9.23671 15.8486C9.80094 17.3553 10.4915 18.1082 11.3079 18.1082C12.6248 18.1082 14.2353 16.871 16.1387 14.3979C17.98 12.0293 18.9317 10.1637 18.994 8.80097Z" fill="black"/>
</svg>
