<svg width="24" height="24" viewBox="0 0 24 24" fill="none" xmlns="http://www.w3.org/2000/svg">
<path d="M12 22.5C6.20101 22.5 1.5 17.799 1.5 12C1.5 6.20101 6.20101 1.5 12 1.5C17.799 1.5 22.5 6.20101 22.5 12C22.5 17.799 17.799 22.5 12 22.5ZM0 12C0 18.6274 5.37258 24 12 24C18.6274 24 24 18.6274 24 12C24 5.37258 18.6274 0 12 0C5.37258 0 0 5.37258 0 12ZM15 18C16.6569 18 18 16.6569 18 15V9C18 7.34315 16.6569 6 15 6H9C7.34315 6 6 7.34315 6 9V15C6 16.6569 7.34315 18 9 18H15ZM14.666 8.66765C14.666 8.30025 14.9643 8.00198 15.3317 8C15.7011 8 16.0013 8.29827 15.9993 8.66765C15.9993 9.03506 15.7011 9.33333 15.3337 9.33333C14.9663 9.33333 14.666 9.03506 14.666 8.66765ZM13.2367 10.7623C12.5532 10.0789 11.4452 10.0789 10.7618 10.7623C10.0784 11.4457 10.0784 12.5537 10.7618 13.2371C11.4452 13.9206 12.5532 13.9206 13.2367 13.2371C13.9201 12.5537 13.9201 11.4457 13.2367 10.7623ZM9.84254 9.84303C11.0336 8.65193 12.9648 8.65193 14.1559 9.84303C15.347 11.0341 15.347 12.9653 14.1559 14.1564C12.9648 15.3475 11.0336 15.3475 9.84254 14.1564C8.65144 12.9653 8.65144 11.0341 9.84254 9.84303Z" fill="black"/>
</svg>
