<svg width="24" height="24" viewBox="0 0 24 24" fill="none" xmlns="http://www.w3.org/2000/svg">
<path d="M12 22.5C6.20101 22.5 1.5 17.799 1.5 12C1.5 6.20101 6.20101 1.5 12 1.5C17.799 1.5 22.5 6.20101 22.5 12C22.5 17.799 17.799 22.5 12 22.5ZM0 12C0 18.6274 5.37258 24 12 24C18.6274 24 24 18.6274 24 12C24 5.37258 18.6274 0 12 0C5.37258 0 0 5.37258 0 12ZM8.26667 6H6.4C6.17909 6 6 6.17909 6 6.4V17.6C6 17.8209 6.17909 18 6.4 18H8.26667C8.48758 18 8.66667 17.8209 8.66667 17.6V6.4C8.66667 6.17909 8.48758 6 8.26667 6ZM18 8.26667V6.4C18 6.17909 17.8209 6 17.6 6H10.4C10.1791 6 10 6.17909 10 6.4V8.26667C10 8.48758 10.1791 8.66667 10.4 8.66667H17.6C17.8209 8.66667 18 8.48758 18 8.26667ZM18 11.0665C18 10.8456 17.8209 10.6665 17.6 10.6665H10.4C10.1791 10.6665 10 10.8456 10 11.0665V12.9332C10 13.1541 10.1791 13.3332 10.4 13.3332H17.6C17.8209 13.3332 18 13.1541 18 12.9332V11.0665ZM18 17.6V15.7333C18 15.5124 17.8209 15.3333 17.6 15.3333H10.4C10.1791 15.3333 10 15.5124 10 15.7333V17.6C10 17.8209 10.1791 18 10.4 18H17.6C17.8209 18 18 17.8209 18 17.6Z" fill="black"/>
</svg>
