<svg width="24" height="24" viewBox="0 0 24 24" fill="none" xmlns="http://www.w3.org/2000/svg">
<path d="M12 22.5C6.20101 22.5 1.5 17.799 1.5 12C1.5 6.20101 6.20101 1.5 12 1.5C17.799 1.5 22.5 6.20101 22.5 12C22.5 17.799 17.799 22.5 12 22.5ZM0 12C0 18.6274 5.37258 24 12 24C18.6274 24 24 18.6274 24 12C24 5.37258 18.6274 0 12 0C5.37258 0 0 5.37258 0 12ZM18 15V9C18 7.34315 16.6569 6 15 6H9C7.34315 6 6 7.34315 6 9V15C6 16.6569 7.34315 18 9 18H10.9336V13.266H10V11.666H10.9336V10.57C10.9336 9.15084 12.0844 8 13.5036 8H14.1336V9.6H13.5036C12.9681 9.6 12.5336 10.0345 12.5336 10.57V11.666H14.1008L13.6008 13.266H12.5336V18H15C16.6569 18 18 16.6569 18 15Z" fill="black"/>
</svg>
