<svg width="24" height="24" viewBox="0 0 24 24" fill="none" xmlns="http://www.w3.org/2000/svg">
<path d="M12 22.5C6.20101 22.5 1.5 17.799 1.5 12C1.5 6.20101 6.20101 1.5 12 1.5C17.799 1.5 22.5 6.20101 22.5 12C22.5 17.799 17.799 22.5 12 22.5ZM0 12C0 18.6274 5.37258 24 12 24C18.6274 24 24 18.6274 24 12C24 5.37258 18.6274 0 12 0C5.37258 0 0 5.37258 0 12ZM6.97026 7.33354C5.9912 8.31259 5.35719 9.50602 5.06822 10.7627C6.88656 10.9555 9.05694 10.7579 11.1336 10.1586C10.4533 8.79806 9.70509 7.50812 8.91961 6.36887C8.84307 6.25786 8.80578 6.13143 8.80471 6.00604C8.14309 6.33873 7.52256 6.78123 6.97026 7.33354ZM11.566 11.3867C9.32231 12.0441 6.95388 12.27 4.93112 12.0555C4.91848 12.0541 4.90596 12.0524 4.89358 12.0504C4.81689 13.8012 5.38353 15.5749 6.59349 16.9869C6.61419 16.8992 6.65356 16.8143 6.71238 16.7384C8.04887 15.0135 10.0636 13.6871 12.2675 12.9081C12.2997 12.8967 12.3318 12.8855 12.3641 12.8743C12.1544 12.3613 11.9334 11.8506 11.7022 11.3462C11.6568 11.3599 11.6114 11.3734 11.566 11.3867ZM17.5501 8.05059C16.2975 9.30291 14.6751 10.2554 12.9382 10.9234C13.1756 11.4459 13.4025 11.9744 13.6174 12.5053C15.4345 12.0603 17.3446 11.9774 19.114 12.36C19.1132 10.8132 18.6111 9.26667 17.6076 7.98496C17.5902 8.00779 17.571 8.02972 17.5501 8.05059ZM16.631 7.13124C16.6619 7.10036 16.6951 7.07324 16.7301 7.04987C14.8293 5.35483 12.237 4.85703 9.93009 5.55645C9.95151 5.57946 9.97151 5.60431 9.98988 5.63095C10.8423 6.86726 11.6504 8.26895 12.3798 9.74505C14.0213 9.1255 15.5127 8.24924 16.631 7.13124ZM7.37551 17.7691C9.33683 19.4509 11.9968 19.8908 14.3236 19.0889C14.2777 19.0205 14.2442 18.9422 14.2268 18.8565C13.9217 17.3534 13.4427 15.7228 12.8363 14.0867C12.7911 14.1021 12.7459 14.1178 12.7008 14.1338C10.6828 14.847 8.89455 16.0445 7.74002 17.5346C7.6452 17.657 7.51532 17.7362 7.37551 17.7691ZM14.09 13.729C14.6987 15.3841 15.181 17.0332 15.4936 18.5625C16.044 18.252 16.5618 17.8624 17.0305 17.3937C18.0908 16.3334 18.7464 15.0216 18.9973 13.6503C18.952 13.6501 18.9061 13.6452 18.86 13.6352C17.3536 13.3057 15.6971 13.3579 14.09 13.729Z" fill="black"/>
</svg>
