<svg width="24" height="24" viewBox="0 0 24 24" fill="none" xmlns="http://www.w3.org/2000/svg">
<path d="M12 1.5C17.799 1.5 22.5 6.20101 22.5 12C22.5 17.799 17.799 22.5 12 22.5C6.20101 22.5 1.5 17.799 1.5 12C1.5 6.20101 6.20101 1.5 12 1.5ZM24 12C24 5.37258 18.6274 0 12 0C5.37258 0 0 5.37258 0 12C0 18.6274 5.37258 24 12 24C18.6274 24 24 18.6274 24 12ZM19 12C19 8.13401 15.866 5 12 5C8.13401 5 5 8.13401 5 12C5 15.866 8.13401 19 12 19C15.866 19 19 15.866 19 12ZM5.77778 12C5.77778 8.56356 8.56356 5.77778 12 5.77778C15.4364 5.77778 18.2222 8.56356 18.2222 12C18.2222 15.4364 15.4364 18.2222 12 18.2222C8.56356 18.2222 5.77778 15.4364 5.77778 12ZM13.7574 17.1546L12.0822 12.6577L10.5043 17.2364C10.9795 17.3719 11.4813 17.4444 12 17.4444C12.6149 17.4444 13.2061 17.3425 13.7574 17.1546ZM8.25012 15.9472L6.59483 11.3427C6.5689 11.5582 6.55556 11.7775 6.55556 12C6.55556 13.5536 7.20631 14.9553 8.25012 15.9472ZM15.3842 7.73485C14.455 6.99658 13.279 6.55556 12 6.55556C10.5055 6.55556 9.15166 7.15771 8.16723 8.13313C8.26103 8.11839 8.35789 8.10221 8.45779 8.08458C8.6552 8.04974 8.84347 8.18153 8.8783 8.37894C8.91314 8.57635 8.78135 8.76462 8.58394 8.79946C8.34728 8.84122 8.12555 8.87546 7.91858 8.90212L10.2451 15.7595L11.6832 11.5875L10.7055 8.96211L10.6927 8.9206L10.6851 8.87878L10.4349 8.8545L10.2066 8.82995L9.96613 8.80252C9.76703 8.77921 9.62453 8.59891 9.64784 8.39981C9.67115 8.20071 9.85145 8.05821 10.0505 8.08152L10.4648 8.12772L10.8388 8.16466L11.1724 8.19234L11.2495 8.19781L11.324 8.20271L11.5967 8.21653L11.8285 8.22114L11.9503 8.21974L12.2282 8.20862L12.5518 8.18634L12.9207 8.15289L13.3347 8.10824L13.4452 8.09533L13.5585 8.08172C13.7575 8.05749 13.9384 8.19917 13.9626 8.39816C13.9869 8.59715 13.8452 8.7781 13.6462 8.80232L13.1938 8.85437L12.9673 8.87616L15.3434 15.7128L16.6073 12.1576L16.5731 11.9862L16.5168 11.7271C16.2702 10.6269 15.9898 9.82325 15.6839 9.32299L15.6173 9.2195L15.5365 9.09204C15.2604 8.62504 15.21 8.16264 15.3842 7.73485ZM17.4444 12L17.4437 11.9681L17.177 12.7348L16.2075 15.4555C16.9804 14.5155 17.4444 13.3119 17.4444 12Z" fill="black"/>
</svg>
