<svg width="24" height="24" viewBox="0 0 24 24" fill="none" xmlns="http://www.w3.org/2000/svg">
<path d="M12 22.5C6.20101 22.5 1.5 17.799 1.5 12C1.5 6.20101 6.20101 1.5 12 1.5C17.799 1.5 22.5 6.20101 22.5 12C22.5 17.799 17.799 22.5 12 22.5ZM0 12C0 18.6274 5.37258 24 12 24C18.6274 24 24 18.6274 24 12C24 5.37258 18.6274 0 12 0C5.37258 0 0 5.37258 0 12ZM19 11.9984C19 8.13367 15.8663 5 12.0016 5C8.13444 5 5 8.13444 5 12.0016C5 15.8663 8.13367 19 11.9984 19H12.0016C15.8663 19 19 15.8663 19 12.0016V11.9984ZM7.95508 11.9893C7.95305 11.0093 8.74537 10.214 9.72537 10.2109H9.73044C10.7104 10.2109 11.5058 11.0063 11.5058 11.9863C11.5058 12.9663 10.7115 13.7606 9.73146 13.7617C8.75247 13.7627 7.95711 12.9693 7.95508 11.9893ZM14.3406 10.2109H14.3457C15.3257 10.2109 16.121 11.0063 16.121 11.9863C16.121 12.9663 15.3267 13.7606 14.3467 13.7617C13.3677 13.7627 12.5723 12.9693 12.5703 11.9893C12.5683 11.0093 13.3606 10.214 14.3406 10.2109Z" fill="black"/>
</svg>
