<svg width="24" height="24" viewBox="0 0 24 24" fill="none" xmlns="http://www.w3.org/2000/svg">
<path d="M1.5 12C1.5 6.20101 6.20101 1.5 12 1.5C17.799 1.5 22.5 6.20101 22.5 12C22.5 17.799 17.799 22.5 12 22.5C6.20101 22.5 1.5 17.799 1.5 12ZM12 0C5.37258 0 0 5.37258 0 12C0 18.6274 5.37258 24 12 24C18.6274 24 24 18.6274 24 12C24 5.37258 18.6274 0 12 0Z" fill="black"/>
<path d="M11.9184 18.0353C11.6467 18.0353 11.4258 18.2516 11.4258 18.5176C11.4258 18.7837 11.6467 19 11.9184 19C12.1902 19 12.4111 18.7837 12.4111 18.5176C12.4111 18.2516 12.1931 18.0353 11.9184 18.0353Z" fill="black"/>
<path d="M16.1096 17.071C15.7006 17.071 15.3691 17.3955 15.3691 17.796C15.3691 18.1965 15.7006 18.521 16.1096 18.521C16.5187 18.521 16.8501 18.1965 16.8501 17.796C16.8501 17.3955 16.5187 17.071 16.1096 17.071Z" fill="black"/>
<path fill-rule="evenodd" clip-rule="evenodd" d="M7.23415 16.1032C7.0968 16.1032 6.98633 16.2113 6.98633 16.3458C6.98633 16.4803 7.0968 16.5885 7.23415 16.5885C7.3715 16.5885 7.48198 16.4803 7.48198 16.3458C7.48198 16.2113 7.3715 16.1032 7.23415 16.1032Z" fill="black"/>
<path d="M18.8247 11.759C18.553 11.759 18.332 11.9754 18.332 12.2414C18.332 12.5075 18.553 12.7238 18.8247 12.7238C19.0964 12.7238 19.3174 12.5075 19.3174 12.2414C19.3174 11.9754 19.0964 11.759 18.8247 11.759Z" fill="black"/>
<path d="M7.97313 6.92992C7.70142 6.92992 7.48047 7.14626 7.48047 7.41229C7.48047 7.67833 7.70142 7.89467 7.97313 7.89467C8.24484 7.89467 8.46579 7.67833 8.46579 7.41229C8.46579 7.14626 8.24484 6.92992 7.97313 6.92992Z" fill="black"/>
<path d="M13.6428 5C13.2338 5 12.9023 5.3245 12.9023 5.72502C12.9023 6.12553 13.2338 6.45004 13.6428 6.45004C14.0519 6.45004 14.3833 6.12553 14.3833 5.72502C14.3833 5.3245 14.0519 5 13.6428 5Z" fill="black"/>
<path d="M8.63648 8.38534C7.44812 8.42626 6.49565 9.37639 6.49565 10.5516C6.49565 10.8937 6.58224 11.2123 6.72556 11.4988C6.27768 11.9344 6 12.5396 6 13.2061C6 14.3755 6.85096 15.3519 7.97662 15.5712L7.97064 15.618C7.97064 16.9511 9.0754 18.0327 10.4369 18.0327C11.0341 18.0327 11.5745 17.8164 12.0045 17.4685C12.3628 17.8164 12.8525 18.0327 13.3959 18.0327C14.3185 18.0327 15.0859 17.4101 15.3008 16.5769C16.7161 16.4862 17.8328 15.3373 17.8328 13.9311C17.8328 13.3757 17.6567 12.8582 17.3581 12.4314C17.6507 12.1274 17.8328 11.7239 17.8328 11.2737C17.8328 10.5984 17.4238 10.0195 16.8385 9.74767C16.8396 9.72873 16.8409 9.71013 16.8423 9.69164C16.8449 9.6559 16.8475 9.62056 16.8475 9.58395C16.8475 8.11638 15.6323 6.92945 14.1364 6.92945C13.8288 6.92945 13.5362 6.98208 13.2585 7.0727C12.7569 6.68388 12.1209 6.44708 11.4252 6.44708C10.1354 6.44708 9.03957 7.25688 8.63648 8.38534ZM12.6502 10.4139C12.7977 10.4345 12.8915 10.5241 12.9986 10.6265C13.0141 10.6414 13.03 10.6565 13.0463 10.6717C13.1393 10.7646 13.2085 10.7233 13.2651 10.6895C13.2721 10.6854 13.2789 10.6813 13.2855 10.6776C13.2899 10.6752 13.2942 10.6728 13.2985 10.6704C13.3851 10.6221 13.4614 10.5796 13.7238 10.5871C14.0093 10.593 14.3371 10.6954 14.4074 11.1757C14.4447 11.4389 14.2358 11.9029 14.0195 12.3835C13.7925 12.8877 13.5572 13.4102 13.5891 13.7388C13.6118 13.9698 13.826 13.9982 14.038 14.0263C14.2397 14.053 14.4394 14.0795 14.4698 14.2802C14.5522 14.8156 13.5067 14.6168 13.2735 14.5026C12.8995 14.3176 12.6703 13.9022 12.7648 13.4888C12.8052 13.3293 13.0078 12.9174 13.1984 12.5299C13.3772 12.1663 13.5453 11.8243 13.559 11.7328C13.5831 11.532 13.4785 11.5143 13.4142 11.5143C13.3257 11.5084 13.2634 11.5497 13.1749 11.6757C13.1219 11.755 12.6918 12.6039 12.4083 13.1636C12.2834 13.41 12.187 13.6004 12.1636 13.6443C11.9244 14.0971 11.3051 14.0223 11.3735 13.5636C11.3815 13.5029 11.4959 13.2252 11.6219 12.9191C11.7781 12.5395 11.9523 12.1163 11.9646 12.0084C11.9827 11.8942 11.9585 11.7682 11.8419 11.7052C11.7253 11.6462 11.5846 11.7387 11.5444 11.8076C11.5151 11.8554 11.3187 12.3528 11.1148 12.8691C10.8986 13.4167 10.674 13.9856 10.6316 14.0616C10.4868 14.3176 10.338 14.3983 10.1128 14.4101C9.58204 14.4396 9.18193 13.9986 9.35887 13.4671C9.37145 13.4276 9.39589 13.3454 9.4291 13.2338C9.59745 12.668 9.99136 11.3442 10.2114 10.9611C10.3883 10.6521 10.8728 10.4198 11.2066 10.5615C11.3835 10.6363 11.6288 10.7544 11.6972 10.7899C11.8388 10.8566 11.991 10.7135 12.0733 10.6362C12.0856 10.6246 12.0964 10.6145 12.1053 10.6068C12.242 10.4926 12.3385 10.4178 12.4853 10.406C12.5336 10.402 12.5879 10.404 12.6502 10.4139Z" fill="black"/>
</svg>
