<svg width="24" height="24" viewBox="0 0 24 24" fill="none" xmlns="http://www.w3.org/2000/svg">
<path d="M12 22.5C6.20101 22.5 1.5 17.799 1.5 12C1.5 6.20101 6.20101 1.5 12 1.5C17.799 1.5 22.5 6.20101 22.5 12C22.5 17.799 17.799 22.5 12 22.5ZM0 12C0 18.6274 5.37258 24 12 24C18.6274 24 24 18.6274 24 12C24 5.37258 18.6274 0 12 0C5.37258 0 0 5.37258 0 12ZM9.99243 5.54048C9.73859 5.28664 9.32703 5.28664 9.07319 5.54048C8.81935 5.79432 8.81935 6.20588 9.07319 6.45972L9.86517 7.25169C9.10682 7.78434 8.56331 8.60215 8.39056 9.54932H15.4736C15.3009 8.60261 14.7579 7.78514 14.0001 7.25247L14.7928 6.45972C15.0467 6.20588 15.0467 5.79432 14.7928 5.54048C14.539 5.28664 14.1274 5.28664 13.8736 5.54048L12.9736 6.44049C12.8961 6.51795 12.8423 6.61009 12.8121 6.70795C12.5305 6.63719 12.2357 6.59961 11.9321 6.59961C11.6291 6.59961 11.3349 6.63704 11.0538 6.70752C11.0236 6.60981 10.9698 6.51783 10.8924 6.44049L9.99243 5.54048ZM9.48242 16.1993C9.48242 16.1993 9.48242 16.1993 9.48242 16.1993V17.9993C9.48242 18.3583 9.77344 18.6493 10.1324 18.6493C10.4914 18.6493 10.7824 18.3583 10.7824 17.9993V16.1993C10.7824 16.1993 10.7824 16.1993 10.7824 16.1993H13.082C13.082 16.1993 13.082 16.1993 13.082 16.1993V17.9993C13.082 18.3583 13.373 18.6493 13.732 18.6493C14.091 18.6493 14.382 18.3583 14.382 17.9993V16.1993C14.382 16.1993 14.382 16.1993 14.382 16.1993H14.8654C15.2334 16.1993 15.5321 15.9006 15.5321 15.5326V10.8493H8.33203V15.5326C8.33203 15.9006 8.6307 16.1993 8.9987 16.1993H9.48242ZM17.2652 9.51709C16.9062 9.51709 16.6152 9.8081 16.6152 10.1671V13.8338C16.6152 14.1928 16.9062 14.4838 17.2652 14.4838C17.6242 14.4838 17.9152 14.1928 17.9152 13.8338V10.1671C17.9152 9.8081 17.6242 9.51709 17.2652 9.51709ZM7.24922 10.1671C7.24922 9.8081 6.9582 9.51709 6.59922 9.51709C6.24023 9.51709 5.94922 9.8081 5.94922 10.1671V13.8338C5.94922 14.1928 6.24023 14.4838 6.59922 14.4838C6.9582 14.4838 7.24922 14.1928 7.24922 13.8338V10.1671Z" fill="black"/>
</svg>
