<svg width="24" height="24" viewBox="0 0 24 24" fill="none" xmlns="http://www.w3.org/2000/svg">
<path d="M22.5 12C22.5 17.799 17.799 22.5 12 22.5C6.20101 22.5 1.5 17.799 1.5 12C1.5 6.20101 6.20101 1.5 12 1.5C17.799 1.5 22.5 6.20101 22.5 12ZM12 24C18.6274 24 24 18.6274 24 12C24 5.37258 18.6274 0 12 0C5.37258 0 0 5.37258 0 12C0 18.6274 5.37258 24 12 24ZM13.0617 8.2998H6.87943C6.39373 8.2998 6 8.69354 6 9.17923V13.328C6 14.6463 7.0687 15.715 8.38702 15.715H14.5693C15.055 15.715 15.4487 15.3213 15.4487 14.8356V10.6868C15.4487 9.36851 14.38 8.2998 13.0617 8.2998ZM17.1836 15.0977C17.2676 15.1488 17.364 15.1758 17.4622 15.1758C17.7584 15.1758 17.9985 14.9357 17.9985 14.6395V9.52755C17.9985 9.42324 17.9681 9.3212 17.911 9.23392C17.7488 8.98608 17.4164 8.91663 17.1686 9.0788L16.152 9.74398C16.0104 9.83661 15.9253 9.99455 15.9258 10.1637L15.9363 14.0597C15.9368 14.2338 16.0278 14.3951 16.1766 14.4855L17.1836 15.0977Z" fill="black"/>
</svg>
