<svg width="24" height="24" viewBox="0 0 24 24" fill="none" xmlns="http://www.w3.org/2000/svg">
<path d="M12 22.5C6.20101 22.5 1.5 17.799 1.5 12C1.5 6.20101 6.20101 1.5 12 1.5C17.799 1.5 22.5 6.20101 22.5 12C22.5 17.799 17.799 22.5 12 22.5ZM0 12C0 18.6274 5.37258 24 12 24C18.6274 24 24 18.6274 24 12C24 5.37258 18.6274 0 12 0C5.37258 0 0 5.37258 0 12ZM7.33705 6.24719L5.02853 12.495C4.95075 12.7296 5.03553 12.9878 5.24009 13.1333L12 17.95L7.89085 6.24719C7.80374 5.98433 7.42417 5.98433 7.33705 6.24719ZM12 17.95L18.7599 13.1333C18.9645 12.9878 19.0493 12.7296 18.9715 12.495L16.6629 6.24719C16.5758 5.98433 16.1963 5.98433 16.1091 6.24719L12 17.95ZM10.026 10.9498L12.0029 16.5498L13.946 10.9498H10.026Z" fill="black"/>
</svg>
