<svg width="24" height="24" viewBox="0 0 24 24" fill="none" xmlns="http://www.w3.org/2000/svg">
<path d="M12 22.5C6.20101 22.5 1.5 17.799 1.5 12C1.5 6.20101 6.20101 1.5 12 1.5C17.799 1.5 22.5 6.20101 22.5 12C22.5 17.799 17.799 22.5 12 22.5ZM0 12C0 18.6274 5.37258 24 12 24C18.6274 24 24 18.6274 24 12C24 5.37258 18.6274 0 12 0C5.37258 0 0 5.37258 0 12ZM14.23 18.5C15.3346 18.5 16.23 17.6046 16.23 16.5V7.5C16.23 6.39543 15.3346 5.5 14.23 5.5H9.78003C8.67546 5.5 7.78003 6.39543 7.78003 7.5V16.5C7.78003 17.6046 8.67546 18.5 9.78003 18.5H14.23ZM10.9942 11.1436L11.1062 10.545C10.6788 10.6279 10.3506 11.0072 10.3449 11.462C10.3385 11.9608 10.7226 12.3684 11.2098 12.3937C11.0485 12.1222 10.9573 11.8032 10.9615 11.462C10.963 11.3533 10.9745 11.247 10.9942 11.1436ZM12.1327 9.64224L12.1034 9.79885C12.3053 9.71854 12.5246 9.67388 12.7533 9.67388C13.729 9.67388 14.5124 10.4761 14.4999 11.462C14.4874 12.4479 13.6835 13.25 12.7081 13.25C12.6137 13.25 12.5213 13.2423 12.4312 13.2276C12.4123 13.2246 12.369 13.2177 12.3612 13.1988C12.3527 13.1783 12.3797 13.1581 12.3948 13.1477C12.6598 12.9647 12.8812 12.7208 13.038 12.4359L13.0429 12.4268C13.0547 12.4047 13.0755 12.3658 13.1031 12.3359C13.1383 12.298 13.1823 12.271 13.2027 12.2585L13.2063 12.2562C13.4715 12.0915 13.6509 11.7971 13.6552 11.462C13.6616 10.9468 13.2523 10.5277 12.7426 10.5277C12.233 10.5277 11.8129 10.9468 11.8064 11.462C11.8037 11.6767 11.8739 11.8741 11.9928 12.032C12.1157 11.8741 12.1909 11.6767 12.1936 11.462C12.1937 11.4573 12.1937 11.452 12.1937 11.4463C12.1936 11.4406 12.1936 11.4344 12.1935 11.4278C12.1924 11.3245 12.1901 11.1151 12.2981 10.9727C12.4298 10.7986 12.7037 10.7708 12.86 10.9115C12.9763 11.0163 13.0418 11.196 13.0385 11.462C13.0259 12.4479 12.2221 13.25 11.2465 13.25C10.2711 13.25 9.48768 12.4479 9.50015 11.462C9.50145 11.3533 9.5131 11.247 9.53281 11.1436L9.96626 8.82654C9.97449 8.78277 9.99485 8.75024 10.0591 8.75C10.8688 8.80068 10.6713 9.64224 10.6713 9.64224L10.642 9.79885C10.8371 9.72127 11.0484 9.67798 11.2689 9.67501L11.4274 8.82726C11.4357 8.78309 11.4559 8.75032 11.5205 8.75C12.3302 8.80068 12.1327 9.64224 12.1327 9.64224ZM10.3801 16.7444C10.3801 16.3854 10.6711 16.0944 11.0301 16.0944H12.9801C13.3391 16.0944 13.6301 16.3854 13.6301 16.7444C13.6301 17.1034 13.3391 17.3944 12.9801 17.3944H11.0301C10.6711 17.3944 10.3801 17.1034 10.3801 16.7444Z" fill="black"/>
</svg>
