<svg width="24" height="24" viewBox="0 0 24 24" fill="none" xmlns="http://www.w3.org/2000/svg">
<path d="M12 22.5C6.20101 22.5 1.5 17.799 1.5 12C1.5 6.20101 6.20101 1.5 12 1.5C17.799 1.5 22.5 6.20101 22.5 12C22.5 17.799 17.799 22.5 12 22.5ZM0 12C0 18.6274 5.37258 24 12 24C18.6274 24 24 18.6274 24 12C24 5.37258 18.6274 0 12 0C5.37258 0 0 5.37258 0 12ZM16.3434 16.4624C16.7705 16.4624 17.1505 16.1911 17.2892 15.7871L18.9436 10.9679C19.2554 10.0595 18.2319 9.27658 17.4368 9.81538L16.2864 10.5949C16.321 10.7223 16.3394 10.8564 16.3394 10.9947C16.3394 11.8355 15.6578 12.5172 14.817 12.5172C13.9761 12.5172 13.2945 11.8355 13.2945 10.9947C13.2945 10.3254 13.7264 9.75694 14.3267 9.5529L12.8569 6.52848C12.4929 5.77952 11.4266 5.7775 11.0598 6.52509L9.57671 9.54768C10.1851 9.74712 10.6246 10.3196 10.6246 10.9947C10.6246 11.8355 9.94294 12.5172 9.10211 12.5172C8.26128 12.5172 7.57965 11.8355 7.57965 10.9947C7.57965 10.8574 7.59783 10.7243 7.63191 10.5978L6.57192 9.86505C5.77797 9.31621 4.74408 10.0994 5.05747 11.0123L6.69655 15.7871C6.83524 16.1911 7.21523 16.4624 7.64237 16.4624H16.3434Z" fill="black"/>
</svg>
