<svg width="24" height="24" viewBox="0 0 24 24" fill="none" xmlns="http://www.w3.org/2000/svg">
<path d="M12 22.5C6.20101 22.5 1.5 17.799 1.5 12C1.5 6.20101 6.20101 1.5 12 1.5C17.799 1.5 22.5 6.20101 22.5 12C22.5 17.799 17.799 22.5 12 22.5ZM0 12C0 18.6274 5.37258 24 12 24C18.6274 24 24 18.6274 24 12C24 5.37258 18.6274 0 12 0C5.37258 0 0 5.37258 0 12ZM5 10.3976C6.71661 10.3622 8.14069 11.2908 9.27223 13.1833C11.6225 10.7436 14.324 10.5996 17.3767 12.7513C17.3778 12.752 17.3812 12.7445 17.3878 12.7305C17.412 12.6784 17.4785 12.5354 17.6213 12.3793C17.768 12.2188 17.9163 12.1347 17.9656 12.1068L17.9656 12.1068C17.9773 12.1001 17.9834 12.0967 17.9826 12.0961C15.0859 9.90152 11.5918 9.90769 9.27223 12.5848C8.5476 11.5363 7.80654 10.8773 7.04904 10.6078C6.45103 10.395 5.76801 10.325 5 10.3976ZM18.3946 13.6239C18.729 13.6239 19 13.3529 19 13.0185C19 12.6842 18.729 12.4131 18.3946 12.4131C18.0603 12.4131 17.7892 12.6842 17.7892 13.0185C17.7892 13.3529 18.0603 13.6239 18.3946 13.6239Z" fill="black"/>
</svg>
