<svg width="24" height="24" viewBox="0 0 24 24" fill="none" xmlns="http://www.w3.org/2000/svg">
<path d="M12 22.5C6.20101 22.5 1.5 17.799 1.5 12C1.5 6.20101 6.20101 1.5 12 1.5C17.799 1.5 22.5 6.20101 22.5 12C22.5 17.799 17.799 22.5 12 22.5ZM0 12C0 18.6274 5.37258 24 12 24C18.6274 24 24 18.6274 24 12C24 5.37258 18.6274 0 12 0C5.37258 0 0 5.37258 0 12ZM11.9996 5.1001C8.18935 5.1001 5.09961 8.18984 5.09961 12.0001C5.09961 15.8104 8.18935 18.9001 11.9996 18.9001C15.8099 18.9001 18.8996 15.8104 18.8996 12.0001C18.8996 11.503 18.4967 11.1001 17.9996 11.1001H12.7496C12.2526 11.1001 11.8496 11.503 11.8496 12.0001C11.8496 12.4972 12.2526 12.9001 12.7496 12.9001H17.0204C16.5952 15.2872 14.5087 17.1001 11.9996 17.1001C9.18347 17.1001 6.89961 14.8162 6.89961 12.0001C6.89961 9.18395 9.18347 6.9001 11.9996 6.9001C13.2423 6.9001 14.3779 7.34399 15.2627 8.08291C15.6443 8.40151 16.2118 8.35049 16.5304 7.96897C16.849 7.58744 16.798 7.01988 16.4165 6.70129C15.2205 5.70261 13.6802 5.1001 11.9996 5.1001Z" fill="black"/>
</svg>
