<svg width="24" height="24" viewBox="0 0 24 24" fill="none" xmlns="http://www.w3.org/2000/svg">
<path d="M12 22.5C6.20101 22.5 1.5 17.799 1.5 12C1.5 6.20101 6.20101 1.5 12 1.5C17.799 1.5 22.5 6.20101 22.5 12C22.5 17.799 17.799 22.5 12 22.5ZM0 12C0 18.6274 5.37258 24 12 24C18.6274 24 24 18.6274 24 12C24 5.37258 18.6274 0 12 0C5.37258 0 0 5.37258 0 12ZM13.8915 15.8889C14.6871 15.8889 15.4502 15.5728 16.0128 15.0102L17.6594 13.3636C18.0345 12.9885 18.2452 12.4798 18.2452 11.9494V8C18.2452 6.34315 16.9021 5 15.2452 5H10.1545C9.35888 5 8.59582 5.31607 8.03321 5.87868L6.67946 7.23243C6.11685 7.79504 5.80078 8.5581 5.80078 9.35375V13.0606C5.80078 14.6226 7.06705 15.8889 8.62906 15.8889C8.78527 15.8889 8.91189 16.0155 8.91189 16.1717V17.7929C8.91189 18.2383 9.45046 18.4614 9.76545 18.1464L11.9351 15.9768C11.9914 15.9205 12.0677 15.8889 12.1473 15.8889H13.8915ZM15.8848 8.11133V10.4447C15.8848 10.8589 15.549 11.1947 15.1348 11.1947C14.7206 11.1947 14.3848 10.8589 14.3848 10.4447V8.11133C14.3848 7.69711 14.7206 7.36133 15.1348 7.36133C15.549 7.36133 15.8848 7.69711 15.8848 8.11133ZM12.0234 7.36133C12.4377 7.36133 12.7734 7.69711 12.7734 8.11133V10.4447C12.7734 10.8589 12.4377 11.1947 12.0234 11.1947C11.6092 11.1947 11.2734 10.8589 11.2734 10.4447V8.11133C11.2734 7.69711 11.6092 7.36133 12.0234 7.36133Z" fill="black"/>
</svg>
