<svg width="24" height="24" viewBox="0 0 24 24" fill="none" xmlns="http://www.w3.org/2000/svg">
<path d="M12 22.5C6.20101 22.5 1.5 17.799 1.5 12C1.5 6.20101 6.20101 1.5 12 1.5C17.799 1.5 22.5 6.20101 22.5 12C22.5 17.799 17.799 22.5 12 22.5ZM0 12C0 18.6274 5.37258 24 12 24C18.6274 24 24 18.6274 24 12C24 5.37258 18.6274 0 12 0C5.37258 0 0 5.37258 0 12ZM12.0494 18.6174C13.712 18.5595 15.3575 17.8959 16.6267 16.6267C18.5899 14.6635 19.1041 11.7999 18.1691 9.36511L14.6483 9.36521C15.7037 10.5871 15.8394 12.3291 15.0554 13.6847L15.0477 13.6966L12.0494 18.6174ZM8.57219 13.6928L5.69141 8.81655C4.44753 11.3582 4.882 14.5138 6.99483 16.6267C8.01299 17.6449 9.27333 18.2733 10.5904 18.512L12.4232 15.5066C11.2723 15.6964 10.0498 15.3474 9.16204 14.4596C8.92874 14.2263 8.73265 13.9699 8.57219 13.6928ZM13.4124 9.96223C12.9624 9.57154 12.4036 9.37254 11.8429 9.36523L11.8107 9.36576C11.1794 9.36709 10.5568 9.60588 10.0813 10.0814C9.12611 11.0366 9.12611 12.5852 10.0813 13.5404C11.0365 14.4955 12.5851 14.4955 13.5403 13.5404C14.4539 12.6267 14.4936 11.1701 13.6594 10.2093L13.5403 10.0814L13.4124 9.96223ZM17.5007 8.06513C17.251 7.68678 16.9597 7.32785 16.6267 6.99483C13.967 4.33506 9.65461 4.33506 6.99483 6.99483C6.80713 7.18253 6.63268 7.37845 6.47147 7.58145L8.26075 10.6129C8.43922 10.0827 8.73965 9.58456 9.16204 9.16216C9.86826 8.45596 10.7863 8.09068 11.7116 8.06633L17.5007 8.06513Z" fill="black"/>
</svg>
