<svg width="24" height="24" viewBox="0 0 24 24" fill="none" xmlns="http://www.w3.org/2000/svg">
<path d="M12 22.5C6.20101 22.5 1.5 17.799 1.5 12C1.5 6.20101 6.20101 1.5 12 1.5C17.799 1.5 22.5 6.20101 22.5 12C22.5 17.799 17.799 22.5 12 22.5ZM0 12C0 18.6274 5.37258 24 12 24C18.6274 24 24 18.6274 24 12C24 5.37258 18.6274 0 12 0C5.37258 0 0 5.37258 0 12ZM9.18379 12.7022C9.12859 12.9916 9.09643 13.2893 9.09232 13.5936C9.08046 14.549 9.33569 15.4422 9.78754 16.2025C8.42334 16.1314 7.3479 14.9902 7.36569 13.5936C7.38166 12.3201 8.30063 11.2581 9.49741 11.026L9.18379 12.7022ZM12.3716 8.49828C12.3716 8.49828 12.9247 6.14189 10.6575 6C10.4766 6.0009 10.42 6.09265 10.3968 6.21632L9.9529 8.59002C9.33546 8.59834 8.7438 8.71955 8.19753 8.93677L8.27964 8.49828C8.27964 8.49828 8.83276 6.14189 6.56556 6C6.38559 6.00067 6.32857 6.09175 6.30553 6.2143L5.09187 12.7022C5.03668 12.9916 5.00406 13.2893 5.00041 13.5936C4.96551 16.354 7.15904 18.6 9.89018 18.6C12.622 18.6 14.8725 16.354 14.9077 13.5936C14.917 12.8488 14.7336 12.3458 14.4079 12.0521C13.9705 11.6581 13.2034 11.7361 12.8346 12.2234C12.5322 12.6222 12.5386 13.2086 12.5418 13.4978C12.5422 13.535 12.5425 13.5672 12.5422 13.5936C12.5346 14.1946 12.3239 14.7473 11.9799 15.1897C11.6469 14.7473 11.4503 14.1946 11.4578 13.5936C11.4761 12.151 12.6523 10.9777 14.0793 10.9777C15.5064 10.9777 16.6526 12.151 16.6345 13.5936C16.6224 14.5319 16.1202 15.3561 15.3778 15.8175C15.3746 15.8194 15.3712 15.8215 15.3675 15.8238C15.3104 15.8589 15.1871 15.9345 15.0888 16.0406C15.0114 16.1242 14.9531 16.2332 14.9201 16.2949C14.9149 16.3048 14.9103 16.3134 14.9063 16.3205C14.4672 17.1181 13.8475 17.801 13.1053 18.3135C13.0631 18.3428 12.9876 18.3992 13.0113 18.4568C13.0332 18.5096 13.1544 18.5289 13.2073 18.5373C13.4595 18.5784 13.7184 18.6 13.9825 18.6C16.7137 18.6 18.9647 16.354 18.9996 13.5936C19.0347 10.8331 16.8412 8.58688 14.1094 8.58688C13.4689 8.58688 12.8549 8.7119 12.2894 8.93677L12.3716 8.49828Z" fill="black"/>
</svg>
