<svg width="24" height="24" viewBox="0 0 24 24" fill="none" xmlns="http://www.w3.org/2000/svg">
<path d="M1.5 12C1.5 6.20101 6.20101 1.5 12 1.5C17.799 1.5 22.5 6.20101 22.5 12C22.5 17.799 17.799 22.5 12 22.5C6.20101 22.5 1.5 17.799 1.5 12ZM12 0C5.37258 0 0 5.37258 0 12C0 18.6274 5.37258 24 12 24C18.6274 24 24 18.6274 24 12C24 5.37258 18.6274 0 12 0ZM17.8574 6.74789C18.0477 6.41456 17.807 6 17.4232 6H15.3948C15.0358 6 14.7043 6.19244 14.5263 6.50422L10.9323 12.7997C10.757 13.1068 10.7569 13.4837 10.9321 13.7909L13.0451 17.4955C13.2231 17.8074 13.5546 18 13.9138 18H15.0815C15.849 18 16.3304 17.1712 15.9501 16.5045L14.261 13.5431C14.1733 13.3895 14.1734 13.201 14.261 13.0475L17.8574 6.74789ZM9.77633 8.75624C9.59866 8.44333 9.26657 8.25 8.90673 8.25H7.0381C6.6548 8.25 6.41404 8.66356 6.6033 8.99688L7.56344 10.6878C7.65297 10.8455 7.65012 11.0393 7.55599 11.1943L6.16132 13.4904C5.95894 13.8236 6.19881 14.25 6.58867 14.25H8.44702C8.79635 14.25 9.12036 14.0677 9.30171 13.7691L10.7132 11.4453C10.9014 11.1354 10.9071 10.7478 10.7281 10.4324L9.77633 8.75624Z" fill="black"/>
</svg>
