<svg width="24" height="24" viewBox="0 0 24 24" fill="none" xmlns="http://www.w3.org/2000/svg">
<path d="M1.5 12C1.5 6.20101 6.20101 1.5 12 1.5C17.799 1.5 22.5 6.20101 22.5 12C22.5 17.799 17.799 22.5 12 22.5C6.20101 22.5 1.5 17.799 1.5 12ZM12 0C5.37258 0 0 5.37258 0 12C0 18.6274 5.37258 24 12 24C18.6274 24 24 18.6274 24 12C24 5.37258 18.6274 0 12 0ZM9.33329 7.33346C8.22872 7.33346 7.33329 8.22888 7.33329 9.33345V16C7.33329 17.1046 8.22872 18 9.33329 18H15.9999C17.1044 18 17.9999 17.1046 17.9999 16V9.33346C17.9999 8.22889 17.1044 7.33346 15.9999 7.33346H9.33329ZM11.1301 15.3334H10.4999C10.2238 15.3334 9.99991 15.1096 9.99991 14.8334V11.3756C9.99991 10.616 10.6157 10.0001 11.3754 10.0001H13.4669C14.4529 10.0001 15.2522 10.7995 15.2522 11.7855C15.2522 12.031 15.2016 12.2739 15.1035 12.499C14.8533 13.0728 14.6127 13.4944 14.3815 13.7638L14.8527 14.5845C15.044 14.9178 14.8034 15.3334 14.419 15.3334H13.9525C13.7632 15.3334 13.5901 15.2265 13.5054 15.0571L12.769 13.5852C12.6888 13.4249 12.7682 13.2329 12.923 13.1426C13.1698 12.9986 13.3625 12.8034 13.501 12.5569C13.7373 12.1363 13.5879 11.6037 13.1673 11.3674C13.0366 11.294 12.8893 11.2555 12.7394 11.2555H12.3179C11.9381 11.2555 11.6301 11.5634 11.6301 11.9433V14.8334C11.6301 15.1096 11.4063 15.3334 11.1301 15.3334ZM6.64998 8.35293C6.64998 7.41243 7.4124 6.65001 8.3529 6.65001H12.3909C12.7498 6.65001 13.0409 6.35899 13.0409 6.00001C13.0409 5.64102 12.7498 5.35001 12.3909 5.35001H8.3529C6.69443 5.35001 5.34998 6.69446 5.34998 8.35293V12.3137C5.34998 12.6727 5.64099 12.9637 5.99998 12.9637C6.35896 12.9637 6.64998 12.6727 6.64998 12.3137V8.35293Z" fill="black"/>
</svg>
