<svg width="24" height="24" viewBox="0 0 24 24" fill="none" xmlns="http://www.w3.org/2000/svg">
<path d="M12 22.5C6.20101 22.5 1.5 17.799 1.5 12C1.5 6.20101 6.20101 1.5 12 1.5C17.799 1.5 22.5 6.20101 22.5 12C22.5 17.799 17.799 22.5 12 22.5ZM0 12C0 18.6274 5.37258 24 12 24C18.6274 24 24 18.6274 24 12C24 5.37258 18.6274 0 12 0C5.37258 0 0 5.37258 0 12ZM8.26315 12.9473C7.56553 12.9473 7 13.5128 7 14.2104V17.7472C7 17.8867 7.11311 17.9999 7.25263 17.9999C8.50834 17.9999 9.52629 16.9819 9.52629 15.7262V14.2104C9.52629 13.5128 8.96076 12.9473 8.26315 12.9473ZM10.7891 10.4211V17.7474C10.7891 17.8869 10.9022 18 11.0417 18C12.2974 18 13.3154 16.982 13.3154 15.7263V10.4211C13.3154 9.72349 12.7498 9.15796 12.0522 9.15796C11.3546 9.15796 10.7891 9.72349 10.7891 10.4211ZM15.8413 6C15.1437 6 14.5781 6.56553 14.5781 7.26315V17.7473C14.5781 17.8868 14.6912 17.9999 14.8308 17.9999C16.0865 17.9999 17.1044 16.9819 17.1044 15.7262V7.26315C17.1044 6.56553 16.5389 6 15.8413 6Z" fill="black"/>
</svg>
