<svg width="24" height="24" viewBox="0 0 24 24" fill="none" xmlns="http://www.w3.org/2000/svg">
<path d="M12 22.5C6.20101 22.5 1.5 17.799 1.5 12C1.5 6.20102 6.20101 1.50001 12 1.50001C17.799 1.50001 22.5 6.20102 22.5 12C22.5 17.799 17.799 22.5 12 22.5ZM0 12C0 18.6274 5.37258 24 12 24C18.6274 24 24 18.6274 24 12C24 5.37259 18.6274 7.62939e-06 12 7.62939e-06C5.37258 7.62939e-06 0 5.37259 0 12ZM7.31234 7.31052C7.13164 7.49122 6.96354 7.67976 6.80805 7.87504L8.33712 10.6685L11.3895 5.39631C9.90168 5.5334 8.45138 6.17147 7.31234 7.31052ZM5.90518 14.6142H9.01488L7.79826 12.3915C7.7602 12.341 7.73003 12.2856 7.70828 12.2271L6.0173 9.13789C5.19337 10.8608 5.156 12.8657 5.90518 14.6142ZM7.31234 16.689C8.38472 17.7613 9.73299 18.3897 11.1287 18.574L12.6685 15.9142H6.64737C6.84589 16.185 7.06754 16.4442 7.31234 16.689ZM16.6908 16.689C16.9179 16.4619 17.1251 16.2224 17.3123 15.9727L15.7245 13.2302L12.6139 18.6032C14.1016 18.466 15.5518 17.8279 16.6908 16.689ZM18.0532 9.28331H14.9416L18.0679 14.6832C18.8264 12.9674 18.8215 10.9958 18.0532 9.28331ZM11.3939 7.98331H17.2795C17.1009 7.74928 16.9047 7.52441 16.6908 7.31052C15.6185 6.23819 14.2703 5.60987 12.8747 5.42556L11.3939 7.98331Z" fill="black"/>
</svg>
