<svg width="24" height="24" viewBox="0 0 24 24" fill="none" xmlns="http://www.w3.org/2000/svg">
<path d="M12 22.5C6.20101 22.5 1.5 17.799 1.5 12C1.5 6.20101 6.20101 1.5 12 1.5C17.799 1.5 22.5 6.20101 22.5 12C22.5 17.799 17.799 22.5 12 22.5ZM0 12C0 18.6274 5.37258 24 12 24C18.6274 24 24 18.6274 24 12C24 5.37258 18.6274 0 12 0C5.37258 0 0 5.37258 0 12ZM6.6622 5.71051C5.86493 6.26918 5.28779 7.13674 5.08712 8.09067C4.88488 9.02437 5.03811 10.0273 5.5118 10.8575C5.31579 12.0107 5.41924 13.2167 5.83227 14.3122C6.40241 15.8458 7.56758 17.1452 9.02911 17.8797C10.2861 18.5217 11.7515 18.7286 13.1414 18.4898C14.3898 19.2126 16.0357 19.1675 17.2335 18.3614C18.0985 17.7957 18.7246 16.876 18.923 15.8606C19.1112 14.9401 18.9502 13.9582 18.4866 13.1428C18.6748 12.0488 18.5908 10.9081 18.2284 9.85847C17.701 8.30698 16.5693 6.97645 15.1272 6.20148C13.8353 5.49732 12.3045 5.25845 10.857 5.50977C9.57358 4.76514 7.86782 4.83984 6.6622 5.71051ZM10.7158 9.98844C10.5258 10.1244 10.4672 10.2717 10.4672 10.4244C10.4672 10.7182 10.6794 10.9687 10.9687 11.0172L13.2952 11.4053C14.3406 11.5789 15.1103 12.4725 15.1336 13.5264C15.1339 13.5363 15.1341 13.5462 15.1341 13.5561V13.5756C15.1341 13.5858 15.1339 13.5959 15.1335 13.606C15.1182 14.2819 14.7897 14.8834 14.216 15.2936C13.6495 15.6987 12.8852 15.8929 12.0006 15.8929C11.3268 15.8929 10.6859 15.7381 10.159 15.4564C9.64032 15.179 9.174 14.744 8.97193 14.155C8.82855 13.7371 9.05112 13.2821 9.46904 13.1387C9.88695 12.9953 10.342 13.2179 10.4853 13.6358C10.5182 13.7315 10.6325 13.8952 10.9134 14.0454C11.1861 14.1912 11.5638 14.2929 12.0006 14.2929C12.6718 14.2929 13.0742 14.1431 13.2854 13.9921C13.4715 13.859 13.5316 13.7151 13.534 13.5658C13.5294 13.276 13.3186 13.031 13.0333 12.9837L10.7056 12.5954C9.64474 12.4181 8.86719 11.4999 8.86719 10.4244C8.86719 9.72817 9.19753 9.10712 9.78526 8.6869C10.3518 8.28183 11.1161 8.08765 12.0006 8.08765C12.6748 8.08765 13.3158 8.24237 13.8427 8.52417C14.3614 8.80161 14.8274 9.23669 15.0294 9.82552C15.1727 10.2434 14.9502 10.6985 14.5323 10.8418C14.1143 10.9852 13.6593 10.7626 13.516 10.3447C13.4831 10.2488 13.3688 10.0852 13.0881 9.93505C12.8156 9.78931 12.438 9.68765 12.0006 9.68765C11.3295 9.68765 10.9271 9.83738 10.7158 9.98844Z" fill="black"/>
</svg>
