<svg width="24" height="24" viewBox="0 0 24 24" fill="none" xmlns="http://www.w3.org/2000/svg">
<path d="M12 22.5C6.20101 22.5 1.5 17.799 1.5 12C1.5 6.20101 6.20101 1.5 12 1.5C17.799 1.5 22.5 6.20101 22.5 12C22.5 17.799 17.799 22.5 12 22.5ZM0 12C0 18.6274 5.37258 24 12 24C18.6274 24 24 18.6274 24 12C24 5.37258 18.6274 0 12 0C5.37258 0 0 5.37258 0 12ZM17.9956 16.8021C17.9478 16.2421 17.4779 15.8026 16.9053 15.8026C16.301 15.8026 15.811 16.2923 15.811 16.8965L15.815 17.0005C15.8629 17.5604 16.3328 18 16.9053 18C17.5097 18 17.9996 17.5103 17.9996 16.9061L17.9956 16.8021ZM13.0941 7.09388C13.0941 6.48975 12.6042 6 11.9998 6C8.68633 6 6 8.68402 6 11.9952C6 15.3063 8.68633 17.9904 11.9998 17.9904C12.6042 17.9904 13.0941 17.5006 13.0941 16.8965C13.0941 16.2923 12.6042 15.8026 11.9998 15.8026C9.89483 15.8026 8.18861 14.0978 8.18861 11.9952C8.18861 9.89252 9.89483 8.18777 11.9998 8.18777C12.6042 8.18777 13.0941 7.69802 13.0941 7.09388ZM17.9973 11.8245C17.9184 9.00684 15.894 6.67553 13.2191 6.12414C13.4089 6.36132 13.5317 6.65393 13.5592 6.97363L13.565 7.1243L13.5606 7.24318C13.5284 7.67486 13.3224 8.05832 13.012 8.32349C14.6256 8.76642 15.811 10.2426 15.811 11.9952L15.8105 15.737C16.0977 15.4563 16.4914 15.2831 16.9258 15.2831C17.3398 15.2831 17.7169 15.4404 18 15.6981L17.9996 11.9952L17.9973 11.8245Z" fill="black"/>
</svg>
