<svg width="24" height="24" viewBox="0 0 24 24" fill="none" xmlns="http://www.w3.org/2000/svg">
<path d="M1.5 12C1.5 6.20101 6.20101 1.5 12 1.5C17.799 1.5 22.5 6.20101 22.5 12C22.5 17.799 17.799 22.5 12 22.5C6.20101 22.5 1.5 17.799 1.5 12ZM12 0C5.37258 0 0 5.37258 0 12C0 18.6274 5.37258 24 12 24C18.6274 24 24 18.6274 24 12C24 5.37258 18.6274 0 12 0ZM5.7122 8.62723C5.21112 9.58399 4.92788 10.6705 4.92788 11.8237C4.92788 11.9367 4.95671 12.0429 5.00742 12.1355C5.05058 13.0611 5.28876 14.113 5.89366 15.2089C5.89366 15.2089 6.11453 15.6488 6.59241 16.2175C7.46462 17.2555 9.193 18.722 11.9972 18.722C16.2422 18.722 18.8404 15.3598 18.9929 12.1242C19.0398 12.0343 19.0664 11.9321 19.0664 11.8237C19.0664 7.96314 15.8921 4.85 11.9971 4.85C9.93759 4.85 8.07954 5.72044 6.78575 7.11154C6.52115 6.6991 6.45272 6.23389 6.45272 6.23389C6.45272 6.23389 5.5002 6.93377 5.7122 8.62723ZM8.27005 7.49263C9.27413 6.65569 10.574 6.15 11.9971 6.15C14.042 6.15 15.8323 7.19402 16.8564 8.7646C17.0405 13.2343 13.5372 16.6736 9.98447 14.1172C9.79482 13.9803 10.1716 13.982 10.6714 13.9843C11.1912 13.9867 11.844 13.9896 12.1308 13.8378C12.2441 13.7778 12.3675 13.699 12.4901 13.6208C12.7513 13.4541 13.009 13.2897 13.1579 13.3135C13.5127 13.3653 13.5962 13.0841 13.4176 12.8824C13.2128 12.6507 12.67 12.2115 12.0404 12.5058C10.3107 13.313 9.15697 12.1201 9.35713 11.4204C9.39448 11.2888 9.53746 11.1152 9.59756 11.1037C9.68507 11.0199 9.89812 10.8628 10.1594 10.6703C10.771 10.2194 11.6468 9.57382 11.7953 9.21694C11.8455 9.09621 11.9021 8.81279 11.7381 8.75358C11.4656 8.68977 10.8184 8.68747 10.5791 8.6892C10.1234 8.69322 9.81757 8.41325 9.83799 8.13444C9.86367 7.78664 10.1099 7.35318 10.809 6.7852C9.60865 6.61273 8.91537 7.55726 8.91537 7.55726C8.72068 7.50966 8.49308 7.49286 8.27005 7.49263Z" fill="black"/>
</svg>
