<svg width="24" height="24" viewBox="0 0 24 24" fill="none" xmlns="http://www.w3.org/2000/svg">
<path d="M12 1.5C17.799 1.5 22.5 6.20101 22.5 12C22.5 17.799 17.799 22.5 12 22.5C6.20101 22.5 1.5 17.799 1.5 12C1.5 6.20101 6.20101 1.5 12 1.5ZM24 12C24 5.37258 18.6274 0 12 0C5.37258 0 0 5.37258 0 12C0 18.6274 5.37258 24 12 24C18.6274 24 24 18.6274 24 12ZM19 12C19 8.13401 15.866 5 12 5C8.13401 5 5 8.13401 5 12C5 14.6737 6.49902 16.9973 8.70219 18.1758C9.40973 17.5316 10.3066 17.0918 11.2996 16.9497L11.2993 16.8496L11.2993 16.8503L11.2993 15.9287L11.2993 15.9284V14.2582L11.2992 13.7558L11.2993 13.7556L11.3 11.9905H10.7864V11.3H12.7L12.6993 13.7556L12.7001 13.7561L12.6993 14.2582V15.9284L12.7 15.9288L12.7 16.8504L12.6993 16.8503L12.6997 16.9496C13.6929 17.0916 14.59 17.5315 15.2975 18.1762C17.501 16.9973 19 14.6737 19 12ZM7.1 12C7.1 9.2938 9.2938 7.1 12 7.1C14.7062 7.1 16.9 9.2938 16.9 12C16.9 14.2197 15.4241 16.0947 13.4 16.6971L13.4001 15.7374L13.5499 15.6778C14.9837 15.0728 15.99 13.6539 15.99 12C15.99 9.79638 14.2036 8.01 12 8.01C9.79638 8.01 8.01 9.79638 8.01 12C8.01 13.7107 9.08658 15.1699 10.5992 15.7372L10.5993 16.6969L10.4272 16.6421C8.49249 15.9868 7.1 14.156 7.1 12ZM9.2 12C9.2 10.4536 10.4536 9.2 12 9.2C13.5464 9.2 14.8 10.4536 14.8 12C14.8 13.0364 14.237 13.9412 13.4001 14.4254L13.4001 13.2695L13.4878 13.1657C13.7398 12.8445 13.89 12.4398 13.89 12C13.89 10.9562 13.0438 10.11 12 10.11C10.9562 10.11 10.11 10.9562 10.11 12C10.11 12.4883 10.2952 12.9334 10.5992 13.2688L10.5992 14.425L10.4695 14.345C9.70505 13.8451 9.2 12.9815 9.2 12Z" fill="black"/>
</svg>
