<svg width="24" height="24" viewBox="0 0 24 24" fill="none" xmlns="http://www.w3.org/2000/svg">
<path d="M12 1.5C17.799 1.5 22.5 6.20101 22.5 12C22.5 17.799 17.799 22.5 12 22.5C6.20101 22.5 1.5 17.799 1.5 12C1.5 6.20101 6.20101 1.5 12 1.5ZM0 12C0 18.6274 5.37258 24 12 24C18.6274 24 24 18.6274 24 12C24 5.37258 18.6274 0 12 0C5.37258 0 0 5.37258 0 12ZM8.20833 9C6.43642 9 5 10.4364 5 12.2083C5 13.9802 6.43642 15.4167 8.20833 15.4167C9.98025 15.4167 11.4167 13.9802 11.4167 12.2083C11.4167 10.4364 9.98025 9 8.20833 9ZM16.0833 12.2084C16.0833 10.5976 15.1692 9.29172 14.0417 9.29172C12.9141 9.29172 12 10.5976 12 12.2084C12 13.8192 12.9141 15.1251 14.0417 15.1251C15.1692 15.1251 16.0833 13.8192 16.0833 12.2084ZM17.8334 9.58328C17.189 9.58328 16.6667 10.7585 16.6667 12.2083C16.6667 13.658 17.189 14.8333 17.8334 14.8333C18.4777 14.8333 19 13.658 19 12.2083C19 10.7585 18.4777 9.58328 17.8334 9.58328Z" fill="black"/>
</svg>
