<svg width="24" height="24" viewBox="0 0 24 24" fill="none" xmlns="http://www.w3.org/2000/svg">
<path d="M12 22.5C6.20101 22.5 1.5 17.799 1.5 12C1.5 6.20101 6.20101 1.5 12 1.5C17.799 1.5 22.5 6.20101 22.5 12C22.5 17.799 17.799 22.5 12 22.5ZM0 12C0 18.6274 5.37258 24 12 24C18.6274 24 24 18.6274 24 12C24 5.37258 18.6274 0 12 0C5.37258 0 0 5.37258 0 12ZM14.0095 5.99995C14.0095 5.55812 13.6513 5.19995 13.2095 5.19995C12.7676 5.19995 12.4095 5.55812 12.4095 5.99995V14.9032C12.4095 16.1696 11.3795 17.2 10.1043 17.2C8.82923 17.2 7.79922 16.1696 7.79922 14.9032C7.79922 13.6367 8.82923 12.6064 10.1043 12.6064C10.5462 12.6064 10.9043 12.2482 10.9043 11.8064C10.9043 11.3646 10.5462 11.0064 10.1043 11.0064C7.94963 11.0064 6.19922 12.749 6.19922 14.9032C6.19922 17.0573 7.94963 18.8 10.1043 18.8C12.259 18.8 14.0095 17.0573 14.0095 14.9032V9.48384C14.7908 10.3368 15.8965 11.058 17.2849 11.058C17.7268 11.058 18.0849 10.6998 18.0849 10.258C18.0849 9.81619 17.7268 9.45802 17.2849 9.45802C16.3669 9.45802 15.5563 8.90546 14.9344 8.0998C14.6292 7.70455 14.3919 7.27458 14.233 6.88207C14.0687 6.4765 14.0095 6.16452 14.0095 5.99995Z" fill="black"/>
</svg>
