<svg width="24" height="24" viewBox="0 0 24 24" fill="none" xmlns="http://www.w3.org/2000/svg">
<path d="M12 22.5C6.20101 22.5 1.5 17.799 1.5 12C1.5 6.20101 6.20101 1.5 12 1.5C17.799 1.5 22.5 6.20101 22.5 12C22.5 17.799 17.799 22.5 12 22.5ZM0 12C0 18.6274 5.37258 24 12 24C18.6274 24 24 18.6274 24 12C24 5.37258 18.6274 0 12 0C5.37258 0 0 5.37258 0 12ZM10.7077 12.6494L10.5935 12.6467L10.5134 12.6505C9.83091 12.7151 9.32308 13.2707 9.32308 13.9385V16.7077C9.32308 17.4217 9.90141 18 10.6154 18L10.7173 17.9957C11.3999 17.9311 11.9077 17.3754 11.9077 16.7077V13.9385C11.9077 13.2555 11.3786 12.6967 10.7077 12.6494ZM15.2264 16.6058C15.1618 15.9232 14.6062 15.4154 13.9385 15.4154H13.1077C12.8528 15.4154 12.6462 15.622 12.6462 15.8769V16.7077C12.6462 17.4217 13.2245 18 13.9385 18L14.0404 17.9957C14.7229 17.9311 15.2308 17.3754 15.2308 16.7077L15.2264 16.6058ZM8.58462 13.1077C8.58462 12.8528 8.37798 12.6462 8.12308 12.6462H7.29231C6.57833 12.6462 6 13.2245 6 13.9385L6.00432 14.0404C6.06894 14.7229 6.62458 15.2308 7.29231 15.2308L7.39424 15.2264C8.07678 15.1618 8.58462 14.6062 8.58462 13.9385V13.1077ZM17.9957 13.2827C17.9311 12.6001 17.3754 12.0923 16.7077 12.0923H13.9385C13.2245 12.0923 12.6462 12.6706 12.6462 13.3846L12.6505 13.4866C12.7151 14.1691 13.2707 14.6769 13.9385 14.6769H16.7077C17.4217 14.6769 18 14.0986 18 13.3846L17.9957 13.2827ZM11.3495 10.5134C11.2849 9.83091 10.7293 9.32308 10.0615 9.32308H7.29231C6.57833 9.32308 6 9.90141 6 10.6154L6.00432 10.7173C6.06894 11.3999 6.62458 11.9077 7.29231 11.9077H10.0615C10.7755 11.9077 11.3538 11.3294 11.3538 10.6154L11.3495 10.5134ZM14.6769 7.29231C14.6769 6.57833 14.0986 6 13.3846 6L13.2827 6.00432C12.6001 6.06894 12.0923 6.62458 12.0923 7.29231V10.0615C12.0923 10.7755 12.6706 11.3538 13.3846 11.3538L13.4866 11.3495C14.1691 11.2849 14.6769 10.7293 14.6769 10.0615V7.29231ZM16.8023 8.77265L16.6858 8.76975L16.6058 8.77355C15.9232 8.83817 15.4154 9.39381 15.4154 10.0615V10.8923C15.4154 11.1472 15.622 11.3538 15.8769 11.3538H16.7077C17.4217 11.3538 18 10.7755 18 10.0615L17.9957 9.9596C17.9341 9.30956 17.4272 8.81799 16.8023 8.77265ZM11.3538 7.29231C11.3538 6.57833 10.7755 6 10.0615 6L9.9596 6.00432C9.27706 6.06894 8.76923 6.62458 8.76923 7.29231L8.77355 7.39424C8.83817 8.07678 9.39381 8.58462 10.0615 8.58462H10.8923C11.1472 8.58462 11.3538 8.37798 11.3538 8.12308V7.29231Z" fill="black"/>
</svg>
