<svg width="24" height="24" viewBox="0 0 24 24" fill="none" xmlns="http://www.w3.org/2000/svg">
<path d="M12 22.5C6.20101 22.5 1.5 17.799 1.5 12C1.5 6.20101 6.20101 1.5 12 1.5C17.799 1.5 22.5 6.20101 22.5 12C22.5 17.799 17.799 22.5 12 22.5ZM0 12C0 18.6274 5.37258 24 12 24C18.6274 24 24 18.6274 24 12C24 5.37258 18.6274 0 12 0C5.37258 0 0 5.37258 0 12ZM11.5314 5.18116L6.47057 9.6466C6.42168 9.68973 6.38012 9.73781 6.34586 9.78936C6.13838 9.91671 6 10.1457 6 10.407V13.5933C6 13.8547 6.13851 14.0837 6.34614 14.2111C6.38035 14.2625 6.42182 14.3104 6.47057 14.3534L11.5314 18.8188C11.8051 19.0604 12.2159 19.0604 12.4896 18.8188L17.5505 14.3534C17.5992 14.3104 17.6407 14.2625 17.6749 14.2111C17.8825 14.0838 18.021 13.8547 18.021 13.5933V10.407C18.021 10.1457 17.8827 9.9167 17.6752 9.78935C17.6409 9.7378 17.5993 9.68972 17.5505 9.6466L12.4896 5.18116C12.2159 4.93961 11.8051 4.93961 11.5314 5.18116ZM16.1141 12L16.5727 11.5953V12.4047L16.1141 12ZM7.90695 12L7.44832 12.4047V11.5953L7.90695 12ZM9.00147 12.9658L11.2864 14.9818V16.6711L8.04421 13.8104L9.00147 12.9658ZM15.9768 13.8104L12.7347 16.6711V14.9818L15.0196 12.9658L15.9768 13.8104ZM13.925 12L12.0105 13.6893L10.096 12L12.0105 10.3107L13.925 12ZM15.0196 11.0342L12.7347 9.01816V7.32887L15.9768 10.1896L15.0196 11.0342ZM9.00147 11.0342L8.04421 10.1896L11.2864 7.32888V9.01817L9.00147 11.0342Z" fill="black"/>
</svg>
