<svg width="24" height="24" viewBox="0 0 24 24" fill="none" xmlns="http://www.w3.org/2000/svg">
<path d="M12 22.5C6.20101 22.5 1.5 17.799 1.5 12C1.5 6.20101 6.20101 1.5 12 1.5C17.799 1.5 22.5 6.20101 22.5 12C22.5 17.799 17.799 22.5 12 22.5ZM0 12C0 18.6274 5.37258 24 12 24C18.6274 24 24 18.6274 24 12C24 5.37258 18.6274 0 12 0C5.37258 0 0 5.37258 0 12ZM11.5521 13.6583C12.0886 13.616 12.5901 13.4111 12.9076 13.0041L15.3305 14.4468C15.4785 14.5362 15.6659 14.5263 15.7922 14.4035C15.9309 14.2806 15.9586 14.094 15.8736 13.9309L14.7452 11.7337C15.3136 11.1932 15.8085 10.577 16.1676 9.85898C16.7321 8.7202 16.9369 7.45176 16.7802 6.17805C16.7347 5.87837 16.6765 5.57832 16.5933 5.29067C16.5462 5.09064 16.3361 4.9627 16.1237 5.00975C15.8359 5.08066 15.548 5.17611 15.2596 5.28429C14.069 5.74104 13.0487 6.51198 12.3234 7.56138C11.8653 8.22817 11.5436 8.94653 11.3459 9.70411L8.86478 9.75637C8.69018 9.75392 8.53894 9.87639 8.49921 10.0505C8.44693 10.2242 8.5194 10.3873 8.67985 10.4892L11.1027 11.9319C10.8844 12.4025 10.9514 12.9391 11.169 13.4286C11.2416 13.5792 11.3899 13.6686 11.5521 13.6583ZM14.299 9.57121C13.7436 9.5508 13.3098 9.08399 13.3303 8.52857C13.3507 7.97314 13.8175 7.53943 14.3729 7.55985C14.9283 7.58026 15.362 8.04707 15.3416 8.60249C15.3212 9.15792 14.8544 9.59163 14.299 9.57121ZM9.04969 17.4651C8.9843 17.7273 9.30369 17.9108 9.4973 17.7223L12.9109 15.1154C13.0289 15.0005 12.9659 14.8003 12.804 14.7705C11.9027 14.6047 10.4119 13.7816 9.93755 13.1109C9.83307 12.9632 9.59457 12.9974 9.55079 13.173L9.04969 17.4651ZM11.4829 7.10654C11.8962 7.0791 12.209 6.72181 12.1815 6.30851C12.1541 5.89521 11.7968 5.5824 11.3835 5.60983C9.13648 5.75898 6.99939 6.99106 5.78727 9.09052C4.19335 11.8513 4.69708 15.2455 6.80124 17.4317C6.99374 17.6317 7.28097 17.7091 7.54787 17.6327C7.81476 17.5564 8.01766 17.3389 8.07529 17.0673L9.00581 12.6823C9.0918 12.2771 8.83303 11.8789 8.42784 11.7929C8.02265 11.7069 7.62447 11.9657 7.53849 12.3709L6.9594 15.0998C6.13498 13.4953 6.1178 11.518 7.08631 9.84052C8.03768 8.19269 9.71397 7.22395 11.4829 7.10654ZM17.4072 9.32535C17.0355 9.50824 16.8825 9.95779 17.0654 10.3294C17.8482 11.92 17.8474 13.8561 16.896 15.504C15.9275 17.1815 14.2065 18.1552 12.4048 18.2435L14.4785 16.3775C14.7864 16.1005 14.8114 15.6263 14.5344 15.3184C14.2573 15.0104 13.7831 14.9854 13.4752 15.2625L10.1429 18.2609C9.93654 18.4466 9.84962 18.731 9.91695 19.0003C9.98429 19.2696 10.1949 19.4797 10.4643 19.5464C13.4098 20.2756 16.6011 19.0147 18.195 16.254C19.4071 14.1545 19.4056 11.6877 18.4113 9.66712C18.2284 9.29547 17.7788 9.14245 17.4072 9.32535Z" fill="black"/>
</svg>
