<svg width="24" height="24" viewBox="0 0 24 24" fill="none" xmlns="http://www.w3.org/2000/svg">
<path d="M12 1.5C17.799 1.5 22.5 6.20101 22.5 12C22.5 17.799 17.799 22.5 12 22.5C6.20101 22.5 1.5 17.799 1.5 12C1.5 6.20101 6.20101 1.5 12 1.5ZM24 12C24 5.37258 18.6274 0 12 0C5.37258 0 0 5.37258 0 12C0 18.6274 5.37258 24 12 24C18.6274 24 24 18.6274 24 12Z" fill="black"/>
<path d="M8 5C6.34315 5 5 6.34315 5 8V8.19958H19V8C19 6.34315 17.6569 5 16 5H8ZM8.14961 6.92539C8.14961 7.21534 7.91456 7.45039 7.62461 7.45039C7.33466 7.45039 7.09961 7.21534 7.09961 6.92539C7.09961 6.63544 7.33466 6.40039 7.62461 6.40039C7.91456 6.40039 8.14961 6.63544 8.14961 6.92539ZM9.025 7.45039C8.73505 7.45039 8.5 7.21534 8.5 6.92539C8.5 6.63544 8.73505 6.40039 9.025 6.40039C9.31495 6.40039 9.55 6.63544 9.55 6.92539C9.55 7.21534 9.31495 7.45039 9.025 7.45039Z" fill="black"/>
<path d="M19 9.49959H5V16C5 17.6569 6.34315 19 8 19H16C17.6569 19 19 17.6569 19 16V9.49959Z" fill="black"/>
</svg>
