<svg width="24" height="24" viewBox="0 0 24 24" fill="none" xmlns="http://www.w3.org/2000/svg">
<path d="M12 1.5C17.799 1.5 22.5 6.20101 22.5 12C22.5 17.799 17.799 22.5 12 22.5C6.20101 22.5 1.5 17.799 1.5 12C1.5 6.20101 6.20101 1.5 12 1.5ZM24 12C24 5.37258 18.6274 0 12 0C5.37258 0 0 5.37258 0 12C0 18.6274 5.37258 24 12 24C18.6274 24 24 18.6274 24 12Z" fill="black"/>
<path d="M5 8V8.19962H19V8C19 6.34315 17.6569 5 16 5H8C6.34315 5 5 6.34315 5 8ZM8.14961 6.8248C8.14961 7.11475 7.91456 7.3498 7.62461 7.3498C7.33466 7.3498 7.09961 7.11475 7.09961 6.8248C7.09961 6.53486 7.33466 6.2998 7.62461 6.2998C7.91456 6.2998 8.14961 6.53486 8.14961 6.8248ZM9.025 7.3498C8.73505 7.3498 8.5 7.11475 8.5 6.8248C8.5 6.53486 8.73505 6.2998 9.025 6.2998C9.31495 6.2998 9.55 6.53486 9.55 6.8248C9.55 7.11475 9.31495 7.3498 9.025 7.3498Z" fill="black"/>
<path d="M5 9.49962V16C5 17.6569 6.34315 19 8 19H16C17.6569 19 19 17.6569 19 16V9.49962H5ZM12.5774 11.3655C12.9279 11.4435 13.1487 11.7907 13.0707 12.1412L12.1985 16.0612C12.1206 16.4116 11.7733 16.6324 11.4229 16.5545C11.0725 16.4765 10.8516 16.1292 10.9296 15.7788L11.8018 11.8588C11.8797 11.5084 12.227 11.2875 12.5774 11.3655ZM14.9299 12.5199L15.9099 13.4999C16.1638 13.7537 16.1638 14.1653 15.9099 14.4191L14.9299 15.3991C14.6761 15.6529 14.2645 15.6529 14.0107 15.3991C13.7569 15.1453 13.7569 14.7337 14.0107 14.4799L14.5311 13.9595L14.0107 13.4391C13.7569 13.1853 13.7569 12.7737 14.0107 12.5199C14.2645 12.266 14.6761 12.266 14.9299 12.5199ZM9.99001 12.5199C10.2439 12.7737 10.2439 13.1853 9.99001 13.4391L9.46963 13.9595L9.99001 14.4799C10.2439 14.7337 10.2439 15.1453 9.99001 15.3991C9.73617 15.6529 9.32461 15.6529 9.07077 15.3991L8.09077 14.4191C7.83693 14.1653 7.83693 13.7537 8.09077 13.4999L9.07077 12.5199C9.32461 12.266 9.73617 12.266 9.99001 12.5199Z" fill="black"/>
</svg>
