<svg width="24" height="24" viewBox="0 0 24 24" fill="none" xmlns="http://www.w3.org/2000/svg">
<path d="M12 22.5C6.20101 22.5 1.5 17.799 1.5 12C1.5 6.20101 6.20101 1.5 12 1.5C17.799 1.5 22.5 6.20101 22.5 12C22.5 17.799 17.799 22.5 12 22.5ZM0 12C0 18.6274 5.37258 24 12 24C18.6274 24 24 18.6274 24 12C24 5.37258 18.6274 0 12 0C5.37258 0 0 5.37258 0 12ZM8.38795 5.63949C8.18883 5.3408 7.78526 5.26008 7.48657 5.45921C7.18787 5.65834 7.10716 6.06191 7.30629 6.3606L8.55328 8.23108C8.34558 8.53123 8.17799 8.86124 8.05824 9.21337H6.57002C6.21103 9.21337 5.92002 9.50439 5.92002 9.86337C5.92002 10.2224 6.21103 10.5134 6.57002 10.5134H7.84668V11.5776H6.57002C6.21103 11.5776 5.92002 11.8686 5.92002 12.2276C5.92002 12.5866 6.21103 12.8776 6.57002 12.8776H7.84668V14.0015H6.56992C6.21094 14.0015 5.91992 14.2925 5.91992 14.6515C5.91992 15.0104 6.21094 15.3015 6.56992 15.3015H8.06038C8.59713 16.8711 10.0851 17.9998 11.8366 17.9998C13.5881 17.9998 15.0761 16.8711 15.6128 15.3015H17.4223C17.7813 15.3015 18.0723 15.0104 18.0723 14.6515C18.0723 14.2925 17.7813 14.0015 17.4223 14.0015H15.8265V12.8776H17.4223C17.7813 12.8776 18.0723 12.5866 18.0723 12.2276C18.0723 11.8686 17.7813 11.5776 17.4223 11.5776H15.8265V10.5134H17.4226C17.7816 10.5134 18.0726 10.2224 18.0726 9.86337C18.0726 9.50439 17.7816 9.21337 17.4226 9.21337H15.615C15.4463 8.7175 15.1828 8.26548 14.8461 7.87895L16.1503 6.63306C16.4098 6.38509 16.4193 5.97364 16.1713 5.71407C15.9233 5.45449 15.5119 5.44508 15.2523 5.69305L13.8366 7.04546C13.2486 6.70419 12.5654 6.50878 11.8366 6.50878C10.9553 6.50878 10.1408 6.7945 9.48054 7.27837L8.38795 5.63949ZM10.879 10.1685H12.7942C13.1532 10.1685 13.4442 10.4595 13.4442 10.8185C13.4442 11.1774 13.1532 11.4685 12.7942 11.4685H10.879C10.52 11.4685 10.229 11.1774 10.229 10.8185C10.229 10.4595 10.52 10.1685 10.879 10.1685ZM10.229 13.6905C10.229 13.3315 10.52 13.0405 10.879 13.0405H12.7942C13.1532 13.0405 13.4442 13.3315 13.4442 13.6905C13.4442 14.0495 13.1532 14.3405 12.7942 14.3405H10.879C10.52 14.3405 10.229 14.0495 10.229 13.6905Z" fill="black"/>
</svg>
