<svg width="24" height="24" viewBox="0 0 24 24" fill="none" xmlns="http://www.w3.org/2000/svg">
<path d="M12 1.5C17.799 1.5 22.5 6.20101 22.5 12C22.5 17.799 17.799 22.5 12 22.5C6.20101 22.5 1.5 17.799 1.5 12C1.5 6.20101 6.20101 1.5 12 1.5ZM24 12C24 5.37258 18.6274 0 12 0C5.37258 0 0 5.37258 0 12C0 18.6274 5.37258 24 12 24C18.6274 24 24 18.6274 24 12ZM14.5498 13.8695L16.834 15.3923C17.3327 15.7243 18 15.3677 18 14.7683V7.07166C18 6.47232 17.3327 6.11499 16.834 6.44699L14.5498 7.96972V13.8695ZM13.0498 8.66956H8.25C7.00733 8.66956 6 9.67689 6 10.9196C6 12.1622 7.00733 13.1696 8.25 13.1696H9L9.544 16.4329C9.66267 17.1469 10.28 17.6696 11.0033 17.6696C11.9173 17.6696 12.6127 16.8489 12.4627 15.9469L12 13.1696H13.0498V8.66956Z" fill="black"/>
</svg>
