<svg width="24" height="24" viewBox="0 0 24 24" fill="none" xmlns="http://www.w3.org/2000/svg">
<path d="M12 22.5C6.20101 22.5 1.5 17.799 1.5 12C1.5 6.20101 6.20101 1.5 12 1.5C17.799 1.5 22.5 6.20101 22.5 12C22.5 17.799 17.799 22.5 12 22.5ZM0 12C0 18.6274 5.37258 24 12 24C18.6274 24 24 18.6274 24 12C24 5.37258 18.6274 0 12 0C5.37258 0 0 5.37258 0 12ZM9.1582 5.25C8.74399 5.25 8.4082 5.58579 8.4082 6V6.63184H7.91381C6.85684 6.63184 6 7.53001 6 8.63796V9.53748H17.368V8.63796C17.368 7.53001 16.5112 6.63184 15.4542 6.63184H14.9609V6C14.9609 5.58579 14.6252 5.25 14.2109 5.25C13.7967 5.25 13.4609 5.58579 13.4609 6V6.63184H9.9082V6C9.9082 5.58579 9.57242 5.25 9.1582 5.25ZM6 10.8375V15.9938C6 17.1017 6.85684 17.9999 7.91381 17.9999H15.4542C16.5112 17.9999 17.368 17.1017 17.368 15.9938V10.8375H6Z" fill="black"/>
</svg>
