<svg width="24" height="24" viewBox="0 0 24 24" fill="none" xmlns="http://www.w3.org/2000/svg">
<path d="M1.5 12C1.5 6.20101 6.20101 1.5 12 1.5C17.799 1.5 22.5 6.20101 22.5 12C22.5 17.799 17.799 22.5 12 22.5C6.20101 22.5 1.5 17.799 1.5 12ZM12 0C5.37258 0 0 5.37258 0 12C0 18.6274 5.37258 24 12 24C18.6274 24 24 18.6274 24 12C24 5.37258 18.6274 0 12 0Z" fill="black"/>
<path d="M12.8114 13.4928C13.2707 13.0289 13.2707 12.2705 12.8114 11.8065C12.3603 11.3509 11.6354 11.3509 11.1843 11.8065C10.725 12.2705 10.725 13.0289 11.1843 13.4928C11.6354 13.9484 12.3603 13.9484 12.8114 13.4928Z" fill="black"/>
<path d="M18 15.124V10.8698C18 9.62717 16.9926 8.61981 15.75 8.61981H15.3333L14.739 7.42955C14.4851 6.92096 13.9655 6.59961 13.397 6.59961H10.5831C10.0073 6.59961 9.48231 6.92921 9.23211 7.44781L8.66667 8.61981H8.25C7.00736 8.61981 6 9.62717 6 10.8698V15.124C6 16.3667 7.00736 17.374 8.25 17.374H15.75C16.9926 17.374 18 16.3667 18 15.124ZM13.8773 14.5482C12.8393 15.5967 11.1564 15.5967 10.1184 14.5482C9.08034 13.4997 9.08034 11.7997 10.1184 10.7512C11.1564 9.70272 12.8393 9.70272 13.8773 10.7512C14.9153 11.7997 14.9153 13.4997 13.8773 14.5482Z" fill="black"/>
</svg>
