<svg width="24" height="24" viewBox="0 0 24 24" fill="none" xmlns="http://www.w3.org/2000/svg">
<path d="M22.5 12C22.5 17.799 17.799 22.5 12 22.5C6.20101 22.5 1.5 17.799 1.5 12C1.5 6.20101 6.20101 1.5 12 1.5C17.799 1.5 22.5 6.20101 22.5 12ZM12 24C18.6274 24 24 18.6274 24 12C24 5.37258 18.6274 0 12 0C5.37258 0 -4.76837e-07 5.37258 -4.76837e-07 12C-4.76837e-07 18.6274 5.37258 24 12 24ZM6.6 12C6.6 10.8032 6.98933 9.69736 7.64824 8.80219L15.0015 16.4897C14.1431 17.0647 13.1107 17.4 12 17.4C9.01766 17.4 6.6 14.9823 6.6 12ZM16.1853 15.4125L8.77665 7.66715C9.67629 6.99678 10.7918 6.6 12 6.6C14.9823 6.6 17.4 9.01766 17.4 12C17.4 13.2944 16.9446 14.4824 16.1853 15.4125ZM12 5C8.13401 5 5 8.13401 5 12C5 15.866 8.13401 19 12 19C15.866 19 19 15.866 19 12C19 8.13401 15.866 5 12 5Z" fill="black"/>
</svg>
