<svg width="24" height="24" viewBox="0 0 24 24" fill="none" xmlns="http://www.w3.org/2000/svg">
<path d="M12 22.5C6.20101 22.5 1.5 17.799 1.5 12C1.5 6.20101 6.20101 1.5 12 1.5C17.799 1.5 22.5 6.20101 22.5 12C22.5 17.799 17.799 22.5 12 22.5ZM0 12C0 18.6274 5.37258 24 12 24C18.6274 24 24 18.6274 24 12C24 5.37258 18.6274 0 12 0C5.37258 0 0 5.37258 0 12ZM19 13.95V11.6318C19 11.0795 18.5523 10.6318 18 10.6318H15.8182L14.7969 8.07862C14.645 7.69896 14.2773 7.45001 13.8684 7.45001H9.49521C9.08631 7.45001 8.7186 7.69896 8.56674 8.07862L7.54545 10.6318H6C5.44771 10.6318 5 11.0795 5 11.6318V13.95C5 14.1575 5.1264 14.3355 5.3064 14.4111C5.62469 13.335 6.62052 12.55 7.79995 12.55C8.99353 12.55 9.99909 13.354 10.3047 14.45H13.6953C14.0008 13.354 15.0064 12.55 16.2 12.55C17.3794 12.55 18.3753 13.335 18.6935 14.4112C18.8736 14.3355 19 14.1575 19 13.95ZM14.9873 14.45C14.8682 14.6559 14.8 14.895 14.8 15.15C14.8 15.9234 15.4267 16.55 16.2 16.55C16.9734 16.55 17.6 15.9234 17.6 15.15C17.6 14.4566 17.0963 13.8811 16.4347 13.7696C16.3584 13.7567 16.28 13.75 16.2 13.75C15.6816 13.75 15.2292 14.0315 14.9872 14.45H14.9873ZM8.03465 13.7696C7.95834 13.7567 7.87993 13.75 7.79995 13.75C7.28161 13.75 6.82917 14.0315 6.58716 14.45H6.58724C6.46816 14.6559 6.40002 14.895 6.40002 15.15C6.40002 15.9234 7.02666 16.55 7.80002 16.55C8.57338 16.55 9.20002 15.9234 9.20002 15.15C9.20002 14.4566 8.69626 13.8811 8.03465 13.7696ZM11.3634 8.75925C11.6948 8.75925 11.9634 9.02788 11.9634 9.35925V10.032H13.2725C13.6039 10.032 13.8725 10.3006 13.8725 10.632C13.8725 10.9634 13.6039 11.232 13.2725 11.232H11.3634C11.032 11.232 10.7634 10.9634 10.7634 10.632V9.35925C10.7634 9.02788 11.032 8.75925 11.3634 8.75925Z" fill="black"/>
</svg>
