<svg width="24" height="24" viewBox="0 0 24 24" fill="none" xmlns="http://www.w3.org/2000/svg">
<path d="M12 22.5C6.20101 22.5 1.5 17.799 1.5 12C1.5 6.20101 6.20101 1.5 12 1.5C17.799 1.5 22.5 6.20101 22.5 12C22.5 17.799 17.799 22.5 12 22.5ZM24 12C24 5.37258 18.6274 0 12 0C5.37258 0 0 5.37258 0 12C0 18.6274 5.37258 24 12 24C18.6274 24 24 18.6274 24 12ZM16.1315 8.5H7.8685C7.06981 8.5 6.59342 9.39015 7.03645 10.0547L11.1679 16.2519C11.5638 16.8457 12.4362 16.8457 12.832 16.2519L16.9635 10.0547C17.4066 9.39015 16.9302 8.5 16.1315 8.5Z" fill="black"/>
</svg>
