<svg width="24" height="24" viewBox="0 0 24 24" fill="none" xmlns="http://www.w3.org/2000/svg">
<path d="M12 22.5C6.20101 22.5 1.5 17.799 1.5 12C1.5 6.20101 6.20101 1.5 12 1.5C17.799 1.5 22.5 6.20101 22.5 12C22.5 17.799 17.799 22.5 12 22.5ZM0 12C0 18.6274 5.37258 24 12 24C18.6274 24 24 18.6274 24 12C24 5.37258 18.6274 0 12 0C5.37258 0 0 5.37258 0 12Z" fill="black"/>
<path d="M10.0547 16.9635L16.2519 12.8321C16.8457 12.4362 16.8457 11.5638 16.2519 11.1679L10.0547 7.03647C9.39015 6.59343 8.5 7.06982 8.5 7.86852V16.1315C8.5 16.9302 9.39015 17.4066 10.0547 16.9635Z" fill="black"/>
</svg>
