<svg width="24" height="24" viewBox="0 0 24 24" fill="none" xmlns="http://www.w3.org/2000/svg">
<path d="M22.5 12C22.5 17.799 17.799 22.5 12 22.5C6.20101 22.5 1.5 17.799 1.5 12C1.5 6.20101 6.20101 1.5 12 1.5C17.799 1.5 22.5 6.20101 22.5 12ZM12 24C18.6274 24 24 18.6274 24 12C24 5.37258 18.6274 0 12 0C5.37258 0 0 5.37258 0 12C0 18.6274 5.37258 24 12 24Z" fill="black"/>
<path d="M16.9635 13.9453L12.8321 7.74808C12.4362 7.15434 11.5638 7.15434 11.1679 7.74808L7.03647 13.9453C6.59343 14.6099 7.06982 15.5 7.86852 15.5H16.1315C16.9302 15.5 17.4066 14.6099 16.9635 13.9453Z" fill="black"/>
</svg>
