<svg width="24" height="24" viewBox="0 0 24 24" fill="none" xmlns="http://www.w3.org/2000/svg">
<path d="M1.5 12C1.5 6.20101 6.20101 1.5 12 1.5C17.799 1.5 22.5 6.20101 22.5 12C22.5 17.799 17.799 22.5 12 22.5C6.20101 22.5 1.5 17.799 1.5 12ZM12 24C18.6274 24 24 18.6274 24 12C24 5.37258 18.6274 0 12 0C5.37258 0 0 5.37258 0 12C0 18.6274 5.37258 24 12 24ZM15.5 16.1315V7.86852C15.5 7.06982 14.6099 6.59343 13.9453 7.03647L7.74808 11.1679C7.15434 11.5638 7.15434 12.4362 7.74808 12.8321L13.9453 16.9635C14.6099 17.4066 15.5 16.9302 15.5 16.1315Z" fill="black"/>
</svg>
