<svg width="24" height="24" viewBox="0 0 24 24" fill="none" xmlns="http://www.w3.org/2000/svg">
<path d="M12 1.5C17.799 1.5 22.5 6.20101 22.5 12C22.5 17.799 17.799 22.5 12 22.5C6.20101 22.5 1.5 17.799 1.5 12C1.5 6.20101 6.20101 1.5 12 1.5ZM24 12C24 5.37258 18.6274 0 12 0C5.37258 0 0 5.37258 0 12C0 18.6274 5.37258 24 12 24C18.6274 24 24 18.6274 24 12ZM7.99439 7C6.89292 7 6 7.89292 6 8.99439V14.9775C6 16.079 6.89292 16.9719 7.99439 16.9719H9.96606C9.0516 16.3797 8.44651 15.3505 8.44651 14.1799C8.44651 12.3441 9.93471 10.8559 11.7705 10.8559C13.6063 10.8559 15.0945 12.3441 15.0945 14.1799C15.0945 15.3505 14.4894 16.3797 13.5749 16.9719H15.9719C17.0734 16.9719 17.9663 16.079 17.9663 14.9775V8.99439C17.9663 7.89292 17.0734 7 15.9719 7H7.99439ZM12.6642 16.4268C13.5569 16.0714 14.1879 15.1993 14.1879 14.1799C14.1879 12.8448 13.1056 11.7625 11.7705 11.7625C10.4354 11.7625 9.35305 12.8448 9.35305 14.1799C9.35305 15.085 9.8505 15.874 10.5869 16.2883V18.4286C10.5869 18.7063 10.8629 18.8995 11.1238 18.8044L11.6256 18.6217L12.1273 18.8044C12.3882 18.8995 12.6642 18.7063 12.6642 18.4286V16.4268ZM10.1553 8.02765C10.1553 7.75228 10.3785 7.52905 10.6539 7.52905H13.3131C13.5884 7.52905 13.8116 7.75228 13.8116 8.02765C13.8116 8.30302 13.5884 8.52625 13.3131 8.52625H10.6539C10.3785 8.52625 10.1553 8.30302 10.1553 8.02765Z" fill="black"/>
</svg>
