<svg width="24" height="24" viewBox="0 0 24 24" fill="none" xmlns="http://www.w3.org/2000/svg">
<path d="M22.5 12C22.5 17.799 17.799 22.5 12 22.5C6.20101 22.5 1.5 17.799 1.5 12C1.5 6.20101 6.20101 1.5 12 1.5C17.799 1.5 22.5 6.20101 22.5 12ZM12 24C18.6274 24 24 18.6274 24 12C24 5.37258 18.6274 0 12 0C5.37258 0 0 5.37258 0 12C0 18.6274 5.37258 24 12 24Z" fill="black"/>
<path d="M6 6.34707C5.64102 6.34707 5.35 6.63809 5.35 6.99707V15.6637C5.35 17.1273 6.53645 18.3137 8 18.3137H18C18.359 18.3137 18.65 18.0227 18.65 17.6637C18.65 17.3048 18.359 17.0137 18 17.0137H8C7.25442 17.0137 6.65 16.4093 6.65 15.6637V6.99707C6.65 6.63809 6.35898 6.34707 6 6.34707Z" fill="black"/>
<path d="M10.5001 12.2695L9.32146 11.8695C8.67295 11.6494 8.00007 12.1316 8.00007 12.8164V14.6634C8.00007 15.2157 8.44779 15.6634 9.00008 15.6634H17.0001C17.5524 15.6634 18.0001 15.2157 18.0001 14.6634V8.99608C18.0001 8.07216 16.8544 7.64242 16.2468 8.33842L14.6667 10.1483L12.9535 9.56681C12.4975 9.41202 11.9958 9.60433 11.7601 10.0243L10.5001 12.2695Z" fill="black"/>
</svg>
