<svg width="24" height="24" viewBox="0 0 24 24" fill="none" xmlns="http://www.w3.org/2000/svg">
<path d="M22.5 12C22.5 17.799 17.799 22.5 12 22.5C6.20101 22.5 1.5 17.799 1.5 12C1.5 6.20101 6.20101 1.5 12 1.5C17.799 1.5 22.5 6.20101 22.5 12ZM12 24C18.6274 24 24 18.6274 24 12C24 5.37258 18.6274 0 12 0C5.37258 0 0 5.37258 0 12C0 18.6274 5.37258 24 12 24Z" fill="black"/>
<path d="M6 6.2C5.55817 6.2 5.2 6.55817 5.2 7V15.6667C5.2 17.2131 6.4536 18.4667 8 18.4667H18C18.4418 18.4667 18.8 18.1085 18.8 17.6667C18.8 17.2248 18.4418 16.8667 18 16.8667H8C7.33726 16.8667 6.8 16.3294 6.8 15.6667V7C6.8 6.55817 6.44183 6.2 6 6.2Z" fill="black"/>
<path d="M17.6317 9.76732C17.3193 9.4549 16.8127 9.4549 16.5003 9.76732L12.866 13.4016L11.6317 12.1673C11.3193 11.8549 10.8127 11.8549 10.5003 12.1673L8.10033 14.5673C7.78791 14.8797 7.78791 15.3863 8.10033 15.6987C8.41275 16.0111 8.91928 16.0111 9.2317 15.6987L11.066 13.8644L12.3003 15.0987C12.6127 15.4111 13.1193 15.4111 13.4317 15.0987L17.6317 10.8987C17.9441 10.5863 17.9441 10.0797 17.6317 9.76732Z" fill="black"/>
<path d="M13.866 10.3331C13.866 10.7749 14.2241 11.1331 14.666 11.1331H16.266V12.7331C16.266 13.1749 16.6241 13.5331 17.066 13.5331C17.5078 13.5331 17.866 13.1749 17.866 12.7331V10.3331C17.866 9.89126 17.5078 9.53308 17.066 9.53308H14.666C14.2241 9.53308 13.866 9.89126 13.866 10.3331Z" fill="black"/>
</svg>
