<svg width="24" height="24" viewBox="0 0 24 24" fill="none" xmlns="http://www.w3.org/2000/svg">
<path d="M1.5 12C1.5 6.20101 6.20101 1.5 12 1.5C17.799 1.5 22.5 6.20101 22.5 12C22.5 17.799 17.799 22.5 12 22.5C6.20101 22.5 1.5 17.799 1.5 12ZM12 0C5.37258 0 0 5.37258 0 12C0 18.6274 5.37258 24 12 24C18.6274 24 24 18.6274 24 12C24 5.37258 18.6274 0 12 0Z" fill="black"/>
<path d="M8 5.25C7.58579 5.25 7.25 5.58579 7.25 6V18C7.25 18.4142 7.58579 18.75 8 18.75C8.41421 18.75 8.75 18.4142 8.75 18V6C8.75 5.58579 8.41421 5.25 8 5.25Z" fill="black"/>
<path d="M8 13.8306V16.7493H14.7622C15.1724 16.7493 15.5049 16.4168 15.5049 16.0067V14.5732C15.5049 14.1631 15.1724 13.8306 14.7622 13.8306H8Z" fill="black"/>
<path d="M8 10.1694V13.0882H18.5147C18.9248 13.0882 19.2573 12.7557 19.2573 12.3455V10.9121C19.2573 10.5019 18.9248 10.1694 18.5147 10.1694H8Z" fill="black"/>
<path d="M8 6.50781V9.42659H16.6384C17.0486 9.42659 17.3811 9.09408 17.3811 8.68392V7.25048C17.3811 6.84032 17.0486 6.50781 16.6384 6.50781H8Z" fill="black"/>
</svg>
