<svg width="24" height="24" viewBox="0 0 24 24" fill="none" xmlns="http://www.w3.org/2000/svg">
<path d="M5.25 16C5.25 16.4142 5.58579 16.75 6 16.75H18C18.4142 16.75 18.75 16.4142 18.75 16C18.75 15.5858 18.4142 15.25 18 15.25H16.7493V9.23779C16.7493 8.82762 16.4168 8.49512 16.0067 8.49512H14.5732C14.1631 8.49512 13.8306 8.82762 13.8306 9.23779V15.25H13.0882V5.48534C13.0882 5.07518 12.7557 4.74267 12.3455 4.74267H10.9121C10.5019 4.74267 10.1694 5.07518 10.1694 5.48534V15.25H9.42659V7.36156C9.42659 6.9514 9.09408 6.61889 8.68392 6.61889H7.25048C6.84032 6.61889 6.50781 6.9514 6.50781 7.36156V15.25H6C5.58579 15.25 5.25 15.5858 5.25 16Z" fill="black"/>
<path d="M0 12C0 18.6274 5.37258 24 12 24C18.6274 24 24 18.6274 24 12C24 5.37258 18.6274 0 12 0C5.37258 0 0 5.37258 0 12ZM12 22.5C6.20101 22.5 1.5 17.799 1.5 12C1.5 6.20101 6.20101 1.5 12 1.5C17.799 1.5 22.5 6.20101 22.5 12C22.5 17.799 17.799 22.5 12 22.5Z" fill="black"/>
</svg>
