<svg width="25" height="24" viewBox="0 0 25 24" fill="none" xmlns="http://www.w3.org/2000/svg">
<path d="M1.50195 12C1.50195 6.20101 6.20296 1.5 12.002 1.5C17.8009 1.5 22.502 6.20101 22.502 12C22.502 17.799 17.8009 22.5 12.002 22.5C6.20296 22.5 1.50195 17.799 1.50195 12ZM12.002 0C5.37454 0 0.00195312 5.37258 0.00195312 12C0.00195312 18.6274 5.37454 24 12.002 24C18.6294 24 24.002 18.6274 24.002 12C24.002 5.37258 18.6294 0 12.002 0Z" fill="black"/>
<path d="M17.5676 8.43431C17.2552 8.12189 16.7487 8.12189 16.4363 8.43431L10.127 14.7436L7.56764 12.1843C7.25522 11.8719 6.74869 11.8719 6.43627 12.1843C6.12385 12.4967 6.12385 13.0033 6.43627 13.3157L9.56127 16.4407C9.87369 16.7531 10.3802 16.7531 10.6926 16.4407L17.5676 9.56569C17.8801 9.25327 17.8801 8.74673 17.5676 8.43431Z" fill="black"/>
</svg>
