<svg width="24" height="24" viewBox="0 0 24 24" fill="none" xmlns="http://www.w3.org/2000/svg">
<path d="M1.5 12C1.5 6.20101 6.20101 1.5 12 1.5C17.799 1.5 22.5 6.20101 22.5 12C22.5 17.799 17.799 22.5 12 22.5C6.20101 22.5 1.5 17.799 1.5 12ZM12 0C5.37258 0 0 5.37258 0 12C0 18.6274 5.37258 24 12 24C18.6274 24 24 18.6274 24 12C24 5.37258 18.6274 0 12 0ZM17.8005 7.75873C17.5076 7.46584 17.0328 7.46584 16.7399 7.75873L12.467 12.0316C12.1741 12.3245 11.6992 12.3245 11.4063 12.0315L9.80085 10.4256C9.50799 10.1327 9.03312 10.1326 8.74019 10.4255C8.44726 10.7183 8.44719 11.1932 8.74005 11.4861L10.3455 13.092C11.2241 13.9709 12.6489 13.971 13.5277 13.0922L17.8005 8.81939C18.0934 8.5265 18.0934 8.05163 17.8005 7.75873ZM8.5 5.25C6.70507 5.25 5.25 6.70507 5.25 8.5V15.5C5.25 17.2949 6.70507 18.75 8.5 18.75H15.5C17.2949 18.75 18.75 17.2949 18.75 15.5V13.0631C18.75 12.6488 18.4142 12.3131 18 12.3131C17.5858 12.3131 17.25 12.6488 17.25 13.0631V15.5C17.25 16.4665 16.4665 17.25 15.5 17.25H8.5C7.5335 17.25 6.75 16.4665 6.75 15.5V8.5C6.75 7.5335 7.5335 6.75 8.5 6.75H12C12.4142 6.75 12.75 6.41421 12.75 6C12.75 5.58579 12.4142 5.25 12 5.25H8.5Z" fill="black"/>
</svg>
