<svg width="24" height="24" viewBox="0 0 24 24" fill="none" xmlns="http://www.w3.org/2000/svg">
<path d="M12 22.5C6.20101 22.5 1.5 17.799 1.5 12C1.5 6.20101 6.20101 1.5 12 1.5C17.799 1.5 22.5 6.20101 22.5 12C22.5 17.799 17.799 22.5 12 22.5ZM0 12C0 18.6274 5.37258 24 12 24C18.6274 24 24 18.6274 24 12C24 5.37258 18.6274 0 12 0C5.37258 0 0 5.37258 0 12ZM12 19C15.866 19 19 15.866 19 12C19 8.13401 15.866 5 12 5C8.13401 5 5 8.13401 5 12C5 15.866 8.13401 19 12 19ZM12.0004 8.77502C12.3318 8.77502 12.6004 9.04365 12.6004 9.37502V12.1777H14.6254C14.9568 12.1777 15.2254 12.4463 15.2254 12.7777C15.2254 13.1091 14.9568 13.3777 14.6254 13.3777H12.0004C11.669 13.3777 11.4004 13.1091 11.4004 12.7777V9.37502C11.4004 9.04365 11.669 8.77502 12.0004 8.77502Z" fill="black"/>
</svg>
