<svg width="24" height="24" viewBox="0 0 24 24" fill="none" xmlns="http://www.w3.org/2000/svg">
<path d="M1.5 12C1.5 6.20101 6.20101 1.5 12 1.5C17.799 1.5 22.5 6.20101 22.5 12C22.5 17.799 17.799 22.5 12 22.5C6.20101 22.5 1.5 17.799 1.5 12ZM12 0C5.37258 0 0 5.37258 0 12C0 18.6274 5.37258 24 12 24C18.6274 24 24 18.6274 24 12C24 5.37258 18.6274 0 12 0Z" fill="black"/>
<path d="M8.0268 9.8476C6.3195 10.0807 5 11.529 5 13.3C5 15.2327 6.5673 16.8 8.5 16.8H16.2C17.7463 16.8 19 15.5463 19 14C19 12.4537 17.7463 11.2 16.2 11.2C16.2 8.8802 14.3198 7 12 7C10.1541 7 8.5903 8.1921 8.0268 9.8476Z" fill="black"/>
</svg>
