<svg width="24" height="24" viewBox="0 0 24 24" fill="none" xmlns="http://www.w3.org/2000/svg">
<path d="M8.0268 9.8476C6.3195 10.0807 5 11.529 5 13.3C5 15.2327 6.5673 16.8 8.5 16.8H16.2C17.7463 16.8 19 15.5463 19 14C19 12.4537 17.7463 11.2 16.2 11.2C16.2 8.8802 14.3198 7 12 7C10.1541 7 8.5903 8.1921 8.0268 9.8476ZM11.8134 9.73942C11.9892 9.56369 12.2741 9.56369 12.4498 9.73942L12.8919 10.1815C13.0677 10.3573 13.0677 10.6422 12.8919 10.8179L12.8351 10.8747C12.8252 10.8857 12.8148 10.8961 12.8039 10.9059L12.4498 11.26C12.2741 11.4357 11.9892 11.4357 11.8134 11.26C11.7375 11.184 11.6943 11.0876 11.6841 10.9885C11.1094 11.1306 10.6832 11.6498 10.6832 12.2684C10.6832 12.4651 10.7262 12.6506 10.8028 12.8172C10.9067 13.043 10.8079 13.3102 10.5821 13.4141C10.3563 13.518 10.0891 13.4192 9.98519 13.1934C9.85545 12.9114 9.7832 12.5978 9.7832 12.2684C9.7832 11.1518 10.6082 10.2279 11.6819 10.0729C11.6778 9.95268 11.7217 9.83117 11.8134 9.73942ZM12.1888 13.2765C12.265 13.3527 12.3082 13.4494 12.3183 13.5489C12.8929 13.4067 13.3189 12.8876 13.3189 12.269C13.3189 12.0724 13.2759 11.8872 13.1991 11.7208C13.095 11.4951 13.1935 11.2278 13.4191 11.1236C13.6448 11.0195 13.9121 11.118 14.0163 11.3437C14.1464 11.6256 14.2189 11.9392 14.2189 12.269C14.2189 13.3856 13.394 14.3095 12.3204 14.4645C12.3242 14.5844 12.2803 14.7056 12.1888 14.7971C12.0131 14.9729 11.7281 14.9729 11.5524 14.7971L11.1103 14.355C10.9346 14.1793 10.9346 13.8944 11.1103 13.7186L11.5524 13.2765C11.7281 13.1008 12.0131 13.1008 12.1888 13.2765Z" fill="black"/>
<path d="M1.5 12C1.5 6.20101 6.20101 1.5 12 1.5C17.799 1.5 22.5 6.20101 22.5 12C22.5 17.799 17.799 22.5 12 22.5C6.20101 22.5 1.5 17.799 1.5 12ZM12 0C5.37258 0 0 5.37258 0 12C0 18.6274 5.37258 24 12 24C18.6274 24 24 18.6274 24 12C24 5.37258 18.6274 0 12 0Z" fill="black"/>
</svg>
