<svg width="24" height="24" viewBox="0 0 24 24" fill="none" xmlns="http://www.w3.org/2000/svg">
<path d="M1.5 12C1.5 6.20101 6.20101 1.5 12 1.5C17.799 1.5 22.5 6.20101 22.5 12C22.5 17.799 17.799 22.5 12 22.5C6.20101 22.5 1.5 17.799 1.5 12ZM12 0C5.37258 0 0 5.37258 0 12C0 18.6274 5.37258 24 12 24C18.6274 24 24 18.6274 24 12C24 5.37258 18.6274 0 12 0Z" fill="black"/>
<path d="M8.0268 9.8476C6.3195 10.0807 5 11.529 5 13.3C5 15.2327 6.5673 16.8 8.5 16.8H16.2C17.7463 16.8 19 15.5463 19 14C19 12.4537 17.7463 11.2 16.2 11.2C16.2 8.8802 14.3198 7 12 7C10.1541 7 8.5903 8.1921 8.0268 9.8476ZM13.9415 12.7914C13.7071 13.0257 13.3272 13.0257 13.0929 12.7914L12.5996 12.2981V14.3506C12.5996 14.6819 12.331 14.9506 11.9996 14.9506C11.6682 14.9506 11.3996 14.6819 11.3996 14.3506V12.2995L10.9077 12.7914C10.6733 13.0257 10.2934 13.0257 10.0591 12.7914C9.82481 12.5571 9.82481 12.1772 10.0591 11.9429L11.5628 10.4392C11.6124 10.3866 11.6713 10.343 11.7369 10.311C11.9608 10.2016 12.2385 10.24 12.4246 10.426L13.9415 11.9429C14.1758 12.1772 14.1758 12.5571 13.9415 12.7914Z" fill="black"/>
</svg>
