<svg width="24" height="24" viewBox="0 0 24 24" fill="none" xmlns="http://www.w3.org/2000/svg">
<path d="M12 22.5C6.20101 22.5 1.5 17.799 1.5 12C1.5 6.20101 6.20101 1.5 12 1.5C17.799 1.5 22.5 6.20101 22.5 12C22.5 17.799 17.799 22.5 12 22.5ZM0 12C0 18.6274 5.37258 24 12 24C18.6274 24 24 18.6274 24 12C24 5.37258 18.6274 0 12 0C5.37258 0 0 5.37258 0 12ZM6.29995 10.7547C6.29995 8.73342 8.03738 7.01992 10.2272 7.01992C12.1238 7.01992 13.6734 8.25929 14.057 9.91493C14.1051 10.1227 14.2342 10.3026 14.4155 10.4148C14.5969 10.5269 14.8155 10.5621 15.0229 10.5123C15.2771 10.4514 15.4201 10.421 15.5454 10.421C16.7898 10.421 17.7 11.3409 17.7 12.4553C17.7 12.9159 17.5486 13.331 17.2915 13.665C17.022 14.0151 17.0872 14.5174 17.4373 14.7869C17.7874 15.0565 18.2897 14.9912 18.5593 14.6411C19.0266 14.0341 19.3 13.2775 19.3 12.4553C19.3 10.3952 17.6101 8.82101 15.5454 8.82101C15.4929 8.82101 15.4409 8.82291 15.3896 8.8263C14.5888 6.79353 12.5536 5.41992 10.2272 5.41992C7.21706 5.41992 4.69995 7.78773 4.69995 10.7547C4.69995 12.3647 5.4471 13.8042 6.60431 14.7768C6.94254 15.0611 7.44718 15.0173 7.73146 14.6791C8.01574 14.3409 7.972 13.8362 7.63377 13.552C6.8092 12.8589 6.29995 11.8555 6.29995 10.7547ZM13.161 14.1645C13.161 13.7227 12.8029 13.3645 12.361 13.3645C11.9192 13.3645 11.561 13.7227 11.561 14.1645V14.8867C11.561 15.3286 11.9192 15.6867 12.361 15.6867C12.8029 15.6867 13.161 15.3286 13.161 14.8867V14.1645ZM9.47218 11.9199C9.03035 11.9199 8.67218 12.2781 8.67218 12.7199V13.4421C8.67218 13.884 9.03035 14.2421 9.47218 14.2421C9.91401 14.2421 10.2722 13.884 10.2722 13.4421V12.7199C10.2722 12.2781 9.91401 11.9199 9.47218 11.9199ZM16.05 12.7199C16.05 12.2781 15.6918 11.9199 15.25 11.9199C14.8081 11.9199 14.45 12.2781 14.45 12.7199V13.4421C14.45 13.884 14.8081 14.2421 15.25 14.2421C15.6918 14.2421 16.05 13.884 16.05 13.4421V12.7199ZM12.3611 16.2534C11.9192 16.2534 11.5611 16.6116 11.5611 17.0534V17.7756C11.5611 18.2175 11.9192 18.5756 12.3611 18.5756C12.8029 18.5756 13.1611 18.2175 13.1611 17.7756V17.0534C13.1611 16.6116 12.8029 16.2534 12.3611 16.2534ZM10.2722 15.6088C10.2722 15.167 9.91398 14.8088 9.47215 14.8088C9.03032 14.8088 8.67215 15.167 8.67215 15.6088V16.3311C8.67215 16.7729 9.03032 17.1311 9.47215 17.1311C9.91398 17.1311 10.2722 16.7729 10.2722 16.3311V15.6088ZM15.25 14.8088C14.8081 14.8088 14.45 15.167 14.45 15.6088V16.3311C14.45 16.7729 14.8081 17.1311 15.25 17.1311C15.6918 17.1311 16.05 16.7729 16.05 16.3311V15.6088C16.05 15.167 15.6918 14.8088 15.25 14.8088Z" fill="black"/>
</svg>
