<svg width="24" height="24" viewBox="0 0 24 24" fill="none" xmlns="http://www.w3.org/2000/svg">
<path d="M12 22.5C6.20101 22.5 1.5 17.799 1.5 12C1.5 6.20101 6.20101 1.5 12 1.5C17.799 1.5 22.5 6.20101 22.5 12C22.5 17.799 17.799 22.5 12 22.5ZM0 12C0 18.6274 5.37258 24 12 24C18.6274 24 24 18.6274 24 12C24 5.37258 18.6274 0 12 0C5.37258 0 0 5.37258 0 12ZM10.2272 7.11001C12.1238 7.11001 13.6734 8.34937 14.057 10.005C14.1051 10.2128 14.2342 10.3927 14.4155 10.5049C14.5969 10.617 14.8155 10.6521 15.0229 10.6024C15.2771 10.5414 15.4201 10.5111 15.5454 10.5111C16.7898 10.5111 17.7 11.431 17.7 12.5453C17.7 13.006 17.5486 13.4211 17.2915 13.7551C17.022 14.1052 17.0872 14.6075 17.4373 14.877C17.7874 15.1466 18.2897 15.0813 18.5593 14.7312C19.0266 14.1242 19.3 13.3675 19.3 12.5453C19.3 10.4853 17.6101 8.9111 15.5454 8.9111C15.4929 8.9111 15.4409 8.913 15.3896 8.91639C14.5888 6.88362 12.5536 5.51001 10.2272 5.51001C7.21706 5.51001 4.69995 7.87782 4.69995 10.8448C4.69995 12.4548 5.4471 13.8942 6.60431 14.8669C6.94254 15.1511 7.44718 15.1074 7.73146 14.7692C8.01574 14.431 7.972 13.9263 7.63377 13.642C6.8092 12.949 6.29995 11.9456 6.29995 10.8448C6.29995 8.82351 8.03738 7.11001 10.2272 7.11001ZM12.5921 11.5821C12.2132 11.3548 11.7218 11.4777 11.4945 11.8565L9.8695 14.5649C9.72121 14.812 9.71733 15.1198 9.85933 15.3706C10.0013 15.6214 10.2673 15.7765 10.5555 15.7765H12.0314L11.1334 17.2732C10.9061 17.6521 11.0289 18.1435 11.4078 18.3708C11.7866 18.5981 12.2781 18.4753 12.5054 18.0964L14.1304 15.3881C14.2787 15.1409 14.2825 14.8331 14.1405 14.5823C13.9985 14.3315 13.7326 14.1765 13.4444 14.1765H11.9684L12.8665 12.6797C13.0938 12.3009 12.971 11.8095 12.5921 11.5821Z" fill="black"/>
</svg>
