<svg width="24" height="24" viewBox="0 0 24 24" fill="none" xmlns="http://www.w3.org/2000/svg">
<path d="M12 22.5C6.20101 22.5 1.5 17.799 1.5 12C1.5 6.20101 6.20101 1.5 12 1.5C17.799 1.5 22.5 6.20101 22.5 12C22.5 17.799 17.799 22.5 12 22.5ZM0 12C0 18.6274 5.37258 24 12 24C18.6274 24 24 18.6274 24 12C24 5.37258 18.6274 0 12 0C5.37258 0 0 5.37258 0 12ZM10.2272 6.90969C12.1238 6.90969 13.6734 8.14906 14.057 9.8047C14.1051 10.0124 14.2342 10.1924 14.4155 10.3045C14.5969 10.4167 14.8155 10.4518 15.0229 10.4021C15.2771 10.3411 15.4201 10.3108 15.5454 10.3108C16.7898 10.3108 17.7 11.2307 17.7 12.345C17.7 12.8057 17.5486 13.2208 17.2915 13.5548C17.022 13.9049 17.0872 14.4072 17.4373 14.6767C17.7874 14.9462 18.2897 14.881 18.5593 14.5309C19.0266 13.9239 19.3 13.1672 19.3 12.345C19.3 10.285 17.6101 8.71078 15.5454 8.71078C15.4929 8.71078 15.4409 8.71268 15.3896 8.71607C14.5888 6.6833 12.5536 5.30969 10.2272 5.30969C7.21706 5.30969 4.69995 7.6775 4.69995 10.6445C4.69995 12.2544 5.4471 13.6939 6.60431 14.6666C6.94254 14.9508 7.44718 14.9071 7.73146 14.5689C8.01574 14.2306 7.972 13.726 7.63377 13.4417C6.8092 12.7487 6.29995 11.7453 6.29995 10.6445C6.29995 8.62319 8.03738 6.90969 10.2272 6.90969ZM9.47212 11.3097C9.03029 11.3097 8.67212 11.6679 8.67212 12.1097V15.7208C8.67212 16.1626 9.03029 16.5208 9.47212 16.5208C9.91395 16.5208 10.2721 16.1626 10.2721 15.7208V12.1097C10.2721 11.6679 9.91395 11.3097 9.47212 11.3097ZM12.361 13.4762C11.9192 13.4762 11.561 13.8344 11.561 14.2762V17.8873C11.561 18.3291 11.9192 18.6873 12.361 18.6873C12.8029 18.6873 13.161 18.3291 13.161 17.8873V14.2762C13.161 13.8344 12.8029 13.4762 12.361 13.4762ZM16.05 12.1098C16.05 11.668 15.6918 11.3098 15.25 11.3098C14.8081 11.3098 14.45 11.668 14.45 12.1098V15.7209C14.45 16.1628 14.8081 16.5209 15.25 16.5209C15.6918 16.5209 16.05 16.1628 16.05 15.7209V12.1098Z" fill="black"/>
</svg>
