<svg width="24" height="24" viewBox="0 0 24 24" fill="none" xmlns="http://www.w3.org/2000/svg">
<path d="M12 22.5C6.20101 22.5 1.5 17.799 1.5 12C1.5 6.20101 6.20101 1.5 12 1.5C17.799 1.5 22.5 6.20101 22.5 12C22.5 17.799 17.799 22.5 12 22.5ZM0 12C0 18.6274 5.37258 24 12 24C18.6274 24 24 18.6274 24 12C24 5.37258 18.6274 0 12 0C5.37258 0 0 5.37258 0 12ZM8.0268 9.8476C6.3195 10.0807 5 11.529 5 13.3C5 15.2327 6.5673 16.8 8.5 16.8H16.2C17.7463 16.8 19 15.5463 19 14C19 12.4537 17.7463 11.2 16.2 11.2C16.2 8.8802 14.3198 7 12 7C10.1541 7 8.5903 8.1921 8.0268 9.8476ZM12.6496 10.8496V12.947L13.0562 12.5404C13.3101 12.2865 13.7216 12.2865 13.9755 12.5404C14.2293 12.7942 14.2293 13.2058 13.9755 13.4596L12.4586 14.9765C12.2047 15.2304 11.7932 15.2304 11.5393 14.9765L10.0224 13.4596C9.76857 13.2058 9.76857 12.7942 10.0224 12.5404C10.2763 12.2865 10.6878 12.2865 10.9417 12.5404L11.3496 12.9483V10.8496C11.3496 10.4906 11.6406 10.1996 11.9996 10.1996C12.3586 10.1996 12.6496 10.4906 12.6496 10.8496Z" fill="black"/>
</svg>
