<svg width="24" height="24" viewBox="0 0 24 24" fill="none" xmlns="http://www.w3.org/2000/svg">
<path d="M1.5 12C1.5 6.20101 6.20101 1.5 12 1.5C17.799 1.5 22.5 6.20101 22.5 12C22.5 17.799 17.799 22.5 12 22.5C6.20101 22.5 1.5 17.799 1.5 12ZM12 0C5.37258 0 0 5.37258 0 12C0 18.6274 5.37258 24 12 24C18.6274 24 24 18.6274 24 12C24 5.37258 18.6274 0 12 0Z" fill="black"/>
<path d="M12.9815 7.58824C12.5502 7.49228 12.1228 7.76411 12.0269 8.19539L10.4117 15.4547C10.3157 15.886 10.5875 16.3134 11.0188 16.4094C11.4501 16.5053 11.8775 16.2335 11.9735 15.8022L13.5887 8.54289C13.6846 8.11161 13.4128 7.6842 12.9815 7.58824Z" fill="black"/>
<path d="M14.6191 9.61693C14.3067 9.92935 14.3067 10.4359 14.6191 10.7483L15.8682 11.9974L14.6191 13.2466C14.3067 13.559 14.3067 14.0655 14.6191 14.378C14.9315 14.6904 15.438 14.6904 15.7505 14.378L17.5653 12.5631C17.8777 12.2507 17.8777 11.7442 17.5653 11.4318L15.7505 9.61693C15.438 9.30451 14.9315 9.30451 14.6191 9.61693Z" fill="black"/>
<path d="M9.37974 9.61693C9.06732 9.30451 8.56079 9.30451 8.24837 9.61693L6.43353 11.4318C6.12111 11.7442 6.12111 12.2507 6.43353 12.5631L8.24837 14.378C8.56079 14.6904 9.06732 14.6904 9.37974 14.378C9.69216 14.0655 9.69216 13.559 9.37974 13.2466L8.13059 11.9974L9.37974 10.7483C9.69216 10.4359 9.69216 9.92935 9.37974 9.61693Z" fill="black"/>
</svg>
