<svg width="24" height="24" viewBox="0 0 24 24" fill="none" xmlns="http://www.w3.org/2000/svg">
<path d="M1.5 12C1.5 6.20101 6.20101 1.5 12 1.5C17.799 1.5 22.5 6.20101 22.5 12C22.5 17.799 17.799 22.5 12 22.5C6.20101 22.5 1.5 17.799 1.5 12ZM12 0C5.37258 0 0 5.37258 0 12C0 18.6274 5.37258 24 12 24C18.6274 24 24 18.6274 24 12C24 5.37258 18.6274 0 12 0ZM9.93989 5.00693C9.87466 4.98974 9.80617 4.98059 9.73555 4.98059C9.65499 4.98059 9.57722 4.9925 9.50389 5.01464C8.40433 5.14216 7.55078 6.07657 7.55078 7.21034C7.55078 8.13925 8.12375 8.93434 8.93555 9.26147V14.7383C8.12375 15.0655 7.55078 15.8606 7.55078 16.7895C7.55078 18.0103 8.54047 19 9.76131 19C10.9821 19 11.9718 18.0103 11.9718 16.7895C11.9718 15.841 11.3745 15.0321 10.5355 14.7183V14.1451C10.8255 14.0671 11.2279 13.993 11.6871 13.993L11.7199 13.993C12.2998 13.9932 13.3278 13.9935 14.3196 13.5268C14.9656 13.2228 15.5603 12.7403 16.0273 12.0126C16.0966 12.0191 16.1668 12.0225 16.2379 12.0225C17.4587 12.0225 18.4484 11.0328 18.4484 9.81193C18.4484 8.59109 17.4587 7.6014 16.2379 7.6014C15.017 7.6014 14.0273 8.59109 14.0273 9.81193C14.0273 10.3772 14.2395 10.893 14.5886 11.2838C14.2959 11.688 13.9609 11.9272 13.6383 12.0791C12.9911 12.3836 12.2841 12.393 11.6871 12.393C11.2674 12.393 10.877 12.4382 10.5355 12.5042V9.28148C11.3745 8.96772 11.9718 8.15879 11.9718 7.21034C11.9718 6.04962 11.0772 5.09785 9.93989 5.00693Z" fill="black"/>
</svg>
