<svg width="24" height="24" viewBox="0 0 24 24" fill="none" xmlns="http://www.w3.org/2000/svg">
<path d="M1.5 12C1.5 6.20101 6.20101 1.5 12 1.5C17.799 1.5 22.5 6.20101 22.5 12C22.5 17.799 17.799 22.5 12 22.5C6.20101 22.5 1.5 17.799 1.5 12ZM12 0C5.37258 0 0 5.37258 0 12C0 18.6274 5.37258 24 12 24C18.6274 24 24 18.6274 24 12C24 5.37258 18.6274 0 12 0Z" fill="black"/>
<path d="M19 12.3177V11.6823C19 11.1549 18.5699 10.7273 18.0471 10.7273H17.5583C17.2081 10.7273 16.8145 10.4622 16.6785 10.1338L16.6277 10.0111C16.492 9.68336 16.586 9.21359 16.8303 8.96938L17.1759 8.62378C17.5479 8.25176 17.5442 7.6449 17.1742 7.27494L16.7251 6.82578C16.3521 6.45286 15.7458 6.4546 15.3762 6.82414L15.0306 7.16974C14.7831 7.41731 14.3173 7.50828 13.9889 7.37229L13.8662 7.32153C13.5385 7.18583 13.2727 6.78718 13.2727 6.44172V5.95285C13.2727 5.42661 12.8409 5 12.3177 5H11.6823C11.1549 5 10.7273 5.43011 10.7273 5.95285V6.44172C10.7273 6.79192 10.4622 7.18554 10.1338 7.32153L10.0111 7.37229C9.68336 7.50799 9.21359 7.41396 8.96938 7.16974L8.62378 6.82414C8.25176 6.45213 7.6449 6.45583 7.27494 6.82578L6.82578 7.27494C6.45286 7.64787 6.4546 8.25424 6.82414 8.62378L7.16974 8.96938C7.41731 9.21694 7.50828 9.68266 7.37229 10.0111L7.32153 10.1338C7.18583 10.4615 6.78718 10.7273 6.44172 10.7273H5.95285C5.42661 10.7273 5 11.1591 5 11.6823V12.3177C5 12.8451 5.43011 13.2727 5.95285 13.2727H6.44172C6.79192 13.2727 7.18554 13.5378 7.32153 13.8662L7.37229 13.9889C7.50799 14.3166 7.41396 14.7864 7.16974 15.0306L6.82414 15.3762C6.45213 15.7482 6.45583 16.3551 6.82578 16.7251L7.27494 17.1742C7.64787 17.5471 8.25424 17.5454 8.62378 17.1759L8.96938 16.8303C9.21694 16.5827 9.68266 16.4917 10.0111 16.6277L10.1338 16.6785C10.4615 16.8142 10.7273 17.2128 10.7273 17.5583V18.0471C10.7273 18.5734 11.1591 19 11.6823 19H12.3177C12.8451 19 13.2727 18.5699 13.2727 18.0471V17.5583C13.2727 17.2081 13.5378 16.8145 13.8662 16.6785L13.9889 16.6277C14.3166 16.492 14.7864 16.586 15.0306 16.8303L15.3762 17.1759C15.7482 17.5479 16.3551 17.5442 16.7251 17.1742L17.1742 16.7251C17.5471 16.3521 17.5454 15.7458 17.1759 15.3762L16.8303 15.0306C16.5827 14.7831 16.4917 14.3173 16.6277 13.9889L16.6785 13.8662C16.8142 13.5385 17.2128 13.2727 17.5583 13.2727H18.0471C18.5734 13.2727 19 12.8409 19 12.3177ZM13.908 11.9999C13.908 13.0544 13.0534 13.909 11.9989 13.909C10.9445 13.909 10.0898 13.0544 10.0898 11.9999C10.0898 10.9455 10.9445 10.0908 11.9989 10.0908C13.0534 10.0908 13.908 10.9455 13.908 11.9999Z" fill="black"/>
</svg>
