<svg width="24" height="24" viewBox="0 0 24 24" fill="none" xmlns="http://www.w3.org/2000/svg">
<path d="M12 22.5C6.20101 22.5 1.5 17.799 1.5 12C1.5 6.20101 6.20101 1.5 12 1.5C17.799 1.5 22.5 6.20101 22.5 12C22.5 17.799 17.799 22.5 12 22.5ZM0 12C0 18.6274 5.37258 24 12 24C18.6274 24 24 18.6274 24 12C24 5.37258 18.6274 0 12 0C5.37258 0 0 5.37258 0 12ZM13.6004 12.4473C13.7385 12.398 13.8638 12.3467 13.9763 12.2944C15.1237 12.2646 16.1387 12.0862 16.8731 11.8239C17.2781 11.6793 17.5728 11.5179 17.7573 11.3621C17.944 11.2045 17.9686 11.0978 17.9686 11.052H18V9.83751C17.7612 9.98027 17.4858 10.1044 17.1875 10.2109C16.3055 10.5259 15.1324 10.719 13.8513 10.7386C13.0549 10.361 11.7891 10.117 10.3636 10.117C10.1947 10.117 10.028 10.1204 9.864 10.1271C9.65024 10.0407 9.45123 9.94443 9.27271 9.8377V10.166C7.3907 10.339 6.00007 10.949 6 11.6753H6.03103C6.03103 11.7211 6.05569 11.8279 6.24234 11.9855C6.42684 12.1413 6.72154 12.3026 7.12662 12.4473C7.93272 12.7352 9.07708 12.9221 10.3635 12.9221C11.6499 12.9221 12.7943 12.7352 13.6004 12.4473ZM18 8.55837C17.9999 7.69752 16.0462 7 13.6363 7C11.2264 7 9.27282 7.69752 9.27271 8.55837H9.30371C9.30371 8.60415 9.32837 8.7109 9.51503 8.86852C9.69952 9.02431 9.99422 9.18567 10.3993 9.33033C11.2054 9.6182 12.3498 9.80512 13.6362 9.80512C14.9226 9.80512 16.067 9.6182 16.8731 9.33033C17.2781 9.18567 17.5728 9.02431 17.7573 8.86852C17.944 8.7109 17.9686 8.60415 17.9686 8.55837H18ZM13.6004 14.9407C13.7387 14.8913 13.8642 14.8399 13.9768 14.7875C16.2276 14.7255 18 14.0537 18 13.2338V12.3311C17.7612 12.4739 17.4858 12.598 17.1875 12.7045C16.5111 12.9461 15.6635 13.116 14.7273 13.1909V12.9545C14.4885 13.0973 14.2131 13.2214 13.9149 13.3279C12.9837 13.6604 11.7281 13.8572 10.3635 13.8572C8.99895 13.8572 7.74331 13.6604 6.81215 13.3279C6.51397 13.2214 6.23867 13.0974 6 12.9547V14.1687H6.03103C6.03103 14.2145 6.05569 14.3213 6.24234 14.4789C6.42684 14.6347 6.72154 14.796 7.12662 14.9407C7.93272 15.2286 9.07708 15.4155 10.3635 15.4155C11.6499 15.4155 12.7943 15.2286 13.6004 14.9407ZM6 16.3507C6 17.2116 7.95366 17.9092 10.3636 17.9092C12.7736 17.9092 14.7273 17.2116 14.7273 16.3507V15.4479C14.4885 15.5906 14.2131 15.7148 13.9149 15.8213C12.9837 16.1538 11.7281 16.3506 10.3635 16.3506C8.99895 16.3506 7.74331 16.1538 6.81215 15.8213C6.51397 15.7148 6.23867 15.5907 6 15.4481V16.3507Z" fill="black"/>
</svg>
