<svg width="24" height="24" viewBox="0 0 24 24" fill="none" xmlns="http://www.w3.org/2000/svg">
<path d="M7 5.5C6.17157 5.5 5.5 6.17157 5.5 7V17C5.5 17.8284 6.17157 18.5 7 18.5H10C10.8284 18.5 11.5 17.8284 11.5 17V7C11.5 6.17157 10.8284 5.5 10 5.5H7ZM14 5.5C13.1716 5.5 12.5 6.17157 12.5 7V17C12.5 17.8284 13.1716 18.5 14 18.5H17C17.8284 18.5 18.5 17.8284 18.5 17V7C18.5 6.17157 17.8284 5.5 17 5.5H14Z" fill="black"/>
<path d="M1.5 12C1.5 6.20101 6.20101 1.5 12 1.5C17.799 1.5 22.5 6.20101 22.5 12C22.5 17.799 17.799 22.5 12 22.5C6.20101 22.5 1.5 17.799 1.5 12ZM12 0C5.37258 0 0 5.37258 0 12C0 18.6274 5.37258 24 12 24C18.6274 24 24 18.6274 24 12C24 5.37258 18.6274 0 12 0Z" fill="black"/>
</svg>
