<svg width="24" height="24" viewBox="0 0 24 24" fill="none" xmlns="http://www.w3.org/2000/svg">
<path d="M1.5 12C1.5 6.20101 6.20101 1.5 12 1.5C17.799 1.5 22.5 6.20101 22.5 12C22.5 17.799 17.799 22.5 12 22.5C6.20101 22.5 1.5 17.799 1.5 12ZM12 0C5.37258 0 0 5.37258 0 12C0 18.6274 5.37258 24 12 24C18.6274 24 24 18.6274 24 12C24 5.37258 18.6274 0 12 0ZM5.07213 10.8384C5.05921 10.9111 5.04804 10.9845 5.03868 11.0586C4.69645 13.7606 6.66817 16.08 9.24269 16.3126V18.2983C9.24269 18.6452 9.66037 18.8194 9.90537 18.5744L10.69 17.7896C11.2169 17.2625 11.7396 16.7397 12.1462 16.3336H14.1374C16.6924 16.3336 18.9216 14.365 18.9978 11.8107C19.0772 9.16773 16.9585 7 14.3334 7H9.84315C9.50786 7 9.17749 7.03385 8.85649 7.09861C9.52465 8.15118 9.39955 9.56215 8.48118 10.4805C7.5549 11.4068 6.12748 11.5261 5.07213 10.8384ZM7.65554 9.65554C8.26308 9.04801 8.26308 8.06319 7.65554 7.45565C7.04878 6.84812 6.06319 6.84812 5.45565 7.45565C4.84812 8.06319 4.84812 9.04801 5.45565 9.65554C6.06319 10.2631 7.04801 10.2631 7.65554 9.65554Z" fill="black"/>
</svg>
