<svg width="24" height="24" viewBox="0 0 24 24" fill="none" xmlns="http://www.w3.org/2000/svg">
<path d="M12 1.5C17.799 1.5 22.5 6.20101 22.5 12C22.5 17.799 17.799 22.5 12 22.5C6.20101 22.5 1.5 17.799 1.5 12C1.5 6.20101 6.20101 1.5 12 1.5ZM24 12C24 5.37258 18.6274 0 12 0C5.37258 0 0 5.37258 0 12C0 18.6274 5.37258 24 12 24C18.6274 24 24 18.6274 24 12ZM5.22977 5.63905C4.91988 5.95398 4.92397 6.46049 5.2389 6.77038L6.5059 8.01709C6.37347 8.31831 6.3 8.65106 6.3 9.00089V12.113C6.3 13.4037 7.30006 14.4619 8.571 14.5618V15.7775C8.571 15.9478 8.6735 16.1015 8.83117 16.1677C8.98884 16.2339 9.171 16.1996 9.29355 16.0808L10.6695 14.7461C10.5629 14.4662 10.5046 14.1627 10.5046 13.8456V11.9517L11.3553 12.7888V13.8463C11.3553 14.7819 12.1174 15.5404 13.0574 15.5404H14.1517L17.2759 18.6146C17.5909 18.9245 18.0974 18.9204 18.4073 18.6055C18.7172 18.2906 18.7131 17.7841 18.3981 17.4742L6.3611 5.62991C6.04617 5.32003 5.53965 5.32411 5.22977 5.63905ZM17.847 14.9971C18.1282 14.6949 18.3 14.2906 18.3 13.8463V11.5422C18.3 10.6066 17.5379 9.8481 16.5979 9.8481H13.0574C12.9452 9.8481 12.8356 9.8589 12.7295 9.87951L17.847 14.9971ZM12.0542 9.20423C12.3622 9.07302 12.7015 9.00039 13.0578 9.00039H16.235C16.2347 7.64393 15.1298 6.54438 13.7669 6.54438H9.39433L12.0542 9.20423Z" fill="black"/>
</svg>
