<svg width="24" height="24" viewBox="0 0 24 24" fill="none" xmlns="http://www.w3.org/2000/svg">
<path d="M12 1.5C17.799 1.5 22.5 6.20101 22.5 12C22.5 17.799 17.799 22.5 12 22.5C6.20101 22.5 1.5 17.799 1.5 12C1.5 6.20101 6.20101 1.5 12 1.5ZM24 12C24 5.37258 18.6274 0 12 0C5.37258 0 0 5.37258 0 12C0 18.6274 5.37258 24 12 24C18.6274 24 24 18.6274 24 12ZM4.92977 6.09461C4.61988 6.40954 4.62397 6.91606 4.9389 7.22595L5.33682 7.6175C5.12162 8.03121 5 8.50138 5 8.99996V13.9237C5 15.5806 6.34314 16.9237 8 16.9237H8.11111V18.6554C8.11111 19.5087 9.11119 19.97 9.76028 19.416L12.4001 17.1631C12.5811 17.0086 12.8113 16.9237 13.0493 16.9237H14.7945L16.9759 19.0702C17.2909 19.3801 17.7974 19.376 18.1073 19.0611C18.4172 18.7461 18.4131 18.2396 18.0981 17.9297L6.0611 6.08548C5.74617 5.77559 5.23965 5.77968 4.92977 6.09461ZM18.1303 16.036C18.6679 15.4938 19 14.7475 19 13.9237V8.99995C19 7.3431 17.6569 5.99995 16 5.99995H8.09433L18.1303 16.036Z" fill="black"/>
</svg>
