<svg width="24" height="24" viewBox="0 0 24 24" fill="none" xmlns="http://www.w3.org/2000/svg">
<path d="M1.5 12C1.5 6.20101 6.20101 1.5 12 1.5C17.799 1.5 22.5 6.20101 22.5 12C22.5 17.799 17.799 22.5 12 22.5C6.20101 22.5 1.5 17.799 1.5 12ZM12 0C5.37258 0 0 5.37258 0 12C0 18.6274 5.37258 24 12 24C18.6274 24 24 18.6274 24 12C24 5.37258 18.6274 0 12 0Z" fill="black"/>
<path d="M7.765 6.83278C7.76275 6.83381 7.7605 6.83484 7.75825 6.83587L6.5559 5.60102C6.33114 5.37019 5.96182 5.36526 5.73099 5.59002C5.50016 5.81477 5.49524 6.1841 5.71999 6.41493L6.73921 7.46169C5.83098 8.18489 5.19206 9.22465 5.03868 10.4384C4.69645 13.1405 6.66817 15.4599 9.24269 15.6925V17.6782C9.24269 18.0251 9.66037 18.1993 9.90537 17.9543L10.69 17.1695C11.2169 16.6424 11.7396 16.1196 12.1462 15.7135H14.1374C14.34 15.7135 14.5407 15.7011 14.7383 15.677L16.3226 17.3041C16.5474 17.5349 16.9167 17.5399 17.1475 17.3151C17.3784 17.0904 17.3833 16.721 17.1585 16.4902L16.0357 15.3371C16.038 15.3361 16.0404 15.3351 16.0427 15.3342L7.765 6.83278ZM17.0939 14.7414C18.2054 13.9225 18.9542 12.6524 18.9978 11.1906C19.0772 8.5476 16.9585 6.37987 14.3334 6.37987H9.84315C9.56423 6.37987 9.28872 6.40329 9.01918 6.44845L17.0939 14.7414Z" fill="black"/>
</svg>
