<svg width="24" height="24" viewBox="0 0 24 24" fill="none" xmlns="http://www.w3.org/2000/svg">
<path d="M22.4 12C22.4 17.7438 17.7438 22.4 12 22.4C6.25624 22.4 1.6 17.7438 1.6 12C1.6 6.25624 6.25624 1.6 12 1.6C17.7438 1.6 22.4 6.25624 22.4 12ZM24 12C24 5.37258 18.6274 0 12 0C5.37258 0 0 5.37258 0 12C0 18.6274 5.37258 24 12 24C18.6274 24 24 18.6274 24 12ZM5.03868 10.5586C4.69645 13.2606 6.66817 15.58 9.24269 15.8126V17.7983C9.24269 18.1452 9.66037 18.3194 9.90537 18.0744C10.1582 17.8216 10.4241 17.5556 10.689 17.2906C11.2162 16.7632 11.7393 16.24 12.1462 15.8336H14.1374C16.6924 15.8336 18.9216 13.865 18.9978 11.3107C19.0772 8.66773 16.9585 6.5 14.3334 6.5H9.84315C7.46619 6.5 5.33658 8.20105 5.03868 10.5586Z" fill="black"/>
</svg>
