<svg width="24" height="24" viewBox="0 0 24 24" fill="none" xmlns="http://www.w3.org/2000/svg">
<path d="M12 22.5C6.20101 22.5 1.5 17.799 1.5 12C1.5 6.20101 6.20101 1.5 12 1.5C17.799 1.5 22.5 6.20101 22.5 12C22.5 17.799 17.799 22.5 12 22.5ZM0 12C0 18.6274 5.37258 24 12 24C18.6274 24 24 18.6274 24 12C24 5.37258 18.6274 0 12 0C5.37258 0 0 5.37258 0 12ZM9.81289 16.5778L11.3 18.8256C11.65 19.3544 12.35 19.3544 12.7 18.8256L14.1871 16.5778H16C17.6569 16.5778 19 15.2346 19 13.5778V9C19 7.34314 17.6569 6 16 6H8C6.34315 6 5 7.34315 5 9V13.5778C5 15.2346 6.34315 16.5778 8 16.5778H9.81289ZM12.9281 8.46209C13.219 8.44673 13.4846 8.6268 13.578 8.90273L14.4549 11.4926H15.1111C15.4701 11.4926 15.7611 11.7836 15.7611 12.1426C15.7611 12.5016 15.4701 12.7926 15.1111 12.7926H14.1747C13.7849 12.7926 13.4385 12.5442 13.3135 12.175L13.0892 11.5127L12.4787 14.2314C12.4142 14.5185 12.1649 14.7264 11.8709 14.7384C11.577 14.7504 11.3116 14.5634 11.224 14.2826L10.6494 12.4414C10.479 12.6607 10.2151 12.7926 9.93151 12.7926H8.88889C8.52991 12.7926 8.23889 12.5016 8.23889 12.1426C8.23889 11.7836 8.52991 11.4926 8.88889 11.4926H9.69539L10.2335 10.4682C10.3557 10.2355 10.606 10.0993 10.8677 10.1231C11.1295 10.1469 11.3511 10.3259 11.4294 10.5768L11.742 11.5787L12.3282 8.96883C12.392 8.68459 12.6372 8.47746 12.9281 8.46209Z" fill="black"/>
</svg>
