<svg width="24" height="24" viewBox="0 0 24 24" fill="none" xmlns="http://www.w3.org/2000/svg">
<path d="M12 1.5C17.799 1.5 22.5 6.20101 22.5 12C22.5 17.799 17.799 22.5 12 22.5C6.20101 22.5 1.5 17.799 1.5 12C1.5 6.20101 6.20101 1.5 12 1.5ZM24 12C24 5.37258 18.6274 0 12 0C5.37258 0 0 5.37258 0 12C0 18.6274 5.37258 24 12 24C18.6274 24 24 18.6274 24 12ZM4.73431 5.53436C4.4219 5.84678 4.4219 6.35331 4.73431 6.66573L6.04262 7.97404C5.66776 8.49962 5.41409 9.11246 5.33167 9.7647C5.0571 11.9325 6.60172 13.7995 8.64724 14.0528C8.7188 14.0616 8.77357 14.1212 8.77357 14.1933V15.0624C8.77357 15.4258 9.19275 15.6289 9.47797 15.4038L10.6917 14.4458C10.989 14.2111 11.3568 14.0835 11.7356 14.0835H12.152L13.1396 15.071C12.7769 15.0821 12.4254 15.0718 12.0852 15.0402C12.3356 15.3954 12.6079 15.659 12.902 15.8311C13.3432 16.0891 13.9974 16.1929 14.2297 16.2179C14.2512 16.2202 14.2727 16.2228 14.2942 16.2256L16.7343 18.6657C17.0467 18.9782 17.5533 18.9782 17.8657 18.6657C18.0824 18.449 18.1488 18.1388 18.0648 17.8649C17.9418 17.8272 17.8262 17.7592 17.7297 17.661L5.72965 5.46084C5.707 5.4378 5.68602 5.41374 5.66671 5.38881C5.36566 5.23349 4.98667 5.28201 4.73431 5.53436ZM19.2746 12.7066C19.2216 12.2818 19.0045 11.8308 18.6256 11.4248C18.373 11.154 18.0436 10.9368 17.6372 10.7729C17.6493 12.0869 17.3424 13.0635 16.7164 13.7025C16.6241 13.7968 16.5149 13.9037 16.3873 14.0146L17.9969 15.651C18.8854 15.0179 19.4266 13.9202 19.2746 12.7066ZM16.7603 10.3805C16.8253 8.21664 15.0906 6.24946 12.9414 6.24946H9.26518C9.10232 6.24946 8.94089 6.26056 8.78163 6.28204L15.4645 13.0764C16.228 12.4083 16.7281 11.4581 16.7603 10.3805Z" fill="black"/>
</svg>
