<svg width="24" height="24" viewBox="0 0 24 24" fill="none" xmlns="http://www.w3.org/2000/svg">
<path d="M12 1.5C17.799 1.5 22.5 6.20101 22.5 12C22.5 17.799 17.799 22.5 12 22.5C6.20101 22.5 1.5 17.799 1.5 12C1.5 6.20101 6.20101 1.5 12 1.5ZM24 12C24 5.37258 18.6274 0 12 0C5.37258 0 0 5.37258 0 12C0 18.6274 5.37258 24 12 24C18.6274 24 24 18.6274 24 12ZM8 16.9237H8.11111V18.6554C8.11111 19.5088 9.11119 19.97 9.76028 19.416L12.4001 17.1631C12.5811 17.0086 12.8113 16.9237 13.0493 16.9237H16C17.6569 16.9237 19 15.5806 19 13.9237V9C19 7.34315 17.6569 6 16 6H8C6.34315 6 5 7.34315 5 9V13.9237C5 15.5806 6.34314 16.9237 8 16.9237Z" fill="black"/>
</svg>
