<svg width="24" height="24" viewBox="0 0 24 24" fill="none" xmlns="http://www.w3.org/2000/svg">
<path d="M12 22.5C6.20101 22.5 1.5 17.799 1.5 12C1.5 6.20101 6.20101 1.5 12 1.5C17.799 1.5 22.5 6.20101 22.5 12C22.5 17.799 17.799 22.5 12 22.5ZM0 12C0 18.6274 5.37258 24 12 24C18.6274 24 24 18.6274 24 12C24 5.37258 18.6274 0 12 0C5.37258 0 0 5.37258 0 12ZM12 19C15.866 19 19 15.866 19 12C19 8.13401 15.866 5 12 5C8.13401 5 5 8.13401 5 12C5 15.866 8.13401 19 12 19ZM15.6041 8.83819L13.6768 13.3264C13.584 13.5425 13.418 13.719 13.208 13.8248L9.14905 15.8704C8.69057 16.1015 8.19357 15.634 8.39615 15.1622L10.3235 10.674C10.4163 10.4579 10.5823 10.2814 10.7923 10.1756L14.8512 8.13002C15.3097 7.89896 15.8067 8.36643 15.6041 8.83819ZM12.0008 12.6998C12.3874 12.6998 12.7008 12.3864 12.7008 11.9998C12.7008 11.6132 12.3874 11.2998 12.0008 11.2998C11.6142 11.2998 11.3008 11.6132 11.3008 11.9998C11.3008 12.3864 11.6142 12.6998 12.0008 12.6998Z" fill="black"/>
</svg>
