<svg width="24" height="24" viewBox="0 0 24 24" fill="none" xmlns="http://www.w3.org/2000/svg">
<path d="M12 22.5C6.20101 22.5 1.5 17.799 1.5 12C1.5 6.20101 6.20101 1.5 12 1.5C17.799 1.5 22.5 6.20101 22.5 12C22.5 17.799 17.799 22.5 12 22.5ZM0 12C0 18.6274 5.37258 24 12 24C18.6274 24 24 18.6274 24 12C24 5.37258 18.6274 0 12 0C5.37258 0 0 5.37258 0 12ZM12 19C15.8663 19 19 15.8663 19 12C19 8.13367 15.8663 5 12 5C8.13367 5 5 8.13367 5 12C5 15.8663 8.13367 19 12 19ZM12.0089 10.3161C11.0709 10.3161 10.3156 11.0721 10.3156 11.9994C10.3156 12.9268 11.0709 13.6828 12.0089 13.6828C12.4353 13.6828 12.8252 13.5235 13.1268 13.26C13.3971 13.0238 13.8078 13.0514 14.044 13.3217C14.2802 13.5921 14.2525 14.0027 13.9822 14.2389C13.4571 14.6978 12.7672 14.9828 12.0089 14.9828C10.3581 14.9828 9.01562 13.65 9.01562 11.9994C9.01562 10.3489 10.3581 9.01611 12.0089 9.01611C12.7673 9.01611 13.4579 9.29962 13.9834 9.76102C14.2531 9.99788 14.2798 10.4086 14.0429 10.6783C13.8061 10.9481 13.3954 10.9747 13.1256 10.7379C12.8263 10.475 12.4371 10.3161 12.0089 10.3161Z" fill="black"/>
</svg>
