<svg width="24" height="24" viewBox="0 0 24 24" fill="none" xmlns="http://www.w3.org/2000/svg">
<path d="M10.6906 10.1843C10.3782 9.87185 9.87169 9.87185 9.55927 10.1843L6.43427 13.3093C6.35756 13.386 6.29969 13.4744 6.26065 13.5687C6.22183 13.6624 6.20027 13.765 6.19995 13.8726L6.19995 13.875L6.19995 13.8774C6.20056 14.0813 6.27867 14.285 6.43427 14.4406L9.55927 17.5656C9.87169 17.8781 10.3782 17.8781 10.6906 17.5656C11.0031 17.2532 11.0031 16.7467 10.6906 16.4343L8.93132 14.675H14.5C15.3752 14.675 16.2145 14.3273 16.8334 13.7084C17.4523 13.0895 17.8 12.2502 17.8 11.375V6.99995C17.8 6.55812 17.4418 6.19995 17 6.19995C16.5581 6.19995 16.2 6.55812 16.2 6.99995V11.375C16.2 11.8258 16.0208 12.2582 15.702 12.577C15.3832 12.8958 14.9508 13.075 14.5 13.075H8.93132L10.6906 11.3156C11.0031 11.0032 11.0031 10.4967 10.6906 10.1843Z" fill="black"/>
<path d="M12 24C18.6274 24 24 18.6274 24 12C24 5.37258 18.6274 0 12 0C5.37258 0 0 5.37258 0 12C0 18.6274 5.37258 24 12 24ZM1.5 12C1.5 6.20101 6.20101 1.5 12 1.5C17.799 1.5 22.5 6.20101 22.5 12C22.5 17.799 17.799 22.5 12 22.5C6.20101 22.5 1.5 17.799 1.5 12Z" fill="black"/>
</svg>
