<svg width="24" height="24" viewBox="0 0 24 24" fill="none" xmlns="http://www.w3.org/2000/svg">
<path d="M12 22.5C6.20101 22.5 1.5 17.799 1.5 12C1.5 6.20101 6.20101 1.5 12 1.5C17.799 1.5 22.5 6.20101 22.5 12C22.5 17.799 17.799 22.5 12 22.5ZM0 12C0 18.6274 5.37258 24 12 24C18.6274 24 24 18.6274 24 12C24 5.37258 18.6274 0 12 0C5.37258 0 0 5.37258 0 12ZM7.67287 15.464L8.3388 15.645L8.69748 15.6444C8.60404 15.3364 8.55371 15.0096 8.55371 14.6712C8.55371 12.8212 10.0534 11.3215 11.9034 11.3215C13.7533 11.3215 15.253 12.8212 15.253 14.6712C15.253 15.0061 15.2037 15.3297 15.1121 15.6349L15.4933 15.6343L16.1146 15.4645C16.7736 15.2843 17.2475 14.7083 17.2973 14.0269L17.8001 7.15334C17.805 7.08526 17.8035 7.01685 17.7955 6.94906C17.726 6.35953 17.1917 5.93798 16.6022 6.0075C15.8956 6.09083 15.2043 6.2093 14.5283 6.36292C13.9085 6.50378 13.1763 6.74329 12.3316 7.08144C12.0589 7.19062 11.7545 7.19015 11.4821 7.0801C10.591 6.72003 9.88521 6.48097 9.36489 6.36292C8.75559 6.22468 8.03213 6.10865 7.19452 6.01483C7.12966 6.00756 7.06427 6.00622 6.99916 6.01082C6.40702 6.05263 5.96089 6.56656 6.00272 7.1587L6.48736 14.0217C6.53566 14.7057 7.01123 15.2842 7.67287 15.464ZM9.75371 14.6712C9.75371 15.0207 9.83713 15.3508 9.98515 15.6425H9.98537C10.1135 15.8951 10.2902 16.119 10.503 16.302V17.943C10.503 17.9744 10.5285 17.9999 10.5599 17.9999C10.5706 17.9999 10.5811 17.9969 10.5902 17.9912L11.5958 17.3585C11.7833 17.2405 12.0222 17.242 12.2081 17.3624L13.1792 17.9909C13.2056 18.0078 13.2407 18.0002 13.2577 17.974C13.2634 17.9652 13.2666 17.955 13.2668 17.9445C13.2827 17.269 13.2906 16.7253 13.2906 16.3135C13.757 15.9192 14.0532 15.3298 14.0532 14.6711C14.0532 13.4839 13.0908 12.5215 11.9036 12.5215C11.7238 12.5215 11.5492 12.5435 11.3824 12.5851C10.4469 12.818 9.75371 13.6636 9.75371 14.6712Z" fill="black"/>
</svg>
