<svg width="24" height="24" viewBox="0 0 24 24" fill="none" xmlns="http://www.w3.org/2000/svg">
<path d="M1.5 12C1.5 6.20101 6.20101 1.5 12 1.5C17.799 1.5 22.5 6.20101 22.5 12C22.5 17.799 17.799 22.5 12 22.5C6.20101 22.5 1.5 17.799 1.5 12ZM12 0C5.37258 0 0 5.37258 0 12C0 18.6274 5.37258 24 12 24C18.6274 24 24 18.6274 24 12C24 5.37258 18.6274 0 12 0Z" fill="black"/>
<path d="M9.40039 6C9.40039 5.44772 8.95267 5 8.40039 5C7.84811 5 7.40039 5.44772 7.40039 6V7.39941H6C5.44772 7.39941 5 7.84713 5 8.39941C5 8.9517 5.44772 9.39941 6 9.39941H7.40039V13.6C7.40039 15.2568 8.74354 16.6 10.4004 16.6H14.5996V17.9996C14.5996 18.5519 15.0473 18.9996 15.5996 18.9996C16.1519 18.9996 16.5996 18.5519 16.5996 17.9996V16.6H18.0003C18.5526 16.6 19.0003 16.1522 19.0003 15.6C19.0003 15.0477 18.5526 14.6 18.0003 14.6H15.626C15.6172 14.5997 15.6084 14.5996 15.5996 14.5996C15.5908 14.5996 15.582 14.5997 15.5732 14.6H10.4004C9.84811 14.6 9.40039 14.1522 9.40039 13.6V6ZM11 8.39941C11 8.9517 11.4477 9.39941 12 9.39941H13.6C14.1523 9.39941 14.6 9.84713 14.6 10.3994V11.9994C14.6 12.5517 15.0477 12.9994 15.6 12.9994C16.1523 12.9994 16.6 12.5517 16.6 11.9994V10.3994C16.6 8.74256 15.2568 7.39941 13.6 7.39941H12C11.4477 7.39941 11 7.84713 11 8.39941Z" fill="black"/>
</svg>
