<svg width="24" height="24" viewBox="0 0 24 24" fill="none" xmlns="http://www.w3.org/2000/svg">
<path d="M12 1.5C17.799 1.5 22.5 6.20101 22.5 12C22.5 17.799 17.799 22.5 12 22.5C6.20101 22.5 1.5 17.799 1.5 12C1.5 6.20101 6.20101 1.5 12 1.5ZM24 12C24 5.37258 18.6274 0 12 0C5.37258 0 0 5.37258 0 12C0 18.6274 5.37258 24 12 24C18.6274 24 24 18.6274 24 12ZM18.2472 14.8053V9.21704L12.8152 12.2848C12.7609 12.3155 12.7053 12.3429 12.6486 12.3669V18.8386C12.6635 18.8307 12.6783 18.8225 12.6929 18.8141L17.5529 16.0085C17.9827 15.7599 18.2472 15.3017 18.2472 14.8053ZM17.5529 7.99152L12.6929 5.1859C12.2631 4.93803 11.7341 4.93803 11.3043 5.1859L6.44429 7.99083C6.42946 7.9994 6.41482 8.00823 6.40038 8.01731L11.8288 11.1512C11.9361 11.2132 12.0681 11.2138 12.1759 11.1529L17.6566 8.05759C17.6232 8.03418 17.5886 8.01212 17.5529 7.99152ZM11.1788 12.2771L5.75092 9.14345C5.75031 9.16026 5.75 9.17712 5.75 9.19403V14.806C5.75 15.3024 6.01452 15.7606 6.44429 16.0085L11.3043 18.8141C11.319 18.8226 11.3337 18.8307 11.3486 18.8386V12.3625C11.2908 12.3375 11.2341 12.309 11.1788 12.2771Z" fill="black"/>
</svg>
