<svg width="24" height="24" viewBox="0 0 24 24" fill="none" xmlns="http://www.w3.org/2000/svg">
<path d="M8.05 6.32495C7.60817 6.32495 7.25 6.68312 7.25 7.12495C7.25 7.56678 7.60817 7.92495 8.05 7.92495H8.375V16.075H8.05C7.60817 16.075 7.25 16.4332 7.25 16.875C7.25 17.3169 7.60817 17.675 8.05 17.675H9.5V18C9.5 18.4418 9.85817 18.8 10.3 18.8C10.7418 18.8 11.1 18.4418 11.1 18V17.675H11.75V18C11.75 18.4418 12.1082 18.8 12.55 18.8C12.9918 18.8 13.35 18.4418 13.35 18V17.6577C13.9368 17.61 14.6468 17.4533 15.2724 17.0603C16.1134 16.532 16.725 15.6207 16.725 14.25C16.725 13.5584 16.5447 12.9627 16.2139 12.4707C15.8979 12.0006 15.4718 11.6654 15.022 11.4284C15.1691 11.3062 15.3066 11.1679 15.4295 11.0112C15.7778 10.5671 15.975 10.017 15.975 9.37496C15.975 8.09992 15.3043 7.28834 14.4762 6.84245C14.1147 6.64782 13.7257 6.52214 13.35 6.44344V5.99995C13.35 5.55812 12.9918 5.19995 12.55 5.19995C12.1082 5.19995 11.75 5.55812 11.75 5.99995V6.32495H11.1V5.99995C11.1 5.55812 10.7418 5.19995 10.3 5.19995C9.85817 5.19995 9.5 5.55812 9.5 5.99995V6.32495H8.05ZM9.975 12.425H12.175C12.872 12.425 13.6624 12.5305 14.2488 12.8298C14.5322 12.9744 14.7441 13.1521 14.8861 13.3634C15.0241 13.5687 15.125 13.8479 15.125 14.25C15.125 15.0669 14.7992 15.4681 14.4213 15.7054C13.9892 15.9769 13.4091 16.075 12.925 16.075H9.975V12.425ZM9.975 10.825V7.92495H12.175C12.674 7.92495 13.2732 8.01193 13.7176 8.2512C14.1083 8.46156 14.375 8.77499 14.375 9.37496C14.375 9.6704 14.291 9.87028 14.1705 10.0238C14.0408 10.1892 13.8353 10.3418 13.5419 10.4702C12.9403 10.7333 12.1319 10.825 11.425 10.825H9.975Z" fill="black"/>
<path d="M24 12C24 5.37258 18.6274 0 12 0C5.37258 0 0 5.37258 0 12C0 18.6274 5.37258 24 12 24C18.6274 24 24 18.6274 24 12ZM12 1.5C17.799 1.5 22.5 6.20101 22.5 12C22.5 17.799 17.799 22.5 12 22.5C6.20101 22.5 1.5 17.799 1.5 12C1.5 6.20101 6.20101 1.5 12 1.5Z" fill="black"/>
</svg>
