<svg width="24" height="24" viewBox="0 0 24 24" fill="none" xmlns="http://www.w3.org/2000/svg">
<path d="M12.4281 7.91637C12.936 7.85282 13.4035 7.97835 13.7769 8.22517C14.1059 8.45569 14.3574 8.86465 14.3905 9.49464C14.4165 9.99101 14.84 10.3723 15.3364 10.3463C15.8328 10.3202 16.214 9.89672 16.188 9.40034C16.1301 8.29662 15.6526 7.33424 14.7951 6.7408L14.7823 6.73207C14.0613 6.25127 13.1624 6.01242 12.2126 6.12931C11.4142 6.21637 10.5252 6.54664 9.84445 7.22738C9.14392 7.9279 8.7331 8.93216 8.80909 10.2085C8.81116 10.6617 8.86118 11.0628 8.90454 11.4105L8.90666 11.4275L8.90747 11.4343L8.96147 11.841C8.48211 11.861 8.09961 12.2559 8.09961 12.7402C8.09961 13.2373 8.50255 13.6402 8.99961 13.6402H9.1565C9.16802 13.8332 9.17504 14.0221 9.17504 14.2099C9.17504 15.0488 9.0167 15.837 8.65958 16.6307C8.53427 16.9092 8.55873 17.2322 8.72455 17.4887C8.89038 17.7451 9.17493 17.9 9.48032 17.9H14.8538C15.3508 17.9 15.7538 17.4971 15.7538 17C15.7538 16.5029 15.3508 16.1 14.8538 16.1H10.7451C10.9019 15.4795 10.975 14.852 10.975 14.2099C10.975 14.0186 10.969 13.8281 10.9592 13.6402H13.464C13.961 13.6402 14.364 13.2373 14.364 12.7402C14.364 12.2432 13.961 11.8402 13.464 11.8402H10.7772L10.6932 11.208L10.6928 11.2048C10.6469 10.8364 10.609 10.5249 10.609 10.1794C10.609 10.1599 10.6084 10.1404 10.6071 10.1209C10.5541 9.30706 10.8055 8.81196 11.1172 8.50017C11.452 8.16545 11.9316 7.96969 12.4122 7.91821L12.4281 7.91637Z" fill="black"/>
<path d="M24 12C24 5.37258 18.6274 0 12 0C5.37258 0 0 5.37258 0 12C0 18.6274 5.37258 24 12 24C18.6274 24 24 18.6274 24 12ZM12 1.5C17.799 1.5 22.5 6.20101 22.5 12C22.5 17.799 17.799 22.5 12 22.5C6.20101 22.5 1.5 17.799 1.5 12C1.5 6.20101 6.20101 1.5 12 1.5Z" fill="black"/>
</svg>
