<svg width="24" height="24" viewBox="0 0 24 24" fill="none" xmlns="http://www.w3.org/2000/svg">
<path d="M11.0932 7.00001V7.39825C9.65065 7.46468 8.5 8.65481 8.5 10.1157C8.5 11.3638 9.35089 12.4507 10.5584 12.7534L12.9879 13.3637C13.3993 13.4683 13.6863 13.8377 13.6863 14.2583C13.6863 14.7665 13.2746 15.1787 12.7659 15.1787H12.0628C12.0398 15.1769 12.0166 15.176 11.9932 15.176C11.9697 15.176 11.9465 15.1769 11.9235 15.1787H11.3449C11.0057 15.1787 10.7052 14.9989 10.5103 14.6799C10.2512 14.2557 9.69732 14.1219 9.27314 14.381C8.84896 14.6401 8.71514 15.194 8.97425 15.6182C9.41221 16.3352 10.1615 16.883 11.0932 16.9674V17.3726C11.0932 17.8697 11.4961 18.2726 11.9932 18.2726C12.4902 18.2726 12.8932 17.8697 12.8932 17.3726V16.9757C14.3376 16.9093 15.4863 15.7172 15.4863 14.2583C15.4863 13.0091 14.6353 11.924 13.429 11.6186L10.9956 11.0073C10.5879 10.9052 10.3 10.5374 10.3 10.1157C10.3 9.60705 10.7122 9.19533 11.2204 9.19533H11.9453C11.9611 9.19616 11.9771 9.19658 11.9932 9.19658C12.0092 9.19658 12.0252 9.19616 12.041 9.19533H12.6414C12.9789 9.19533 13.2788 9.37461 13.4718 9.69103C13.7306 10.1154 14.2844 10.2496 14.7088 9.99074C15.1331 9.73192 15.2673 9.17809 15.0085 8.75374C14.5713 8.03694 13.8218 7.49101 12.8932 7.40667V7.00001C12.8932 6.50295 12.4902 6.10001 11.9932 6.10001C11.4961 6.10001 11.0932 6.50295 11.0932 7.00001Z" fill="black"/>
<path d="M24 12C24 5.37258 18.6274 0 12 0C5.37258 0 0 5.37258 0 12C0 18.6274 5.37258 24 12 24C18.6274 24 24 18.6274 24 12ZM12 1.5C17.799 1.5 22.5 6.20101 22.5 12C22.5 17.799 17.799 22.5 12 22.5C6.20101 22.5 1.5 17.799 1.5 12C1.5 6.20101 6.20101 1.5 12 1.5Z" fill="black"/>
</svg>
