<svg width="24" height="24" viewBox="0 0 24 24" fill="none" xmlns="http://www.w3.org/2000/svg">
<path d="M12 1.5C17.799 1.5 22.5 6.20101 22.5 12C22.5 17.799 17.799 22.5 12 22.5C6.20101 22.5 1.5 17.799 1.5 12C1.5 6.20101 6.20101 1.5 12 1.5ZM24 12C24 5.37258 18.6274 0 12 0C5.37258 0 0 5.37258 0 12C0 18.6274 5.37258 24 12 24C18.6274 24 24 18.6274 24 12ZM9.49017 6.46003C9.19194 6.06238 8.62782 5.98179 8.23017 6.28003C7.83253 6.57826 7.75194 7.14238 8.05017 7.54003L10.2135 10.4244H8.5001C8.00304 10.4244 7.6001 10.8274 7.6001 11.3244C7.6001 11.8215 8.00304 12.2244 8.5001 12.2244H11.1134V12.9H8.5001C8.00304 12.9 7.6001 13.303 7.6001 13.8C7.6001 14.2971 8.00304 14.7 8.5001 14.7H11.1134V17C11.1134 17.4971 11.5164 17.9 12.0134 17.9C12.5105 17.9 12.9134 17.4971 12.9134 17V14.7H15.5271C16.0242 14.7 16.4271 14.2971 16.4271 13.8C16.4271 13.303 16.0242 12.9 15.5271 12.9H12.9134V12.2244H15.5271C16.0242 12.2244 16.4271 11.8215 16.4271 11.3244C16.4271 10.8274 16.0242 10.4244 15.5271 10.4244H13.8133L15.9767 7.54003C16.2749 7.14238 16.1943 6.57826 15.7967 6.28003C15.399 5.98179 14.8349 6.06238 14.5367 6.46003L12.0134 9.82435L9.49017 6.46003Z" fill="black"/>
</svg>
