<svg width="24" height="24" viewBox="0 0 24 24" fill="none" xmlns="http://www.w3.org/2000/svg">
<path d="M12 1.5C17.799 1.5 22.5 6.20101 22.5 12C22.5 17.799 17.799 22.5 12 22.5C6.20101 22.5 1.5 17.799 1.5 12C1.5 6.20101 6.20101 1.5 12 1.5ZM24 12C24 5.37258 18.6274 0 12 0C5.37258 0 0 5.37258 0 12C0 18.6274 5.37258 24 12 24C18.6274 24 24 18.6274 24 12ZM17.9186 8.21546C18.0377 7.81872 17.8125 7.40061 17.4158 7.28158C17.019 7.16256 16.6009 7.3877 16.4819 7.78444L16.1022 9.05005H13.4983L13.1186 7.78444C13.0253 7.4732 12.7421 7.25749 12.4172 7.25014C12.0924 7.2428 11.7997 7.44549 11.6924 7.75219L11.2381 9.05005H8.63588L8.32788 7.81805C8.22742 7.41621 7.82022 7.17189 7.41837 7.27235C7.01653 7.37281 6.77221 7.78001 6.87267 8.18186L7.08972 9.05005H6.0002C5.69644 9.05005 5.4502 9.29629 5.4502 9.60005C5.4502 9.90381 5.69644 10.15 6.0002 10.15H7.36472L7.68966 11.4498H6.0002C5.69644 11.4498 5.4502 11.6961 5.4502 11.9998C5.4502 12.3036 5.69644 12.5498 6.0002 12.5498H7.96466L8.87267 16.1819C8.95304 16.5033 9.23487 16.734 9.5659 16.7492C9.89693 16.7644 10.1987 16.5605 10.3082 16.2477L11.6024 12.5498H12.9822L14.0819 16.2155C14.1771 16.5327 14.4691 16.75 14.8003 16.75C15.1315 16.75 15.4235 16.5327 15.5186 16.2155L16.6183 12.5498H18.0002C18.304 12.5498 18.5502 12.3036 18.5502 11.9998C18.5502 11.6961 18.304 11.4498 18.0002 11.4498H16.9483L17.3383 10.15H18.0002C18.304 10.15 18.5502 9.90381 18.5502 9.60005C18.5502 9.29629 18.304 9.05005 18.0002 9.05005H17.6683L17.9186 8.21546ZM15.3823 11.4498H14.2183L13.8283 10.15H15.7722L15.3823 11.4498ZM14.5483 12.5498H15.0523L14.8003 13.3899L14.5483 12.5498ZM12.6522 11.4498H11.9874L12.3454 10.4271L12.6522 11.4498ZM10.3982 11.4498H9.23583L8.91088 10.15H10.8531L10.3982 11.4498ZM9.51083 12.5498H10.0132L9.72015 13.3871L9.51083 12.5498Z" fill="black"/>
</svg>
