<svg width="24" height="24" viewBox="0 0 24 24" fill="none" xmlns="http://www.w3.org/2000/svg">
<path d="M11.6841 6C11.6841 5.51675 11.2923 5.125 10.8091 5.125C10.3258 5.125 9.93408 5.51675 9.93408 6V8.19493L7.33048 10.4266C6.96357 10.7411 6.92107 11.2935 7.23557 11.6604C7.55006 12.0273 8.10245 12.0698 8.46936 11.7553L9.93408 10.4998V11.4159L7.69425 13.3358C7.32734 13.6503 7.28484 14.2027 7.59934 14.5696C7.91383 14.9365 8.46622 14.979 8.83313 14.6645L9.93408 13.7208V18C9.93408 18.2996 10.0873 18.5783 10.3402 18.7388C10.5932 18.8993 10.9106 18.9193 11.1817 18.7917C12.2829 18.2735 13.8748 17.287 15.0946 15.9784C16.3021 14.6831 17.2984 12.893 16.7442 10.8607C16.617 10.3945 16.136 10.1196 15.6698 10.2467C15.2035 10.3739 14.9287 10.8549 15.0558 11.3211C15.3743 12.4888 14.8555 13.6684 13.8145 14.7852C13.1799 15.466 12.4078 16.0572 11.6841 16.5162V12.2208L13.924 10.3008C14.2909 9.98635 14.3334 9.43396 14.0189 9.06705C13.7045 8.70014 13.1521 8.65765 12.7852 8.97214L11.6841 9.91592V8.99982L13.5603 7.39166C13.9272 7.07717 13.9697 6.52478 13.6552 6.15787C13.3407 5.79096 12.7883 5.74847 12.4214 6.06296L11.6841 6.69493V6Z" fill="black"/>
<path d="M24 12C24 5.37258 18.6274 0 12 0C5.37258 0 0 5.37258 0 12C0 18.6274 5.37258 24 12 24C18.6274 24 24 18.6274 24 12ZM12 1.5C17.799 1.5 22.5 6.20101 22.5 12C22.5 17.799 17.799 22.5 12 22.5C6.20101 22.5 1.5 17.799 1.5 12C1.5 6.20101 6.20101 1.5 12 1.5Z" fill="black"/>
</svg>
