<svg width="24" height="24" viewBox="0 0 24 24" fill="none" xmlns="http://www.w3.org/2000/svg">
<path d="M8 5.934C7.8748 6.08861 7.7998 6.28554 7.7998 6.49998C7.7998 6.7485 7.90054 6.9735 8.06341 7.13637C8.22628 7.29924 8.45128 7.39998 8.6998 7.39998C8.6998 7.39998 8.69981 7.39998 8.6998 7.39998H9.79981C10.1356 7.39998 10.4653 7.45522 10.769 7.56005C11.0728 7.6649 11.3395 7.81548 11.5571 7.99683C11.6889 8.10663 11.8002 8.22561 11.8912 8.34998H8.6998C8.20275 8.34998 7.7998 8.75292 7.7998 9.24998C7.7998 9.74703 8.20275 10.15 8.6998 10.15H11.8912C11.8002 10.2743 11.6889 10.3933 11.5571 10.5031C11.3395 10.6845 11.0728 10.835 10.769 10.9399C10.4653 11.0447 10.1356 11.1 9.79981 11.1H8.69981C8.35385 11.1 8.03851 11.2983 7.88864 11.6101C7.73877 11.9219 7.78091 12.292 7.99703 12.5622L12.397 18.0622C12.7075 18.4503 13.2739 18.5133 13.662 18.2028C14.0502 17.8923 14.1131 17.3259 13.8026 16.9377L10.5284 12.8449C10.8105 12.802 11.088 12.734 11.3563 12.6414C11.8533 12.4698 12.3142 12.2153 12.7094 11.8859C13.1049 11.5563 13.4293 11.1562 13.6545 10.7029C13.7434 10.5243 13.8158 10.3393 13.8709 10.15H15.2998C15.7969 10.15 16.1998 9.74703 16.1998 9.24998C16.1998 8.75292 15.7969 8.34998 15.2998 8.34998H13.8709C13.8158 8.16063 13.7434 7.9757 13.6545 7.797C13.5863 7.65962 13.5089 7.52712 13.4232 7.39998H15.2998C15.7969 7.39998 16.1998 6.99703 16.1998 6.49998C16.1998 6.00292 15.7969 5.59998 15.2998 5.59998H8.69981C8.69982 5.59998 8.69981 5.59998 8.69981 5.59998C8.4172 5.59998 8.165 5.73024 8 5.934Z" fill="black"/>
<path d="M24 12C24 5.37258 18.6274 0 12 0C5.37258 0 0 5.37258 0 12C0 18.6274 5.37258 24 12 24C18.6274 24 24 18.6274 24 12ZM12 1.5C17.799 1.5 22.5 6.20101 22.5 12C22.5 17.799 17.799 22.5 12 22.5C6.20101 22.5 1.5 17.799 1.5 12C1.5 6.20101 6.20101 1.5 12 1.5Z" fill="black"/>
</svg>
