<svg width="24" height="24" viewBox="0 0 24 24" fill="none" xmlns="http://www.w3.org/2000/svg">
<path d="M12 22.5C6.20101 22.5 1.5 17.799 1.5 12C1.5 6.20101 6.20101 1.5 12 1.5C17.799 1.5 22.5 6.20101 22.5 12C22.5 17.799 17.799 22.5 12 22.5ZM0 12C0 18.6274 5.37258 24 12 24C18.6274 24 24 18.6274 24 12C24 5.37258 18.6274 0 12 0C5.37258 0 0 5.37258 0 12ZM9.82138 9.53537C11.183 8.17379 13.3893 8.17379 14.7509 9.53537C15.0633 9.84779 15.5698 9.84779 15.8822 9.53537C16.1947 9.22295 16.1947 8.71642 15.8822 8.404C15.3168 7.83856 14.6515 7.43407 13.9431 7.19054V5.99995C13.9431 5.55812 13.5849 5.19995 13.1431 5.19995C12.7013 5.19995 12.3431 5.55812 12.3431 5.99995V6.9145C12.0179 6.91088 11.6925 6.93826 11.3716 6.99663V5.99995C11.3716 5.55812 11.0135 5.19995 10.5716 5.19995C10.1298 5.19995 9.77164 5.55812 9.77164 5.99995V7.57798C9.38457 7.79842 9.02025 8.07376 8.69001 8.404C6.70359 10.3904 6.70359 13.6098 8.69001 15.5962C9.02025 15.9265 9.38457 16.2018 9.77164 16.4222V18C9.77164 18.4418 10.1298 18.8 10.5716 18.8C11.0135 18.8 11.3716 18.4418 11.3716 18V17.0036C11.6925 17.062 12.0179 17.0893 12.3431 17.0857V18C12.3431 18.4418 12.7013 18.8 13.1431 18.8C13.5849 18.8 13.9431 18.4418 13.9431 18V16.8097C14.6515 16.5662 15.3168 16.1617 15.8822 15.5962C16.1947 15.2838 16.1947 14.7773 15.8822 14.4649C15.5698 14.1524 15.0633 14.1524 14.7509 14.4649C13.3893 15.8264 11.183 15.8264 9.82138 14.4649C8.4598 13.1033 8.4598 10.897 9.82138 9.53537Z" fill="black"/>
</svg>
