<svg width="24" height="24" viewBox="0 0 24 24" fill="none" xmlns="http://www.w3.org/2000/svg">
<path d="M16.588 10.4286C16.588 10.3725 16.5868 10.3165 16.5845 10.2607H16.9432C17.4126 10.2607 17.7932 9.88011 17.7932 9.41067C17.7932 8.94123 17.4126 8.56067 16.9432 8.56067H16.1254C15.8936 8.11756 15.5822 7.71718 15.2069 7.37563C14.7751 6.98261 14.2668 6.67459 13.7126 6.46566C13.1585 6.25675 12.567 6.15002 11.9713 6.15002H8.50587C8.28044 6.15002 8.06423 6.23958 7.90483 6.39898C7.74542 6.55839 7.65587 6.77459 7.65587 7.00002V8.56067H7.30032C6.83088 8.56067 6.45032 8.94123 6.45032 9.41067C6.45032 9.88011 6.83088 10.2607 7.30032 10.2607H7.65587V10.7418H7.30032C6.83088 10.7418 6.45032 11.1224 6.45032 11.5918C6.45032 12.0613 6.83088 12.4418 7.30032 12.4418H7.65587V19C7.65587 19.4695 8.03643 19.85 8.50587 19.85C8.97531 19.85 9.35587 19.4695 9.35587 19V14.7072H11.9713C12.567 14.7072 13.1585 14.6004 13.7126 14.3915C14.2668 14.1826 14.7751 13.8746 15.2069 13.4816C15.5407 13.1778 15.824 12.8274 16.0456 12.4418H16.9432C17.4126 12.4418 17.7932 12.0613 17.7932 11.5918C17.7932 11.1224 17.4126 10.7418 16.9432 10.7418H16.5756C16.5839 10.6378 16.588 10.5333 16.588 10.4286ZM14.8663 10.7418H9.35587V10.2607H14.8818C14.8859 10.3166 14.888 10.3726 14.888 10.4286C14.888 10.5333 14.8808 10.6379 14.8663 10.7418ZM13.7918 12.4418C13.5866 12.587 13.3585 12.7082 13.1129 12.8008C12.753 12.9365 12.3648 13.0072 11.9713 13.0072H9.35587V12.4418H13.7918ZM13.1129 8.05636C13.4365 8.17838 13.7296 8.35006 13.9801 8.56067H9.35587V7.85002H11.9713C12.3648 7.85002 12.753 7.92066 13.1129 8.05636Z" fill="black"/>
<path d="M24.0001 12C24.0001 5.37258 18.6275 0 12.0001 0C5.37271 0 0.00012207 5.37258 0.00012207 12C0.00012207 18.6274 5.37271 24 12.0001 24C18.6275 24 24.0001 18.6274 24.0001 12ZM12.0001 1.5C17.7991 1.5 22.5001 6.20101 22.5001 12C22.5001 17.799 17.7991 22.5 12.0001 22.5C6.20113 22.5 1.50012 17.799 1.50012 12C1.50012 6.20101 6.20113 1.5 12.0001 1.5Z" fill="black"/>
</svg>
