<svg width="24" height="24" viewBox="0 0 24 24" fill="none" xmlns="http://www.w3.org/2000/svg">
<path d="M12 22.5C6.20101 22.5 1.5 17.799 1.5 12C1.5 6.20101 6.20101 1.5 12 1.5C17.799 1.5 22.5 6.20101 22.5 12C22.5 17.799 17.799 22.5 12 22.5ZM0 12C0 18.6274 5.37258 24 12 24C18.6274 24 24 18.6274 24 12C24 5.37258 18.6274 0 12 0C5.37258 0 0 5.37258 0 12ZM5.29066 11.0065C4.90311 11.5485 4.90311 12.2776 5.29066 12.8195L7.87231 16.0693C8.25172 16.5469 8.82834 16.8252 9.43831 16.8252H17C18.1046 16.8252 19 15.9298 19 14.8252V9C19 7.89543 18.1046 7 17 7H9.43843C8.82839 7 8.25171 7.27842 7.87231 7.75611L5.29066 11.0065ZM10.7424 9.89351C10.9963 9.63966 11.4078 9.63966 11.6617 9.89351L12.7616 10.9934L13.8616 9.89351C14.1154 9.63966 14.527 9.63966 14.7808 9.89351C15.0346 10.1473 15.0346 10.5589 14.7808 10.8127L13.6809 11.9127L14.7808 13.0126C15.0346 13.2665 15.0346 13.678 14.7808 13.9319C14.527 14.1857 14.1154 14.1857 13.8616 13.9319L12.7616 12.8319L11.6617 13.9319C11.4078 14.1857 10.9963 14.1857 10.7424 13.9319C10.4886 13.678 10.4886 13.2665 10.7424 13.0126L11.8424 11.9127L10.7424 10.8127C10.4886 10.5589 10.4886 10.1473 10.7424 9.89351Z" fill="black"/>
</svg>
