<svg width="24" height="24" viewBox="0 0 24 24" fill="none" xmlns="http://www.w3.org/2000/svg">
<path d="M12 22.5C6.20101 22.5 1.5 17.799 1.5 12C1.5 6.20101 6.20101 1.5 12 1.5C17.799 1.5 22.5 6.20101 22.5 12C22.5 17.799 17.799 22.5 12 22.5ZM0 12C0 18.6274 5.37258 24 12 24C18.6274 24 24 18.6274 24 12C24 5.37258 18.6274 0 12 0C5.37258 0 0 5.37258 0 12ZM6.75 11C6.19772 11 5.75 11.4477 5.75 12C5.75 12.5523 6.19772 13 6.75 13H17.25C17.8023 13 18.25 12.5523 18.25 12C18.25 11.4477 17.8023 11 17.25 11H6.75ZM10.25 7.25279L10.25 7.25618C10.2547 8.22151 11.0384 8.99999 12.0028 8.99999C12.9678 8.99999 13.7537 8.21701 13.75 7.2483C13.7491 6.28288 12.9656 5.5 12 5.5C11.0326 5.5 10.25 6.28501 10.25 7.25279ZM12 15C11.0326 15 10.25 15.785 10.25 16.7528L10.25 16.7562C10.2547 17.7215 11.0384 18.5 12.0028 18.5C12.9678 18.5 13.7537 17.717 13.75 16.7483C13.7491 15.7829 12.9656 15 12 15Z" fill="black"/>
</svg>
