<svg width="24" height="24" viewBox="0 0 24 24" fill="none" xmlns="http://www.w3.org/2000/svg">
<path d="M12 22.5C6.20101 22.5 1.5 17.799 1.5 12C1.5 6.20101 6.20101 1.5 12 1.5C17.799 1.5 22.5 6.20101 22.5 12C22.5 17.799 17.799 22.5 12 22.5ZM0 12C0 18.6274 5.37258 24 12 24C18.6274 24 24 18.6274 24 12C24 5.37258 18.6274 0 12 0C5.37258 0 0 5.37258 0 12ZM16.4743 10.05L13.12 5.56174C12.56 4.81275 11.44 4.81275 10.88 5.56174L7.52432 10.05C4.76639 13.7403 7.39692 19 12 19C16.6031 19 19.2336 13.7403 16.4743 10.05Z" fill="black"/>
</svg>
