<svg width="24" height="24" viewBox="0 0 24 24" fill="none" xmlns="http://www.w3.org/2000/svg">
<path d="M1.5 12C1.5 6.20101 6.20101 1.5 12 1.5C17.799 1.5 22.5 6.20101 22.5 12C22.5 17.799 17.799 22.5 12 22.5C6.20101 22.5 1.5 17.799 1.5 12ZM12 0C5.37258 0 0 5.37258 0 12C0 18.6274 5.37258 24 12 24C18.6274 24 24 18.6274 24 12C24 5.37258 18.6274 0 12 0Z" fill="black"/>
<path d="M12.35 14.25L18.6515 7.94853C19.1201 7.4799 19.1201 6.7201 18.6515 6.25147L17.7485 5.34853C17.2799 4.8799 16.5201 4.8799 16.0515 5.34853L9.75 11.65V14.05C9.75 14.1605 9.83954 14.25 9.95 14.25H12.35Z" fill="black"/>
<path d="M8.5 7.74961H11.7C12.059 7.74961 12.35 7.45859 12.35 7.09961C12.35 6.74062 12.059 6.44961 11.7 6.44961H8.5C7.03644 6.44961 5.85 7.63606 5.85 9.09961V15.4996C5.85 16.9632 7.03645 18.1496 8.5 18.1496H14.9C16.3636 18.1496 17.55 16.9632 17.55 15.4996V12.2996C17.55 11.9406 17.259 11.6496 16.9 11.6496C16.541 11.6496 16.25 11.9406 16.25 12.2996V15.4996C16.25 16.2452 15.6456 16.8496 14.9 16.8496H8.5C7.75442 16.8496 7.15 16.2452 7.15 15.4996V9.09961C7.15 8.35403 7.75442 7.74961 8.5 7.74961Z" fill="black"/>
</svg>
