<svg width="24" height="24" viewBox="0 0 24 24" fill="none" xmlns="http://www.w3.org/2000/svg">
<path d="M1.5 12C1.5 6.20101 6.20101 1.5 12 1.5C17.799 1.5 22.5 6.20101 22.5 12C22.5 17.799 17.799 22.5 12 22.5C6.20101 22.5 1.5 17.799 1.5 12ZM12 0C5.37258 0 0 5.37258 0 12C0 18.6274 5.37258 24 12 24C18.6274 24 24 18.6274 24 12C24 5.37258 18.6274 0 12 0Z" fill="black"/>
<path d="M17.0055 12.3324L12.7832 5.99894C12.4665 5.52396 11.7685 5.52396 11.4519 5.99894L7.22956 12.3324C6.87513 12.8641 7.25625 13.5762 7.8952 13.5762H16.3398C16.9788 13.5762 17.3599 12.8641 17.0055 12.3324Z" fill="black"/>
<path d="M7.01367 15.6701V17.2009C7.01367 17.6428 7.37184 18.0009 7.81367 18.0009H16.4228C16.8647 18.0009 17.2228 17.6428 17.2228 17.2009V15.6701C17.2228 15.2283 16.8647 14.8701 16.4228 14.8701H7.81367C7.37184 14.8701 7.01367 15.2283 7.01367 15.6701Z" fill="black"/>
</svg>
