<svg width="24" height="24" viewBox="0 0 24 24" fill="none" xmlns="http://www.w3.org/2000/svg">
<path d="M1.5 12C1.5 6.20101 6.20101 1.5 12 1.5C17.799 1.5 22.5 6.20101 22.5 12C22.5 17.799 17.799 22.5 12 22.5C6.20101 22.5 1.5 17.799 1.5 12ZM12 24C18.6274 24 24 18.6274 24 12C24 5.37258 18.6274 0 12 0C5.37258 0 0 5.37258 0 12C0 18.6274 5.37258 24 12 24ZM7.05026 7.05026C4.31658 9.78391 4.31658 14.2161 7.05026 16.9497C9.78391 19.6834 14.2161 19.6834 16.9497 16.9497C19.6834 14.2161 19.6834 9.78393 16.9497 7.05026C14.2161 4.31658 9.78393 4.31658 7.05026 7.05026ZM8.88892 9.30566H9.66669C10.0809 9.30566 10.4167 9.64145 10.4167 10.0557C10.4167 10.4699 10.0809 10.8057 9.66669 10.8057H8.88892C8.4747 10.8057 8.13892 10.4699 8.13892 10.0557C8.13892 9.64145 8.4747 9.30566 8.88892 9.30566ZM15.4722 10.4443C15.4722 10.8585 15.1364 11.1943 14.7222 11.1943C14.308 11.1943 13.9722 10.8585 13.9722 10.4443V9.6665C13.9722 9.25229 14.308 8.9165 14.7222 8.9165C15.1364 8.9165 15.4722 9.25229 15.4722 9.6665V10.4443ZM8.74744 13.5605C9.03908 13.2688 9.51115 13.2676 9.80434 13.5568L9.80545 13.5578C9.80825 13.5605 9.81469 13.5665 9.82467 13.5754C9.84468 13.5933 9.87868 13.6226 9.926 13.6596C10.021 13.7339 10.1674 13.8377 10.3598 13.9426C10.7448 14.1525 11.3024 14.3613 12 14.3613C12.6972 14.3613 13.2548 14.1526 13.64 13.9425C13.8325 13.8376 13.979 13.7338 14.074 13.6595C14.1214 13.6225 14.1554 13.5931 14.1755 13.5753C14.1812 13.5701 14.1858 13.566 14.1892 13.5628C14.1917 13.5605 14.1935 13.5588 14.1947 13.5576L14.1959 13.5566C14.4891 13.2675 14.9612 13.2689 15.2528 13.5607C15.5455 13.8537 15.5454 14.3286 15.2523 14.6214C14.9593 14.9141 15.2514 14.6223 15.2514 14.6223L15.2504 14.6233L15.2481 14.6256L15.2423 14.6313L15.2259 14.6469C15.213 14.6592 15.1958 14.6751 15.1746 14.6941C15.1321 14.732 15.0731 14.7824 14.9981 14.841C14.8486 14.958 14.6334 15.1094 14.358 15.2595C13.8073 15.5598 13.0038 15.8613 12 15.8613C10.9958 15.8613 10.1923 15.5598 9.64165 15.2595C9.36621 15.1093 9.15115 14.9579 9.00161 14.8409C8.92667 14.7823 8.86766 14.7319 8.82521 14.6939C8.80397 14.6749 8.78682 14.659 8.77385 14.6468L8.7575 14.6311L8.75169 14.6254L8.74937 14.6231L8.74835 14.6221L8.74744 14.6212C8.45455 14.3283 8.45455 13.8534 8.74744 13.5605Z" fill="black"/>
</svg>
