<svg width="24" height="24" viewBox="0 0 24 24" fill="none" xmlns="http://www.w3.org/2000/svg">
<path d="M1.5 12C1.5 6.20101 6.20101 1.5 12 1.5C17.799 1.5 22.5 6.20101 22.5 12C22.5 17.799 17.799 22.5 12 22.5C6.20101 22.5 1.5 17.799 1.5 12ZM12 24C18.6274 24 24 18.6274 24 12C24 5.37258 18.6274 0 12 0C5.37258 0 0 5.37258 0 12C0 18.6274 5.37258 24 12 24ZM14.1923 13.969C14.1889 13.9723 14.1936 13.9679 14.1936 13.9679L14.1923 13.969Z" fill="black"/>
<path d="M5 12C5 15.8601 8.13989 19 12 19C15.8601 19 19 15.8593 19 12C19 8.14067 15.8593 5 12 5C8.13989 5 5 8.13989 5 12ZM14.7222 8.9165C15.1364 8.9165 15.4722 9.25229 15.4722 9.6665V10.4443C15.4722 10.8585 15.1364 11.1943 14.7222 11.1943C14.308 11.1943 13.9722 10.8585 13.9722 10.4443V9.6665C13.9722 9.25229 14.308 8.9165 14.7222 8.9165ZM10.0278 9.6665V10.4443C10.0278 10.8585 9.69198 11.1943 9.27777 11.1943C8.86356 11.1943 8.52777 10.8585 8.52777 10.4443V9.6665C8.52777 9.25229 8.86356 8.9165 9.27777 8.9165C9.69198 8.9165 10.0278 9.25229 10.0278 9.6665ZM14.1947 13.9668C14.488 13.6778 14.9612 13.6781 15.2527 13.9699C15.5455 14.2629 15.5453 14.7378 15.2523 15.0305C14.9593 15.3233 15.2514 15.0314 15.2514 15.0314L15.2504 15.0324L15.2481 15.0347L15.2423 15.0404L15.2259 15.0561C15.213 15.0684 15.1958 15.0843 15.1746 15.1033C15.1321 15.1412 15.0731 15.1916 14.9981 15.2502C14.8485 15.3672 14.6334 15.5185 14.358 15.6687C13.8073 15.9689 13.0038 16.2704 12 16.2704C10.9958 16.2704 10.1923 15.969 9.64165 15.6687C9.36621 15.5185 9.15115 15.3671 9.00161 15.2501C8.92667 15.1915 8.86766 15.141 8.82521 15.1031C8.80397 15.0841 8.78682 15.0682 8.77385 15.0559L8.7575 15.0402L8.75169 15.0345L8.74937 15.0322L8.74835 15.0312L8.74744 15.0303C8.45455 14.7374 8.45455 14.2626 8.74744 13.9697C9.03908 13.678 9.51115 13.6768 9.80434 13.9659L9.80545 13.967C9.80825 13.9696 9.81469 13.9757 9.82467 13.9846C9.84468 14.0025 9.87868 14.0318 9.926 14.0688C10.021 14.1431 10.1674 14.2468 10.3598 14.3518C10.7448 14.5617 11.3024 14.7704 12 14.7704C12.6972 14.7704 13.2548 14.5617 13.64 14.3517C13.8324 14.2468 13.979 14.143 14.074 14.0687C14.1214 14.0316 14.1736 13.9858 14.1936 13.9679C14.1936 13.9679 14.1889 13.9723 14.1923 13.969L14.1947 13.9668Z" fill="black"/>
</svg>
