<svg width="24" height="24" viewBox="0 0 24 24" fill="none" xmlns="http://www.w3.org/2000/svg">
<path d="M22.5 12C22.5 17.799 17.799 22.5 12 22.5C6.20101 22.5 1.5 17.799 1.5 12C1.5 6.20101 6.20101 1.5 12 1.5C17.799 1.5 22.5 6.20101 22.5 12ZM12 24C18.6274 24 24 18.6274 24 12C24 5.37258 18.6274 0 12 0C5.37258 0 0 5.37258 0 12C0 18.6274 5.37258 24 12 24Z" fill="black"/>
<path d="M8 7C6.89543 7 6 7.89543 6 9V14.8929C6 15.9975 6.89543 16.8929 8 16.8929H16C17.1046 16.8929 18 15.9975 18 14.8929V9C18 7.89543 17.1046 7 16 7H8ZM8.35678 9.18432L10.9247 11.1125C11.5516 11.5832 12.4141 11.5832 13.041 11.1125L15.5934 9.19601C15.8584 8.99704 16.2345 9.05056 16.4335 9.31555C16.6324 9.58054 16.5789 9.95665 16.3139 10.1556L13.7615 12.0721C12.7078 12.8633 11.258 12.8633 10.2042 12.0721L7.63626 10.1439C7.37127 9.94496 7.31775 9.56885 7.51672 9.30386C7.71568 9.03887 8.09179 8.98535 8.35678 9.18432Z" fill="black"/>
</svg>
