<svg width="24" height="24" viewBox="0 0 24 24" fill="none" xmlns="http://www.w3.org/2000/svg">
<path d="M12 22.5C6.20101 22.5 1.5 17.799 1.5 12C1.5 6.20101 6.20101 1.5 12 1.5C17.799 1.5 22.5 6.20101 22.5 12C22.5 17.799 17.799 22.5 12 22.5ZM0 12C0 18.6274 5.37258 24 12 24C18.6274 24 24 18.6274 24 12C24 5.37258 18.6274 0 12 0C5.37258 0 0 5.37258 0 12Z" fill="black"/>
<path d="M5.5 12.5577V16.4991C5.5 17.6037 6.39543 18.4991 7.5 18.4991H16.5C17.6046 18.4991 18.5 17.6037 18.5 16.4991V12.5561L14.2858 15.3914C12.9028 16.3218 11.0948 16.3218 9.71189 15.3914L5.5 12.5577ZM11.9731 5.50021C11.6996 5.50498 11.4271 5.58706 11.1899 5.74645L6.13871 9.1445C5.28793 9.7165 5.28793 10.9688 6.13943 11.5416L10.3818 14.3958C11.3597 15.0537 12.638 15.0537 13.6159 14.3958L17.8582 11.5416C18.2176 11.2996 18.4245 10.9366 18.4802 10.5547C18.5565 10.0326 18.3489 9.4753 17.8575 9.14451L12.8063 5.74646C12.5547 5.57737 12.2633 5.49529 11.9731 5.50021Z" fill="black"/>
</svg>
