<svg width="24" height="24" viewBox="0 0 24 24" fill="none" xmlns="http://www.w3.org/2000/svg">
<path d="M1.5 12C1.5 6.20101 6.20101 1.5 12 1.5C17.799 1.5 22.5 6.20101 22.5 12C22.5 17.799 17.799 22.5 12 22.5C6.20101 22.5 1.5 17.799 1.5 12ZM12 0C5.37258 0 0 5.37258 0 12C0 18.6274 5.37258 24 12 24C18.6274 24 24 18.6274 24 12C24 5.37258 18.6274 0 12 0ZM13.6841 7.96566L14.5686 8.8501H7.4998C7.05798 8.8501 6.6998 9.20827 6.6998 9.6501C6.6998 10.0919 7.05798 10.4501 7.4998 10.4501H14.5683L13.6841 11.3343C13.3717 11.6467 13.3717 12.1532 13.6841 12.4657C13.9965 12.7781 14.5031 12.7781 14.8155 12.4657L17.0571 10.2241C17.0965 10.1858 17.1319 10.1435 17.1628 10.0979C17.1766 10.0775 17.1894 10.0566 17.2011 10.0353C17.264 9.92107 17.2998 9.78976 17.2998 9.6501V9.65004L17.2996 9.63269C17.2979 9.55153 17.2839 9.47059 17.2576 9.39289C17.2194 9.28012 17.1554 9.17417 17.0655 9.08429L14.8155 6.83429C14.5031 6.52187 13.9965 6.52187 13.6841 6.83429C13.3717 7.14671 13.3717 7.65324 13.6841 7.96566ZM10.3159 11.8343C10.0035 11.5219 9.49693 11.5219 9.18451 11.8343L6.93451 14.0843C6.84463 14.1742 6.78061 14.2801 6.74244 14.3929C6.71614 14.4706 6.70212 14.5515 6.70038 14.6327L6.7002 14.65V14.6501C6.7002 14.7898 6.73599 14.9211 6.7989 15.0353C6.81022 15.0559 6.82252 15.0761 6.83579 15.0959C6.86699 15.1423 6.90293 15.1852 6.94291 15.2241L9.18451 17.4657C9.49693 17.7781 10.0035 17.7781 10.3159 17.4657C10.6283 17.1532 10.6283 16.6467 10.3159 16.3343L9.43169 15.4501H16.5002C16.942 15.4501 17.3002 15.0919 17.3002 14.6501C17.3002 14.2083 16.942 13.8501 16.5002 13.8501H9.43144L10.3159 12.9657C10.6283 12.6532 10.6283 12.1467 10.3159 11.8343Z" fill="black"/>
</svg>
