<svg width="24" height="24" viewBox="0 0 24 24" fill="none" xmlns="http://www.w3.org/2000/svg">
<path d="M12 22.5C6.20101 22.5 1.5 17.799 1.5 12C1.5 6.20101 6.20101 1.5 12 1.5C17.799 1.5 22.5 6.20101 22.5 12C22.5 17.799 17.799 22.5 12 22.5ZM0 12C0 18.6274 5.37258 24 12 24C18.6274 24 24 18.6274 24 12C24 5.37258 18.6274 0 12 0C5.37258 0 0 5.37258 0 12ZM12.8763 5.71802C13.1867 5.88283 13.4426 6.13187 13.6129 6.43583L18.7721 15.6424C19.2645 16.5211 18.9318 17.6224 18.0355 18.0982C17.7663 18.2412 17.465 18.316 17.159 18.316H6.84056C5.82695 18.316 5 17.511 5 16.5114C5 16.2075 5.0783 15.9086 5.22744 15.6424L10.3867 6.43583C10.8748 5.5648 11.9876 5.24621 12.8763 5.71802ZM12.016 9.5002L11.9985 9.5L11.9293 9.50317C11.5652 9.53664 11.2197 9.83661 11.2197 10.1956V10.2069L11.3683 13.7968L11.3729 13.8575C11.4114 14.1565 11.6764 14.3867 11.9962 14.3867C12.3374 14.3867 12.6163 14.1249 12.6246 13.7969L12.775 10.2069V10.144C12.7491 9.79334 12.3888 9.50897 12.016 9.5002ZM12.0162 15.0605C11.6189 15.0605 11.2969 15.3829 11.2969 15.7805C11.2969 16.1781 11.6189 16.5005 12.0162 16.5005C12.4135 16.5005 12.7355 16.1781 12.7355 15.7805C12.7355 15.3829 12.4135 15.0605 12.0162 15.0605Z" fill="black"/>
</svg>
