<svg width="24" height="24" viewBox="0 0 24 24" fill="none" xmlns="http://www.w3.org/2000/svg">
<path d="M1.5 12C1.5 6.20101 6.20101 1.5 12 1.5C17.799 1.5 22.5 6.20101 22.5 12C22.5 17.799 17.799 22.5 12 22.5C6.20101 22.5 1.5 17.799 1.5 12ZM12 0C5.37258 0 0 5.37258 0 12C0 18.6274 5.37258 24 12 24C18.6274 24 24 18.6274 24 12C24 5.37258 18.6274 0 12 0Z" fill="black"/>
<path d="M8.5 8.02943H11.6231C12.0649 8.02943 12.4231 7.67126 12.4231 7.22943C12.4231 6.7876 12.0649 6.42943 11.6231 6.42943H8.5C6.9536 6.42943 5.7 7.68303 5.7 9.22942V15.4756C5.7 17.022 6.9536 18.2756 8.5 18.2756H14.7462C16.2926 18.2756 17.5462 17.022 17.5462 15.4756V12.3525C17.5462 11.9107 17.188 11.5525 16.7462 11.5525C16.3043 11.5525 15.9462 11.9107 15.9462 12.3525V15.4756C15.9462 16.1383 15.4089 16.6756 14.7462 16.6756H8.5C7.83726 16.6756 7.3 16.1383 7.3 15.4756V9.22942C7.3 8.56668 7.83726 8.02943 8.5 8.02943Z" fill="black"/>
<path d="M18.2718 5.70284C17.9594 5.3904 17.4529 5.39036 17.1404 5.70276L12.6571 10.1855C12.3446 10.4979 12.3446 11.0044 12.657 11.3168C12.9694 11.6293 13.4759 11.6293 13.7884 11.3169L18.2717 6.83421C18.5841 6.52181 18.5842 6.01528 18.2718 5.70284Z" fill="black"/>
<path d="M18.1998 5.5H14.7165C14.4492 5.5 14.3153 5.82314 14.5043 6.01213L17.9877 9.49551C18.1767 9.6845 18.4998 9.55065 18.4998 9.28338V5.8C18.4998 5.63431 18.3655 5.5 18.1998 5.5Z" fill="black"/>
</svg>
