<svg width="24" height="24" viewBox="0 0 24 24" fill="none" xmlns="http://www.w3.org/2000/svg">
<path d="M1.5 12C1.5 6.20101 6.20101 1.5 12 1.5C17.799 1.5 22.5 6.20101 22.5 12C22.5 17.799 17.799 22.5 12 22.5C6.20101 22.5 1.5 17.799 1.5 12ZM12 0C5.37258 0 0 5.37258 0 12C0 18.6274 5.37258 24 12 24C18.6274 24 24 18.6274 24 12C24 5.37258 18.6274 0 12 0Z" fill="black"/>
<path d="M9.13644 8.86224C7.92232 9.62002 7.03654 10.7172 6.52187 11.4743C6.16575 11.9982 6.16575 12.6694 6.52187 13.1933C7.38072 14.4567 9.27299 16.6671 12 16.6671C13.4301 16.6671 14.6306 16.0592 15.5729 15.2987L13.5582 13.284C13.1887 13.7217 12.6341 14 12.014 14C10.9017 14 10 13.1045 10 12C10 11.3792 10.2848 10.8244 10.7318 10.4576L9.13644 8.86224ZM13.9856 11.5901L16.6533 14.2577C16.9895 13.8768 17.2654 13.506 17.478 13.1933C17.8342 12.6694 17.8342 11.9982 17.478 11.4743C16.6192 10.2109 14.7269 8.00049 12 8.00049C11.5041 8.00049 11.0358 8.07358 10.5963 8.20078L12.4404 10.0449C13.215 10.2108 13.8239 10.819 13.9856 11.5901ZM11.8134 11.5392C11.6255 11.6165 11.5 11.799 11.5 12C11.5 12.2663 11.7202 12.5 12.014 12.5C12.2273 12.5 12.4018 12.3767 12.4814 12.2072L11.8134 11.5392Z" fill="black"/>
<path d="M6.13569 6.13617C5.84279 6.42907 5.84279 6.90394 6.13569 7.19683L16.8023 17.8634C17.0952 18.1563 17.57 18.1563 17.8629 17.8634C18.1558 17.5705 18.1558 17.0956 17.8629 16.8028L7.19635 6.13617C6.90345 5.84328 6.42858 5.84328 6.13569 6.13617Z" fill="black"/>
</svg>
