<svg width="24" height="24" viewBox="0 0 24 24" fill="none" xmlns="http://www.w3.org/2000/svg">
<path d="M1.5 12C1.5 6.20101 6.20101 1.5 12 1.5C17.799 1.5 22.5 6.20101 22.5 12C22.5 17.799 17.799 22.5 12 22.5C6.20101 22.5 1.5 17.799 1.5 12ZM12 0C5.37258 0 0 5.37258 0 12C0 18.6274 5.37258 24 12 24C18.6274 24 24 18.6274 24 12C24 5.37258 18.6274 0 12 0Z" fill="black"/>
<path d="M5.80072 10.7785C5.24611 11.55 5.24611 12.5611 5.80072 13.3326C6.87733 14.8303 9.00806 17.1111 12.0001 17.1111C14.9921 17.1111 17.1228 14.8303 18.1994 13.3326C18.754 12.5611 18.754 11.55 18.1994 10.7785C17.1228 9.2808 14.9921 7 12.0001 7C9.00806 7 6.87733 9.2808 5.80072 10.7785ZM13.0654 12.0555C13.0654 11.4933 12.604 11.0222 12.0157 11.0222C11.4275 11.0222 10.9661 11.4933 10.9661 12.0555C10.9661 12.6177 11.4275 13.0888 12.0157 13.0888C12.604 13.0888 13.0654 12.6177 13.0654 12.0555ZM12.0157 14.3888C10.7181 14.3888 9.66608 13.3442 9.66608 12.0555C9.66608 10.7668 10.7181 9.72217 12.0157 9.72217C13.3134 9.72217 14.3654 10.7668 14.3654 12.0555C14.3654 13.3442 13.3134 14.3888 12.0157 14.3888Z" fill="black"/>
</svg>
