<svg width="24" height="24" viewBox="0 0 24 24" fill="none" xmlns="http://www.w3.org/2000/svg">
<path d="M22.5 12C22.5 17.799 17.799 22.5 12 22.5C6.20101 22.5 1.5 17.799 1.5 12C1.5 6.20101 6.20101 1.5 12 1.5C17.799 1.5 22.5 6.20101 22.5 12ZM12 0C5.37258 0 0 5.37258 0 12C0 18.6274 5.37258 24 12 24C18.6274 24 24 18.6274 24 12C24 5.37258 18.6274 0 12 0Z" fill="black"/>
<path d="M7.15039 7.80444C6.73618 7.80444 6.40039 8.14023 6.40039 8.55444V15.4115C6.40039 15.8257 6.73618 16.1615 7.15039 16.1615C7.5646 16.1615 7.90039 15.8257 7.90039 15.4115V8.55444C7.90039 8.14023 7.5646 7.80444 7.15039 7.80444Z" fill="black"/>
<path d="M12.2912 7.85659L8.04303 11.4207C7.60742 11.6927 7.60742 12.3267 8.0437 12.5981L12.2912 16.1622C12.7536 16.4517 13.3541 16.1187 13.3541 15.5731V13.5321L16.4884 16.1622C16.9509 16.4517 17.5513 16.1187 17.5513 15.5731V8.44566C17.5513 7.90015 16.9509 7.56775 16.4884 7.85659L13.3541 10.4863V8.44566C13.3541 7.90015 12.7536 7.56775 12.2912 7.85659Z" fill="black"/>
</svg>
