<svg width="24" height="24" viewBox="0 0 24 24" fill="none" xmlns="http://www.w3.org/2000/svg">
<path d="M1.5 12C1.5 6.20101 6.20101 1.5 12 1.5C17.799 1.5 22.5 6.20101 22.5 12C22.5 17.799 17.799 22.5 12 22.5C6.20101 22.5 1.5 17.799 1.5 12ZM12 0C5.37258 0 0 5.37258 0 12C0 18.6274 5.37258 24 12 24C18.6274 24 24 18.6274 24 12C24 5.37258 18.6274 0 12 0Z" fill="black"/>
<path d="M16.8496 7.80444C16.4354 7.80444 16.0996 8.14023 16.0996 8.55444V15.4115C16.0996 15.8257 16.4354 16.1615 16.8496 16.1615C17.2638 16.1615 17.5996 15.8257 17.5996 15.4115V8.55444C17.5996 8.14023 17.2638 7.80444 16.8496 7.80444Z" fill="black"/>
<path d="M11.7088 7.85659C11.2464 7.56775 10.6459 7.90015 10.6459 8.44566V10.4863L7.51156 7.85659C7.04915 7.56775 6.44868 7.90015 6.44868 8.44566V15.5731C6.44868 16.1187 7.04915 16.4517 7.51156 16.1622L10.6459 13.5321V15.5731C10.6459 16.1187 11.2464 16.4517 11.7088 16.1622L15.9563 12.5981C16.3926 12.3267 16.3926 11.6927 15.957 11.4207L11.7088 7.85659Z" fill="black"/>
</svg>
