<svg width="24" height="24" viewBox="0 0 24 24" fill="none" xmlns="http://www.w3.org/2000/svg">
<path d="M12 22.5C6.20101 22.5 1.5 17.799 1.5 12C1.5 6.20101 6.20101 1.5 12 1.5C17.799 1.5 22.5 6.20101 22.5 12C22.5 17.799 17.799 22.5 12 22.5ZM0 12C0 18.6274 5.37258 24 12 24C18.6274 24 24 18.6274 24 12C24 5.37258 18.6274 0 12 0C5.37258 0 0 5.37258 0 12ZM11.8281 16.3188C12.0914 16.3188 12.3441 16.215 12.5313 16.0298L13.926 14.6501H10.7392L12.0489 13.3501H15.2214L15.2399 13.3504L17.6304 10.9855C18.7898 9.82609 18.7898 8.02899 17.6304 6.86957C16.471 5.71014 14.6739 5.71014 13.5145 6.86957L8.47405 11.91C8.28651 12.0975 8.18115 12.3519 8.18115 12.6171V15.3188C8.18115 15.3315 8.18139 15.3442 8.18186 15.3568L6.04207 17.4807C5.78729 17.7336 5.78576 18.1452 6.03865 18.3999C6.29155 18.6547 6.7031 18.6563 6.95788 18.4034L9.06472 16.3121C9.10292 16.3166 9.14177 16.3188 9.18115 16.3188H11.8281Z" fill="black"/>
</svg>
