<svg width="24" height="24" viewBox="0 0 24 24" fill="none" xmlns="http://www.w3.org/2000/svg">
<path d="M12 22.4998C6.20101 22.4998 1.5 17.7987 1.5 11.9998C1.5 6.20077 6.20101 1.49976 12 1.49976C17.799 1.49976 22.5 6.20077 22.5 11.9998C22.5 17.7987 17.799 22.4998 12 22.4998ZM0 11.9998C0 18.6272 5.37258 23.9998 12 23.9998C18.6274 23.9998 24 18.6272 24 11.9998C24 5.37234 18.6274 -0.000244141 12 -0.000244141C5.37258 -0.000244141 0 5.37234 0 11.9998ZM8.40002 18.9998H15.6C16.7046 18.9998 17.6 18.1043 17.6 16.9998V11.2998V8.91015C17.6 8.42033 17.4203 7.94753 17.0948 7.58143L15.3967 5.67103C15.0172 5.24405 14.4732 4.99976 13.9019 4.99976H12H8.40002C7.29545 4.99976 6.40002 5.89519 6.40002 6.99976V16.9998C6.40002 18.1043 7.29545 18.9998 8.40002 18.9998ZM9.57154 13.8998C9.57154 13.955 9.52677 13.9998 9.47154 13.9998H8.79004C8.73482 13.9998 8.69005 13.955 8.69005 13.8998V11.8004C8.69005 11.7452 8.64527 11.7004 8.59004 11.7004H8.00002C7.9448 11.7004 7.90002 11.6556 7.90002 11.6004V11.0998C7.90002 11.0445 7.9448 10.9998 8.00002 10.9998H10.2616C10.3168 10.9998 10.3616 11.0445 10.3616 11.0998V11.6004C10.3616 11.6556 10.3168 11.7004 10.2616 11.7004H9.67154C9.61631 11.7004 9.57154 11.7452 9.57154 11.8004V13.8998ZM10.7151 13.9998C10.6378 13.9998 10.5897 13.9157 10.6289 13.8491L11.4198 12.5038C11.4225 12.4991 11.4239 12.4938 11.4239 12.4884C11.4239 12.4829 11.4224 12.4775 11.4196 12.4728L10.6288 11.1511C10.5889 11.0844 10.637 10.9998 10.7146 10.9998H11.5031C11.5412 10.9998 11.576 11.0214 11.5928 11.0555L12.0336 11.9486C12.0358 11.9532 12.0405 11.9561 12.0456 11.9561C12.0507 11.9561 12.0553 11.9532 12.0576 11.9487L12.5003 11.0553C12.5172 11.0213 12.5519 10.9998 12.5899 10.9998H13.3244C13.403 10.9998 13.4509 11.0862 13.4092 11.1528L12.5801 12.4771C12.5772 12.4817 12.5757 12.4871 12.5757 12.4925C12.5757 12.4979 12.5772 12.5032 12.58 12.5078L13.4067 13.8472C13.4478 13.9139 13.3999 13.9998 13.3216 13.9998H12.5777C12.5417 13.9998 12.5086 13.9805 12.4908 13.9493L12.0086 13.1035C12.0057 13.0985 12.0004 13.0954 11.9946 13.0954C11.9888 13.0954 11.9835 13.0985 11.9806 13.1035L11.5005 13.9491C11.4827 13.9804 11.4495 13.9998 11.4135 13.9998H10.7151ZM15.2553 13.9998H14.5738C14.5186 13.9998 14.4738 13.955 14.4738 13.8998V11.8004C14.4738 11.7452 14.4291 11.7004 14.3738 11.7004H13.7838C13.7286 11.7004 13.6838 11.6556 13.6838 11.6004V11.0998C13.6838 11.0445 13.7286 10.9998 13.7838 10.9998H16.0453C16.1006 10.9998 16.1453 11.0445 16.1453 11.0998V11.6004C16.1453 11.6556 16.1006 11.7004 16.0453 11.7004H15.4553C15.4001 11.7004 15.3553 11.7452 15.3553 11.8004V13.8998C15.3553 13.955 15.3106 13.9998 15.2553 13.9998Z" fill="black"/>
</svg>
