<svg width="25" height="24" viewBox="0 0 25 24" fill="none" xmlns="http://www.w3.org/2000/svg">
<path d="M8.87188 8.07987L8.87188 4.94069C7.66714 5.09542 6.75242 6.12648 6.77438 7.37632L6.93529 16.5332C6.95914 17.8908 8.0791 18.9924 9.43679 18.9938L15.5288 18.9998C16.8865 19.0011 17.9678 17.9017 17.9439 16.5441L17.8093 8.88315C17.8004 8.37523 17.6083 7.88422 17.2683 7.50052L15.6304 5.65181C15.2221 5.19097 14.6373 4.926 14.0273 4.9254L11.6814 4.92309L11.6814 8.07987L11.6816 8.12159C11.6826 8.2261 11.6835 8.33379 11.632 8.38927C11.5566 8.47039 11.3877 8.46107 11.2918 8.38927C10.8757 8.07742 10.2766 7.61807 10.2766 7.61807C10.2766 7.61807 9.66441 8.07707 9.24835 8.38927C9.15672 8.45784 9.01241 8.46166 8.93773 8.38927C8.87357 8.32708 8.87188 8.20304 8.87188 8.07987ZM9.76406 14.773C9.76371 14.5017 9.98353 14.2815 10.255 14.2811L14.4689 14.2757C14.7404 14.2753 14.9608 14.495 14.9612 14.7663C14.9615 15.0376 14.7417 15.2578 14.4702 15.2582L10.2563 15.2636C9.9848 15.264 9.76441 15.0443 9.76406 14.773ZM10.2528 12.5252L14.4666 12.5198C14.7382 12.5194 14.9585 12.7391 14.9589 13.0104C14.9592 13.2817 14.7394 13.5019 14.4679 13.5023L10.254 13.5077C9.98253 13.5081 9.76214 13.2884 9.76179 13.0171C9.76144 12.7458 9.98126 12.5256 10.2528 12.5252ZM9.75953 11.2612C9.75918 10.9899 9.979 10.7697 10.2505 10.7693L14.4644 10.7639C14.7359 10.7635 14.9563 10.9832 14.9566 11.2545C14.957 11.5258 14.7372 11.746 14.4656 11.7464L10.2518 11.7518C9.98027 11.7521 9.75988 11.5325 9.75953 11.2612Z" fill="black"/>
<path d="M12.3808 23.9995C19.0082 23.9995 24.3603 18.6017 24.3354 11.9997C24.3104 5.39777 18.9173 2.68888e-05 12.2899 6.10353e-05C5.6625 9.51828e-05 0.310354 5.39789 0.335353 11.9999C0.360353 18.6018 5.75337 23.9996 12.3808 23.9995ZM1.83914 11.9999C1.81725 6.21775 6.50617 1.49811 12.2956 1.49808C18.085 1.49805 22.8097 6.21764 22.8316 11.9997C22.8535 17.7819 18.1645 22.5015 12.3751 22.5015C6.5857 22.5016 1.86104 17.782 1.83914 11.9999Z" fill="black"/>
</svg>
