<svg width="24" height="24" viewBox="0 0 24 24" fill="none" xmlns="http://www.w3.org/2000/svg">
<path d="M12 1.49976C17.799 1.49976 22.5 6.20077 22.5 11.9998C22.5 17.7987 17.799 22.4998 12 22.4998C6.20101 22.4998 1.5 17.7987 1.5 11.9998C1.5 6.20077 6.20101 1.49976 12 1.49976ZM24 11.9998C24 5.37234 18.6274 -0.000244141 12 -0.000244141C5.37258 -0.000244141 0 5.37234 0 11.9998C0 18.6272 5.37258 23.9998 12 23.9998C18.6274 23.9998 24 18.6272 24 11.9998ZM15.9998 18.8103C17.1044 18.8103 17.9998 17.9149 17.9998 16.8103L17.9998 8.7207C17.9998 8.23087 17.82 7.75808 17.4946 7.39197L15.7965 5.48158C15.417 5.0546 14.8729 4.8103 14.3017 4.8103H8.7998C7.69523 4.8103 6.7998 5.70573 6.7998 6.8103L6.7998 11.0733L10.3559 11.073V9.37971C10.3559 9.00553 10.8083 8.81814 11.0729 9.08273L13.5298 11.5396C13.6938 11.7036 13.6938 11.9696 13.5298 12.1336L11.0729 14.5905C10.8083 14.8551 10.3559 14.6677 10.3559 14.2935V12.5731L6.8494 12.5733L6.84949 11.0735L4.69915 11.0736C4.28493 11.0737 3.94922 11.4096 3.94932 11.8238C3.94941 12.238 4.28527 12.5737 4.69948 12.5736L6.7998 12.5735V16.8103C6.7998 17.9149 7.69523 18.8103 8.7998 18.8103L15.9998 18.8103Z" fill="black"/>
</svg>
