<svg width="24" height="24" viewBox="0 0 24 24" fill="none" xmlns="http://www.w3.org/2000/svg">
<path d="M12 1.49976C17.799 1.49976 22.5 6.20077 22.5 11.9998C22.5 17.7987 17.799 22.4998 12 22.4998C6.20101 22.4998 1.5 17.7987 1.5 11.9998C1.5 6.20077 6.20101 1.49976 12 1.49976ZM24 11.9998C24 5.37234 18.6274 -0.000244141 12 -0.000244141C5.37258 -0.000244141 0 5.37234 0 11.9998C0 18.6272 5.37258 23.9998 12 23.9998C18.6274 23.9998 24 18.6272 24 11.9998ZM8.40039 18.9998H15.6004C16.705 18.9998 17.6004 18.1043 17.6004 16.9998V11.2998V8.91015C17.6004 8.42033 17.4206 7.94753 17.0952 7.58143L15.3971 5.67103C15.0175 5.24405 14.4735 4.99976 13.9023 4.99976H12.0004H8.40039C7.29582 4.99976 6.40039 5.89519 6.40039 6.99976V16.9998C6.40039 18.1043 7.29582 18.9998 8.40039 18.9998ZM11.9825 9.49993C12.3021 9.50744 12.6109 9.75119 12.6331 10.0517V10.1057L12.5042 13.1828C12.4971 13.464 12.258 13.6883 11.9655 13.6883C11.6914 13.6883 11.4643 13.4911 11.4313 13.2348L11.4274 13.1828L11.3 10.1057V10.096C11.3 9.78828 11.5961 9.53116 11.9082 9.50248L11.9675 9.49976L11.9825 9.49993ZM11.9833 14.2656C12.3238 14.2656 12.5998 14.5419 12.5998 14.8827C12.5998 15.2235 12.3238 15.4998 11.9833 15.4998C11.6428 15.4998 11.3667 15.2235 11.3667 14.8827C11.3667 14.5419 11.6428 14.2656 11.9833 14.2656Z" fill="black"/>
</svg>
