<svg width="24" height="24" viewBox="0 0 24 24" fill="none" xmlns="http://www.w3.org/2000/svg">
<path d="M12 1.49976C17.799 1.49976 22.5 6.20077 22.5 11.9998C22.5 17.7987 17.799 22.4998 12 22.4998C6.20101 22.4998 1.5 17.7987 1.5 11.9998C1.5 6.20077 6.20101 1.49976 12 1.49976ZM24 11.9998C24 5.37234 18.6274 -0.000244141 12 -0.000244141C5.37258 -0.000244141 0 5.37234 0 11.9998C0 18.6272 5.37258 23.9998 12 23.9998C18.6274 23.9998 24 18.6272 24 11.9998ZM15.5999 18.9998C16.7045 18.9998 17.5999 18.1043 17.5999 16.9998V11.2998V8.91015C17.5999 8.42033 17.4201 7.94753 17.0947 7.58143L15.3966 5.67103C15.0171 5.24405 14.473 4.99976 13.9018 4.99976H11.9999H8.3999C7.29533 4.99976 6.3999 5.89519 6.3999 6.99976V16.9998C6.3999 18.1043 7.29533 18.9998 8.3999 18.9998H15.5999ZM8.15059 15.3568C8.15059 15.2242 8.20326 15.0971 8.29703 15.0033L9.24395 14.0564C9.4199 13.8804 9.69844 13.8606 9.8975 14.0099L10.6263 14.5566C10.8154 14.6983 11.0778 14.6884 11.2556 14.5328L13.4293 12.6309C13.6143 12.469 13.8897 12.4656 14.0786 12.6231L15.6707 13.9498C15.7847 14.0448 15.8506 14.1855 15.8506 14.3339V16.7497C15.8506 17.0259 15.6267 17.2497 15.3506 17.2497H8.65059C8.37444 17.2497 8.15059 17.0259 8.15059 16.7497V15.3568ZM10.6005 11.9997C10.6005 12.5796 10.1304 13.0497 9.55049 13.0497C8.97059 13.0497 8.50049 12.5796 8.50049 11.9997C8.50049 11.4198 8.97059 10.9497 9.55049 10.9497C10.1304 10.9497 10.6005 11.4198 10.6005 11.9997Z" fill="black"/>
</svg>
