<svg width="24" height="24" viewBox="0 0 24 24" fill="none" xmlns="http://www.w3.org/2000/svg">
<path d="M12 1.49982C17.799 1.49982 22.5 6.20083 22.5 11.9998C22.5 17.7988 17.799 22.4998 12 22.4998C6.20101 22.4998 1.5 17.7988 1.5 11.9998C1.5 6.20083 6.20101 1.49982 12 1.49982ZM24 11.9998C24 5.3724 18.6274 -0.000183105 12 -0.000183105C5.37258 -0.000183105 0 5.3724 0 11.9998C0 18.6272 5.37258 23.9998 12 23.9998C18.6274 23.9998 24 18.6272 24 11.9998ZM8.40039 18.9998H15.6004C16.705 18.9998 17.6004 18.1044 17.6004 16.9998V11.2998V8.91022C17.6004 8.42039 17.4206 7.94759 17.0952 7.58149L15.3971 5.67109C15.0175 5.24411 14.4735 4.99982 13.9023 4.99982H12.0004H8.40039C7.29582 4.99982 6.40039 5.89525 6.40039 6.99982V16.9998C6.40039 18.1044 7.29582 18.9998 8.40039 18.9998ZM9.88187 11.0517C10.1824 10.1688 11.0164 9.53302 12.0009 9.53302C13.2381 9.53302 14.2409 10.5358 14.2409 11.773C15.0656 11.773 15.7342 12.4417 15.7342 13.2664C15.7342 14.091 15.0656 14.7597 14.2409 14.7597H10.1342C9.10347 14.7597 8.26758 13.9238 8.26758 12.893C8.26758 11.9485 8.97131 11.1761 9.88187 11.0517Z" fill="black"/>
</svg>
