<svg width="24" height="24" viewBox="0 0 24 24" fill="none" xmlns="http://www.w3.org/2000/svg">
<path d="M12 1.49976C17.799 1.49976 22.5 6.20077 22.5 11.9998C22.5 17.7987 17.799 22.4998 12 22.4998C6.20101 22.4998 1.5 17.7987 1.5 11.9998C1.5 6.20077 6.20101 1.49976 12 1.49976ZM24 11.9998C24 5.37234 18.6274 -0.000244141 12 -0.000244141C5.37258 -0.000244141 0 5.37234 0 11.9998C0 18.6272 5.37258 23.9998 12 23.9998C18.6274 23.9998 24 18.6272 24 11.9998ZM15.6 18.9998C16.7046 18.9998 17.6 18.1043 17.6 16.9998V11.2998V8.91015C17.6 8.42033 17.4203 7.94753 17.0948 7.58143L15.3967 5.67103C15.0172 5.24405 14.4732 4.99976 13.9019 4.99976H12H8.40002C7.29546 4.99976 6.40002 5.89519 6.40002 6.99976V16.9998C6.40002 18.1043 7.29545 18.9998 8.40002 18.9998H15.6ZM14.2844 11.4027V11.8878H15.0986C15.3195 11.8878 15.4986 12.0669 15.4986 12.2878C15.4986 12.5087 15.3195 12.6878 15.0986 12.6878H14.2844V13.5777C14.2844 13.7986 14.1053 13.9777 13.8844 13.9777C13.6635 13.9777 13.4844 13.7986 13.4844 13.5777V12.2878V11.0027C13.4844 10.7817 13.6635 10.6027 13.8844 10.6027H15.3506C15.5715 10.6027 15.7506 10.7817 15.7506 11.0027C15.7506 11.2236 15.5715 11.4027 15.3506 11.4027H14.2844ZM12.7434 10.9997V13.5771C12.7434 13.798 12.5643 13.9771 12.3434 13.9771C12.1225 13.9771 11.9434 13.798 11.9434 13.5771V10.9997C11.9434 10.7788 12.1225 10.5997 12.3434 10.5997C12.5643 10.5997 12.7434 10.7788 12.7434 10.9997ZM8.25003 12.2884C8.25003 11.3556 9.00587 10.5997 9.93869 10.5997H10.7978C11.0187 10.5997 11.1978 10.7788 11.1978 10.9997C11.1978 11.2206 11.0187 11.3997 10.7978 11.3997H9.93869C9.44769 11.3997 9.05003 11.7974 9.05003 12.2884C9.05003 12.7794 9.44769 13.1771 9.93869 13.1771H10.3978V12.6884H10.0819C9.86097 12.6884 9.68188 12.5093 9.68188 12.2884C9.68188 12.0675 9.86097 11.8884 10.0819 11.8884H10.7978C11.0187 11.8884 11.1978 12.0675 11.1978 12.2884V13.5771C11.1978 13.798 11.0187 13.9771 10.7978 13.9771H9.93869C9.00587 13.9771 8.25003 13.2212 8.25003 12.2884Z" fill="black"/>
</svg>
