<svg width="24" height="24" viewBox="0 0 24 24" fill="none" xmlns="http://www.w3.org/2000/svg">
<path d="M12 22.5C6.20101 22.5 1.5 17.799 1.5 12C1.5 6.20101 6.20101 1.5 12 1.5C17.799 1.5 22.5 6.20101 22.5 12C22.5 17.799 17.799 22.5 12 22.5ZM0 12C0 18.6274 5.37258 24 12 24C18.6274 24 24 18.6274 24 12C24 5.37258 18.6274 0 12 0C5.37258 0 0 5.37258 0 12ZM15.4242 5.50002H15.4243C16.6249 5.50513 17.6038 6.48231 17.6116 7.68227L17.5485 11.1809L17.5484 11.1809L17.5484 11.192C17.5514 11.8989 16.982 12.4683 16.2751 12.4653C15.5668 12.4623 14.9887 11.8859 14.9829 11.1783L15.0492 7.67689L15.0493 7.67689L15.0493 7.66534C15.0484 7.45076 15.2203 7.27884 15.4348 7.27974C15.6509 7.28064 15.8282 7.45627 15.832 7.67168L15.7638 10.7241C15.7577 11.0002 15.9765 11.2289 16.2526 11.2351C16.5286 11.2413 16.7574 11.0225 16.7636 10.7464L16.8319 7.68606L16.8321 7.68606L16.832 7.67281C16.8288 6.90598 16.2058 6.28296 15.439 6.27975C14.671 6.27653 14.0495 6.896 14.0493 7.66311L13.9829 11.1656L13.9828 11.1656L13.9829 11.1772C13.9881 12.4362 15.0119 13.46 16.2709 13.4653C17.5314 13.4706 18.5505 12.4534 18.5484 11.1937L18.6116 7.69448L18.6117 7.69448L18.6117 7.68337C18.6044 5.93196 17.1798 4.50744 15.4285 4.50003L15.4284 4.50003C13.6757 4.49278 12.2591 5.90737 12.2633 7.65939L12.2001 11.1586C12.1951 11.4347 12.4149 11.6625 12.691 11.6675C12.9671 11.6725 13.1949 11.4527 13.1999 11.1766L13.2633 7.67213L13.2634 7.67213L13.2633 7.66101C13.2583 6.46188 14.2251 5.49509 15.4242 5.50002ZM11.6 7.23636C11.6 6.67416 11.7407 6.13818 11.9925 5.66673H11.3333H8.33332C7.04467 5.66673 6 6.7114 6 8.00006V16.6667C6 17.9554 7.04467 19 8.33332 19H14.3333C15.622 19 16.6666 17.9554 16.6666 16.6667V14.0707C14.2441 14.489 13.2666 12.5318 13.2666 12C12.6 13 11.6 12.3334 11.6 11.6667V7.23636Z" fill="black"/>
</svg>
