<svg width="24" height="24" viewBox="0 0 24 24" fill="none" xmlns="http://www.w3.org/2000/svg">
<path d="M17.6004 16.9998V8.91015C17.6004 8.42033 17.4206 7.94753 17.0952 7.58143L15.3971 5.67103C15.0175 5.24405 14.4735 4.99976 13.9023 4.99976H8.40039C7.29582 4.99976 6.40039 5.89519 6.40039 6.99976V16.9998C6.40039 18.1043 7.29582 18.9998 8.40039 18.9998H15.6004C16.705 18.9998 17.6004 18.1043 17.6004 16.9998ZM12.4674 9.99976V13.7923L13.7801 12.4796C13.9753 12.2843 14.2919 12.2843 14.4872 12.4796C14.6825 12.6748 14.6825 12.9914 14.4872 13.1867L12.3206 15.3533C12.1253 15.5486 11.8087 15.5486 11.6135 15.3533L9.44684 13.1867C9.25157 12.9914 9.25157 12.6748 9.44684 12.4796C9.6421 12.2843 9.95868 12.2843 10.1539 12.4796L11.4674 13.793V9.99976C11.4674 9.72361 11.6912 9.49976 11.9674 9.49976C12.2435 9.49976 12.4674 9.72361 12.4674 9.99976Z" fill="black"/>
<path d="M24 11.9998C24 5.37234 18.6274 -0.000244141 12 -0.000244141C5.37258 -0.000244141 0 5.37234 0 11.9998C0 18.6272 5.37258 23.9998 12 23.9998C18.6274 23.9998 24 18.6272 24 11.9998ZM12 22.4998C6.20101 22.4998 1.5 17.7987 1.5 11.9998C1.5 6.20077 6.20101 1.49976 12 1.49976C17.799 1.49976 22.5 6.20077 22.5 11.9998C22.5 17.7987 17.799 22.4998 12 22.4998Z" fill="black"/>
</svg>
