<svg width="24" height="24" viewBox="0 0 24 24" fill="none" xmlns="http://www.w3.org/2000/svg">
<path d="M12 1.49976C17.799 1.49976 22.5 6.20077 22.5 11.9998C22.5 17.7987 17.799 22.4998 12 22.4998C6.20101 22.4998 1.5 17.7987 1.5 11.9998C1.5 6.20077 6.20101 1.49976 12 1.49976ZM24 11.9998C24 5.37234 18.6274 -0.000244141 12 -0.000244141C5.37258 -0.000244141 0 5.37234 0 11.9998C0 18.6272 5.37258 23.9998 12 23.9998C18.6274 23.9998 24 18.6272 24 11.9998ZM8.40033 18.9998H15.6003C16.7049 18.9998 17.6003 18.1043 17.6003 16.9998V11.2998V8.91015C17.6003 8.42033 17.4206 7.94753 17.0951 7.58143L15.397 5.67103C15.0175 5.24405 14.4735 4.99976 13.9022 4.99976H12.0003H8.40033C7.29576 4.99976 6.40033 5.89519 6.40033 6.99976V16.9998C6.40033 18.1043 7.29576 18.9998 8.40033 18.9998ZM15.347 10.4998L14.2803 14.9998H12.8302L12.1735 11.9708H12.1469L11.5016 14.9998H10.0742L8.99994 10.4998H10.3589L10.8866 13.6774H10.9132L11.5433 10.4998H12.8302L13.468 13.6774H13.4945L14.0184 10.4998H15.347Z" fill="black"/>
</svg>
