<svg width="24" height="24" viewBox="0 0 24 24" fill="none" xmlns="http://www.w3.org/2000/svg">
<path d="M12 1.49982C17.799 1.49982 22.5 6.20083 22.5 11.9998C22.5 17.7988 17.799 22.4998 12 22.4998C6.20101 22.4998 1.5 17.7988 1.5 11.9998C1.5 6.20083 6.20101 1.49982 12 1.49982ZM24 11.9998C24 5.3724 18.6274 -0.000183105 12 -0.000183105C5.37258 -0.000183105 0 5.3724 0 11.9998C0 18.6272 5.37258 23.9998 12 23.9998C18.6274 23.9998 24 18.6272 24 11.9998ZM15.6004 18.9998C16.705 18.9998 17.6004 18.1044 17.6004 16.9998V11.2998V8.91022C17.6004 8.42039 17.4206 7.94759 17.0952 7.58149L15.3971 5.67109C15.0175 5.24411 14.4735 4.99982 13.9023 4.99982H12.0004H8.40039C7.29582 4.99982 6.40039 5.89525 6.40039 6.99982V16.9998C6.40039 18.1044 7.29582 18.9998 8.40039 18.9998H15.6004ZM14.9901 14.7968C14.9952 14.8252 14.9984 14.8729 14.9999 14.9401C15.0065 15.2425 14.7611 15.4928 14.4519 15.4993L14.4399 15.4994H9.56017C9.2508 15.4994 9 15.2543 9 14.9518L9.00014 14.9394C9.00162 14.8759 9.00473 14.8306 9.00947 14.8036C9.1742 13.8639 9.9679 13.14 10.9411 13.1011L11.0237 13.0994H12.9771C13.9853 13.0994 14.818 13.834 14.9901 14.7968ZM12.0001 12.4998C11.1716 12.4998 10.5001 11.8283 10.5001 10.9998C10.5001 10.1714 11.1716 9.49982 12.0001 9.49982C12.8285 9.49982 13.5001 10.1714 13.5001 10.9998C13.5001 11.8283 12.8285 12.4998 12.0001 12.4998Z" fill="black"/>
</svg>
