<svg width="24" height="24" viewBox="0 0 24 24" fill="none" xmlns="http://www.w3.org/2000/svg">
<path d="M12 22.4998C6.20101 22.4998 1.5 17.7987 1.5 11.9998C1.5 6.20077 6.20101 1.49976 12 1.49976C17.799 1.49976 22.5 6.20077 22.5 11.9998C22.5 17.7987 17.799 22.4998 12 22.4998ZM0 11.9998C0 18.6272 5.37258 23.9998 12 23.9998C18.6274 23.9998 24 18.6272 24 11.9998C24 5.37234 18.6274 -0.000244141 12 -0.000244141C5.37258 -0.000244141 0 5.37234 0 11.9998ZM15.6004 18.9998C16.705 18.9998 17.6004 18.1043 17.6004 16.9998V11.2998V8.91015C17.6004 8.42033 17.4206 7.94753 17.0952 7.58143L15.3971 5.67103C15.0175 5.24405 14.4735 4.99976 13.9023 4.99976H12.0004H8.40039C7.29582 4.99976 6.40039 5.89519 6.40039 6.99976V16.9998C6.40039 18.1043 7.29582 18.9998 8.40039 18.9998H15.6004ZM12.5006 10.2V11.7004H14C14.2761 11.7004 14.5 11.9243 14.5 12.2004C14.5 12.4766 14.2761 12.7004 14 12.7004H12.5006V14.2C12.5006 14.4761 12.2767 14.7 12.0006 14.7C11.7244 14.7 11.5006 14.4761 11.5006 14.2V12.7004H10C9.72386 12.7004 9.5 12.4766 9.5 12.2004C9.5 11.9243 9.72386 11.7004 10 11.7004H11.5006V10.2C11.5006 9.92381 11.7244 9.69995 12.0006 9.69995C12.2767 9.69995 12.5006 9.92381 12.5006 10.2Z" fill="black"/>
</svg>
