<svg width="24" height="24" viewBox="0 0 24 24" fill="none" xmlns="http://www.w3.org/2000/svg">
<path d="M12 1.49976C17.799 1.49976 22.5 6.20077 22.5 11.9998C22.5 17.7987 17.799 22.4998 12 22.4998C6.20101 22.4998 1.5 17.7987 1.5 11.9998C1.5 6.20077 6.20101 1.49976 12 1.49976ZM24 11.9998C24 5.37234 18.6274 -0.000244141 12 -0.000244141C5.37258 -0.000244141 0 5.37234 0 11.9998C0 18.6272 5.37258 23.9998 12 23.9998C18.6274 23.9998 24 18.6272 24 11.9998ZM8.40039 18.9998H15.6004C16.705 18.9998 17.6004 18.1043 17.6004 16.9998V11.2998V8.91015C17.6004 8.42033 17.4206 7.94753 17.0952 7.58143L15.3971 5.67103C15.0175 5.24405 14.4735 4.99976 13.9023 4.99976H12.0004H8.40039C7.29582 4.99976 6.40039 5.89519 6.40039 6.99976V16.9998C6.40039 18.1043 7.29582 18.9998 8.40039 18.9998ZM11.4945 15.3728C11.4814 15.3308 11.4622 15.2853 11.4348 15.237C11.3533 15.0931 11.2759 14.986 11.2005 14.8819L11.2005 14.8819L11.2005 14.8819C11.175 14.8467 11.1498 14.8118 11.1247 14.776C11.0357 14.6487 10.9244 14.4775 10.9244 14.2585C10.9244 14.1911 10.9345 14.1076 10.9427 14.0396L10.9475 13.9989C10.9573 13.9134 10.9643 13.8327 10.9615 13.755C10.956 13.6048 10.9163 13.4992 10.8092 13.4219C10.7392 13.3715 10.6483 13.3303 10.5223 13.2838C10.4885 13.2713 10.4505 13.2578 10.4097 13.2435L10.4097 13.2434L10.4097 13.2434C10.3132 13.2094 10.2018 13.1701 10.0977 13.1258C9.77687 12.9895 9.43394 12.7728 9.1865 12.309C9.15693 12.2536 9.12949 12.2007 9.10406 12.1502C9.09037 12.2648 9.08333 12.3815 9.08333 12.4998C9.08333 13.9382 10.1246 15.1334 11.4945 15.3728ZM13.3915 15.0637C14.1697 14.6405 14.7337 13.8734 14.8795 12.9665C14.7909 12.9482 14.7059 12.9268 14.6259 12.9018C14.4292 12.8405 14.2341 12.7492 14.0967 12.6069C13.9209 12.4246 13.8382 12.2251 13.8396 12.0265C13.8409 11.8418 13.9146 11.6937 13.9873 11.5961C14.0755 11.4636 14.2211 11.271 14.3842 11.1083C14.4211 11.0715 14.4605 11.0346 14.5018 10.9995C14.131 10.3826 13.5385 9.91407 12.8345 9.70422C12.8416 9.71354 12.8484 9.72298 12.8548 9.73253C12.9042 9.8054 13.0041 9.99387 12.8771 10.186C12.8222 10.2692 12.7532 10.3292 12.7017 10.3701C12.6785 10.3886 12.6547 10.4062 12.6353 10.4206L12.6352 10.4207L12.6352 10.4208L12.6284 10.4258C12.6062 10.4424 12.5898 10.4547 12.5758 10.4663L12.5719 10.4696C12.5965 10.5652 12.6325 10.7079 12.6217 10.8393C12.6144 10.9276 12.5871 11.0213 12.5245 11.1084C12.4636 11.1933 12.3818 11.2543 12.2926 11.2993C12.2165 11.3377 12.1481 11.3594 12.09 11.373C12.0509 11.5923 11.8828 11.7348 11.7593 11.8131C11.7104 11.844 11.6588 11.8714 11.6068 11.8953L11.3511 12.0871C11.4301 12.146 11.5578 12.2262 11.7609 12.3287L11.8225 12.3598L11.8636 12.4151C11.8742 12.4294 11.9115 12.4713 11.9701 12.5136C12.0276 12.5551 12.093 12.5878 12.1599 12.6013C12.2029 12.61 12.2905 12.614 12.4404 12.618L12.4619 12.6186L12.462 12.6186C12.594 12.6221 12.7545 12.6264 12.9128 12.6416C13.0776 12.6574 13.2604 12.6867 13.4214 12.7498C13.581 12.8123 13.7598 12.9246 13.8474 13.131C13.9269 13.318 13.9089 13.5278 13.875 13.6958C13.8394 13.8725 13.7745 14.0557 13.7094 14.2181C13.6618 14.3367 13.61 14.454 13.5662 14.553L13.5661 14.5533C13.5503 14.5889 13.5356 14.6222 13.5225 14.6524C13.4965 14.7123 13.4774 14.7584 13.465 14.7929C13.4632 14.7978 13.4618 14.8021 13.4605 14.8057C13.4587 14.8114 13.4573 14.8156 13.4564 14.8187C13.4513 14.909 13.4182 14.9981 13.3945 15.0563L13.3915 15.0637ZM15.0468 10.776C15.3353 11.2848 15.5 11.8731 15.5 12.4998C15.5 14.4328 13.933 15.9998 12 15.9998C10.067 15.9998 8.5 14.4328 8.5 12.4998C8.5 10.5668 10.067 8.99976 12 8.99976C13.3018 8.99976 14.4375 9.71044 15.0405 10.765L15.0474 10.7653L15.0468 10.776Z" fill="black"/>
</svg>
