<svg width="24" height="24" viewBox="0 0 24 24" fill="none" xmlns="http://www.w3.org/2000/svg">
<path d="M12 22.4998C6.20101 22.4998 1.5 17.7987 1.5 11.9998C1.5 6.20077 6.20101 1.49976 12 1.49976C17.799 1.49976 22.5 6.20077 22.5 11.9998C22.5 17.7987 17.799 22.4998 12 22.4998ZM0 11.9998C0 18.6272 5.37258 23.9998 12 23.9998C18.6274 23.9998 24 18.6272 24 11.9998C24 5.37234 18.6274 -0.000244141 12 -0.000244141C5.37258 -0.000244141 0 5.37234 0 11.9998ZM8.40039 18.9998H15.6004C16.705 18.9998 17.6004 18.1043 17.6004 16.9998V11.2998V8.91015C17.6004 8.42033 17.4206 7.94753 17.0952 7.58143L15.3971 5.67103C15.0175 5.24405 14.4735 4.99976 13.9023 4.99976H12.0004H8.40039C7.29582 4.99976 6.40039 5.89519 6.40039 6.99976V16.9998C6.40039 18.1043 7.29582 18.9998 8.40039 18.9998ZM13.5999 16.2998H10.3999C9.84762 16.2998 9.3999 15.852 9.3999 15.2998V9.49976C9.3999 8.94747 9.84762 8.49976 10.3999 8.49976H13.5999C14.1522 8.49976 14.5999 8.94747 14.5999 9.49976V15.2998C14.5999 15.852 14.1522 16.2998 13.5999 16.2998ZM11.9893 14.1328C11.7078 14.1328 11.4795 14.3611 11.4795 14.6426C11.4795 14.9242 11.7078 15.1524 11.9893 15.1524H12.0097C12.2913 15.1524 12.5195 14.9242 12.5195 14.6426C12.5195 14.3611 12.2913 14.1328 12.0097 14.1328H11.9893Z" fill="black"/>
</svg>
