<svg width="24" height="24" viewBox="0 0 24 24" fill="none" xmlns="http://www.w3.org/2000/svg">
<path d="M12 22.4998C6.20101 22.4998 1.5 17.7987 1.5 11.9998C1.5 6.20077 6.20101 1.49976 12 1.49976C17.799 1.49976 22.5 6.20077 22.5 11.9998C22.5 17.7987 17.799 22.4998 12 22.4998ZM0 11.9998C0 18.6272 5.37258 23.9998 12 23.9998C18.6274 23.9998 24 18.6272 24 11.9998C24 5.37234 18.6274 -0.000244141 12 -0.000244141C5.37258 -0.000244141 0 5.37234 0 11.9998ZM15.3967 5.48157C15.0171 5.0546 14.4731 4.8103 13.9019 4.8103H8.4C7.29543 4.8103 6.4 5.70573 6.4 6.8103V16.8103C6.4 17.9149 7.29543 18.8103 8.4 18.8103H15.6C16.7046 18.8103 17.6 17.9149 17.6 16.8103V8.7207C17.6 8.23087 17.4202 7.75808 17.0948 7.39197L15.3967 5.48157ZM14.2287 16.1667C13.9811 16.156 13.7229 16.1509 13.4959 16.1586C13.2563 16.1667 13.0958 16.1882 13.019 16.2118C12.909 16.2458 12.7527 16.3214 12.6047 16.4029C12.535 16.4412 12.4743 16.4769 12.4311 16.5029C12.4279 16.5049 12.4248 16.5068 12.4218 16.5086C12.4048 16.5189 12.3919 16.5267 12.3872 16.5288L12.3907 16.5263L12.3919 16.5254L12.3924 16.5246C12.3907 16.5223 12.372 16.4965 12.1653 16.214L12.099 16.1233L12.0975 16.1213L12.1982 16.2791C12.3336 16.4914 12.3602 16.5331 12.3665 16.5426L12.3675 16.542C12.368 16.5418 12.3685 16.5415 12.374 16.5373L12.3656 16.5441C12.3502 16.5549 12.3286 16.57 12.3019 16.5878L12.2419 16.6274C12.1976 16.656 12.1451 16.6888 12.087 16.7226C11.9272 16.816 11.6718 16.9506 11.4172 16.9995L11.3222 17.0138C11.0968 17.0382 10.8493 16.9962 10.6491 16.8103C10.4456 16.6214 10.3853 16.3664 10.3641 16.1856C10.3243 15.8475 10.3879 15.4088 10.44 15.0497C10.4431 15.0283 10.4462 15.0071 10.4492 14.9862C10.5099 14.5648 10.553 14.2277 10.5265 13.9955C10.524 13.9731 10.521 13.9543 10.518 13.9387L10.511 13.9113L10.5379 13.9105L10.5492 13.9106C10.5496 13.9103 10.5469 13.9095 10.537 13.9043L10.5243 13.8974C10.5171 13.8925 10.5093 13.8858 10.4988 13.8729C10.4991 13.8738 10.5035 13.882 10.509 13.9012L10.511 13.9113L10.4984 13.913C10.428 13.9235 10.3356 13.9687 10.2171 14.0995C10.0738 14.2578 9.9402 14.4921 9.82459 14.761C9.71126 15.0246 9.62692 15.2935 9.57062 15.4995C9.5427 15.6017 9.5222 15.6863 9.50885 15.7448C9.50219 15.7739 9.49733 15.7963 9.49425 15.8109L9.49097 15.8267L9.49032 15.8299C9.43735 16.101 9.1747 16.2776 8.90369 16.2246C8.63268 16.1717 8.45592 15.909 8.5089 15.6381L8.50907 15.6372L8.50958 15.6346L8.51095 15.6277L8.5158 15.6044C8.51997 15.5847 8.52604 15.5566 8.53405 15.5216C8.55004 15.4517 8.57389 15.3533 8.60601 15.2358C8.66978 15.0025 8.76826 14.6862 8.90588 14.3661C9.04123 14.0513 9.22677 13.7033 9.47601 13.4282C9.7265 13.1516 10.088 12.9007 10.5592 12.9107L10.6781 12.9195C10.9123 12.9496 11.1227 13.0553 11.2773 13.2452C11.4392 13.4441 11.4975 13.6843 11.5201 13.8822C11.5636 14.2638 11.4958 14.7343 11.4416 15.1104L11.4389 15.1288C11.3946 15.4365 11.3602 15.6841 11.3525 15.872L11.351 15.9763L11.418 15.9471C11.4691 15.9226 11.5248 15.893 11.5826 15.8593C11.6476 15.8212 11.7042 15.7846 11.7445 15.7576C11.7644 15.7442 11.78 15.7334 11.79 15.7263L11.8008 15.7188L11.8027 15.7174L11.8152 15.7083L11.8286 15.6996L11.829 15.6994L11.8302 15.6986L11.8311 15.6981L11.8361 15.695L11.8535 15.684C11.8683 15.6748 11.8891 15.6621 11.915 15.6465C11.9665 15.6153 12.0388 15.5729 12.1223 15.5269C12.2808 15.4396 12.5117 15.3217 12.7249 15.2561C12.9372 15.1908 13.2116 15.1678 13.4619 15.1592C13.7248 15.1503 14.0113 15.1562 14.2723 15.1676C14.5344 15.1791 14.777 15.1962 14.9537 15.2105C15.0422 15.2176 15.1147 15.224 15.1652 15.2287C15.1793 15.2299 15.1917 15.2311 15.2023 15.2321C15.2107 15.2329 15.218 15.2336 15.2241 15.2343L15.2399 15.2358L15.2442 15.2362L15.2454 15.2364L15.245 15.2433L15.246 15.2364C15.5207 15.2643 15.7208 15.5097 15.6928 15.7844C15.6648 16.0591 15.4194 16.2593 15.1447 16.2313L15.1408 16.2309L15.1272 16.2295C15.115 16.2283 15.0968 16.2266 15.0733 16.2244C15.0261 16.2201 14.9577 16.2139 14.8736 16.2072C14.705 16.1936 14.4751 16.1775 14.2287 16.1667ZM12.3872 16.5288L12.3841 16.5309L12.382 16.5313L12.3872 16.5288Z" fill="black"/>
</svg>
