<svg width="25" height="24" viewBox="0 0 25 24" fill="none" xmlns="http://www.w3.org/2000/svg">
<path d="M12.1908 22.5015C6.40149 22.509 1.67084 17.7955 1.64148 12.0133C1.61213 6.2312 6.29486 1.50547 12.0842 1.49797C17.8735 1.49047 22.6041 6.20401 22.6335 11.9861C22.6628 17.7683 17.9801 22.494 12.1908 22.5015ZM0.137724 12.0153C0.171239 18.6173 5.57111 24.0081 12.1984 23.9995C18.8257 23.9909 24.1707 18.5862 24.1372 11.9842C24.1037 5.3822 18.7038 -0.00863325 12.0766 -5.08016e-05C5.44928 0.00853164 0.104208 5.41328 0.137724 12.0153ZM8.64308 19.0038L15.7685 18.9992C16.8731 18.9985 17.7597 18.1025 17.7489 16.998L17.6929 11.296L17.6694 8.90163C17.6646 8.4142 17.482 7.94366 17.1558 7.57844L15.4534 5.67226C15.0696 5.24242 14.5211 4.99643 13.9474 4.99679L12.0683 4.998L8.50562 5.00029C7.40105 5.001 6.5144 5.89698 6.52525 7.00151L6.62344 17.0051C6.63429 18.1096 7.53851 19.0045 8.64308 19.0038ZM11.9897 12.6989C11.989 12.4232 12.2129 12.199 12.4897 12.1983L14.9458 12.192C15.2226 12.1913 15.4476 12.4143 15.4483 12.69C15.449 12.9658 15.2252 13.1899 14.9484 13.1907L12.4923 13.197C12.2154 13.1977 11.9904 12.9747 11.9897 12.6989ZM12.4964 14.82L14.9525 14.8137C15.2294 14.813 15.4544 15.036 15.4551 15.3117C15.4558 15.5875 15.2319 15.8116 14.9551 15.8123L12.499 15.8187C12.2222 15.8194 11.9972 15.5964 11.9965 15.3206C11.9958 15.0449 12.2196 14.8207 12.4964 14.82ZM8.82427 9.91083C8.82356 9.63506 9.0474 9.41093 9.32423 9.41022L14.9382 9.39577C15.215 9.39505 15.44 9.61803 15.4407 9.8938C15.4414 10.1696 15.2176 10.3937 14.9407 10.3944L9.3268 10.4089C9.04997 10.4096 8.82498 10.1866 8.82427 9.91083ZM11.0896 12.5299L10.2181 13.4067C10.1245 13.5008 9.99701 13.5539 9.86377 13.554C9.73053 13.5542 9.6025 13.5015 9.50797 13.4076L8.97984 12.883C8.78344 12.6879 8.7824 12.3718 8.97751 12.1768C9.17262 11.9819 9.49 11.9821 9.68639 12.1771L9.85767 12.3473L10.3759 11.8259C10.5704 11.6303 10.8877 11.6293 11.0848 11.8237C11.2819 12.0181 11.284 12.3343 11.0896 12.5299ZM11.0915 14.4454C11.2886 14.6398 11.2908 14.956 11.0964 15.1516L10.2248 16.0284C10.1313 16.1225 10.0038 16.1756 9.87051 16.1757C9.73727 16.1759 9.60924 16.1232 9.51471 16.0293L8.98659 15.5047C8.79019 15.3096 8.78915 14.9935 8.98426 14.7985C9.17937 14.6036 9.49674 14.6038 9.69314 14.7989L9.86441 14.969L10.3827 14.4476C10.5771 14.252 10.8945 14.251 11.0915 14.4454Z" fill="black"/>
</svg>
