<svg width="24" height="24" viewBox="0 0 24 24" fill="none" xmlns="http://www.w3.org/2000/svg">
<path d="M12 22.4998C6.20101 22.4998 1.5 17.7987 1.5 11.9998C1.5 6.20077 6.20101 1.49976 12 1.49976C17.799 1.49976 22.5 6.20077 22.5 11.9998C22.5 17.7987 17.799 22.4998 12 22.4998ZM0 11.9998C0 18.6272 5.37258 23.9998 12 23.9998C18.6274 23.9998 24 18.6272 24 11.9998C24 5.37234 18.6274 -0.000244141 12 -0.000244141C5.37258 -0.000244141 0 5.37234 0 11.9998ZM8.40002 18.9998H15.6C16.7046 18.9998 17.6 18.1043 17.6 16.9998V11.2998V8.91015C17.6 8.42033 17.4203 7.94753 17.0948 7.58143L15.3967 5.67103C15.0172 5.24405 14.4732 4.99976 13.9019 4.99976H12H8.40002C7.29545 4.99976 6.40002 5.89519 6.40002 6.99976V16.9998C6.40002 18.1043 7.29545 18.9998 8.40002 18.9998ZM11.728 9.49976C12.593 9.49976 13.3352 10.2419 13.3352 11.107C13.3352 11.8289 12.8184 12.4651 12.1446 12.656V12.7737C12.1446 13.0038 11.9581 13.1904 11.728 13.1904C11.4978 13.1904 11.3113 13.0038 11.3113 12.7737V12.2975C11.3113 12.0674 11.4978 11.8808 11.728 11.8808C12.1328 11.8808 12.5018 11.5118 12.5018 11.107C12.5018 10.7021 12.1328 10.3331 11.728 10.3331C11.4521 10.3331 11.1386 10.5585 10.9895 10.8568C10.8866 11.0626 10.6363 11.146 10.4304 11.0431C10.2246 10.9402 10.1412 10.6899 10.2441 10.4841C10.4918 9.98867 11.0514 9.49976 11.728 9.49976ZM12.1447 14.0829V14.0832C12.1447 14.3133 11.9581 14.4999 11.728 14.4999C11.4979 14.4999 11.3113 14.3133 11.3113 14.0832V14.0829C11.3113 13.8528 11.4979 13.6663 11.728 13.6663C11.9581 13.6663 12.1447 13.8528 12.1447 14.0829Z" fill="black"/>
</svg>
