<svg width="24" height="24" viewBox="0 0 24 24" fill="none" xmlns="http://www.w3.org/2000/svg">
<path d="M12 22.5C6.20101 22.5 1.5 17.799 1.5 12C1.5 6.20101 6.20101 1.5 12 1.5C17.799 1.5 22.5 6.20101 22.5 12C22.5 17.799 17.799 22.5 12 22.5ZM0 12C0 18.6274 5.37258 24 12 24C18.6274 24 24 18.6274 24 12C24 5.37258 18.6274 0 12 0C5.37258 0 0 5.37258 0 12ZM15.6004 19C16.705 19 17.6004 18.1046 17.6004 17V11.3V8.9104C17.6004 8.42057 17.4206 7.94777 17.0952 7.58167L15.3971 5.67127C15.0175 5.2443 14.4735 5 13.9023 5H12.0004H8.40039C7.29582 5 6.40039 5.89543 6.40039 7V17C6.40039 18.1046 7.29582 19 8.40039 19H15.6004Z" fill="black"/>
</svg>
