<svg width="24" height="24" viewBox="0 0 24 24" fill="none" xmlns="http://www.w3.org/2000/svg">
<path d="M12 1.49976C17.799 1.49976 22.5 6.20077 22.5 11.9998C22.5 17.7987 17.799 22.4998 12 22.4998C6.20101 22.4998 1.5 17.7987 1.5 11.9998C1.5 6.20077 6.20101 1.49976 12 1.49976ZM24 11.9998C24 5.37234 18.6274 -0.000244141 12 -0.000244141C5.37258 -0.000244141 0 5.37234 0 11.9998C0 18.6272 5.37258 23.9998 12 23.9998C18.6274 23.9998 24 18.6272 24 11.9998ZM8.40039 18.9998H15.6004C16.705 18.9998 17.6004 18.1043 17.6004 16.9998V11.2998V8.91015C17.6004 8.42033 17.4206 7.94753 17.0952 7.58143L15.3971 5.67103C15.0175 5.24405 14.4735 4.99976 13.9023 4.99976H12.0004H8.40039C7.29582 4.99976 6.40039 5.89519 6.40039 6.99976V16.9998C6.40039 18.1043 7.29582 18.9998 8.40039 18.9998ZM12.2953 9.5276H12.3673C12.6392 9.5276 12.9165 9.57559 13.1991 9.67156C13.487 9.7622 13.7323 9.89816 13.9349 10.0794L13.2711 10.8232C13.1484 10.6899 13.0018 10.586 12.8312 10.5113C12.6606 10.4313 12.482 10.3914 12.2953 10.3914V11.9909L12.3273 11.9989C12.5513 12.0575 12.7699 12.1242 12.9831 12.1988C13.2017 12.2735 13.3937 12.3721 13.559 12.4948C13.7296 12.6121 13.8656 12.7613 13.9669 12.9426C14.0735 13.1239 14.1268 13.3505 14.1268 13.6224C14.1268 13.889 14.0788 14.1263 13.9829 14.3342C13.8869 14.5368 13.7563 14.7128 13.591 14.8621C13.4257 15.006 13.2311 15.1207 13.0071 15.206C12.7885 15.2913 12.5513 15.3473 12.2953 15.3739V15.9498H11.8635V15.3819C11.5116 15.3873 11.173 15.3339 10.8478 15.222C10.5278 15.11 10.2453 14.9261 10 14.6701L10.7278 13.9263C10.8558 14.1076 11.021 14.2462 11.2236 14.3422C11.4263 14.4382 11.6395 14.4968 11.8635 14.5182V12.8307L11.8235 12.8227C11.5995 12.7587 11.3863 12.6894 11.1837 12.6147C10.9811 12.5347 10.7998 12.4334 10.6398 12.3108C10.4852 12.1828 10.3626 12.0309 10.2719 11.8549C10.1813 11.6737 10.136 11.4497 10.136 11.1831C10.136 10.9432 10.1839 10.7273 10.2799 10.5353C10.3759 10.3434 10.5039 10.1781 10.6638 10.0395C10.8238 9.8955 11.0077 9.78086 11.2157 9.69555C11.4236 9.61025 11.6395 9.55693 11.8635 9.5356V8.99976H12.2953V9.5276ZM11.8635 10.4074C11.6769 10.4393 11.5089 10.5193 11.3596 10.6473C11.2157 10.7699 11.1437 10.9325 11.1437 11.1351C11.1437 11.2578 11.1623 11.3564 11.1997 11.4311C11.2423 11.5057 11.2956 11.5697 11.3596 11.623C11.4236 11.6763 11.4982 11.7216 11.5835 11.759C11.6742 11.791 11.7675 11.8283 11.8635 11.8709V10.4074ZM12.2953 14.5182C12.4073 14.4968 12.5113 14.4649 12.6073 14.4222C12.7086 14.3742 12.7965 14.3182 12.8712 14.2542C12.9458 14.1849 13.0045 14.105 13.0471 14.0143C13.0951 13.9183 13.1191 13.8117 13.1191 13.6944C13.1191 13.5771 13.0924 13.4785 13.0391 13.3985C12.9911 13.3185 12.9272 13.2519 12.8472 13.1985C12.7672 13.1452 12.6792 13.0999 12.5833 13.0626C12.4873 13.0253 12.3913 12.9906 12.2953 12.9586V14.5182Z" fill="black"/>
</svg>
