<svg width="24" height="24" viewBox="0 0 24 24" fill="none" xmlns="http://www.w3.org/2000/svg">
<path d="M12 22.4998C6.20101 22.4998 1.5 17.7987 1.5 11.9998C1.5 6.20077 6.20101 1.49976 12 1.49976C17.799 1.49976 22.5 6.20077 22.5 11.9998C22.5 17.7987 17.799 22.4998 12 22.4998ZM0 11.9998C0 18.6272 5.37258 23.9998 12 23.9998C18.6274 23.9998 24 18.6272 24 11.9998C24 5.37234 18.6274 -0.000244141 12 -0.000244141C5.37258 -0.000244141 0 5.37234 0 11.9998ZM6.4 16.9998C6.4 18.1044 7.29543 18.9998 8.4 18.9998H15.6C16.7046 18.9998 17.6 18.1044 17.6 16.9998V11.2998V8.91016C17.6 8.42033 17.4202 7.94753 17.0948 7.58143L15.3967 5.67103C15.0172 5.24405 14.4731 4.99976 13.9019 4.99976H12H8.4C7.29543 4.99976 6.4 5.89519 6.4 6.99976V16.9998ZM8.75877 13.488L10.1549 10.2515C10.1919 10.1563 10.2656 10.0754 10.3668 10.0319C10.4178 10.01 10.4708 9.99968 10.523 9.99976C10.5752 9.99976 10.6282 10.0101 10.6792 10.0321C10.7804 10.0758 10.854 10.1567 10.8908 10.252L12.2889 13.5044C12.2961 13.5187 12.3025 13.5335 12.308 13.5488L12.6073 14.2451C12.6934 14.4453 12.6008 14.6773 12.4007 14.7633C12.2005 14.8494 11.9685 14.7569 11.8825 14.5567L11.676 14.0764H9.36417L9.15681 14.5572C9.07051 14.7572 8.83838 14.8494 8.63833 14.7631C8.43829 14.6768 8.34607 14.4447 8.43237 14.2446L8.72534 13.5655C8.73374 13.5383 8.745 13.5123 8.75877 13.488ZM10.5221 11.3921L9.70451 13.2875H11.3369L10.5221 11.3921ZM14.6921 14.4734C14.6921 14.6081 14.79 14.7199 14.9185 14.7417C14.8061 14.7227 14.717 14.635 14.6964 14.5232C14.6934 14.5071 14.6921 14.4904 14.6921 14.4734ZM14.6626 14.5529C14.435 14.7469 14.1701 14.8444 13.8694 14.8444C13.5551 14.8444 13.2988 14.7657 13.1045 14.6045C12.913 14.4379 12.8181 14.2067 12.8181 13.9173C12.8181 13.6239 12.9143 13.3933 13.1105 13.2315C13.305 13.0712 13.5927 12.9827 13.9676 12.9607L14.6524 12.9215V12.8699C14.6524 12.6636 14.6084 12.5161 14.5272 12.4206C14.447 12.3264 14.325 12.2762 14.1534 12.2762C13.9834 12.2762 13.859 12.3232 13.7738 12.4118C13.7582 12.4288 13.7441 12.4465 13.7315 12.4649C13.6802 12.5395 13.6182 12.6191 13.5447 12.6794C13.4709 12.7399 13.3829 12.7831 13.2808 12.7795L13.2434 12.7781C13.1481 12.7748 13.0601 12.7331 13.0026 12.6679C12.9445 12.602 12.9176 12.5116 12.9479 12.416C13.0016 12.2463 13.1008 12.0924 13.2442 11.9541C13.4737 11.7287 13.7762 11.6175 14.1475 11.6175C14.5449 11.6175 14.856 11.724 15.0747 11.9425C15.2934 12.1572 15.4 12.4645 15.4 12.8581V14.4114C15.4 14.6178 15.2326 14.7852 15.0262 14.7852H14.9641C14.8194 14.7852 14.6977 14.6866 14.6626 14.5529ZM14.6583 13.5156V13.58C14.6583 13.7929 14.5959 13.9484 14.4765 14.0534C14.3595 14.1557 14.1962 14.2092 13.9818 14.2092C13.8337 14.2092 13.7299 14.1812 13.6638 14.1314C13.5998 14.0832 13.5656 14.0103 13.5656 13.9055C13.5656 13.7965 13.6054 13.7163 13.6839 13.6593C13.7648 13.6006 13.8906 13.564 14.0668 13.5543L14.6583 13.5156Z" fill="black"/>
</svg>
