<svg width="24" height="24" viewBox="0 0 24 24" fill="none" xmlns="http://www.w3.org/2000/svg">
<path d="M12 1.49982C17.799 1.49982 22.5 6.20083 22.5 11.9998C22.5 17.7988 17.799 22.4998 12 22.4998C6.20101 22.4998 1.5 17.7988 1.5 11.9998C1.5 6.20083 6.20101 1.49982 12 1.49982ZM24 11.9998C24 5.3724 18.6274 -0.000183105 12 -0.000183105C5.37258 -0.000183105 0 5.3724 0 11.9998C0 18.6272 5.37258 23.9998 12 23.9998C18.6274 23.9998 24 18.6272 24 11.9998ZM8.40039 18.9998H15.6004C16.705 18.9998 17.6004 18.1044 17.6004 16.9998V11.2998V8.91022C17.6004 8.42039 17.4206 7.94759 17.0952 7.58149L15.3971 5.67109C15.0175 5.24411 14.4735 4.99982 13.9023 4.99982H12.0004H8.40039C7.29582 4.99982 6.40039 5.89525 6.40039 6.99982V16.9998C6.40039 18.1044 7.29582 18.9998 8.40039 18.9998ZM10.5644 10.6584C10.7206 10.8146 10.7206 11.0679 10.5644 11.2241L9.36646 12.422L10.5644 13.6199C10.7206 13.7761 10.7206 14.0294 10.5644 14.1856C10.4082 14.3418 10.1549 14.3418 9.99871 14.1856L8.51794 12.7048C8.36173 12.5486 8.36173 12.2954 8.51794 12.1392L9.99871 10.6584C10.1549 10.5022 10.4082 10.5022 10.5644 10.6584ZM13.2559 13.6203L14.4538 12.4224L13.2559 11.2244C13.0997 11.0682 13.0997 10.815 13.2559 10.6588C13.4121 10.5025 13.6654 10.5025 13.8216 10.6588L15.3024 12.1395C15.4586 12.2957 15.4586 12.549 15.3024 12.7052L13.8216 14.186C13.6654 14.3422 13.4121 14.3422 13.2559 14.186C13.0997 14.0298 13.0997 13.7765 13.2559 13.6203ZM12.4452 9.95967C12.6605 10.0093 12.7947 10.2241 12.745 10.4394L11.8566 14.2894C11.8069 14.5046 11.5921 14.6389 11.3769 14.5892C11.1616 14.5395 11.0274 14.3247 11.077 14.1095L11.9655 10.2595C12.0152 10.0442 12.2299 9.91 12.4452 9.95967Z" fill="black"/>
</svg>
