<svg width="24" height="24" viewBox="0 0 24 24" fill="none" xmlns="http://www.w3.org/2000/svg">
<path d="M15.6 18.9998C16.7046 18.9998 17.6 18.1043 17.6 16.9998V8.91015C17.6 8.42033 17.4203 7.94753 17.0948 7.58143L15.3967 5.67103C15.0172 5.24405 14.4732 4.99976 13.9019 4.99976H8.40002C7.29545 4.99976 6.40002 5.89519 6.40002 6.99976V16.9998C6.40002 18.1043 7.29545 18.9998 8.40002 18.9998H15.6ZM12.0701 14.4797C12.0701 15.0981 11.5685 15.5997 10.9501 15.5997C10.5301 15.5997 10.3201 15.5297 10.1101 15.4597C9.90015 15.3897 9.69014 15.3197 9.27014 15.3197C9.46529 15.1246 9.59243 14.8274 9.72266 14.5231C9.96615 13.954 10.2204 13.3597 10.9501 13.3597C11.5685 13.3597 12.0701 13.8614 12.0701 14.4797ZM15.3492 10.1975C15.6003 10.4486 15.6138 10.8518 15.3796 11.1187L13.1218 13.6994C12.8778 13.9789 12.4475 13.9934 12.1848 13.7307L11.8156 13.3615C11.5529 13.0993 11.5674 12.669 11.8469 12.4245L14.4276 10.1667C14.695 9.93293 15.0977 9.94599 15.3492 10.1975Z" fill="black"/>
<path d="M24 11.9998C24 5.37234 18.6274 -0.000244141 12 -0.000244141C5.37258 -0.000244141 0 5.37234 0 11.9998C0 18.6272 5.37258 23.9998 12 23.9998C18.6274 23.9998 24 18.6272 24 11.9998ZM12 22.4998C6.20101 22.4998 1.5 17.7987 1.5 11.9998C1.5 6.20077 6.20101 1.49976 12 1.49976C17.799 1.49976 22.5 6.20077 22.5 11.9998C22.5 17.7987 17.799 22.4998 12 22.4998Z" fill="black"/>
</svg>
