<svg width="24" height="24" viewBox="0 0 24 24" fill="none" xmlns="http://www.w3.org/2000/svg">
<path d="M15.6 19C16.7046 19 17.6 18.1046 17.6 17V8.9104C17.6 8.42057 17.4203 7.94777 17.0948 7.58167L15.3967 5.67127C15.0172 5.2443 14.4732 5 13.9019 5H8.40002C7.29546 5 6.40002 5.89543 6.40002 7V17C6.40002 18.1046 7.29545 19 8.40002 19H15.6ZM10.8403 12.3174C10.6746 12.3174 10.5403 12.1831 10.5403 12.0174V11.6C10.5403 11.4343 10.6746 11.3 10.8403 11.3H15.1403C15.306 11.3 15.4403 11.4343 15.4403 11.6V12.0174C15.4403 12.1831 15.306 12.3174 15.1403 12.3174H10.8403ZM10.8403 14.3523C10.6746 14.3523 10.5403 14.218 10.5403 14.0523V13.6349C10.5403 13.4692 10.6746 13.3349 10.8403 13.3349H15.1403C15.306 13.3349 15.4403 13.4692 15.4403 13.6349V14.0523C15.4403 14.218 15.306 14.3523 15.1403 14.3523H10.8403ZM10.8403 16.3872C10.6746 16.3872 10.5403 16.2529 10.5403 16.0872V15.6698C10.5403 15.5041 10.6746 15.3698 10.8403 15.3698H15.1403C15.306 15.3698 15.4403 15.5041 15.4403 15.6698V16.0872C15.4403 16.2529 15.306 16.3872 15.1403 16.3872H10.8403ZM9.05847 11.4497C9.2195 11.4497 9.35005 11.5803 9.35005 11.7413V12.7429C9.35005 12.8571 9.25745 12.9497 9.14322 12.9497C9.029 12.9497 8.9364 12.8571 8.9364 12.7429V11.8646L8.80377 11.95C8.69423 12.0205 8.55005 11.9419 8.55005 11.8116C8.55005 11.7556 8.5785 11.7035 8.62557 11.6732L8.90065 11.4961C8.94771 11.4658 9.0025 11.4497 9.05847 11.4497ZM9.05028 13.9775C9.15112 13.8837 9.21084 13.8221 9.24547 13.7742C9.27842 13.7287 9.28646 13.6988 9.28646 13.6669C9.28646 13.5929 9.22444 13.5296 9.11217 13.5296C9.05311 13.5296 9.00719 13.548 8.97661 13.5758C8.9464 13.6033 8.92796 13.6428 8.92796 13.6924V13.6974L8.92708 13.7036C8.92188 13.729 8.89925 13.7481 8.87228 13.7481H8.6048C8.57456 13.7481 8.55007 13.7236 8.55007 13.6934C8.55007 13.547 8.60943 13.422 8.71261 13.3344C8.81514 13.2474 8.95785 13.1997 9.1221 13.1997C9.28019 13.1997 9.41856 13.243 9.51857 13.3215C9.61939 13.4007 9.67923 13.5144 9.67923 13.6479C9.67923 13.8205 9.57812 13.9615 9.33026 14.1836L9.13352 14.3623H9.53136C9.62454 14.3623 9.70007 14.4378 9.70007 14.531C9.70007 14.6242 9.62454 14.6997 9.53136 14.6997H8.75607C8.65162 14.6997 8.56694 14.615 8.56694 14.5106C8.56694 14.4581 8.58872 14.4081 8.62706 14.3723L9.05028 13.9775ZM9.4836 15.6631C9.53181 15.6835 9.57381 15.7124 9.60783 15.749C9.66799 15.8138 9.70007 15.8997 9.70007 15.9973C9.70007 16.2705 9.44075 16.4497 9.11851 16.4497C8.86334 16.4497 8.66162 16.3378 8.58348 16.1431C8.56118 16.0875 8.57555 16.033 8.60873 15.9945C8.64099 15.9571 8.69082 15.9344 8.74389 15.9344C8.79148 15.9344 8.83148 15.9539 8.86375 15.977C8.89488 15.9993 8.92258 16.0277 8.94543 16.0512L8.94679 16.0526L8.95712 16.0632C8.98861 16.0953 9.04345 16.1181 9.12132 16.1181C9.18324 16.1181 9.23151 16.1009 9.2632 16.0756C9.29408 16.0509 9.31132 16.0171 9.31132 15.9761C9.31132 15.9327 9.29473 15.9006 9.2654 15.878C9.23458 15.8542 9.18537 15.8378 9.11664 15.8378H9.05265C8.96769 15.8378 8.89882 15.769 8.89882 15.684C8.89882 15.5991 8.96769 15.5302 9.05265 15.5302H9.11382C9.16872 15.5302 9.21041 15.5145 9.23748 15.4915C9.26386 15.4692 9.27945 15.4376 9.27945 15.3975C9.27945 15.3583 9.2646 15.329 9.23928 15.3085C9.21285 15.2871 9.17087 15.2721 9.11289 15.2721C9.04409 15.2721 8.99621 15.2951 8.96868 15.3282C8.94658 15.3548 8.91917 15.3872 8.88703 15.4126C8.85444 15.4385 8.81305 15.4604 8.76284 15.4604C8.71149 15.4604 8.66322 15.4386 8.63149 15.4026C8.59893 15.3657 8.58389 15.3133 8.60327 15.2589C8.67396 15.0608 8.86756 14.9497 9.12039 14.9497C9.4113 14.9497 9.64757 15.1093 9.64757 15.3587C9.64757 15.4892 9.58555 15.5997 9.4836 15.6631Z" fill="black"/>
<path d="M12 0C5.37258 0 0 5.37258 0 12C0 18.6274 5.37258 24 12 24C18.6274 24 24 18.6274 24 12C24 5.37258 18.6274 0 12 0ZM1.5 12C1.5 6.20101 6.20101 1.5 12 1.5C17.799 1.5 22.5 6.20101 22.5 12C22.5 17.799 17.799 22.5 12 22.5C6.20101 22.5 1.5 17.799 1.5 12Z" fill="black"/>
</svg>
