<svg width="24" height="24" viewBox="0 0 24 24" fill="none" xmlns="http://www.w3.org/2000/svg">
<path d="M17.6 16.9998V8.91015C17.6 8.42033 17.4203 7.94753 17.0948 7.58143L15.3967 5.67103C15.0172 5.24405 14.4732 4.99976 13.9019 4.99976H8.40002C7.29545 4.99976 6.40002 5.89519 6.40002 6.99976V16.9998C6.40002 18.1043 7.29545 18.9998 8.40002 18.9998H15.6C16.7046 18.9998 17.6 18.1043 17.6 16.9998ZM14.4 14.3998C14.7314 14.3998 15 14.6684 15 14.9998C15 15.3312 14.7314 15.5998 14.4 15.5998H9.40002C9.06865 15.5998 8.80002 15.3312 8.80002 14.9998C8.80002 14.6684 9.06865 14.3998 9.40002 14.3998H14.4ZM9.40002 12.3998H14.4C14.7314 12.3998 15 12.6684 15 12.9998C15 13.3312 14.7314 13.5998 14.4 13.5998H9.40002C9.06865 13.5998 8.80002 13.3312 8.80002 12.9998C8.80002 12.6684 9.06865 12.3998 9.40002 12.3998ZM14.4 10.3998C14.7314 10.3998 15 10.6684 15 10.9998C15 11.3312 14.7314 11.5998 14.4 11.5998H9.40002C9.06865 11.5998 8.80002 11.3312 8.80002 10.9998C8.80002 10.6684 9.06865 10.3998 9.40002 10.3998H14.4Z" fill="black"/>
<path d="M0 11.9998C0 18.6272 5.37258 23.9998 12 23.9998C18.6274 23.9998 24 18.6272 24 11.9998C24 5.37234 18.6274 -0.000244141 12 -0.000244141C5.37258 -0.000244141 0 5.37234 0 11.9998ZM12 22.4998C6.20101 22.4998 1.5 17.7987 1.5 11.9998C1.5 6.20077 6.20101 1.49976 12 1.49976C17.799 1.49976 22.5 6.20077 22.5 11.9998C22.5 17.7987 17.799 22.4998 12 22.4998Z" fill="black"/>
</svg>
