<svg width="24" height="25" viewBox="0 0 24 25" fill="none" xmlns="http://www.w3.org/2000/svg">
<path d="M12 23.3103C6.20101 23.3103 1.5 18.6093 1.5 12.8103C1.5 7.01131 6.20101 2.3103 12 2.3103C17.799 2.3103 22.5 7.01131 22.5 12.8103C22.5 18.6093 17.799 23.3103 12 23.3103ZM0 12.8103C0 19.4377 5.37258 24.8103 12 24.8103C18.6274 24.8103 24 19.4377 24 12.8103C24 6.18289 18.6274 0.810303 12 0.810303C5.37258 0.810303 0 6.18289 0 12.8103ZM15.5999 19.9998C16.7045 19.9998 17.5999 19.1043 17.5999 17.9998V12.2998V9.91015C17.5999 9.42033 17.4201 8.94753 17.0947 8.58143L15.3966 6.67103C15.0171 6.24405 14.473 5.99976 13.9018 5.99976H11.9999H8.3999C7.29533 5.99976 6.3999 6.89519 6.3999 7.99976V17.9998C6.3999 19.1043 7.29533 19.9998 8.3999 19.9998H15.5999ZM10 10.5101H11.45V10.1603C11.45 9.967 11.6067 9.8103 11.8 9.8103C11.9933 9.8103 12.15 9.967 12.15 10.1603V10.5101H13.6C14.1523 10.5101 14.6 10.9579 14.6 11.5101V13.7102C14.6 14.234 14.1972 14.6638 13.6844 14.7066L14.2321 16.3496C14.2932 16.533 14.1941 16.7312 14.0107 16.7923C13.8273 16.8535 13.6291 16.7544 13.568 16.571L12.9477 14.7102H10.6523L10.032 16.571C9.97091 16.7544 9.7727 16.8535 9.58932 16.7923C9.40594 16.7312 9.30684 16.533 9.36796 16.3496L9.91562 14.7066C9.40282 14.6638 9 14.234 9 13.7102V11.5101C9 10.9579 9.44772 10.5101 10 10.5101Z" fill="black"/>
</svg>
