<svg width="24" height="24" viewBox="0 0 24 24" fill="none" xmlns="http://www.w3.org/2000/svg">
<path d="M12 22.4998C6.20101 22.4998 1.5 17.7987 1.5 11.9998C1.5 6.20077 6.20101 1.49976 12 1.49976C17.799 1.49976 22.5 6.20077 22.5 11.9998C22.5 17.7987 17.799 22.4998 12 22.4998ZM0 11.9998C0 18.6272 5.37258 23.9998 12 23.9998C18.6274 23.9998 24 18.6272 24 11.9998C24 5.37234 18.6274 -0.000244141 12 -0.000244141C5.37258 -0.000244141 0 5.37234 0 11.9998ZM15.6004 18.9998C16.705 18.9998 17.6004 18.1043 17.6004 16.9998V11.2998V8.91015C17.6004 8.42033 17.4206 7.94753 17.0952 7.58143L15.3971 5.67103C15.0175 5.24405 14.4735 4.99976 13.9023 4.99976H12.0004H8.40039C7.29582 4.99976 6.40039 5.89519 6.40039 6.99976V16.9998C6.40039 18.1043 7.29582 18.9998 8.40039 18.9998H15.6004ZM9.55078 14.3748C9.06778 14.3748 8.67578 13.9828 8.67578 13.4998V10.8748C8.67578 10.3918 9.06778 9.99976 9.55078 9.99976H12.6133C13.0963 9.99976 13.4883 10.3918 13.4883 10.8748V13.4998C13.4883 13.9828 13.0963 14.3748 12.6133 14.3748H9.55078ZM13.8086 13.2149V11.0793L14.5802 10.4581C14.8797 10.2173 15.3248 10.4303 15.3248 10.8147V13.4796C15.3248 13.864 14.8797 14.077 14.5802 13.8361L13.8086 13.2149Z" fill="black"/>
</svg>
