<svg width="24" height="24" viewBox="0 0 24 24" fill="none" xmlns="http://www.w3.org/2000/svg">
<path d="M12 22.4998C6.20101 22.4998 1.5 17.7987 1.5 11.9998C1.5 6.20077 6.20101 1.49976 12 1.49976C17.799 1.49976 22.5 6.20077 22.5 11.9998C22.5 17.7987 17.799 22.4998 12 22.4998ZM0 11.9998C0 18.6272 5.37258 23.9998 12 23.9998C18.6274 23.9998 24 18.6272 24 11.9998C24 5.37234 18.6274 -0.000244141 12 -0.000244141C5.37258 -0.000244141 0 5.37234 0 11.9998ZM15.6004 18.9998C16.705 18.9998 17.6004 18.1043 17.6004 16.9998V11.2998V8.91015C17.6004 8.42033 17.4206 7.94753 17.0952 7.58143L15.3971 5.67103C15.0175 5.24405 14.4735 4.99976 13.9023 4.99976H12.0004H8.40039C7.29582 4.99976 6.40039 5.89519 6.40039 6.99976V16.9998C6.40039 18.1043 7.29582 18.9998 8.40039 18.9998H15.6004ZM12.8063 9.49976H13.8775C14.1339 9.49976 14.3475 9.58277 14.5184 9.7488C14.6893 9.91605 14.7748 10.1236 14.7748 10.3714C14.7748 10.6192 14.6893 10.8268 14.5184 10.994C14.3451 11.1613 14.1314 11.2449 13.8775 11.2449H13.2824V12.122H12.8063V9.49976ZM13.8262 10.7981C13.9532 10.7981 14.0563 10.7584 14.1357 10.679C14.2138 10.6009 14.2529 10.4984 14.2529 10.3714C14.2529 10.2444 14.2138 10.1419 14.1357 10.0638C14.0576 9.98563 13.9544 9.94657 13.8262 9.94657H13.2824V10.7981H13.8262ZM11.9591 15.9998C10.2696 15.9998 8.8999 14.6301 8.8999 12.9406C8.8999 11.251 10.2696 9.88135 11.9591 9.88135V12.4406C11.9591 12.7167 12.183 12.9406 12.4591 12.9406H15.0183C15.0183 14.6301 13.6487 15.9998 11.9591 15.9998Z" fill="black"/>
</svg>
