<svg width="24" height="24" viewBox="0 0 24 24" fill="none" xmlns="http://www.w3.org/2000/svg">
<path d="M12 22.4998C6.20101 22.4998 1.5 17.7987 1.5 11.9998C1.5 6.20077 6.20101 1.49976 12 1.49976C17.799 1.49976 22.5 6.20077 22.5 11.9998C22.5 17.7987 17.799 22.4998 12 22.4998ZM0 11.9998C0 18.6272 5.37258 23.9998 12 23.9998C18.6274 23.9998 24 18.6272 24 11.9998C24 5.37234 18.6274 -0.000244141 12 -0.000244141C5.37258 -0.000244141 0 5.37234 0 11.9998ZM8.40039 18.9998H15.6004C16.705 18.9998 17.6004 18.1043 17.6004 16.9998V11.2998V8.91015C17.6004 8.42033 17.4206 7.94753 17.0952 7.58143L15.3971 5.67103C15.0175 5.24405 14.4735 4.99976 13.9023 4.99976H12.0004H8.40039C7.29582 4.99976 6.40039 5.89519 6.40039 6.99976V16.9998C6.40039 18.1043 7.29582 18.9998 8.40039 18.9998ZM7.92505 12.798C7.92505 12.5229 8.14809 12.2998 8.42323 12.2998C10.9095 12.2998 12.925 14.3153 12.925 16.8016C12.925 17.0767 12.702 17.2998 12.4268 17.2998C12.1517 17.2998 11.9286 17.0767 11.9286 16.8016C11.9286 14.8656 10.3592 13.2962 8.42323 13.2962C8.14809 13.2962 7.92505 13.0731 7.92505 12.798ZM7.92505 14.5774C7.92505 14.3023 8.14809 14.0792 8.42323 14.0792C9.92678 14.0792 11.1456 15.2981 11.1456 16.8016C11.1456 17.0768 10.9226 17.2998 10.6475 17.2998C10.3723 17.2998 10.1493 17.0768 10.1493 16.8016C10.1493 15.8484 9.3765 15.0756 8.42323 15.0756C8.14809 15.0756 7.92505 14.8525 7.92505 14.5774ZM8.5122 17.0682C8.21739 17.0682 7.97839 16.8292 7.97839 16.5344C7.97839 16.2396 8.21739 16.0006 8.5122 16.0006C8.80702 16.0006 9.04602 16.2396 9.04602 16.5344C9.04602 16.8292 8.80702 17.0682 8.5122 17.0682Z" fill="black"/>
</svg>
