<svg width="24" height="24" viewBox="0 0 24 24" fill="none" xmlns="http://www.w3.org/2000/svg">
<path d="M12 1.49976C17.799 1.49976 22.5 6.20077 22.5 11.9998C22.5 17.7987 17.799 22.4998 12 22.4998C6.20101 22.4998 1.5 17.7987 1.5 11.9998C1.5 6.20077 6.20101 1.49976 12 1.49976ZM24 11.9998C24 5.37234 18.6274 -0.000244141 12 -0.000244141C5.37258 -0.000244141 0 5.37234 0 11.9998C0 18.6272 5.37258 23.9998 12 23.9998C18.6274 23.9998 24 18.6272 24 11.9998ZM8.40039 18.9998H15.6004C16.705 18.9998 17.6004 18.1043 17.6004 16.9998V11.2998V8.91015C17.6004 8.42033 17.4206 7.94753 17.0952 7.58143L15.3971 5.67103C15.0175 5.24405 14.4735 4.99976 13.9023 4.99976H12.0004H8.40039C7.29582 4.99976 6.40039 5.89519 6.40039 6.99976V16.9998C6.40039 18.1043 7.29582 18.9998 8.40039 18.9998ZM10.1539 12.5199C9.95868 12.7152 9.6421 12.7152 9.44684 12.5199C9.25158 12.3247 9.25158 12.0081 9.44684 11.8128L11.6135 9.6462C11.8087 9.45094 12.1253 9.45094 12.3206 9.6462L14.4872 11.8128C14.6825 12.0081 14.6825 12.3247 14.4872 12.5199C14.2919 12.7152 13.9753 12.7152 13.7801 12.5199L12.4674 11.2072V14.9999C12.4674 15.276 12.2435 15.4999 11.9674 15.4999C11.6912 15.4999 11.4674 15.276 11.4674 14.9999V11.2065L10.1539 12.5199Z" fill="black"/>
</svg>
