<svg width="24" height="25" viewBox="0 0 24 25" fill="none" xmlns="http://www.w3.org/2000/svg">
<path d="M12 2.31042C17.799 2.31042 22.5 7.01143 22.5 12.8104C22.5 18.6094 17.799 23.3104 12 23.3104C6.20101 23.3104 1.5 18.6094 1.5 12.8104C1.5 7.01143 6.20101 2.31042 12 2.31042ZM24 12.8104C24 6.18301 18.6274 0.810425 12 0.810425C5.37258 0.810425 -8.47383e-10 6.18301 -1.89268e-09 12.8104C-2.93798e-09 19.4378 5.37258 24.8104 12 24.8104C18.6274 24.8104 24 19.4378 24 12.8104ZM18.6646 10.083C18.4 9.81839 17.9476 10.0058 17.9476 10.38L17.9476 12.0733L16.9998 12.0734L16.9998 9.72083C16.9998 9.231 16.82 8.75821 16.4946 8.3921L14.7965 6.48171C14.417 6.05473 13.873 5.81043 13.3017 5.81043L11.3998 5.81043L7.79981 5.81043C6.69524 5.81043 5.79981 6.70586 5.79981 7.81043L5.79981 17.8104C5.79981 18.915 6.69524 19.8104 7.79981 19.8104L14.9998 19.8104C16.1044 19.8104 16.9998 18.915 16.9998 17.8104L16.9998 13.5736L12.2911 13.5738C11.8769 13.5739 11.541 13.2382 11.5409 12.824C11.5408 12.4097 11.8765 12.0739 12.2908 12.0738L17.0215 12.0736L17.0215 13.5734L17.9476 13.5733L17.9476 15.2937C17.9476 15.6679 18.4 15.8553 18.6646 15.5907L21.1215 13.1338C21.2855 12.9698 21.2855 12.7039 21.1215 12.5399L18.6646 10.083Z" fill="black"/>
</svg>
