<svg width="24" height="24" viewBox="0 0 24 24" fill="none" xmlns="http://www.w3.org/2000/svg">
<path d="M12 22.4998C6.20101 22.4998 1.5 17.7987 1.5 11.9998C1.5 6.20077 6.20101 1.49976 12 1.49976C17.799 1.49976 22.5 6.20077 22.5 11.9998C22.5 17.7987 17.799 22.4998 12 22.4998ZM0 11.9998C0 18.6272 5.37258 23.9998 12 23.9998C18.6274 23.9998 24 18.6272 24 11.9998C24 5.37234 18.6274 -0.000244141 12 -0.000244141C5.37258 -0.000244141 0 5.37234 0 11.9998ZM8.40048 18.9998H15.6005C16.7051 18.9998 17.6005 18.1043 17.6005 16.9998V11.2998V8.91015C17.6005 8.42033 17.4207 7.94753 17.0953 7.58143L15.3972 5.67103C15.0176 5.24405 14.4736 4.99976 13.9024 4.99976H12.0005H8.40048C7.29591 4.99976 6.40048 5.89519 6.40048 6.99976V16.9998C6.40048 18.1043 7.29591 18.9998 8.40048 18.9998ZM14.1779 11.5269L12.7048 13.0069L14.1457 14.4569C14.3404 14.6528 14.3396 14.9695 14.1439 15.1643C13.9482 15.3591 13.6318 15.3583 13.4371 15.1624L11.9993 13.7156L10.5432 15.1786C10.3484 15.3743 10.0319 15.3749 9.83638 15.1799C9.64084 14.9849 9.64024 14.6681 9.83504 14.4724L11.2944 13.0063L9.83372 11.5365C9.63906 11.3406 9.63988 11.0239 9.83556 10.8291C10.0312 10.6342 10.3477 10.6351 10.5423 10.831L11.9998 12.2976L13.4698 10.8207C13.6646 10.625 13.981 10.6245 14.1766 10.8195C14.3721 11.0145 14.3727 11.3312 14.1779 11.5269Z" fill="black"/>
</svg>
