<svg width="24" height="24" viewBox="0 0 24 24" fill="none" xmlns="http://www.w3.org/2000/svg">
<path d="M12 22.4998C6.20101 22.4998 1.5 17.7987 1.5 11.9998C1.5 6.20077 6.20101 1.49976 12 1.49976C17.799 1.49976 22.5 6.20077 22.5 11.9998C22.5 17.7987 17.799 22.4998 12 22.4998ZM0 11.9998C0 18.6272 5.37258 23.9998 12 23.9998C18.6274 23.9998 24 18.6272 24 11.9998C24 5.37234 18.6274 -0.000244141 12 -0.000244141C5.37258 -0.000244141 0 5.37234 0 11.9998ZM15.6004 18.9998C16.705 18.9998 17.6004 18.1043 17.6004 16.9998V11.2998V8.91015C17.6004 8.42033 17.4206 7.94753 17.0952 7.58143L15.3971 5.67103C15.0175 5.24405 14.4735 4.99976 13.9023 4.99976H12.0004H8.40039C7.29582 4.99976 6.40039 5.89519 6.40039 6.99976V16.9998C6.40039 18.1043 7.29582 18.9998 8.40039 18.9998H15.6004ZM8.8 8.99976H9.99169C10.1574 8.99976 10.2917 9.13407 10.2917 9.29976V9.53662H13.7861V9.29976C13.7861 9.13407 13.9204 8.99976 14.0861 8.99976H15.2778C15.4435 8.99976 15.5778 9.13407 15.5778 9.29976V10.4914C15.5778 10.6571 15.4435 10.7914 15.2778 10.7914H15.1072V13.748H15.2778C15.2882 13.748 15.2984 13.7486 15.3085 13.7496C15.4598 13.765 15.5778 13.8927 15.5778 14.048V15.2397C15.5778 15.2501 15.5773 15.2603 15.5763 15.2704C15.5609 15.4217 15.4332 15.5397 15.2778 15.5397H14.0861C13.9204 15.5397 13.7861 15.4054 13.7861 15.2397V15.1357H10.2917V15.2397C10.2917 15.2501 10.2912 15.2603 10.2901 15.2704C10.2748 15.4217 10.147 15.5397 9.99169 15.5397H8.8C8.63431 15.5397 8.5 15.4054 8.5 15.2397V14.048C8.5 13.8824 8.63431 13.748 8.8 13.748H8.94824V10.7914H8.8C8.63431 10.7914 8.5 10.6571 8.5 10.4914V9.29976C8.5 9.13407 8.63431 8.99976 8.8 8.99976ZM9.74824 10.7914V13.748H9.99169C10.1574 13.748 10.2917 13.8824 10.2917 14.048V14.3357H13.7861V14.048C13.7861 13.8824 13.9204 13.748 14.0861 13.748H14.3072V10.7914H14.0861C13.9204 10.7914 13.7861 10.6571 13.7861 10.4914V10.3366H10.2917V10.4914C10.2917 10.6571 10.1574 10.7914 9.99169 10.7914H9.74824Z" fill="black"/>
</svg>
