<svg width="24" height="24" viewBox="0 0 24 24" fill="none" xmlns="http://www.w3.org/2000/svg">
<path d="M1.5 11.9998C1.5 6.20077 6.20101 1.49976 12 1.49976C17.799 1.49976 22.5 6.20077 22.5 11.9998C22.5 17.7987 17.799 22.4998 12 22.4998C6.20101 22.4998 1.5 17.7987 1.5 11.9998ZM12 -0.000244141C5.37258 -0.000244141 0 5.37234 0 11.9998C0 18.6272 5.37258 23.9998 12 23.9998C18.6274 23.9998 24 18.6272 24 11.9998C24 5.37234 18.6274 -0.000244141 12 -0.000244141Z" fill="black"/>
<path d="M15.6004 18.9998C16.705 18.9998 17.6004 18.1043 17.6004 16.9998V8.91015C17.6004 8.42033 17.4206 7.94753 17.0952 7.58143L15.3971 5.67103C15.0175 5.24405 14.4735 4.99976 13.9023 4.99976H8.40039C7.29582 4.99976 6.40039 5.89519 6.40039 6.99976V16.9998C6.40039 18.1043 7.29582 18.9998 8.40039 18.9998H15.6004ZM13.0572 12.5057L11.4853 13.3989L13.0572 14.292C13.0736 14.3013 13.089 14.3116 13.1035 14.3227C13.2819 14.1827 13.5068 14.0993 13.7511 14.0993C14.3311 14.0993 14.8011 14.5693 14.8011 15.1493C14.8011 15.7292 14.3311 16.1993 13.7511 16.1993C13.1712 16.1993 12.7011 15.7292 12.7011 15.1493C12.7011 15.1024 12.7042 15.0562 12.7102 15.0109C12.6938 15.0043 12.6777 14.9965 12.662 14.9876L11.0552 14.0746C10.8626 14.3037 10.5739 14.4493 10.2511 14.4493C9.67117 14.4493 9.20112 13.9792 9.20112 13.3993C9.20112 12.8193 9.67117 12.3493 10.2511 12.3493C10.5736 12.3493 10.8621 12.4946 11.0547 12.7234L12.662 11.8102C12.6777 11.8013 12.6938 11.7935 12.7101 11.7869C12.7042 11.7419 12.7011 11.6959 12.7011 11.6493C12.7011 11.0693 13.1712 10.5993 13.7511 10.5993C14.3311 10.5993 14.8011 11.0693 14.8011 11.6493C14.8011 12.2292 14.3311 12.6993 13.7511 12.6993C13.5065 12.6993 13.2815 12.6157 13.103 12.4754C13.0886 12.4864 13.0734 12.4966 13.0572 12.5057Z" fill="black"/>
</svg>
