<svg width="24" height="24" viewBox="0 0 24 24" fill="none" xmlns="http://www.w3.org/2000/svg">
<path d="M12 22.4998C6.20101 22.4998 1.5 17.7987 1.5 11.9998C1.5 6.20077 6.20101 1.49976 12 1.49976C17.799 1.49976 22.5 6.20077 22.5 11.9998C22.5 17.7987 17.799 22.4998 12 22.4998ZM-1.89268e-09 11.9998C-2.93798e-09 18.6272 5.37258 23.9998 12 23.9998C18.6274 23.9998 24 18.6272 24 11.9998C24 5.37234 18.6274 -0.000244138 12 -0.000244139C5.37258 -0.00024414 -8.47383e-10 5.37234 -1.89268e-09 11.9998ZM7.19973 5.59985L7.84455 5.59985L7.84455 8.19971L5.60001 8.19971L5.59973 8.19971L5.59973 7.19985C5.59973 6.3162 6.31608 5.59985 7.19973 5.59985ZM5.59973 11.48L5.59973 9.39971L5.60001 9.39971L7.84455 9.39971L7.84455 11.48L5.59994 11.48L5.59973 11.48ZM5.59973 14.5999L5.59973 12.52L5.59994 12.52L7.84455 12.52L7.84455 14.5999L5.60001 14.5999L5.59973 14.5999ZM5.59973 16.7999L5.59973 15.7999L5.60001 15.7999L7.84455 15.7999L7.84455 18.3998L7.84455 18.3999L7.19973 18.3999C6.31608 18.3999 5.59973 17.6835 5.59973 16.7999ZM14.9555 18.3999L9.04455 18.3999L9.04455 18.3998L9.04455 12.52L14.9555 12.52L14.9555 15.1999L14.9555 18.3998L14.9555 18.3999ZM16.7997 18.3999L16.1555 18.3999L16.1555 18.3998L16.1555 15.7999L18.3997 15.7999L18.3997 16.7999C18.3997 17.6835 17.6834 18.3999 16.7997 18.3999ZM18.3997 12.52L18.3997 14.5999L16.1555 14.5999L16.1555 12.52L18.3997 12.52ZM18.3997 9.39971L18.3997 11.48L16.1555 11.48L16.1555 9.39971L18.3997 9.39971ZM18.3997 7.19985L18.3997 8.19971L16.1555 8.19971L16.1555 5.59985L16.7997 5.59985C17.6834 5.59985 18.3997 6.3162 18.3997 7.19985ZM9.04455 5.59985L14.9555 5.59985L14.9555 8.79971L14.9555 11.48L9.04455 11.48L9.04455 5.59985Z" fill="black"/>
</svg>
