<svg width="24" height="24" viewBox="0 0 24 24" fill="none" xmlns="http://www.w3.org/2000/svg">
<path d="M12 22.5C6.20101 22.5 1.5 17.799 1.5 12C1.5 6.20101 6.20101 1.5 12 1.5C17.799 1.5 22.5 6.20101 22.5 12C22.5 17.799 17.799 22.5 12 22.5ZM0 12C0 18.6274 5.37258 24 12 24C18.6274 24 24 18.6274 24 12C24 5.37258 18.6274 0 12 0C5.37258 0 0 5.37258 0 12ZM17.1776 7H6.8148C6.48249 7 6.2951 7.38172 6.49833 7.64463L10.3334 12.6059V16.2011C10.3334 16.3694 10.4387 16.5197 10.5969 16.5771L13.0636 17.472C13.3244 17.5667 13.6 17.3735 13.6 17.096V12.6059L17.4922 7.64697C17.6983 7.38448 17.5113 7 17.1776 7Z" fill="black"/>
</svg>
