<svg width="24" height="24" viewBox="0 0 24 24" fill="none" xmlns="http://www.w3.org/2000/svg">
<path d="M12 1.5C17.799 1.5 22.5 6.20101 22.5 12C22.5 17.799 17.799 22.5 12 22.5C6.20101 22.5 1.5 17.799 1.5 12C1.5 6.20101 6.20101 1.5 12 1.5ZM24 12C24 5.37258 18.6274 0 12 0C5.37258 0 0 5.37258 0 12C0 18.6274 5.37258 24 12 24C18.6274 24 24 18.6274 24 12ZM6 8C5.44772 8 5 8.44771 5 9C5 9.55228 5.44772 10 6 10H18C18.5523 10 19 9.55228 19 9C19 8.44771 18.5523 8 18 8H6ZM7.00049 12.333C7.00049 12.8853 7.4482 13.333 8.00049 13.333H16.0005C16.5528 13.333 17.0005 12.8853 17.0005 12.333C17.0005 11.7807 16.5528 11.333 16.0005 11.333H8.00049C7.4482 11.333 7.00049 11.7807 7.00049 12.333ZM10.667 14.667C10.1147 14.667 9.66699 15.1147 9.66699 15.667C9.66699 16.2193 10.1147 16.667 10.667 16.667H13.3337C13.8859 16.667 14.3337 16.2193 14.3337 15.667C14.3337 15.1147 13.8859 14.667 13.3337 14.667H10.667Z" fill="black"/>
</svg>
