<svg width="24" height="24" viewBox="0 0 24 24" fill="none" xmlns="http://www.w3.org/2000/svg">
<path d="M12 22.5C6.20101 22.5 1.5 17.799 1.5 12C1.5 6.20101 6.20101 1.5 12 1.5C17.799 1.5 22.5 6.20101 22.5 12C22.5 17.799 17.799 22.5 12 22.5ZM0 12C0 18.6274 5.37258 24 12 24C18.6274 24 24 18.6274 24 12C24 5.37258 18.6274 0 12 0C5.37258 0 0 5.37258 0 12ZM7.59961 5.98438C7.1854 5.98438 6.84961 6.32016 6.84961 6.73438V17.9999C6.84961 18.4141 7.1854 18.7499 7.59961 18.7499C8.01382 18.7499 8.34961 18.4141 8.34961 17.9999V13.0131H16.938C17.327 13.0131 17.567 12.5883 17.3662 12.2551L16.0212 10.0226C15.8299 9.70515 15.8299 9.30794 16.0212 8.99048L17.3662 6.75803C17.567 6.42479 17.327 6 16.938 6H8.01204C7.94714 6 7.88369 6.00618 7.82226 6.01798C7.75192 5.99614 7.67714 5.98438 7.59961 5.98438Z" fill="black"/>
</svg>
