<svg width="24" height="24" viewBox="0 0 24 24" fill="none" xmlns="http://www.w3.org/2000/svg">
<path d="M12 1.5C17.799 1.5 22.5 6.20101 22.5 12C22.5 17.799 17.799 22.5 12 22.5C6.20101 22.5 1.5 17.799 1.5 12C1.5 6.20101 6.20101 1.5 12 1.5ZM24 12C24 5.37258 18.6274 0 12 0C5.37258 0 0 5.37258 0 12C0 18.6274 5.37258 24 12 24C18.6274 24 24 18.6274 24 12ZM9.31369 6.6501H10.9384C11.2563 6.6501 11.5566 6.79603 11.753 7.04597C12.1959 7.60951 12.873 7.93854 13.5898 7.93854H15.9356C16.7722 7.93854 17.4503 8.6167 17.4503 9.45325V15.0396L18.7503 16.3396V9.45325C18.7503 7.89873 17.4901 6.63854 15.9356 6.63854H13.5898C13.2719 6.63854 12.9716 6.49261 12.7752 6.24267C12.3323 5.67913 11.6552 5.3501 10.9384 5.3501H9.31369C8.86736 5.3501 8.44885 5.46926 8.08826 5.6775L9.08376 6.67301C9.15807 6.65798 9.23496 6.6501 9.31369 6.6501ZM16.9514 14.5406V13.7753H16.9368V11.2525C16.9368 10.0538 15.9676 9.08203 14.7721 9.08203H11.4928L16.9514 14.5406ZM6.53033 6.21967C6.23744 5.92678 5.76256 5.92678 5.46967 6.21967C5.17678 6.51256 5.17678 6.98744 5.46967 7.28033L6.85976 8.67042V9.5206C6.33746 9.91686 6 10.5452 6 11.2525V15.83C6 17.0287 6.96917 18.0005 8.16471 18.0005H16.1898L16.7197 18.5303C17.0126 18.8232 17.4874 18.8232 17.7803 18.5303C17.9779 18.3327 18.0422 18.0522 17.9732 17.8007C17.9978 17.7866 18.022 17.7718 18.0458 17.7564L6.93934 6.6499C6.90301 6.61357 6.87119 6.57444 6.84387 6.53321L6.53033 6.21967Z" fill="black"/>
</svg>
