<svg width="24" height="24" viewBox="0 0 24 24" fill="none" xmlns="http://www.w3.org/2000/svg">
<path d="M12 22.4998C6.20101 22.4998 1.5 17.7987 1.5 11.9998C1.5 6.20077 6.20101 1.49976 12 1.49976C17.799 1.49976 22.5 6.20077 22.5 11.9998C22.5 17.7987 17.799 22.4998 12 22.4998ZM0 11.9998C0 18.6272 5.37258 23.9998 12 23.9998C18.6274 23.9998 24 18.6272 24 11.9998C24 5.37234 18.6274 -0.000244141 12 -0.000244141C5.37258 -0.000244141 0 5.37234 0 11.9998ZM13.0282 8.12773C12.7913 8.12773 12.5587 8.0646 12.3542 7.94485L11.0532 7.18264C10.8488 7.06288 10.6161 6.99976 10.3792 6.99976H8C6.89543 6.99976 6 7.89519 6 8.99976V14.3331C6 15.4377 6.89543 16.3331 8 16.3331H16C17.1046 16.3331 18 15.4377 18 14.3331V10.1277C18 9.02316 17.1046 8.12773 16 8.12773H13.0282Z" fill="black"/>
</svg>
