<svg width="24" height="24" viewBox="0 0 24 24" fill="none" xmlns="http://www.w3.org/2000/svg">
<path d="M12 22.5C6.20101 22.5 1.5 17.799 1.5 12C1.5 6.20101 6.20101 1.5 12 1.5C17.799 1.5 22.5 6.20101 22.5 12C22.5 17.799 17.799 22.5 12 22.5ZM0 12C0 18.6274 5.37258 24 12 24C18.6274 24 24 18.6274 24 12C24 5.37258 18.6274 0 12 0C5.37258 0 0 5.37258 0 12ZM7.58733 6.34985C6.07533 6.34985 4.84961 7.57557 4.84961 9.08757V14.6548C4.84961 16.1668 6.07533 17.3925 7.58733 17.3925H15.2014C15.2778 17.3925 15.3512 17.3794 15.4193 17.3551H16.5248C16.9757 17.3551 17.3709 17.0533 17.4895 16.6182L19.1546 10.513C19.3281 9.87683 18.8492 9.24985 18.1898 9.24985H17.9181C17.8847 8.99859 17.8108 8.764 17.6898 8.55163C17.516 8.2466 17.2679 8.02735 16.9891 7.87515C16.4597 7.58616 15.797 7.5273 15.2014 7.5273H12.8361C12.7043 7.5273 12.5748 7.49218 12.4611 7.42555L11.103 6.62991C10.7899 6.44652 10.4337 6.34985 10.0709 6.34985H7.58733ZM16.5866 9.24985H8.5442C8.06091 9.24985 7.64678 9.59548 7.56033 10.071L6.54656 15.6467C6.30061 15.3887 6.14961 15.0394 6.14961 14.6548V9.08757C6.14961 8.29354 6.7933 7.64985 7.58733 7.64985H10.0709C10.2027 7.64985 10.3321 7.68497 10.4459 7.7516L11.804 8.54724C12.117 8.73063 12.4733 8.8273 12.8361 8.8273H15.2014C15.7587 8.8273 16.1399 8.89268 16.3661 9.01619C16.4651 9.07024 16.5227 9.1293 16.5602 9.19514C16.5691 9.21075 16.5781 9.22884 16.5866 9.24985Z" fill="black"/>
</svg>
