<svg width="24" height="24" viewBox="0 0 24 24" fill="none" xmlns="http://www.w3.org/2000/svg">
<path d="M1.5 12C1.5 6.20101 6.20101 1.5 12 1.5C17.799 1.5 22.5 6.20101 22.5 12C22.5 17.799 17.799 22.5 12 22.5C6.20101 22.5 1.5 17.799 1.5 12ZM12 0C5.37258 0 0 5.37258 0 12C0 18.6274 5.37258 24 12 24C18.6274 24 24 18.6274 24 12C24 5.37258 18.6274 0 12 0Z" fill="black"/>
<path d="M5.4 9V14.3333C5.4 15.7693 6.56406 16.9333 8 16.9333H16C17.4359 16.9333 18.6 15.7693 18.6 14.3333V10.128C18.6 8.69203 17.4359 7.52797 16 7.52797H13.0282C12.8979 7.52797 12.77 7.49325 12.6575 7.42739L11.3565 6.66518C11.0601 6.49153 10.7227 6.4 10.3792 6.4H8C6.56406 6.4 5.4 7.56406 5.4 9ZM8 7.6H10.3792C10.5095 7.6 10.6375 7.63472 10.7499 7.70059L12.0509 8.46279C12.3474 8.63644 12.6847 8.72797 13.0282 8.72797H16C16.7732 8.72797 17.4 9.35477 17.4 10.128V14.3333C17.4 15.1065 16.7732 15.7333 16 15.7333H8C7.2268 15.7333 6.6 15.1065 6.6 14.3333V9C6.6 8.2268 7.2268 7.6 8 7.6ZM12 9.9C11.6686 9.9 11.4 10.1686 11.4 10.5V11.4H10.5C10.1686 11.4 9.9 11.6686 9.9 12C9.9 12.3314 10.1686 12.6 10.5 12.6H11.4V13.5C11.4 13.8314 11.6686 14.1 12 14.1C12.3314 14.1 12.6 13.8314 12.6 13.5V12.6H13.5C13.8314 12.6 14.1 12.3314 14.1 12C14.1 11.6686 13.8314 11.4 13.5 11.4H12.6V10.5C12.6 10.1686 12.3314 9.9 12 9.9Z" fill="black"/>
</svg>
