<svg width="24" height="24" viewBox="0 0 24 24" fill="none" xmlns="http://www.w3.org/2000/svg">
<path d="M1.5 12C1.5 6.20101 6.20101 1.5 12 1.5C17.799 1.5 22.5 6.20101 22.5 12C22.5 17.799 17.799 22.5 12 22.5C6.20101 22.5 1.5 17.799 1.5 12ZM12 0C5.37258 0 0 5.37258 0 12C0 18.6274 5.37258 24 12 24C18.6274 24 24 18.6274 24 12C24 5.37258 18.6274 0 12 0ZM7.63544 13.3446L9.17753 9.76976L10.7142 13.3446H7.63544ZM8.53586 7.72272L5.9564 13.7024C5.93284 13.7443 5.91348 13.789 5.89889 13.8357L5.35821 15.0891C5.20508 15.4441 5.36872 15.856 5.7237 16.0091C6.07868 16.1622 6.49058 15.9986 6.64371 15.6436L7.03152 14.7446H11.316L11.7021 15.6428C11.8548 15.998 12.2665 16.1621 12.6217 16.0095C12.9769 15.8568 13.141 15.4451 12.9883 15.0899L12.4361 13.8051C12.427 13.7802 12.4166 13.756 12.4048 13.7325L9.82179 7.72354C9.74094 7.53544 9.58743 7.40091 9.40815 7.33865C9.33256 7.31233 9.25508 7.29977 9.17864 7.2998C8.90778 7.29992 8.64997 7.45819 8.53586 7.72272ZM17.4238 10.7525C17.0394 10.368 16.4882 10.1758 15.7702 10.1758C15.1029 10.1758 14.5662 10.3753 14.16 10.7742C13.9128 11.0126 13.7409 11.2751 13.6441 11.5618C13.5383 11.8754 13.8129 12.1543 14.1437 12.166C14.4915 12.1783 14.7585 11.8704 14.9663 11.5913C14.9861 11.5647 15.0074 11.5389 15.0304 11.514C15.2044 11.3327 15.4546 11.242 15.781 11.242C16.441 11.242 16.7711 11.6301 16.7711 12.4061V12.5693L15.4438 12.6455C14.0802 12.7253 13.3984 13.2874 13.3984 14.3318C13.3984 14.8467 13.5653 15.2493 13.8989 15.5394C14.2398 15.8223 14.6931 15.9637 15.2588 15.9637C15.8391 15.9637 16.3431 15.7606 16.7711 15.3544C16.7711 15.6308 16.9951 15.8549 17.2715 15.8549H17.3857C17.7252 15.8549 18.0004 15.5797 18.0004 15.2402V12.3844C18.0004 11.6736 17.8082 11.1296 17.4238 10.7525ZM15.6178 13.592L16.7819 13.5158V13.7117C16.7819 14.1178 16.6623 14.4261 16.4229 14.6364C16.1908 14.8395 15.8717 14.941 15.4655 14.941C14.9071 14.941 14.6278 14.7307 14.6278 14.31C14.6278 13.8676 14.9578 13.6282 15.6178 13.592Z" fill="black"/>
</svg>
