<svg width="24" height="24" viewBox="0 0 24 24" fill="none" xmlns="http://www.w3.org/2000/svg">
<path d="M1.5 12C1.5 6.20101 6.20101 1.5 12 1.5C17.799 1.5 22.5 6.20101 22.5 12C22.5 17.799 17.799 22.5 12 22.5C6.20101 22.5 1.5 17.799 1.5 12ZM12 0C5.37258 0 0 5.37258 0 12C0 18.6274 5.37258 24 12 24C18.6274 24 24 18.6274 24 12C24 5.37258 18.6274 0 12 0ZM5.80902 12H9.2437L7.4064 16.1995C7.26188 16.5299 7.50391 16.9 7.86448 16.9H11.25V18.9999C11.25 19.4141 11.5858 19.7499 12 19.7499C12.4142 19.7499 12.75 19.4141 12.75 18.9999V16.9H16.1355C16.496 16.9 16.7381 16.5299 16.5935 16.1995L14.7562 12H18.1909C18.5626 12 18.8044 11.6088 18.6381 11.2764L15.9472 5.89444C15.7629 5.52592 15.237 5.52592 15.0527 5.89445L13.47 9.06001L12.4581 6.74699C12.2833 6.34753 11.7167 6.34753 11.5419 6.74699L10.5299 9.06002L8.94721 5.89445C8.76295 5.52592 8.23704 5.52592 8.05278 5.89444L5.3618 11.2764C5.19558 11.6088 5.43733 12 5.80902 12Z" fill="black"/>
</svg>
