<svg width="24" height="24" viewBox="0 0 24 24" fill="none" xmlns="http://www.w3.org/2000/svg">
<path d="M1.5 12C1.5 6.20101 6.20101 1.5 12 1.5C17.799 1.5 22.5 6.20101 22.5 12C22.5 17.799 17.799 22.5 12 22.5C6.20101 22.5 1.5 17.799 1.5 12ZM12 0C5.37258 0 0 5.37258 0 12C0 18.6274 5.37258 24 12 24C18.6274 24 24 18.6274 24 12C24 5.37258 18.6274 0 12 0ZM13.1044 16.4364L17.6505 12.6503C18.1166 12.3613 18.1166 11.6878 17.6498 11.3995L13.1044 7.61348C12.6096 7.30594 11.967 7.65975 11.967 8.23924V11.719C11.9096 11.5933 11.8149 11.481 11.683 11.3995L7.1376 7.61348C6.64276 7.30594 6.00018 7.65975 6.00018 8.23924V15.8106C6.00018 16.3901 6.64276 16.7432 7.1376 16.4364L11.6837 12.6503C11.8153 12.5687 11.9097 12.4565 11.967 12.331V15.8106C11.967 16.3901 12.6096 16.7432 13.1044 16.4364Z" fill="black"/>
</svg>
