<svg width="24" height="24" viewBox="0 0 24 24" fill="none" xmlns="http://www.w3.org/2000/svg">
<path d="M1.5 12C1.5 6.20101 6.20101 1.5 12 1.5C17.799 1.5 22.5 6.20101 22.5 12C22.5 17.799 17.799 22.5 12 22.5C6.20101 22.5 1.5 17.799 1.5 12ZM12 0C5.37258 0 0 5.37258 0 12C0 18.6274 5.37258 24 12 24C18.6274 24 24 18.6274 24 12C24 5.37258 18.6274 0 12 0Z" fill="black"/>
<path d="M7.34375 7.68438L5.4332 10.5502H8.29902L7.34375 7.68438ZM8.73235 11.8502H5.50015L11.204 19.2652L8.73235 11.8502ZM12.0004 17.5433L13.8981 11.8502H10.1027L12.0004 17.5433ZM9.66934 10.5502H14.3314L15.5148 7H8.48594L9.66934 10.5502ZM15.2684 11.8502L12.7973 19.2635L18.4998 11.8502H15.2684ZM16.6568 7.68516L15.7018 10.5502H18.5668L16.6568 7.68516Z" fill="black"/>
</svg>
