<svg width="24" height="24" viewBox="0 0 24 24" fill="none" xmlns="http://www.w3.org/2000/svg">
<path d="M1.5 12C1.5 6.20101 6.20101 1.5 12 1.5C17.799 1.5 22.5 6.20101 22.5 12C22.5 17.799 17.799 22.5 12 22.5C6.20101 22.5 1.5 17.799 1.5 12ZM12 0C5.37258 0 0 5.37258 0 12C0 18.6274 5.37258 24 12 24C18.6274 24 24 18.6274 24 12C24 5.37258 18.6274 0 12 0ZM5 8.36699V9.85588C5 10.5186 5.53726 11.0559 6.2 11.0559H17.8C18.4627 11.0559 19 10.5186 19 9.85588V8.36699C19 7.70425 18.4627 7.16699 17.8 7.16699H6.2C5.53726 7.16699 5 7.70425 5 8.36699ZM10.316 7.16667C10.316 6.88132 10.5473 6.65 10.8327 6.65C11.118 6.65 11.3493 6.88132 11.3493 7.16667H12.6493C12.6493 6.88132 12.8813 6.65 13.1667 6.65C13.452 6.65 13.6833 6.88132 13.6833 7.16667H14.9833C14.9833 6.16335 14.17 5.35 13.1667 5.35C12.7224 5.35 12.3153 5.50949 11.9997 5.77434C11.684 5.50949 11.277 5.35 10.8327 5.35C9.82936 5.35 9.01602 6.16335 9.01602 7.16667H10.316Z" fill="black"/>
<path d="M11.35 12.2998H5.77734V17.6334C5.77734 18.2961 6.3146 18.8334 6.97734 18.8334L11.35 18.833V12.2998Z" fill="black"/>
<path d="M18.2218 17.6334V12.2998H12.65V18.833L17.0218 18.8334C17.6845 18.8334 18.2218 18.2961 18.2218 17.6334Z" fill="black"/>
</svg>
