<svg width="24" height="24" viewBox="0 0 24 24" fill="none" xmlns="http://www.w3.org/2000/svg">
<path d="M12 1.5C17.799 1.5 22.5 6.20101 22.5 12C22.5 17.799 17.799 22.5 12 22.5C6.20101 22.5 1.5 17.799 1.5 12C1.5 6.20101 6.20101 1.5 12 1.5ZM24 12C24 5.37258 18.6274 0 12 0C5.37258 0 0 5.37258 0 12C0 18.6274 5.37258 24 12 24C18.6274 24 24 18.6274 24 12ZM14.2772 16.9817L11.8481 15.2809C11.3482 15.6502 11.2266 16.3773 11.5766 16.905C11.6436 17.006 11.7253 17.0952 11.8188 17.1692L13.6578 18.5402C14.4683 19.1444 15.5768 19.154 16.3977 18.5639L18.2052 17.2644C18.6993 16.8864 18.8094 16.1572 18.4512 15.6358C18.3827 15.536 18.2997 15.4484 18.2052 15.3761L15.7727 16.9986C15.3184 17.3017 14.7246 17.295 14.2772 16.9817ZM17.9897 10.3774C17.473 7.29008 14.8187 5 11.6897 5C8.16067 5 5.2998 7.89385 5.2998 11.4636C5.2998 14.5916 7.51197 17.2549 10.5179 17.8187C10.7553 17.8632 10.9834 17.7046 11.0274 17.4645C11.0714 17.2245 10.9147 16.9937 10.6773 16.9492C9.63065 16.7529 8.69533 16.2613 7.95288 15.5678C9.63766 14.5557 9.72581 13.1245 8.93507 12.6552C8.13958 12.183 7.65981 11.7069 8.02591 11.0808C8.20965 10.7666 8.45639 10.6875 8.7593 10.5903C9.05996 10.4939 9.41596 10.3797 9.82063 10.0002C10.3579 9.49652 9.96439 8.42419 8.64022 6.78324L8.65627 6.80307C9.23291 6.41826 9.8852 6.14001 10.5857 5.99722C10.7677 6.51362 11.0678 6.83844 11.4862 6.97165C12.2668 7.22023 12.6516 7.34375 12.5967 7.78216C12.5418 8.22056 12.7029 8.93061 13.8688 9.20373C14.5489 9.36304 15.4407 9.23276 16.5451 8.81229C16.8253 9.33644 17.0253 9.91257 17.1278 10.525C17.1681 10.7657 17.3937 10.9279 17.6318 10.8871C17.8698 10.8463 18.03 10.6181 17.9897 10.3774ZM8.60784 6.74324C8.6187 6.75661 8.62949 6.76994 8.64022 6.78324L8.60784 6.74324ZM15.6032 11.2199C15.2492 10.9811 14.7867 10.9774 14.4289 11.2104L11.9696 12.8116C11.4777 13.1319 11.3385 13.7904 11.6588 14.2823C11.7334 14.3969 11.8294 14.4959 11.9414 14.5741L14.4212 16.3041C14.7816 16.5554 15.2594 16.5592 15.6237 16.3136L18.0833 14.6549C18.57 14.3267 18.6985 13.666 18.3703 13.1793C18.294 13.0661 18.1965 12.9687 18.0833 12.8924L15.6032 11.2199Z" fill="black"/>
</svg>
