<svg width="24" height="24" viewBox="0 0 24 24" fill="none" xmlns="http://www.w3.org/2000/svg">
<path d="M22.5 12C22.5 17.799 17.799 22.5 12 22.5C6.20101 22.5 1.5 17.799 1.5 12C1.5 6.20101 6.20101 1.5 12 1.5C17.799 1.5 22.5 6.20101 22.5 12ZM12 24C18.6274 24 24 18.6274 24 12C24 5.37258 18.6274 0 12 0C5.37258 0 0 5.37258 0 12C0 18.6274 5.37258 24 12 24Z" fill="black"/>
<path d="M10.2975 6.43218L5.72153 8.9246C4.75949 9.44852 4.75949 10.8045 5.72153 11.3284L5.8324 11.3888C5.8924 11.4001 5.95169 11.4208 6.0082 11.4516L10.5841 13.944C11.4635 14.4227 12.5348 14.4229 13.4152 13.944L17.9912 11.4516C18.048 11.4207 18.1076 11.3999 18.1679 11.3886L18.2785 11.3284C19.2405 10.8045 19.2405 9.44852 18.2785 8.9246L17.3718 8.43076L13.5931 10.3201C13.2967 10.4683 12.9363 10.3482 12.7881 10.0518C12.6399 9.75541 12.76 9.395 13.0564 9.24681L16.0875 7.73125L13.7025 6.43218C12.6433 5.85594 11.3567 5.85594 10.2975 6.43218Z" fill="black"/>
<path d="M7.54688 15.1727C7.54688 15.8623 7.89893 16.5054 8.48372 16.8869L9.67478 17.6637C11.0837 18.5821 12.9174 18.5821 14.3256 17.6637L15.5167 16.8869C16.1022 16.5054 16.4535 15.8615 16.4535 15.1727V13.6556L13.9891 14.9979C12.7513 15.6713 11.2476 15.6716 10.0103 14.9979L7.54688 13.6562V15.1727Z" fill="black"/>
</svg>
