<svg width="24" height="24" viewBox="0 0 24 24" fill="none" xmlns="http://www.w3.org/2000/svg">
<path d="M1.5 12C1.5 6.20101 6.20101 1.5 12 1.5C17.799 1.5 22.5 6.20101 22.5 12C22.5 17.799 17.799 22.5 12 22.5C6.20101 22.5 1.5 17.799 1.5 12ZM12 0C5.37258 0 0 5.37258 0 12C0 18.6274 5.37258 24 12 24C18.6274 24 24 18.6274 24 12C24 5.37258 18.6274 0 12 0ZM6 7V10.3333C6 10.8856 6.44772 11.3333 7 11.3333H10.3333C10.8856 11.3333 11.3333 10.8856 11.3333 10.3333V7C11.3333 6.44772 10.8856 6 10.3333 6H7C6.44772 6 6 6.44772 6 7ZM7 12.667C6.44772 12.667 6 13.1147 6 13.667V17.0003C6 17.5526 6.44772 18.0003 7 18.0003H10.3333C10.8856 18.0003 11.3333 17.5526 11.3333 17.0003V13.667C11.3333 13.1147 10.8856 12.667 10.3333 12.667H7ZM12.666 7V10.3333C12.666 10.8856 13.1137 11.3333 13.666 11.3333H16.9993C17.5516 11.3333 17.9993 10.8856 17.9993 10.3333V7C17.9993 6.44772 17.5516 6 16.9993 6H13.666C13.1137 6 12.666 6.44772 12.666 7ZM13.666 12.667C13.1137 12.667 12.666 13.1147 12.666 13.667V17.0003C12.666 17.5526 13.1137 18.0003 13.666 18.0003H16.9993C17.5516 18.0003 17.9993 17.5526 17.9993 17.0003V13.667C17.9993 13.1147 17.5516 12.667 16.9993 12.667H13.666Z" fill="black"/>
</svg>
