<svg width="24" height="24" viewBox="0 0 24 24" fill="none" xmlns="http://www.w3.org/2000/svg">
<path d="M12 22.5C6.20101 22.5 1.5 17.799 1.5 12C1.5 6.20101 6.20101 1.5 12 1.5C17.799 1.5 22.5 6.20101 22.5 12C22.5 17.799 17.799 22.5 12 22.5ZM0 12C0 18.6274 5.37258 24 12 24C18.6274 24 24 18.6274 24 12C24 5.37258 18.6274 0 12 0C5.37258 0 0 5.37258 0 12ZM6.8 6C6.35817 6 6 6.35817 6 6.8V8.47271C6 8.91454 6.35817 9.27271 6.8 9.27271H8.47271C8.91454 9.27271 9.27271 8.91454 9.27271 8.47271V6.8C9.27271 6.35817 8.91454 6 8.47271 6H6.8ZM10.3633 6.8V8.47271C10.3633 8.91454 10.7215 9.27271 11.1633 9.27271H12.836C13.2778 9.27271 13.636 8.91454 13.636 8.47271V6.8C13.636 6.35817 13.2778 6 12.836 6H11.1633C10.7215 6 10.3633 6.35817 10.3633 6.8ZM15.5266 6C15.0847 6 14.7266 6.35817 14.7266 6.8V8.47271C14.7266 8.91454 15.0847 9.27271 15.5266 9.27271H17.1993C17.6411 9.27271 17.9993 8.91454 17.9993 8.47271V6.8C17.9993 6.35817 17.6411 6 17.1993 6H15.5266ZM6 11.1643V12.837C6 13.2788 6.35817 13.637 6.8 13.637H8.47271C8.91454 13.637 9.27271 13.2788 9.27271 12.837V11.1643C9.27271 10.7224 8.91454 10.3643 8.47271 10.3643H6.8C6.35817 10.3643 6 10.7224 6 11.1643ZM11.1633 10.3643C10.7215 10.3643 10.3633 10.7224 10.3633 11.1643V12.837C10.3633 13.2788 10.7215 13.637 11.1633 13.637H12.836C13.2778 13.637 13.636 13.2788 13.636 12.837V11.1643C13.636 10.7224 13.2778 10.3643 12.836 10.3643H11.1633ZM14.7266 11.1643V12.837C14.7266 13.2788 15.0847 13.637 15.5266 13.637H17.1993C17.6411 13.637 17.9993 13.2788 17.9993 12.837V11.1643C17.9993 10.7224 17.6411 10.3643 17.1993 10.3643H15.5266C15.0847 10.3643 14.7266 10.7224 14.7266 11.1643ZM6.8 14.7266C6.35817 14.7266 6 15.0847 6 15.5266V17.1993C6 17.6411 6.35817 17.9993 6.8 17.9993H8.47271C8.91454 17.9993 9.27271 17.6411 9.27271 17.1993V15.5266C9.27271 15.0847 8.91454 14.7266 8.47271 14.7266H6.8ZM10.3633 15.5266V17.1993C10.3633 17.6411 10.7215 17.9993 11.1633 17.9993H12.836C13.2778 17.9993 13.636 17.6411 13.636 17.1993V15.5266C13.636 15.0847 13.2778 14.7266 12.836 14.7266H11.1633C10.7215 14.7266 10.3633 15.0847 10.3633 15.5266ZM15.5266 14.7266C15.0847 14.7266 14.7266 15.0847 14.7266 15.5266V17.1993C14.7266 17.6411 15.0847 17.9993 15.5266 17.9993H17.1993C17.6411 17.9993 17.9993 17.6411 17.9993 17.1993V15.5266C17.9993 15.0847 17.6411 14.7266 17.1993 14.7266H15.5266Z" fill="black"/>
</svg>
