<svg width="24" height="24" viewBox="0 0 24 24" fill="none" xmlns="http://www.w3.org/2000/svg">
<path d="M10.3164 5.81046C9.88063 5.73783 9.46845 6.03224 9.39581 6.46806L7.58003 17.3628C7.50739 17.7986 7.80181 18.2108 8.23762 18.2834C8.67344 18.3561 9.08562 18.0617 9.15826 17.6258L10.974 6.7311C11.0467 6.29528 10.7523 5.8831 10.3164 5.81046Z" fill="black"/>
<path d="M15.7637 5.81046C15.3279 5.73783 14.9157 6.03224 14.8431 6.46806L13.0273 17.3628C12.9547 17.7986 13.2491 18.2108 13.6849 18.2834C14.1207 18.3561 14.5329 18.0617 14.6055 17.6258L16.4213 6.7311C16.4939 6.29528 16.1995 5.8831 15.7637 5.81046Z" fill="black"/>
<path d="M6.14727 9.36227C6.14727 9.8041 6.50544 10.1623 6.94727 10.1623H17.9999C18.4417 10.1623 18.7999 9.8041 18.7999 9.36227C18.7999 8.92045 18.4417 8.56227 17.9999 8.56227H6.94727C6.50544 8.56227 6.14727 8.92045 6.14727 9.36227Z" fill="black"/>
<path d="M5.2 14.7314C5.2 15.1732 5.55817 15.5314 6 15.5314H17.0526C17.4945 15.5314 17.8526 15.1732 17.8526 14.7314C17.8526 14.2896 17.4945 13.9314 17.0526 13.9314H6C5.55817 13.9314 5.2 14.2896 5.2 14.7314Z" fill="black"/>
<path d="M1.5 12C1.5 6.20101 6.20101 1.5 12 1.5C17.799 1.5 22.5 6.20101 22.5 12C22.5 17.799 17.799 22.5 12 22.5C6.20101 22.5 1.5 17.799 1.5 12ZM12 0C5.37258 0 0 5.37258 0 12C0 18.6274 5.37258 24 12 24C18.6274 24 24 18.6274 24 12C24 5.37258 18.6274 0 12 0Z" fill="black"/>
</svg>
