<svg width="24" height="24" viewBox="0 0 24 24" fill="none" xmlns="http://www.w3.org/2000/svg">
<path d="M1.5 12C1.5 6.20101 6.20101 1.5 12 1.5C17.799 1.5 22.5 6.20101 22.5 12C22.5 17.799 17.799 22.5 12 22.5C6.20101 22.5 1.5 17.799 1.5 12ZM12 0C5.37258 0 0 5.37258 0 12C0 18.6274 5.37258 24 12 24C18.6274 24 24 18.6274 24 12C24 5.37258 18.6274 0 12 0Z" fill="black"/>
<path d="M7.21133 10.6045V13.5C7.21133 13.859 7.50234 14.15 7.86133 14.15C8.22031 14.15 8.51133 13.859 8.51133 13.5V10.6045C8.51133 8.69662 10.0579 7.15 11.9658 7.15C13.8737 7.15 15.4203 8.69662 15.4203 10.6045V13.5C15.4203 13.859 15.7113 14.15 16.0703 14.15C16.4293 14.15 16.7203 13.859 16.7203 13.5V10.6045C16.7203 7.97865 14.5916 5.85 11.9658 5.85C9.33998 5.85 7.21133 7.97865 7.21133 10.6045Z" fill="black"/>
<path d="M13.3887 16.9208C13.3887 17.1892 13.5665 17.4314 13.8326 17.4664C13.959 17.483 14.0878 17.4918 14.2188 17.4918C15.9001 17.4918 17.2626 16.1293 17.2626 14.4481C17.2626 12.7674 15.9001 11.4043 14.2188 11.4043C14.0878 11.4043 13.9589 11.4132 13.8326 11.4299C13.5664 11.4652 13.3887 11.7075 13.3887 11.9759V16.9208Z" fill="black"/>
<path d="M10.5731 11.9832C10.5731 11.7147 10.3953 11.4725 10.1292 11.4375C10.0028 11.4209 9.87399 11.4121 9.74299 11.4121C8.06172 11.4121 6.69922 12.7746 6.69922 14.4559C6.69922 16.1366 8.06172 17.4996 9.74299 17.4996C9.87401 17.4996 10.0029 17.4907 10.1292 17.474C10.3953 17.4387 10.5731 17.1965 10.5731 16.928V11.9832Z" fill="black"/>
</svg>
