<svg width="24" height="24" viewBox="0 0 24 24" fill="none" xmlns="http://www.w3.org/2000/svg">
<path d="M1.5 12C1.5 6.20101 6.20101 1.5 12 1.5C17.799 1.5 22.5 6.20101 22.5 12C22.5 17.799 17.799 22.5 12 22.5C6.20101 22.5 1.5 17.799 1.5 12ZM12 0C5.37258 0 0 5.37258 0 12C0 18.6274 5.37258 24 12 24C18.6274 24 24 18.6274 24 12C24 5.37258 18.6274 0 12 0Z" fill="black"/>
<path d="M14.4643 7C13.2543 7 12.46 7.58629 12 8.10743C11.54 7.58629 10.7457 7 9.53571 7C7.42 7 6 8.9306 6 10.7279C6 14.3759 11.8929 17.3636 12 17.3636C12.1071 17.3636 18 14.3759 18 10.7279C18 8.9306 16.58 7 14.4643 7Z" fill="black"/>
</svg>
