<svg width="24" height="24" viewBox="0 0 24 24" fill="none" xmlns="http://www.w3.org/2000/svg">
<path d="M12 1.5C17.799 1.5 22.5 6.20101 22.5 12C22.5 17.799 17.799 22.5 12 22.5C6.20101 22.5 1.5 17.799 1.5 12C1.5 6.20101 6.20101 1.5 12 1.5ZM24 12C24 5.37258 18.6274 0 12 0C5.37258 0 0 5.37258 0 12C0 18.6274 5.37258 24 12 24C18.6274 24 24 18.6274 24 12ZM7.1751 9.0001V13.4375C7.1751 14.8182 8.29439 15.9375 9.6751 15.9375H14.1268L16.7197 18.5303C17.0126 18.8232 17.4874 18.8232 17.7803 18.5303C18.0732 18.2374 18.0732 17.7626 17.7803 17.4697L16.2369 15.9263C16.795 15.8738 17.2997 15.6379 17.6901 15.2795L17.6902 15.2795C18.1257 14.8797 18.419 14.3273 18.4855 13.7072C18.495 13.6186 18.4999 13.5286 18.4999 13.4375C18.4999 13.4374 18.4999 13.4374 18.4999 13.4374V9C18.4999 7.61929 17.3806 6.5 15.9999 6.5H9.6751C8.89193 6.5 8.19286 6.86013 7.73447 7.42381L6.53033 6.21967C6.23744 5.92678 5.76256 5.92678 5.46967 6.21967C5.17678 6.51256 5.17678 6.98744 5.46967 7.28033L7.17514 8.9858L7.17514 8.98668C7.17511 8.99112 7.1751 8.99556 7.1751 9L7.1751 9.0001ZM12.8464 12.5357L8.66404 8.35338C8.87734 8.02057 9.25046 7.8 9.6751 7.8H10.2107L10.2108 7.8001H15.9999C16.6627 7.8001 17.1999 8.33736 17.1999 9.0001L17.1999 12.6684L16.0397 11.7034C15.5897 11.2639 14.8725 11.2595 14.4171 11.6935L13.6537 12.4211C13.4315 12.6329 13.1055 12.6706 12.8464 12.5357ZM9.12685 10.9375L8.4751 11.579L8.4751 10.2858L9.12685 10.9375ZM13.0408 10.6301L13.0409 10.6302L13.0572 10.6303C13.5788 10.6303 14.0017 10.2075 14.0017 9.68582C14.0017 9.68579 14.0017 9.68576 14.0017 9.68573C14.0017 9.68168 14.0017 9.67765 14.0016 9.67361C14.0014 9.65427 14.0006 9.63506 13.9992 9.61601C13.9635 9.12692 13.5554 8.74121 13.0572 8.74121C12.5355 8.74121 12.1127 9.16408 12.1127 9.68573C12.1127 9.68576 12.1127 9.68579 12.1127 9.68582L12.1128 9.70205L12.1128 9.70215L13.0408 10.6301ZM4.85189 10.4844C4.85064 10.5008 4.85 10.5175 4.85 10.5343C4.85 10.5343 4.85 10.5343 4.85 10.5344V14.8011C4.85 16.817 6.48416 18.4511 8.5 18.4511H12.7668C13.1033 18.4511 13.3801 18.1954 13.4134 17.8676C13.4156 17.8457 13.4168 17.8236 13.4168 17.8011C13.4168 17.8011 13.4168 17.8011 13.4168 17.801C13.4168 17.7983 13.4167 17.7955 13.4167 17.7927C13.4164 17.7679 13.4147 17.7435 13.4117 17.7194C13.3715 17.3989 13.0981 17.151 12.7668 17.151H8.5C7.20213 17.151 6.15 16.0989 6.15 14.801V10.5343C6.15 10.1753 5.85899 9.88428 5.5 9.88428C5.15781 9.88428 4.87738 10.1487 4.85189 10.4844Z" fill="black"/>
</svg>
