<svg width="24" height="24" viewBox="0 0 24 24" fill="none" xmlns="http://www.w3.org/2000/svg">
<path d="M22.5004 12C22.5004 17.799 17.7994 22.5 12.0004 22.5C6.20138 22.5 1.50037 17.799 1.50037 12C1.50037 6.20101 6.20138 1.5 12.0004 1.5C17.7994 1.5 22.5004 6.20101 22.5004 12ZM12.0004 24C18.6278 24 24.0004 18.6274 24.0004 12C24.0004 5.37258 18.6278 0 12.0004 0C5.37295 0 0.000366211 5.37258 0.000366211 12C0.000366211 18.6274 5.37295 24 12.0004 24ZM16 7.8C16.6627 7.8 17.2 8.33726 17.2 9V12.6691L16.0392 11.7036C15.5892 11.2641 14.8719 11.2598 14.4166 11.6938L13.6532 12.4214C13.3792 12.6825 12.9473 12.679 12.6776 12.4133L11.0941 10.8537C10.5721 10.3396 9.73424 10.3394 9.2121 10.8533L8.47517 11.5786V9C8.47517 8.33726 9.01243 7.8 9.67517 7.8H16ZM9.67517 6.5C8.29446 6.5 7.17517 7.61929 7.17517 9V13.4374C7.17517 14.8181 8.29446 15.9374 9.67517 15.9374H16C17.3807 15.9374 18.5 14.8181 18.5 13.4374V9C18.5 7.61929 17.3807 6.5 16 6.5H9.67517ZM6.14998 10.5343C6.14998 10.1753 5.85896 9.88428 5.49998 9.88428C5.14099 9.88428 4.84998 10.1753 4.84998 10.5343V14.801C4.84998 16.8169 6.48413 18.451 8.49997 18.451H12.7667C13.1257 18.451 13.4167 18.16 13.4167 17.801C13.4167 17.4421 13.1257 17.151 12.7667 17.151H8.49997C7.20211 17.151 6.14998 16.0989 6.14998 14.801V10.5343ZM14.0017 9.68597C14.0017 9.16433 13.5788 8.74146 13.0572 8.74146C12.5355 8.74146 12.1127 9.16433 12.1127 9.68597C12.1127 10.2076 12.5355 10.6305 13.0572 10.6305C13.5788 10.6305 14.0017 10.2076 14.0017 9.68597Z" fill="black"/>
</svg>
