<svg width="24" height="24" viewBox="0 0 24 24" fill="none" xmlns="http://www.w3.org/2000/svg">
<path d="M12 22.5C6.20101 22.5 1.5 17.799 1.5 12C1.5 6.20101 6.20101 1.5 12 1.5C17.799 1.5 22.5 6.20101 22.5 12C22.5 17.799 17.799 22.5 12 22.5ZM0 12C0 18.6274 5.37258 24 12 24C18.6274 24 24 18.6274 24 12C24 5.37258 18.6274 0 12 0C5.37258 0 0 5.37258 0 12ZM7 9.64551C7 8.81708 7.67157 8.14551 8.5 8.14551H15.5C16.3284 8.14551 17 8.81708 17 9.64551V13.6819L15.5023 12.4363C14.9539 11.9007 14.08 11.8954 13.5251 12.4242L12.595 13.3108C12.2611 13.6291 11.7348 13.6247 11.4061 13.301L9.47669 11.4006C8.8407 10.7742 7.81973 10.774 7.18351 11.4002L7 11.5925V9.64551ZM5.5 9.64551V14.4788C5.5 16.1357 6.84315 17.4788 8.5 17.4788H15.5C17.1569 17.4788 18.5 16.1357 18.5 14.4788V9.64551C18.5 7.98865 17.1569 6.64551 15.5 6.64551H8.5C6.84315 6.64551 5.5 7.98865 5.5 9.64551ZM12.6124 11.341C13.4102 11.341 14.0569 10.6943 14.0569 9.89659C14.0569 9.09885 13.4102 8.45215 12.6124 8.45215C11.8147 8.45215 11.168 9.09885 11.168 9.89659C11.168 10.6943 11.8147 11.341 12.6124 11.341Z" fill="black"/>
</svg>
