<svg width="24" height="24" viewBox="0 0 24 24" fill="none" xmlns="http://www.w3.org/2000/svg">
<path d="M12 1.5C17.799 1.5 22.5 6.20101 22.5 12C22.5 17.799 17.799 22.5 12 22.5C6.20101 22.5 1.5 17.799 1.5 12C1.5 6.20101 6.20101 1.5 12 1.5ZM24 12C24 5.37258 18.6274 0 12 0C5.37258 0 0 5.37258 0 12C0 18.6274 5.37258 24 12 24C18.6274 24 24 18.6274 24 12ZM6 8V12.683H9.33333C10.0917 12.683 10.5563 13.2911 10.7238 13.7749C10.9071 14.3044 11.4102 14.683 12 14.683C12.5898 14.683 13.0929 14.3044 13.2762 13.7749C13.4437 13.2911 13.9083 12.683 14.6667 12.683H18V8C18 6.89543 17.1046 6 16 6H8C6.89543 6 6 6.89543 6 8ZM14.6667 13.983L14.6656 13.9831C14.6653 13.9832 14.6638 13.9835 14.6607 13.9848C14.6545 13.9874 14.6407 13.9947 14.6214 14.0121C14.5799 14.0496 14.5338 14.1159 14.5046 14.2003C14.1457 15.237 13.1608 15.983 12 15.983C10.8392 15.983 9.8543 15.237 9.49535 14.2003C9.46616 14.1159 9.4201 14.0496 9.37858 14.0121C9.35931 13.9947 9.34548 13.9874 9.33926 13.9848C9.33624 13.9835 9.33468 13.9832 9.33437 13.9831L9.33333 13.983H6V16C6 17.1046 6.89543 18 8 18H16C17.1046 18 18 17.1046 18 16V13.983H14.6667Z" fill="black"/>
</svg>
