<svg width="24" height="24" viewBox="0 0 24 24" fill="none" xmlns="http://www.w3.org/2000/svg">
<path d="M12 22.5C6.20101 22.5 1.5 17.799 1.5 12C1.5 6.20101 6.20101 1.5 12 1.5C17.799 1.5 22.5 6.20101 22.5 12C22.5 17.799 17.799 22.5 12 22.5ZM0 12C0 18.6274 5.37258 24 12 24C18.6274 24 24 18.6274 24 12C24 5.37258 18.6274 0 12 0C5.37258 0 0 5.37258 0 12ZM10.1547 10.8888C10.1547 11.3858 10.5576 11.7888 11.0547 11.7888H11.3769V16.0999H11.3602C10.8632 16.0999 10.4602 16.5028 10.4602 16.9999C10.4602 17.4969 10.8632 17.8999 11.3602 17.8999H13.1936C13.6906 17.8999 14.0936 17.4969 14.0936 16.9999C14.0936 16.5028 13.6906 16.0999 13.1936 16.0999H13.1769V10.8888C13.1769 10.3917 12.7739 9.98878 12.2769 9.98878H11.0547C10.5576 9.98878 10.1547 10.3917 10.1547 10.8888ZM11.9677 6.00001C11.2931 6.00001 10.7455 6.54756 10.7504 7.22223C10.7504 7.8969 11.298 8.44445 11.9726 8.44445C12.6473 8.44445 13.1948 7.8969 13.1948 7.22223C13.1948 6.54756 12.6473 6.00001 11.9677 6.00001Z" fill="black"/>
</svg>
