<svg width="24" height="24" viewBox="0 0 24 24" fill="none" xmlns="http://www.w3.org/2000/svg">
<path d="M1.5 12C1.5 6.20101 6.20101 1.5 12 1.5C17.799 1.5 22.5 6.20101 22.5 12C22.5 17.799 17.799 22.5 12 22.5C6.20101 22.5 1.5 17.799 1.5 12ZM12 0C5.37258 0 0 5.37258 0 12C0 18.6274 5.37258 24 12 24C18.6274 24 24 18.6274 24 12C24 5.37258 18.6274 0 12 0Z" fill="black"/>
<path d="M9.214 6.42857C9.214 6.94141 9.62974 7.35714 10.1426 7.35714H12.7766L9.20365 15.715H6.42857C5.91574 15.715 5.5 16.1307 5.5 16.6436C5.5 17.1564 5.91574 17.5721 6.42857 17.5721H13.8574C14.3703 17.5721 14.786 17.1564 14.786 16.6436C14.786 16.1307 14.3703 15.715 13.8574 15.715H11.2234L14.7964 7.35714H17.5714C18.0843 7.35714 18.5 6.94141 18.5 6.42857C18.5 5.91574 18.0843 5.5 17.5714 5.5H10.1426C9.62974 5.5 9.214 5.91574 9.214 6.42857Z" fill="black"/>
</svg>
