<svg width="24" height="24" viewBox="0 0 24 24" fill="none" xmlns="http://www.w3.org/2000/svg">
<path d="M0 12C0 18.6274 5.37258 24 12 24C18.6274 24 24 18.6274 24 12C24 5.37258 18.6274 0 12 0C5.37258 0 0 5.37258 0 12ZM12 22.5C6.20101 22.5 1.5 17.799 1.5 12C1.5 6.20101 6.20101 1.5 12 1.5C17.799 1.5 22.5 6.20101 22.5 12C22.5 17.799 17.799 22.5 12 22.5Z" fill="black"/>
<path d="M6.11772 6.16094C5.8931 6.37965 5.88831 6.73903 6.10702 6.96364L7.28535 8.17382C5.93044 8.8509 5 10.2513 5 11.8689C5 14.149 6.84831 15.9973 9.12832 15.9973C10.7068 15.9973 12.0783 15.1114 12.7729 13.8097L16.6084 17.7489C16.8271 17.9735 17.1865 17.9783 17.4111 17.7596C17.6257 17.5507 17.6397 17.2135 17.4499 16.9879C17.42 16.9673 17.3916 16.9434 17.3653 16.9163L6.86387 6.13112C6.85405 6.12103 6.84468 6.11067 6.83577 6.10007C6.61711 5.94912 6.31528 5.96858 6.11772 6.16094ZM9.16272 13.0386C8.53572 13.0386 8.02743 12.5303 8.02743 11.9033C8.02743 11.2763 8.53572 10.7681 9.16272 10.7681C9.78972 10.7681 10.298 11.2763 10.298 11.9033C10.298 12.5303 9.78972 13.0386 9.16272 13.0386Z" fill="black"/>
<path d="M16.8491 14.7588H17.453C17.871 14.7588 18.2098 14.42 18.2098 14.002V12.4366H18.6228C18.9363 12.4366 19.1904 12.1825 19.1904 11.869C19.1904 11.5555 18.9363 11.3013 18.6228 11.3013H18.2098V11.298H14.9072V11.3013H13.5364C13.121 9.50437 11.6553 8.07161 9.7682 7.58948L13.5523 11.3729L14.588 12.4366H14.9072V12.7644L16.8491 14.7588Z" fill="black"/>
</svg>
