<svg width="24" height="24" viewBox="0 0 24 24" fill="none" xmlns="http://www.w3.org/2000/svg">
<path d="M9.24242 16.4848C11.3131 16.4848 13.0372 15.0014 13.4101 13.0393C13.4346 13.0415 13.4593 13.0427 13.4844 13.0427H15.1816V14.2123C15.1816 14.7645 15.6294 15.2123 16.1816 15.2123H17.5756C18.1279 15.2123 18.5756 14.7645 18.5756 14.2123V13.0427H18.9995C19.4414 13.0427 19.7995 12.6845 19.7995 12.2427C19.7995 11.8008 19.4414 11.4427 18.9995 11.4427H13.4844C13.4594 11.4427 13.4346 11.4438 13.4102 11.4461C13.0375 9.48371 11.3133 8 9.24242 8C6.8994 8 5 9.8994 5 12.2424C5 14.5855 6.8994 16.4848 9.24242 16.4848ZM9.27799 13.4447C8.63366 13.4447 8.11133 12.9223 8.11133 12.278C8.11133 11.6337 8.63366 11.1113 9.27799 11.1113C9.92233 11.1113 10.4447 11.6337 10.4447 12.278C10.4447 12.9223 9.92233 13.4447 9.27799 13.4447Z" fill="black"/>
<path d="M0 12C0 18.6274 5.37258 24 12 24C18.6274 24 24 18.6274 24 12C24 5.37258 18.6274 0 12 0C5.37258 0 0 5.37258 0 12ZM12 22.5C6.20101 22.5 1.5 17.799 1.5 12C1.5 6.20101 6.20101 1.5 12 1.5C17.799 1.5 22.5 6.20101 22.5 12C22.5 17.799 17.799 22.5 12 22.5Z" fill="black"/>
</svg>
