<svg width="24" height="24" viewBox="0 0 24 24" fill="none" xmlns="http://www.w3.org/2000/svg">
<path d="M1.5 12C1.5 6.20101 6.20101 1.5 12 1.5C17.799 1.5 22.5 6.20101 22.5 12C22.5 17.799 17.799 22.5 12 22.5C6.20101 22.5 1.5 17.799 1.5 12ZM12 0C5.37258 0 0 5.37258 0 12C0 18.6274 5.37258 24 12 24C18.6274 24 24 18.6274 24 12C24 5.37258 18.6274 0 12 0Z" fill="black"/>
<path d="M7 7.09998C5.89543 7.09998 5 7.99541 5 9.09998V14.9C5 16.0045 5.89543 16.9 7 16.9H17C18.1046 16.9 19 16.0045 19 14.9V9.09998C19 7.99541 18.1046 7.09998 17 7.09998H7ZM7.39961 9.20007H8.19961C8.36529 9.20007 8.49961 9.33439 8.49961 9.50007V10.3001C8.49961 10.4658 8.3653 10.6001 8.19961 10.6001H7.39961C7.23392 10.6001 7.09961 10.4658 7.09961 10.3001V9.50007C7.09961 9.33439 7.23392 9.20007 7.39961 9.20007ZM7.09961 11.6002C7.09961 11.4345 7.23392 11.3002 7.39961 11.3002H8.19961C8.36529 11.3002 8.49961 11.4345 8.49961 11.6002V12.4002C8.49961 12.5659 8.3653 12.7002 8.19961 12.7002H7.39961C7.23392 12.7002 7.09961 12.5659 7.09961 12.4002V11.6002ZM10.2004 9.20007H11.0004C11.1661 9.20007 11.3004 9.33439 11.3004 9.50007V10.3001C11.3004 10.4658 11.1661 10.6001 11.0004 10.6001H10.2004C10.0347 10.6001 9.90039 10.4658 9.90039 10.3001V9.50007C9.90039 9.33439 10.0347 9.20007 10.2004 9.20007ZM9.90039 11.6002C9.90039 11.4345 10.0347 11.3002 10.2004 11.3002H11.0004C11.1661 11.3002 11.3004 11.4345 11.3004 11.6002V12.4002C11.3004 12.5659 11.1661 12.7002 11.0004 12.7002H10.2004C10.0347 12.7002 9.90039 12.5659 9.90039 12.4002V11.6002ZM12.9992 9.20007H13.7992C13.9649 9.20007 14.0992 9.33439 14.0992 9.50007V10.3001C14.0992 10.4658 13.9649 10.6001 13.7992 10.6001H12.9992C12.8335 10.6001 12.6992 10.4658 12.6992 10.3001V9.50007C12.6992 9.33439 12.8335 9.20007 12.9992 9.20007ZM12.6992 11.6002C12.6992 11.4345 12.8335 11.3002 12.9992 11.3002H13.7992C13.9649 11.3002 14.0992 11.4345 14.0992 11.6002V12.4002C14.0992 12.5659 13.9649 12.7002 13.7992 12.7002H12.9992C12.8335 12.7002 12.6992 12.5659 12.6992 12.4002V11.6002ZM15.8 9.20007H16.6C16.7657 9.20007 16.9 9.33439 16.9 9.50007V10.3001C16.9 10.4658 16.7657 10.6001 16.6 10.6001H15.8C15.6343 10.6001 15.5 10.4658 15.5 10.3001V9.50007C15.5 9.33439 15.6343 9.20007 15.8 9.20007ZM15.5 11.6002C15.5 11.4345 15.6343 11.3002 15.8 11.3002H16.6C16.7657 11.3002 16.9 11.4345 16.9 11.6002V12.4002C16.9 12.5659 16.7657 12.7002 16.6 12.7002H15.8C15.6343 12.7002 15.5 12.5659 15.5 12.4002V11.6002ZM8.5 13.95H15.5C15.859 13.95 16.15 14.241 16.15 14.6C16.15 14.959 15.859 15.25 15.5 15.25H8.5C8.14102 15.25 7.85 14.959 7.85 14.6C7.85 14.241 8.14102 13.95 8.5 13.95Z" fill="black"/>
</svg>
