<svg width="24" height="24" viewBox="0 0 24 24" fill="none" xmlns="http://www.w3.org/2000/svg">
<path d="M1.5 12C1.5 6.20101 6.20101 1.5 12 1.5C17.799 1.5 22.5 6.20101 22.5 12C22.5 17.799 17.799 22.5 12 22.5C6.20101 22.5 1.5 17.799 1.5 12ZM12 0C5.37258 0 0 5.37258 0 12C0 18.6274 5.37258 24 12 24C18.6274 24 24 18.6274 24 12C24 5.37258 18.6274 0 12 0Z" fill="black"/>
<path d="M12.241 6.58272C12.0909 6.5002 11.9091 6.5002 11.759 6.58272L6.79656 9.31209C6.45117 9.50205 6.45117 9.99834 6.79656 10.1883L11.759 12.9177C11.9091 13.0002 12.0909 13.0002 12.241 12.9177L17.2034 10.1883C17.5488 9.99834 17.5488 9.50205 17.2034 9.31209L12.241 6.58272Z" fill="black"/>
<path d="M6.01823 14.5599C5.85769 14.881 5.98783 15.2714 6.30892 15.432L11.7089 18.132C11.8919 18.2235 12.1073 18.2235 12.2903 18.132L17.6903 15.432C18.0114 15.2714 18.1415 14.881 17.981 14.5599C17.8204 14.2388 17.43 14.1087 17.1089 14.2692L11.9996 16.8239L6.8903 14.2692C6.56921 14.1087 6.17877 14.2388 6.01823 14.5599Z" fill="black"/>
<path d="M6.01823 11.9593C5.85769 12.2804 5.98783 12.6708 6.30892 12.8314L11.7089 15.5314C11.8919 15.6229 12.1073 15.6229 12.2903 15.5314L17.6903 12.8314C18.0114 12.6708 18.1415 12.2804 17.981 11.9593C17.8204 11.6382 17.43 11.5081 17.1089 11.6686L11.9996 14.2233L6.8903 11.6686C6.56921 11.5081 6.17877 11.6382 6.01823 11.9593Z" fill="black"/>
</svg>
