<svg width="24" height="24" viewBox="0 0 24 24" fill="none" xmlns="http://www.w3.org/2000/svg">
<path d="M1.5 12C1.5 6.20101 6.20101 1.5 12 1.5C17.799 1.5 22.5 6.20101 22.5 12C22.5 17.799 17.799 22.5 12 22.5C6.20101 22.5 1.5 17.799 1.5 12ZM12 0C5.37258 0 0 5.37258 0 12C0 18.6274 5.37258 24 12 24C18.6274 24 24 18.6274 24 12C24 5.37258 18.6274 0 12 0Z" fill="black"/>
<path d="M15.6784 16.424C15.9126 16.0493 15.7987 15.5558 15.424 15.3216L10.1094 12L15.424 8.6784C15.7987 8.44423 15.9126 7.95067 15.6784 7.576C15.4442 7.20133 14.9507 7.08743 14.576 7.3216L8.176 11.3216C7.9421 11.4678 7.8 11.7242 7.8 12C7.8 12.2758 7.9421 12.5322 8.176 12.6784L14.576 16.6784C14.9507 16.9126 15.4442 16.7987 15.6784 16.424Z" fill="black"/>
</svg>
