<svg width="24" height="24" viewBox="0 0 24 24" fill="none" xmlns="http://www.w3.org/2000/svg">
<path d="M15.0359 7.24651C14.2627 6.47331 13.1905 6 11.9967 6C10.8028 6 9.73065 6.47331 8.95745 7.24651C8.18425 8.01971 7.71094 9.09184 7.71094 10.2857C7.71094 11.8494 8.54232 13.2072 9.76808 13.908V15.4429C9.76808 15.719 9.99194 15.9429 10.2681 15.9429H13.7252C14.0014 15.9429 14.2252 15.719 14.2252 15.4429V13.9223C15.4444 13.1428 16.2824 11.7858 16.2824 10.2857C16.2824 9.09184 15.8091 8.01971 15.0359 7.24651Z" fill="black"/>
<path d="M10.1113 17.4998V16.6284H13.8828V17.4998C13.8828 17.776 13.6589 17.9998 13.3828 17.9998H10.6113C10.3352 17.9998 10.1113 17.776 10.1113 17.4998Z" fill="black"/>
<path d="M0 12C0 18.6274 5.37258 24 12 24C18.6274 24 24 18.6274 24 12C24 5.37258 18.6274 0 12 0C5.37258 0 0 5.37258 0 12ZM12 22.5C6.20101 22.5 1.5 17.799 1.5 12C1.5 6.20101 6.20101 1.5 12 1.5C17.799 1.5 22.5 6.20101 22.5 12C22.5 17.799 17.799 22.5 12 22.5Z" fill="black"/>
</svg>
