<svg width="24" height="24" viewBox="0 0 24 24" fill="none" xmlns="http://www.w3.org/2000/svg">
<path d="M1.5 12C1.5 6.20101 6.20101 1.5 12 1.5C17.799 1.5 22.5 6.20101 22.5 12C22.5 17.799 17.799 22.5 12 22.5C6.20101 22.5 1.5 17.799 1.5 12ZM12 0C5.37258 0 0 5.37258 0 12C0 18.6274 5.37258 24 12 24C18.6274 24 24 18.6274 24 12C24 5.37258 18.6274 0 12 0Z" fill="black"/>
<path d="M12.2581 6.70091L11.2985 7.65485C10.9851 7.96636 10.9837 8.47289 11.2952 8.78621C11.6067 9.09954 12.1132 9.10102 12.4265 8.78951L13.3735 7.84809C14.1449 7.1069 15.3681 7.11876 16.1251 7.87572C16.8818 8.63242 16.8939 9.85503 16.1534 10.6266L14.4993 12.2807C14.0961 12.6841 13.5376 12.8924 12.9687 12.8517C12.3999 12.8109 11.8767 12.5251 11.5351 12.0684C11.2705 11.7146 10.7691 11.6423 10.4153 11.907C10.0615 12.1716 9.98927 12.673 10.2539 13.0268C10.8736 13.8552 11.8225 14.3737 12.8544 14.4476C13.8863 14.5215 14.8995 14.1435 15.6309 13.4119L17.2902 11.7527L17.2999 11.7427C18.6511 10.3436 18.6318 8.11972 17.2564 6.74434C15.8811 5.36897 13.6572 5.34964 12.2581 6.70091Z" fill="black"/>
<path d="M8.37002 10.5767L6.71057 12.236L6.70091 12.246C5.34964 13.6451 5.36897 15.869 6.74434 17.2444C8.11972 18.6197 10.3437 18.6392 11.7428 17.2879L12.6984 16.3322C13.0109 16.0198 13.0109 15.5133 12.6984 15.2008C12.386 14.8884 11.8795 14.8884 11.5671 15.2008L10.6266 16.1414C9.85502 16.8818 8.63241 16.8697 7.87572 16.113C7.11901 15.3563 7.1069 14.1337 7.84736 13.3621L9.5015 11.708C9.9047 11.3047 10.4632 11.0963 11.0321 11.1371C11.6009 11.1778 12.124 11.4636 12.4656 11.9203C12.7303 12.2741 13.2316 12.3464 13.5854 12.0817C13.9392 11.8171 14.0115 11.3157 13.7469 10.9619C13.1272 10.1335 12.1783 9.61505 11.1464 9.54115C10.1145 9.46725 9.10142 9.84514 8.37002 10.5767Z" fill="black"/>
</svg>
