<svg width="24" height="24" viewBox="0 0 24 24" fill="none" xmlns="http://www.w3.org/2000/svg">
<path d="M1.5 12C1.5 6.20101 6.20101 1.5 12 1.5C17.799 1.5 22.5 6.20101 22.5 12C22.5 17.799 17.799 22.5 12 22.5C6.20101 22.5 1.5 17.799 1.5 12ZM12 0C5.37258 0 0 5.37258 0 12C0 18.6274 5.37258 24 12 24C18.6274 24 24 18.6274 24 12C24 5.37258 18.6274 0 12 0Z" fill="black"/>
<path d="M16.7499 6.58528L6.99248 11.1535C6.60431 11.3353 6.60975 11.8892 7.00141 12.0633L10.2424 13.5037C10.3556 13.554 10.446 13.6444 10.4963 13.7576L11.9367 16.9986C12.1108 17.3903 12.6647 17.3957 12.8465 17.0075L17.4147 7.25012C17.613 6.82666 17.1733 6.38703 16.7499 6.58528Z" fill="black"/>
</svg>
