<svg width="24" height="24" viewBox="0 0 24 24" fill="none" xmlns="http://www.w3.org/2000/svg">
<path d="M12 22.5C6.20101 22.5 1.5 17.799 1.5 12C1.5 6.20101 6.20101 1.5 12 1.5C17.799 1.5 22.5 6.20101 22.5 12C22.5 17.799 17.799 22.5 12 22.5ZM0 12C0 18.6274 5.37258 24 12 24C18.6274 24 24 18.6274 24 12C24 5.37258 18.6274 0 12 0C5.37258 0 0 5.37258 0 12ZM8.91974 8.00735C8.91974 8.36634 9.21075 8.65735 9.56974 8.65735C9.92872 8.65735 10.2197 8.36634 10.2197 8.00735C10.2197 7.25776 10.8274 6.6501 11.577 6.6501H11.9967C12.9781 6.6501 13.7737 7.44569 13.7737 8.4271V9.88844V9.88916H8.91426C7.63612 9.88916 6.59998 10.8795 6.59998 12.1012V15.788C6.59998 17.0097 7.63612 18.0001 8.91426 18.0001H15.0857C16.3638 18.0001 17.4 17.0097 17.4 15.788V12.1012C17.4 10.8795 16.3638 9.88916 15.0857 9.88916H15.0737V9.88844V8.4271C15.0737 6.72772 13.6961 5.3501 11.9967 5.3501H11.577C10.1094 5.3501 8.91974 6.53979 8.91974 8.00735ZM11.975 12.6001C12.4582 12.6001 12.85 12.9918 12.85 13.4751V14.7251C12.85 15.2083 12.4582 15.6001 11.975 15.6001C11.4917 15.6001 11.1 15.2083 11.1 14.7251V13.4751C11.1 12.9918 11.4917 12.6001 11.975 12.6001Z" fill="black"/>
</svg>
