<svg width="24" height="24" viewBox="0 0 24 24" fill="none" xmlns="http://www.w3.org/2000/svg">
<path d="M12 22.5C6.20101 22.5 1.5 17.799 1.5 12C1.5 6.20101 6.20101 1.5 12 1.5C17.799 1.5 22.5 6.20101 22.5 12C22.5 17.799 17.799 22.5 12 22.5ZM0 12C0 18.6274 5.37258 24 12 24C18.6274 24 24 18.6274 24 12C24 5.37258 18.6274 0 12 0C5.37258 0 0 5.37258 0 12ZM8.90002 8.42148V9.459C7.62885 9.46301 6.59961 10.4947 6.59961 11.7668V15.6133C6.59961 16.8879 7.63287 17.9211 8.90747 17.9211H15.0618C16.3363 17.9211 17.3696 16.8879 17.3696 15.6133V11.7668C17.3696 10.4922 16.3363 9.45898 15.0618 9.45898H15.0428V8.42148C15.0428 6.7252 13.6677 5.3501 11.9714 5.3501C10.2751 5.3501 8.90002 6.7252 8.90002 8.42148ZM13.7428 8.42148V9.45898H10.2V8.42148C10.2 7.44317 10.9931 6.6501 11.9714 6.6501C12.9497 6.6501 13.7428 7.44317 13.7428 8.42148Z" fill="black"/>
</svg>
