<svg width="24" height="24" viewBox="0 0 24 24" fill="none" xmlns="http://www.w3.org/2000/svg">
<path d="M12 22.5C6.20101 22.5 1.5 17.799 1.5 12C1.5 6.20101 6.20101 1.5 12 1.5C17.799 1.5 22.5 6.20101 22.5 12C22.5 17.799 17.799 22.5 12 22.5ZM0 12C0 18.6274 5.37258 24 12 24C18.6274 24 24 18.6274 24 12C24 5.37258 18.6274 0 12 0C5.37258 0 0 5.37258 0 12ZM8.89999 8.42148V9.45909C7.62883 9.46313 6.59961 10.4948 6.59961 11.7669V15.6134C6.59961 16.888 7.63287 17.9212 8.90747 17.9212H15.0618C16.3363 17.9212 17.3696 16.888 17.3696 15.6134V11.7669C17.3696 10.4923 16.3363 9.45908 15.0618 9.45908H15.0427V8.42148C15.0427 6.7252 13.6676 5.3501 11.9714 5.3501C10.2751 5.3501 8.89999 6.7252 8.89999 8.42148ZM13.7427 8.42148V9.45908H10.2V8.42148C10.2 7.44317 10.9931 6.6501 11.9714 6.6501C12.9497 6.6501 13.7427 7.44317 13.7427 8.42148ZM11.9746 12.0001C12.4579 12.0001 12.8496 12.3918 12.8496 12.8751V14.1251C12.8496 14.6083 12.4579 15.0001 11.9746 15.0001C11.4914 15.0001 11.0996 14.6083 11.0996 14.1251V12.8751C11.0996 12.3918 11.4914 12.0001 11.9746 12.0001Z" fill="black"/>
</svg>
