<svg width="24" height="24" viewBox="0 0 24 24" fill="none" xmlns="http://www.w3.org/2000/svg">
<path d="M12 22.5C6.20101 22.5 1.5 17.799 1.5 12C1.5 6.20101 6.20101 1.5 12 1.5C17.799 1.5 22.5 6.20101 22.5 12C22.5 17.799 17.799 22.5 12 22.5ZM0 12C0 18.6274 5.37258 24 12 24C18.6274 24 24 18.6274 24 12C24 5.37258 18.6274 0 12 0C5.37258 0 0 5.37258 0 12ZM8.91956 8.00735C8.91956 8.36634 9.21057 8.65735 9.56956 8.65735C9.92854 8.65735 10.2196 8.36634 10.2196 8.00735C10.2196 7.25776 10.8272 6.6501 11.5768 6.6501H11.9966C12.978 6.6501 13.7736 7.44569 13.7736 8.4271V9.88844V9.88916H8.91426C7.63612 9.88916 6.59998 10.8795 6.59998 12.1012V15.788C6.59998 17.0097 7.63612 18.0001 8.91426 18.0001H15.0857C16.3638 18.0001 17.4 17.0097 17.4 15.788V12.1012C17.4 10.8795 16.3638 9.88916 15.0857 9.88916H15.0736V9.88844V8.4271C15.0736 6.72772 13.6959 5.3501 11.9966 5.3501H11.5768C10.1092 5.3501 8.91956 6.53979 8.91956 8.00735Z" fill="black"/>
</svg>
