<svg width="24" height="24" viewBox="0 0 24 24" fill="none" xmlns="http://www.w3.org/2000/svg">
<path d="M12 22.5C6.20101 22.5 1.5 17.799 1.5 12C1.5 6.20101 6.20101 1.5 12 1.5C17.799 1.5 22.5 6.20101 22.5 12C22.5 17.799 17.799 22.5 12 22.5ZM0 12C0 18.6274 5.37258 24 12 24C18.6274 24 24 18.6274 24 12C24 5.37258 18.6274 0 12 0C5.37258 0 0 5.37258 0 12ZM11.6146 17.853C11.824 18.049 12.1397 18.049 12.3491 17.853C13.4033 16.8662 16.3638 13.8455 16.3638 11.0442C16.3638 8.5345 14.4019 6.5 11.9819 6.5C9.56181 6.5 7.59998 8.5345 7.59998 11.0442C7.59998 13.8455 10.5605 16.8662 11.6146 17.853Z" fill="black"/>
</svg>
