<svg width="24" height="24" viewBox="0 0 24 24" fill="none" xmlns="http://www.w3.org/2000/svg">
<path d="M12 22.5C6.20101 22.5 1.5 17.799 1.5 12C1.5 6.20101 6.20101 1.5 12 1.5C17.799 1.5 22.5 6.20101 22.5 12C22.5 17.799 17.799 22.5 12 22.5ZM0 12C0 18.6274 5.37258 24 12 24C18.6274 24 24 18.6274 24 12C24 5.37258 18.6274 0 12 0C5.37258 0 0 5.37258 0 12ZM8.94922 6.63106L5.64102 7.90345C5.25483 8.05198 5 8.42302 5 8.83679V16.0371C5 16.7669 5.75644 17.2509 6.41906 16.945L8.94922 15.7773V6.63106ZM10.1492 15.7397L14.1992 17.3597V7.94973L10.1492 6.59973V15.7397ZM18.4472 15.7764C18.786 15.607 19 15.2607 19 14.882V7.89999C19 7.18641 18.2741 6.70246 17.6154 6.97691L15.3992 7.90032V17.3004L18.4472 15.7764Z" fill="black"/>
</svg>
