<svg width="24" height="24" viewBox="0 0 24 24" fill="none" xmlns="http://www.w3.org/2000/svg">
<path d="M12 1.5C17.799 1.5 22.5 6.20101 22.5 12C22.5 17.799 17.799 22.5 12 22.5C6.20101 22.5 1.5 17.799 1.5 12C1.5 6.20101 6.20101 1.5 12 1.5ZM24 12C24 5.37258 18.6274 0 12 0C5.37258 0 0 5.37258 0 12C0 18.6274 5.37258 24 12 24C18.6274 24 24 18.6274 24 12ZM5 7.78027V16.2247C5 17.3293 5.89543 18.2247 7 18.2247H17C18.1046 18.2247 19 17.3293 19 16.2247V7.78027C19 6.6757 18.1046 5.78027 17 5.78027H7C5.89543 5.78027 5 6.6757 5 7.78027ZM6.55554 8.12461C6.55554 7.9037 6.73463 7.72461 6.95554 7.72461H17.0444C17.2653 7.72461 17.4444 7.9037 17.4444 8.12461V9.65794C17.4444 9.87886 17.2653 10.0579 17.0444 10.0579H6.95554C6.73463 10.0579 6.55554 9.87886 6.55554 9.65794V8.12461Z" fill="black"/>
</svg>
