<svg width="24" height="24" viewBox="0 0 24 24" fill="none" xmlns="http://www.w3.org/2000/svg">
<path d="M1.5 12C1.5 6.20101 6.20101 1.5 12 1.5C17.799 1.5 22.5 6.20101 22.5 12C22.5 17.799 17.799 22.5 12 22.5C6.20101 22.5 1.5 17.799 1.5 12ZM12 0C5.37258 0 0 5.37258 0 12C0 18.6274 5.37258 24 12 24C18.6274 24 24 18.6274 24 12C24 5.37258 18.6274 0 12 0Z" fill="black"/>
<path d="M9.91675 8.10087C9.91187 8.15826 9.90938 8.21633 9.90938 8.27497V11.435C9.90938 12.5534 10.816 13.46 11.9344 13.46C12.8094 13.46 13.5548 12.905 13.8377 12.1278L9.91675 8.10087ZM14.7085 13.0222C14.1632 13.9505 13.1542 14.5738 11.9996 14.5738C10.2657 14.5738 8.86016 13.1682 8.86016 11.4343V10.8027C8.86016 10.4437 8.56914 10.1527 8.21016 10.1527C7.85117 10.1527 7.56016 10.4437 7.56016 10.8027V11.4343C7.56016 13.6652 9.20569 15.5118 11.3492 15.8265V17.1H9.47383C9.11484 17.1 8.82383 17.391 8.82383 17.75C8.82383 18.109 9.11484 18.4 9.47383 18.4H14.5265C14.8854 18.4 15.1765 18.109 15.1765 17.75C15.1765 17.391 14.8854 17.1 14.5265 17.1H12.6492V15.8266C13.8841 15.6455 14.9537 14.9561 15.6388 13.9776L14.7085 13.0222ZM16.245 12.7367C16.3712 12.3248 16.4391 11.8875 16.4391 11.4343V10.8027C16.4391 10.4437 16.1481 10.1527 15.7891 10.1527C15.4301 10.1527 15.1391 10.4437 15.1391 10.8027V11.4343C15.1391 11.4887 15.1377 11.5429 15.135 11.5966L16.245 12.7367ZM13.9594 10.3893V8.27498C13.9594 7.1566 13.0528 6.24998 11.9344 6.24998C11.3762 6.24998 10.8708 6.47579 10.5045 6.84104L13.9594 10.3893Z" fill="black"/>
<path d="M6.54616 5.53427C6.28896 5.7847 6.28347 6.19622 6.5339 6.45343L17.3256 17.5368C17.576 17.794 17.9875 17.7994 18.2447 17.549C18.5019 17.2986 18.5074 16.8871 18.257 16.6299L7.46532 5.54653C7.21488 5.28932 6.80336 5.28384 6.54616 5.53427Z" fill="black"/>
</svg>
