<svg width="24" height="24" viewBox="0 0 24 24" fill="none" xmlns="http://www.w3.org/2000/svg">
<path d="M1.5 12C1.5 6.20101 6.20101 1.5 12 1.5C17.799 1.5 22.5 6.20101 22.5 12C22.5 17.799 17.799 22.5 12 22.5C6.20101 22.5 1.5 17.799 1.5 12ZM12 0C5.37258 0 0 5.37258 0 12C0 18.6274 5.37258 24 12 24C18.6274 24 24 18.6274 24 12C24 5.37258 18.6274 0 12 0Z" fill="black"/>
<path d="M9.91016 8.275V11.435C9.91016 12.5534 10.8168 13.46 11.9352 13.46C13.0535 13.46 13.9602 12.5534 13.9602 11.435V8.275C13.9602 7.15662 13.0535 6.25 11.9352 6.25C10.8168 6.25 9.91016 7.15662 9.91016 8.275Z" fill="black"/>
<path d="M8.21094 10.1527C7.85195 10.1527 7.56094 10.4437 7.56094 10.8027V11.4343C7.56094 13.8862 9.54856 15.8738 12.0004 15.8738C14.4523 15.8738 16.4399 13.8862 16.4399 11.4343V10.8027C16.4399 10.4437 16.1489 10.1527 15.7899 10.1527C15.4309 10.1527 15.1399 10.4437 15.1399 10.8027V11.4343C15.1399 13.1682 13.7343 14.5738 12.0004 14.5738C10.2665 14.5738 8.86094 13.1682 8.86094 11.4343V10.8027C8.86094 10.4437 8.56992 10.1527 8.21094 10.1527Z" fill="black"/>
<path d="M12 14.6283C11.641 14.6283 11.35 14.9193 11.35 15.2783V17.2554C11.35 17.6144 11.641 17.9054 12 17.9054C12.359 17.9054 12.65 17.6144 12.65 17.2554V15.2783C12.65 14.9193 12.359 14.6283 12 14.6283Z" fill="black"/>
<path d="M8.82461 17.75C8.82461 18.109 9.11562 18.4 9.47461 18.4H14.5272C14.8862 18.4 15.1772 18.109 15.1772 17.75C15.1772 17.391 14.8862 17.1 14.5272 17.1H9.47461C9.11562 17.1 8.82461 17.391 8.82461 17.75Z" fill="black"/>
</svg>
