<svg width="24" height="24" viewBox="0 0 24 24" fill="none" xmlns="http://www.w3.org/2000/svg">
<path d="M22.5 12C22.5 17.799 17.799 22.5 12 22.5C6.20104 22.5 1.50002 17.799 1.50002 12C1.50002 6.20101 6.20104 1.5 12 1.5C17.799 1.5 22.5 6.20101 22.5 12ZM12 24C18.6274 24 24 18.6274 24 12C24 5.37258 18.6274 0 12 0C5.37261 0 2.47955e-05 5.37258 2.47955e-05 12C2.47955e-05 18.6274 5.37261 24 12 24ZM6.99993 11.15C6.53049 11.15 6.14993 11.5306 6.14993 12C6.14993 12.4695 6.53049 12.85 6.99993 12.85H16.9999C17.4694 12.85 17.8499 12.4695 17.8499 12C17.8499 11.5306 17.4694 11.15 16.9999 11.15H6.99993Z" fill="black"/>
</svg>
