<svg width="24" height="24" viewBox="0 0 24 24" fill="none" xmlns="http://www.w3.org/2000/svg">
<path d="M22.5 12C22.5 17.799 17.799 22.5 12 22.5C6.20101 22.5 1.5 17.799 1.5 12C1.5 6.20101 6.20101 1.5 12 1.5C17.799 1.5 22.5 6.20101 22.5 12ZM12 24C18.6274 24 24 18.6274 24 12C24 5.37258 18.6274 0 12 0C5.37258 0 0 5.37258 0 12C0 18.6274 5.37258 24 12 24Z" fill="black"/>
<path d="M8.94922 15.5V7C8.94922 6.72386 9.17308 6.5 9.44922 6.5H14.5492C14.8254 6.5 15.0492 6.72386 15.0492 7V15.5H8.94922ZM16.5492 17V7C16.5492 5.89543 15.6538 5 14.5492 5H9.44922C8.34465 5 7.44922 5.89543 7.44922 7V17C7.44922 18.1046 8.34465 19 9.44922 19H14.5492C15.6538 19 16.5492 18.1046 16.5492 17ZM11.0547 16.5094H12.9447C13.2761 16.5094 13.5447 16.778 13.5447 17.1094C13.5447 17.4407 13.2761 17.7094 12.9447 17.7094H11.0547C10.7233 17.7094 10.4547 17.4407 10.4547 17.1094C10.4547 16.778 10.7233 16.5094 11.0547 16.5094Z" fill="black"/>
</svg>
