<svg width="24" height="24" viewBox="0 0 24 24" fill="none" xmlns="http://www.w3.org/2000/svg">
<path d="M12 22.5C6.20101 22.5 1.5 17.799 1.5 12C1.5 6.20101 6.20101 1.5 12 1.5C17.799 1.5 22.5 6.20101 22.5 12C22.5 17.799 17.799 22.5 12 22.5ZM0 12C0 18.6274 5.37258 24 12 24C18.6274 24 24 18.6274 24 12C24 5.37258 18.6274 0 12 0C5.37258 0 0 5.37258 0 12ZM5 9V14.8824C5 15.9869 5.89543 16.8824 7 16.8824H17C18.1046 16.8824 19 15.9869 19 14.8824V9C19 7.89543 18.1046 7 17 7H7C5.89543 7 5 7.89543 5 9ZM13.3611 11.939C13.3611 12.7981 12.7517 13.4945 12 13.4945C11.2483 13.4945 10.6389 12.7981 10.6389 11.939C10.6389 11.0799 11.2483 10.3834 12 10.3834C12.7517 10.3834 13.3611 11.0799 13.3611 11.939ZM16.9445 8.55554C17.0825 8.55554 17.2075 8.61151 17.298 8.70199C17.3885 8.79247 17.4445 8.91747 17.4445 9.05554V10.1111C17.4445 10.1111 17.2299 10.0673 16.9445 9.89707C16.7991 9.81039 16.6354 9.69093 16.4722 9.52776C16.3091 9.3646 16.1896 9.20088 16.1029 9.05554C15.9327 8.77007 15.8889 8.55554 15.8889 8.55554H16.9445ZM8.1111 8.55554C8.1111 8.55554 8.06733 8.77007 7.89707 9.05554C7.81039 9.20088 7.69093 9.3646 7.52776 9.52776C7.3646 9.69093 7.20088 9.81039 7.05554 9.89707C6.77007 10.0673 6.55554 10.1111 6.55554 10.1111V9.05554C6.55554 8.91747 6.61151 8.79247 6.70199 8.70199C6.79247 8.61151 6.91747 8.55554 7.05554 8.55554H8.1111ZM7.05554 15.1666C6.91747 15.1666 6.79247 15.1107 6.70199 15.0202C6.61151 14.9297 6.55554 14.8047 6.55554 14.6666V13.6111C6.55554 13.6111 6.77007 13.6548 7.05554 13.8251C7.20088 13.9118 7.3646 14.0312 7.52776 14.1944C7.69093 14.3576 7.81039 14.5213 7.89707 14.6666C8.06733 14.9521 8.1111 15.1666 8.1111 15.1666H7.05554ZM15.8889 15.1666C15.8889 15.1666 15.9327 14.9521 16.1029 14.6666C16.1896 14.5213 16.3091 14.3576 16.4722 14.1944C16.6354 14.0312 16.7991 13.9118 16.9445 13.8251C17.2299 13.6548 17.4445 13.6111 17.4445 13.6111V14.6666C17.4445 14.8047 17.3885 14.9297 17.298 15.0202C17.2075 15.1107 17.0825 15.1666 16.9445 15.1666H15.8889Z" fill="black"/>
</svg>
