<svg width="24" height="24" viewBox="0 0 24 24" fill="none" xmlns="http://www.w3.org/2000/svg">
<path d="M22.5 12C22.5 6.20101 17.799 1.5 12 1.5C6.20101 1.5 1.5 6.20101 1.5 12C1.5 17.799 6.20101 22.5 12 22.5C17.799 22.5 22.5 17.799 22.5 12ZM12 0C18.6274 0 24 5.37258 24 12C24 18.6274 18.6274 24 12 24C5.37258 24 0 18.6274 0 12C0 5.37258 5.37258 0 12 0Z" fill="black"/>
<path d="M8.30937 17C8.30937 16.5582 8.66755 16.2 9.10938 16.2H14.8237C15.2655 16.2 15.6237 16.5582 15.6237 17C15.6237 17.4418 15.2655 17.8 14.8237 17.8H9.10938C8.66755 17.8 8.30937 17.4418 8.30937 17Z" fill="black"/>
<path d="M8.43098 14.5671C8.19681 14.1924 8.31071 13.6988 8.68538 13.4647L13.3142 10.5716L8.68538 7.67861C8.31071 7.44444 8.19681 6.95088 8.43098 6.57621C8.66514 6.20154 9.1587 6.08764 9.53337 6.32181L15.2477 9.89324C15.4816 10.0394 15.6237 10.2958 15.6237 10.5716C15.6237 10.8475 15.4816 11.1038 15.2477 11.25L9.53337 14.8215C9.1587 15.0556 8.66514 14.9417 8.43098 14.5671Z" fill="black"/>
</svg>
