<svg width="24" height="24" viewBox="0 0 24 24" fill="none" xmlns="http://www.w3.org/2000/svg">
<path d="M22.5 12C22.5 17.799 17.799 22.5 12 22.5C6.20101 22.5 1.5 17.799 1.5 12C1.5 6.20101 6.20101 1.5 12 1.5C17.799 1.5 22.5 6.20101 22.5 12ZM12 24C18.6274 24 24 18.6274 24 12C24 5.37258 18.6274 0 12 0C5.37258 0 0 5.37258 0 12C0 18.6274 5.37258 24 12 24Z" fill="black"/>
<path d="M8.3216 7.576C8.08743 7.95067 8.20133 8.44423 8.576 8.6784L13.8906 12L8.576 15.3216C8.20133 15.5558 8.08743 16.0493 8.3216 16.424C8.55577 16.7987 9.04933 16.9126 9.424 16.6784L15.824 12.6784C16.0579 12.5322 16.2 12.2758 16.2 12C16.2 11.7242 16.0579 11.4678 15.824 11.3216L9.424 7.3216C9.04933 7.08743 8.55577 7.20133 8.3216 7.576Z" fill="black"/>
</svg>
