<svg width="24" height="24" viewBox="0 0 24 24" fill="none" xmlns="http://www.w3.org/2000/svg">
<path d="M12 22.5C6.20101 22.5 1.5 17.799 1.5 12C1.5 6.20101 6.20101 1.5 12 1.5C17.799 1.5 22.5 6.20101 22.5 12C22.5 17.799 17.799 22.5 12 22.5ZM0 12C0 18.6274 5.37258 24 12 24C18.6274 24 24 18.6274 24 12C24 5.37258 18.6274 0 12 0C5.37258 0 0 5.37258 0 12ZM8.35407 6.25878L15.8947 10.1851C16.6233 10.5644 16.6091 11.6117 15.8705 11.9712L13.9893 12.8868L16.5572 16.1941C16.8961 16.6306 16.8167 17.2593 16.3798 17.5978L16.1858 17.7482C15.7611 18.0786 15.1489 18.0018 14.8189 17.5768L12.224 14.2339L10.8852 15.7744C10.3513 16.3888 9.34615 16.1419 9.15764 15.35L7.20636 7.15363C7.04762 6.48685 7.74612 5.94223 8.35407 6.25878Z" fill="black"/>
</svg>
