<svg width="24" height="24" viewBox="0 0 24 24" fill="none" xmlns="http://www.w3.org/2000/svg">
<path d="M1.5 12C1.5 6.20101 6.20101 1.5 12 1.5C17.799 1.5 22.5 6.20101 22.5 12C22.5 17.799 17.799 22.5 12 22.5C6.20101 22.5 1.5 17.799 1.5 12ZM12 0C5.37258 0 0 5.37258 0 12C0 18.6274 5.37258 24 12 24C18.6274 24 24 18.6274 24 12C24 5.37258 18.6274 0 12 0ZM17.4186 7.18621C17.4299 7.14039 17.4358 7.0925 17.4358 7.04322V5.89338C17.4358 4.85264 16.3934 4.13236 15.4189 4.50428C15.4059 4.50923 15.3931 4.51464 15.3805 4.52049L12.071 6.05494C11.5055 6.27978 11.135 6.82726 11.135 7.43576V8.64103L12.5312 10.0373L17.0503 7.70606C17.272 7.61838 17.4099 7.41 17.4186 7.18621ZM16.1362 17.8634C16.4291 18.1563 16.904 18.1563 17.1969 17.8634C17.4897 17.5705 17.4897 17.0957 17.1969 16.8028L6.53027 6.13617C6.23738 5.84328 5.7625 5.84328 5.46961 6.13617C5.17672 6.42907 5.17672 6.90394 5.46961 7.19683L11.135 12.8622V14.1221C10.1011 13.4331 8.69157 13.5447 7.77941 14.4568C6.74011 15.4961 6.74011 17.1812 7.77941 18.2205C8.81871 19.2598 10.5037 19.2598 11.5431 18.2205C12.08 17.6835 12.3395 16.9743 12.3217 16.2707C12.3304 16.23 12.335 16.1877 12.335 16.1444V14.0622L16.1362 17.8634Z" fill="black"/>
</svg>
