<svg width="24" height="24" viewBox="0 0 24 24" fill="none" xmlns="http://www.w3.org/2000/svg">
<path d="M12 1.5C17.799 1.5 22.5 6.20101 22.5 12C22.5 17.799 17.799 22.5 12 22.5C6.20101 22.5 1.5 17.799 1.5 12C1.5 6.20101 6.20101 1.5 12 1.5ZM24 12C24 5.37258 18.6274 0 12 0C5.37258 0 0 5.37258 0 12C0 18.6274 5.37258 24 12 24C18.6274 24 24 18.6274 24 12ZM17.4376 14.3324V6.69858C17.4376 5.79282 16.5301 5.16598 15.682 5.48941L9.77999 7.73772C9.27682 7.92861 8.9459 8.41074 8.9459 8.9472V14.0197C8.17801 13.6707 7.24179 13.812 6.6102 14.4436C5.7966 15.2572 5.7966 16.5763 6.6102 17.3899C7.42379 18.2034 8.74288 18.2034 9.55648 17.3899C10.0383 16.908 10.2348 16.2488 10.1459 15.6224V11.7237L16.2376 9.28703V12.6361C15.4675 12.2804 14.525 12.4199 13.8902 13.0547C13.0766 13.8682 13.0766 15.1873 13.8902 16.0009C14.7038 16.8145 16.0229 16.8145 16.8365 16.0009C17.293 15.5444 17.4934 14.9287 17.4376 14.3324Z" fill="black"/>
</svg>
