<svg width="24" height="24" viewBox="0 0 24 24" fill="none" xmlns="http://www.w3.org/2000/svg">
<path d="M1.5 12C1.5 6.20101 6.20101 1.5 12 1.5C17.799 1.5 22.5 6.20101 22.5 12C22.5 17.799 17.799 22.5 12 22.5C6.20101 22.5 1.5 17.799 1.5 12ZM12 0C5.37258 0 0 5.37258 0 12C0 18.6274 5.37258 24 12 24C18.6274 24 24 18.6274 24 12C24 5.37258 18.6274 0 12 0ZM17.4359 8.04322V6.89338C17.4359 5.87556 16.4388 5.16424 15.4835 5.48128L12.2098 6.01503C12.1702 6.02149 12.1313 6.0319 12.0938 6.04613C11.5155 6.2652 11.135 6.81915 11.135 7.43576V14.1221C10.1012 13.4331 8.69163 13.5447 7.77948 14.4568C6.74017 15.4961 6.74017 17.1812 7.77948 18.2205C8.81878 19.2598 10.5038 19.2598 11.5431 18.2205C12.08 17.6835 12.3396 16.9743 12.3217 16.2707C12.3305 16.23 12.335 16.1877 12.335 16.1444V9.91416L17.0504 8.70606C17.2719 8.61841 17.4099 8.41011 17.4187 8.18639C17.4299 8.14051 17.4359 8.09256 17.4359 8.04322Z" fill="black"/>
</svg>
