<svg width="24" height="24" viewBox="0 0 24 24" fill="none" xmlns="http://www.w3.org/2000/svg">
<path d="M12 22.5C6.20101 22.5 1.5 17.799 1.5 12C1.5 6.20101 6.20101 1.5 12 1.5C17.799 1.5 22.5 6.20101 22.5 12C22.5 17.799 17.799 22.5 12 22.5ZM0 12C0 18.6274 5.37258 24 12 24C18.6274 24 24 18.6274 24 12C24 5.37258 18.6274 0 12 0C5.37258 0 0 5.37258 0 12ZM6 6C5.58579 6 5.25 6.33579 5.25 6.75C5.25 7.16421 5.58579 7.5 6 7.5H18C18.4142 7.5 18.75 7.16421 18.75 6.75C18.75 6.33579 18.4142 6 18 6H6ZM10.584 10.25C10.584 9.83579 10.9198 9.5 11.334 9.5H18.0007C18.4149 9.5 18.7507 9.83579 18.7507 10.25C18.7507 10.6642 18.4149 11 18.0007 11H11.334C10.9198 11 10.584 10.6642 10.584 10.25ZM11.334 13C10.9198 13 10.584 13.3358 10.584 13.75C10.584 14.1642 10.9198 14.5 11.334 14.5H18.0007C18.4149 14.5 18.7507 14.1642 18.7507 13.75C18.7507 13.3358 18.4149 13 18.0007 13H11.334ZM5.25 17.25C5.25 17.6642 5.58579 18 6 18H18C18.4142 18 18.75 17.6642 18.75 17.25C18.75 16.8358 18.4142 16.5 18 16.5H6C5.58579 16.5 5.25 16.8358 5.25 17.25ZM8.5 10.1369C8.5 9.70971 7.99894 9.47926 7.6746 9.75726L5.4429 11.6702C5.21009 11.8697 5.21009 12.2299 5.4429 12.4294L7.6746 14.3423C7.99894 14.6203 8.5 14.3898 8.5 13.9627V10.1369Z" fill="black"/>
</svg>
