<svg width="24" height="24" viewBox="0 0 24 24" fill="none" xmlns="http://www.w3.org/2000/svg">
<path d="M12 22.5C6.20101 22.5 1.5 17.799 1.5 12C1.5 6.20101 6.20101 1.5 12 1.5C17.799 1.5 22.5 6.20101 22.5 12C22.5 17.799 17.799 22.5 12 22.5ZM0 12C0 18.6274 5.37258 24 12 24C18.6274 24 24 18.6274 24 12C24 5.37258 18.6274 0 12 0C5.37258 0 0 5.37258 0 12ZM12.7676 5.13569C12.4192 4.95477 12.0098 4.95477 11.6614 5.13569L10.1015 5.95078L15.6251 8.83211L17.7389 7.73328L12.7676 5.13569ZM12.8645 11.7323V18.7946L17.7392 16.2475C18.1616 16.0282 18.4287 15.5779 18.429 15.085V8.89592C18.429 8.87732 18.4286 8.85878 18.4278 8.84031L12.8645 11.7323ZM11.5645 11.7323L6.00119 8.84037C6.00043 8.85882 6.00004 8.87734 6.00003 8.89592V15.0785C5.99677 15.5723 6.26168 16.0253 6.68365 16.2475L11.5645 18.7978V11.7323ZM12.2145 10.605L14.2172 9.56395L8.80666 6.74157C8.77151 6.72324 8.73874 6.70214 8.70846 6.67868L6.69008 7.73332L12.2145 10.605Z" fill="black"/>
</svg>
