<svg width="24" height="24" viewBox="0 0 24 24" fill="none" xmlns="http://www.w3.org/2000/svg">
<path d="M12 22.5C6.20101 22.5 1.5 17.799 1.5 12C1.5 6.20101 6.20101 1.5 12 1.5C17.799 1.5 22.5 6.20101 22.5 12C22.5 17.799 17.799 22.5 12 22.5ZM0 12C0 18.6274 5.37258 24 12 24C18.6274 24 24 18.6274 24 12C24 5.37258 18.6274 0 12 0C5.37258 0 0 5.37258 0 12ZM17.2743 5.95533L5.75061 10.2332C5.26572 10.4132 5.22056 11.0813 5.67681 11.3249L9.67694 13.4608L13.5212 9.61653C13.7751 9.36269 14.1866 9.36269 14.4405 9.61653C14.6943 9.87037 14.6943 10.2819 14.4405 10.5358L10.5791 14.3971L12.676 18.3241C12.9196 18.7803 13.5877 18.7352 13.7677 18.2503L18.0456 6.72663C18.2242 6.24546 17.7554 5.77671 17.2743 5.95533Z" fill="black"/>
</svg>
