<svg width="24" height="24" viewBox="0 0 24 24" fill="none" xmlns="http://www.w3.org/2000/svg">
<path d="M1.5 12C1.5 6.20101 6.20101 1.5 12 1.5C17.799 1.5 22.5 6.20101 22.5 12C22.5 17.799 17.799 22.5 12 22.5C6.20101 22.5 1.5 17.799 1.5 12ZM12 0C5.37258 0 0 5.37258 0 12C0 18.6274 5.37258 24 12 24C18.6274 24 24 18.6274 24 12C24 5.37258 18.6274 0 12 0Z" fill="black"/>
<path d="M5.5 9.75317C5.5 12.102 7.40429 14.0063 9.75317 14.0063H10.5547V17.7772C10.5547 18.1761 10.878 18.4995 11.2769 18.4995C11.6758 18.4995 11.9991 18.1761 11.9991 17.7772V13.3198C11.9997 13.308 12 13.2961 12 13.2841V6.94444H14.168V17.778C14.168 18.1769 14.4913 18.5002 14.8902 18.5002C15.2891 18.5002 15.6124 18.1769 15.6124 17.778V6.94444H17.7769C18.1758 6.94444 18.4991 6.62109 18.4991 6.22222C18.4991 5.82335 18.1758 5.5 17.7769 5.5H9.75317C7.40429 5.5 5.5 7.40429 5.5 9.75317Z" fill="black"/>
</svg>
