<svg width="24" height="24" viewBox="0 0 24 24" fill="none" xmlns="http://www.w3.org/2000/svg">
<path d="M1.5 12C1.5 6.20101 6.20101 1.5 12 1.5C17.799 1.5 22.5 6.20101 22.5 12C22.5 17.799 17.799 22.5 12 22.5C6.20101 22.5 1.5 17.799 1.5 12ZM12 0C5.37258 0 0 5.37258 0 12C0 18.6274 5.37258 24 12 24C18.6274 24 24 18.6274 24 12C24 5.37258 18.6274 0 12 0ZM8.40002 7.5V16.5C8.40002 16.7761 8.62388 17 8.90002 17H9.56669C9.84283 17 10.0667 16.7761 10.0667 16.5V7.5C10.0667 7.22386 9.84283 7 9.56669 7H8.90002C8.62388 7 8.40002 7.22386 8.40002 7.5ZM14.4001 7C14.1239 7 13.9001 7.22386 13.9001 7.5V16.5C13.9001 16.7761 14.1239 17 14.4001 17H15.0667C15.3429 17 15.5667 16.7761 15.5667 16.5V7.5C15.5667 7.22386 15.3429 7 15.0667 7H14.4001Z" fill="black"/>
</svg>
