<svg width="24" height="24" viewBox="0 0 24 24" fill="none" xmlns="http://www.w3.org/2000/svg">
<path d="M1.5007 12C1.5007 6.20101 6.20171 1.5 12.0007 1.5C17.7997 1.5 22.5007 6.20101 22.5007 12C22.5007 17.799 17.7997 22.5 12.0007 22.5C6.20171 22.5 1.5007 17.799 1.5007 12ZM12.0007 0C5.37329 0 0.000702858 5.37258 0.000702858 12C0.000702858 18.6274 5.37329 24 12.0007 24C18.6281 24 24.0007 18.6274 24.0007 12C24.0007 5.37258 18.6281 0 12.0007 0ZM16.7197 10.0484C16.7792 10.2108 16.7527 10.3996 16.6338 10.5417L15.2025 12.2527C15.0253 12.4645 15.0534 12.7799 15.2652 12.9571C15.477 13.1342 15.7923 13.1062 15.9695 12.8944L17.4008 11.1833C17.9324 10.5479 17.8482 9.60191 17.2127 9.07037L17.1833 9.04574C17.2794 8.39432 17.0446 7.7098 16.5025 7.25634C15.6731 6.56248 14.4382 6.6724 13.7444 7.50184L8.81941 13.3892C7.7491 14.6686 7.2762 16.3443 7.5197 17.9945C9.18699 17.9427 10.7528 17.1813 11.8231 15.9019L16.7197 10.0484Z" fill="black"/>
</svg>
