<svg width="24" height="24" viewBox="0 0 24 24" fill="none" xmlns="http://www.w3.org/2000/svg">
<path d="M12 22.5C6.20101 22.5 1.5 17.799 1.5 12C1.5 6.20101 6.20101 1.5 12 1.5C17.799 1.5 22.5 6.20101 22.5 12C22.5 17.799 17.799 22.5 12 22.5ZM0 12C0 18.6274 5.37258 24 12 24C18.6274 24 24 18.6274 24 12C24 5.37258 18.6274 0 12 0C5.37258 0 0 5.37258 0 12ZM10.3216 16.936L15.5617 11.6735L15.5584 11.6702L12.3298 8.44167L6.89553 13.8993L6.16419 17.2473C6.08693 17.601 6.39953 17.9171 6.75406 17.8436L9.81581 17.2096C10.0076 17.1699 10.1835 17.0747 10.3216 16.936ZM17.0777 10.1509C17.5836 9.6429 17.5827 8.8213 17.0758 8.31439L15.6824 6.92104C15.174 6.41259 14.3493 6.41348 13.842 6.92302L13.1765 7.59132L16.4069 10.8217L16.4084 10.8231L17.0777 10.1509Z" fill="black"/>
</svg>
