<svg width="24" height="24" viewBox="0 0 24 24" fill="none" xmlns="http://www.w3.org/2000/svg">
<path d="M12 22.5C6.20101 22.5 1.5 17.799 1.5 12C1.5 6.20101 6.20101 1.5 12 1.5C17.799 1.5 22.5 6.20101 22.5 12C22.5 17.799 17.799 22.5 12 22.5ZM0 12C0 18.6274 5.37258 24 12 24C18.6274 24 24 18.6274 24 12C24 5.37258 18.6274 0 12 0C5.37258 0 0 5.37258 0 12ZM8.9 9.25C8.9 9.60899 8.60899 9.9 8.25 9.9C7.89102 9.9 7.6 9.60899 7.6 9.25C7.6 8.89102 7.89102 8.6 8.25 8.6C8.60899 8.6 8.9 8.89102 8.9 9.25ZM10.5 9.25C10.5 8.00736 9.49264 7 8.25 7C7.00736 7 6 8.00736 6 9.25C6 10.4926 7.00736 11.5 8.25 11.5C9.49264 11.5 10.5 10.4926 10.5 9.25ZM15.75 15.9C15.391 15.9 15.1 15.609 15.1 15.25C15.1 14.891 15.391 14.6 15.75 14.6C16.109 14.6 16.4 14.891 16.4 15.25C16.4 15.609 16.109 15.9 15.75 15.9ZM15.75 17.5C16.9926 17.5 18 16.4926 18 15.25C18 14.0074 16.9926 13 15.75 13C14.5074 13 13.5 14.0074 13.5 15.25C13.5 16.4926 14.5074 17.5 15.75 17.5ZM16.6509 7.95588C16.9349 7.61742 16.8907 7.11282 16.5523 6.82881C16.2138 6.54481 15.7092 6.58896 15.4252 6.92742L7.34943 16.5518C7.06543 16.8902 7.10958 17.3948 7.44804 17.6788C7.7865 17.9628 8.2911 17.9187 8.5751 17.5802L16.6509 7.95588Z" fill="black"/>
</svg>
