<svg width="24" height="24" viewBox="0 0 24 24" fill="none" xmlns="http://www.w3.org/2000/svg">
<path d="M22.5 12C22.5 17.799 17.799 22.5 12 22.5C6.20101 22.5 1.5 17.799 1.5 12C1.5 6.20101 6.20101 1.5 12 1.5C17.799 1.5 22.5 6.20101 22.5 12ZM12 0C5.37258 0 0 5.37258 0 12C0 18.6274 5.37258 24 12 24C18.6274 24 24 18.6274 24 12C24 5.37258 18.6274 0 12 0ZM15.2379 14.1747C16.7121 12.5285 17.6348 10.6795 17.9569 8.976C18.1018 8.20786 17.8779 7.4332 17.3409 6.89622L16.8684 6.42447C16.3025 5.85851 15.385 5.85851 14.8191 6.42447L13.9691 7.2745C13.5444 7.69915 13.5444 8.38685 14.0306 8.8731L14.6241 9.46659C14.7814 9.62385 14.8336 9.86226 14.7444 10.0659C14.4094 10.8258 13.9407 11.5772 13.3414 12.2769L7.87004 6.80188C7.57725 6.50889 7.10237 6.50873 6.80938 6.80152C6.51639 7.09432 6.51623 7.56919 6.80903 7.86218L16.8035 17.8633C17.0963 18.1563 17.5711 18.1564 17.8641 17.8636C18.1571 17.5709 18.1573 17.096 17.8645 16.803L15.2379 14.1747ZM13.4496 15.8407L11.5282 13.9179C11.0541 14.247 10.5647 14.5208 10.0718 14.7385C9.8682 14.8284 9.62978 14.7755 9.47253 14.6182L8.81816 13.9631C8.39424 13.5385 7.70581 13.5385 7.28116 13.9631L6.43113 14.8131C5.86517 15.3791 5.86517 16.2965 6.43113 16.8625L6.90289 17.3342C7.43986 17.8712 8.21452 18.0951 8.98266 17.9502C10.4379 17.6751 11.9992 16.9617 13.4496 15.8407Z" fill="black"/>
</svg>
