<svg width="24" height="24" viewBox="0 0 24 24" fill="none" xmlns="http://www.w3.org/2000/svg">
<path d="M1.5 12C1.5 6.20101 6.20101 1.5 12 1.5C17.799 1.5 22.5 6.20101 22.5 12C22.5 17.799 17.799 22.5 12 22.5C6.20101 22.5 1.5 17.799 1.5 12ZM12 0C5.37258 0 0 5.37258 0 12C0 18.6274 5.37258 24 12 24C18.6274 24 24 18.6274 24 12C24 5.37258 18.6274 0 12 0ZM10.1701 13.8299C9.32176 12.9816 8.68226 12.0318 8.25737 11.0681C8.16819 10.8644 8.22039 10.6259 8.37773 10.4685L8.97156 9.87469C9.45808 9.38818 9.45808 8.70009 9.03319 8.2752L8.18269 7.42471C7.61642 6.85843 6.69849 6.85843 6.13221 7.42471L5.65947 7.89672C5.1222 8.43399 4.89816 9.20909 5.04317 9.97765C5.40135 11.8722 6.50199 13.9466 8.27767 15.7223C10.0534 17.498 12.1278 18.5987 14.0223 18.9568C14.7909 19.1018 15.566 18.8778 16.1033 18.3405L16.5753 17.8685C17.1416 17.3022 17.1416 16.3843 16.5753 15.818L15.7248 14.9675C15.2999 14.5426 14.6111 14.5426 14.1869 14.9675L13.5322 15.623C13.3749 15.7803 13.1363 15.8333 12.9326 15.7434C11.969 15.3177 11.0184 14.6775 10.1701 13.8299ZM13.418 7.50583C13.1642 7.25198 12.7526 7.25198 12.4988 7.50583C12.2449 7.75967 12.2449 8.17122 12.4988 8.42506L13.5772 9.50354L12.4988 10.582C12.2449 10.8358 12.2449 11.2474 12.4988 11.5012C12.7526 11.7551 13.1642 11.7551 13.418 11.5012L14.4965 10.4228L15.5749 11.5012C15.8288 11.7551 16.2403 11.7551 16.4942 11.5012C16.748 11.2474 16.748 10.8358 16.4942 10.582L15.4157 9.50354L16.4942 8.42506C16.748 8.17122 16.748 7.75967 16.4942 7.50583C16.2403 7.25198 15.8288 7.25198 15.5749 7.50583L14.4965 8.5843L13.418 7.50583Z" fill="black"/>
</svg>
