<svg width="24" height="24" viewBox="0 0 24 24" fill="none" xmlns="http://www.w3.org/2000/svg">
<path d="M12 22.5C6.20101 22.5 1.5 17.799 1.5 12C1.5 6.20101 6.20101 1.5 12 1.5C17.799 1.5 22.5 6.20101 22.5 12C22.5 17.799 17.799 22.5 12 22.5ZM0 12C0 18.6274 5.37258 24 12 24C18.6274 24 24 18.6274 24 12C24 5.37258 18.6274 0 12 0C5.37258 0 0 5.37258 0 12ZM14.8415 15.2989C14.4516 14.909 13.8195 14.909 13.4303 15.2989L12.8168 15.9124C12.6798 16.0494 12.4722 16.0953 12.2952 16.0175C11.4063 15.6283 10.528 15.0381 9.74493 14.255C8.96514 13.4752 8.37698 12.6009 7.98709 11.7154C7.90592 11.5324 7.95315 11.3175 8.09487 11.1758L8.64445 10.6262C9.09089 10.1798 9.09089 9.54835 8.701 9.15846L7.92055 8.37801C7.40092 7.85837 6.55859 7.85837 6.03896 8.37801L5.60515 8.81115C5.11213 9.30417 4.90654 10.0154 5.03961 10.7207C5.36829 12.4592 6.37828 14.3628 8.00771 15.9922C9.63714 17.6216 11.5407 18.6316 13.2792 18.9603C13.9845 19.0934 14.6958 18.8878 15.1888 18.3948L15.6219 17.9616C16.1415 17.442 16.1415 16.5997 15.6219 16.0794L14.8415 15.2989ZM11.6634 10.4289C12.1576 10.4222 12.6486 10.6046 13.0218 10.9778L13.0291 10.9849C13.3974 11.3572 13.5773 11.8451 13.5707 12.336C13.565 12.7501 13.8962 13.0905 14.3104 13.0961C14.7246 13.1017 15.0649 12.7705 15.0705 12.3563C15.0824 11.4785 14.7565 10.591 14.0825 9.91694L14.0727 9.90732C13.3998 9.23987 12.5167 8.91716 11.6431 8.92903C11.2289 8.93465 10.8977 9.27497 10.9033 9.68914C10.909 10.1033 11.2493 10.4345 11.6634 10.4289ZM11.6533 6.25C11.239 6.25 10.9033 6.58579 10.9033 7C10.9033 7.41421 11.239 7.75 11.6533 7.75C12.8267 7.75 13.9984 8.19608 14.895 9.0882C14.8978 9.09106 14.9006 9.09391 14.9034 9.09674C15.8011 9.99442 16.25 11.1698 16.25 12.3469C16.25 12.7611 16.5858 13.0969 17 13.0969C17.4142 13.0969 17.75 12.7611 17.75 12.3469C17.75 10.7923 17.1575 9.23468 15.9737 8.04573C15.9706 8.04243 15.9673 8.03915 15.9641 8.03589C14.7739 6.84572 13.2121 6.25 11.6533 6.25Z" fill="black"/>
</svg>
