<svg width="24" height="24" viewBox="0 0 24 24" fill="none" xmlns="http://www.w3.org/2000/svg">
<path d="M12 22.5C6.20101 22.5 1.5 17.799 1.5 12C1.5 6.20101 6.20101 1.5 12 1.5C17.799 1.5 22.5 6.20101 22.5 12C22.5 17.799 17.799 22.5 12 22.5ZM0 12C0 18.6274 5.37258 24 12 24C18.6274 24 24 18.6274 24 12C24 5.37258 18.6274 0 12 0C5.37258 0 0 5.37258 0 12ZM7.99515 11.7065C7.91314 11.5191 7.96114 11.2998 8.10582 11.1551L8.65184 10.6091C9.09919 10.1617 9.09919 9.52905 8.70851 9.13837L7.92648 8.35634C7.40579 7.83565 6.56175 7.83565 6.04107 8.35634L5.60638 8.79035C5.11236 9.28437 4.90635 9.99707 5.03969 10.7038C5.36904 12.4458 6.38108 14.3532 8.01381 15.986C9.64655 17.6187 11.554 18.6308 13.296 18.9601C14.0027 19.0934 14.7154 18.8874 15.2094 18.3934L15.6435 17.9594C16.1641 17.4387 16.1641 16.5947 15.6435 16.074L14.8614 15.292C14.4707 14.9013 13.8374 14.9013 13.4474 15.292L12.8453 15.8946C12.7007 16.0393 12.4813 16.088 12.294 16.0053C11.408 15.614 10.5339 15.0253 9.75388 14.2459C8.97385 13.4659 8.38583 12.5925 7.99515 11.7065ZM12.9999 7.75H15.1894L12.4696 10.4698C12.1767 10.7627 12.1767 11.2376 12.4696 11.5305C12.7625 11.8234 13.2374 11.8234 13.5303 11.5305L16.2501 8.81066V11.0002C16.2501 11.4144 16.5859 11.7502 17.0001 11.7502C17.4143 11.7502 17.7501 11.4144 17.7501 11.0002V7C17.7501 6.98706 17.7498 6.97419 17.7491 6.96141C17.7446 6.87296 17.7248 6.78856 17.6923 6.7108C17.6568 6.62579 17.605 6.54598 17.5369 6.47617C17.5326 6.47176 17.5282 6.46741 17.5238 6.4631C17.3886 6.33124 17.2038 6.25 17.0001 6.25H12.9999C12.5857 6.25 12.2499 6.58579 12.2499 7C12.2499 7.41421 12.5857 7.75 12.9999 7.75Z" fill="black"/>
</svg>
