<svg width="24" height="24" viewBox="0 0 24 24" fill="none" xmlns="http://www.w3.org/2000/svg">
<path d="M12 22.5C6.20101 22.5 1.5 17.799 1.5 12C1.5 6.20101 6.20101 1.5 12 1.5C17.799 1.5 22.5 6.20101 22.5 12C22.5 17.799 17.799 22.5 12 22.5ZM0 12C0 18.6274 5.37258 24 12 24C18.6274 24 24 18.6274 24 12C24 5.37258 18.6274 0 12 0C5.37258 0 0 5.37258 0 12ZM11.9458 14.8917C14.6773 14.8917 16.8917 12.6773 16.8917 9.94583C16.8917 7.21432 14.6773 5 11.9458 5C9.21432 5 7 7.21432 7 9.94583C7 12.6773 9.21432 14.8917 11.9458 14.8917ZM9.80664 9.70966C9.80664 9.9858 9.58278 10.2097 9.30664 10.2097C9.0305 10.2097 8.80664 9.9858 8.80664 9.70966C8.80664 8.17972 10.0469 6.93945 11.5768 6.93945C11.853 6.93945 12.0768 7.16331 12.0768 7.43945C12.0768 7.7156 11.853 7.93945 11.5768 7.93945C10.5992 7.93945 9.80664 8.732 9.80664 9.70966ZM11.3516 17.9108L12.0002 18.9999L12.6488 17.9108V15.551C12.6488 15.551 12.3245 15.6236 12.0002 15.6236C11.6759 15.6236 11.3516 15.551 11.3516 15.551V17.9108Z" fill="black"/>
</svg>
