<svg width="24" height="24" viewBox="0 0 24 24" fill="none" xmlns="http://www.w3.org/2000/svg">
<path d="M12 22.5C6.20101 22.5 1.5 17.799 1.5 12C1.5 6.20101 6.20101 1.5 12 1.5C17.799 1.5 22.5 6.20101 22.5 12C22.5 17.799 17.799 22.5 12 22.5ZM0 12C0 18.6274 5.37258 24 12 24C18.6274 24 24 18.6274 24 12C24 5.37258 18.6274 0 12 0C5.37258 0 0 5.37258 0 12ZM16.2273 10.9408L9.85746 7.1734C9.03703 6.68771 8 7.28006 8 8.2334V15.7666C8 16.7199 9.03703 17.3123 9.85746 16.8266L16.2273 13.0592C17.033 12.5833 17.033 11.4167 16.2273 10.9408Z" fill="black"/>
</svg>
