<svg width="24" height="24" viewBox="0 0 24 24" fill="none" xmlns="http://www.w3.org/2000/svg">
<path d="M1.5 12C1.5 6.20101 6.20101 1.5 12 1.5C17.799 1.5 22.5 6.20101 22.5 12C22.5 17.799 17.799 22.5 12 22.5C6.20101 22.5 1.5 17.799 1.5 12ZM12 0C5.37258 0 0 5.37258 0 12C0 18.6274 5.37258 24 12 24C18.6274 24 24 18.6274 24 12C24 5.37258 18.6274 0 12 0Z" fill="black"/>
<path d="M7.99602 8.66699V11.3337C7.99602 13.0743 9.11001 14.5517 10.6627 15.101V16.167C10.6627 16.4431 10.8865 16.667 11.1627 16.667H12.8293C13.1055 16.667 13.3293 16.4431 13.3293 16.167V15.101C14.882 14.5517 15.996 13.0743 15.996 11.3337V8.66699" fill="black"/>
<path d="M9.33003 5.35C8.97105 5.35 8.68003 5.64102 8.68003 6V8.66667C8.68003 9.02565 8.97105 9.31667 9.33003 9.31667C9.68902 9.31667 9.98003 9.02565 9.98003 8.66667V6C9.98003 5.64102 9.68902 5.35 9.33003 5.35Z" fill="black"/>
<path d="M14.664 5.35C14.305 5.35 14.014 5.64102 14.014 6V8.66667C14.014 9.02565 14.305 9.31667 14.664 9.31667C15.023 9.31667 15.314 9.02565 15.314 8.66667V6C15.314 5.64102 15.023 5.35 14.664 5.35Z" fill="black"/>
<path d="M10.68 18C10.68 18.359 10.971 18.65 11.33 18.65H12.6633C13.0223 18.65 13.3133 18.359 13.3133 18C13.3133 17.641 13.0223 17.35 12.6633 17.35H11.33C10.971 17.35 10.68 17.641 10.68 18Z" fill="black"/>
<path d="M6.68004 8.66699C6.68004 9.02598 6.97106 9.31699 7.33004 9.31699H16.6634C17.0224 9.31699 17.3134 9.02598 17.3134 8.66699C17.3134 8.30801 17.0224 8.01699 16.6634 8.01699H7.33004C6.97106 8.01699 6.68004 8.30801 6.68004 8.66699Z" fill="black"/>
</svg>
