<svg width="24" height="24" viewBox="0 0 24 24" fill="none" xmlns="http://www.w3.org/2000/svg">
<path d="M12 22.5C6.20101 22.5 1.5 17.799 1.5 12C1.5 6.20101 6.20101 1.5 12 1.5C17.799 1.5 22.5 6.20101 22.5 12C22.5 17.799 17.799 22.5 12 22.5ZM0 12C0 18.6274 5.37258 24 12 24C18.6274 24 24 18.6274 24 12C24 5.37258 18.6274 0 12 0C5.37258 0 0 5.37258 0 12ZM12 20C15.8663 20 19 16.8663 19 13V9C19 7.34315 17.6569 6 16 6H8C6.34315 6 5 7.34315 5 9V13C5 16.8663 8.13367 20 12 20ZM7.58063 10.1367C7.87353 9.84377 8.3484 9.84377 8.64129 10.1367L11.9999 13.4952L15.3584 10.1367C15.6513 9.84377 16.1262 9.84377 16.4191 10.1367C16.712 10.4296 16.712 10.9044 16.4191 11.1973L12.5302 15.0862C12.2373 15.3791 11.7624 15.3791 11.4695 15.0862L7.58063 11.1973C7.28774 10.9044 7.28774 10.4296 7.58063 10.1367Z" fill="black"/>
</svg>
