<svg width="24" height="24" viewBox="0 0 24 24" fill="none" xmlns="http://www.w3.org/2000/svg">
<path d="M1.5 12C1.5 6.20101 6.20101 1.5 12 1.5C17.799 1.5 22.5 6.20101 22.5 12C22.5 17.799 17.799 22.5 12 22.5C6.20101 22.5 1.5 17.799 1.5 12ZM12 0C5.37258 0 0 5.37258 0 12C0 18.6274 5.37258 24 12 24C18.6274 24 24 18.6274 24 12C24 5.37258 18.6274 0 12 0Z" fill="black"/>
<path d="M8 5C6.34315 5 5 6.34315 5 8V16C5 17.6569 6.34315 19 8 19H16C17.6569 19 19 17.6569 19 16V8C19 6.34315 17.6569 5 16 5H8ZM12.8 8V16C12.8 16.4418 12.4418 16.8 12 16.8C11.5582 16.8 11.2 16.4418 11.2 16V8C11.2 7.55817 11.5582 7.2 12 7.2C12.4418 7.2 12.8 7.55817 12.8 8ZM8.5 10.7996C8.94183 10.7996 9.3 11.1578 9.3 11.5996V15.9887C9.3 16.4305 8.94183 16.7887 8.5 16.7887C8.05817 16.7887 7.7 16.4305 7.7 15.9887V11.5996C7.7 11.1578 8.05817 10.7996 8.5 10.7996ZM16.3 13.5996V15.9887C16.3 16.4305 15.9418 16.7887 15.5 16.7887C15.0582 16.7887 14.7 16.4305 14.7 15.9887V13.5996C14.7 13.1578 15.0582 12.7996 15.5 12.7996C15.9418 12.7996 16.3 13.1578 16.3 13.5996Z" fill="black"/>
</svg>
