<svg width="24" height="24" viewBox="0 0 24 24" fill="none" xmlns="http://www.w3.org/2000/svg">
<path d="M12 1.5C17.799 1.5 22.5 6.20101 22.5 12C22.5 17.799 17.799 22.5 12 22.5C6.20101 22.5 1.5 17.799 1.5 12C1.5 6.20101 6.20101 1.5 12 1.5ZM24 12C24 5.37258 18.6274 0 12 0C5.37258 0 0 5.37258 0 12C0 18.6274 5.37258 24 12 24C18.6274 24 24 18.6274 24 12Z" fill="black"/>
<path d="M8.81283 8.21342C8.49761 7.90383 7.9911 7.90839 7.68151 8.22362C5.30482 10.6435 5.30524 14.5605 7.68245 16.9799C10.0674 19.4072 13.9399 19.4072 16.3248 16.9799C18.702 14.5605 18.7024 10.6435 16.3258 8.22362C16.0162 7.90839 15.5097 7.90383 15.1944 8.21342C14.8792 8.52301 14.8746 9.02952 15.1842 9.34474C16.9495 11.1421 16.9492 14.0615 15.1835 15.8585C13.4256 17.6477 10.5816 17.6477 8.82372 15.8585C7.05806 14.0615 7.05774 11.1421 8.82303 9.34474C9.13262 9.02952 9.12805 8.52301 8.81283 8.21342Z" fill="black"/>
<path d="M12.0059 5.2C11.564 5.2 11.2059 5.55817 11.2059 6V11.999C11.2059 12.4408 11.564 12.799 12.0059 12.799C12.4477 12.799 12.8059 12.4408 12.8059 11.999V6C12.8059 5.55817 12.4477 5.2 12.0059 5.2Z" fill="black"/>
</svg>
