<svg width="24" height="24" viewBox="0 0 24 24" fill="none" xmlns="http://www.w3.org/2000/svg">
<path d="M17.7553 16.1915C17.7982 16.1867 17.8405 16.18 17.8821 16.1715C18.5201 16.041 19 15.4765 19 14.8V11.2999C19 10.5267 18.3732 9.8999 17.6 9.8999H6.4C5.6268 9.8999 5 10.5267 5 11.2999V14.8C5 15.5205 5.5443 16.1139 6.24414 16.1914L6.25686 16.1927C6.30392 16.1975 6.35168 16.2 6.4 16.2H7.7997V17.4444C7.7997 18.3035 8.49614 19 9.35525 19H14.6441C15.5033 19 16.1997 18.3035 16.1997 17.4444V16.2H17.6C17.6525 16.2 17.7043 16.1971 17.7553 16.1915ZM14.6441 14.9555V17.4444H9.35525V14.9555H14.6441Z" fill="black"/>
<path d="M14.6441 6.55557L9.35525 6.55557V8.77196H7.7997V6.55557C7.7997 5.69645 8.49614 5 9.35525 5H14.6441C15.5032 5 16.1997 5.69645 16.1997 6.55557V8.77196H14.6441V6.55557Z" fill="black"/>
<path d="M24 12C24 5.37258 18.6274 0 12 0C5.37258 0 0 5.37258 0 12C0 18.6274 5.37258 24 12 24C18.6274 24 24 18.6274 24 12ZM12 1.5C17.799 1.5 22.5 6.20101 22.5 12C22.5 17.799 17.799 22.5 12 22.5C6.20101 22.5 1.5 17.799 1.5 12C1.5 6.20101 6.20101 1.5 12 1.5Z" fill="black"/>
</svg>
