<svg width="24" height="24" viewBox="0 0 24 24" fill="none" xmlns="http://www.w3.org/2000/svg">
<path d="M12 1.5C17.799 1.5 22.5 6.20101 22.5 12C22.5 17.799 17.799 22.5 12 22.5C6.20101 22.5 1.5 17.799 1.5 12C1.5 6.20101 6.20101 1.5 12 1.5ZM24 12C24 5.37258 18.6274 0 12 0C5.37258 0 0 5.37258 0 12C0 18.6274 5.37258 24 12 24C18.6274 24 24 18.6274 24 12ZM12.0432 8.3C12.1972 8.3 12.3252 8.32343 12.4345 8.36228C12.5465 8.4021 12.6335 8.45478 12.7048 8.51771C12.7655 8.57121 12.8204 8.64204 12.8667 8.74385C12.8934 8.80263 12.9217 8.90956 12.9295 9.11911C12.9386 9.36327 12.8416 9.70329 12.4507 10.1575C12.3576 10.2477 12.2335 10.3774 12.1309 10.485L12.0448 10.5755C11.9514 10.6736 11.8751 10.7537 11.8296 10.7993C11.6435 10.9853 11.4792 11.1914 11.3361 11.4155C11.1759 11.6663 11.0563 11.9395 10.9727 12.2288C10.8833 12.5383 10.8445 12.8648 10.8445 13.2V13.4143C10.8445 13.9113 11.2475 14.3143 11.7445 14.3143C12.2416 14.3143 12.6445 13.9113 12.6445 13.4143V13.2C12.6445 13.0019 12.6676 12.8474 12.702 12.7284C12.7423 12.5891 12.7942 12.4766 12.853 12.3846C12.9289 12.2657 13.0122 12.1623 13.1024 12.0721C13.1655 12.009 13.2652 11.9042 13.3616 11.8028L13.4338 11.7269C13.5647 11.5896 13.6686 11.4823 13.7164 11.4377L13.7491 11.4072L13.7786 11.3736C14.3771 10.6922 14.7602 9.91189 14.7282 9.05232C14.7163 8.72977 14.6691 8.35927 14.5053 7.99901C14.3611 7.68176 14.1589 7.40022 13.8958 7.168C13.6433 6.94522 13.3541 6.77885 13.0375 6.66629C12.7182 6.55276 12.3844 6.5 12.0432 6.5C11.3305 6.5 10.6742 6.72526 10.1616 7.23027C9.69162 7.6932 9.41416 8.27539 9.31117 8.93196C9.23414 9.42301 9.56978 9.88353 10.0608 9.96056C10.5519 10.0376 11.0124 9.70195 11.0894 9.2109C11.1388 8.89604 11.2566 8.67823 11.4247 8.51259C11.5502 8.38903 11.7273 8.3 12.0432 8.3ZM11.8338 15.563C11.3266 15.563 10.9154 15.9742 10.9154 16.4814C10.9154 16.9886 11.3266 17.3997 11.8338 17.3997C12.341 17.3997 12.7521 16.9886 12.7521 16.4814C12.7521 15.9742 12.341 15.563 11.8338 15.563Z" fill="black"/>
</svg>
