<svg width="24" height="24" viewBox="0 0 24 24" fill="none" xmlns="http://www.w3.org/2000/svg">
<path d="M12 22.5C6.20101 22.5 1.5 17.799 1.5 12C1.5 6.20101 6.20101 1.5 12 1.5C17.799 1.5 22.5 6.20101 22.5 12C22.5 17.799 17.799 22.5 12 22.5ZM0 12C0 18.6274 5.37258 24 12 24C18.6274 24 24 18.6274 24 12C24 5.37258 18.6274 0 12 0C5.37258 0 0 5.37258 0 12ZM13.2716 6H12H8.90625C7.57731 6 6.5 7.04467 6.5 8.33333V15.6667C6.5 16.9553 7.57731 18 8.90625 18H15.0938C16.4227 18 17.5 16.9553 17.5 15.6667V12V10.1H14.406C13.7795 10.1 13.2716 9.60751 13.2716 9V6ZM14.1654 6.0276V9C14.1654 9.12887 14.2731 9.23333 14.406 9.23333H17.4271C17.344 8.93848 17.1917 8.66366 16.979 8.43167L15.3653 6.67127C15.0505 6.32785 14.626 6.1026 14.1654 6.0276ZM11.9924 10.7887C12.8239 10.7887 13.4975 11.4419 13.4975 12.2481C13.4975 12.8863 13.0668 13.222 12.7771 13.4114L12.7766 13.4117C12.6557 13.4905 12.5727 13.5579 12.5183 13.629C12.4714 13.6903 12.4393 13.7624 12.4393 13.873V14.0012C12.4393 14.2405 12.2392 14.4346 11.9924 14.4346C11.7456 14.4346 11.5455 14.2405 11.5455 14.0012V13.873C11.5455 13.2262 11.9813 12.8858 12.2778 12.6926C12.3956 12.6156 12.4757 12.5502 12.528 12.4818C12.573 12.4231 12.6037 12.3542 12.6037 12.2481C12.6037 11.9205 12.3303 11.6553 11.9924 11.6553C11.6546 11.6553 11.3811 11.9205 11.3811 12.2481C11.3811 12.4874 11.181 12.6814 10.9342 12.6814C10.6874 12.6814 10.4874 12.4874 10.4874 12.2481C10.4874 11.4419 11.161 10.7887 11.9924 10.7887ZM11.9997 15.7658C12.2465 15.7658 12.4466 15.5717 12.4466 15.3324C12.4466 15.0931 12.2465 14.8991 11.9997 14.8991C11.7529 14.8991 11.5529 15.0931 11.5529 15.3324C11.5529 15.5717 11.7529 15.7658 11.9997 15.7658Z" fill="black"/>
</svg>
