<svg width="24" height="24" viewBox="0 0 24 24" fill="none" xmlns="http://www.w3.org/2000/svg">
<path d="M22.5 12C22.5 17.799 17.799 22.5 12 22.5C6.20101 22.5 1.5 17.799 1.5 12C1.5 6.20101 6.20101 1.5 12 1.5C17.799 1.5 22.5 6.20101 22.5 12ZM12 24C18.6274 24 24 18.6274 24 12C24 5.37258 18.6274 0 12 0C5.37258 0 0 5.37258 0 12C0 18.6274 5.37258 24 12 24Z" fill="black"/>
<path d="M14.4653 16.4615C14.0794 16.7187 13.9751 17.2401 14.2324 17.626C14.4896 18.0119 15.011 18.1161 15.3969 17.8589C16.4145 17.1805 17.2775 16.5624 17.8143 15.4888C18.3358 14.446 18.5 13.0774 18.5 11.0196V7.60811C18.5 6.76771 17.8184 6.08608 16.978 6.08608H14.2488C13.4084 6.08608 12.7268 6.76771 12.7268 7.60811V10.3373C12.7268 11.1777 13.4084 11.8593 14.2488 11.8593H16.809C16.7647 13.3496 16.5945 14.173 16.3122 14.7378C15.9961 15.3699 15.4946 15.7753 14.4653 16.4615Z" fill="black"/>
<path d="M7.23873 16.4615C6.85285 16.7187 6.74857 17.2401 7.00583 17.626C7.26309 18.0119 7.78446 18.1161 8.17034 17.8589C9.18794 17.1805 10.051 16.5624 10.5878 15.4888C11.1092 14.446 11.2734 13.0774 11.2734 11.0196V7.60811C11.2734 6.76771 10.5918 6.08608 9.75141 6.08608H7.02225C6.18185 6.08608 5.50022 6.76771 5.50022 7.60811V10.3373C5.50022 11.1777 6.18185 11.8593 7.02225 11.8593H9.58239C9.53817 13.3496 9.36798 14.173 9.08561 14.7378C8.76954 15.3699 8.268 15.7753 7.23873 16.4615Z" fill="black"/>
</svg>
