<svg width="24" height="24" viewBox="0 0 24 24" fill="none" xmlns="http://www.w3.org/2000/svg">
<path d="M1.5 12C1.5 6.20101 6.20101 1.5 12 1.5C17.799 1.5 22.5 6.20101 22.5 12C22.5 17.799 17.799 22.5 12 22.5C6.20101 22.5 1.5 17.799 1.5 12ZM12 0C5.37258 0 0 5.37258 0 12C0 18.6274 5.37258 24 12 24C18.6274 24 24 18.6274 24 12C24 5.37258 18.6274 0 12 0Z" fill="black"/>
<path d="M9.5347 7.53854C9.92059 7.28128 10.0249 6.75991 9.76761 6.37403C9.51035 5.98814 8.98898 5.88387 8.6031 6.14112C7.58549 6.81952 6.72245 7.43756 6.18566 8.51116C5.66425 9.55398 5.5 10.9226 5.5 12.9804V16.3919C5.5 17.2323 6.18163 17.9139 7.02203 17.9139H9.75119C10.5916 17.9139 11.2732 17.2323 11.2732 16.3919V13.6627C11.2732 12.8223 10.5916 12.1407 9.75119 12.1407H7.19105C7.23526 10.6504 7.40546 9.82698 7.68783 9.26224C8.0039 8.63011 8.50544 8.22472 9.5347 7.53854Z" fill="black"/>
<path d="M16.7613 7.53854C17.1472 7.28128 17.2514 6.75991 16.9942 6.37403C16.7369 5.98814 16.2155 5.88387 15.8297 6.14112C14.8121 6.81952 13.949 7.43756 13.4122 8.51116C12.8908 9.55398 12.7266 10.9226 12.7266 12.9804V16.3919C12.7266 17.2323 13.4082 17.9139 14.2486 17.9139H16.9778C17.8182 17.9139 18.4998 17.2323 18.4998 16.3919V13.6627C18.4998 12.8223 17.8182 12.1407 16.9778 12.1407H14.4176C14.4618 10.6504 14.632 9.82698 14.9144 9.26224C15.2305 8.63011 15.732 8.22472 16.7613 7.53854Z" fill="black"/>
</svg>
