<svg width="24" height="24" viewBox="0 0 24 24" fill="none" xmlns="http://www.w3.org/2000/svg">
<path d="M1.5 12C1.5 6.20101 6.20101 1.5 12 1.5C17.799 1.5 22.5 6.20101 22.5 12C22.5 17.799 17.799 22.5 12 22.5C6.20101 22.5 1.5 17.799 1.5 12ZM12 0C5.37258 0 0 5.37258 0 12C0 18.6274 5.37258 24 12 24C18.6274 24 24 18.6274 24 12C24 5.37258 18.6274 0 12 0ZM12 19C15.866 19 19 15.866 19 12C19 8.13401 15.866 5 12 5C8.13401 5 5 8.13401 5 12C5 15.866 8.13401 19 12 19ZM10.8996 13.0611V14.8004C10.8996 15.1594 10.6086 15.4504 10.2496 15.4504C9.89062 15.4504 9.59961 15.1594 9.59961 14.8004V9.20896C9.59961 8.84997 9.89062 8.55896 10.2496 8.55896C10.2748 8.55896 10.2997 8.5604 10.3242 8.5632V8.55017H12.1772L12.1848 8.55035C12.7866 8.56441 13.3307 8.81472 13.7264 9.2104C14.1339 9.61789 14.3871 10.1827 14.3871 10.8054C14.3871 11.4281 14.1339 11.9929 13.7264 12.4004C13.5986 12.5282 13.4553 12.6409 13.2996 12.7353L14.1215 14.521C14.2716 14.8471 14.1289 15.2332 13.8028 15.3833C13.4767 15.5333 13.0907 15.3907 12.9406 15.0646L12.0184 13.0611H10.8996ZM12.161 9.85017H10.8996V11.7611H12.1314C12.3954 11.7611 12.6335 11.6548 12.8071 11.4812C12.9808 11.3075 13.0871 11.0695 13.0871 10.8054C13.0871 10.5413 12.9808 10.3033 12.8071 10.1296C12.6399 9.96239 12.413 9.85777 12.161 9.85017Z" fill="black"/>
</svg>
