<svg width="24" height="24" viewBox="0 0 24 24" fill="none" xmlns="http://www.w3.org/2000/svg">
<path d="M12 1.5C17.799 1.5 22.5 6.20101 22.5 12C22.5 17.799 17.799 22.5 12 22.5C6.20101 22.5 1.5 17.799 1.5 12C1.5 6.20101 6.20101 1.5 12 1.5ZM24 12C24 5.37258 18.6274 0 12 0C5.37258 0 0 5.37258 0 12C0 18.6274 5.37258 24 12 24C18.6274 24 24 18.6274 24 12ZM5.70001 10.6667V11.2778C5.70001 11.7196 6.05818 12.0778 6.50001 12.0778C6.94184 12.0778 7.30001 11.7196 7.30001 11.2778V10.6667C7.30001 9.45167 8.28499 8.4667 9.50001 8.4667H15.4021L14.6011 9.26766C14.2887 9.58008 14.2887 10.0866 14.6011 10.399C14.9136 10.7115 15.4201 10.7115 15.7325 10.399L17.8992 8.23236C18.2116 7.91994 18.2116 7.41341 17.8992 7.10099L15.7325 4.93433C15.4201 4.62191 14.9136 4.62191 14.6011 4.93433C14.2887 5.24675 14.2887 5.75328 14.6011 6.0657L15.4021 6.8667H9.50001C7.40133 6.8667 5.70001 8.56802 5.70001 10.6667ZM17.4111 12.7222C17.4111 12.2804 17.053 11.9222 16.6111 11.9222C16.1693 11.9222 15.8111 12.2804 15.8111 12.7222V13.3334C15.8111 14.5484 14.8262 15.5334 13.6111 15.5334H8.43152L9.23248 14.7324C9.5449 14.42 9.5449 13.9134 9.23248 13.601C8.92006 13.2886 8.41353 13.2886 8.10111 13.601L5.94305 15.7591C5.79316 15.9045 5.70001 16.108 5.70001 16.3334C5.70001 16.5582 5.79277 16.7614 5.94211 16.9067L8.10111 19.0657C8.41353 19.3781 8.92006 19.3781 9.23248 19.0657C9.5449 18.7533 9.5449 18.2468 9.23248 17.9343L8.43149 17.1334H13.6111C15.7098 17.1334 17.4111 15.432 17.4111 13.3334V12.7222Z" fill="black"/>
</svg>
