<svg width="24" height="24" viewBox="0 0 24 24" fill="none" xmlns="http://www.w3.org/2000/svg">
<path d="M12 22.5C6.20101 22.5 1.5 17.799 1.5 12C1.5 6.20101 6.20101 1.5 12 1.5C17.799 1.5 22.5 6.20101 22.5 12C22.5 17.799 17.799 22.5 12 22.5ZM0 12C0 18.6274 5.37258 24 12 24C18.6274 24 24 18.6274 24 12C24 5.37258 18.6274 0 12 0C5.37258 0 0 5.37258 0 12ZM11.3369 6.96574C11.3369 6.60938 10.906 6.43091 10.6541 6.6829L6.42378 10.9132C6.18947 11.1475 6.18947 11.5274 6.42378 11.7617L10.6541 15.992C10.906 16.244 11.3369 16.0655 11.3369 15.7091V13.3921C14.5212 13.4527 15.8169 14.1171 17.045 16.2095C17.1564 16.3992 17.2572 16.5837 17.3474 16.7645C17.4879 17.0459 17.9477 17.0102 17.9717 16.6966C17.99 16.4572 17.9995 16.2084 17.9995 15.95C17.9995 13.6157 17.2262 12.069 16.1234 11.051C14.8038 9.83296 12.9785 9.37545 11.3369 9.29924V6.96574Z" fill="black"/>
</svg>
