<svg width="24" height="24" viewBox="0 0 24 24" fill="none" xmlns="http://www.w3.org/2000/svg">
<path d="M1.5 12C1.5 6.20101 6.20101 1.5 12 1.5C17.799 1.5 22.5 6.20101 22.5 12C22.5 17.799 17.799 22.5 12 22.5C6.20101 22.5 1.5 17.799 1.5 12ZM12 0C5.37258 0 0 5.37258 0 12C0 18.6274 5.37258 24 12 24C18.6274 24 24 18.6274 24 12C24 5.37258 18.6274 0 12 0Z" fill="black"/>
<path d="M10.2771 7.42478C8.99949 7.3801 7.70731 7.84558 6.73199 8.82121C6.44008 9.11321 6.19951 9.43626 5.99893 9.77604L6.88001 10.6563C7.69184 9.61593 8.80806 8.44213 10.2683 7.43089C10.2712 7.42885 10.2742 7.42681 10.2771 7.42478Z" fill="black"/>
<path d="M16.2893 12.2614L16.2886 12.2594C17.1815 10.7136 17.8471 8.8065 17.9787 6.48846C17.9932 6.23251 17.7931 6.02016 17.5413 6.01529C17.531 6.01513 17.5207 6.01532 17.5103 6.01586C14.7162 6.16167 12.522 7.08653 10.8376 8.253C8.36941 9.96229 6.94506 12.1798 6.36211 13.2455C6.16322 13.6091 6.25369 14.0473 6.5549 14.332L9.73929 17.3415C9.91902 17.5113 10.1508 17.6056 10.3853 17.6099C10.5352 17.6124 10.6863 17.578 10.8255 17.5031C11.2751 17.261 11.8989 16.8889 12.5926 16.37L12.5934 16.3708C13.796 15.4715 15.2089 14.1309 16.2893 12.2614ZM12.0901 10.3085C12.4806 9.91793 13.1137 9.91793 13.5042 10.3085C13.8948 10.699 13.8948 11.3321 13.5042 11.7226C13.1137 12.1132 12.4806 12.1132 12.0901 11.7226C11.6995 11.3321 11.6995 10.699 12.0901 10.3085Z" fill="black"/>
<path d="M16.5694 13.6895C15.5489 15.168 14.3577 16.283 13.3062 17.0846L14.2197 17.9994C14.5599 17.7987 14.8829 17.5581 15.1748 17.2661C16.1577 16.2828 16.6227 14.9774 16.5694 13.6895Z" fill="black"/>
<path d="M6.28465 15.4525C6.17651 15.483 6.07488 15.542 5.99168 15.6292C5.74387 15.889 5.75347 16.3005 6.01312 16.5484L7.36931 17.8432C7.62896 18.0911 8.04034 18.0815 8.28816 17.8217C8.37573 17.7299 8.43116 17.6192 8.45476 17.5034L6.28465 15.4525Z" fill="black"/>
</svg>
