<svg width="24" height="24" viewBox="0 0 24 24" fill="none" xmlns="http://www.w3.org/2000/svg">
<path d="M1.5 12C1.5 6.20101 6.20101 1.5 12 1.5C17.799 1.5 22.5 6.20101 22.5 12C22.5 17.799 17.799 22.5 12 22.5C6.20101 22.5 1.5 17.799 1.5 12ZM12 0C5.37258 0 0 5.37258 0 12C0 18.6274 5.37258 24 12 24C18.6274 24 24 18.6274 24 12C24 5.37258 18.6274 0 12 0Z" fill="black"/>
<path d="M16.1875 18H17C17.5523 18 18.0043 17.5507 17.9591 17.0003C17.4803 11.1716 12.852 6.52394 7.04655 6.04137C6.49616 5.99562 6.04688 6.44772 6.04688 7V7.82358C6.04688 8.37586 6.49625 8.81782 7.04527 8.87769C11.2972 9.34139 14.6739 12.7325 15.134 17.0016C15.1932 17.5507 15.6352 18 16.1875 18Z" fill="black"/>
<path d="M11.5 17.9992H12.3125C12.8648 17.9992 13.3197 17.549 13.2452 17.0018C12.8053 13.7726 10.2602 11.2165 7.04422 10.7732C6.4971 10.6978 6.04688 11.1528 6.04688 11.7051V12.5287C6.04688 13.0809 6.50042 13.517 7.03884 13.64C8.70297 14.02 10.0127 15.3359 10.3899 17.007C10.5115 17.5458 10.9477 17.9992 11.5 17.9992Z" fill="black"/>
<path d="M8.8125 16.5875C8.8125 15.8078 8.1829 15.1758 7.40625 15.1758C6.6296 15.1758 6 15.8078 6 16.5875C6 17.3672 6.6296 17.9993 7.40625 17.9993C8.1829 17.9993 8.8125 17.3672 8.8125 16.5875Z" fill="black"/>
</svg>
