<svg width="24" height="24" viewBox="0 0 24 24" fill="none" xmlns="http://www.w3.org/2000/svg">
<path d="M12 22.5C6.20101 22.5 1.5 17.799 1.5 12C1.5 6.20101 6.20101 1.5 12 1.5C17.799 1.5 22.5 6.20101 22.5 12C22.5 17.799 17.799 22.5 12 22.5ZM0 12C0 18.6274 5.37258 24 12 24C18.6274 24 24 18.6274 24 12C24 5.37258 18.6274 0 12 0C5.37258 0 0 5.37258 0 12ZM11.4738 16.9474C12.6463 16.9474 13.7328 16.5787 14.6235 15.951L16.9502 18.0453C17.3324 18.3892 17.9169 18.3738 18.2803 18.0101C18.6716 17.6186 18.6546 16.979 18.2432 16.6087L15.9843 14.5758C16.5919 13.6941 16.9476 12.6254 16.9476 11.4737C16.9476 8.45066 14.4969 6 11.4738 6C8.45071 6 6 8.45066 6 11.4737C6 14.4967 8.45071 16.9474 11.4738 16.9474ZM9.01312 11.4736C9.01312 11.0594 9.34891 10.7236 9.76312 10.7236H13.1842C13.5984 10.7236 13.9342 11.0594 13.9342 11.4736C13.9342 11.8878 13.5984 12.2236 13.1842 12.2236H9.76312C9.34891 12.2236 9.01312 11.8878 9.01312 11.4736Z" fill="black"/>
</svg>
