<svg width="24" height="24" viewBox="0 0 24 24" fill="none" xmlns="http://www.w3.org/2000/svg">
<path d="M1.5 12C1.5 6.20101 6.20101 1.5 12 1.5C17.799 1.5 22.5 6.20101 22.5 12C22.5 17.799 17.799 22.5 12 22.5C6.20101 22.5 1.5 17.799 1.5 12ZM12 0C5.37258 0 0 5.37258 0 12C0 18.6274 5.37258 24 12 24C18.6274 24 24 18.6274 24 12C24 5.37258 18.6274 0 12 0Z" fill="black"/>
<path d="M12.3487 9.49325C8.4547 9.19705 5.116 11.3416 7.52955 16.8115C7.65856 17.1038 8.09627 16.9942 8.11623 16.6753C8.35531 12.8557 10.8562 13.5627 12.3487 13.8269V16.0956C12.3487 16.541 12.8872 16.7641 13.2022 16.4491L17.2929 12.3585C17.6834 11.9679 17.6834 11.3348 17.2929 10.9442L13.2022 6.85355C12.8872 6.53857 12.3487 6.76165 12.3487 7.20711V9.49325Z" fill="black"/>
</svg>
