<svg width="24" height="24" viewBox="0 0 24 24" fill="none" xmlns="http://www.w3.org/2000/svg">
<path d="M12 22.5C6.20101 22.5 1.5 17.799 1.5 12C1.5 6.20101 6.20101 1.5 12 1.5C17.799 1.5 22.5 6.20101 22.5 12C22.5 17.799 17.799 22.5 12 22.5ZM0 12C0 18.6274 5.37258 24 12 24C18.6274 24 24 18.6274 24 12C24 5.37258 18.6274 0 12 0C5.37258 0 0 5.37258 0 12ZM18.3078 11.2025V8.3696C18.3078 7.72471 17.9179 7.14415 17.3206 6.89953L13.3496 5.2746C12.4553 4.90847 11.4531 4.90847 10.5588 5.2746L6.58778 6.89953C5.99054 7.14335 5.60059 7.72471 5.60059 8.3696V11.2025C5.60059 14.809 8.3112 18.1812 11.9542 19C15.5972 18.1812 18.3078 14.809 18.3078 11.2025ZM8.42383 11.5562V9.98235C8.42383 9.62408 8.64047 9.3011 8.97227 9.16565L11.1784 8.26291C11.333 8.19959 11.4935 8.15598 11.6562 8.13208C11.82 8.10801 11.9549 8.24458 11.9549 8.4102L11.9537 15.5133C11.9536 15.7055 11.775 15.8484 11.5919 15.7902C9.75286 15.2059 8.42383 13.4385 8.42383 11.5562Z" fill="black"/>
</svg>
