<svg width="24" height="24" viewBox="0 0 24 24" fill="none" xmlns="http://www.w3.org/2000/svg">
<path d="M12 22.5C6.20101 22.5 1.5 17.799 1.5 12C1.5 6.20101 6.20101 1.5 12 1.5C17.799 1.5 22.5 6.20101 22.5 12C22.5 17.799 17.799 22.5 12 22.5ZM0 12C0 18.6274 5.37258 24 12 24C18.6274 24 24 18.6274 24 12C24 5.37258 18.6274 0 12 0C5.37258 0 0 5.37258 0 12ZM12.0536 19C15.6966 18.1812 18.4072 14.809 18.4072 11.2025V8.3696C18.4072 7.72471 18.0173 7.14415 17.4201 6.89953L13.449 5.2746C12.5548 4.90847 11.5525 4.90847 10.6582 5.2746L6.68721 6.89953C6.08997 7.14335 5.70001 7.72471 5.70001 8.3696V11.2025C5.70001 14.809 8.41063 18.1812 12.0536 19Z" fill="black"/>
</svg>
