<svg width="24" height="24" viewBox="0 0 24 24" fill="none" xmlns="http://www.w3.org/2000/svg">
<path d="M22.5 12C22.5 17.799 17.799 22.5 12 22.5C6.20101 22.5 1.5 17.799 1.5 12C1.5 6.20101 6.20101 1.5 12 1.5C17.799 1.5 22.5 6.20101 22.5 12ZM12 24C18.6274 24 24 18.6274 24 12C24 5.37258 18.6274 0 12 0C5.37258 0 0 5.37258 0 12C0 18.6274 5.37258 24 12 24ZM6 6.65C6 7.00899 6.29101 7.3 6.65 7.3H7.63636V13.8318C7.63636 14.7431 8.37509 15.4818 9.28636 15.4818H16.65C17.0089 15.4818 17.3 15.1908 17.3 14.8318C17.3 14.4728 17.0089 14.1818 16.65 14.1818H9.28636C9.09306 14.1818 8.93636 14.0251 8.93636 13.8318V13.1958H15.6663C16.135 13.1958 16.5409 12.8703 16.6425 12.4127L17.289 9.50365C17.4278 8.87914 16.9525 8.28672 16.3128 8.28672H8.93636V6.65C8.93636 6.29101 8.64534 6 8.28636 6H6.65C6.29101 6 6 6.29101 6 6.65ZM9.37762 16.4684C8.7749 16.4684 8.28672 16.9565 8.28672 17.5593C8.28672 18.162 8.7749 18.6502 9.37762 18.6502C9.98035 18.6502 10.4685 18.162 10.4685 17.5593C10.4685 16.9565 9.98035 16.4684 9.37762 16.4684ZM14.4688 17.5593C14.4688 18.162 14.9569 18.6502 15.5597 18.6502C16.1624 18.6502 16.6506 18.162 16.6506 17.5593C16.6506 16.9565 16.1624 16.4684 15.5597 16.4684C14.9569 16.4684 14.4688 16.9565 14.4688 17.5593Z" fill="black"/>
</svg>
