<svg width="24" height="24" viewBox="0 0 24 24" fill="none" xmlns="http://www.w3.org/2000/svg">
<path d="M1.5 12C1.5 6.20101 6.20101 1.5 12 1.5C17.799 1.5 22.5 6.20101 22.5 12C22.5 17.799 17.799 22.5 12 22.5C6.20101 22.5 1.5 17.799 1.5 12ZM12 0C5.37258 0 0 5.37258 0 12C0 18.6274 5.37258 24 12 24C18.6274 24 24 18.6274 24 12C24 5.37258 18.6274 0 12 0ZM7.54193 9.34509C6.87366 9.34509 6.31863 9.85765 6.26452 10.5231L5.70615 16.3212L5.70523 16.3319C5.61561 17.501 6.53995 18.5 7.71331 18.5H16.2677C17.4408 18.5 18.3665 17.5011 18.2758 16.3307L17.7165 10.5223C17.6623 9.85732 17.107 9.34509 16.4391 9.34509H15.3533V8.97887C15.3533 7.05765 13.7956 5.5 11.8744 5.5C9.95315 5.5 8.39551 7.05765 8.39551 8.97887V9.34509H7.54193ZM9.4941 9.34509V8.97887C9.4941 7.66438 10.5599 6.59859 11.8744 6.59859C13.1889 6.59859 14.2547 7.66438 14.2547 8.97887V9.34509H9.4941Z" fill="black"/>
</svg>
