<svg width="24" height="24" viewBox="0 0 24 24" fill="none" xmlns="http://www.w3.org/2000/svg">
<path d="M12 1.5C17.799 1.5 22.5 6.20101 22.5 12C22.5 17.799 17.799 22.5 12 22.5C6.20101 22.5 1.5 17.799 1.5 12C1.5 6.20101 6.20101 1.5 12 1.5ZM24 12C24 5.37258 18.6274 0 12 0C5.37258 0 0 5.37258 0 12C0 18.6274 5.37258 24 12 24C18.6274 24 24 18.6274 24 12ZM16.5 6.55005H11.8221V17.4389H16.5C17.8807 17.4389 19 16.3196 19 14.9389V9.05005C19 7.66934 17.8807 6.55005 16.5 6.55005ZM7.5 6.55005C6.11929 6.55005 5 7.66934 5 9.05005V14.9389C5 16.3196 6.11929 17.4389 7.5 17.4389H10.6221V6.55005H7.5ZM7.00039 10.2278H8.55595C8.88732 10.2278 9.15595 10.4964 9.15595 10.8278C9.15595 11.1592 8.88732 11.4278 8.55595 11.4278H7.00039C6.66902 11.4278 6.40039 11.1592 6.40039 10.8278C6.40039 10.4964 6.66902 10.2278 7.00039 10.2278ZM6.40039 13.1612C6.40039 12.8298 6.66902 12.5612 7.00039 12.5612H8.55595C8.88732 12.5612 9.15595 12.8298 9.15595 13.1612C9.15595 13.4925 8.88732 13.7612 8.55595 13.7612H7.00039C6.66902 13.7612 6.40039 13.4925 6.40039 13.1612Z" fill="black"/>
</svg>
