<svg width="24" height="24" viewBox="0 0 24 24" fill="none" xmlns="http://www.w3.org/2000/svg">
<path d="M12 22.5C6.20101 22.5 1.5 17.799 1.5 12C1.5 6.20101 6.20101 1.5 12 1.5C17.799 1.5 22.5 6.20101 22.5 12C22.5 17.799 17.799 22.5 12 22.5ZM0 12C0 18.6274 5.37258 24 12 24C18.6274 24 24 18.6274 24 12C24 5.37258 18.6274 0 12 0C5.37258 0 0 5.37258 0 12ZM8.5657 6.93451C8.25328 6.62209 7.74675 6.62209 7.43433 6.93451C7.14646 7.22238 7.12384 7.67506 7.36647 7.98883C7.43822 8.02581 7.50555 8.07437 7.56569 8.13451L17.7316 18.3004C17.7562 18.325 17.7788 18.3507 17.7995 18.3775C18.1005 18.5327 18.4793 18.4841 18.7316 18.2318C19.044 17.9194 19.044 17.4129 18.7316 17.1004L18.0002 16.369V7.42031C18.0002 7.08894 17.7315 6.82031 17.4002 6.82031H16.4184C16.087 6.82031 15.8184 7.08894 15.8184 7.42031V14.1872L14.7267 13.0956V9.60195C14.7267 9.27058 14.4581 9.00195 14.1267 9.00195H13.1449C12.8136 9.00195 12.5449 9.27058 12.5449 9.60195V10.9137L8.5657 6.93451ZM9.27246 12.3285V16.5831C9.27246 16.9144 9.54109 17.1831 9.87246 17.1831H10.8543C11.1856 17.1831 11.4543 16.9144 11.4543 16.5831V14.2858L9.30412 12.1357C9.28359 12.1962 9.27246 12.2611 9.27246 12.3285ZM12.5449 16.5838C12.5449 16.9151 12.8136 17.1838 13.1449 17.1838H14.1267C14.1945 17.1838 14.2596 17.1726 14.3203 17.1519L12.5449 15.3765V16.5838ZM8.18182 16.5839V14.5111C8.18182 14.1798 7.91319 13.9111 7.58182 13.9111H6.6C6.26863 13.9111 6 14.1798 6 14.5111V16.5839C6 16.9152 6.26863 17.1839 6.6 17.1839H7.58182C7.91319 17.1839 8.18182 16.9152 8.18182 16.5839Z" fill="black"/>
</svg>
