<svg width="24" height="24" viewBox="0 0 24 24" fill="none" xmlns="http://www.w3.org/2000/svg">
<path d="M1.5 12C1.5 6.20101 6.20101 1.5 12 1.5C17.799 1.5 22.5 6.20101 22.5 12C22.5 17.799 17.799 22.5 12 22.5C6.20101 22.5 1.5 17.799 1.5 12ZM12 0C5.37258 0 0 5.37258 0 12C0 18.6274 5.37258 24 12 24C18.6274 24 24 18.6274 24 12C24 5.37258 18.6274 0 12 0Z" fill="black"/>
<path d="M12.534 6.5C12.534 6.94183 12.8922 7.3 13.334 7.3H15.7784C16.0116 7.3 16.2007 7.48904 16.2007 7.72222V16.2778C16.2007 16.511 16.0116 16.7 15.7784 16.7H13.334C12.8922 16.7 12.534 17.0582 12.534 17.5C12.534 17.9418 12.8922 18.3 13.334 18.3H15.7784C16.8953 18.3 17.8007 17.3946 17.8007 16.2778V7.72222C17.8007 6.60538 16.8953 5.7 15.7784 5.7H13.334C12.8922 5.7 12.534 6.05817 12.534 6.5Z" fill="black"/>
<path d="M9.71166 8.37767C9.39924 8.69009 9.39924 9.19662 9.71166 9.50904L12.2015 11.9989L9.71166 14.4888C9.39924 14.8012 9.39924 15.3077 9.71166 15.6202C10.0241 15.9326 10.5306 15.9326 10.843 15.6202L13.8986 12.5646C14.211 12.2522 14.211 11.7456 13.8986 11.4332L10.843 8.37767C10.5306 8.06525 10.0241 8.06525 9.71166 8.37767Z" fill="black"/>
<path d="M5.2 12C5.2 12.4418 5.55817 12.8 6 12.8H13.3333C13.7752 12.8 14.1333 12.4418 14.1333 12C14.1333 11.5582 13.7752 11.2 13.3333 11.2H6C5.55817 11.2 5.2 11.5582 5.2 12Z" fill="black"/>
</svg>
