<svg width="24" height="24" viewBox="0 0 24 24" fill="none" xmlns="http://www.w3.org/2000/svg">
<path d="M12 22.5C6.20101 22.5 1.5 17.799 1.5 12C1.5 6.20101 6.20101 1.5 12 1.5C17.799 1.5 22.5 6.20101 22.5 12C22.5 17.799 17.799 22.5 12 22.5ZM0 12C0 18.6274 5.37258 24 12 24C18.6274 24 24 18.6274 24 12C24 5.37258 18.6274 0 12 0C5.37258 0 0 5.37258 0 12ZM7.58182 17.1835C7.91319 17.1835 8.18182 16.9149 8.18182 16.5835V14.5108C8.18182 14.1794 7.91319 13.9108 7.58182 13.9108H6.6C6.26863 13.9108 6 14.1794 6 14.5108V16.5835C6 16.9149 6.26863 17.1835 6.6 17.1835H7.58182Z" fill="black"/>
</svg>
