<svg width="24" height="24" viewBox="0 0 24 24" fill="none" xmlns="http://www.w3.org/2000/svg">
<path d="M12 22.5C6.20101 22.5 1.5 17.799 1.5 12C1.5 6.20101 6.20101 1.5 12 1.5C17.799 1.5 22.5 6.20101 22.5 12C22.5 17.799 17.799 22.5 12 22.5ZM0 12C0 18.6274 5.37258 24 12 24C18.6274 24 24 18.6274 24 12C24 5.37258 18.6274 0 12 0C5.37258 0 0 5.37258 0 12ZM14.1272 17.1837C14.4586 17.1837 14.7272 16.915 14.7272 16.5837V9.60183C14.7272 9.27046 14.4586 9.00183 14.1272 9.00183H13.1454C12.814 9.00183 12.5454 9.27046 12.5454 9.60183V16.5837C12.5454 16.915 12.814 17.1837 13.1454 17.1837H14.1272ZM11.4546 16.5837V12.3291C11.4546 11.9978 11.186 11.7291 10.8546 11.7291H9.87283C9.54146 11.7291 9.27283 11.9978 9.27283 12.3291V16.5837C9.27283 16.915 9.54146 17.1837 9.87283 17.1837H10.8546C11.186 17.1837 11.4546 16.915 11.4546 16.5837ZM7.58182 17.1835C7.91319 17.1835 8.18182 16.9149 8.18182 16.5835V14.5108C8.18182 14.1794 7.91319 13.9108 7.58182 13.9108H6.6C6.26863 13.9108 6 14.1794 6 14.5108V16.5835C6 16.9149 6.26863 17.1835 6.6 17.1835H7.58182Z" fill="black"/>
</svg>
