<svg width="24" height="24" viewBox="0 0 24 24" fill="none" xmlns="http://www.w3.org/2000/svg">
<path d="M1.49984 12C1.49984 6.20101 6.20085 1.5 11.9998 1.5C17.7988 1.5 22.4998 6.20101 22.4998 12C22.4998 17.799 17.7988 22.5 11.9998 22.5C6.20085 22.5 1.49984 17.799 1.49984 12ZM11.9998 0C5.37243 0 -0.000156403 5.37258 -0.000156403 12C-0.000156403 18.6274 5.37243 24 11.9998 24C18.6273 24 23.9998 18.6274 23.9998 12C23.9998 5.37258 18.6273 0 11.9998 0Z" fill="black"/>
<path d="M5.82977 12.0728C5.82977 12.487 6.16555 12.8228 6.57977 12.8228H17.423C17.8373 12.8228 18.173 12.487 18.173 12.0728C18.173 11.6585 17.8373 11.3228 17.423 11.3228H6.57977C6.16555 11.3228 5.82977 11.6585 5.82977 12.0728Z" fill="black"/>
<path d="M5.82984 7.73481C5.82984 8.14902 6.16563 8.48481 6.57984 8.48481H17.4231C17.8373 8.48481 18.1731 8.14902 18.1731 7.73481C18.1731 7.3206 17.8373 6.98481 17.4231 6.98481H6.57984C6.16563 6.98481 5.82984 7.3206 5.82984 7.73481Z" fill="black"/>
<path d="M5.82977 16.4092C5.82977 16.8234 6.16555 17.1592 6.57977 17.1592H17.423C17.8373 17.1592 18.173 16.8234 18.173 16.4092C18.173 15.995 17.8373 15.6592 17.423 15.6592H6.57977C6.16555 15.6592 5.82977 15.995 5.82977 16.4092Z" fill="black"/>
<path d="M16.411 7.66264C16.411 6.74439 15.6666 6 14.7484 6C13.8301 6 13.0857 6.74439 13.0857 7.66264C13.0857 8.58088 13.8301 9.32527 14.7484 9.32527C15.6666 9.32527 16.411 8.58088 16.411 7.66264Z" fill="black"/>
<path d="M16.4109 16.337C16.4109 15.4187 15.6665 14.6743 14.7483 14.6743C13.83 14.6743 13.0856 15.4187 13.0856 16.337C13.0856 17.2552 13.83 17.9996 14.7483 17.9996C15.6665 17.9996 16.4109 17.2552 16.4109 16.337Z" fill="black"/>
<path d="M10.6277 12C10.6277 11.0818 9.88331 10.3374 8.96506 10.3374C8.04681 10.3374 7.30242 11.0818 7.30242 12C7.30242 12.9183 8.04681 13.6627 8.96506 13.6627C9.88331 13.6627 10.6277 12.9183 10.6277 12Z" fill="black"/>
</svg>
