<svg width="24" height="24" viewBox="0 0 24 24" fill="none" xmlns="http://www.w3.org/2000/svg">
<path d="M12 22.5C6.20101 22.5 1.5 17.799 1.5 12C1.5 6.20101 6.20101 1.5 12 1.5C17.799 1.5 22.5 6.20101 22.5 12C22.5 17.799 17.799 22.5 12 22.5ZM0 12C0 18.6274 5.37258 24 12 24C18.6274 24 24 18.6274 24 12C24 5.37258 18.6274 0 12 0C5.37258 0 0 5.37258 0 12Z" fill="black"/>
<path d="M8.54492 5.94961C8.18594 5.94961 7.89492 6.24062 7.89492 6.59961V17.2396C7.89492 17.5985 8.18594 17.8896 8.54492 17.8896C8.90391 17.8896 9.19492 17.5985 9.19492 17.2396V6.59961C9.19492 6.24062 8.90391 5.94961 8.54492 5.94961Z" fill="black"/>
<path d="M11.6555 9.71059C11.9679 9.39817 11.9679 8.89164 11.6555 8.57922L9.11023 6.03392C8.79781 5.7215 8.29128 5.7215 7.97886 6.03392C7.66644 6.34634 7.66644 6.85288 7.97886 7.16529L10.5242 9.71059C10.8366 10.023 11.3431 10.023 11.6555 9.71059Z" fill="black"/>
<path d="M11.8898 9.14491C11.8898 8.70308 11.5317 8.34491 11.0898 8.34491H7.93047L9.11008 7.16529C9.4225 6.85288 9.42265 6.34634 9.11023 6.03392C8.79781 5.7215 8.29128 5.7215 7.97886 6.03392L5.43341 8.57922C5.20462 8.80802 5.13617 9.15211 5.25999 9.45105C5.38382 9.74999 5.67553 9.94491 5.9991 9.94491H11.0898C11.5317 9.94491 11.8898 9.58673 11.8898 9.14491Z" fill="black"/>
<path d="M13.4418 9.73828C13.4418 10.0973 13.7328 10.3883 14.0918 10.3883H16.7968C17.1558 10.3883 17.4468 10.0973 17.4468 9.73828C17.4468 9.3793 17.1558 9.08828 16.7968 9.08828H14.0918C13.7328 9.08828 13.4418 9.3793 13.4418 9.73828Z" fill="black"/>
<path d="M15.7039 6.00277C15.3742 5.86058 14.9918 6.01253 14.8496 6.34215L13.2 10.1661C13.0578 10.4957 13.2098 10.8782 13.5394 11.0204C13.869 11.1625 14.2515 11.0106 14.3937 10.681L16.0432 6.85707C16.1854 6.52744 16.0335 6.14496 15.7039 6.00277Z" fill="black"/>
<path d="M15.1886 6.00244C14.8588 6.14422 14.7064 6.5265 14.8481 6.85631L16.4919 10.6802C16.6337 11.01 17.016 11.1624 17.3458 11.0207C17.6756 10.8789 17.828 10.4966 17.6862 10.1668L16.0425 6.34291C15.9007 6.0131 15.5184 5.86067 15.1886 6.00244Z" fill="black"/>
<path d="M13.1469 13.4531C13.1469 13.8121 13.4379 14.1031 13.7969 14.1031H15.6637L13.3064 16.8136C13.1393 17.0058 13.0998 17.2778 13.2054 17.5096C13.311 17.7414 13.5422 17.8901 13.7969 17.8901H17.0904C17.4494 17.8901 17.7404 17.5991 17.7404 17.2401C17.7404 16.8811 17.4494 16.5901 17.0904 16.5901H15.2236L17.5809 13.8797C17.748 13.6875 17.7875 13.4154 17.6819 13.1836C17.5763 12.9519 17.3451 12.8031 17.0904 12.8031H13.7969C13.4379 12.8031 13.1469 13.0941 13.1469 13.4531Z" fill="black"/>
</svg>
