<svg width="24" height="24" viewBox="0 0 24 24" fill="none" xmlns="http://www.w3.org/2000/svg">
<path d="M15.1934 11.4788L16.5795 9.29643L16.5808 9.29422C16.7276 9.05638 16.8477 8.82162 16.9405 8.58998C17.0442 8.33835 17.0945 8.06305 17.0945 7.7668C17.0945 7.47094 17.0444 7.1977 16.9402 6.95024C16.8418 6.70501 16.6985 6.49462 16.5098 6.32226C16.3266 6.15046 16.1069 6.02227 15.8543 5.93595C15.6054 5.84433 15.3356 5.7998 15.0469 5.7998C14.7616 5.7998 14.4916 5.84477 14.2383 5.93637L14.237 5.93685C13.9883 6.02876 13.7695 6.16232 13.5828 6.33801C13.3996 6.5101 13.2571 6.71956 13.1543 6.96315C13.0498 7.21064 12.9992 7.48193 12.9992 7.77413C12.9992 8.02115 13.0395 8.25716 13.1213 8.48074L13.1229 8.48472C13.2094 8.70648 13.3294 8.90353 13.4834 9.07399L13.4857 9.07654C13.6454 9.24716 13.8328 9.38209 14.0466 9.48077C14.2659 9.58198 14.505 9.63115 14.7609 9.63115C14.789 9.63115 14.817 9.63049 14.845 9.62917L13.6449 11.4788H15.1934ZM15.714 7.49461C15.7511 7.57999 15.7707 7.6748 15.7707 7.78147C15.7707 7.88752 15.7513 7.98546 15.7133 8.07705C15.6747 8.16555 15.6208 8.24444 15.5507 8.31458C15.4875 8.37775 15.4097 8.42967 15.3145 8.46933L15.3117 8.47055C15.2263 8.50767 15.1315 8.52729 15.0249 8.52729C14.9188 8.52729 14.8209 8.50788 14.7293 8.46993C14.6402 8.43102 14.5614 8.37931 14.4918 8.31451C14.427 8.24498 14.3753 8.16615 14.3364 8.07707C14.2985 7.98548 14.2791 7.88753 14.2791 7.78147C14.2791 7.6748 14.2987 7.58 14.3358 7.49462L14.337 7.49179C14.3766 7.39661 14.4286 7.31884 14.4918 7.25568C14.5619 7.18554 14.6408 7.13167 14.7293 7.09299C14.8209 7.05505 14.9188 7.03565 15.0249 7.03565C15.1315 7.03565 15.2263 7.05528 15.3117 7.0924L15.3145 7.09358C15.4073 7.13222 15.4836 7.18523 15.5464 7.25181L15.5548 7.25966C15.6213 7.32254 15.6741 7.39905 15.7128 7.49179L15.714 7.49461Z" fill="black"/>
<path d="M15.2532 14.2776V18.1994H16.5331V12.6084H15.4616L13.6821 14.0885L14.4602 15.011L15.2532 14.2776Z" fill="black"/>
<path d="M8.97621 6.09903L6.59825 8.47746C6.35515 8.72056 6.28243 9.08616 6.41399 9.40378C6.54556 9.72141 6.8555 9.9285 7.19929 9.9285H8.82707V17.5C8.82707 17.9142 9.16285 18.25 9.57707 18.25C9.99128 18.25 10.3271 17.9142 10.3271 17.5V9.9285H11.8193C11.8423 9.9285 11.8652 9.92758 11.8878 9.92578C12.1274 9.94494 12.3736 9.86286 12.557 9.67954C12.8889 9.3476 12.8889 8.80941 12.557 8.47746L10.1784 6.09891C9.84647 5.76696 9.30816 5.76709 8.97621 6.09903Z" fill="black"/>
<path d="M12 24C5.37258 24 0 18.6274 0 12C0 5.37258 5.37258 0 12 0C18.6274 0 24 5.37258 24 12C24 18.6274 18.6274 24 12 24ZM1.5 12C1.5 17.799 6.20101 22.5 12 22.5C17.799 22.5 22.5 17.799 22.5 12C22.5 6.20101 17.799 1.5 12 1.5C6.20101 1.5 1.5 6.20101 1.5 12Z" fill="black"/>
</svg>
