<svg width="24" height="24" viewBox="0 0 24 24" fill="none" xmlns="http://www.w3.org/2000/svg">
<path d="M22.5 12C22.5 17.799 17.799 22.5 12 22.5C6.20101 22.5 1.5 17.799 1.5 12C1.5 6.20101 6.20101 1.5 12 1.5C17.799 1.5 22.5 6.20101 22.5 12ZM12 24C18.6274 24 24 18.6274 24 12C24 5.37258 18.6274 0 12 0C5.37258 0 0 5.37258 0 12C0 18.6274 5.37258 24 12 24ZM16.879 9.856L12.7294 5.7064C12.3389 5.31587 11.7057 5.31587 11.3152 5.70639L7.16561 9.85599C6.66163 10.36 7.01857 11.2217 7.73129 11.2217H16.3133C17.0261 11.2217 17.383 10.36 16.879 9.856Z" fill="black"/>
</svg>
