<svg width="24" height="24" viewBox="0 0 24 24" fill="none" xmlns="http://www.w3.org/2000/svg">
<path d="M12 22.5C6.20101 22.5 1.5 17.799 1.5 12C1.5 6.20101 6.20101 1.5 12 1.5C17.799 1.5 22.5 6.20101 22.5 12C22.5 17.799 17.799 22.5 12 22.5ZM0 12C0 18.6274 5.37258 24 12 24C18.6274 24 24 18.6274 24 12C24 5.37258 18.6274 0 12 0C5.37258 0 0 5.37258 0 12Z" fill="black"/>
<path d="M8.54492 17.8893C8.90391 17.8893 9.19492 17.5982 9.19492 17.2393V6.5993C9.19492 6.24032 8.90391 5.9493 8.54492 5.9493C8.18594 5.9493 7.89492 6.24032 7.89492 6.5993V17.2393C7.89492 17.5982 8.18594 17.8893 8.54492 17.8893Z" fill="black"/>
<path d="M5.43431 14.1283C5.12189 14.4407 5.12189 14.9472 5.43431 15.2596L7.97961 17.8049C8.29203 18.1174 8.79856 18.1174 9.11098 17.8049C9.4234 17.4925 9.4234 16.986 9.11098 16.6736L6.56569 14.1283C6.25327 13.8159 5.74673 13.8159 5.43431 14.1283Z" fill="black"/>
<path d="M5.2 14.694C5.2 15.1358 5.55817 15.494 6 15.494H9.15937L7.97976 16.6736C7.66734 16.986 7.66719 17.4925 7.97961 17.8049C8.29203 18.1174 8.79856 18.1174 9.11098 17.8049L11.6564 15.2596C11.8852 15.0308 11.9537 14.6868 11.8298 14.3878C11.706 14.0889 11.4143 13.894 11.0907 13.894H6C5.55817 13.894 5.2 14.2521 5.2 14.694Z" fill="black"/>
<path d="M13.4418 9.73828C13.4418 10.0973 13.7328 10.3883 14.0918 10.3883H16.7968C17.1558 10.3883 17.4468 10.0973 17.4468 9.73828C17.4468 9.3793 17.1558 9.08828 16.7968 9.08828H14.0918C13.7328 9.08828 13.4418 9.3793 13.4418 9.73828Z" fill="black"/>
<path d="M15.7039 6.00277C15.3742 5.86058 14.9918 6.01253 14.8496 6.34215L13.2 10.1661C13.0578 10.4957 13.2098 10.8782 13.5394 11.0204C13.869 11.1625 14.2515 11.0106 14.3937 10.681L16.0432 6.85707C16.1854 6.52744 16.0335 6.14496 15.7039 6.00277Z" fill="black"/>
<path d="M15.1886 6.00245C14.8588 6.14422 14.7064 6.5265 14.8481 6.85631L16.4919 10.6802C16.6337 11.01 17.016 11.1624 17.3458 11.0207C17.6756 10.8789 17.828 10.4966 17.6862 10.1668L16.0425 6.34291C15.9007 6.0131 15.5184 5.86067 15.1886 6.00245Z" fill="black"/>
<path d="M13.1469 13.4531C13.1469 13.8121 13.4379 14.1031 13.7969 14.1031H15.6637L13.3064 16.8136C13.1393 17.0058 13.0998 17.2778 13.2054 17.5096C13.311 17.7414 13.5422 17.8901 13.7969 17.8901H17.0904C17.4494 17.8901 17.7404 17.5991 17.7404 17.2401C17.7404 16.8811 17.4494 16.5901 17.0904 16.5901H15.2236L17.5809 13.8797C17.748 13.6875 17.7875 13.4154 17.6819 13.1836C17.5763 12.9519 17.3451 12.8031 17.0904 12.8031H13.7969C13.4379 12.8031 13.1469 13.0941 13.1469 13.4531Z" fill="black"/>
</svg>
