<svg width="24" height="24" viewBox="0 0 24 24" fill="none" xmlns="http://www.w3.org/2000/svg">
<path d="M12 22.5C6.20101 22.5 1.5 17.799 1.5 12C1.5 6.20101 6.20101 1.5 12 1.5C17.799 1.5 22.5 6.20101 22.5 12C22.5 17.799 17.799 22.5 12 22.5ZM0 12C0 18.6274 5.37258 24 12 24C18.6274 24 24 18.6274 24 12C24 5.37258 18.6274 0 12 0C5.37258 0 0 5.37258 0 12Z" fill="black"/>
<path d="M11.7801 8.66797C11.7801 9.1098 12.1383 9.46797 12.5801 9.46797H17.9994C18.4412 9.46797 18.7994 9.1098 18.7994 8.66797C18.7994 8.22614 18.4412 7.86797 17.9994 7.86797H12.5801C12.1383 7.86797 11.7801 8.22614 11.7801 8.66797Z" fill="black"/>
<path d="M11.7801 12.1514C11.7801 12.5932 12.1383 12.9514 12.5801 12.9514H17.9994C18.4412 12.9514 18.7994 12.5932 18.7994 12.1514C18.7994 11.7095 18.4412 11.3514 17.9994 11.3514H12.5801C12.1383 11.3514 11.7801 11.7095 11.7801 12.1514Z" fill="black"/>
<path d="M11.7801 15.6357C11.7801 16.0776 12.1383 16.4357 12.5801 16.4357H17.9994C18.4412 16.4357 18.7994 16.0776 18.7994 15.6357C18.7994 15.1939 18.4412 14.8357 17.9994 14.8357H12.5801C12.1383 14.8357 11.7801 15.1939 11.7801 15.6357Z" fill="black"/>
<path d="M8.14844 8.25566C7.70661 8.25566 7.34844 8.61384 7.34844 9.05566V15.7138C7.34844 16.1556 7.70661 16.5138 8.14844 16.5138C8.59027 16.5138 8.94844 16.1556 8.94844 15.7138V9.05566C8.94844 8.61384 8.59027 8.25566 8.14844 8.25566Z" fill="black"/>
<path d="M10.8979 11.0307C11.2299 10.6987 11.2299 10.1605 10.8979 9.82857L8.74956 7.68021C8.41761 7.34826 7.87942 7.34826 7.54747 7.68021C7.21553 8.01215 7.21553 8.55035 7.54747 8.88229L9.69583 11.0307C10.0278 11.3626 10.566 11.3626 10.8979 11.0307Z" fill="black"/>
<path d="M11.1469 10.4296C11.1469 9.96017 10.7663 9.57961 10.2969 9.57961H8.05211L8.74943 8.88229C9.08138 8.55035 9.0815 8.01215 8.74956 7.68021C8.41761 7.34826 7.87942 7.34826 7.54747 7.68021L5.39899 9.82857C5.15589 10.0717 5.08317 10.4373 5.21473 10.7549C5.3463 11.0725 5.65624 11.2796 6.00003 11.2796H10.2969C10.7663 11.2796 11.1469 10.8991 11.1469 10.4296Z" fill="black"/>
</svg>
