<svg width="24" height="24" viewBox="0 0 24 24" fill="none" xmlns="http://www.w3.org/2000/svg">
<path d="M12 22.5C6.20101 22.5 1.5 17.799 1.5 12C1.5 6.20101 6.20101 1.5 12 1.5C17.799 1.5 22.5 6.20101 22.5 12C22.5 17.799 17.799 22.5 12 22.5ZM0 12C0 18.6274 5.37258 24 12 24C18.6274 24 24 18.6274 24 12C24 5.37258 18.6274 0 12 0C5.37258 0 0 5.37258 0 12ZM8.93994 5C7.83537 5 6.93994 5.89543 6.93994 7V17C6.93994 18.1046 7.83537 19 8.93994 19H15.0511C16.1556 19 17.0511 18.1046 17.0511 17V7C17.0511 5.89543 16.1556 5 15.0511 5H8.93994ZM11.9954 16.6667C10.7068 16.6667 9.66211 15.622 9.66211 14.3333C9.66211 13.0447 10.7068 12 11.9954 12C13.2841 12 14.3288 13.0447 14.3288 14.3333C14.3288 15.622 13.2841 16.6667 11.9954 16.6667ZM12.7733 8.11103C12.7733 8.54058 12.4251 8.88881 11.9956 8.88881C11.566 8.88881 11.2178 8.54058 11.2178 8.11103C11.2178 7.68147 11.566 7.33325 11.9956 7.33325C12.4251 7.33325 12.7733 7.68147 12.7733 8.11103Z" fill="black"/>
</svg>
