<svg width="24" height="24" viewBox="0 0 24 24" fill="none" xmlns="http://www.w3.org/2000/svg">
<path d="M12 22.5C6.20101 22.5 1.5 17.799 1.5 12C1.5 6.20101 6.20101 1.5 12 1.5C17.799 1.5 22.5 6.20101 22.5 12C22.5 17.799 17.799 22.5 12 22.5ZM0 12C0 18.6274 5.37258 24 12 24C18.6274 24 24 18.6274 24 12C24 5.37258 18.6274 0 12 0C5.37258 0 0 5.37258 0 12ZM12.2026 3.51393C11.3818 3.40201 10.6257 3.9767 10.5137 4.79753C10.4018 5.61836 10.9765 6.37451 11.7973 6.48643C14.6634 6.87721 16.8725 9.33728 16.8725 12.3108C16.8725 13.3841 16.5863 14.3859 16.087 15.2491C15.6721 15.9662 15.9172 16.8838 16.6343 17.2986C17.3514 17.7134 18.269 17.4684 18.6838 16.7513C19.4401 15.4438 19.8725 13.9255 19.8725 12.3108C19.8725 7.81672 16.5349 4.10464 12.2026 3.51393Z" fill="black"/>
</svg>
