<svg width="24" height="24" viewBox="0 0 24 24" fill="none" xmlns="http://www.w3.org/2000/svg">
<path d="M12 22.5C6.20101 22.5 1.5 17.799 1.5 12C1.5 6.20101 6.20101 1.5 12 1.5C17.799 1.5 22.5 6.20101 22.5 12C22.5 17.799 17.799 22.5 12 22.5ZM0 12C0 18.6274 5.37258 24 12 24C18.6274 24 24 18.6274 24 12C24 5.37258 18.6274 0 12 0C5.37258 0 0 5.37258 0 12ZM10.0635 9.12539C9.92198 9.42697 9.63952 9.63824 9.31023 9.68885L5.9612 10.2036C5.55907 10.2654 5.39517 10.756 5.6794 11.0471L8.14732 13.5747C8.36914 13.8019 8.46989 14.1209 8.41877 14.4343L7.83984 17.9837C7.77264 18.3957 8.21 18.7037 8.57528 18.5017L9.46796 18.0081C9.47083 18.0065 9.47369 18.005 9.47656 18.0034L11.484 16.8933C11.4868 16.8918 11.4895 16.8902 11.4923 16.8887L11.5161 16.8755C11.8173 16.709 12.1828 16.709 12.484 16.8755L15.4248 18.5017C15.7901 18.7037 16.2275 18.3957 16.1603 17.9837L15.5813 14.4343C15.5302 14.1209 15.631 13.8019 15.8528 13.5747L18.3207 11.0471C18.6049 10.756 18.441 10.2654 18.0389 10.2036L14.6899 9.68885C14.3606 9.63824 14.0781 9.42697 13.9366 9.12539L12.4527 5.96429C12.2727 5.58091 11.7274 5.58091 11.5474 5.96429L10.0635 9.12539ZM12.0001 15.2506V8.53018L12.5787 9.76279C12.9326 10.5167 13.6388 11.0449 14.462 11.1714L15.8888 11.3907L14.7795 12.5268C14.225 13.0947 13.9731 13.8923 14.1009 14.6758L14.3483 16.1923L13.2099 15.5628C12.8335 15.3547 12.4168 15.2506 12.0001 15.2506Z" fill="black"/>
</svg>
