<svg width="24" height="24" viewBox="0 0 24 24" fill="none" xmlns="http://www.w3.org/2000/svg">
<path d="M12 22.5C6.20101 22.5 1.5 17.799 1.5 12C1.5 6.20101 6.20101 1.5 12 1.5C17.799 1.5 22.5 6.20101 22.5 12C22.5 17.799 17.799 22.5 12 22.5ZM0 12C0 18.6274 5.37258 24 12 24C18.6274 24 24 18.6274 24 12C24 5.37258 18.6274 0 12 0C5.37258 0 0 5.37258 0 12Z" fill="black"/>
<path d="M8.19922 18.75C8.61343 18.75 8.94922 18.4142 8.94922 18V5.99998C8.94922 5.58577 8.61343 5.24998 8.19922 5.24998C7.78501 5.24998 7.44922 5.58577 7.44922 5.99998V18C7.44922 18.4142 7.78501 18.75 8.19922 18.75Z" fill="black"/>
<path d="M14.5007 17.6232C14.5351 17.6572 14.5716 17.6897 14.6129 17.7148C15.1405 18.0347 15.7871 17.587 15.7871 16.8694V7.13107C15.7871 6.41322 15.1401 5.96461 14.6125 6.28591C14.5714 6.31091 14.5353 6.34316 14.5011 6.37692L9.67085 11.1441C9.63593 11.1785 9.59778 11.2096 9.56085 11.2419C9.13054 11.6183 9.13076 12.3824 9.56091 12.7591C9.59732 12.791 9.63491 12.8217 9.66936 12.8557L14.5007 17.6232Z" fill="black"/>
</svg>
