<svg width="24" height="24" viewBox="0 0 24 24" fill="none" xmlns="http://www.w3.org/2000/svg">
<path d="M12 22.5C6.20101 22.5 1.5 17.799 1.5 12C1.5 6.20101 6.20101 1.5 12 1.5C17.799 1.5 22.5 6.20101 22.5 12C22.5 17.799 17.799 22.5 12 22.5ZM0 12C0 18.6274 5.37258 24 12 24C18.6274 24 24 18.6274 24 12C24 5.37258 18.6274 0 12 0C5.37258 0 0 5.37258 0 12ZM12.75 6C12.75 5.58579 12.4142 5.25 12 5.25C11.5858 5.25 11.25 5.58579 11.25 6V7.63636C11.25 8.05058 11.5858 8.38636 12 8.38636C12.4142 8.38636 12.75 8.05058 12.75 7.63636V6ZM12 9.27295C10.4938 9.27295 9.27271 10.4941 9.27271 12.0002C9.27271 13.5064 10.4938 14.7275 12 14.7275C13.5061 14.7275 14.7273 13.5064 14.7273 12.0002C14.7273 10.4941 13.5061 9.27295 12 9.27295ZM16.1945 7.80561C15.9016 7.51271 15.4267 7.51271 15.1338 7.80561L14.5551 8.38433C14.2622 8.67723 14.2622 9.1521 14.5551 9.44499C14.848 9.73789 15.3229 9.73789 15.6158 9.44499L16.1945 8.86627C16.4874 8.57337 16.4874 8.0985 16.1945 7.80561ZM15.6158 14.5551C15.3229 14.2622 14.848 14.2622 14.5551 14.5551C14.2622 14.848 14.2622 15.3229 14.5551 15.6158L15.1338 16.1945C15.4267 16.4874 15.9016 16.4874 16.1945 16.1945C16.4874 15.9016 16.4874 15.4267 16.1945 15.1338L15.6158 14.5551ZM9.44499 14.5551C9.1521 14.2622 8.67723 14.2622 8.38433 14.5551L7.80561 15.1338C7.51271 15.4267 7.51271 15.9016 7.80561 16.1945C8.0985 16.4874 8.57337 16.4874 8.86627 16.1945L9.44499 15.6158C9.73789 15.3229 9.73789 14.848 9.44499 14.5551ZM8.86627 7.80561C8.57337 7.51271 8.0985 7.51271 7.80561 7.80561C7.51271 8.0985 7.51271 8.57337 7.80561 8.86627L8.38433 9.44499C8.67723 9.73789 9.1521 9.73789 9.44499 9.44499C9.73789 9.1521 9.73789 8.67723 9.44499 8.38433L8.86627 7.80561ZM15.6136 12C15.6136 12.4142 15.9494 12.75 16.3636 12.75H18C18.4142 12.75 18.75 12.4142 18.75 12C18.75 11.5858 18.4142 11.25 18 11.25H16.3636C15.9494 11.25 15.6136 11.5858 15.6136 12ZM12.75 16.3638C12.75 15.9496 12.4142 15.6138 12 15.6138C11.5858 15.6138 11.25 15.9496 11.25 16.3638V18.0001C11.25 18.4143 11.5858 18.7501 12 18.7501C12.4142 18.7501 12.75 18.4143 12.75 18.0001V16.3638ZM5.25 12C5.25 12.4142 5.58579 12.75 6 12.75H7.63636C8.05058 12.75 8.38636 12.4142 8.38636 12C8.38636 11.5858 8.05058 11.25 7.63636 11.25H6C5.58579 11.25 5.25 11.5858 5.25 12Z" fill="black"/>
</svg>
