<svg width="24" height="24" viewBox="0 0 24 24" fill="none" xmlns="http://www.w3.org/2000/svg">
<path d="M12 22.5C6.20101 22.5 1.5 17.799 1.5 12C1.5 6.20101 6.20101 1.5 12 1.5C17.799 1.5 22.5 6.20101 22.5 12C22.5 17.799 17.799 22.5 12 22.5ZM0 12C0 18.6274 5.37258 24 12 24C18.6274 24 24 18.6274 24 12C24 5.37258 18.6274 0 12 0C5.37258 0 0 5.37258 0 12ZM13.1403 8.55991C13.3941 8.8138 13.8057 8.81387 14.0595 8.56007C14.3134 8.30628 14.3135 7.89472 14.0597 7.64083L12.46 6.04056C12.3381 5.91862 12.1727 5.85011 12.0003 5.8501C11.8279 5.85008 11.6626 5.91857 11.5407 6.04048L9.94038 7.64075C9.68654 7.89459 9.68654 8.30615 9.94038 8.55999C10.1942 8.81383 10.6058 8.81383 10.8596 8.55999L11.35 8.06964V9.91176C11.35 10.2707 11.641 10.5618 12 10.5618C12.359 10.5618 12.65 10.2707 12.65 9.91176V8.06942L13.1403 8.55991ZM7.28584 10.4521C7.032 10.7059 7.032 11.1175 7.28584 11.3713L7.66766 11.7532C7.9215 12.007 8.33306 12.007 8.5869 11.7532C8.84074 11.4993 8.84074 11.0878 8.5869 10.8339L8.20508 10.4521C7.95124 10.1983 7.53968 10.1983 7.28584 10.4521ZM5.34998 15.1664C5.34998 15.5253 5.64099 15.8164 5.99998 15.8164H6.54543C6.90442 15.8164 7.19543 15.5253 7.19543 15.1664C7.19543 14.8074 6.90442 14.5164 6.54543 14.5164H5.99998C5.64099 14.5164 5.34998 14.8074 5.34998 15.1664ZM16.7141 10.4521C16.4603 10.1983 16.0487 10.1983 15.7949 10.4521L15.413 10.8339C15.1592 11.0878 15.1592 11.4993 15.413 11.7532C15.6669 12.007 16.0784 12.007 16.3323 11.7532L16.7141 11.3713C16.9679 11.1175 16.9679 10.7059 16.7141 10.4521ZM17.4546 14.5164C17.0956 14.5164 16.8046 14.8074 16.8046 15.1664C16.8046 15.5253 17.0956 15.8164 17.4546 15.8164H18C18.359 15.8164 18.65 15.5253 18.65 15.1664C18.65 14.8074 18.359 14.5164 18 14.5164H17.4546ZM5.34998 17.3482C5.34998 17.7072 5.64099 17.9982 5.99998 17.9982H18C18.359 17.9982 18.65 17.7072 18.65 17.3482C18.65 16.9893 18.359 16.6982 18 16.6982H5.99998C5.64099 16.6982 5.34998 16.9893 5.34998 17.3482ZM15.8667 15.6333C15.9403 15.6333 16 15.5736 16 15.5C16 13.2909 14.2091 11.5 12 11.5C9.79086 11.5 8 13.2909 8 15.5C8 15.5736 8.0597 15.6333 8.13333 15.6333H15.8667Z" fill="black"/>
</svg>
