<svg width="24" height="24" viewBox="0 0 24 24" fill="none" xmlns="http://www.w3.org/2000/svg">
<path d="M12 22.5C6.20101 22.5 1.5 17.799 1.5 12C1.5 6.20101 6.20101 1.5 12 1.5C17.799 1.5 22.5 6.20101 22.5 12C22.5 17.799 17.799 22.5 12 22.5ZM0 12C0 18.6274 5.37258 24 12 24C18.6274 24 24 18.6274 24 12C24 5.37258 18.6274 0 12 0C5.37258 0 0 5.37258 0 12Z" fill="black"/>
<path d="M11.8819 4.46967C11.589 4.76256 11.589 5.23744 11.8819 5.53033L12.7515 6.39997L11.8819 7.26962C11.589 7.56251 11.589 8.03738 11.8819 8.33028C12.1748 8.62317 12.6496 8.62317 12.9425 8.33028L14.3425 6.9303C14.6354 6.63741 14.6354 6.16254 14.3425 5.86964L12.9425 4.46967C12.6496 4.17678 12.1748 4.17678 11.8819 4.46967Z" fill="black"/>
<path d="M12.116 15.6697C11.8231 15.3768 11.3482 15.3768 11.0553 15.6697L9.65537 17.0697C9.36248 17.3626 9.36248 17.8375 9.65537 18.1304L11.0553 19.5303C11.3482 19.8232 11.8231 19.8232 12.116 19.5303C12.4089 19.2374 12.4089 18.7626 12.116 18.4697L11.2464 17.6L12.116 16.7304C12.4089 16.4375 12.4089 15.9626 12.116 15.6697Z" fill="black"/>
<path d="M16.7745 8.98523C16.3984 9.15879 16.2342 9.60437 16.4078 9.98047C16.6909 10.594 16.8494 11.2768 16.8494 11.9995C16.8494 14.6778 14.6778 16.8494 11.9995 16.8494C11.525 16.8494 11.0663 16.7782 10.6283 16.6495C10.2309 16.5327 9.81403 16.7602 9.69725 17.1576C9.58046 17.555 9.80795 17.9719 10.2054 18.0886C10.7726 18.2553 11.3736 18.3494 11.9995 18.3494C15.5062 18.3494 18.3494 15.5062 18.3494 11.9995C18.3494 11.0549 18.1417 10.158 17.7697 9.35196C17.5962 8.97586 17.1506 8.81167 16.7745 8.98523Z" fill="black"/>
<path d="M11.9999 7.1497C12.4744 7.1497 12.9331 7.22086 13.3711 7.34957C13.7685 7.46636 14.1853 7.23887 14.3021 6.84146C14.4189 6.44405 14.1914 6.02721 13.794 5.91043C13.2268 5.74374 12.6258 5.6497 11.9999 5.6497C8.49314 5.6497 5.65 8.49284 5.65 11.9996C5.65 12.9432 5.85682 13.8402 6.22784 14.6466C6.40097 15.0229 6.84637 15.1876 7.22266 15.0145C7.59896 14.8414 7.76367 14.396 7.59054 14.0197C7.30802 13.4056 7.15 12.7221 7.15 11.9996C7.15 9.32127 9.32157 7.1497 11.9999 7.1497Z" fill="black"/>
</svg>
