<svg width="24" height="24" viewBox="0 0 24 24" fill="none" xmlns="http://www.w3.org/2000/svg">
<path d="M22.5 12C22.5 17.799 17.799 22.5 12 22.5C6.20101 22.5 1.5 17.799 1.5 12C1.5 6.20101 6.20101 1.5 12 1.5C17.799 1.5 22.5 6.20101 22.5 12ZM12 24C18.6274 24 24 18.6274 24 12C24 5.37258 18.6274 0 12 0C5.37258 0 0 5.37258 0 12C0 18.6274 5.37258 24 12 24ZM11.79 5.5H7.5C6.39543 5.5 5.5 6.39543 5.5 7.5V11.791C5.5 12.3217 5.71086 12.8305 6.08617 13.2056L10.9798 18.0966C11.757 18.8734 13.0152 18.8777 13.7977 18.1063L18.1097 13.8555C18.8994 13.077 18.9049 11.8046 18.122 11.0192L13.2065 6.08803C12.8312 5.71159 12.3216 5.5 11.79 5.5ZM9.49909 10.3541C9.02713 10.3541 8.64453 9.97154 8.64453 9.49958C8.64453 9.02762 9.02713 8.64502 9.49909 8.64502C9.97106 8.64502 10.3537 9.02762 10.3537 9.49958C10.3537 9.97154 9.97106 10.3541 9.49909 10.3541Z" fill="black"/>
</svg>
