<svg width="24" height="24" viewBox="0 0 24 24" fill="none" xmlns="http://www.w3.org/2000/svg">
<path d="M12 22.5C6.20101 22.5 1.5 17.799 1.5 12C1.5 6.20101 6.20101 1.5 12 1.5C17.799 1.5 22.5 6.20101 22.5 12C22.5 17.799 17.799 22.5 12 22.5ZM0 12C0 18.6274 5.37258 24 12 24C18.6274 24 24 18.6274 24 12C24 5.37258 18.6274 0 12 0C5.37258 0 0 5.37258 0 12Z" fill="black"/>
<path d="M14.1803 7.11778C13.926 7.37121 13.9254 7.78277 14.1788 8.03701L17.1195 10.9871C17.6479 11.5172 17.6442 12.376 17.1111 12.9015L14.0339 15.9351C13.7783 16.1871 13.7753 16.5987 14.0273 16.8543C14.2794 17.11 14.6909 17.1129 14.9466 16.8609L18.0238 13.8273C19.0701 12.7958 19.0775 11.1099 18.0402 10.0693L15.0995 7.11924C14.8461 6.86499 14.4345 6.86434 14.1803 7.11778Z" fill="black"/>
<path d="M11.5085 6.64935C11.1708 6.31054 10.7121 6.12012 10.2337 6.12012H6.8C5.80589 6.12012 5 6.926 5 7.92012V11.3548C5 11.8323 5.18978 12.2903 5.52755 12.6279L9.51869 16.6169C10.2181 17.316 11.3506 17.3198 12.0548 16.6256L15.506 13.2233C16.2167 12.5227 16.2217 11.3775 15.5171 10.6707L11.5085 6.64935ZM9.07627 9.47954C9.07627 9.87598 8.75489 10.1974 8.35845 10.1974C7.962 10.1974 7.64062 9.87598 7.64062 9.47954C7.64062 9.0831 7.962 8.76172 8.35845 8.76172C8.75489 8.76172 9.07627 9.0831 9.07627 9.47954Z" fill="black"/>
</svg>
