<svg width="24" height="24" viewBox="0 0 24 24" fill="none" xmlns="http://www.w3.org/2000/svg">
<path d="M22.5 12C22.5 17.799 17.799 22.5 12 22.5C6.20101 22.5 1.5 17.799 1.5 12C1.5 6.20101 6.20101 1.5 12 1.5C17.799 1.5 22.5 6.20101 22.5 12ZM12 24C18.6274 24 24 18.6274 24 12C24 5.37258 18.6274 0 12 0C5.37258 0 0 5.37258 0 12C0 18.6274 5.37258 24 12 24Z" fill="black"/>
<path d="M11.0145 15.6924C11.0145 16.1342 11.3726 16.4924 11.8145 16.4924H16.9996C17.4415 16.4924 17.7996 16.1342 17.7996 15.6924C17.7996 15.2506 17.4415 14.8924 16.9996 14.8924H11.8145C11.3726 14.8924 11.0145 15.2506 11.0145 15.6924Z" fill="black"/>
<path d="M6.44509 7.42374C6.12683 7.73021 6.11727 8.23666 6.42374 8.55491L9.59309 11.8462L6.42374 15.1374C6.11727 15.4557 6.12683 15.9621 6.44509 16.2686C6.76334 16.575 7.26979 16.5655 7.57626 16.2472L11.28 12.4011C11.5783 12.0913 11.5783 11.601 11.28 11.2912L7.57626 7.44509C7.26979 7.12683 6.76334 7.11727 6.44509 7.42374Z" fill="black"/>
</svg>
