<svg width="24" height="24" viewBox="0 0 24 24" fill="none" xmlns="http://www.w3.org/2000/svg">
<path d="M12 22.5C6.20101 22.5 1.5 17.799 1.5 12C1.5 6.20101 6.20101 1.5 12 1.5C17.799 1.5 22.5 6.20101 22.5 12C22.5 17.799 17.799 22.5 12 22.5ZM0 12C0 18.6274 5.37258 24 12 24C18.6274 24 24 18.6274 24 12C24 5.37258 18.6274 0 12 0C5.37258 0 0 5.37258 0 12Z" fill="black"/>
<path d="M11.4191 14.1614V16.3549C11.4191 17.2635 12.1557 18.0001 13.0643 18.0001L15.2578 13.0646V7.83229C15.2578 7.39046 14.8996 7.03229 14.4578 7.03229H9.24522C8.42555 7.03229 7.70939 7.58606 7.50314 8.37935L6.58558 11.9085C6.28915 13.0486 7.14965 14.1614 8.32766 14.1614H11.4191Z" fill="black"/>
<path d="M16.2667 7.0318V13.0641H17C17.5523 13.0641 18 12.6163 18 12.0641V8.03181C18 7.47952 17.5523 7.0318 17 7.0318H16.2667Z" fill="black"/>
</svg>
