<svg width="24" height="24" viewBox="0 0 24 24" fill="none" xmlns="http://www.w3.org/2000/svg">
<path d="M12 1.5C17.799 1.5 22.5 6.20101 22.5 12C22.5 17.799 17.799 22.5 12 22.5C6.20101 22.5 1.5 17.799 1.5 12C1.5 6.20101 6.20101 1.5 12 1.5ZM24 12C24 5.37258 18.6274 0 12 0C5.37258 0 0 5.37258 0 12C0 18.6274 5.37258 24 12 24C18.6274 24 24 18.6274 24 12Z" fill="black"/>
<path d="M12.5809 9.83861V7.64506C12.5809 6.73647 11.8443 5.9999 10.9357 5.9999L8.74219 10.9354V16.1677C8.74219 16.6095 9.10036 16.9677 9.54219 16.9677H14.7548C15.5745 16.9677 16.2906 16.4139 16.4969 15.6207L17.4144 12.0915C17.7108 10.9514 16.8503 9.83861 15.6723 9.83861H12.5809Z" fill="black"/>
<path d="M7.73332 16.9682H7C6.44772 16.9682 6 16.5205 6 15.9682V11.9359C6 11.3837 6.44772 10.9359 7 10.9359H7.73332V16.9682Z" fill="black"/>
</svg>
