<svg width="24" height="24" viewBox="0 0 24 24" fill="none" xmlns="http://www.w3.org/2000/svg">
<path d="M1.5 12C1.5 6.20101 6.20101 1.5 12 1.5C17.799 1.5 22.5 6.20101 22.5 12C22.5 17.799 17.799 22.5 12 22.5C6.20101 22.5 1.5 17.799 1.5 12ZM12 0C5.37258 0 0 5.37258 0 12C0 18.6274 5.37258 24 12 24C18.6274 24 24 18.6274 24 12C24 5.37258 18.6274 0 12 0ZM7.32824 16.8719C7.69923 17.2429 8.30074 17.2429 8.67174 16.8719L12.2598 13.2839L15.8478 16.8719C16.2188 17.2429 16.8203 17.2429 17.1913 16.8719C17.5623 16.5009 17.5623 15.8994 17.1913 15.5284L13.6033 11.9404L17.1913 8.35238C17.5623 7.98138 17.5623 7.37987 17.1913 7.00888C16.8203 6.63788 16.2188 6.63788 15.8478 7.00888L12.2598 10.5969L8.67174 7.00886C8.30074 6.63787 7.69923 6.63787 7.32824 7.00886C6.95724 7.37986 6.95724 7.98137 7.32824 8.35237L10.9163 11.9404L7.32824 15.5284C6.95724 15.8994 6.95724 16.5009 7.32824 16.8719Z" fill="black"/>
</svg>
