<svg width="24" height="24" viewBox="0 0 24 24" fill="none" xmlns="http://www.w3.org/2000/svg">
<path d="M12 22.5C6.20101 22.5 1.5 17.799 1.5 12C1.5 6.20101 6.20101 1.5 12 1.5C17.799 1.5 22.5 6.20101 22.5 12C22.5 17.799 17.799 22.5 12 22.5ZM0 12C0 18.6274 5.37258 24 12 24C18.6274 24 24 18.6274 24 12C24 5.37258 18.6274 0 12 0C5.37258 0 0 5.37258 0 12ZM12.8763 5.21802C11.9876 4.74621 10.8748 5.0648 10.3867 5.93583L5.22744 15.1424C5.0783 15.4086 5 15.7075 5 16.0114C5 17.011 5.82695 17.816 6.84056 17.816H17.159C17.465 17.816 17.7663 17.7412 18.0355 17.5982C18.9318 17.1224 19.2645 16.0211 18.7721 15.1424L13.6129 5.93583C13.4426 5.63187 13.1867 5.38283 12.8763 5.21802ZM9.69077 11.6096C9.43692 11.3558 9.43692 10.9442 9.69077 10.6904C9.94461 10.4365 10.3562 10.4365 10.61 10.6904L12.0293 12.1097L13.4485 10.6905C13.7024 10.4366 14.1139 10.4366 14.3678 10.6905C14.6216 10.9443 14.6216 11.3559 14.3678 11.6097L12.9485 13.0289L14.3681 14.4485C14.622 14.7024 14.622 15.1139 14.3681 15.3678C14.1143 15.6216 13.7027 15.6216 13.4489 15.3678L12.0293 13.9482L10.6096 15.3679C10.3558 15.6217 9.94422 15.6217 9.69038 15.3679C9.43654 15.114 9.43654 14.7025 9.69038 14.4486L11.1101 13.0289L9.69077 11.6096Z" fill="black"/>
</svg>
