<svg width="24" height="24" viewBox="0 0 24 24" fill="none" xmlns="http://www.w3.org/2000/svg">
<path d="M1.5 12C1.5 6.20101 6.20101 1.5 12 1.5C17.799 1.5 22.5 6.20101 22.5 12C22.5 17.799 17.799 22.5 12 22.5C6.20101 22.5 1.5 17.799 1.5 12ZM12 0C5.37258 0 0 5.37258 0 12C0 18.6274 5.37258 24 12 24C18.6274 24 24 18.6274 24 12C24 5.37258 18.6274 0 12 0ZM19 11.9998C19 9.68021 17.0848 7.7998 14.7222 7.7998H9.27778C6.91523 7.7998 5 9.68021 5 11.9998C5 14.3194 6.91523 16.1998 9.27778 16.1998H14.7222C17.0848 16.1998 19 14.3194 19 11.9998ZM9.2 14.4498C7.8469 14.4498 6.75 13.3529 6.75 11.9998C6.75 10.6467 7.8469 9.5498 9.2 9.5498C10.5531 9.5498 11.65 10.6467 11.65 11.9998C11.65 13.3529 10.5531 14.4498 9.2 14.4498Z" fill="black"/>
</svg>
