<svg width="24" height="24" viewBox="0 0 24 24" fill="none" xmlns="http://www.w3.org/2000/svg">
<path d="M12 1.5C17.799 1.5 22.5 6.20101 22.5 12C22.5 17.799 17.799 22.5 12 22.5C6.20101 22.5 1.5 17.799 1.5 12C1.5 6.20101 6.20101 1.5 12 1.5ZM24 12C24 5.37258 18.6274 0 12 0C5.37258 0 0 5.37258 0 12C0 18.6274 5.37258 24 12 24C18.6274 24 24 18.6274 24 12Z" fill="black"/>
<path d="M14.7222 16.2003C17.0848 16.2003 19 14.3199 19 12.0003C19 9.6807 17.0848 7.80029 14.7222 7.80029H9.27778C6.91523 7.80029 5 9.6807 5 12.0003C5 14.3199 6.91523 16.2003 9.27778 16.2003H14.7222ZM12.35 12.0003C12.35 10.6472 13.4469 9.55029 14.8 9.55029C16.1531 9.55029 17.25 10.6472 17.25 12.0003C17.25 13.3534 16.1531 14.4503 14.8 14.4503C13.4469 14.4503 12.35 13.3534 12.35 12.0003Z" fill="black"/>
</svg>
