<svg width="24" height="24" viewBox="0 0 24 24" fill="none" xmlns="http://www.w3.org/2000/svg">
<path d="M12 1.5C17.799 1.5 22.5 6.20101 22.5 12C22.5 17.799 17.799 22.5 12 22.5C6.20101 22.5 1.5 17.799 1.5 12C1.5 6.20101 6.20101 1.5 12 1.5ZM24 12C24 5.37258 18.6274 0 12 0C5.37258 0 0 5.37258 0 12C0 18.6274 5.37258 24 12 24C18.6274 24 24 18.6274 24 12Z" fill="black"/>
<path d="M5 12C5 15.8663 8.13367 19 12 19C15.8663 19 19 15.8663 19 12C19 8.13367 15.8663 5 12 5C8.13367 5 5 8.13367 5 12ZM10.8187 9.84434C11.1501 9.84434 11.4187 10.113 11.4187 10.4443C11.4187 10.7757 11.1501 11.0443 10.8187 11.0443H9.93008V13.5554C9.93008 13.8868 9.66145 14.1554 9.33008 14.1554C8.99871 14.1554 8.73008 13.8868 8.73008 13.5554V11.0443H7.83984C7.50847 11.0443 7.23984 10.7757 7.23984 10.4443C7.23984 10.113 7.50847 9.84434 7.83984 9.84434H10.8187ZM12.4131 9.88758C12.6404 9.79625 12.9005 9.85234 13.07 10.0293L14.1269 11.1326L15.1839 10.0293C15.3534 9.85234 15.6135 9.79625 15.8408 9.88758C16.0682 9.97891 16.2172 10.1993 16.2172 10.4443V13.5554C16.2172 13.8868 15.9485 14.1554 15.6172 14.1554C15.2858 14.1554 15.0172 13.8868 15.0172 13.5554V11.938L14.5602 12.415C14.447 12.5331 14.2905 12.5999 14.1269 12.5999C13.9633 12.5999 13.8068 12.5331 13.6937 12.415L13.2367 11.938V13.5554C13.2367 13.8868 12.9681 14.1554 12.6367 14.1554C12.3053 14.1554 12.0367 13.8868 12.0367 13.5554V10.4443C12.0367 10.1993 12.1857 9.97891 12.4131 9.88758Z" fill="black"/>
</svg>
