<svg width="24" height="24" viewBox="0 0 24 24" fill="none" xmlns="http://www.w3.org/2000/svg">
<path d="M1.5 12C1.5 6.20101 6.20101 1.5 12 1.5C17.799 1.5 22.5 6.20101 22.5 12C22.5 17.799 17.799 22.5 12 22.5C6.20101 22.5 1.5 17.799 1.5 12ZM12 0C5.37258 0 0 5.37258 0 12C0 18.6274 5.37258 24 12 24C18.6274 24 24 18.6274 24 12C24 5.37258 18.6274 0 12 0ZM11.0469 6.3H12.9416C13.3041 6.3 13.6023 6.5756 13.638 6.92871H10.3505C10.3862 6.5756 10.6843 6.3 11.0469 6.3ZM12.9416 5H11.0469C9.96617 5 9.08566 5.85716 9.04812 6.92871H6.09959C5.7406 6.92871 5.44958 7.21973 5.44958 7.57871C5.44958 7.9377 5.7406 8.22871 6.09959 8.22871H6.90308L7.49045 17.132C7.5598 18.1831 8.43265 19.0003 9.48611 19.0003H14.5015C15.5549 19.0003 16.4278 18.1831 16.4971 17.132L17.0845 8.22871H17.8889C18.2479 8.22871 18.5389 7.9377 18.5389 7.57871C18.5389 7.21973 18.2479 6.92871 17.8889 6.92871H14.9403C14.9028 5.85716 14.0223 5 12.9416 5ZM11.531 11.0379C11.6119 10.957 11.7503 11.0143 11.7503 11.1287V12.09C12.3829 12.1194 13.0864 12.2957 13.5949 12.7651C14.0199 13.1574 14.3179 13.7535 14.3179 14.6531C14.3179 14.7338 14.3155 14.8121 14.3108 14.888C14.3025 15.0224 14.1048 15.0393 14.0426 14.9198C14.0142 14.8653 13.9834 14.8098 13.9501 14.753C13.4768 13.9467 12.9774 13.6907 11.7503 13.6673V14.6223C11.7503 14.7367 11.6119 14.794 11.531 14.7131L9.87505 13.0572C9.77472 12.9568 9.77472 12.7942 9.87505 12.6938L11.531 11.0379Z" fill="black"/>
</svg>
