<svg width="24" height="24" viewBox="0 0 24 24" fill="none" xmlns="http://www.w3.org/2000/svg">
<path d="M12 1.5C17.799 1.5 22.5 6.20101 22.5 12C22.5 17.799 17.799 22.5 12 22.5C6.20101 22.5 1.5 17.799 1.5 12C1.5 6.20101 6.20101 1.5 12 1.5ZM24 12C24 5.37258 18.6274 0 12 0C5.37258 0 0 5.37258 0 12C0 18.6274 5.37258 24 12 24C18.6274 24 24 18.6274 24 12Z" fill="black"/>
<path d="M6.83672 7.21094H17.1524L16.4979 17.132C16.4285 18.1831 15.5557 19.0003 14.5022 19.0003H9.48689C8.43343 19.0003 7.56058 18.1831 7.49123 17.132L6.83672 7.21094ZM10.684 10.6136C10.325 10.6136 10.034 10.9047 10.034 11.2636V15.2426C10.034 15.6015 10.325 15.8926 10.684 15.8926C11.043 15.8926 11.334 15.6015 11.334 15.2426V11.2636C11.334 10.9047 11.043 10.6136 10.684 10.6136ZM13.9551 11.2636C13.9551 10.9047 13.6641 10.6136 13.3051 10.6136C12.9461 10.6136 12.6551 10.9047 12.6551 11.2636V15.2426C12.6551 15.6015 12.9461 15.8926 13.3051 15.8926C13.6641 15.8926 13.9551 15.6015 13.9551 15.2426V11.2636Z" fill="black"/>
<path d="M12.9419 6.3C13.3285 6.3 13.6419 6.6134 13.6419 7V7.01576H10.3473V7C10.3473 6.6134 10.6607 6.3 11.0473 6.3H12.9419ZM11.0473 5C9.9427 5 9.04727 5.89543 9.04727 7V8.31576H14.9419V7C14.9419 5.89543 14.0465 5 12.9419 5H11.0473Z" fill="black"/>
<path d="M5.45 7.57902C5.45 7.93801 5.74101 8.22902 6.1 8.22902H17.8894C18.2483 8.22902 18.5394 7.93801 18.5394 7.57902C18.5394 7.22004 18.2483 6.92902 17.8894 6.92902H6.1C5.74101 6.92902 5.45 7.22004 5.45 7.57902Z" fill="black"/>
</svg>
