<svg width="24" height="24" viewBox="0 0 24 24" fill="none" xmlns="http://www.w3.org/2000/svg">
<path d="M1.5 12C1.5 6.20101 6.20101 1.5 12 1.5C17.799 1.5 22.5 6.20101 22.5 12C22.5 17.799 17.799 22.5 12 22.5C6.20101 22.5 1.5 17.799 1.5 12ZM12 24C18.6274 24 24 18.6274 24 12C24 5.37258 18.6274 0 12 0C5.37258 0 0 5.37258 0 12C0 18.6274 5.37258 24 12 24ZM17.8998 15.5C18.2312 15.5 18.4998 15.2314 18.4998 14.9V12.1323C18.4998 11.5977 17.8535 11.33 17.4755 11.708L16.6224 12.5611L13.1646 9.10323C12.4811 8.41981 11.3731 8.41981 10.6897 9.10323L9.02487 10.768C8.92724 10.8657 8.76895 10.8657 8.67132 10.768L5.53033 7.62705C5.23744 7.33416 4.76256 7.33416 4.46967 7.62705C4.17678 7.91994 4.17678 8.39482 4.46967 8.68771L7.61066 11.8287C8.29408 12.5121 9.40212 12.5121 10.0855 11.8287L11.7503 10.1639C11.848 10.0663 12.0063 10.0663 12.1039 10.1639L15.5618 13.6218L14.7078 14.4757C14.3298 14.8537 14.5975 15.5 15.1321 15.5H17.8998Z" fill="black"/>
</svg>
