<svg width="24" height="24" viewBox="0 0 24 24" fill="none" xmlns="http://www.w3.org/2000/svg">
<path d="M1.5 12C1.5 6.20101 6.20101 1.5 12 1.5C17.799 1.5 22.5 6.20101 22.5 12C22.5 17.799 17.799 22.5 12 22.5C6.20101 22.5 1.5 17.799 1.5 12ZM12 0C5.37258 0 0 5.37258 0 12C0 18.6274 5.37258 24 12 24C18.6274 24 24 18.6274 24 12C24 5.37258 18.6274 0 12 0ZM6 10.6601V15.3267C6 16.4313 6.89543 17.3267 8 17.3267H16C17.1046 17.3267 18 16.4313 18 15.3267V10.6601C18 9.55551 17.1046 8.66008 16 8.66008H12.9192L14.4596 7.11965C14.7135 6.86581 14.7135 6.45426 14.4596 6.20041C14.2058 5.94657 13.7942 5.94657 13.5404 6.20041L12 7.7408L10.4596 6.20041C10.2058 5.94657 9.79421 5.94657 9.54037 6.20041C9.28653 6.45426 9.28653 6.86581 9.54037 7.11965L11.0808 8.66008H8C6.89543 8.66008 6 9.55551 6 10.6601Z" fill="black"/>
</svg>
