<svg width="24" height="24" viewBox="0 0 24 24" fill="none" xmlns="http://www.w3.org/2000/svg">
<path d="M12 1.5C17.799 1.5 22.5 6.20101 22.5 12C22.5 17.799 17.799 22.5 12 22.5C6.20101 22.5 1.5 17.799 1.5 12C1.5 6.20101 6.20101 1.5 12 1.5ZM24 12C24 5.37258 18.6274 0 12 0C5.37258 0 0 5.37258 0 12C0 18.6274 5.37258 24 12 24C18.6274 24 24 18.6274 24 12Z" fill="black"/>
<path d="M12.4977 6.32251L10.954 7.86621C10.6612 8.1591 10.6612 8.63397 10.954 8.92687C11.2469 9.21976 11.7218 9.21976 12.0147 8.92687L13.5584 7.38317C14.4026 6.53894 15.7714 6.53894 16.6157 7.38317C17.4599 8.2274 17.4599 9.59621 16.6157 10.4404L15.072 11.9841C14.7791 12.277 14.7791 12.7519 15.072 13.0448C15.3649 13.3377 15.8397 13.3377 16.1326 13.0448L17.6763 11.5011C19.1063 10.0711 19.1063 7.75253 17.6763 6.32251C16.2463 4.8925 13.9278 4.8925 12.4977 6.32251Z" fill="black"/>
<path d="M11.2073 12.7929C10.9144 12.5 10.4395 12.5 10.1467 12.7929L8.82319 14.1164C8.53029 14.4093 8.53029 14.8841 8.82319 15.177C9.11608 15.4699 9.59095 15.4699 9.88385 15.177L11.2073 13.8536C11.5002 13.5607 11.5002 13.0858 11.2073 12.7929Z" fill="black"/>
<path d="M15.178 8.82319C14.8851 8.53029 14.4103 8.53029 14.1174 8.82319L12.7939 10.1467C12.501 10.4395 12.501 10.9144 12.7939 11.2073C13.0868 11.5002 13.5617 11.5002 13.8545 11.2073L15.178 9.88385C15.4709 9.59095 15.4709 9.11608 15.178 8.82319Z" fill="black"/>
<path d="M6.50678 6.50678C6.21389 6.79967 6.21389 7.27455 6.50678 7.56744L16.4324 17.4931C16.7253 17.786 17.2002 17.786 17.4931 17.4931C17.786 17.2002 17.786 16.7253 17.4931 16.4324L7.56744 6.50678C7.27455 6.21389 6.79967 6.21389 6.50678 6.50678Z" fill="black"/>
<path d="M8.92687 10.955C8.63397 10.6621 8.1591 10.6621 7.86621 10.955L6.32251 12.4987C4.8925 13.9287 4.8925 16.2473 6.32251 17.6773C7.75253 19.1073 10.0711 19.1073 11.5011 17.6773L13.0448 16.1336C13.3377 15.8407 13.3377 15.3658 13.0448 15.073C12.7519 14.7801 12.277 14.7801 11.9841 15.073L10.4404 16.6166C9.59621 17.4609 8.2274 17.4609 7.38317 16.6166C6.53894 15.7724 6.53894 14.4036 7.38317 13.5594L8.92687 12.0157C9.21976 11.7228 9.21976 11.2479 8.92687 10.955Z" fill="black"/>
</svg>
