<svg width="24" height="24" viewBox="0 0 24 24" fill="none" xmlns="http://www.w3.org/2000/svg">
<path d="M12 22.5C6.20101 22.5 1.5 17.799 1.5 12C1.5 6.20101 6.20101 1.5 12 1.5C17.799 1.5 22.5 6.20101 22.5 12C22.5 17.799 17.799 22.5 12 22.5ZM0 12C0 18.6274 5.37258 24 12 24C18.6274 24 24 18.6274 24 12C24 5.37258 18.6274 0 12 0C5.37258 0 0 5.37258 0 12ZM14.2774 8.81265C14.2774 7.09315 12.8929 5.69922 11.1851 5.69922C9.47725 5.69922 8.09277 7.09315 8.09277 8.81265C8.09277 10.5322 9.47725 11.9261 11.1851 11.9261C12.8929 11.9261 14.2774 10.5322 14.2774 8.81265ZM16.5897 16.8982C14.6072 16.8982 13 15.2911 13 13.3085C13 13.2703 13.0006 13.2322 13.0018 13.1943H9.17185L9.00166 13.1978C6.99535 13.2795 5.35912 14.8002 5.01952 16.774C5.00975 16.8308 5.00334 16.9259 5.0003 17.0593L5 17.0854C5 17.7207 5.51702 18.2356 6.1548 18.2356H11.1846H16.2144L16.2392 18.2353C16.8768 18.2217 17.3826 17.6958 17.369 17.0607C17.3667 16.9573 17.3625 16.8758 17.3563 16.8162C17.1093 16.8699 16.8528 16.8982 16.5897 16.8982ZM16.5835 10.9771C16.3303 10.9771 16.125 11.1824 16.125 11.4357V11.7482C15.8575 11.8168 15.6175 11.9536 15.4244 12.139L15.1682 11.9903C14.9491 11.8632 14.6686 11.9378 14.5415 12.1568C14.4144 12.3759 14.489 12.6564 14.708 12.7835L14.9752 12.9386C14.9512 13.0482 14.9385 13.1621 14.9385 13.279C14.9385 13.4328 14.9605 13.5815 15.0015 13.7221L14.708 13.8924C14.489 14.0194 14.4144 14.3 14.5415 14.5191C14.6686 14.7381 14.9491 14.8127 15.1682 14.6856L15.5043 14.4906C15.6821 14.6397 15.8932 14.7503 16.125 14.8097V15.2386C16.125 15.4918 16.3303 15.6971 16.5835 15.6971C16.8368 15.6971 17.042 15.4918 17.042 15.2386V14.7705C17.2437 14.6999 17.4265 14.5896 17.5813 14.4489L17.9997 14.6874C18.2197 14.8127 18.4997 14.736 18.6251 14.516C18.7505 14.296 18.6738 14.016 18.4537 13.8906L18.0522 13.6618C18.0826 13.5392 18.0988 13.411 18.0988 13.279C18.0988 13.1839 18.0904 13.0909 18.0744 13.0005L18.4537 12.7843C18.6738 12.6589 18.7505 12.3789 18.6251 12.1589C18.4997 11.9389 18.2197 11.8622 17.9997 11.9876L17.6572 12.1827C17.4877 12.0067 17.2777 11.8699 17.042 11.7874V11.4357C17.042 11.1824 16.8368 10.9771 16.5835 10.9771ZM16.5186 12.6159C16.8856 12.6159 17.1817 12.912 17.1817 13.279C17.1817 13.6459 16.8856 13.9421 16.5186 13.9421C16.1522 13.9421 15.8555 13.645 15.8555 13.279C15.8555 12.9129 16.1522 12.6159 16.5186 12.6159Z" fill="black"/>
</svg>
