<svg width="24" height="24" viewBox="0 0 24 24" fill="none" xmlns="http://www.w3.org/2000/svg">
<path d="M12 22.5C6.20101 22.5 1.5 17.799 1.5 12C1.5 6.20101 6.20101 1.5 12 1.5C17.799 1.5 22.5 6.20101 22.5 12C22.5 17.799 17.799 22.5 12 22.5ZM0 12C0 18.6274 5.37258 24 12 24C18.6274 24 24 18.6274 24 12C24 5.37258 18.6274 0 12 0C5.37258 0 0 5.37258 0 12ZM14.4972 8.71911C14.4972 7.09088 13.1862 5.77094 11.569 5.77094C9.95186 5.77094 8.64087 7.09088 8.64087 8.71911C8.64087 10.3473 9.95186 11.6673 11.569 11.6673C13.1862 11.6673 14.4972 10.3473 14.4972 8.71911ZM13.6329 17.613L14.3801 17.6206L18.0293 14.6655C18.4585 14.318 18.5247 13.6883 18.1771 13.2591L17.7868 12.777C17.4392 12.3478 16.8095 12.2816 16.3803 12.6291L12.7311 15.5842L12.4438 17.0069C12.443 17.0108 12.4422 17.0147 12.4415 17.0187L12.4092 17.1785C12.365 17.3977 12.5312 17.603 12.7548 17.6053L13.5514 17.6134H13.6327L13.6329 17.613ZM11.3617 16.967L11.6835 15.3738C11.7327 15.1302 11.8653 14.9113 12.0585 14.7549L14.4423 12.8245C14.0316 12.6858 13.5926 12.6108 13.1359 12.6108H9.13983L8.97094 12.6142C6.98004 12.6953 5.35636 14.2043 5.01937 16.1629C5.00967 16.2193 5.00331 16.3137 5.0003 16.446L5 16.4719C5 17.1023 5.51305 17.6134 6.14593 17.6134H11.1371H11.3801C11.3262 17.4098 11.3166 17.1902 11.3617 16.967Z" fill="black"/>
</svg>
