<svg width="24" height="24" viewBox="0 0 24 24" fill="none" xmlns="http://www.w3.org/2000/svg">
<path d="M12 22.5C6.20101 22.5 1.5 17.799 1.5 12C1.5 6.20101 6.20101 1.5 12 1.5C17.799 1.5 22.5 6.20101 22.5 12C22.5 17.799 17.799 22.5 12 22.5ZM0 12C0 18.6274 5.37258 24 12 24C18.6274 24 24 18.6274 24 12C24 5.37258 18.6274 0 12 0C5.37258 0 0 5.37258 0 12ZM5 8.53328V15.5333C5 16.8219 6.04467 17.8666 7.33333 17.8666H16.6667C17.9553 17.8666 19 16.8219 19 15.5333V8.53329C19 7.24462 17.9553 6.19995 16.6667 6.19995H7.33333C6.04467 6.19995 5 7.24462 5 8.53328ZM13.5562 10.2168H16.2785C16.6375 10.2168 16.9285 10.5078 16.9285 10.8668C16.9285 11.2258 16.6375 11.5168 16.2785 11.5168H13.5562C13.1973 11.5168 12.9062 11.2258 12.9062 10.8668C12.9062 10.5078 13.1973 10.2168 13.5562 10.2168ZM12.9062 13.2C12.9062 12.8411 13.1973 12.55 13.5562 12.55H16.2785C16.6375 12.55 16.9285 12.8411 16.9285 13.2C16.9285 13.559 16.6375 13.85 16.2785 13.85H13.5562C13.1973 13.85 12.9062 13.559 12.9062 13.2ZM10.6556 11.6237C10.1088 12.1705 9.22241 12.1705 8.67568 11.6237C8.12894 11.077 8.12894 10.1905 8.67568 9.64382C9.22241 9.09708 10.1088 9.09708 10.6556 9.64382C11.2023 10.1905 11.2023 11.077 10.6556 11.6237ZM8.38692 14.0285C8.38043 14.0499 8.37227 14.0895 8.37227 14.1545C8.37227 14.5135 8.08125 14.8045 7.72227 14.8045C7.36328 14.8045 7.07227 14.5135 7.07227 14.1545C7.07227 13.8026 7.16284 13.4773 7.36749 13.2087C7.56822 12.9453 7.83464 12.7943 8.08473 12.7062C8.53045 12.5492 9.06412 12.5496 9.42632 12.55L9.47227 12.55L9.51821 12.55C9.88041 12.5496 10.4141 12.5492 10.8598 12.7062C11.1099 12.7943 11.3763 12.9453 11.577 13.2087C11.7817 13.4773 11.8723 13.8026 11.8723 14.1545C11.8723 14.5135 11.5813 14.8045 11.2223 14.8045C10.8633 14.8045 10.5723 14.5135 10.5723 14.1545C10.5723 14.0895 10.5641 14.0499 10.5576 14.0285C10.5515 14.0085 10.5456 14 10.543 13.9966C10.5392 13.9916 10.5164 13.9636 10.4278 13.9324C10.2155 13.8575 9.90115 13.85 9.47227 13.85C9.04338 13.85 8.72906 13.8575 8.51673 13.9324C8.42816 13.9636 8.40534 13.9916 8.40151 13.9966C8.39892 14 8.39302 14.0085 8.38692 14.0285Z" fill="black"/>
</svg>
