<svg width="24" height="24" viewBox="0 0 24 24" fill="none" xmlns="http://www.w3.org/2000/svg">
<path d="M22.5 12C22.5 17.799 17.799 22.5 12 22.5C6.20101 22.5 1.5 17.799 1.5 12C1.5 6.20101 6.20101 1.5 12 1.5C17.799 1.5 22.5 6.20101 22.5 12ZM12 24C18.6274 24 24 18.6274 24 12C24 5.37258 18.6274 0 12 0C5.37258 0 0 5.37258 0 12C0 18.6274 5.37258 24 12 24ZM11.8406 12.1403C13.5247 12.1403 14.8899 10.7658 14.8899 9.07017C14.8899 7.37456 13.5247 6 11.8406 6C10.1565 6 8.79126 7.37456 8.79126 9.07017C8.79126 10.7658 10.1565 12.1403 11.8406 12.1403ZM15.7267 11.2853C14.5506 11.2853 13.5972 12.2388 13.5972 13.4149C13.5972 13.4303 13.5977 13.4456 13.5988 13.4608C13.1805 13.5296 12.8243 13.7824 12.616 14.1332C12.5457 14.2516 12.4922 14.3812 12.4589 14.5186C12.4329 14.6256 12.4192 14.7373 12.4192 14.8522V17.2025C12.4192 17.6644 12.6413 18.0745 12.9845 18.3317H12.9845C13.22 18.5081 13.5125 18.6127 13.8294 18.6127H17.5898C18.3687 18.6127 19 17.9813 19 17.2025V14.8522C19 14.1637 18.5067 13.5905 17.8542 13.4668C17.8556 13.4496 17.8562 13.4323 17.8562 13.4149C17.8562 12.2388 16.9028 11.2853 15.7267 11.2853ZM16.5568 13.442H14.8966C14.897 13.433 14.8972 13.424 14.8972 13.4149C14.8972 12.9567 15.2686 12.5853 15.7267 12.5853C16.1848 12.5853 16.5562 12.9567 16.5562 13.4149C16.5562 13.424 16.5564 13.433 16.5568 13.442ZM11.3063 14.8522C11.3063 14.1826 11.5672 13.5738 11.9929 13.1221H9.31113L9.13526 13.1257C7.06197 13.2102 5.37111 14.7816 5.02017 16.8213C5.01007 16.88 5.00345 16.9783 5.00031 17.1161L5 17.1431C5 17.7995 5.53428 18.3317 6.19335 18.3317H11.3911H11.5725C11.4022 17.992 11.3063 17.6084 11.3063 17.2025V14.8522ZM15.27 15.7309C15.27 15.4785 15.4746 15.2739 15.727 15.2739C15.9794 15.2739 16.184 15.4785 16.184 15.7309V16.3008C16.184 16.5532 15.9794 16.7578 15.727 16.7578C15.4746 16.7578 15.27 16.5532 15.27 16.3008V15.7309Z" fill="black"/>
</svg>
