<svg width="24" height="24" viewBox="0 0 24 24" fill="none" xmlns="http://www.w3.org/2000/svg">
<path d="M12 22.5C6.20101 22.5 1.5 17.799 1.5 12C1.5 6.20101 6.20101 1.5 12 1.5C17.799 1.5 22.5 6.20101 22.5 12C22.5 17.799 17.799 22.5 12 22.5ZM0 12C0 18.6274 5.37258 24 12 24C18.6274 24 24 18.6274 24 12C24 5.37258 18.6274 0 12 0C5.37258 0 0 5.37258 0 12ZM6.15855 7.35975C5.8756 7.66227 5.89147 8.13688 6.19398 8.41982L8.05445 10.16C8.1416 10.551 8.33742 10.9228 8.64191 11.2271C8.98301 11.568 9.40883 11.7726 9.85163 11.8409L10.8459 12.7709C10.6316 12.7544 10.4139 12.7461 10.1928 12.7461C9.18863 12.7461 8.2538 12.9165 7.38828 13.2574C6.55547 13.5854 6.00641 14.3876 6.0021 15.2826L6.0001 15.7004C5.99731 16.2797 6.37815 16.7911 6.93405 16.9543C7.78992 17.2057 8.87617 17.3314 10.1928 17.3314C11.5095 17.3314 12.5959 17.2057 13.4518 16.9543C13.8953 16.824 14.2274 16.4721 14.3421 16.0409L16.4877 18.0478C16.7902 18.3307 17.2648 18.3148 17.5478 18.0123C17.8307 17.7098 17.8149 17.2352 17.5124 16.9523L7.21862 7.32432C6.91611 7.04138 6.4415 7.05724 6.15855 7.35975ZM9.24305 7.71352L12.1971 10.5393C12.536 9.74381 12.3808 8.78827 11.7315 8.13947C11.0584 7.46682 10.0554 7.32483 9.24305 7.71352ZM14.349 12.5977H15.4995C16.7461 12.5977 17.7808 13.5005 17.987 14.688C18.0709 15.1712 17.7654 15.4565 17.3871 15.5037L14.349 12.5977ZM13.7645 8.07793C13.0786 8.76387 13.0786 9.87599 13.7645 10.5619C14.4505 11.2479 15.5626 11.2479 16.2485 10.5619C16.9345 9.87599 16.9345 8.76387 16.2485 8.07793C15.5626 7.39199 14.4505 7.39199 13.7645 8.07793Z" fill="black"/>
</svg>
