<svg width="24" height="24" viewBox="0 0 24 24" fill="none" xmlns="http://www.w3.org/2000/svg">
<path d="M1.5 12C1.5 6.20101 6.20101 1.5 12 1.5C17.799 1.5 22.5 6.20101 22.5 12C22.5 17.799 17.799 22.5 12 22.5C6.20101 22.5 1.5 17.799 1.5 12ZM12 0C5.37258 0 0 5.37258 0 12C0 18.6274 5.37258 24 12 24C18.6274 24 24 18.6274 24 12C24 5.37258 18.6274 0 12 0ZM13.613 13.1187H9.87376L9.71573 13.1219C7.85278 13.1978 6.33346 14.6098 6.01813 16.4425C6.00905 16.4953 6.0031 16.5836 6.00028 16.7074L6 16.7317C6 17.3216 6.48008 17.7997 7.07228 17.7997H11.7427H16.4131L16.4361 17.7995C17.0281 17.7868 17.4978 17.2985 17.4852 16.7088C17.4823 16.5777 17.4761 16.4846 17.4664 16.4292C17.137 14.5515 15.543 13.1187 13.613 13.1187ZM14.6138 9.05064C14.6138 7.454 13.3283 6.15967 11.7425 6.15967C10.1566 6.15967 8.87109 7.454 8.87109 9.05064C8.87109 10.6473 10.1566 11.9416 11.7425 11.9416C13.3283 11.9416 14.6138 10.6473 14.6138 9.05064Z" fill="black"/>
</svg>
