<svg width="24" height="24" viewBox="0 0 24 24" fill="none" xmlns="http://www.w3.org/2000/svg">
<path d="M12 22.5C6.20101 22.5 1.5 17.799 1.5 12C1.5 6.20101 6.20101 1.5 12 1.5C17.799 1.5 22.5 6.20101 22.5 12C22.5 17.799 17.799 22.5 12 22.5ZM0 12C0 18.6274 5.37258 24 12 24C18.6274 24 24 18.6274 24 12C24 5.37258 18.6274 0 12 0C5.37258 0 0 5.37258 0 12ZM14.2774 8.81265C14.2774 7.09315 12.8929 5.69922 11.1851 5.69922C9.47725 5.69922 8.09277 7.09315 8.09277 8.81265C8.09277 10.5322 9.47725 11.9261 11.1851 11.9261C12.8929 11.9261 14.2774 10.5322 14.2774 8.81265ZM16.5897 16.3797C14.7439 16.3797 13.2234 14.9865 13.0225 13.1943H9.17185L9.00166 13.1978C6.99535 13.2795 5.35912 14.8002 5.01952 16.774C5.00975 16.8308 5.00334 16.9259 5.0003 17.0593L5 17.0854C5 17.7207 5.51702 18.2356 6.1548 18.2356H11.1846H16.2144L16.2392 18.2353C16.8768 18.2217 17.3826 17.6958 17.369 17.0607C17.3659 16.9196 17.3592 16.8193 17.3487 16.7597C17.3225 16.6102 17.2888 16.4633 17.2481 16.3194C17.0347 16.359 16.8146 16.3797 16.5897 16.3797ZM18.5034 11.3345C18.2691 11.1002 17.8892 11.1002 17.6548 11.3345L16.0166 12.9728L15.5034 12.4595C15.2691 12.2252 14.8892 12.2252 14.6548 12.4595C14.4205 12.6938 14.4205 13.0737 14.6548 13.3081L15.5923 14.2456C15.8267 14.4799 16.2066 14.4799 16.4409 14.2456L18.5034 12.1831C18.7377 11.9487 18.7377 11.5688 18.5034 11.3345Z" fill="black"/>
</svg>
