<svg width="24" height="24" viewBox="0 0 24 24" fill="none" xmlns="http://www.w3.org/2000/svg">
<path d="M1.5 12C1.5 6.20101 6.20101 1.5 12 1.5C17.799 1.5 22.5 6.20101 22.5 12C22.5 17.799 17.799 22.5 12 22.5C6.20101 22.5 1.5 17.799 1.5 12ZM12 0C5.37258 0 0 5.37258 0 12C0 18.6274 5.37258 24 12 24C18.6274 24 24 18.6274 24 12C24 5.37258 18.6274 0 12 0Z" fill="black"/>
<path d="M13.0597 15.8441H7.56882C6.70283 15.8441 6 15.1413 6 14.2753V9.56882C6 8.70283 6.70283 8 7.56882 8H13.0597C13.9257 8 14.6285 8.70283 14.6285 9.56882V14.2753C14.6285 15.1413 13.9257 15.8441 13.0597 15.8441Z" fill="black"/>
<path d="M15.4004 13.7522L16.7232 14.8171C17.2365 15.23 17.9996 14.8648 17.9996 14.2059V9.63751C17.9996 8.9786 17.2365 8.61338 16.7232 9.0263L15.4004 10.0912V13.7522Z" fill="black"/>
</svg>
