<svg width="24" height="24" viewBox="0 0 24 24" fill="none" xmlns="http://www.w3.org/2000/svg">
<path d="M22.5 12C22.5 17.799 17.799 22.5 12 22.5C6.20101 22.5 1.5 17.799 1.5 12C1.5 6.20101 6.20101 1.5 12 1.5C17.799 1.5 22.5 6.20101 22.5 12ZM12 24C18.6274 24 24 18.6274 24 12C24 5.37258 18.6274 0 12 0C5.37258 0 0 5.37258 0 12C0 18.6274 5.37258 24 12 24Z" fill="black"/>
<path d="M12.3817 8.64065H7.59135C6.74872 8.64065 6.06484 9.32453 6.06484 10.1672V14.7467C6.06484 14.8343 6.07223 14.9201 6.08641 15.0036L7.08676 13.9792L12.3817 8.64065Z" fill="black"/>
<path d="M7.04257 16.1715C7.2129 16.2372 7.39795 16.2732 7.59135 16.2732H12.9341C13.7768 16.2732 14.4606 15.5893 14.4606 14.7467V10.1672C14.4606 9.75537 14.2973 9.3815 14.032 9.10683L8.15384 15.0334L7.04257 16.1715Z" fill="black"/>
<path d="M15.4711 14.2382L16.7582 15.2744C17.2577 15.6762 18.0002 15.3208 18.0002 14.6797V10.2345C18.0002 9.59337 17.2577 9.23799 16.7582 9.63977L15.4711 10.676V14.2382Z" fill="black"/>
<path d="M15.7233 7.75141C15.4684 7.49862 15.0569 7.50031 14.8041 7.75519L5.86897 16.764C5.61617 17.0188 5.61786 17.4304 5.87274 17.6832C6.12762 17.936 6.53917 17.9343 6.79197 17.6794L15.7271 8.67064C15.9799 8.41576 15.9782 8.00421 15.7233 7.75141Z" fill="black"/>
</svg>
