<svg width="24" height="24" viewBox="0 0 24 24" fill="none" xmlns="http://www.w3.org/2000/svg">
<path d="M12 22.5C6.20101 22.5 1.5 17.799 1.5 12C1.5 6.20101 6.20101 1.5 12 1.5C17.799 1.5 22.5 6.20101 22.5 12C22.5 17.799 17.799 22.5 12 22.5ZM0 12C0 18.6274 5.37258 24 12 24C18.6274 24 24 18.6274 24 12C24 5.37258 18.6274 0 12 0C5.37258 0 0 5.37258 0 12ZM9.7799 9.8201C8.68643 8.72663 6.91357 8.72663 5.8201 9.8201C4.72663 10.9136 4.72663 12.6864 5.8201 13.7799C6.25998 14.2198 6.80979 14.4827 7.3811 14.5687C7.48768 14.6268 7.60993 14.6599 7.73991 14.6599H16.1399C16.2476 14.6599 16.3499 14.6372 16.4425 14.5964C17.1108 14.5625 17.7693 14.2904 18.2798 13.7799C19.3732 12.6864 19.3732 10.9136 18.2798 9.8201C17.1863 8.72663 15.4134 8.72663 14.32 9.8201C13.4152 10.7248 13.2591 12.0946 13.8515 13.1599H10.2484C10.8408 12.0946 10.6846 10.7248 9.7799 9.8201Z" fill="black"/>
</svg>
