<svg width="24" height="24" viewBox="0 0 24 24" fill="none" xmlns="http://www.w3.org/2000/svg">
<path d="M12 1.5C17.799 1.5 22.5 6.20101 22.5 12C22.5 17.799 17.799 22.5 12 22.5C6.20101 22.5 1.5 17.799 1.5 12C1.5 6.20101 6.20101 1.5 12 1.5ZM24 12C24 5.37258 18.6274 0 12 0C5.37258 0 0 5.37258 0 12C0 18.6274 5.37258 24 12 24C18.6274 24 24 18.6274 24 12Z" fill="black"/>
<path d="M8.77834 15.0863L11.5819 17.3291C11.9747 17.6434 12.5567 17.3637 12.5567 16.8605V7.23861C12.5567 6.73381 11.9713 6.45464 11.579 6.77237L8.77834 9.04092H6.51133C5.67708 9.04092 5 9.718 5 10.5523V13.5749C5 14.4092 5.67708 15.0863 6.51133 15.0863H8.77834Z" fill="black"/>
<path d="M14.6505 14.0018C14.9255 14.2326 15.3355 14.1967 15.5663 13.9217L18.0302 10.9854C18.2609 10.7104 18.225 10.3004 17.95 10.0697C17.675 9.83894 17.265 9.87481 17.0343 10.1498L14.5704 13.0861C14.3397 13.3611 14.3755 13.7711 14.6505 14.0018Z" fill="black"/>
<path d="M18.2675 13.6854C18.4982 13.4104 18.4624 13.0004 18.1874 12.7697L15.251 10.3058C14.976 10.0751 14.566 10.1109 14.3353 10.3859C14.1045 10.6609 14.1404 11.0709 14.4154 11.3017L17.3517 13.7655C17.6267 13.9963 18.0367 13.9604 18.2675 13.6854Z" fill="black"/>
</svg>
