<svg width="24" height="24" viewBox="0 0 24 24" fill="none" xmlns="http://www.w3.org/2000/svg">
<path d="M12 1.5C17.799 1.5 22.5 6.20101 22.5 12C22.5 17.799 17.799 22.5 12 22.5C6.20101 22.5 1.5 17.799 1.5 12C1.5 6.20101 6.20101 1.5 12 1.5ZM24 12C24 5.37258 18.6274 0 12 0C5.37258 0 0 5.37258 0 12C0 18.6274 5.37258 24 12 24C18.6274 24 24 18.6274 24 12Z" fill="black"/>
<path d="M11.7383 15.0093L14.5018 17.2201C14.8947 17.5344 15.4766 17.2547 15.4766 16.7516V7.25814C15.4766 6.75334 14.8912 6.47417 14.499 6.7919L11.7383 9.02804H9.49533C8.66991 9.02804 8 9.69794 8 10.5234V13.514C8 14.3394 8.66991 15.0093 9.49533 15.0093H11.7383Z" fill="black"/>
</svg>
