<svg width="24" height="24" viewBox="0 0 24 24" fill="none" xmlns="http://www.w3.org/2000/svg">
<path d="M1.5 12C1.5 6.20101 6.20101 1.5 12 1.5C17.799 1.5 22.5 6.20101 22.5 12C22.5 17.799 17.799 22.5 12 22.5C6.20101 22.5 1.5 17.799 1.5 12ZM12 0C5.37258 0 0 5.37258 0 12C0 18.6274 5.37258 24 12 24C18.6274 24 24 18.6274 24 12C24 5.37258 18.6274 0 12 0ZM5.43433 7.13373C5.12191 7.44615 5.12191 7.95268 5.43433 8.2651L7.1273 9.95807C6.49269 10.0333 6 10.5737 6 11.2284V13.7869C6 14.4931 6.57311 15.0662 7.27926 15.0662H9.19816L11.4215 16.8448C11.8144 17.1591 12.3963 16.8794 12.3963 16.3763V15.2271L15.6003 18.431C15.9127 18.7435 16.4192 18.7435 16.7316 18.431C17.0194 18.1433 17.0421 17.6908 16.7997 17.377C16.7279 17.34 16.6605 17.2914 16.6003 17.2312L6.43433 7.06529C6.40968 7.04064 6.38697 7.01478 6.36621 6.9879C6.06524 6.83291 5.68653 6.88152 5.43433 7.13373ZM18.6503 12.5074C18.6503 10.4537 17.6455 8.65035 16.1244 7.51826C15.8365 7.30393 15.4293 7.36362 15.2149 7.6516C15.0006 7.93958 15.0603 8.34678 15.3483 8.56112C16.5614 9.46405 17.3503 10.8909 17.3503 12.5074C17.3503 13.4265 17.0949 14.2845 16.6515 15.0197L17.5924 15.9606C18.2576 14.9758 18.6503 13.7905 18.6503 12.5074ZM15.8819 12.5729C15.8819 11.5853 15.3981 10.7203 14.6713 10.1794C14.3833 9.96506 13.9761 10.0248 13.7618 10.3127C13.5475 10.6007 13.6072 11.0079 13.8951 11.2222C14.314 11.534 14.5819 12.0225 14.5819 12.5729C14.5819 12.69 14.5697 12.8044 14.5466 12.9148L15.5558 13.924C15.7634 13.5199 15.8819 13.0614 15.8819 12.5729ZM12.3963 8.61676C12.3963 8.11196 11.8109 7.83279 11.4187 8.15052L10.5146 8.88282L12.3963 10.7645V8.61676Z" fill="black"/>
</svg>
