<svg width="24" height="24" viewBox="0 0 24 24" fill="none" xmlns="http://www.w3.org/2000/svg">
<path d="M12 1.5C17.799 1.5 22.5 6.20101 22.5 12C22.5 17.799 17.799 22.5 12 22.5C6.20101 22.5 1.5 17.799 1.5 12C1.5 6.20101 6.20101 1.5 12 1.5ZM24 12C24 5.37258 18.6274 0 12 0C5.37258 0 0 5.37258 0 12C0 18.6274 5.37258 24 12 24C18.6274 24 24 18.6274 24 12Z" fill="black"/>
<path d="M9.19816 15.0679L11.4215 16.8466C11.8144 17.1609 12.3963 16.8812 12.3963 16.3781V8.61849C12.3963 8.11369 11.8109 7.83452 11.4187 8.15225L9.19816 9.95086H7.27926C6.57311 9.95086 6 10.524 6 11.2301V13.7886C6 14.4948 6.57311 15.0679 7.27926 15.0679H9.19816Z" fill="black"/>
<path d="M15.2149 7.65293C15.0006 7.9409 15.0603 8.34811 15.3482 8.56244C16.5614 9.46538 17.3503 10.8922 17.3503 12.5087C17.3503 14.125 16.5605 15.5519 15.348 16.4551C15.0601 16.6695 15.0006 17.0767 15.2151 17.3646C15.4295 17.6525 15.8367 17.7121 16.1246 17.4976C17.6442 16.3657 18.6503 14.5626 18.6503 12.5087C18.6503 10.455 17.6455 8.65168 16.1244 7.51959C15.8364 7.30525 15.4292 7.36495 15.2149 7.65293Z" fill="black"/>
<path d="M13.7618 10.3141C13.5474 10.602 13.6071 11.0092 13.8951 11.2236C14.314 11.5354 14.5819 12.0239 14.5819 12.5742C14.5819 13.1244 14.3137 13.613 13.8949 13.925C13.607 14.1395 13.5475 14.5467 13.7619 14.8346C13.9764 15.1225 14.3836 15.182 14.6715 14.9676C15.3974 14.4268 15.8819 13.562 15.8819 12.5742C15.8819 11.5867 15.3981 10.7217 14.6713 10.1807C14.3833 9.96638 13.9761 10.0261 13.7618 10.3141Z" fill="black"/>
</svg>
