<svg width="24" height="24" viewBox="0 0 24 24" fill="none" xmlns="http://www.w3.org/2000/svg">
<path d="M12 1.5C17.799 1.5 22.5 6.20101 22.5 12C22.5 17.799 17.799 22.5 12 22.5C6.20101 22.5 1.5 17.799 1.5 12C1.5 6.20101 6.20101 1.5 12 1.5ZM24 12C24 5.37258 18.6274 0 12 0C5.37258 0 0 5.37258 0 12C0 18.6274 5.37258 24 12 24C18.6274 24 24 18.6274 24 12ZM6.94336 7.73C6.94336 7.48174 7.1451 7.28 7.39336 7.28H15.31C15.5862 7.28 15.81 7.05614 15.81 6.78C15.81 6.50386 15.5862 6.28 15.31 6.28H7.39336C6.59282 6.28 5.94336 6.92946 5.94336 7.73C5.94336 7.86964 5.96312 8.00469 6 8.1325V15.705C6 16.8096 6.89543 17.705 8 17.705H16C17.1046 17.705 18 16.8096 18 15.705V10.105C18 9.00043 17.1046 8.105 16 8.105H12H9H7.5C7.36209 8.105 7.22546 8.0911 7.092 8.064C7.00076 7.98161 6.94336 7.86242 6.94336 7.73ZM15.8174 12.8233C15.8174 13.1731 15.5339 13.4566 15.1841 13.4566C14.8343 13.4566 14.5508 13.1731 14.5508 12.8233C14.5508 12.4735 14.8343 12.19 15.1841 12.19C15.5339 12.19 15.8174 12.4735 15.8174 12.8233Z" fill="black"/>
</svg>
