<svg width="24" height="24" viewBox="0 0 24 24" fill="none" xmlns="http://www.w3.org/2000/svg">
<path d="M1.5 12C1.5 6.20101 6.20101 1.5 12 1.5C17.799 1.5 22.5 6.20101 22.5 12C22.5 17.799 17.799 22.5 12 22.5C6.20101 22.5 1.5 17.799 1.5 12ZM12 0C5.37258 0 0 5.37258 0 12C0 18.6274 5.37258 24 12 24C18.6274 24 24 18.6274 24 12C24 5.37258 18.6274 0 12 0ZM10.2556 6.15002C9.54591 6.15002 8.9707 6.72523 8.9707 7.43492C8.9707 7.6323 9.01519 7.81927 9.09469 7.98636C9.09931 8.02384 9.10727 8.06143 9.11876 8.09877L9.50144 9.34248C9.51095 9.36477 9.51921 9.38789 9.52612 9.41177L9.57919 9.59516L9.58739 9.62181C9.58723 9.62184 9.58754 9.62177 9.58739 9.62181L10.2751 12.0001C10.4473 12.5953 10.9902 13.0064 11.6098 13.0109L14.2479 13.0301C14.2617 13.0302 14.2754 13.0308 14.2891 13.0318H14.8243L16.0294 15.7433C16.1576 16.0319 16.4747 16.1865 16.781 16.1099L18.1577 15.7658C18.506 15.6787 18.7177 15.3258 18.6306 14.9775C18.5436 14.6292 18.1907 14.4175 17.8424 14.5046L16.9956 14.7163L15.8407 12.1178C15.7364 11.8831 15.5036 11.7318 15.2467 11.7318H11.5968L11.3614 10.9669H14.3399C14.6989 10.9669 14.9899 10.6759 14.9899 10.3169C14.9899 9.95788 14.6989 9.66687 14.3399 9.66687H10.9614L10.6509 8.65787C11.1672 8.49115 11.5405 8.00668 11.5405 7.43492C11.5405 6.72523 10.9653 6.15002 10.2556 6.15002ZM14.1151 14.5621C14.1012 14.5442 14.0881 14.5253 14.0759 14.5055L13.9058 14.2276L11.6011 14.2109C10.4505 14.2025 9.44223 13.4389 9.1224 12.3337L8.44535 9.99394C8.17785 10.1182 7.96596 10.2388 7.96596 10.2388C7.72132 10.3882 7.49357 10.5626 7.28622 10.7583C6.49423 11.5061 6 12.5658 6 13.7411C6 16.0064 7.83603 17.8424 10.1013 17.8424C12.0425 17.8424 13.6685 16.4943 14.094 14.683C14.094 14.683 14.1025 14.6371 14.1151 14.5621Z" fill="black"/>
</svg>
