<svg width="24" height="24" viewBox="0 0 24 24" fill="none" xmlns="http://www.w3.org/2000/svg">
<path d="M12 1.5C17.799 1.5 22.5 6.20101 22.5 12C22.5 17.799 17.799 22.5 12 22.5C6.20101 22.5 1.5 17.799 1.5 12C1.5 6.20101 6.20101 1.5 12 1.5ZM24 12C24 5.37258 18.6274 0 12 0C5.37258 0 0 5.37258 0 12C0 18.6274 5.37258 24 12 24C18.6274 24 24 18.6274 24 12Z" fill="black"/>
<path d="M17.4731 10.8531C17.8055 11.1442 18.3109 11.1106 18.602 10.7781C18.893 10.4457 18.8594 9.94024 18.5269 9.64923C14.7963 6.38359 9.20374 6.38359 5.47308 9.64923C5.14063 9.94024 5.10703 10.4457 5.39804 10.7781C5.68906 11.1106 6.19447 11.1442 6.52692 10.8531C9.65427 8.11562 14.3457 8.11562 17.4731 10.8531Z" fill="black"/>
<path d="M15.3925 12.8451C15.7249 13.1361 16.2303 13.1025 16.5214 12.77C16.8124 12.4376 16.7788 11.9322 16.4463 11.6412C13.9046 9.41623 10.0949 9.41623 7.55315 11.6412C7.2207 11.9322 7.18711 12.4376 7.47812 12.77C7.76913 13.1025 8.27455 13.1361 8.607 12.8451C10.5454 11.1483 13.454 11.1483 15.3925 12.8451Z" fill="black"/>
<path d="M13.6384 14.823C13.9994 15.0777 14.4986 14.9915 14.7533 14.6305C15.008 14.2695 14.9218 13.7704 14.5608 13.5156C13.1042 12.488 11.1536 12.488 9.69702 13.5156C9.33599 13.7704 9.24981 14.2695 9.50452 14.6305C9.75922 14.9915 10.2584 15.0777 10.6194 14.823C11.5229 14.1856 12.7349 14.1856 13.6384 14.823Z" fill="black"/>
<path d="M12.0656 17.3578C12.5441 17.3578 12.932 16.9699 12.932 16.4914C12.932 16.0129 12.5441 15.625 12.0656 15.625C11.5871 15.625 11.1992 16.0129 11.1992 16.4914C11.1992 16.9699 11.5871 17.3578 12.0656 17.3578Z" fill="black"/>
</svg>
