<svg width="24" height="24" viewBox="0 0 24 24" fill="none" xmlns="http://www.w3.org/2000/svg">
<path d="M12 1.5C17.799 1.5 22.5 6.20101 22.5 12C22.5 17.799 17.799 22.5 12 22.5C6.20101 22.5 1.5 17.799 1.5 12C1.5 6.20101 6.20101 1.5 12 1.5ZM24 12C24 5.37258 18.6274 0 12 0C5.37258 0 0 5.37258 0 12C0 18.6274 5.37258 24 12 24C18.6274 24 24 18.6274 24 12Z" fill="black"/>
<path d="M7.36591 6.28875C7.06486 6.13346 6.68589 6.18199 6.43354 6.43433C6.12112 6.74675 6.12112 7.25328 6.43354 7.5657L7.26665 8.39881C6.63495 8.74195 6.03263 9.15876 5.47231 9.64924C5.13985 9.94025 5.10626 10.4457 5.39727 10.7781C5.68828 11.1106 6.1937 11.1442 6.52615 10.8532C7.12043 10.333 7.77118 9.91161 8.45695 9.58911L9.37055 10.5027C8.7217 10.7763 8.10687 11.1558 7.55238 11.6412C7.21993 11.9322 7.18634 12.4376 7.47735 12.77C7.76836 13.1025 8.27378 13.1361 8.60623 12.8451C9.20568 12.3203 9.89791 11.9579 10.6255 11.7577L11.6409 12.7731C10.9554 12.8524 10.2854 13.1 9.69625 13.5157C9.33522 13.7704 9.24904 14.2695 9.50375 14.6305C9.75845 14.9916 10.2576 15.0777 10.6186 14.823C11.5222 14.1856 12.7341 14.1856 13.6376 14.823C13.6781 14.8516 13.7204 14.8759 13.7638 14.896L16.5995 17.7316C16.9119 18.044 17.4184 18.044 17.7308 17.7316C18.0188 17.4437 18.0414 16.9908 17.7985 16.677C17.7268 16.64 17.6595 16.5915 17.5995 16.5314L7.43353 6.3655C7.40908 6.34105 7.38654 6.3154 7.36591 6.28875Z" fill="black"/>
<path d="M16.2852 12.9544C16.3721 12.9097 16.4523 12.8481 16.5206 12.77C16.8116 12.4376 16.778 11.9322 16.4456 11.6412C15.5677 10.8728 14.5387 10.3697 13.4629 10.1321L16.2852 12.9544Z" fill="black"/>
<path d="M12.1318 8.80106C14.0421 8.83131 15.944 9.51535 17.4723 10.8532C17.8048 11.1442 18.3102 11.1106 18.6012 10.7781C18.8922 10.4457 18.8586 9.94025 18.5262 9.64924C16.2935 7.69487 13.394 6.91012 10.6258 7.295L12.1318 8.80106Z" fill="black"/>
<path d="M12.0649 17.3578C12.5434 17.3578 12.9313 16.9699 12.9313 16.4914C12.9313 16.0129 12.5434 15.625 12.0649 15.625C11.5864 15.625 11.1984 16.0129 11.1984 16.4914C11.1984 16.9699 11.5864 17.3578 12.0649 17.3578Z" fill="black"/>
</svg>
