<?xml version="1.0" encoding="iso-8859-1"?>
<!-- Generator: Adobe Illustrator 16.0.0, SVG Export Plug-In . SVG Version: 6.00 Build 0)  -->
<!DOCTYPE svg PUBLIC "-//W3C//DTD SVG 1.1//EN" "http://www.w3.org/Graphics/SVG/1.1/DTD/svg11.dtd">
<svg version="1.1" id="Capa_1" xmlns="http://www.w3.org/2000/svg" xmlns:xlink="http://www.w3.org/1999/xlink" x="0px" y="0px"
	 width="548.291px" height="548.291px" viewBox="0 0 548.291 548.291" style="enable-background:new 0 0 548.291 548.291;"
	 xml:space="preserve">
<g>
	<path d="M486.201,196.121h-13.166v-63.525c0-0.399-0.062-0.795-0.115-1.2c-0.021-2.522-0.825-5-2.552-6.96L364.657,3.675
		c-0.033-0.031-0.064-0.042-0.085-0.073c-0.63-0.704-1.364-1.292-2.143-1.796c-0.229-0.157-0.461-0.286-0.702-0.419
		c-0.672-0.365-1.387-0.672-2.121-0.893c-0.2-0.052-0.379-0.134-0.577-0.188C358.23,0.118,357.401,0,356.562,0H96.757
		C84.894,0,75.256,9.649,75.256,21.502v174.613H62.092c-16.971,0-30.732,13.756-30.732,30.73v159.81
		c0,16.966,13.761,30.736,30.732,30.736h13.164V526.79c0,11.854,9.638,21.501,21.501,21.501h354.776
		c11.853,0,21.501-9.647,21.501-21.501V417.392h13.166c16.966,0,30.729-13.764,30.729-30.731v-159.81
		C516.93,209.877,503.167,196.121,486.201,196.121z M96.757,21.507h249.054v110.006c0,5.94,4.817,10.751,10.751,10.751h94.972
		v53.861H96.757V21.507z M367.547,335.847c7.843,0,16.547-1.701,21.666-3.759l3.916,20.301c-4.768,2.376-15.509,4.949-29.493,4.949
		c-39.748,0-60.204-24.73-60.204-57.472c0-39.226,27.969-61.055,62.762-61.055c13.465,0,23.705,2.737,28.31,5.119l-5.285,20.64
		c-5.287-2.226-12.615-4.263-21.832-4.263c-20.641,0-36.663,12.444-36.663,38.027C330.718,321.337,344.362,335.847,367.547,335.847z
		 M291.647,296.97c0,37.685-22.854,60.537-56.444,60.537c-34.113,0-54.066-25.759-54.066-58.495
		c0-34.447,21.995-60.206,55.94-60.206C272.39,238.806,291.647,265.248,291.647,296.97z M67.72,355.124V242.221
		c9.552-1.532,21.999-2.375,35.13-2.375c21.83,0,35.981,3.916,47.055,12.276c11.945,8.863,19.455,23.021,19.455,43.311
		c0,21.994-8.017,37.181-19.105,46.556c-12.111,10.058-30.528,14.841-53.045,14.841C83.749,356.825,74.198,355.968,67.72,355.124z
		 M451.534,520.968H96.757V417.392h354.776V520.968z M471.245,355.627l-10.409-20.804c-4.263-8.012-6.992-13.99-10.231-20.636
		h-0.342c-2.388,6.656-5.28,12.624-8.861,20.636l-9.552,20.804h-29.675l33.254-58.158l-32.054-56.786h29.849l10.058,20.984
		c3.413,6.979,5.963,12.614,8.694,19.092h0.335c2.729-7.332,4.955-12.446,7.843-19.092l9.721-20.984h29.683l-32.406,56.103
		l34.105,58.841H471.245z"/>
	<path d="M141.729,296.277c0.165-23.869-13.814-36.494-36.15-36.494c-5.807,0-9.552,0.514-11.772,1.027v75.2
		c2.226,0.509,5.806,0.509,9.047,0.509C126.388,336.698,141.729,323.743,141.729,296.277z"/>
	<path d="M208.604,298.493c0,22.515,10.575,38.372,27.969,38.372c17.567,0,27.617-16.703,27.617-39.045
		c0-20.641-9.885-38.377-27.801-38.377C218.827,259.448,208.604,276.162,208.604,298.493z"/>
</g>
<g>
</g>
<g>
</g>
<g>
</g>
<g>
</g>
<g>
</g>
<g>
</g>
<g>
</g>
<g>
</g>
<g>
</g>
<g>
</g>
<g>
</g>
<g>
</g>
<g>
</g>
<g>
</g>
<g>
</g>
</svg>
