<?xml version="1.0" encoding="iso-8859-1"?>
<!-- Generator: Adobe Illustrator 16.0.0, SVG Export Plug-In . SVG Version: 6.00 Build 0)  -->
<!DOCTYPE svg PUBLIC "-//W3C//DTD SVG 1.1//EN" "http://www.w3.org/Graphics/SVG/1.1/DTD/svg11.dtd">
<svg version="1.1" id="Capa_1" xmlns="http://www.w3.org/2000/svg" xmlns:xlink="http://www.w3.org/1999/xlink" x="0px" y="0px"
	 width="550.801px" height="550.801px" viewBox="0 0 550.801 550.801" style="enable-background:new 0 0 550.801 550.801;"
	 xml:space="preserve">
<g>
	<path d="M425.946,258.583c-6.296,0-10.567,0.602-12.804,1.221v40.434c2.637,0.611,5.896,0.817,10.378,0.817
		c16.453,0,26.6-8.332,26.6-22.354C450.12,266.101,441.387,258.583,425.946,258.583z"/>
	<path d="M488.426,197.019H475.2v-63.816c0-0.401-0.063-0.799-0.116-1.205c-0.021-2.534-0.827-5.023-2.562-6.992L366.325,3.691
		c-0.032-0.031-0.063-0.042-0.085-0.073c-0.633-0.707-1.371-1.298-2.151-1.804c-0.231-0.158-0.464-0.287-0.706-0.422
		c-0.676-0.366-1.393-0.675-2.131-0.896c-0.2-0.053-0.38-0.135-0.58-0.19C359.87,0.119,359.037,0,358.193,0H97.2
		c-11.918,0-21.6,9.693-21.6,21.601v175.413H62.377c-17.049,0-30.873,13.818-30.873,30.87v160.542
		c0,17.044,13.824,30.876,30.873,30.876h13.224V529.2c0,11.907,9.682,21.601,21.6,21.601h356.4c11.907,0,21.6-9.693,21.6-21.601
		V419.302h13.226c17.044,0,30.871-13.827,30.871-30.87V227.89C519.297,210.838,505.47,197.019,488.426,197.019z M97.2,21.605
		h250.193v110.51c0,5.967,4.841,10.8,10.8,10.8h95.407v54.108H97.2V21.605z M355.641,236.24v136.941H324.56V236.24H355.641z
		 M204.649,261.829V236.24h99.364v17.872l-63.798,92.66v0.801h64.816v25.608H198.559v-16.664l65.222-93.873v-0.814H204.649z
		 M81.704,356.105c-12.593-11.781-19.501-29.658-19.306-49.781c0.206-45.516,33.328-71.516,78.224-71.516
		c17.687,0,31.311,3.452,38.005,6.695l-6.502,24.788c-7.52-3.246-16.87-5.882-31.902-5.882c-25.795,0-45.317,14.634-45.317,44.286
		c0,28.239,17.685,44.914,43.087,44.914c7.111,0,12.799-0.817,15.237-2.046v-28.635h-21.133v-24.189h50.997v72.135
		c-9.547,3.249-27.627,7.71-45.715,7.71C112.385,374.594,94.297,368.303,81.704,356.105z M453.601,523.353H97.2V419.302h356.4
		V523.353z M468.208,310.395c-10.568,9.957-26.198,14.429-44.497,14.429c-4.061,0-7.726-0.211-10.568-0.606v48.964h-30.681V238.054
		c9.556-1.621,22.971-2.842,41.86-2.842c19.101,0,32.706,3.663,41.86,10.979c8.728,6.903,14.634,18.272,14.634,31.699
		C480.816,291.295,476.334,302.669,468.208,310.395z"/>
</g>
<g>
</g>
<g>
</g>
<g>
</g>
<g>
</g>
<g>
</g>
<g>
</g>
<g>
</g>
<g>
</g>
<g>
</g>
<g>
</g>
<g>
</g>
<g>
</g>
<g>
</g>
<g>
</g>
<g>
</g>
</svg>
