<?xml version="1.0" encoding="iso-8859-1"?>
<!-- Generator: Adobe Illustrator 16.0.0, SVG Export Plug-In . SVG Version: 6.00 Build 0)  -->
<!DOCTYPE svg PUBLIC "-//W3C//DTD SVG 1.1//EN" "http://www.w3.org/Graphics/SVG/1.1/DTD/svg11.dtd">
<svg version="1.1" id="Capa_1" xmlns="http://www.w3.org/2000/svg" xmlns:xlink="http://www.w3.org/1999/xlink" x="0px" y="0px"
	 width="550.801px" height="550.801px" viewBox="0 0 550.801 550.801" style="enable-background:new 0 0 550.801 550.801;"
	 xml:space="preserve">
<g>
	<path d="M488.426,197.021H475.2v-63.825c0-0.398-0.063-0.799-0.116-1.203c-0.021-2.533-0.827-5.022-2.562-6.995L366.325,3.694
		c-0.032-0.031-0.063-0.042-0.085-0.074c-0.633-0.709-1.371-1.297-2.151-1.803c-0.231-0.158-0.464-0.288-0.706-0.422
		c-0.676-0.369-1.393-0.675-2.131-0.896c-0.2-0.056-0.38-0.138-0.58-0.19C359.87,0.119,359.037,0,358.193,0H97.2
		c-11.918,0-21.6,9.695-21.6,21.601v175.413H62.377c-17.049,0-30.873,13.818-30.873,30.873v160.545
		c0,17.043,13.824,30.87,30.873,30.87h13.224V529.2c0,11.907,9.682,21.601,21.6,21.601h356.4c11.907,0,21.6-9.693,21.6-21.601
		V419.302h13.226c17.044,0,30.871-13.827,30.871-30.87v-160.54C519.297,210.832,505.47,197.021,488.426,197.021z M97.2,21.601
		h250.193v110.513c0,5.967,4.841,10.8,10.8,10.8h95.407v54.108H97.2V21.601z M358.773,297.496c0,27.791-10.125,46.955-24.131,58.81
		c-15.304,12.72-38.555,18.736-67.002,18.736c-17.004,0-29.072-1.07-37.26-2.146V230.283c12.058-1.938,27.789-3.029,44.376-3.029
		c27.58,0,45.457,4.946,59.453,15.504C349.292,253.975,358.773,271.838,358.773,297.496z M69.225,302.01
		c0-43.516,27.789-76.04,70.659-76.04c44.587,0,68.929,33.394,68.929,73.451c0,47.614-28.861,76.486-71.307,76.486
		C94.427,375.907,69.225,343.364,69.225,302.01z M453.601,523.347H97.2V419.302h356.4V523.347z M415.885,375.706
		c-16.58,0-32.964-4.329-41.144-8.854l6.666-27.143c8.849,4.535,22.412,9.049,36.407,9.049c15.088,0,23.066-6.238,23.066-15.72
		c0-9.055-6.897-14.223-24.353-20.461c-24.121-8.4-39.856-21.758-39.856-42.873c0-24.777,20.682-43.73,54.938-43.73
		c16.368,0,28.435,3.438,37.051,7.317l-7.319,26.491c-5.822-2.795-16.158-6.885-30.386-6.885c-14.217,0-21.114,6.465-21.114,14.02
		c0,9.252,8.2,13.345,26.947,20.453c25.629,9.471,37.688,22.834,37.688,43.306C474.478,355.003,455.741,375.706,415.885,375.706z"/>
	<path d="M278.198,252.474c-7.322,0-12.063,0.63-14.866,1.284v94.996c2.803,0.654,7.333,0.654,11.42,0.654
		c29.736,0.221,49.122-16.158,49.122-50.847C324.096,268.408,306.424,252.474,278.198,252.474z"/>
	<path d="M174.135,300.513c0-26.067-12.49-48.481-35.121-48.481c-22.188,0-35.111,21.112-35.111,49.336
		c0,28.439,13.36,48.468,35.327,48.468C161.418,349.835,174.135,328.726,174.135,300.513z"/>
</g>
<g>
</g>
<g>
</g>
<g>
</g>
<g>
</g>
<g>
</g>
<g>
</g>
<g>
</g>
<g>
</g>
<g>
</g>
<g>
</g>
<g>
</g>
<g>
</g>
<g>
</g>
<g>
</g>
<g>
</g>
</svg>
