<?xml version="1.0" encoding="iso-8859-1"?>
<!-- Generator: Adobe Illustrator 16.0.0, SVG Export Plug-In . SVG Version: 6.00 Build 0)  -->
<!DOCTYPE svg PUBLIC "-//W3C//DTD SVG 1.1//EN" "http://www.w3.org/Graphics/SVG/1.1/DTD/svg11.dtd">
<svg version="1.1" id="Capa_1" xmlns="http://www.w3.org/2000/svg" xmlns:xlink="http://www.w3.org/1999/xlink" x="0px" y="0px"
	 width="548.291px" height="548.291px" viewBox="0 0 548.291 548.291" style="enable-background:new 0 0 548.291 548.291;"
	 xml:space="preserve">
<g>
	<path d="M282.413,254.859c-7.564,0-12.464,0.672-15.357,1.333v98.144c2.893,0.671,7.567,0.671,11.793,0.671
		c30.714,0.221,50.741-16.693,50.741-52.525C329.811,271.324,311.568,254.859,282.413,254.859z"/>
	<path d="M486.201,196.124h-13.166V132.59c0-0.396-0.062-0.795-0.115-1.196c-0.021-2.523-0.825-5-2.552-6.963L364.657,3.677
		c-0.033-0.031-0.064-0.042-0.085-0.073c-0.63-0.707-1.364-1.292-2.143-1.795c-0.229-0.157-0.461-0.286-0.702-0.421
		c-0.672-0.366-1.387-0.671-2.121-0.892c-0.2-0.055-0.379-0.136-0.577-0.188C358.23,0.118,357.401,0,356.562,0H96.757
		C84.894,0,75.256,9.651,75.256,21.502v174.613H62.092c-16.971,0-30.732,13.756-30.732,30.733v159.812
		c0,16.968,13.761,30.731,30.732,30.731h13.164V526.79c0,11.854,9.638,21.501,21.501,21.501h354.776
		c11.853,0,21.501-9.647,21.501-21.501V417.392h13.166c16.966,0,30.729-13.764,30.729-30.731V226.854
		C516.93,209.872,503.167,196.124,486.201,196.124z M96.757,21.502h249.054v110.009c0,5.939,4.817,10.75,10.751,10.75h94.972v53.861
		H96.757V21.502z M365.643,301.37c0,28.72-10.457,48.524-24.925,60.75c-15.795,13.141-39.832,19.376-69.216,19.376
		c-17.578,0-30.045-1.112-38.504-2.236V231.932c12.459-2.005,28.714-3.118,45.846-3.118c28.482,0,46.955,5.123,61.433,16.032
		C355.853,256.418,365.643,274.88,365.643,301.37z M66.504,306.042c0-44.961,28.714-78.571,73.004-78.571
		c46.076,0,71.224,34.512,71.224,75.904c0,49.187-29.827,79.004-73.665,79.004C92.55,382.378,66.504,348.782,66.504,306.042z
		 M451.534,520.962H96.757v-103.57h354.776V520.962z M485.624,258.413h-40.945v121.529H410.63V258.413h-40.284v-28.486h115.277
		V258.413z"/>
	<path d="M174.895,304.487c0-26.929-12.905-50.074-36.279-50.074c-22.921,0-36.279,21.832-36.279,50.967
		c0,29.376,13.798,50.069,36.5,50.069C161.763,355.449,174.895,333.631,174.895,304.487z"/>
</g>
<g>
</g>
<g>
</g>
<g>
</g>
<g>
</g>
<g>
</g>
<g>
</g>
<g>
</g>
<g>
</g>
<g>
</g>
<g>
</g>
<g>
</g>
<g>
</g>
<g>
</g>
<g>
</g>
<g>
</g>
</svg>
