<?xml version="1.0" encoding="iso-8859-1"?>
<!-- Generator: Adobe Illustrator 16.0.0, SVG Export Plug-In . SVG Version: 6.00 Build 0)  -->
<!DOCTYPE svg PUBLIC "-//W3C//DTD SVG 1.1//EN" "http://www.w3.org/Graphics/SVG/1.1/DTD/svg11.dtd">
<svg version="1.1" id="Capa_1" xmlns="http://www.w3.org/2000/svg" xmlns:xlink="http://www.w3.org/1999/xlink" x="0px" y="0px"
	 width="550.801px" height="550.801px" viewBox="0 0 550.801 550.801" style="enable-background:new 0 0 550.801 550.801;"
	 xml:space="preserve">
<g>
	<path d="M488.426,197.019H475.2v-63.816c0-0.401-0.063-0.799-0.116-1.205c-0.021-2.534-0.827-5.023-2.562-6.992L366.325,3.691
		c-0.032-0.031-0.063-0.042-0.085-0.073c-0.633-0.707-1.371-1.298-2.151-1.804c-0.231-0.158-0.464-0.287-0.706-0.422
		c-0.676-0.366-1.393-0.675-2.131-0.896c-0.2-0.053-0.38-0.135-0.58-0.19C359.87,0.119,359.037,0,358.193,0H97.2
		c-11.918,0-21.6,9.693-21.6,21.601v175.413H62.377c-17.049,0-30.873,13.818-30.873,30.87v160.542
		c0,17.044,13.824,30.876,30.873,30.876h13.224V529.2c0,11.907,9.682,21.601,21.6,21.601h356.4c11.907,0,21.6-9.693,21.6-21.601
		V419.302h13.226c17.044,0,30.871-13.827,30.871-30.87V227.89C519.297,210.838,505.47,197.019,488.426,197.019z M97.2,21.605
		h250.193v110.51c0,5.967,4.841,10.8,10.8,10.8h95.407v54.108H97.2V21.605z M259.504,314.888
		c-26.8-9.339-44.273-24.168-44.273-47.614c0-27.525,22.971-48.584,61.024-48.584c18.183,0,31.577,3.829,41.164,8.137l-8.142,29.436
		c-6.466-3.116-17.94-7.662-33.753-7.662c-15.789,0-23.446,7.18-23.446,15.557c0,10.297,9.104,14.84,29.924,22.733
		c28.461,10.531,41.871,25.36,41.871,48.089c0,27.048-20.819,50.019-65.098,50.019c-18.415,0-36.598-4.793-45.702-9.813
		l7.425-30.153c9.809,5.03,24.877,10.051,40.437,10.051c16.751,0,25.592-6.935,25.592-17.466
		C286.538,327.57,278.878,321.828,259.504,314.888z M80.251,382.609V223.473c11.264-1.911,27.053-3.354,49.307-3.354
		c22.486,0,38.517,4.311,49.296,12.922c10.283,8.145,17.215,21.542,17.215,37.331c0,15.802-5.252,29.202-14.829,38.293
		c-12.445,11.723-30.87,16.98-52.394,16.98c-4.791,0-9.104-0.231-12.458-0.712v57.676H80.251L80.251,382.609z M453.601,523.353H97.2
		V419.302h356.4V523.353z M464.348,363.451c-16.991,14.127-42.82,20.83-74.419,20.83c-18.899,0-32.294-1.197-41.396-2.405V223.473
		c13.405-2.154,30.871-3.354,49.296-3.354c30.629,0,50.504,5.508,66.045,17.233c16.748,12.435,27.285,32.303,27.285,60.776
		C491.158,329.005,479.894,350.305,464.348,363.451z"/>
	<path d="M401.657,248.118c-8.143,0-13.39,0.73-16.517,1.442v105.521c3.122,0.728,8.143,0.728,12.688,0.728
		c33.022,0.232,54.564-17.95,54.564-56.479C452.619,265.832,433.002,248.118,401.657,248.118z"/>
	<path d="M159.954,271.334c0-14.845-10.302-23.696-28.484-23.696c-7.414,0-12.448,0.73-15.082,1.442v47.614
		c3.122,0.728,6.95,0.96,12.203,0.96C147.973,297.654,159.954,287.846,159.954,271.334z"/>
</g>
<g>
</g>
<g>
</g>
<g>
</g>
<g>
</g>
<g>
</g>
<g>
</g>
<g>
</g>
<g>
</g>
<g>
</g>
<g>
</g>
<g>
</g>
<g>
</g>
<g>
</g>
<g>
</g>
<g>
</g>
</svg>
