<?xml version="1.0" encoding="iso-8859-1"?>
<!-- Generator: Adobe Illustrator 16.0.0, SVG Export Plug-In . SVG Version: 6.00 Build 0)  -->
<!DOCTYPE svg PUBLIC "-//W3C//DTD SVG 1.1//EN" "http://www.w3.org/Graphics/SVG/1.1/DTD/svg11.dtd">
<svg version="1.1" id="Capa_1" xmlns="http://www.w3.org/2000/svg" xmlns:xlink="http://www.w3.org/1999/xlink" x="0px" y="0px"
	 width="548.291px" height="548.291px" viewBox="0 0 548.291 548.291" style="enable-background:new 0 0 548.291 548.291;"
	 xml:space="preserve">
<g>
	<path d="M270.082,281.054c-2.871-9.531-5.725-21.441-8.105-30.969h-0.48c-2.375,9.528-4.756,21.675-7.38,30.969l-9.525,34.053
		h35.498L270.082,281.054z"/>
	<path d="M486.201,196.121h-13.166v-63.525c0-0.396-0.062-0.795-0.115-1.196c-0.021-2.523-0.825-5-2.552-6.964L364.657,3.677
		c-0.033-0.031-0.064-0.042-0.085-0.075c-0.63-0.704-1.364-1.29-2.143-1.796c-0.229-0.154-0.461-0.283-0.702-0.418
		c-0.672-0.366-1.387-0.671-2.121-0.892c-0.2-0.055-0.379-0.136-0.577-0.188C358.23,0.118,357.401,0,356.562,0H96.757
		C84.894,0,75.256,9.649,75.256,21.502v174.613H62.092c-16.971,0-30.732,13.756-30.732,30.733v159.812
		c0,16.968,13.761,30.731,30.732,30.731h13.164V526.79c0,11.854,9.638,21.501,21.501,21.501h354.776
		c11.853,0,21.501-9.647,21.501-21.501V417.392h13.166c16.966,0,30.729-13.764,30.729-30.731V226.854
		C516.93,209.877,503.167,196.121,486.201,196.121z M96.757,21.507h249.054v110.01c0,5.939,4.817,10.75,10.751,10.75h94.972v53.861
		H96.757V21.507z M336.771,383.469h-39.076l-12.379-41.208h-45.977l-11.428,41.208h-37.633l49.061-160.544h47.636L336.771,383.469z
		 M94.511,320.351v63.118H58.544V225.074c11.67-1.913,29.063-3.338,48.353-3.338c23.821,0,40.501,3.57,51.929,12.623
		c9.52,7.617,14.771,18.819,14.771,33.586c0,20.485-14.527,34.538-28.344,39.542v0.717c11.198,4.526,17.384,15.235,21.434,30.013
		c5.003,18.1,9.998,39.06,13.105,45.254h-37.155c-2.625-4.529-6.441-17.615-11.197-37.396
		c-4.289-20.007-11.192-25.492-25.964-25.723H94.511z M451.534,520.968H96.757V417.392h354.776V520.968z M442.315,383.469
		c-2.625-4.529-6.436-17.615-11.202-37.396c-4.278-20.007-11.196-25.492-25.952-25.723H394.2v63.118h-35.97V225.074
		c11.675-1.913,29.051-3.338,48.347-3.338c23.828,0,40.495,3.57,51.933,12.623c9.528,7.617,14.777,18.819,14.777,33.586
		c0,20.485-14.541,34.538-28.356,39.542v0.717c11.201,4.526,17.396,15.235,21.438,30.013c5.009,18.1,10.006,39.06,13.109,45.254
		H442.315z"/>
	<path d="M137.626,271.046c0-14.771-10.002-22.153-26.677-22.4c-8.816,0-13.814,0.714-16.444,1.192v44.297h14.294
		C126.913,294.146,137.626,285.095,137.626,271.046z"/>
	<path d="M410.64,248.651c-8.824,0-13.815,0.714-16.446,1.192v44.303h14.294c18.09,0,28.82-9.051,28.82-23.1
		C437.308,256.274,427.313,248.893,410.64,248.651z"/>
</g>
<g>
</g>
<g>
</g>
<g>
</g>
<g>
</g>
<g>
</g>
<g>
</g>
<g>
</g>
<g>
</g>
<g>
</g>
<g>
</g>
<g>
</g>
<g>
</g>
<g>
</g>
<g>
</g>
<g>
</g>
</svg>
