<?xml version="1.0" encoding="iso-8859-1"?>
<!-- Generator: Adobe Illustrator 16.0.0, SVG Export Plug-In . SVG Version: 6.00 Build 0)  -->
<!DOCTYPE svg PUBLIC "-//W3C//DTD SVG 1.1//EN" "http://www.w3.org/Graphics/SVG/1.1/DTD/svg11.dtd">
<svg version="1.1" id="Capa_1" xmlns="http://www.w3.org/2000/svg" xmlns:xlink="http://www.w3.org/1999/xlink" x="0px" y="0px"
	 width="550.801px" height="550.801px" viewBox="0 0 550.801 550.801" style="enable-background:new 0 0 550.801 550.801;"
	 xml:space="preserve">
<g>
	<path d="M488.426,197.019H475.2v-63.816c0-0.401-0.063-0.799-0.116-1.205c-0.021-2.534-0.827-5.023-2.562-6.992L366.325,3.691
		c-0.032-0.031-0.063-0.042-0.085-0.073c-0.633-0.707-1.371-1.298-2.151-1.804c-0.231-0.158-0.464-0.287-0.706-0.422
		c-0.676-0.366-1.393-0.675-2.131-0.896c-0.2-0.053-0.38-0.135-0.58-0.19C359.87,0.119,359.037,0,358.193,0H97.2
		c-11.918,0-21.6,9.693-21.6,21.601v175.413H62.377c-17.049,0-30.873,13.818-30.873,30.87v160.542
		c0,17.044,13.824,30.876,30.873,30.876h13.224V529.2c0,11.907,9.682,21.601,21.6,21.601h356.4c11.907,0,21.6-9.693,21.6-21.601
		V419.302h13.226c17.044,0,30.871-13.827,30.871-30.87V227.89C519.297,210.838,505.47,197.019,488.426,197.019z M97.2,21.605
		h250.193v110.51c0,5.967,4.841,10.8,10.8,10.8h95.407v54.108H97.2V21.605z M336.319,389.834h-39.256l-12.435-41.396h-46.185
		l-11.491,41.396h-37.811l49.302-161.275h47.851L336.319,389.834z M74.765,259.189v-30.63h123.957v30.63h-44.027v130.645h-36.616
		V259.189H74.765z M453.601,523.353H97.2V419.302h356.4V523.353z M442.336,389.834c-2.626-4.551-6.454-17.719-11.242-37.568
		c-4.314-20.097-11.249-25.597-26.088-25.85H394v63.418h-36.118V230.708c11.724-1.914,29.179-3.362,48.563-3.362
		c23.937,0,40.68,3.594,52.176,12.688c9.565,7.657,14.828,18.9,14.828,33.739c0,20.59-14.597,34.702-28.471,39.717v0.723
		c11.243,4.557,17.471,15.324,21.531,30.164c5.031,18.167,10.051,39.234,13.157,45.457H442.336z"/>
	<path d="M410.506,254.389c-8.849,0-13.874,0.717-16.517,1.205v44.508h14.359c18.193,0,28.957-9.098,28.957-23.214
		C437.311,262.056,427.26,254.631,410.506,254.389z"/>
	<path d="M269.31,286.923c-2.866-9.561-5.74-21.523-8.126-31.092h-0.48c-2.386,9.563-4.796,21.774-7.414,31.092l-9.579,34.235
		h35.656L269.31,286.923z"/>
</g>
<g>
</g>
<g>
</g>
<g>
</g>
<g>
</g>
<g>
</g>
<g>
</g>
<g>
</g>
<g>
</g>
<g>
</g>
<g>
</g>
<g>
</g>
<g>
</g>
<g>
</g>
<g>
</g>
<g>
</g>
</svg>
