<?xml version="1.0" standalone="no"?>
<!DOCTYPE svg PUBLIC "-//W3C//DTD SVG 1.1//EN" "http://www.w3.org/Graphics/SVG/1.1/DTD/svg11.dtd">
<svg xmlns="http://www.w3.org/2000/svg">
<metadata>BuddyBoss</metadata>
<defs>
<font id="round-lined" horiz-adv-x="1000" >
<font-face font-family="round-lined" font-weight="400" font-stretch="normal" units-per-em="1000" ascent="850" descent="-150" />
<missing-glyph horiz-adv-x="1000" />
<glyph glyph-name="brand-meetup" unicode="&#xe800;" d="M63 350c0 242 195 438 437 438 242 0 438-196 438-438 0-242-196-438-438-438-242 0-437 196-437 438z m437 500c-276 0-500-224-500-500 0-276 224-500 500-500 276 0 500 224 500 500 0 276-224 500-500 500z m-3-751c-12 0-21-9-21-21 0-11 9-20 21-20 11 0 20 9 20 20 0 12-9 21-20 21z m174 40c-17 0-31-14-31-30 0-17 14-31 31-31 17 0 31 14 31 31 0 16-14 30-31 30z m-370 40c-5 0-10-4-10-10 0-6 5-10 10-10 6 0 11 4 11 10 0 6-5 10-11 10z m483 181c-11 0-20-9-20-20 0-11 9-20 20-20 12 0 21 9 21 20 0 11-9 20-21 20z m-452 201c-11 0-20-9-20-20 0-11 9-20 20-20 12 0 21 9 21 20 0 11-9 20-21 20z m236 81c-17 0-30-14-30-30 0-17 13-31 30-31 18 0 31 14 31 31 0 16-13 30-31 30z m-208-141c-50-2-89-42-89-91 0-14 3-27 9-39-18-18-30-43-30-71 0-49 36-90 82-99l0-2c0-55 46-100 103-100 25 0 47 9 65 23 15-14 36-23 58-23 39 0 71 26 80 60 59 4 105 52 105 111 0 23-7 44-20 62 12 13 20 30 20 48 0 28-17 53-41 64 0 1 0 1 0 2 0 2 0 3 0 5 0 61-51 110-113 110-13 0-25-2-37-6-20 17-47 26-76 26-54 0-99-33-116-80z m167-85c6-1 10-4 15-9 0 0 1-1 2-2 4-3 6-2 9 0 0 0 0 0 1 0 0 0 0 0 0 0 4 2 7 4 18 4 12 0 25-5 28-25 2-11-7-30-16-50-9-21-19-43-18-56 1-10 10-11 19-12 8-1 17-3 18-11 3-22-40-14-50-9-15 7-25 25-21 42 2 7 10 24 18 40 7 15 14 29 15 33 1 9-3 9-6 9-4 1-6-1-10-6-2-4-20-39-32-62-5-11-9-19-10-20-10-19-36-16-33 3 0 2 5 14 10 27 7 16 14 33 15 38 0 4-1 10-6 12-4 3-10-1-12-4-1-2-9-23-18-44-9-23-18-47-20-50-6-11-12-14-22-14-22-2-38 17-31 39 1 2 2 5 3 10 7 23 23 78 33 94 7 13 27 23 41 17 7-3 18-8 20-10 6-2 13 4 16 7 1 0 1 1 1 1 6 5 10 8 16 8 2 1 5 1 7 0z" horiz-adv-x="1000" />

<glyph glyph-name="ball-soccer" unicode="&#xe801;" d="M500-88c-242 0-437 196-437 438 0 242 195 438 437 438 242 0 438-196 438-438 0-242-196-438-438-438z m-500 438c0-276 224-500 500-500 276 0 500 224 500 500 0 276-224 500-500 500-276 0-500-224-500-500z m411 67l-97 28-17 75c28 35 66 62 109 79l64-40 4-99-63-43z m-114-23l97-29 23-74-56-83-77 7c-26 37-41 82-44 129l57 50z m106-221l57 86h78l60-81-27-63c-24-8-49-12-76-12-23 0-45 3-66 9l-26 61z m240 36l-61 81 24 76 97 29 48-42c-1-51-17-99-45-139l-63-5z m-115 250l-4 98 68 39c44-18 81-48 109-85l-15-64-98-30-60 42z m-33 210c-171 0-310-139-310-310 0-171 139-310 310-310 171 0 310 139 310 310 0 171-139 310-310 310z" horiz-adv-x="1000" />

<glyph glyph-name="brand-onesignal" unicode="&#xe802;" d="M500 788c242 0 438-196 438-438 0-242-196-438-438-438-242 0-437 196-437 438 0 242 195 438 437 438z m500-438c0 276-224 500-500 500-276 0-500-224-500-500 0-276 224-500 500-500 276 0 500 224 500 500z m-208 0c0 161-131 292-292 292-161 0-292-131-292-292 0-111 63-208 155-257 29 27 66 45 108 51l0 4 0 0 0 38 0 0v70l0 21 0 0 0 73h-22v29h80l0-102 0 0 0-21v-70l0 0 0-38 0 0 0-4c42-6 79-24 108-51 92 49 155 146 155 257z m-496 0c0 113 91 204 204 204 113 0 204-91 204-204 0-92-61-171-146-196l0 40 7 3c59 25 101 84 101 153 0 92-74 166-166 166-92 0-166-74-166-166 0-71 45-132 108-156l0-40-7 3c-81 27-139 103-139 193z m87 0c0 64 53 117 117 117 64 0 117-53 117-117 0-43-24-81-59-101l0 48 4 4c11 14 17 31 17 49 0 44-35 79-79 79-43 0-79-35-79-79 0-20 8-39 21-53l0-48-6 3c-32 21-53 57-53 98z" horiz-adv-x="1000" />

<glyph glyph-name="calendar" unicode="&#xe803;" d="M500-88c-242 0-437 196-437 438 0 242 195 438 437 438 242 0 438-196 438-438 0-242-196-438-438-438z m-500 438c0-276 224-500 500-500 276 0 500 224 500 500 0 276-224 500-500 500-276 0-500-224-500-500z m382 281c-18 0-32-14-32-31v-26h-20c-44 0-80-38-80-84v-37h474v37c0 46-36 84-80 84h-21v26c0 17-14 31-31 31-17 0-31-14-31-31v-26h-148v26c0 17-14 31-31 31z m-132-233v-214c0-47 36-84 80-84h314c44 0 80 37 80 84v214h-474z" horiz-adv-x="1000" />

<glyph glyph-name="thumbtack" unicode="&#xe804;" d="M500 788c242 0 438-196 438-438 0-242-196-438-438-438-242 0-437 196-437 438 0 242 195 438 437 438z m500-438c0 276-224 500-500 500-276 0-500-224-500-500 0-276 224-500 500-500 276 0 500 224 500 500z m-350 291l-323 1-4-1c-12-1-21-12-21-24 0-14 11-25 25-25l43 0-11-221-2-1c-59-30-95-81-106-152l-1-9c-1-15 10-28 25-28l186 0 0-127 0-3c2-12 12-22 25-22 13 0 24 12 24 25l0 127 194 0c15 0 27 13 25 28l-1 9c-11 71-46 122-106 152l-2 1-11 221h41l4 0c12 2 21 12 21 25 0 13-11 24-25 24z" horiz-adv-x="1000" />

<glyph glyph-name="award-slash" unicode="&#xe805;" d="M491 524c58 0 105-48 105-108 0-16-3-32-10-46l87-79c12 12 19 30 15 47l0 4v0c-5 26-1 52 12 75l2 3 0 0c13 22 8 50-11 66l-2 2-5 4c-18 17-29 39-33 63l0 3c-4 25-26 44-51 43h-3c-26-1-51 9-71 26l-2 2c-1 1-3 2-4 3l-4 2c-15 10-35 10-51 0-3-1-5-3-7-5l-3-2c-19-17-45-27-70-26h-8c-11-1-21-6-29-13l88-80c16 10 35 16 55 16z m-27-358c-42-16-89 1-110 41l-2 3c-1 2-2 4-4 6l-37-103c0-1-1-3-1-5 1-7 7-13 14-13l52 2 38-35c1-1 3-2 4-2 7-3 15 1 18 8l36 101-5-1-3-2z m167 47l-1-1-1-1 0-1-1-3c-22-40-69-57-111-41l-3 1c-1 1-3 2-5 2l37-102 0-2c4-5 10-8 16-6 2 1 4 2 5 3l38 35 51-2h3c6 1 11 6 11 13 0 1 0 3-1 5l-33 96 56-51c9-8 23-8 31 1 8 9 8 23-1 31l-435 397c-9 8-23 7-31-2-8-9-8-22 1-31l53-48c-5-6-11-13-17-18l-2-2c-20-16-25-44-12-66v0l2-3c13-23 18-49 13-75v-1l-1-3c-4-21 5-41 22-52l3-2c3-2 5-3 8-4l2-1h0l1 0c24-9 45-26 57-50l2-2c12-22 38-32 62-23l2 1c25 9 52 9 76 0l3-1c23-9 50 0 62 23l1 2c2 4 5 8 7 11l30-27z m-140 95c-59 0-106 48-106 108 0 7 1 14 2 20l135-123c-10-3-20-5-31-5z m9 542c-276 0-500-224-500-500 0-276 224-500 500-500 276 0 500 224 500 500 0 276-224 500-500 500z m-437-500c0 242 195 438 437 438 242 0 438-196 438-438 0-242-196-438-438-438-242 0-437 196-437 438z" horiz-adv-x="1000" />

<glyph glyph-name="car-small" unicode="&#xe806;" d="M500-88c-242 0-437 196-437 438 0 242 195 438 437 438 242 0 438-196 438-438 0-242-196-438-438-438z m-500 438c0-276 224-500 500-500 276 0 500 224 500 500 0 276-224 500-500 500-276 0-500-224-500-500z m792-81v96c0 23-19 42-42 42h-91l-42 106c-7 16-22 27-39 27h-182c-17 0-33-11-39-27l-43-106h-64c-23 0-42-19-42-42v-96c0-9 6-16 13-19 13 44 55 77 104 77 50 0 92-33 104-79h142c12 46 54 79 104 79 49 0 91-33 104-77 7 3 13 10 13 19z m-167-21c-5-9-8-19-8-29 0-32 26-59 58-59 32 0 58 27 58 59 0 29-21 53-48 57-3 1-7 1-10 1-22 0-40-12-50-29h0z m-290 28c-3 1-7 1-10 1-22 0-40-12-50-29h0c-5-9-8-19-8-29 0-32 26-59 58-59 32 0 58 27 58 59 0 29-21 53-48 57z m139 209c13 0 25-11 25-25v-28h54c14 0 25-11 25-25 0-14-11-25-25-25h-79c-14 0-25 11-25 25v53c0 14 11 25 25 25z" horiz-adv-x="1000" />

<glyph glyph-name="brand-facebook-f" unicode="&#xe807;" d="M642 419h-102v69c0 29 14 57 60 57h46v90c0 0-42 7-82 7-83 0-138-51-138-142v-81h-93v-105h93v-256h114v256h85l17 105z m-142 431c-276 0-500-224-500-500 0-276 224-500 500-500 276 0 500 224 500 500 0 276-224 500-500 500z m-437-500c0 242 195 438 437 438 242 0 438-196 438-438 0-242-196-438-438-438-242 0-437 196-437 438z" horiz-adv-x="1000" />

<glyph glyph-name="angle-down" unicode="&#xe826;" d="M63 350c0 242 195 438 437 438 242 0 438-196 438-438 0-242-196-438-438-438-242 0-437 196-437 438z m437 500c-276 0-500-224-500-500 0-276 224-500 500-500 276 0 500 224 500 500 0 276-224 500-500 500z m-190-393c-13-13-13-34 0-47l166-167c13-13 35-13 48 0l166 167c13 13 13 34 0 47-13 13-34 13-47 0l-143-143-143 143c-13 13-34 13-47 0z" horiz-adv-x="1000" />

<glyph glyph-name="angle-right" unicode="&#xe827;" d="M500-88c-242 0-437 196-437 438 0 242 195 438 437 438 242 0 438-196 438-438 0-242-196-438-438-438z m-500 438c0-276 224-500 500-500 276 0 500 224 500 500 0 276-224 500-500 500-276 0-500-224-500-500z m393-190c13-13 34-13 47 0l167 166c13 13 13 35 0 48l-167 166c-13 13-34 13-47 0-13-13-13-34 0-47l143-143-143-143c-13-13-13-34 0-47z" horiz-adv-x="1000" />

<glyph glyph-name="times" unicode="&#xe828;" d="M63 350c0 242 195 438 437 438 242 0 438-196 438-438 0-242-196-438-438-438-242 0-437 196-437 438z m437 500c-276 0-500-224-500-500 0-276 224-500 500-500 276 0 500 224 500 500 0 276-224 500-500 500z m-195-703c16-15 41-15 56 0l150 150 149-150c16-15 41-15 56 0 16 16 16 41 0 56l-149 150 149 149c16 15 16 41 0 56-15 15-40 15-56 0l-149-149-150 149c-15 15-40 15-56 0-15-15-15-41 0-56l150-149-150-150c-15-15-15-40 0-56z" horiz-adv-x="1000" />

<glyph glyph-name="activity" unicode="&#xe854;" d="M500-88c-242 0-437 196-437 438 0 242 195 438 437 438 242 0 438-196 438-438 0-242-196-438-438-438z m-500 438c0-276 224-500 500-500 276 0 500 224 500 500 0 276-224 500-500 500-276 0-500-224-500-500z m750 125c0 69-56 125-125 125h-250c-69 0-125-56-125-125v-250c0-69 56-125 125-125h250c69 0 125 56 125 125v250z m-206 4c9 1 16-5 19-12l44-127h39c10 0 19-9 19-19 0-10-9-19-19-19h-44c-13 0-25 9-29 21l-24 69-38-165c-2-8-9-14-17-14-9-1-17 5-19 13l-35 110-10-18c-5-10-15-16-27-16h-49c-10 0-19 9-19 19 0 10 9 19 19 19h45l29 53c3 7 10 10 18 10 7-1 14-6 16-13l28-87 37 162c2 8 9 14 17 14z" horiz-adv-x="1000" />

<glyph glyph-name="question-triangle" unicode="&#xe855;" d="M500-88c-242 0-437 196-437 438 0 242 195 438 437 438 242 0 438-196 438-438 0-242-196-438-438-438z m-500 438c0-276 224-500 500-500 276 0 500 224 500 500 0 276-224 500-500 500-276 0-500-224-500-500z m433 253c20 36 67 49 104 30 12-7 23-18 30-30l215-384c21-36 7-82-30-102-12-6-24-9-37-9h-430c-42 0-77 33-77 75 0 13 4 25 10 36l215 384z m88-375c0 14-11 25-25 25-13 0-24-11-24-25 0-13 11-24 24-24 14 0 25 11 25 24z m-21 185c3 0 6-1 8-2 2-1 4-2 5-3 2-1 3-2 3-4 1-1 1-3 2-7 0-5-2-12-11-23-2-2-5-5-7-7l-2-3 0 0c-3-2-4-4-6-5-4-4-8-10-12-15-4-6-7-13-9-20-2-8-3-16-3-24v-6c0-13 11-25 25-25 14 0 25 12 25 25v6c0 4 1 7 1 10 1 3 2 5 3 7 2 3 4 5 6 7 1 1 4 4 6 6l2 2c3 3 5 6 6 7l1 1 1 1c15 16 24 36 24 57-1 8-2 18-6 27-4 8-9 15-15 21-7 5-14 10-22 12-8 3-16 5-25 5-18 0-34-6-47-19-12-11-19-26-21-42-3-14 7-27 20-29 14-2 27 7 29 21 1 7 4 11 7 15 2 2 5 4 12 4z" horiz-adv-x="1000" />

<glyph glyph-name="align-center" unicode="&#xe856;" d="M500 788c242 0 438-196 438-438 0-242-196-438-438-438-242 0-437 196-437 438 0 242 195 438 437 438z m500-438c0 276-224 500-500 500-276 0-500-224-500-500 0-276 224-500 500-500 276 0 500 224 500 500z m-708 33c-19 0-34-15-34-33 0-18 15-33 34-33h416c19 0 34 15 34 33 0 18-15 33-34 33h-416z m71 134c0-19 14-34 33-34h208c19 0 34 15 34 34 0 18-15 33-34 33h-208c-19 0-33-15-33-33z m33-300c-19 0-33-15-33-34 0-18 14-33 33-33h208c19 0 34 15 34 33 0 19-15 34-34 34h-208z" horiz-adv-x="1000" />

<glyph glyph-name="airplay" unicode="&#xe857;" d="M500-88c-242 0-437 196-437 438 0 242 195 438 437 438 242 0 438-196 438-438 0-242-196-438-438-438z m-500 438c0-276 224-500 500-500 276 0 500 224 500 500 0 276-224 500-500 500-276 0-500-224-500-500z m219 129v-194c0-48 39-87 87-87 17 0 31 14 31 31 0 17-14 31-31 31-14 0-25 11-25 25v194c0 29 24 52 52 52h334c28 0 52-23 52-52v-194c0-14-11-25-25-25-17 0-31-14-31-31 0-17 14-31 31-31 48 0 87 39 87 87v194c0 63-51 115-114 115h-334c-63 0-114-52-114-115z m306-182c-13 15-37 15-50 0l-94-110c-19-22-4-55 25-55h188c29 0 44 33 26 55l-95 110z" horiz-adv-x="1000" />

<glyph glyph-name="align-justify" unicode="&#xe858;" d="M500 788c242 0 438-196 438-438 0-242-196-438-438-438-242 0-437 196-437 438 0 242 195 438 437 438z m500-438c0 276-224 500-500 500-276 0-500-224-500-500 0-276 224-500 500-500 276 0 500 224 500 500z m-708 33c-19 0-34-15-34-33 0-18 15-33 34-33h416c19 0 34 15 34 33 0 18-15 33-34 33h-416z m-34 134c0-19 15-34 34-34h416c19 0 34 15 34 34 0 18-15 33-34 33h-416c-19 0-34-15-34-33z m34-300c-19 0-34-15-34-34 0-18 15-33 34-33h416c19 0 34 15 34 33 0 19-15 34-34 34h-416z" horiz-adv-x="1000" />

<glyph glyph-name="align-left" unicode="&#xe859;" d="M500 788c242 0 438-196 438-438 0-242-196-438-438-438-242 0-437 196-437 438 0 242 195 438 437 438z m500-438c0 276-224 500-500 500-276 0-500-224-500-500 0-276 224-500 500-500 276 0 500 224 500 500z m-708 33c-19 0-34-15-34-33 0-18 15-33 34-33h208c18 0 33 15 33 33 0 18-15 33-33 33h-208z m-34 134c0-19 15-34 34-34h416c19 0 34 15 34 34 0 18-15 33-34 33h-416c-19 0-34-15-34-33z m34-300c-19 0-34-15-34-34 0-18 15-33 34-33h416c19 0 34 15 34 33 0 19-15 34-34 34h-416z" horiz-adv-x="1000" />

<glyph glyph-name="align-right" unicode="&#xe85a;" d="M500-88c-242 0-437 196-437 438 0 242 195 438 437 438 242 0 438-196 438-438 0-242-196-438-438-438z m-500 438c0-276 224-500 500-500 276 0 500 224 500 500 0 276-224 500-500 500-276 0-500-224-500-500z m708-33c19 0 34 15 34 33 0 18-15 33-34 33l-208 0c-18 0-33-15-33-33 0-18 15-33 33-33l208 0z m34-134c0 19-15 34-34 34l-416 0c-19 0-34-15-34-34 0-18 15-33 34-33h416c19 0 34 15 34 33z m-34 300c19 0 34 15 34 34 0 18-15 33-34 33l-416 0c-19 0-34-15-34-33 0-19 15-34 34-34l416 0z" horiz-adv-x="1000" />

<glyph glyph-name="anchor" unicode="&#xe85d;" d="M500-88c-242 0-437 196-437 438 0 242 195 438 437 438 242 0 438-196 438-438 0-242-196-438-438-438z m-500 438c0-276 224-500 500-500 276 0 500 224 500 500 0 276-224 500-500 500-276 0-500-224-500-500z m659-55h32c-14-81-78-145-158-159v275c37 13 64 49 64 91 0 54-43 98-97 98-54 0-97-44-97-98 0-42 26-78 63-91v-275c-80 14-143 78-157 159h31c19 0 34 15 34 33 0 18-15 33-34 33h-67c-18 0-33-15-33-33 0-144 116-261 260-261 144 0 260 117 260 261 0 18-15 33-33 33h-68c-18 0-33-15-33-33 0-18 15-33 33-33z" horiz-adv-x="1000" />

<glyph glyph-name="brand-aperture" unicode="&#xe85e;" d="M500-88c-242 0-437 196-437 438 0 242 195 438 437 438 242 0 438-196 438-438 0-242-196-438-438-438z m-500 438c0-276 224-500 500-500 276 0 500 224 500 500 0 276-224 500-500 500-276 0-500-224-500-500z m305 195c-8-7-15-15-21-23l63-116 128 219c-62-6-123-32-170-80z m-59-304h130l-51 93c-2 2-3 4-4 7l-70 128c-35-71-36-155-5-228z m59-86c44-45 101-71 159-79l64 111h-251c8-11 18-22 28-32z m390 0c10 9 19 19 26 30l-66 114-129-224c62 6 122 32 169 80z m57 308h-129l130-225c31 72 31 154-1 225z m-277 54h245c-7 10-16 20-25 28-44 45-100 71-159 79l-61-107z" horiz-adv-x="1000" />

<glyph glyph-name="arrow-left" unicode="&#xe85f;" d="M500 788c242 0 438-196 438-438 0-242-196-438-438-438-242 0-437 196-437 438 0 242 195 438 437 438z m500-438c0 276-224 500-500 500-276 0-500-224-500-500 0-276 224-500 500-500 276 0 500 224 500 500z m-756 0c0-18 15-33 34-33h444c19 0 34 15 34 33 0 18-15 33-34 33h-444c-19 0-34-15-34-33z m10-24l167-166c13-13 34-13 47 0 13 13 13 34 0 47l-143 143 143 143c13 13 13 34 0 47-13 13-34 13-47 0l-167-166c-13-13-13-35 0-48z" horiz-adv-x="1000" />

<glyph glyph-name="arrow-right" unicode="&#xe860;" d="M500 788c242 0 438-196 438-438 0-242-196-438-438-438-242 0-437 196-437 438 0 242 195 438 437 438z m-500-438c0-276 224-500 500-500 276 0 500 224 500 500 0 276-224 500-500 500-276 0-500-224-500-500z m756 0c0 18-15 33-34 33h-444c-19 0-33-15-33-33 0-18 14-33 33-33h444c19 0 34 15 34 33z m-10-24c13 13 13 35 0 48l-167 166c-13 13-34 13-47 0-13-13-13-34 0-47l143-143-143-143c-13-13-13-34 0-47 13-13 34-13 47 0l167 166z" horiz-adv-x="1000" />

<glyph glyph-name="arrow-down" unicode="&#xe861;" d="M500-83c-239 0-433 194-433 433 0 239 194 433 433 433 239 0 433-194 433-433 0-239-194-433-433-433z m490 433c0 271-219 490-490 490-271 0-490-219-490-490 0-271 219-490 490-490 271 0 490 219 490 490z m-490-236c17 0 31 14 31 31v410c0 17-14 31-31 31-17 0-31-14-31-31v-410c0-17 14-31 31-31z m22 9l154 154c12 12 12 32 0 44-12 12-32 12-44 0l-132-133-132 133c-12 12-31 12-44 0-12-12-12-32 0-44l154-154c12-12 32-12 44 0z" horiz-adv-x="1000" />

<glyph glyph-name="arrow-up" unicode="&#xe864;" d="M500 791c244 0 441-197 441-441 0-244-197-441-441-441-244 0-441 197-441 441 0 244 197 441 441 441z m-500-441c0-276 224-500 500-500 276 0 500 224 500 500 0 276-224 500-500 500-276 0-500-224-500-500z m500 241c-17 0-31-14-31-32v-418c0-17 14-31 31-31 17 0 31 14 31 31v418c0 18-14 32-31 32z m-22-10l-157-156c-12-13-12-33 0-45 12-12 32-12 44 0l135 135 135-135c12-12 32-12 44 0 12 12 12 32 0 45l-157 156c-12 13-32 13-44 0z" horiz-adv-x="1000" />

<glyph glyph-name="award" unicode="&#xe865;" d="M690 113l-37 103c-1-2-3-4-4-6l-1-3c-22-40-69-57-111-41l-3 1c-1 1-3 1-4 2l36-102 1-2c3-5 10-8 16-6 2 1 3 2 5 3l38 35 51-2 2 0c7 1 12 6 12 13 0 2 0 3-1 5z m-318 97c-1 2-3 4-4 6l-37-103c0-2-1-3-1-5 1-7 7-13 14-13l52 2 38-35c1-1 2-2 4-3 7-2 15 1 17 8l37 102-5-2-3-1c-42-16-89 1-110 41l-2 3z m168 422l-4 3c-15 9-35 9-51 0-3-2-5-4-7-6l-3-2c-19-17-45-27-71-26l-3 0-4 0c-23-2-42-20-46-43l-1-4c-4-26-17-49-37-66l-3-2c-19-16-24-44-11-66l0-1 2-2c13-23 18-49 13-75l-1-4c-4-20 5-41 21-52l4-2c2-2 5-3 8-4l2-1 0 0 1 0c24-9 45-26 58-49l1-3c12-22 39-32 62-23l3 1c24 9 51 9 75 0l3-1c24-9 50 1 62 23l2 3c12 23 33 40 57 49l1 0 0 0 2 1c3 1 6 2 8 4l4 2c16 11 25 32 21 52l-1 4c-4 26 0 52 13 75l2 2 0 1c13 22 8 50-11 66l-2 2-5 4c-18 17-29 38-33 62l-1 4c-4 25-25 43-50 43l-3 0c-26-1-52 9-71 26l-3 2c-1 1-2 2-3 3z m-135-216c0 59 47 108 106 108 58 0 105-49 105-108 0-60-47-108-105-108-59 0-106 48-106 108z m-405-66c0-276 224-500 500-500 276 0 500 224 500 500 0 276-224 500-500 500-276 0-500-224-500-500z m500-438c-242 0-437 196-437 438 0 242 195 438 437 438 242 0 438-196 438-438 0-242-196-438-438-438z" horiz-adv-x="1000" />

<glyph glyph-name="at" unicode="&#xe867;" d="M63 350c0 242 195 438 437 438 242 0 438-196 438-438 0-242-196-438-438-438-242 0-437 196-437 438z m437 500c-276 0-500-224-500-500 0-276 224-500 500-500 276 0 500 224 500 500 0 276-224 500-500 500z m0-242c143 0 258-115 258-258v-49c0-31-26-57-57-57-32 0-58 26-58 57v49c0 79-64 143-143 143-79 0-143-64-143-143 0-79 64-143 143-143 35 0 67 13 92 34 21-38 62-64 109-64 68 0 124 56 124 124v49c0 180-145 325-325 325-179 0-325-145-325-325 0-179 146-325 325-325 42 0 84 8 124 25 17 7 26 26 19 43-8 17-27 25-44 18-32-13-66-19-99-19-143 0-258 115-258 258 0 143 115 258 258 258z m76-258c0-42-34-76-76-76-42 0-76 34-76 76 0 42 34 76 76 76 42 0 76-34 76-76z" horiz-adv-x="1000" />

<glyph glyph-name="chart-bar-v" unicode="&#xe868;" d="M219 183c0-17 14-31 31-31h500c17 0 31 14 31 31 0 18-14 32-31 32h-52v250c0 17-14 31-31 31h-60c-17 0-31-14-31-31v-250h-31v406c0 18-13 31-31 31h-59c-17 0-31-13-31-31v-406h-31v328c0 17-14 31-31 31h-60c-17 0-31-14-31-31v-328h-21c-17 0-31-14-31-32z m-219 167c0-276 224-500 500-500 276 0 500 224 500 500 0 276-224 500-500 500-276 0-500-224-500-500z m500-438c-242 0-437 196-437 438 0 242 195 438 437 438 242 0 438-196 438-438 0-242-196-438-438-438z" horiz-adv-x="1000" />

<glyph glyph-name="battery" unicode="&#xe869;" d="M938 350c0-242-196-438-438-438-242 0-437 196-437 438 0 242 195 438 437 438 242 0 438-196 438-438z m-438-500c276 0 500 224 500 500 0 276-224 500-500 500-276 0-500-224-500-500 0-276 224-500 500-500z m260 526v-47h-41v47c0 0 0 0 0 0l41 0z m-41-110c0 0 0 0 0 0h52c29 0 52 24 52 52v68c0 29-23 52-52 52l-52 0c0 0 0 0-1 0-4 42-39 75-83 75h-80l-100-130h82c12 0 22-6 28-17 5-11 3-24-4-33l-118-148h192c46 0 83 36 84 81z m-427-81h71l109 136h-81c-12 0-23 7-28 18-6 10-4 23 3 32l110 142h-184c-46 0-84-37-84-83v-162c0-46 38-83 84-83z" horiz-adv-x="1000" />

<glyph glyph-name="bell-slash" unicode="&#xe86a;" d="M938 350c0-242-196-438-438-438-242 0-437 196-437 438 0 242 195 438 437 438 242 0 438-196 438-438z m-438-500c276 0 500 224 500 500 0 276-224 500-500 500-276 0-500-224-500-500 0-276 224-500 500-500z m-175 769c-8 0-15-3-21-9-13-12-13-31-1-44l26-28c-13-26-21-56-21-87l0-101c-33-9-58-39-58-75 0-42 35-77 77-77h332l38-39c12-12 32-12 44 0 6 6 10 14 10 23-9-1-17 3-23 9l-337 346-58 61c-5 6-8 13-8 21z m420-356c1 4 1 8 1 12 0 35-24 65-56 74l0 102c0 105-85 191-191 191-35 0-68-10-96-26l33-36 309-317z m-336-95c-16-7-22-26-15-41l1-2c2-4 7-13 11-19 20-30 54-49 93-49 48 0 89 29 105 71 7 16-1 34-17 41-16 6-34-2-41-18-7-19-26-32-47-32-17 0-33 9-42 22l0 0 0 1c0 0 0 0-1 1 0 0-1 2-1 3-1 2-2 4-3 5l-1 3c-8 15-26 22-42 14z" horiz-adv-x="1000" />

<glyph glyph-name="battery-empty" unicode="&#xe86b;" d="M938 350c0-242-196-438-438-438-242 0-437 196-437 438 0 242 195 438 437 438 242 0 438-196 438-438z m-438-500c276 0 500 224 500 500 0 276-224 500-500 500-276 0-500-224-500-500 0-276 224-500 500-500z m302 600c-21 0-37-17-37-37v-125c0-21 16-38 37-38 21 0 38 17 38 38v125c0 20-17 37-38 37z m-514 21h361c11 0 24-10 24-27v-188c0-17-13-27-24-27h-361c-10 0-23 10-23 27v188c0 17 13 27 23 27z m-90-27v-188c0-51 40-93 90-93h361c50 0 91 42 91 93v188c0 52-41 94-91 94h-361c-50 0-90-42-90-94z" horiz-adv-x="1000" />

<glyph glyph-name="bluetooth" unicode="&#xe86c;" d="M500-88c-242 0-437 196-437 438 0 242 195 438 437 438 242 0 438-196 438-438 0-242-196-438-438-438z m-500 438c0-276 224-500 500-500 276 0 500 224 500 500 0 276-224 500-500 500-276 0-500-224-500-500z m526 274c-10 9-24 12-37 7-12-5-20-18-20-31v-171l-71 70c-13 13-34 13-47-1-13-13-12-34 1-47l103-101-103-101c-13-13-14-34-1-47 13-13 34-14 47-1l71 70v-171c0-13 8-25 20-31 13-5 27-2 37 7l127 125c6 7 10 15 10 24 0 9-4 18-10 24l-103 101 103 101c6 7 10 15 10 24 0 9-4 18-10 24l-127 125z m56-399l-46-46v92l46-46z m-46 296l46-46-46-46v92z" horiz-adv-x="1000" />

<glyph glyph-name="bell" unicode="&#xe86d;" d="M63 350c0 242 195 438 437 438 242 0 438-196 438-438 0-242-196-438-438-438-242 0-437 196-437 438z m437 500c-276 0-500-224-500-500 0-276 224-500 500-500 276 0 500 224 500 500 0 276-224 500-500 500z m0-250c-95 0-173-77-173-172l0-91c-30-8-52-35-52-68 0-38 31-69 70-69h308c39 0 70 31 70 69 0 32-21 59-51 67l0 92c0 95-77 172-172 172z m-81-428c-13-7-19-23-13-36 1-1 1-1 1-2 2-4 6-12 10-17 18-27 48-44 83-44 43 0 79 26 94 64 5 14-1 29-15 35-14 5-30-1-35-15-7-18-24-30-44-30-16 0-30 8-39 20-1 2-3 5-5 10 0 1 0 1-1 2-6 14-22 19-36 13z" horiz-adv-x="1000" />

<glyph glyph-name="book" unicode="&#xe86e;" d="M375 642c-69 0-125-56-125-125v-260c24 19 55 31 88 31h398c3 0 7-1 10-1v313c0 23-19 42-42 42h-329z m27-148h189c15 0 27-12 27-27 0-15-12-27-27-27h-189c-15 0-27 12-27 27 0 15 12 27 27 27z m-27-115c0 15 12 27 27 27h189c15 0 27-12 27-27 0-15-12-27-27-27h-189c-15 0-27 12-27 27z m-125-233c0-38 24-70 57-82 9-4 20-6 31-6h397c6 0 10 5 9 11-4 17-7 30-9 43l0 1c-4 32-1 57 9 110 1 6-3 10-8 10h-398c-49 0-88-38-88-87v0z m-250 204c0-276 224-500 500-500 276 0 500 224 500 500 0 276-224 500-500 500-276 0-500-224-500-500z m500-438c-242 0-437 196-437 438 0 242 195 438 437 438 242 0 438-196 438-438 0-242-196-438-438-438z" horiz-adv-x="1000" />

<glyph glyph-name="briefcase" unicode="&#xe86f;" d="M63 350c0 242 195 438 437 438 242 0 438-196 438-438 0-242-196-438-438-438-242 0-437 196-437 438z m437 500c-276 0-500-224-500-500 0-276 224-500 500-500 276 0 500 224 500 500 0 276-224 500-500 500z m-138-347h-29c-46 0-83-37-83-83v-223c0-46 37-83 83-83h334c46 0 83 37 83 83v223c0 46-37 83-83 83h-29c-3 61-54 110-116 110h-44c-62 0-113-49-116-110z m54 0c3 32 30 56 62 56h44c32 0 59-24 62-56h-168z m-27-84c15 0 27-12 27-27v-173c0-15-12-27-27-27-15 0-27 12-27 27v173c0 15 12 27 27 27z m222 0c15 0 27-12 27-27v-173c0-15-12-27-27-27-15 0-27 12-27 27v173c0 15 12 27 27 27z" horiz-adv-x="1000" />

<glyph glyph-name="camera-slash" unicode="&#xe870;" d="M500-88c-242 0-437 196-437 438 0 242 195 438 437 438 242 0 438-196 438-438 0-242-196-438-438-438z m-500 438c0-276 224-500 500-500 276 0 500 224 500 500 0 276-224 500-500 500-276 0-500-224-500-500z m228 240c-12-12-12-32 0-44l68-68c-27-16-46-46-46-81v-177c0-52 42-94 94-94h304l58-58c12-12 32-12 44 0 12 12 12 32 0 44l-478 478c-12 12-32 12-44 0z m272-316l51-51c-42-21-94-14-129 21-35 35-42 87-21 129l51-51c0-12 5-25 14-34 10-10 22-14 34-14z m110 42l133-133c4 12 7 24 7 37v177c0 52-42 94-94 94h-17l-25 49c-10 22-32 35-56 35h-117c-24 0-45-13-56-34l107-106c31 2 63-9 86-33 24-24 34-55 32-86z" horiz-adv-x="1000" />

<glyph glyph-name="bookmark" unicode="&#xe872;" d="M63 350c0 242 195 438 437 438 242 0 438-196 438-438 0-242-196-438-438-438-242 0-437 196-437 438z m437 500c-276 0-500-224-500-500 0-276 224-500 500-500 276 0 500 224 500 500 0 276-224 500-500 500z m-179-321v-393c0-27 26-45 48-32 53 32 130 79 130 79 0 0 78-47 131-79 22-13 48 5 48 32v393c0 39-32 71-71 71h-215c-39 0-71-32-71-71z" horiz-adv-x="1000" />

<glyph glyph-name="cube" unicode="&#xe873;" d="M500 788c242 0 438-196 438-438 0-242-196-438-438-438-242 0-437 196-437 438 0 242 195 438 437 438z m500-438c0 276-224 500-500 500-276 0-500-224-500-500 0-276 224-500 500-500 276 0 500 224 500 500z m-240-117v233l-226-128c-2-1-5-2-7-3v-270c1 0 1 1 2 1l202 117c18 10 29 29 29 50z m-29 284l-202 117c-18 10-40 10-58 0l-202-117c-1 0-2-1-2-1l226-131c4-2 10-2 14 0l229 129c-2 1-3 2-5 3z m-265-178l-226 130c0-1 0-1 0-2v-234c0-21 11-40 29-50l202-117c1 0 1-1 2-1v270c-3 1-5 2-7 4z" horiz-adv-x="1000" />

<glyph glyph-name="checkbox" unicode="&#xe875;" d="M63 350c0 242 195 438 437 438 242 0 438-196 438-438 0-242-196-438-438-438-242 0-437 196-437 438z m437 500c-276 0-500-224-500-500 0-276 224-500 500-500 276 0 500 224 500 500 0 276-224 500-500 500z m242-323c-12 12-32 12-44 0l-178-178c-13-12-32-12-45 0l-67 67c-12 12-32 12-44 0-12-13-12-32 0-45l67-66c37-37 96-37 133 0l178 178c12 12 12 32 0 44z m-388 104c-75 0-135-60-135-135v-292c0-75 60-135 135-135h292c75 0 135 60 135 135v102c0 17-14 31-31 31-17 0-31-14-31-31v-102c0-40-33-73-73-73h-292c-40 0-73 33-73 73v292c0 40 33 73 73 73h146c17 0 31 14 31 31 0 17-14 31-31 31h-146z" horiz-adv-x="1000" />

<glyph glyph-name="check" unicode="&#xe876;" d="M63 350c0 242 196 438 437 438 242 0 438-196 438-438 0-242-196-438-438-438-241 0-437 196-437 438z m437 500c-276 0-500-224-500-500 0-276 224-500 500-500 276 0 500 224 500 500 0 276-224 500-500 500z m232-351c-13 13-34 13-47 0l-263-263-107 106c-13 13-34 13-47 0-13-13-13-34 0-47l130-130c13-13 35-13 48 0l286 286c13 13 13 35 0 48z" horiz-adv-x="1042" />

<glyph glyph-name="cast" unicode="&#xe878;" d="M63 350c0 242 195 438 437 438 242 0 438-196 438-438 0-242-196-438-438-438-242 0-437 196-437 438z m437 500c-276 0-500-224-500-500 0-276 224-500 500-500 276 0 500 224 500 500 0 276-224 500-500 500z m-271-358v0-15c0-17 14-31 31-31 17 0 31 14 31 31v15h-31l31 0c0 25 21 46 46 46h351c28 0 52-23 52-52l0-251c0-28-24-52-52-52l-87 0c-18 0-32-14-32-31 0-18 14-32 32-31l87 0c63 0 114 51 114 114l0 251c0 63-51 114-114 114h-351c-60 0-108-48-108-108z m31-170c-17 0-31-14-31-31 0-17 14-31 31-31 36 0 62-11 80-29 17-17 28-43 28-79 0-17 14-31 31-31 18 0 32 14 32 31 0 49-16 92-47 124-31 31-74 46-124 46z m-31 62c0-17 14-31 31-31 65 0 119-21 156-55 37-34 61-83 61-146 0-17 14-31 31-31 17 0 31 14 31 31 0 79-30 146-81 192-50 47-120 71-198 71-17 0-31-14-31-31z m40-251c23 0 41 18 41 40 0 23-18 41-41 41-22 0-40-18-40-41 0-22 18-40 40-40z" horiz-adv-x="1000" />

<glyph glyph-name="angle-up" unicode="&#xe87c;" d="M938 350c0-242-196-438-438-438-242 0-437 196-437 438 0 242 195 438 437 438 242 0 438-196 438-438z m-438-500c276 0 500 224 500 500 0 276-224 500-500 500-276 0-500-224-500-500 0-276 224-500 500-500z m190 393c13 13 13 34 0 47l-166 167c-13 13-35 13-48 0l-166-167c-13-13-13-34 0-47 13-13 34-13 47 0l143 143 143-143c13-13 34-13 47 0z" horiz-adv-x="1000" />

<glyph glyph-name="angle-double-down" unicode="&#xe87d;" d="M63 350c0 242 195 438 437 438 242 0 438-196 438-438 0-242-196-438-438-438-242 0-437 196-437 438z m437 500c-276 0-500-224-500-500 0-276 224-500 500-500 276 0 500 224 500 500 0 276-224 500-500 500z m157-510c-13 13-34 13-47 0l-110-109-110 109c-13 13-34 13-47 0-13-13-13-34 0-47l133-133c13-13 35-13 48 0l133 133c13 13 13 34 0 47z m0 128c13 13 13 34 0 47-13 13-34 13-47 0l-110-109-110 109c-13 13-34 13-47 0-13-13-13-34 0-47l133-133c13-13 35-13 48 0l133 133z" horiz-adv-x="1000" />

<glyph glyph-name="angle-double-right" unicode="&#xe87e;" d="M500-88c-242 0-437 196-437 438 0 242 195 438 437 438 242 0 438-196 438-438 0-242-196-438-438-438z m-500 438c0-276 224-500 500-500 276 0 500 224 500 500 0 276-224 500-500 500-276 0-500-224-500-500z m510 157c-13-13-13-34 0-47l110-110-110-110c-13-13-13-34 0-47 13-13 34-13 47 0l133 133c13 13 13 35 0 48l-133 133c-13 13-34 13-47 0z m-128 0c-13 13-34 13-47 0-13-13-13-34 0-47l110-110-110-110c-13-13-13-34 0-47 13-13 34-13 47 0l133 133c13 13 13 35 0 48l-133 133z" horiz-adv-x="1000" />

<glyph glyph-name="angle-double-up" unicode="&#xe87f;" d="M938 350c0-242-196-438-438-438-242 0-437 196-437 438 0 242 195 438 437 438 242 0 438-196 438-438z m-438-500c276 0 500 224 500 500 0 276-224 500-500 500-276 0-500-224-500-500 0-276 224-500 500-500z m-157 510c13-13 34-13 47 0l110 110 110-110c13-13 34-13 47 0 13 13 13 34 0 47l-133 133c-13 13-35 13-48 0l-133-133c-13-13-13-34 0-47z m0-128c-13-13-13-34 0-47 13-13 34-13 47 0l110 110 110-110c13-13 34-13 47 0 13 13 13 34 0 47l-133 133c-13 13-35 13-48 0l-133-133z" horiz-adv-x="1000" />

<glyph glyph-name="angle-double-left" unicode="&#xe880;" d="M500 788c242 0 438-196 438-438 0-242-196-438-438-438-242 0-437 196-437 438 0 242 195 438 437 438z m500-438c0 276-224 500-500 500-276 0-500-224-500-500 0-276 224-500 500-500 276 0 500 224 500 500z m-510-157c13 13 13 34 0 47l-109 110 109 110c13 13 13 34 0 47-13 13-34 13-47 0l-133-133c-13-13-13-34 0-48l133-133c13-13 34-13 47 0z m128 0c13-13 34-13 47 0 13 13 13 34 0 47l-109 110 109 110c13 13 13 34 0 47-13 13-34 13-47 0l-133-133c-13-13-13-34 0-48l133-133z" horiz-adv-x="1000" />

<glyph glyph-name="circle" unicode="&#xe881;" d="M792 350c0 161-131 292-292 292-161 0-292-131-292-292 0-161 131-292 292-292 161 0 292 131 292 292z m-729 0c0 242 195 438 437 438 242 0 438-196 438-438 0-242-196-438-438-438-242 0-437 196-437 438z m437 500c-276 0-500-224-500-500 0-276 224-500 500-500 276 0 500 224 500 500 0 276-224 500-500 500z" horiz-adv-x="1000" />

<glyph glyph-name="clipboard" unicode="&#xe882;" d="M63 350c0 242 195 438 437 438 242 0 438-196 438-438 0-242-196-438-438-438-242 0-437 196-437 438z m437 500c-276 0-500-224-500-500 0-276 224-500 500-500 276 0 500 224 500 500 0 276-224 500-500 500z m-187-298c-27-7-46-32-46-60v-371c0-35 28-63 62-63h342c34 0 62 28 62 63v371c0 28-19 53-45 60v-14c0-42-37-68-71-68h-234c-34 0-70 26-70 68v14z m50-341c0 12 9 21 20 21h234c11 0 21-9 21-21 0-11-10-21-21-21h-234c-11 0-20 10-20 21z m20 147h234c11 0 21-9 21-20 0-12-10-21-21-21h-234c-11 0-20 9-20 21 0 11 9 20 20 20z m-29 196l0-16c0-14 13-26 29-26h234c16 0 29 12 29 26v16h-292z m46 36h-17c-16 0-29-12-29-26v-26c0-14 13-26 29-26h234c16 0 29 12 29 26v26c0 14-13 26-29 26h-17c-8 0-15 4-18 10l-7 13c-10 18-31 29-53 29h-44c-22 0-43-11-52-29l-7-13c-4-6-11-10-19-10z" horiz-adv-x="1000" />

<glyph glyph-name="brand-chrome" unicode="&#xe883;" d="M500-88c-242 0-437 196-437 438 0 242 195 438 437 438 242 0 438-196 438-438 0-242-196-438-438-438z m-500 438c0-276 224-500 500-500 276 0 500 224 500 500 0 276-224 500-500 500-276 0-500-224-500-500z m502-276c69 3 138 30 191 83 82 82 103 201 64 303l-147 0c44-51 50-124 17-180l0-1-125-205z m-145 206l-120 203c-52-106-34-238 55-326 42-42 94-68 149-78l77 125c-48-8-99 7-136 44-10 9-18 20-25 32z m202 155c-19 16-42 25-65 25l-2 0c-26 0-52-10-72-30-40-40-40-104 0-144 40-40 104-40 144 0 38 38 40 99 5 139l-5 5-5 5z m170 79c-10 16-22 31-36 45-111 110-291 110-401 0-8-8-16-16-22-25l74-126c8 22 20 43 38 60 29 30 67 45 106 46l241 0z" horiz-adv-x="1000" />

<glyph glyph-name="clock" unicode="&#xe884;" d="M500-88c-242 0-437 196-437 438 0 242 195 438 437 438 242 0 438-196 438-438 0-242-196-438-438-438z m-500 438c0-276 224-500 500-500 276 0 500 224 500 500 0 276-224 500-500 500-276 0-500-224-500-500z m500-292c161 0 292 131 292 292 0 161-131 292-292 292-161 0-292-131-292-292 0-161 131-292 292-292z m0 426c14 0 25-11 25-25v-116h84c14 0 25-12 25-25 0-14-11-25-25-25h-109c-14 0-25 11-25 25v141c0 14 11 25 25 25z" horiz-adv-x="1000" />

<glyph glyph-name="cloud-lightning" unicode="&#xe885;" d="M500-88c-242 0-437 196-437 438 0 242 195 438 437 438 242 0 438-196 438-438 0-242-196-438-438-438z m-500 438c0-276 224-500 500-500 276 0 500 224 500 500 0 276-224 500-500 500-276 0-500-224-500-500z m426 204c79 0 144-52 160-121 2-8 7-16 15-21 7-4 16-6 25-4 11 3 17 4 22 4 52 0 90-38 90-85 0-19-7-36-17-50-12-15-9-36 6-47 14-11 35-8 46 6 20 26 31 57 31 91 0 86-70 152-156 152-2 0-5 0-7 0-33 84-118 141-215 141-125 0-230-98-230-222 0-67 31-127 79-167 14-12 35-10 47 4 12 14 10 35-4 47-34 29-55 70-55 116 0 84 72 156 163 156z m99-187c-16 10-37 5-46-11l-68-113c-6-10-6-23 0-33 6-11 17-17 29-17h61l-37-63c-10-15-4-36 11-45 16-10 37-5 46 11l68 113c6 10 6 23 0 33-6 11-17 17-29 17h-61l37 63c10 16 5 36-11 45z" horiz-adv-x="1000" />

<glyph glyph-name="cloud-drizzle" unicode="&#xe886;" d="M500-88c-242 0-437 196-437 438 0 242 195 438 437 438 242 0 438-196 438-438 0-242-196-438-438-438z m-500 438c0-276 224-500 500-500 276 0 500 224 500 500 0 276-224 500-500 500-276 0-500-224-500-500z m263 52c0 84 72 156 163 156 79 0 144-52 160-121 2-9 7-16 15-21 7-5 16-6 25-4 11 3 17 4 22 4 52 0 90-38 90-85 0-19-7-36-17-50-12-15-9-36 6-47 14-11 35-9 46 6 20 25 31 57 31 91 0 86-70 152-156 152-2 0-5-1-7-1-33 85-118 142-215 142-125 0-230-98-230-222 0-67 31-127 79-168 14-11 35-10 47 4 12 15 10 36-4 47-34 29-55 71-55 117z m285-142c0 18-14 33-33 33-18 0-33-15-33-33v-30c0-19 15-34 33-34 19 0 33 15 33 34v30z m-153 93c-19 0-34-15-34-33v-30c0-18 15-33 34-33 18 0 33 15 33 33v30c0 18-15 33-33 33z m274-33c0 18-15 33-34 33-18 0-33-15-33-33v-30c0-18 15-33 33-33 19 0 34 15 34 33v30z m-154-147c-18 0-33-15-33-34v-30c0-18 15-33 33-33 19 0 33 15 33 33v30c0 19-14 34-33 34z m-87 27c0 18-15 33-33 33-19 0-34-15-34-33v-30c0-19 15-34 34-34 18 0 33 15 33 34v30z m207 33c-18 0-33-15-33-33v-30c0-19 15-34 33-34 19 0 34 15 34 34v30c0 18-15 33-34 33z" horiz-adv-x="1000" />

<glyph glyph-name="cloud-slash" unicode="&#xe888;" d="M63 350c0 242 195 438 437 438 242 0 438-196 438-438 0-242-196-438-438-438-242 0-437 196-437 438z m437 500c-276 0-500-224-500-500 0-276 224-500 500-500 276 0 500 224 500 500 0 276-224 500-500 500z m-314-297c-12-12-12-32 0-44l51-52c-18-30-29-65-29-102 0-111 90-201 201-201h132l90-90c12-12 32-12 44 0 12 12 12 32 0 44l-445 445c-12 12-32 12-44 0z m523-392c48 18 83 64 83 118 0 71-59 127-133 127-10 0-21-3-32-5-21 91-106 157-206 157-32 0-63-6-90-19l378-378z" horiz-adv-x="1000" />

<glyph glyph-name="cloud-download" unicode="&#xe889;" d="M500-88c-242 0-437 196-437 438 0 242 195 438 437 438 242 0 438-196 438-438 0-242-196-438-438-438z m-500 438c0-276 224-500 500-500 276 0 500 224 500 500 0 276-224 500-500 500-276 0-500-224-500-500z m334 90c-71-10-126-70-126-144 0-81 66-146 146-146h321c64 0 117 52 117 117 0 64-53 116-117 116 0 97-78 175-175 175-77 0-142-49-166-118z m193-42v-87l17 17c11 10 28 10 38 0 11-11 11-28 0-39l-63-63c-10-11-28-11-38 0l-63 63c-11 11-11 28 0 39 10 10 27 10 38 0l17-17v87c0 15 12 27 27 27 15 0 27-12 27-27z" horiz-adv-x="1000" />

<glyph glyph-name="sidebar" unicode="&#xe8a0;" d="M500 788c242 0 438-196 438-438 0-242-196-438-438-438-242 0-437 196-437 438 0 242 195 438 437 438z m500-438c0 276-224 500-500 500-276 0-500-224-500-500 0-276 224-500 500-500 276 0 500 224 500 500z m-312 227h-195v-454h195c57 0 104 47 104 105v245c0 57-47 104-104 104z m-375 0c-58 0-105-47-105-104v-245c0-58 47-105 105-105h130v454h-130z m-21-153h65c13 0 25-11 25-25 0-14-12-25-25-25h-65c-14 0-25 11-25 25 0 14 11 25 25 25z m-25-122c0 13 11 25 25 25h65c13 0 25-12 25-25 0-14-12-25-25-25h-65c-14 0-25 11-25 25z" horiz-adv-x="1000" />

<glyph glyph-name="bell-plus" unicode="&#xe8a5;" d="M500-88c-242 0-437 196-437 438 0 242 195 438 437 438 242 0 438-196 438-438 0-242-196-438-438-438z m-500 438c0-276 224-500 500-500 276 0 500 224 500 500 0 276-224 500-500 500-276 0-500-224-500-500z m621 319c-15 0-27-12-27-27v-32h-31c-15 0-28-12-28-27 0-15 13-27 28-27l31 0v-31c0-15 12-27 27-27 15 0 27 12 27 27v31h31c15 0 27 12 27 27 0 15-12 27-27 27h-31v32c0 15-12 27-27 27z m0-202c-65 0-117 52-117 116 0 21 6 41 16 58-6 1-11 1-16 1-111 0-201-90-201-202l0-106c-35-9-61-40-61-78 0-45 36-81 81-81h360c45 0 81 36 81 81 0 37-25 68-59 78l0 106c0 20-2 38-7 56-21-18-48-29-77-29z m-173-342c-7 14-23 19-36 13-14-7-19-23-13-36l1-2c2-5 6-14 11-20 20-29 54-49 93-49 48 0 89 30 106 72 5 14-2 29-15 35-14 5-30-1-36-15-8-22-30-38-55-38-20 0-38 11-49 26-1 2-3 6-6 12l0 0-1 2z" horiz-adv-x="1000" />

<glyph glyph-name="angle-left" unicode="&#xe8ab;" d="M500 788c242 0 438-196 438-438 0-242-196-438-438-438-242 0-437 196-437 438 0 242 195 438 437 438z m500-438c0 276-224 500-500 500-276 0-500-224-500-500 0-276 224-500 500-500 276 0 500 224 500 500z m-393 190c-13 13-34 13-47 0l-167-166c-13-13-13-35 0-48l167-166c13-13 34-13 47 0 13 13 13 34 0 47l-143 143 143 143c13 13 13 34 0 47z" horiz-adv-x="1000" />

<glyph glyph-name="cloud" unicode="&#xe945;" d="M63 350c0 242 195 438 437 438 242 0 438-196 438-438 0-242-196-438-438-438-242 0-437 196-437 438z m437 500c-276 0-500-224-500-500 0-276 224-500 500-500 276 0 500 224 500 500 0 276-224 500-500 500z m-166-410c-71-10-126-70-126-144 0-81 66-146 146-146h321c64 0 117 52 117 117 0 64-53 116-117 116 0 97-78 175-175 175-77 0-142-49-166-118z" horiz-adv-x="1000" />

<glyph glyph-name="bold" unicode="&#xe94a;" d="M63 350c0 242 195 438 437 438 242 0 438-196 438-438 0-242-196-438-438-438-242 0-437 196-437 438z m437 500c-276 0-500-224-500-500 0-276 224-500 500-500 276 0 500 224 500 500 0 276-224 500-500 500z m-208-250v-500c0-23 18-42 41-42h250c92 0 167 75 167 167 0 61-32 114-81 143 25 29 39 66 39 107 0 92-74 167-166 167h-209c-23 0-41-19-41-42z m83-292h208c46 0 84-37 84-83 0-46-38-83-84-83h-208v166z m167 84h-167v166h167c46 0 83-37 83-83 0-46-37-83-83-83z" horiz-adv-x="1000" />

<glyph glyph-name="users" unicode="&#xe95d;" d="M500-88c-242 0-437 196-437 438 0 242 195 438 437 438 242 0 438-196 438-438 0-242-196-438-438-438z m-500 438c0-276 224-500 500-500 276 0 500 224 500 500 0 276-224 500-500 500-276 0-500-224-500-500z m567 39c37 37 37 96 0 133-36 36-96 36-133 0-36-37-36-96 0-133 37-37 97-37 133 0z m161 71c-25 25-66 25-91 0-25-25-25-66 0-91 25-25 66-25 91 0 25 25 25 66 0 91z m-227-123c-40 0-77-6-112-20-37-15-62-51-62-91l-1-16c0-29 19-55 47-63 35-10 77-15 128-15 51 0 93 5 128 15 28 8 47 34 46 63l0 16c0 40-25 76-62 91-35 14-72 20-112 20z m197-118h69c13 0 26 11 25 27-6 45-44 79-90 79h-59c37-22 61-66 55-106z m-340 241c-25 25-66 25-91 0-25-25-25-66 0-91 25-25 66-25 91 0 25 25 25 66 0 91z m-1-135h-59c-46 0-84-34-89-79-2-16 11-27 24-27h69c-6 40 18 84 55 106z" horiz-adv-x="1000" />

<glyph glyph-name="comment-activity" unicode="&#xe967;" d="M500-88c-242 0-437 196-437 438 0 242 195 438 437 438 242 0 438-196 438-438 0-242-196-438-438-438z m-500 438c0-276 224-500 500-500 276 0 500 224 500 500 0 276-224 500-500 500-276 0-500-224-500-500z m409-191l62-93c14-22 44-22 58 0l62 93h76c69 0 125 56 125 125v191c0 69-56 125-125 125h-334c-69 0-125-56-125-125v-191c0-69 56-125 125-125h76z m130 338c12 1 23-6 27-18l36-108h28c15 0 27-12 27-27 0-15-12-27-27-27h-39c-17 0-31 10-36 26l-10 27-25-113c-3-12-13-21-25-21-13-1-24 7-27 19l-24 77c-7-9-18-15-30-15h-44c-15 0-27 12-27 27 0 15 12 27 27 27h34l22 43c6 10 16 15 27 14 11-1 20-8 23-19l13-41 25 108c2 12 13 21 25 21z" horiz-adv-x="1000" />

<glyph glyph-name="book-open" unicode="&#xe96f;" d="M500-88c-242 0-437 196-437 438 0 242 195 438 437 438 242 0 438-196 438-438 0-242-196-438-438-438z m-500 438c0-276 224-500 500-500 276 0 500 224 500 500 0 276-224 500-500 500-276 0-500-224-500-500z m625 208c-69 0-125-29-125-66 0 37-56 66-125 66-69 0-125-29-125-66v-321c0-19 27-30 43-19 22 15 51 29 82 29 48 0 76-12 98-33v271c0 15 12 28 27 28 15 0 27-13 27-28v-278c22 19 55 40 98 40 38 0 67-16 89-33 14-11 36-2 36 16v328c0 37-56 66-125 66z" horiz-adv-x="1000" />

<glyph glyph-name="certificate" unicode="&#xe975;" d="M500 788c242 0 438-196 438-438 0-242-196-438-438-438-242 0-437 196-437 438 0 242 195 438 437 438z m500-438c0 276-224 500-500 500-276 0-500-224-500-500 0-276 224-500 500-500 276 0 500 224 500 500z m-667 208c-46 0-83-37-83-83v-249c0-46 37-83 83-83h82c-38 25-63 67-63 116 0 77 62 139 138 139 77 0 139-62 139-139 0-49-25-91-63-116h100c45 0 83 37 83 83v249c0 46-38 83-83 83h-333z m195-392c37 14 63 51 63 93 0 56-45 101-101 101-55 0-100-45-100-101 0-37 20-70 51-88v-89c0-11 12-19 23-15l20 7 21-7c11-4 23 4 23 15v84z m-105 350c0 11 9 20 21 20h111c11 0 21-9 21-20 0-12-10-21-21-21h-111c-12 0-21 9-21 21z" horiz-adv-x="1000" />

<glyph glyph-name="box" unicode="&#xe976;" d="M63 350c0 242 195 438 437 438 242 0 438-196 438-438 0-242-196-438-438-438-242 0-437 196-437 438z m437 500c-276 0-500-224-500-500 0-276 224-500 500-500 276 0 500 224 500 500 0 276-224 500-500 500z m271-365v53c0 23-19 41-42 41h-458c-23 0-42-18-42-41v-53c0-23 19-41 42-41h458c23 0 42 18 42 41z m-33-310v242h-476v-242c0-46 37-83 83-83h310c46 0 83 37 83 83z m-338 128c0 15 12 27 27 27h146c15 0 27-12 27-27 0-15-12-27-27-27h-146c-15 0-27 12-27 27z" horiz-adv-x="1000" />

<glyph glyph-name="browser-code" unicode="&#xe977;" d="M500 788c242 0 438-196 438-438 0-242-196-438-438-438-242 0-437 196-437 438 0 242 195 438 437 438z m500-438c0 276-224 500-500 500-276 0-500-224-500-500 0-276 224-500 500-500 276 0 500 224 500 500z m-792 167v-9h584v9c0 69-56 125-125 125h-334c-69 0-125-56-125-125z m132 49c0-12-10-22-22-22-12 0-22 10-22 22 0 12 10 22 22 22 12 0 22-10 22-22z m36-22c-12 0-22 10-22 22 0 12 10 22 22 22 12 0 22-10 22-22 0-12-10-22-22-22z m-168-90v-271c0-69 56-125 125-125h334c69 0 125 56 125 125v271h-584z m316-78c15-3 24-17 21-32l-37-163c-3-15-17-24-32-21-15 4-24 18-21 33l37 163c3 15 18 24 32 20z m98-48l41-40c11-11 11-28 0-39l-41-41c-10-10-28-10-38 0-11 11-11 28 0 39l22 21-22 22c-11 11-11 28 0 38 10 11 28 11 38 0z m-206 0c11-10 11-27 0-38l-21-22 21-21c11-11 11-28 0-39-10-10-27-10-38 0l-41 41c-10 11-10 28 0 39l41 40c11 11 28 11 38 0z" horiz-adv-x="1000" />

<glyph glyph-name="comment" unicode="&#xe979;" d="M933 350c0-239-194-433-433-433-239 0-433 194-433 433 0 239 194 433 433 433 239 0 433-194 433-433z m67 0c0 276-224 500-500 500-276 0-500-224-500-500 0-276 224-500 500-500 276 0 500 224 500 500z m-790 60c-14-112 68-209 175-219v-83c0-14 18-21 28-11 10 10 21 22 32 33 22 22 44 43 61 60h83c107 0 199 82 203 189 3 110-85 200-195 200h-187c-99 0-188-71-200-169z" horiz-adv-x="1000" />

<glyph glyph-name="file-attach" unicode="&#xe980;" d="M500-88c-242 0-437 196-437 438 0 242 195 438 437 438 242 0 438-196 438-438 0-242-196-438-438-438z m-500 438c0-276 224-500 500-500 276 0 500 224 500 500 0 276-224 500-500 500-276 0-500-224-500-500z m643 271h0c50 0 91-41 91-91l-3-146 0 0 0 0c0-30-23-53-53-53-29 0-53 24-54 53l3 146 0 0 0 1c0 9 7 16 16 16 9 0 17-8 17-17l-3-127c0-11 9-21 20-21 12 0 21 9 22 20l2 128 0 0 0 0c0 32-26 58-58 58-32 1-58-25-58-57l-2-146 0 0 0-1c0-52 43-95 95-95 53 0 95 42 95 95l3 145 0 0 0 1c-1 73-60 132-133 133l0 0c-73 0-132-59-132-132l-3-146c0-11 9-21 21-21 11 0 21 9 21 20l3 146 0 0 0 1c-1 50 40 90 90 90z m-160-72c0 23 6 45 17 65h-28-125c-53 0-97-44-97-97v-361c0-54 44-98 97-98h250c54 0 97 44 97 98v108c-100-18-141 64-141 86-28-42-70-14-70 14v185z" horiz-adv-x="1000" />

<glyph glyph-name="attach" unicode="&#xe9e6;" d="M707 468l-2-144 0 0c0-29-23-52-51-51-28 0-51 23-51 52l2 144 0 0c0 9 7 15 15 15 8 0 15-7 15-15l-3-126c0-12 9-21 21-22 12 0 22 9 22 21l3 126 0 1c0 31-26 58-58 58-32 0-57-26-58-58l-2-144 0 0c0-52 42-95 94-95 52-1 94 42 93 94l3 144 0 0c0 73-58 132-130 132-72 0-130-58-130-131l-3-144c0-11 10-21 21-21 12-1 22 9 22 21l3 144 0 0c0 49 39 88 86 88 48 0 88-40 88-89z m-220 103h-143c-52 0-94-42-94-94v-280c0-52 42-95 94-95h304c52 0 94 43 94 95v29c-23-21-54-34-88-34-54 1-100 34-120 80-8-4-17-6-26-6-33 1-58 28-58 60l3 144c0 38 12 73 34 101z m-487-221c0-276 224-500 500-500 276 0 500 224 500 500 0 276-224 500-500 500-276 0-500-224-500-500z m500-438c-242 0-437 196-437 438 0 242 195 438 437 438 242 0 438-196 438-438 0-242-196-438-438-438z" horiz-adv-x="1000" />

<glyph glyph-name="upload" unicode="&#xe9e8;" d="M729 307c-18 0-33-15-33-33v-102c0-10-8-18-18-18h-356c-10 0-18 8-18 18v102c0 18-15 33-33 33-19 0-33-15-33-33v-102c0-47 37-84 84-84h356c47 0 85 37 85 84v102c0 18-15 33-34 33z m-78 121c13 13 13 34 0 47l-127 128c-6 5-13 9-21 9-1 0-2 1-3 1-10 0-18-5-25-11l-126-127c-13-13-13-34 0-47 13-13 34-13 47 0l71 71v-225c0-19 15-34 33-34 18 0 33 15 33 34v225l71-71c13-13 34-13 47 0z m-151-578c276 0 500 224 500 500 0 276-224 500-500 500-276 0-500-224-500-500 0-276 224-500 500-500z m-437 500c0 242 195 438 437 438 242 0 438-196 438-438 0-242-196-438-438-438-242 0-437 196-437 438z" horiz-adv-x="1000" />

<glyph glyph-name="thumbtack-star" unicode="&#xe9e9;" d="M457 519c0 50 22 94 58 123l-191 0-3-1c-12-1-21-11-21-23 0-14 11-24 24-24l42-1-10-214-2-1c-58-28-92-78-103-147l-1-9c-1-15 10-27 24-27l180 0 0-123 1-3c1-12 11-21 23-21 14 0 25 11 25 24l0 123 188 0c14 0 25 12 24 27l-2 9c-8 58-34 103-77 133-7-1-15-2-22-2-87 0-157 71-157 157z m157 116c-64 0-115-52-115-116 0-63 51-115 115-115 64 0 115 52 115 115 0 64-51 116-115 116z m6-49l15-31c1-2 3-4 5-4l34-5c5-1 8-8 4-12l-25-25c-1-2-2-4-2-6l6-36c1-5-5-10-10-7l-30 16c-2 1-4 1-6 0l-30-16c-5-3-11 2-10 7l6 36c0 2-1 4-2 6l-25 25c-4 4-2 11 4 12l34 5c2 0 4 2 5 4l15 31c2 6 10 6 12 0z m-120 264c-276 0-500-224-500-500 0-276 224-500 500-500 276 0 500 224 500 500 0 276-224 500-500 500z m438-500c0-242-196-438-438-438-242 0-437 196-437 438 0 242 195 438 437 438 242 0 438-196 438-438z" horiz-adv-x="1000" />

<glyph glyph-name="brand-bunnynet" unicode="&#xe9ea;" d="M690 498l-129 180c-7 10-10 4-13-2l0 0c-15-28-18-58-8-88 2-6 5-10 11-13 35-19 70-39 106-59l33-18z m-177-366l0 0c-5-5-10-10-16-16 47-11 87 3 103 36 29 59 58 117 86 176 5 10 11 15 22 18 31 7 60 19 87 35 23 14 23 31 0 44-52 29-105 57-157 85-86 47-172 94-258 141-15 7-18 3-20-11-8-52 30-112 86-131 24-8 50-13 76-17 5-1 9-2 14-3 26-4 53-8 79-14 21-5 25-15 20-36-11-40-53-60-90-42l-3 2c-19 9-38 19-59 24-73 17-145-11-184-73-38-62-32-119 20-183 31-37 65-69 100-101 16-15 32-30 48-45 7-7 10-5 15 2 13 21 12 50-6 70-13 14-27 27-41 40-17 15-33 30-44 50-22 37-16 84 15 114 31 31 80 37 116 14 51-32 61-96 22-144-9-12-20-23-31-35z m-5 97c1 20-15 36-34 37-19 0-36-16-36-34-1-20 15-37 35-37 20-1 35 15 35 34z m-223 152l0 38c0 21-17 39-38 39-21 0-39-18-39-39 0-21 18-38 39-38h38z m215 469c-276 0-500-224-500-500 0-276 224-500 500-500 276 0 500 224 500 500 0 276-224 500-500 500z m-437-500c0 242 195 438 437 438 242 0 438-196 438-438 0-242-196-438-438-438-242 0-437 196-437 438z" horiz-adv-x="1000" />

<glyph glyph-name="hand-pointer" unicode="&#xe9ec;" d="M351 290l-51 58c-1 0-1 1-2 1-18 20-50 23-71 5-22-18-25-50-6-72l162-188c0 0 60-77 158-77 98 0 201 51 201 162v248c0 28-21 51-47 51-26 0-47-23-47-51l0 26c0 28-21 51-47 51-26 0-47-23-47-51v34c0 28-21 51-47 51-26 0-47-23-47-51v145c0 28-21 51-47 51-26 0-47-23-47-51v-337c0-8-10-11-15-5z m149 560c-276 0-500-224-500-500 0-276 224-500 500-500 276 0 500 224 500 500 0 276-224 500-500 500z m-437-500c0 242 195 438 437 438 242 0 438-196 438-438 0-242-196-438-438-438-242 0-437 196-437 438z" horiz-adv-x="1000" />

<glyph glyph-name="image-plus" unicode="&#xe9ed;" d="M500-88c-242 0-437 196-437 438 0 242 195 438 437 438 242 0 438-196 438-438 0-242-196-438-438-438z m-500 438c0-276 224-500 500-500 276 0 500 224 500 500 0 276-224 500-500 500-276 0-500-224-500-500z m670-54l-31 26c-22 21-56 21-76 0l-36-35c-15-12-34-12-46 0l-76 77c-25 26-65 26-90 0l-20-24v95c0 44 34 76 74 76h268c42 0 73-35 73-76v-130c20 0 34-6 48-12v142c0 67-54 123-119 123h-270c-65 0-119-56-119-123v-192c0-71 54-127 119-127h265c-17 21-28 47-28 77 0 44 28 85 64 103z m-143 71c31 0 56 26 56 59 0 32-25 59-56 59-32 0-57-27-57-59 0-33 25-59 57-59z m248-160h-40v39c0 12-8 20-19 20-12 0-17-8-17-20v-39h-37c-11 0-20-8-20-20 0-12 9-21 20-21h37v-38c0-12 8-21 17-21 8 0 19 9 19 21v38h40c11 0 17 9 17 21 0 12-9 20-17 20z" horiz-adv-x="1000" />

<glyph glyph-name="minimize" unicode="&#xe9ee;" d="M500-88c242 0 438 196 438 438 0 242-196 438-438 438-242 0-437-196-437-438 0-242 195-438 437-438z m500 438c0-276-224-500-500-500-276 0-500 224-500 500 0 276 224 500 500 500 276 0 500-224 500-500z m-792-176v352c0 46 38 83 84 83h416c46 0 84-37 84-83v-352c0-46-38-83-84-83h-416c-46 0-84 37-84 83z m65 15c0-10 8-17 17-17h420c9 0 17 7 17 17v63c0 10-8 17-17 17h-420c-9 0-17-7-17-17v-63z" horiz-adv-x="1000" />

<glyph glyph-name="spinner-alt" unicode="&#xe9ef;" d="M685 557c17 31 6 69-24 85-64 35-138 49-211 38-72-11-138-45-189-98-51-52-83-120-92-193-9-72 7-146 44-209 37-63 94-111 162-139 68-27 143-32 213-12 70 19 133 61 177 119 44 58 68 129 68 202 0 35-28 63-62 63-35 0-63-28-63-63 0-46-15-90-42-126-28-37-67-63-111-75-44-12-91-9-133 8-42 17-78 48-101 87-24 39-33 85-28 131 6 45 26 87 57 120 32 33 74 54 119 61 45 7 91-1 131-23 31-17 69-6 85 24z m-185-707c276 0 500 224 500 500 0 276-224 500-500 500-276 0-500-224-500-500 0-276 224-500 500-500z m-437 500c0 242 195 438 437 438 242 0 438-196 438-438 0-242-196-438-438-438-242 0-437 196-437 438z" horiz-adv-x="1000" />

<glyph glyph-name="picture-in-picture" unicode="&#xe9f0;" d="M188 217c0-53 43-96 96-96h152c13 0 24 10 24 24v142c0 41 33 74 74 74h206c14 0 24 11 24 24v152c0 53-43 96-96 96h-384c-53 0-96-43-96-96v-320z m304 56v-144c0-31 25-57 56-57h208c31 0 57 26 57 57v144c0 31-26 56-57 56h-208c-31 0-56-25-56-56z m8 577c-276 0-500-224-500-500 0-276 224-500 500-500 276 0 500 224 500 500 0 276-224 500-500 500z m438-500c0-242-196-438-438-438-242 0-437 196-437 438 0 242 195 438 437 438 242 0 438-196 438-438z" horiz-adv-x="1000" />

<glyph glyph-name="video-plus" unicode="&#xe9f1;" d="M63 350c0 242 195 438 437 438 242 0 438-196 438-438 0-242-196-438-438-438-242 0-437 196-437 438z m437 500c-276 0-500-224-500-500 0-276 224-500 500-500 276 0 500 224 500 500 0 276-224 500-500 500z m44-333h-227c-36 0-67-31-67-67v-197c0-36 31-67 67-67h227c37 0 67 31 67 67v197c-3 36-30 67-67 67z m-52-186h-42v-42c0-14-8-22-19-22-12 0-23 8-23 19v45h-41c-11 0-20 8-20 19 0 11 9 19 20 19h41v45c0 11 11 19 23 19 11 0 19-8 19-19v-42h42c11 0 19-8 19-19 3-14-8-22-19-22z m205 144l-55-44v-153l55-45c22-16 53-2 53 25v189c0 28-31 45-53 28z" horiz-adv-x="1000" />

<glyph glyph-name="cart-slash" unicode="&#xe9f2;" d="M663 348c13 0 24 9 27 22l33 149c4 17-9 34-27 34h-331v68c0 11-9 21-21 21h-68c-11 0-21-10-21-21 0-12 10-21 21-21h47v-33l248-219h92z m-54-213c0-39 32-70 70-70 24 0 45 13 58 31l38-32c8-8 22-7 29 2 8 8 7 21-2 29l-468 408-10 8v0l-81 71c-9 7-22 6-29-2-8-9-7-22 2-30l108-94v-148c0-27 21-49 48-49h178l83-72c-14-13-24-31-24-52z m-244 213h83l54-47h-130v0c-4 0-7 3-7 7v40z m356-89c11 0 20 10 20 21 0 11-9 21-20 21h-97l48-42h49z m-320-194c39 0 70 31 70 70 0 38-31 69-70 69-38 0-69-31-69-69 0-39 31-70 69-70z m99 785c-276 0-500-224-500-500 0-276 224-500 500-500 276 0 500 224 500 500 0 276-224 500-500 500z m-437-500c0 242 195 438 437 438 242 0 438-196 438-438 0-242-196-438-438-438-242 0-437 196-437 438z" horiz-adv-x="1000" />

<glyph glyph-name="brand-intercom" unicode="&#xe9f3;" d="M680 600h-360c-45 0-70-25-70-70v-355c0-45 26-70 70-70h359c46 0 71 25 71 71v353c0 46-25 71-70 71z m-80-97v-209c0-13-7-21-17-21-9 0-16 8-16 21v210c0 13 6 21 16 21 11 0 17-8 17-22z m-100 30c11 0 16-8 16-22v-226c0-15-5-22-16-22-11 0-16 7-16 22v226c0 15 5 22 16 22z m-84-8c11 0 17-8 17-22v-209c0-13-6-21-16-21-10 0-16 8-16 22v209c0 13 5 21 15 21z m-82-33c10 0 16-8 16-20v-140c0-13-6-20-17-20-10 0-15 7-15 20v70c0 8 0 16 0 24 0 15 0 30 0 46 0 13 6 20 16 20z m240-312c-24-5-49-8-75-8-58 1-113 13-163 45-4 2-7 5-11 7-8 6-11 15-4 23 6 8 15 9 23 3 32-23 68-36 107-42 73-10 143-1 205 42 8 6 17 5 23-3 7-9 4-17-4-23-31-23-65-36-101-44z m93 132c-11 0-17 7-17 20v140c0 12 6 20 16 20 10 0 16-7 16-20v-71c0-7 0-15 0-23 1-15 1-30 0-46 0-12-5-19-15-20z m-167 538c-276 0-500-224-500-500 0-276 224-500 500-500 276 0 500 224 500 500 0 276-224 500-500 500z m-437-500c0 242 195 438 437 438 242 0 438-196 438-438 0-242-196-438-438-438-242 0-437 196-437 438z" horiz-adv-x="1000" />

<glyph glyph-name="cloud-check" unicode="&#xe9f4;" d="M337 437c24 71 91 121 169 121 99 0 179-80 179-178 65 0 119-53 119-119 0-66-54-119-119-119h-328c-82 0-149 66-149 149 0 75 56 136 129 146z m258-83c8 9 8 23 0 31-9 9-23 9-31 0l-90-89-32 32c-8 9-22 9-31 0-8-9-8-22 0-31l48-48c8-8 22-8 31 0l105 105z m-95 496c-276 0-500-224-500-500 0-276 224-500 500-500 276 0 500 224 500 500 0 276-224 500-500 500z m-437-500c0 242 195 438 437 438 242 0 438-196 438-438 0-242-196-438-438-438-242 0-437 196-437 438z" horiz-adv-x="1000" />

<glyph glyph-name="cloud-exclamation" unicode="&#xe9f5;" d="M334 440c24 69 89 118 166 118 97 0 175-78 175-175 64 0 117-52 117-116 0-65-53-117-117-117h-321c-80 0-146 65-146 146 0 74 55 134 126 144z m164 3l-1 0-2 0 0 0c-6-1-11-3-15-7-4-4-7-9-7-15l0 0 4-90 0-2 0 0c1-10 10-17 20-17 11 0 20 8 20 19l4 90 0 2 0 0c0 6-4 11-8 14-4 4-10 6-15 6z m1-160c-13 0-23-10-23-23 0-12 10-22 23-22 12 0 22 10 22 22 0 13-10 23-22 23z m1 567c-276 0-500-224-500-500 0-276 224-500 500-500 276 0 500 224 500 500 0 276-224 500-500 500z m-437-500c0 242 195 438 437 438 242 0 438-196 438-438 0-242-196-438-438-438-242 0-437 196-437 438z" horiz-adv-x="1000" />

<glyph glyph-name="cloud-times" unicode="&#xe9f6;" d="M334 440c24 69 89 118 166 118 97 0 175-78 175-175 64 0 117-52 117-116 0-65-53-117-117-117h-321c-80 0-146 65-146 146 0 74 55 134 126 144z m127-61c-8 8-21 8-29 0-8-8-8-21 0-29l33-33-33-33c-8-9-8-22 0-30 8-8 21-8 29 0l33 33 33-33c9-8 22-8 30 0 8 8 8 21 0 30l-33 33 33 33c8 8 8 21 0 29-8 8-21 8-30 0l-33-33-33 33z m39 471c-276 0-500-224-500-500 0-276 224-500 500-500 276 0 500 224 500 500 0 276-224 500-500 500z m-437-500c0 242 195 438 437 438 242 0 438-196 438-438 0-242-196-438-438-438-242 0-437 196-437 438z" horiz-adv-x="1000" />

<glyph glyph-name="crown" unicode="&#xe9f7;" d="M523 590c-5 6-13 10-21 10-8 0-15-4-20-10l-112-146-119 108c-8 8-20 9-29 4-10-4-15-14-13-25l48-321c1-12 12-21 24-21h438c12 0 23 9 25 21l47 321c2 11-3 21-13 25-9 5-21 4-28-4l-119-108-108 146z m-223-442c-14 0-25-10-25-24 0-13 11-24 25-24h400c14 0 25 11 25 24 0 14-11 24-25 24l-400 0z m200 702c-276 0-500-224-500-500 0-276 224-500 500-500 276 0 500 224 500 500 0 276-224 500-500 500z m-437-500c0 242 195 438 437 438 242 0 438-196 438-438 0-242-196-438-438-438-242 0-437 196-437 438z" horiz-adv-x="1000" />

<glyph glyph-name="emoticon-confused" unicode="&#xe9f8;" d="M208 350c0 161 131 292 292 292 158 0 292-131 292-292 0-161-131-292-292-292-161 0-292 131-292 292z m396 113c-15 0-24-12-24-24h-3v-29c0-15 9-24 24-24 15 0 24 12 24 24v29c0 15-6 24-21 24z m-211 0c-12 0-21-9-21-24v-29c0-12 6-24 21-24 15 0 24 12 24 24v29c0 15-12 24-24 24z m6-235l223 51c12 3 21 15 18 26-3 12-15 21-27 18l-223-50c-12-3-21-15-18-27 3-12 15-21 27-18z m101 622c-276 0-500-224-500-500 0-276 224-500 500-500 276 0 500 224 500 500 0 276-224 500-500 500z m-437-500c0 242 195 438 437 438 242 0 438-196 438-438 0-242-196-438-438-438-242 0-437 196-437 438z" horiz-adv-x="1000" />

<glyph glyph-name="folder-download" unicode="&#xe9f9;" d="M667 511c46 0 83-37 83-83v-175c0-46-37-84-83-84h-334c-46 0-83 38-83 84v222c0 46 37 83 83 83h100c9 0 19-2 28-7l54-32c8-5 18-8 28-8h124z m-224-157c-6 6-16 6-22 0-6-6-6-16 0-22l68-68c6-6 16-6 22 0l68 68c6 6 6 16 0 22-6 6-16 6-21 0l-43-43v121c0 8-7 15-15 15-8 0-15-7-15-15v-121l-42 43z m57 496c-276 0-500-224-500-500 0-276 224-500 500-500 276 0 500 224 500 500 0 276-224 500-500 500z m-437-500c0 242 195 438 437 438 242 0 438-196 438-438 0-242-196-438-438-438-242 0-437 196-437 438z" horiz-adv-x="1000" />

<glyph glyph-name="folder-move" unicode="&#xe9fa;" d="M667 511c46 0 83-37 83-83v-175c0-46-37-84-83-84h-334c-46 0-83 38-83 84v222c0 46 37 83 83 83h100c9 0 19-2 28-7l54-32c8-5 18-8 28-8h124z m-167-100l42-42h-121c-8 0-15-7-15-16 0-8 7-15 15-15h121l-42-42c-6-6-6-16 0-21 6-6 15-6 21 0l68 68c6 6 6 15 0 21l-68 68c-6 6-15 6-21 0-6-6-6-15 0-21z m0 439c-276 0-500-224-500-500 0-276 224-500 500-500 276 0 500 224 500 500 0 276-224 500-500 500z m-437-500c0 242 195 438 437 438 242 0 438-196 438-438 0-242-196-438-438-438-242 0-437 196-437 438z" horiz-adv-x="1000" />

<glyph glyph-name="folder-upload" unicode="&#xe9fb;" d="M667 511c46 0 83-37 83-83v-175c0-46-37-84-83-84h-334c-46 0-83 38-83 84v222c0 46 37 83 83 83h100c9 0 19-2 28-7l54-32c8-5 18-8 28-8h124z m-224-158l42 43v-121c0-9 7-15 15-15 8 0 15 6 15 15v121l43-43c5-6 15-6 21 0 6 6 6 16 0 22l-68 68c-6 6-16 6-22 0l-68-68c-6-6-6-16 0-22 6-6 16-6 22 0z m57 497c-276 0-500-224-500-500 0-276 224-500 500-500 276 0 500 224 500 500 0 276-224 500-500 500z m-437-500c0 242 195 438 437 438 242 0 438-196 438-438 0-242-196-438-438-438-242 0-437 196-437 438z" horiz-adv-x="1000" />

<glyph glyph-name="grip-h" unicode="&#xe9fc;" d="M316 512c-36 0-66-29-66-65 0-37 30-66 66-66 36 0 66 29 66 66 0 36-30 65-66 65z m0-197c-36 0-66-29-66-66 0-36 30-66 66-66 36 0 66 30 66 66 0 37-30 66-66 66z m184 0c-36 0-66-29-66-66 0-36 30-66 66-66 36 0 66 30 66 66 0 37-30 66-66 66z m184 0c-36 0-66-29-66-66 0-36 30-66 66-66 37 0 66 30 66 66 0 37-29 66-66 66z m-118 132c0 36-30 65-66 65-36 0-66-29-66-65 0-37 30-66 66-66 36 0 66 29 66 66z m184 0c0 36-29 65-66 65-36 0-66-29-66-65 0-37 30-66 66-66 37 0 66 29 66 66z m-250 403c-276 0-500-224-500-500 0-276 224-500 500-500 276 0 500 224 500 500 0 276-224 500-500 500z m-437-500c0 242 195 438 437 438 242 0 438-196 438-438 0-242-196-438-438-438-242 0-437 196-437 438z" horiz-adv-x="1000" />

<glyph glyph-name="grip-v" unicode="&#xe9fd;" d="M467 533c0 37-30 67-67 67-37 0-67-30-67-67 0-36 30-66 67-66 37 0 67 30 67 66z m0-186c0 37-30 66-67 66-37 0-67-29-67-66 0-37 30-67 67-67 37 0 67 30 67 67z m0-187c0 37-30 67-67 67-37 0-67-30-67-67 0-37 30-67 67-67 37 0 67 30 67 67z m200 373c0 37-30 67-67 67-37 0-67-30-67-67 0-36 30-66 67-66 37 0 67 30 67 66z m-67-253c37 0 67 30 67 67 0 37-30 66-67 66-37 0-67-29-67-66 0-37 30-67 67-67z m0-187c37 0 67 30 67 67 0 37-30 67-67 67-37 0-67-30-67-67 0-37 30-67 67-67z m-100 757c-276 0-500-224-500-500 0-276 224-500 500-500 276 0 500 224 500 500 0 276-224 500-500 500z m-437-500c0 242 195 438 437 438 242 0 438-196 438-438 0-242-196-438-438-438-242 0-437 196-437 438z" horiz-adv-x="1000" />

<glyph glyph-name="image-move" unicode="&#xe9fe;" d="M563 186c0 34 27 62 61 62h36c0 10 3 20 8 29l-58 49c-22 21-57 22-80 0l-37-35c-13-13-34-13-47 0l-78 77c-25 25-66 25-92 0l-22-23v90c0 43 35 77 77 77h277c42 0 76-34 76-77v-140c13 9 30 13 46 11v129c0 68-55 123-123 123h-276c-68 0-123-55-123-123v-189c0-67 55-122 123-122h277c1 0 2 0 3 0l1 0 1 0c1 0 2 0 2 0-29 5-52 31-52 62z m-69 184c32 0 58 26 58 58 0 32-26 58-58 58-32 0-58-26-58-58 0-32 26-58 58-58z m240-112c-7 8-19 8-26 0-7-7-7-18 0-26l25-28h-109c-10 0-18-9-18-18 0-10 8-19 18-19h109l-25-28c-7-7-7-19 0-26 7-7 18-7 25 0l53 59 1 0c6 7 6 19 0 27l-53 59z m-234 592c-276 0-500-224-500-500 0-276 224-500 500-500 276 0 500 224 500 500 0 276-224 500-500 500z m-437-500c0 242 195 438 437 438 242 0 438-196 438-438 0-242-196-438-438-438-242 0-437 196-437 438z" horiz-adv-x="1000" />

<glyph glyph-name="mobile-slash" unicode="&#xe9ff;" d="M400 598h204c24 0 44-20 44-44v-280l44-45v325c0 49-39 88-88 88h-204c-31 0-57-16-73-40 0 0 0 0 1 0 0-1 1-1 2-2l29-30c7 16 22 28 41 28z m-112-14c-9 8-23 9-31 0-9-8-9-22-1-31l56-57v-350c0-49 40-88 88-88h204c37 0 68 23 81 55l26-26c8-9 22-9 31-1 8 9 8 22 0 31l-454 467z m68-380v247l240-247h-240z m185-89h-78c-12 0-22 10-22 22 0 12 10 22 22 22h78c12 0 22-10 22-22 0-12-10-22-22-22z m-41 735c-276 0-500-224-500-500 0-276 224-500 500-500 276 0 500 224 500 500 0 276-224 500-500 500z m-437-500c0 242 195 438 437 438 242 0 438-196 438-438 0-242-196-438-438-438-242 0-437 196-437 438z" horiz-adv-x="1000" />

<glyph glyph-name="split" unicode="&#xea00;" d="M753 509l-147-98c-13-9-30 1-30 16v66h-53l-123-143 123-143h53v66c0 16 17 25 30 16l147-98c11-7 11-24 0-31l-147-98c-13-9-30 0-30 15v72h-80l-148 172h-110c-17 0-30 13-30 29 0 16 13 29 30 29h110l148 172h80v72c0 15 17 24 30 15l147-97c11-8 11-25 0-32z m-253 341c-276 0-500-224-500-500 0-276 224-500 500-500 276 0 500 224 500 500 0 276-224 500-500 500z m-437-500c0 242 195 438 437 438 242 0 438-196 438-438 0-242-196-438-438-438-242 0-437 196-437 438z" horiz-adv-x="1000" />

<glyph glyph-name="star-slash" unicode="&#xea01;" d="M744 384c16 16 7 44-16 47l-125 20c-9 1-17 7-21 16l-55 117c-11 21-41 21-51 0l-51-108 225-189c0 1 1 2 1 2l93 95z m-486 0l93-95c6-6 9-15 7-24l-21-132c-4-23 20-41 41-29l109 60c9 5 19 5 28 0l109-60c20-12 45 5 41 29l-6 38 46-39c9-7 23-6 30 3 8 9 6 22-2 29l-435 366c-9 7-22 6-29-3-8-9-7-22 2-29l67-57-64-10c-23-3-32-31-16-47z m242 466c-276 0-500-224-500-500 0-276 224-500 500-500 276 0 500 224 500 500 0 276-224 500-500 500z m-437-500c0 242 195 438 437 438 242 0 438-196 438-438 0-242-196-438-438-438-242 0-437 196-437 438z" horiz-adv-x="1000" />

<glyph glyph-name="stopwatch" unicode="&#xea02;" d="M430 642h145c12 0 20-9 20-20 0-11-8-20-20-20h-52v-39c41-3 80-17 114-38l23 34c6 10 19 12 28 6 9-6 12-19 5-28l-24-36c53-46 86-114 86-190 0-140-113-253-252-253-140 0-253 113-253 253 0 133 102 242 233 252v39h-53c-11 0-20 9-20 20 0 11 9 20 20 20z m73-160c-14 0-26-12-26-27l0-133c0-15 12-27 26-27 15 0 27 12 27 27v133c0 15-12 27-27 27z m-3 368c-276 0-500-224-500-500 0-276 224-500 500-500 276 0 500 224 500 500 0 276-224 500-500 500z m-437-500c0 242 195 438 437 438 242 0 438-196 438-438 0-242-196-438-438-438-242 0-437 196-437 438z" horiz-adv-x="1000" />

<glyph glyph-name="strikethrough" unicode="&#xea03;" d="M498 409c15-7 31-14 46-21 3-1 5-2 7-3l192 0c11 0 20-9 20-20 0-11-9-20-20-20l-473 0c-11 0-20 9-20 20 0 11 9 20 20 20l145 0c-6 4-11 8-16 12-14 12-25 26-32 43-8 17-12 37-12 61 0 22 5 41 14 59 8 18 20 33 34 45 14 12 31 21 50 27 18 6 38 10 59 10 20 0 41-3 60-9 20-6 37-13 50-21 14-9 24-18 30-29 6-10 6-21 0-31-5-8-12-12-22-12-10 0-19 4-27 10-11 7-24 15-41 23-16 8-33 11-50 11-28 0-50-8-66-24-17-15-25-36-25-60 0-15 3-28 10-39 7-11 16-20 28-29 11-8 25-15 39-23z m105-145c-6 13-14 23-24 33-5 5-10 9-15 13h89c6-8 11-17 15-27 5-16 8-35 8-57 0-24-4-46-13-66-8-20-21-38-36-53-16-15-35-27-57-35-22-8-46-13-72-14-21 0-41 2-61 7-20 6-38 12-53 20-24 12-39 24-46 37-7 13-7 25 0 34 6 8 13 12 21 11 8-1 16-4 26-10 16-11 34-20 53-28 19-8 40-12 63-12 14 0 28 3 41 8 13 6 25 13 36 22 10 9 18 21 24 34 7 13 10 27 10 42 0 15-3 29-9 41z m-103 586c-276 0-500-224-500-500 0-276 224-500 500-500 276 0 500 224 500 500 0 276-224 500-500 500z m-437-500c0 242 195 438 437 438 242 0 438-196 438-438 0-242-196-438-438-438-242 0-437 196-437 438z" horiz-adv-x="1000" />

<glyph glyph-name="trophy-slash" unicode="&#xea04;" d="M268 594c-9-9-9-22-1-31l16-16h-4c-16 0-29-13-29-29v-90c0-40 32-72 72-72h30c18-60 69-106 132-117-1-1-1-2-1-2v-94h-30c-7 0-13-2-19-5-10-5-17-14-21-25-1-4-1-7-1-11 0-1 1-2 1-2h199c1 0 1 1 1 2 0 3 0 7-1 11-3 11-11 20-21 25-6 3-12 5-19 5h-30v94c0 0 0 1 0 2 11 2 22 5 32 9l104-107c9-8 23-8 31 0 9 8 9 22 1 31l-364 373-1 2h-1l-45 46c-9 9-23 9-31 1z m77-111v-79c0-2 0-3 0-4h-23c-16 0-28 12-28 28v75h32l19-20z m335 64v18c0 16-13 30-29 30h-276c-6 0-10-2-15-5l283-290c14 17 24 36 30 57l0-1h31c40 0 71 32 71 72v90c0 16-13 29-29 29h-66z m0-44h51v-75c0-16-12-28-27-28h-24c0 1 0 2 0 4v99z m-180 347c-276 0-500-224-500-500 0-276 224-500 500-500 276 0 500 224 500 500 0 276-224 500-500 500z m-437-500c0 242 195 438 437 438 242 0 438-196 438-438 0-242-196-438-438-438-242 0-437 196-437 438z" horiz-adv-x="1000" />

<glyph glyph-name="u-turn-down" unicode="&#xea05;" d="M297 296c-10 10-28 10-39 0-11-11-11-29 0-40l148-148c11-11 29-11 40 0l148 148c11 11 11 29 0 40-11 10-29 10-40 0l-100-101 0 229c0 67 54 120 120 120 67 0 120-53 120-120v-74c0-15 13-28 28-28 16 0 28 13 28 28v74c0 97-79 176-176 176-97 0-176-79-176-176v-229l-101 101z m203 554c-276 0-500-224-500-500 0-276 224-500 500-500 276 0 500 224 500 500 0 276-224 500-500 500z m-437-500c0 242 195 438 437 438 242 0 438-196 438-438 0-242-196-438-438-438-242 0-437 196-437 438z" horiz-adv-x="1000" />

<glyph glyph-name="u-turn-left" unicode="&#xea06;" d="M446 553c10 10 10 28 0 39-11 11-29 11-40 0l-148-148c-11-11-11-29 0-40l148-148c11-11 29-11 40 0 10 11 10 29 0 40l-101 100h229c67 0 120-54 120-120 0-67-53-120-120-120h-74c-15 0-28-13-28-28 0-16 13-28 28-28h74c97 0 176 79 176 176 0 97-79 176-176 176h-229l101 101z m54 297c-276 0-500-224-500-500 0-276 224-500 500-500 276 0 500 224 500 500 0 276-224 500-500 500z m-437-500c0 242 195 438 437 438 242 0 438-196 438-438 0-242-196-438-438-438-242 0-437 196-437 438z" horiz-adv-x="1000" />

<glyph glyph-name="u-turn-right" unicode="&#xea07;" d="M554 553l101-101h-229c-97 0-176-79-176-176 0-97 79-176 176-176h74c15 0 28 12 28 28 0 15-13 28-28 28h-74c-67 0-120 53-120 120 0 66 53 120 120 120h229l-101-100c-10-11-10-29 0-40 11-11 29-11 40 0l148 148c11 11 11 29 0 40l-148 148c-11 11-29 11-40 0-10-11-10-29 0-39z m-54 297c-276 0-500-224-500-500 0-276 224-500 500-500 276 0 500 224 500 500 0 276-224 500-500 500z m-437-500c0 242 195 438 437 438 242 0 438-196 438-438 0-242-196-438-438-438-242 0-437 196-437 438z" horiz-adv-x="1000" />

<glyph glyph-name="u-turn-up" unicode="&#xea08;" d="M703 404c10-10 28-10 39 0 11 11 11 29 0 40l-148 148c-11 11-29 11-40 0l-148-148c-11-11-11-29 0-40 11-10 29-10 40 0l100 101v-229c0-67-54-120-120-120-67 0-120 53-120 120v74c0 15-13 28-28 28-16 0-28-13-28-28v-74c0-97 79-176 176-176 97 0 176 79 176 176v229l101-101z m-203 446c-276 0-500-224-500-500 0-276 224-500 500-500 276 0 500 224 500 500 0 276-224 500-500 500z m-437-500c0 242 195 438 437 438 242 0 438-196 438-438 0-242-196-438-438-438-242 0-437 196-437 438z" horiz-adv-x="1000" />

<glyph glyph-name="user-arrow-down" unicode="&#xea09;" d="M483 365c65 0 117 52 117 117 0 65-52 118-117 118-64 0-116-53-116-118 0-65 52-117 116-117z m80-184c0 11 5 21 12 29 15 15 40 16 56 2v87c-22 11-46 18-72 18h-158c-76-3-137-60-150-135-1-1-1-3-1-4 0-2 0-4 0-7v-1c0-24 20-43 44-43h307l-26 26c-7 7-12 17-12 28z m31-9l68-68c0 0 1-1 1-1 1-1 2-1 3-2 4-1 7-1 11 0 1 1 3 2 4 3l68 68c5 5 5 14 0 19-6 5-14 5-19 0l-45-45v157c0 8-6 14-14 14-7 0-13-6-13-14v-157l-45 45c-5 5-14 5-19 0-6-5-5-14 0-19z m-94 678c-276 0-500-224-500-500 0-276 224-500 500-500 276 0 500 224 500 500 0 276-224 500-500 500z m-437-500c0 242 195 438 437 438 242 0 438-196 438-438 0-242-196-438-438-438-242 0-437 196-437 438z" horiz-adv-x="1000" />

<glyph glyph-name="user-arrow-up" unicode="&#xea0a;" d="M484 365c64 0 117 52 117 118 0 65-53 117-117 117-65 0-117-52-117-117 0-66 52-118 117-118z m91-158c-15 15-15 41 0 57l42 42c-18 7-37 11-57 11h-159c-75-3-137-60-150-135 0-2-1-6-1-11v-1c0-24 20-43 44-43h337v78c-16-14-40-14-56 2z m174 38l-67 68c-2 1-3 2-5 3-1 0-2 1-4 1-2 0-4-1-6-1-2-1-3-2-4-3l-68-68c-6-5-6-14 0-19 5-6 14-6 19 0l45 44v-156c0-8 6-14 13-14 8 0 14 6 14 14v156l45-44c5-6 13-6 19 0 5 5 4 14-1 19z m-249 605c-276 0-500-224-500-500 0-276 224-500 500-500 276 0 500 224 500 500 0 276-224 500-500 500z m-437-500c0 242 195 438 437 438 242 0 438-196 438-438 0-242-196-438-438-438-242 0-437 196-437 438z" horiz-adv-x="1000" />

<glyph glyph-name="user-crown" unicode="&#xea0b;" d="M630 474c0-69-56-126-125-126-70 0-126 56-126 126 0 70 56 126 126 126 69 0 125-56 125-126z m9-334c2-7 5-13 9-18-2-5-3-11-3-16 0-5 1-9 2-13h-350c-26 0-47 21-47 46v1c0 6 1 10 1 12 14 80 81 142 163 145h173c25 0 49-6 70-16-4-1-7-2-11-3l0 0v0c-15-8-23-25-21-41l14-97z m188 114c5-2 8-8 6-13l-14-98c-1-6-6-11-13-11h-128c-7 0-12 5-13 11l-14 98c-1 5 2 11 7 13 5 3 11 2 15-2l31-28 29 39c2 3 6 5 10 5 4 0 8-2 11-5l27-39 31 28c4 4 10 5 15 2z m-143-135h117c7 0 13-6 13-13 0-7-6-13-13-13h-117c-7 0-13 6-13 13 0 7 6 13 13 13z m-184 731c-276 0-500-224-500-500 0-276 224-500 500-500 276 0 500 224 500 500 0 276-224 500-500 500z m-437-500c0 242 195 438 437 438 242 0 438-196 438-438 0-242-196-438-438-438-242 0-437 196-437 438z" horiz-adv-x="1000" />

<glyph glyph-name="user-friends-plus" unicode="&#xea0c;" d="M621 419c42 41 42 109 0 150-41 41-108 41-150 0-41-41-41-109 0-150 42-41 109-41 150 0z m-259 43c28 28 28 72 0 100-28 28-72 28-100 0-28-28-28-72 0-100 28-28 72-28 100 0z m-195-211c10 58 61 102 121 102h96c-50-23-82-72-83-127v-15h-100c-20 0-38 15-34 40z m493 0c-35-2-63-31-63-67 0-24 13-45 32-57-26-3-53-4-83-4-64 0-117 6-158 18-27 8-46 33-46 61v20c1 44 27 83 67 98 43 17 88 25 137 25 49 0 94-8 136-25 5-1 9-4 13-6 3-1 5-3 7-4-23-10-40-32-42-59z m5-88c-12 0-21 9-21 21 0 11 9 20 21 20h42v43c0 11 9 20 21 20 11 0 20-9 20-20v-43h43c11 0 20-9 20-20 0-12-9-21-20-21h-43v-42c0-12-9-21-20-21-12 0-21 9-21 21v42h-42z m-165 687c-276 0-500-224-500-500 0-276 224-500 500-500 276 0 500 224 500 500 0 276-224 500-500 500z m-437-500c0 242 195 438 437 438 242 0 438-196 438-438 0-242-196-438-438-438-242 0-437 196-437 438z" horiz-adv-x="1000" />

<glyph glyph-name="file-article" unicode="&#xea0d;" d="M635 58h-262c-56 0-102 46-102 102v380c0 56 46 102 102 102h209c25 0 48-11 65-30l68-77c15-16 23-36 23-58v-317c0-56-46-102-103-102z m-247 423v-87c0-16 13-29 29-29h175c16 0 29 13 29 29v87c0 16-13 29-29 29h-175c-16 0-29-13-29-29z m21-160c-12 0-21-10-21-22 0-12 9-22 21-22h190c12 0 22 10 22 22 0 12-10 22-22 22h-190z m-21-109c0-13 9-22 21-22h190c12 0 22 9 22 22 0 12-10 21-22 21h-190c-12 0-21-9-21-21z m112 638c-276 0-500-224-500-500 0-276 224-500 500-500 276 0 500 224 500 500 0 276-224 500-500 500z m-437-500c0 242 195 438 437 438 242 0 438-196 438-438 0-242-196-438-438-438-242 0-437 196-437 438z" horiz-adv-x="1000" />

<glyph glyph-name="globe-alt" unicode="&#xea0e;" d="M762 484c-36 76-101 133-180 157-7 3-13-6-9-13 25-46 45-97 57-150 1-4 5-7 9-7h115c6 0 11 7 8 13z m-337-195h150c5 0 8 4 9 8 2 18 3 35 4 53-1 18-2 35-4 53-1 4-4 8-9 8h-150c-5 0-8-4-9-8-2-18-3-35-3-53 0-18 1-35 3-53 1-4 4-8 9-8z m-179-60c-6 0-11-7-8-13 36-75 101-133 180-157 7-3 13 6 9 13-25 46-45 97-57 150-1 4-4 7-8 7h-116z m336-170c-7-3-13 6-9 13 25 46 45 97 57 150 1 4 5 7 9 7h115c6 0 11-7 8-13-36-75-101-133-180-157z m197 230c4 0 7 3 8 8 3 17 5 35 5 53 0 18-2 36-5 53-1 5-4 8-8 8h-127c-6 0-10-5-9-10 2-17 3-34 3-50 0-1 0-1 0-2 0-16-1-33-3-49-1-6 3-11 9-11h127z m-352 339c4 7-2 16-9 13-79-24-144-81-180-157-3-6 2-13 8-13h116c4 0 7 3 8 7 12 53 32 104 57 150z m-206-217c-4 0-7-3-8-8-3-17-5-35-5-53 0-18 2-36 5-53 1-5 4-8 8-8h127c6 0 10 5 9 11-1 16-2 33-3 49l0 1 0 1c1 16 2 33 3 50 1 5-3 10-9 10h-127z m286 212c-3 5-11 5-14 0-27-43-48-90-62-140-1-6 3-12 9-12h120c6 0 10 6 9 12-14 50-35 97-62 140z m62-406c1 6-3 12-9 12h-120c-6 0-10-6-9-12 14-50 35-97 62-140 3-5 11-5 14 0 27 43 48 90 62 140z m-69 633c-276 0-500-224-500-500 0-276 224-500 500-500 276 0 500 224 500 500 0 276-224 500-500 500z m-437-500c0 242 195 438 437 438 242 0 438-196 438-438 0-242-196-438-438-438-242 0-437 196-437 438z" horiz-adv-x="1000" />

<glyph glyph-name="newspaper" unicode="&#xea0f;" d="M294 559v-79l0 0v-341c0-8 0-13-1-17-1-11-10-19-21-19-11 0-21 10-21 23v433c0 13-9 23-21 23-12 0-22-10-22-23v-433c0-37 29-68 64-68 3 0 7 1 9 1 2 0 4-1 6-1h400c42 0 72 40 72 83v418c0 43-30 83-72 83h-321c-42 0-72-40-72-83z m106-59c0 16 13 30 29 30h195c16 0 29-14 29-30v-90c0-17-13-30-29-30h-195c-16 0-29 13-29 30v90z m22-180h209c12 0 22-10 22-22 0-13-10-23-22-23h-209c-12 0-22 10-22 23 0 12 10 22 22 22z m-22-112c0 12 10 22 22 22h209c12 0 22-10 22-22 0-12-10-22-22-22h-209c-12 0-22 10-22 22z m100 642c-276 0-500-224-500-500 0-276 224-500 500-500 276 0 500 224 500 500 0 276-224 500-500 500z m-437-500c0 242 195 438 437 438 242 0 438-196 438-438 0-242-196-438-438-438-242 0-437 196-437 438z" horiz-adv-x="1000" />

<glyph glyph-name="user-cancel" unicode="&#xea10;" d="M599 511c0 72-58 131-130 131-72 0-130-59-130-131 0-73 58-131 130-131 72 0 130 58 130 131z m-78-333c0 62 37 115 91 138-18 7-38 10-58 10h-170l-7 0c-85-3-153-67-168-151 0-2 0-6-1-12l0-1c0-26 22-48 49-48h278c-9 19-14 41-14 64z m160 101c-61 0-110-49-110-110 0-61 49-111 110-111 61 0 111 50 111 111 0 61-50 110-111 110z m-71-110c0 39 32 71 71 71 13 0 25-3 35-9l-97-97c-5 11-9 22-9 35z m37-62l97 96c5-10 8-22 8-34 0-40-31-71-71-71-12 0-24 3-34 9z m-147 743c-276 0-500-224-500-500 0-276 224-500 500-500 276 0 500 224 500 500 0 276-224 500-500 500z m-437-500c0 242 195 438 437 438 242 0 438-196 438-438 0-242-196-438-438-438-242 0-437 196-437 438z" horiz-adv-x="1000" />

<glyph glyph-name="user-info" unicode="&#xea11;" d="M619 476c0 69-55 124-123 124-68 0-123-55-123-124 0-69 55-124 123-124 68 0 123 56 123 124z m-83-275c0 18 11 34 27 40-16 6-27 22-27 40 0 8 2 15 5 21h-132c-80-3-145-64-158-143-1-2-1-6-1-11v-1c0-25 21-46 46-46h251c-3 6-6 14-6 21 0 17 10 32 25 39-18 5-30 21-30 40z m150 56c12 0 21 10 21 22 0 11-9 21-21 21h-72c-11 0-21-10-21-21 0-12 10-22 21-22h72z m67-78c12 0 22 9 22 21 0 12-10 21-22 21h-139c-11 0-21-9-21-21 0-12 10-21 21-21h139z m-139-79h139c12 0 22 10 22 21 0 12-10 22-22 22h-139c-11 0-21-10-21-22 0-11 10-21 21-21z m-114 750c-276 0-500-224-500-500 0-276 224-500 500-500 276 0 500 224 500 500 0 276-224 500-500 500z m-437-500c0 242 195 438 437 438 242 0 438-196 438-438 0-242-196-438-438-438-242 0-437 196-437 438z" horiz-adv-x="1000" />

<glyph glyph-name="brand-x" unicode="&#xea12;" d="M208 600l219-288-206-253h96l156 192 146-193h173l-230 303 194 238h-96l-144-177-135 178h-173z m107-53h41l330-435h-42l-329 435z m185 303c-276 0-500-224-500-500 0-276 224-500 500-500 276 0 500 224 500 500 0 276-224 500-500 500z m-437-500c0 242 195 438 437 438 242 0 438-196 438-438 0-242-196-438-438-438-242 0-437 196-437 438z" horiz-adv-x="1000" />

<glyph glyph-name="activity-slash" unicode="&#xed90;" d="M500-88c-242 0-437 196-437 438 0 242 195 438 437 438 242 0 438-196 438-438 0-242-196-438-438-438z m-500 438c0-276 224-500 500-500 276 0 500 224 500 500 0 276-224 500-500 500-276 0-500-224-500-500z m260 220l-28 29c-13 13-34 13-47 0-13-13-13-35 0-48l45-44c-1-4-1-8-1-11v-292c0-57 47-104 104-104h303l49-49c13-13 34-13 47 0 13 13 13 35 0 48l0 0c-2 1-4 3-6 4l-465 467-1 0z m508-366v292c0 57-47 104-104 104h-331c-2 0-5 0-8 0l189-190 16 69c2 10 11 17 21 18 10 0 19-6 22-15l44-130h38c12 0 22-10 22-22 0-12-10-22-22-22h-39l144-144c5 13 8 26 8 40z m-212 188l-4-19 17-17-13 36z m-172-40l40-39c-6-3-12-5-18-5h-50c-12 0-23 10-23 22 0 12 11 22 23 22h28z m79-79l51-51c-4-4-9-6-15-7-10 0-19 6-22 16l-14 42z" horiz-adv-x="1000" />

<glyph glyph-name="address-book" unicode="&#xed91;" d="M63 350c0 242 195 438 437 438 242 0 438-196 438-438 0-242-196-438-438-438-242 0-437 196-437 438z m437 500c-276 0-500-224-500-500 0-276 224-500 500-500 276 0 500 224 500 500 0 276-224 500-500 500z m-157-229c-46 0-84-37-84-83v-43h0-30c-14 0-25-11-25-25 0-13 11-25 25-25h30 0v-190h0-30c-14 0-25-12-25-25 0-14 11-25 25-25h30 0v-42c0-46 38-84 84-84h314c46 0 84 38 84 84v375c0 46-38 83-84 83h-314z m299-372c0-2 0-4 0-7 1-15-11-27-26-27l0 0h-232c-14 0-26 11-26 26l0 1c0 3 0 5 0 6 8 46 46 81 92 83l4 0h92c48 0 88-36 96-82z m-142 108c-39 0-71 32-71 72 0 39 32 72 71 72 39 0 71-33 71-72 0-40-32-72-71-72z" horiz-adv-x="1000" />

<glyph glyph-name="alarm" unicode="&#xed93;" d="M500-88c-242 0-437 196-437 438 0 242 195 438 437 438 242 0 438-196 438-438 0-242-196-438-438-438z m-500 438c0-276 224-500 500-500 276 0 500 224 500 500 0 276-224 500-500 500-276 0-500-224-500-500z m346 287c-11-1-22-4-31-11-10-7-17-16-21-26-9-20-7-44 6-62l103 73c-14 19-36 28-57 26z m390-306c0 131-106 237-236 237-131 0-237-106-237-237 0-72 33-136 84-180l-42-56c-9-12-7-28 5-37 12-9 29-7 38 5l44 58c32-17 69-26 108-26 39 0 76 9 108 26l44-58c9-12 26-14 38-5 12 9 14 25 5 37l-42 56c51 44 83 108 83 180z m-236 129c15 0 27-12 27-27v-77h77c15 0 27-12 27-27 0-15-12-27-27-27h-104c-15 0-27 12-27 27v104c0 15 12 27 27 27z m97 151l103-73c13 18 15 42 6 62-4 10-11 19-21 26-9 7-20 10-31 11-22 2-43-7-57-26z" horiz-adv-x="1000" />

<glyph glyph-name="album" unicode="&#xed94;" d="M500 788c242 0 438-196 438-438 0-242-196-438-438-438-242 0-437 196-437 438 0 242 195 438 437 438z m500-438c0 276-224 500-500 500-276 0-500-224-500-500 0-276 224-500 500-500 276 0 500 224 500 500z m-750 125v-250c0-69 56-125 125-125h250c69 0 125 56 125 125v250c0 69-56 125-125 125h-250c-69 0-125-56-125-125z m250-292c-92 0-167 75-167 167 0 92 75 167 167 167 92 0 167-75 167-167 0-92-75-167-167-167z m0 139c15 0 28 13 28 28 0 15-13 28-28 28-15 0-28-13-28-28 0-15 13-28 28-28z" horiz-adv-x="1000" />

<glyph glyph-name="arrows" unicode="&#xeda5;" d="M63 350c0 242 195 438 437 438 242 0 438-196 438-438 0-242-196-438-438-438-242 0-437 196-437 438z m437 500c-276 0-500-224-500-500 0-276 224-500 500-500 276 0 500 224 500 500 0 276-224 500-500 500z m-120-657c-13-13-13-34 0-47l97-97c6-6 14-10 23-10 9 0 17 4 24 10l96 97c13 13 13 34 0 47-13 13-34 13-47 0l-40-40v163h163l-39-39c-13-13-13-34 0-47 14-13 35-13 48 0l96 97c6 6 10 14 10 23 0 9-4 17-10 24l-96 96c-13 13-34 13-48 0-13-13-13-34 0-47l41-40h-165v165l40-40c13-14 34-14 47 0 13 13 13 34 0 47l-96 96c-7 6-15 10-24 10-9 0-17-4-23-10l-97-96c-13-13-13-34 0-48 13-13 34-13 47 1l39 38v-163h-163l40 40c13 13 13 34 0 47-13 13-34 13-47 0l-97-96c-6-7-10-15-10-24 0-9 4-17 10-23l97-97c13-13 34-13 47 0 13 13 13 34 0 47l-39 39h162v-162l-39 39c-13 13-34 13-47 0z" horiz-adv-x="1000" />

<glyph glyph-name="arrows-h" unicode="&#xeda6;" d="M500-88c-242 0-437 196-437 438 0 242 195 438 437 438 242 0 438-196 438-438 0-242-196-438-438-438z m-500 438c0-276 224-500 500-500 276 0 500 224 500 500 0 276-224 500-500 500-276 0-500-224-500-500z m377 128c-13 13-34 13-47 0l-104-104c-6-6-9-15-9-24 0-8 3-17 9-23l104-104c13-13 34-13 47 0 13 13 13 34 0 47l-80 80 80 80c13 13 13 35 0 48z m246-254c13-13 34-13 47 0l104 103c6 6 9 15 9 24 0 8-3 17-9 23l-104 104c-13 13-34 13-47 0-13-13-13-34 0-47l80-80-80-80c-13-13-13-34 0-47z m-406 127c0-19 15-34 33-34h500c18 0 33 15 33 34 0 18-15 33-33 33h-500c-18 0-33-15-33-33z" horiz-adv-x="1000" />

<glyph glyph-name="arrows-v" unicode="&#xeda7;" d="M938 350c0-242-196-438-438-438-242 0-437 196-437 438 0 242 195 438 437 438 242 0 438-196 438-438z m-438-500c276 0 500 224 500 500 0 276-224 500-500 500-276 0-500-224-500-500 0-276 224-500 500-500z m-128 377c-13-13-13-34 0-47l104-104c6-6 15-9 24-9 8 0 17 3 23 9l104 104c13 13 13 34 0 47-13 13-34 13-47 0l-80-80-80 80c-13 13-35 13-48 0z m255 246c13 13 13 34 0 47l-104 104c-6 6-15 9-24 9-8 0-17-3-23-9l-104-104c-13-13-13-34 0-47 13-13 34-13 47 0l80 80 80-80c13-13 35-13 48 0z m-128-406c19 0 34 15 34 33v500c0 18-15 33-34 33-18 0-33-15-33-33v-500c0-18 15-33 33-33z" horiz-adv-x="1000" />

<glyph glyph-name="article" unicode="&#xeda9;" d="M938 350c0-242-196-438-438-438-242 0-437 196-437 438 0 242 195 438 437 438 242 0 438-196 438-438z m-438-500c276 0 500 224 500 500 0 276-224 500-500 500-276 0-500-224-500-500 0-276 224-500 500-500z m157 771h-368l-5 0c-42-3-76-39-76-83v-376l1-5c2-43 37-78 80-78h368l4 0c43 3 77 39 77 83v91l-51-55v-36l0-3c-2-16-14-28-30-28h-368l-3 0c-15 2-27 15-27 31l0 280c0 27 23 50 50 50l328 0c28 0 50-23 50-51l0-16 20 22c8 8 19 13 30 11l1 80-1 5c-2 43-37 78-80 78z m113-285l6 6c16 16 17 42 1 58l-1 1c-16 17-43 17-59 1l-7-7 60-59z m-79 40l-111-109c-4-4-7-11-7-17l-10-51c-1-6 4-11 10-10l49 10c6 0 12 3 17 7l112 111-60 59z m-402 19c0-18 14-32 31-32h174c17 0 31 14 31 32 0 17-14 31-31 31h-174c-17 0-31-14-31-31z m0-96c0-17 14-31 31-31h101c17 0 31 14 31 31 0 18-14 32-31 32h-101c-17 0-31-14-31-32z" horiz-adv-x="1000" />

<glyph glyph-name="article-slash" unicode="&#xedaa;" d="M500-88c-242 0-437 196-437 438 0 242 195 438 437 438 242 0 438-196 438-438 0-242-196-438-438-438z m-500 438c0-276 224-500 500-500 276 0 500 224 500 500 0 276-224 500-500 500-276 0-500-224-500-500z m191 231c10 9 26 9 35-1l476-483c10-10 10-26 0-36-10-9-26-9-36 1l-52 53h-277c-37 0-67 30-69 67l0 4v281l-77 78c-10 10-10 26 0 36z m261-301l-1 0h-87c-13 0-25 11-25 25 0 14 12 25 25 25h39l-32 32h-7c-13 0-25 11-25 25 0 2 1 4 1 6l-29 29 0-236c0-13 11-25 24-26l2 0h233l-118 120z m51 82h11c14 0 25 11 25 25 0 14-11 25-25 25h-61l50-50z m136-137l97 95-52 51-95-94c-1 0-1 0-1 0l51-52z m42-41l34-34c6 11 9 23 9 36v79l-43-47v-32l0-2z m-287 287l243 0 0 0c24 0 44-20 44-44l0-14 17 19c7 8 16 11 26 10l0 69 0 4c-2 37-32 67-69 67h-318l-4 0c-13-1-26-6-37-14l98-97z m358-135l16 16c8 8 8 21 0 29l-21 23c-8 8-21 8-30 0l-16-16 51-52z" horiz-adv-x="1000" />

<glyph glyph-name="asterisk" unicode="&#xedab;" d="M63 350c0 242 195 438 437 438 242 0 438-196 438-438 0-242-196-438-438-438-242 0-437 196-437 438z m437 500c-276 0-500-224-500-500 0-276 224-500 500-500 276 0 500 224 500 500 0 276-224 500-500 500z m9-208c-23 0-42-19-42-42v-178l-154 89c-20 11-46 5-57-15-12-20-5-46 15-57l154-90-154-88c-20-12-26-37-15-57 12-20 37-27 57-16l154 89v-177c0-23 19-42 42-42 23 0 41 19 41 42v177l152-87c20-12 46-5 57 15 12 20 5 45-15 57l-152 87 153 88c19 12 26 37 15 57-12 20-37 27-57 16l-153-88v178c0 23-18 42-41 42z" horiz-adv-x="1000" />

<glyph glyph-name="audio-description" unicode="&#xedad;" d="M500-88c-242 0-437 196-437 438 0 242 195 438 437 438 242 0 438-196 438-438 0-242-196-438-438-438z m-500 438c0-276 224-500 500-500 276 0 500 224 500 500 0 276-224 500-500 500-276 0-500-224-500-500z m208 150v-300c0-46 38-83 84-83h416c46 0 84 37 84 83v300c0 46-38 83-84 83h-416c-46 0-84-37-84-83z m338-35h58c63 0 114-51 114-114 0-63-51-114-114-114h-58c-15 0-27 12-27 27v174c0 15 12 27 27 27z m27-174h31c33 0 60 27 60 60 0 33-27 59-60 59h-31v-119z m-215 156c5 10 15 16 26 16 10 0 20-6 24-17l61-140c0-1 0-2 0-2l13-30c6-14 0-30-14-36-14-6-30 1-36 14l-6 15h-86l-7-15c-6-14-22-20-35-14-14 6-20 22-14 36l12 29c1 1 1 2 1 3l61 141z m25-79l-20-47h40l-20 47z" horiz-adv-x="1000" />

<glyph glyph-name="backward" unicode="&#xedaf;" d="M938 350c0-242-196-438-438-438-242 0-437 196-437 438 0 242 195 438 437 438 242 0 438-196 438-438z m-438 500c-276 0-500-224-500-500 0-276 224-500 500-500 276 0 500 224 500 500 0 276-224 500-500 500z m-46-685c21-13 47 2 47 26v145c3-5 7-10 12-13l190-158c20-13 47 2 47 26v316c0 24-27 39-47 26l-190-158c-5-3-9-8-12-13v145c0 24-26 39-47 26l-189-158c-20-12-20-40 0-52l189-158z" horiz-adv-x="1000" />

<glyph glyph-name="brand-memberpress" unicode="&#xedb0;" d="M500-88c-242 0-437 196-437 438 0 242 195 438 437 438 242 0 438-196 438-438 0-242-196-438-438-438z m-500 438c0-276 224-500 500-500 276 0 500 224 500 500 0 276-224 500-500 500-276 0-500-224-500-500z m167 146c0-23 18-42 41-42 42 0 75-33 75-75v-175c0-23 19-41 42-41 23 0 42 18 42 41v175c0 42 33 75 75 75 41 0 74-33 75-74l0-1v-175c0-22 18-41 40-41 1 0 1 0 1 0h0c23 0 42 18 42 41v175l0 1c1 41 34 74 75 74 41 0 75-33 75-75v-175c0-23 19-41 42-41 23 0 41 18 41 41v175c0 88-70 159-158 159-46 0-88-20-117-52-29 32-70 52-116 52-46 0-88-20-117-52-13 15-29 27-47 35-21 11-44 17-70 17-23 0-41-19-41-42z" horiz-adv-x="1000" />

<glyph glyph-name="bars" unicode="&#xedb1;" d="M500-88c-242 0-437 196-437 438 0 242 195 438 437 438 242 0 438-196 438-438 0-242-196-438-438-438z m-500 438c0-276 224-500 500-500 276 0 500 224 500 500 0 276-224 500-500 500-276 0-500-224-500-500z m250 195c-11 0-21-10-21-21v-26c0-12 10-21 21-21h500c12 0 21 9 21 21v26c0 11-9 21-21 21h-500z m-21-182c0 12 10 21 21 21h500c12 0 21-9 21-21v-26c0-12-9-21-21-21h-500c-11 0-21 9-21 21v26z m0-161c0 12 10 21 21 21h500c12 0 21-9 21-21v-26c0-11-9-21-21-21h-500c-11 0-21 10-21 21v26z" horiz-adv-x="1000" />

<glyph glyph-name="bars-2" unicode="&#xedb2;" d="M63 350c0 242 195 438 437 438 242 0 438-196 438-438 0-242-196-438-438-438-242 0-437 196-437 438z m437 500c-276 0-500-224-500-500 0-276 224-500 500-500 276 0 500 224 500 500 0 276-224 500-500 500z m-250-548c-11 0-21-10-21-21v-26c0-12 10-21 21-21h500c12 0 21 9 21 21v26c0 11-9 21-21 21h-500z m-21 140v-26c0-12 10-21 21-21h500c12 0 21 9 21 21v26c0 11-9 21-21 21h-500c-11 0-21-10-21-21z" horiz-adv-x="1000" />

<glyph glyph-name="battery-full" unicode="&#xedb5;" d="M938 350c0-242-196-438-438-438-242 0-437 196-437 438 0 242 195 438 437 438 242 0 438-196 438-438z m-438-500c276 0 500 224 500 500 0 276-224 500-500 500-276 0-500-224-500-500 0-276 224-500 500-500z m292 590c-18 0-32-14-32-32v-116c0-18 14-32 32-32 17 0 31 14 31 32v116c0 18-14 32-31 32z m-496 85c-48 0-88-39-88-87v-175c0-49 40-88 88-88h350c48 0 87 39 87 88v175c0 48-39 87-87 87h-350z" horiz-adv-x="1000" />

<glyph glyph-name="battery-half" unicode="&#xedb6;" d="M500 788c242 0 438-196 438-438 0-242-196-438-438-438-242 0-437 196-437 438 0 242 195 438 437 438z m500-438c0 276-224 500-500 500-276 0-500-224-500-500 0-276 224-500 500-500 276 0 500 224 500 500z m-704 175c-48 0-88-39-88-87v-175c0-49 40-88 88-88h350c48 0 87 39 87 88v175c0 48-39 87-87 87h-350z m527-117v-116c0-18-14-32-31-32-18 0-32 14-32 32v116c0 18 14 32 32 32 17 0 31-14 31-32z m-542 15c0 16 13 29 29 29h146c16 0 29-13 29-29v-146c0-16-13-29-29-29h-146c-16 0-29 13-29 29v146z" horiz-adv-x="1000" />

<glyph glyph-name="battery-quarter" unicode="&#xedb7;" d="M500 788c242 0 438-196 438-438 0-242-196-438-438-438-242 0-437 196-437 438 0 242 195 438 437 438z m500-438c0 276-224 500-500 500-276 0-500-224-500-500 0-276 224-500 500-500 276 0 500 224 500 500z m-704 175c-48 0-88-39-88-87v-175c0-49 40-88 88-88h350c48 0 87 39 87 88v175c0 48-39 87-87 87h-350z m-15-256v162c0 12 10 21 21 21h46c11 0 21-9 21-21v-162c0-12-10-21-21-21h-46c-11 0-21 9-21 21z m511 171c-18 0-32-14-32-32v-116c0-18 14-32 32-32 17 0 31 14 31 32v116c0 18-14 32-31 32z" horiz-adv-x="1000" />

<glyph glyph-name="battery-slash" unicode="&#xedb8;" d="M500 788c242 0 438-196 438-438 0-242-196-438-438-438-242 0-437 196-437 438 0 242 195 438 437 438z m500-438c0 276-224 500-500 500-276 0-500-224-500-500 0-276 224-500 500-500 276 0 500 224 500 500z m-774 224c-13-13-13-35 0-48l8-7c-22-17-36-45-36-75v-188c0-51 40-93 90-93h302l60-60c13-13 34-13 47 0 13 13 13 34 0 47l-423 424c-13 13-35 13-48 0z m57-104l241-241h-236c-10 0-23 10-23 27v188c0 14 9 23 18 26z m390-204l55-55c7 13 12 29 12 45v188c0 52-41 94-91 94h-248l67-67h181c11 0 24-10 24-27v-178z m129 184c-21 0-37-17-37-37v-125c0-21 16-38 37-38 21 0 38 17 38 38v125c0 20-17 37-38 37z" horiz-adv-x="1000" />

<glyph glyph-name="battery-three-quarters" unicode="&#xedb9;" d="M500 788c242 0 438-196 438-438 0-242-196-438-438-438-242 0-437 196-437 438 0 242 195 438 437 438z m500-438c0 276-224 500-500 500-276 0-500-224-500-500 0-276 224-500 500-500 276 0 500 224 500 500z m-704 175c-48 0-88-39-88-87v-175c0-49 40-88 88-88h350c48 0 87 39 87 88v175c0 48-39 87-87 87h-350z m527-117c0 18-14 32-31 32-18 0-32-14-32-32v-116c0-18 14-32 32-32 17 0 31 14 31 32v116z m-542 15c0 16 13 29 29 29h263c16 0 29-13 29-29v-146c0-16-13-29-29-29h-263c-16 0-29 13-29 29v146z" horiz-adv-x="1000" />

<glyph glyph-name="bolt" unicode="&#xedbf;" d="M500 788c242 0 438-196 438-438 0-242-196-438-438-438-242 0-437 196-437 438 0 242 195 438 437 438z m500-438c0 276-224 500-500 500-276 0-500-224-500-500 0-276 224-500 500-500 276 0 500 224 500 500z m-706-58h192c12 0 22-11 20-24l-22-181c-1-8 9-13 15-6l242 293c11 14 1 34-17 34h-191c-13 0-22 11-21 24l23 181c1 9-10 13-15 7l-242-294c-11-14-1-34 16-34z" horiz-adv-x="1000" />

<glyph glyph-name="books" unicode="&#xedc3;" d="M500-88c-242 0-437 196-437 438 0 242 195 438 437 438 242 0 438-196 438-438 0-242-196-438-438-438z m-500 438c0-276 224-500 500-500 276 0 500 224 500 500 0 276-224 500-500 500-276 0-500-224-500-500z m526-213v29h-247v-29c0-20 16-37 36-37h52c19 0 35 17 35 37 0-20 16-37 36-37h52c20 0 36 17 36 37z m236 24l-7 27-119-33 7-27c5-20 25-32 44-26l50 13c19 6 30 26 25 46z m-14 52l-78 302c-1 0-2-1-4-2l-2-1-113-31 78-301 119 33z m-222-22v311h-247v-311h247z m138 346l-9 35c-5 20-25 32-44 26l-50-13c-19-6-30-26-25-45l9-35 113 32 2 0c2 0 3 0 4 0z m-262 30c-1 18-17 33-35 33h-52c-20 0-36-16-36-37v-36h247v36c0 21-16 37-36 37h-52c-20 0-36-16-36-37l0 4z" horiz-adv-x="1000" />

<glyph glyph-name="brand-android" unicode="&#xedc5;" d="M500-88c-242 0-437 196-437 438 0 242 195 438 437 438 242 0 438-196 438-438 0-242-196-438-438-438z m-500 438c0-276 224-500 500-500 276 0 500 224 500 500 0 276-224 500-500 500-276 0-500-224-500-500z m416 269c-10 11-27 11-38 0-10-10-10-28 0-38l33-33c-31-22-54-56-61-96h295c-7 40-30 74-62 96l33 33c11 10 11 28 0 38-10 11-27 11-38 0l-37-37c-4-4-6-7-7-11-12 3-24 4-37 4-12 0-25-1-36-4-2 4-4 7-7 11l-38 37z m-21-444c0 0 0 0 0 0v-75c0-15 12-27 27-27 15 0 27 12 27 27v75c0 0 0 0 0 0h96c0 0 0 0 0 0v-75c0-15 12-27 27-27 15 0 27 12 27 27v75c0 0 0 0 0 0h20c16 0 28 13 28 28v195h-300v-195c0-15 13-28 28-28h20z m324 279c-15 0-27-13-27-28v-152c0-15 12-27 27-27 15 0 28 12 28 27v152c0 15-13 28-28 28z m-417-28c0 15-12 28-27 28-15 0-27-13-27-28v-152c0-15 12-27 27-27 15 0 27 12 27 27v152z" horiz-adv-x="1000" />

<glyph glyph-name="brand-apple" unicode="&#xedc7;" d="M63 350c0 242 195 438 437 438 242 0 438-196 438-438 0-242-196-438-438-438-242 0-437 196-437 438z m437 500c-276 0-500-224-500-500 0-276 224-500 500-500 276 0 500 224 500 500 0 276-224 500-500 500z m-91-315c-49 0-93-30-118-74-51-87-13-217 36-288 24-35 53-74 91-73 16 1 28 6 41 11 14 6 29 13 52 13 23 0 37-6 50-12 14-6 26-11 45-11 39 1 64 35 88 70 11 16 19 32 25 45 9 20-2 44-19 58-21 18-43 48-43 95-1 35 13 61 27 79 16 19 23 48 3 62-29 20-60 24-73 24-30 3-56-8-77-16-13-5-25-10-33-10-10 0-23 6-37 11-17 8-37 16-58 16z m145 11c30 11 59 46 65 77 5 31-14 48-44 37-30-11-59-46-65-77-6-32 14-48 44-37z" horiz-adv-x="1000" />

<glyph glyph-name="brand-buddyboss" unicode="&#xedc8;" d="M500-88c-242 0-437 196-437 438 0 242 195 438 437 438 242 0 438-196 438-438 0-242-196-438-438-438z m-500 438c0-276 224-500 500-500 276 0 500 224 500 500 0 276-224 500-500 500-276 0-500-224-500-500z m383-29c-3-12-4-25-4-37-1-40 10-77 29-109-57 3-102 50-101 109 1 53 39 97 89 107l-13-70z m133 175c0 0 23 98-72 104-7 0-10-4-11-9l-18-99c-26 0-51-5-73-14l3 18c0 0 23 98-71 104-8 0-10-4-11-9l-51-270c-2-12-3-25-4-37-1-115 90-209 204-209 114 0 208 94 209 209 1 31-7 52-21 64-18 16-50 13-65-7-13-17-13-41-12-53 0-2 0-3 0-4-1-25-9-48-24-67-14 19-22 42-22 67 1 60 50 109 110 109 59 0 107-49 106-109 0-39-21-74-52-93 0 0 0 0-1 0-2-2-7-5-11-9-3-4-6-8-7-11 0 0-1-1-1-1-18-33-44-62-75-83-2-1-5-4-4-6 1-2 6-3 8-3 11-2 22-3 33-3 113 0 207 94 209 209 1 115-90 208-204 208-27 0-52-5-76-14l4 18z" horiz-adv-x="1000" />

<glyph glyph-name="brand-buddyboss-app" unicode="&#xedc9;" d="M500-88c-242 0-437 196-437 438 0 242 195 438 437 438 242 0 438-196 438-438 0-242-196-438-438-438z m-500 438c0-276 224-500 500-500 276 0 500 224 500 500 0 276-224 500-500 500-276 0-500-224-500-500z m593-271c46 0 83 38 83 84v375c0 46-37 83-83 83h-185c-46 0-84-37-84-83v-375c0-46 38-84 84-84h185z m-135 307l5 25c-18-4-32-20-32-39 0-20 16-37 36-38-7 11-10 24-10 38 0 5 0 9 1 14z m48 62l-2-6c9 3 18 5 27 5 41 0 74-33 73-75 0-41-34-74-74-74-4 0-8 0-12 1-1 0-3 0-3 1 0 1 1 2 1 2 12 8 21 18 27 30l1 0c0 1 1 3 2 4 1 2 3 3 4 3l0 0c11 7 19 20 19 33 0 22-17 39-38 39-21 0-39-17-39-39 0-8 3-17 8-23 5 6 8 15 8 23 0 1 0 1 0 1 0 0 0 1 0 1 0 4 0 13 4 19 6 7 17 8 24 2 5-4 7-11 7-23 0-41-34-74-74-74-41 0-74 33-73 74 0 5 0 9 1 14l18 96c1 2 2 3 4 3 34-2 26-37 26-37l-2-6c9 3 17 5 27 5l6 35c1 2 1 3 4 3 34-2 26-37 26-37z m-73-296c0 15 12 27 27 27h81c15 0 27-12 27-27 0-15-12-27-27-27h-81c-15 0-27 12-27 27z" horiz-adv-x="1000" />

<glyph glyph-name="brand-buddyboss-bolt" unicode="&#xedca;" d="M500-88c-242 0-437 196-437 438 0 242 195 438 437 438 242 0 438-196 438-438 0-242-196-438-438-438z m-500 438c0-276 224-500 500-500 276 0 500 224 500 500 0 276-224 500-500 500-276 0-500-224-500-500z m545-233c101 0 185 81 188 181l-2-1c-19-8-39-12-61-12-9 0-18 1-27 2-4-28-22-53-45-67-1 0-1 0-1 0-2-2-7-5-10-8-3-4-5-8-7-10 0 0 0-1 0-1-17-29-40-55-68-74-1-1-4-3-3-5 1-2 5-3 7-3 10-1 19-2 29-2z m-60 374c1 4 18 87-64 92-7 0-9-3-10-8l-17-88-10 0c-19-1-38-5-56-12l3 16 0 0c1 4 19 87-64 92-7 0-9-3-10-8l-45-240-2-8c-1-8-1-16-2-25-1-102 81-185 184-185 102 0 187 83 188 185l0 7 0 5c-21 14-37 33-49 54-11-1-22-6-29-15-11-15-11-37-11-47 0-2 0-3 0-4 0-22-8-43-21-59-12 16-20 37-19 59 0 44 30 81 69 93-4 14-6 29-6 45 0 16 2 31 7 45-14-2-27-6-39-10l3 16 0 0z m-188-189c1 47 35 87 80 95l-12-62-1-8c-1-8-2-16-2-25-1-35 9-68 26-96-51 2-92 44-91 96z m373 18l6 0 1 0c1 0 1 0 2 0 2 1 3 1 5 1 0 0 1 0 2 0 1 0 3 1 4 1 1 0 2 0 3 0 1 0 2 1 3 1 1 0 2 0 3 1 4 1 8 2 12 3 1 0 2 1 3 1 1 1 2 1 3 1 1 1 2 1 3 2 1 0 2 0 3 1 1 0 2 1 3 1l4 3 2 0c36 21 60 60 60 104 0 66-55 119-122 119-50 0-93-29-111-72l-1-1c-1-2-2-5-3-8l0-1c-1-2-1-3-2-5 0 0 0-1-1-2-1-5-2-9-2-14l0-1c-1-2-1-4-1-5 0-1 0-2 0-3l0-7c0-2 0-5 0-7 0 0 0-1 0-2 0-1 0-3 0-5 0 0 1-1 1-2 0-1 0-3 0-4 0-1 1-2 1-2 0-2 0-3 1-4 0-1 0-2 0-3 11-43 46-78 91-88 0 0 1 0 2 0 1 0 2-1 3-1 1 0 2 0 2 0 2-1 3-1 4-1 1 0 2 0 3 0 2 0 3 0 5-1 0 0 1 0 1 0l7 0z m56 13l-1 0c2 1 4 2 5 3-1-1-3-2-4-3z m-177 107c0 3 0 5 0 7v0c0-2 0-4 0-7z m115-120c0 0 0 0-1 0h0c1 0 1 0 1 0z m-2 173l1 1c1 0 2 0 3 0 1-1 1-2 1-3l-5-35 0-1c1-1 1-2 2-3 1-2 3-2 4-2h54l1 0c1-1 1-2 1-3 0 0 0-1 0-1l-50-60-1 0c-1-1-2-1-2 0-1 1-1 1-1 2l4 35 0 2c0 1-1 2-1 3-1 1-3 2-5 2h-53l-1 0c-1 0-2 1-2 2 0 1 0 1 1 2l49 59z" horiz-adv-x="1000" />

<glyph glyph-name="brand-buddypress" unicode="&#xedcb;" d="M500-88c-242 0-437 196-437 438 0 242 195 438 437 438 242 0 438-196 438-438 0-242-196-438-438-438z m-500 438c0-276 224-500 500-500 276 0 500 224 500 500 0 276-224 500-500 500-276 0-500-224-500-500z m500-292c161 0 292 131 292 292 0 161-131 292-292 292-161 0-292-131-292-292 0-161 131-292 292-292z m-80 287h13l22-21c2-2 5-2 6 0l23 21h13c52 0 95-42 95-95 0-17-15-31-32-31h-203c-18 0-32 14-32 31 0 53 42 95 95 95z m99 73c0-34-27-61-61-61-33 0-60 27-60 61 0 33 27 60 60 60 34 0 61-27 61-60z m10 31c0 26 21 47 47 47 25 0 46-21 46-47 0-26-21-47-46-47-26 0-47 21-47 47z m125-157h-33c-14 35-43 62-78 75 3 7 10 11 18 11h40l3 0c35-1 64-27 70-61 0-1 1-3 1-5l0-1c0-10-9-19-21-19z" horiz-adv-x="1000" />

<glyph glyph-name="brand-clubhouse" unicode="&#xedcd;" d="M500-88c-242 0-437 196-437 438 0 242 195 438 437 438 242 0 438-196 438-438 0-242-196-438-438-438z m-500 438c0-276 224-500 500-500 276 0 500 224 500 500 0 276-224 500-500 500-276 0-500-224-500-500z m252-130c1 9-5 18-14 19-10 1-18-6-19-15-9-72 43-133 115-137 10-1 18 6 18 16 1 9-7 17-16 17-53 3-90 48-84 100z m181 369l-3 3c-10 9-26 10-37 0-11-10-13-28-3-39l95-109c6-13-4-22-16-13l-126 141-2 2c-11 9-27 9-38 0-11-11-12-28-2-40l129-143c0-1 1-2 2-3 16-17 4-38-11-27l-105 117-2 3c-10 9-26 9-37 0-12-11-13-28-2-40l136-153-1 1c10-15-5-30-19-18l-66 73-2 2c-10 10-26 10-37 0-12-10-13-27-2-39l124-140c85-104 172-113 275-5 39 43 53 100 51 166-1 16-2 31-5 47l-7 46 0 3c-6 34-20 50-42 49-3 0-5-1-6-3l-39-113-100 114 0 0-102 118z m-124-372c1 9-6 18-15 19-9 1-17-6-18-15-5-41 24-76 65-78 9-1 17 7 18 16 0 9-7 17-16 18-22 1-37 19-34 40z m305 269c9-1 18 5 19 14 7 40-20 77-61 82-9 1-17-6-18-15-1-10 5-18 14-19 22-2 36-21 32-42-1-9 5-18 14-20z m56-6c9-1 18 5 20 14 12 71-36 136-108 143-10 1-18-5-19-15-1-9 6-17 15-18 53-6 88-52 79-104-2-9 4-18 13-20z" horiz-adv-x="1000" />

<glyph glyph-name="brand-codepen" unicode="&#xedce;" d="M500-88c-242 0-437 196-437 438 0 242 195 438 437 438 242 0 438-196 438-438 0-242-196-438-438-438z m-500 438c0-276 224-500 500-500 276 0 500 224 500 500 0 276-224 500-500 500-276 0-500-224-500-500z m481 284l-211-186c-2-2-4-4-6-6-8-5-14-15-14-26v-132c0-11 6-21 14-26 2-2 4-4 6-6l211-186c11-10 28-10 39 0l211 186c2 2 4 4 6 6 8 5 14 15 14 26v132c0 11-6 21-14 26-2 2-4 4-6 6l-211 186c-11 10-28 10-39 0z m190-284l20 17v-34l-20 17z m-341 0l-20-17v34l20-17z m45-40l95-84v-71l-135 120 40 35z m291-35l-135-120v71l95 84 40-35z m-86 75l-80-70-79 70 79 70 80-70z m46 40l-95 84v71l135-120-40-35z m-251 0l-40 35 135 120v-71l-95-84z" horiz-adv-x="1000" />

<glyph glyph-name="brand-dribbble" unicode="&#xedcf;" d="M500-88c-242 0-437 196-437 438 0 242 195 438 437 438 242 0 438-196 438-438 0-242-196-438-438-438z m-500 438c0-276 224-500 500-500 276 0 500 224 500 500 0 276-224 500-500 500-276 0-500-224-500-500z m290 194c-40-40-67-90-79-142 76-8 166 0 253 25-28 56-60 110-92 158-3 4-5 10-5 15-28-14-54-33-77-56z m192-168c-94-28-192-37-276-28-1 0-2 0-2 0-3-73 20-147 71-206 1 4 2 7 5 11 55 71 139 127 231 159 2 1 3 1 4 2-9 21-18 42-27 63-2 0-4-1-6-1z m249 139c-52-53-119-92-192-120 10-22 19-44 28-66 76 19 156 22 229 6 0 65-20 129-62 182-1-1-2-2-3-2z m-38 38c1 1 3 2 4 3-79 71-187 92-283 63 1-1 2-2 2-4 36-51 69-109 100-171 68 26 130 62 177 109z m-386-443c82-70 193-89 290-55-2 3-3 6-4 9-13 63-33 131-58 199-2-1-4-1-6-2-84-30-158-79-206-142-4-5-10-8-16-9z m280 168c25-69 46-138 59-201 23 13 44 29 64 48 44 44 71 99 82 156-2 0-4 1-6 1-63 14-132 11-199-4z" horiz-adv-x="1000" />

<glyph glyph-name="brand-edge" unicode="&#xedd0;" d="M500 788c242 0 438-196 438-438 0-242-196-438-438-438-242 0-437 196-437 438 0 242 195 438 437 438z m500-438c0 276-224 500-500 500-276 0-500-224-500-500 0-276 224-500 500-500 276 0 500 224 500 500z m-773 98c36 39 83 61 138 61h1c86-1 176-55 206-124h0c11-21 8-43 5-57-4-15-9-22-12-25 0 0 0 0 0-1l-1-1c-5-6-4-14 1-18 1-1 2-2 4-4l4-2c17-10 55-21 89-21 27 0 61 4 94 36 54 55 33 131 25 153-13 38-67 162-220 191-19 4-38 6-57 6-126 0-233-76-277-194z m-18-75c-10-122 64-232 151-281 13-7 53-27 109-34-50 24-87 65-105 118-28 88 8 182 92 240l0 0c13 8 28 13 44 13h0c2 0 4 0 6 0-38 32-90 53-140 53h-1c-68 0-124-39-156-109z m181-189c24-74 94-121 179-121 67 15 125 54 174 117l1 1c3 5 3 12-1 17-4 4-10 6-16 3l-6-3c-2-1-4-1-6-2-1 0-1-1-2-1-3-1-6-2-11-4-17-7-42-11-70-11-23 0-45 3-63 8-25 8-101 31-140 119-5 10-9 24-8 40-37-48-49-107-31-163z" horiz-adv-x="1000" />

<glyph glyph-name="brand-elementor" unicode="&#xedd1;" d="M500-88c-242 0-437 196-437 438 0 242 195 438 437 438 242 0 438-196 438-438 0-242-196-438-438-438z m-500 438c0-276 224-500 500-500 276 0 500 224 500 500 0 276-224 500-500 500-276 0-500-224-500-500z m344 250h-77c-9 0-17-7-17-17v-466c0-9 8-17 17-17h77c10 0 17 8 17 17v466c0 10-7 17-17 17z m406-94v77c0 10-7 17-17 17h-300c-9 0-16-7-16-17v-77c0-10 7-17 16-17h300c10 0 17 7 17 17z m0-117c0 9-7 17-17 17h-300c-9 0-16-8-16-17v-78c0-9 7-16 16-16h300c10 0 17 7 17 16v78z m0-272v77c0 10-7 17-17 17h-300c-9 0-16-7-16-17v-77c0-9 7-17 16-17h300c10 0 17 8 17 17z" horiz-adv-x="1000" />

<glyph glyph-name="brand-facebook" unicode="&#xedd2;" d="M500 788c242 0 438-196 438-438 0-242-196-438-438-438-242 0-437 196-437 438 0 242 195 438 437 438z m500-438c0 276-224 500-500 500-276 0-500-224-500-500 0-276 224-500 500-500 276 0 500 224 500 500z m-792 0c0-148 111-271 254-289v207h-59v69h59v51c0 59 36 92 89 92 18 0 36-1 54-3v-62h-37c-29 0-34-14-34-34v-44h69l-9-69h-60v-208c145 17 258 140 258 290 0 161-131 292-292 292-161 0-292-131-292-292z" horiz-adv-x="1000" />

<glyph glyph-name="brand-firefox" unicode="&#xedd3;" d="M63 350c0 242 195 438 437 438 242 0 438-196 438-438 0-242-196-438-438-438-242 0-437 196-437 438z m437 500c-276 0-500-224-500-500 0-276 224-500 500-500 276 0 500 224 500 500 0 276-224 500-500 500z m-262-359c-21-40-33-86-33-134 0-4 2-9 4-13 1-38 11-82 37-128 0 0 9-18 29-42 36-43 108-104 225-104 177 0 285 140 291 275 2 4 3 8 3 12 0 161-132 291-294 291-86 0-163-36-217-94-11 17-14 36-14 36 0 0-40-29-31-99z m107 47c41 35 96 56 155 56 85 0 160-44 202-109 8-186-138-330-286-223-8 6 8 5 29 5 21 0 49 0 60 6 5 3 10 6 15 10 11 6 22 13 28 12 15-2 19 10 11 18-8 10-31 28-57 16-72-34-120 16-112 45 1 6 7 13 10 13 4 4 12 10 23 18 26 19 62 46 69 61 2 5 4 17-3 19-11 3-38 3-48 3-19 0-32 11-31 23 1 15 11 33 40 56-50 8-78-32-78-32-9 2-18 3-27 3z" horiz-adv-x="1000" />

<glyph glyph-name="brand-flickr" unicode="&#xedd4;" d="M500-88c-242 0-437 196-437 438 0 242 195 438 437 438 242 0 438-196 438-438 0-242-196-438-438-438z m-500 438c0-276 224-500 500-500 276 0 500 224 500 500 0 276-224 500-500 500-276 0-500-224-500-500z m792 0c0 161-131 292-292 292-161 0-292-131-292-292 0-161 131-292 292-292h0c161 0 292 131 292 292v0z m-460 0c-1 41 32 74 73 75h0c41 0 74-34 74-74 0-41-33-74-73-74-41 0-74 33-74 73z m266 75h0c41 0 74-34 74-74 0-41-33-74-74-74-41 0-74 33-74 73 0 41 33 74 74 75z" horiz-adv-x="1000" />

<glyph glyph-name="brand-gamipress" unicode="&#xedd5;" d="M500-88c-242 0-437 196-437 438 0 242 195 438 437 438 242 0 438-196 438-438 0-242-196-438-438-438z m-500 438c0-276 224-500 500-500 276 0 500 224 500 500 0 276-224 500-500 500-276 0-500-224-500-500z m681-186c18 0 34 11 39 28l69 201c13 38-29 71-62 48l-48-32c1-6 2-11 2-17 0-35-29-63-64-63-35 0-63 28-63 63 0 28 18 52 43 60l-61 126c-15 31-60 31-75 0l-62-126c25-8 44-32 44-60 0-35-29-63-64-63-35 0-63 28-63 63 0 6 1 11 2 16l-44 31c-33 23-76-10-63-48l68-199c6-17 22-28 39-28h363z" horiz-adv-x="1000" />

<glyph glyph-name="brand-github" unicode="&#xedd6;" d="M500-88c-242 0-437 196-437 438 0 242 195 438 437 438 242 0 438-196 438-438 0-242-196-438-438-438z m-500 438c0-276 224-500 500-500 276 0 500 224 500 500 0 276-224 500-500 500-276 0-500-224-500-500z m372 125l68-24c19 4 39 7 60 7 21 0 42-3 61-7l67 24c15 6 31-5 31-21l2-64c16-21 26-45 26-71 0-74-52-134-118-138 29-46 28-99 28-99v-24c33 14 95 46 137 103 35 48 58 111 58 178 0 88-34 158-78 207-60 65-141 96-214 96-73 0-154-31-213-96-45-49-79-119-79-207 0-67 23-130 58-178 42-57 104-89 137-103v24c0 0-1 53 28 99-66 4-118 64-118 138 0 26 10 50 26 71l2 64c0 16 16 27 31 21z" horiz-adv-x="1000" />

<glyph glyph-name="brand-google" unicode="&#xedd7;" d="M500-88c-242 0-437 196-437 438 0 242 195 438 437 438 242 0 438-196 438-438 0-242-196-438-438-438z m-500 438c0-276 224-500 500-500 276 0 500 224 500 500 0 276-224 500-500 500-276 0-500-224-500-500z m500 288c-159 0-287-129-287-288 0-159 128-287 287-287 159 0 288 128 288 287 0 21-17 38-38 38h-219c-20 0-37-17-37-38 0-21 17-37 37-37h178c-17-100-104-175-209-175-117 0-212 95-212 212 0 117 95 213 212 213 52 0 99-19 136-50 16-13 40-11 53 5 13 16 11 40-5 53-50 41-114 67-184 67z" horiz-adv-x="1000" />

</font>
</defs>
</svg>
