<svg width="24" height="24" xmlns="http://www.w3.org/2000/svg"><path d="M9.315 4.056c.427 0 .78.351.78.777a.777.777 0 01-.669.76H6.843a1.29 1.29 0 00-1.282 1.166l-.019.13v10.278c0 .666.52 1.222 1.171 1.277l.13.019h8.251c.67 0 1.227-.5 1.282-1.167l.019-.13v-.37c0-.426.334-.777.762-.777.39 0 .725.296.78.685v.463A2.83 2.83 0 0115.261 20H6.843A2.83 2.83 0 014 17.352V6.889c0-1.519 1.17-2.74 2.657-2.833h2.658zM17.213 2A2.785 2.785 0 0120 4.611v7c0 1.796-1.45 3.24-3.252 3.24-1.728 0-3.16-1.351-3.252-3.055v-5.37c0-1.204.966-2.185 2.174-2.185 1.152 0 2.1.889 2.174 2.018l.019.167V11c0 .426-.353.76-.78.76-.39 0-.725-.279-.762-.667L16.302 11V6.426a.626.626 0 00-.632-.63.605.605 0 00-.613.519l-.019.11v5.186c0 .945.762 1.704 1.71 1.704.892 0 1.617-.685 1.691-1.556l.019-.148V4.778c0-.63-.502-1.167-1.134-1.222l-.111-.019h-3.197c-.632 0-1.17.5-1.226 1.111l-.019.13v6.166a.76.76 0 01-.78.778.778.778 0 01-.762-.666V4.778A2.784 2.784 0 0113.849 2h3.364z" fill="#000" fill-rule="nonzero"/></svg>