<svg width="24" height="24" xmlns="http://www.w3.org/2000/svg"><path d="M17.452 6.116c.187 0 .398 0 .608-.023h.679c1.544 0 2.761 1.116 2.761 2.628v8.535C21.5 18.79 20.283 20 18.739 20H5.238C3.693 20 2.5 18.79 2.5 17.256V8.744c0-1.535 1.193-2.651 2.714-2.651h2.13c.187-.349.42-.767.702-1.233C8.35 4.326 8.91 4 9.52 4h4.867c.608 0 1.17.326 1.474.86.304.512.538.93.749 1.256h.842zM15.58 7.163c-.28-.372-.585-.907-.983-1.582a.246.246 0 00-.21-.116H9.52a.28.28 0 00-.21.116c-.375.652-.68 1.186-.913 1.605l-.211.349H5.214c-.748 0-1.263.488-1.263 1.21v8.51c0 .745.561 1.28 1.263 1.28H18.74c.725 0 1.31-.558 1.31-1.28V8.722c0-.674-.538-1.186-1.287-1.186-.14 0-.374.023-.678.023h-.609c-.374.023-.678.023-.912.023-.14-.023-.258-.023-.328-.023s-.117-.023-.187-.023c-.047-.023-.047-.023-.164-.047-.164-.07-.187-.07-.304-.325zM12 16.605c-2.293 0-4.142-1.838-4.142-4.117S9.707 8.372 12 8.372s4.142 1.837 4.142 4.116c0 2.28-1.849 4.117-4.142 4.117zm0-1.465c1.474 0 2.69-1.187 2.69-2.652S13.475 9.814 12 9.814s-2.69 1.21-2.69 2.674c0 1.465 1.216 2.652 2.69 2.652z" fill="#000" fill-rule="nonzero"/></svg>