<svg width="24" height="24" xmlns="http://www.w3.org/2000/svg"><path d="M18.921 20H5.08C3.379 20 2 18.607 2 16.833V6.167C2 4.419 3.38 3 5.079 3H18.92C20.621 3 22 4.419 22 6.167v10.666C22 18.607 20.62 20 18.921 20zm0-1.57c.862 0 1.552-.71 1.552-1.597V6.167c0-.887-.69-1.596-1.552-1.596H5.08c-.862 0-1.552.71-1.552 1.596v10.666c0 .887.69 1.596 1.552 1.596H18.92zm-7.906-6.107c0 1.8-1.109 2.914-2.907 2.914-1.92 0-3.103-1.343-3.103-3.522 0-2.153 1.182-3.521 3.079-3.521 1.551 0 2.684.912 2.857 2.305H9.586c-.197-.684-.739-1.064-1.502-1.064-1.06 0-1.7.862-1.7 2.255 0 1.444.69 2.306 1.749 2.306.911 0 1.527-.533 1.552-1.343v-.127H8.28v-1.039h2.734v.836zm2.487 2.737h-1.354V8.37h1.354v6.689zm2.784 0H14.93V8.37h4.261v1.19h-2.906v1.749h2.66v1.14h-2.66v2.61z" fill="#000" fill-rule="nonzero"/></svg>