<svg width="24" height="24" xmlns="http://www.w3.org/2000/svg"><path d="M21 11c0 4.956-4.044 9-9 9s-9-4.044-9-9 4.044-9 9-9 9 4.044 9 9zm-1.553 0A7.44 7.44 0 0012 3.553 7.44 7.44 0 004.553 11 7.44 7.44 0 0012 18.447 7.44 7.44 0 0019.447 11zM8.252 12.504c0-.444.345-.789.764-.789.42 0 .765.345.765.79 0 1.207.986 2.218 2.219 2.218a2.226 2.226 0 002.22-2.219c0-.444.344-.789.764-.789.443 0 .789.345.789.79 0 2.07-1.702 3.747-3.773 3.747a3.746 3.746 0 01-3.748-3.748zm2.269-3.748c0 .839-.666 1.529-1.505 1.529-.838 0-1.528-.69-1.528-1.529 0-.838.69-1.529 1.528-1.529.839 0 1.505.69 1.505 1.53zm5.991 0c0 .839-.69 1.529-1.528 1.529-.839 0-1.505-.69-1.505-1.529 0-.838.666-1.529 1.505-1.529.838 0 1.528.69 1.528 1.53z" fill="#000" fill-rule="nonzero"/></svg>