<svg width="24" height="24" xmlns="http://www.w3.org/2000/svg"><path d="M2.386 19.224l1.513-4.354h5.96l1.482 4.354h1.976L7.79 4H5.937L.409 19.224h1.977zm6.917-5.96h-4.88L6.772 6.47h.185l2.347 6.794zm7.976 6.177c1.483 0 2.718-.68 3.428-1.884h.185v1.667h1.699v-7.782c0-2.377-1.544-3.798-4.262-3.798-2.378 0-4.138 1.204-4.385 3.026h1.791c.247-.895 1.205-1.39 2.532-1.39 1.668 0 2.533.773 2.533 2.162v1.05l-3.243.186c-2.594.154-4.076 1.327-4.076 3.366 0 2.1 1.606 3.397 3.798 3.397zm.31-1.606c-1.298 0-2.255-.68-2.255-1.822 0-1.143.74-1.76 2.47-1.853l2.996-.216v1.05c0 1.636-1.359 2.84-3.212 2.84z" fill="#000" fill-rule="nonzero"/></svg>