<svg width="28" height="12" viewBox="0 0 28 12" fill="none" xmlns="http://www.w3.org/2000/svg">
<path id="GIF" fill-rule="evenodd" clip-rule="evenodd" d="M10.6847 1.83491L8.81732 3.68606C7.98917 2.90663 6.98241 2.69553 6.21921 2.69553C4.36806 2.69553 3.16644 3.79973 3.16644 6.02436C3.16644 7.48579 3.92963 9.28823 6.21921 9.28823C6.82003 9.28823 7.76184 9.17456 8.41137 8.70365V7.24222H5.53721V4.7253H11.0907V9.77537C10.3762 11.2206 8.39513 12 6.20298 12C1.70501 12 0 8.99594 0 6.02436C0 3.05277 1.94858 0 6.21921 0C7.79432 0 9.1908 0.324763 10.6847 1.83491ZM16.5356 11.6912H13.3367V0.324463H16.5356V11.6912ZM19.2687 11.6912H22.4514V7.77778H27.6476V5.1472H22.4514V3.02H27.9886V0.324463H19.2687V11.6912Z" fill="white"/>
</svg>
