<svg xmlns="http://www.w3.org/2000/svg" width="48" height="41">
  <g fill="none" fill-rule="evenodd" stroke="#122B46" stroke-width="1.5" opacity=".25">
    <path d="M34.71 13.324C34.71 6.374 29.306.75 22.654.75c-5.884 0-10.882 4.438-11.867 10.439l-.072.438-.42.148C4.64 13.763.75 19.299.75 25.623c0 7.714 5.751 14.069 13.041 14.571a516862.968 516862.968 0 0 0 10.218.025h.127l10.338.026c6.651 0 12.056-5.623 12.056-12.574 0-6.604-4.903-12.055-11.178-12.527l-.748-.057.056-.748c.036-.47.05-.731.05-1.015zM24.434 33.688V17.745"/>
    <path d="M29.75 23.439l-5.373-5.694-5.373 5.694"/>
  </g>
</svg>
