<?xml version="1.0" encoding="UTF-8"?>
<svg width="72px" height="72px" viewBox="0 0 72 72" version="1.1" xmlns="http://www.w3.org/2000/svg" xmlns:xlink="http://www.w3.org/1999/xlink">
    <!-- Generator: Sketch 52.6 (67491) - http://www.bohemiancoding.com/sketch -->
    <title>icon_media</title>
    <desc>Created with Sketch.</desc>
    <g id="Page-1" stroke="none" stroke-width="1" fill="none" fill-rule="evenodd">
        <g id="More-icons" transform="translate(-280.000000, -100.000000)">
            <g id="icon_media" transform="translate(280.000000, 100.000000)">
                <rect id="Rectangle" fill="#7E48ED" opacity="0.1" x="0" y="0" width="72" height="72" rx="26"></rect>
                <g id="Group-2" transform="translate(18.000000, 19.000000)" fill-rule="nonzero">
                    <path d="M3,4.23353293 L9.54621541,4.23353293 C10.240387,4.23353293 10.8849127,3.87358284 11.2490168,3.28256466 L12.3924975,1.42645242 C12.9386536,0.539925138 13.9054421,2.955106e-13 14.9466996,2.95319325e-13 L21.026416,2.93542968e-13 C22.0638727,2.9335239e-13 23.0276956,0.536020241 23.5749995,1.41736859 L24.7370184,3.28862054 C25.1018876,3.87618611 25.7444362,4.23353293 26.436074,4.23353293 L33,4.23353293 C34.6568542,4.23353293 36,5.57667868 36,7.23353293 L36,27 C36,28.6568542 34.6568542,30 33,30 L3,30 C1.34314575,30 2.68482587e-14,28.6568542 2.66453526e-14,27 L8.2600593e-14,7.23353293 C8.3133478e-14,5.57667868 1.34314575,4.23353293 3,4.23353293 Z" id="Rectangle" fill="#7E48ED"></path>
                    <path d="M9.66316106,4.23353293 L9.74330488,4.22559693 C10.3660036,4.16393607 10.9239532,3.81438747 11.2511069,3.28097743 L11.5003221,2.87464272 L12.3924975,1.42645242 C12.9386536,0.539925138 13.9054421,2.9018153e-13 14.9466996,2.89990254e-13 L21.026416,2.88213897e-13 C22.0638727,2.88023319e-13 23.0276956,0.536020241 23.5749995,1.41736859 L24.4390406,2.80877334 L24.7314604,3.28356037 C25.059049,3.815449 25.6163425,4.16372794 26.2379993,4.22506743 L26.3237945,4.23353293 L9.66316106,4.23353293 Z" id="Rectangle-Copy-4" fill="#9B6DFD"></path>
                    <ellipse id="Oval" fill="#9B6DFD" cx="17.918552" cy="17.0359281" rx="7.81900452" ry="7.76047904"></ellipse>
                    <polygon id="Path-93" fill="#FFFFFF" points="16.5 14 16.5 20 20.5 17"></polygon>
                </g>
            </g>
        </g>
    </g>
</svg>