<svg width="72" height="72" viewBox="0 0 72 72" fill="none" xmlns="http://www.w3.org/2000/svg">
<rect width="72" height="72" fill="black" fill-opacity="0"/>
<rect opacity="0.1" width="72" height="72" rx="26.31" fill="#229FE7"/>
<rect width="34" height="34" fill="black" fill-opacity="0" transform="translate(19 19)"/>
<path fill-rule="evenodd" clip-rule="evenodd" d="M51.5049 32C51.7767 31.8571 52.0485 31.7143 52.1845 31.4286C52.7282 30.1429 53 28.8571 53 27.5714C53 22.8571 49.3301 19 44.8447 19C42.8058 19 40.9029 19.8571 39.4078 21.2857C39.1359 21.5714 39 21.8571 39 22.1429C44.5728 22.8571 49.3301 26.7143 51.5049 32" fill="#229FE7"/>
<path fill-rule="evenodd" clip-rule="evenodd" d="M20.4951 32C22.8058 26.7143 27.4272 23 33 22.1429C33 21.8571 32.8641 21.5714 32.5922 21.2857C31.0971 19.8571 29.1942 19 27.1553 19C22.6699 19 19 22.8571 19 27.5714C19 28.8571 19.2718 30.1429 19.8155 31.2857C19.9515 31.5714 20.2233 31.8571 20.4951 32" fill="#229FE7"/>
<path fill-rule="evenodd" clip-rule="evenodd" d="M43 39C43 39.7732 42.3732 40.4 41.6 40.4H35.6C35.0477 40.4 34.6 39.9523 34.6 39.4V33.4C34.6 32.6268 35.2268 32 36 32V32C36.7732 32 37.4 32.6268 37.4 33.4V37.6H41.6C42.3732 37.6 43 38.2268 43 39V39ZM49.58 50.62L46.78 47.82C48.74 45.44 50 42.36 50 39C50 31.3 43.7 25 36 25C28.3 25 22 31.3 22 39C22 42.36 23.12 45.44 25.22 47.82L22.42 50.62C21.86 51.18 21.86 52.02 22.42 52.58C22.7 52.86 22.98 53 23.4 53C23.82 53 24.1 52.86 24.38 52.58L27.18 49.78C29.56 51.88 32.64 53 36 53C39.36 53 42.44 51.88 44.82 49.78L47.62 52.58C47.9 52.86 48.32 53 48.6 53C48.88 53 49.3 52.86 49.58 52.58C50.14 52.02 50.14 51.18 49.58 50.62V50.62Z" fill="#6DC9FE"/>
</svg>
