<?xml version="1.0" encoding="UTF-8"?>
<svg width="72px" height="72px" viewBox="0 0 72 72" version="1.1" xmlns="http://www.w3.org/2000/svg" xmlns:xlink="http://www.w3.org/1999/xlink">
    <g stroke="none" stroke-width="1" fill="none" fill-rule="evenodd">
        <g transform="translate(-235.000000, -5081.000000)">
            <g transform="translate(235.000000, 4274.000000)">
                <g transform="translate(0.000000, 807.000000)">
                    <rect fill="#EE5959" opacity="0.100000001" x="0" y="0" width="72" height="72" rx="36"></rect>
                    <g transform="translate(16.000000, 22.000000)">
                        <ellipse fill="#EE5959" cx="26.8777778" cy="19.8709677" rx="5.01111111" ry="4.96774194"></ellipse>
                        <ellipse fill="#FF9F9F" cx="35.9888889" cy="4.96774194" rx="5.01111111" ry="4.96774194"></ellipse>
                        <ellipse fill="#FF9F9F" cx="5.01111111" cy="23.0322581" rx="5.01111111" ry="4.96774194"></ellipse>
                        <rect fill="#EE5959" transform="translate(11.674596, 13.981994) rotate(35.000000) translate(-11.674596, -13.981994) " x="10.3079292" y="8.33683284" width="2.73333333" height="11.2903226" rx="1.36666667"></rect>
                        <rect fill="#EE5959" transform="translate(20.883236, 14.485810) rotate(-44.000000) translate(-20.883236, -14.485810) " x="19.516569" y="8.84064892" width="2.73333333" height="11.2903226" rx="1.36666667"></rect>
                        <rect fill="#FF9F9F" transform="translate(32.876595, 10.473065) rotate(32.000000) translate(-32.876595, -10.473065) " x="31.5099282" y="4.82790406" width="2.73333333" height="11.2903226" rx="1.36666667"></rect>
                        <ellipse fill="#EE5959" cx="15.0333333" cy="8.58064516" rx="5.01111111" ry="4.96774194"></ellipse>
                    </g>
                </g>
            </g>
        </g>
    </g>
</svg>