<svg width="72" height="72" viewBox="0 0 72 72" fill="none" xmlns="http://www.w3.org/2000/svg">
<rect width="72" height="72" fill="black" fill-opacity="0"/>
<rect width="72" height="72" fill="black" fill-opacity="0"/>
<rect opacity="0.1" width="72" height="72" rx="26.31" fill="#229FE7"/>
<rect width="34" height="37" fill="black" fill-opacity="0" transform="translate(19 18)"/>
<path fill-rule="evenodd" clip-rule="evenodd" d="M46.3276 32.8469C50.0127 32.8469 53 29.8134 53 26.0714C53 22.3294 50.0127 19.2959 46.3276 19.2959C42.6426 19.2959 39.6553 22.3294 39.6553 26.0714C39.6553 29.8134 42.6426 32.8469 46.3276 32.8469Z" fill="#60C2FB"/>
<path fill-rule="evenodd" clip-rule="evenodd" d="M32.6076 20.4367C32.6076 20.4367 28.2248 21.4788 26.0039 24.562C23.7831 27.6453 23.7831 30.5658 23.7831 32.8848C23.7831 35.2037 23.7831 43.5794 23.7831 43.5794C23.7831 43.5794 23.5842 45.3291 22.4545 46.4542C21.3248 47.5794 20.9345 47.5675 20.1975 47.7197C20.1975 47.7197 19 47.983 19 48.9652C19 49.9474 20.1445 50.1197 20.7072 50.1292C21.2698 50.1388 48.4179 50.1292 48.4179 50.1292C48.4179 50.1292 49.9207 50.0132 49.92 48.9652C49.9193 47.9173 49.2818 47.8455 48.5846 47.6291C47.8873 47.4127 47.2063 47.072 46.68 46.5177C46.1538 45.9633 45.2917 45.2298 45.2837 43.0373C45.2758 40.8448 45.2837 34.067 45.2837 34.067C45.2837 34.067 40.6765 33.063 39.1011 29.1374C37.5258 25.2118 39.6708 21.6347 39.6708 21.6347C39.6708 21.6347 38.1049 20.7153 36.2336 20.4367V19.5085C36.2336 18.6754 35.5582 18 34.725 18H34.1161C33.283 18 32.6076 18.6754 32.6076 19.5085V20.4367Z" fill="#229FE7"/>
<path fill-rule="evenodd" clip-rule="evenodd" d="M34.4334 54.9999C36.8688 54.9999 38.843 53.5843 38.843 51.1113H30.0239C30.0239 53.5843 31.9981 54.9999 34.4334 54.9999Z" fill="#229FE7"/>
</svg>
