<svg width="457" height="370" viewBox="0 0 457 370" fill="none" xmlns="http://www.w3.org/2000/svg">
<rect width="457" height="370" fill="black" fill-opacity="0"/>
<path fill-rule="evenodd" clip-rule="evenodd" d="M80.5938 242.121C80.5938 242.121 54.6346 247.344 45.3115 251.075C25.1803 259.129 15.9512 269.417 15.9512 277.454C15.9512 295.092 31.4263 291.305 26.7246 299.105C22.023 306.906 -10.1289 319.718 3.66406 340.501C17.457 361.285 110.037 352.785 144.148 358.316C178.26 363.847 208.131 373.451 225.557 367.232C242.982 361.013 232.604 346.002 268.436 346.002C304.268 346.002 348.969 347.254 397.64 352.785C446.311 358.316 458.828 346.002 455.66 333.37C452.492 320.738 409.244 304.723 417.037 300.118C424.83 295.512 441.553 300.3 441.553 286.612C441.553 272.925 410.652 259.12 402.318 256.759C393.984 254.399 80.5938 242.121 80.5938 242.121Z" fill="#7E7C7C" fill-opacity="0.152004"/>
<rect width="427" height="232" fill="black" fill-opacity="0" transform="translate(11 99)"/>
<rect x="92" y="129" width="8" height="169" rx="3" fill="#34383B"/>
<rect x="354" y="129" width="8" height="169" rx="3" fill="#34383B"/>
<path fill-rule="evenodd" clip-rule="evenodd" d="M69.4395 105.299C69.4395 101.985 72.1257 99.2988 75.4395 99.2988H375.623C378.937 99.2988 381.623 101.985 381.623 105.299V128.619C381.623 131.933 378.937 134.619 375.623 134.619H75.4395C72.1257 134.619 69.4395 131.933 69.4395 128.619V105.299Z" fill="#EECC92"/>
<path fill-rule="evenodd" clip-rule="evenodd" d="M68.1152 149.668C68.1152 146.354 70.8015 143.668 74.1152 143.668H376.098C379.411 143.668 382.098 146.354 382.098 149.668V172.283C382.098 175.597 379.411 178.283 376.098 178.283H74.1152C70.8015 178.283 68.1152 175.597 68.1152 172.283V149.668Z" fill="#EECC92"/>
<path fill-rule="evenodd" clip-rule="evenodd" d="M74.75 188.389C71.4363 188.389 68.75 191.075 68.75 194.389V218.422C68.75 221.736 71.4363 224.422 74.75 224.422H376.613C379.927 224.422 382.613 221.736 382.613 218.422V194.389C382.613 191.075 379.927 188.389 376.613 188.389H74.75Z" fill="#EECC92"/>
<path d="M408.9 327.154C408.9 328.811 407.557 330.154 405.9 330.154C404.244 330.154 402.9 328.811 402.9 327.154V261.177C402.9 250.594 403.825 243.841 406.306 239.019C409.245 233.308 414.355 230.561 421.877 230.561C429.578 230.561 435.149 233.514 437.169 239.717C439.396 246.558 434.95 253.966 428.004 254.65C421.785 255.262 417.249 251.794 417.249 246.678C417.249 241.143 420.687 238.506 424.355 238.506C426.012 238.506 427.355 239.849 427.355 241.506C427.355 243.163 426.012 244.506 424.355 244.506C423.705 244.506 423.249 244.856 423.249 246.678C423.249 247.996 424.516 248.964 427.417 248.679C430.431 248.382 432.538 244.873 431.464 241.575C430.372 238.223 427.237 236.561 421.877 236.561C411.851 236.561 408.9 242.296 408.9 261.177V327.154Z" fill="#34383B"/>
<path d="M40.7474 327.154C40.7474 328.811 42.0906 330.154 43.7474 330.154C45.4043 330.154 46.7474 328.811 46.7474 327.154V261.177C46.7474 250.594 45.8229 243.841 43.3415 239.019C40.4026 233.308 35.2928 230.561 27.7709 230.561C20.0702 230.561 14.4989 233.514 12.4791 239.717C10.2515 246.558 14.6983 253.966 21.6435 254.65C27.8626 255.262 32.3986 251.794 32.3986 246.678C32.3986 241.143 28.9608 238.506 25.2924 238.506C23.6355 238.506 22.2924 239.849 22.2924 241.506C22.2924 243.163 23.6355 244.506 25.2924 244.506C25.9423 244.506 26.3986 244.856 26.3986 246.678C26.3986 247.996 25.1321 248.964 22.2312 248.679C19.2167 248.382 17.1103 244.873 18.1842 241.575C19.2757 238.223 22.411 236.561 27.7709 236.561C37.7964 236.561 40.7474 242.296 40.7474 261.177V327.154Z" fill="#34383B"/>
<rect width="52" height="31" fill="black" fill-opacity="0" transform="translate(17 204)"/>
<path fill-rule="evenodd" clip-rule="evenodd" d="M20.3043 234.683C18.6475 234.683 17.3043 233.34 17.3043 231.683V226.779L68.5303 204.992V209.998C68.5303 211.163 68.022 212.271 67.1385 213.03L43.0866 233.716C42.361 234.34 41.4356 234.683 40.4784 234.683H20.3043Z" fill="#9F8250"/>
<path fill-rule="evenodd" clip-rule="evenodd" d="M18.2988 227.684C17.3476 227.684 16.9336 226.481 17.6833 225.895L43.5672 205.681C44.2704 205.132 45.137 204.834 46.0292 204.834H68.5303L43.0866 226.716C42.361 227.34 41.4356 227.684 40.4784 227.684H18.2988Z" fill="#EECC92"/>
<rect width="52" height="31" fill="black" fill-opacity="0" transform="translate(434 204) scale(-1 1)"/>
<path fill-rule="evenodd" clip-rule="evenodd" d="M430.696 234.683C432.353 234.683 433.696 233.34 433.696 231.683V226.779L382.47 204.992V209.998C382.47 211.163 382.978 212.271 383.862 213.03L407.913 233.716C408.639 234.34 409.564 234.683 410.522 234.683H430.696Z" fill="#9F8250"/>
<path fill-rule="evenodd" clip-rule="evenodd" d="M432.701 227.684C433.652 227.684 434.066 226.481 433.317 225.895L407.433 205.681C406.73 205.132 405.863 204.834 404.971 204.834H382.47L407.913 226.716C408.639 227.34 409.564 227.684 410.522 227.684H432.701Z" fill="#EECC92"/>
<path fill-rule="evenodd" clip-rule="evenodd" d="M55.4258 256.922C54.3212 256.922 53.4258 256.027 53.4258 254.922L53.4258 250.375L396.442 249.992V254.922C396.442 256.027 395.546 256.922 394.442 256.922H55.4258Z" fill="#9F8250"/>
<path fill-rule="evenodd" clip-rule="evenodd" d="M55.3741 251.922C53.6702 251.922 52.7466 249.927 53.8489 248.628L66.5811 233.619C67.3412 232.724 68.4566 232.207 69.6314 232.207H381.169C382.399 232.207 383.56 232.773 384.318 233.741L396.026 248.689C397.054 250.001 396.119 251.922 394.452 251.922H55.3741Z" fill="#EECC92"/>
<path fill-rule="evenodd" clip-rule="evenodd" d="M32.0856 280.93C30.9811 280.929 30.0858 280.034 30.0858 278.93L30.0858 274.382L420.053 274.049V278.978C420.053 280.083 419.158 280.979 418.053 280.978L32.0856 280.93Z" fill="#9F8250"/>
<path fill-rule="evenodd" clip-rule="evenodd" d="M32 275.715C30.2429 275.715 29.3398 273.612 30.5498 272.338L44.884 257.245C45.6392 256.45 46.6877 256 47.7843 256L401.731 256C402.802 256 403.828 256.429 404.58 257.191L419.489 272.311C420.735 273.574 419.84 275.715 418.065 275.715H32Z" fill="#EECC92"/>
<path opacity="0.2" fill-rule="evenodd" clip-rule="evenodd" d="M197.499 276.806C197.499 276.806 212.893 264.066 225.514 264.066C238.135 264.066 265.264 258.695 268.875 252.064C272.056 246.224 272.056 242.271 261.473 232.251H248.573L245.901 224.403H258.777C258.777 224.403 251.793 215.306 250.169 210.49C246.998 201.085 247.862 191.791 247.485 188.426H242.531L239.03 178.326H246.55C244.833 167.996 240.955 153.336 243.653 143.691H234.539C234.539 143.691 234.493 140.227 235.178 138.562C235.863 136.897 238.254 134.661 238.254 134.661H250.169C260.859 125.049 277.118 112.211 272.496 112.211C267.436 112.211 239.941 120.203 236.88 123.484C233.818 126.766 225.514 151.523 225.514 151.523L230.846 197.34C230.846 197.34 189.34 249.094 189.34 252.064C189.34 255.035 197.499 276.806 197.499 276.806Z" fill="#6B5035"/>
<rect width="234" height="335" fill="black" fill-opacity="0" transform="translate(101)"/>
<path fill-rule="evenodd" clip-rule="evenodd" d="M167.587 309.617C167.587 309.617 161.361 324.463 167.587 329.938C173.813 335.413 200.063 335.997 203.62 333.819C207.178 331.64 211.545 326.998 209.361 322.308C207.178 317.619 205.566 306.751 205.566 306.751L198.377 296.187L169.604 303.484L167.587 309.617Z" fill="#7E7E7E"/>
<path opacity="0.5" fill-rule="evenodd" clip-rule="evenodd" d="M167.316 310.401C167.316 310.401 169.466 312.28 175.678 312.28C178.679 312.28 183.725 309.218 192.711 307.57C196.129 306.943 205.211 307.57 205.211 307.57L198.037 297.134L169.329 304.343L167.316 310.401Z" fill="#1C1C1E"/>
<path fill-rule="evenodd" clip-rule="evenodd" d="M131.316 222.999C131.316 222.999 154.215 250.073 154.215 258.149C154.215 266.224 158.312 279.966 158.312 279.966C158.312 279.966 165.417 290.082 165.417 293.612C165.417 297.142 166.465 309.44 168.642 309.44C170.819 309.44 189.3 302.879 194.531 302.879C199.762 302.879 205.269 306.914 205.269 306.914C205.269 306.914 209.106 301.626 209.106 299.022C209.106 296.418 205.269 295.971 205.269 293.612C205.269 291.253 206.584 286.858 205.269 282.787C203.954 278.717 200.579 274.701 200.579 270.46C200.579 266.219 197.441 258.549 197.441 254.61C197.441 250.671 239.316 208.635 239.316 208.635L237.367 195.84L136.175 202.856L131.316 222.999Z" fill="#303033"/>
<path fill-rule="evenodd" clip-rule="evenodd" d="M164.474 324.887C164.871 327.041 165.845 328.776 167.395 330.092C173.649 335.401 200.018 335.967 203.592 333.855C207.165 331.742 211.552 327.241 209.359 322.693C209.359 322.693 206.709 330.092 192.132 330.092C179.878 330.092 164.474 324.887 164.474 324.887Z" fill="#D1D1D1"/>
<path fill-rule="evenodd" clip-rule="evenodd" d="M131.316 223.129C131.316 223.129 154.215 250.331 154.215 258.446C154.215 258.446 178.678 260.566 192.398 267.982C198.562 271.313 201.771 281.118 197.441 286.493C193.111 291.869 176.185 285.805 176.185 288.107C176.185 290.408 194.531 292.593 194.531 295.694C194.531 299.514 173.409 305.898 177.807 307.475C179.787 308.185 191.494 303.39 194.531 303.39C199.762 303.39 205.269 307.444 205.269 307.444C205.269 307.444 209.106 302.131 209.106 299.514C209.106 296.898 205.269 296.449 205.269 294.078C205.269 291.708 206.584 287.292 205.269 283.202C203.954 279.112 200.579 275.077 200.579 270.816C200.579 266.555 197.441 258.848 197.441 254.891C197.441 250.933 239.316 208.696 239.316 208.696L237.367 195.84L136.175 202.889L131.316 223.129Z" fill="#1C1C1E"/>
<path fill-rule="evenodd" clip-rule="evenodd" d="M302.789 89.6613C302.789 89.6613 320.465 87.4782 325.719 91.2891C330.972 95.1001 335 100.198 335 100.198C335 100.198 323.763 99.3294 321.674 100.932C319.586 102.535 327.623 107.945 327.623 109.933C327.623 111.922 324.955 113.209 322.889 112.157C320.824 111.105 317.118 105.367 314.893 105.367C312.669 105.367 308.797 104.361 307.411 102.398C306.025 100.436 302.789 89.6613 302.789 89.6613Z" fill="#F6B983"/>
<path fill-rule="evenodd" clip-rule="evenodd" d="M163.562 101.128C163.562 101.128 141.591 99.7442 128.889 111.955V192.552C128.889 192.552 128.67 205.406 124.799 209.957C120.927 214.508 128.889 213.123 128.889 216.608C128.889 220.093 129.839 224.24 131.094 224.24C132.349 224.24 137.265 220.449 140.504 216.608C143.743 212.766 147.329 206.468 152.675 206.468C158.022 206.468 178.349 203.99 184.277 203.99C190.204 203.99 199.021 206.446 202.86 205.218C206.698 203.99 212.541 199.791 221.497 201.176C230.454 202.562 235.095 203.753 238.913 208.153C242.731 212.554 245.575 216.608 245.575 216.608C245.575 216.608 246.365 211.491 242.639 203.99C242.639 203.99 244.785 198.601 242.639 187.948C240.493 177.295 235.838 172.959 235.838 162.738C235.838 162.738 232.764 152.411 235.838 140.085C238.913 127.759 259.703 124.474 267.862 122.207C276.021 119.941 290.17 109.257 301.241 107.548C312.311 105.84 303.884 89.7967 303.884 89.7967C303.884 89.7967 293.652 86.0431 284.168 89.7967C274.685 93.5503 260.08 96.545 251.703 96.545C243.327 96.545 205.664 99.9979 205.664 99.9979L163.562 101.128Z" fill="#41575F"/>
<path fill-rule="evenodd" clip-rule="evenodd" d="M234.295 146.613C234.546 144.381 234.967 142.095 235.557 139.755C238.644 127.507 259.515 124.242 267.706 121.99C275.897 119.738 290.102 109.122 301.216 107.424C312.33 105.727 303.87 89.7848 303.87 89.7848C303.87 89.7848 293.598 86.055 284.077 89.7848C274.556 93.5146 259.894 96.4904 251.484 96.4904C249.121 96.4904 245.016 96.6936 239.17 97.1001C236.164 97.309 229.842 111.705 229.842 125.258C229.842 134.179 234.295 146.613 234.295 146.613Z" fill="#4D6872"/>
<path fill-rule="evenodd" clip-rule="evenodd" d="M167.289 95.8304C167.289 95.8304 167.601 100.838 162.579 100.838C162.579 100.838 169.198 119.89 183.581 131.466C183.581 131.466 201.398 120.492 205.211 99.7159C205.211 99.7159 199.205 99.5107 199.205 93.5996L167.289 95.8304Z" fill="#F6B983"/>
<path fill-rule="evenodd" clip-rule="evenodd" d="M167.664 95.2498C167.664 95.2498 167.287 98.7708 166.398 99.6229C165.958 100.044 170.51 101.165 175.428 103.736C179.364 105.795 181.072 107.8 184.368 107.8C187.974 107.8 193.119 106.256 196.196 103.736C199.446 101.075 202.783 99.0758 202.326 98.8335C200.523 97.8775 199.615 95.3567 199.615 92.6533L167.664 95.2498Z" fill="#E5A46B"/>
<path fill-rule="evenodd" clip-rule="evenodd" d="M155.102 173.388C155.102 173.388 156.527 173.31 158.562 172.01C160.598 170.709 168.081 169.15 170.418 168.145C172.756 167.14 175.276 165.439 177.247 167.383C179.219 169.326 172.659 177.557 170.216 178.843C170.216 178.843 177.532 182.724 181.259 183.038C184.985 183.352 191.038 183.651 192.271 183.651C193.017 183.651 194.934 185.061 194.781 186.783C194.681 187.906 193.426 189.177 191.33 190.227C191.33 190.227 191.278 194.39 186.807 196.165C186.807 196.165 181.663 200.934 178.811 201.614C175.959 202.293 164.454 204.481 155.553 197.354C155.553 197.354 154.219 195.718 151.47 195.718C151.47 195.718 149.743 189.242 150.487 184.066C151.496 177.037 155.102 173.388 155.102 173.388Z" fill="#F6B983"/>
<path d="M176.789 189.213C176.789 189.213 181.755 190.062 184.691 190.238C186.581 190.351 189.742 190.439 191.947 190.238L190.92 190.926C185.159 191.453 180.513 190.809 176.789 189.213Z" fill="#DAA06D"/>
<path d="M175.842 193.447C175.842 193.331 179.021 193.563 180.3 193.447C183.157 193.188 185.103 191.966 186.161 190.16L187.211 190.347C186.284 191.928 184.536 193.344 182.553 193.807C180.73 194.232 175.842 193.563 175.842 193.447Z" fill="#DAA06D"/>
<path d="M175.842 199.627C175.842 199.627 176.158 199.355 176.461 199.244C178.136 198.628 179.706 198.273 180.504 198.128C182.615 197.746 184.643 197.408 186.263 196.787L184.975 197.967C183.714 198.579 182.399 198.583 180.888 198.813C179.475 199.029 178.057 199.244 175.842 199.627Z" fill="#DAA06D"/>
<path fill-rule="evenodd" clip-rule="evenodd" d="M170.365 178.367C169.785 178.038 169.426 177.425 169.416 176.759L169.211 162.735C169.196 161.678 170.048 160.813 171.104 160.813H190.999C192.111 160.813 192.984 161.768 192.884 162.876L192.312 169.272L171.144 178.8C170.936 178.689 170.647 178.526 170.365 178.367Z" fill="#9C9C9C"/>
<path fill-rule="evenodd" clip-rule="evenodd" d="M170.383 179.354C169.807 179.024 169.451 178.414 169.442 177.75L169.238 163.68C169.223 162.624 170.075 161.76 171.131 161.76H190.826C191.938 161.76 192.81 162.713 192.712 163.82L190.968 183.533C190.968 183.533 182.46 183.402 178.543 182.654C176.37 182.239 173.907 181.283 171.155 179.788C170.949 179.676 170.662 179.514 170.383 179.354Z" fill="#282727"/>
<path fill-rule="evenodd" clip-rule="evenodd" d="M128.86 111.829C115.193 125.055 106.253 164.446 110.74 175.558C115.228 186.671 127.968 194.125 139.863 195.899C151.759 197.673 151.068 195.899 151.068 195.899L155 173.581C155 173.581 153.368 171.086 144.741 167.835C136.114 164.584 141.948 161.62 137.36 160.351C137.36 160.351 139.845 150.821 142.787 146.406C145.729 141.99 145.136 126.985 141.248 119.285C137.36 111.586 128.86 111.829 128.86 111.829Z" fill="#4D6872"/>
<path fill-rule="evenodd" clip-rule="evenodd" d="M140.206 195.953C151.928 197.693 151.477 195.953 151.477 195.953L155.187 173.209C155.187 173.209 153.312 171.007 144.811 167.818C144.811 167.818 141.39 171.171 139.334 179.302C138.172 183.899 140.206 195.953 140.206 195.953Z" fill="#D3D3D3"/>
<path d="M125.632 160.051C125.632 160.051 127.551 158.435 128.605 158.245C132.272 157.582 135.346 158.133 137.947 159.901L137.727 160.814C134.659 158.728 130.468 158.398 125.632 160.051Z" fill="#41575F"/>
<path fill-rule="evenodd" clip-rule="evenodd" d="M132.327 224.388C133.612 224.388 156.937 239.853 140.817 260.264C124.697 280.674 106.051 251.897 106.051 251.897C106.051 251.897 97.2455 226.851 103.791 224.388C110.337 221.925 131.042 224.388 132.327 224.388Z" fill="#7E7E7E"/>
<path fill-rule="evenodd" clip-rule="evenodd" d="M142.684 257.296C142.059 258.308 141.337 259.335 140.512 260.374C124.515 280.519 106.012 252.117 106.012 252.117C106.012 252.117 97.2742 227.396 103.77 224.965C104.627 224.645 105.728 224.408 106.997 224.24C106.997 224.24 106.997 237.291 111.465 246.487C113.303 250.269 118.5 260.256 124.358 262.169C130.126 264.053 142.684 257.296 142.684 257.296Z" fill="#D1D1D1"/>
<path fill-rule="evenodd" clip-rule="evenodd" d="M133.211 224.97C133.211 224.97 140.909 220.631 145.444 220.631C149.98 220.631 152.278 218.096 155.247 218.096C158.217 218.096 164.443 215.674 170.77 214.424C177.097 213.173 186.813 216.76 191.693 216.76C196.573 216.76 206.73 210.992 210.996 209.537C215.263 208.081 229.241 203.855 237.53 208.081C245.818 212.308 250.528 236.803 246.207 242.999C243.024 247.563 240.493 254.669 226.436 255.921C221.409 256.369 213.865 257.117 206.376 254.635C196.863 251.483 195.03 255.921 185.934 255.921C176.838 255.921 176.063 254.635 170.77 254.635C165.476 254.635 157.494 253.616 151.469 259.248C145.444 264.881 140.819 262.175 140.819 262.175L133.211 224.97Z" fill="#3C3C3C"/>
<path fill-rule="evenodd" clip-rule="evenodd" d="M203.316 252.887C203.316 252.887 217.217 244.12 227.015 244.12C236.813 244.12 218.033 248.533 217.581 250.526C217.129 252.519 220.127 255.48 220.127 255.48C220.127 255.48 213.793 255.48 211.069 255.041C208.345 254.602 203.316 252.887 203.316 252.887Z" fill="#1C1C1E"/>
<path fill-rule="evenodd" clip-rule="evenodd" d="M157.713 251.693C156.611 251.693 157.375 245.463 155.584 239.387C154.124 234.436 150.214 229.785 148.368 227.08C148.368 227.08 154.57 227.689 156.381 228.91C168.118 236.822 171.582 243.89 171.054 246.04C170.14 249.761 164.394 235.427 156.381 232.239C156.381 232.239 159.49 238.802 159.711 242.031C159.934 245.287 159.711 251.693 157.713 251.693Z" fill="#1C1C1E"/>
<path fill-rule="evenodd" clip-rule="evenodd" d="M152.109 101.317C152.109 101.317 160.909 130.466 184.793 141.88C184.793 141.88 212.984 122.922 219.242 98.7461L205.288 99.6023C205.288 99.6023 198.729 123.662 183.057 130.782C183.057 130.782 170.182 119.558 162.671 100.667C162.671 100.667 158.932 100.462 157.201 100.49C155.477 100.519 152.109 101.317 152.109 101.317Z" fill="#D3D3D3"/>
<path fill-rule="evenodd" clip-rule="evenodd" d="M181.526 174.067C182.573 174.067 183.421 173.219 183.421 172.174C183.421 171.973 183.39 171.78 183.332 171.599C183.21 171.216 182.699 171.899 182.052 171.484C181.405 171.07 181.948 170.28 181.526 170.28C180.48 170.28 179.632 171.128 179.632 172.174C179.632 173.219 180.48 174.067 181.526 174.067Z" fill="#D8D8D8"/>
<rect width="107" height="101" fill="black" fill-opacity="0" transform="translate(128)"/>
<path fill-rule="evenodd" clip-rule="evenodd" d="M147.672 63.2445C147.672 63.2445 146.065 60.2242 142.695 60.9877C139.325 61.7511 139.861 70.4527 141.754 71.8257C143.648 73.1986 145.936 74.3562 147.672 73.3553C147.672 73.3553 146.908 86.306 154.73 90.7845C162.552 95.2629 170.441 95.9062 171.584 97.2751C172.727 98.644 177.722 101.188 184.627 99.9158C191.532 98.644 193.84 96.115 196.139 94.5588C198.437 93.0026 211.653 88.0029 213.559 84.7005C215.465 81.3981 215.565 76.5822 215.565 76.5822C215.565 76.5822 220.527 75.899 221.658 70.3335C222.789 64.7679 219.824 64.4583 218.894 64.4583C217.963 64.4583 215.565 66.5245 215.565 66.5245L216.653 31.7842H147.672V63.2445Z" fill="#F7C69B"/>
<path fill-rule="evenodd" clip-rule="evenodd" d="M149.991 23.1301C149.991 23.1301 154.636 4.02154 161.791 1.35238C168.945 -1.31679 171.725 2.76748 179.122 2.76748C186.518 2.76748 193.241 -0.0627286 197.602 1.35238C201.963 2.76748 204.293 4.33178 213.128 23.1301C213.128 23.1301 202.679 17.2581 179.967 18.215C157.256 19.172 149.991 23.1301 149.991 23.1301Z" fill="#E2E1E1"/>
<path fill-rule="evenodd" clip-rule="evenodd" d="M149.991 23.1301C149.991 23.1301 151.186 18.6562 151.773 16.6933C152.181 15.33 166.361 11.5469 179.967 11.1622C193.285 10.7857 208.888 14.5023 210.242 17.1348C211.155 18.9088 213.128 23.1301 213.128 23.1301C213.128 23.1301 202.679 17.2581 179.967 18.215C157.256 19.1719 149.991 23.1301 149.991 23.1301Z" fill="#6C6C6C"/>
<path fill-rule="evenodd" clip-rule="evenodd" d="M141.01 46.4373C141.01 46.4373 141.652 59.0444 142.479 60.9929C142.479 60.9929 146.358 60.7435 147.474 63.7925C147.474 63.7925 148.021 64.0391 148.021 62.516C148.021 60.9929 146.91 57.5406 149.333 54.2344C151.756 50.9283 154.132 48.359 153.651 40.2666C153.651 40.2666 149.305 41.1402 145.892 42.7076C142.479 44.275 141.01 46.4373 141.01 46.4373Z" fill="#4A3625"/>
<path fill-rule="evenodd" clip-rule="evenodd" d="M220.934 43.242C220.934 43.242 219.621 62.5173 218.793 64.4658C218.793 64.4658 216.981 65.0658 215.414 66.7557C215.414 66.7557 214.895 62.6062 214.895 61.0831C214.895 59.56 214.365 57.4631 211.942 54.157C209.52 50.8508 207.812 45.1637 208.293 37.0713C208.293 37.0713 212.639 37.9449 216.052 39.5123C219.465 41.0797 220.934 43.242 220.934 43.242Z" fill="#4A3625"/>
<path fill-rule="evenodd" clip-rule="evenodd" d="M141.221 61.66C141.221 61.66 128.095 56.0171 128.095 49.9434C128.095 43.8698 133.469 28.0777 150.258 22.4584C167.047 16.8392 198.964 14.8704 213.506 22.4584C228.049 30.0465 236.56 38.2855 234.606 47.6139C232.653 56.9422 219.349 61.66 219.349 61.66C219.349 61.66 220.123 54.3219 220.123 50.7554C220.123 47.1889 219.349 42.4603 219.349 42.4603C219.349 42.4603 199.866 31.572 176.359 34.9122C152.853 38.2524 141.221 46.3298 141.221 46.3298C141.221 46.3298 141.838 57.5805 142.31 59.6202C142.783 61.66 141.221 61.66 141.221 61.66Z" fill="#E2E1E1"/>
<path fill-rule="evenodd" clip-rule="evenodd" d="M134.519 50.8925C134.519 50.8925 141.529 45.6691 145.916 43.0834C151.905 39.554 159.174 37.6141 165.644 36.156C172.246 34.6682 178.021 33.6967 181.207 33.5525C183.833 33.4336 186.711 33.4483 189.654 33.5525C193.783 33.6987 198.131 34.1248 202.901 35.5155C219.592 40.3822 226.589 47.287 226.589 47.287L219.349 42.4606C219.349 42.4606 199.866 31.5723 176.359 34.9125C152.853 38.2527 141.221 46.3301 141.221 46.3301L134.519 50.8925Z" fill="#D1D1D1"/>
<rect width="13.463" height="11.0627" fill="black" fill-opacity="0" transform="translate(160.01 60.085)"/>
<path fill-rule="evenodd" clip-rule="evenodd" d="M160.586 70.9326C160.586 70.9326 159.571 61.1018 166.081 60.2822C169.932 59.7974 172.195 62.5376 172.87 68.5028C172.913 68.8808 172.958 69.4862 172.993 69.9981C173.023 70.4472 172.588 70.7831 172.158 70.6528C171.597 70.4832 170.893 70.2824 170.423 70.1906C169.358 69.9826 168.268 69.8786 167.154 69.8786C164.083 69.8786 160.586 70.9326 160.586 70.9326Z" fill="white"/>
<mask id="mask0" mask-type="alpha" maskUnits="userSpaceOnUse" x="160" y="60" width="13" height="11">
<path fill-rule="evenodd" clip-rule="evenodd" d="M160.586 70.9326C160.586 70.9326 159.571 61.1018 166.081 60.2822C169.932 59.7974 172.195 62.5376 172.87 68.5028C172.913 68.8808 172.958 69.4862 172.993 69.9981C173.023 70.4472 172.588 70.7831 172.158 70.6528C171.597 70.4832 170.893 70.2824 170.423 70.1906C169.358 69.9826 168.268 69.8786 167.154 69.8786C164.083 69.8786 160.586 70.9326 160.586 70.9326Z" fill="white"/>
</mask>
<g mask="url(#mask0)">
<path fill-rule="evenodd" clip-rule="evenodd" d="M166.411 70.9517C168.533 70.9517 170.253 69.2346 170.253 67.1165C170.253 64.9983 168.533 63.2812 166.411 63.2812C164.29 63.2812 162.57 64.9983 162.57 67.1165C162.57 69.2346 164.29 70.9517 166.411 70.9517Z" fill="#5A5A5A"/>
</g>
<rect width="12.6711" height="11.8529" fill="black" fill-opacity="0" transform="translate(191.379 59.4453)"/>
<path fill-rule="evenodd" clip-rule="evenodd" d="M203.712 68.6783C203.712 68.6783 204.574 60.0486 197.715 59.7117C193.584 59.5087 191.58 62.543 191.706 68.8144C191.712 69.1283 191.737 69.6138 191.762 70.0407C191.788 70.478 192.238 70.7568 192.645 70.593C193.109 70.4059 193.668 70.186 194.046 70.0573C195.259 69.6436 196.496 69.3216 197.758 69.0912C200.823 68.5314 203.712 68.6783 203.712 68.6783Z" fill="white"/>
<mask id="mask1" mask-type="alpha" maskUnits="userSpaceOnUse" x="191" y="59" width="13" height="12">
<path fill-rule="evenodd" clip-rule="evenodd" d="M203.712 68.6783C203.712 68.6783 204.574 60.0486 197.715 59.7117C193.584 59.5087 191.58 62.543 191.706 68.8144C191.712 69.1283 191.737 69.6138 191.762 70.0407C191.788 70.478 192.238 70.7568 192.645 70.593C193.109 70.4059 193.668 70.186 194.046 70.0573C195.259 69.6436 196.496 69.3216 197.758 69.0912C200.823 68.5314 203.712 68.6783 203.712 68.6783Z" fill="white"/>
</mask>
<g mask="url(#mask1)">
<path fill-rule="evenodd" clip-rule="evenodd" d="M197.141 69.6724C199.262 69.6724 200.982 67.9553 200.982 65.8372C200.982 63.719 199.262 62.002 197.141 62.002C195.019 62.002 193.3 63.719 193.3 65.8372C193.3 67.9553 195.019 69.6724 197.141 69.6724Z" fill="#5A5A5A"/>
</g>
<rect x="160.65" y="67.7549" width="17.2852" height="7.03121" rx="3.196" stroke="#2A261D" stroke-width="1.9176" stroke-linecap="round" stroke-linejoin="round"/>
<rect x="187.366" y="66.2949" width="17.2852" height="7.03121" rx="3.196" transform="rotate(-3 187.366 66.2949)" stroke="#2A261D" stroke-width="1.9176" stroke-linecap="round" stroke-linejoin="round"/>
<path d="M188.53 74.5953C188.53 75.4179 188.047 76.1126 187.103 76.6912C186.529 77.043 185.558 77.2453 184.8 77.2944C184.63 77.3055 184.512 77.2721 184.493 77.1925C184.475 77.113 184.524 77.0577 184.694 77.0076C186.856 76.3688 187.89 75.5484 187.89 74.5953C187.89 73.6529 187.419 73.2678 186.32 73.3497C186.224 73.3568 186.131 73.3208 186.064 73.2514C185.435 72.5915 185.137 71.4053 185.033 69.6803C184.986 68.9031 185.033 68.0449 185.302 67.0542C185.341 66.91 185.425 66.7656 185.53 66.7656C185.636 66.7656 185.636 66.8779 185.626 67.0542C185.465 69.9646 185.75 71.856 186.434 72.7033C187.785 72.6546 188.53 73.312 188.53 74.5953Z" fill="#987151"/>
<path d="M177.956 69.5159C177.956 69.5159 182.802 67.5021 187.491 68.7755" stroke="#2A261D" stroke-width="1.9176"/>
<path d="M161.461 52.3358C160.449 52.6538 159.371 52.0925 159.052 51.0823C158.734 50.0721 159.296 48.9954 160.308 48.6775C163.269 47.7471 166.257 47.7521 169.218 48.6923C170.229 49.0133 170.788 50.0917 170.466 51.1009C170.145 52.1102 169.065 52.6681 168.054 52.3471C165.847 51.6462 163.667 51.6425 161.461 52.3358Z" fill="#7E5E43"/>
<path d="M193.394 51.7448C192.363 51.9933 191.325 51.3602 191.076 50.3307C190.827 49.3013 191.461 48.2652 192.493 48.0167C196.219 47.1186 199.565 47.1186 202.508 48.0534C203.519 48.3744 204.078 49.4528 203.756 50.462C203.435 51.4712 202.355 52.0292 201.344 51.7082C199.119 51.0017 196.477 51.0017 193.394 51.7448Z" fill="#7E5E43"/>
<path fill-rule="evenodd" clip-rule="evenodd" d="M176.164 84.112C176.164 84.112 179.838 87.558 182.616 87.558C185.394 87.558 188.57 84.7309 188.951 84.112C189.332 83.4931 185.726 84.112 182.557 84.112C179.389 84.112 176.164 84.112 176.164 84.112Z" fill="white"/>
<path fill-rule="evenodd" clip-rule="evenodd" d="M193.561 79.3418C193.259 79.5254 193.163 79.9189 193.346 80.2207C193.589 80.6191 193.831 80.9854 194.073 81.3164C190.751 82.791 186.976 83.5293 182.741 83.5293C178.52 83.5293 174.215 82.7949 169.825 81.3252C170.135 81.1104 170.478 80.8818 170.851 80.6416C171.149 80.4502 171.234 80.0547 171.043 79.7578C170.851 79.4609 170.455 79.376 170.158 79.5664C167.605 81.209 166.424 82.2373 166.424 83.0986C166.424 83.4521 166.71 83.7383 167.064 83.7383C167.417 83.7383 167.704 83.4521 167.704 83.0986C167.704 83.0361 167.837 82.8809 168.094 82.6494C168.232 82.5244 168.406 82.3779 168.616 82.2129C168.675 82.2646 168.746 82.3066 168.825 82.335C173.549 83.9824 178.188 84.8076 182.741 84.8076C187.286 84.8076 191.347 83.9863 194.918 82.3379C195.498 82.9443 196.081 83.3545 196.674 83.5664C197.007 83.6855 197.373 83.5127 197.493 83.1807C197.612 82.8486 197.439 82.4824 197.106 82.3633C196.316 82.0801 195.411 81.1504 194.441 79.5566C194.257 79.2549 193.863 79.1592 193.561 79.3418ZM178.84 90.9092C178.816 91.2607 179.082 91.5654 179.435 91.5898C182.418 91.791 184.835 91.4238 186.681 90.4697C186.995 90.3076 187.118 89.9219 186.955 89.6084C186.793 89.2949 186.407 89.1719 186.093 89.334C184.479 90.168 182.289 90.501 179.521 90.3145C179.169 90.29 178.863 90.5566 178.84 90.9092Z" fill="#9B7250"/>
<path d="M216.096 76.5051L215.558 76.597C215.558 76.597 215.376 75.3114 215.376 73.9859C215.376 72.6603 215.558 71.334 215.558 71.334C215.558 71.334 215.463 72.6309 215.558 73.9655C215.653 75.3001 216.096 76.5051 216.096 76.5051Z" fill="#DAA06D"/>
</svg>
