<svg width="72" height="72" viewBox="0 0 72 72" fill="none" xmlns="http://www.w3.org/2000/svg">
<rect width="72" height="72" fill="black" fill-opacity="0"/>
<rect opacity="0.1" width="72" height="72" rx="26.31" fill="#C925B6"/>
<rect width="39" height="19" fill="black" fill-opacity="0" transform="translate(17 27)"/>
<path fill-rule="evenodd" clip-rule="evenodd" d="M39.6116 29.7383C41.3973 27.9863 43.8125 27 46.3809 27C48.9493 27 51.3646 27.9863 53.1808 29.7832C54.9999 31.5762 56 33.959 56 36.5059C56 39.041 54.9999 41.4238 53.1808 43.2168C51.3646 45.0234 48.9493 46 46.3809 46C43.8013 46 41.3862 45.0137 39.5699 43.2168L37.3802 41.1465L37.2573 41.0352L36.5269 40.332L36.5 40.3184L33.3995 43.2617C31.6138 45.0234 29.1987 46 26.6302 46C24.0507 46 21.6354 45.0137 19.8192 43.2168C18.0001 41.4238 17 39.041 17 36.5059C17 33.959 18.0001 31.5762 19.8192 29.7832C21.6354 27.9863 24.0507 27 26.6302 27C29.1987 27 31.6138 27.9863 33.4301 29.7832L36.5 32.6914L39.6116 29.7383ZM41.3214 37.2578L43.4642 39.2891C45.0856 40.8789 47.7069 40.8457 49.2418 39.3301C50.0051 38.5684 50.4285 37.5703 50.4285 36.4961C50.4285 35.4316 50.0051 34.4219 49.2418 33.6719C47.7069 32.1562 45.041 32.1562 43.5089 33.6719L40.5253 36.4961L41.2158 37.1523L41.3214 37.2578ZM23.7581 39.3301C25.293 40.8457 27.959 40.8457 29.4911 39.3301L32.4858 36.5059L29.5357 33.7129C28.7307 32.918 27.7083 32.5 26.6302 32.5C25.541 32.5 24.5298 32.918 23.7693 33.6719C22.9948 34.4336 22.5714 35.4316 22.5714 36.5059C22.5714 37.5703 22.9948 38.5684 23.7581 39.3301Z" fill="#F65AE4"/>
<path fill-rule="evenodd" clip-rule="evenodd" d="M36.4944 40.3249L40.5231 36.4922L41.6079 37.5184L37.6607 41.4193L36.4944 40.3249Z" fill="#F9E9F7"/>
<path fill-rule="evenodd" clip-rule="evenodd" d="M31.3259 35.4105L35.4215 31.6562L36.5063 32.6825L32.4791 36.5085L31.3259 35.4105Z" fill="#F9E9F7"/>
</svg>
