<?xml version="1.0" encoding="UTF-8"?>
<svg width="72px" height="72px" viewBox="0 0 72 72" version="1.1" xmlns="http://www.w3.org/2000/svg" xmlns:xlink="http://www.w3.org/1999/xlink">
    <!-- Generator: Sketch 52.6 (67491) - http://www.bohemiancoding.com/sketch -->
    <title>icon_search</title>
    <desc>Created with Sketch.</desc>
    <g id="Page-1" stroke="none" stroke-width="1" fill="none" fill-rule="evenodd">
        <g id="More-icons" transform="translate(-100.000000, -100.000000)">
            <g id="icon_search" transform="translate(100.000000, 100.000000)">
                <rect id="Rectangle" fill="#F43149" opacity="0.1" x="0" y="0" width="72" height="72" rx="26"></rect>
                <g id="Group" transform="translate(20.000000, 20.000000)">
                    <path d="M32.5496273,29.0140934 C33.525938,29.9904041 33.525938,31.5733166 32.5496273,32.5496273 C31.5733166,33.525938 29.9904041,33.525938 29.0140934,32.5496273 L22.430048,25.9655819 C21.4537373,24.9892712 21.4537373,23.4063587 22.430048,22.430048 C23.4063587,21.4537373 24.9892712,21.4537373 25.9655819,22.430048 L32.5496273,29.0140934 Z" id="Stroke-455" fill="#F43149" fill-rule="nonzero"></path>
                    <path d="M13.7142857,1.5 C6.9678557,1.5 1.5,6.9678557 1.5,13.7142857 C1.5,20.4607157 6.9678557,25.9285714 13.7142857,25.9285714 C20.4607157,25.9285714 25.9285714,20.4607157 25.9285714,13.7142857 C25.9285714,6.9678557 20.4607157,1.5 13.7142857,1.5 Z M13.7142857,-1.5 C22.11757,-1.5 28.9285714,5.31100145 28.9285714,13.7142857 C28.9285714,22.11757 22.11757,28.9285714 13.7142857,28.9285714 C5.31100145,28.9285714 -1.5,22.11757 -1.5,13.7142857 C-1.5,5.31100145 5.31100145,-1.5 13.7142857,-1.5 Z" id="Stroke-456" fill="#FF7889" fill-rule="nonzero"></path>
                    <path d="M16.0025086,23.7000104 C15.2005372,23.8960557 14.3624199,24 13.5,24 C7.7005,24 3,19.2995 3,13.5 C3,9.07703361 5.73394787,5.29327767 9.60430017,3.74627562 C6.81434097,5.74138253 4.99609375,9.0081398 4.99609375,12.7000122 C4.99609375,18.7756789 9.92042708,23.7000122 15.9960938,23.7000122 C15.9982322,23.7000122 16.0003705,23.7000116 16.0025086,23.7000104 Z" id="Combined-Shape" fill="#FF7889" opacity="0.400000006"></path>
                </g>
            </g>
        </g>
    </g>
</svg>