<svg width="72" height="72" viewBox="0 0 72 72" fill="none" xmlns="http://www.w3.org/2000/svg">
<rect width="72" height="72" fill="black" fill-opacity="0"/>
<rect opacity="0.1" width="72" height="72" rx="26.31" fill="#7E48ED"/>
<rect width="25" height="38" fill="black" fill-opacity="0" transform="translate(24 17)"/>
<path fill-rule="evenodd" clip-rule="evenodd" d="M32.8905 20.7953C32.8905 20.7953 32.0822 18.3216 33.2246 17.127C33.2246 17.127 49.1634 17.8077 43.4135 37.2613C43.4135 37.2613 43.9296 21.8589 35.8119 20.7953C35.8119 20.7953 35.1306 20.9154 34.3892 20.9925C33.6477 21.0696 32.8905 20.7953 32.8905 20.7953Z" fill="#7E48ED"/>
<path fill-rule="evenodd" clip-rule="evenodd" d="M35.693 27.4115C35.693 27.4115 33.3902 31.4515 30.8593 31.4515C30.8593 31.4515 29.3593 32.3605 28.8374 32.7571C28.8374 32.7571 28.0796 33.2681 27.0945 33.0126C27.0945 33.0126 25.4496 32.1252 25.0788 30.7473C25.0788 30.7473 24.8671 29.8347 25.9808 28.7999C25.9808 28.7999 30.5376 25.4577 32.2748 21.3454C32.2748 21.3454 32.9867 20.1214 35.693 20.7464C35.693 20.7464 43.1143 21.3273 43.4751 33.1485V39.5541C43.4751 40.1063 43.0274 40.5541 42.4751 40.5541H30.6272C29.8448 40.5541 29.3604 39.6952 29.7599 39.0225C30.6201 37.5741 31.936 35.3068 33.0619 33.1485C34.9163 29.5935 35.693 27.4115 35.693 27.4115Z" fill="#9B6DFD"/>
<path fill-rule="evenodd" clip-rule="evenodd" d="M28.1325 40.8672C28.1325 40.8672 23.96 44.9565 26.0779 49.4345C26.0779 49.4345 35.8124 49.4345 46.7968 49.4345C46.7968 49.4345 48.7317 43.4984 44.3002 40.8672H28.1325Z" fill="#7E48ED"/>
<rect x="24" y="51" width="25" height="4" rx="2" fill="#9B6DFD"/>
<rect x="27.5757" y="39" width="17.523" height="1.91041" rx="0.955204" fill="#9B6DFD"/>
<rect x="24.5757" y="49" width="23.523" height="1.91041" rx="0.955204" fill="#F2ECFD"/>
</svg>
