<?xml version="1.0" encoding="utf-8"?>
<!-- Generator: Adobe Illustrator 22.0.1, SVG Export Plug-In . SVG Version: 6.00 Build 0)  -->
<!DOCTYPE svg PUBLIC "-//W3C//DTD SVG 1.1//EN" "http://www.w3.org/Graphics/SVG/1.1/DTD/svg11.dtd">
<svg version="1.1" id="Layer_1" xmlns="http://www.w3.org/2000/svg" xmlns:xlink="http://www.w3.org/1999/xlink" x="0px" y="0px"
	 viewBox="0 0 72 72" style="enable-background:new 0 0 72 72;" xml:space="preserve">
<style type="text/css">
	.st0{opacity:0.1;fill:#229FE7;enable-background:new    ;}
	.st1{fill:#3BAAE2;}
	.st2{fill:#FFFFFF;}
</style>
<title>icon_learnDash</title>
<desc>Created with Sketch.</desc>
<g id="Page-1">
	<g id="More-icons" transform="translate(-370.000000, -100.000000)">
		<g id="icon_learnDash" transform="translate(370.000000, 100.000000)">
			<path id="Rectangle" class="st0" d="M26,0h20c14.4,0,26,11.6,26,26v20c0,14.4-11.6,26-26,26H26C11.6,72,0,60.4,0,46V26
				C0,11.6,11.6,0,26,0z"/>
			<g id="Group-3" transform="translate(17.000000, 20.000000)">
				<path id="Rectangle_1_" class="st1" d="M3,0h32c1.7,0,3,1.3,3,3v26c0,1.7-1.3,3-3,3H3c-1.7,0-3-1.3-3-3V3C0,1.3,1.3,0,3,0z"/>
				<path id="Path" class="st2" d="M16,22.2v1.5c0,0.4-0.4,0.8-0.8,0.8H7.8c-0.4,0-0.8-0.4-0.8-0.8V8c0-0.3,0.2-0.5,0.5-0.5h2.9
					C10.7,7.5,11,7.7,11,8v13.3h4.2C15.6,21.3,16,21.7,16,22.2z"/>
				<path id="Combined-Shape" class="st2" d="M32.5,16c0,1.2-0.2,2.4-0.6,3.4s-0.9,1.9-1.6,2.7s-1.5,1.3-2.5,1.8
					c-1,0.4-2.1,0.6-3.3,0.6h-5.2c-0.4,0-0.8-0.4-0.8-0.8V8.3c0-0.4,0.4-0.8,0.8-0.8h0.2c1.2,0,7.3,0.2,8.3,0.6c1,0.4,1.8,1,2.5,1.8
					s1.2,1.7,1.6,2.7S32.5,14.8,32.5,16z M28.9,15.9c0-0.8-0.1-1.6-0.3-2.2c-0.2-0.7-0.5-1.2-0.8-1.7s-0.8-0.8-1.3-1.1
					s-1.1-0.4-1.8-0.4h-2.2c-0.1,0-0.3,0.1-0.3,0.3V21c0,0.1,0.1,0.3,0.3,0.3h2.2c0.7,0,1.3-0.1,1.8-0.4c0.5-0.2,1-0.6,1.3-1.1
					c0.4-0.5,0.6-1,0.8-1.7C28.8,17.5,28.9,16.7,28.9,15.9z"/>
			</g>
		</g>
	</g>
</g>
</svg>
