<svg width="72" height="72" viewBox="0 0 72 72" fill="none" xmlns="http://www.w3.org/2000/svg">
<rect width="72" height="72" fill="black" fill-opacity="0"/>
<rect opacity="0.1" width="72" height="72" rx="26.31" fill="#7E48ED"/>
<rect width="36" height="34" fill="black" fill-opacity="0" transform="translate(18 19)"/>
<rect width="36" height="34" fill="black" fill-opacity="0" transform="translate(18 19)"/>
<path fill-rule="evenodd" clip-rule="evenodd" d="M52.5 23H46.5V20H43.5V23H37.5V20H34.5V23H28.5V20H25.5V23H19.5C18.672 23 18 23.672 18 24.5V29H54V24.5C54 23.672 53.328 23 52.5 23" fill="#7E48ED"/>
<path fill-rule="evenodd" clip-rule="evenodd" d="M43 20.3875C43 19.6212 43.6212 19 44.3875 19H45.1046C45.8709 19 46.4921 19.6212 46.4921 20.3875V24.4249C46.4921 25.1912 45.8709 25.8124 45.1046 25.8124H44.3875C43.6212 25.8124 43 25.1912 43 24.4249V20.3875Z" fill="#9B6DFD"/>
<path fill-rule="evenodd" clip-rule="evenodd" d="M34 20.3875C34 19.6212 34.6212 19 35.3875 19H36.1046C36.8709 19 37.4921 19.6212 37.4921 20.3875V24.4249C37.4921 25.1912 36.8709 25.8124 36.1046 25.8124H35.3875C34.6212 25.8124 34 25.1912 34 24.4249V20.3875Z" fill="#9B6DFD"/>
<path fill-rule="evenodd" clip-rule="evenodd" d="M25 20.3875C25 19.6212 25.6212 19 26.3875 19H27.1046C27.8709 19 28.4921 19.6212 28.4921 20.3875V24.4249C28.4921 25.1912 27.8709 25.8124 27.1046 25.8124H26.3875C25.6212 25.8124 25 25.1912 25 24.4249V20.3875Z" fill="#9B6DFD"/>
<path fill-rule="evenodd" clip-rule="evenodd" d="M48 38C48 38.8284 47.3284 39.5 46.5 39.5H43.5C42.6716 39.5 42 38.8284 42 38V35C42 34.1716 42.6716 33.5 43.5 33.5H46.5C47.3284 33.5 48 34.1716 48 35V38ZM39 38C39 38.8284 38.3284 39.5 37.5 39.5H34.5C33.6716 39.5 33 38.8284 33 38V35C33 34.1716 33.6716 33.5 34.5 33.5H37.5C38.3284 33.5 39 34.1716 39 35V38ZM39 47C39 47.8284 38.3284 48.5 37.5 48.5H34.5C33.6716 48.5 33 47.8284 33 47V44C33 43.1716 33.6716 42.5 34.5 42.5H37.5C38.3284 42.5 39 43.1716 39 44V47ZM30 38C30 38.8284 29.3284 39.5 28.5 39.5H25.5C24.6716 39.5 24 38.8284 24 38V35C24 34.1716 24.6716 33.5 25.5 33.5H28.5C29.3284 33.5 30 34.1716 30 35V38ZM30 47C30 47.8284 29.3284 48.5 28.5 48.5H25.5C24.6716 48.5 24 47.8284 24 47V44C24 43.1716 24.6716 42.5 25.5 42.5H28.5C29.3284 42.5 30 43.1716 30 44V47ZM18 29V51.5C18 52.328 18.672 53 19.5 53H52.5C53.328 53 54 52.328 54 51.5V29H18Z" fill="#9B6DFD"/>
</svg>
