<svg width="72" height="72" viewBox="0 0 72 72" fill="none" xmlns="http://www.w3.org/2000/svg">
<rect width="72" height="72" fill="black" fill-opacity="0"/>
<rect opacity="0.1" width="72" height="72" rx="26.31" fill="#1FC1C1"/>
<rect width="38" height="31" fill="black" fill-opacity="0" transform="translate(17 21)"/>
<rect width="38" height="31" fill="black" fill-opacity="0" transform="translate(17 21)"/>
<rect width="38" height="31" fill="black" fill-opacity="0" transform="translate(17 21)"/>
<path d="M17.4935 24.1387H55V49.7218C55 50.5504 54.3283 51.2221 53.4998 51.2221H18.9938C18.1652 51.2221 17.4935 50.5504 17.4935 49.7218V24.1387Z" fill="#67E8E8"/>
<path d="M17.4935 24.1387H26V51.2221H18.9938C18.1652 51.2221 17.4935 50.5504 17.4935 49.7218V24.1387Z" fill="#1FC1C1"/>
<path d="M17.4935 22.5003C17.4935 21.6717 18.1652 21 18.9938 21H53.4998C54.3283 21 55 21.6717 55 22.5003V24.0222H17.4935V22.5003Z" fill="#1FC1C1"/>
<rect width="5" height="2" fill="black" fill-opacity="0" transform="translate(18.9938 21.9824)"/>
<path fill-rule="evenodd" clip-rule="evenodd" d="M19.5564 23.1158C19.8671 23.1158 20.119 22.862 20.119 22.5491C20.119 22.2361 19.8671 21.9824 19.5564 21.9824C19.2457 21.9824 18.9938 22.2361 18.9938 22.5491C18.9938 22.862 19.2457 23.1158 19.5564 23.1158Z" fill="white"/>
<path fill-rule="evenodd" clip-rule="evenodd" d="M21.4317 23.1158C21.7424 23.1158 21.9943 22.862 21.9943 22.5491C21.9943 22.2361 21.7424 21.9824 21.4317 21.9824C21.121 21.9824 20.8691 22.2361 20.8691 22.5491C20.8691 22.862 21.121 23.1158 21.4317 23.1158Z" fill="white"/>
<path fill-rule="evenodd" clip-rule="evenodd" d="M23.307 23.1158C23.6178 23.1158 23.8696 22.862 23.8696 22.5491C23.8696 22.2361 23.6178 21.9824 23.307 21.9824C22.9963 21.9824 22.7444 22.2361 22.7444 22.5491C22.7444 22.862 22.9963 23.1158 23.307 23.1158Z" fill="white"/>
<rect width="8" height="11" fill="black" fill-opacity="0" transform="translate(36 31)"/>
<path d="M38.08 36.9225C38.08 37.2029 37.8651 37.4302 37.6 37.4302C37.3349 37.4302 37.12 37.2029 37.12 36.9225V34.3589C37.12 32.6699 38.392 31.3379 40 31.3379C41.608 31.3379 42.88 32.6699 42.88 34.3589V36.9225C42.88 37.2029 42.6651 37.4302 42.4 37.4302C42.1349 37.4302 41.92 37.2029 41.92 36.9225V34.3589C41.92 33.233 41.08 32.3533 40 32.3533C38.92 32.3533 38.08 33.233 38.08 34.3589V36.9225Z" fill="#1FC1C1"/>
<rect x="36" y="35.2305" width="8" height="6.76923" rx="0.846154" fill="#1FC1C1"/>
<path fill-rule="evenodd" clip-rule="evenodd" d="M40 37.7695C40.442 37.7695 40.8 38.1482 40.8 38.6157C40.8 39.0832 40.442 39.4618 40 39.4618C39.558 39.4618 39.2 39.0832 39.2 38.6157C39.2 38.1482 39.558 37.7695 40 37.7695V37.7695Z" fill="#67E8E8"/>
<path d="M39.6 39.4621C39.6 39.2285 39.7791 39.0391 40 39.0391C40.2209 39.0391 40.4 39.2285 40.4 39.4621V40.3083C40.4 40.542 40.2209 40.7314 40 40.7314C39.7791 40.7314 39.6 40.542 39.6 40.3083V39.4621Z" fill="#67E8E8"/>
</svg>
