<svg width="72" height="72" viewBox="0 0 72 72" fill="none" xmlns="http://www.w3.org/2000/svg">
<rect opacity="0.1" width="72" height="72" rx="26.3077" fill="#7E48ED"/>
<path fill-rule="evenodd" clip-rule="evenodd" d="M37.0738 19.0693C44.5448 19.0693 51.5765 21.9258 56.9097 27.1221C57.0292 27.2393 57.0292 27.4316 56.9114 27.5498L54.3232 30.124C54.2041 30.2422 54.0106 30.2412 53.8902 30.125C49.3638 25.7324 43.4041 23.3164 37.0738 23.3164C30.7435 23.3164 24.7838 25.7314 20.2574 30.125C20.1971 30.1836 20.1185 30.2129 20.0401 30.2119C19.962 30.2119 19.884 30.1826 19.8244 30.123L17.2362 27.5498C17.214 27.5273 17.1959 27.5029 17.182 27.4766C17.1212 27.3613 17.1395 27.2168 17.2375 27.1221C22.5711 21.9258 29.6028 19.0693 37.0738 19.0693ZM28.8245 38.7803C28.8094 38.8086 28.7993 38.8398 28.7944 38.8711C28.78 38.9629 28.8088 39.0596 28.8801 39.1309L31.4674 41.7051C31.5865 41.8242 31.7796 41.8232 31.9027 41.71C34.8155 39.0332 39.3321 39.0332 42.244 41.71C42.3675 41.8232 42.5606 41.8242 42.6793 41.7051L45.2675 39.1309C45.3209 39.0771 45.3504 39.0098 45.3558 38.9404C45.3625 38.8555 45.3322 38.7676 45.2643 38.7041C40.6853 34.374 33.4619 34.375 28.8828 38.7041C28.8586 38.7275 28.8391 38.7529 28.8245 38.7803ZM37.0738 50.9229C39.0951 50.9229 40.7336 49.293 40.7336 47.2822C40.7336 45.2715 39.0951 43.6416 37.0738 43.6416C35.0526 43.6416 33.414 45.2715 33.414 47.2822C33.414 49.293 35.0526 50.9229 37.0738 50.9229Z" fill="#7E48ED"/>
<path fill-rule="evenodd" clip-rule="evenodd" d="M23.0599 32.9137C22.9386 33.0304 22.939 33.2225 23.0582 33.341L25.6459 35.9155C25.7655 36.0349 25.9581 36.0349 26.079 35.9173C32.2052 30.051 41.942 30.051 48.0682 35.9173C48.1895 36.0331 48.3821 36.034 48.5013 35.9155L51.089 33.341C51.2081 33.2225 51.2081 33.03 51.0872 32.9133C43.2961 25.3917 30.8506 25.3926 23.0599 32.9137Z" fill="#9B6DFD"/>
<rect x="43.1948" y="14.126" width="4.42804" height="38.1746" rx="2.21402" transform="rotate(30 43.1948 14.126)" fill="#7E48ED"/>
<rect x="47.0296" y="16.3398" width="1.77122" height="38.1746" transform="rotate(30 47.0296 16.3398)" fill="#F2ECFD"/>
</svg>
