<?xml version="1.0" encoding="UTF-8"?>
<svg width="90px" height="90px" viewBox="0 0 90 90" version="1.1" xmlns="http://www.w3.org/2000/svg" xmlns:xlink="http://www.w3.org/1999/xlink">
    <!-- Generator: Sketch 53.2 (72643) - https://sketchapp.com -->
    <title>Products@1x</title>
    <desc>Created with Sketch.</desc>
    <g id="Page-1" stroke="none" stroke-width="1" fill="none" fill-rule="evenodd">
        <g id="Search-result-category-icon" transform="translate(-685.000000, -362.000000)">
            <g id="Products" transform="translate(685.000000, 362.000000)">
                <g id="Group-67-Copy" fill="#F5F5F5">
                    <g id="Group-65-Copy">
                        <rect id="Rectangle-4-Copy" x="0" y="0" width="90" height="90" rx="3"></rect>
                    </g>
                </g>
                <g id="Group-69" transform="translate(16.000000, 25.000000)" fill="#C8CBCF" fill-rule="nonzero">
                    <path d="M28.4886878,34.4405366 C28.8836041,35.0902861 29.1111111,35.853594 29.1111111,36.6701909 C29.1111111,39.0394925 27.1958848,40.9601909 24.8333333,40.9601909 C22.4707819,40.9601909 20.5555556,39.0394925 20.5555556,36.6701909 C20.5555556,35.853594 20.7830626,35.0902861 21.1779789,34.4405366 L17.5175802,34.4405366 L8.7625193,3.5 L2,3.5 C1.17157288,3.5 0.5,2.82842712 0.5,2 C0.5,1.17157288 1.17157288,0.5 2,0.5 L11.0314176,0.5 L13.9059274,10.6585672 L12.8313224,6.77039754 L48.4980869,6.77039754 C49.6026564,6.77039754 50.4980869,7.66582804 50.4980869,8.77039754 C50.4980869,8.89222361 50.4869557,9.01379489 50.4648323,9.13359532 L47.8444777,23.323027 C47.5131019,25.117454 46.009311,26.4601551 44.1889544,26.5869615 L18.9113467,28.3478058 L19.7864785,31.4405366 L46.5959278,31.4405366 C47.4243549,31.4405366 48.0959278,32.1121095 48.0959278,32.9405366 C48.0959278,33.7689637 47.4243549,34.4405366 46.5959278,34.4405366 L43.3775767,34.4405366 C43.7724929,35.0902861 44,35.853594 44,36.6701909 C44,39.0394925 42.0847737,40.9601909 39.7222222,40.9601909 C37.3596708,40.9601909 35.4444444,39.0394925 35.4444444,36.6701909 C35.4444444,35.853594 35.6719515,35.0902861 36.0668677,34.4405366 L28.4886878,34.4405366 Z M30,15.1324019 L30,20.3402373 C30,21.1686644 30.6715729,21.8402373 31.5,21.8402373 C32.3284271,21.8402373 33,21.1686644 33,20.3402373 L33,15.1324019 C33,14.3039748 32.3284271,13.6324019 31.5,13.6324019 C30.6715729,13.6324019 30,14.3039748 30,15.1324019 Z M22,15.1324019 L22,20.3402373 C22,21.1686644 22.6715729,21.8402373 23.5,21.8402373 C24.3284271,21.8402373 25,21.1686644 25,20.3402373 L25,15.1324019 C25,14.3039748 24.3284271,13.6324019 23.5,13.6324019 C22.6715729,13.6324019 22,14.3039748 22,15.1324019 Z M38,15.1324019 L38,20.3402373 C38,21.1686644 38.6715729,21.8402373 39.5,21.8402373 C40.3284271,21.8402373 41,21.1686644 41,20.3402373 L41,15.1324019 C41,14.3039748 40.3284271,13.6324019 39.5,13.6324019 C38.6715729,13.6324019 38,14.3039748 38,15.1324019 Z" id="Combined-Shape"></path>
                </g>
            </g>
        </g>
    </g>
</svg>