<svg width="24" height="24" viewBox="0 0 24 24" fill="none" xmlns="http://www.w3.org/2000/svg">
<path d="M4.17556 3.18225C3.88333 2.98044 3.47975 3.00957 3.21967 3.26966C2.92678 3.56255 2.92678 4.03742 3.21967 4.33032L4.39366 5.50431C4.30018 5.8199 4.25 6.15409 4.25 6.5V15.38C4.25 17.313 5.817 18.88 7.75 18.88H17.6887C17.7153 18.88 17.7419 18.8797 17.7685 18.8791L19.2197 20.3303C19.5126 20.6232 19.9874 20.6232 20.2803 20.3303C20.5577 20.0529 20.5724 19.6124 20.3244 19.3177C20.2876 19.2923 20.2525 19.2631 20.2197 19.2303L4.21967 3.23031C4.20414 3.21479 4.18944 3.19875 4.17556 3.18225ZM20.532 17.4214C20.9453 16.8468 21.1887 16.1418 21.1887 15.38V6.5C21.1887 4.567 19.6217 3 17.6887 3H7.75C7.26623 3 6.80539 3.09815 6.3863 3.27562L7.61515 4.50447C7.65972 4.50151 7.70468 4.5 7.75 4.5H17.6887C18.7932 4.5 19.6887 5.39543 19.6887 6.5V15.38C19.6887 15.726 19.6008 16.0516 19.4461 16.3354L20.532 17.4214ZM14.2354 11.1247L14.5427 9.75658L15.148 11.5445C15.305 12.0082 15.7402 12.3203 16.2298 12.3203H17.646C18.0602 12.3203 18.396 11.9845 18.396 11.5703C18.396 11.1561 18.0602 10.8203 17.646 10.8203H16.4865L15.1067 6.74511C14.9989 6.42672 14.6924 6.21895 14.3567 6.23668C14.0211 6.25441 13.7381 6.49378 13.6644 6.82175L12.98 9.8693L14.2354 11.1247ZM13.4612 14.5719L16.2694 17.38H7.75C6.64543 17.38 5.75 16.4846 5.75 15.38V6.86065L9.63526 10.7459L9.59618 10.8203H8.23563C7.82141 10.8203 7.48563 11.1561 7.48563 11.5703C7.48563 11.9845 7.82141 12.3203 8.23563 12.3203H9.81246C10.1818 12.3203 10.5247 12.1421 10.7375 11.8481L11.2471 12.3577L11.9896 14.7373C12.0907 15.0614 12.3969 15.2771 12.7361 15.2633C13.0753 15.2495 13.3629 15.0095 13.4373 14.6783L13.4612 14.5719Z" fill="black"/>
</svg>
