<svg width="24" height="24" viewBox="0 0 24 24" fill="none" xmlns="http://www.w3.org/2000/svg">
<path d="M6.6 4.47273H17.4C18.6426 4.47273 19.65 5.57166 19.65 6.92727V17.0727C19.65 18.4283 18.6426 19.5273 17.4 19.5273H6.6C5.35736 19.5273 4.35 18.4283 4.35 17.0727V6.92727C4.35 5.57167 5.35736 4.47273 6.6 4.47273ZM3 6.92727V17.0727C3 19.2417 4.61177 21 6.6 21H17.4C19.3882 21 21 19.2417 21 17.0727V6.92727C21 4.7583 19.3882 3 17.4 3H6.6C4.61178 3 3 4.7583 3 6.92727ZM14.2616 7.8056C14.1634 7.5207 13.8882 7.33542 13.5873 7.35156C13.2863 7.3677 13.0326 7.58136 12.9654 7.87513L11.6307 13.7121L10.6328 10.5712C10.5506 10.3126 10.3215 10.1283 10.0513 10.1034C9.78108 10.0786 9.52223 10.218 9.39425 10.4573L8.36873 12.3748H6.74941C6.37662 12.3748 6.07441 12.677 6.07441 13.0498C6.07441 13.4226 6.37662 13.7248 6.74941 13.7248H8.45862C8.90129 13.7248 9.30802 13.4811 9.51679 13.0907L9.83044 12.5042L11.0936 16.48C11.1858 16.7701 11.4607 16.9626 11.7649 16.95C12.069 16.9374 12.3271 16.7228 12.3949 16.4261L13.755 10.4783L14.5953 12.9159C14.7622 13.3999 15.2178 13.7248 15.7298 13.7248H17.2494C17.6222 13.7248 17.9244 13.4226 17.9244 13.0498C17.9244 12.677 17.6222 12.3748 17.2494 12.3748H15.8367L14.2616 7.8056Z" fill="black"/>
</svg>
