<svg width="24" height="24" viewBox="0 0 24 24" fill="none" xmlns="http://www.w3.org/2000/svg">
<path d="M7.75 4.5H17.75C18.5784 4.5 19.25 5.17157 19.25 6V18C19.25 18.8284 18.5784 19.5 17.75 19.5H7.75C6.92157 19.5 6.25 18.8284 6.25 18V6C6.25 5.17157 6.92157 4.5 7.75 4.5ZM4.75 6V7.25H3.75C3.33579 7.25 3 7.58579 3 8C3 8.41421 3.33579 8.75 3.75 8.75H4.75V15.25H3.75C3.33579 15.25 3 15.5858 3 16C3 16.4142 3.33579 16.75 3.75 16.75H4.75V18C4.75 19.6569 6.09315 21 7.75 21H17.75C19.4069 21 20.75 19.6569 20.75 18V6C20.75 4.34315 19.4069 3 17.75 3H7.75C6.09315 3 4.75 4.34315 4.75 6ZM12.7489 10.5612C12.1135 10.5612 11.5845 10.0403 11.5845 9.38058C11.5845 8.72085 12.1135 8.2 12.7489 8.2C13.3843 8.2 13.9134 8.72085 13.9134 9.38058C13.9134 10.0403 13.3843 10.5612 12.7489 10.5612ZM15.1134 9.38058C15.1134 8.06582 14.0548 7 12.7489 7C11.4431 7 10.3845 8.06582 10.3845 9.38058C10.3845 10.6953 11.4431 11.7612 12.7489 11.7612C14.0548 11.7612 15.1134 10.6953 15.1134 9.38058ZM8.03492 15.3824C8.02744 15.4259 8.02254 15.4986 8.02022 15.6006L8.01999 15.6205C8.01999 16.1063 8.41531 16.5 8.90296 16.5H16.5947L16.6136 16.4998C17.1011 16.4894 17.4879 16.0873 17.4775 15.6017C17.4751 15.4938 17.47 15.4171 17.462 15.3715C17.1908 13.8253 15.8782 12.6454 14.289 12.6454H11.2099L11.0797 12.648C9.54567 12.7105 8.29458 13.8733 8.03492 15.3824ZM11.1178 13.8475L11.222 13.8454H14.289C15.1667 13.8454 15.9419 14.4387 16.2122 15.3H9.28662C9.54771 14.4688 10.2798 13.8863 11.1178 13.8475Z" fill="black"/>
</svg>
