<svg width="24" height="24" viewBox="0 0 24 24" fill="none" xmlns="http://www.w3.org/2000/svg">
<path d="M6.75 4C4.67893 4 3 5.67893 3 7.75V14.1944C3 15.6523 4.18106 16.8333 5.63889 16.8333C6.0531 16.8333 6.38889 16.4975 6.38889 16.0833C6.38889 15.6691 6.0531 15.3333 5.63889 15.3333C5.00949 15.3333 4.5 14.8238 4.5 14.1944V7.75C4.5 6.50736 5.50736 5.5 6.75 5.5H17.75C18.9926 5.5 20 6.50736 20 7.75V14.1944C20 14.8238 19.4905 15.3333 18.8611 15.3333C18.4469 15.3333 18.1111 15.6691 18.1111 16.0833C18.1111 16.4975 18.4469 16.8333 18.8611 16.8333C20.3189 16.8333 21.5 15.6523 21.5 14.1944V7.75C21.5 5.67893 19.8211 4 17.75 4H6.75ZM12.2502 15.0827L14.6555 17.8889H9.84484L12.2502 15.0827ZM13.0094 13.6636C12.6103 13.198 11.89 13.198 11.4909 13.6636L7.99847 17.7382C7.44247 18.3868 7.90338 19.3889 8.75773 19.3889H15.7426C16.597 19.3889 17.0579 18.3868 16.5019 17.7382L13.0094 13.6636Z" fill="black"/>
</svg>
