<svg width="24" height="24" viewBox="0 0 24 24" fill="none" xmlns="http://www.w3.org/2000/svg">
<path d="M9.4151 3.83235C9.06631 3.34741 8.54064 3.06503 7.98958 3.00996C7.52166 2.9632 7.03543 3.08033 6.62365 3.3765C6.21188 3.67266 5.94615 4.09637 5.84163 4.55486C5.71853 5.09481 5.81901 5.683 6.1678 6.16795L7.38554 5.2921L8.19736 4.7082L9.4151 3.83235ZM18.5 12.7086C18.5 16.0223 15.8137 18.7086 12.5 18.7086C9.18629 18.7086 6.5 16.0223 6.5 12.7086C6.5 9.39489 9.18629 6.7086 12.5 6.7086C15.8137 6.7086 18.5 9.39489 18.5 12.7086ZM16.0276 19.3289L17.4 21.1587C17.6485 21.4901 18.1186 21.5572 18.45 21.3087C18.7814 21.0602 18.8485 20.5901 18.6 20.2587L17.2752 18.4923C18.9395 17.1166 20 15.0365 20 12.7086C20 8.56646 16.6421 5.2086 12.5 5.2086C8.35786 5.2086 5 8.56646 5 12.7086C5 15.0365 6.06055 17.1166 7.72483 18.4923L6.4 20.2587C6.15147 20.5901 6.21863 21.0602 6.55 21.3087C6.88137 21.5572 7.35147 21.4901 7.6 21.1587L8.97237 19.3289C10.0238 19.8903 11.2248 20.2086 12.5 20.2086C13.7752 20.2086 14.9762 19.8903 16.0276 19.3289ZM13.25 9.7087C13.25 9.29449 12.9142 8.9587 12.5 8.9587C12.0858 8.9587 11.75 9.29449 11.75 9.7087V12.7087C11.75 13.1229 12.0858 13.4587 12.5 13.4587H15.5C15.9142 13.4587 16.25 13.1229 16.25 12.7087C16.25 12.2945 15.9142 11.9587 15.5 11.9587H13.25V9.7087ZM17.0104 3.00996C16.4594 3.06503 15.9337 3.34741 15.5849 3.83235L16.8026 4.7082L17.6145 5.2921L18.8322 6.16795C19.181 5.683 19.2815 5.09481 19.1584 4.55486C19.0538 4.09637 18.7881 3.67266 18.3763 3.3765C17.9646 3.08033 17.4783 2.9632 17.0104 3.00996Z" fill="black"/>
</svg>
