<svg width="24" height="24" viewBox="0 0 24 24" fill="none" xmlns="http://www.w3.org/2000/svg">
<path d="M4 7.75C4 8.16421 4.33579 8.5 4.75 8.5H18.75C19.1642 8.5 19.5 8.16421 19.5 7.75C19.5 7.33579 19.1642 7 18.75 7H4.75C4.33579 7 4 7.33579 4 7.75ZM4 11.75C4 12.1642 4.33579 12.5 4.75 12.5H12.75C13.1642 12.5 13.5 12.1642 13.5 11.75C13.5 11.3358 13.1642 11 12.75 11H4.75C4.33579 11 4 11.3358 4 11.75ZM4.75 15C4.33579 15 4 15.3358 4 15.75C4 16.1642 4.33579 16.5 4.75 16.5H18.75C19.1642 16.5 19.5 16.1642 19.5 15.75C19.5 15.3358 19.1642 15 18.75 15H4.75Z" fill="black"/>
</svg>
