<svg width="24" height="24" viewBox="0 0 24 24" fill="none" xmlns="http://www.w3.org/2000/svg">
<path d="M7 7.75C7 8.16421 7.33579 8.5 7.75 8.5H15.75C16.1642 8.5 16.5 8.16421 16.5 7.75C16.5 7.33579 16.1642 7 15.75 7H7.75C7.33579 7 7 7.33579 7 7.75ZM4 11.75C4 12.1642 4.33579 12.5 4.75 12.5H18.75C19.1642 12.5 19.5 12.1642 19.5 11.75C19.5 11.3358 19.1642 11 18.75 11H4.75C4.33579 11 4 11.3358 4 11.75ZM7.75 15C7.33579 15 7 15.3358 7 15.75C7 16.1642 7.33579 16.5 7.75 16.5H15.75C16.1642 16.5 16.5 16.1642 16.5 15.75C16.5 15.3358 16.1642 15 15.75 15H7.75Z" fill="black"/>
</svg>
