<svg width="24" height="24" viewBox="0 0 24 24" fill="none" xmlns="http://www.w3.org/2000/svg">
<path d="M20 16.25C20 15.8358 19.6642 15.5 19.25 15.5L5.25 15.5C4.83579 15.5 4.5 15.8358 4.5 16.25C4.5 16.6642 4.83579 17 5.25 17L19.25 17C19.6642 17 20 16.6642 20 16.25ZM20 12.25C20 11.8358 19.6642 11.5 19.25 11.5H11.25C10.8358 11.5 10.5 11.8358 10.5 12.25C10.5 12.6642 10.8358 13 11.25 13H19.25C19.6642 13 20 12.6642 20 12.25ZM19.25 9C19.6642 9 20 8.66421 20 8.25C20 7.83579 19.6642 7.5 19.25 7.5L5.25 7.5C4.83579 7.5 4.5 7.83579 4.5 8.25C4.5 8.66421 4.83579 9 5.25 9L19.25 9Z" fill="black"/>
</svg>
