<svg width="24" height="24" viewBox="0 0 24 24" fill="none" xmlns="http://www.w3.org/2000/svg">
<path d="M11.75 3.5C12.8269 3.5 13.7 4.37304 13.7 5.45C13.7 6.52696 12.8269 7.4 11.75 7.4C10.673 7.4 9.79999 6.52696 9.79999 5.45C9.79999 4.37304 10.673 3.5 11.75 3.5ZM8.29999 5.45C8.29999 7.09782 9.45524 8.47582 11 8.81825V19.9664C7.04215 19.6097 3.89029 16.4579 3.53363 12.5H5.45C5.86421 12.5 6.2 12.1642 6.2 11.75C6.2 11.3358 5.86421 11 5.45 11H2.75C2.33579 11 2 11.3358 2 11.75C2 17.1346 6.36489 21.4997 11.7494 21.5C11.7496 21.5 11.7498 21.5 11.75 21.5C11.7508 21.5 11.7516 21.5 11.7524 21.5C17.1361 21.4987 21.5 17.134 21.5 11.75C21.5 11.3358 21.1642 11 20.75 11H18.05C17.6358 11 17.3 11.3358 17.3 11.75C17.3 12.1642 17.6358 12.5 18.05 12.5H19.9664C19.6097 16.4579 16.4579 19.6097 12.5 19.9664V8.81825C14.0448 8.4758 15.2 7.09781 15.2 5.45C15.2 3.54462 13.6554 2 11.75 2C9.8446 2 8.29999 3.54462 8.29999 5.45Z" fill="black"/>
</svg>
