<svg width="24" height="24" viewBox="0 0 24 24" fill="none" xmlns="http://www.w3.org/2000/svg">
<path d="M7.21967 11.2197C6.92678 11.5126 6.92678 11.9874 7.21967 12.2803C7.51256 12.5732 7.98744 12.5732 8.28033 12.2803L11.75 8.81066L15.2197 12.2803C15.5126 12.5732 15.9874 12.5732 16.2803 12.2803C16.5732 11.9874 16.5732 11.5126 16.2803 11.2197L12.2803 7.21967C11.9874 6.92678 11.5126 6.92678 11.2197 7.21967L7.21967 11.2197ZM7.21967 16.2197C6.92678 16.5126 6.92678 16.9874 7.21967 17.2803C7.51256 17.5732 7.98744 17.5732 8.28033 17.2803L11.75 13.8107L15.2197 17.2803C15.5126 17.5732 15.9874 17.5732 16.2803 17.2803C16.5732 16.9874 16.5732 16.5126 16.2803 16.2197L12.2803 12.2197C11.9874 11.9268 11.5126 11.9268 11.2197 12.2197L7.21967 16.2197Z" fill="black"/>
</svg>
