<svg width="24" height="24" viewBox="0 0 24 24" fill="none" xmlns="http://www.w3.org/2000/svg">
<path d="M16.2803 13.2803C16.5732 12.9874 16.5732 12.5126 16.2803 12.2197C15.9874 11.9268 15.5126 11.9268 15.2197 12.2197L11.75 15.6893L8.28033 12.2197C7.98744 11.9268 7.51256 11.9268 7.21967 12.2197C6.92678 12.5126 6.92678 12.9874 7.21967 13.2803L11.2197 17.2803C11.5126 17.5732 11.9874 17.5732 12.2803 17.2803L16.2803 13.2803ZM16.2803 8.28033C16.5732 7.98744 16.5732 7.51256 16.2803 7.21967C15.9874 6.92678 15.5126 6.92678 15.2197 7.21967L11.75 10.6893L8.28033 7.21967C7.98744 6.92678 7.51256 6.92678 7.21967 7.21967C6.92678 7.51256 6.92678 7.98744 7.21967 8.28033L11.2197 12.2803C11.5126 12.5732 11.9874 12.5732 12.2803 12.2803L16.2803 8.28033Z" fill="black"/>
</svg>
