<svg width="24" height="24" viewBox="0 0 24 24" fill="none" xmlns="http://www.w3.org/2000/svg">
<path d="M13.2803 7.21967C12.9874 6.92678 12.5126 6.92678 12.2197 7.21967C11.9268 7.51256 11.9268 7.98744 12.2197 8.28033L15.6893 11.75L12.2197 15.2197C11.9268 15.5126 11.9268 15.9874 12.2197 16.2803C12.5126 16.5732 12.9874 16.5732 13.2803 16.2803L17.2803 12.2803C17.5732 11.9874 17.5732 11.5126 17.2803 11.2197L13.2803 7.21967ZM8.28033 7.21967C7.98744 6.92678 7.51256 6.92678 7.21967 7.21967C6.92678 7.51256 6.92678 7.98744 7.21967 8.28033L10.6893 11.75L7.21967 15.2197C6.92678 15.5126 6.92678 15.9874 7.21967 16.2803C7.51256 16.5732 7.98744 16.5732 8.28033 16.2803L12.2803 12.2803C12.5732 11.9874 12.5732 11.5126 12.2803 11.2197L8.28033 7.21967Z" fill="black"/>
</svg>
