<svg width="24" height="24" viewBox="0 0 24 24" fill="none" xmlns="http://www.w3.org/2000/svg">
<path d="M11.2197 16.2803C11.5126 16.5732 11.9874 16.5732 12.2803 16.2803C12.5732 15.9874 12.5732 15.5126 12.2803 15.2197L8.81066 11.75L12.2803 8.28033C12.5732 7.98744 12.5732 7.51256 12.2803 7.21967C11.9874 6.92678 11.5126 6.92678 11.2197 7.21967L7.21967 11.2197C6.92678 11.5126 6.92678 11.9874 7.21967 12.2803L11.2197 16.2803ZM16.2197 16.2803C16.5126 16.5732 16.9874 16.5732 17.2803 16.2803C17.5732 15.9874 17.5732 15.5126 17.2803 15.2197L13.8107 11.75L17.2803 8.28033C17.5732 7.98744 17.5732 7.51256 17.2803 7.21967C16.9874 6.92678 16.5126 6.92678 16.2197 7.21967L12.2197 11.2197C11.9268 11.5126 11.9268 11.9874 12.2197 12.2803L16.2197 16.2803Z" fill="black"/>
</svg>
