<svg width="24" height="24" viewBox="0 0 24 24" fill="none" xmlns="http://www.w3.org/2000/svg">
<path d="M19.5 11.75C19.5 11.3358 19.1642 11 18.75 11H4.75C4.33579 11 4 11.3358 4 11.75C4 12.1642 4.33579 12.5 4.75 12.5H18.75C19.1642 12.5 19.5 12.1642 19.5 11.75Z" fill="black"/>
<path d="M13.2197 17.2803C13.5126 17.5732 13.9874 17.5732 14.2803 17.2803L19.2803 12.2803C19.5732 11.9874 19.5732 11.5126 19.2803 11.2197C18.9874 10.9268 18.5126 10.9268 18.2197 11.2197L13.2197 16.2197C12.9268 16.5126 12.9268 16.9874 13.2197 17.2803Z" fill="black"/>
<path d="M19.2803 12.2803C19.5732 11.9874 19.5732 11.5126 19.2803 11.2197L14.2803 6.21967C13.9874 5.92678 13.5126 5.92678 13.2197 6.21967C12.9268 6.51256 12.9268 6.98744 13.2197 7.28033L18.2197 12.2803C18.5126 12.5732 18.9874 12.5732 19.2803 12.2803Z" fill="black"/>
</svg>
