<svg width="24" height="24" viewBox="0 0 24 24" fill="none" xmlns="http://www.w3.org/2000/svg">
<path d="M10.6233 8.59564L11.6426 7.5759V11.6729H7.54586L8.59573 10.623C8.88862 10.3301 8.88862 9.85522 8.59573 9.56233C8.30284 9.26943 7.82796 9.26943 7.53507 9.56233L5.21967 11.8777C5.079 12.0184 4.99998 12.2092 5 12.4081C5.00002 12.6071 5.07907 12.7978 5.21976 12.9385L7.53516 15.2531C7.8281 15.5459 8.30298 15.5458 8.59582 15.2529C8.88866 14.96 8.88858 14.4851 8.59564 14.1922L7.5759 13.1729H11.6426V17.2395L10.6233 16.2198C10.3304 15.9268 9.85554 15.9268 9.5626 16.2196C9.26965 16.5125 9.26957 16.9873 9.56241 17.2803L11.877 19.5957C12.0177 19.7364 12.2084 19.8154 12.4074 19.8154C12.6063 19.8154 12.7971 19.7364 12.9378 19.5958L15.2532 17.2804C15.5461 16.9875 15.5461 16.5126 15.2532 16.2197C14.9603 15.9268 14.4854 15.9268 14.1925 16.2197L13.1426 17.2696V13.1729H17.2395L16.2198 14.1922C15.9268 14.4851 15.9268 14.96 16.2196 15.2529C16.5125 15.5458 16.9873 15.5459 17.2803 15.2531L19.5957 12.9385C19.7364 12.7978 19.8154 12.6071 19.8154 12.4081C19.8154 12.2092 19.7364 12.0184 19.5958 11.8777L17.2804 9.56233C16.9875 9.26943 16.5126 9.26943 16.2197 9.56233C15.9268 9.85522 15.9268 10.3301 16.2197 10.623L17.2696 11.6729H13.1426V7.54586L14.1925 8.59573C14.4854 8.88862 14.9603 8.88862 15.2532 8.59573C15.5461 8.30284 15.5461 7.82796 15.2532 7.53507L12.9378 5.21967C12.7971 5.079 12.6063 4.99998 12.4074 5C12.2084 5.00002 12.0177 5.07907 11.877 5.21976L9.56241 7.53516C9.26957 7.8281 9.26965 8.30298 9.5626 8.59582C9.85554 8.88866 10.3304 8.88858 10.6233 8.59564Z" fill="black"/>
</svg>
