<svg width="24" height="24" viewBox="0 0 24 24" fill="none" xmlns="http://www.w3.org/2000/svg">
<path d="M11.75 19.5C12.1642 19.5 12.5 19.1642 12.5 18.75V4.75C12.5 4.33579 12.1642 4 11.75 4C11.3358 4 11 4.33579 11 4.75V18.75C11 19.1642 11.3358 19.5 11.75 19.5Z" fill="black"/>
<path d="M6.21967 13.2197C5.92678 13.5126 5.92678 13.9874 6.21967 14.2803L11.2197 19.2803C11.5126 19.5732 11.9874 19.5732 12.2803 19.2803C12.5732 18.9874 12.5732 18.5126 12.2803 18.2197L7.28033 13.2197C6.98744 12.9268 6.51256 12.9268 6.21967 13.2197Z" fill="black"/>
<path d="M11.2197 19.2803C11.5126 19.5732 11.9874 19.5732 12.2803 19.2803L17.2803 14.2803C17.5732 13.9874 17.5732 13.5126 17.2803 13.2197C16.9874 12.9268 16.5126 12.9268 16.2197 13.2197L11.2197 18.2197C10.9268 18.5126 10.9268 18.9874 11.2197 19.2803Z" fill="black"/>
</svg>
