<svg width="24" height="24" viewBox="0 0 24 24" fill="none" xmlns="http://www.w3.org/2000/svg">
<path d="M4 11.75C4 12.1642 4.33579 12.5 4.75 12.5H18.75C19.1642 12.5 19.5 12.1642 19.5 11.75C19.5 11.3358 19.1642 11 18.75 11H4.75C4.33579 11 4 11.3358 4 11.75Z" fill="black"/>
<path d="M10.2803 6.21967C9.98744 5.92678 9.51256 5.92678 9.21967 6.21967L4.21967 11.2197C3.92678 11.5126 3.92678 11.9874 4.21967 12.2803C4.51256 12.5732 4.98744 12.5732 5.28033 12.2803L10.2803 7.28033C10.5732 6.98744 10.5732 6.51256 10.2803 6.21967Z" fill="black"/>
<path d="M4.21967 11.2197C3.92678 11.5126 3.92678 11.9874 4.21967 12.2803L9.21967 17.2803C9.51256 17.5732 9.98744 17.5732 10.2803 17.2803C10.5732 16.9874 10.5732 16.5126 10.2803 16.2197L5.28033 11.2197C4.98744 10.9268 4.51256 10.9268 4.21967 11.2197Z" fill="black"/>
</svg>
