<svg width="24" height="24" viewBox="0 0 24 24" fill="none" xmlns="http://www.w3.org/2000/svg">
<path d="M8.18092 8.22679C7.88808 7.93385 7.41321 7.93377 7.12026 8.22661L4.21976 11.1261C4.07907 11.2668 4.00002 11.4575 4 11.6565C3.99998 11.8554 4.079 12.0462 4.21967 12.1869L7.12017 15.0874C7.41306 15.3803 7.88794 15.3803 8.18083 15.0874C8.47372 14.7945 8.47372 14.3196 8.18083 14.0267L5.81075 11.6566L8.18074 9.28745C8.47368 8.99461 8.47376 8.51974 8.18092 8.22679Z" fill="black"/>
<path d="M15.3191 15.0802C15.6119 15.3732 16.0868 15.3733 16.3797 15.0804L19.2802 12.1809C19.4209 12.0403 19.5 11.8495 19.5 11.6506C19.5 11.4516 19.421 11.2608 19.2803 11.1202L16.3798 8.21967C16.0869 7.92678 15.6121 7.92678 15.3192 8.21967C15.0263 8.51256 15.0263 8.98744 15.3192 9.28033L17.6892 11.6504L15.3193 14.0196C15.0263 14.3124 15.0262 14.7873 15.3191 15.0802Z" fill="black"/>
<path d="M4 11.6496C4 12.0638 4.33579 12.3996 4.75 12.3996H18.75C19.1642 12.3996 19.5 12.0648 19.5 11.6506C19.5 11.2364 19.1642 10.8996 18.75 10.8996H4.75C4.33579 10.8996 4 11.2354 4 11.6496Z" fill="black"/>
</svg>
