<svg width="24" height="24" viewBox="0 0 24 24" fill="none" xmlns="http://www.w3.org/2000/svg">
<path d="M11.75 4C11.3358 4 11 4.33579 11 4.75V18.75C11 19.1642 11.3358 19.5 11.75 19.5C12.1642 19.5 12.5 19.1642 12.5 18.75V4.75C12.5 4.33579 12.1642 4 11.75 4Z" fill="black"/>
<path d="M17.2803 10.2803C17.5732 9.98744 17.5732 9.51256 17.2803 9.21967L12.2803 4.21967C11.9874 3.92678 11.5126 3.92678 11.2197 4.21967C10.9268 4.51256 10.9268 4.98744 11.2197 5.28033L16.2197 10.2803C16.5126 10.5732 16.9874 10.5732 17.2803 10.2803Z" fill="black"/>
<path d="M12.2803 4.21967C11.9874 3.92678 11.5126 3.92678 11.2197 4.21967L6.21967 9.21967C5.92678 9.51256 5.92678 9.98744 6.21967 10.2803C6.51256 10.5732 6.98744 10.5732 7.28033 10.2803L12.2803 5.28033C12.5732 4.98744 12.5732 4.51256 12.2803 4.21967Z" fill="black"/>
</svg>
