<svg width="24" height="24" viewBox="0 0 24 24" fill="none" xmlns="http://www.w3.org/2000/svg">
<path d="M8.22679 15.3191C7.93385 15.6119 7.93377 16.0868 8.22661 16.3797L11.1261 19.2802C11.2668 19.4209 11.4575 19.5 11.6565 19.5C11.8554 19.5 12.0462 19.421 12.1869 19.2803L15.0874 16.3798C15.3803 16.0869 15.3803 15.6121 15.0874 15.3192C14.7945 15.0263 14.3196 15.0263 14.0267 15.3192L11.6566 17.6892L9.28745 15.3193C8.99461 15.0263 8.51974 15.0262 8.22679 15.3191Z" fill="black"/>
<path d="M15.0802 8.18092C15.3732 7.88808 15.3733 7.41321 15.0804 7.12026L12.1809 4.21976C12.0403 4.07907 11.8495 4.00002 11.6506 4C11.4516 3.99998 11.2608 4.079 11.1202 4.21967L8.21967 7.12017C7.92678 7.41306 7.92678 7.88794 8.21967 8.18083C8.51256 8.47372 8.98744 8.47372 9.28033 8.18083L11.6504 5.81075L14.0196 8.18074C14.3124 8.47368 14.7873 8.47376 15.0802 8.18092Z" fill="black"/>
<path d="M11.6496 19.5C12.0638 19.5 12.3996 19.1642 12.3996 18.75V4.75C12.3996 4.33579 12.0648 4 11.6506 4C11.2364 4 10.8996 4.33579 10.8996 4.75V18.75C10.8996 19.1642 11.2354 19.5 11.6496 19.5Z" fill="black"/>
</svg>
