<svg width="24" height="24" viewBox="0 0 24 24" fill="none" xmlns="http://www.w3.org/2000/svg">
<path d="M2 5.77791V16.8929C2 18.9639 3.67893 20.6429 5.75 20.6429H16.4752C16.6006 20.6429 16.7245 20.6367 16.8468 20.6247L18.102 21.8799C18.3949 22.1728 18.8698 22.1728 19.1627 21.8799C19.4556 21.587 19.4556 21.1122 19.1627 20.8193L9.80141 11.458H12.298C12.7123 11.458 13.048 11.1222 13.048 10.708C13.048 10.2938 12.7123 9.95801 12.298 9.95801H8.30141L1.28033 2.93692C0.987437 2.64403 0.512563 2.64403 0.21967 2.93692C-0.0732233 3.22982 -0.0732233 3.70469 0.21967 3.99758L2 5.77791ZM15.3649 19.1429H5.75C4.50736 19.1429 3.5 18.1355 3.5 16.8929V7.27792L6.18009 9.95801H5.87891C5.46469 9.95801 5.12891 10.2938 5.12891 10.708C5.12891 11.1222 5.46469 11.458 5.87891 11.458H7.68009L9.08537 12.8633H5.87891C5.46469 12.8633 5.12891 13.1991 5.12891 13.6133C5.12891 14.0275 5.46469 14.3633 5.87891 14.3633H9.59251C9.86183 14.3633 10.098 14.2213 10.2303 14.0082L15.3649 19.1429ZM18.7067 5.76027L6.23199 5.77094L7.73071 7.26966L19.4573 7.25962C19.8713 7.25927 20.2067 6.92359 20.2067 6.50963V5.75C20.2067 3.67893 18.5277 2 16.4567 2H5.75C4.83184 2 3.99075 2.32997 3.33885 2.8778L4.40623 3.94517C4.7812 3.66553 5.24627 3.5 5.75 3.5H16.4567C17.6993 3.5 18.7067 4.50736 18.7067 5.75V5.76027ZM22.5719 11.3691C23.2553 10.697 23.2709 9.6002 22.6069 8.90895L21.8336 8.10406C21.1582 7.40099 20.0384 7.38544 19.3438 8.06948L13.9132 13.4169L13.8986 13.4316L13.8957 13.4346L14.9591 14.498C14.9642 14.4898 14.9699 14.4823 14.976 14.4754L18.7487 10.7605L19.8396 11.8515C19.8568 11.8686 19.8745 11.8847 19.8928 11.8998L16.0953 15.6342L17.156 16.6949L22.5719 11.3691ZM19.5298 19.0687C19.9633 18.4612 20.2202 17.7188 20.2252 16.9161L20.23 16.1387C20.2326 15.7245 19.8989 15.3866 19.4847 15.384C19.0705 15.3814 18.7326 15.7151 18.73 16.1293L18.7252 16.9068C18.7228 17.2972 18.621 17.6639 18.444 17.983L19.5298 19.0687ZM20.9566 10.8537C20.9392 10.832 20.9205 10.811 20.9003 10.7908L19.8176 9.70807L20.3962 9.1383C20.4954 9.04058 20.6554 9.0428 20.7519 9.14324L21.5251 9.94814C21.62 10.0469 21.6178 10.2036 21.5201 10.2996L20.9566 10.8537Z" fill="black"/>
</svg>
