<svg width="24" height="24" viewBox="0 0 24 24" fill="none" xmlns="http://www.w3.org/2000/svg">
<path d="M5.55537 4.42215H15.7064C16.8845 4.42215 17.8396 5.37722 17.8396 6.55537V6.5651L3.42215 6.57744V6.55537C3.42215 5.37722 4.37722 4.42215 5.55537 4.42215ZM3.42215 7.99959L18.5513 7.98664C18.9437 7.98631 19.2617 7.66805 19.2617 7.27557V6.55537C19.2617 4.59179 17.6699 3 15.7064 3H5.55537C3.59179 3 2 4.59179 2 6.55537V17.1199C2 19.0835 3.5918 20.6753 5.55537 20.6753H15.724C17.6789 20.6753 19.2671 19.0969 19.2793 17.142L19.2838 16.4048C19.2863 16.0121 18.9699 15.6918 18.5772 15.6894C18.1845 15.6869 17.8642 16.0033 17.8617 16.396L17.8571 17.1331C17.8499 18.3061 16.8969 19.2531 15.724 19.2531H5.55537C4.37723 19.2531 3.42215 18.298 3.42215 17.1199V7.99959Z" fill="black"/>
<path d="M4.96651 11.2561C4.96651 11.6488 5.28487 11.9671 5.67759 11.9671H11.7636C12.1563 11.9671 12.4746 11.6488 12.4746 11.2561C12.4746 10.8633 12.1563 10.545 11.7636 10.545H5.67759C5.28487 10.545 4.96651 10.8633 4.96651 11.2561Z" fill="black"/>
<path d="M4.96651 14.0105C4.96651 14.4033 5.28487 14.7216 5.67759 14.7216H9.19845C9.59117 14.7216 9.90952 14.4033 9.90952 14.0105C9.90952 13.6178 9.59117 13.2995 9.19845 13.2995H5.67759C5.28487 13.2995 4.96651 13.6178 4.96651 14.0105Z" fill="black"/>
<path d="M17.5593 9.98014C17.2816 10.2578 17.2816 10.7081 17.5593 10.9857L18.9137 12.3402C19.1914 12.6179 19.6417 12.6179 19.9194 12.3402C20.1971 12.0625 20.1971 11.6123 19.9194 11.3346L18.5649 9.98014C18.2872 9.70245 17.837 9.70245 17.5593 9.98014Z" fill="black"/>
<path d="M19.7786 9.77249L20.5118 10.5356C20.6017 10.6292 20.5996 10.7778 20.507 10.8688L15.3383 15.9516L15.3242 15.9658C15.2982 15.9928 15.2685 16.0032 15.2428 16.0032C15.1936 16.0032 15.1446 16.0083 15.0964 16.0184L14.0086 16.2471L14.244 15.092C14.2535 15.0452 14.2583 14.9977 14.2583 14.95C14.2583 14.9001 14.2765 14.8572 14.3025 14.8279L19.4414 9.76781C19.5355 9.67516 19.6872 9.67727 19.7786 9.77249ZM18.4436 8.75446L13.2948 13.8243L13.2811 13.8382C13.0119 14.1183 12.8575 14.4856 12.8382 14.8681L12.399 17.0237C12.3512 17.2584 12.4246 17.5013 12.5945 17.6701C12.7643 17.8389 13.0077 17.9108 13.242 17.8616L15.3281 17.4229C15.7127 17.4014 16.0732 17.2347 16.3415 16.9596L21.5042 11.8828C22.1521 11.2456 22.1669 10.2057 21.5373 9.55036L20.8042 8.78724C20.1638 8.12067 19.1022 8.10593 18.4436 8.75446Z" fill="black"/>
</svg>
