<svg width="24" height="24" viewBox="0 0 24 24" fill="none" xmlns="http://www.w3.org/2000/svg">
<path d="M11.8279 4C11.4137 4 11.0779 4.33579 11.0779 4.75V10.4668L6.12511 7.60748C5.76638 7.40038 5.30769 7.5233 5.1006 7.88203C4.8935 8.24075 5.01642 8.69944 5.37514 8.90654L11.4529 12.4153C11.685 12.5493 11.9709 12.5493 12.2029 12.4153C12.4349 12.2813 12.5779 12.0337 12.5779 11.7658V4.75C12.5779 4.33579 12.2421 4 11.8279 4Z" fill="black"/>
<path d="M12.2045 11.1162C11.9724 10.9823 11.6865 10.9823 11.4544 11.1163L5.39068 14.6181C5.03198 14.8252 4.90913 15.2839 5.11627 15.6426C5.32341 16.0013 5.78212 16.1242 6.14082 15.917L11.0795 13.065V18.75C11.0795 19.1643 11.4153 19.5 11.8295 19.5C12.2437 19.5 12.5795 19.1643 12.5795 18.75V11.7658C12.5795 11.4978 12.4365 11.2502 12.2045 11.1162Z" fill="black"/>
<path d="M18.4943 7.91811C18.2872 7.5594 17.8285 7.4365 17.4698 7.64361L11.4532 11.1174C11.2212 11.2513 11.0783 11.4989 11.0783 11.7669C11.0782 12.0348 11.2212 12.2824 11.4532 12.4164L17.4575 15.8831C17.8162 16.0903 18.2749 15.9674 18.482 15.6086C18.6891 15.2499 18.5662 14.7912 18.2075 14.5841L13.3282 11.7669L18.2198 8.94263C18.5785 8.73552 18.7014 8.27683 18.4943 7.91811Z" fill="black"/>
</svg>
