<svg width="24" height="24" viewBox="0 0 24 24" fill="none" xmlns="http://www.w3.org/2000/svg">
<path d="M11.75 3.5C16.3056 3.5 20 7.19441 20 11.75V13.2494C20 14.3883 19.0761 15.311 17.9384 15.311C16.801 15.311 15.8768 14.3868 15.8768 13.2494V11.75C15.8768 9.47099 14.0308 7.625 11.7518 7.625C9.47279 7.625 7.6268 9.47099 7.6268 11.75C7.6268 14.029 9.47279 15.875 11.7518 15.875C12.8919 15.875 13.9236 15.413 14.6701 14.666C15.2182 15.9278 16.4759 16.811 17.9384 16.811C19.9039 16.811 21.5 15.2173 21.5 13.2494V11.75C21.5 6.36599 17.134 2 11.75 2C6.36599 2 2 6.36599 2 11.75C2 17.134 6.36599 21.5 11.75 21.5C12.9937 21.5 14.2595 21.264 15.4815 20.7592C15.8644 20.601 16.0465 20.1625 15.8884 19.7797C15.7302 19.3968 15.2917 19.2147 14.9089 19.3728C13.8737 19.8004 12.8031 20 11.75 20C7.19441 20 3.5 16.3056 3.5 11.75C3.5 7.19441 7.19441 3.5 11.75 3.5ZM14.3768 11.75C14.3768 13.2006 13.2024 14.375 11.7518 14.375C10.3012 14.375 9.1268 13.2006 9.1268 11.75C9.1268 10.2994 10.3012 9.125 11.7518 9.125C13.2024 9.125 14.3768 10.2994 14.3768 11.75Z" fill="black"/>
</svg>
