<svg width="24" height="24" viewBox="0 0 24 24" fill="none" xmlns="http://www.w3.org/2000/svg">
<path d="M5 5.5H19C19.8284 5.5 20.5 6.17157 20.5 7V17C20.5 17.8284 19.8284 18.5 19 18.5H5C4.17157 18.5 3.5 17.8284 3.5 17V7C3.5 6.17157 4.17157 5.5 5 5.5ZM2 7V17C2 18.6569 3.34315 20 5 20H19C20.6569 20 22 18.6569 22 17V7C22 5.34315 20.6569 4 19 4H5C3.34315 4 2 5.34315 2 7ZM12.2676 9V14.9604C12.2676 15.3746 12.6034 15.7104 13.0176 15.7104H15.0192C17.0794 15.7104 18.7494 14.0403 18.7494 11.9802C18.7494 9.92007 17.0794 8.25 15.0192 8.25H13.0176C12.6034 8.25 12.2676 8.58579 12.2676 9ZM13.7676 9.75H15.0192C16.2509 9.75 17.2494 10.7485 17.2494 11.9802C17.2494 13.2119 16.2509 14.2104 15.0192 14.2104H13.7676V9.75ZM8.56409 8.30886C8.27154 8.30649 7.99216 8.47647 7.86901 8.76196L5.79102 13.5791C5.77465 13.6106 5.76046 13.6435 5.74863 13.6774L5.31153 14.6907C5.14747 15.071 5.32279 15.5123 5.70312 15.6764C6.08346 15.8405 6.52478 15.6651 6.68885 15.2848L6.95219 14.6743H10.1567L10.4169 15.2827C10.5798 15.6635 11.0206 15.8402 11.4014 15.6773C11.7822 15.5144 11.9589 15.0736 11.796 14.6928L9.26007 8.76408C9.13747 8.47745 8.85747 8.30647 8.56409 8.30886ZM9.51505 13.1743H7.59925L8.5612 10.9443L9.51505 13.1743Z" fill="black"/>
</svg>
