<svg width="24" height="24" viewBox="0 0 24 24" fill="none" xmlns="http://www.w3.org/2000/svg">
<path d="M12.4964 6.46486C10.2334 6.46486 8.38871 8.28658 8.38871 10.5464C8.38871 12.8062 10.2334 14.628 12.4964 14.628C14.7593 14.628 16.604 12.8062 16.604 10.5464C16.604 8.28658 14.7593 6.46486 12.4964 6.46486ZM9.91929 10.5464C9.91929 9.1432 11.0674 7.99544 12.4964 7.99544C13.9253 7.99544 15.0735 9.1432 15.0735 10.5464C15.0735 11.9496 13.9253 13.0974 12.4964 13.0974C11.0674 13.0974 9.91929 11.9496 9.91929 10.5464Z" fill="black"/>
<path d="M12.4645 2.00104C12.94 1.98541 13.4048 2.14614 13.7742 2.46445C14.6536 3.22235 15.6229 3.5569 16.6062 3.54095C17.1089 3.5328 17.6025 3.67121 17.9989 3.97949C18.3744 4.2715 18.6262 4.69233 18.7032 5.17174C18.885 6.30379 19.4159 7.19199 20.1891 7.81556C20.5766 8.12811 20.8587 8.54931 20.96 9.0343C21.0565 9.49609 20.9781 9.97861 20.7277 10.3938C20.1353 11.376 19.9675 12.4002 20.1576 13.378C20.2521 13.8641 20.1936 14.364 19.9598 14.7958C19.7364 15.2085 19.3671 15.5269 18.9091 15.6842C18.4453 15.8435 18.0391 16.0537 17.6884 16.3073L19.3396 20.19C19.6212 20.8522 19.1296 21.5853 18.4101 21.5762L17.1791 21.5606L16.3365 22.458C15.844 22.9826 14.9749 22.8282 14.6933 22.166L13.0521 18.3068C12.8515 18.2781 12.6541 18.2642 12.46 18.2643L10.8006 22.166C10.519 22.8282 9.64988 22.9826 9.15737 22.458L8.31477 21.5606L7.08383 21.5762C6.36434 21.5853 5.8727 20.8522 6.1543 20.19L7.67479 16.6148C7.24587 16.2076 6.75296 15.9145 6.21543 15.7299C5.74215 15.5674 5.32832 15.269 5.06345 14.8454C4.81221 14.4437 4.72021 13.963 4.81275 13.487C5.03112 12.364 4.83713 11.3443 4.32247 10.491C4.06636 10.0664 3.94906 9.57599 4.02076 9.08924C4.08925 8.62427 4.32775 8.1984 4.70499 7.89416C5.60662 7.16699 6.11278 6.26511 6.27006 5.28561C6.3488 4.79523 6.57516 4.34403 6.94345 4.01683C7.29527 3.70425 7.75172 3.53068 8.23648 3.53854C9.41528 3.55765 10.3725 3.19254 11.116 2.55179C11.4969 2.22354 11.9649 2.01746 12.4645 2.00104ZM12.775 3.62389C12.6982 3.55772 12.6085 3.52771 12.5148 3.53079C12.4113 3.53419 12.2692 3.57853 12.1152 3.71124C11.0729 4.60948 9.74617 5.0938 8.21167 5.06892C8.1135 5.06733 8.02784 5.1008 7.96003 5.16105C7.88643 5.22644 7.81095 5.34354 7.78128 5.52827C7.56149 6.8971 6.84901 8.13132 5.66586 9.08555C5.59107 9.14586 5.5479 9.22467 5.535 9.31229C5.52099 9.40736 5.53808 9.54295 5.6331 9.70049C6.35101 10.8908 6.60313 12.2983 6.3152 13.7792C6.29698 13.8729 6.31456 13.9594 6.36115 14.0339C6.41332 14.1173 6.52029 14.2163 6.71254 14.2823C8.01849 14.7307 9.1096 15.6381 9.84845 16.959C9.89688 17.0455 9.96889 17.1027 10.0561 17.1309C10.1539 17.1626 10.305 17.1696 10.5017 17.0949C11.786 16.6066 13.1964 16.6032 14.6265 17.1468C14.7201 17.1824 14.8136 17.18 14.8995 17.1458C14.9936 17.1082 15.1084 17.0209 15.2038 16.8505C15.8778 15.6454 16.9642 14.7338 18.412 14.2366C18.5034 14.2052 18.5714 14.1455 18.6138 14.0671C18.6597 13.9823 18.69 13.8494 18.6551 13.6702C18.3898 12.3057 18.6365 10.8974 19.417 9.60331C19.4664 9.52142 19.4798 9.43346 19.4618 9.34728C19.442 9.25251 19.3778 9.12761 19.2282 9.00695C18.1491 8.13662 17.4313 6.90482 17.192 5.4144C17.1766 5.31875 17.1298 5.24255 17.0593 5.18772C16.9797 5.12584 16.8413 5.06792 16.631 5.07133C15.2552 5.09364 13.9254 4.61531 12.775 3.62389ZM16.5396 17.5977C16.2957 18.0337 15.9274 18.3836 15.4665 18.5674C15.2787 18.6423 15.0817 18.6866 14.8822 18.6993L15.7813 20.8133L16.5246 20.0215L17.6106 20.0353L16.5592 17.563L16.5396 17.5977ZM9.58499 18.5872C9.25524 18.4805 8.96349 18.2876 8.73751 18.0268L7.88332 20.0353L8.96928 20.0215L9.71265 20.8133L10.6358 18.6427C10.2865 18.7102 9.92707 18.6978 9.58499 18.5872Z" fill="black"/>
</svg>
