<svg width="24" height="24" viewBox="0 0 24 24" fill="none" xmlns="http://www.w3.org/2000/svg">
<path d="M6.31465 7.1083C7.08499 6.21379 8.06283 5.50308 9.17345 5.05088L11.4071 6.44312L11.5053 8.76501L9.21657 10.3636L6.90681 9.68652L6.31465 7.1083ZM6.51382 10.926L8.82782 11.6044L9.64729 14.3256L8.34491 16.2633L5.6713 16.0264C5.039 15.0346 4.63343 13.8842 4.52762 12.6482L6.51382 10.926ZM9.33612 17.119L10.7086 15.0771H13.5303L14.9508 17.016L14.016 19.2259C13.3745 19.4045 12.6984 19.5 12 19.5C11.4 19.5 10.8164 19.4295 10.2571 19.2964L9.33612 17.119ZM16.0047 16.2549L14.5884 14.3217L15.4603 11.5741L17.7525 10.8852L19.4899 12.3917C19.4208 13.735 18.9983 14.985 18.3134 16.0502L16.0047 16.2549ZM12.8071 8.78074L12.7097 6.4762L15.0255 5.13527C16.1573 5.63479 17.1422 6.40599 17.8977 7.36622L17.3752 9.64122L15.0426 10.3422L12.8071 8.78074ZM18.8623 8.97396L18.8753 8.99866C19.0917 9.49356 19.2562 10.0163 19.3619 10.5601L18.6415 9.93539L18.8623 8.97396ZM4.72655 10.1632C4.85934 9.63576 5.04799 9.13049 5.28587 8.65409C5.29801 8.63562 5.31039 8.61701 5.32301 8.59825L5.63706 9.9656L4.68349 10.7924C4.69099 10.559 4.70553 10.3496 4.72655 10.1632ZM16.1372 17.5482L17.1428 17.4591C16.7164 17.8609 16.2429 18.2134 15.7315 18.5073L16.1372 17.5482ZM8.02011 18.3581C7.81582 18.23 7.61816 18.0922 7.42773 17.9456C7.27556 17.8109 7.11116 17.6441 6.93427 17.4434L8.10572 17.5472L8.55709 18.6143C8.35391 18.5283 8.17529 18.4428 8.02011 18.3581ZM10.9386 4.61922C11.0606 4.58604 11.176 4.55757 11.2849 4.53364C11.5203 4.51138 11.7588 4.5 12 4.5C12.2676 4.5 12.532 4.51402 12.7924 4.54136C12.9301 4.57507 13.0786 4.61713 13.2382 4.66798L12.0866 5.33478L10.9386 4.61922ZM12 3C7.02944 3 3 7.02944 3 12C3 16.9706 7.02944 21 12 21C16.9706 21 21 16.9706 21 12C21 7.02944 16.9706 3 12 3ZM10.1029 11.3302L12.1449 9.90395L14.1762 11.3228L13.3974 13.7771H10.8398L10.1029 11.3302Z" fill="black"/>
</svg>
