<svg width="24" height="24" viewBox="0 0 24 24" fill="none" xmlns="http://www.w3.org/2000/svg">
<path d="M4 7.5V8C4 8.27614 4.22386 8.5 4.5 8.5H19.5C19.7761 8.5 20 8.27614 20 8V7.5C20 7.22386 19.7761 7 19.5 7H4.5C4.22386 7 4 7.22386 4 7.5ZM4.5 11.25C4.22386 11.25 4 11.4739 4 11.75V12.25C4 12.5261 4.22386 12.75 4.5 12.75H19.5C19.7761 12.75 20 12.5261 20 12.25V11.75C20 11.4739 19.7761 11.25 19.5 11.25H4.5ZM4.5 15.5C4.22386 15.5 4 15.7239 4 16V16.5C4 16.7761 4.22386 17 4.5 17H19.5C19.7761 17 20 16.7761 20 16.5V16C20 15.7239 19.7761 15.5 19.5 15.5H4.5Z" fill="black"/>
</svg>
