<svg width="24" height="24" viewBox="0 0 24 24" fill="none" xmlns="http://www.w3.org/2000/svg">
<path d="M13.467 12.273C13.6429 12.0469 13.6746 11.7403 13.5487 11.483C13.4229 11.2257 13.1614 11.0625 12.875 11.0625H9.90847L12.6793 7.50006H16.5C17.1904 7.50006 17.75 8.05971 17.75 8.75006V10.1252V10.1253V13.5001V14.8751C17.75 15.5654 17.1904 16.1251 16.5 16.1251H12.5938C12.1795 16.1251 11.8438 16.4608 11.8438 16.8751C11.8438 17.2893 12.1795 17.6251 12.5938 17.6251H16.5C18.0188 17.6251 19.25 16.3938 19.25 14.8751V14.2501H20.25C20.9404 14.2501 21.5 13.6904 21.5 13.0001V10.6251C21.5 9.93473 20.9403 9.37507 20.2499 9.37512L19.25 9.3752V8.75006C19.25 7.23128 18.0188 6.00006 16.5 6.00006H12.5938C12.5457 6.00006 12.4988 6.00457 12.4533 6.0132C12.1855 5.96227 11.8993 6.05963 11.7205 6.28958L7.78298 11.3521C7.60712 11.5782 7.57541 11.8847 7.70126 12.142C7.82711 12.3994 8.08854 12.5625 8.37499 12.5625H11.3415L8.57066 16.1251H4.75C4.05964 16.1251 3.5 15.5654 3.5 14.8751V8.75006C3.5 8.05971 4.05964 7.50006 4.75 7.50006H8.65625C9.07046 7.50006 9.40625 7.16427 9.40625 6.75006C9.40625 6.33585 9.07046 6.00006 8.65625 6.00006H4.75C3.23122 6.00006 2 7.23128 2 8.75006V14.8751C2 16.3938 3.23122 17.6251 4.75 17.6251H8.65625C8.70432 17.6251 8.75133 17.6205 8.79688 17.6119C9.06463 17.6628 9.35069 17.5654 9.52951 17.3355L13.467 12.273ZM19.25 12.7501V10.8752L20 10.8751V12.7501H19.25Z" fill="black"/>
</svg>
