<svg width="24" height="24" viewBox="0 0 24 24" fill="none" xmlns="http://www.w3.org/2000/svg">
<path d="M17 7.5C17.8284 7.5 18.5 8.17157 18.5 9V15C18.5 15.8284 17.8284 16.5 17 16.5H5C4.17157 16.5 3.5 15.8284 3.5 15V9C3.5 8.17157 4.17157 7.5 5 7.5H17ZM5 6C3.34315 6 2 7.34315 2 9V15C2 16.6569 3.34315 18 5 18H17C18.6569 18 20 16.6569 20 15V9C20 7.34315 18.6569 6 17 6H5ZM22 9.25C21.5858 9.25 21.25 9.58579 21.25 10V14C21.25 14.4142 21.5858 14.75 22 14.75C22.4142 14.75 22.75 14.4142 22.75 14V10C22.75 9.58579 22.4142 9.25 22 9.25ZM5.5 8.5C4.94772 8.5 4.5 8.94772 4.5 9.5V14.5C4.5 15.0523 4.94772 15.5 5.5 15.5H16.5C17.0523 15.5 17.5 15.0523 17.5 14.5V9.5C17.5 8.94772 17.0523 8.5 16.5 8.5H5.5Z" fill="black"/>
</svg>
