<svg width="24" height="24" viewBox="0 0 24 24" fill="none" xmlns="http://www.w3.org/2000/svg">
<path d="M1.21967 3.21967C0.926777 3.51256 0.926777 3.98744 1.21967 4.28033L2.65071 5.71137C1.80905 6.24272 1.25 7.18107 1.25 8.25V14.25C1.25 15.9069 2.59315 17.25 4.25 17.25H14.1893L17.2197 20.2803C17.5126 20.5732 17.9874 20.5732 18.2803 20.2803C18.5732 19.9874 18.5732 19.5126 18.2803 19.2197L2.28033 3.21967C1.98744 2.92678 1.51256 2.92678 1.21967 3.21967ZM3.76834 6.829L12.6893 15.75H4.25C3.42157 15.75 2.75 15.0784 2.75 14.25V8.25C2.75 7.59006 3.17619 7.02965 3.76834 6.829ZM16.7317 15.671L17.8493 16.7886C18.691 16.2573 19.25 15.3189 19.25 14.25V8.25C19.25 6.59315 17.9069 5.25 16.25 5.25H6.31066L7.81066 6.75H16.25C17.0784 6.75 17.75 7.42157 17.75 8.25V14.25C17.75 14.9099 17.3238 15.4703 16.7317 15.671ZM22 9.25C22 8.83579 21.6642 8.5 21.25 8.5C20.8358 8.5 20.5 8.83579 20.5 9.25V13.25C20.5 13.6642 20.8358 14 21.25 14C21.6642 14 22 13.6642 22 13.25V9.25Z" fill="black"/>
</svg>
