<svg width="24" height="24" viewBox="0 0 24 24" fill="none" xmlns="http://www.w3.org/2000/svg">
<path d="M16.5 1.75C16.5 1.33579 16.1642 1 15.75 1C15.3358 1 15 1.33579 15 1.75L15 3L13.75 3C13.3358 3 13 3.33579 13 3.75C13 4.16421 13.3358 4.5 13.75 4.5L15 4.5V5.75C15 6.16421 15.3358 6.5 15.75 6.5C16.1642 6.5 16.5 6.16421 16.5 5.75V4.5L17.75 4.5C18.1642 4.5 18.5 4.16421 18.5 3.75C18.5 3.33579 18.1642 3 17.75 3L16.5 3L16.5 1.75ZM11.8222 2.72551C11.775 2.314 11.4031 2.01866 10.9916 2.06587C7.54437 2.46129 4.87039 5.39535 4.87029 8.95361L4.86958 11.6894C3.76481 12.2054 3 13.3277 3 14.6288C3 16.417 4.44598 17.8704 6.23429 17.8704H17.2657C19.054 17.8704 20.5 16.417 20.5 14.6288C20.5 13.3552 19.7672 12.2531 18.7003 11.7231L18.7004 8.95361C18.7004 8.55009 18.6659 8.15405 18.5996 7.76844C18.5294 7.36022 18.1416 7.08619 17.7333 7.15638C17.3251 7.22656 17.0511 7.61439 17.1213 8.02262C17.1732 8.32462 17.2004 8.63564 17.2004 8.95361L17.2003 12.2331C17.2003 12.5677 17.4219 12.8618 17.7435 12.954C18.4684 13.162 19 13.8331 19 14.6288C19 15.5927 18.2215 16.3704 17.2657 16.3704H6.23429C5.27852 16.3704 4.5 15.5927 4.5 14.6288C4.5 13.8153 5.05572 13.1322 5.805 12.9409C6.13702 12.8561 6.36936 12.5571 6.36945 12.2144L6.37029 8.95361C6.37029 6.16284 8.4673 3.86526 11.1626 3.5561C11.5741 3.50889 11.8694 3.13703 11.8222 2.72551ZM8.65677 19.1744C8.28364 19.3543 8.12695 19.8025 8.30679 20.1757L8.33653 20.238C8.41522 20.4036 8.55301 20.6936 8.68884 20.8895C9.35858 21.8557 10.4777 22.4909 11.7454 22.4909C13.3118 22.4909 14.6501 21.5223 15.1975 20.1541C15.3514 19.7695 15.1644 19.333 14.7798 19.1791C14.3952 19.0253 13.9587 19.2123 13.8048 19.5969C13.4775 20.4151 12.6778 20.9909 11.7454 20.9909C10.9903 20.9909 10.3231 20.6141 9.9216 20.035C9.86176 19.9486 9.78552 19.7898 9.69632 19.604L9.65803 19.5244C9.47819 19.1513 9.02991 18.9946 8.65677 19.1744Z" fill="black"/>
</svg>
