<svg width="24" height="24" viewBox="0 0 24 24" fill="none" xmlns="http://www.w3.org/2000/svg">
<path d="M9.28374 18.6232C8.9106 18.8031 8.75391 19.2513 8.93376 19.6245C8.94122 19.6399 8.94997 19.6584 8.95985 19.6792C9.0301 19.8271 9.15734 20.0951 9.28352 20.2771C9.8997 21.166 10.9295 21.7506 12.096 21.7506C13.5375 21.7506 14.7689 20.8592 15.2726 19.6003C15.4265 19.2157 15.2394 18.7792 14.8549 18.6254C14.4703 18.4715 14.0338 18.6585 13.8799 19.0431C13.5963 19.752 12.9035 20.2506 12.096 20.2506C11.4421 20.2506 10.8642 19.9245 10.5163 19.4225C10.4661 19.3501 10.4003 19.2133 10.3192 19.0444C10.3081 19.0212 10.2967 18.9975 10.285 18.9732C10.1051 18.6001 9.65687 18.4434 9.28374 18.6232Z" fill="black"/>
<path d="M5.93425 4.21939C5.63311 4.5038 5.61955 4.97848 5.90396 5.27962L7.7789 7.26497L18.7156 18.4973C19.0046 18.794 19.4794 18.8004 19.7762 18.5114C20.0729 18.2225 20.0793 17.7476 19.7903 17.4508L8.86556 6.23082L6.99448 4.24968C6.71007 3.94854 6.23539 3.93498 5.93425 4.21939Z" fill="black"/>
<path d="M17.8941 13.9478C18.3145 14.0681 18.6198 14.4565 18.6198 14.9123C18.6198 15.4662 18.1708 15.9152 17.6169 15.9152H6.50289C5.94901 15.9152 5.5 15.4662 5.5 14.9123C5.5 14.4462 5.81944 14.0508 6.25354 13.9403C6.91808 13.7711 7.38327 13.1728 7.38345 12.4871L7.3843 9.2112C7.3843 6.60928 9.49358 4.5 12.0955 4.5C14.6974 4.5 16.8067 6.60928 16.8067 9.2112L16.8067 12.5057C16.8067 13.1752 17.2504 13.7637 17.8941 13.9478ZM5.88345 12.4867C4.80075 12.7624 4 13.7438 4 14.9123C4 16.2947 5.12058 17.4152 6.50289 17.4152H17.6169C18.9993 17.4152 20.1198 16.2947 20.1198 14.9123C20.1198 13.7693 19.3536 12.8052 18.3067 12.5057L18.3067 9.2112C18.3067 5.78085 15.5259 3 12.0955 3C8.66515 3 5.8843 5.78085 5.8843 9.2112L5.88345 12.4867Z" fill="black"/>
</svg>
