<svg width="24" height="24" viewBox="0 0 24 24" fill="none" xmlns="http://www.w3.org/2000/svg">
<path d="M12.0246 4.05843C11.7461 4.17532 11.5648 4.44793 11.5648 4.75002V9.9626L9.27544 7.71485C8.97987 7.42465 8.50502 7.42901 8.21483 7.72458C7.92463 8.02015 7.92899 8.495 8.22456 8.78519L11.2443 11.75L8.22456 14.7148C7.92899 15.005 7.92463 15.4799 8.21483 15.7755C8.50502 16.071 8.97987 16.0754 9.27544 15.7852L11.5648 13.5374V18.75C11.5648 19.0521 11.7461 19.3247 12.0246 19.4416C12.3032 19.5585 12.6247 19.4968 12.8403 19.2852L16.4051 15.7852C16.5487 15.6442 16.6296 15.4513 16.6296 15.25C16.6296 15.0487 16.5487 14.8559 16.4051 14.7148L13.3853 11.75L16.4051 8.78519C16.5487 8.64417 16.6296 8.45132 16.6296 8.25002C16.6296 8.04872 16.5487 7.85587 16.4051 7.71485L12.8403 4.21485C12.6247 4.0032 12.3032 3.94155 12.0246 4.05843ZM13.0648 13.5374L14.8091 15.25L13.0648 16.9626V13.5374ZM13.0648 9.96259V6.53745L14.8091 8.25002L13.0648 9.96259Z" fill="black"/>
</svg>
