<svg width="24" height="24" viewBox="0 0 24 24" fill="none" xmlns="http://www.w3.org/2000/svg">
<path d="M5 3.75V19.75C5 20.1642 5.33579 20.5 5.75 20.5H13.75C16.3734 20.5 18.5 18.3734 18.5 15.75C18.5 13.7538 17.2686 12.0452 15.524 11.3424C16.5299 10.4714 17.1663 9.18501 17.1663 7.75C17.1663 5.12664 15.0396 3 12.4163 3H5.75C5.33579 3 5 3.33579 5 3.75ZM6.5 12.5H13.75C15.5449 12.5 17 13.9551 17 15.75C17 17.5449 15.5449 19 13.75 19H6.5V12.5ZM12.4163 11H6.5V4.5H12.4163C14.2112 4.5 15.6663 5.95507 15.6663 7.75C15.6663 9.54493 14.2112 11 12.4163 11Z" fill="black"/>
</svg>
