<svg width="24" height="24" viewBox="0 0 24 24" fill="none" xmlns="http://www.w3.org/2000/svg">
<path d="M13.454 12.7834C13.1693 12.4614 12.7601 12.277 12.3302 12.277H6.50751L11.2093 6.56434L10.8415 9.54321C10.7889 9.96982 10.9217 10.3985 11.2065 10.7206C11.4912 11.0426 11.9004 11.227 12.3302 11.227H18.1529L13.4512 16.9397L13.8189 13.9608C13.8716 13.5342 13.7387 13.1055 13.454 12.7834ZM4.13787 12.7957C3.81569 13.1872 4.09415 13.777 4.60114 13.777H12.3302L11.5831 19.8285C11.5095 20.4246 12.2602 20.7471 12.6419 20.2833L20.5226 10.7083C20.8448 10.3168 20.5663 9.727 20.0593 9.727H12.3302L13.0773 3.67545C13.1509 3.07941 12.4002 2.75694 12.0186 3.22064L4.13787 12.7957Z" fill="black"/>
</svg>
