<svg width="24" height="24" viewBox="0 0 24 24" fill="none" xmlns="http://www.w3.org/2000/svg">
<path d="M3.5 4.05348C3.5 3.7478 3.7478 3.5 4.05348 3.5L5.94481 3.5C6.24556 3.5 6.49028 3.73987 6.4981 4.03873L6.49805 4.05348V5.07892L3.5 5.07892V4.05348ZM5.94481 2L4.05348 2C2.91938 2 2 2.91938 2 4.05348L2 19.4397C2 20.5738 2.91938 21.4932 4.05348 21.4932H5.94481C6.43966 21.4932 6.89362 21.3181 7.24817 21.0266C7.60272 21.3181 8.05668 21.4932 8.55153 21.4932H10.4429C11.577 21.4932 12.4963 20.5738 12.4963 19.4397V9.79245L15.0247 19.948C15.311 21.098 16.5071 21.6779 17.6005 21.3974L19.5701 20.8919C20.6634 20.6114 21.4445 19.524 21.1582 18.3741L17.4662 3.54453C17.1799 2.39456 15.9838 1.81462 14.8904 2.09519L12.9208 2.60062C12.6487 2.67046 12.3959 2.79029 12.1741 2.94862C11.8093 2.37817 11.1702 2 10.4429 2L8.55153 2C8.05668 2 7.60272 2.17504 7.24817 2.46657C6.89362 2.17504 6.43966 2 5.94481 2ZM10.9963 6.57892V17.1819L7.99829 17.1819L7.99829 6.57892L10.9963 6.57892ZM7.99829 19.4397V18.6819H10.9963V19.4397C10.9963 19.7454 10.7485 19.9932 10.4429 19.9932H8.55153C8.25078 19.9932 8.00606 19.7533 7.99824 19.4544L7.99829 19.4397ZM6.49805 19.4397L6.4981 19.4544C6.49028 19.7533 6.24555 19.9932 5.94481 19.9932L4.05348 19.9932C3.7478 19.9932 3.5 19.7454 3.5 19.4397V18.6819H6.49805L6.49805 19.4397ZM6.49805 17.1819L3.5 17.1819L3.5 6.57892H6.49805V17.1819ZM7.99829 5.07892V4.05348L7.99824 4.03873C8.00606 3.73987 8.25078 3.5 8.55153 3.5L10.4429 3.5C10.7485 3.5 10.9963 3.7478 10.9963 4.05348V5.07892H7.99829ZM15.9453 17.4536L13.3766 7.13578L16.6034 6.27117L19.1721 16.589L15.9453 17.4536ZM16.3077 18.9092L19.5345 18.0446L19.7091 18.7459C19.7683 18.9837 19.614 19.3332 19.208 19.4374L17.2384 19.9428C16.8323 20.047 16.533 19.8139 16.4738 19.5762L16.3077 18.9092ZM13.0142 5.68015L12.7818 4.74663C12.7226 4.5089 12.8769 4.15937 13.283 4.05517L15.2526 3.54974C15.6586 3.44555 15.958 3.67865 16.0172 3.91638L16.241 4.81554L13.0142 5.68015Z" fill="black"/>
</svg>
