<svg width="24" height="24" viewBox="0 0 24 24" fill="none" xmlns="http://www.w3.org/2000/svg">
<path d="M12.4 17.9518C12.4 17.9518 15.1892 19.6261 17.0848 20.7627C17.8609 21.2273 18.8 20.6065 18.8 19.635V5.56C18.8 4.14615 17.6538 3 16.24 3H8.56C7.14615 3 6 4.14615 6 5.56V19.635C6 20.6065 6.93905 21.2273 7.7152 20.7627C9.61076 19.6248 12.4 17.9518 12.4 17.9518ZM11.6284 16.6655L9.99676 17.6442C9.2386 18.0991 8.32433 18.6476 7.5 19.1424V5.56C7.5 4.97458 7.97458 4.5 8.56 4.5H16.24C16.8254 4.5 17.3 4.97458 17.3 5.56V19.1427C16.4759 18.6484 15.5616 18.0998 14.8034 17.6448L13.1725 16.666C12.6975 16.3809 12.1035 16.3805 11.6284 16.6655Z" fill="black"/>
</svg>
