<svg width="24" height="24" viewBox="0 0 24 24" fill="none" xmlns="http://www.w3.org/2000/svg">
<path d="M10.5007 6.44485C10.5244 7.25253 11.1866 7.9 12 7.9C12.8134 7.9 13.4756 7.25253 13.4993 6.44485C13.5204 6.40206 13.6211 6.24121 14.0238 6.02642C14.5807 5.7294 15.4535 5.5 16.5 5.5C17.5465 5.5 18.4193 5.7294 18.9762 6.02642C19.3749 6.23905 19.4776 6.39882 19.5 6.44353V16.8556C18.6857 16.4261 17.6832 16.1 16.5 16.1C14.9275 16.1 13.6723 16.6757 12.75 17.3102V9C12.75 8.58579 12.4142 8.25 12 8.25C11.5858 8.25 11.25 8.58579 11.25 9V17.0582C11.0868 16.9518 10.9142 16.8521 10.731 16.7603C9.8148 16.3011 8.75663 16.1 7.5 16.1C6.35958 16.1 5.33566 16.4618 4.5 16.9109V6.44353C4.52241 6.39882 4.62511 6.23905 5.02378 6.02642C5.58069 5.7294 6.45349 5.5 7.5 5.5C8.54651 5.5 9.41931 5.7294 9.97622 6.02642C10.3789 6.24121 10.4796 6.40206 10.5007 6.44485ZM16.5 4C15.1156 4 13.8773 4.33331 13.0519 4.85768C12.3954 5.27476 12 5.81273 12 6.4C12 5.81273 11.6046 5.27476 10.9481 4.85768C10.1227 4.33331 8.88445 4 7.5 4C5.01436 4 3 5.0744 3 6.4V18.6265C3 19.0933 3.62948 19.3475 3.99152 19.0529C4.81626 18.3818 6.08138 17.6 7.5 17.6C9.6966 17.6 10.7442 18.3029 11.6483 19.5015C11.8383 19.7534 12.2003 19.7854 12.4204 19.5594C13.1434 18.8171 14.5106 17.6 16.5 17.6C17.7458 17.6 18.7476 18.0773 19.5 18.6164L19.5142 18.6266C19.5905 18.6815 19.6642 18.7371 19.7353 18.7929C19.8852 18.9104 20.0236 19.0287 20.1504 19.1437C20.4804 19.4429 21 19.2383 21 18.7929V6.4C21 5.0744 18.9856 4 16.5 4Z" fill="black"/>
</svg>
