<svg width="24" height="24" viewBox="0 0 24 24" fill="none" xmlns="http://www.w3.org/2000/svg">
<path d="M8.25002 8.75C8.25002 9.16421 8.58581 9.5 9.00002 9.5H15.5C15.9142 9.5 16.25 9.16421 16.25 8.75C16.25 8.33579 15.9142 8 15.5 8H9.00002C8.58581 8 8.25002 8.33579 8.25002 8.75Z" fill="black"/>
<path d="M9.00002 11C8.58581 11 8.25002 11.3358 8.25002 11.75C8.25002 12.1642 8.58581 12.5 9.00002 12.5H15.5C15.9142 12.5 16.25 12.1642 16.25 11.75C16.25 11.3358 15.9142 11 15.5 11H9.00002Z" fill="black"/>
<path d="M8.80081 2C6.17745 2 4.05081 4.12665 4.05081 6.75V18.238C4.01744 18.4571 4 18.6831 4 18.9141C4 20.9377 5.33921 22.5781 6.99121 22.5781H19.7018C20.3414 22.5781 20.8087 21.8524 20.692 21.0821C20.4576 19.5353 20.4721 18.6106 20.7355 16.7012C20.7518 16.5827 20.7541 16.4657 20.7438 16.3525C20.7484 16.319 20.7508 16.2848 20.7508 16.25V3.75C20.7508 2.7835 19.9673 2 19.0008 2H8.80081ZM19.2508 3.75V15.25H6.99121C6.46902 15.25 5.97807 15.4139 5.55081 15.702V6.75C5.55081 4.95507 7.00588 3.5 8.80081 3.5H19.0008C19.1388 3.5 19.2508 3.61193 19.2508 3.75ZM6.99121 17.082H19.1718C19.0024 18.4956 18.9821 19.4911 19.1304 20.7461H6.99121C6.16521 20.7461 5.4956 19.9259 5.4956 18.9141C5.4956 17.9023 6.16521 17.082 6.99121 17.082Z" fill="black"/>
</svg>
