<svg width="24" height="24" viewBox="0 0 24 24" fill="none" xmlns="http://www.w3.org/2000/svg">
<path d="M3.65 5.5H19.85C19.9326 5.5 20 5.56741 20 5.65V7.45C20 7.53259 19.9326 7.6 19.85 7.6H19.5559L19.5498 7.59998L19.5437 7.6H3.95532L3.94922 7.59998L3.94312 7.6H3.65C3.56741 7.6 3.5 7.53259 3.5 7.45V5.65C3.5 5.56741 3.56741 5.5 3.65 5.5ZM2 7.45C2 8.20474 2.5072 8.8414 3.19922 9.03762V17.15C3.19922 19.221 4.87815 20.9 6.94922 20.9H16.5498C18.6209 20.9 20.2998 19.221 20.2998 17.15V9.0379C20.9923 8.842 21.5 8.20509 21.5 7.45V5.65C21.5 4.73899 20.761 4 19.85 4H3.65C2.73899 4 2 4.73899 2 5.65V7.45ZM4.69922 17.15V9.1H18.7998V17.15C18.7998 18.3926 17.7925 19.4 16.5498 19.4H6.94922C5.70658 19.4 4.69922 18.3926 4.69922 17.15ZM9.0498 11.2C8.63559 11.2 8.2998 11.5358 8.2998 11.95C8.2998 12.3642 8.63559 12.7 9.0498 12.7H14.4498C14.864 12.7 15.1998 12.3642 15.1998 11.95C15.1998 11.5358 14.864 11.2 14.4498 11.2H9.0498Z" fill="black"/>
</svg>
