<svg width="24" height="24" viewBox="0 0 24 24" fill="none" xmlns="http://www.w3.org/2000/svg">
<path d="M12 20.5C7.30509 20.5 3.5 16.6949 3.5 12C3.5 7.30509 7.30509 3.5 12 3.5C16.6949 3.5 20.5 7.30509 20.5 12C20.5 16.6949 16.6949 20.5 12 20.5ZM22 12C22 6.47667 17.5233 2 12 2C6.47667 2 2 6.47667 2 12C2 17.5233 6.47667 22 12 22C17.5233 22 22 17.5233 22 12ZM4.75006 12C4.75006 12.4142 5.08585 12.75 5.50006 12.75H6.00006C6.41427 12.75 6.75006 12.4142 6.75006 12C6.75006 11.5858 6.41427 11.25 6.00006 11.25H5.50006C5.08585 11.25 4.75006 11.5858 4.75006 12ZM18.0001 11.25C17.5858 11.25 17.2501 11.5858 17.2501 12C17.2501 12.4142 17.5858 12.75 18.0001 12.75H18.5001C18.9143 12.75 19.2501 12.4142 19.2501 12C19.2501 11.5858 18.9143 11.25 18.5001 11.25H18.0001ZM12 17.2498C11.5858 17.2498 11.25 17.5855 11.25 17.9998V18.4998C11.25 18.914 11.5858 19.2498 12 19.2498C12.4142 19.2498 12.75 18.914 12.75 18.4998V17.9998C12.75 17.5855 12.4142 17.2498 12 17.2498ZM12.75 5.49976C12.75 5.08554 12.4142 4.74976 12 4.74976C11.5858 4.74976 11.25 5.08554 11.25 5.49976V5.99976C11.25 6.41397 11.5858 6.74976 12 6.74976C12.4142 6.74976 12.75 6.41397 12.75 5.99976V5.49976ZM15.7095 15.7099C15.4166 16.0028 15.4166 16.4777 15.7095 16.7706L16.0695 17.1306C16.3624 17.4235 16.8373 17.4235 17.1302 17.1306C17.4231 16.8377 17.4231 16.3628 17.1302 16.0699L16.7702 15.7099C16.4773 15.417 16.0024 15.417 15.7095 15.7099ZM7.93023 6.86957C7.63734 6.57668 7.16247 6.57668 6.86957 6.86957C6.57668 7.16247 6.57668 7.63734 6.86957 7.93023L7.22957 8.29023C7.52247 8.58313 7.99734 8.58313 8.29023 8.29023C8.58313 7.99734 8.58313 7.52247 8.29023 7.22957L7.93023 6.86957ZM16.7737 6.11814L9.80998 9.62762L6.54182 17.2383C6.35766 17.6672 6.80947 18.0922 7.22628 17.8821L14.19 14.3726L17.4581 6.76193C17.6423 6.33305 17.1905 5.90808 16.7737 6.11814ZM12 13.0005C11.4477 13.0005 11 12.5528 11 12.0005C11 11.4482 11.4477 11.0005 12 11.0005C12.5523 11.0005 13 11.4482 13 12.0005C13 12.5528 12.5523 13.0005 12 13.0005Z" fill="black"/>
</svg>
