<svg width="24" height="24" viewBox="0 0 24 24" fill="none" xmlns="http://www.w3.org/2000/svg">
<path d="M2.00001 11.5681C1.99805 13.0978 2.36486 14.6036 3.06696 15.9595C3.12255 16.0669 3.13116 16.174 3.10766 16.2594L2.40678 18.8071C2.06982 20.0319 3.18535 21.1622 4.41451 20.8412L7.10728 20.1382C7.18853 20.117 7.28941 20.1247 7.39183 20.1745C8.70345 20.8124 10.1449 21.1455 11.6084 21.1455H11.6125C16.908 21.1455 21.2217 16.8554 21.2239 11.5761C21.225 9.01998 20.2244 6.61386 18.4105 4.80555C16.5964 2.99822 14.181 2.0011 11.6125 2C6.31531 2 2.00131 6.28867 2.00001 11.5681ZM11.6122 3.3C13.8378 3.30102 15.9231 4.16254 17.4929 5.7265C19.0628 7.29157 19.9249 9.36634 19.9239 11.5755C19.922 16.1319 16.1954 19.8455 11.6125 19.8455H11.6084C10.3423 19.8455 9.09519 19.5573 7.96039 19.0054C7.60662 18.8333 7.18844 18.7734 6.77887 18.8803L4.0861 19.5834C3.82537 19.6515 3.58874 19.4117 3.66022 19.1519L4.36109 16.6043C4.47975 16.1729 4.41224 15.7303 4.22138 15.3617C3.61495 14.1906 3.29827 12.8895 3.30001 11.5688C3.30096 7.01282 7.02716 3.30015 11.6122 3.3ZM9.70889 9.14092C9.89828 9.41369 10.1029 9.7073 10.3318 10.0323C10.3881 10.1128 10.3757 10.2208 10.3128 10.2841L9.99929 10.5999C9.78557 10.8152 9.74921 11.1497 9.91169 11.4059C10.1892 11.8436 10.539 12.2681 10.9267 12.6558L10.9282 12.6573C11.3156 13.0447 11.7391 13.3942 12.177 13.672C12.4332 13.8345 12.7677 13.7981 12.983 13.5844L13.2987 13.2711C13.3629 13.2074 13.4713 13.1962 13.551 13.2522C13.8576 13.4674 14.1364 13.6617 14.3957 13.8425L14.442 13.8748C14.5383 13.9417 14.5533 14.0813 14.4651 14.1693L14.1864 14.448C14.1862 14.4482 14.1866 14.4478 14.1864 14.448C13.8522 14.7802 13.3787 14.8635 12.6963 14.6208C12.0016 14.3737 11.2153 13.8187 10.4888 13.0919C10.4865 13.0896 10.4843 13.0874 10.482 13.0852C9.75969 12.3607 9.20853 11.5779 8.96261 10.8863C8.72007 10.2041 8.80391 9.73027 9.13621 9.39598C9.13639 9.3958 9.13603 9.39616 9.13621 9.39598L9.41436 9.11783C9.50242 9.02977 9.64197 9.04526 9.70889 9.14092ZM15.3843 15.0886C16.0407 14.4329 15.9518 13.3404 15.1834 12.8069L15.1389 12.7759C14.8795 12.5951 14.6025 12.402 14.2979 12.1881C13.736 11.7936 12.974 11.8315 12.4571 12.2796C12.2506 12.1185 12.0457 11.9364 11.8474 11.7381L11.8459 11.7365C11.6477 11.5383 11.4654 11.3329 11.304 11.126C11.7536 10.6082 11.7889 9.84514 11.3949 9.2842C11.1682 8.96225 10.965 8.67065 10.7764 8.39908C10.2428 7.63174 9.15054 7.54318 8.49512 8.19859L8.21588 8.47783L8.2148 8.47892C7.40102 9.29656 7.39811 10.3665 7.73773 11.3218C8.07312 12.2651 8.76952 13.2108 9.57131 14.013C9.57381 14.0155 9.57632 14.018 9.57884 14.0204M9.57884 14.0204C10.3787 14.8187 11.3208 15.5113 12.2606 15.8456C13.2159 16.1854 14.2863 16.1827 15.104 15.3689L15.1051 15.3678L15.3843 15.0886" fill="black"/>
</svg>
