<svg width="24" height="24" viewBox="0 0 24 24" fill="none" xmlns="http://www.w3.org/2000/svg">
<path d="M12.4004 19.5V14H14.4474C14.5432 14 14.6256 13.932 14.6438 13.8379L14.9529 12.2379C14.9767 12.1145 14.8822 12 14.7565 12H12.4004V10.0554C12.4004 9.14168 13.1417 8.40039 14.0554 8.40039H14.8004C14.9108 8.40039 15.0004 8.31085 15.0004 8.20039V6.60039C15.0004 6.48993 14.9108 6.40039 14.8004 6.40039H14.0554C12.0371 6.40039 10.4004 8.03711 10.4004 10.0554V12H8.7C8.58954 12 8.5 12.0895 8.5 12.2V13.8C8.5 13.9105 8.58954 14 8.7 14H10.4004V19.5H7C5.61929 19.5 4.5 18.3807 4.5 17V7C4.5 5.61929 5.61929 4.5 7 4.5H17C18.3807 4.5 19.5 5.61929 19.5 7V17C19.5 18.3807 18.3807 19.5 17 19.5H12.4004ZM17 21C19.2091 21 21 19.2091 21 17V7C21 4.79086 19.2091 3 17 3H7C4.79086 3 3 4.79086 3 7V17C3 19.2091 4.79086 21 7 21H17Z" fill="black"/>
</svg>
