<svg width="24" height="24" viewBox="0 0 24 24" fill="none" xmlns="http://www.w3.org/2000/svg">
<path d="M16.4612 4.31144C16.6498 3.28637 16.0109 2.75019 15.0341 3.11385C14.0573 3.4775 13.1126 4.6033 12.924 5.62837C12.7354 6.65345 13.3743 7.18963 14.3511 6.82597C15.3279 6.46231 16.2726 5.33652 16.4612 4.31144ZM7.08169 10.3284C7.68021 9.28759 8.67877 8.68667 9.63966 8.68667C9.91294 8.68667 10.2539 8.78954 10.7863 9.00581C10.834 9.02519 10.8859 9.04656 10.9407 9.06913C11.1419 9.15201 11.3824 9.25104 11.5997 9.32707C11.8715 9.4222 12.2757 9.54546 12.7196 9.54546C13.1826 9.54546 13.6134 9.40111 13.8736 9.30793C13.998 9.26335 14.2138 9.17923 14.4049 9.10472C14.5351 9.05397 14.6539 9.00768 14.7245 8.98138C15.2804 8.77446 15.7437 8.65761 16.1876 8.69224L16.2026 8.69334C16.4902 8.71288 16.9874 8.77005 17.4873 9.02027C16.8346 9.80417 16.1833 10.9967 16.197 12.6018L16.1971 12.6051C16.2212 14.8546 17.3992 16.2505 18.3463 16.9931C18.1762 17.3519 17.953 17.763 17.6712 18.1744L17.6688 18.1779C17.2674 18.7675 16.9593 19.1959 16.6422 19.4919C16.355 19.7601 16.174 19.8118 16.0275 19.8142L16.015 19.8144C15.7488 19.8209 15.6039 19.7668 15.1708 19.5797C14.6928 19.3732 14.0024 19.0766 12.9714 19.0766C11.9579 19.0766 11.2701 19.3448 10.7614 19.5604L10.7313 19.5732C10.2763 19.766 10.1194 19.8325 9.85778 19.8452C9.80482 19.8457 9.63509 19.825 9.29697 19.508C8.9446 19.1776 8.59944 18.7059 8.19569 18.1265C7.51705 17.1439 6.89357 15.711 6.63069 14.2207C6.36558 12.7179 6.49684 11.3439 7.08169 10.3284ZM6.96325 18.9815C7.75122 20.1124 8.6797 21.3848 9.91168 21.3443C10.4582 21.3209 10.8469 21.1549 11.2489 20.9832C11.7158 20.7837 12.2006 20.5766 12.9714 20.5766C13.6967 20.5766 14.1573 20.7757 14.6001 20.9671C15.0267 21.1516 15.4369 21.3289 16.0514 21.314C17.3238 21.2938 18.132 20.1629 18.9087 19.022C19.3478 18.381 19.6615 17.7496 19.8699 17.263C20.0806 16.7708 19.8049 16.208 19.3739 15.8903C18.6517 15.3579 17.7157 14.3325 17.697 12.589C17.6855 11.2488 18.3076 10.305 18.8648 9.72983C19.2744 9.30702 19.4354 8.61145 18.9883 8.2285C17.9648 7.35183 16.7802 7.22912 16.3043 7.19679C15.3467 7.12206 14.4853 7.46089 13.7949 7.73246C13.3637 7.90208 12.9992 8.04546 12.7196 8.04546C12.3951 8.04546 11.9909 7.87915 11.5383 7.6929C10.9624 7.45592 10.3081 7.18667 9.63966 7.18667C8.05247 7.18667 6.60017 8.15675 5.78185 9.57982C4.13621 12.4372 5.35807 16.6592 6.96325 18.9815Z" fill="black"/>
</svg>
