<svg width="24" height="24" viewBox="0 0 24 24" fill="none" xmlns="http://www.w3.org/2000/svg">
<path d="M7.07744 6.31389C8.39395 5.18527 10.1156 4.5006 12.0036 4.5006C14.6098 4.5006 16.8989 5.80515 18.243 7.78113C18.4991 12.2783 15.8495 16.0086 12.5069 15.9521C11.8994 15.9419 11.269 15.8065 10.629 15.528C10.2273 15.3532 9.82185 15.122 9.41586 14.8298C9.29379 14.7417 9.35426 14.6982 9.52572 14.6772L9.52615 14.6771C9.69719 14.6562 9.9784 14.6575 10.299 14.6589H10.299C10.4744 14.6597 10.6615 14.6606 10.8488 14.6579C11.3754 14.6503 11.9035 14.6146 12.1755 14.4706C12.198 14.4587 12.2207 14.4462 12.2438 14.4333C12.3701 14.3622 12.5041 14.2767 12.6373 14.1916L12.6501 14.1835L12.6595 14.1775C12.7849 14.0975 12.9092 14.0186 13.0255 13.9534L13.0276 13.9522C13.2147 13.8474 13.3807 13.7781 13.496 13.7965C13.9522 13.8631 14.0595 13.5016 13.8299 13.2422C13.7763 13.1815 13.7046 13.1098 13.6177 13.0372L13.6079 13.0291C13.4083 12.8645 13.1306 12.6975 12.8066 12.6471C12.614 12.6171 12.405 12.6284 12.1862 12.7059C12.1442 12.7208 12.1019 12.7381 12.0592 12.7581C9.83528 13.7958 8.35193 12.2621 8.60929 11.3626C8.65731 11.1933 8.84113 10.9701 8.91841 10.9553C9.03093 10.8476 9.30484 10.6457 9.64076 10.3981L9.64077 10.3981C10.0547 10.0929 10.5628 9.7184 10.9791 9.36515C11.0045 9.34358 11.0296 9.32209 11.0542 9.30069C11.1174 9.24602 11.1779 9.192 11.2353 9.13898C11.3068 9.07288 11.3734 9.00833 11.4335 8.946C11.5843 8.7897 11.695 8.64735 11.744 8.5295C11.8086 8.37428 11.8813 8.00989 11.6705 7.93376C11.3877 7.86754 10.7911 7.85284 10.4098 7.8508L10.4038 7.85077C10.3152 7.85032 10.2385 7.85056 10.1804 7.85097C9.6809 7.85538 9.32151 7.59448 9.24258 7.29533L9.24233 7.29437L9.2423 7.29428C9.24061 7.28781 9.23905 7.28133 9.23763 7.27483L9.23734 7.2735C9.22762 7.22872 9.2242 7.1832 9.22754 7.13771C9.26055 6.69054 9.57718 6.13324 10.476 5.40297C8.93267 5.18124 8.04131 6.39563 8.04131 6.39563C7.98514 6.38189 7.92684 6.37015 7.86696 6.3602C7.61815 6.31886 7.34197 6.30836 7.07744 6.31389ZM5.5019 8.19569C5.54213 8.12715 5.58345 8.0593 5.62583 7.99217L5.63818 7.99928L6.17514 7.90266L6.17547 7.9026L6.17552 7.9026L6.17723 7.90229L6.17966 7.90188L6.20832 7.89713C6.23575 7.89271 6.27884 7.88603 6.33428 7.87833C6.44615 7.86278 6.60312 7.84375 6.78003 7.83013C7.17624 7.79963 7.51102 7.81015 7.68505 7.85271L7.86251 7.89609C8.01231 8.27786 8.26787 8.58716 8.53926 8.80355C8.66203 8.90144 8.79334 8.98608 8.93108 9.05757L8.7559 9.18682L8.5885 9.31034L8.57454 9.32066C8.41224 9.44063 8.21077 9.58955 8.04512 9.72712C7.96208 9.78273 7.89563 9.83768 7.84762 9.88036C7.73506 9.98043 7.64243 10.086 7.57119 10.1771C7.4466 10.3365 7.26406 10.6094 7.16665 10.9517C6.83746 12.1056 7.45054 13.1438 8.2061 13.7709C8.04728 13.9624 7.90372 14.2298 7.86284 14.5662C7.81789 14.9362 7.91496 15.2429 8.01783 15.4467C8.19435 15.7964 8.45946 15.9894 8.53771 16.0459L8.53976 16.0474C10.1437 17.2016 11.8614 17.6425 13.51 17.3792C15.139 17.119 16.5298 16.1991 17.5635 14.946C18.4497 13.8718 19.1023 12.5249 19.4566 11.0246C19.4896 11.3055 19.5066 11.5912 19.5066 11.8807C19.5066 11.8907 19.5068 11.9006 19.5072 11.9104C19.4916 15.4688 16.6734 19.2503 12.0036 19.2503C8.9877 19.2503 7.14943 17.6915 6.20304 16.5652C5.94463 16.2577 5.75881 15.9886 5.64138 15.8036C5.58284 15.7114 5.54185 15.641 5.51783 15.5983C5.50583 15.5769 5.49812 15.5626 5.49462 15.556L5.49354 15.554L5.48363 15.5342L5.46949 15.5086C4.4391 13.6418 4.39843 11.9167 4.60869 10.6488C4.63941 10.4635 4.67552 10.2882 4.71471 10.1241C4.85912 9.5428 5.07358 8.98822 5.34887 8.46963L5.50293 8.20257L5.5019 8.19569ZM3.3024 9.58897C3.10517 10.3197 3 11.0879 3 11.8807C3 11.9182 3.00275 11.9551 3.00806 11.9911C3.02503 13.2495 3.31443 14.7083 4.15625 16.2335C4.15625 16.2335 4.44023 16.799 5.05464 17.5302C6.17606 18.8648 8.39825 20.7503 12.0036 20.7503C17.6309 20.7503 21.0073 16.1551 21.0073 11.8807C21.0073 10.0796 20.4784 8.52584 19.7091 7.27711C19.2746 6.57194 18.7635 5.96403 18.2277 5.46376C16.6092 3.93666 14.4151 3 12.0036 3C9.37254 3 7.00015 4.11504 5.35192 5.89544C4.97132 5.34873 4.87504 4.69415 4.87504 4.69415C4.87504 4.69415 4.1494 5.22733 3.93957 6.46591C3.8712 6.86946 3.85759 7.34788 3.94167 7.90715C3.94167 7.90715 3.57621 8.54068 3.3024 9.58897Z" fill="black"/>
</svg>
