<svg width="24" height="24" viewBox="0 0 24 24" fill="none" xmlns="http://www.w3.org/2000/svg">
<path d="M14.7574 15.5H12.1243C11.6469 15.5 11.189 15.6896 10.8515 16.0272L9.5 17.3787V17.3C9.5 16.3059 8.69411 15.5 7.7 15.5H7C6.17157 15.5 5.5 14.8284 5.5 14V8.24264C5.5 7.84482 5.65804 7.46328 5.93934 7.18198L8.18198 4.93934C8.46329 4.65803 8.84482 4.5 9.24264 4.5H17C17.8284 4.5 18.5 5.17157 18.5 6V12.1716C18.5 12.3042 18.4473 12.4314 18.3536 12.5251L15.818 15.0607C15.5367 15.342 15.1552 15.5 14.7574 15.5ZM12.1243 17H14.7574C15.553 17 16.3161 16.6839 16.8787 16.1213L19.4142 13.5858C19.7893 13.2107 20 12.702 20 12.1716V6C20 4.34315 18.6569 3 17 3H9.24264C8.44699 3 7.68393 3.31607 7.12132 3.87868L4.87868 6.12132C4.31607 6.68393 4 7.44699 4 8.24264V14C4 15.6569 5.34315 17 7 17H7.7C7.86569 17 8 17.1343 8 17.3V19.7929C8 20.2383 8.53857 20.4614 8.85355 20.1464L11.9121 17.0879C11.9684 17.0316 12.0447 17 12.1243 17ZM12 6.25C11.5858 6.25 11.25 6.58579 11.25 7V10C11.25 10.4142 11.5858 10.75 12 10.75C12.4142 10.75 12.75 10.4142 12.75 10V7C12.75 6.58579 12.4142 6.25 12 6.25ZM16 6.25C15.5858 6.25 15.25 6.58579 15.25 7V10C15.25 10.4142 15.5858 10.75 16 10.75C16.4142 10.75 16.75 10.4142 16.75 10V7C16.75 6.58579 16.4142 6.25 16 6.25Z" fill="black"/>
</svg>
