<svg width="24" height="24" viewBox="0 0 24 24" fill="none" xmlns="http://www.w3.org/2000/svg">
<path d="M7.99707 2C7.58286 2 7.24707 2.33579 7.24707 2.75C7.24707 3.16421 7.58286 3.5 7.99707 3.5H8.72736V4.52182C5.95036 5.6874 4 8.43246 4 11.6327C4 16.0151 7.16709 19.7557 11.4895 20.4784L17.4615 21.4769C17.553 21.4922 17.6455 21.4999 17.7382 21.4999C18.6648 21.4999 19.4159 20.7488 19.4159 19.8222V11.6323C19.4159 8.20767 17.1826 5.30469 14.0929 4.30037V3.5H15.0802C15.4944 3.5 15.8302 3.16421 15.8302 2.75C15.8302 2.33579 15.4944 2 15.0802 2H7.99707ZM11.708 3.92432C11.2015 3.92432 10.7065 3.97316 10.2274 4.0664V3.5H12.5929V3.97456C12.3025 3.94137 12.0072 3.92432 11.708 3.92432ZM11.708 5.42432C15.1365 5.42432 17.9159 8.20372 17.9159 11.6323V19.8222C17.9159 19.9203 17.8364 19.9999 17.7382 19.9999C17.7284 19.9999 17.7186 19.9991 17.7089 19.9975L11.7368 18.9989C8.13738 18.3971 5.5 15.2821 5.5 11.6327C5.5 8.2041 8.27946 5.42432 11.708 5.42432ZM16.8397 11.6119C16.8397 11.4612 16.8129 11.0632 16.7591 10.4179C16.6523 9.13432 15.5793 8.14697 14.2913 8.14697C13.0408 8.14697 12.1825 9.00521 12.1825 10.2557V14.2837C12.1825 14.4553 12.1523 14.75 11.7163 14.75C11.5446 14.75 11.25 14.75 11.25 14.2837V10.3119C11.25 9.03033 10.3666 8.14697 9.08512 8.14697C7.78615 8.14697 6.71957 9.17389 6.6704 10.4719C6.6466 11.0997 6.6347 11.4797 6.6347 11.6119C6.6347 14.3096 8.91918 16.4965 11.7372 16.4965C14.5553 16.4965 16.8397 14.3096 16.8397 11.6119ZM9.48467 10.9189V12.1348C9.48467 12.4662 9.21604 12.7348 8.88467 12.7348C8.5533 12.7348 8.28467 12.4662 8.28467 12.1348V10.9189C8.28467 10.5876 8.5533 10.3189 8.88467 10.3189C9.21604 10.3189 9.48467 10.5876 9.48467 10.9189ZM14.5722 10.3189C14.9036 10.3189 15.1722 10.5876 15.1722 10.9189V12.1348C15.1722 12.4662 14.9036 12.7348 14.5722 12.7348C14.2409 12.7348 13.9722 12.4662 13.9722 12.1348V10.9189C13.9722 10.5876 14.2409 10.3189 14.5722 10.3189Z" fill="black"/>
</svg>
