<svg width="24" height="24" viewBox="0 0 24 24" fill="none" xmlns="http://www.w3.org/2000/svg">
<path d="M12.1219 3C8.09238 3 4.65328 5.52643 3.40984 9.39725C3.23526 9.94041 3.11689 10.489 3.05369 11.0398L3.06921 10.9745L3.10538 11.0557L3.0521 11.0502L3.02613 11.3186C2.74693 14.8074 4.73213 18.2393 7.68186 19.8845C8.78515 20.5006 10.3142 20.986 12.1171 20.9969L12.133 21L12.4336 20.9978C15.0323 20.9264 17.4583 19.8114 19.4633 17.2179L19.5175 17.1425C19.6874 16.8959 19.6732 16.5659 19.4824 16.3342C19.2917 16.1026 18.9705 16.0255 18.6953 16.1452L18.4534 16.2532L17.7776 16.5072C17.3154 16.6607 16.6429 16.7568 15.9559 16.7568C15.2958 16.7568 14.6412 16.6711 14.1512 16.5237C13.2309 16.2467 12.6109 15.9781 11.8898 15.4215C11.1562 14.8552 10.5535 14.1097 10.1169 13.1467C9.79609 12.4399 9.81462 11.5229 10.2881 10.78C10.6219 10.2567 11.3173 9.89185 12.0065 9.89185C12.4343 9.89185 12.8478 10.0233 13.2119 10.2764C13.7184 10.6287 13.9727 11.0263 14.0723 11.5116C14.1436 11.8593 14.1183 12.2273 14.0366 12.544C14.005 12.6671 13.9703 12.7728 13.9329 12.8637C13.8822 12.9871 13.8446 13.054 13.7806 13.1392L13.6748 13.2748C13.4682 13.5511 13.504 13.9383 13.7572 14.1718C13.8105 14.2211 13.8666 14.2629 13.9345 14.305L14.0367 14.3688L14.193 14.4591C14.8504 14.8113 15.8853 15.052 16.8538 15.052C18.0087 15.052 18.9814 14.7344 19.8369 13.8781C20.6191 13.0951 20.982 12.0967 20.9997 11.0199C21.0117 10.2908 20.8773 9.62204 20.6728 9.03935C19.7154 6.31254 17.5739 3.87411 13.8679 3.16527C13.295 3.05546 12.7083 3 12.1219 3ZM3.62483 10.8905L3.59965 11.1123L3.62483 10.8905ZM8.47481 11.9968L8.60736 11.7768L8.47481 11.9968ZM8.64178 12.9156L8.67557 13.0709C8.73021 13.2923 8.80332 13.5044 8.89302 13.702C9.50933 15.0615 10.424 16.0772 11.5457 16.8087C12.299 17.3 12.939 17.5623 13.7639 17.8106C14.3965 18.0009 15.1618 18.1012 15.9559 18.1012L16.2899 18.0935C16.4008 18.0884 16.5112 18.0809 16.6216 18.0708L16.6552 18.0662L16.6107 18.102C15.5814 18.8932 14.4928 19.3597 13.3666 19.5536C11.3854 19.6915 9.46532 18.3829 8.67662 16.4288C8.21821 15.293 8.18788 14.0931 8.62398 12.9605L8.64178 12.9156ZM8.86894 7.92329C9.11577 7.92263 9.3654 7.93974 9.61697 7.97428L9.89863 8.0209C10.3679 8.11173 10.8352 8.26751 11.2813 8.47775L11.4982 8.586L11.3419 8.61198C10.8331 8.71125 10.3494 8.92275 9.93445 9.22983L9.75555 9.37224L9.45947 9.62085C7.1079 11.6513 6.42555 14.4448 7.42964 16.9325L7.5367 17.1823C7.79869 17.7596 8.14526 18.2965 8.56009 18.773L8.64821 18.8699L8.49074 18.7927L8.337 18.7107C5.81767 17.3056 4.09059 14.287 4.38487 11.291C5.36876 9.02254 6.94333 7.92926 8.86894 7.92329ZM14.7642 13.827L14.6127 13.7568L14.7642 13.827ZM12.1219 4.34434C12.6227 4.34434 13.126 4.39201 13.6156 4.48584C16.792 5.09339 18.5842 7.14832 19.4045 9.48449C19.5556 9.91522 19.6643 10.4573 19.6554 10.9977C19.6429 11.7608 19.4117 12.4017 18.8861 12.9278C18.2863 13.5282 17.7289 13.7077 16.8538 13.7077L16.6676 13.7024C16.2225 13.6779 15.7113 13.5719 15.3073 13.4414L15.1444 13.3849L15.2116 13.2561C15.2601 13.15 15.299 13.0338 15.3388 12.8789C15.47 12.3698 15.5077 11.8193 15.3891 11.2412C15.3482 11.0415 15.2824 10.8344 15.1943 10.6245C14.5139 8.6393 12.271 6.98198 9.80038 6.6428L9.55332 6.61375C8.31967 6.49307 7.11324 6.74073 6.04786 7.35524L5.8947 7.44713L5.94753 7.37614C7.3885 5.46554 9.6141 4.34434 12.1219 4.34434Z" fill="black"/>
</svg>
