<svg width="24" height="24" viewBox="0 0 24 24" fill="none" xmlns="http://www.w3.org/2000/svg">
<path d="M4.5 17V7C4.5 5.61929 5.61929 4.5 7 4.5H17C18.3807 4.5 19.5 5.61929 19.5 7V17C19.5 18.3807 18.3807 19.5 17 19.5H7C5.61929 19.5 4.5 18.3807 4.5 17ZM17 21C19.2091 21 21 19.2091 21 17V7C21 4.79086 19.2091 3 17 3H7C4.79086 3 3 4.79086 3 7V17C3 19.2091 4.79086 21 7 21H17ZM7.98711 15.5638H9.08711C9.19757 15.5638 9.28711 15.4742 9.28711 15.3638V9.78887C9.28711 9.67841 9.19757 9.58887 9.08711 9.58887H7.98711C7.87665 9.58887 7.78711 9.67841 7.78711 9.78887V15.3638C7.78711 15.4742 7.87665 15.5638 7.98711 15.5638ZM12.6035 12.3944C12.6035 11.6635 13.1955 11.0715 13.9264 11.0715C14.6573 11.0715 15.2493 11.6635 15.2493 12.3944V15.3639C15.2493 15.4743 15.3388 15.5639 15.4493 15.5639H16.5493C16.6597 15.5639 16.7493 15.4743 16.7493 15.3639V12.3944C16.7493 10.5002 15.9476 9.21462 13.9264 9.57153C13.3055 9.70962 12.8848 9.95903 12.5996 10.3006V9.78887C12.5996 9.67841 12.5101 9.58887 12.3996 9.58887H11.2996C11.1892 9.58887 11.0996 9.67841 11.0996 9.78887V15.3638C11.0996 15.4742 11.1892 15.5638 11.2996 15.5638H12.3996C12.5101 15.5638 12.5996 15.4742 12.5996 15.3638V12.4173L12.6035 12.3944ZM7.69924 8.3C7.69924 8.74089 8.05836 9.1 8.49924 9.1C8.94013 9.1 9.29924 8.74089 9.29924 8.3C9.29924 7.85556 8.94013 7.5 8.49569 7.5C8.0548 7.5 7.69569 7.85911 7.69924 8.3Z" fill="black"/>
</svg>
