<svg width="24" height="24" viewBox="0 0 24 24" fill="none" xmlns="http://www.w3.org/2000/svg">
<path d="M8.10318 14.0192C11.4607 10.5339 15.32 10.3281 19.6811 13.402C19.6825 13.403 19.6875 13.3924 19.6968 13.3723C19.7315 13.2979 19.8264 13.0937 20.0305 12.8705C20.24 12.6414 20.4519 12.5212 20.5223 12.4813C20.539 12.4718 20.5477 12.4668 20.5466 12.466C16.4084 9.33092 11.4169 9.33973 8.10318 13.1641C7.068 11.6663 6.00934 10.7249 4.9272 10.3399C4.0729 10.0359 3.09716 9.93583 2 10.0396C4.4523 9.98902 6.4867 11.3155 8.10318 14.0192ZM22 13.7838C22 13.3061 21.6128 12.9189 21.1352 12.9189C20.6575 12.9189 20.2703 13.3061 20.2703 13.7838C20.2703 14.2614 20.6575 14.6486 21.1352 14.6486C21.6128 14.6486 22 14.2614 22 13.7838Z" fill="black"/>
</svg>
