<svg width="24" height="24" viewBox="0 0 24 24" fill="none" xmlns="http://www.w3.org/2000/svg">
<path d="M6.6967 6.6967L6.6967 6.6967C7.43423 5.95917 8.28714 5.40736 9.19733 5.04126C10.0673 6.38869 10.8569 7.77272 11.566 9.1867C9.35599 10.0371 7.01192 10.4371 4.67437 10.3878C4.97073 9.03512 5.64484 7.74856 6.6967 6.6967ZM4.50089 11.884C7.11706 11.9579 9.74575 11.5115 12.2173 10.5429C12.4995 11.1571 12.7668 11.7765 13.0194 12.4004C10.4018 13.2035 8.01936 14.668 6.11955 16.6562C5.01452 15.2642 4.47496 13.5706 4.50089 11.884ZM5.4702 18.1938C5.50917 18.2551 5.55779 18.3117 5.61587 18.3615C5.63969 18.3818 5.66443 18.4005 5.68991 18.4174C9.20873 21.8786 14.8671 21.8608 18.3639 18.3639C19.8942 16.8337 20.7582 14.8894 20.956 12.8917C20.9671 12.8571 20.9759 12.8214 20.9821 12.7846C20.9959 12.7025 20.9959 12.6214 20.9837 12.5435C21.1328 10.0626 20.2596 7.5317 18.3639 5.63604C15.9161 3.18817 12.409 2.44515 9.31805 3.40698C9.28855 3.41436 9.25932 3.42359 9.23053 3.4347C7.91604 3.85855 6.67976 4.59232 5.63604 5.63604C2.1775 9.09456 2.12222 14.6676 5.4702 18.1938ZM10.7031 4.61233C12.7759 4.25033 14.9715 4.76329 16.6958 6.1512C15.5295 7.13518 14.268 7.94769 12.9442 8.58899C12.2684 7.23519 11.5213 5.90782 10.7031 4.61233ZM17.7695 7.20729C18.8776 8.53807 19.4535 10.1623 19.4973 11.7981C17.7939 11.606 16.1054 11.6917 14.4853 12.0254C14.2055 11.3252 13.9077 10.6305 13.592 9.942C15.0687 9.2273 16.4742 8.31587 17.7695 7.20729ZM19.3879 13.2955C19.1318 14.7633 18.4369 16.1696 17.3033 17.3033L18.3639 18.3639L17.3033 17.3033C17.0247 17.5819 16.7296 17.834 16.4212 18.0596C16.0391 16.5036 15.574 14.964 15.0262 13.4477C16.4399 13.1812 17.9081 13.1225 19.3879 13.2955ZM15.0675 18.8462C12.4946 19.9984 9.40542 19.6276 7.16475 17.7338C8.91777 15.8845 11.1293 14.5304 13.5598 13.8041C14.1646 15.459 14.6672 17.1428 15.0675 18.8462Z" fill="black"/>
</svg>
