<svg width="24" height="24" viewBox="0 0 24 24" fill="none" xmlns="http://www.w3.org/2000/svg">
<path d="M8 20.5C7.17157 20.5 6.5 19.8284 6.5 19V5C6.5 4.17157 7.17157 3.5 8 3.5H15C15.8284 3.5 16.5 4.17157 16.5 5V19C16.5 19.8284 15.8284 20.5 15 20.5H8ZM15 22C16.6569 22 18 20.6569 18 19V5C18 3.34315 16.6569 2 15 2H8C6.34315 2 5 3.34315 5 5V19C5 20.6569 6.34315 22 8 22H15ZM10.1053 10.2616L9.92361 11.2326C9.89163 11.4002 9.873 11.5727 9.87062 11.7489C9.86375 12.3024 10.0116 12.8198 10.2734 13.2602C9.48309 13.2191 8.8601 12.558 8.87041 11.7489C8.87966 11.0113 9.41201 10.396 10.1053 10.2616ZM11.7227 9.05133L11.7702 8.79731C11.7702 8.79731 12.0906 7.43229 10.7773 7.3501C10.6725 7.35062 10.6397 7.40377 10.6263 7.47541L10.3691 8.85046C10.0115 8.85528 9.66873 8.92549 9.35228 9.05133L9.39985 8.79731C9.39985 8.79731 9.72026 7.43229 8.4069 7.3501C8.30265 7.35049 8.26962 7.40324 8.25628 7.47424L7.55322 11.2326C7.52125 11.4002 7.50235 11.5727 7.50024 11.7489C7.48002 13.348 8.7507 14.6491 10.3328 14.6491C11.9153 14.6491 13.219 13.348 13.2394 11.7489C13.2448 11.3175 13.1386 11.0261 12.9499 10.856C12.6965 10.6278 12.2521 10.673 12.0385 10.9552C11.8633 11.1862 11.867 11.5259 11.8688 11.6935C11.8691 11.715 11.8693 11.7337 11.8691 11.7489C11.8647 12.0971 11.7426 12.4173 11.5434 12.6735C11.3505 12.4173 11.2366 12.0971 11.2409 11.7489C11.2515 10.9133 11.9329 10.2336 12.7595 10.2336C13.5862 10.2336 14.2502 10.9133 14.2397 11.7489C14.2327 12.2925 13.9418 12.7699 13.5117 13.0372L13.5058 13.0409C13.4727 13.0612 13.4012 13.105 13.3443 13.1665C13.2995 13.2149 13.2657 13.278 13.2466 13.3138L13.2386 13.3286C12.9842 13.7907 12.6252 14.1863 12.1953 14.4831C12.1708 14.5001 12.1271 14.5328 12.1409 14.5661C12.1535 14.5967 12.2237 14.6079 12.2544 14.6128C12.4005 14.6366 12.5505 14.6491 12.7035 14.6491C14.2856 14.6491 15.5895 13.348 15.6098 11.7489C15.6301 10.1498 14.3594 8.84864 12.7769 8.84864C12.4059 8.84864 12.0502 8.92106 11.7227 9.05133ZM10.5 17.5498C10.0858 17.5498 9.75 17.8856 9.75 18.2998C9.75 18.714 10.0858 19.0498 10.5 19.0498H12.5C12.9142 19.0498 13.25 18.714 13.25 18.2998C13.25 17.8856 12.9142 17.5498 12.5 17.5498H10.5Z" fill="black"/>
</svg>
