<svg width="24" height="24" viewBox="0 0 24 24" fill="none" xmlns="http://www.w3.org/2000/svg">
<path d="M17.4478 9.2683C17.4418 8.92498 17.4405 8.56396 17.4405 8.18373C17.4405 6.75242 16.8603 5.45648 15.9222 4.51837C15.0392 3.63544 13.8393 3.0695 12.5079 3.00598L12.2568 3C10.8255 3 9.52955 3.58026 8.59144 4.51837C7.65333 5.45648 7.07307 6.75242 7.07307 8.18373C7.07307 8.56486 7.07177 8.9267 7.06565 9.27079C7.05393 9.92999 7.0245 10.524 6.95254 11.0637L5.71791 10.1334C5.65984 10.0971 5.60022 10.0646 5.53937 10.0359C5.23293 9.8912 4.89548 9.84244 4.56949 9.88672C4.19643 9.9374 3.83844 10.1096 3.55941 10.3986C3.25807 10.7106 3.11664 11.1176 3.14893 11.5349C3.17793 11.9097 3.34903 12.302 3.70662 12.626L5.48976 13.9766C5.12271 14.2801 4.67306 14.5586 4.12575 14.8252C4.12117 14.8274 4.11658 14.8297 4.11198 14.8319C4.10372 14.8359 4.09544 14.8399 4.08713 14.8439C3.99377 14.8889 3.8976 14.9336 3.79855 14.978C3.76482 14.9931 3.73077 15.0081 3.69638 15.0232L3.29954 15.1969C2.90077 15.3714 2.89997 15.9368 3.29825 16.1124L3.6946 16.2872C3.72926 16.3025 3.76317 16.3175 3.79636 16.3321C3.90143 16.3785 3.99932 16.4219 4.09099 16.4632C4.10029 16.4674 4.10952 16.4716 4.11869 16.4757C5.31152 17.0152 5.43977 17.2037 6.70303 19.0611L6.73436 19.1071C8.07031 19.1071 8.9212 19.6009 9.68324 20.0432C9.70067 20.0533 9.71805 20.0634 9.73539 20.0734C10.5541 20.5481 11.3034 20.9479 12.2568 20.9479C13.2102 20.9479 13.9595 20.5481 14.7782 20.0734C14.7963 20.0629 14.8144 20.0524 14.8326 20.0419C15.5944 19.5998 16.4591 19.0979 18.4035 18.7115L18.4171 18.6826C19.1327 17.167 19.2056 17.0126 20.3948 16.4757C20.404 16.4715 20.4133 16.4674 20.4226 16.4632C20.5141 16.422 20.6121 16.3785 20.7174 16.332C20.7505 16.3174 20.7844 16.3025 20.819 16.2872L21.2154 16.1124C21.6137 15.9367 21.6129 15.3713 21.2141 15.1968L20.8172 15.0232C20.7828 15.0081 20.7488 14.9931 20.7151 14.978C20.626 14.9381 20.5392 14.8979 20.4547 14.8575C20.4453 14.853 20.4359 14.8485 20.4265 14.8439C20.4181 14.8399 20.4099 14.8359 20.4016 14.8319C19.8848 14.5812 19.4546 14.3198 19.0985 14.0372L20.7936 12.6159C21.1142 12.3169 21.2789 11.915 21.286 11.5105C21.2929 11.1144 21.1487 10.7157 20.8518 10.4083C20.5459 10.0915 20.1435 9.91986 19.7332 9.89816C19.4759 9.88456 19.2155 9.92991 18.9738 10.0354C18.8301 10.0981 18.693 10.182 18.5671 10.2874L17.5686 11.1237C17.4906 10.5676 17.4597 9.95316 17.4478 9.2683ZM19.5302 11.4374C19.5663 11.4072 19.6086 11.3937 19.654 11.3961C19.6994 11.3985 19.7401 11.4164 19.7728 11.4503C19.7793 11.457 19.7818 11.4618 19.7832 11.4655C19.785 11.4702 19.7864 11.4766 19.7862 11.4843C19.7861 11.4921 19.7844 11.4986 19.7824 11.5033C19.7816 11.5051 19.7806 11.5069 19.7795 11.5087L18.1347 12.8878C17.7894 13.1774 17.5925 13.6068 17.5986 14.0575C17.6047 14.5081 17.813 14.9321 18.1661 15.2122C18.3559 15.3629 18.5573 15.5052 18.7698 15.6406C18.5825 15.7657 18.4054 15.9063 18.2434 16.0696C17.8754 16.4405 17.6097 16.9056 17.3635 17.4053C15.678 17.8175 14.7989 18.3274 14.0593 18.7564L14.0258 18.7757C13.2017 19.2536 12.7666 19.4479 12.2568 19.4479C11.747 19.4479 11.3119 19.2536 10.4878 18.7757C10.4614 18.7605 10.4346 18.7449 10.4074 18.729C9.75758 18.3512 8.8532 17.8254 7.56344 17.6594C7.10142 16.9855 6.72344 16.4667 6.30552 16.0776C6.12421 15.9089 5.93765 15.766 5.74494 15.6398C5.9938 15.4812 6.22757 15.3129 6.44546 15.1328C6.7988 14.8407 6.99917 14.4031 6.98943 13.9447C6.97968 13.4864 6.76088 13.0577 6.39544 12.7809L4.68371 11.4844C4.66366 11.462 4.65466 11.4459 4.65085 11.4381C4.64962 11.4356 4.64862 11.4333 4.64782 11.4313C4.68318 11.3985 4.72533 11.3793 4.7714 11.3731C4.81284 11.3674 4.85415 11.373 4.89179 11.3891L6.04989 12.2617C6.47566 12.5825 7.03971 12.6532 7.53151 12.4475C8.0233 12.2417 8.36893 11.7904 8.43938 11.2619C8.56408 10.3267 8.57307 9.28195 8.57307 8.18373C8.57307 7.16628 8.98375 6.24738 9.6521 5.57903C10.3169 4.91426 11.2295 4.50441 12.2404 4.50004L12.4528 4.50509C13.3909 4.55398 14.2358 4.95336 14.8615 5.57903C15.5299 6.24738 15.9405 7.16628 15.9405 8.18373C15.9405 9.30713 15.9492 10.377 16.0831 11.332C16.1589 11.8718 16.5214 12.3281 17.0302 12.5238C17.539 12.7194 18.1139 12.6236 18.5318 12.2736L19.5302 11.4374Z" fill="black"/>
</svg>
