<svg width="24" height="24" viewBox="0 0 24 24" fill="none" xmlns="http://www.w3.org/2000/svg">
<path d="M17.1508 7C15.6531 7 14.3322 7.75684 13.5516 8.90892C12.7691 7.75684 11.4482 7 9.9506 7C8.45295 7 7.13207 7.75684 6.35102 8.90892C5.56852 7.75684 4.24765 7 2.75 7C2.33579 7 2 7.33579 2 7.75C2 8.16421 2.33579 8.5 2.75 8.5C4.32401 8.5 5.6 9.77599 5.6 11.35V16.75C5.6 17.1642 5.93579 17.5 6.35 17.5L6.45236 17.4932C6.81843 17.4435 7.10059 17.1297 7.10059 16.75V11.35C7.10059 9.77599 8.37657 8.5 9.9506 8.5C11.5246 8.5 12.8006 9.77599 12.8006 11.35V16.75C12.8006 17.1642 13.1364 17.5 13.5506 17.5L13.6526 17.4932C14.0186 17.4435 14.3008 17.1297 14.3008 16.75V11.35C14.3008 9.77599 15.5768 8.5 17.1508 8.5C18.7248 8.5 20.0008 9.77599 20.0008 11.35V16.75C20.0008 17.1642 20.3366 17.5 20.7508 17.5C21.165 17.5 21.5008 17.1642 21.5008 16.75V11.35C21.5008 8.94756 19.5532 7 17.1508 7Z" fill="black"/>
</svg>
