<svg width="24" height="24" viewBox="0 0 24 24" fill="none" xmlns="http://www.w3.org/2000/svg">
<path d="M5.99791 5.14194L6.01532 5.12956C7.07924 4.36121 8.63298 4.28872 9.77764 4.95285C10.0824 5.1297 10.4398 5.19359 10.787 5.1333C12.3239 4.86647 13.9474 5.12308 15.3028 5.86184L15.3028 5.86186L15.3106 5.86606C16.8325 6.68391 18.0325 8.09602 18.5877 9.72934L18.5877 9.72935L18.5901 9.73622C18.971 10.8393 19.0622 12.0496 18.8617 13.2149C18.8028 13.557 18.8644 13.9089 19.0359 14.2106C19.4551 14.9478 19.5996 15.8407 19.4314 16.6631L19.4313 16.6631L19.4288 16.6761C19.2526 17.5783 18.6863 18.4144 17.9078 18.9235L17.8914 18.9344C16.834 19.646 15.3351 19.692 14.2192 19.0459C13.9154 18.87 13.5595 18.8062 13.2135 18.8656C11.7341 19.1199 10.1797 18.8965 8.8625 18.2238L8.86252 18.2238L8.85385 18.2194C7.31297 17.445 6.07683 16.0662 5.47604 14.4502L5.47605 14.4502L5.47362 14.4437C5.04032 13.2944 4.9275 12.0139 5.13682 10.7825C5.19495 10.4405 5.13277 10.089 4.96088 9.78775C4.53574 9.04263 4.39611 8.13107 4.57801 7.29124L4.57804 7.29125L4.57988 7.28251C4.75875 6.43223 5.28142 5.64401 5.99791 5.14194ZM3.65803 10.5311C3.40602 12.0137 3.53903 13.5643 4.07006 14.9729C4.8031 16.9446 6.30118 18.6153 8.18028 19.5597C9.79637 20.385 11.6805 20.6511 13.4676 20.344C15.0726 21.2733 17.1888 21.2153 18.7288 20.1789C19.8409 19.4516 20.646 18.2692 20.901 16.9636C21.143 15.7802 20.936 14.5177 20.3399 13.4693C20.5819 12.0627 20.4739 10.5961 20.0079 9.24661C19.3299 7.25183 17.8748 5.54115 16.0207 4.54476C14.3596 3.63941 12.3915 3.33229 10.5304 3.65541C8.88032 2.69804 6.6872 2.79408 5.13711 3.91352C4.11206 4.6318 3.37002 5.74724 3.11201 6.97372C2.85199 8.17419 3.049 9.46369 3.65803 10.5311ZM10 9.9748C10 9.76877 10.0802 9.57091 10.3317 9.39109C10.6097 9.19233 11.1335 8.99902 12.0002 8.99902C12.5667 8.99902 13.0569 9.13068 13.4118 9.3205C13.7769 9.51578 13.9301 9.73104 13.9754 9.86313C14.1547 10.3855 14.7234 10.6637 15.2458 10.4845C15.7682 10.3053 16.0464 9.73653 15.8672 9.21413C15.6105 8.46587 15.0177 7.91133 14.355 7.5569C13.6821 7.197 12.8627 6.99902 12.0002 6.99902C10.8667 6.99902 9.89048 7.2479 9.16842 7.76416C8.41987 8.29937 8 9.0894 8 9.9748C8 11.3436 8.98961 12.5123 10.3398 12.7379L13.3325 13.2372C13.7131 13.3004 13.9942 13.6272 14.0002 14.0138C13.997 14.2154 13.9151 14.4089 13.6687 14.5851C13.3907 14.7839 12.8669 14.9772 12.0002 14.9772C11.4342 14.9772 10.944 14.8455 10.5888 14.6556C10.2234 14.4602 10.0701 14.2449 10.0249 14.1131C9.84567 13.5907 9.2769 13.3124 8.7545 13.4917C8.23211 13.6709 7.9539 14.2397 8.13312 14.7621C8.3899 15.5105 8.98318 16.065 9.64577 16.4193C10.3187 16.7791 11.138 16.9772 12.0002 16.9772C13.1336 16.9772 14.1098 16.7283 14.8319 16.212C15.5626 15.6896 15.9801 14.9243 15.9996 14.0646C16.0001 14.0519 16.0003 14.0392 16.0003 14.0264V14.0014C16.0003 13.9889 16.0001 13.9764 15.9996 13.964C15.9701 12.6226 14.9904 11.4853 13.66 11.2642L10.6685 10.7651C10.2829 10.7005 10 10.3665 10 9.9748Z" fill="black"/>
</svg>
