<svg width="24" height="24" viewBox="0 0 24 24" fill="none" xmlns="http://www.w3.org/2000/svg">
<path d="M11.9273 6.64073L13.6826 10.2525C13.0428 10.7373 12.629 11.5053 12.629 12.371C12.629 13.8384 13.8185 15.0279 15.2858 15.0279C16.7532 15.0279 17.9427 13.8384 17.9427 12.371C17.9427 12.3219 17.9413 12.273 17.9387 12.2244L19.6106 11.0914C19.8094 10.9567 20.0653 11.1524 19.9873 11.3795L17.6113 18.301C17.5766 18.402 17.4816 18.4698 17.3748 18.4698H6.11653C6.00974 18.4698 5.91474 18.402 5.88007 18.301L3.5193 11.424C3.44095 11.1957 3.69943 10.9999 3.89791 11.1371L5.47275 12.2258C5.47015 12.2739 5.46883 12.3223 5.46883 12.371C5.46883 13.8384 6.65834 15.0279 8.12567 15.0279C9.593 15.0279 10.7825 13.8384 10.7825 12.371C10.7825 11.4976 10.3613 10.7236 9.7118 10.2396L11.478 6.63988C11.5697 6.45298 11.8363 6.45349 11.9273 6.64073ZM10.1314 5.97914L7.66655 11.0027L8.48635 11.2713C8.94954 11.4231 9.2825 11.8591 9.2825 12.371C9.2825 13.0099 8.76457 13.5279 8.12567 13.5279C7.48676 13.5279 6.96883 13.0099 6.96883 12.371C6.96883 12.2657 6.98271 12.1648 7.00833 12.0695L7.14561 11.5587L4.75087 9.90326C3.36144 8.94279 1.55215 10.3134 2.10057 11.911L4.46134 18.788C4.70404 19.495 5.36902 19.9698 6.11653 19.9698H17.3748C18.1223 19.9698 18.7873 19.495 19.03 18.788L21.406 11.8666C21.9518 10.2768 20.1606 8.90676 18.7692 9.84966L16.2615 11.5489L16.4022 12.0661C16.4284 12.1624 16.4427 12.2645 16.4427 12.371C16.4427 13.0099 15.9247 13.5279 15.2858 13.5279C14.6469 13.5279 14.129 13.0099 14.129 12.371C14.129 11.8643 14.4553 11.4318 14.9114 11.2759L15.7143 11.0015L13.2764 5.98508C12.6395 4.67439 10.7733 4.67087 10.1314 5.97914Z" fill="black"/>
</svg>
