<svg width="24" height="24" viewBox="0 0 24 24" fill="none" xmlns="http://www.w3.org/2000/svg">
<path d="M1.65789 14.4798L11.3127 21.3592L11.4016 21.4141C11.6199 21.5288 11.8811 21.5284 12.0987 21.4141C12.1292 21.3981 12.159 21.3798 12.1876 21.3592L21.8424 14.4798C22.3995 14.0831 22.6371 13.3723 22.4213 12.7211C22.4186 12.713 22.4158 12.705 22.4129 12.6971L19.1185 3.7811C18.7587 2.7373 17.2656 2.73964 16.9109 3.78812L14.7498 9.94312H8.75046L6.5893 3.78812C6.23467 2.73964 4.7415 2.7373 4.38179 3.7811L1.08737 12.6971C1.08443 12.705 1.08162 12.713 1.07896 12.7211C0.863139 13.3723 1.10069 14.0831 1.65789 14.4798ZM2.50146 13.1978L5.47644 5.14636L10.2587 18.7664L2.52784 13.2578C2.50314 13.2402 2.49734 13.2164 2.50146 13.1978ZM9.27715 11.4431H14.2231L11.7501 18.4861L9.27715 11.4431ZM18.0238 5.14636L20.9988 13.1978C21.0029 13.2164 20.9971 13.2402 20.9724 13.2578L13.2415 18.7664L18.0238 5.14636Z" fill="black"/>
</svg>
