<svg width="24" height="24" viewBox="0 0 24 24" fill="none" xmlns="http://www.w3.org/2000/svg">
<path d="M11.9018 12.2976C12.1609 11.6214 11.8988 10.8486 11.2681 10.473L10.6889 10.1281L10.8748 10.1242C11.5455 10.1101 12.1253 9.65234 12.2946 9.00321C12.5301 8.10054 12.9115 7.24953 13.4549 6.45819C14.2919 5.24782 15.4758 4.34522 16.8868 3.8028C16.9228 3.78932 16.9585 3.77609 16.994 3.7631C16.9993 3.79607 17.0046 3.82928 17.0097 3.86273C17.1911 5.36812 16.9465 6.84953 16.2906 8.17407C15.8788 8.99646 15.2995 9.72732 14.5966 10.3957C14.1143 10.8543 13.9918 11.5759 14.2959 12.168L14.3731 12.3184L13.8099 11.983C13.1796 11.6076 12.3738 11.7444 11.9018 12.2976ZM10.5941 13.8696C10.6964 14.0816 10.9052 14.2075 11.1336 14.193C11.8891 14.1335 12.5953 13.8449 13.0424 13.2718L15.6646 14.8332L15.7891 14.9073L16.1535 15.1243L16.161 15.1287L16.4544 15.3035C16.6629 15.4294 16.9268 15.4154 17.1047 15.2424C17.3 15.0694 17.339 14.8066 17.2193 14.577L17.0693 14.285L17.0654 14.2774L16.8696 13.896L16.8022 13.7647L15.6302 11.4827C16.4307 10.7216 17.1276 9.85381 17.6334 8.84265C18.4282 7.23896 18.7167 5.45269 18.496 3.65899C18.432 3.23697 18.35 2.81442 18.2328 2.40933C18.1665 2.12765 17.8706 1.94748 17.5715 2.01374C17.1662 2.11359 16.7608 2.248 16.3547 2.40035C14.678 3.04358 13.2411 4.12925 12.2197 5.60706C11.5746 6.54607 11.1216 7.5577 10.8432 8.62455L8.25535 8.67906L8.12176 8.68188L7.7497 8.68971L7.70772 8.6906L7.34914 8.69815C7.10326 8.6947 6.89027 8.86717 6.83432 9.11231C6.7607 9.35694 6.86275 9.58662 7.08871 9.73017L7.33259 9.87539L7.37446 9.90032L7.7376 10.1166L7.85722 10.1878L10.5007 11.7619C10.1932 12.4246 10.2876 13.1803 10.5941 13.8696ZM8.2384 19.9163L8.44076 19.7617L8.56621 19.6659L9.04815 19.2979L9.15794 19.214L11.9644 17.0707L12.0787 16.9834L12.7664 16.4582L13.0456 16.245C13.2117 16.0832 13.1231 15.8014 12.895 15.7594C12.81 15.7438 12.7213 15.724 12.6296 15.7004C12.5784 15.6872 12.5263 15.6729 12.4734 15.6574C12.2597 15.595 12.0326 15.5143 11.7997 15.4191C11.7687 15.4064 11.7376 15.3935 11.7064 15.3804C11.0263 15.0932 10.3064 14.689 9.73595 14.2631C9.70376 14.2391 9.67204 14.215 9.64083 14.1909C9.43194 14.0292 9.2459 13.8652 9.09291 13.704C9.05617 13.6653 9.02134 13.6268 8.98856 13.5885C8.94065 13.5325 8.89711 13.477 8.85838 13.4223C8.71125 13.2143 8.37538 13.2625 8.31373 13.5097L8.27583 13.8343L8.17355 14.7104L8.15306 14.8859L7.74185 18.4081L7.72586 18.545L7.65496 19.1523L7.63778 19.2994L7.60806 19.5541C7.51597 19.9233 7.96575 20.1817 8.2384 19.9163ZM9.39987 17.1419L9.54 15.9415C9.66421 16.0186 9.78764 16.0918 9.90864 16.1607C10.0557 16.2445 10.2076 16.3268 10.3628 16.4065L9.39987 17.1419ZM15.4708 7.03627C15.4623 7.26653 15.2688 7.44633 15.0385 7.43787C14.8082 7.42941 14.6284 7.23588 14.6369 7.00562C14.6454 6.77536 14.8389 6.59556 15.0692 6.60402C15.2994 6.61249 15.4792 6.80601 15.4708 7.03627ZM16.4701 7.073C16.4988 6.29083 15.8881 5.63345 15.1059 5.6047C14.3237 5.57595 13.6663 6.18672 13.6376 6.96889C13.6088 7.75107 14.2196 8.40845 15.0018 8.4372C15.784 8.46595 16.4413 7.85517 16.4701 7.073ZM11.7134 3.86305C11.686 3.44974 11.3287 3.13693 10.9154 3.16437C7.84862 3.36793 4.93313 5.04925 3.27938 7.91362C1.10477 11.6802 1.79163 16.3116 4.66276 19.2947C4.85526 19.4947 5.14249 19.572 5.40938 19.4957C5.67627 19.4194 5.87917 19.2019 5.9368 18.9303L7.24721 12.7551C7.3332 12.3499 7.07443 11.9517 6.66924 11.8657C6.26404 11.7797 5.86587 12.0385 5.77989 12.4437L4.79924 17.0649C3.20602 14.6103 3.01551 11.3707 4.57842 8.66362C5.97141 6.25089 8.42611 4.8329 11.0147 4.66107C11.428 4.63364 11.7409 4.27635 11.7134 3.86305ZM20.5164 8.70766C20.3335 8.33601 19.884 8.18299 19.5123 8.36589C19.1407 8.54878 18.9876 8.99833 19.1705 9.36998C20.3161 11.6977 20.3154 14.5325 18.9224 16.9453C17.3595 19.6523 14.4586 21.1072 11.5362 20.9547L15.048 17.7948C15.3559 17.5177 15.381 17.0435 15.1039 16.7356C14.8268 16.4277 14.3526 16.4027 14.0447 16.6797L9.35199 20.9022C9.14563 21.0879 9.05871 21.3724 9.12605 21.6417C9.19339 21.911 9.40397 22.1211 9.67343 22.1878C13.6925 23.1827 18.0468 21.4618 20.2214 17.6953C21.8752 14.8309 21.8735 11.4653 20.5164 8.70766Z" fill="black"/>
</svg>
