<svg width="24" height="24" viewBox="0 0 24 24" fill="none" xmlns="http://www.w3.org/2000/svg">
<path d="M12 2C6.47715 2 2 6.47715 2 12C2 17.5228 6.47715 22 12 22C17.5228 22 22 17.5228 22 12C22 6.47715 17.5228 2 12 2ZM12 3.5C16.6944 3.5 20.5 7.30558 20.5 12C20.5 16.6944 16.6944 20.5 12 20.5C7.30558 20.5 3.5 16.6944 3.5 12C3.5 7.30558 7.30558 3.5 12 3.5ZM9.7004 12.1698H9C7.34316 12.1698 6 13.513 6 15.1698V15.4999C6 16.0522 6.44772 16.4999 7 16.4999H14.1398C14.6921 16.4999 15.1398 16.0522 15.1398 15.4999V15.1698C15.1398 13.513 13.7966 12.1698 12.1398 12.1698H11.4394L10.639 12.9347C10.6003 12.9716 10.5395 12.9716 10.5009 12.9347L9.7004 12.1698ZM12.041 13.669L12.1398 13.6698L12.2843 13.6767C12.9498 13.7403 13.4885 14.2388 13.6128 14.8848L13.628 14.999H7.51L7.52705 14.8848C7.66019 14.1927 8.26905 13.6698 9 13.6698L9.098 13.669L9.46451 14.0191C10.0829 14.6102 11.0569 14.6102 11.6753 14.0191L12.041 13.669ZM15.1447 9.78676L14.626 9.7866L14.5242 9.79345C14.1582 9.84311 13.876 10.1569 13.876 10.5366C13.876 10.9508 14.2118 11.2866 14.626 11.2866H15.129L15.1896 11.288L15.3076 11.2997C15.6962 11.3607 16.0322 11.6399 16.1841 12.0258L16.191 12.047L15.4173 12.0475L15.3155 12.0543C14.9495 12.104 14.6673 12.4178 14.6673 12.7975C14.6673 13.2117 15.0031 13.5475 15.4173 13.5475H16.4821L16.6116 13.541C17.2505 13.4762 17.75 12.9378 17.75 12.2817L17.7465 12.168C17.7434 12.11 17.7385 12.0619 17.7303 12.0145C17.5173 10.7763 16.4847 9.83962 15.2358 9.78882L15.1447 9.78676ZM10.5699 7.6001C9.42268 7.6001 8.49267 8.53011 8.49267 9.67733C8.49267 10.8246 9.42268 11.7546 10.5699 11.7546C11.7171 11.7546 12.6471 10.8246 12.6471 9.67733C12.6471 8.53011 11.7171 7.6001 10.5699 7.6001ZM10.5699 9.1001C10.8887 9.1001 11.1471 9.35853 11.1471 9.67733C11.1471 9.99613 10.8887 10.2546 10.5699 10.2546C10.2511 10.2546 9.99267 9.99613 9.99267 9.67733C9.99267 9.35853 10.2511 9.1001 10.5699 9.1001ZM14.1737 6.01505C13.2378 6.01505 12.478 6.77879 12.478 7.72232C12.478 8.66585 13.2378 9.4296 14.1737 9.4296C15.1096 9.4296 15.8694 8.66585 15.8694 7.72232C15.8694 6.77879 15.1096 6.01505 14.1737 6.01505ZM14.1737 7.51505C14.2794 7.51505 14.3694 7.60549 14.3694 7.72232C14.3694 7.83916 14.2794 7.9296 14.1737 7.9296C14.068 7.9296 13.978 7.83916 13.978 7.72232C13.978 7.60549 14.068 7.51505 14.1737 7.51505Z" fill="black"/>
</svg>
