<svg width="24" height="24" viewBox="0 0 24 24" fill="none" xmlns="http://www.w3.org/2000/svg">
<path d="M6.58333 14.6667C4.88046 14.6667 3.5 13.2862 3.5 11.5833C3.5 9.88046 4.88046 8.5 6.58333 8.5C8.28621 8.5 9.66667 9.88046 9.66667 11.5833C9.66667 13.2862 8.28621 14.6667 6.58333 14.6667ZM6.58333 16.1667C9.11464 16.1667 11.1667 14.1146 11.1667 11.5833C11.1667 9.05203 9.11464 7 6.58333 7C4.05203 7 2 9.05203 2 11.5833C2 14.1146 4.05203 16.1667 6.58333 16.1667ZM15.7502 13.6694C15.416 14.1468 15.0983 14.25 14.9167 14.25C14.7351 14.25 14.4173 14.1468 14.0831 13.6694C13.7523 13.1968 13.5 12.4639 13.5 11.5833C13.5 10.7028 13.7523 9.9699 14.0831 9.49725C14.4173 9.01986 14.7351 8.91667 14.9167 8.91667C15.0983 8.91667 15.416 9.01986 15.7502 9.49725C16.0811 9.9699 16.3333 10.7028 16.3333 11.5833C16.3333 12.4639 16.0811 13.1968 15.7502 13.6694ZM14.9167 15.75C16.5275 15.75 17.8333 13.8845 17.8333 11.5833C17.8333 9.28215 16.5275 7.41667 14.9167 7.41667C13.3058 7.41667 12 9.28215 12 11.5833C12 13.8845 13.3058 15.75 14.9167 15.75ZM20.5 11.5833C20.5 12.1467 20.4335 12.6458 20.3334 13.049C20.2332 12.6458 20.1667 12.1467 20.1667 11.5833C20.1667 11.02 20.2332 10.5208 20.3334 10.1177C20.4335 10.5208 20.5 11.02 20.5 11.5833ZM22 11.5833C22 9.51227 21.2538 7.83333 20.3334 7.83333C19.4129 7.83333 18.6667 9.51227 18.6667 11.5833C18.6667 13.6544 19.4129 15.3333 20.3334 15.3333C21.2538 15.3333 22 13.6544 22 11.5833Z" fill="black"/>
</svg>
