<svg width="24" height="24" viewBox="0 0 24 24" fill="none" xmlns="http://www.w3.org/2000/svg">
<path d="M3.5 11.7428C3.5 7.191 7.19309 3.5 11.75 3.5C12.2683 3.5 12.6875 3.91969 12.6875 4.43615C12.6875 4.95261 12.2683 5.3723 11.75 5.3723C8.22975 5.3723 5.375 8.22391 5.375 11.7428C5.375 15.2617 8.22975 18.1133 11.75 18.1133C12.2683 18.1133 12.6875 18.533 12.6875 19.0495C12.6875 19.5659 12.2683 19.9856 11.75 19.9856C7.19309 19.9856 3.5 16.2946 3.5 11.7428ZM11.75 6.8723C14.443 6.8723 16.625 9.05347 16.625 11.7428V19.0495V19.0658V19.0673L16.6258 19.0837L16.6343 19.2783L16.6361 19.2976C16.7544 20.5343 17.7956 21.5 19.0625 21.5C20.4081 21.5 21.5 20.4099 21.5 19.0638V19.0495V19.0475L21.5001 11.7428L21.4957 11.4512L21.4954 11.4398C21.3349 6.19839 17.0328 2 11.75 2C6.36579 2 2 6.36144 2 11.7428C2 17.1242 6.36579 21.4856 11.75 21.4856C13.0956 21.4856 14.1875 20.3955 14.1875 19.0495C14.1875 17.7035 13.0956 16.6133 11.75 16.6133C9.05705 16.6133 6.875 14.4322 6.875 11.7428C6.875 9.05347 9.05705 6.8723 11.75 6.8723ZM14.1149 3.84366C17.4389 4.83565 19.8828 7.86484 19.9959 11.4801L20 11.7485V16.8C19.7114 16.6797 19.3947 16.6133 19.0625 16.6133C18.7303 16.6133 18.4136 16.6797 18.125 16.8V11.7428C18.125 8.94961 16.3263 6.57686 13.8238 5.71699C14.0544 5.34491 14.1875 4.90613 14.1875 4.43615C14.1875 4.23178 14.1623 4.03331 14.1149 3.84366ZM19.0625 19.9856C18.5804 19.9856 18.1832 19.6219 18.1309 19.1557L18.1251 19.0342C18.1333 18.5248 18.5493 18.1133 19.0625 18.1133C19.5442 18.1133 19.9411 18.4764 19.994 18.942L19.9997 19.0734C19.987 19.5788 19.5728 19.9856 19.0625 19.9856Z" fill="#1A1A1A"/>
</svg>
