<svg width="24" height="24" viewBox="0 0 24 24" fill="none" xmlns="http://www.w3.org/2000/svg">
<path d="M4.5 7.27941C4.5 5.74439 5.74439 4.5 7.27941 4.5H13.3364C13.7506 4.5 14.0864 4.16421 14.0864 3.75C14.0864 3.33579 13.7506 3 13.3364 3H7.27941C4.91596 3 3 4.91596 3 7.27941V13.2206C3 13.6348 3.33579 13.9706 3.75 13.9706C4.16421 13.9706 4.5 13.6348 4.5 13.2206V7.27941ZM18.75 7.25C19.5784 7.25 20.25 7.92157 20.25 8.75V18.75C20.25 19.5784 19.5784 20.25 18.75 20.25H8.75C7.92157 20.25 7.25 19.5784 7.25 18.75V8.75C7.25 7.92157 7.92157 7.25 8.75 7.25H18.75ZM8.75 5.75C7.09315 5.75 5.75 7.09315 5.75 8.75V18.75C5.75 20.4069 7.09315 21.75 8.75 21.75H18.75C20.4069 21.75 21.75 20.4069 21.75 18.75V8.75C21.75 7.09315 20.4069 5.75 18.75 5.75H8.75ZM12.1954 17.25V12.6647C12.1954 12.095 12.6572 11.6331 13.227 11.6331H13.8593C14.0841 11.633 14.3051 11.6909 14.5011 11.801C15.132 12.1554 15.3561 12.9542 15.0016 13.5851C14.767 14.0028 14.4287 14.3224 13.9868 14.5438C13.8266 14.6241 13.7482 14.817 13.8284 14.9773L15.0773 17.4737C15.162 17.643 15.3351 17.75 15.5245 17.75H16.8105C17.1948 17.75 17.4355 17.3344 17.2441 17.0011L16.3225 15.3955C16.6692 14.9914 17.0302 14.359 17.4054 13.4983C17.5526 13.1607 17.6285 12.7964 17.6285 12.4281C17.6285 10.949 16.4295 9.75002 14.9505 9.75H11.8133C10.6738 9.75 9.75 10.6738 9.75 11.8133V17.25C9.75 17.5261 9.97386 17.75 10.25 17.75H11.6954C11.9715 17.75 12.1954 17.5261 12.1954 17.25Z" fill="black"/>
</svg>
