<svg width="24" height="24" viewBox="0 0 24 24" fill="none" xmlns="http://www.w3.org/2000/svg">
<path d="M18.1766 17.7892C16.251 17.9219 13.8461 18.0556 12 18.0556C10.1539 18.0556 7.74903 17.9219 5.82339 17.7892C4.67233 17.7099 3.7819 16.8328 3.68976 15.7256C3.5861 14.4798 3.5 13.056 3.5 11.7778C3.5 10.4995 3.5861 9.07573 3.68976 7.82999C3.7819 6.72276 4.67233 5.84567 5.82338 5.76636C7.74903 5.63367 10.1539 5.5 12 5.5C13.8461 5.5 16.251 5.63367 18.1766 5.76636C19.3277 5.84567 20.2181 6.72276 20.3102 7.82999C20.4139 9.07573 20.5 10.4995 20.5 11.7778C20.5 13.056 20.4139 14.4798 20.3102 15.7256C20.2181 16.8328 19.3277 17.7099 18.1766 17.7892ZM2.19493 7.7056C2.08964 8.97088 2 10.4407 2 11.7778C2 13.1149 2.08964 14.5847 2.19493 15.85C2.35027 17.7167 3.85155 19.1569 5.72027 19.2857C7.65164 19.4187 10.0995 19.5556 12 19.5556C13.9005 19.5556 16.3484 19.4187 18.2797 19.2857C20.1484 19.1569 21.6497 17.7167 21.8051 15.85C21.9104 14.5847 22 13.1149 22 11.7778C22 10.4407 21.9104 8.97088 21.8051 7.7056C21.6497 5.8389 20.1484 4.39867 18.2797 4.2699C16.3484 4.13683 13.9005 4 12 4C10.0995 4 7.65164 4.13683 5.72027 4.2699C3.85155 4.39867 2.35027 5.8389 2.19493 7.7056ZM11.2773 10.5002L13.4671 11.7775L11.2773 13.0549V10.5002ZM9.77734 13.9254C9.77734 14.6972 10.6146 15.178 11.2812 14.7892L14.9632 12.6413C15.6248 12.2554 15.6248 11.2996 14.9632 10.9138L11.2812 8.7659C10.6146 8.37702 9.77734 8.85789 9.77734 9.62968V13.9254Z" fill="black"/>
</svg>
