<svg width="24" height="24" viewBox="0 0 24 24" fill="none" xmlns="http://www.w3.org/2000/svg">
<path d="M4.91881 16.8378L17.38 6.83768L19.5334 16.2755L11.7834 20.4376C11.6325 20.5186 11.4506 20.5168 11.3014 20.4327L4.91881 16.8378ZM20.5787 17.4167C20.9753 17.2038 21.1807 16.7521 21.0805 16.3133L18.8424 6.50402C18.5961 5.42435 17.3049 4.9747 16.4412 5.66781L3.40334 16.1307C2.85121 16.5737 2.92165 17.4345 3.53847 17.7819L10.5653 21.7397C11.1622 22.0758 11.8896 22.0832 12.4931 21.7591L20.5787 17.4167Z" fill="black"/>
<path d="M11.6853 5.70532L13.0956 8.23397C13.2974 8.59572 13.7542 8.72542 14.116 8.52366C14.4777 8.32189 14.6074 7.86507 14.4057 7.50332L12.7879 4.60271C12.323 3.7693 11.1335 3.7431 10.6324 4.55522L3.19574 16.6081C2.97824 16.9606 3.08768 17.4227 3.4402 17.6402C3.79271 17.8577 4.2548 17.7482 4.4723 17.3957L11.6853 5.70532Z" fill="black"/>
<path d="M5.46469 4.02984L8.11415 8.26632C8.33378 8.61752 8.79652 8.72417 9.14771 8.50453C9.4989 8.2849 9.60555 7.82216 9.38592 7.47097L6.3326 2.5887C5.69255 1.56526 4.11729 1.95365 4.02634 3.15732L3.00217 16.7121C2.97096 17.1252 3.28049 17.4853 3.69353 17.5165C4.10656 17.5477 4.4667 17.2382 4.4979 16.8252L5.46469 4.02984Z" fill="black"/>
</svg>
