<svg width="24" height="24" viewBox="0 0 24 24" fill="none" xmlns="http://www.w3.org/2000/svg">
<path d="M9.87895 2L9.72997 2.00692C9.15394 2.06046 8.81656 2.41947 8.72259 2.9189L8.19601 5.73254L8.09968 5.74075C7.863 5.76552 7.62842 5.80097 7.39647 5.84692L7.25301 5.87854L7.26759 5.6617C7.28571 5.22477 7.24777 4.77496 7.12927 4.33372C6.76885 2.99168 5.7418 2.10692 4.03336 2C3.36908 2.00084 2.97948 2.3761 2.87796 2.91612L1.14404 12.1851L1.08491 12.5352C1.0334 12.8855 1.00485 13.2367 1.00065 13.5874C0.945536 17.9466 4.41461 21.4985 8.73597 21.4985L8.98403 21.4946C9.8903 21.466 10.7599 21.2814 11.567 20.9665L11.746 20.8925L11.9445 20.9609C17.3173 22.7078 22.4349 18.6731 22.4993 13.606C22.5548 9.24617 19.0856 5.69408 14.7634 5.69408L14.3925 5.70293C14.0227 5.72062 13.6564 5.76469 13.2955 5.8343L13.098 5.87654L13.1132 5.6617C13.1313 5.22477 13.0934 4.77496 12.9749 4.33372C12.6145 2.99168 11.5874 2.10692 9.87895 2ZM10.133 3.53054L10.1872 3.53945C10.9539 3.67397 11.3536 4.08006 11.5262 4.72278C11.6321 5.11719 11.6377 5.56097 11.5805 5.97112C11.5773 5.99367 11.5743 6.0144 11.5713 6.03317L11.1758 8.14389L12.4407 7.64082L12.7197 7.53728C13.3756 7.31119 14.0633 7.19408 14.7634 7.19408C18.246 7.19408 21.0444 10.0593 20.9995 13.5869L20.9932 13.797C20.8249 17.3557 17.5526 20.2412 13.7909 19.8321L13.59 19.8065L13.811 19.6268C14.3034 19.2096 14.7455 18.7333 15.126 18.2085C17.416 18.0061 19.1208 16.0964 19.1208 13.5964C19.1208 10.9668 17.2391 9.10949 14.7204 9.10949C12.2694 9.10949 10.2567 11.1177 10.2256 13.587C10.2149 14.4348 10.4417 15.2505 10.8723 15.9591L10.7876 15.8093C10.3041 16.2716 9.72663 16.4943 9.02374 16.5555L9.15724 16.8073C8.61467 15.8418 8.33196 14.7463 8.34612 13.6057C8.35125 13.2259 8.39089 12.8446 8.46357 12.4635L9.11494 8.9823L8.0321 9.19227C5.95179 9.59566 4.40662 11.434 4.37962 13.587C4.3512 15.8179 5.95756 17.6961 8.11628 18.0279L8.33819 18.0563C8.42465 18.0645 8.50914 18.0597 8.58973 18.0434L8.58934 18.0734L8.8244 18.0695C10.3772 18.017 11.645 17.4305 12.5681 15.975L12.568 15.9752L12.6871 15.7765C12.8011 15.575 12.8998 15.3649 12.9821 15.1481C13.1845 14.6143 13.3613 13.9504 13.3613 13.5964L13.3796 13.1363C13.3865 12.7046 13.369 12.2495 13.3145 11.808C13.2809 11.5365 13.2346 11.2839 13.1717 11.0519C13.6252 10.7714 14.156 10.6095 14.7204 10.6095C14.7547 10.6095 14.7888 10.61 14.823 10.6117C14.8571 10.7205 14.8928 10.8762 14.9277 11.0637L14.9796 11.3715L15.0283 11.7165L15.0717 12.0869L15.108 12.4709L15.135 12.8568C15.1386 12.9207 15.1418 12.9841 15.1445 13.0468L15.1542 13.4133L15.1539 13.587C15.1089 17.122 12.2261 19.9985 8.73597 19.9985C5.25416 19.9985 2.45594 17.1335 2.50053 13.6059L2.5105 13.322C2.52701 13.0375 2.56308 12.7514 2.61798 12.4635L4.28901 3.53154L4.34104 3.53945C5.10827 3.67397 5.50799 4.08006 5.6806 4.72278C5.78653 5.1172 5.79213 5.56098 5.73489 5.97113L5.7257 6.03318L5.33018 8.14378L6.59503 7.64084L6.90101 7.52834C7.51858 7.31944 8.16891 7.20749 8.83568 7.1985L9.44989 7.19022L10.133 3.53054ZM16.4651 11.1375C17.1833 11.652 17.6208 12.5142 17.6208 13.5964C17.6208 14.8545 17.0296 15.8622 16.1252 16.3682C16.4551 15.5082 16.6414 14.5773 16.6537 13.606C16.6639 12.7982 16.6037 11.9211 16.4693 11.1621L16.4651 11.1375ZM7.18301 11.1475L6.98964 12.1851C6.90129 12.6483 6.85258 13.1168 6.84624 13.5863L6.8495 13.9368C6.87121 14.6354 6.98376 15.3189 7.18142 15.9735L7.23201 16.1275C6.40375 15.5991 5.86602 14.6639 5.8795 13.606C5.89154 12.646 6.35607 11.7781 7.07447 11.2266L7.18301 11.1475ZM11.8772 12.6978C11.8839 12.9335 11.8812 13.1679 11.8716 13.39L11.8578 13.6113C11.8509 13.6663 11.8379 13.7359 11.8203 13.8146L11.7553 14.0681C11.7336 13.9166 11.7235 13.7622 11.7254 13.6059C11.7292 13.3109 11.7752 13.0258 11.8576 12.7563L11.8772 12.6978Z" fill="black"/>
</svg>
