<svg width="24" height="24" viewBox="0 0 24 24" fill="none" xmlns="http://www.w3.org/2000/svg">
<path d="M14 3.5C14.3318 3.5 14.6 3.76821 14.6 4.1V8.6C14.6 8.93179 14.3318 9.2 14 9.2C13.6682 9.2 13.4 8.93179 13.4 8.6V4.1C13.4 3.76821 13.6682 3.5 14 3.5ZM14 2C12.8398 2 11.9 2.93979 11.9 4.1V8.6C11.9 9.76021 12.8398 10.7 14 10.7C15.1602 10.7 16.1 9.76021 16.1 8.6V4.1C16.1 2.93979 15.1602 2 14 2ZM14.3 13.9999C14.3 13.6681 14.5682 13.3999 14.9 13.3999H19.4C19.7318 13.3999 20 13.6681 20 13.9999C20 14.3317 19.7318 14.5999 19.4 14.5999H14.9C14.5682 14.5999 14.3 14.3317 14.3 13.9999ZM14.9 11.8999C13.7398 11.8999 12.8 12.8397 12.8 13.9999C12.8 15.1601 13.7398 16.0999 14.9 16.0999H19.4C20.5602 16.0999 21.5 15.1601 21.5 13.9999C21.5 12.8397 20.5602 11.8999 19.4 11.8999H14.9ZM13.55 17.3C13.1358 17.3 12.8 17.6358 12.8 18.05V19.4C12.8 20.5603 13.7398 21.5 14.9 21.5C16.0602 21.5 17 20.5603 17 19.4C17 18.2398 16.0602 17.3 14.9 17.3H13.55ZM14.3 19.4V18.8H14.9C15.2318 18.8 15.5 19.0683 15.5 19.4C15.5 19.7318 15.2318 20 14.9 20C14.5682 20 14.3 19.7318 14.3 19.4ZM18.8 8.6C18.8 8.26821 19.0682 8 19.4 8C19.7318 8 20 8.26821 20 8.6C20 8.93179 19.7318 9.2 19.4 9.2H18.8V8.6ZM19.4 6.5C18.2398 6.5 17.3 7.43979 17.3 8.6V9.95C17.3 10.3642 17.6358 10.7 18.05 10.7H19.4C20.5602 10.7 21.5 9.76021 21.5 8.6C21.5 7.43979 20.5602 6.5 19.4 6.5ZM4.1 8.8999H8.6C8.93179 8.8999 9.2 9.16812 9.2 9.4999C9.2 9.83169 8.93179 10.0999 8.6 10.0999H4.1C3.76821 10.0999 3.5 9.83169 3.5 9.4999C3.5 9.16812 3.76821 8.8999 4.1 8.8999ZM2 9.4999C2 10.6601 2.93979 11.5999 4.1 11.5999H8.6C9.76021 11.5999 10.7 10.6601 10.7 9.4999C10.7 8.33969 9.76021 7.3999 8.6 7.3999H4.1C2.93979 7.3999 2 8.33969 2 9.4999ZM9.20001 4.1V4.7H8.60001C8.26822 4.7 8.00001 4.43179 8.00001 4.1C8.00001 3.76821 8.26823 3.5 8.60001 3.5C8.9318 3.5 9.20001 3.76821 9.20001 4.1ZM8.60001 2C7.4398 2 6.50001 2.93979 6.50001 4.1C6.50001 5.26021 7.4398 6.2 8.60001 6.2H9.95001C10.3642 6.2 10.7 5.86421 10.7 5.45V4.1C10.7 2.93979 9.76023 2 8.60001 2ZM9.50002 14.3C9.83181 14.3 10.1 14.5683 10.1 14.9V19.4C10.1 19.7318 9.83181 20 9.50002 20C9.16824 20 8.90002 19.7318 8.90002 19.4V14.9C8.90002 14.5683 9.16824 14.3 9.50002 14.3ZM7.40002 14.9V19.4C7.40002 20.5603 8.33981 21.5 9.50002 21.5C10.6602 21.5 11.6 20.5603 11.6 19.4V14.9C11.6 13.7398 10.6602 12.8 9.50002 12.8C8.33981 12.8 7.40002 13.7398 7.40002 14.9ZM5.75 12.8999H4.4C3.23979 12.8999 2.3 13.8397 2.3 14.9999C2.3 16.1601 3.23979 17.0999 4.4 17.0999C5.56021 17.0999 6.5 16.1601 6.5 14.9999V13.6499C6.5 13.2357 6.16421 12.8999 5.75 12.8999ZM5 14.9999C5 15.3317 4.73179 15.5999 4.4 15.5999C4.06821 15.5999 3.8 15.3317 3.8 14.9999C3.8 14.6681 4.06821 14.3999 4.4 14.3999H5V14.9999Z" fill="black"/>
</svg>
