<svg width="24" height="24" viewBox="0 0 24 24" fill="none" xmlns="http://www.w3.org/2000/svg">
<path d="M4.5 14.2746V8.5H13.2166C14.2954 8.5 15.17 9.37458 15.17 10.4534V16.228H6.45343C5.37458 16.228 4.5 15.3535 4.5 14.2746ZM13.2166 7H4.27232C3.56964 7 3 7.56964 3 8.27232V14.2746C3 16.1819 4.54615 17.728 6.45343 17.728H15.3977C16.1004 17.728 16.67 17.1584 16.67 16.4557V15.3075L19.1822 16.8347C19.3036 16.9085 19.4431 16.9475 19.5852 16.9475C20.0137 16.9475 20.3611 16.6002 20.3611 16.1717V8.77595C20.3611 8.62504 20.3171 8.47741 20.2344 8.35114C19.9998 7.99258 19.5189 7.89211 19.1604 8.12672L16.6077 9.79703C16.3011 8.20367 14.8994 7 13.2166 7ZM16.8516 13.6624V11.43L18.8611 10.1152V14.884L16.8516 13.6624Z" fill="black"/>
</svg>
