<svg width="24" height="24" viewBox="0 0 24 24" fill="none" xmlns="http://www.w3.org/2000/svg">
<path d="M21.4872 5.77469C21.6392 4.61049 20.4825 3.67467 19.3573 4.10782L2.83251 10.4813L2.70519 10.5376C1.68872 11.0487 1.78257 12.582 2.91265 12.9354L6.87798 14.172L8.22863 18.6181L8.27343 18.7453C8.65505 19.6916 9.89218 19.97 10.6429 19.2401L12.385 17.544L15.9583 20.1845L16.0757 20.2643C17.0689 20.8823 18.4026 20.3345 18.652 19.1622L21.4649 5.90493L21.4872 5.77469ZM8.19835 13.3574C8.15822 13.2253 8.08491 13.1124 7.9851 13.0208C7.97645 13.0128 7.96758 13.0051 7.95836 12.9971C7.94112 12.9829 7.9233 12.9695 7.90508 12.957C7.89674 12.9512 7.88826 12.9456 7.87914 12.94C7.85917 12.9275 7.83862 12.9159 7.81786 12.9052C7.78122 12.8866 7.74257 12.8709 7.70208 12.8583L7.77501 12.8856C7.76021 12.8792 7.74517 12.8734 7.72997 12.868L7.70208 12.8583L3.90606 11.6742L19.8967 5.5075L19.9298 5.50255C19.9728 5.50593 20.0076 5.54661 19.9977 5.59331L17.1848 18.8505L17.1662 18.9034C17.1087 19.0169 16.9587 19.0586 16.8497 18.9781L12.7779 15.9694C12.774 15.9663 12.77 15.9633 12.766 15.9603L11.1217 14.7465L11.0838 14.7067C11.0449 14.6473 11.0524 14.567 11.108 14.5168L15.28 10.7517C15.5875 10.4742 15.6119 9.99993 15.3344 9.6924C15.0569 9.38487 14.5827 9.36051 14.2751 9.63799L10.1031 13.4031C9.32799 14.102 9.3911 15.3343 10.2311 15.9534L11.162 16.641L9.64458 18.1187L8.19835 13.3574Z" fill="black"/>
</svg>
