<svg width="24" height="24" viewBox="0 0 24 24" fill="none" xmlns="http://www.w3.org/2000/svg">
<path d="M11.75 3.5C13.7995 3.5 16.1071 4.3615 17.7829 6.20382C19.0514 7.5998 20 9.57557 20 12.1012C20 14.0002 19.353 15.7984 18.3723 17.1349C17.5339 18.2777 16.4057 19.0665 15.4776 19.5713C15.4614 19.386 15.4334 19.1522 15.3849 18.8869C15.3127 18.4911 15.1927 18.0122 14.9912 17.5144C16.9196 16.8766 18.269 14.935 18.269 12.709C18.269 11.804 17.9596 10.9728 17.4534 10.2638L17.4077 8.5364C17.4077 8.53651 17.4077 8.53629 17.4077 8.5364C17.3817 7.54233 16.3944 6.82765 15.433 7.18144C15.433 7.18144 15.433 7.18145 15.433 7.18144L13.571 7.86661C12.9938 7.73682 12.3833 7.66471 11.75 7.66471C11.1166 7.66471 10.5062 7.73685 9.92949 7.86579L8.06701 7.18042C8.06701 7.18042 8.067 7.18042 8.06701 7.18042C7.10562 6.82663 6.11831 7.54163 6.09225 8.53571C6.09225 8.5356 6.09225 8.53581 6.09225 8.53571L6.0466 10.2635C5.5393 10.9731 5.231 11.8045 5.231 12.709C5.231 14.935 6.58039 16.8766 8.50876 17.5144C8.30726 18.0122 8.1873 18.4911 8.11506 18.8869C8.06664 19.1522 8.03861 19.386 8.02237 19.5713C7.09431 19.0665 5.9661 18.2776 5.12768 17.1349C4.14704 15.7985 3.5 13.9992 3.5 12.1012C3.5 9.57573 4.44844 7.60004 5.71683 6.20407C7.39265 4.36158 9.70042 3.5 11.75 3.5ZM14 20.0078L14 20.75C14 21.0006 14.1252 21.2346 14.3336 21.3738C14.542 21.5129 14.8061 21.5388 15.0375 21.4427C16.0943 21.004 18.1573 19.9637 19.5817 18.0223C20.745 16.4369 21.5 14.3297 21.5 12.1012C21.5 9.17398 20.3923 6.84496 18.8928 5.19479C16.9146 3.01987 14.1944 2 11.75 2C9.30558 2 6.58512 3.02012 4.60693 5.19505C3.10745 6.84522 2 9.17398 2 12.1012C2 14.3286 2.75496 16.4368 3.91831 18.0223C5.34271 19.9637 7.40566 21.004 8.46245 21.4427C8.69389 21.5388 8.95803 21.5129 9.16644 21.3738C9.37485 21.2346 9.5 21.0006 9.5 20.75L9.50004 20.021L9.49998 20.0151L9.50001 20.0078C9.50007 20 9.50024 19.9863 9.50074 19.9674C9.50176 19.9294 9.50409 19.8703 9.50944 19.7936C9.52019 19.6398 9.54291 19.4179 9.59069 19.1562C9.68743 18.6261 9.88065 17.9673 10.256 17.3797C10.3984 17.1568 10.4129 16.8755 10.2942 16.6392C10.1754 16.4029 9.94103 16.2466 9.67725 16.2278C8.09175 16.1149 6.731 14.6484 6.731 12.709C6.731 12.1049 6.95448 11.5204 7.3766 10.9905C7.47816 10.863 7.53543 10.7059 7.53974 10.543L7.59098 8.60359L9.62399 9.35171C9.76607 9.40399 9.92065 9.41205 10.0674 9.37483C10.5956 9.24086 11.1607 9.16471 11.75 9.16471C12.3393 9.16471 12.904 9.24085 13.4314 9.37554C13.5785 9.41311 13.7335 9.40515 13.876 9.35272L15.909 8.6046L15.9603 10.543C15.9646 10.7057 16.0217 10.8626 16.123 10.99C16.5449 11.5206 16.769 12.1054 16.769 12.709C16.769 14.6484 15.4083 16.1149 13.8227 16.2278C13.559 16.2466 13.3246 16.4029 13.2058 16.6392C13.0871 16.8755 13.1016 17.1568 13.244 17.3797C13.6193 17.9673 13.8126 18.6261 13.9093 19.1562C13.9571 19.4179 13.9798 19.6398 13.9906 19.7936C13.9959 19.8703 13.9982 19.9294 13.9993 19.9674C13.9998 19.9863 13.9999 20 14 20.0078ZM15.951 8.58915C15.951 8.58915 15.951 8.58915 15.951 8.58915Z" fill="black"/>
</svg>
