<svg width="24" height="24" viewBox="0 0 24 24" fill="none" xmlns="http://www.w3.org/2000/svg">
<path d="M18.5 5V18.4C18.5 19.1565 18.1 19.8195 17.5 20.1892V5C17.5 4.72386 17.7239 4.5 18 4.5C18.2761 4.5 18.5 4.72386 18.5 5ZM16 5V21.6C16 21.8209 16.1791 22 16.4 22C18.3882 22 20 20.3882 20 18.4V5C20 3.89543 19.1046 3 18 3C16.8954 3 16 3.89543 16 5ZM12.5 18.4C12.5 19.1565 12.1 19.8195 11.5 20.1892V10C11.5 9.72386 11.7239 9.5 12 9.5C12.2761 9.5 12.5 9.72386 12.5 10V18.4ZM12 8C10.8954 8 10 8.89543 10 10V21.6C10 21.8209 10.1791 22 10.4 22C12.3882 22 14 20.3882 14 18.4V10C14 8.89543 13.1046 8 12 8ZM6.5 18.4C6.5 19.1565 6.10002 19.8195 5.5 20.1892V16C5.5 15.7239 5.72386 15.5 6 15.5C6.27614 15.5 6.5 15.7239 6.5 16V18.4ZM6 14C4.89543 14 4 14.8954 4 16V21.6C4 21.8209 4.17909 22 4.4 22C6.38823 22 8 20.3882 8 18.4V16C8 14.8954 7.10457 14 6 14Z" fill="black"/>
</svg>
