<svg width="24" height="24" viewBox="0 0 24 24" fill="none" xmlns="http://www.w3.org/2000/svg">
<path d="M13.4645 5.47681C13.6133 4.81362 14.2639 4.39125 14.9303 4.52503L16.9151 4.9228C16.9636 5.00767 17.0242 5.08762 17.0967 5.16021C17.5367 5.60013 18.2489 5.5978 18.6876 5.16002L18.6894 5.15819L18.691 5.15658C19.1283 4.71543 19.1244 4.00556 18.6874 3.56854L18.6856 3.56674C18.289 3.17287 17.6694 3.13286 17.229 3.45587L15.2251 3.05427C13.7595 2.7602 12.3281 3.68985 12.0009 5.14854L11.5001 7.3817C9.4733 7.47791 7.6297 8.05547 6.18224 8.96132C5.08659 8.33167 3.66402 8.50711 2.75926 9.46847C1.70097 10.5926 1.75636 12.3601 2.87932 13.4175L2.8809 13.4189C2.94086 13.4751 3.00237 13.5263 3.06425 13.5732C3.05673 13.6719 3.05247 13.7727 3.05247 13.8754C3.05247 15.7359 4.15169 17.38 5.78066 18.5276C7.41539 19.6792 9.64526 20.3844 12.1035 20.3844C14.5617 20.3844 16.7915 19.6792 18.4263 18.5276C20.0552 17.38 21.1545 15.7359 21.1545 13.8754C21.1545 13.7726 21.1502 13.6716 21.1427 13.5727C21.2051 13.5253 21.2671 13.4735 21.3273 13.4168C22.4509 12.3601 22.5056 10.591 21.4473 9.46712C20.5421 8.50635 19.1197 8.33041 18.0243 8.96032C16.655 8.10412 14.9311 7.54109 13.0329 7.40143L13.4645 5.47681ZM6.60428 10.4831C7.95802 9.51318 9.88493 8.87175 12.0813 8.86745C12.0967 8.86793 12.1121 8.86793 12.1274 8.86746C14.323 8.87208 16.2494 9.51343 17.6029 10.4823C17.8905 10.6881 18.2827 10.6651 18.5443 10.4271C19.0658 9.95245 19.8711 9.98174 20.3554 10.4956C20.8452 11.0157 20.8193 11.8354 20.299 12.3247C20.232 12.3879 20.1369 12.451 19.9974 12.522C19.7032 12.6717 19.5414 12.9961 19.5989 13.3211C19.6342 13.5201 19.6545 13.702 19.6545 13.8754C19.6545 15.107 18.9237 16.3423 17.5624 17.3013C16.2069 18.2562 14.2863 18.8844 12.1035 18.8844C9.92067 18.8844 8.00005 18.2562 6.64452 17.3013C5.28324 16.3423 4.55247 15.107 4.55247 13.8754C4.55247 13.702 4.57279 13.5202 4.60789 13.3227C4.66548 12.9988 4.50521 12.6751 4.21266 12.5246C4.07064 12.4515 3.97556 12.3888 3.90679 12.3246C3.38661 11.834 3.36241 11.016 3.85168 10.4964C4.33455 9.98322 5.13991 9.95294 5.663 10.4284C5.92464 10.6662 6.31686 10.689 6.60428 10.4831Z" fill="black"/>
<path d="M8.8408 11.7776C8.29055 11.7776 7.83925 12.2241 7.84181 12.7803C7.84327 13.3313 8.2905 13.7776 8.8418 13.7776C9.39402 13.7776 9.8418 13.3298 9.8418 12.7776C9.8418 12.2234 9.39207 11.7776 8.8408 11.7776Z" fill="black"/>
<path d="M9.07841 15.083C8.68945 14.9406 8.25868 15.1405 8.11625 15.5294C7.97382 15.9184 8.17367 16.3492 8.56263 16.4916C9.61017 16.8752 10.7975 17.1003 12.1045 17.1003C13.4115 17.1003 14.5989 16.8752 15.6464 16.4916C16.0354 16.3492 16.2352 15.9184 16.0928 15.5294C15.9504 15.1405 15.5196 14.9406 15.1306 15.083C14.2502 15.4055 13.2375 15.6003 12.1045 15.6003C10.9715 15.6003 9.95886 15.4055 9.07841 15.083Z" fill="black"/>
<path d="M14.1035 12.7803C14.105 13.3313 14.5522 13.7776 15.1035 13.7776C15.6557 13.7776 16.1035 13.3298 16.1035 12.7776C16.1035 12.2234 15.6538 11.7776 15.1025 11.7776C14.5523 11.7776 14.101 12.2241 14.1035 12.7803Z" fill="black"/>
</svg>
