<svg width="24" height="24" viewBox="0 0 24 24" fill="none" xmlns="http://www.w3.org/2000/svg">
<path d="M12.9758 4C12.5616 4 12.2258 4.33579 12.2258 4.75V15.1371C12.2258 16.7182 10.944 18 9.3629 18C7.78177 18 6.5 16.7182 6.5 15.1371C6.5 13.556 7.78177 12.2742 9.3629 12.2742C9.77712 12.2742 10.1129 11.9384 10.1129 11.5242C10.1129 11.11 9.77712 10.7742 9.3629 10.7742C6.95334 10.7742 5 12.7275 5 15.1371C5 17.5467 6.95334 19.5 9.3629 19.5C11.7725 19.5 13.7258 17.5467 13.7258 15.1371V8.32235C14.6218 9.44756 15.9759 10.4677 17.7177 10.4677C18.132 10.4677 18.4677 10.132 18.4677 9.71774C18.4677 9.30353 18.132 8.96774 17.7177 8.96774C16.5728 8.96774 15.5827 8.27698 14.8402 7.31262C14.4746 6.83768 14.1903 6.32135 13.9993 5.84861C13.8034 5.3637 13.7258 4.97487 13.7258 4.75C13.7258 4.33579 13.39 4 12.9758 4Z" fill="black"/>
</svg>
