<svg width="24" height="24" viewBox="0 0 24 24" fill="none" xmlns="http://www.w3.org/2000/svg">
<path d="M5.5 5.5H6.05556V18.5H5.5V5.5ZM18.5 5.5V6.05556L10.8333 6.05556V5.5H18.5ZM18.5 11.7222V12.2778H10.8333V11.7222L18.5 11.7222ZM18.5 17.9445V18.5H10.8333V17.9444L18.5 17.9445ZM6.55556 4H5C4.44772 4 4 4.44772 4 5V19C4 19.5523 4.44771 20 5 20H6.55556C7.10784 20 7.55556 19.5523 7.55556 19V5C7.55556 4.44772 7.10784 4 6.55556 4ZM20 6.55556V5C20 4.44772 19.5523 4 19 4H10.3333C9.78105 4 9.33333 4.44771 9.33333 5V6.55556C9.33333 7.10784 9.78105 7.55556 10.3333 7.55556L19 7.55556C19.5523 7.55556 20 7.10784 20 6.55556ZM20 11.2222C20 10.6699 19.5523 10.2222 19 10.2222L10.3333 10.2222C9.78105 10.2222 9.33333 10.6699 9.33333 11.2222V12.7778C9.33333 13.33 9.78105 13.7778 10.3333 13.7778H19C19.5523 13.7778 20 13.33 20 12.7778V11.2222ZM20 19V17.4445C20 16.8922 19.5523 16.4445 19 16.4445L10.3333 16.4444C9.78105 16.4444 9.33333 16.8922 9.33333 17.4444V19C9.33333 19.5523 9.78105 20 10.3333 20H19C19.5523 20 20 19.5523 20 19Z" fill="black"/>
</svg>
