<svg width="24" height="24" viewBox="0 0 24 24" fill="none" xmlns="http://www.w3.org/2000/svg">
<path d="M4.83365 9.09686C4.98077 8.72631 5.1562 8.37007 5.35726 8.03081L8.95068 18.6238L8.86578 18.8701C8.65103 18.7765 8.44145 18.6733 8.23758 18.5609L4.83365 9.09686ZM9.807 19.2082L12.0136 12.8071L14.356 19.0944C13.5856 19.3573 12.7594 19.5 11.9 19.5C11.1741 19.5 10.4719 19.3982 9.807 19.2082ZM9.09821 7.49519C9.45487 7.53695 9.7852 7.57233 10.0888 7.60114C10.0935 7.63933 10.1027 7.67758 10.1167 7.71522L11.4643 11.3324L9.48291 17.0799L6.27807 7.63238C6.5645 7.59547 6.87003 7.54822 7.19421 7.49101C7.46615 7.44302 7.6477 7.18367 7.59971 6.91173C7.55172 6.63979 7.29236 6.45824 7.02042 6.50623C6.82252 6.54115 6.63394 6.57183 6.45456 6.59837C7.83515 5.18057 9.76474 4.3 11.9 4.3C13.6749 4.3 15.3077 4.90842 16.6012 5.92807C16.5116 6.12063 16.4532 6.32406 16.4313 6.53839C16.3769 7.06901 16.5543 7.58485 16.883 8.06961C17.3813 8.80436 17.847 10.1331 18.2497 12.1233C17.837 13.2934 17.2564 14.9252 16.5076 17.0194L13.2333 7.59876C13.5215 7.57032 13.8331 7.53565 14.1677 7.49492C14.4418 7.46155 14.637 7.21229 14.6036 6.93817C14.5703 6.66405 14.321 6.46888 14.0469 6.50225C12.9802 6.6321 12.1898 6.6943 11.6637 6.6943C11.1368 6.6943 10.3248 6.63198 9.21451 6.50198C8.94024 6.46986 8.69186 6.66617 8.65975 6.94044C8.62764 7.21471 8.82394 7.46308 9.09821 7.49519ZM11.6637 7.6943C11.8246 7.6943 12.0043 7.68919 12.2025 7.67908L15.9132 18.3552C15.7083 18.4829 15.4969 18.601 15.2796 18.7091L11.1713 7.68156C11.3523 7.69003 11.5166 7.6943 11.6637 7.6943ZM17.423 6.67919C18.1835 7.48347 18.7703 8.45379 19.1232 9.53008C19.0585 9.76345 18.9731 10.0382 18.8657 10.3557C18.5349 9.11912 18.1537 8.16161 17.7107 7.50838C17.4839 7.17393 17.4106 6.90212 17.423 6.67919ZM19.5 11.9C19.5 13.8251 18.7843 15.583 17.6044 16.9221C18.476 14.4829 19.1061 12.7078 19.4941 11.5981C19.498 11.6983 19.5 11.7989 19.5 11.9ZM4.38031 10.7911L6.80859 17.5426C5.26813 16.1517 4.3 14.1389 4.3 11.9C4.3 11.5233 4.3274 11.1531 4.38031 10.7911ZM11.9 3C6.98466 3 3 6.98466 3 11.9C3 16.8153 6.98466 20.8 11.9 20.8C16.8153 20.8 20.8 16.8153 20.8 11.9C20.8 6.98466 16.8153 3 11.9 3Z" fill="black"/>
</svg>
