<svg width="24" height="24" viewBox="0 0 24 24" fill="none" xmlns="http://www.w3.org/2000/svg">
<path d="M18.0647 5.50261C18.6522 5.51982 18.8406 5.69361 18.9364 5.82537C19.0851 6.02995 19.2715 6.51506 19.2251 7.53273C19.1987 8.11175 18.9711 8.93188 18.4096 10.0327C17.8547 11.1203 17.0165 12.3996 15.8682 13.8766L15.8638 13.8824C14.6819 15.418 13.6429 16.4998 12.7505 17.1852C11.8434 17.882 11.2206 18.0677 10.8408 18.0677C10.8407 18.0677 10.8411 18.0676 10.8408 18.0677C10.8313 18.0685 10.7229 18.0775 10.494 17.8279C10.2394 17.5501 9.92816 17.0417 9.60693 16.1991L9.06168 14.1994L8.94256 13.7624C8.68616 12.8219 8.42974 11.8813 8.17306 10.9406L8.17102 10.9333C7.88911 9.92031 7.56748 9.0432 7.17656 8.38805C6.96063 8.02618 6.60292 7.5329 6.07141 7.22299C6.16534 7.13817 6.25911 7.05333 6.35273 6.96847C6.90362 6.49354 7.34775 6.16473 7.69179 5.95636C8.02473 5.75472 8.17061 5.72356 8.17025 5.72179C8.17022 5.72164 8.1688 5.72195 8.16649 5.72215L8.17025 5.72179C8.33538 5.7059 8.42291 5.72741 8.46333 5.74211C8.49909 5.75511 8.54574 5.77946 8.60872 5.84939C8.76027 6.01767 8.98944 6.43784 9.13111 7.33495C9.47248 9.49341 9.72356 10.9374 9.88012 11.569C10.0891 12.5133 10.3299 13.3299 10.6273 13.9434C10.776 14.2501 10.9785 14.5904 11.2649 14.8727C11.5622 15.1659 12.0381 15.4765 12.6743 15.4765C13.157 15.4765 13.5434 15.2908 13.7929 15.1333C14.052 14.9697 14.2773 14.7644 14.468 14.5639C14.8492 14.163 15.2406 13.6218 15.6389 12.9934C16.3942 11.8004 16.9833 10.6307 17.0762 9.61785C17.1461 8.93511 17.0876 8.08731 16.5405 7.39099C16.2385 7.0065 15.8653 6.76391 15.4756 6.61892C15.708 6.32898 15.953 6.11126 16.2043 5.94996C16.674 5.64837 17.269 5.477 18.0604 5.50248L18.0647 5.50261ZM20.7236 7.60125C20.8304 5.25675 19.9581 4.05744 18.1086 4.00325C16.1431 3.93997 14.677 4.80015 13.7107 6.58499C13.648 6.70077 13.5874 6.82045 13.529 6.94401C13.2967 7.43478 13.8286 7.93194 14.3716 7.93194C15.2869 7.93194 15.6909 8.44669 15.5831 9.4735C15.5288 10.0958 15.1248 11.0013 14.3716 12.191C13.6168 13.3816 13.0506 13.9765 12.6743 13.9765C12.1891 13.9765 11.7448 13.0601 11.3404 11.2254C11.2046 10.6872 10.9624 9.31207 10.6127 7.10063C10.2891 5.05125 9.42682 4.09394 8.02657 4.22869C7.43375 4.28288 6.54369 4.8215 5.35888 5.84481C4.73092 6.41413 4.09544 6.98287 3.4532 7.5514C3.44108 7.56212 3.42896 7.57285 3.41684 7.58358C3.39073 7.60668 3.3646 7.62979 3.33846 7.6529C3.30816 7.67969 3.27785 7.70647 3.24752 7.73326C2.95842 7.98859 2.91676 8.42464 3.15325 8.72934C3.3916 9.03644 3.82787 9.10049 4.15235 8.88639C4.17683 8.87024 4.20081 8.85451 4.22427 8.83921C4.2564 8.81826 4.28757 8.79811 4.31778 8.77877C4.33215 8.76957 4.3463 8.76056 4.36023 8.75172C4.69809 8.53749 4.90858 8.43007 4.9915 8.43007C5.60963 8.43007 6.18707 9.39919 6.72594 11.3354C6.98209 12.2742 7.23801 13.2129 7.49394 14.1517L8.17851 16.6625C8.90394 18.5997 9.79175 19.5676 10.8414 19.5676C12.5346 19.5676 14.6053 17.977 17.0525 14.7973C19.4198 11.752 20.6434 9.35331 20.7236 7.60125Z" fill="black"/>
</svg>
