<svg width="24" height="24" viewBox="0 0 24 24" fill="none" xmlns="http://www.w3.org/2000/svg">
<path d="M20.9265 7.25C20.9265 5.45507 19.4714 4 17.6765 4C17.587 4 17.4983 4.00362 17.4107 4.01071H11.4406C11.2037 4.01071 10.9924 4.12059 10.8549 4.29218L10.8518 4.29027L10.8326 4.3215C10.8107 4.35174 10.791 4.38368 10.7738 4.41708L2.13407 18.4578C1.99168 18.6892 1.98557 18.9795 2.11812 19.2167C2.25066 19.4539 2.50112 19.6008 2.77283 19.6008H8.77283C9.04549 19.6008 9.29668 19.4528 9.42884 19.2143L10.6906 16.9373V18.6878C10.6906 19.102 11.0264 19.4378 11.4406 19.4378H17.4406C17.5237 19.4378 17.6037 19.4243 17.6784 19.3993C20.081 19.3056 22 17.3283 22 14.9028C22 12.6569 20.3547 10.7952 18.2036 10.4575C19.7478 10.2056 20.9265 8.86543 20.9265 7.25ZM12.1906 5.51071H14.9305C14.6113 6.01363 14.4265 6.61023 14.4265 7.25C14.4265 8.81377 15.5309 10.1196 17.0023 10.43C14.7512 10.6777 13 12.5857 13 14.9028C13 16.0723 13.4461 17.1376 14.1775 17.9378H12.1906V14.2304L12.2295 14.1602L12.1906 14.1386V5.51071ZM4.11494 18.1008L10.6906 7.41448V13.8426L8.33098 18.1008H4.11494ZM7 6.52802C7 5.1473 5.88071 4.02802 4.5 4.02802C3.11929 4.02802 2 5.1473 2 6.52802C2 7.90873 3.11929 9.02802 4.5 9.02802C5.88071 9.02802 7 7.90873 7 6.52802Z" fill="black"/>
</svg>
