<svg width="24" height="24" viewBox="0 0 24 24" fill="none" xmlns="http://www.w3.org/2000/svg">
<path d="M12 3C7.02944 3 3 7.02944 3 12C3 16.9706 7.02944 21 12 21C16.9706 21 21 16.9706 21 12C21 7.02944 16.9706 3 12 3ZM18.7684 8.76498C19.2374 9.74444 19.5 10.8415 19.5 12C19.5 16.1421 16.1421 19.5 12 19.5C11.9036 19.5 11.8077 19.4982 11.7122 19.4946L15.4313 15.6119L15.5021 15.5262L15.5141 15.5141C17.3473 13.6808 17.4029 10.7431 15.6808 8.84292L15.607 8.765L18.7684 8.76498ZM4.5 12C4.5 10.9974 4.69672 10.0408 5.05368 9.16658L7.53411 13.8418L7.58784 13.9285C7.60246 13.9489 7.61797 13.9683 7.6348 13.9857C7.8707 14.5411 8.21506 15.0613 8.66788 15.5141C9.61328 16.4595 10.8524 16.9321 12.0915 16.932L9.91242 19.2056C6.78603 18.3015 4.5 15.4177 4.5 12ZM11.8931 8.75817C11.928 8.76315 11.9637 8.76573 11.9999 8.76573L12.4028 8.76449C13.088 8.82834 13.7573 9.10316 14.3053 9.58896L14.4535 9.72855L14.5931 9.87677C15.7564 11.1889 15.7099 13.197 14.4535 14.4535C13.1487 15.7582 11.0333 15.7582 9.72855 14.4535C8.42381 13.1487 8.42381 11.0333 9.72855 9.72855C10.3084 9.14867 11.0484 8.82651 11.8063 8.76208L11.8931 8.75817ZM12 4.5C14.3469 4.5 16.442 5.57795 17.8172 7.26574L12.4716 7.26489C11.1091 7.15809 9.71003 7.62575 8.66789 8.66789C8.11526 9.22053 7.72417 9.87354 7.49463 10.5682L5.92304 7.60356C7.28584 5.72311 9.50008 4.5 12 4.5Z" fill="black"/>
</svg>
