<svg width="24" height="24" viewBox="0 0 24 24" fill="none" xmlns="http://www.w3.org/2000/svg">
<path d="M9.73378 15.1698C9.62754 15.6294 9.48165 16.8401 9.86908 16.9871C10.2565 17.134 10.8032 15.9897 10.9295 15.5234C11.0018 15.2545 11.3467 13.8597 11.3467 13.8597C11.5531 14.2609 12.1559 14.6145 12.7965 14.6145C14.705 14.6145 16 12.8405 16 10.4664C16 8.67152 14.5079 7 12.2414 7C9.42201 7 8 9.06107 8 10.7805C8 11.8216 8.38574 12.7467 9.2149 13.0926C9.35115 13.1487 9.47276 13.0942 9.51208 12.9406C9.52742 12.882 9.55409 12.7737 9.57968 12.6697C9.60031 12.5859 9.62025 12.5049 9.63297 12.4551C9.673 12.3036 9.65762 12.2502 9.54826 12.1176C9.30882 11.8299 9.15713 11.4583 9.15713 10.9308C9.15713 9.40178 10.2781 8.0329 12.0789 8.0329C13.6726 8.0329 14.5488 9.02576 14.5488 10.3519C14.5488 12.0964 13.7912 13.5697 12.6663 13.5697C12.0458 13.5697 11.5816 13.0459 11.7301 12.4037C11.7946 12.1261 11.8811 11.8403 11.9651 11.5624C12.1131 11.0733 12.2537 10.6088 12.2537 10.2561C12.2537 9.76134 11.9935 9.34762 11.453 9.34762C10.8186 9.34762 10.3089 10.0173 10.3089 10.9143C10.3089 11.4851 10.4983 11.8715 10.4983 11.8715C10.4983 11.8715 9.84853 14.6781 9.73378 15.1698Z" fill="black"/>
<path d="M18.364 5.63604C18.0038 5.2759 17.6207 4.95266 17.2195 4.66633C13.7044 2.15822 8.79063 2.48146 5.63604 5.63604C2.12132 9.15075 2.12132 14.8492 5.63604 18.364C9.15075 21.8787 14.8492 21.8787 18.364 18.364C21.5185 15.2094 21.8418 10.2956 19.3337 6.78055C19.0473 6.37926 18.7241 5.99618 18.364 5.63604ZM17.3033 17.3033C14.3744 20.2322 9.62562 20.2322 6.69671 17.3033C3.76777 14.3744 3.76777 9.62562 6.6967 6.6967C9.62564 3.76776 14.3744 3.76777 17.3033 6.6967C20.2322 9.62564 20.2322 14.3744 17.3033 17.3033Z" fill="black"/>
</svg>
