<svg width="24" height="24" viewBox="0 0 24 24" fill="none" xmlns="http://www.w3.org/2000/svg">
<path d="M17.0568 4.5H18.5173L13.6925 12.9514C13.3418 13.5657 13.3417 14.3195 13.6921 14.9339L16.2965 19.5H14.8354C14.6558 19.5 14.4901 19.4037 14.4011 19.2477L11.5169 14.191C11.4292 14.0374 11.4293 13.849 11.5169 13.6954L16.6226 4.75211C16.7115 4.59622 16.8773 4.5 17.0568 4.5ZM20.2469 4.49578C20.6275 3.82913 20.1461 3 19.3785 3H17.0568C16.3388 3 15.6759 3.38488 15.3199 4.00843L10.2143 12.9517C9.8636 13.566 9.86346 14.3198 10.2139 14.9342L13.0981 19.9909C13.454 20.6148 14.1171 21 14.8354 21H17.1573C17.9248 21 18.4062 20.1712 18.026 19.5045L14.9951 14.1907C14.9075 14.0371 14.9075 13.8487 14.9952 13.6951L20.2469 4.49578ZM6.39627 9.41882L5.51968 7.875H6.74323C6.92315 7.875 7.08919 7.97166 7.17803 8.12812L8.31691 10.1339C8.40644 10.2915 8.40359 10.4853 8.30946 10.6403L6.49077 13.6346C6.40009 13.7839 6.23809 13.875 6.06342 13.875H4.89026L6.36647 11.4446C6.74299 10.8247 6.7544 10.0495 6.39627 9.41882ZM8.48242 7.38747C8.12707 6.76165 7.4629 6.375 6.74323 6.375H4.6608C3.89419 6.375 3.41268 7.20212 3.7912 7.86876L5.09188 10.1595C5.18141 10.3171 5.17856 10.5109 5.08443 10.6659L3.14687 13.8559C2.74209 14.5223 3.22184 15.375 4.00156 15.375H6.06342C6.76208 15.375 7.4101 15.0104 7.7728 14.4133L9.5915 11.419C9.96802 10.7991 9.97943 10.0239 9.6213 9.39322L8.48242 7.38747Z" fill="black"/>
</svg>
