<svg width="24" height="24" viewBox="0 0 24 24" fill="none" xmlns="http://www.w3.org/2000/svg">
<path d="M4.66633 6.78055C2.58392 9.69902 2.4533 13.5817 4.27446 16.6211C4.31438 16.7732 4.40084 16.9064 4.51771 17.0046C4.83936 17.4844 5.21214 17.94 5.63604 18.3639C9.15076 21.8787 14.8492 21.8787 18.3639 18.3639L17.3033 17.3033C16.2895 18.3171 15.0577 18.98 13.7588 19.2919L17.0156 13.502L18.3463 15.8677C18.3591 15.8905 18.373 15.9124 18.3878 15.9334C18.0872 16.4206 17.7257 16.8809 17.3033 17.3033L18.3639 18.3639C21.8787 14.8492 21.8787 9.15074 18.3639 5.63604C15.2094 2.48146 10.2956 2.15822 6.78055 4.66632C6.37925 4.95266 5.99618 5.2759 5.63604 5.63604C5.2759 5.99618 4.95266 6.37925 4.66633 6.78055ZM14.0221 8.18018L16.1551 11.9722L14.0694 15.6802H9.87836C9.87094 15.6645 9.86293 15.6489 9.85432 15.6336L7.83996 12.0365L10.0091 8.18018H14.0221ZM15.7431 8.18018H18.4565C19.5512 10.0276 19.7846 12.2439 19.1566 14.2486L15.7431 8.18018ZM17.2867 6.68018H10.8529L12.079 4.50042C13.9648 4.52016 15.8445 5.24675 17.2867 6.68018ZM6.98136 10.5033L5.65431 8.13356C5.64128 8.1103 5.6272 8.088 5.61216 8.06668C5.91274 7.57945 6.27426 7.11915 6.6967 6.6967C7.71048 5.68291 8.94229 5.02003 10.2412 4.70804L6.98136 10.5033ZM4.84259 9.75402L8.16124 15.6802H5.46281C4.43806 13.8622 4.23131 11.7078 4.84259 9.75402ZM11.921 19.4996C10.028 19.4797 8.14107 18.7476 6.6967 17.3033L5.78756 18.2124L6.6967 17.3033C6.65601 17.2626 6.61589 17.2216 6.57634 17.1802H13.2256L11.921 19.4996Z" fill="black"/>
</svg>
