<svg width="24" height="24" viewBox="0 0 24 24" fill="none" xmlns="http://www.w3.org/2000/svg">
<path d="M17.85 13.0002C18.5734 13.0002 19.2535 12.8151 19.8457 12.4897L19.8466 12.4892C21.1199 11.7892 21.9861 10.4403 21.9998 8.88783C21.9804 6.63827 20.1224 4.82057 17.8333 4.82057C16.2117 4.82057 14.8065 5.73273 14.119 7.06317L14.1041 7.06172C13.8451 7.60329 13.7 8.2098 13.7 8.8502C13.7 10.0061 14.1726 11.0517 14.9351 11.8041L14.9376 11.8066C15.6868 12.5447 16.7152 13.0002 17.85 13.0002ZM12.2463 7.14633L12.0817 7.18099L12.0943 7.00469C12.1094 6.64616 12.0778 6.27707 11.9791 5.915C11.6788 4.81375 10.8228 4.08774 9.39912 4L9.27497 4.00568C8.79495 4.04961 8.5138 4.3442 8.43549 4.75402L7.99667 7.06282L7.9164 7.06956C7.71917 7.08989 7.52368 7.11898 7.33039 7.15668L7.21084 7.18263L7.22299 7.00469C7.23809 6.64617 7.20647 6.27707 7.10772 5.915C6.80737 4.81375 5.9515 4.08774 4.5278 4C3.97423 4.00069 3.64957 4.30862 3.56497 4.75174L2.12003 12.3577L2.07076 12.6449C2.02783 12.9324 2.00404 13.2205 2.00054 13.5084C1.95461 17.0854 4.84551 20 8.44664 20L8.65336 19.9968C9.40858 19.9733 10.1332 19.8218 10.8058 19.5634L10.955 19.5027L11.1204 19.5588C15.3795 20.9224 19.4462 17.993 19.8787 14.1251C19.4612 14.2857 19.0199 14.3982 18.5614 14.4558C18.0252 17.0059 15.5109 18.9379 12.6591 18.6325L12.4917 18.6116L12.6758 18.4641C13.0862 18.1218 13.4546 17.7309 13.7717 17.3003C15.3824 17.1601 16.6457 16.0219 17.0005 14.4368C16.5809 14.3735 16.1764 14.2641 15.7924 14.1138C15.6412 14.865 15.2059 15.4588 14.6043 15.7902C14.8529 15.1521 15.0036 14.4665 15.0378 13.7517C14.568 13.4816 14.1407 13.1458 13.7684 12.757L13.7792 12.9088C13.7822 12.9612 13.7848 13.0132 13.7871 13.0648L13.7952 13.3655L13.7949 13.508C13.7574 16.4087 11.3551 18.7691 8.44664 18.7691C5.54513 18.7691 3.21328 16.4182 3.25044 13.5235L3.25875 13.2905C3.27251 13.057 3.30257 12.8224 3.34832 12.5861L4.74084 5.25674L4.7842 5.26324C5.42356 5.37361 5.75666 5.70685 5.9005 6.23425C5.98877 6.55789 5.99344 6.92205 5.94574 7.2586L5.93808 7.30953L5.60848 9.04143L6.66252 8.62873L6.91751 8.53642C7.43215 8.365 7.97409 8.27313 8.52973 8.26575L9.04157 8.25896L9.61084 5.25592L9.65604 5.26323C10.2949 5.37361 10.628 5.70685 10.7718 6.23425C10.8601 6.55789 10.8647 6.92204 10.8171 7.2586C10.8144 7.27711 10.8119 7.29412 10.8094 7.30952L10.4798 9.04152L11.5339 8.62872L11.7664 8.54375C11.9147 8.49343 12.0649 8.44969 12.2167 8.41266C12.2513 7.96054 12.3392 7.52331 12.474 7.10722C12.3978 7.11893 12.3219 7.13197 12.2463 7.14633ZM9.68797 13.5079C9.68008 14.1264 9.82852 14.724 10.1136 15.2575L10.156 15.331L10.0191 15.4508C9.69196 15.7125 9.31563 15.8596 8.87786 15.9222L8.686 15.943L8.66858 15.9097C8.30091 15.178 8.11115 14.3657 8.12177 13.5234C8.12604 13.2117 8.15907 12.8988 8.21964 12.5861L8.76245 9.7295L7.86008 9.90179C6.12649 10.2328 4.83885 11.7413 4.81635 13.508C4.79267 15.3386 6.1313 16.8798 7.93023 17.152L8.11516 17.1753C8.18721 17.1821 8.25762 17.1781 8.32477 17.1648L8.32445 17.1895L8.52033 17.1862C9.81437 17.1431 10.8708 16.6618 11.64 15.4676L11.7393 15.3047C11.8343 15.1392 11.9165 14.9669 11.9851 14.789C12.1537 14.3509 12.3011 13.8061 12.3011 13.5157L12.3163 13.1382C12.3221 12.7839 12.3075 12.4105 12.2621 12.0482C12.2341 11.8254 12.1955 11.6181 12.1431 11.4277C12.3162 11.3223 12.5028 11.2373 12.6995 11.1761C12.5316 10.8049 12.4026 10.4124 12.3178 10.0036C10.8134 10.4737 9.709 11.8667 9.68797 13.5079ZM7.15251 11.5062L6.99137 12.3577C6.91774 12.7378 6.87715 13.1222 6.87187 13.5075L6.87458 13.7951C6.89267 14.3683 6.98647 14.9291 7.15118 15.4663L7.19334 15.5927C6.50312 15.1591 6.05502 14.3917 6.06625 13.5236C6.07628 12.7358 6.46339 12.0236 7.06206 11.5711L7.15251 11.5062ZM17.8408 7.0194C17.8625 7.03758 17.8735 7.06557 17.87 7.0937L17.7192 8.29649C17.712 8.35365 17.7301 8.41109 17.7689 8.45423C17.8076 8.49737 17.8633 8.52207 17.9218 8.52207H19.6847C19.7307 8.52207 19.7726 8.54874 19.7921 8.59046C19.8117 8.63219 19.8052 8.68143 19.7757 8.71677L18.1201 10.6975C18.0906 10.7328 18.038 10.7375 18.0027 10.708C17.981 10.6898 17.97 10.6618 17.9735 10.6337L18.1243 9.4309C18.1315 9.37375 18.1134 9.3163 18.0746 9.27316C18.0359 9.23003 17.9802 9.20532 17.9218 9.20532H16.0833C16.0373 9.20532 16 9.16801 16 9.12199C16 9.10245 16.0069 9.08354 16.0194 9.06854L17.7234 7.02989C17.7529 6.99458 17.8054 6.98988 17.8408 7.0194Z" fill="black"/>
</svg>
