<svg width="24" height="24" viewBox="0 0 24 24" fill="none" xmlns="http://www.w3.org/2000/svg">
<path d="M13.3741 3C12.8189 3 12.3691 3.44039 12.3691 3.98394C12.3691 4.52748 12.8189 4.96787 13.3741 4.96787C13.9292 4.96787 14.379 4.52748 14.379 3.98394C14.379 3.44039 13.9292 3 13.3741 3ZM6.62966 9.09342L7.64789 9.05835L7.99061 8.09889C8.32593 7.16016 9.25057 6.46387 10.3627 6.46387C10.9609 6.46387 11.5033 6.66635 11.9318 6.99846L12.5602 7.48559L13.3161 7.23888C13.5586 7.15973 13.7987 7.1185 14.042 7.1185C15.272 7.1185 16.2171 8.08413 16.2214 9.21334L16.2204 9.2288L16.2167 9.27956C16.2151 9.30126 16.2131 9.33035 16.2114 9.36265L16.1569 10.376L17.0772 10.8035C17.386 10.947 17.5586 11.2283 17.5586 11.5142C17.5586 11.7052 17.4847 11.888 17.3335 12.0452L16.4779 12.9341L17.1852 13.9451C17.4225 14.2844 17.5586 14.6888 17.5586 15.1206C17.5586 16.2041 16.6917 17.1397 15.5265 17.2143L14.4416 17.2838L14.1699 18.3365C14.0479 18.8095 13.6003 19.187 13.0371 19.187C12.7069 19.187 12.4126 19.0576 12.1937 18.8451L11.2394 17.9185L10.2053 18.7552C9.86441 19.031 9.45831 19.187 9.02146 19.187C8.00181 19.187 7.21976 18.407 7.17631 17.4903L7.34836 16.1427L5.96929 15.8741C5.11274 15.7072 4.5 14.9722 4.5 14.1367C4.5 13.658 4.69778 13.2186 5.03049 12.895L5.81709 12.1299L5.32618 11.1486C5.22354 10.9434 5.17265 10.7393 5.17265 10.5342C5.17265 9.78489 5.787 9.12245 6.62966 9.09342ZM5.68251 17.3464L5.6744 17.4099C5.6744 19.2191 7.17369 20.687 9.02146 20.687C9.83188 20.687 10.5653 20.3934 11.1488 19.9213C11.6351 20.3934 12.2996 20.687 13.0371 20.687C14.2892 20.687 15.3306 19.842 15.6224 18.7112C17.5431 18.5882 19.0586 17.029 19.0586 15.1206C19.0586 14.3668 18.8195 13.6646 18.4143 13.0853C18.8114 12.6727 19.0586 12.1252 19.0586 11.5142C19.0586 10.5977 18.5034 9.81214 17.7092 9.44316C17.7106 9.41746 17.7125 9.39222 17.7143 9.36713C17.7179 9.31862 17.7214 9.27066 17.7214 9.22098C17.7214 7.2293 16.0722 5.6185 14.042 5.6185C13.6247 5.6185 13.2276 5.68992 12.8507 5.81291C12.17 5.28523 11.3069 4.96387 10.3627 4.96387C8.61219 4.96387 7.12506 6.06286 6.57803 7.59431C4.96528 7.64986 3.67265 8.93929 3.67265 10.5342C3.67265 10.9984 3.79016 11.4309 3.98467 11.8197C3.37685 12.4108 3 13.2321 3 14.1367C3 15.7237 4.15486 17.0488 5.68251 17.3464ZM5.67837 5.61914C5.30962 5.61914 5.00977 5.91273 5.00977 6.27378C5.00977 6.63482 5.30962 6.92841 5.67837 6.92841C6.04711 6.92841 6.34697 6.63482 6.34697 6.27378C6.34697 5.91273 6.04711 5.61914 5.67837 5.61914ZM19.7344 12.8275C19.7344 13.1885 20.0342 13.4821 20.403 13.4821C20.7717 13.4821 21.0716 13.1885 21.0716 12.8275C21.0716 12.4664 20.7717 12.1729 20.403 12.1729C20.0342 12.1729 19.7344 12.4664 19.7344 12.8275ZM4.67422 18.0684C4.48782 18.0684 4.33789 18.2152 4.33789 18.3977C4.33789 18.5802 4.48782 18.727 4.67422 18.727C4.86061 18.727 5.01054 18.5802 5.01054 18.3977C5.01054 18.2152 4.86061 18.0684 4.67422 18.0684ZM15.7148 20.3658C15.7148 20.9093 16.1646 21.3497 16.7198 21.3497C17.2749 21.3497 17.7247 20.9093 17.7247 20.3658C17.7247 19.8222 17.2749 19.3818 16.7198 19.3818C16.1646 19.3818 15.7148 19.8222 15.7148 20.3658ZM10.3633 21.3451C10.3633 21.7061 10.6631 21.9997 11.0319 21.9997C11.4006 21.9997 11.7005 21.7061 11.7005 21.3451C11.7005 20.984 11.4047 20.6904 11.0319 20.6904C10.6631 20.6904 10.3633 20.984 10.3633 21.3451ZM12.0243 10.3473C11.9398 10.3339 11.8661 10.3312 11.8006 10.3366C11.6014 10.3526 11.4704 10.4541 11.2849 10.6091C11.2728 10.6195 11.2582 10.6333 11.2414 10.649C11.1297 10.754 10.9231 10.9481 10.731 10.8575C10.6382 10.8094 10.3053 10.6491 10.0652 10.5476C9.61226 10.3553 8.95467 10.6705 8.71455 11.09C8.416 11.6099 7.88142 13.4064 7.65294 14.1743C7.60787 14.3258 7.57471 14.4372 7.55762 14.4909C7.31751 15.2123 7.8605 15.8107 8.58085 15.7706C8.88645 15.7546 9.08837 15.6451 9.28483 15.2977C9.34241 15.1946 9.64724 14.4226 9.94069 13.6793C10.2173 12.9787 10.4839 12.3036 10.5236 12.2388C10.5782 12.1452 10.7692 12.0197 10.9274 12.0998C11.0857 12.1853 11.1185 12.3563 11.0939 12.5113C11.0773 12.6576 10.8408 13.2321 10.6288 13.7471C10.4578 14.1626 10.3026 14.5395 10.2917 14.6218C10.1989 15.2443 11.0393 15.3458 11.364 14.7314C11.3957 14.6718 11.5266 14.4135 11.696 14.0791C12.0808 13.3195 12.6645 12.1673 12.7365 12.0598C12.8566 11.8888 12.9412 11.8327 13.0612 11.8407C13.1485 11.8407 13.2904 11.8647 13.2577 12.1372C13.2392 12.2614 13.0109 12.7255 12.7683 13.219C12.5097 13.7448 12.2348 14.3039 12.1799 14.5203C12.0516 15.0813 12.3627 15.6451 12.8702 15.8962C13.1867 16.0511 14.6056 16.321 14.4937 15.5943C14.4525 15.322 14.1815 15.2861 13.9077 15.2497C13.6201 15.2116 13.3294 15.173 13.2986 14.8596C13.2553 14.4137 13.5746 13.7046 13.8826 13.0204C14.1763 12.3681 14.4598 11.7384 14.4091 11.3812C14.3136 10.7293 13.8689 10.5904 13.4814 10.5824C13.1252 10.5722 13.0217 10.6299 12.9042 10.6955C12.8984 10.6987 12.8925 10.702 12.8866 10.7052C12.8776 10.7102 12.8684 10.7157 12.8589 10.7214C12.7821 10.7673 12.6882 10.8233 12.5619 10.6972C12.5397 10.6766 12.5182 10.656 12.4971 10.6359C12.3518 10.4969 12.2245 10.3752 12.0243 10.3473Z" fill="#0A0B09"/>
</svg>
