<svg width="24" height="24" viewBox="0 0 24 24" fill="none" xmlns="http://www.w3.org/2000/svg">
<path d="M12.002 3C11.4927 3 10.9932 3.04229 10.507 3.12355C6.24664 3.83553 3 7.53932 3 12.002C3 16.971 7.029 21 11.998 21H12.002C16.971 21 21 16.971 21 12.002V11.998C21 7.029 16.971 3 12.002 3ZM19.5 11.998V12.002C19.5 16.1426 16.1426 19.5 12.002 19.5H11.998C7.85743 19.5 4.5 16.1426 4.5 12.002C4.5 7.85843 7.85843 4.5 12.002 4.5C16.1426 4.5 19.5 7.85743 19.5 11.998ZM9.07687 9.7002C7.81687 9.70411 6.79818 10.7267 6.80079 11.9867C6.8034 13.2467 7.826 14.2667 9.0847 14.2654C10.3447 14.2641 11.366 13.2428 11.366 11.9828C11.366 10.7228 10.3434 9.7002 9.08339 9.7002H9.07687ZM12.7363 11.9867C12.7389 13.2467 13.7615 14.2667 15.0202 14.2654C16.2802 14.2641 17.3015 13.2428 17.3015 11.9828C17.3015 10.7228 16.2789 9.7002 15.0189 9.7002H15.0124C13.7524 9.70411 12.7337 10.7267 12.7363 11.9867Z" fill="black"/>
</svg>
