<svg width="24" height="24" viewBox="0 0 24 24" fill="none" xmlns="http://www.w3.org/2000/svg">
<path d="M11.3125 4.75C11.3125 4.33579 10.9767 4 10.5625 4C10.1483 4 9.8125 4.33579 9.8125 4.75V5.13337C9.81229 5.14064 9.81219 5.14795 9.81219 5.15527V6.15672C9.81219 7.29546 8.88874 8.21891 7.75 8.21891C7.33579 8.21891 7 8.5547 7 8.96891C7 9.38312 7.33579 9.71891 7.75 9.71891H9.8125V16.0581C9.8125 17.9599 11.3547 19.5 13.2544 19.5C14.3314 19.5 15.3089 19.0622 16.0142 18.357C16.307 18.0641 16.307 17.5892 16.0142 17.2963C15.7213 17.0034 15.2464 17.0034 14.9535 17.2963C14.5182 17.7316 13.9178 18 13.2544 18C12.1825 18 11.3125 17.1309 11.3125 16.0581V9.71891H15.4835C15.8977 9.71891 16.2335 9.38312 16.2335 8.96891C16.2335 8.5547 15.8977 8.21891 15.4835 8.21891H11.3125V4.75Z" fill="black"/>
</svg>
