<svg width="24" height="24" viewBox="0 0 24 24" fill="none" xmlns="http://www.w3.org/2000/svg">
<path d="M12.5867 9.79415C14.34 10.0013 15.8674 10.4868 16.7872 11.0685C17.1373 11.2899 17.6006 11.1856 17.822 10.8356C18.0434 10.4855 17.9391 10.0222 17.589 9.80079C16.4128 9.05686 14.6435 8.52669 12.7626 8.30451C10.8714 8.0811 8.77928 8.1584 6.93583 8.70388C6.53864 8.82141 6.31193 9.23867 6.42946 9.63586C6.54699 10.0331 6.96425 10.2598 7.36144 10.1422C8.96409 9.66801 10.8437 9.58826 12.5867 9.79415Z" fill="black"/>
<path d="M16.7966 13.4612C17.0207 13.1129 16.9199 12.6488 16.5715 12.4247C14.4046 11.0309 10.5899 10.3196 7.33959 11.3324C6.94413 11.4556 6.72343 11.8761 6.84666 12.2715C6.96988 12.667 7.39035 12.8877 7.78581 12.7645C10.6069 11.8854 13.9616 12.5295 15.7601 13.6863C16.1085 13.9104 16.5725 13.8096 16.7966 13.4612Z" fill="black"/>
<path d="M14.9034 15.9611C15.2586 16.1742 15.7192 16.0591 15.9324 15.7039C16.1455 15.3487 16.0303 14.888 15.6751 14.6749C13.7176 13.5004 11.1713 12.9536 7.62895 13.7483C7.22478 13.839 6.97065 14.2401 7.06132 14.6443C7.152 15.0485 7.55315 15.3026 7.95731 15.2119C11.1703 14.4911 13.3149 15.0081 14.9034 15.9611Z" fill="black"/>
<path d="M21 12C21 7.02944 16.9706 3 12 3C7.02944 3 3 7.02944 3 12C3 16.9706 7.02944 21 12 21C16.9706 21 21 16.9706 21 12ZM19.5 12C19.5 16.1421 16.1421 19.5 12 19.5C7.85786 19.5 4.5 16.1421 4.5 12C4.5 7.85786 7.85786 4.5 12 4.5C16.1421 4.5 19.5 7.85786 19.5 12Z" fill="black"/>
</svg>
