<svg width="24" height="24" viewBox="0 0 24 24" fill="none" xmlns="http://www.w3.org/2000/svg">
<path d="M7 19.5C5.61929 19.5 4.5 18.3807 4.5 17V7C4.5 5.61929 5.61929 4.5 7 4.5H17C18.3807 4.5 19.5 5.61929 19.5 7V17C19.5 18.3807 18.3807 19.5 17 19.5H7ZM17 21C19.2091 21 21 19.2091 21 17V7C21 4.79086 19.2091 3 17 3H7C4.79086 3 3 4.79086 3 7V17C3 19.2091 4.79086 21 7 21H17ZM16.9966 6C16.4455 6.00296 15.998 6.45037 15.998 7.00148C15.998 7.55259 16.4484 8 16.9995 8C17.5506 8 17.998 7.55259 17.998 7.00148C18.001 6.44741 17.5506 6 16.9966 6ZM9.98514 9.98416C11.0981 8.87116 12.9027 8.87116 14.0156 9.98416C15.1286 11.0972 15.1286 12.9017 14.0156 14.0147C12.9027 15.1277 11.0981 15.1277 9.98514 14.0147C8.87214 12.9017 8.87214 11.0972 9.98514 9.98416ZM15.0763 8.9235C13.3775 7.22472 10.6233 7.22472 8.92448 8.9235C7.22569 10.6223 7.22569 13.3765 8.92448 15.0753C10.6233 16.7741 13.3775 16.7741 15.0763 15.0753C16.7751 13.3765 16.7751 10.6223 15.0763 8.9235Z" fill="black"/>
</svg>
