<svg width="24" height="24" viewBox="0 0 24 24" fill="none" xmlns="http://www.w3.org/2000/svg">
<path d="M11.75 3.5C14.3119 3.5 16.6258 4.50675 18.2988 6.12988C19.9714 7.75262 21 9.9872 21 12.4518C21 14.1285 20.5246 15.6965 19.6956 17.0381C19.0062 18.1538 18.0721 19.1138 16.9637 19.8473C16.2862 19.3878 15.5418 19.0157 14.748 18.7472C17.114 17.6242 18.75 15.2131 18.75 12.4199C18.75 8.55393 15.616 5.41992 11.75 5.41992C7.88401 5.41992 4.75 8.55393 4.75 12.4199C4.75 15.2131 6.38593 17.6241 8.75191 18.7472C7.958 19.0156 7.21355 19.3876 6.53597 19.8468C5.42769 19.1136 4.49368 18.1536 3.80437 17.0381C2.9754 15.6965 2.5 14.1285 2.5 12.4518C2.5 9.9872 3.52855 7.75262 5.20118 6.12988C6.8742 4.50675 9.18814 3.5 11.75 3.5ZM4.15669 5.05329C2.21002 6.94191 1 9.55823 1 12.4518C1 14.4169 1.55822 16.2565 2.52832 17.8265C3.43109 19.2876 4.68935 20.5144 6.18489 21.3956L6.62011 21.6521L7.02133 21.3451C7.81716 20.7363 8.74168 20.2773 9.75 20.0131V17.7592C7.58853 16.9492 6.05 14.8642 6.05 12.4199C6.05 9.2719 8.60198 6.71992 11.75 6.71992C14.898 6.71992 17.45 9.2719 17.45 12.4199C17.45 14.8642 15.9115 16.9492 13.75 17.7592V20.0131C14.7582 20.2774 15.6825 20.7365 16.4779 21.3455L16.8792 21.6527L17.3146 21.3961C18.8104 20.5147 20.0688 19.2878 20.9716 17.8266C21.9418 16.2565 22.5 14.4169 22.5 12.4518C22.5 9.55823 21.29 6.94191 19.3433 5.05329C17.397 3.16507 14.711 2 11.75 2C8.78901 2 6.10296 3.16507 4.15669 5.05329ZM15.75 12.4199C15.75 10.2108 13.9591 8.41992 11.75 8.41992C9.54086 8.41992 7.75 10.2108 7.75 12.4199C7.75 13.9005 8.5544 15.1932 9.75 15.8848V14.2338C9.31504 13.7545 9.05 13.1182 9.05 12.4199C9.05 10.9288 10.2588 9.71992 11.75 9.71992C13.2412 9.71992 14.45 10.9288 14.45 12.4199C14.45 13.1182 14.185 13.7545 13.75 14.2338V15.8848C14.9456 15.1932 15.75 13.9005 15.75 12.4199ZM12.75 16.2939V14.9287C12.75 14.9287 12.75 14.9287 12.75 14.9287V11.4199H10.0162V12.4064H10.75V19.9057H12.75V19.4198H12.75V18.0325C12.75 18.0325 12.75 18.0325 12.75 18.0325V16.2939C12.75 16.2939 12.75 16.2939 12.75 16.2939Z" fill="black"/>
</svg>
