<svg width="24" height="24" viewBox="0 0 24 24" fill="none" xmlns="http://www.w3.org/2000/svg">
<path d="M4.41714 17.8852C4.61017 18.0522 4.81363 18.2104 5.0306 18.3582C6.01273 19.0271 7.31843 19.511 9.26123 19.511C12.7246 19.511 15.3741 18.3264 17.1632 16.3747C18.9605 14.414 19.9577 11.6038 19.9577 8.2398C19.9577 8.08055 20.0063 7.92509 20.0969 7.79417L21.3333 6.00899H19.6968C19.6374 6.00899 19.579 6.00226 19.5223 5.98931C19.3325 5.94591 19.1634 5.83264 19.051 5.66854C18.6857 5.13501 18.2582 4.73001 17.7182 4.45259C17.1753 4.17375 16.4723 4 15.5226 4C14.1721 4 13.0956 4.46217 12.3472 5.19834C11.5965 5.93672 11.1307 6.99541 11.087 8.26667C11.0789 8.50075 10.9665 8.71893 10.7805 8.86129C10.5945 9.00365 10.3546 9.05524 10.1265 9.00189C8.22886 8.55795 6.4573 7.3877 5.08312 5.93144C4.70271 5.52832 4.35276 5.10327 4.03901 4.66566C3.75738 5.17535 3.53237 5.70569 3.36476 6.24855C2.47849 9.11909 3.19697 12.3399 5.63284 14.7103C5.82958 14.9018 5.91163 15.1823 5.84908 15.4496C5.78652 15.7169 5.58847 15.9319 5.32721 16.0161L4.84262 16.1724C4.8341 16.1751 4.82548 16.1779 4.81679 16.1807C4.52891 16.2734 4.15195 16.3949 3.77396 16.5165L3.26599 16.6798C3.53883 17.0115 3.822 17.3289 4.13021 17.6239C4.22342 17.7131 4.31894 17.8003 4.41714 17.8852ZM4.59198 7.55847C6.03954 8.91581 7.82796 10.0047 9.78482 10.4625C10.45 10.6181 11.1498 10.4676 11.6922 10.0524C12.2347 9.63719 12.5626 9.00088 12.5861 8.31819C12.6179 7.39166 12.9492 6.71025 13.3991 6.26772C13.8424 5.83164 14.5298 5.5 15.5226 5.5C16.2868 5.5 16.7445 5.63876 17.0328 5.78684C17.313 5.93077 17.5624 6.1495 17.8134 6.51607C18.0355 6.84041 18.3337 7.09667 18.6751 7.26756C18.5326 7.57029 18.4577 7.90212 18.4577 8.2398C18.4577 11.3128 17.5494 13.7335 16.0574 15.3611C14.5894 16.9626 12.3621 18.011 9.26123 18.011C7.79787 18.011 6.84338 17.6974 6.14922 17.2917C6.7296 16.9867 7.1573 16.4422 7.30961 15.7914C7.49205 15.0118 7.25274 14.1937 6.67896 13.6353C4.90159 11.9057 4.23756 9.66525 4.59198 7.55847Z" fill="black"/>
</svg>
