<svg width="24" height="24" viewBox="0 0 24 24" fill="none" xmlns="http://www.w3.org/2000/svg">
<path d="M6.01718 9.33319L11.5 4.4954V7.49497L7.71693 10.833L6.01718 9.33319ZM13 7.49494V4.49537L18.4829 9.33319L16.7831 10.833L13 7.49494ZM6.58335 11.8332L5.5 12.7891V10.8773L6.58335 11.8332ZM4.17493 8.95827C4.02825 9.08769 3.97694 9.28167 4.02101 9.45625C4.00728 9.513 4 9.57227 4 9.63324V14.1332C4 14.1769 4.00373 14.2197 4.01089 14.2613C3.98777 14.4217 4.04245 14.5912 4.17493 14.7081L11.9192 21.5413C12.1082 21.7081 12.3918 21.7081 12.5808 21.5413L20.3251 14.7081C20.4576 14.5912 20.5123 14.4216 20.4891 14.2612C20.4963 14.2196 20.5 14.1769 20.5 14.1332V9.63324C20.5 9.5723 20.4927 9.51305 20.479 9.45633C20.5231 9.28172 20.4718 9.08771 20.3251 8.95827L12.5808 2.12508C12.3918 1.95831 12.1082 1.95831 11.9192 2.12508L4.17493 8.95827ZM19 10.8773V12.7891L17.9167 11.8332L19 10.8773ZM16.7831 12.8334L18.4829 14.3332L13 19.171V16.1714L16.7831 12.8334ZM11.5 16.1714V19.171L6.01718 14.3332L7.71693 12.8334L11.5 16.1714ZM15.6495 11.8332L12.25 14.8328L8.85051 11.8332L12.25 8.83362L15.6495 11.8332Z" fill="black"/>
</svg>
