<svg width="24" height="24" viewBox="0 0 24 24" fill="none" xmlns="http://www.w3.org/2000/svg">
<path d="M3 10.8591C3 15.7435 6.90718 19.7182 11.75 19.7182C12.269 19.7182 12.7762 19.6717 13.2695 19.5836C13.6056 20.0881 14.0285 20.5533 14.587 20.9005C15.331 21.363 16.245 21.5727 17.3685 21.4775C18.2161 21.4056 18.7573 20.6723 18.7573 19.9235C18.7573 19.1763 18.2568 18.6006 17.6904 18.3445C17.4463 18.2341 17.2091 18.0955 17.0163 17.9324C19.1336 16.3156 20.4999 13.7462 20.4999 10.858C20.4999 5.97691 16.5916 2 11.75 2C6.90705 2 3 5.97705 3 10.8591ZM11.75 3.5C15.7442 3.5 18.9999 6.78617 18.9999 10.858C18.9999 13.5073 17.6215 15.8277 15.5549 17.1221C15.2402 17.3192 15.1171 17.7169 15.2654 18.0573C15.6619 18.9672 16.537 19.4691 17.0724 19.7113C17.1373 19.7406 17.1888 19.7846 17.2205 19.8285C17.2508 19.8704 17.2573 19.9027 17.2573 19.9235C17.2573 19.952 17.2469 19.9723 17.2389 19.9816C17.2384 19.9822 17.2379 19.9827 17.2375 19.9832C16.3817 20.055 15.8032 19.8903 15.379 19.6266C14.9432 19.3557 14.5988 18.9358 14.2928 18.3787C14.1294 18.0812 13.7865 17.9305 13.4568 18.0114C12.9084 18.146 12.3384 18.2182 11.75 18.2182C7.75465 18.2182 4.5 14.9343 4.5 10.8591C4.5 6.78604 7.75478 3.5 11.75 3.5ZM11.8107 5.53402C13.5117 5.53402 15.1477 7.30584 15.1479 9.84321C15.1479 9.84334 15.1479 9.84307 15.1479 9.84321L15.1468 11.9324C15.1468 12.8014 14.945 13.6017 14.6075 14.269C13.8211 13.6614 12.8131 13.1961 11.6208 13.0826C10.6626 12.9914 10.01 13.7996 10.01 14.6051C10.01 15.2051 10.3325 15.6718 10.7027 15.9873C9.46369 15.4133 8.4758 13.9037 8.4758 11.9312V9.84321C8.4758 7.30505 10.1101 5.53402 11.8107 5.53402ZM6.9758 9.84321V11.9312C6.9758 14.9811 8.99791 17.7393 11.8107 17.7393C12.2133 17.7393 12.5998 17.6796 12.9703 17.5702C13.1911 17.505 13.3698 17.342 13.4549 17.1281C13.54 16.9141 13.5221 16.673 13.4063 16.4739C12.9456 15.6816 12.3675 15.2262 11.8625 14.971C11.7449 14.9116 11.6436 14.8298 11.579 14.7486C11.5156 14.6687 11.51 14.6201 11.51 14.6051C11.51 14.595 11.5115 14.5863 11.5138 14.5793C12.6637 14.6983 13.587 15.2622 14.2179 15.9351C14.3682 16.0955 14.5814 16.1818 14.801 16.1713C15.0205 16.1607 15.2244 16.0544 15.3588 15.8804C16.1653 14.8353 16.6467 13.4421 16.6468 11.9324C16.6468 11.9322 16.6468 11.9325 16.6468 11.9324L16.6479 9.84321C16.6479 6.79172 14.6232 4.03402 11.8107 4.03402C8.99782 4.03402 6.9758 6.7923 6.9758 9.84321Z" fill="black"/>
</svg>
