<svg width="24" height="24" viewBox="0 0 24 24" fill="none" xmlns="http://www.w3.org/2000/svg">
<path d="M14.9241 15.4475C14.1509 15.4475 13.5241 16.0743 13.5241 16.8475V16.8782L11.2794 15.6251C11.0708 15.5087 10.8358 15.4475 10.5969 15.4475H6C5.11634 15.4475 4.4 14.7312 4.4 13.8475V9C4.4 8.11634 5.11634 7.4 6 7.4H18C18.8837 7.4 19.6 8.11634 19.6 9V13.8475C19.6 14.7312 18.8837 15.4475 18 15.4475H14.9241ZM6 16.8475H10.5969L14.1803 18.848C14.5136 19.034 14.9241 18.7931 14.9241 18.4114V18.2475V16.8475H16.3241H18C19.6569 16.8475 21 15.5044 21 13.8475V9C21 7.34315 19.6569 6 18 6H6C4.34315 6 3 7.34315 3 9V13.8475C3 15.5044 4.34314 16.8475 6 16.8475ZM11.0007 10.1585C11.2045 9.79787 11.0774 9.34032 10.7168 9.13651C10.3562 8.93269 9.89869 9.05979 9.69487 9.42039C9.43605 9.8783 9.27073 10.4691 9.16284 11.0499C9.11614 10.8869 9.08126 10.7446 9.05838 10.6348C8.99056 10.3093 8.71653 10.0673 8.38514 10.0402C8.05374 10.0132 7.7441 10.2076 7.62442 10.5178C7.46294 10.9363 7.23488 11.4861 7.00267 11.9794C6.9883 11.9157 6.97394 11.851 6.95962 11.7856C6.8071 11.0888 6.66477 10.3321 6.58066 9.84951C6.50953 9.44145 6.12107 9.16831 5.713 9.23944C5.30494 9.31057 5.03181 9.69903 5.10294 10.1071C5.18971 10.6049 5.33608 11.3834 5.49431 12.1063C5.57333 12.4673 5.65676 12.8212 5.73854 13.1222C5.81516 13.4041 5.90544 13.6984 6.00742 13.9023C6.06365 14.0148 6.16844 14.1717 6.35689 14.2816C6.56301 14.4017 6.78455 14.4164 6.96967 14.3748C7.2673 14.308 7.46248 14.1001 7.54076 14.0129C7.74034 13.7907 7.93299 13.461 8.09702 13.1487C8.1456 13.0563 8.1945 12.9598 8.24327 12.8606C8.47413 13.3481 8.77699 13.8554 9.16268 14.2518C9.37743 14.4725 9.70528 14.5395 9.98942 14.4208C10.2736 14.3021 10.4562 14.0217 10.4501 13.7138C10.4417 13.2957 10.462 12.5956 10.551 11.8877C10.6431 11.1541 10.7968 10.5193 11.0007 10.1585ZM13.024 11.1799C13.1706 11.0423 13.2533 11.0579 13.2581 11.0589C13.263 11.06 13.3448 11.0796 13.4222 11.2651C13.4982 11.4473 13.5342 11.7259 13.4654 12.0471C13.3967 12.3684 13.2497 12.6077 13.1058 12.7429C12.9592 12.8804 12.8765 12.8648 12.8717 12.8638C12.8668 12.8628 12.785 12.8431 12.7076 12.6576C12.6316 12.4754 12.5956 12.1968 12.6644 11.8756C12.7331 11.5544 12.8801 11.315 13.024 11.1799ZM11.9975 10.0861C11.6043 10.4552 11.3223 10.9793 11.1976 11.5615C11.0729 12.1437 11.1156 12.7374 11.3232 13.2351C11.5295 13.7296 11.9362 14.1975 12.5576 14.3306C13.179 14.4636 13.7417 14.2032 14.1323 13.8366C14.5255 13.4676 14.8075 12.9434 14.9322 12.3612C15.0569 11.779 15.0142 11.1853 14.8066 10.6876C14.6003 10.1932 14.1936 9.72524 13.5722 9.59219C12.9508 9.45913 12.3882 9.71949 11.9975 10.0861ZM16.8665 11.8756C16.9353 11.5544 17.0822 11.315 17.2262 11.1799C17.3727 11.0423 17.4554 11.0579 17.4603 11.0589C17.4651 11.06 17.547 11.0796 17.6243 11.2651C17.7004 11.4473 17.7364 11.7259 17.6676 12.0471C17.5988 12.3684 17.4519 12.6077 17.3079 12.7429C17.1614 12.8804 17.0787 12.8648 17.0738 12.8638C17.069 12.8628 16.9871 12.8431 16.9098 12.6576C16.8337 12.4754 16.7977 12.1968 16.8665 11.8756ZM17.7743 9.59219C17.153 9.45913 16.5903 9.71949 16.1997 10.0861C15.8065 10.4552 15.5244 10.9793 15.3998 11.5615C15.2751 12.1437 15.3178 12.7374 15.5254 13.2351C15.7317 13.7296 16.1384 14.1975 16.7598 14.3306C17.3811 14.4636 17.9438 14.2032 18.3344 13.8366C18.7276 13.4676 19.0097 12.9434 19.1343 12.3612C19.259 11.779 19.2163 11.1853 19.0087 10.6876C18.8025 10.1932 18.3957 9.72524 17.7743 9.59219Z" fill="black"/>
</svg>
