<svg width="24" height="24" viewBox="0 0 24 24" fill="none" xmlns="http://www.w3.org/2000/svg">
<path d="M3 11.75C3 16.5818 6.91819 20.5 11.75 20.5C16.5818 20.5 20.5 16.5818 20.5 11.75C20.5 11.3358 20.1642 11 19.75 11H13.25C12.8358 11 12.5 11.3358 12.5 11.75C12.5 12.1642 12.8358 12.5 13.25 12.5H18.9617C18.5862 16.1511 15.5001 19 11.75 19C7.74661 19 4.5 15.7534 4.5 11.75C4.5 7.74661 7.74661 4.5 11.75 4.5C13.5163 4.5 15.1317 5.13151 16.3893 6.18168C16.7072 6.44717 17.1802 6.40466 17.4457 6.08673C17.7112 5.76879 17.6687 5.29582 17.3507 5.03032C15.8339 3.76369 13.8813 3 11.75 3C6.91819 3 3 6.91819 3 11.75Z" fill="black"/>
</svg>
