<svg width="24" height="24" viewBox="0 0 24 24" fill="none" xmlns="http://www.w3.org/2000/svg">
<path d="M9.85721 3.48715L9.74716 3.61661L9.69773 3.6859C8.93871 3.16503 7.88849 3.23129 7.21306 3.95565C6.72061 4.48378 6.59238 5.2389 6.80183 5.91452C6.52409 6.01312 6.26314 6.17962 6.04227 6.4165C5.4189 7.08502 5.37916 8.11729 5.8686 8.89513L5.96045 9.02963L6.9858 10.4144C6.75251 10.5156 6.53398 10.6669 6.34484 10.8697C5.72148 11.5382 5.68174 12.5705 6.17118 13.3483L6.26303 13.4828L9.42503 17.759L9.40722 17.7301C12.0952 21.9944 15.6777 22.3247 19.7005 18.7148C21.193 17.2752 21.8662 15.3045 21.9818 12.9352C22.009 12.3781 22.0048 11.8326 21.9756 11.2402L21.866 9.60408L21.8614 9.4907C21.8572 8.46191 21.2454 7.8418 20.4017 7.59459C20.1571 7.52291 19.9446 7.4959 19.7927 7.49241C19.5313 7.4864 19.2895 7.62178 19.1531 7.84266L19.1014 7.9424L17.9543 10.6221L12.8191 3.67962C12.0959 2.70164 10.691 2.59297 9.85721 3.48715ZM11.5841 4.51456L11.6435 4.58234L17.537 12.5517C17.8548 12.9815 18.4883 12.9348 18.7519 12.4936L18.7994 12.4002L20.2017 9.1231L20.2412 9.14864L20.2956 9.19888C20.3435 9.25313 20.372 9.32007 20.3835 9.40533L20.3889 9.49L20.3899 9.48216L20.415 9.78037L20.4839 11.0376L20.5088 11.7101L20.5203 12.3435L20.516 12.7465C20.5148 12.7864 20.5133 12.8246 20.5116 12.8607C20.413 14.8796 19.8616 16.494 18.7082 17.6072L18.4998 17.7909C15.2518 20.6027 12.7821 20.3085 10.6458 16.9195L10.6243 16.891L10.6142 16.8742L7.43866 12.5801C7.26969 12.3516 7.27121 12.0539 7.412 11.9029L7.4837 11.8403C7.66143 11.7152 7.90524 11.7368 8.07173 11.8971L8.12962 11.963L9.76005 14.1676C10.0047 14.4984 10.4662 14.5645 10.7908 14.3152C11.0884 14.0867 11.1677 13.6725 10.9904 13.3503L10.9357 13.2649L7.13608 8.12691C6.96711 7.89841 6.96864 7.60069 7.10942 7.44971C7.28761 7.25861 7.57888 7.26066 7.76915 7.44391L7.82854 7.51169L11.1436 11.9945C11.3883 12.3253 11.8497 12.3914 12.1744 12.1421C12.472 11.9136 12.5513 11.4994 12.374 11.1771L12.3192 11.0917L9.00417 6.60896L8.94808 6.538L8.92303 6.49925L8.30687 5.66606C8.1379 5.43756 8.13943 5.13985 8.28021 4.98886C8.4584 4.79777 8.74967 4.79981 8.93994 4.98306L8.99933 5.05084L9.77341 6.097L9.7754 6.10028L12.2543 9.452L12.6827 10.0317C12.9274 10.3625 13.3889 10.4286 13.7135 10.1793C14.0111 9.95081 14.0904 9.53663 13.9131 9.21438L13.8584 9.12898L10.9471 5.192L10.951 5.19756C10.7821 4.96906 10.7836 4.67134 10.9244 4.52036C11.1026 4.32927 11.3938 4.33131 11.5841 4.51456ZM2.5922 14.1023L2.68795 14.1061C2.36508 14.0665 2.07185 14.3012 2.03301 14.6302C1.72989 17.1974 3.54868 19.4061 6.08242 19.5477C6.40713 19.5658 6.6848 19.3123 6.70261 18.9815C6.72042 18.6506 6.47163 18.3676 6.14692 18.3495C4.29262 18.2459 2.98038 16.6523 3.20222 14.7735C3.24106 14.4445 3.01081 14.1457 2.68795 14.1061L2.5922 14.1023ZM4.57586 14.2129L4.67161 14.2167C4.34874 14.1771 4.05551 14.4117 4.01666 14.7407C3.84479 16.1964 4.88082 17.4546 6.31755 17.5349C6.64226 17.553 6.91992 17.2995 6.93774 16.9686C6.95555 16.6378 6.70676 16.3548 6.38205 16.3367C5.62476 16.2943 5.09528 15.6514 5.18587 14.8841C5.22472 14.5551 4.99447 14.2563 4.67161 14.2167L4.57586 14.2129ZM15.5021 2.00012C15.1769 1.99353 14.9081 2.25676 14.9016 2.58807C14.8952 2.91938 15.1535 3.19329 15.4786 3.19988C17.3353 3.23752 18.7014 4.78344 18.544 6.66897C18.5165 6.99915 18.7568 7.28958 19.0808 7.31765C19.4049 7.34573 19.6899 7.10083 19.7174 6.77065C19.9324 4.19422 18.0391 2.05154 15.5021 2.00012ZM15.3334 4.01716C15.0083 4.01057 14.7395 4.2738 14.733 4.60511C14.7266 4.93641 14.9849 5.21033 15.31 5.21692C16.0683 5.23229 16.6195 5.85606 16.5552 6.62611C16.5277 6.95629 16.768 7.24671 17.092 7.27479C17.416 7.30286 17.7011 7.05796 17.7286 6.72778C17.8505 5.26685 16.772 4.04632 15.3334 4.01716Z" fill="black"/>
</svg>
