<svg width="24" height="24" viewBox="0 0 24 24" fill="none" xmlns="http://www.w3.org/2000/svg">
<path d="M7.25 6.25V6.75H5.5C4.11929 6.75 3 7.86929 3 9.25V18.25C3 19.6307 4.11929 20.75 5.5 20.75H18.5C19.8807 20.75 21 19.6307 21 18.25V9.25C21 7.86929 19.8807 6.75 18.5 6.75H16.75V6.25C16.75 4.45508 15.2949 3 13.5 3H10.5C8.70507 3 7.25 4.45508 7.25 6.25ZM15.25 6.25V6.75H8.75V6.25C8.75 5.2835 9.5335 4.5 10.5 4.5H13.5C14.4665 4.5 15.25 5.2835 15.25 6.25ZM18.5 8.25C19.0523 8.25 19.5 8.69772 19.5 9.25V18.25C19.5 18.8023 19.0523 19.25 18.5 19.25H5.5C4.94772 19.25 4.5 18.8023 4.5 18.25V9.25C4.5 8.69772 4.94772 8.25 5.5 8.25H18.5ZM8.75 10.75C8.75 10.3358 8.41421 10 8 10C7.58579 10 7.25 10.3358 7.25 10.75V16.9722C7.25 17.3864 7.58579 17.7222 8 17.7222C8.41421 17.7222 8.75 17.3864 8.75 16.9722V10.75ZM16.75 10.75C16.75 10.3358 16.4142 10 16 10C15.5858 10 15.25 10.3358 15.25 10.75V16.9722C15.25 17.3864 15.5858 17.7222 16 17.7222C16.4142 17.7222 16.75 17.3864 16.75 16.9722V10.75Z" fill="black"/>
</svg>
