<svg width="24" height="24" viewBox="0 0 24 24" fill="none" xmlns="http://www.w3.org/2000/svg">
<path d="M18 3.5C19.3807 3.5 20.5 4.61929 20.5 6V18C20.5 19.3807 19.3807 20.5 18 20.5H6C4.61929 20.5 3.5 19.3807 3.5 18V6C3.5 4.61929 4.61929 3.5 6 3.5H18ZM6 2C3.79086 2 2 3.79086 2 6V18C2 20.2091 3.79086 22 6 22H18C20.2091 22 22 20.2091 22 18V6C22 3.79086 20.2091 2 18 2H6Z" fill="black"/>
<path d="M11.1016 17.4521C11.1016 17.8664 11.4373 18.2021 11.8516 18.2021H15.9997C16.4139 18.2021 16.7497 17.8664 16.7497 17.4521C16.7497 17.0379 16.4139 16.7021 15.9997 16.7021H11.8516C11.4373 16.7021 11.1016 17.0379 11.1016 17.4521Z" fill="black"/>
<path d="M7.47977 10.7596C7.1814 11.0469 7.17244 11.5217 7.45976 11.82L9.92172 14.3767L7.45976 16.9333C7.17244 17.2317 7.1814 17.7065 7.47977 17.9938C7.77814 18.2811 8.25292 18.2722 8.54024 17.9738L11.5032 14.8969C11.7828 14.6065 11.7828 14.1469 11.5032 13.8565L8.54024 10.7796C8.25292 10.4812 7.77814 10.4722 7.47977 10.7596Z" fill="black"/>
<path d="M2.25 7.5C2.25 7.91421 2.58579 8.25 3 8.25H21C21.4142 8.25 21.75 7.91421 21.75 7.5C21.75 7.08579 21.4142 6.75 21 6.75H3C2.58579 6.75 2.25 7.08579 2.25 7.5Z" fill="black"/>
<path d="M6.5 5.25C6.5 4.83579 6.16421 4.5 5.75 4.5C5.33579 4.5 5 4.83579 5 5.25C5 5.66421 5.33579 6 5.75 6C6.16421 6 6.5 5.66421 6.5 5.25Z" fill="black"/>
<path d="M8.5 5.25C8.5 4.83579 8.16421 4.5 7.75 4.5C7.33579 4.5 7 4.83579 7 5.25C7 5.66421 7.33579 6 7.75 6C8.16421 6 8.5 5.66421 8.5 5.25Z" fill="black"/>
</svg>
