<svg width="24" height="24" viewBox="0 0 24 24" fill="none" xmlns="http://www.w3.org/2000/svg">
<path d="M18 3.5C19.3807 3.5 20.5 4.61929 20.5 6V18C20.5 19.3807 19.3807 20.5 18 20.5H6C4.61929 20.5 3.5 19.3807 3.5 18V6C3.5 4.61929 4.61929 3.5 6 3.5H18ZM6 2C3.79086 2 2 3.79086 2 6V18C2 20.2091 3.79086 22 6 22H18C20.2091 22 22 20.2091 22 18V6C22 3.79086 20.2091 2 18 2H6Z" fill="black"/>
<path d="M12.7858 11.0677C12.3815 10.9777 11.9808 11.2326 11.8909 11.6369L10.6449 17.2369C10.5549 17.6412 10.8097 18.0419 11.2141 18.1319C11.6184 18.2219 12.0191 17.967 12.1091 17.5627L13.3551 11.9627C13.445 11.5584 13.1902 11.1577 12.7858 11.0677Z" fill="black"/>
<path d="M14.5693 12.6689C14.2764 12.9618 14.2764 13.4367 14.5693 13.7295L15.4389 14.5992L14.5693 15.4689C14.2764 15.7618 14.2764 16.2367 14.5693 16.5295C14.8622 16.8224 15.337 16.8224 15.6299 16.5295L17.0299 15.1295C17.3228 14.8367 17.3228 14.3618 17.0299 14.0689L15.6299 12.6689C15.337 12.376 14.8622 12.376 14.5693 12.6689Z" fill="black"/>
<path d="M9.43033 12.6689C9.13744 12.376 8.66256 12.376 8.36967 12.6689L6.96967 14.0689C6.67678 14.3618 6.67678 14.8367 6.96967 15.1295L8.36967 16.5295C8.66256 16.8224 9.13744 16.8224 9.43033 16.5295C9.72322 16.2367 9.72322 15.7618 9.43033 15.4689L8.56066 14.5992L9.43033 13.7295C9.72322 13.4367 9.72322 12.9618 9.43033 12.6689Z" fill="black"/>
<path d="M2.25 8C2.25 8.41421 2.58579 8.75 3 8.75H21C21.4142 8.75 21.75 8.41421 21.75 8C21.75 7.58579 21.4142 7.25 21 7.25H3C2.58579 7.25 2.25 7.58579 2.25 8Z" fill="black"/>
<path d="M6.5 5.4502C6.5 5.03598 6.16421 4.7002 5.75 4.7002C5.33579 4.7002 5 5.03598 5 5.4502C5 5.86441 5.33579 6.2002 5.75 6.2002C6.16421 6.2002 6.5 5.86441 6.5 5.4502Z" fill="black"/>
<path d="M8.5 5.4502C8.5 5.03598 8.16421 4.7002 7.75 4.7002C7.33579 4.7002 7 5.03598 7 5.4502C7 5.86441 7.33579 6.2002 7.75 6.2002C8.16421 6.2002 8.5 5.86441 8.5 5.4502Z" fill="black"/>
</svg>
