<svg width="24" height="24" viewBox="0 0 24 24" fill="none" xmlns="http://www.w3.org/2000/svg">
<path d="M18.7457 5.33142L19.2174 5.56715L17.6287 7.15589H16.25V5.77721L17.8387 4.18847L18.0745 4.66017C18.2197 4.95069 18.4552 5.18624 18.7457 5.33142ZM15.809 8.65589H18.25L21.2594 5.64653C21.5007 5.40518 21.4346 4.9983 21.1293 4.84572L19.4163 3.98963L18.5602 2.27657C18.4076 1.97125 18.0007 1.90518 17.7594 2.14653L14.75 5.15589V7.59685C14.7397 7.60609 14.7296 7.61566 14.7197 7.62557L10.7497 11.5958C10.4568 11.8887 10.4568 12.3635 10.7497 12.6564C11.0426 12.9493 11.5175 12.9493 11.8104 12.6564L15.7803 8.68621C15.7902 8.67631 15.7998 8.66619 15.809 8.65589ZM3.5 12.1301C3.5 7.83535 6.98121 4.35413 11.276 4.35413C11.6902 4.35413 12.026 4.01835 12.026 3.60413C12.026 3.18992 11.6902 2.85413 11.276 2.85413C6.15279 2.85413 2 7.00692 2 12.1301C2 17.2535 6.1539 21.4061 11.277 21.4061C16.4002 21.4061 20.553 17.2533 20.553 12.1301C20.553 11.7159 20.2172 11.3801 19.803 11.3801C19.3888 11.3801 19.053 11.7159 19.053 12.1301C19.053 16.4249 15.5718 19.9061 11.277 19.9061C6.9821 19.9061 3.5 16.4248 3.5 12.1301ZM7.28906 12.1297C7.28906 9.92792 9.07428 8.14271 11.2761 8.14271C11.6903 8.14271 12.0261 7.80692 12.0261 7.39271C12.0261 6.97849 11.6903 6.64271 11.2761 6.64271C8.24585 6.64271 5.78906 9.09949 5.78906 12.1297C5.78906 15.1599 8.24585 17.6167 11.2761 17.6167C14.3063 17.6167 16.7631 15.1599 16.7631 12.1297C16.7631 11.7155 16.4273 11.3797 16.0131 11.3797C15.5989 11.3797 15.2631 11.7155 15.2631 12.1297C15.2631 14.3315 13.4778 16.1167 11.2761 16.1167C9.07428 16.1167 7.28906 14.3315 7.28906 12.1297Z" fill="black"/>
</svg>
