<svg width="24" height="24" viewBox="0 0 24 24" fill="none" xmlns="http://www.w3.org/2000/svg">
<path d="M14.5 14.416L14.5 14.4162L20.0567 18.1206C20.8878 18.674 22 18.0795 22 17.0806V4.25285C22 3.25396 20.8878 2.65841 20.0567 3.21174L14.5 6.91619L14.5 6.91602H5.75C3.67889 6.91602 2 8.5949 2 10.666C2 12.7371 3.67889 14.416 5.75 14.416H7L7.90667 19.8549C8.10444 21.0449 9.13333 21.916 10.3389 21.916C11.8622 21.916 13.0211 20.5482 12.7711 19.0449L12 14.416H14.5ZM5.75 8.41602H14.5L14.5 8.41634C14.7864 8.41661 15.0759 8.33502 15.3321 8.16426L20.5 4.71896V16.6134L15.3321 13.1681C15.0759 12.9974 14.7864 12.9158 14.5 12.916L14.5 12.916H5.75C4.50732 12.916 3.5 11.9087 3.5 10.666C3.5 9.42333 4.50732 8.41602 5.75 8.41602ZM10.4998 14.416C10.4999 14.4973 10.5066 14.5797 10.5204 14.6625L11.2914 19.291L11.2915 19.2914C11.3893 19.8809 10.9349 20.416 10.3389 20.416C9.86635 20.416 9.4638 20.0749 9.38637 19.609L9.38625 19.6083L8.5207 14.416H10.4998Z" fill="black"/>
</svg>
