<svg width="24" height="24" viewBox="0 0 24 24" fill="none" xmlns="http://www.w3.org/2000/svg">
<path d="M8.50009 2.75C8.50009 2.33579 8.16431 2 7.75009 2C7.33588 2 7.00009 2.33579 7.00009 2.75V3H5.7803C3.6596 3 2 4.79163 2 6.92647V9.38086V18.5735C2 20.7084 3.6596 22.5 5.7803 22.5H17.7197C19.8404 22.5 21.5 20.7084 21.5 18.5735V9.38086V6.92647C21.5 4.79163 19.8404 3 17.7197 3H16.4999V2.75C16.4999 2.33579 16.1641 2 15.7499 2C15.3357 2 14.9999 2.33579 14.9999 2.75V3H8.50009V2.75ZM7.00009 4.5V4.75C7.00009 5.16421 7.33588 5.5 7.75009 5.5C8.16431 5.5 8.50009 5.16421 8.50009 4.75V4.5H14.9999V4.75C14.9999 5.16421 15.3357 5.5 15.7499 5.5C16.1641 5.5 16.4999 5.16421 16.4999 4.75V4.5H17.7197C18.9462 4.5 20 5.55268 20 6.92647V8.63086H3.5V6.92647C3.5 5.55268 4.55383 4.5 5.7803 4.5H7.00009ZM3.5 10.1309H20V18.5735C20 19.9473 18.9462 21 17.7197 21H5.7803C4.55383 21 3.5 19.9473 3.5 18.5735V10.1309Z" fill="black"/>
</svg>
