<svg width="24" height="24" viewBox="0 0 24 24" fill="none" xmlns="http://www.w3.org/2000/svg">
<path d="M8.1052 8.04454C8.20296 7.93803 8.28619 7.8164 8.35099 7.6821L9.19915 5.9241C9.32425 5.6648 9.58674 5.5 9.87464 5.5H14.0955C14.3798 5.5 14.6396 5.66067 14.7666 5.91497L15.658 7.70036C15.9119 8.20896 16.4315 8.5303 17 8.5303H17.625C18.6605 8.5303 19.5 9.36977 19.5 10.4053V16.7866C19.5 17.5045 19.0965 18.1282 18.5039 18.4433L8.1052 8.04454ZM19.587 19.5331C20.4425 18.9208 21 17.9188 21 16.7866V10.4053C21 8.54134 19.489 7.0303 17.625 7.0303H17L16.1086 5.24491C15.7277 4.48202 14.9482 4 14.0955 4H9.87464C9.01094 4 8.22347 4.49441 7.84816 5.27231L7.0296 6.96894L4.53033 4.46967C4.23744 4.17678 3.76256 4.17678 3.46967 4.46967C3.17678 4.76256 3.17678 5.23744 3.46967 5.53033L5.1853 7.24596C3.90837 7.72705 3 8.9601 3 10.4053V16.7866C3 18.6506 4.51104 20.1616 6.375 20.1616H17.625C17.7764 20.1616 17.9255 20.1516 18.0717 20.1323L18.4697 20.5303C18.7626 20.8232 19.2374 20.8232 19.5303 20.5303C19.8029 20.2577 19.8218 19.8275 19.587 19.5331ZM16.601 18.6616H6.375C5.33947 18.6616 4.5 17.8221 4.5 16.7866V10.4053C4.5 9.36977 5.33947 8.5303 6.375 8.5303H6.46964L8.7134 10.7741C7.62931 12.3444 7.78077 14.5208 9.16777 15.9219C10.5645 17.3327 12.7398 17.4779 14.2968 16.3575L16.601 18.6616ZM13.213 15.2737C12.2663 15.8193 11.0427 15.6836 10.2337 14.8665C9.43021 14.0549 9.28665 12.8249 9.80306 11.8637L13.213 15.2737ZM14.3524 12.2917L15.9015 13.8408C16.1438 12.5723 15.7787 11.2088 14.8062 10.2264C13.8236 9.23385 12.4556 8.8677 11.1886 9.12799L12.719 10.6583C13.0924 10.7748 13.4441 10.9826 13.7403 11.2818C14.0303 11.5747 14.2343 11.9221 14.3524 12.2917Z" fill="black"/>
</svg>
