<svg width="24" height="24" viewBox="0 0 24 24" fill="none" xmlns="http://www.w3.org/2000/svg">
<path d="M10.2337 14.8665C9.25542 13.8783 9.25542 12.27 10.2337 11.2818C11.2038 10.3019 12.7702 10.3019 13.7403 11.2818C14.7186 12.27 14.7186 13.8783 13.7403 14.8665C12.7702 15.8464 11.2038 15.8464 10.2337 14.8665ZM9.16777 15.9219C10.7248 17.4946 13.2492 17.4946 14.8062 15.9219C16.3633 14.3491 16.3633 11.7992 14.8062 10.2264C13.2492 8.65369 10.7248 8.65369 9.16777 10.2264C7.61074 11.7992 7.61074 14.3491 9.16777 15.9219Z" fill="black"/>
<path d="M8.35099 7.6821L9.19915 5.9241C9.32425 5.6648 9.58674 5.5 9.87464 5.5H14.0955C14.3798 5.5 14.6396 5.66067 14.7666 5.91497L15.658 7.70036C15.9119 8.20896 16.4315 8.5303 17 8.5303H17.625C18.6605 8.5303 19.5 9.36977 19.5 10.4053V16.7866C19.5 17.8221 18.6605 18.6616 17.625 18.6616H6.375C5.33947 18.6616 4.5 17.8221 4.5 16.7866V10.4053C4.5 9.36977 5.33947 8.5303 6.375 8.5303H7C7.5758 8.5303 8.10078 8.2007 8.35099 7.6821ZM17 7.0303L16.1086 5.24491C15.7277 4.48202 14.9482 4 14.0955 4H9.87464C9.01094 4 8.22347 4.49441 7.84816 5.27231L7 7.0303H6.375C4.51104 7.0303 3 8.54134 3 10.4053V16.7866C3 18.6506 4.51104 20.1616 6.375 20.1616H17.625C19.489 20.1616 21 18.6506 21 16.7866V10.4053C21 8.54134 19.489 7.0303 17.625 7.0303H17Z" fill="black"/>
</svg>
