<svg width="24" height="24" viewBox="0 0 24 24" fill="none" xmlns="http://www.w3.org/2000/svg">
<path d="M12 19.5C7.85786 19.5 4.5 16.1421 4.5 12C4.5 10.2017 5.13294 8.55114 6.1882 7.25907L16.4782 18.0168C15.2285 18.9485 13.6787 19.5 12 19.5ZM17.5859 17.0048L7.24815 6.19713C8.54184 5.13651 10.1966 4.5 12 4.5C16.1421 4.5 19.5 7.85786 19.5 12C19.5 13.9232 18.7761 15.6774 17.5859 17.0048ZM3 12C3 16.9706 7.02944 21 12 21C16.9706 21 21 16.9706 21 12C21 7.02944 16.9706 3 12 3C7.02944 3 3 7.02944 3 12Z" fill="black"/>
</svg>
