<svg width="24" height="24" viewBox="0 0 24 24" fill="none" xmlns="http://www.w3.org/2000/svg">
<path d="M16.0618 11.1025C16.2896 11.672 16.8412 12.0455 17.4545 12.0455H20.5V14.5H19.0005C18.5826 14.186 18.0631 14 17.5 14C16.9369 14 16.4174 14.186 15.9995 14.5H8.00048C7.5826 14.186 7.06308 14 6.5 14C5.93692 14 5.4174 14.186 4.99952 14.5H3.5V12.0455H5.63636C6.24972 12.0455 6.80128 11.672 7.02908 11.1025L8.4701 7.5H14.6208L16.0618 11.1025ZM15.05 16C15.0172 16.1615 15 16.3288 15 16.5C15 17.881 16.119 19 17.5 19C18.881 19 20 17.881 20 16.5C20 16.3288 19.9828 16.1615 19.95 16H21.5C21.7761 16 22 15.7761 22 15.5V11.5455C22 10.9932 21.5523 10.5455 21 10.5455H17.4545L15.8878 6.62861C15.7359 6.24895 15.3682 6 14.9593 6H8.13158C7.72267 6 7.35497 6.24895 7.2031 6.62861L5.63636 10.5455H3C2.44772 10.5455 2 10.9932 2 11.5455V15.5C2 15.7761 2.22386 16 2.5 16H4.04998C4.0172 16.1615 4 16.3288 4 16.5C4 17.881 5.119 19 6.5 19C7.881 19 9 17.881 9 16.5C9 16.3288 8.9828 16.1615 8.95002 16H15.05ZM11.8405 8.72729C11.8405 8.31308 11.5047 7.97729 11.0905 7.97729C10.6763 7.97729 10.3405 8.31308 10.3405 8.72729V10.5455C10.3405 10.9597 10.6763 11.2955 11.0905 11.2955H13.8178C14.232 11.2955 14.5678 10.9597 14.5678 10.5455C14.5678 10.1313 14.232 9.79548 13.8178 9.79548H11.8405V8.72729ZM6.5 15.5C7.05257 15.5 7.5 15.9474 7.5 16.5C7.5 17.0526 7.05257 17.5 6.5 17.5C5.94743 17.5 5.5 17.0526 5.5 16.5C5.5 15.9474 5.94743 15.5 6.5 15.5ZM16.5 16.5C16.5 15.9474 16.9474 15.5 17.5 15.5C18.0526 15.5 18.5 15.9474 18.5 16.5C18.5 17.0526 18.0526 17.5 17.5 17.5C16.9474 17.5 16.5 17.0526 16.5 16.5Z" fill="black"/>
</svg>
