<svg width="24" height="24" viewBox="0 0 24 24" fill="none" xmlns="http://www.w3.org/2000/svg">
<path d="M4.6312 7.99092C4.94263 7.12177 5.77367 6.5 6.74994 6.5H17.3882C18.6308 6.5 19.6382 7.50736 19.6382 8.75L19.6382 16.153C19.6382 17.3957 18.6308 18.403 17.3882 18.403H15.0993L15.0994 18.4483C15.0994 18.9419 15.0652 19.4276 14.9991 19.903H17.3882C19.4593 19.903 21.1382 18.2241 21.1382 16.153L21.1382 8.75C21.1382 6.67893 19.4592 5 17.3882 5H6.74994C4.89682 5 3.35765 6.34416 3.05422 8.11068C3.56852 8.03234 4.09514 7.99146 4.6312 7.99092ZM3.75 13.3189C3.33579 13.3189 3 13.6547 3 14.0689C3 14.4831 3.33579 14.8189 3.75 14.8189C6.09274 14.8189 7.99147 16.7176 7.99147 19.0604C7.99147 19.4746 8.32726 19.8104 8.74147 19.8104C9.15569 19.8104 9.49147 19.4746 9.49147 19.0604C9.49147 15.8892 6.92117 13.3189 3.75 13.3189ZM3.00002 10.7412C3.00002 11.1554 3.33581 11.4912 3.75002 11.4912C7.93046 11.4912 11.3191 14.8799 11.3191 19.0603C11.3191 19.4745 11.6549 19.8103 12.0691 19.8103C12.4834 19.8103 12.8191 19.4745 12.8191 19.0603C12.8191 14.0515 8.75889 9.99121 3.75002 9.99121C3.33581 9.99121 3.00002 10.327 3.00002 10.7412ZM4.55422 19.5C5.38265 19.5 6.05422 18.8284 6.05422 18C6.05422 17.1716 5.38265 16.5 4.55422 16.5C3.72579 16.5 3.05422 17.1716 3.05422 18C3.05422 18.8284 3.72579 19.5 4.55422 19.5Z" fill="black"/>
</svg>
