<svg width="24" height="24" viewBox="0 0 24 24" fill="none" xmlns="http://www.w3.org/2000/svg">
<path d="M5.75 3C3.67893 3 2 4.67893 2 6.75V14.75C2 16.8211 3.67893 18.5 5.75 18.5H7C7.41421 18.5 7.75 18.1642 7.75 17.75C7.75 17.3358 7.41421 17 7 17H5.75C4.50736 17 3.5 15.9926 3.5 14.75V6.75C3.5 5.50736 4.50736 4.5 5.75 4.5H17.75C18.9926 4.5 20 5.50736 20 6.75V14.75C20 15.9926 18.9926 17 17.75 17H16C15.5858 17 15.25 17.3358 15.25 17.75C15.25 18.1642 15.5858 18.5 16 18.5H17.75C19.8211 18.5 21.5 16.8211 21.5 14.75V6.75C21.5 4.67893 19.8211 3 17.75 3H5.75ZM7.75 14.05C7.75 15.3959 8.41464 16.5864 9.43359 17.3115V21.05C9.43359 21.2948 9.55299 21.5241 9.75348 21.6645C9.95396 21.8048 10.2103 21.8385 10.4403 21.7548L11.7459 21.2792L13.0516 21.7548C13.2816 21.8385 13.5379 21.8048 13.7384 21.6645C13.9389 21.5241 14.0583 21.2948 14.0583 21.05V17.3172C15.0818 16.5928 15.75 15.3994 15.75 14.05C15.75 11.8409 13.9591 10.05 11.75 10.05C9.54086 10.05 7.75 11.8409 7.75 14.05ZM12.5583 19.9787L12.0026 19.7763C11.8368 19.7159 11.655 19.7159 11.4893 19.7763L10.9336 19.9787V17.9667C11.1972 18.0213 11.4702 18.05 11.75 18.05C12.0269 18.05 12.2972 18.0219 12.5583 17.9683V19.9787ZM11.75 16.55C10.3693 16.55 9.25 15.4308 9.25 14.05C9.25 12.6693 10.3693 11.55 11.75 11.55C13.1307 11.55 14.25 12.6693 14.25 14.05C14.25 15.4308 13.1307 16.55 11.75 16.55ZM9.75 7.5C9.33579 7.5 9 7.83579 9 8.25C9 8.66421 9.33579 9 9.75 9H13.75C14.1642 9 14.5 8.66421 14.5 8.25C14.5 7.83579 14.1642 7.5 13.75 7.5H9.75Z" fill="black"/>
</svg>
