<svg width="24" height="24" viewBox="0 0 24 24" fill="none" xmlns="http://www.w3.org/2000/svg">
<path d="M2.75 3C2.33579 3 2 3.33579 2 3.75V17.75C2 19.2688 3.23122 20.5 4.75 20.5H20.75C21.1642 20.5 21.5 20.1642 21.5 19.75C21.5 19.3358 21.1642 19 20.75 19H4.75C4.05964 19 3.5 18.4404 3.5 17.75V3.75C3.5 3.33579 3.16421 3 2.75 3Z" fill="black"/>
<path d="M19.8803 8.21967C19.5874 7.92678 19.1126 7.92678 18.8197 8.21967L13.05 13.9893L10.8803 11.8197C10.5874 11.5268 10.1126 11.5268 9.81967 11.8197L6.21967 15.4197C5.92678 15.7126 5.92678 16.1874 6.21967 16.4803C6.51256 16.7732 6.98744 16.7732 7.28033 16.4803L10.35 13.4107L12.5197 15.5803C12.8126 15.8732 13.2874 15.8732 13.5803 15.5803L19.8803 9.28033C20.1732 8.98744 20.1732 8.51256 19.8803 8.21967Z" fill="black"/>
<path d="M15 8.75C15 9.16421 15.3358 9.5 15.75 9.5H18.6V12.35C18.6 12.7642 18.9358 13.1 19.35 13.1C19.7642 13.1 20.1 12.7642 20.1 12.35V8.75C20.1 8.33579 19.7642 8 19.35 8H15.75C15.3358 8 15 8.33579 15 8.75Z" fill="black"/>
</svg>
