<svg width="24" height="24" viewBox="0 0 24 24" fill="none" xmlns="http://www.w3.org/2000/svg">
<path d="M2.75 2C2.33579 2 2 2.33579 2 2.75V18.75C2 20.2688 3.23122 21.5 4.75 21.5H20.75C21.1642 21.5 21.5 21.1642 21.5 20.75C21.5 20.3358 21.1642 20 20.75 20H4.75C4.05964 20 3.5 19.4404 3.5 18.75V2.75C3.5 2.33579 3.16421 2 2.75 2Z" fill="black"/>
<path d="M10.8081 13.3932L12.6981 10.0255L15.2679 10.8977C15.8436 11.0931 16.4802 10.9217 16.88 10.4638L19.25 7.749V16.25H7.25V13.4795L9.01792 14.0795C9.70205 14.3117 10.4545 14.0232 10.8081 13.3932ZM9.5 12.6591L7.07139 11.8348C6.42287 11.6147 5.75 12.0969 5.75 12.7818V16.25C5.75 17.0784 6.42157 17.75 7.25 17.75H19.25C20.0784 17.75 20.75 17.0784 20.75 16.25V6.416C20.75 5.49208 19.6043 5.06234 18.9967 5.75835L15.75 9.47727L12.7868 8.47158C12.3307 8.31679 11.8291 8.5091 11.5934 8.92911L9.5 12.6591Z" fill="black"/>
</svg>
