<svg width="24" height="24" viewBox="0 0 24 24" fill="none" xmlns="http://www.w3.org/2000/svg">
<path d="M14.6992 4.5H16.4886L11.9992 8.98934L9.82955 6.81967C9.53666 6.52678 9.06178 6.52678 8.76889 6.81967L5.16889 10.4197C4.876 10.7126 4.876 11.1874 5.16889 11.4803C5.46178 11.7732 5.93666 11.7732 6.22955 11.4803L9.29922 8.41066L11.4689 10.5803C11.7618 10.8732 12.2367 10.8732 12.5295 10.5803L17.5492 5.56066V7.35C17.5492 7.76421 17.885 8.1 18.2992 8.1C18.7134 8.1 19.0492 7.76421 19.0492 7.35V3.75C19.0492 3.73706 19.0489 3.72419 19.0482 3.71141C19.0438 3.62376 19.0243 3.54009 18.9923 3.46291C18.9557 3.37445 18.9015 3.29158 18.8295 3.21967C18.7576 3.14776 18.6748 3.09351 18.5863 3.05691C18.4979 3.02024 18.4009 3 18.2992 3H14.6992C14.285 3 13.9492 3.33579 13.9492 3.75C13.9492 4.16421 14.285 4.5 14.6992 4.5Z" fill="black"/>
<path d="M21.0004 20.7498V11.0498C21.0004 10.4975 20.5527 10.0498 20.0004 10.0498H17.4004C16.8481 10.0498 16.4004 10.4975 16.4004 11.0498V20.7498C16.4004 21.3021 16.8481 21.7498 17.4004 21.7498H20.0004C20.5527 21.7498 21.0004 21.3021 21.0004 20.7498ZM17.9004 20.2498V11.5498H19.5004V20.2498H17.9004Z" fill="black"/>
<path d="M13.2992 21.7504C13.8515 21.7504 14.2992 21.3027 14.2992 20.7504V14.6504C14.2992 14.0981 13.8515 13.6504 13.2992 13.6504H10.6992C10.1469 13.6504 9.69922 14.0981 9.69922 14.6504V20.7504C9.69922 21.3027 10.1469 21.7504 10.6992 21.7504H13.2992ZM11.1992 20.2504V15.1504H12.7992V20.2504H11.1992Z" fill="black"/>
<path d="M6.6 21.75C7.15228 21.75 7.6 21.3023 7.6 20.75V18.25C7.6 17.6977 7.15229 17.25 6.6 17.25H4C3.44772 17.25 3 17.6977 3 18.25V20.75C3 21.3023 3.44771 21.75 4 21.75H6.6ZM6.1 20.25H4.5V18.75H6.1V20.25Z" fill="black"/>
</svg>
