<svg width="24" height="24" viewBox="0 0 24 24" fill="none" xmlns="http://www.w3.org/2000/svg">
<path d="M2.75 2C2.33579 2 2 2.33579 2 2.75V21.6974C2 22.1116 2.33579 22.4474 2.75 22.4474C3.16421 22.4474 3.5 22.1116 3.5 21.6974V2.75C3.5 2.33579 3.16421 2 2.75 2Z" fill="black"/>
<path d="M2 14.6797V19.5923C2 20.0065 2.33579 20.3423 2.75 20.3423H14.3289C15.3242 20.3423 16.1316 19.535 16.1316 18.5397V14.6797C16.1316 14.2655 15.7958 13.9297 15.3816 13.9297H2.75C2.33579 13.9297 2 14.2655 2 14.6797ZM3.5 15.4297H14.6316V18.5397C14.6316 18.7065 14.4958 18.8423 14.3289 18.8423H3.5V15.4297Z" fill="black"/>
<path d="M2 9.76807V14.6807C2 15.0949 2.33579 15.4307 2.75 15.4307H20.6447C21.64 15.4307 22.4474 14.6233 22.4474 13.6281V10.8207C22.4474 9.82543 21.64 9.01807 20.6447 9.01807H2.75C2.33579 9.01807 2 9.35385 2 9.76807ZM3.5 10.5181H20.6447C20.8116 10.5181 20.9474 10.6539 20.9474 10.8207V13.6281C20.9474 13.7949 20.8116 13.9307 20.6447 13.9307H3.5V10.5181Z" fill="black"/>
<path d="M2 4.85547V9.76807C2 10.1823 2.33579 10.5181 2.75 10.5181H18.5395C18.9537 10.5181 19.2895 10.1823 19.2895 9.7681V5.9081C19.2895 4.91283 18.4821 4.10547 17.4868 4.10547H2.75C2.33579 4.10547 2 4.44126 2 4.85547ZM3.5 5.60547H17.4868C17.6537 5.60547 17.7895 5.74126 17.7895 5.9081V9.0181H3.5V5.60547Z" fill="black"/>
</svg>
