<svg width="24" height="24" viewBox="0 0 24 24" fill="none" xmlns="http://www.w3.org/2000/svg">
<path d="M2 21.6974C2 22.1116 2.33579 22.4474 2.75 22.4474H21.6974C22.1116 22.4474 22.4474 22.1116 22.4474 21.6974C22.4474 21.2832 22.1116 20.9474 21.6974 20.9474H2.75C2.33579 20.9474 2 21.2832 2 21.6974Z" fill="black"/>
<path d="M14.6797 22.4474H19.5923C20.0065 22.4474 20.3423 22.1116 20.3423 21.6974V10.1184C20.3423 9.12316 19.535 8.31579 18.5397 8.31579H14.6797C14.2655 8.31579 13.9297 8.65158 13.9297 9.06579V21.6974C13.9297 22.1116 14.2655 22.4474 14.6797 22.4474ZM15.4297 20.9474V9.81579H18.5397C18.7065 9.81579 18.8423 9.95158 18.8423 10.1184V20.9474H15.4297Z" fill="black"/>
<path d="M9.76807 22.4474H14.6807C15.0949 22.4474 15.4307 22.1116 15.4307 21.6974V3.80263C15.4307 2.80736 14.6233 2 13.6281 2H10.8207C9.82543 2 9.01807 2.80737 9.01807 3.80263V21.6974C9.01807 22.1116 9.35385 22.4474 9.76807 22.4474ZM10.5181 20.9474V3.80263C10.5181 3.63579 10.6539 3.5 10.8207 3.5H13.6281C13.7949 3.5 13.9307 3.63579 13.9307 3.80263V20.9474H10.5181Z" fill="black"/>
<path d="M4.85547 22.4474H9.76807C10.1823 22.4474 10.5181 22.1116 10.5181 21.6974V5.90789C10.5181 5.49368 10.1823 5.15789 9.7681 5.15789H5.9081C4.91283 5.15789 4.10547 5.96526 4.10547 6.96053V21.6974C4.10547 22.1116 4.44126 22.4474 4.85547 22.4474ZM5.60547 20.9474V6.96053C5.60547 6.79369 5.74126 6.65789 5.9081 6.65789H9.0181V20.9474H5.60547Z" fill="black"/>
<path d="M2 21.6974C2 22.1116 2.33579 22.4474 2.75 22.4474H21.6974C22.1116 22.4474 22.4474 22.1116 22.4474 21.6974C22.4474 21.2832 22.1116 20.9474 21.6974 20.9474H2.75C2.33579 20.9474 2 21.2832 2 21.6974Z" fill="black"/>
<path d="M14.6797 22.4474H19.5923C20.0065 22.4474 20.3423 22.1116 20.3423 21.6974V10.1184C20.3423 9.12316 19.535 8.31579 18.5397 8.31579H14.6797C14.2655 8.31579 13.9297 8.65158 13.9297 9.06579V21.6974C13.9297 22.1116 14.2655 22.4474 14.6797 22.4474ZM15.4297 20.9474V9.81579H18.5397C18.7065 9.81579 18.8423 9.95158 18.8423 10.1184V20.9474H15.4297Z" fill="black"/>
<path d="M9.76807 22.4474H14.6807C15.0949 22.4474 15.4307 22.1116 15.4307 21.6974V3.80263C15.4307 2.80736 14.6233 2 13.6281 2H10.8207C9.82543 2 9.01807 2.80737 9.01807 3.80263V21.6974C9.01807 22.1116 9.35385 22.4474 9.76807 22.4474ZM10.5181 20.9474V3.80263C10.5181 3.63579 10.6539 3.5 10.8207 3.5H13.6281C13.7949 3.5 13.9307 3.63579 13.9307 3.80263V20.9474H10.5181Z" fill="black"/>
<path d="M4.85547 22.4474H9.76807C10.1823 22.4474 10.5181 22.1116 10.5181 21.6974V5.90789C10.5181 5.49368 10.1823 5.15789 9.7681 5.15789H5.9081C4.91283 5.15789 4.10547 5.96526 4.10547 6.96053V21.6974C4.10547 22.1116 4.44126 22.4474 4.85547 22.4474ZM5.60547 20.9474V6.96053C5.60547 6.79369 5.74126 6.65789 5.9081 6.65789H9.0181V20.9474H5.60547Z" fill="black"/>
</svg>
