<svg width="24" height="24" viewBox="0 0 24 24" fill="none" xmlns="http://www.w3.org/2000/svg">
<path d="M7.25 3C4.90279 3 3 4.90279 3 7.25V16.25C3 18.5972 4.90279 20.5 7.25 20.5H16.25C18.5972 20.5 20.5 18.5972 20.5 16.25V13.1674C20.5 12.7532 20.1642 12.4174 19.75 12.4174C19.3358 12.4174 19 12.7532 19 13.1674V16.25C19 17.7688 17.7688 19 16.25 19H7.25C5.73122 19 4.5 17.7688 4.5 16.25V7.25C4.5 5.73122 5.73122 4.5 7.25 4.5H11.75C12.1642 4.5 12.5 4.16421 12.5 3.75C12.5 3.33579 12.1642 3 11.75 3H7.25ZM19.307 7.33258C19.5999 7.03968 19.5999 6.56481 19.307 6.27192C19.0141 5.97902 18.5392 5.97902 18.2463 6.27192L12.5492 11.969C12.061 12.4572 11.2694 12.4572 10.7813 11.9689L8.64069 9.82775C8.34784 9.53482 7.87296 9.53476 7.58003 9.82761C7.2871 10.1205 7.28704 10.5953 7.57989 10.8883L9.7205 13.0294C10.7944 14.1036 12.5358 14.1037 13.6098 13.0297L19.307 7.33258Z" fill="black"/>
</svg>
