<svg width="24" height="24" viewBox="0 0 24 24" fill="none" xmlns="http://www.w3.org/2000/svg">
<path d="M8.05789 6.30859H6C4.89543 6.30859 4 7.20402 4 8.30859V19.7507C4 20.8553 4.89543 21.7507 6 21.7507H17.5368C18.6414 21.7507 19.5368 20.8553 19.5368 19.7507V8.30859C19.5368 7.20402 18.6414 6.30859 17.5368 6.30859H15.4789C15.4789 7.13702 16.1505 7.80859 16.9789 7.80859H17.5368C17.813 7.80859 18.0368 8.03245 18.0368 8.30859V19.7507C18.0368 20.0268 17.813 20.2507 17.5368 20.2507H6C5.72386 20.2507 5.5 20.0268 5.5 19.7507V8.30859C5.5 8.03245 5.72386 7.80859 6 7.80859H6.55789C7.38632 7.80859 8.05789 7.13702 8.05789 6.30859Z" fill="black"/>
<path d="M7.60742 16.0654C7.60742 16.4796 7.94321 16.8154 8.35742 16.8154H15.1785C15.5927 16.8154 15.9285 16.4796 15.9285 16.0654C15.9285 15.6512 15.5927 15.3154 15.1785 15.3154H8.35742C7.94321 15.3154 7.60742 15.6512 7.60742 16.0654Z" fill="black"/>
<path d="M7.60742 12.3711C7.60742 12.7853 7.94321 13.1211 8.35742 13.1211H15.1785C15.5927 13.1211 15.9285 12.7853 15.9285 12.3711C15.9285 11.9569 15.5927 11.6211 15.1785 11.6211H8.35742C7.94321 11.6211 7.60742 11.9569 7.60742 12.3711Z" fill="black"/>
<path d="M11.1176 4.5H12.4204C12.8274 4.5 13.1507 4.70454 13.2921 4.95593C13.6604 5.61063 14.3531 6.01579 15.1043 6.01579H15.1795C15.2326 6.01579 15.2669 6.03411 15.2822 6.04677V6.75849C15.2669 6.77115 15.2326 6.78947 15.1795 6.78947H8.35849C8.3054 6.78947 8.27116 6.77115 8.25586 6.75849V6.04677C8.27116 6.03411 8.3054 6.01579 8.35849 6.01579H8.43373C9.1849 6.01579 9.87766 5.61063 10.2459 4.95593C10.3872 4.70471 10.7113 4.5 11.1176 4.5ZM8.93857 4.22054C8.83597 4.40292 8.64299 4.51579 8.43373 4.51579H8.35849C7.55911 4.51579 6.75586 5.11051 6.75586 6.02368V6.78158C6.75586 7.69475 7.55911 8.28947 8.35849 8.28947H15.1795C15.9789 8.28947 16.7822 7.69475 16.7822 6.78158V6.02368C16.7822 5.11051 15.9789 4.51579 15.1795 4.51579H15.1043C14.895 4.51579 14.7021 4.40292 14.5995 4.22054C14.1628 3.44422 13.3061 3 12.4204 3H11.1176C10.233 3 9.37534 3.44405 8.93857 4.22054Z" fill="black"/>
</svg>
