<svg width="24" height="24" viewBox="0 0 24 24" fill="none" xmlns="http://www.w3.org/2000/svg">
<path d="M19.5 12C19.5 16.1421 16.1421 19.5 12 19.5C7.85786 19.5 4.5 16.1421 4.5 12C4.5 7.85786 7.85786 4.5 12 4.5C16.1421 4.5 19.5 7.85786 19.5 12ZM12 21C16.9706 21 21 16.9706 21 12C21 7.02944 16.9706 3 12 3C7.02944 3 3 7.02944 3 12C3 16.9706 7.02944 21 12 21ZM12.75 8.625C12.75 8.21079 12.4142 7.875 12 7.875C11.5858 7.875 11.25 8.21079 11.25 8.625V12.9999C11.25 13.4141 11.5858 13.7499 12 13.7499H15.375C15.7892 13.7499 16.125 13.4141 16.125 12.9999C16.125 12.5857 15.7892 12.2499 15.375 12.2499H12.75V8.625Z" fill="black"/>
</svg>
