<svg width="24" height="24" viewBox="0 0 24 24" fill="none" xmlns="http://www.w3.org/2000/svg">
<path d="M19 6.5C19.8284 6.5 20.5 7.17157 20.5 8V17C20.5 17.8284 19.8284 18.5 19 18.5H5C4.17157 18.5 3.5 17.8284 3.5 17V8C3.5 7.17157 4.17157 6.5 5 6.5H19ZM5 5C3.34315 5 2 6.34315 2 8V17C2 18.6569 3.34315 20 5 20H19C20.6569 20 22 18.6569 22 17V8C22 6.34315 20.6569 5 19 5H5Z" fill="black"/>
<path d="M7.11612 9.80251L7.11248 9.80604C6.38012 10.5223 6 11.4379 6 12.5042C6 13.5705 6.38007 14.486 7.11243 15.2023L7.11993 15.2095C7.85473 15.9079 8.75444 16.25 9.76728 16.25C10.6112 16.25 11.3681 16.0095 12 15.4814L11.1232 14.3037C10.7794 14.591 10.3456 14.75 9.76728 14.75C9.07865 14.75 8.52421 14.5275 8.06901 14.0964C7.62971 13.6651 7.41568 13.1503 7.41568 12.5042C7.41568 11.8571 7.63032 11.3418 8.0709 10.91C8.52514 10.4727 9.07813 10.25 9.76728 10.25C10.3349 10.25 10.772 10.4077 11.1278 10.7001L11.9955 9.51488C11.359 8.99175 10.6054 8.75 9.76728 8.75C8.75399 8.75 7.85223 9.09254 7.11612 9.80251Z" fill="black"/>
<path d="M13.1161 9.80251L13.1125 9.80604C12.3801 10.5223 12 11.4379 12 12.5042C12 13.5705 12.3801 14.486 13.1124 15.2023L13.1199 15.2095C13.8547 15.9079 14.7544 16.25 15.7673 16.25C16.6112 16.25 17.3681 16.0095 18 15.4814L17.1232 14.3037C16.7794 14.591 16.3456 14.75 15.7673 14.75C15.0787 14.75 14.5242 14.5275 14.069 14.0965C13.6297 13.6651 13.4157 13.1503 13.4157 12.5042C13.4157 11.8571 13.6303 11.3418 14.0709 10.91C14.5251 10.4727 15.0781 10.25 15.7673 10.25C16.3349 10.25 16.772 10.4077 17.1278 10.7001L17.9955 9.51488C17.359 8.99175 16.6054 8.75 15.7673 8.75C14.754 8.75 13.8522 9.09254 13.1161 9.80251Z" fill="black"/>
</svg>
