<svg width="24" height="24" viewBox="0 0 24 24" fill="none" xmlns="http://www.w3.org/2000/svg">
<path d="M8.52779 9.34794C9.09276 7.68813 10.6589 6.5 12.5 6.5C14.8199 6.5 16.7 8.38013 16.7 10.7C16.7 11.5284 17.3716 12.2 18.2 12.2C19.4701 12.2 20.5 13.2299 20.5 14.5C20.5 15.7701 19.4701 16.8 18.2 16.8H7.75C5.95548 16.8 4.5 15.3445 4.5 13.55C4.5 11.9176 5.71574 10.5686 7.31071 10.3508C7.87358 10.274 8.34474 9.88573 8.52779 9.34794ZM3 13.55C3 16.1729 5.12705 18.3 7.75 18.3H18.2C20.2985 18.3 22 16.5985 22 14.5C22 12.4014 20.2985 10.7 18.2 10.7C18.2 7.5517 15.6483 5 12.5 5C9.99485 5 7.87255 6.61785 7.1078 8.8646C4.79075 9.18095 3 11.1465 3 13.55Z" fill="black"/>
<path d="M15.0889 12.8135C15.3818 12.5206 15.3818 12.0458 15.0889 11.7529L13.0303 9.69422C12.7374 9.40133 12.2625 9.40133 11.9696 9.69422L9.91096 11.7529C9.61807 12.0458 9.61807 12.5206 9.91096 12.8135C10.2039 13.1064 10.6787 13.1064 10.9716 12.8135L12.4999 11.2852L14.0283 12.8135C14.3212 13.1064 14.796 13.1064 15.0889 12.8135Z" fill="black"/>
<path d="M12.5 15.7246C12.9142 15.7246 13.25 15.3888 13.25 14.9746V10.2246C13.25 9.8104 12.9142 9.47461 12.5 9.47461C12.0858 9.47461 11.75 9.8104 11.75 10.2246V14.9746C11.75 15.3888 12.0858 15.7246 12.5 15.7246Z" fill="black"/>
</svg>
