<svg width="24" height="24" viewBox="0 0 24 24" fill="none" xmlns="http://www.w3.org/2000/svg">
<path d="M8.52779 9.34794C9.09276 7.68813 10.6589 6.5 12.5 6.5C14.8199 6.5 16.7 8.38013 16.7 10.7C16.7 11.5284 17.3716 12.2 18.2 12.2C19.4701 12.2 20.5 13.2299 20.5 14.5C20.5 15.7701 19.4701 16.8 18.2 16.8H7.75C5.95548 16.8 4.5 15.3445 4.5 13.55C4.5 11.9176 5.71574 10.5686 7.31071 10.3508C7.87358 10.274 8.34474 9.88573 8.52779 9.34794ZM3 13.55C3 16.1729 5.12705 18.3 7.75 18.3H18.2C20.2985 18.3 22 16.5985 22 14.5C22 12.4014 20.2985 10.7 18.2 10.7C18.2 7.5517 15.6483 5 12.5 5C9.99485 5 7.87255 6.61785 7.1078 8.8646C4.79075 9.18095 3 11.1465 3 13.55Z" fill="black"/>
<path d="M12.2162 8.68979C11.9623 8.94364 11.9623 9.35519 12.2162 9.60903L12.3565 9.7494L12.2162 9.88977C11.9623 10.1436 11.9623 10.5552 12.2162 10.809C12.47 11.0628 12.8816 11.0628 13.1354 10.809L13.7354 10.209C13.9892 9.95518 13.9892 9.54362 13.7354 9.28978L13.1354 8.68979C12.8816 8.43595 12.47 8.43595 12.2162 8.68979Z" fill="black"/>
<path d="M12.7823 13.4906C12.5284 13.2367 12.1169 13.2367 11.863 13.4906L11.263 14.0906C11.0092 14.3444 11.0092 14.756 11.263 15.0098L11.863 15.6098C12.1169 15.8636 12.5284 15.8636 12.7823 15.6098C13.0361 15.3559 13.0361 14.9444 12.7823 14.6905L12.6419 14.5502L12.7823 14.4098C13.0361 14.156 13.0361 13.7444 12.7823 13.4906Z" fill="black"/>
<path d="M14.4073 10.5602C14.0814 10.7106 13.9391 11.0968 14.0895 11.4227C14.1914 11.6435 14.2485 11.8893 14.2485 12.1504C14.2485 13.1167 13.465 13.9003 12.4986 13.9003C12.3284 13.9003 12.163 13.8748 12.0036 13.828C11.6592 13.7268 11.2979 13.9239 11.1967 14.2683C11.0955 14.6128 11.2926 14.974 11.637 15.0752C11.9084 15.155 12.1972 15.2003 12.4986 15.2003C14.183 15.2003 15.5485 13.8347 15.5485 12.1504C15.5485 11.6969 15.4488 11.2657 15.2699 10.878C15.1195 10.5521 14.7333 10.4098 14.4073 10.5602Z" fill="black"/>
<path d="M12.4996 10.4C12.6697 10.4 12.8352 10.4255 12.9946 10.4723C13.339 10.5735 13.7003 10.3764 13.8015 10.032C13.9027 9.68754 13.7055 9.32628 13.3611 9.22507C13.0897 9.14531 12.8009 9.1 12.4996 9.1C10.8152 9.1 9.44961 10.4656 9.44961 12.1499C9.44961 12.6028 9.54894 13.034 9.72733 13.4217C9.87737 13.7478 10.2634 13.8906 10.5895 13.7405C10.9156 13.5905 11.0584 13.2045 10.9083 12.8784C10.8066 12.6573 10.7496 12.4112 10.7496 12.1499C10.7496 11.1836 11.5332 10.4 12.4996 10.4Z" fill="black"/>
</svg>
