<svg width="24" height="24" viewBox="0 0 24 24" fill="none" xmlns="http://www.w3.org/2000/svg">
<path d="M8.52779 9.34794C9.09276 7.68813 10.6589 6.5 12.5 6.5C14.8199 6.5 16.7 8.38013 16.7 10.7C16.7 11.5284 17.3716 12.2 18.2 12.2C19.4701 12.2 20.5 13.2299 20.5 14.5C20.5 15.7701 19.4701 16.8 18.2 16.8H7.75C5.95548 16.8 4.5 15.3445 4.5 13.55C4.5 11.9176 5.71574 10.5686 7.31071 10.3508C7.87358 10.274 8.34474 9.88573 8.52779 9.34794ZM3 13.55C3 16.1729 5.12705 18.3 7.75 18.3H18.2C20.2985 18.3 22 16.5985 22 14.5C22 12.4014 20.2985 10.7 18.2 10.7C18.2 7.5517 15.6483 5 12.5 5C9.99485 5 7.87255 6.61785 7.1078 8.8646C4.79075 9.18095 3 11.1465 3 13.55Z" fill="black"/>
</svg>
