<svg width="24" height="24" viewBox="0 0 24 24" fill="none" xmlns="http://www.w3.org/2000/svg">
<path d="M3.5 10.0289C3.5 7.01881 6.07998 4.5 9.29545 4.5C12.0775 4.5 14.3757 6.32087 14.9466 8.78544C14.9917 8.9802 15.1127 9.14888 15.2828 9.25404C15.4528 9.3592 15.6578 9.39212 15.8522 9.3455C16.1962 9.263 16.4359 9.2092 16.6591 9.2092C18.5655 9.2092 20 10.6292 20 12.3835C20 13.1022 19.7632 13.7534 19.3602 14.2768C19.1075 14.605 19.1687 15.0759 19.4969 15.3286C19.8251 15.5813 20.296 15.5201 20.5487 15.1919C21.1488 14.4125 21.5 13.4412 21.5 12.3835C21.5 9.74262 19.3345 7.7092 16.6591 7.7092C16.504 7.7092 16.3511 7.72254 16.2044 7.74308C15.2242 4.93268 12.4727 3 9.29545 3C5.31093 3 2 6.13223 2 10.0289C2 12.1443 2.98133 14.0399 4.50926 15.3241C4.82635 15.5906 5.29945 15.5496 5.56596 15.2326C5.83247 14.9155 5.79147 14.4424 5.47438 14.1759C4.2583 13.1538 3.5 11.6669 3.5 10.0289Z" fill="black"/>
<path d="M11.3569 11.3642L9.10688 15.1142C8.96786 15.3459 8.96422 15.6345 9.09735 15.8696C9.23048 16.1048 9.4798 16.2501 9.75 16.2501H12.4254L10.8569 18.8642C10.6438 19.2194 10.7589 19.6801 11.1141 19.8932C11.4693 20.1063 11.93 19.9912 12.1431 19.636L14.3931 15.886C14.5321 15.6543 14.5358 15.3657 14.4026 15.1306C14.2695 14.8955 14.0202 14.7501 13.75 14.7501H11.0746L12.6431 12.136C12.8562 11.7808 12.7411 11.3201 12.3859 11.107C12.0307 10.8939 11.57 11.0091 11.3569 11.3642Z" fill="black"/>
</svg>
