<svg width="24" height="24" viewBox="0 0 24 24" fill="none" xmlns="http://www.w3.org/2000/svg">
<path d="M3.5 10.0289C3.5 7.01881 6.07998 4.5 9.29545 4.5C12.0775 4.5 14.3757 6.32087 14.9466 8.78544C14.9917 8.9802 15.1127 9.14888 15.2828 9.25404C15.4528 9.3592 15.6578 9.39212 15.8522 9.3455C16.1962 9.263 16.4359 9.2092 16.6591 9.2092C18.5655 9.2092 20 10.6292 20 12.3835C20 13.1022 19.7632 13.7534 19.3602 14.2768C19.1075 14.605 19.1687 15.0759 19.4969 15.3286C19.8251 15.5813 20.296 15.5201 20.5487 15.1919C21.1488 14.4125 21.5 13.4412 21.5 12.3835C21.5 9.74262 19.3345 7.7092 16.6591 7.7092C16.504 7.7092 16.3511 7.72254 16.2044 7.74308C15.2242 4.93268 12.4727 3 9.29545 3C5.31093 3 2 6.13223 2 10.0289C2 12.1443 2.98133 14.0399 4.50926 15.3241C4.82635 15.5906 5.29945 15.5496 5.56596 15.2326C5.83247 14.9155 5.79147 14.4424 5.47438 14.1759C4.2583 13.1538 3.5 11.6669 3.5 10.0289ZM9 11.75C9 11.3358 8.66421 11 8.25 11C7.83579 11 7.5 11.3358 7.5 11.75V16.75C7.5 17.1642 7.83579 17.5 8.25 17.5C8.66421 17.5 9 17.1642 9 16.75V11.75ZM13 14.75C13 14.3358 12.6642 14 12.25 14C11.8358 14 11.5 14.3358 11.5 14.75V19.75C11.5 20.1642 11.8358 20.5 12.25 20.5C12.6642 20.5 13 20.1642 13 19.75V14.75ZM16.25 11C15.8358 11 15.5 11.3358 15.5 11.75V16.75C15.5 17.1642 15.8358 17.5 16.25 17.5C16.6642 17.5 17 17.1642 17 16.75V11.75C17 11.3358 16.6642 11 16.25 11Z" fill="black"/>
</svg>
