<svg width="24" height="24" viewBox="0 0 24 24" fill="none" xmlns="http://www.w3.org/2000/svg">
<path d="M9.29545 5.5C12.0775 5.5 14.3757 7.32087 14.9466 9.78544C14.9917 9.9802 15.1127 10.1489 15.2828 10.254C15.4528 10.3592 15.6578 10.3921 15.8522 10.3455C16.1962 10.263 16.4359 10.2092 16.6591 10.2092C18.5655 10.2092 20 11.6292 20 13.3835C20 14.1022 19.7632 14.7534 19.3602 15.2768C19.1075 15.605 19.1687 16.0759 19.4969 16.3286C19.8251 16.5813 20.296 16.5201 20.5487 16.1919C21.1488 15.4125 21.5 14.4412 21.5 13.3835C21.5 10.7426 19.3345 8.7092 16.6591 8.7092C16.504 8.7092 16.3511 8.72254 16.2044 8.74308C15.2242 5.93268 12.4727 4 9.29545 4C5.31093 4 2 7.13223 2 11.0289C2 13.1443 2.98133 15.0399 4.50926 16.3241C4.82635 16.5906 5.29945 16.5496 5.56596 16.2326C5.83247 15.9155 5.79147 15.4424 5.47438 15.1759C4.2583 14.1538 3.5 12.6669 3.5 11.0289C3.5 8.01881 6.07998 5.5 9.29545 5.5ZM8.26868 15.1002C8.68289 15.1002 9.01868 14.7644 9.01868 14.3502V14.2843C9.01868 13.8701 8.68289 13.5343 8.26868 13.5343C7.85446 13.5343 7.51868 13.8701 7.51868 14.2843V14.3502C7.51868 14.7644 7.85446 15.1002 8.26868 15.1002ZM11.5198 15.8582C11.5198 16.2724 11.8556 16.6082 12.2698 16.6082C12.684 16.6082 13.0198 16.2724 13.0198 15.8582V15.7922C13.0198 15.378 12.684 15.0422 12.2698 15.0422C11.8556 15.0422 11.5198 15.378 11.5198 15.7922V15.8582ZM16.2455 14.5643C16.6598 14.5643 16.9955 14.2285 16.9955 13.8143V13.7484C16.9955 13.3342 16.6598 12.9984 16.2455 12.9984C15.8313 12.9984 15.4955 13.3342 15.4955 13.7484V13.8143C15.4955 14.2285 15.8313 14.5643 16.2455 14.5643ZM7.51868 18.3502V18.2843C7.51868 17.8701 7.85446 17.5343 8.26868 17.5343C8.68289 17.5343 9.01868 17.8701 9.01868 18.2843V18.3502C9.01868 18.7644 8.68289 19.1002 8.26868 19.1002C7.85446 19.1002 7.51868 18.7644 7.51868 18.3502ZM12.2698 20.6082C12.684 20.6082 13.0198 20.2724 13.0198 19.8582V19.7922C13.0198 19.378 12.684 19.0422 12.2698 19.0422C11.8556 19.0422 11.5198 19.378 11.5198 19.7922V19.8582C11.5198 20.2724 11.8556 20.6082 12.2698 20.6082ZM15.4955 17.8143C15.4955 18.2285 15.8313 18.5643 16.2455 18.5643C16.6598 18.5643 16.9955 18.2285 16.9955 17.8143V17.7484C16.9955 17.3342 16.6598 16.9984 16.2455 16.9984C15.8313 16.9984 15.4955 17.3342 15.4955 17.7484V17.8143Z" fill="black"/>
</svg>
