<svg width="24" height="24" viewBox="0 0 24 24" fill="none" xmlns="http://www.w3.org/2000/svg">
<path d="M4.28033 3.21967C3.98744 2.92678 3.51256 2.92678 3.21967 3.21967C2.92678 3.51256 2.92678 3.98744 3.21967 4.28033L5.60235 6.66301C4.45733 7.79514 3.75003 9.33665 3.75003 11.0289C3.75003 14.4561 6.52828 17.2343 9.95543 17.2343H16.1737L19.2197 20.2803C19.5126 20.5732 19.9874 20.5732 20.2803 20.2803C20.5732 19.9874 20.5732 19.5126 20.2803 19.2197L4.28033 3.21967ZM14.6737 15.7343H9.95543C7.35671 15.7343 5.25003 13.6277 5.25003 11.0289C5.25003 9.76832 5.78416 8.59326 6.66312 7.72378L14.6737 15.7343ZM20.25 13.3835C20.25 14.4131 19.5882 15.288 18.6668 15.6062L19.7961 16.7355C20.9628 16.0738 21.75 14.8206 21.75 13.3835C21.75 11.1859 19.95 9.4592 17.6591 9.4592C17.4365 9.4592 17.2138 9.49554 16.9911 9.54348C16.8865 9.566 16.7819 9.59109 16.6773 9.61617L16.6773 9.61618C16.6703 9.58582 16.663 9.55555 16.6555 9.52537C15.9664 6.74704 13.3712 4.75 10.2955 4.75C9.54751 4.75 8.82779 4.87197 8.15687 5.09621L9.38809 6.32743C9.68173 6.27663 9.9849 6.25 10.2955 6.25C12.7505 6.25 14.7287 7.85108 15.216 9.95469C15.3062 10.3442 15.5482 10.6816 15.8883 10.8919C16.2284 11.1022 16.6383 11.1681 17.0271 11.0748C17.3879 10.9883 17.5401 10.9592 17.6591 10.9592C19.181 10.9592 20.25 12.0725 20.25 13.3835Z" fill="black"/>
</svg>
