<svg width="24" height="24" viewBox="0 0 24 24" fill="none" xmlns="http://www.w3.org/2000/svg">
<path d="M9.5 6C9.5 6.82843 8.82843 7.5 8 7.5C7.17157 7.5 6.5 6.82843 6.5 6C6.5 5.17157 7.17157 4.5 8 4.5C8.82843 4.5 9.5 5.17157 9.5 6ZM11 6C11 4.34315 9.65685 3 8 3C6.34315 3 5 4.34315 5 6C5 7.3859 5.93976 8.5523 7.2168 8.89674V16.1033C5.93976 16.4477 5 17.6141 5 19C5 20.6569 6.34315 22 8 22C9.65685 22 11 20.6569 11 19C11 17.5902 10.0275 16.4075 8.7168 16.0862V15.1595C9.14453 15.0226 9.82209 14.8691 10.6139 14.8691L10.6546 14.8691C11.9038 14.8694 14.5081 14.87 16.1402 12.4595C16.3497 12.5058 16.5675 12.5303 16.791 12.5303C18.4479 12.5303 19.791 11.1871 19.791 9.53027C19.791 7.87342 18.4479 6.53027 16.791 6.53027C15.1342 6.53027 13.791 7.87342 13.791 9.53027C13.791 10.4193 14.1777 11.2179 14.792 11.7673C13.6188 13.3433 11.8492 13.3691 10.6139 13.3691C9.8937 13.3691 9.2414 13.4714 8.7168 13.6016V8.91383C10.0275 8.59249 11 7.40981 11 6ZM8 17.5C8.82843 17.5 9.5 18.1716 9.5 19C9.5 19.8284 8.82843 20.5 8 20.5C7.17157 20.5 6.5 19.8284 6.5 19C6.5 18.1716 7.17157 17.5 8 17.5ZM16.791 8.03027C17.6194 8.03027 18.291 8.70185 18.291 9.53027C18.291 10.3587 17.6194 11.0303 16.791 11.0303C15.9626 11.0303 15.291 10.3587 15.291 9.53027C15.291 8.70185 15.9626 8.03027 16.791 8.03027Z" fill="black"/>
</svg>
