<svg width="24" height="24" viewBox="0 0 24 24" fill="none" xmlns="http://www.w3.org/2000/svg">
<path d="M5.07278 11.7476C5.03527 11.7101 5.0142 11.6593 5.0142 11.6062C5.0142 11.5532 5.03527 11.5023 5.07278 11.4648L7.26941 9.26817C7.58183 8.95576 7.58183 8.44923 7.26941 8.13681C6.95699 7.82439 6.45046 7.82439 6.13805 8.13681L3.23431 11.0405C2.9219 11.353 2.9219 11.8595 3.23431 12.1719L6.13805 15.0756C6.45046 15.3881 6.95699 15.3881 7.26941 15.0756C7.58183 14.7632 7.58183 14.2567 7.26941 13.9443L5.07278 11.7476Z" fill="black"/>
<path d="M16.3306 9.26817L18.5272 11.4648C18.6053 11.5429 18.6053 11.6695 18.5272 11.7476L16.3306 13.9443C16.0182 14.2567 16.0182 14.7632 16.3306 15.0756C16.643 15.3881 17.1495 15.3881 17.462 15.0756L20.3657 12.1719C20.6781 11.8595 20.6781 11.353 20.3657 11.0405L17.462 8.13681C17.1495 7.82439 16.643 7.82439 16.3306 8.13681C16.0182 8.44923 16.0182 8.95576 16.3306 9.26817Z" fill="black"/>
<path d="M11.2892 17.5889L13.8735 5.97392C13.9695 5.54264 13.6976 5.11523 13.2664 5.01927C12.8351 4.92331 12.4077 5.19514 12.3117 5.62642L9.72739 17.2414C9.63143 17.6726 9.90326 18.1 10.3345 18.196C10.7658 18.292 11.1932 18.0201 11.2892 17.5889Z" fill="black"/>
</svg>
