<svg width="24" height="24" viewBox="0 0 24 24" fill="none" xmlns="http://www.w3.org/2000/svg">
<path d="M11.3416 2C10.2491 2 9.36364 2.88893 9.36364 3.9751V4.60365C9.36364 4.64881 9.34197 4.74443 9.2686 4.85325C9.19558 4.96157 9.11255 5.02162 9.06367 5.04186L8.90602 5.10712C8.85992 5.12621 8.75857 5.14284 8.62731 5.11709C8.49515 5.09115 8.41252 5.03804 8.38382 5.00934L7.93948 4.565C7.16555 3.79107 5.91041 3.80129 5.1446 4.56711L4.56711 5.1446C3.79469 5.91702 3.79703 7.17151 4.565 7.93948L5.00934 8.38382C5.04123 8.41571 5.09354 8.49863 5.11863 8.62752C5.14361 8.7558 5.12739 8.85706 5.10712 8.90602L5.04186 9.06367C5.02281 9.10969 4.96298 9.19307 4.85201 9.26766C4.74028 9.34275 4.6443 9.36364 4.60365 9.36364H3.9751C2.88049 9.36364 2 10.2584 2 11.3416V12.1584C2 13.2509 2.88893 14.1364 3.9751 14.1364H4.60365C4.64881 14.1364 4.74443 14.158 4.85325 14.2314C4.96157 14.3044 5.02162 14.3874 5.04186 14.4363L5.10712 14.594C5.12621 14.6401 5.14284 14.7414 5.11709 14.8727C5.09115 15.0049 5.03804 15.0875 5.00934 15.1162L4.565 15.5605C3.79107 16.3345 3.80129 17.5896 4.56711 18.3554L5.1446 18.9329C5.91702 19.7053 7.17151 19.703 7.93948 18.935L8.38382 18.4907C8.41571 18.4588 8.49863 18.4065 8.62752 18.3814C8.7558 18.3564 8.85706 18.3726 8.90602 18.3929L9.06367 18.4581C9.10969 18.4772 9.19307 18.537 9.26766 18.648C9.34275 18.7597 9.36364 18.8557 9.36364 18.8964V19.5249C9.36364 20.6195 10.2584 21.5 11.3416 21.5H12.1584C13.251 21.5 14.1364 20.6111 14.1364 19.5249V18.8964C14.1364 18.8512 14.158 18.7556 14.2314 18.6467C14.3044 18.5384 14.3874 18.4784 14.4363 18.4581L14.594 18.3929C14.6401 18.3738 14.7414 18.3572 14.8727 18.3829C15.0049 18.4088 15.0875 18.462 15.1162 18.4907L15.5605 18.935C16.3345 19.7089 17.5896 19.6987 18.3554 18.9329L18.9329 18.3554C19.7053 17.583 19.703 16.3285 18.935 15.5605L18.4907 15.1162C18.4588 15.0843 18.4065 15.0014 18.3814 14.8725C18.3564 14.7442 18.3726 14.6429 18.3929 14.594L18.4581 14.4363C18.4772 14.3903 18.537 14.3069 18.648 14.2323C18.7597 14.1572 18.8557 14.1364 18.8964 14.1364H19.5249C20.6195 14.1364 21.5 13.2416 21.5 12.1584V11.3416C21.5 10.249 20.6111 9.36364 19.5249 9.36364H18.8964C18.8512 9.36364 18.7556 9.34197 18.6467 9.2686C18.5384 9.19558 18.4784 9.11255 18.4581 9.06367L18.3929 8.90602C18.3738 8.85992 18.3572 8.75857 18.3829 8.62731C18.4088 8.49515 18.462 8.41252 18.4907 8.38382L18.935 7.93948C19.7089 7.16555 19.6987 5.91041 18.9329 5.1446L18.3554 4.56711C17.583 3.79469 16.3285 3.79703 15.5605 4.565L15.1162 5.00934C15.0843 5.04123 15.0014 5.09354 14.8725 5.11863C14.7442 5.14361 14.6429 5.12739 14.594 5.10712L14.4363 5.04186C14.3903 5.02281 14.3069 4.96298 14.2323 4.85201C14.1572 4.74028 14.1364 4.6443 14.1364 4.60365V3.9751C14.1364 2.88049 13.2416 2 12.1584 2H11.3416ZM10.8636 3.9751C10.8636 3.71707 11.0778 3.5 11.3416 3.5H12.1584C12.4208 3.5 12.6364 3.71649 12.6364 3.9751V4.60365C12.6364 5.00716 12.7863 5.38953 12.9874 5.68873C13.189 5.98868 13.4871 6.27236 13.8626 6.42778L14.0202 6.49305C14.3936 6.64763 14.8029 6.66035 15.1592 6.59098C15.5148 6.52173 15.8904 6.35641 16.1768 6.07L16.6212 5.62566C16.8035 5.44337 17.1082 5.44124 17.2947 5.62777L17.8722 6.20526C18.0577 6.39076 18.057 6.69613 17.8743 6.87882L17.43 7.32316C17.1447 7.60844 16.9804 7.9848 16.911 8.33849C16.8414 8.69308 16.8516 9.10444 17.0069 9.47978L17.0722 9.63744C17.2268 10.0109 17.5072 10.3094 17.8082 10.5123C18.1087 10.7149 18.4913 10.8636 18.8964 10.8636H19.5249C19.7829 10.8636 20 11.0778 20 11.3416V12.1584C20 12.4208 19.7835 12.6364 19.5249 12.6364H18.8964C18.4928 12.6364 18.1105 12.7863 17.8113 12.9874C17.5113 13.189 17.2276 13.4871 17.0722 13.8626L17.0069 14.0202C16.8524 14.3936 16.8396 14.8029 16.909 15.1592C16.9783 15.5148 17.1436 15.8904 17.43 16.1768L17.8743 16.6212C18.0566 16.8035 18.0588 17.1082 17.8722 17.2947L17.2947 17.8722C17.1092 18.0577 16.8039 18.057 16.6212 17.8743L16.1768 17.43C15.8916 17.1447 15.5152 16.9804 15.1615 16.911C14.8069 16.8414 14.3956 16.8516 14.0202 17.0069L13.8626 17.0722C13.4891 17.2268 13.1906 17.5072 12.9877 17.8082C12.7851 18.1087 12.6364 18.4913 12.6364 18.8964V19.5249C12.6364 19.7829 12.4222 20 12.1584 20H11.3416C11.0792 20 10.8636 19.7835 10.8636 19.5249V18.8964C10.8636 18.4928 10.7137 18.1105 10.5126 17.8113C10.311 17.5113 10.0129 17.2276 9.63744 17.0722L9.47978 17.0069C9.1064 16.8524 8.69711 16.8396 8.34084 16.909C7.98518 16.9783 7.60956 17.1436 7.32316 17.43L6.87882 17.8743C6.69653 18.0566 6.39179 18.0588 6.20526 17.8722L5.62777 17.2947C5.44227 17.1092 5.44297 16.8039 5.62566 16.6212L6.07 16.1768C6.35529 15.8916 6.51962 15.5152 6.58902 15.1615C6.65859 14.8069 6.64844 14.3956 6.49305 14.0202L6.42778 13.8626C6.27318 13.4891 5.99277 13.1906 5.69178 12.9877C5.39128 12.7851 5.00874 12.6364 4.60365 12.6364H3.9751C3.71707 12.6364 3.5 12.4222 3.5 12.1584V11.3416C3.5 11.0792 3.71649 10.8636 3.9751 10.8636H4.60365C5.00716 10.8636 5.38953 10.7137 5.68873 10.5126C5.98868 10.311 6.27236 10.0129 6.42778 9.63744L6.49305 9.47978C6.64763 9.1064 6.66035 8.69711 6.59098 8.34084C6.52173 7.98518 6.35641 7.60956 6.07 7.32316L5.62566 6.87882C5.44337 6.69653 5.44124 6.39178 5.62777 6.20526L6.20526 5.62777C6.39076 5.44227 6.69613 5.44297 6.87882 5.62566L7.32316 6.07C7.60844 6.35529 7.9848 6.51962 8.33849 6.58902C8.69308 6.65859 9.10444 6.64844 9.47978 6.49305L9.63744 6.42778C10.0109 6.27318 10.3094 5.99277 10.5123 5.69178C10.7149 5.39128 10.8636 5.00874 10.8636 4.60365V3.9751ZM10.0449 11.7495C10.0449 10.808 10.808 10.0449 11.7495 10.0449C12.691 10.0449 13.454 10.808 13.454 11.7495C13.454 12.691 12.691 13.454 11.7495 13.454C10.808 13.454 10.0449 12.691 10.0449 11.7495ZM11.7495 8.54492C9.97953 8.54492 8.54492 9.97953 8.54492 11.7495C8.54492 13.5194 9.97953 14.954 11.7495 14.954C13.5194 14.954 14.954 13.5194 14.954 11.7495C14.954 9.97953 13.5194 8.54492 11.7495 8.54492Z" fill="black"/>
</svg>
