<svg width="24" height="24" viewBox="0 0 24 24" fill="none" xmlns="http://www.w3.org/2000/svg">
<path d="M8.13636 8.02091V8.54469C8.13636 8.54469 8.13633 8.54849 8.13497 8.55618C8.13356 8.56409 8.13095 8.57502 8.12633 8.58862C8.11684 8.61656 8.10101 8.64947 8.07852 8.68283C8.0285 8.75704 7.97726 8.78872 7.96358 8.79439L7.8322 8.84878C7.82122 8.85332 7.7626 8.86772 7.67182 8.84991C7.63126 8.84195 7.59595 8.82955 7.5691 8.81636C7.54165 8.80286 7.53175 8.79291 7.53323 8.79439L7.16295 8.42411C6.46874 7.7299 5.34365 7.73933 4.65711 8.42587L4.17587 8.90711C3.48336 9.59962 3.48533 10.7242 4.17411 11.413L4.54439 11.7832C4.54456 11.7834 4.54718 11.7861 4.5515 11.7923C4.5561 11.7989 4.56198 11.8085 4.56833 11.8214C4.58138 11.8478 4.59347 11.8823 4.60116 11.9218C4.61828 12.0097 4.60447 12.0684 4.59878 12.0822L4.54439 12.2136C4.53987 12.2245 4.50868 12.2761 4.43195 12.3276C4.39766 12.3507 4.36394 12.3669 4.33563 12.3765C4.30855 12.3858 4.2947 12.3863 4.29471 12.3864C4.29471 12.3864 4.29457 12.3864 4.29471 12.3864H3.77091C2.78908 12.3864 2 13.1886 2 14.1597V14.8403C2 15.8199 2.79677 16.6136 3.77091 16.6136H4.2947C4.29457 16.6136 4.29836 16.6136 4.30618 16.615C4.31409 16.6164 4.32502 16.6191 4.33862 16.6237C4.36656 16.6332 4.39947 16.649 4.43283 16.6715C4.50704 16.7215 4.53872 16.7727 4.54439 16.7864L4.59878 16.9178C4.60332 16.9288 4.61772 16.9874 4.59991 17.0782C4.59195 17.1187 4.57955 17.154 4.56636 17.1809C4.55383 17.2064 4.54435 17.2167 4.54425 17.2169L4.17411 17.587C3.4799 18.2813 3.48933 19.4064 4.17587 20.0929L4.65711 20.5741C5.34962 21.2666 6.47417 21.2647 7.16295 20.5759L7.53324 20.2056C7.53341 20.2054 7.53614 20.2028 7.54231 20.1985C7.54889 20.1939 7.55847 20.188 7.57135 20.1817C7.59783 20.1686 7.63231 20.1565 7.67182 20.1488C7.75972 20.1317 7.81844 20.1455 7.8322 20.1512L7.96358 20.2056C7.97448 20.2101 8.02606 20.2413 8.07764 20.3181C8.10068 20.3523 8.11687 20.3861 8.12653 20.4144C8.13629 20.443 8.13636 20.4571 8.13636 20.4554V20.9791C8.13636 21.9609 8.93859 22.75 9.90966 22.75H10.5903C11.5699 22.75 12.3636 21.9532 12.3636 20.9791V20.4553C12.3636 20.4553 12.3637 20.4515 12.365 20.4438C12.3664 20.4359 12.3691 20.425 12.3737 20.4114C12.3832 20.3834 12.399 20.3505 12.4215 20.3172C12.4715 20.243 12.5227 20.2113 12.5364 20.2056L12.6678 20.1512C12.6788 20.1467 12.7374 20.1323 12.8282 20.1501C12.8687 20.158 12.904 20.1704 12.9309 20.1836C12.9566 20.1963 12.9669 20.2058 12.9669 20.2058L13.337 20.5759C14.0313 21.2701 15.1564 21.2607 15.8429 20.5741L16.3241 20.0929C17.0166 19.4004 17.0147 18.2758 16.3259 17.587L15.9556 17.2168C15.9556 17.2168 15.953 17.2141 15.9485 17.2077C15.9439 17.2011 15.938 17.1915 15.9317 17.1786C15.9186 17.1522 15.9065 17.1177 15.8988 17.0782C15.8817 16.9903 15.8955 16.9316 15.9012 16.9178L15.9556 16.7864C15.9601 16.7755 15.9913 16.7239 16.0681 16.6724C16.1023 16.6493 16.1361 16.6331 16.1644 16.6235C16.1914 16.6142 16.2053 16.6137 16.2053 16.6136C16.2053 16.6136 16.2054 16.6136 16.2053 16.6136H16.7291C17.7109 16.6136 18.5 15.8114 18.5 14.8403V14.1597C18.5 13.1801 17.7032 12.3864 16.7291 12.3864H16.2053C16.2053 12.3864 16.2015 12.3863 16.1938 12.385C16.1859 12.3836 16.175 12.3809 16.1614 12.3763C16.1334 12.3668 16.1005 12.351 16.0672 12.3285C15.993 12.2785 15.9613 12.2273 15.9556 12.2136L15.9012 12.0822C15.8967 12.0712 15.8823 12.0126 15.9001 11.9218C15.908 11.8813 15.9204 11.846 15.9336 11.8191C15.9471 11.7916 15.9571 11.7817 15.9556 11.7832L16.3259 11.413C17.0201 10.7187 17.0107 9.59365 16.3241 8.90711L15.8429 8.42587C15.1504 7.73336 14.0258 7.73533 13.337 8.42411L12.9668 8.79438C12.9668 8.79438 12.9641 8.79703 12.9577 8.8015C12.9511 8.8061 12.9415 8.81198 12.9286 8.81833C12.9022 8.83138 12.8677 8.84347 12.8282 8.85116C12.7403 8.86828 12.6816 8.85447 12.6678 8.84878L12.5364 8.79439C12.5255 8.78987 12.4739 8.75868 12.4224 8.68194C12.3993 8.64766 12.3831 8.61394 12.3735 8.58563C12.3642 8.55855 12.3637 8.5447 12.3636 8.54471C12.3636 8.54471 12.3636 8.54457 12.3636 8.54471V8.02091C12.3636 7.03908 11.5614 6.25 10.5903 6.25H9.90966C8.93015 6.25 8.13636 7.04677 8.13636 8.02091ZM9.90966 7.75H10.5903C10.7406 7.75 10.8636 7.87508 10.8636 8.02091V8.54471C10.8636 8.9112 10.9993 9.25371 11.1774 9.51867C11.356 9.78437 11.6224 10.0394 11.9627 10.1803L12.094 10.2347C12.4322 10.3747 12.799 10.385 13.1149 10.3235C13.4301 10.2621 13.7675 10.1149 14.0274 9.85505L14.3977 9.48477C14.5008 9.38167 14.6756 9.37991 14.7822 9.48653L15.2635 9.96777C15.3697 10.074 15.3682 10.2493 15.2652 10.3523L14.8949 10.7226C14.6358 10.9817 14.4896 11.3198 14.4282 11.633C14.3665 11.9471 14.3744 12.3157 14.5153 12.656L14.5697 12.7873C14.7097 13.1256 14.9618 13.3923 15.2286 13.5723C15.495 13.7519 15.8377 13.8864 16.2053 13.8864H16.7291C16.8751 13.8864 17 14.0089 17 14.1597V14.8403C17 14.9906 16.8749 15.1136 16.7291 15.1136H16.2053C15.8388 15.1136 15.4963 15.2493 15.2313 15.4274C14.9656 15.606 14.7106 15.8724 14.5697 16.2127L14.5153 16.344C14.3753 16.6822 14.365 17.049 14.4265 17.3649C14.4879 17.6801 14.6351 18.0175 14.8949 18.2774L15.2652 18.6477C15.3683 18.7508 15.3701 18.9256 15.2635 19.0322L14.7822 19.5135C14.676 19.6197 14.5007 19.6182 14.3977 19.5152L14.0274 19.1449C13.7683 18.8858 13.4302 18.7396 13.117 18.6782C12.8029 18.6165 12.4343 18.6244 12.094 18.7653L11.9627 18.8197C11.6244 18.9597 11.3577 19.2118 11.1777 19.4786C10.9981 19.745 10.8636 20.0877 10.8636 20.4553V20.9791C10.8636 21.1251 10.7411 21.25 10.5903 21.25H9.90966C9.75943 21.25 9.63636 21.1249 9.63636 20.9791V20.4553C9.63636 20.0888 9.50066 19.7463 9.32259 19.4813C9.14401 19.2156 8.87764 18.9606 8.53734 18.8197L8.40597 18.7653C8.06778 18.6253 7.70103 18.615 7.38514 18.6765C7.06986 18.7379 6.73246 18.8851 6.47257 19.1449L6.10229 19.5152C5.9992 19.6183 5.82438 19.6201 5.71777 19.5135L5.23653 19.0322C5.1303 18.926 5.1318 18.7507 5.23477 18.6477L5.60505 18.2774C5.86417 18.0183 6.01039 17.6802 6.07184 17.367C6.13347 17.0529 6.12555 16.6842 5.9847 16.344L5.93031 16.2127C5.79028 15.8744 5.53824 15.6077 5.27136 15.4277C5.00498 15.2481 4.66228 15.1136 4.29471 15.1136H3.77091C3.6249 15.1136 3.5 14.9911 3.5 14.8403V14.1597C3.5 14.0094 3.62508 13.8864 3.77091 13.8864H4.29471C4.6612 13.8864 5.00371 13.7507 5.26867 13.5726C5.53437 13.394 5.78943 13.1276 5.93031 12.7873L5.9847 12.656C6.12471 12.3178 6.13502 11.951 6.07351 11.6351C6.01213 11.3199 5.86494 10.9825 5.60505 10.7226L5.23477 10.3523C5.13167 10.2492 5.12991 10.0744 5.23653 9.96777L5.71777 9.48653C5.82399 9.3803 5.99932 9.3818 6.10229 9.48477L6.47258 9.85505C6.7317 10.1142 7.06981 10.2604 7.38301 10.3218C7.69711 10.3835 8.06575 10.3756 8.40597 10.2347L8.53734 10.1803C8.87561 10.0403 9.14232 9.78824 9.32226 9.52136C9.50185 9.25498 9.63636 8.91228 9.63636 8.54471V8.02091C9.63636 7.8749 9.75887 7.75 9.90966 7.75Z" fill="black"/>
<path d="M11.0423 14.4992C11.0423 14.9365 10.688 15.2909 10.2507 15.2909C9.81331 15.2909 9.45898 14.9365 9.45898 14.4992C9.45898 14.0618 9.81331 13.7075 10.2507 13.7075C10.688 13.7075 11.0423 14.0618 11.0423 14.4992ZM12.5423 14.4992C12.5423 13.2334 11.5164 12.2075 10.2507 12.2075C8.98489 12.2075 7.95898 13.2334 7.95898 14.4992C7.95898 15.765 8.98489 16.7909 10.2507 16.7909C11.5164 16.7909 12.5423 15.765 12.5423 14.4992Z" fill="black"/>
<path d="M19.3105 2C18.8963 2 18.5605 2.33579 18.5605 2.75V3.2613C18.123 3.37334 17.7303 3.59702 17.4145 3.90008L16.9956 3.65705C16.6373 3.4492 16.1784 3.57115 15.9705 3.92943C15.7627 4.28772 15.8846 4.74667 16.2429 4.95452L16.6794 5.20777C16.64 5.38735 16.6191 5.57391 16.6191 5.76529C16.6191 6.01669 16.6551 6.25977 16.7221 6.48965L16.2429 6.76762C15.8846 6.97547 15.7627 7.43442 15.9705 7.79271C16.1784 8.151 16.6373 8.27294 16.9956 8.06509L17.5442 7.74684C17.8353 7.99094 18.181 8.17209 18.5605 8.26927V8.97048C18.5605 9.3847 18.8963 9.72048 19.3105 9.72048C19.7248 9.72048 20.0605 9.3847 20.0605 8.97048V8.20482C20.3907 8.08907 20.6901 7.90826 20.9434 7.67773L21.6283 8.06799C21.9881 8.27306 22.4461 8.14757 22.6512 7.78769C22.8563 7.4278 22.7308 6.96981 22.3709 6.76473L21.7126 6.38962C21.7621 6.18972 21.7884 5.9806 21.7884 5.76529C21.7884 5.61027 21.7748 5.45847 21.7487 5.31101L22.3709 4.95644C22.7308 4.75137 22.8563 4.29337 22.6512 3.93349C22.4461 3.57361 21.9881 3.44811 21.6283 3.65319L21.067 3.97304C20.7897 3.68483 20.4461 3.46093 20.0605 3.32575V2.75C20.0605 2.33579 19.7248 2 19.3105 2ZM19.2038 4.68066C19.804 4.68066 20.2884 5.16501 20.2884 5.76529C20.2884 6.36556 19.804 6.84991 19.2038 6.84991C18.6044 6.84991 18.1191 6.36401 18.1191 5.76529C18.1191 5.16656 18.6044 4.68066 19.2038 4.68066Z" fill="black"/>
</svg>
