<svg width="24" height="24" viewBox="0 0 24 24" fill="none" xmlns="http://www.w3.org/2000/svg">
<path d="M15.3158 3C13.6835 3 12.1732 3.23503 11.0442 3.63819C10.483 3.83861 9.97572 4.09476 9.59441 4.41675C9.21655 4.73582 8.88159 5.19338 8.88159 5.78008L8.88087 8.77281C5.57179 8.90594 3 9.90859 3 11.1262V19.1789C3 20.4872 5.96905 21.5473 9.63158 21.5473C13.2941 21.5473 16.2632 20.4872 16.2632 19.1789L16.2639 15.4356C17.6047 15.3589 18.8248 15.121 19.7589 14.7605C20.2753 14.5612 20.7436 14.3095 21.0959 13.9946C21.4475 13.6804 21.75 13.2389 21.75 12.6823V5.78008C21.75 5.19338 21.4151 4.73582 21.0372 4.41675C20.6559 4.09476 20.1486 3.83861 19.5874 3.63819C18.4584 3.23503 16.9481 3 15.3158 3ZM14.0372 17.1054C14.2927 17.0142 14.5371 16.9118 14.764 16.7975L14.7632 18.9641C14.6111 19.0888 14.3103 19.2647 13.8163 19.4411C12.8169 19.798 11.3375 20.0473 9.63158 20.0473C7.92566 20.0473 6.44627 19.798 5.44681 19.4411C4.95288 19.2647 4.65202 19.0888 4.5 18.9641L4.50023 16.798C4.72686 16.9121 4.97089 17.0143 5.22606 17.1054C6.3893 17.5209 7.94697 17.7635 9.63162 17.7635C11.3163 17.7635 12.8739 17.5209 14.0372 17.1054ZM14.0372 13.316C14.2927 13.2247 14.5371 13.1223 14.764 13.008L14.7629 14.8088C14.7579 14.8437 14.7553 14.8794 14.7553 14.9157L14.7551 14.9184L14.7536 14.9251C14.7517 14.9318 14.7469 14.9453 14.7352 14.9657C14.7107 15.0085 14.6593 15.0753 14.5598 15.1593C14.3563 15.3312 14.0173 15.5198 13.5327 15.6928C12.5701 16.0366 11.1909 16.2635 9.63162 16.2635C8.07232 16.2635 6.69315 16.0366 5.73053 15.6928C5.24596 15.5198 4.90694 15.3312 4.70339 15.1593C4.60393 15.0753 4.55255 15.0085 4.52804 14.9657C4.51632 14.9453 4.51157 14.9318 4.50967 14.9251C4.50793 14.919 4.50793 14.9164 4.50793 14.9157L4.50109 14.8139C4.50086 14.8122 4.50062 14.8105 4.50037 14.8088L4.50023 13.0085C4.72686 13.1226 4.97089 13.2248 5.22606 13.316C6.3893 13.7314 7.94697 13.974 9.63162 13.974C11.3163 13.974 12.8739 13.7314 14.0372 13.316ZM19.0836 11.6208C19.498 11.5074 19.8933 11.3704 20.2504 11.2078L20.25 12.6803C20.2471 12.6943 20.2258 12.7605 20.0964 12.8762C19.9277 13.027 19.6404 13.1984 19.2188 13.3611C18.4821 13.6455 17.4542 13.8577 16.2647 13.9328L16.2631 12.0531C17.3001 11.9958 18.2631 11.8454 19.0836 11.6208ZM9.63158 10.2578C11.3375 10.2578 12.8169 10.5071 13.8163 10.864C14.222 11.0089 14.4974 11.1534 14.6665 11.2679C14.6393 11.298 14.6044 11.3322 14.5598 11.3698C14.3563 11.5417 14.0173 11.7303 13.5327 11.9033C12.5701 12.2471 11.1909 12.474 9.63162 12.474C8.07232 12.474 6.69315 12.2471 5.73053 11.9033C5.24596 11.7303 4.90694 11.5417 4.70339 11.3698C4.65882 11.3322 4.62391 11.298 4.5965 11.2692C4.76624 11.1532 5.04153 11.0088 5.44681 10.864C6.44627 10.5071 7.92566 10.2578 9.63158 10.2578ZM18.8907 7.88214C19.3773 7.75907 19.8399 7.60537 20.2506 7.4183L20.2509 9.46915C19.9789 9.70218 19.4609 9.96236 18.6876 10.174C17.8824 10.3944 16.8782 10.541 15.7681 10.5727L16.0727 10.5602C15.4201 9.60961 13.1612 8.88461 10.3823 8.77281L10.381 7.41842C10.7273 7.57612 11.1055 7.70774 11.4942 7.8165C12.5683 8.117 13.8943 8.28966 15.3158 8.28966C16.6317 8.28966 17.8644 8.14171 18.8907 7.88214ZM15.3158 4.5C16.8228 4.5 18.1546 4.7193 19.0829 5.05082C19.5503 5.21775 19.8755 5.39903 20.0694 5.56281C20.1435 5.62535 20.1874 5.6752 20.213 5.71111C19.9093 5.9542 19.3467 6.21957 18.5229 6.42793C17.6334 6.65288 16.5261 6.78966 15.3158 6.78966C14.0065 6.78966 12.8193 6.62962 11.8984 6.37197C11.1598 6.16534 10.6805 5.92046 10.4182 5.71171C10.4442 5.6752 10.4881 5.62535 10.5622 5.56281C10.7561 5.39903 11.0813 5.21775 11.5487 5.05082C12.477 4.7193 13.8088 4.5 15.3158 4.5Z" fill="black"/>
</svg>
