<svg width="24" height="24" viewBox="0 0 24 24" fill="none" xmlns="http://www.w3.org/2000/svg">
<path d="M17.6286 12.3349C16.2634 13.1028 14.2765 13.625 12 13.625C9.72354 13.625 7.73659 13.1028 6.37143 12.3349C4.95925 11.5405 4.5 10.6779 4.5 10.0625C4.5 9.44712 4.95925 8.58448 6.37143 7.79014C7.73659 7.02223 9.72354 6.5 12 6.5C14.2765 6.5 16.2634 7.02223 17.6286 7.79014C19.0407 8.58448 19.5 9.44712 19.5 10.0625C19.5 10.6779 19.0407 11.5405 17.6286 12.3349ZM17.25 14.1749C18.1091 13.8273 18.8548 13.3966 19.4501 12.9037V14.5625C19.4501 15.3589 18.8499 16.1492 17.4492 16.7792C17.3841 16.8085 17.3177 16.8373 17.25 16.8654V14.1749ZM15.75 14.666V17.3426C14.85 17.5575 13.8332 17.6926 12.75 17.7353V15.1077C13.8131 15.0583 14.8239 14.9051 15.75 14.666ZM11.25 15.1077V17.7353C10.1668 17.6926 9.14998 17.5575 8.25 17.3426V14.666C9.17615 14.9051 10.1869 15.0583 11.25 15.1077ZM4.55005 12.9038C5.14525 13.3966 5.89095 13.8273 6.75 14.1749V16.8653C6.68237 16.8372 6.61598 16.8085 6.55086 16.7792C5.15016 16.1492 4.55005 15.3589 4.55005 14.5625V12.9038ZM21 10.0625C21 7.26656 16.9706 5 12 5C7.02944 5 3 7.26656 3 10.0625C3 10.2526 3.01863 10.4403 3.05492 10.6249H3.05005V14.5625C3.05005 16.2514 4.34078 17.4299 5.93551 18.1472C7.5591 18.8776 9.72226 19.25 12 19.25C14.2778 19.25 16.441 18.8776 18.0646 18.1472C19.6593 17.4299 20.9501 16.2514 20.9501 14.5625V10.6249H20.9451C20.9814 10.4403 21 10.2526 21 10.0625Z" fill="black"/>
</svg>
