<svg width="24" height="24" viewBox="0 0 24 24" fill="none" xmlns="http://www.w3.org/2000/svg">
<path d="M9.17143 4.5C9.45546 4.5 9.68571 4.72386 9.68571 5V19C9.68571 19.2761 9.45546 19.5 9.17143 19.5H5.05714C4.77311 19.5 4.54286 19.2761 4.54286 19V5C4.54286 4.72386 4.77311 4.5 5.05714 4.5H9.17143ZM5.05714 3C3.92101 3 3 3.89543 3 5V19C3 20.1046 3.92101 21 5.05714 21H9.17143C10.3076 21 11.2286 20.1046 11.2286 19V5C11.2286 3.89543 10.3076 3 9.17143 3H5.05714Z" fill="black"/>
<path d="M18.9429 4.5C19.2269 4.5 19.4571 4.72386 19.4571 5V19C19.4571 19.2761 19.2269 19.5 18.9429 19.5H14.8286C14.5445 19.5 14.3143 19.2761 14.3143 19V5C14.3143 4.72386 14.5445 4.5 14.8286 4.5H18.9429ZM14.8286 3C13.6924 3 12.7714 3.89543 12.7714 5V19C12.7714 20.1046 13.6924 21 14.8286 21H18.9429C20.079 21 21 20.1046 21 19V5C21 3.89543 20.079 3 18.9429 3H14.8286Z" fill="black"/>
</svg>
