<svg width="24" height="24" viewBox="0 0 24 24" fill="none" xmlns="http://www.w3.org/2000/svg">
<path d="M8 12C8.69036 12 9.25 11.4404 9.25 10.75C9.25 10.0596 8.69036 9.5 8 9.5C7.30965 9.5 6.75 10.0596 6.75 10.75C6.75 11.4404 7.30965 12 8 12Z" fill="black"/>
<path d="M13.25 10.75C13.25 11.4404 12.6904 12 12 12C11.3096 12 10.75 11.4404 10.75 10.75C10.75 10.0596 11.3096 9.5 12 9.5C12.6904 9.5 13.25 10.0596 13.25 10.75Z" fill="black"/>
<path d="M17.25 10.75C17.25 10.0596 16.6904 9.5 16 9.5C15.3096 9.5 14.75 10.0596 14.75 10.75C14.75 11.4404 15.3096 12 16 12C16.6904 12 17.25 11.4404 17.25 10.75Z" fill="black"/>
<path d="M2.05585 9.87376C1.59208 13.5363 4.07296 16.7151 7.45491 17.3731V19.276C7.45491 20.3843 8.79562 20.953 9.58724 20.1613L10.6124 19.136C11.1928 18.5554 11.7682 17.9798 12.2483 17.5H14.4979C18.1472 17.5 21.3852 14.6865 21.4966 10.9574C21.6112 7.13542 18.5467 4 14.7499 4H8.97691C5.58298 4 2.49116 6.42975 2.05585 9.87376ZM14.7499 5.5C17.6903 5.5 20.0658 7.91742 19.9983 10.8739L19.9972 10.9126C19.9125 13.7514 17.4186 16 14.4979 16H11.9379C11.7392 16 11.5485 16.0789 11.4079 16.2193C10.886 16.7406 10.2153 17.4115 9.53918 18.0878L8.95491 18.6723V16.723C8.95491 16.3349 8.65888 16.011 8.27238 15.976C5.37575 15.7144 3.15858 13.105 3.54399 10.062C3.5484 10.0271 3.55321 9.99216 3.55834 9.95751C3.93852 7.39257 6.2952 5.5 8.97691 5.5H14.7499Z" fill="black"/>
</svg>
