<svg width="24" height="24" viewBox="0 0 24 24" fill="none" xmlns="http://www.w3.org/2000/svg">
<path d="M14.7383 4H8.96526L8.71182 4.00449C8.29787 4.01914 7.97417 4.3666 7.98882 4.78055C8.00348 5.19451 8.35094 5.51821 8.76489 5.50355L8.86509 5.50089L14.7383 5.5L14.9538 5.50434C17.8125 5.61958 20.0725 8.01746 19.9856 10.9125C19.9015 13.7334 17.426 16 14.4863 16H11.9263L11.8084 16.0093C11.6533 16.034 11.5088 16.107 11.3963 16.2193L8.94302 18.672L8.94326 16.723L8.93608 16.6189C8.88869 16.2784 8.6121 16.0078 8.26075 15.976C5.68778 15.7436 3.65756 13.6603 3.49861 11.0796C3.47314 10.6662 3.11735 10.3517 2.70392 10.3772C2.29049 10.4026 1.97598 10.7584 2.00144 11.1719L2.02068 11.4137C2.31025 14.3815 4.52472 16.7911 7.4111 17.3668L7.44302 17.372L7.44326 19.276L7.4487 19.3974C7.54207 20.4288 8.81661 20.9203 9.57559 20.1613L12.236 17.5H14.4863L14.7237 17.4961C18.3514 17.3766 21.3783 14.5311 21.485 10.9574C21.5994 7.14385 18.5435 4 14.7383 4ZM2.70797 5.21985C1.82926 6.09858 1.82926 7.52307 2.70798 8.40178C3.58669 9.28049 5.01118 9.28049 5.88989 8.40178C6.76862 7.52307 6.76862 6.09857 5.89023 5.22019C5.01225 4.34108 3.58674 4.34108 2.70797 5.21985ZM4.8289 6.28017C5.12217 6.57345 5.12217 7.04819 4.82924 7.34112C4.53631 7.63405 4.06156 7.63405 3.76863 7.34112C3.4757 7.04819 3.4757 6.57344 3.76864 6.28051C4.06151 5.98764 4.53674 5.98764 4.8289 6.28017Z" fill="black"/>
</svg>
