<svg width="24" height="24" viewBox="0 0 24 24" fill="none" xmlns="http://www.w3.org/2000/svg">
<path d="M2.21967 3.21967C2.51256 2.92678 2.98744 2.92678 3.28033 3.21967L20.2215 20.1608C20.5144 20.4537 20.5144 20.9286 20.2215 21.2215C19.9286 21.5144 19.4537 21.5144 19.1608 21.2215L17.4136 19.4742C17.3605 19.6899 17.2132 19.8745 17.0071 19.9725C16.7782 20.0811 16.5124 20.0661 16.2993 19.938L16.2114 19.8763L13.8469 17.9487L13.7618 17.8886C13.6732 17.8347 13.5744 17.7995 13.4716 17.7853L13.3677 17.7782H11.9987C11.5845 17.7782 11.2477 17.4424 11.2477 17.0282C11.2477 16.6139 11.5845 16.2782 11.9987 16.2782H13.3677C13.7888 16.2782 14.1994 16.3958 14.5544 16.615L12.98 15.0407C12.868 15.0477 12.7551 15.0512 12.6415 15.0512H11.0705C10.6917 15.0512 10.3239 15.1789 10.0266 15.4136L8.55666 16.5738C8.06482 16.962 7.34199 16.6117 7.34199 15.9851V15.1966C7.34199 15.1016 7.26999 15.0224 7.17493 15.0106C4.50902 14.6806 2.5508 12.3105 2.76619 9.5723L2.79026 9.33988C2.93546 8.19079 3.48013 7.13905 4.26705 6.32771L2.21967 4.28033C1.92678 3.98744 1.92678 3.51256 2.21967 3.21967ZM10.8328 13.5601L11.0705 13.5512H11.4906L5.32658 7.38724C4.76952 7.96655 4.38169 8.70979 4.28042 9.51049L4.25997 9.70764C4.10935 11.6242 5.4857 13.29 7.35922 13.522C7.95061 13.5952 8.44592 13.9704 8.68612 14.4876L8.70854 14.5422L9.09727 14.2361C9.59689 13.8418 10.2017 13.6073 10.8328 13.5601Z" fill="black"/>
<path d="M14.9638 12.7855C15.8125 12.1549 16.3725 11.1935 16.4044 10.1266L16.4059 9.9373C16.3737 7.92075 14.7262 6.19116 12.8538 6.19116H8.36948L6.97827 4.79994C7.30904 4.72871 7.64841 4.69116 7.99211 4.69116H12.8538C15.5676 4.69116 17.8608 7.09857 17.9058 9.93059L17.904 10.1542C17.8598 11.6375 17.1363 12.9584 16.0317 13.8534L14.9638 12.7855Z" fill="black"/>
<path d="M19.1026 16.9242L18.0109 15.8326C18.3655 15.6384 18.6871 15.386 18.9638 15.0865C19.3549 14.6631 19.6545 14.147 19.8283 13.5725C19.9618 13.1308 20.0215 12.6529 19.9902 12.1533L19.9669 11.9017L19.9501 11.7806L19.9297 11.6605L19.9111 11.5673L19.8904 11.4746L19.8726 11.4026L19.8567 11.3467L19.7967 11.1667L19.6137 10.6947L19.5176 10.4918L19.4942 10.4486L19.4705 10.4058L19.4265 10.3137C19.2902 9.97037 19.4252 9.57056 19.7561 9.38429C20.1171 9.18109 20.5744 9.30896 20.7776 9.66991C20.7993 9.70845 20.8206 9.74727 20.8414 9.78636C20.8702 9.84041 20.8982 9.89498 20.9253 9.95004C20.9713 10.0437 21.0149 10.1387 21.0559 10.2351C21.0733 10.2758 21.0901 10.3167 21.1065 10.3579L21.1533 10.4798L21.1974 10.6031C21.2197 10.6677 21.2408 10.7328 21.2608 10.7984L21.2804 10.8647L21.2993 10.9312C21.3174 10.9967 21.3343 11.0626 21.35 11.1289L21.3786 11.2567L21.4043 11.3855C21.4249 11.4958 21.4421 11.6071 21.4558 11.7193C21.5415 12.4187 21.4956 13.0992 21.3382 13.7363L21.264 14.0066C21.054 14.7011 20.7103 15.3355 20.2634 15.8777L20.0656 16.1043C19.7787 16.4148 19.4555 16.6906 19.1026 16.9242Z" fill="black"/>
</svg>
