<svg width="24" height="24" viewBox="0 0 24 24" fill="none" xmlns="http://www.w3.org/2000/svg">
<path d="M7.64999 12C8.34035 12 8.89999 11.4404 8.89999 10.75C8.89999 10.0596 8.34035 9.5 7.64999 9.5C6.95964 9.5 6.39999 10.0596 6.39999 10.75C6.39999 11.4404 6.95964 12 7.64999 12Z" fill="black"/>
<path d="M11.65 12C12.3403 12 12.9 11.4404 12.9 10.75C12.9 10.0596 12.3403 9.5 11.65 9.5C10.9596 9.5 10.4 10.0596 10.4 10.75C10.4 11.4404 10.9596 12 11.65 12Z" fill="black"/>
<path d="M15.65 9.5C14.9596 9.5 14.4 10.0596 14.4 10.75C14.4 11.4404 14.9596 12 15.65 12C16.3404 12 16.9 11.4404 16.9 10.75C16.9 10.0596 16.3404 9.5 15.65 9.5Z" fill="black"/>
<path d="M6.77778 19.8319C6.77778 20.6852 7.77785 21.1465 8.42695 20.5925L12.0459 17.5039C12.2269 17.3494 12.4571 17.2646 12.6951 17.2646H16.5C18.433 17.2646 20 15.6976 20 13.7646V7.5C20 5.567 18.433 4 16.5 4H6.5C4.567 4 3 5.567 3 7.5V13.7646C3 15.6975 4.567 17.2646 6.5 17.2646H6.77778V19.8319ZM6.77778 15.7646H6.5C5.39543 15.7646 4.5 14.8691 4.5 13.7646V7.5C4.5 6.39543 5.39543 5.5 6.5 5.5H16.5C17.6046 5.5 18.5 6.39543 18.5 7.5V13.7646C18.5 14.8691 17.6046 15.7646 16.5 15.7646H12.6951C12.1002 15.7646 11.5247 15.9767 11.0722 16.3629L8.27778 18.7478V17.2646C8.27778 16.4361 7.6062 15.7646 6.77778 15.7646Z" fill="black"/>
</svg>
