<svg width="24" height="24" viewBox="0 0 24 24" fill="none" xmlns="http://www.w3.org/2000/svg">
<path d="M4.66482 3.15306C4.37414 2.93131 3.95719 2.94995 3.6874 3.21265C3.39063 3.50161 3.38429 3.97644 3.67326 4.27321L4.47107 5.09212C3.14534 6.16592 2.26969 7.67751 2.05533 9.37398L2.02959 9.60868C1.70428 13.1204 4.09659 16.223 7.45367 16.873L7.4544 18.776L7.45984 18.8974C7.55321 19.9289 8.82776 20.4203 9.58674 19.6613L12.2467 17H14.4974L14.8433 16.9916C15.1884 16.9749 15.5309 16.9332 15.8684 16.8671L15.923 16.855L17.3048 18.2732L17.388 18.3469C17.6786 18.5687 18.0956 18.55 18.3654 18.2874C18.6622 17.9984 18.6685 17.5236 18.3795 17.2268L4.74796 3.22679L4.66482 3.15306ZM3.54347 9.56224C3.71374 8.21473 4.42996 7.01383 5.5228 6.17276L14.601 15.497L14.4974 15.5H11.9374L11.8194 15.5093C11.6644 15.534 11.5199 15.607 11.4074 15.7193L8.95367 18.172L8.9544 16.223L8.94721 16.1189C8.89983 15.7784 8.62323 15.5078 8.27187 15.476C5.32688 15.21 3.16407 12.5577 3.54347 9.56224ZM14.7494 3.5H8.97641L8.87464 3.50685C8.50856 3.55651 8.22641 3.8703 8.22641 4.25C8.22641 4.66421 8.5622 5 8.97641 5H14.7494L14.9649 5.00434C17.8236 5.11958 20.0836 7.51746 19.9967 10.4125C19.9571 11.7413 19.3924 12.9738 18.4273 13.9107C18.1301 14.1992 18.1231 14.674 18.4117 14.9712C18.7002 15.2684 19.175 15.2754 19.4722 14.9869C20.7116 13.7836 21.4446 12.184 21.496 10.4573C21.6105 6.64385 18.5546 3.5 14.7494 3.5Z" fill="black"/>
</svg>
