<svg width="24" height="24" viewBox="0 0 24 24" fill="none" xmlns="http://www.w3.org/2000/svg">
<path d="M21.4966 10.9574C21.6112 7.13542 18.5467 4 14.7499 4H8.97691C5.58298 4 2.49116 6.42975 2.05585 9.87376C1.59208 13.5363 4.07296 16.7151 7.45491 17.3731V19.276C7.45491 20.3843 8.79562 20.953 9.58724 20.1613L10.6124 19.136C11.1928 18.5554 11.7682 17.9798 12.2483 17.5H14.4979C18.1472 17.5 21.3852 14.6865 21.4966 10.9574ZM14.7499 5.5C17.703 5.5 20.0865 7.93864 19.9972 10.9126C19.9125 13.7514 17.4186 16 14.4979 16H11.9379C11.7392 16 11.5485 16.0789 11.4079 16.2193C10.8847 16.7419 10.2121 17.4147 9.53427 18.0928L8.9549 18.6723V16.723C8.9549 16.3349 8.65887 16.011 8.27238 15.976C5.37574 15.7144 3.15857 13.105 3.54399 10.062C3.87478 7.44415 6.2589 5.5 8.9769 5.5H14.7499Z" fill="black"/>
</svg>
