<svg width="24" height="24" viewBox="0 0 24 24" fill="none" xmlns="http://www.w3.org/2000/svg">
<path d="M6 7.5C5.17143 7.5 4.5 6.82857 4.5 6C4.5 5.17143 5.17143 4.5 6 4.5C6.82857 4.5 7.5 5.17143 7.5 6V7.5H6ZM6 9H7.5V15H6C4.343 15 3 16.343 3 18C3 19.657 4.343 21 6 21C7.657 21 9 19.657 9 18V16.5H15V18C15 19.657 16.343 21 18 21C19.657 21 21 19.657 21 18C21 16.343 19.657 15 18 15H16.5V9H18C19.657 9 21 7.657 21 6C21 4.343 19.657 3 18 3C16.343 3 15 4.343 15 6V7.5H9V6C9 4.343 7.657 3 6 3C4.343 3 3 4.343 3 6C3 7.657 4.343 9 6 9ZM15 9V15H9V9H15ZM16.5 7.5V6C16.5 5.17143 17.1714 4.5 18 4.5C18.8286 4.5 19.5 5.17143 19.5 6C19.5 6.82857 18.8286 7.5 18 7.5H16.5ZM16.5 18V16.5H18C18.8286 16.5 19.5 17.1714 19.5 18C19.5 18.8286 18.8286 19.5 18 19.5C17.1714 19.5 16.5 18.8286 16.5 18ZM7.5 16.5V18C7.5 18.8286 6.82857 19.5 6 19.5C5.17143 19.5 4.5 18.8286 4.5 18C4.5 17.1714 5.17143 16.5 6 16.5H7.5Z" fill="black"/>
</svg>
