<svg width="24" height="24" viewBox="0 0 24 24" fill="none" xmlns="http://www.w3.org/2000/svg">
<path d="M6.77778 15.7646H6.5C5.39543 15.7646 4.5 14.8691 4.5 13.7646V7.5C4.5 6.39543 5.39543 5.5 6.5 5.5H16.5C17.6046 5.5 18.5 6.39543 18.5 7.5V13.7646C18.5 14.8691 17.6046 15.7646 16.5 15.7646H12.6951C12.1002 15.7646 11.5247 15.9767 11.0722 16.3629L8.27778 18.7478V17.2646C8.27778 16.4361 7.6062 15.7646 6.77778 15.7646ZM6.5 17.2646H6.77778V19.8319C6.77778 20.6852 7.77785 21.1465 8.42695 20.5925L12.0459 17.5039C12.2269 17.3494 12.4571 17.2646 12.6951 17.2646H16.5C18.433 17.2646 20 15.6976 20 13.7646V7.5C20 5.567 18.433 4 16.5 4H6.5C4.567 4 3 5.567 3 7.5V13.7646C3 15.6975 4.567 17.2646 6.5 17.2646Z" fill="black"/>
</svg>
