<svg width="24" height="24" viewBox="0 0 24 24" fill="none" xmlns="http://www.w3.org/2000/svg">
<path d="M2.28033 3.21967C1.98744 2.92678 1.51256 2.92678 1.21967 3.21967C0.926777 3.51256 0.926777 3.98744 1.21967 4.28033L2.47896 5.53962C2.33144 5.8942 2.25 6.28317 2.25 6.69116V13.2701C2.25 14.927 3.59314 16.2701 5.25 16.2701H6.19737V17.5071V17.5209V17.7627V17.7701V18.3877C6.19737 18.8069 6.68233 19.04 7.00972 18.7781L7.49776 18.3877L7.68656 18.2367L7.69737 18.228L9.323 16.9275C9.45235 16.824 9.58934 16.732 9.73239 16.652C10.1582 17.7906 11.256 18.6012 12.5432 18.6012H13.8668C14.548 18.6012 15.209 18.8331 15.7409 19.2586L17.7722 20.8837C17.8119 20.9154 17.8538 20.9399 17.8969 20.9576L18.1608 21.2215C18.4537 21.5144 18.9286 21.5144 19.2215 21.2215C19.5144 20.9286 19.5144 20.4537 19.2215 20.1608L2.28033 3.21967ZM14.0441 17.1047C13.9851 17.1024 13.926 17.1012 13.8668 17.1012H12.5432C11.7148 17.1012 11.0432 16.4297 11.0432 15.6012V14.1039L14.0441 17.1047ZM9.54323 12.6039V15.085C9.12906 15.2487 8.73861 15.4741 8.38595 15.7562L7.69737 16.3071V16.2701C7.69737 15.4417 7.0258 14.7701 6.19737 14.7701H5.25C4.42157 14.7701 3.75 14.0985 3.75 13.2701V6.81066L9.54323 12.6039ZM12.5432 7.84937C11.5834 7.84937 10.7288 8.30015 10.1797 9.00157L11.2563 10.0783C11.5186 9.64157 11.9968 9.34937 12.5432 9.34937H19.25C20.0784 9.34937 20.75 10.0209 20.75 10.8494V15.6012C20.75 16.4297 20.0784 17.1012 19.25 17.1012H18.5846C18.4891 17.1012 18.3958 17.1102 18.3053 17.1272L19.7396 18.5615C21.1636 18.3278 22.25 17.0914 22.25 15.6012V10.8494C22.25 9.19251 20.9069 7.84937 19.25 7.84937H18.0395V6.69116C18.0395 5.03431 16.6963 3.69116 15.0395 3.69116H5.25C5.12836 3.69116 5.00841 3.6984 4.89056 3.71247L6.36925 5.19116H15.0395C15.8679 5.19116 16.5395 5.86273 16.5395 6.69116V7.84937H12.5432Z" fill="black"/>
</svg>
