<svg width="24" height="24" viewBox="0 0 24 24" fill="none" xmlns="http://www.w3.org/2000/svg">
<path d="M10.439 16.7724C10.1612 16.3525 9.6914 16.1 9.188 16.1H7C5.61929 16.1 4.5 14.9807 4.5 13.6V8C4.5 6.61929 5.61929 5.5 7 5.5H17C18.3807 5.5 19.5 6.61929 19.5 8V13.6C19.5 14.9807 18.3807 16.1 17 16.1H14.812C14.3086 16.1 13.8388 16.3525 13.561 16.7724L12 19.1318L10.439 16.7724ZM11.1 20.49C11.55 21.17 12.45 21.17 12.9 20.49L14.812 17.6H17C19.2091 17.6 21 15.8091 21 13.6V8C21 5.79086 19.2091 4 17 4H7C4.79086 4 3 5.79086 3 8V13.6C3 15.8091 4.79086 17.6 7 17.6H9.188L11.1 20.49ZM13.9477 7.75948C13.8399 7.4411 13.5335 7.23332 13.1978 7.25105C12.8621 7.26878 12.5791 7.50808 12.5055 7.83605L11.6818 11.5035L11.1846 9.90993C11.0942 9.62045 10.8385 9.41385 10.5365 9.38642C10.2345 9.35898 9.94566 9.51611 9.80464 9.78458L9.08872 11.1476H8C7.58579 11.1476 7.25 11.4833 7.25 11.8976C7.25 12.3118 7.58579 12.6476 8 12.6476H9.34051C9.73727 12.6476 10.1018 12.4307 10.2914 12.0833L11.084 14.6234C11.1852 14.9475 11.4914 15.1632 11.8306 15.1494C12.1698 15.1355 12.4574 14.8956 12.5318 14.5644L13.3837 10.771L13.7699 11.9117C13.9189 12.3515 14.3316 12.6476 14.796 12.6476H16C16.4142 12.6476 16.75 12.3118 16.75 11.8976C16.75 11.4833 16.4142 11.1476 16 11.1476H15.0949L13.9477 7.75948ZM13.2373 8.00001L12.5055 7.83605C12.5055 7.83604 12.5056 7.83566 13.2373 8.00001Z" fill="black"/>
</svg>
