<svg width="24" height="24" viewBox="0 0 24 24" fill="none" xmlns="http://www.w3.org/2000/svg">
<path d="M4.28033 3.21967C3.98744 2.92678 3.51256 2.92678 3.21967 3.21967C2.92678 3.51256 2.92678 3.98744 3.21967 4.28033L4.953 6.01366C4.82158 6.38163 4.75 6.77804 4.75 7.19116V13.4557C4.75 15.3887 6.317 16.9557 8.25 16.9557H8.52778V18.4557V19.523C8.52778 20.3764 9.52785 20.8377 10.1769 20.2837L13.7959 17.1951C13.9769 17.0406 14.2071 16.9557 14.4451 16.9557H15.8951L20.1608 21.2215C20.4537 21.5144 20.9286 21.5144 21.2215 21.2215C21.5144 20.9286 21.5144 20.4537 21.2215 20.1608L4.28033 3.21967ZM14.3955 15.4562C13.8183 15.4676 13.2621 15.6786 12.8222 16.0541L10.0278 18.439V16.9557C10.0278 16.1273 9.3562 15.4557 8.52778 15.4557H8.25C7.14543 15.4557 6.25 14.5603 6.25 13.4557V7.31066L14.3955 15.4562ZM20.25 13.4557C20.25 14.4399 19.5391 15.2581 18.6028 15.4247L19.7817 16.6036C20.9471 16.0355 21.75 14.8394 21.75 13.4557V7.19116C21.75 5.25816 20.183 3.69116 18.25 3.69116H8.25C7.83681 3.69116 7.44034 3.76276 7.07232 3.89423L8.36925 5.19116H18.25C19.3546 5.19116 20.25 6.08659 20.25 7.19116V13.4557Z" fill="black"/>
</svg>
