<svg width="24" height="24" viewBox="0 0 24 24" fill="none" xmlns="http://www.w3.org/2000/svg">
<path d="M4.53005 8.83676C4.761 7.00906 6.45079 5.5 8.24374 5.5H13.1054C15.0119 5.5 16.7196 7.30976 16.6563 9.41806L16.6563 9.41832C16.6004 11.2934 14.9309 12.8601 12.8932 12.8601H11.3222C10.6061 12.8601 9.91094 13.1014 9.34887 13.545L8.96222 13.8502C8.7288 13.2971 8.20965 12.905 7.61086 12.8308C5.70819 12.5953 4.27388 10.8594 4.53 8.8372L4.53005 8.83676ZM18.1557 9.46306C18.2416 6.60149 15.9476 4 13.1054 4H8.24374C5.67018 4 3.36442 6.09621 3.04188 8.64872C2.67878 11.5156 4.72146 13.9845 7.42656 14.3195C7.52118 14.3312 7.59362 14.41 7.59362 14.5054V15.6546C7.59362 16.1352 8.14795 16.4039 8.52515 16.1061L10.2782 14.7224C10.5756 14.4877 10.9433 14.3601 11.3222 14.3601H12.8932C15.6596 14.3601 18.0731 12.2286 18.1557 9.46306ZM8.89521 9.30698C8.89521 8.84188 8.51817 8.46484 8.05307 8.46484C7.58797 8.46484 7.21094 8.84188 7.21094 9.30698C7.21094 9.77208 7.58797 10.1491 8.05307 10.1491C8.51817 10.1491 8.89521 9.77208 8.89521 9.30698ZM10.5785 10.1491C11.0436 10.1491 11.4206 9.77208 11.4206 9.30698C11.4206 8.84188 11.0436 8.46484 10.5785 8.46484C10.1134 8.46484 9.73633 8.84188 9.73633 9.30698C9.73633 9.77208 10.1134 10.1491 10.5785 10.1491ZM13.9479 9.30698C13.9479 8.84188 13.5709 8.46484 13.1058 8.46484C12.6407 8.46484 12.2637 8.84188 12.2637 9.30698C12.2637 9.77208 12.6407 10.1491 13.1058 10.1491C13.5709 10.1491 13.9479 9.77208 13.9479 9.30698ZM20.2185 11.2105C20.291 11.8014 20.2357 12.366 20.0798 12.8813C19.9061 13.4559 19.6065 13.9719 19.2154 14.3953C18.6347 15.024 17.856 15.4451 16.9895 15.5559C16.5306 15.6146 16.187 16.0051 16.1869 16.4674V17.0247L15.0463 16.0949C14.6433 15.7664 14.1393 15.5869 13.6193 15.5869H12.2495C11.8353 15.5869 11.4994 15.9227 11.4994 16.3369C11.4994 16.7512 11.8351 17.0869 12.2494 17.0869H13.6193C13.7939 17.0869 13.9632 17.1472 14.0985 17.2575L16.463 19.1851C16.6874 19.3681 16.9971 19.4055 17.2587 19.2813C17.5202 19.157 17.6869 18.8934 17.6869 18.6038V16.9526C18.7134 16.7139 19.6223 16.1655 20.3172 15.4131C20.861 14.8244 21.2756 14.1092 21.5156 13.3155C21.7314 12.602 21.8054 11.8274 21.7074 11.0279C21.657 10.6168 21.2828 10.3244 20.8717 10.3748C20.4605 10.4252 20.1681 10.7994 20.2185 11.2105Z" fill="black"/>
</svg>
