<svg width="24" height="24" viewBox="0 0 24 24" fill="none" xmlns="http://www.w3.org/2000/svg">
<path d="M12 20.5C7.30558 20.5 3.5 16.6944 3.5 12C3.5 7.30558 7.30558 3.5 12 3.5C16.6944 3.5 20.5 7.30558 20.5 12C20.5 16.6944 16.6944 20.5 12 20.5ZM22 12C22 6.47715 17.5228 2 12 2C6.47715 2 2 6.47715 2 12C2 17.5228 6.47715 22 12 22C17.5228 22 22 17.5228 22 12Z" fill="black"/>
<path d="M13.1047 13.3517L8.80356 15.5194L10.8953 10.6483L15.1964 8.48065L13.1047 13.3517ZM17.1872 7.39271C17.4635 6.74939 16.7858 6.11194 16.1606 6.42702L10.1677 9.44725C9.93664 9.56368 9.75404 9.75781 9.65197 9.99552L6.81276 16.6073C6.53651 17.2506 7.21424 17.8881 7.83944 17.573L13.8323 14.5528C14.0634 14.4363 14.246 14.2422 14.348 14.0045L17.1872 7.39271Z" fill="black"/>
<path d="M13 12.0004C13 11.4481 12.5523 11.0004 12 11.0004C11.4477 11.0004 11 11.4481 11 12.0004C11 12.5527 11.4477 13.0004 12 13.0004C12.5523 13.0004 13 12.5527 13 12.0004Z" fill="black"/>
</svg>
