<svg width="24" height="24" viewBox="0 0 24 24" fill="none" xmlns="http://www.w3.org/2000/svg">
<path d="M8.40909 2.75C8.40909 2.33579 8.0733 2 7.65909 2C7.24488 2 6.90909 2.33579 6.90909 2.75V5.84843L3.28033 2.21967C2.98744 1.92678 2.51256 1.92678 2.21967 2.21967C1.92678 2.51256 1.92678 2.98744 2.21967 3.28033L5.84843 6.90909H2.75C2.33579 6.90909 2 7.24488 2 7.65909C2 8.0733 2.33579 8.40909 2.75 8.40909H7.65909C7.76078 8.40909 7.85775 8.38885 7.94618 8.35218C8.03464 8.31558 8.11751 8.26133 8.18942 8.18942C8.26133 8.11751 8.31558 8.03464 8.35218 7.94618C8.38885 7.85775 8.40909 7.76078 8.40909 7.65909V2.75ZM15.5547 8.35218C15.6431 8.38885 15.7401 8.40909 15.8418 8.40909H20.7509C21.1651 8.40909 21.5009 8.0733 21.5009 7.65909C21.5009 7.24488 21.1651 6.90909 20.7509 6.90909H17.6525L21.2812 3.28033C21.5741 2.98744 21.5741 2.51256 21.2812 2.21967C20.9883 1.92678 20.5135 1.92678 20.2206 2.21967L16.5918 5.84843V2.75C16.5918 2.33579 16.256 2 15.8418 2C15.4276 2 15.0918 2.33579 15.0918 2.75V7.65909C15.0918 7.76078 15.112 7.85775 15.1487 7.94618C15.185 8.03399 15.2388 8.11629 15.3099 8.18783L15.3115 8.18942L15.3131 8.19101C15.3846 8.26213 15.4669 8.31585 15.5547 8.35218ZM2.21967 20.2197C1.92678 20.5126 1.92678 20.9875 2.21967 21.2804C2.51256 21.5733 2.98744 21.5733 3.28033 21.2804L6.90909 17.6516V20.75C6.90909 21.1642 7.24488 21.5 7.65909 21.5C8.0733 21.5 8.40909 21.1642 8.40909 20.75V15.8409C8.40909 15.7393 8.38885 15.6423 8.35218 15.5539C8.31585 15.466 8.26213 15.3837 8.19101 15.3122L8.18942 15.3106L8.18783 15.309C8.11629 15.2379 8.03399 15.1842 7.94618 15.1479C7.85775 15.1112 7.76078 15.0909 7.65909 15.0909H2.75C2.33579 15.0909 2 15.4267 2 15.8409C2 16.2552 2.33579 16.5909 2.75 16.5909H5.84843L2.21967 20.2197ZM21.2812 20.2196L17.6525 16.5908H20.7509C21.1651 16.5908 21.5009 16.255 21.5009 15.8408C21.5009 15.4266 21.1651 15.0908 20.7509 15.0908H15.8418C15.7401 15.0908 15.6431 15.1111 15.5547 15.1477C15.4683 15.1835 15.3871 15.2361 15.3164 15.3056L15.3066 15.3154C15.2371 15.3862 15.1845 15.4673 15.1487 15.5537C15.112 15.6422 15.0918 15.7391 15.0918 15.8408V20.7499C15.0918 21.1641 15.4276 21.4999 15.8418 21.4999C16.256 21.4999 16.5918 21.1641 16.5918 20.7499V17.6515L20.2206 21.2802C20.5135 21.5731 20.9883 21.5731 21.2812 21.2802C21.5741 20.9873 21.5741 20.5125 21.2812 20.2196ZM11.75 10.2495C12.5786 10.2495 13.25 10.9209 13.25 11.7495C13.25 12.5781 12.5786 13.2495 11.75 13.2495C10.9214 13.2495 10.25 12.5781 10.25 11.7495C10.25 10.9209 10.9214 10.2495 11.75 10.2495ZM11.75 8.74951C10.093 8.74951 8.75 10.0925 8.75 11.7495C8.75 13.4065 10.093 14.7495 11.75 14.7495C13.407 14.7495 14.75 13.4065 14.75 11.7495C14.75 10.0925 13.407 8.74951 11.75 8.74951Z" fill="black"/>
</svg>
