<svg width="24" height="24" viewBox="0 0 24 24" fill="none" xmlns="http://www.w3.org/2000/svg">
<path d="M10.9355 16.6067C10.1071 16.6067 9.43555 15.9351 9.43555 15.1067V6C9.43555 5.17157 10.1071 4.5 10.9355 4.5H15.6523C16.0808 4.5 16.4888 4.68322 16.7735 5.00345L17.8946 4.00691C17.3253 3.36644 16.5093 3 15.6523 3H10.9355C9.27869 3 7.93555 4.34314 7.93555 6V15.1067C7.93555 16.7635 9.27869 18.1067 10.9355 18.1067H17.0209C18.6777 18.1067 20.0209 16.7635 20.0209 15.1067V7.5396C20.0209 6.80485 19.7512 6.09566 19.2631 5.5465L17.8946 4.00691L16.7735 5.00345L18.142 6.54305C18.3861 6.81763 18.5209 7.17222 18.5209 7.5396V15.1067C18.5209 15.9351 17.8493 16.6067 17.0209 16.6067H10.9355Z" fill="black"/>
<path d="M7.25 8.57574H8.08941V7.07574H7.25C5.45508 7.07574 4 8.53081 4 10.3257V18.5C4 20.2949 5.45508 21.75 7.25 21.75H12.7894C14.5843 21.75 16.0394 20.2949 16.0394 18.5V17.2444H14.5394V18.5C14.5394 19.4665 13.7559 20.25 12.7894 20.25H7.25C6.2835 20.25 5.5 19.4665 5.5 18.5V10.3257C5.5 9.35924 6.2835 8.57574 7.25 8.57574Z" fill="black"/>
</svg>
