<svg width="24" height="24" viewBox="0 0 24 24" fill="none" xmlns="http://www.w3.org/2000/svg">
<path d="M12 19.5C16.1426 19.5 19.5 16.1426 19.5 12C19.5 7.85743 16.1426 4.5 12 4.5C7.85743 4.5 4.5 7.85743 4.5 12C4.5 16.1426 7.85743 19.5 12 19.5ZM12 21C7.029 21 3 16.971 3 12C3 7.029 7.029 3 12 3C16.971 3 21 7.029 21 12C21 16.971 16.971 21 12 21ZM9.75 12C9.75 10.76 10.7597 9.75 12.0128 9.75C12.5851 9.75 13.1053 9.96251 13.5051 10.3136C13.8164 10.5869 14.2903 10.5561 14.5636 10.2449C14.8369 9.93361 14.8061 9.45973 14.4949 9.18643C13.8342 8.60629 12.9661 8.25 12.0128 8.25C9.93731 8.25 8.25 9.92558 8.25 12C8.25 14.0744 9.93731 15.75 12.0128 15.75C12.9659 15.75 13.8331 15.3918 14.4935 14.8148C14.8054 14.5422 14.8373 14.0684 14.5648 13.7565C14.2922 13.4446 13.8184 13.4127 13.5065 13.6852C13.104 14.037 12.5829 14.25 12.0128 14.25C10.7597 14.25 9.75 13.24 9.75 12Z" fill="black"/>
</svg>
