<svg width="24" height="24" viewBox="0 0 24 24" fill="none" xmlns="http://www.w3.org/2000/svg">
<path d="M19.5 4.75C19.5 4.33579 19.1642 4 18.75 4C18.3358 4 18 4.33579 18 4.75V10.875C18 11.6043 17.7103 12.3038 17.1945 12.8195C16.6788 13.3353 15.9793 13.625 15.25 13.625H6.56066L9.65533 10.5303C9.94822 10.2374 9.94822 9.76256 9.65533 9.46967C9.36244 9.17678 8.88756 9.17678 8.59467 9.46967L4.21967 13.8447C4.14776 13.9166 4.09351 13.9995 4.05691 14.0879C4.02024 14.1763 4 14.2733 4 14.375C4 14.4767 4.02024 14.5737 4.05691 14.6621C4.09351 14.7505 4.14776 14.8334 4.21967 14.9053L8.59467 19.2803C8.88756 19.5732 9.36244 19.5732 9.65533 19.2803C9.94822 18.9874 9.94822 18.5126 9.65533 18.2197L6.56066 15.125H15.25C16.3772 15.125 17.4582 14.6772 18.2552 13.8802C19.0522 13.0832 19.5 12.0022 19.5 10.875V4.75Z" fill="black"/>
</svg>
