<svg width="24" height="24" viewBox="0 0 24 24" fill="none" xmlns="http://www.w3.org/2000/svg">
<path d="M4 4.75V10.875C4 12.0022 4.44777 13.0832 5.2448 13.8802C6.04183 14.6772 7.12283 15.125 8.25 15.125H16.9393L13.8447 18.2197C13.5518 18.5126 13.5518 18.9874 13.8447 19.2803C14.1376 19.5732 14.6124 19.5732 14.9053 19.2803L19.2803 14.9053C19.3522 14.8334 19.4065 14.7505 19.4431 14.6621C19.4798 14.5737 19.5 14.4767 19.5 14.375C19.5 14.2733 19.4798 14.1763 19.4431 14.0879C19.4065 13.9995 19.3522 13.9166 19.2803 13.8447L14.9053 9.46967C14.6124 9.17678 14.1376 9.17678 13.8447 9.46967C13.5518 9.76256 13.5518 10.2374 13.8447 10.5303L16.9393 13.625H8.25C7.52065 13.625 6.82118 13.3353 6.30546 12.8195C5.78973 12.3038 5.5 11.6043 5.5 10.875V4.75C5.5 4.33579 5.16421 4 4.75 4C4.33579 4 4 4.33579 4 4.75Z" fill="black"/>
</svg>
