<svg width="24" height="24" viewBox="0 0 24 24" fill="none" xmlns="http://www.w3.org/2000/svg">
<path d="M3.24807 3.18923C2.95355 2.92715 2.50204 2.9373 2.21967 3.21967C1.92678 3.51256 1.92678 3.98744 2.21967 4.28033L4.00198 6.06264C3.99844 6.14573 3.99955 6.22988 4.00555 6.31481L4.66253 15.6183C4.75047 16.8636 5.61637 17.917 6.82108 18.2444L7.72382 18.4897C8.12354 18.5983 8.53562 18.3623 8.64423 17.9626C8.75284 17.5628 8.51685 17.1508 8.11713 17.0421L7.21439 16.7969C6.62526 16.6368 6.20181 16.1216 6.15881 15.5126L5.60465 7.66531L11.1091 13.1697C9.9106 13.7721 9.08823 15.0128 9.08823 16.4456C9.08823 17.4278 9.47541 18.3206 10.1037 18.9778V20.8809C10.1037 21.3377 10.474 21.7081 10.9308 21.7081C11.0867 21.7081 11.2394 21.664 11.3714 21.581L12.7345 20.7233C12.7416 20.7188 12.7506 20.7189 12.7576 20.7234L14.074 21.5755L14.0783 21.5782C14.4592 21.8211 14.969 21.7145 15.2176 21.3304C15.3007 21.2021 15.3465 21.0533 15.3501 20.9005C15.3677 20.1486 15.3782 19.5139 15.3815 18.9976C15.6404 18.7309 15.8592 18.4246 16.028 18.0887L19.1608 21.2215C19.4537 21.5144 19.9286 21.5144 20.2215 21.2215C20.5039 20.9391 20.514 20.4876 20.2519 20.1931C20.241 20.1833 20.2302 20.1732 20.2197 20.1627L3.27851 3.22149C3.26798 3.21097 3.25784 3.20021 3.24807 3.18923ZM19.8088 17.6304C20.3824 17.1324 20.7547 16.4189 20.8126 15.6272L21.4941 6.30941C21.5043 6.1696 21.5012 6.02915 21.4848 5.88994C21.3421 4.67942 20.245 3.81381 19.0345 3.95656C18.0509 4.07255 17.0876 4.23758 16.1448 4.45186C15.2537 4.65436 14.2218 4.99361 13.0544 5.46096C12.8644 5.53702 12.6523 5.53668 12.4625 5.46001L12.4575 5.45799C11.2389 4.96581 10.2402 4.62487 9.47737 4.45179C8.6167 4.25652 7.60709 4.09529 6.45278 3.966C6.34623 3.95406 6.23898 3.94991 6.1319 3.95356L7.84469 5.66636C8.31838 5.74246 8.75181 5.8253 9.14549 5.91462C9.79226 6.06136 10.7053 6.36786 11.9006 6.8508L11.9068 6.85325C12.4539 7.07248 13.0645 7.07263 13.6119 6.85351C14.7345 6.40406 15.6878 6.09396 16.4772 5.91456C17.367 5.71235 18.2779 5.55618 19.2102 5.44624C19.598 5.40051 19.9494 5.67781 19.9951 6.06561C20.0004 6.11021 20.0014 6.15521 19.9981 6.19999L19.3166 15.5178C19.2856 15.9419 19.07 16.3202 18.7426 16.5643L19.8088 17.6304ZM14.8634 16.9241C14.7583 17.3905 14.5025 17.7999 14.1483 18.0992C13.9798 18.2417 13.8825 18.4513 13.8825 18.672C13.8825 18.9536 13.8798 19.2826 13.8742 19.6593L13.5727 19.4642C13.0755 19.1424 12.4368 19.1383 11.9356 19.4537L11.6037 19.6626V18.6563C11.6037 18.4377 11.5083 18.2301 11.3426 18.0876C10.8796 17.6896 10.5882 17.102 10.5882 16.4456C10.5882 15.4148 11.3089 14.5523 12.2739 14.3346L14.8634 16.9241Z" fill="black"/>
</svg>
