<svg width="24" height="24" viewBox="0 0 24 24" fill="none" xmlns="http://www.w3.org/2000/svg">
<path d="M18.8899 4.40743C19.3455 4.35369 19.7585 4.67952 19.8122 5.13519C19.8184 5.18759 19.8196 5.24046 19.8157 5.29309L19.0994 15.0872C19.05 15.7619 18.5808 16.3323 17.9282 16.5107L17.0429 16.7528C16.6696 16.8549 16.4497 17.2403 16.5518 17.6136C16.6538 17.9869 17.0392 18.2068 17.4125 18.1047L18.2978 17.8626C19.5233 17.5275 20.4045 16.4565 20.4972 15.1894L21.2135 5.39532C21.2238 5.25392 21.2207 5.11186 21.2041 4.97106C21.0597 3.74669 19.9501 2.87119 18.7257 3.01558C17.6949 3.13714 16.6854 3.31009 15.6975 3.53461C14.7668 3.74613 13.6867 4.10101 12.4622 4.5912C12.2415 4.67956 11.9952 4.67917 11.7748 4.59011L11.7697 4.5881C10.4902 4.0713 9.44552 3.71495 8.65043 3.53456C7.74982 3.33022 6.69197 3.16121 5.48085 3.02555C5.34614 3.01046 5.21033 3.00768 5.07512 3.01722C3.84533 3.10407 2.91878 4.17142 3.00564 5.40122L3.69621 15.1803C3.78602 16.4521 4.67035 17.528 5.90069 17.8623L6.84958 18.1201C7.22305 18.2216 7.60807 18.0011 7.70955 17.6276C7.81103 17.2541 7.59053 16.8691 7.21706 16.7676L6.26817 16.5098C5.61298 16.3318 5.14205 15.7588 5.09422 15.0816L4.40365 5.30247C4.37132 4.84479 4.71615 4.44756 5.17384 4.41524C5.22416 4.41168 5.27471 4.41272 5.32484 4.41834C6.50073 4.55005 7.50458 4.7117 8.34034 4.90131C9.02701 5.05711 9.99186 5.38133 11.2497 5.88956L11.2557 5.89195C11.81 6.1141 12.4286 6.11429 12.9831 5.89231C14.1658 5.41884 15.1724 5.09118 16.0081 4.90126C16.9464 4.68801 17.9069 4.52334 18.8899 4.40743ZM12.1125 12.2923C10.0338 12.2923 8.34867 13.9774 8.34867 16.0561C8.34867 17.0776 8.7563 18.0045 9.41604 18.682V20.7182C9.41604 21.15 9.76608 21.5 10.1979 21.5C10.3452 21.5 10.4896 21.4584 10.6143 21.3799L12.0471 20.4783C12.0834 20.4555 12.1296 20.4558 12.1657 20.4791L13.5493 21.3747L13.5533 21.3773C13.9134 21.6069 14.3952 21.5061 14.6303 21.143C14.7088 21.0217 14.7521 20.8811 14.7555 20.7367C14.7744 19.9293 14.7855 19.2509 14.7886 18.7026C15.4603 18.0234 15.8762 17.088 15.8762 16.0561C15.8762 13.9774 14.1911 12.2923 12.1125 12.2923ZM9.75016 16.0561C9.75016 14.7514 10.8078 13.6938 12.1125 13.6938C13.4171 13.6938 14.4748 14.7514 14.4748 16.0561C14.4748 16.7797 14.1503 17.4268 13.6364 17.8612C13.4789 17.9943 13.3881 18.1901 13.3881 18.3963C13.3881 18.7317 13.3843 19.1306 13.3768 19.5936L12.9272 19.3025C12.4332 18.9828 11.7987 18.9788 11.3007 19.2921L10.8175 19.5961V18.3799C10.8175 18.1756 10.7284 17.9816 10.5736 17.8485C10.0683 17.4142 9.75016 16.7727 9.75016 16.0561Z" fill="black"/>
</svg>
