<svg width="24" height="24" viewBox="0 0 24 24" fill="none" xmlns="http://www.w3.org/2000/svg">
<path d="M10.3182 3.75C10.3182 3.33579 9.98245 3 9.56824 3C9.15402 3 8.81824 3.33579 8.81824 3.75V5.04293C8.81824 5.05652 8.8186 5.07002 8.81931 5.08344H8.08337C6.42652 5.08344 5.08337 6.42658 5.08337 8.08343V8.81931C5.06998 8.8186 5.0565 8.81824 5.04293 8.81824H3.75C3.33579 8.81824 3 9.15402 3 9.56824C3 9.98245 3.33579 10.3182 3.75 10.3182H5.04293C5.0565 10.3182 5.06998 10.3179 5.08337 10.3172V12.4558C5.06998 12.4551 5.0565 12.4547 5.04293 12.4547H3.75C3.33579 12.4547 3 12.7905 3 13.2047C3 13.6189 3.33579 13.9547 3.75 13.9547H5.04293C5.0565 13.9547 5.06998 13.9544 5.08337 13.9536V15.4168C5.08337 17.0737 6.42652 18.4168 8.08337 18.4168H8.8193C8.81859 18.4301 8.81824 18.4435 8.81824 18.457V19.75C8.81824 20.1642 9.15402 20.5 9.56824 20.5C9.98245 20.5 10.3182 20.1642 10.3182 19.75V18.457C10.3182 18.4435 10.3179 18.4301 10.3172 18.4168H13.1828C13.1821 18.4301 13.1818 18.4435 13.1818 18.457V19.75C13.1818 20.1642 13.5175 20.5 13.9318 20.5C14.346 20.5 14.6818 20.1642 14.6818 19.75V18.457C14.6818 18.4435 14.6814 18.4301 14.6807 18.4168H15.4167C17.0736 18.4168 18.4167 17.0737 18.4167 15.4168V13.9536C18.4301 13.9544 18.4436 13.9547 18.4572 13.9547H19.7501C20.1643 13.9547 20.5001 13.6189 20.5001 13.2047C20.5001 12.7905 20.1643 12.4547 19.7501 12.4547H18.4572C18.4436 12.4547 18.4301 12.4551 18.4167 12.4558V10.3172C18.4301 10.3179 18.4436 10.3182 18.4572 10.3182H19.7501C20.1643 10.3182 20.5001 9.98245 20.5001 9.56824C20.5001 9.15402 20.1643 8.81824 19.7501 8.81824H18.4572C18.4436 8.81824 18.4301 8.8186 18.4167 8.81931V8.08344C18.4167 6.42658 17.0736 5.08344 15.4167 5.08344H14.6807C14.6814 5.07002 14.6818 5.05652 14.6818 5.04293V3.75C14.6818 3.33579 14.346 3 13.9318 3C13.5175 3 13.1818 3.33579 13.1818 3.75V5.04293C13.1818 5.05652 13.1821 5.07002 13.1828 5.08344H10.3172C10.3179 5.07002 10.3182 5.05652 10.3182 5.04293V3.75ZM15.4167 6.58344C16.2452 6.58344 16.9167 7.25501 16.9167 8.08344V15.4168C16.9167 16.2452 16.2452 16.9168 15.4167 16.9168H8.08337C7.25495 16.9168 6.58337 16.2452 6.58337 15.4168V8.08343C6.58337 7.25501 7.25495 6.58344 8.08337 6.58344H15.4167ZM10.5834 10.5834H12.9167V12.9168H10.5834V10.5834ZM9.08337 10.5834V12.9168C9.08337 13.7452 9.75495 14.4168 10.5834 14.4168H12.9167C13.7451 14.4168 14.4167 13.7452 14.4167 12.9168V10.5834C14.4167 9.75501 13.7451 9.08344 12.9167 9.08344H10.5834C9.75495 9.08344 9.08337 9.75501 9.08337 10.5834Z" fill="black"/>
</svg>
