<svg width="24" height="24" viewBox="0 0 24 24" fill="none" xmlns="http://www.w3.org/2000/svg">
<path d="M5 14.5V15.5C5 15.7761 5.22386 16 5.5 16H7.5C7.77614 16 8 15.7761 8 15.5V14.5C8 14.2239 7.77614 14 7.5 14H5.5C5.22386 14 5 14.2239 5 14.5Z" fill="black"/>
<path d="M9.5 14C9.22386 14 9 14.2239 9 14.5V15.5C9 15.7761 9.22386 16 9.5 16H13.5C13.7761 16 14 15.7761 14 15.5V14.5C14 14.2239 13.7761 14 13.5 14H9.5Z" fill="black"/>
<path d="M2 8V16C2 17.6569 3.34315 19 5 19H19C20.6569 19 22 17.6569 22 16V8C22 6.34315 20.6569 5 19 5H5C3.34315 5 2 6.34315 2 8ZM20.5 8V8.86768H3.54102C3.52725 8.86768 3.51358 8.86805 3.5 8.86878V8C3.5 7.17157 4.17157 6.5 5 6.5H19C19.8284 6.5 20.5 7.17157 20.5 8ZM20.5 10.3677V16C20.5 16.8284 19.8284 17.5 19 17.5H5C4.17157 17.5 3.5 16.8284 3.5 16V10.3666C3.51358 10.3673 3.52725 10.3677 3.54102 10.3677H20.5Z" fill="black"/>
</svg>
