<svg width="24" height="24" viewBox="0 0 24 24" fill="none" xmlns="http://www.w3.org/2000/svg">
<path d="M16.5508 15.8003C16.1366 15.8003 15.8008 16.1361 15.8008 16.5503V19.7502C15.8008 20.1644 16.1366 20.5002 16.5508 20.5002C16.965 20.5002 17.3008 20.1644 17.3008 19.7502V16.5503C17.3008 16.1361 16.965 15.8003 16.5508 15.8003Z" fill="black"/>
<path d="M3 6.94938C3 7.36359 3.33579 7.69938 3.75 7.69938H6.94993C7.36414 7.69938 7.69993 7.36359 7.69993 6.94938C7.69993 6.53517 7.36414 6.19938 6.94993 6.19938H3.75C3.33579 6.19938 3 6.53517 3 6.94938Z" fill="black"/>
<path d="M10 6.94938C10 7.36359 10.3358 7.69938 10.75 7.69938H14.5499C15.2403 7.69938 15.7999 8.25902 15.7999 8.94938V12.7493C15.7999 13.1635 16.1357 13.4993 16.5499 13.4993C16.9641 13.4993 17.2999 13.1635 17.2999 12.7493V8.94938C17.2999 7.4306 16.0687 6.19938 14.5499 6.19938H10.75C10.3358 6.19938 10 6.53517 10 6.94938Z" fill="black"/>
<path d="M6.94922 3C6.53501 3 6.19922 3.33579 6.19922 3.75V14.5497C6.19922 16.0685 7.43044 17.2997 8.94922 17.2997H19.7489C20.1632 17.2997 20.4989 16.9639 20.4989 16.5497C20.4989 16.1355 20.1632 15.7997 19.7489 15.7997H8.94922C8.25886 15.7997 7.69922 15.2401 7.69922 14.5497V3.75C7.69922 3.33579 7.36343 3 6.94922 3Z" fill="black"/>
</svg>
