<svg width="24" height="24" viewBox="0 0 24 24" fill="none" xmlns="http://www.w3.org/2000/svg">
<path d="M11.7499 6.5C14.6497 6.5 16.9998 8.85013 16.9998 11.7499C16.9998 14.6497 14.6497 16.9998 11.7499 16.9998C8.85013 16.9998 6.5 14.6497 6.5 11.7499C6.5 8.85013 8.85013 6.5 11.7499 6.5ZM11.7499 5C8.0217 5 5 8.0217 5 11.7499C5 15.4781 8.0217 18.4998 11.7499 18.4998C15.4781 18.4998 18.4998 15.4781 18.4998 11.7499C18.4998 8.0217 15.4781 5 11.7499 5Z" fill="black"/>
<path d="M11.7492 11.4492C11.9149 11.4492 12.0492 11.5834 12.0492 11.7492C12.0492 11.9149 11.9149 12.0492 11.7492 12.0492C11.5834 12.0492 11.4492 11.9149 11.4492 11.7492C11.4492 11.5834 11.5834 11.4492 11.7492 11.4492ZM11.7492 9.94922C10.755 9.94922 9.94922 10.755 9.94922 11.7492C9.94922 12.7434 10.755 13.5492 11.7492 13.5492C12.7434 13.5492 13.5492 12.7434 13.5492 11.7492C13.5492 10.755 12.7434 9.94922 11.7492 9.94922Z" fill="black"/>
<path d="M2 11.75C2 12.1642 2.33579 12.5 2.75 12.5H7.99992C8.41413 12.5 8.74992 12.1642 8.74992 11.75C8.74992 11.3358 8.41413 11 7.99992 11H2.75C2.33579 11 2 11.3358 2 11.75Z" fill="black"/>
<path d="M14.75 11.75C14.75 12.1642 15.0858 12.5 15.5 12.5H20.7499C21.1641 12.5 21.4999 12.1642 21.4999 11.75C21.4999 11.3358 21.1641 11 20.7499 11H15.5C15.0858 11 14.75 11.3358 14.75 11.75Z" fill="black"/>
<path d="M11.75 2C11.3358 2 11 2.33579 11 2.75V7.99992C11 8.41413 11.3358 8.74992 11.75 8.74992C12.1642 8.74992 12.5 8.41413 12.5 7.99992V2.75C12.5 2.33579 12.1642 2 11.75 2Z" fill="black"/>
<path d="M11.75 14.75C11.3358 14.75 11 15.0858 11 15.5V20.7499C11 21.1641 11.3358 21.4999 11.75 21.4999C12.1642 21.4999 12.5 21.1641 12.5 20.7499V15.5C12.5 15.0858 12.1642 14.75 11.75 14.75Z" fill="black"/>
</svg>
