<svg width="24" height="24" viewBox="0 0 24 24" fill="none" xmlns="http://www.w3.org/2000/svg">
<path d="M12.1772 4.53839L17.8176 7.79451L12.034 11.1335L6.24964 7.79407L11.8907 4.53838C11.9794 4.48723 12.0884 4.48728 12.1772 4.53839ZM4.155 7.66428C4.05439 7.88971 4 8.13709 4 8.39232V15.6077C4 16.2459 4.3401 16.8351 4.89266 17.1538L11.1413 20.761C11.6938 21.0797 12.374 21.0797 12.9266 20.761L19.1752 17.1538C19.7277 16.8342 20.0678 16.245 20.0678 15.6068V8.39232C20.0678 7.75407 19.7277 7.16492 19.1752 6.84624L12.9266 3.23901C12.374 2.92033 11.6938 2.92033 11.1413 3.23901L4.89266 6.84535C4.67153 6.97324 4.48442 7.1443 4.33953 7.34441C4.29711 7.38805 4.25936 7.43759 4.22755 7.49269C4.19565 7.54795 4.17158 7.60557 4.155 7.66428ZM5.5 9.09332L11.2842 12.4326V19.1115L5.64206 15.8544C5.55442 15.8038 5.5 15.7103 5.5 15.6077V9.09332ZM12.7842 12.4324L18.5678 9.09339V15.6068C18.5678 15.709 18.5135 15.8036 18.4242 15.8553L12.7842 19.1112V12.4324Z" fill="black"/>
</svg>
