<svg width="24" height="24" viewBox="0 0 24 24" fill="none" xmlns="http://www.w3.org/2000/svg">
<path d="M18.7491 6.03183C19.1458 6.15085 19.371 6.56896 19.2519 6.96571L18.8566 8.28357H19.6C19.9314 8.28357 20.2 8.5522 20.2 8.88357C20.2 9.21494 19.9314 9.48357 19.6 9.48357H18.4966L17.8966 11.4835H19.6C19.9314 11.4835 20.2 11.7521 20.2 12.0835C20.2 12.4149 19.9314 12.6835 19.6 12.6835H17.5366L16.0519 17.6324C15.9568 17.9496 15.6648 18.1669 15.3336 18.1669C15.0024 18.1669 14.7104 17.9496 14.6152 17.6324L13.1305 12.6835H10.8515L9.10814 17.6646C8.99866 17.9774 8.6969 18.1813 8.36587 18.1661C8.03484 18.1509 7.75301 17.9203 7.67264 17.5988L6.44382 12.6835H3.6C3.26863 12.6835 3 12.4149 3 12.0835C3 11.7521 3.26863 11.4835 3.6 11.4835H6.14382L5.64384 9.48357H3.6C3.26863 9.48357 3 9.21494 3 8.88357C3 8.5522 3.26863 8.28357 3.6 8.28357H5.34384L5.00597 6.9321C4.90551 6.53025 5.14983 6.12305 5.55167 6.02259C5.95352 5.92213 6.36072 6.16645 6.46118 6.5683L6.89 8.28357H10.8023L11.4257 6.50243C11.533 6.19573 11.8257 5.99304 12.1505 6.00039C12.4754 6.00774 12.7586 6.22345 12.8519 6.53469L13.3766 8.28357H17.2905L17.8152 6.53469C17.9342 6.13794 18.3523 5.9128 18.7491 6.03183ZM7.98999 12.6835L8.52012 14.804L9.2623 12.6835H7.98999ZM9.6823 11.4835L10.3823 9.48357H7.19L7.68999 11.4835H9.6823ZM11.2715 11.4835H12.7705L12.1706 9.48357H11.9715L11.2715 11.4835ZM14.6966 12.6835L15.3336 14.8068L15.9706 12.6835H14.6966ZM16.3306 11.4835L16.9305 9.48357H13.7366L14.3366 11.4835H16.3306Z" fill="black"/>
</svg>
