<svg width="24" height="24" viewBox="0 0 24 24" fill="none" xmlns="http://www.w3.org/2000/svg">
<path d="M6.67797 4.15004C6.3466 4.39857 6.27945 4.86867 6.52797 5.20004L10.1684 10.054H6.75C6.33579 10.054 6 10.3897 6 10.804C6 11.2182 6.33579 11.554 6.75 11.554H10.9185V13.0809H6.75C6.33579 13.0809 6 13.4167 6 13.8309C6 14.2451 6.33579 14.5809 6.75 14.5809H10.9185V18.75C10.9185 19.1643 11.2543 19.5 11.6685 19.5C12.0827 19.5 12.4185 19.1643 12.4185 18.75V14.5809H16.5878C17.0021 14.5809 17.3378 14.2451 17.3378 13.8309C17.3378 13.4167 17.0021 13.0809 16.5878 13.0809H12.4185V11.554H16.5878C17.0021 11.554 17.3378 11.2182 17.3378 10.804C17.3378 10.3897 17.0021 10.054 16.5878 10.054H13.1686L16.8091 5.20004C17.0576 4.86867 16.9904 4.39857 16.6591 4.15004C16.3277 3.90152 15.8576 3.96867 15.6091 4.30004L11.6685 9.5541L7.72797 4.30004C7.47945 3.96867 7.00934 3.90152 6.67797 4.15004Z" fill="black"/>
</svg>
