<svg width="24" height="24" viewBox="0 0 24 24" fill="none" xmlns="http://www.w3.org/2000/svg">
<path d="M13.6684 6.94737C14.1603 7.29027 14.5043 7.88246 14.5486 8.7263C14.5703 9.13994 14.9232 9.45768 15.3368 9.43598C15.7505 9.41428 16.0682 9.06137 16.0465 8.64772C15.9816 7.40939 15.4495 6.35569 14.5169 5.71025L14.5061 5.70306C13.7041 5.16821 12.7035 4.90202 11.6436 5.033C10.7434 5.13071 9.75104 5.50233 8.99715 6.25622C8.22665 7.02672 7.76284 8.14051 7.85133 9.58961C7.85308 10.1172 7.91142 10.5851 7.96406 11.0072L7.96595 11.0224L7.96691 11.0303L8.08081 11.8883H7.75C7.33579 11.8883 7 12.2241 7 12.6383C7 13.0525 7.33579 13.3883 7.75 13.3883H8.24651C8.27263 13.733 8.29051 14.0686 8.29051 14.4019C8.29051 15.4532 8.09141 16.4455 7.6429 17.4423C7.53848 17.6743 7.55886 17.9435 7.69705 18.1573C7.83523 18.371 8.07236 18.5 8.32686 18.5H14.775C15.1892 18.5 15.525 18.1642 15.525 17.75C15.525 17.3358 15.1892 17 14.775 17H9.40992C9.67052 16.1486 9.79051 15.288 9.79051 14.4019C9.79051 14.0605 9.77411 13.721 9.75056 13.3883H13.1072C13.5214 13.3883 13.8572 13.0525 13.8572 12.6383C13.8572 12.2241 13.5214 11.8883 13.1072 11.8883H9.59397L9.45505 10.8418L9.45437 10.8364C9.45438 10.8364 9.45436 10.8363 9.45437 10.8364C9.39948 10.3961 9.35129 10.0031 9.35129 9.56535C9.35129 9.54907 9.35076 9.53279 9.3497 9.51655C9.28033 8.4526 9.61141 7.76328 10.0578 7.31688C10.5233 6.85137 11.1746 6.59193 11.81 6.52387L11.8232 6.52222C12.5149 6.43568 13.156 6.60747 13.6684 6.94737Z" fill="black"/>
</svg>
