<svg width="24" height="24" viewBox="0 0 24 24" fill="none" xmlns="http://www.w3.org/2000/svg">
<path d="M11.9369 5C11.5227 5 11.1869 5.33579 11.1869 5.75V6.59196H10.9872C9.33842 6.59196 8 7.92809 8 9.57917C8 10.9498 8.93398 12.1433 10.2601 12.4754L13.2459 13.2254L13.2465 13.2256C13.9094 13.3937 14.3738 13.9894 14.3738 14.6703C14.3738 15.4913 13.7086 16.1575 12.8866 16.1575H12.0073C11.9841 16.1553 11.9607 16.1542 11.9369 16.1542C11.9132 16.1542 11.8897 16.1553 11.8666 16.1575H11.1402C10.5831 16.1575 10.106 15.8574 9.81071 15.374C9.59478 15.0205 9.13319 14.909 8.77971 15.1249C8.42622 15.3409 8.31471 15.8025 8.53064 16.1559C9.06078 17.0238 9.99223 17.6575 11.1402 17.6575H11.1869V18.4977C11.1869 18.9119 11.5227 19.2477 11.9369 19.2477C12.3511 19.2477 12.6869 18.9119 12.6869 18.4977V17.6575H12.8866C14.5377 17.6575 15.8738 16.3191 15.8738 14.6703C15.8738 13.299 14.9394 12.1069 13.6141 11.7713L13.6127 11.771L10.625 11.0205L10.6244 11.0203C9.96507 10.8552 9.5 10.2609 9.5 9.57917C9.5 8.75721 10.1661 8.09196 10.9872 8.09196H11.8892C11.905 8.09295 11.9209 8.09346 11.9369 8.09346C11.953 8.09346 11.9689 8.09295 11.9847 8.09196H12.7336C13.2882 8.09196 13.7649 8.39115 14.0581 8.87182C14.2738 9.22544 14.7353 9.33727 15.0889 9.12158C15.4425 8.90589 15.5544 8.44437 15.3387 8.09075C14.8096 7.22335 13.8777 6.59196 12.7336 6.59196H12.6869V5.75C12.6869 5.33579 12.3511 5 11.9369 5Z" fill="black"/>
</svg>
