<svg width="24" height="24" viewBox="0 0 24 24" fill="none" xmlns="http://www.w3.org/2000/svg">
<path d="M13.6074 3C13.1932 3 12.8574 3.33579 12.8574 3.75V5.29765C12.2115 5.25854 11.5607 5.31598 10.9287 5.46996V3.75C10.9287 3.33579 10.5929 3 10.1787 3C9.7645 3 9.42871 3.33579 9.42871 3.75V6.03571C9.42871 6.03756 9.42872 6.03941 9.42873 6.04125C8.87694 6.33499 8.35872 6.71439 7.89367 7.17944C5.36878 9.70433 5.36878 13.7963 7.89367 16.3212C8.35872 16.7863 8.87693 17.1657 9.42873 17.4594C9.42872 17.461 9.42871 17.4627 9.42871 17.4643V19.75C9.42871 20.1642 9.7645 20.5 10.1787 20.5C10.5929 20.5 10.9287 20.1642 10.9287 19.75V18.0307C11.5607 18.1847 12.2115 18.2421 12.8574 18.203V19.75C12.8574 20.1642 13.1932 20.5 13.6074 20.5C14.0216 20.5 14.3574 20.1642 14.3574 19.75V18.0357C14.3574 18.0015 14.3551 17.9679 14.3507 17.9349C15.3331 17.6361 16.2585 17.0982 17.0355 16.3212C17.3284 16.0283 17.3284 15.5535 17.0355 15.2606C16.7426 14.9677 16.2677 14.9677 15.9748 15.2606C14.0357 17.1997 10.8934 17.1997 8.95433 15.2606C7.01522 13.3215 7.01522 10.1792 8.95433 8.2401C10.8934 6.30099 14.0357 6.30099 15.9748 8.2401C16.2677 8.53299 16.7426 8.53299 17.0355 8.2401C17.3284 7.9472 17.3284 7.47233 17.0355 7.17944C16.2585 6.40244 15.3331 5.86456 14.3506 5.56578C14.3551 5.53259 14.3574 5.49871 14.3574 5.46429V3.75C14.3574 3.33579 14.0216 3 13.6074 3Z" fill="black"/>
</svg>
