<svg width="24" height="24" viewBox="0 0 24 24" fill="none" xmlns="http://www.w3.org/2000/svg">
<path d="M18 6.8125H16.8968C16.6344 6.26978 16.2654 5.78011 15.8115 5.36693C15.331 4.92963 14.7644 4.58604 14.1455 4.3527C13.5267 4.11939 12.8655 4 12.1992 4H8.15625C7.95734 4 7.76657 4.07902 7.62592 4.21967C7.48527 4.36032 7.40625 4.55109 7.40625 4.75L7.40625 6.8125H6.75C6.33579 6.8125 6 7.14829 6 7.5625C6 7.97671 6.33579 8.3125 6.75 8.3125H7.40625L7.40625 9.35718H6.75C6.33579 9.35718 6 9.69296 6 10.1072C6 10.5214 6.33579 10.8572 6.75 10.8572H7.40625L7.40625 18.75C7.40625 19.1642 7.74204 19.5 8.15625 19.5C8.57046 19.5 8.90625 19.1642 8.90625 18.75L8.90625 13.5H12.1992C12.8655 13.5 13.5267 13.3806 14.1455 13.1473C14.7644 12.914 15.331 12.5704 15.8115 12.1331C16.2176 11.7634 16.5557 11.3325 16.8104 10.8572H18C18.4142 10.8572 18.75 10.5214 18.75 10.1072C18.75 9.69296 18.4142 9.35718 18 9.35718H17.3016C17.3296 9.15643 17.3438 8.95364 17.3438 8.75C17.3438 8.60358 17.3364 8.4576 17.3219 8.3125H18C18.4142 8.3125 18.75 7.97671 18.75 7.5625C18.75 7.14829 18.4142 6.8125 18 6.8125ZM15.7794 9.35718C15.8222 9.15709 15.8438 8.9538 15.8438 8.75C15.8438 8.60357 15.8326 8.45741 15.8105 8.3125H8.90625V9.35718H15.7794ZM8.90625 10.8572V12L12.1992 12C12.6871 12 13.1688 11.9125 13.6163 11.7437C14.0638 11.575 14.4661 11.3294 14.8018 11.0238C14.861 10.9699 14.9179 10.9143 14.9725 10.8572H8.90625ZM15.1241 6.8125H8.90625V5.5H12.1992C12.6871 5.5 13.1688 5.58754 13.6163 5.75626C14.0638 5.92496 14.4661 6.17065 14.8018 6.47622C14.9182 6.5822 15.0258 6.69461 15.1241 6.8125Z" fill="black"/>
</svg>
