<svg width="24" height="24" viewBox="0 0 24 24" fill="none" xmlns="http://www.w3.org/2000/svg">
<path d="M17.8335 8.48333C17.8335 7.88774 17.7085 7.29924 17.4669 6.75186C17.2254 6.20462 16.8729 5.71059 16.4319 5.29663C15.991 4.88277 15.4701 4.55679 14.9 4.33516C14.3301 4.11355 13.7207 4 13.1062 4H9.44713C9.24822 4 9.05746 4.07902 8.9168 4.21967C8.77615 4.36032 8.69713 4.55109 8.69713 4.75L8.69713 11.4667H7.75016C7.33595 11.4667 7.00016 11.8025 7.00016 12.2167C7.00016 12.6309 7.33595 12.9667 7.75016 12.9667H8.69713L8.69713 14.5H7.75C7.33579 14.5 7 14.8358 7 15.25C7 15.6642 7.33579 16 7.75 16H8.69713L8.69713 18.75C8.69713 19.1642 9.03292 19.5 9.44713 19.5C9.86135 19.5 10.1971 19.1642 10.1971 18.75V16H15.2167C15.6309 16 15.9667 15.6642 15.9667 15.25C15.9667 14.8358 15.6309 14.5 15.2167 14.5H10.1971V12.9667H13.1062C13.7207 12.9667 14.3301 12.8531 14.9 12.6315C15.4701 12.4099 15.991 12.0839 16.4319 11.67C16.8729 11.2561 17.2254 10.762 17.4669 10.2148C17.7085 9.66743 17.8335 9.07892 17.8335 8.48333ZM13.1062 11.4667L10.1971 11.4667L10.1971 5.5H13.1062C13.5364 5.5 13.9614 5.57958 14.3565 5.73321C14.7515 5.88681 15.1075 6.11082 15.4053 6.3903C15.7029 6.66969 15.9363 6.99878 16.0946 7.35744C16.2528 7.71596 16.3335 8.09839 16.3335 8.48333C16.3335 8.86828 16.2528 9.25071 16.0946 9.60923C15.9363 9.96789 15.7029 10.297 15.4053 10.5764C15.1075 10.8558 14.7515 11.0799 14.3565 11.2335C13.9614 11.3871 13.5364 11.4667 13.1062 11.4667Z" fill="black"/>
</svg>
