<svg width="24" height="24" viewBox="0 0 24 24" fill="none" xmlns="http://www.w3.org/2000/svg">
<path d="M10.3867 4C9.97251 4 9.63672 4.33579 9.63672 4.75V7.65149L6.26192 10.5442C5.94743 10.8137 5.911 11.2872 6.18057 11.6017C6.45014 11.9162 6.92361 11.9526 7.23811 11.6831L9.63672 9.62711V11.6775L6.71651 14.1805C6.40202 14.4501 6.36559 14.9236 6.63516 15.2381C6.90473 15.5526 7.3782 15.589 7.6927 15.3194L9.63672 13.6531V19.75C9.63672 20.0068 9.76806 20.2457 9.98485 20.3833C10.2016 20.5208 10.4737 20.5379 10.7061 20.4286C12.0547 19.7939 14.0049 18.5841 15.4921 16.9887C16.9688 15.4045 18.1205 13.2869 17.4739 10.9163C17.3649 10.5167 16.9526 10.2811 16.553 10.3901C16.1534 10.4991 15.9178 10.9114 16.0268 11.311C16.4712 12.9404 15.7289 14.5349 14.3949 15.9659C13.4212 17.0105 12.2019 17.8865 11.1367 18.5065V12.3674L14.0563 9.86487C14.3708 9.5953 14.4072 9.12182 14.1377 8.80733C13.8681 8.49284 13.3946 8.45641 13.0801 8.72598L11.1367 10.3918V8.34139L13.6017 6.22851C13.9162 5.95895 13.9527 5.48547 13.6831 5.17098C13.4135 4.85648 12.9401 4.82006 12.6256 5.08963L11.1367 6.36578V4.75C11.1367 4.33579 10.8009 4 10.3867 4Z" fill="black"/>
</svg>
