<svg width="24" height="24" viewBox="0 0 24 24" fill="none" xmlns="http://www.w3.org/2000/svg">
<path d="M10.7498 7.30911C12.6163 5.44259 15.3555 5.03005 17.6484 6.02512C18.0284 6.19001 18.4701 6.01566 18.635 5.63568C18.7999 5.2557 18.6256 4.814 18.2456 4.6491C15.419 3.42249 12.0148 3.92277 9.6891 6.24845C8.35978 7.57778 7.612 9.26824 7.44579 11.0038H6.75C6.33579 11.0038 6 11.3396 6 11.7538C6 12.1681 6.33579 12.5038 6.75 12.5038H7.44657C7.61432 14.2365 8.36173 15.9236 9.6888 17.2508C12.0124 19.5771 15.4168 20.0769 18.2453 18.8506C18.6254 18.6858 18.7999 18.2442 18.6351 17.8641C18.4704 17.4841 18.0287 17.3096 17.6487 17.4744C15.3529 18.4697 12.6139 18.0567 10.7501 16.1908C9.71584 15.1565 9.11739 13.8513 8.95533 12.5038H15.1851C15.5993 12.5038 15.9351 12.1681 15.9351 11.7538C15.9351 11.3396 15.5993 11.0038 15.1851 11.0038H8.95436C9.11499 9.65356 9.71346 8.34542 10.7498 7.30911Z" fill="black"/>
</svg>
