<svg width="24" height="24" viewBox="0 0 24 24" fill="none" xmlns="http://www.w3.org/2000/svg">
<path d="M11.025 4.7C11.025 4.3134 10.7116 4 10.325 4C9.9384 4 9.625 4.3134 9.625 4.7V5.3125H7.7C7.3134 5.3125 7 5.6259 7 6.0125C7 6.3991 7.3134 6.7125 7.7 6.7125H8.3125V16.6874H7.7C7.3134 16.6874 7 17.0008 7 17.3874C7 17.774 7.3134 18.0874 7.7 18.0874H9.625V18.7C9.625 19.0866 9.9384 19.4 10.325 19.4C10.7116 19.4 11.025 19.0866 11.025 18.7V18.0874H12.25V18.7C12.25 19.0866 12.5634 19.4 12.95 19.4C13.3366 19.4 13.65 19.0866 13.65 18.7V18.0815C14.3468 18.0502 15.2361 17.8871 16.0021 17.4059C16.9156 16.832 17.5875 15.8433 17.5875 14.3249C17.5875 13.5602 17.3887 12.9113 17.0309 12.3792C16.6767 11.8522 16.1922 11.4774 15.6745 11.2131C15.579 11.1644 15.4818 11.1191 15.3831 11.077C15.659 10.8949 15.9136 10.6731 16.1258 10.4025C16.499 9.92676 16.7125 9.33602 16.7125 8.6375C16.7125 7.24841 15.9889 6.37422 15.0866 5.88836C14.6283 5.64161 14.1266 5.49397 13.65 5.41006V4.7C13.65 4.3134 13.3366 4 12.95 4C12.5634 4 12.25 4.3134 12.25 4.7V5.3125H11.025V4.7ZM11.6855 10.5624H9.8875C9.88317 10.5624 9.87885 10.5624 9.87453 10.5625H9.7125V6.7125H12.5125C13.1132 6.7125 13.8563 6.81595 14.4228 7.12102C14.9424 7.40079 15.3125 7.83909 15.3125 8.6375C15.3125 9.03274 15.198 9.31701 15.0242 9.53852C14.8423 9.77041 14.5668 9.96882 14.2007 10.129C13.4698 10.4488 12.512 10.5583 11.6855 10.5624ZM11.6889 11.9624H12.5125C13.3411 11.9624 14.3062 12.0865 15.038 12.4601C15.3953 12.6425 15.6765 12.8737 15.8691 13.1603C16.0582 13.4416 16.1875 13.8135 16.1875 14.3249C16.1875 15.3586 15.7657 15.9011 15.2573 16.2204C14.7015 16.5696 13.9752 16.6874 13.3875 16.6874H9.7125V11.9625H11.6375C11.6546 11.9625 11.6717 11.9625 11.6889 11.9624Z" fill="black"/>
</svg>
