<svg width="24" height="24" viewBox="0 0 24 24" fill="none" xmlns="http://www.w3.org/2000/svg">
<path d="M7 4.75C7 5.12559 7.27609 5.4367 7.63639 5.49145C7.67344 5.49708 7.71139 5.5 7.75001 5.5C7.75001 5.5 7.75 5.5 7.75001 5.5H9.15001C9.62023 5.5 10.0836 5.57729 10.5126 5.72537C10.9416 5.87348 11.3237 6.08796 11.6397 6.35129C11.9555 6.61445 12.1971 6.91944 12.3587 7.24444C12.4005 7.32859 12.4369 7.41388 12.4678 7.5H7.75C7.33579 7.5 7 7.83579 7 8.25C7 8.66421 7.33579 9 7.75 9H12.4678C12.4369 9.08612 12.4005 9.17141 12.3587 9.25556C12.1971 9.58056 11.9555 9.88555 11.6397 10.1487C11.3237 10.412 10.9416 10.6265 10.5126 10.7746C10.0836 10.9227 9.62023 11 9.15001 11H7.75001C7.4617 11 7.19892 11.1653 7.07403 11.4251C6.94914 11.685 6.98425 11.9934 7.16436 12.2185L12.7644 19.2185C13.0231 19.542 13.4951 19.5944 13.8185 19.3357C14.142 19.0769 14.1944 18.6049 13.9357 18.2815L9.30873 12.4978C9.88785 12.4819 10.4612 12.3792 11.002 12.1925C11.5921 11.9889 12.136 11.6877 12.6 11.301C13.0642 10.9142 13.4413 10.4475 13.7019 9.92322C13.8489 9.62745 13.9566 9.31769 14.0227 9H16.15C16.5642 9 16.9 8.66421 16.9 8.25C16.9 7.83579 16.5642 7.5 16.15 7.5H14.0227C13.9566 7.18231 13.8489 6.87255 13.7019 6.57678C13.5057 6.18204 13.2435 5.81995 12.9277 5.5H16.15C16.5642 5.5 16.9 5.16421 16.9 4.75C16.9 4.33579 16.5642 4 16.15 4H7.75C7.33579 4 7 4.33579 7 4.75Z" fill="black"/>
</svg>
