<svg width="24" height="24" viewBox="0 0 24 24" fill="none" xmlns="http://www.w3.org/2000/svg">
<path d="M4.62502 11.0224C5.86337 11.7293 7.37431 11.5246 8.37971 10.6202L10.0678 11.7901L8.14739 13.1487L8.14084 13.1533C8.03985 13.0788 7.93343 13.0093 7.82176 12.9456C6.27641 12.0634 4.30658 12.6009 3.42442 14.1462C2.54225 15.6915 3.07967 17.6614 4.62502 18.5435C6.17036 19.4257 8.14019 18.8883 9.02236 17.3429C9.58934 16.3497 9.56991 15.1811 9.07337 14.2387L11.3139 12.6537L18.5331 17.657C19.1005 18.0502 19.8793 17.9091 20.2725 17.3416C20.3063 17.2929 20.3362 17.2426 20.3621 17.1911L12.5517 11.7781L20.2859 6.30681C20.2595 6.2556 20.2291 6.20562 20.1949 6.15723C19.7962 5.59363 19.0161 5.45996 18.4525 5.85865L11.3056 10.9145L9.20173 9.45635C9.81538 7.97827 9.2476 6.23836 7.82176 5.42442C6.27641 4.54225 4.30658 5.07967 3.42442 6.62502C2.54225 8.17036 3.07967 10.1402 4.62502 11.0224ZM5.36866 9.71967C4.54329 9.24851 4.25534 8.19507 4.7271 7.36866C5.19827 6.54329 6.2517 6.25534 7.07811 6.7271C7.90348 7.19827 8.19143 8.2517 7.71967 9.07811C7.24851 9.90348 6.19507 10.1914 5.36866 9.71967ZM5.36866 17.2408C4.54329 16.7697 4.25534 15.7163 4.7271 14.8898C5.19827 14.0645 6.2517 13.7765 7.07811 14.2483C7.90348 14.7194 8.19143 15.7729 7.71967 16.5993C7.24851 17.4247 6.19507 17.7126 5.36866 17.2408Z" fill="black"/>
</svg>
