<svg width="24" height="24" viewBox="0 0 24 24" fill="none" xmlns="http://www.w3.org/2000/svg">
<path d="M7.55472 18.8552C7.01512 18.6626 6.68471 18.4681 6.51785 18.3272C6.51146 18.3218 6.50552 18.3167 6.5 18.3118V6.6882C6.50552 6.68334 6.51146 6.67822 6.51785 6.67282C6.68471 6.53192 7.01512 6.33745 7.55472 6.14475C8.62085 5.76402 10.1923 5.5 12 5.5C13.8077 5.5 15.3792 5.76402 16.4453 6.14475C16.9849 6.33745 17.3153 6.53192 17.4822 6.67282C17.4885 6.67822 17.4945 6.68334 17.5 6.6882V18.3118C17.4945 18.3167 17.4885 18.3218 17.4822 18.3272C17.3153 18.4681 16.9849 18.6626 16.4453 18.8552C15.3792 19.236 13.8077 19.5 12 19.5C10.1923 19.5 8.62085 19.236 7.55472 18.8552ZM12 21C15.866 21 19 19.881 19 18.5V6.5C19 5.119 15.866 4 12 4C8.134 4 5 5.119 5 6.5V18.5C5 19.881 8.134 21 12 21Z" fill="black"/>
<path d="M5.80078 5.75C5.38657 5.75 5.05078 6.08579 5.05078 6.5C5.05078 7.11213 5.40017 7.59393 5.80413 7.93504C6.21154 8.27906 6.7566 8.55506 7.36448 8.77214C8.58677 9.20864 10.226 9.46429 12.0008 9.46429C13.7755 9.46429 15.4148 9.20864 16.6371 8.77214C17.245 8.55506 17.79 8.27906 18.1974 7.93504C18.6014 7.59393 18.9508 7.11213 18.9508 6.5C18.9508 6.08579 18.615 5.75 18.2008 5.75C17.7866 5.75 17.4508 6.08579 17.4508 6.5C17.4508 6.50519 17.4506 6.52721 17.424 6.57351C17.3952 6.62387 17.3374 6.69801 17.2297 6.78898C17.0096 6.9748 16.6467 7.17593 16.1326 7.35952C15.1109 7.72437 13.6502 7.96429 12.0008 7.96429C10.3514 7.96429 8.89062 7.72437 7.86895 7.35952C7.35485 7.17593 6.99194 6.9748 6.77188 6.78898C6.66416 6.69801 6.60637 6.62387 6.57751 6.57351C6.55099 6.52721 6.55078 6.50519 6.55078 6.5C6.55078 6.08579 6.21499 5.75 5.80078 5.75Z" fill="black"/>
<path d="M5.80078 13.75C5.38657 13.75 5.05078 14.0858 5.05078 14.5C5.05078 15.1121 5.40017 15.5939 5.80413 15.935C6.21154 16.2791 6.7566 16.5551 7.36448 16.7721C8.58677 17.2086 10.226 17.4643 12.0008 17.4643C13.7755 17.4643 15.4148 17.2086 16.6371 16.7721C17.245 16.5551 17.79 16.2791 18.1974 15.935C18.6014 15.5939 18.9508 15.1121 18.9508 14.5C18.9508 14.0858 18.615 13.75 18.2008 13.75C17.7866 13.75 17.4508 14.0858 17.4508 14.5C17.4508 14.5052 17.4506 14.5272 17.424 14.5735C17.3952 14.6239 17.3374 14.698 17.2297 14.789C17.0096 14.9748 16.6467 15.1759 16.1326 15.3595C15.1109 15.7244 13.6502 15.9643 12.0008 15.9643C10.3514 15.9643 8.89062 15.7244 7.86895 15.3595C7.35485 15.1759 6.99194 14.9748 6.77188 14.789C6.66416 14.698 6.60637 14.6239 6.57751 14.5735C6.55099 14.5272 6.55078 14.5052 6.55078 14.5C6.55078 14.0858 6.21499 13.75 5.80078 13.75Z" fill="black"/>
<path d="M5.80078 9.75C5.38657 9.75 5.05078 10.0858 5.05078 10.5C5.05078 11.1121 5.40017 11.5939 5.80413 11.935C6.21154 12.2791 6.7566 12.5551 7.36448 12.7721C8.58677 13.2086 10.226 13.4643 12.0008 13.4643C13.7755 13.4643 15.4148 13.2086 16.6371 12.7721C17.245 12.5551 17.79 12.2791 18.1974 11.935C18.6014 11.5939 18.9508 11.1121 18.9508 10.5C18.9508 10.0858 18.615 9.75 18.2008 9.75C17.7866 9.75 17.4508 10.0858 17.4508 10.5C17.4508 10.5052 17.4506 10.5272 17.424 10.5735C17.3952 10.6239 17.3374 10.698 17.2297 10.789C17.0096 10.9748 16.6467 11.1759 16.1326 11.3595C15.1109 11.7244 13.6502 11.9643 12.0008 11.9643C10.3514 11.9643 8.89062 11.7244 7.86895 11.3595C7.35485 11.1759 6.99194 10.9748 6.77188 10.789C6.66416 10.698 6.60637 10.6239 6.57751 10.5735C6.55099 10.5272 6.55078 10.5052 6.55078 10.5C6.55078 10.0858 6.21499 9.75 5.80078 9.75Z" fill="black"/>
</svg>
