<svg width="24" height="24" viewBox="0 0 24 24" fill="none" xmlns="http://www.w3.org/2000/svg">
<path d="M7.73878 16.5655L4.57962 12.5887C4.47345 12.4233 4.47346 12.2101 4.57965 12.0447L7.73887 8.06708C8.02342 7.70881 8.45593 7.5 8.91346 7.5H17.5C18.6046 7.5 19.5 8.39543 19.5 9.5V15.1325C19.5 16.237 18.6046 17.1325 17.5 17.1325H8.91328C8.45581 17.1325 8.02334 16.9237 7.73878 16.5655ZM3.37371 11.1512C2.87543 11.848 2.87543 12.7854 3.37371 13.4822L6.56428 17.4985C7.1334 18.2149 7.99833 18.6325 8.91328 18.6325H17.5C19.433 18.6325 21 17.0655 21 15.1325V9.5C21 7.56701 19.433 6 17.5 6H8.91346C7.99841 6 7.13339 6.41762 6.56428 7.13416L3.37371 11.1512ZM11.5044 9.7807C11.2115 9.48781 10.7367 9.48781 10.4438 9.78071C10.1509 10.0736 10.1509 10.5485 10.4438 10.8414L11.9186 12.3162L10.4438 13.791C10.1509 14.0839 10.1509 14.5588 10.4438 14.8517C10.7367 15.1446 11.2115 15.1446 11.5044 14.8517L12.9792 13.3768L14.4541 14.8517C14.747 15.1446 15.2218 15.1446 15.5147 14.8517C15.8076 14.5588 15.8076 14.0839 15.5147 13.791L14.0399 12.3162L15.5147 10.8414C15.8076 10.5485 15.8076 10.0736 15.5147 9.78071C15.2218 9.48781 14.747 9.48781 14.4541 9.78071L12.9792 11.2555L11.5044 9.7807Z" fill="black"/>
</svg>
