<svg width="24" height="24" viewBox="0 0 24 24" fill="none" xmlns="http://www.w3.org/2000/svg">
<path d="M5 17.0556C4.17157 17.0556 3.5 16.384 3.5 15.5556V6C3.5 5.17157 4.17157 4.5 5 4.5H19C19.8284 4.5 20.5 5.17157 20.5 6V15.5556C20.5 16.384 19.8284 17.0556 19 17.0556H5ZM19 18.5556C20.6569 18.5556 22 17.2124 22 15.5556V6C22 4.34315 20.6569 3 19 3H5C3.34315 3 2 4.34315 2 6V15.5556C2 17.2124 3.34315 18.5556 5 18.5556H9.72824L8.59861 20.25H6.77734C6.36313 20.25 6.02734 20.5858 6.02734 21C6.02734 21.4142 6.36313 21.75 6.77734 21.75H9H15H17.2218C17.636 21.75 17.9718 21.4142 17.9718 21C17.9718 20.5858 17.636 20.25 17.2218 20.25H15.4014L14.2718 18.5556H19ZM13.5986 20.25H10.4014L11.4014 18.75H12.5986L13.5986 20.25Z" fill="black"/>
</svg>
