<svg width="24" height="24" viewBox="0 0 24 24" fill="none" xmlns="http://www.w3.org/2000/svg">
<path d="M20 11H4L3.88338 11.0067C3.38604 11.0645 3 11.4872 3 12C3 12.5523 3.44772 13 4 13H20L20.1166 12.9933C20.614 12.9355 21 12.5128 21 12C21 11.4477 20.5523 11 20 11Z" fill="black"/>
<path d="M12 4C10.895 4 10 4.89664 10 6.00356C10.0053 7.10968 10.9006 8 12.0036 8C13.1091 8 14.0053 7.10213 14 5.9968C14 4.89581 13.1042 4 12 4Z" fill="black"/>
<path d="M12 16C10.895 16 10 16.8966 10 18.0036C10.0053 19.1097 10.9006 20 12.0036 20C13.1091 20 14.0053 19.1021 14 17.9968C14 16.8958 13.1042 16 12 16Z" fill="black"/>
</svg>
