<svg width="24" height="24" viewBox="0 0 24 24" fill="none" xmlns="http://www.w3.org/2000/svg">
<path d="M4.5 12C4.5 7.85743 7.85743 4.5 12 4.5C16.1426 4.5 19.5 7.85743 19.5 12C19.5 16.1426 16.1426 19.5 12 19.5C7.85743 19.5 4.5 16.1426 4.5 12ZM3 12C3 16.971 7.029 21 12 21C16.971 21 21 16.971 21 12C21 7.029 16.971 3 12 3C7.029 3 3 7.029 3 12ZM10.5 12C10.5 12.8285 11.1715 13.5 12 13.5C12.8285 13.5 13.5 12.8285 13.5 12C13.5 11.1715 12.8285 10.5 12 10.5C11.1715 10.5 10.5 11.1715 10.5 12Z" fill="black"/>
</svg>
