<svg width="24" height="24" viewBox="0 0 24 24" fill="none" xmlns="http://www.w3.org/2000/svg">
<path d="M19.25 13.6667C18.8358 13.6667 18.5 14.0025 18.5 14.4167V17.9723C18.5 18.5399 18.0398 19.0001 17.4722 19.0001H5.02778C4.46015 19.0001 4 18.5399 4 17.9723L4 14.4167C4 14.0025 3.66421 13.6667 3.25 13.6667C2.83579 13.6667 2.5 14.0025 2.5 14.4167V17.9723C2.5 19.3684 3.63173 20.5001 5.02778 20.5001H17.4722C18.8683 20.5001 20 19.3684 20 17.9723V14.4167C20 14.0025 19.6642 13.6667 19.25 13.6667ZM16.2256 9.44184C15.9327 9.14894 15.4579 9.14894 15.165 9.44184L12 12.6068V3.75C12 3.33579 11.6642 3 11.25 3C10.8358 3 10.5 3.33579 10.5 3.75V12.6051L7.33675 9.44184C7.04386 9.14894 6.56899 9.14894 6.27609 9.44184C5.9832 9.73473 5.9832 10.2096 6.27609 10.5025L10.698 14.9244C10.835 15.0733 11.0316 15.1667 11.25 15.1667C11.2752 15.1667 11.3001 15.1654 11.3247 15.163C11.4914 15.1466 11.6536 15.0746 11.7812 14.9469L16.2256 10.5025C16.5185 10.2096 16.5185 9.73473 16.2256 9.44184Z" fill="black"/>
</svg>
