<svg width="24" height="24" viewBox="0 0 24 24" fill="none" xmlns="http://www.w3.org/2000/svg">
<path d="M17.1817 12.5713H6.95512L12.0684 4.90139L17.1817 12.5713ZM18.116 14.0713C18.9147 14.0713 19.3911 13.1812 18.948 12.5166L12.9005 3.4453C12.5046 2.85157 11.6322 2.85157 11.2364 3.4453L5.18881 12.5166C4.74577 13.1812 5.22217 14.0713 6.02086 14.0713H18.116Z" fill="black"/>
<path d="M6.5 17.3623H17.6358V18.6973H6.5V17.3623ZM6 15.8623C5.44772 15.8623 5 16.31 5 16.8623V19.1973C5 19.7495 5.44772 20.1973 6 20.1973H18.1358C18.6881 20.1973 19.1358 19.7495 19.1358 19.1973V16.8623C19.1358 16.31 18.6881 15.8623 18.1358 15.8623H6Z" fill="black"/>
</svg>
