<svg width="24" height="24" viewBox="0 0 24 24" fill="none" xmlns="http://www.w3.org/2000/svg">
<path d="M4.5 13.5C3.94772 13.5 3.5 13.0523 3.5 12.5C3.5 11.9477 3.94772 11.5 4.5 11.5C5.05228 11.5 5.5 11.9477 5.5 12.5C5.5 13.0523 5.05228 13.5 4.5 13.5ZM4.5 15C5.88071 15 7 13.8807 7 12.5C7 11.1193 5.88071 10 4.5 10C3.11929 10 2 11.1193 2 12.5C2 13.8807 3.11929 15 4.5 15Z" fill="black"/>
<path d="M11.5 13.5C10.9477 13.5 10.5 13.0523 10.5 12.5C10.5 11.9477 10.9477 11.5 11.5 11.5C12.0523 11.5 12.5 11.9477 12.5 12.5C12.5 13.0523 12.0523 13.5 11.5 13.5ZM11.5 15C12.8807 15 14 13.8807 14 12.5C14 11.1193 12.8807 10 11.5 10C10.1193 10 9 11.1193 9 12.5C9 13.8807 10.1193 15 11.5 15Z" fill="black"/>
<path d="M18.5 13.5C17.9477 13.5 17.5 13.0523 17.5 12.5C17.5 11.9477 17.9477 11.5 18.5 11.5C19.0523 11.5 19.5 11.9477 19.5 12.5C19.5 13.0523 19.0523 13.5 18.5 13.5ZM18.5 15C19.8807 15 21 13.8807 21 12.5C21 11.1193 19.8807 10 18.5 10C17.1193 10 16 11.1193 16 12.5C16 13.8807 17.1193 15 18.5 15Z" fill="black"/>
</svg>
