<svg width="24" height="24" viewBox="0 0 24 24" fill="none" xmlns="http://www.w3.org/2000/svg">
<path d="M7 9.25C7 9.66421 7.33579 10 7.75 10H8.75C9.16421 10 9.5 9.66421 9.5 9.25C9.5 8.83579 9.16421 8.5 8.75 8.5H7.75C7.33579 8.5 7 8.83579 7 9.25Z" fill="black"/>
<path d="M14.5 8.75V9.75C14.5 10.1642 14.8358 10.5 15.25 10.5C15.6642 10.5 16 10.1642 16 9.75V8.75C16 8.33579 15.6642 8 15.25 8C14.8358 8 14.5 8.33579 14.5 8.75Z" fill="black"/>
<path d="M8.77779 13.9054C8.48466 13.6155 8.01156 13.616 7.71967 13.9079C7.42678 14.2008 7.42678 14.6757 7.71967 14.9686C8.01256 15.2615 7.7206 14.9695 7.7206 14.9695L7.72165 14.9705L7.72413 14.973L7.73058 14.9793L7.74947 14.9974C7.7647 15.0119 7.78522 15.0309 7.81092 15.0539C7.86229 15.0998 7.93459 15.1616 8.02699 15.2339C8.21147 15.3782 8.47817 15.5661 8.82044 15.7527C9.50475 16.1259 10.5027 16.5002 11.75 16.5002C12.9968 16.5002 13.9948 16.1258 14.6791 15.7527C15.0214 15.5661 15.2882 15.3783 15.4727 15.234C15.5652 15.1617 15.6375 15.0999 15.6889 15.054C15.7146 15.0311 15.7351 15.012 15.7503 14.9976C15.7656 14.9832 15.7757 14.9732 15.7757 14.9732L15.7782 14.9707L15.7792 14.9697L15.7801 14.9688C16.0731 14.676 16.0733 14.2011 15.7805 13.9081C15.4888 13.6161 15.0156 13.6154 14.7224 13.9052L14.7191 13.9083C14.714 13.9131 14.7042 13.9223 14.6898 13.9352C14.6608 13.9611 14.6135 14.0018 14.5486 14.0525C14.4186 14.1541 14.2204 14.2944 13.9611 14.4357C13.4422 14.7186 12.6902 15.0002 11.75 15.0002C10.8093 15.0002 10.0572 14.7186 9.53856 14.4358C9.27933 14.2944 9.08128 14.1542 8.95138 14.0526C8.8866 14.0019 8.8393 13.9612 8.81038 13.9353L8.80518 13.9307L8.78984 13.9167L8.78107 13.9085L8.77779 13.9054Z" fill="black"/>
<path d="M18.6443 4.85571C14.8367 1.0481 8.66332 1.0481 4.85571 4.85571C1.0481 8.6633 1.0481 14.8367 4.85571 18.6443C8.6633 22.4519 14.8367 22.4519 18.6443 18.6443C22.4519 14.8367 22.4519 8.66332 18.6443 4.85571ZM17.5836 5.91637C20.8051 9.13823 20.8053 14.3619 17.5836 17.5836C14.3618 20.8054 9.13818 20.8054 5.91637 17.5836C2.69454 14.3618 2.69455 9.13818 5.91637 5.91637C9.1382 2.69454 14.3618 2.69454 17.5836 5.91637Z" fill="black"/>
</svg>
