<svg width="24" height="24" viewBox="0 0 24 24" fill="none" xmlns="http://www.w3.org/2000/svg">
<path d="M18.6442 4.85571C14.8366 1.0481 8.66332 1.0481 4.85571 4.85571C1.0481 8.6633 1.0481 14.8366 4.85571 18.6442C8.6633 22.4519 14.8366 22.4519 18.6442 18.6442C22.4519 14.8366 22.4519 8.66332 18.6442 4.85571ZM5.91637 5.91637C9.07108 2.76167 14.145 2.69594 17.3796 5.7192L17.5836 5.91638L17.7808 6.12031C20.8041 9.35498 20.7384 14.4289 17.5836 17.5836C14.3618 20.8055 9.13818 20.8055 5.91638 17.5836C2.69454 14.3618 2.69454 9.13818 5.91637 5.91637ZM11.75 13.688C11.3597 13.688 10.9794 13.7247 10.6101 13.7948C10.2509 13.8629 9.90576 13.962 9.5755 14.0879C9.19094 14.2345 8.83732 14.4131 8.51573 14.6135C8.14084 14.8472 7.87379 15.0657 7.71985 15.2195C7.42686 15.5123 7.42669 15.9872 7.71949 16.2801C8.01228 16.5731 8.48715 16.5733 8.78015 16.2805C8.85787 16.2028 9.03787 16.0556 9.30916 15.8865C9.55143 15.7355 9.81904 15.6004 10.1098 15.4895C10.3591 15.3945 10.6192 15.3198 10.8898 15.2685C11.1681 15.2156 11.4548 15.188 11.75 15.188C12.0272 15.188 12.2969 15.2124 12.5594 15.2591C12.833 15.3078 13.0964 15.3804 13.3493 15.4739C13.6052 15.5687 13.8448 15.683 14.0666 15.8116C14.2088 15.8941 14.331 15.9739 14.4319 16.0458L14.6051 16.178L14.7197 16.2803C15.0126 16.5732 15.4874 16.5732 15.7803 16.2803C16.0732 15.9874 16.0732 15.5126 15.7803 15.2197C15.5952 15.0345 15.2724 14.7768 14.819 14.514C14.5253 14.3437 14.2089 14.1927 13.87 14.0672C13.5348 13.9432 13.1855 13.8469 12.8221 13.7823C12.474 13.7203 12.1164 13.688 11.75 13.688ZM8.25 8C7.83579 8 7.5 8.33579 7.5 8.75V9.75L7.50685 9.85177C7.55651 10.2178 7.8703 10.5 8.25 10.5C8.66421 10.5 9 10.1642 9 9.75V8.75L8.99315 8.64823C8.94349 8.28215 8.6297 8 8.25 8ZM15.25 8C14.8358 8 14.5 8.33579 14.5 8.75V9.75L14.5068 9.85177C14.5565 10.2178 14.8703 10.5 15.25 10.5C15.6642 10.5 16 10.1642 16 9.75V8.75L15.9932 8.64823C15.9435 8.28215 15.6297 8 15.25 8Z" fill="black"/>
</svg>
