<svg width="24" height="24" viewBox="0 0 24 24" fill="none" xmlns="http://www.w3.org/2000/svg">
<path d="M2 11.75C2 17.1272 6.37279 21.5 11.75 21.5C17.1273 21.5 21.5 17.1262 21.5 11.75C21.5 6.37379 17.1262 2 11.75 2C6.37279 2 2 6.37279 2 11.75ZM11.75 3.5C16.2978 3.5 20 7.20221 20 11.75C20 16.2978 16.2987 20 11.75 20C7.20121 20 3.5 16.2988 3.5 11.75C3.5 7.20121 7.20121 3.5 11.75 3.5ZM9 8.75C9 8.33579 8.66421 8 8.25 8C7.83579 8 7.5 8.33579 7.5 8.75V9.75C7.5 10.1642 7.83579 10.5 8.25 10.5C8.66421 10.5 9 10.1642 9 9.75V8.75ZM15.25 8C14.8358 8 14.5 8.33579 14.5 8.75V9.75C14.5 10.1642 14.8358 10.5 15.25 10.5C15.6642 10.5 16 10.1642 16 9.75V8.75C16 8.33579 15.6642 8 15.25 8ZM8.75 13C8.33579 13 8 13.3358 8 13.75C8 15.8312 9.66879 17.5 11.75 17.5C13.8312 17.5 15.5 15.8312 15.5 13.75C15.5 13.3358 15.1642 13 14.75 13H8.75ZM11.75 16C10.7608 16 9.931 15.3783 9.62556 14.5H13.8744C13.569 15.3783 12.7392 16 11.75 16Z" fill="black"/>
</svg>
