<svg width="24" height="24" viewBox="0 0 24 24" fill="none" xmlns="http://www.w3.org/2000/svg">
<path d="M16 8.75C16 8.33579 15.6642 8 15.25 8C14.8358 8 14.5 8.33579 14.5 8.75V9.75C14.5 10.1642 14.8358 10.5 15.25 10.5C15.6642 10.5 16 10.1642 16 9.75V8.75Z" fill="black"/>
<path d="M8.25 8C7.83579 8 7.5 8.33579 7.5 8.75V9.75C7.5 10.1642 7.83579 10.5 8.25 10.5C8.66421 10.5 9 10.1642 9 9.75V8.75C9 8.33579 8.66421 8 8.25 8Z" fill="black"/>
<path d="M11.75 2C6.37279 2 2 6.37279 2 11.75C2 17.1272 6.37279 21.5 11.75 21.5C17.1273 21.5 21.5 17.1262 21.5 11.75C21.5 6.37379 17.1262 2 11.75 2ZM3.5 11.75C3.5 7.20121 7.20121 3.5 11.75 3.5C16.2978 3.5 20 7.20221 20 11.75C20 16.2978 16.2987 20 11.75 20C7.20121 20 3.5 16.2988 3.5 11.75Z" fill="black"/>
<path d="M8.78107 13.9082L8.77779 13.9051C8.48466 13.6153 8.01156 13.6158 7.71967 13.9077C7.42678 14.2006 7.42678 14.6754 7.71967 14.9683C8.01256 15.2612 7.7206 14.9692 7.7206 14.9692L7.72165 14.9703L7.72413 14.9727L7.73058 14.9791L7.74947 14.9972C7.7647 15.0116 7.78522 15.0307 7.81092 15.0536C7.86229 15.0995 7.93459 15.1613 8.02699 15.2336C8.21147 15.378 8.47817 15.5658 8.82044 15.7525C9.50475 16.1256 10.5027 16.5 11.75 16.5C12.9968 16.5 13.9948 16.1256 14.6791 15.7525C15.0214 15.5659 15.2882 15.3781 15.4727 15.2338C15.5652 15.1615 15.6375 15.0997 15.6889 15.0538C15.7146 15.0308 15.7351 15.0118 15.7503 14.9974C15.7656 14.983 15.7757 14.9729 15.7757 14.9729L15.7782 14.9705L15.7792 14.9694L15.7801 14.9685C16.0731 14.6757 16.0733 14.2009 15.7805 13.9079C15.4888 13.6159 15.0156 13.6152 14.7224 13.9049L14.7191 13.9081C14.714 13.9129 14.7042 13.922 14.6898 13.9349C14.6608 13.9608 14.6135 14.0015 14.5486 14.0522C14.4186 14.1539 14.2204 14.2941 13.9611 14.4355C13.4422 14.7184 12.6902 15 11.75 15C10.8093 15 10.0572 14.7184 9.53856 14.4355C9.27933 14.2942 9.08128 14.154 8.95138 14.0523C8.8866 14.0016 8.8393 13.961 8.81038 13.9351L8.80518 13.9304L8.78984 13.9165L8.78107 13.9082Z" fill="black"/>
</svg>
