<svg width="24" height="24" viewBox="0 0 24 24" fill="none" xmlns="http://www.w3.org/2000/svg">
<path d="M2 7.93841V16.8131C2 18.9882 3.76329 20.7515 5.93841 20.7515H18.0616C20.2367 20.7515 22 18.9882 22 16.8131V7.93841C22 5.76328 20.2367 4 18.0616 4H5.93841C3.76328 4 2 5.76329 2 7.93841ZM5.93841 5.5H18.0616C19.4083 5.5 20.5 6.59171 20.5 7.93841V16.8131C20.5 18.1598 19.4083 19.2515 18.0616 19.2515H5.93841C4.59171 19.2515 3.5 18.1598 3.5 16.8131V7.93841C3.5 6.59171 4.59171 5.5 5.93841 5.5Z" fill="black"/>
<path d="M5.22642 8.40612C4.97771 8.73735 5.04461 9.20749 5.37584 9.4562L10.1031 13.0057C11.2102 13.837 12.7334 13.837 13.8405 13.0057L18.5438 9.47422C18.875 9.22551 18.9419 8.75537 18.6932 8.42414C18.4445 8.0929 17.9743 8.026 17.6431 8.27471L12.9399 11.8062C12.3663 12.2368 11.5773 12.2368 11.0037 11.8062L6.2765 8.25669C5.94526 8.00798 5.47513 8.07488 5.22642 8.40612Z" fill="black"/>
</svg>
