<svg width="24" height="24" viewBox="0 0 24 24" fill="none" xmlns="http://www.w3.org/2000/svg">
<path d="M2.75 8.99991C2.33579 8.99991 2 9.33569 2 9.74991V17.7499C2 19.821 3.67893 21.4999 5.75 21.4999H17.75C19.8211 21.4999 21.5 19.821 21.5 17.7499V9.74991C21.5 9.33569 21.1642 8.99991 20.75 8.99991C20.3358 8.99991 20 9.33569 20 9.74991V17.7499C20 18.9925 18.9926 19.9999 17.75 19.9999H5.75C4.50736 19.9999 3.5 18.9925 3.5 17.7499V9.74991C3.5 9.33569 3.16421 8.99991 2.75 8.99991Z" fill="black"/>
<path d="M12.448 3.71364L19.4416 8.41832C20.178 8.91407 20.178 9.99725 19.4416 10.493L13.5677 14.4449C12.4668 15.1856 11.0279 15.1856 9.92704 14.4449L4.05295 10.4928C3.31546 9.99679 3.31644 8.91299 4.052 8.41845L11.0457 3.71364C11.4697 3.42867 12.024 3.42867 12.448 3.71364ZM3.21491 7.17375C1.59467 8.26325 1.59543 10.6475 3.2158 11.7375L9.0897 15.6894C10.6968 16.7707 12.7979 16.7707 14.405 15.6894L20.2792 11.7373C21.8988 10.6471 21.8986 8.26412 20.279 7.17386L13.2847 2.46868C12.3547 1.84365 11.1387 1.84383 10.2087 2.46886L3.21491 7.17375Z" fill="black"/>
</svg>
