<svg width="24" height="24" viewBox="0 0 24 24" fill="none" xmlns="http://www.w3.org/2000/svg">
<path d="M15.3226 4.21976C15.0297 4.51271 15.0298 4.98758 15.3228 5.28042L16.936 6.89307H4.75C4.33579 6.89307 4 7.22885 4 7.64307C4 8.05728 4.33579 8.39307 4.75 8.39307H16.9423L15.3227 10.0127C15.0298 10.3056 15.0298 10.7804 15.3227 11.0733C15.6156 11.3662 16.0904 11.3662 16.3833 11.0733L19.2803 8.17633C19.421 8.03566 19.5 7.84487 19.5 7.64594L19.5 7.64454L19.5 7.64307C19.5 7.41578 19.3989 7.21211 19.2392 7.07457L16.3832 4.21958C16.0903 3.92674 15.6154 3.92682 15.3226 4.21976ZM8.17742 12.2198C7.88458 11.9268 7.4097 11.9267 7.11676 12.2196L4.26078 15.0746C4.1011 15.2121 4 15.4158 4 15.6431V15.6445V15.6459C3.99998 15.8449 4.079 16.0357 4.21967 16.1763L7.11667 19.0733C7.40956 19.3662 7.88444 19.3662 8.17733 19.0733C8.47022 18.7804 8.47022 18.3056 8.17733 18.0127L6.55773 16.3931H18.75C19.1642 16.3931 19.5 16.0573 19.5 15.6431C19.5 15.2289 19.1642 14.8931 18.75 14.8931H6.56404L8.17724 13.2804C8.47018 12.9876 8.47026 12.5127 8.17742 12.2198Z" fill="black"/>
</svg>
