<svg width="24" height="24" viewBox="0 0 24 24" fill="none" xmlns="http://www.w3.org/2000/svg">
<path d="M10.5428 3.33757C10.9731 2.56971 11.9809 2.26436 12.7988 2.69861L13.5022 1.37375L12.7988 2.69861C13.0798 2.8478 13.3069 3.0708 13.4564 3.33757L22.3008 19.1203C22.725 19.8772 22.4515 20.843 21.6432 21.2721C21.3994 21.4016 21.1246 21.4702 20.844 21.4702H3.15525C2.21478 21.4702 1.5 20.731 1.5 19.8767C1.5 19.6138 1.56764 19.3537 1.69844 19.1203L10.5428 3.33757ZM14.765 2.60428C14.473 2.0832 14.0344 1.65628 13.5022 1.37375C11.9788 0.564936 10.0711 1.11109 9.2343 2.60428L0.389899 18.387C0.134227 18.8433 0 19.3556 0 19.8767C0 21.5903 1.41764 22.9702 3.15525 22.9702H20.844C21.3686 22.9702 21.885 22.842 22.3466 22.597C23.883 21.7813 24.4535 19.8933 23.6094 18.387L14.765 2.60428ZM12.0014 9L11.9125 9.00408C11.4442 9.04711 11 9.43287 11 9.89453V9.90904L11.1911 14.5255L11.197 14.6035C11.2465 14.9881 11.5873 15.284 11.9985 15.284C12.4373 15.284 12.7959 14.9474 12.8066 14.5255L13 9.90903V9.82812C12.9667 9.37723 12.5034 9.01153 12.024 9.00026L12.0014 9ZM11.0996 17.0762C11.0996 17.5875 11.5137 18.002 12.0246 18.002C12.5355 18.002 12.9496 17.5875 12.9496 17.0762C12.9496 16.5649 12.5355 16.1504 12.0246 16.1504C11.5137 16.1504 11.0996 16.5649 11.0996 17.0762Z" fill="black"/>
</svg>
