<svg width="24" height="24" viewBox="0 0 24 24" fill="none" xmlns="http://www.w3.org/2000/svg">
<path d="M13.2212 13.6625L13.5375 6.11201V6.00217C13.5156 5.75769 13.3768 5.51489 13.1457 5.32328C12.9115 5.12906 12.6053 5.00793 12.3014 5.00028L12.2774 5L12.1514 5.00578C11.8565 5.03481 11.5623 5.1726 11.3435 5.37841C11.1233 5.58549 11 5.84034 11 6.09599V6.11213L11.3122 13.6562L11.3207 13.7672C11.3809 14.1999 11.7723 14.5512 12.2663 14.5512C12.798 14.5512 13.2089 14.1465 13.2211 13.6685L13.2212 13.6625ZM11.1631 17.8527C11.1631 18.4866 11.6765 19 12.3091 19C12.9417 19 13.4551 18.4866 13.4551 17.8527C13.4551 17.2187 12.9417 16.7053 12.3091 16.7053C11.6765 16.7053 11.1631 17.2187 11.1631 17.8527Z" fill="black"/>
</svg>
