<svg width="24" height="24" viewBox="0 0 24 24" fill="none" xmlns="http://www.w3.org/2000/svg">
<path d="M13.9091 3.75C13.9091 4.16421 14.2449 4.5 14.6591 4.5H17.7754L12.625 9.72342C12.3342 10.0184 12.3376 10.4932 12.6325 10.7841C12.9275 11.0749 13.4023 11.0715 13.6931 10.7766L18.8182 5.57885V8.65909C18.8182 9.0733 19.154 9.40909 19.5682 9.40909C19.9824 9.40909 20.3182 9.0733 20.3182 8.65909V3.75C20.3182 3.33579 19.9824 3 19.5682 3H14.6591C14.2449 3 13.9091 3.33579 13.9091 3.75ZM10.6857 12.7159C10.3907 12.4251 9.91586 12.4285 9.62504 12.7234L4.5 17.9212L4.5 14.8409C4.5 14.4267 4.16421 14.0909 3.75 14.0909C3.33579 14.0909 3 14.4267 3 14.8409L3 19.75C3 19.9489 3.07902 20.1397 3.21967 20.2803C3.36032 20.421 3.55109 20.5 3.75 20.5H8.65909C9.0733 20.5 9.40909 20.1642 9.40909 19.75C9.40909 19.3358 9.0733 19 8.65909 19H5.54278L10.6931 13.7766C10.984 13.4816 10.9806 13.0068 10.6857 12.7159Z" fill="black"/>
</svg>
