<svg width="24" height="24" viewBox="0 0 24 24" fill="none" xmlns="http://www.w3.org/2000/svg">
<path d="M5.75 5.5H10.75C11.1642 5.5 11.5 5.16421 11.5 4.75C11.5 4.33579 11.1642 4 10.75 4H5.75C3.67893 4 2 5.67893 2 7.75V17.75C2 19.8211 3.67893 21.5 5.75 21.5H15.75C17.8211 21.5 19.5 19.8211 19.5 17.75V12.75C19.5 12.3358 19.1642 12 18.75 12C18.3358 12 18 12.3358 18 12.75V17.75C18 18.9926 16.9926 20 15.75 20H5.75C4.50736 20 3.5 18.9926 3.5 17.75V7.75C3.5 6.50736 4.50736 5.5 5.75 5.5Z" fill="black"/>
<path d="M21.2793 2.21964C20.9864 1.92676 20.5115 1.92679 20.2187 2.2197L12.7196 9.7197C12.4268 10.0126 12.4268 10.4875 12.7197 10.7804C13.0126 11.0732 13.4875 11.0732 13.7804 10.7803L21.2794 3.2803C21.5723 2.98738 21.5722 2.51251 21.2793 2.21964Z" fill="black"/>
<path d="M15.7031 2.75C15.7031 3.16421 16.0389 3.5 16.4531 3.5H19.9986V7.04545C19.9986 7.45967 20.3344 7.79545 20.7486 7.79545C21.1628 7.79545 21.4986 7.45967 21.4986 7.04545V2.75C21.4986 2.33579 21.1628 2 20.7486 2H16.4531C16.0389 2 15.7031 2.33579 15.7031 2.75Z" fill="black"/>
</svg>
