<svg width="24" height="24" viewBox="0 0 24 24" fill="none" xmlns="http://www.w3.org/2000/svg">
<path d="M7.78432 6.84498C5.79258 7.98128 4.34953 9.7574 3.53149 10.9608C2.99732 11.7466 2.99732 12.7534 3.53149 13.5392C4.81978 15.4344 7.6582 18.75 11.7487 18.75C14.0426 18.75 15.9427 17.7073 17.3965 16.4572L16.3326 15.3933C15.0938 16.4349 13.546 17.25 11.7487 17.25C8.47627 17.25 6.03102 14.548 4.772 12.6959C4.58381 12.4191 4.58381 12.0809 4.772 11.8041C5.63123 10.5401 7.04293 8.88031 8.89298 7.95364L7.78432 6.84498ZM10.4771 9.53771C9.45529 10.0188 8.74869 11.0524 8.74869 12.25C8.74869 13.9069 10.1012 15.25 11.7697 15.25C12.9681 15.25 14.0036 14.557 14.4918 13.5525L13.2874 12.3481C13.2364 13.1223 12.5854 13.75 11.7697 13.75C10.9198 13.75 10.2487 13.0686 10.2487 12.25C10.2487 11.4567 10.8789 10.7923 11.6913 10.7519L10.4771 9.53771ZM12.3699 9.30921L14.7351 11.6744C14.5026 10.486 13.5637 9.54818 12.3699 9.30921ZM17.4147 14.3541L18.4758 15.4152C19.0961 14.7475 19.5952 14.0845 19.9659 13.5392C20.5001 12.7534 20.5001 11.7466 19.9659 10.9608C18.6776 9.06563 15.8392 5.75 11.7487 5.75C10.851 5.75 10.0136 5.90969 9.23967 6.17901L10.4532 7.39256C10.869 7.30055 11.3011 7.25 11.7487 7.25C15.0211 7.25 17.4663 9.95197 18.7254 11.8041C18.9136 12.0809 18.9136 12.4191 18.7254 12.6959C18.3768 13.2086 17.9374 13.7865 17.4147 14.3541Z" fill="black"/>
<path d="M3.21967 3.21967C2.92678 3.51256 2.92678 3.98744 3.21967 4.28033L19.2197 20.2803C19.5126 20.5732 19.9874 20.5732 20.2803 20.2803C20.5732 19.9874 20.5732 19.5126 20.2803 19.2197L4.28033 3.21967C3.98744 2.92678 3.51256 2.92678 3.21967 3.21967Z" fill="black"/>
</svg>
