<svg width="24" height="24" viewBox="0 0 24 24" fill="none" xmlns="http://www.w3.org/2000/svg">
<path d="M11.6178 7.5C14.8902 7.5 17.3355 10.202 18.5945 12.0541C18.7827 12.3309 18.7827 12.6691 18.5945 12.9459C17.3355 14.798 14.8902 17.5 11.6178 17.5C8.34541 17.5 5.90016 14.798 4.64115 12.9459C4.45295 12.6691 4.45295 12.3309 4.64115 12.0541C5.90016 10.202 8.34541 7.5 11.6178 7.5ZM3.40063 11.2108C2.86646 11.9966 2.86646 13.0034 3.40063 13.7892C4.68892 15.6844 7.52734 19 11.6178 19C15.7083 19 18.5467 15.6844 19.835 13.7892C20.3692 13.0034 20.3692 11.9966 19.835 11.2108C18.5467 9.31563 15.7083 6 11.6178 6C7.52734 6 4.68892 9.31563 3.40063 11.2108Z" fill="black"/>
<path d="M11.6388 14C10.7889 14 10.1178 13.3186 10.1178 12.5C10.1178 11.6814 10.7889 11 11.6388 11C12.4887 11 13.1598 11.6814 13.1598 12.5C13.1598 13.3186 12.4887 14 11.6388 14ZM14.6598 12.5C14.6598 10.8431 13.3072 9.5 11.6388 9.5C9.97036 9.5 8.61783 10.8431 8.61783 12.5C8.61783 14.1569 9.97036 15.5 11.6388 15.5C13.3072 15.5 14.6598 14.1569 14.6598 12.5Z" fill="black"/>
</svg>
