<svg width="24" height="24" viewBox="0 0 24 24" fill="none" xmlns="http://www.w3.org/2000/svg">
<path d="M18.6126 5C18.1984 5 17.8626 5.33579 17.8626 5.75V17.556C17.8626 17.9703 18.1984 18.306 18.6126 18.306C19.0268 18.306 19.3626 17.9703 19.3626 17.556V5.75C19.3626 5.33579 19.0268 5 18.6126 5Z" fill="black"/>
<path d="M16.2785 11.652L12.0957 15.1619V13.6833C12.0957 13.1003 11.758 12.5702 11.2296 12.3238C10.7013 12.0774 10.0781 12.1595 9.63152 12.5342L6.5 15.1619V8.14274L9.63161 10.7701C10.0782 11.1447 10.7014 11.2267 11.2297 10.9804C11.758 10.734 12.0957 10.2039 12.0957 9.62093V8.14274L16.2785 11.652ZM12.0129 17.1895L17.6762 12.4374C18.2579 12.0755 18.2579 11.2302 17.6771 10.8674L12.0129 6.11526C11.3963 5.73014 10.5957 6.17334 10.5957 6.90069V9.62093L6.41717 6.11526C5.80062 5.73014 5 6.17334 5 6.90069V16.404C5 17.1314 5.80062 17.5755 6.41717 17.1895L10.5957 13.6833V16.404C10.5957 17.1314 11.3963 17.5755 12.0129 17.1895Z" fill="black"/>
</svg>
