<svg width="24" height="24" viewBox="0 0 24 24" fill="none" xmlns="http://www.w3.org/2000/svg">
<path d="M5.75 5C5.33579 5 5 5.33579 5 5.75V17.556C5 17.9703 5.33579 18.306 5.75 18.306C6.16421 18.306 6.5 17.9703 6.5 17.556V5.75C6.5 5.33579 6.16421 5 5.75 5Z" fill="black"/>
<path d="M8.08405 11.652L12.2669 8.14274V9.62093C12.2669 10.2039 12.6046 10.734 13.1329 10.9804C13.6612 11.2267 14.2844 11.1447 14.731 10.7701L17.8626 8.14274V15.1619L14.7311 12.5342C14.2845 12.1595 13.6613 12.0774 13.133 12.3238C12.6046 12.5702 12.2669 13.1003 12.2669 13.6833V15.1619L8.08405 11.652ZM12.3497 17.1895C12.9663 17.5755 13.7669 17.1314 13.7669 16.404V13.6833L17.9454 17.1895C18.562 17.5755 19.3626 17.1314 19.3626 16.404V6.90069C19.3626 6.17334 18.562 5.73014 17.9454 6.11526L13.7669 9.62093V6.90069C13.7669 6.17334 12.9663 5.73014 12.3497 6.11526L6.68549 10.8674C6.10469 11.2302 6.10469 12.0755 6.68639 12.4374L12.3497 17.1895Z" fill="black"/>
</svg>
