<svg width="24" height="24" viewBox="0 0 24 24" fill="none" xmlns="http://www.w3.org/2000/svg">
<path d="M11.7839 17.0534H8.79068L10.045 15.8083H13.0425L11.7839 17.0534ZM7.27949 18.5534C7.28099 18.5534 7.2825 18.5534 7.284 18.5534H11.9895C12.2528 18.5534 12.5055 18.4495 12.6927 18.2643L20.5267 10.5146C22.2743 8.76699 22.2743 6.05825 20.5267 4.31068C18.7791 2.56311 16.0704 2.56311 14.3228 4.31068L6.57689 12.0566C6.38935 12.2442 6.284 12.4985 6.284 12.7637V17.428L3.22165 20.4677C2.92767 20.7595 2.9259 21.2344 3.2177 21.5284C3.5095 21.8223 3.98438 21.8241 4.27836 21.5323L7.27949 18.5534ZM7.784 15.9391V12.9708L15.3835 5.37134C16.5453 4.20955 18.3043 4.20955 19.4661 5.37134C20.627 6.53226 20.6278 8.2895 19.4686 9.45131L14.5588 14.3083H11.5562L16.0745 9.82356C16.3685 9.53176 16.3702 9.05688 16.0784 8.7629C15.7866 8.46892 15.3117 8.46716 15.0178 8.75896L7.784 15.9391Z" fill="black"/>
</svg>
