<svg width="24" height="24" viewBox="0 0 24 24" fill="none" xmlns="http://www.w3.org/2000/svg">
<path d="M5.79118 18.5354L5.50991 5.49902C5.48608 4.3946 6.3622 3.49659 7.46677 3.49326L14.3545 3.47248C14.7888 3.47117 15.2059 3.65814 15.4978 3.98503L17.8403 6.60783C18.0834 6.88 18.2216 7.229 18.2294 7.59055L18.4647 18.4971C18.4885 19.6016 17.6124 20.4996 16.5079 20.5029L7.83433 20.5291C6.72976 20.5324 5.81501 19.6398 5.79118 18.5354ZM7.86669 22.0289L16.5402 22.0027C18.4732 21.9969 20.0064 20.4254 19.9647 18.4926L19.7294 7.58602C19.7138 6.86292 19.4375 6.16494 18.9513 5.62058L16.6088 2.99779C16.0249 2.34399 15.1908 1.97007 14.3222 1.97269L7.43441 1.99346C5.50141 1.99929 3.96821 3.57081 4.00991 5.50355L4.29118 18.5399C4.33288 20.4726 5.93369 22.0347 7.86669 22.0289ZM12.4889 12.2955C12.1023 12.2975 11.7905 12.6126 11.7926 12.9992C11.7946 13.3857 12.1097 13.6975 12.4963 13.6954L15.9962 13.6769C16.3828 13.6749 16.6945 13.3598 16.6925 12.9732C16.6904 12.5866 16.3754 12.2749 15.9888 12.2769L12.4889 12.2955ZM11.8124 16.7493C11.8145 17.1358 12.1295 17.4476 12.5161 17.4455L16.016 17.427C16.4026 17.425 16.7144 17.1099 16.7123 16.7233C16.7103 16.3367 16.3952 16.025 16.0086 16.027L12.5087 16.0456C12.1221 16.0476 11.8104 16.3627 11.8124 16.7493ZM7.96775 8.31937C7.58115 8.32141 7.26942 8.63647 7.27146 9.02306C7.27351 9.40965 7.58856 9.72138 7.97516 9.71934L15.975 9.67699C16.3616 9.67495 16.6733 9.3599 16.6713 8.97331C16.6692 8.58672 16.3542 8.27498 15.9676 8.27703L7.96775 8.31937ZM10.5161 11.7255C10.2217 11.4342 9.74683 11.4367 9.45549 11.7311L8.73955 12.4547L8.51881 12.2363C8.22437 11.9449 7.74951 11.9474 7.45817 12.2419C7.16683 12.5363 7.16934 13.0112 7.46378 13.3025L8.21765 14.0484C8.35904 14.1883 8.55022 14.2664 8.74913 14.2653C8.94804 14.2642 9.13839 14.1842 9.27829 14.0428L10.5218 12.7861C10.8131 12.4917 10.8106 12.0168 10.5161 11.7255ZM10.5416 16.5362C10.8329 16.2418 10.8304 15.7669 10.536 15.4756C10.2415 15.1842 9.76668 15.1867 9.47534 15.4812L8.7594 16.2047L8.53866 15.9863C8.24422 15.695 7.76935 15.6975 7.47802 15.9919C7.18668 16.2864 7.18919 16.7612 7.48363 17.0526L8.23749 17.7985C8.37889 17.9384 8.57007 18.0164 8.76898 18.0154C8.96789 18.0143 9.15823 17.9343 9.29814 17.7929L10.5416 16.5362Z" fill="black"/>
</svg>
