<svg width="24" height="24" viewBox="0 0 24 24" fill="none" xmlns="http://www.w3.org/2000/svg">
<path d="M14.6528 2H7.5C5.567 2 4 3.567 4 5.5V18.5C4 20.433 5.567 22 7.5 22H16.5C18.433 22 20 20.433 20 18.5V7.6406C20 6.90586 19.7304 6.19666 19.2422 5.64751L16.895 3.00691C16.3257 2.36644 15.5097 2 14.6528 2ZM18.1211 6.64405C18.3652 6.91863 18.5 7.27323 18.5 7.6406V18.5C18.5 19.6046 17.6046 20.5 16.5 20.5H7.5C6.39543 20.5 5.5 19.6046 5.5 18.5V5.5C5.5 4.39543 6.39543 3.5 7.5 3.5H14.6528C15.0813 3.5 15.4893 3.68322 15.7739 4.00345L18.1211 6.64405ZM7.62505 12.3C7.23845 12.3 6.92505 12.6134 6.92505 13C6.92505 13.3866 7.23845 13.7 7.62505 13.7C10.3453 13.7 12.5505 15.9053 12.5505 18.6255C12.5505 19.0121 12.8639 19.3255 13.2505 19.3255C13.6371 19.3255 13.9505 19.0121 13.9505 18.6255C13.9505 15.1321 11.1185 12.3 7.62505 12.3ZM6.92505 15.5003C6.92505 15.8869 7.23845 16.2003 7.62505 16.2003C8.96448 16.2003 10.0503 17.2861 10.0503 18.6255C10.0503 19.0121 10.3637 19.3255 10.7503 19.3255C11.1369 19.3255 11.4503 19.0121 11.4503 18.6255C11.4503 16.5129 9.73768 14.8003 7.62505 14.8003C7.23845 14.8003 6.92505 15.1137 6.92505 15.5003ZM7.75006 19.0001C8.16431 19.0001 8.50012 18.6643 8.50012 18.2501C8.50012 17.8358 8.16431 17.5 7.75006 17.5C7.33581 17.5 7 17.8358 7 18.2501C7 18.6643 7.33581 19.0001 7.75006 19.0001Z" fill="black"/>
</svg>
