<svg width="24" height="24" viewBox="0 0 24 24" fill="none" xmlns="http://www.w3.org/2000/svg">
<path d="M14.6528 2H7.5C5.567 2 4 3.567 4 5.5V18.5C4 20.433 5.567 22 7.5 22H16.5C18.433 22 20 20.433 20 18.5V7.6406C20 6.90586 19.7304 6.19666 19.2422 5.64751L16.895 3.00691C16.3257 2.36644 15.5097 2 14.6528 2ZM18.1211 6.64405C18.3652 6.91863 18.5 7.27323 18.5 7.6406V18.5C18.5 19.6046 17.6046 20.5 16.5 20.5H7.5C6.39543 20.5 5.5 19.6046 5.5 18.5V5.5C5.5 4.39543 6.39543 3.5 7.5 3.5H14.6528C15.0813 3.5 15.4893 3.68322 15.7739 4.00345L18.1211 6.64405ZM8.67855 14.91C8.73378 14.91 8.77855 14.8652 8.77855 14.81V12.0131C8.77855 11.9579 8.82332 11.9131 8.87855 11.9131H9.70821C9.76344 11.9131 9.80821 11.8684 9.80821 11.8131V11.1C9.80821 11.0448 9.76344 11 9.70821 11H6.70001C6.64478 11 6.60001 11.0448 6.60001 11.1V11.8131C6.60001 11.8684 6.64478 11.9131 6.70001 11.9131H7.52967C7.5849 11.9131 7.62967 11.9579 7.62967 12.0131V14.81C7.62967 14.8652 7.67444 14.91 7.72967 14.91H8.67855ZM10.1298 14.7593C10.0906 14.826 10.1387 14.91 10.216 14.91H11.1969C11.2329 14.91 11.2661 14.8907 11.2839 14.8594L11.9184 13.7419C11.9221 13.7354 11.9291 13.7313 11.9366 13.7313C11.9442 13.7313 11.9511 13.7353 11.9549 13.7419L12.592 14.8595C12.6098 14.8907 12.643 14.91 12.6789 14.91H13.7205C13.7988 14.91 13.8467 14.8241 13.8056 14.7575L12.6996 12.9655C12.6959 12.9595 12.694 12.9526 12.694 12.9456C12.694 12.9385 12.696 12.9315 12.6998 12.9254L13.8094 11.1531C13.851 11.0865 13.8032 11 13.7246 11H12.6937C12.6557 11 12.621 11.0215 12.6041 11.0556L12.0187 12.2367C12.0157 12.2427 12.0097 12.2464 12.003 12.2464C11.9964 12.2464 11.9903 12.2427 11.9874 12.2367L11.4046 11.0557C11.3878 11.0216 11.353 11 11.3149 11H10.2149C10.1372 11 10.0892 11.0847 10.1291 11.1513L11.1872 12.9199C11.1909 12.926 11.1928 12.933 11.1928 12.9402C11.1928 12.9472 11.191 12.9541 11.1874 12.9602L10.1298 14.7593ZM16.3167 14.81V12.0131C16.3167 11.9579 16.3615 11.9131 16.4167 11.9131H17.2464C17.3016 11.9131 17.3464 11.8684 17.3464 11.8131V11.1C17.3464 11.0448 17.3016 11 17.2464 11H14.2382C14.183 11 14.1382 11.0448 14.1382 11.1V11.8131C14.1382 11.8684 14.183 11.9131 14.2382 11.9131H15.0679C15.1231 11.9131 15.1679 11.9579 15.1679 12.0131V14.81C15.1679 14.8652 15.2126 14.91 15.2679 14.91H16.2167C16.272 14.91 16.3167 14.8652 16.3167 14.81Z" fill="black"/>
</svg>
