<svg width="24" height="24" viewBox="0 0 24 24" fill="none" xmlns="http://www.w3.org/2000/svg">
<path d="M16.895 3.00691C16.3257 2.36644 15.5097 2 14.6528 2H7.5C5.567 2 4 3.567 4 5.5V18.5C4 20.433 5.567 22 7.5 22H16.5C18.433 22 20 20.433 20 18.5V7.6406C20 6.90586 19.7304 6.19666 19.2422 5.64751L16.895 3.00691ZM15.7739 4.00345L18.1211 6.64405C18.3652 6.91863 18.5 7.27323 18.5 7.6406V18.5C18.5 19.6046 17.6046 20.5 16.5 20.5H7.5C6.39543 20.5 5.5 19.6046 5.5 18.5V5.5C5.5 4.39543 6.39543 3.5 7.5 3.5H14.6528C15.0813 3.5 15.4893 3.68322 15.7739 4.00345ZM12 9H14.5C14.7761 9 15 9.22386 15 9.5V12.5C15 12.7761 14.7761 13 14.5 13H14.0117C14.004 12.9998 13.9962 12.9998 13.9885 13H10.0115C10.0038 12.9998 9.99604 12.9998 9.98834 13H9.5C9.22386 13 9 12.7761 9 12.5V9.5C9 9.22386 9.22386 9 9.5 9H12ZM14.6897 13.9881C15.4286 13.8948 16 13.2642 16 12.5V9.5C16 8.67157 15.3284 8 14.5 8H12.5V7.5C12.5 7.22386 12.2761 7 12 7C11.7239 7 11.5 7.22386 11.5 7.5V8H9.5C8.67157 8 8 8.67157 8 9.5V12.5C8 13.2642 8.57141 13.8948 9.31025 13.9881L8.52566 16.3419C8.43833 16.6039 8.57991 16.887 8.84189 16.9743C9.10386 17.0617 9.38702 16.9201 9.47434 16.6581L10.3604 14H13.6396L14.5257 16.6581C14.613 16.9201 14.8961 17.0617 15.1581 16.9743C15.4201 16.887 15.5617 16.6039 15.4743 16.3419L14.6897 13.9881Z" fill="black"/>
</svg>
