<svg width="24" height="24" viewBox="0 0 24 24" fill="none" xmlns="http://www.w3.org/2000/svg">
<path d="M13.3027 12.7998H10.6982L10.5881 12.802C9.29052 12.8539 8.23226 13.8192 8.01263 15.072C8.0063 15.1081 8.00216 15.1684 8.00019 15.2531L8 15.2697C8 15.6729 8.33439 15.9998 8.74688 15.9998H15.2531L15.2691 15.9996C15.6815 15.991 16.0086 15.6572 15.9998 15.254C15.9978 15.1644 15.9935 15.1008 15.9867 15.0629C15.7573 13.7793 14.6471 12.7998 13.3027 12.7998Z" fill="black"/>
<path d="M14 10C14 8.89543 13.1046 8 12 8C10.8954 8 10 8.89543 10 10C10 11.1046 10.8954 12 12 12C13.1046 12 14 11.1046 14 10Z" fill="black"/>
<path d="M16.895 3.00691C16.3257 2.36644 15.5097 2 14.6528 2H7.5C5.567 2 4 3.567 4 5.5V18.5C4 20.433 5.567 22 7.5 22H16.5C18.433 22 20 20.433 20 18.5V7.6406C20 6.90586 19.7304 6.19666 19.2422 5.64751L16.895 3.00691ZM15.7739 4.00345L18.1211 6.64405C18.3652 6.91863 18.5 7.27323 18.5 7.6406V18.5C18.5 19.6046 17.6046 20.5 16.5 20.5H7.5C6.39543 20.5 5.5 19.6046 5.5 18.5V5.5C5.5 4.39543 6.39543 3.5 7.5 3.5H14.6528C15.0813 3.5 15.4893 3.68322 15.7739 4.00345Z" fill="black"/>
</svg>
