<svg width="24" height="24" viewBox="0 0 24 24" fill="none" xmlns="http://www.w3.org/2000/svg">
<path d="M16.895 3.00691C16.3257 2.36644 15.5097 2 14.6528 2L7.5 2C5.567 2 4 3.567 4 5.5L4 18.5C4 20.433 5.567 22 7.5 22L16.5 22C18.433 22 20 20.433 20 18.5L20 7.6406C20 6.90586 19.7304 6.19666 19.2422 5.64751L16.895 3.00691ZM15.7739 4.00345L18.1211 6.64405C18.3652 6.91863 18.5 7.27323 18.5 7.6406L18.5 18.5C18.5 19.6046 17.6046 20.5 16.5 20.5L7.5 20.5C6.39543 20.5 5.5 19.6046 5.5 18.5L5.5 5.5C5.5 4.39543 6.39543 3.5 7.5 3.5L14.6528 3.5C15.0813 3.5 15.4893 3.68322 15.7739 4.00345ZM6.5 18.5C6.5 19.0523 6.94772 19.5 7.5 19.5L16.5 19.5C17.0523 19.5 17.5 19.0523 17.5 18.5L17.5 15.4684C17.5 15.1716 17.3682 14.8902 17.1402 14.7002L15.156 13.0467C14.7782 12.7319 14.2275 12.7385 13.8573 13.0624L11.11 15.4663C10.7544 15.7774 10.2295 15.7972 9.85153 15.5137L9.19384 15.0204C8.79572 14.7218 8.23862 14.7614 7.88673 15.1133L6.79289 16.2071C6.60536 16.3947 6.5 16.649 6.5 16.9142L6.5 18.5ZM8.5 13.5C9.32843 13.5 10 12.8284 10 12C10 11.1716 9.32843 10.5 8.5 10.5C7.67157 10.5 7 11.1716 7 12C7 12.8284 7.67157 13.5 8.5 13.5Z" fill="black"/>
</svg>
