<svg width="24" height="24" viewBox="0 0 24 24" fill="none" xmlns="http://www.w3.org/2000/svg">
<path d="M14.6528 2H10.5H9.5H7.5C5.567 2 4 3.567 4 5.5V18.5C4 20.433 5.567 22 7.5 22H16.5C18.433 22 20 20.433 20 18.5V7.6406C20 6.90586 19.7304 6.19666 19.2422 5.64751L16.895 3.00691C16.3257 2.36644 15.5097 2 14.6528 2ZM8.5 3.5V4H9.5V3.5H14.6528C15.0813 3.5 15.4893 3.68322 15.7739 4.00345L18.1211 6.64405C18.3652 6.91863 18.5 7.27323 18.5 7.6406V18.5C18.5 19.6046 17.6046 20.5 16.5 20.5H7.5C6.39543 20.5 5.5 19.6046 5.5 18.5V5.5C5.5 4.39543 6.39543 3.5 7.5 3.5H8.5ZM9.5 5H10.5V4H9.5V5ZM9.5 6V5H8.5V6H9.5ZM9.5 7H10.5V6H9.5V7ZM9.5 8V7H8.5V8H9.5ZM9.5 9H10.5V8H9.5V9ZM9.5 10V9H8.5V10H9.5ZM9.5 11H10.5V10H9.5V11ZM9.5 11H8.5V12H8.88028C8.65679 12 8.46198 12.1521 8.40777 12.3689L7.98508 14.0597C7.73868 15.0453 8.4841 16 9.5 16C10.5159 16 11.2613 15.0453 11.0149 14.0597L10.5922 12.3689C10.538 12.1521 10.3432 12 10.1197 12H9.5V11ZM10.5 14.72C10.5 15.1176 10.0523 15.44 9.5 15.44C8.94772 15.44 8.5 15.1176 8.5 14.72C8.5 14.3224 8.94772 14 9.5 14C10.0523 14 10.5 14.3224 10.5 14.72Z" fill="black"/>
</svg>
