<svg width="24" height="24" viewBox="0 0 24 24" fill="none" xmlns="http://www.w3.org/2000/svg">
<path d="M16.895 3.00691C16.3257 2.36644 15.5097 2 14.6528 2H7.5C5.567 2 4 3.567 4 5.5V18.5C4 20.433 5.567 22 7.5 22H16.5C18.433 22 20 20.433 20 18.5V7.6406C20 6.90586 19.7304 6.19666 19.2422 5.64751L16.895 3.00691ZM15.7739 4.00345L18.1211 6.64405C18.3652 6.91863 18.5 7.27323 18.5 7.6406V18.5C18.5 19.6046 17.6046 20.5 16.5 20.5H7.5C6.39543 20.5 5.5 19.6046 5.5 18.5V5.5C5.5 4.39543 6.39543 3.5 7.5 3.5H14.6528C15.0813 3.5 15.4893 3.68322 15.7739 4.00345ZM11.4474 9.98297V13.2225C11.4474 13.4986 11.6713 13.7225 11.9474 13.7225H15.187C14.9462 15.2953 13.5875 16.4999 11.9474 16.4999C10.1374 16.4999 8.67 15.0326 8.67 13.2225C8.67 11.5824 9.87467 10.2237 11.4474 9.98297ZM7.67 13.2225C7.67 15.5849 9.58507 17.4999 11.9474 17.4999C14.3098 17.4999 16.2249 15.5849 16.2249 13.2225C16.2249 12.9464 16.001 12.7225 15.7249 12.7225H12.4474V9.44507C12.4474 9.16893 12.2236 8.94507 11.9474 8.94507C9.58507 8.94507 7.67 10.8601 7.67 13.2225ZM13.2697 8.5V11.8998H13.887V10.7626H14.6586C14.9878 10.7626 15.2648 10.6542 15.4895 10.4373C15.7111 10.2205 15.8219 9.95141 15.8219 9.6301C15.8219 9.3088 15.7111 9.03973 15.4895 8.82289C15.268 8.60763 14.991 8.5 14.6586 8.5H13.2697ZM14.5921 10.1833H13.887V9.0793H14.5921C14.7583 9.0793 14.892 9.12994 14.9933 9.23124C15.0946 9.33254 15.1453 9.46549 15.1453 9.6301C15.1453 9.79471 15.0946 9.92766 14.9933 10.029C14.8905 10.1318 14.7567 10.1833 14.5921 10.1833Z" fill="black"/>
</svg>
