<svg width="24" height="24" viewBox="0 0 24 24" fill="none" xmlns="http://www.w3.org/2000/svg">
<path d="M14.6528 2H7.5C5.567 2 4 3.567 4 5.5V18.5C4 20.433 5.567 22 7.5 22H16.5C18.433 22 20 20.433 20 18.5V7.6406C20 6.90586 19.7304 6.19666 19.2422 5.64751L16.895 3.00691C16.3257 2.36644 15.5097 2 14.6528 2ZM18.1211 6.64405C18.3652 6.91863 18.5 7.27323 18.5 7.6406V18.5C18.5 19.6046 17.6046 20.5 16.5 20.5H7.5C6.39543 20.5 5.5 19.6046 5.5 18.5V5.5C5.5 4.39543 6.39543 3.5 7.5 3.5H14.6528C15.0813 3.5 15.4893 3.68322 15.7739 4.00345L18.1211 6.64405ZM12.0014 8L11.9125 8.00408C11.4442 8.04711 11 8.43286 11 8.89453V8.90904L11.1911 13.5255L11.197 13.6035C11.2465 13.9881 11.5873 14.284 11.9985 14.284C12.4373 14.284 12.7959 13.9474 12.8066 13.5255L13 8.90903V8.82812C12.9667 8.37723 12.5034 8.01153 12.024 8.00026L12.0014 8ZM11.1001 16.0758C11.1001 16.5871 11.5142 17.0017 12.0251 17.0017C12.536 17.0017 12.9501 16.5871 12.9501 16.0758C12.9501 15.5645 12.536 15.15 12.0251 15.15C11.5142 15.15 11.1001 15.5645 11.1001 16.0758Z" fill="black"/>
</svg>
