<svg width="24" height="24" viewBox="0 0 24 24" fill="none" xmlns="http://www.w3.org/2000/svg">
<path d="M14.6528 2H7.5C5.567 2 4 3.567 4 5.5V18.5C4 20.433 5.567 22 7.5 22H16.5C18.433 22 20 20.433 20 18.5V7.6406C20 6.90586 19.7304 6.19666 19.2422 5.64751L16.895 3.00691C16.3257 2.36644 15.5097 2 14.6528 2ZM18.1211 6.64405C18.3652 6.91863 18.5 7.27323 18.5 7.6406V18.5C18.5 19.6046 17.6046 20.5 16.5 20.5H7.5C6.39543 20.5 5.5 19.6046 5.5 18.5V5.5C5.5 4.39543 6.39543 3.5 7.5 3.5H14.6528C15.0813 3.5 15.4893 3.68322 15.7739 4.00345L18.1211 6.64405ZM15.6335 16.5V8.5C15.6335 7.67157 14.962 7 14.1335 7H9.8002C8.97177 7 8.3002 7.67157 8.3002 8.5V16.5C8.3002 17.3284 8.97178 18 9.8002 18H14.1335C14.962 18 15.6335 17.3284 15.6335 16.5ZM11.2337 15.6635C11.2337 15.2665 11.5556 14.9446 11.9527 14.9446H11.9814C12.3785 14.9446 12.7004 15.2665 12.7004 15.6635C12.7004 16.0606 12.3785 16.3825 11.9814 16.3825H11.9527C11.5556 16.3825 11.2337 16.0606 11.2337 15.6635Z" fill="black"/>
</svg>
