<svg width="25" height="24" viewBox="0 0 25 24" fill="none" xmlns="http://www.w3.org/2000/svg">
<path d="M5.5305 5.50011C5.5127 4.48759 6.25051 3.65155 7.22448 3.52016L7.25453 7.02981C7.25671 7.28427 7.38775 7.52144 7.60259 7.65978C7.81743 7.79811 8.08676 7.81872 8.31795 7.71453L9.4908 7.18592L10.6727 7.71606C10.9057 7.82055 11.1747 7.80029 11.3871 7.66224C11.5996 7.52418 11.7266 7.28717 11.7244 7.03272L11.6942 3.50634L14.3832 3.50899C14.8175 3.50942 15.2338 3.69805 15.5244 4.02611L17.8564 6.65826C18.0984 6.93141 18.2352 7.28095 18.2415 7.64253L18.4332 18.55C18.4526 19.6545 17.5729 20.549 16.4683 20.5479L7.79474 20.5393C6.69016 20.5382 5.779 19.642 5.75959 18.5375L5.5305 5.50011ZM8.72433 3.50341L10.1942 3.50486L10.2145 5.87222L9.78546 5.67979C9.5891 5.59171 9.36519 5.59157 9.17034 5.67939L8.7446 5.87127L8.72433 3.50341ZM16.6393 3.04332C16.058 2.38719 15.2254 2.00993 14.3568 2.00908L7.46901 2.00228C5.536 2.00038 3.99652 3.56575 4.03049 5.49864L4.25958 18.536C4.29355 20.4689 5.88809 22.0373 7.8211 22.0392L16.4947 22.0478C18.4277 22.0497 19.9671 20.4843 19.9332 18.5515L19.7415 7.64401C19.7288 6.92085 19.4553 6.22177 18.9713 5.67547L16.6393 3.04332ZM8.28705 16.0298C8.28755 16.4161 8.60133 16.7288 8.98789 16.7283L14.9874 16.7206C15.374 16.7201 15.6869 16.4066 15.6864 16.0203C15.6859 15.634 15.3722 15.3213 14.9856 15.3218L8.98609 15.3295C8.59952 15.33 8.28655 15.6435 8.28705 16.0298ZM8.98286 12.8295C8.5963 12.83 8.28333 13.1435 8.28382 13.5298C8.28432 13.9161 8.5981 14.2288 8.98467 14.2283L14.9842 14.2206C15.3707 14.2201 15.6837 13.9065 15.6832 13.5203C15.6827 13.134 15.3689 12.8212 14.9824 12.8217L8.98286 12.8295ZM8.2806 11.0298C8.2811 11.4161 8.59488 11.7288 8.98144 11.7283L14.9809 11.7206C15.3675 11.7201 15.6805 11.4065 15.68 11.0203C15.6795 10.634 15.3657 10.3213 14.9791 10.3217L8.97964 10.3295C8.59307 10.33 8.2801 10.6435 8.2806 11.0298Z" fill="black"/>
</svg>
