<svg width="24" height="24" viewBox="0 0 24 24" fill="none" xmlns="http://www.w3.org/2000/svg">
<path d="M16.895 3.00691C16.3257 2.36644 15.5097 2 14.6528 2H7.5C5.567 2 4 3.567 4 5.5V18.5C4 20.433 5.567 22 7.5 22H16.5C18.433 22 20 20.433 20 18.5V7.6406C20 6.90586 19.7304 6.19666 19.2422 5.64751L16.895 3.00691ZM15.7739 4.00345L18.1211 6.64405C18.3652 6.91863 18.5 7.27323 18.5 7.6406V18.5C18.5 19.6046 17.6046 20.5 16.5 20.5H7.5C6.39543 20.5 5.5 19.6046 5.5 18.5V5.5C5.5 4.39543 6.39543 3.5 7.5 3.5H14.6528C15.0813 3.5 15.4893 3.68322 15.7739 4.00345Z" fill="black"/>
<path d="M13.6607 11.9796C13.5243 11.7395 13.2191 11.6554 12.979 11.7918L10.5791 13.1554C10.339 13.2918 10.255 13.597 10.3914 13.8371C10.5278 14.0772 10.833 14.1613 11.0731 14.0249L13.473 12.6613C13.7131 12.5249 13.7971 12.2197 13.6607 11.9796Z" fill="black"/>
<path d="M10.3914 14.1612C10.255 14.4013 10.339 14.7065 10.5791 14.8429L12.979 16.2065C13.2191 16.3429 13.5243 16.2589 13.6607 16.0188C13.7971 15.7787 13.7131 15.4735 13.473 15.337L11.0731 13.9735C10.833 13.8371 10.5278 13.9211 10.3914 14.1612Z" fill="black"/>
<path d="M9.99995 14C9.99995 14.2762 9.77617 14.5 9.49995 14.5C9.22374 14.5 8.99995 14.2762 8.99995 14C8.99995 13.7238 9.22374 13.5 9.49995 13.5C9.77617 13.5 9.99995 13.7238 9.99995 14ZM11 14C11 13.1715 10.3285 12.5 9.49995 12.5C8.67145 12.5 7.99995 13.1715 7.99995 14C7.99995 14.8285 8.67145 15.5 9.49995 15.5C10.3285 15.5 11 14.8285 11 14Z" fill="black"/>
<path d="M15 11.5C15 11.7762 14.7762 12 14.5 12C14.2237 12 14 11.7762 14 11.5C14 11.2238 14.2237 11 14.5 11C14.7762 11 15 11.2238 15 11.5ZM16 11.5C16 10.6715 15.3285 10 14.5 10C13.6715 10 13 10.6715 13 11.5C13 12.3285 13.6715 13 14.5 13C15.3285 13 16 12.3285 16 11.5Z" fill="black"/>
<path d="M15 16.5C15 16.7762 14.7762 17 14.5 17C14.2237 17 14 16.7762 14 16.5C14 16.2238 14.2237 16 14.5 16C14.7762 16 15 16.2238 15 16.5ZM16 16.5C16 15.6715 15.3285 15 14.5 15C13.6715 15 13 15.6715 13 16.5C13 17.3285 13.6715 18 14.5 18C15.3285 18 16 17.3285 16 16.5Z" fill="black"/>
</svg>
