<svg width="24" height="24" viewBox="0 0 24 24" fill="none" xmlns="http://www.w3.org/2000/svg">
<path d="M16.895 3.00691C16.3257 2.36644 15.5097 2 14.6528 2H7.5C5.567 2 4 3.567 4 5.5V18.5C4 20.433 5.567 22 7.5 22H16.5C18.433 22 20 20.433 20 18.5V7.6406C20 6.90586 19.7304 6.19666 19.2422 5.64751L16.895 3.00691ZM15.7739 4.00345L18.1211 6.64405C18.3652 6.91863 18.5 7.27323 18.5 7.6406V18.5C18.5 19.6046 17.6046 20.5 16.5 20.5H7.5C6.39543 20.5 5.5 19.6046 5.5 18.5V5.5C5.5 4.39543 6.39543 3.5 7.5 3.5H14.6528C15.0813 3.5 15.4893 3.68322 15.7739 4.00345ZM10.5001 13.8C9.45769 13.8 9.09443 14.649 8.74659 15.462C8.56054 15.8968 8.37891 16.3213 8.10014 16.6C8.70014 16.6 9.00014 16.7 9.30014 16.8C9.60014 16.9 9.90014 17 10.5001 17C11.3835 17 12.1001 16.2834 12.1001 15.4C12.1001 14.5167 11.3835 13.8 10.5001 13.8ZM15.4683 9.23853L11.7816 12.4639C11.3823 12.8132 11.3616 13.4279 11.7369 13.8025L12.2643 14.3299C12.6396 14.7052 13.2543 14.6845 13.6029 14.2852L16.8283 10.5985C17.163 10.2172 17.1436 9.6412 16.785 9.28253C16.4256 8.9232 15.8503 8.90453 15.4683 9.23853Z" fill="black"/>
</svg>
