<svg width="24" height="24" viewBox="0 0 24 24" fill="none" xmlns="http://www.w3.org/2000/svg">
<path d="M16.895 3.00691C16.3257 2.36644 15.5097 2 14.6528 2H7.5C5.567 2 4 3.567 4 5.5V18.5C4 20.433 5.567 22 7.5 22H16.5C18.433 22 20 20.433 20 18.5V7.6406C20 6.90586 19.7304 6.19666 19.2422 5.64751L16.895 3.00691ZM15.7739 4.00345L18.1211 6.64405C18.3652 6.91863 18.5 7.27323 18.5 7.6406V18.5C18.5 19.6046 17.6046 20.5 16.5 20.5H7.5C6.39543 20.5 5.5 19.6046 5.5 18.5V5.5C5.5 4.39543 6.39543 3.5 7.5 3.5H14.6528C15.0813 3.5 15.4893 3.68322 15.7739 4.00345ZM10.4996 11C10.4996 11.4142 10.8354 11.75 11.2496 11.75H11.4996L11.4996 15.2501C11.0854 15.2501 10.7496 15.5858 10.7496 16.0001C10.7496 16.4143 11.0854 16.7501 11.4996 16.7501H12.9996C13.4139 16.7501 13.7496 16.4143 13.7496 16.0001C13.7496 15.5858 13.4138 15.2501 12.9996 15.2501V11C12.9996 10.5858 12.6638 10.25 12.2496 10.25H11.2496C10.8354 10.25 10.4996 10.5858 10.4996 11ZM11 8.00001C11 8.55202 11.448 9.00002 12 9.00002C12.552 9.00002 13 8.55202 13 8.00001C13 7.448 12.552 7 11.996 7C11.444 7 10.996 7.448 11 8.00001Z" fill="black"/>
</svg>
