<svg width="24" height="24" viewBox="0 0 24 24" fill="none" xmlns="http://www.w3.org/2000/svg">
<path d="M14.6528 2H7.5C5.567 2 4 3.567 4 5.5V18.5C4 20.433 5.567 22 7.5 22H16.5C18.433 22 20 20.433 20 18.5V7.6406C20 6.90586 19.7304 6.19666 19.2422 5.64751L16.895 3.00691C16.3257 2.36644 15.5097 2 14.6528 2ZM18.1211 6.64405C18.3652 6.91863 18.5 7.27323 18.5 7.6406V18.5C18.5 19.6046 17.6046 20.5 16.5 20.5H7.5C6.39543 20.5 5.5 19.6046 5.5 18.5V5.5C5.5 4.39543 6.39543 3.5 7.5 3.5H14.6528C15.0813 3.5 15.4893 3.68322 15.7739 4.00345L18.1211 6.64405ZM7.00871 14.946C6.98918 14.9806 6.97322 15.0173 6.9613 15.0559L6.54589 16.0189C6.42353 16.3026 6.55429 16.6317 6.83793 16.7541C7.12159 16.8765 7.45073 16.7457 7.5731 16.4621L7.86712 15.7804H11.1452L11.4379 16.4614C11.5599 16.7452 11.8889 16.8764 12.1727 16.7544C12.4565 16.6324 12.5876 16.3034 12.4656 16.0196L12.0413 15.0323C12.0335 15.0107 12.0244 14.9896 12.0142 14.9693L10.0318 10.3577C9.97953 10.2226 9.87517 10.1078 9.73168 10.0459C9.65943 10.0147 9.58424 10 9.51027 10C9.4363 9.99989 9.36109 10.0145 9.2888 10.0456C9.14524 10.1073 9.04072 10.222 8.98829 10.357L7.00871 14.946ZM9.50305 11.9565L10.6583 14.644H8.34373L9.50305 11.9565ZM16.2043 16.2892C16.2541 16.4788 16.4266 16.6186 16.6317 16.6186H16.7198C17.0125 16.6186 17.2498 16.3813 17.2498 16.0886V13.8861C17.2498 13.328 17.0987 12.8923 16.7886 12.5878C16.4786 12.278 16.0374 12.127 15.4739 12.127C14.9474 12.127 14.5186 12.2847 14.1931 12.6043C13.9898 12.8004 13.8491 13.0187 13.773 13.2592C13.7301 13.3948 13.7682 13.523 13.8506 13.6164C13.9321 13.7089 14.0569 13.7679 14.1919 13.7727L14.2451 13.7746C14.3897 13.7797 14.5145 13.7185 14.6191 13.6327C14.7234 13.5472 14.8113 13.4344 14.884 13.3285C14.902 13.3024 14.922 13.2773 14.9441 13.2532C15.0649 13.1277 15.2413 13.0611 15.4823 13.0611C15.7256 13.0611 15.8986 13.1322 16.0123 13.2658C16.1274 13.4012 16.1899 13.6102 16.1899 13.9029V13.9759L15.2189 14.0316C14.6873 14.0627 14.2794 14.1882 14.0036 14.4156C13.7254 14.6449 13.5889 14.9719 13.5889 15.388C13.5889 15.7984 13.7235 16.1262 13.995 16.3623C14.2705 16.5909 14.6339 16.7025 15.0795 16.7025C15.5059 16.7025 15.8815 16.5643 16.2043 16.2892ZM16.2018 14.8208V14.9121C16.2018 15.214 16.1132 15.4344 15.9439 15.5833C15.778 15.7284 15.5465 15.8043 15.2425 15.8043C15.0325 15.8043 14.8853 15.7645 14.7916 15.6939C14.7009 15.6255 14.6523 15.5222 14.6523 15.3736C14.6523 15.2191 14.7088 15.1053 14.8201 15.0245C14.9348 14.9413 15.1132 14.8894 15.363 14.8757L16.2018 14.8208Z" fill="black"/>
</svg>
