<svg width="24" height="24" viewBox="0 0 24 24" fill="none" xmlns="http://www.w3.org/2000/svg">
<path d="M16.895 3.00691C16.3257 2.36644 15.5097 2 14.6528 2H7.5C5.567 2 4 3.567 4 5.5V18.5C4 20.433 5.567 22 7.5 22H16.5C18.433 22 20 20.433 20 18.5V7.6406C20 6.90586 19.7304 6.19666 19.2422 5.64751L16.895 3.00691ZM15.7739 4.00345L18.1211 6.64405C18.3652 6.91863 18.5 7.27323 18.5 7.6406V18.5C18.5 19.6046 17.6046 20.5 16.5 20.5H7.5C6.39543 20.5 5.5 19.6046 5.5 18.5V5.5C5.5 4.39543 6.39543 3.5 7.5 3.5H14.6528C15.0813 3.5 15.4893 3.68322 15.7739 4.00345ZM9.96335 10.8173C9.81515 11.1137 9.93529 11.4741 10.2317 11.6223C10.5281 11.7705 10.8885 11.6504 11.0367 11.354C11.2514 10.9245 11.7029 10.5999 12.1001 10.5999C12.683 10.5999 13.2144 11.1313 13.2144 11.7143C13.2144 12.2972 12.683 12.8286 12.1001 12.8286C11.7687 12.8286 11.5001 13.0972 11.5001 13.4286V14.1143C11.5001 14.4457 11.7687 14.7143 12.1001 14.7143C12.4314 14.7143 12.7001 14.4457 12.7001 14.1143V13.9448C13.6703 13.67 14.4144 12.7537 14.4144 11.7143C14.4144 10.4686 13.3458 9.3999 12.1001 9.3999C11.1258 9.3999 10.32 10.1039 9.96335 10.8173ZM12.7001 15.9994C12.7001 15.668 12.4315 15.3994 12.1001 15.3994C11.7687 15.3994 11.5001 15.668 11.5001 15.9994C11.5001 16.3308 11.7687 16.5998 12.1001 16.5998C12.4315 16.5998 12.7001 16.3308 12.7001 15.9994Z" fill="black"/>
</svg>
