<svg width="24" height="24" viewBox="0 0 24 24" fill="none" xmlns="http://www.w3.org/2000/svg">
<path d="M4.54999 3.5L11.8173 3.50001C12.1782 3.50001 12.5215 3.656 12.7588 3.92785L15.1907 6.71297C15.3896 6.9407 15.4991 7.23279 15.4991 7.53512V9.49227C15.4991 9.90648 15.8349 10.2423 16.2491 10.2423C16.6634 10.2423 16.9991 9.90648 16.9991 9.49227V7.53512C16.9991 6.86999 16.7581 6.2274 16.3206 5.72638L13.8887 2.94126C13.3665 2.34319 12.6113 2.00001 11.8173 2.00001L4.54998 2C2.58938 2.00001 1 3.5894 1 5.55L1 18.4384C1 20.399 2.5894 21.9884 4.55001 21.9884L13.4492 21.9884C15.4098 21.9884 16.9991 20.399 16.9991 18.4384V14.3653C16.9991 13.9511 16.6634 13.6153 16.2491 13.6153C15.8349 13.6153 15.4991 13.9511 15.4991 14.3653V18.4384C15.4991 19.5706 14.5813 20.4884 13.4492 20.4884L4.55001 20.4884C3.41782 20.4884 2.5 19.5706 2.5 18.4384L2.5 5.55C2.5 4.41782 3.41781 3.50001 4.54999 3.5ZM18.0819 12.761V15.0692C18.0819 15.6038 18.7282 15.8715 19.1062 15.4935L22.1831 12.4165C22.4174 12.1822 22.4174 11.8023 22.1831 11.568L19.1062 8.49106C18.7282 8.11308 18.0819 8.38078 18.0819 8.91533V11.261L10.0027 11.2616C9.58849 11.2616 9.25273 11.5974 9.25276 12.0116C9.25279 12.4259 9.5886 12.7616 10.0028 12.7616L18.0819 12.761Z" fill="black"/>
</svg>
