<svg width="24" height="24" viewBox="0 0 24 24" fill="none" xmlns="http://www.w3.org/2000/svg">
<path d="M14.6528 2H7.5C5.567 2 4 3.567 4 5.5V18.5C4 20.433 5.567 22 7.5 22H16.5C18.433 22 20 20.433 20 18.5V7.6406C20 6.90586 19.7304 6.19666 19.2422 5.64751L16.895 3.00691C16.3257 2.36644 15.5097 2 14.6528 2ZM18.1211 6.64405C18.3652 6.91863 18.5 7.27323 18.5 7.6406V18.5C18.5 19.6046 17.6046 20.5 16.5 20.5H7.5C6.39543 20.5 5.5 19.6046 5.5 18.5V5.5C5.5 4.39543 6.39543 3.5 7.5 3.5H14.6528C15.0813 3.5 15.4893 3.68322 15.7739 4.00345L18.1211 6.64405ZM12.5581 9.28926C12.5581 8.30992 12.176 8 11.6336 8C10.9434 8 10.5982 8.45868 10.5982 9.21488C10.5982 9.66116 10.7585 10.1942 11.079 10.814C10.7955 11.8306 10.3517 12.9835 9.89565 13.9132C8.49047 14.5702 7.8002 15.2025 7.8002 15.8967C7.8002 16.4298 8.28092 17 8.89723 17C9.73541 17 10.3764 15.8099 10.8324 14.8802C11.6336 14.5702 12.5335 14.2603 13.3716 14.0992C13.9263 14.5702 14.4194 14.8058 14.8877 14.8058C15.6643 14.8058 16.1573 14.2107 16.1573 13.6901C16.1573 13.157 15.7259 12.6488 14.7891 12.6488C14.5897 12.6488 14.3954 12.6747 14.1829 12.7031C14.067 12.7186 13.9458 12.7348 13.8154 12.7479C13.31 12.2025 12.78 11.4587 12.3855 10.7025C12.5211 10.0826 12.5581 9.66116 12.5581 9.28926ZM11.3385 13.2747C11.5081 12.8222 11.6801 12.3636 11.8062 11.905C12.1144 12.3512 12.4102 12.7727 12.743 13.157C12.2854 13.2666 11.8278 13.4246 11.3787 13.5797C11.3197 13.6 11.2609 13.6204 11.2022 13.6405C11.2468 13.5191 11.2926 13.3971 11.3385 13.2747Z" fill="black"/>
</svg>
