<svg width="24" height="24" viewBox="0 0 24 24" fill="none" xmlns="http://www.w3.org/2000/svg">
<path d="M14.6528 2H7.5C5.567 2 4 3.567 4 5.5V18.5C4 20.433 5.567 22 7.5 22H16.5C18.433 22 20 20.433 20 18.5V7.6406C20 6.90586 19.7304 6.19666 19.2422 5.64751L16.895 3.00691C16.3257 2.36644 15.5097 2 14.6528 2ZM18.1211 6.64405C18.3652 6.91863 18.5 7.27323 18.5 7.6406V18.5C18.5 19.6046 17.6046 20.5 16.5 20.5H7.5C6.39543 20.5 5.5 19.6046 5.5 18.5V5.5C5.5 4.39543 6.39543 3.5 7.5 3.5H14.6528C15.0813 3.5 15.4893 3.68322 15.7739 4.00345L18.1211 6.64405ZM9.06836 14.5259V10.7741H9.27409C9.55024 10.7741 9.77409 10.5502 9.77409 10.2741V10.1824H14.209V10.2741C14.209 10.5502 14.4329 10.7741 14.709 10.7741H14.8856V14.5259H14.709C14.4329 14.5259 14.209 14.7497 14.209 15.0259V15.2889H9.77409V15.0259C9.77409 14.7497 9.55024 14.5259 9.27409 14.5259H9.06836ZM8.06836 14.5259H8C7.72386 14.5259 7.5 14.7497 7.5 15.0259V16.3C7.5 16.5761 7.72386 16.8 8 16.8H9.27409C9.55024 16.8 9.77409 16.5761 9.77409 16.3V16.2889H14.209V16.3C14.209 16.5761 14.4329 16.8 14.709 16.8H15.9831C16.2593 16.8 16.4831 16.5761 16.4831 16.3V15.0259C16.4831 14.7497 16.2593 14.5259 15.9831 14.5259H15.8856V10.7741H15.9831C16.2593 10.7741 16.4831 10.5502 16.4831 10.2741V9C16.4831 8.72386 16.2593 8.5 15.9831 8.5H14.709C14.4329 8.5 14.209 8.72386 14.209 9V9.18237H9.77409V9C9.77409 8.72386 9.55024 8.5 9.27409 8.5H8C7.72386 8.5 7.5 8.72386 7.5 9V10.2741C7.5 10.5502 7.72386 10.7741 8 10.7741H8.06836V14.5259Z" fill="black"/>
</svg>
