<svg width="24" height="24" viewBox="0 0 24 24" fill="none" xmlns="http://www.w3.org/2000/svg">
<path d="M20.2139 10.6531C20.2181 11.6521 19.4134 12.4568 18.4144 12.4526C17.4131 12.4484 16.5956 11.6336 16.5872 10.6333L16.6825 5.59936L16.6827 5.58202C16.6814 5.29084 16.9147 5.05762 17.2059 5.05884C17.4993 5.06007 17.7405 5.29867 17.746 5.59121L17.648 9.9794C17.6387 10.3935 17.967 10.7367 18.3811 10.7459C18.7952 10.7552 19.1384 10.427 19.1476 10.0129L19.2459 5.61262L19.246 5.59275C19.2414 4.47314 18.3317 3.56355 17.2121 3.55887C16.0908 3.55418 15.1832 4.4586 15.1826 5.57867L15.0873 10.6143L15.0871 10.6317C15.0948 12.4591 16.5806 13.9449 18.4081 13.9526C20.2375 13.9602 21.7168 12.4839 21.7139 10.6557L21.8048 5.62467L21.8049 5.60798C21.7943 3.07269 19.7322 1.01065 17.1969 1.00004C14.6596 0.989425 12.6088 3.03719 12.6147 5.57337L12.5239 10.6042C12.5164 11.0184 12.8461 11.3602 13.2602 11.3677C13.6743 11.3751 14.0161 11.0455 14.0236 10.6313L14.1147 5.59249L14.1148 5.57581C14.1076 3.86893 15.4837 2.49287 17.1906 2.50002C18.8998 2.50717 20.2935 3.89819 20.3049 5.60636L20.214 10.6364L20.2139 10.6531ZM17.5 19.6574C17.5 20.762 16.6046 21.6574 15.5 21.6574H6.5C5.39543 21.6574 4.5 20.762 4.5 19.6574V6.65742C4.5 5.55285 5.39543 4.65741 6.5 4.65741H12V3.15741H6.5C4.567 3.15741 3 4.72442 3 6.65742V19.6574C3 21.5904 4.567 23.1574 6.5 23.1574H15.5C17.433 23.1574 19 21.5904 19 19.6574V15.1898C18.6893 15.2166 18.3563 15.2083 18 15.1574C17.8266 15.1326 17.66 15.1026 17.5 15.0679V19.6574Z" fill="black"/>
</svg>
