<svg width="24" height="24" viewBox="0 0 24 24" fill="none" xmlns="http://www.w3.org/2000/svg">
<path d="M16.895 3.00691C16.3257 2.36644 15.5097 2 14.6528 2H7.5C5.567 2 4 3.567 4 5.5V18.5C4 20.433 5.567 22 7.5 22H16.5C18.433 22 20 20.433 20 18.5V7.6406C20 6.90586 19.7304 6.19666 19.2422 5.64751L16.895 3.00691ZM15.7739 4.00345L18.1211 6.64405C18.3652 6.91863 18.5 7.27323 18.5 7.6406V18.5C18.5 19.6046 17.6046 20.5 16.5 20.5H7.5C6.39543 20.5 5.5 19.6046 5.5 18.5V5.5C5.5 4.39543 6.39543 3.5 7.5 3.5H14.6528C15.0813 3.5 15.4893 3.68322 15.7739 4.00345ZM10.1153 14.0979L11.7431 15.4002C11.9396 15.5573 12.2305 15.4175 12.2305 15.1659V9.62918C12.2305 9.37678 11.9378 9.23719 11.7417 9.39606L10.1153 10.7135H8.84611C8.37906 10.7135 8 11.0925 8 11.5596V13.2518C8 13.7188 8.37906 14.0979 8.84611 14.0979H10.1153ZM14.3083 8.98565C14.0868 8.82078 13.7736 8.8667 13.6087 9.08822C13.4438 9.30974 13.4897 9.62297 13.7113 9.78785C14.5101 10.3824 15.0287 11.3211 15.0287 12.3842C15.0287 13.447 14.5094 14.3859 13.7111 14.9806C13.4897 15.1455 13.4439 15.4588 13.6088 15.6803C13.7738 15.9017 14.087 15.9475 14.3085 15.7825C15.3431 15.0119 16.0287 13.7837 16.0287 12.3842C16.0287 10.9848 15.344 9.75645 14.3083 8.98565Z" fill="black"/>
</svg>
