<svg width="24" height="24" viewBox="0 0 24 24" fill="none" xmlns="http://www.w3.org/2000/svg">
<path d="M14.6528 2H7.5C5.567 2 4 3.567 4 5.5V18.5C4 20.433 5.567 22 7.5 22H16.5C18.433 22 20 20.433 20 18.5V7.6406C20 6.90586 19.7304 6.19666 19.2422 5.64751L16.895 3.00691C16.3257 2.36644 15.5097 2 14.6528 2ZM18.1211 6.64405C18.3652 6.91863 18.5 7.27323 18.5 7.6406V18.5C18.5 19.6046 17.6046 20.5 16.5 20.5H7.5C6.39543 20.5 5.5 19.6046 5.5 18.5V5.5C5.5 4.39543 6.39543 3.5 7.5 3.5H14.6528C15.0813 3.5 15.4893 3.68322 15.7739 4.00345L18.1211 6.64405ZM12.3488 8.67975H12.2561V8H11.6999V8.69005C11.4115 8.71751 11.1335 8.78617 10.8657 8.89603C10.5979 9.00589 10.361 9.15351 10.155 9.3389C9.94905 9.51741 9.78426 9.73026 9.66067 9.97745C9.53708 10.2246 9.47529 10.5027 9.47529 10.8117C9.47529 11.155 9.53365 11.4434 9.65037 11.6768C9.7671 11.9034 9.92502 12.0991 10.1241 12.2639C10.3301 12.4218 10.5636 12.5522 10.8245 12.6552C11.0854 12.7514 11.36 12.8406 11.6484 12.923L11.6999 12.9333V15.1064C11.4115 15.079 11.1369 15.0035 10.876 14.8799C10.6151 14.7563 10.4022 14.5778 10.2374 14.3443L9.3002 15.3021C9.61604 15.6317 9.97995 15.8686 10.3919 16.0128C10.8108 16.157 11.2467 16.2256 11.6999 16.2188V16.95H12.2561V16.2085C12.5856 16.1741 12.8912 16.102 13.1727 15.9922C13.4611 15.8823 13.7117 15.7347 13.9245 15.5493C14.1374 15.3571 14.3056 15.1305 14.4292 14.8696C14.5528 14.6018 14.6146 14.2962 14.6146 13.9529C14.6146 13.6028 14.5459 13.311 14.4086 13.0775C14.2781 12.8441 14.1031 12.6518 13.8833 12.5007C13.6705 12.3428 13.4233 12.2158 13.1418 12.1197C12.8672 12.0236 12.5856 11.9377 12.2973 11.8622L12.2561 11.8519V9.79206C12.4964 9.79206 12.7264 9.84356 12.9461 9.94655C13.1658 10.0427 13.3547 10.1766 13.5126 10.3482L14.3674 9.39039C14.1065 9.15694 13.7907 8.98186 13.4199 8.86513C13.056 8.74154 12.6989 8.67975 12.3488 8.67975ZM11.0511 10.1216C11.2433 9.95685 11.4596 9.85386 11.6999 9.81266V11.6974C11.5763 11.6425 11.4562 11.5944 11.3394 11.5532C11.2296 11.5052 11.1335 11.4468 11.0511 11.3781C10.9687 11.3095 10.9 11.2271 10.8451 11.131C10.797 11.0348 10.773 10.9078 10.773 10.7499C10.773 10.489 10.8657 10.2796 11.0511 10.1216ZM12.6577 14.9829C12.5341 15.0378 12.4003 15.079 12.2561 15.1064V13.0981C12.3797 13.1393 12.5033 13.1839 12.6268 13.232C12.7504 13.2801 12.8637 13.3384 12.9667 13.4071C13.0697 13.4757 13.1521 13.5616 13.2139 13.6646C13.2826 13.7675 13.3169 13.8946 13.3169 14.0456C13.3169 14.1967 13.286 14.334 13.2242 14.4576C13.1693 14.5743 13.0937 14.6773 12.9976 14.7666C12.9015 14.849 12.7882 14.9211 12.6577 14.9829Z" fill="black"/>
</svg>
