<svg width="24" height="24" viewBox="0 0 24 24" fill="none" xmlns="http://www.w3.org/2000/svg">
<path d="M16.895 3.00691C16.3257 2.36644 15.5097 2 14.6528 2H7.5C5.567 2 4 3.567 4 5.5V18.5C4 20.433 5.567 22 7.5 22H16.5C18.433 22 20 20.433 20 18.5V7.6406C20 6.90586 19.7304 6.19666 19.2422 5.64751L16.895 3.00691ZM15.7739 4.00345L18.1211 6.64405C18.3652 6.91863 18.5 7.27323 18.5 7.6406V18.5C18.5 19.6046 17.6046 20.5 16.5 20.5H7.5C6.39543 20.5 5.5 19.6046 5.5 18.5V5.5C5.5 4.39543 6.39543 3.5 7.5 3.5H14.6528C15.0813 3.5 15.4893 3.68322 15.7739 4.00345ZM8.54039 12.3656C8.28655 12.6195 8.28655 13.031 8.54039 13.2849L11.4652 16.2097C11.719 16.4635 12.1306 16.4635 12.3844 16.2097L15.3093 13.2849C15.5631 13.031 15.5631 12.6195 15.3093 12.3656C15.0554 12.1118 14.6439 12.1118 14.39 12.3656L12.5743 14.1813V8.99998C12.5743 8.64099 12.2833 8.34998 11.9243 8.34998C11.5653 8.34998 11.2743 8.64099 11.2743 8.99998V14.1803L9.45963 12.3656C9.20578 12.1118 8.79423 12.1118 8.54039 12.3656Z" fill="black"/>
</svg>
