<svg width="24" height="24" viewBox="0 0 24 24" fill="none" xmlns="http://www.w3.org/2000/svg">
<path d="M14.6528 2H7.5C5.567 2 4 3.567 4 5.5V18.5C4 20.433 5.567 22 7.5 22H16.5C18.433 22 20 20.433 20 18.5V7.6406C20 6.90586 19.7304 6.19666 19.2422 5.64751L16.895 3.00691C16.3257 2.36644 15.5097 2 14.6528 2ZM18.1211 6.64405C18.3652 6.91863 18.5 7.27323 18.5 7.6406V18.5C18.5 19.6046 17.6046 20.5 16.5 20.5H7.5C6.39543 20.5 5.5 19.6046 5.5 18.5V5.5C5.5 4.39543 6.39543 3.5 7.5 3.5H14.6528C15.0813 3.5 15.4893 3.68322 15.7739 4.00345L18.1211 6.64405ZM8.99999 12.4C8.66862 12.4 8.39999 12.6687 8.39999 13C8.39999 13.3314 8.66862 13.6 8.99999 13.6H15C15.3314 13.6 15.6 13.3314 15.6 13C15.6 12.6687 15.3314 12.4 15 12.4H8.99999Z" fill="black"/>
</svg>
