<svg width="24" height="24" viewBox="0 0 24 24" fill="none" xmlns="http://www.w3.org/2000/svg">
<path d="M16.895 3.00691C16.3257 2.36644 15.5097 2 14.6528 2H7.5C5.567 2 4 3.567 4 5.5V18.5C4 20.433 5.567 22 7.5 22H16.5C18.433 22 20 20.433 20 18.5V7.6406C20 6.90586 19.7304 6.19666 19.2422 5.64751L16.895 3.00691ZM15.7739 4.00345L18.1211 6.64405C18.3652 6.91863 18.5 7.27323 18.5 7.6406V18.5C18.5 19.6046 17.6046 20.5 16.5 20.5H7.5C6.39543 20.5 5.5 19.6046 5.5 18.5V5.5C5.5 4.39543 6.39543 3.5 7.5 3.5H14.6528C15.0813 3.5 15.4893 3.68322 15.7739 4.00345ZM15.224 9.28141C14.9698 9.0279 14.5585 9.02865 14.3052 9.28306L12.0203 11.5786L9.75421 9.2984C9.50114 9.04376 9.08978 9.04265 8.8354 9.29592C8.58102 9.5492 8.57996 9.96095 8.83302 10.2156L11.1032 12.5L8.83491 14.7788C8.58167 15.0333 8.58245 15.445 8.83665 15.6985C9.09085 15.952 9.50222 15.9513 9.75546 15.6969L12.0196 13.4221L14.2561 15.6726C14.5092 15.9272 14.9205 15.9283 15.1749 15.6751C15.4293 15.4218 15.4304 15.01 15.1773 14.7554L12.9367 12.5008L15.2258 10.2011C15.479 9.94666 15.4782 9.53491 15.224 9.28141Z" fill="black"/>
</svg>
