<svg width="24" height="24" viewBox="0 0 24 24" fill="none" xmlns="http://www.w3.org/2000/svg">
<path d="M9.29705 3.5L16.5643 3.50001C16.9252 3.50001 17.2685 3.656 17.5059 3.92785L19.9378 6.71297C20.1366 6.9407 20.2462 7.23279 20.2462 7.53512V18.4384C20.2462 19.5706 19.3284 20.4884 18.1962 20.4884L9.29706 20.4884C8.16488 20.4884 7.24706 19.5706 7.24706 18.4384V14.4923C7.24706 14.0781 6.91127 13.7423 6.49706 13.7423C6.08284 13.7423 5.74706 14.0781 5.74706 14.4923V18.4384C5.74706 20.399 7.33645 21.9884 9.29707 21.9884L18.1962 21.9884C20.1568 21.9884 21.7462 20.399 21.7462 18.4384V7.53512C21.7462 6.86999 21.5051 6.2274 21.0677 5.72638L18.6358 2.94126C18.1136 2.34319 17.3583 2.00001 16.5643 2.00001L9.29704 2C7.33643 2.00001 5.74706 3.5894 5.74706 5.55V9.49227C5.74706 9.90648 6.08284 10.2423 6.49706 10.2423C6.91127 10.2423 7.24706 9.90648 7.24706 9.49227V5.55C7.24706 4.41782 8.16487 3.50001 9.29705 3.5ZM10.8291 11.261L2.74994 11.2616C2.33573 11.2616 1.99997 11.5974 2 12.0116C2.00003 12.4259 2.33584 12.7616 2.75006 12.7616L10.8291 12.761V15.0692C10.8291 15.6038 11.4754 15.8715 11.8534 15.4935L14.9304 12.4165C15.1647 12.1822 15.1647 11.8023 14.9304 11.568L11.8534 8.49106C11.4754 8.11308 10.8291 8.38078 10.8291 8.91533V11.261Z" fill="black"/>
</svg>
