<svg width="24" height="24" viewBox="0 0 24 24" fill="none" xmlns="http://www.w3.org/2000/svg">
<path d="M14.6528 2H7.5C5.567 2 4 3.567 4 5.5V18.5C4 20.433 5.567 22 7.5 22H16.5C18.433 22 20 20.433 20 18.5V7.6406C20 6.90586 19.7304 6.19666 19.2422 5.64751L16.895 3.00691C16.3257 2.36644 15.5097 2 14.6528 2ZM18.1211 6.64405C18.3652 6.91863 18.5 7.27323 18.5 7.6406V18.5C18.5 19.6046 17.6046 20.5 16.5 20.5H7.5C6.39543 20.5 5.5 19.6046 5.5 18.5V5.5C5.5 4.39543 6.39543 3.5 7.5 3.5H14.6528C15.0813 3.5 15.4893 3.68322 15.7739 4.00345L18.1211 6.64405ZM7 12.1733C7 13.3739 7.97277 14.3467 9.17333 14.3467H10.2889C10.565 14.3467 10.7889 14.1228 10.7889 13.8467V12.1733C10.7889 11.8972 10.565 11.6733 10.2889 11.6733H9.35926C9.08312 11.6733 8.85926 11.8972 8.85926 12.1733C8.85926 12.4495 9.08312 12.6733 9.35926 12.6733H9.78889V13.3467H9.17333C8.52505 13.3467 8 12.8216 8 12.1733C8 11.5251 8.52505 11 9.17333 11H10.2889C10.565 11 10.7889 10.7761 10.7889 10.5C10.7889 10.2239 10.565 10 10.2889 10H9.17333C7.97277 10 7 10.9728 7 12.1733ZM12.7969 10.5C12.7969 10.2239 12.573 10 12.2969 10C12.0207 10 11.7969 10.2239 11.7969 10.5V13.8467C11.7969 14.1228 12.0207 14.3467 12.2969 14.3467C12.573 14.3467 12.7969 14.1228 12.7969 13.8467V10.5ZM13.7969 10.5039V12.1729V13.8476C13.7969 14.1237 14.0207 14.3476 14.2969 14.3476C14.573 14.3476 14.7969 14.1237 14.7969 13.8476V12.6729H15.8735C16.1497 12.6729 16.3735 12.449 16.3735 12.1729C16.3735 11.8967 16.1497 11.6729 15.8735 11.6729H14.7969V11.0039H16.2008C16.4769 11.0039 16.7008 10.78 16.7008 10.5039C16.7008 10.2278 16.4769 10.0039 16.2008 10.0039H14.2969C14.0207 10.0039 13.7969 10.2278 13.7969 10.5039Z" fill="black"/>
</svg>
