<svg width="24" height="24" viewBox="0 0 24 24" fill="none" xmlns="http://www.w3.org/2000/svg">
<path d="M16.895 3.00691C16.3257 2.36644 15.5097 2 14.6528 2H7.5C5.567 2 4 3.567 4 5.5V18.5C4 20.433 5.567 22 7.5 22H16.5C18.433 22 20 20.433 20 18.5V7.6406C20 6.90586 19.7304 6.19666 19.2422 5.64751L16.895 3.00691ZM15.7739 4.00345L18.1211 6.64405C18.3652 6.91863 18.5 7.27323 18.5 7.6406V18.5C18.5 19.6046 17.6046 20.5 16.5 20.5H7.5C6.39543 20.5 5.5 19.6046 5.5 18.5V5.5C5.5 4.39543 6.39543 3.5 7.5 3.5H14.6528C15.0813 3.5 15.4893 3.68322 15.7739 4.00345ZM8.75 14.75C8.61228 14.75 8.5 14.6377 8.5 14.5V10.75C8.5 10.6123 8.61228 10.5 8.75 10.5H13.125C13.2627 10.5 13.375 10.6123 13.375 10.75V11.0149V12.0152V13.2347V14.2349V14.5C13.375 14.6377 13.2627 14.75 13.125 14.75H8.75ZM14.3733 10.6848C14.3394 10.0251 13.7931 9.5 13.125 9.5H8.75C8.06 9.5 7.5 10.06 7.5 10.75V14.5C7.5 15.19 8.06 15.75 8.75 15.75H13.125C13.7932 15.75 14.3395 15.2248 14.3733 14.565L15.483 14.9319C15.892 15.2609 16.5 14.9699 16.5 14.4449V10.8049C16.5 10.2799 15.892 9.98893 15.483 10.3179L14.3733 10.6848ZM14.375 11.7375L15.5 11.3656V13.8843L14.375 13.5123V11.7375Z" fill="black"/>
</svg>
