<svg width="24" height="24" viewBox="0 0 24 24" fill="none" xmlns="http://www.w3.org/2000/svg">
<path d="M16.895 3.00691L19.2422 5.64751C19.7304 6.19666 20 6.90586 20 7.6406V18.5C20 20.433 18.433 22 16.5 22H7.5C5.567 22 4 20.433 4 18.5V5.5C4 3.567 5.567 2 7.5 2H14.6528C15.5097 2 16.3257 2.36644 16.895 3.00691ZM15.7739 4.00345C15.4893 3.68322 15.0813 3.5 14.6528 3.5H7.5C6.39543 3.5 5.5 4.39543 5.5 5.5V18.5C5.5 19.6046 6.39543 20.5 7.5 20.5H16.5C17.6046 20.5 18.5 19.6046 18.5 18.5V7.6406C18.5 7.27323 18.3652 6.91863 18.1211 6.64405L15.7739 4.00345ZM8.54039 12.3843C8.28655 12.1305 8.28655 11.7189 8.54039 11.4651L11.4652 8.54027C11.719 8.28643 12.1306 8.28643 12.3844 8.54027L15.3093 11.4651C15.5631 11.7189 15.5631 12.1305 15.3093 12.3843C15.0554 12.6382 14.6439 12.6382 14.39 12.3843L12.5743 10.5686V15.7499C12.5743 16.1089 12.2833 16.3999 11.9243 16.3999C11.5653 16.3999 11.2743 16.1089 11.2743 15.7499V10.5696L9.45963 12.3843C9.20578 12.6382 8.79423 12.6382 8.54039 12.3843Z" fill="black"/>
</svg>
