<svg width="24" height="24" viewBox="0 0 24 24" fill="none" xmlns="http://www.w3.org/2000/svg">
<path d="M14.6528 2H7.5C5.567 2 4 3.567 4 5.5V18.5C4 20.433 5.567 22 7.5 22H16.5C18.433 22 20 20.433 20 18.5V7.6406C20 6.90586 19.7304 6.19666 19.2422 5.64751L16.895 3.00691C16.3257 2.36644 15.5097 2 14.6528 2ZM18.1211 6.64405C18.3652 6.91863 18.5 7.27323 18.5 7.6406V18.5C18.5 19.6046 17.6046 20.5 16.5 20.5H7.5C6.39543 20.5 5.5 19.6046 5.5 18.5V5.5C5.5 4.39543 6.39543 3.5 7.5 3.5H14.6528C15.0813 3.5 15.4893 3.68322 15.7739 4.00345L18.1211 6.64405ZM16.0548 12.6823C15.8492 13.9129 15.097 14.9584 14.0562 15.5607C14.0804 15.4892 14.1028 15.4042 14.1081 15.3177C14.1103 15.3107 14.1137 15.3001 14.119 15.2854C14.1363 15.2371 14.1633 15.1719 14.2005 15.0864C14.2191 15.0435 14.24 14.9961 14.2625 14.9452L14.2626 14.945C14.3252 14.8034 14.3995 14.6352 14.4677 14.4652C14.561 14.2327 14.6544 13.9692 14.7058 13.7143C14.7546 13.4726 14.7815 13.1661 14.6647 12.891C14.5354 12.5864 14.2721 12.4221 14.0406 12.3315C13.8071 12.24 13.543 12.1979 13.3066 12.1751C13.0794 12.1533 12.8493 12.1472 12.6608 12.1421H12.6608L12.6299 12.1413C12.4146 12.1355 12.2924 12.1298 12.2338 12.118C12.1432 12.0997 12.0534 12.055 11.9735 11.9974C11.8919 11.9385 11.8408 11.8806 11.8274 11.8626L11.7647 11.7783L11.6709 11.731C11.4572 11.6231 11.3029 11.533 11.1922 11.46L11.2738 11.4506C11.4598 11.4294 11.6834 11.4039 11.8326 11.3662C11.9665 11.3325 12.1874 11.2448 12.2813 11C12.3603 10.794 12.2914 10.603 12.2692 10.5415L12.2686 10.5398C12.2546 10.501 12.2381 10.4615 12.226 10.4326L12.226 10.4326L12.2229 10.4253L12.2113 10.3973C12.2777 10.3775 12.3513 10.3499 12.4305 10.31C12.5607 10.2442 12.6815 10.1545 12.7718 10.0287C12.8646 9.89958 12.905 9.7606 12.9158 9.63035C12.931 9.44563 12.8831 9.24611 12.8483 9.11005C12.866 9.09579 12.8868 9.08009 12.9143 9.05965L12.924 9.05242C12.9516 9.03185 12.986 9.00626 13.0196 8.97953C13.094 8.92041 13.1953 8.83255 13.2762 8.71015C13.4379 8.46538 13.3547 8.22521 13.2816 8.0926C14.2216 8.40072 15.0122 9.03857 15.5166 9.86941C15.4713 9.90964 15.4277 9.95099 15.3864 9.99222C15.152 10.2261 14.943 10.5023 14.8163 10.6927C14.71 10.8355 14.602 11.0524 14.6001 11.3233C14.5981 11.6155 14.7199 11.9073 14.9753 12.172C15.1763 12.3802 15.4601 12.5123 15.743 12.6006C15.8421 12.6315 15.9464 12.6586 16.0548 12.6823ZM12.8661 15.9669L12.8329 16.0267C12.6141 16.0717 12.3889 16.0994 12.1589 16.1081C12.131 15.9133 12.0643 15.7024 11.9419 15.4862C11.7992 15.2342 11.6499 15.0282 11.5388 14.8749L11.5388 14.8748L11.5387 14.8748C11.5075 14.8318 11.4794 14.793 11.4552 14.7584C11.3293 14.5783 11.3245 14.5311 11.3245 14.5127C11.3245 14.4729 11.3305 14.4217 11.3412 14.3315L11.3519 14.2399C11.3669 14.109 11.3835 13.9405 11.3769 13.7618C11.3635 13.3965 11.2495 12.9414 10.8024 12.619C10.6037 12.4758 10.3827 12.3845 10.1876 12.3124C10.1144 12.2854 10.0468 12.2616 9.98195 12.2388L9.9819 12.2387C9.85751 12.195 9.74317 12.1547 9.61922 12.102C9.27969 11.9577 8.97382 11.7598 8.74044 11.3223C8.45451 10.7864 8.3434 10.4742 8.30058 10.3026C8.29418 10.2769 8.28937 10.2547 8.28576 10.2355C8.90939 8.92509 10.2061 7.99685 11.7288 7.89769L11.724 7.90372C11.8151 7.97597 11.9184 8.05196 12.0152 8.12314L12.0152 8.12315L12.0152 8.12317L12.063 8.15836C12.1688 8.23633 12.2648 8.30819 12.3458 8.37492C12.3231 8.39211 12.2986 8.41117 12.2742 8.43126C12.2007 8.49195 12.0942 8.58949 12.0223 8.73154C11.942 8.89006 11.9219 9.06882 11.9676 9.25346L11.9823 9.31234L11.9823 9.31237L11.9823 9.31249C11.9983 9.37641 12.0104 9.42441 12.0194 9.47106C12.0232 9.49024 12.0256 9.50562 12.0272 9.51779C11.9642 9.54937 11.944 9.55201 11.9024 9.55742C11.8707 9.56155 11.8266 9.5673 11.7417 9.58872C11.6468 9.61268 11.4838 9.67278 11.3761 9.84951C11.2884 9.99325 11.2794 10.1508 11.2794 10.2539C11.2794 10.3659 11.2991 10.4663 11.323 10.5498L11.2519 10.5579C11.1706 10.5671 11.08 10.5773 10.9802 10.5905C10.8558 10.6069 10.7148 10.6288 10.5929 10.6637C10.532 10.6811 10.4581 10.7066 10.3869 10.7464C10.3215 10.7829 10.2118 10.8571 10.1442 10.9935C10.1033 11.0761 10.0546 11.2054 10.0661 11.3686C10.0777 11.5328 10.1463 11.6785 10.2445 11.8045C10.4153 12.024 10.7203 12.24 11.1883 12.4826C11.3491 12.6596 11.6536 12.9077 12.0579 12.9893C12.2058 13.0192 12.4131 13.0247 12.59 13.0294L12.606 13.0299L12.6289 13.0305H12.6289C12.8236 13.0357 13.0259 13.0411 13.2215 13.0599C13.4281 13.0798 13.5966 13.1122 13.7164 13.1591C13.7744 13.1818 13.8091 13.2034 13.8283 13.2191C13.8373 13.2265 13.8419 13.2318 13.844 13.2345C13.8459 13.2369 13.8464 13.2381 13.8465 13.2384L13.8466 13.2384C13.8563 13.2615 13.8727 13.3489 13.8345 13.5384C13.7989 13.7147 13.7288 13.9197 13.6427 14.1343C13.5807 14.2889 13.5164 14.4344 13.4556 14.572L13.4555 14.5721L13.4555 14.5722C13.4314 14.6267 13.4078 14.68 13.3852 14.7322C13.3472 14.8197 13.3102 14.9075 13.2824 14.985C13.2627 15.0397 13.2263 15.144 13.2211 15.2536L13.2205 15.2556C13.2179 15.2641 13.2111 15.2871 13.1943 15.3285C13.1654 15.3997 13.1219 15.4902 13.0674 15.5955C13 15.7255 12.9327 15.8467 12.8661 15.9668L12.8661 15.9668L12.8661 15.9669ZM7.88889 12C7.88889 11.8795 7.89408 11.7602 7.90424 11.6423C7.92102 11.6745 7.93833 11.7073 7.95618 11.7407C8.31353 12.4106 8.80937 12.7237 9.27155 12.9201C9.4211 12.9837 9.58171 13.0403 9.71991 13.0891L9.71994 13.0891L9.71995 13.0891L9.72003 13.0892L9.72011 13.0892C9.77795 13.1096 9.83187 13.1286 9.8794 13.1462C10.0588 13.2125 10.1858 13.2703 10.2826 13.34C10.4261 13.4436 10.4809 13.5847 10.4886 13.7943C10.4926 13.9031 10.4828 14.0168 10.4688 14.1386L10.462 14.1958C10.4503 14.2929 10.4356 14.4145 10.4356 14.5127C10.4356 14.835 10.5996 15.0859 10.7268 15.2678C10.763 15.3196 10.7993 15.3698 10.8359 15.4203L10.8359 15.4203C10.9433 15.5687 11.0528 15.72 11.1684 15.9241C11.1907 15.9636 11.2091 16.0016 11.2241 16.038C9.32458 15.6752 7.88889 14.0053 7.88889 12ZM7 12C7 14.7614 9.23858 17 12 17C14.7614 17 17 14.7614 17 12C17 11.1047 16.7647 10.2644 16.3525 9.53745L16.3548 9.4941C16.3455 9.49362 16.3363 9.49331 16.3271 9.49317C15.4616 8.00243 13.8479 7 12 7C9.92831 7 8.1509 8.25995 7.39224 10.0554H7.38901L7.38905 10.0523C7.38914 10.0473 7.38924 10.0415 7.38798 10.0655C7.13809 10.6606 7 11.3142 7 12ZM16.1053 11.7802C16.0861 11.4155 16.0194 11.0633 15.9112 10.7299C15.7649 10.8914 15.6332 11.0686 15.5502 11.1944L15.5413 11.2079L15.5314 11.2207C15.5046 11.2556 15.4893 11.2947 15.489 11.3295C15.4889 11.3522 15.4932 11.4286 15.615 11.5547C15.6654 11.607 15.7846 11.6824 16.0077 11.752C16.0391 11.7618 16.0716 11.7712 16.1053 11.7802ZM11.6208 10.5028C11.6208 10.5028 11.6201 10.503 11.6187 10.5034L11.6208 10.5028Z" fill="black"/>
</svg>
