<svg width="24" height="24" viewBox="0 0 24 24" fill="none" xmlns="http://www.w3.org/2000/svg">
<path d="M14.6528 2H7.5C5.567 2 4 3.567 4 5.5V18.5C4 20.433 5.567 22 7.5 22H16.5C18.433 22 20 20.433 20 18.5V7.6406C20 6.90586 19.7304 6.19666 19.2422 5.64751L16.895 3.00691C16.3257 2.36644 15.5097 2 14.6528 2ZM18.1211 6.64405C18.3652 6.91863 18.5 7.27323 18.5 7.6406V18.5C18.5 19.6046 17.6046 20.5 16.5 20.5H7.5C6.39543 20.5 5.5 19.6046 5.5 18.5V5.5C5.5 4.39543 6.39543 3.5 7.5 3.5H14.6528C15.0813 3.5 15.4893 3.68322 15.7739 4.00345L18.1211 6.64405ZM10.0295 10.6993C10.2247 10.504 10.2247 10.1874 10.0295 9.99215C9.83422 9.79689 9.51764 9.79689 9.32238 9.99215L7.20699 12.1075C7.01173 12.3028 7.01173 12.6194 7.20699 12.8146L9.32238 14.93C9.51764 15.1253 9.83422 15.1253 10.0295 14.93C10.2247 14.7348 10.2247 14.4182 10.0295 14.2229L8.26765 12.4611L10.0295 10.6993ZM13.9764 14.9307C14.1716 15.126 14.4882 15.126 14.6835 14.9307L16.7989 12.8153C16.9941 12.6201 16.9941 12.3035 16.7989 12.1082L14.6835 9.99283C14.4882 9.79756 14.1716 9.79756 13.9764 9.99283C13.7811 10.1881 13.7811 10.5047 13.9764 10.6999L15.7382 12.4618L13.9764 14.2236C13.7811 14.4189 13.7811 14.7354 13.9764 14.9307ZM13.1256 9.61242C13.1877 9.34335 13.0199 9.07489 12.7508 9.01279C12.4817 8.9507 12.2133 9.11849 12.1512 9.38756L10.8819 14.8876C10.8199 15.1566 10.9876 15.4251 11.2567 15.4872C11.5258 15.5493 11.7942 15.3815 11.8563 15.1124L13.1256 9.61242Z" fill="black"/>
</svg>
