<svg width="24" height="24" viewBox="0 0 24 24" fill="none" xmlns="http://www.w3.org/2000/svg">
<path d="M14.6528 2H7.5C5.567 2 4 3.567 4 5.5V18.5C4 20.433 5.567 22 7.5 22H16.5C18.433 22 20 20.433 20 18.5V7.6406C20 6.90586 19.7304 6.19666 19.2422 5.64751L16.895 3.00691C16.3257 2.36644 15.5097 2 14.6528 2ZM18.1211 6.64405C18.3652 6.91863 18.5 7.27323 18.5 7.6406V18.5C18.5 19.6046 17.6046 20.5 16.5 20.5H7.5C6.39543 20.5 5.5 19.6046 5.5 18.5V5.5C5.5 4.39543 6.39543 3.5 7.5 3.5H14.6528C15.0813 3.5 15.4893 3.68322 15.7739 4.00345L18.1211 6.64405ZM7.5756 12.2987V12.183C8.14472 12.1204 8.46367 11.8327 8.46367 11.3793V10.8415C8.46367 10.4318 8.59813 10.2818 8.97025 10.2818H9.11409V9.5H8.85142C7.82263 9.5 7.40361 9.85335 7.40361 10.7133V11.1104C7.40361 11.5513 7.18472 11.7296 6.64062 11.7327V12.749C7.18785 12.7552 7.40361 12.9335 7.40361 13.3712V13.7496C7.40361 14.6252 7.82263 14.9879 8.85142 14.9879H9.11409V14.2061H8.97025C8.59813 14.2061 8.46367 14.0592 8.46367 13.6495V13.1023C8.46367 12.6489 8.14472 12.3612 7.5756 12.2987ZM10.1272 14.0529C10.4493 14.0529 10.7089 13.7934 10.7089 13.4713C10.7089 13.1492 10.4493 12.8897 10.1272 12.8897C9.80516 12.8897 9.54874 13.1492 9.54874 13.4713C9.54874 13.7934 9.80516 14.0529 10.1272 14.0529ZM12.5726 13.4713C12.5726 13.1492 12.313 12.8897 11.9909 12.8897C11.6689 12.8897 11.4124 13.1492 11.4124 13.4713C11.4124 13.7934 11.6689 14.0529 11.9909 14.0529C12.313 14.0529 12.5726 13.7934 12.5726 13.4713ZM13.8546 14.0529C14.1767 14.0529 14.4363 13.7934 14.4363 13.4713C14.4363 13.1492 14.1767 12.8897 13.8546 12.8897C13.5325 12.8897 13.2761 13.1492 13.2761 13.4713C13.2761 13.7934 13.5325 14.0529 13.8546 14.0529ZM15.5245 13.1023V13.6495C15.5245 14.056 15.39 14.2061 15.021 14.2061H14.8772V14.9879H15.1398C16.1655 14.9879 16.5845 14.622 16.5845 13.7433V13.3712C16.5845 12.9335 16.8003 12.7552 17.3506 12.749V11.7327C16.8034 11.7296 16.5845 11.5513 16.5845 11.1104V10.7133C16.5845 9.85335 16.1686 9.5 15.1398 9.5H14.8772V10.2818H15.021C15.3931 10.2818 15.5245 10.4318 15.5245 10.8415V11.3793C15.5245 11.8327 15.8465 12.1204 16.4157 12.183V12.2987C15.8465 12.3612 15.5245 12.6489 15.5245 13.1023Z" fill="black"/>
</svg>
