<svg width="24" height="24" viewBox="0 0 24 24" fill="none" xmlns="http://www.w3.org/2000/svg">
<path d="M16.895 3.00691C16.3257 2.36644 15.5097 2 14.6528 2H7.5C5.567 2 4 3.567 4 5.5V18.5C4 20.433 5.567 22 7.5 22H16.5C18.433 22 20 20.433 20 18.5V7.6406C20 6.90586 19.7304 6.19666 19.2422 5.64751L16.895 3.00691ZM15.7739 4.00345L18.1211 6.64405C18.3652 6.91863 18.5 7.27323 18.5 7.6406V18.5C18.5 19.6046 17.6046 20.5 16.5 20.5H7.5C6.39543 20.5 5.5 19.6046 5.5 18.5V5.5C5.5 4.39543 6.39543 3.5 7.5 3.5H14.6528C15.0813 3.5 15.4893 3.68322 15.7739 4.00345ZM12 9.3999C11.6686 9.3999 11.4 9.66853 11.4 9.9999V12.3999H8.99999C8.66862 12.3999 8.39999 12.6685 8.39999 12.9999C8.39999 13.3313 8.66862 13.5999 8.99999 13.5999H11.4V15.9999C11.4 16.3313 11.6686 16.5999 12 16.5999C12.3314 16.5999 12.6 16.3313 12.6 15.9999V13.5999H15C15.3314 13.5999 15.6 13.3313 15.6 12.9999C15.6 12.6685 15.3314 12.3999 15 12.3999H12.6V9.9999C12.6 9.66853 12.3314 9.3999 12 9.3999Z" fill="black"/>
</svg>
