<svg width="24" height="24" viewBox="0 0 24 24" fill="none" xmlns="http://www.w3.org/2000/svg">
<path d="M16.895 3.00691C16.3257 2.36644 15.5097 2 14.6528 2H7.5C5.567 2 4 3.567 4 5.5V18.5C4 20.433 5.567 22 7.5 22H16.5C18.433 22 20 20.433 20 18.5V7.6406C20 6.90586 19.7304 6.19666 19.2422 5.64751L16.895 3.00691ZM15.7739 4.00345L18.1211 6.64405C18.3652 6.91863 18.5 7.27323 18.5 7.6406V18.5C18.5 19.6046 17.6046 20.5 16.5 20.5H7.5C6.39543 20.5 5.5 19.6046 5.5 18.5V5.5C5.5 4.39543 6.39543 3.5 7.5 3.5H14.6528C15.0813 3.5 15.4893 3.68322 15.7739 4.00345ZM7 10V11.7777C7 12.0539 7.22386 12.2777 7.5 12.2777H10.9444C11.2205 12.2777 11.4444 12.0539 11.4444 11.7777V10C11.4444 9.72386 11.2205 9.5 10.9444 9.5H7.5C7.22386 9.5 7 9.72386 7 10ZM13.0556 9.5C12.7795 9.5 12.5556 9.72386 12.5556 10V11.7777C12.5556 12.0539 12.7795 12.2777 13.0556 12.2777H16.5C16.7761 12.2777 17 12.0539 17 11.7777V10C17 9.72386 16.7761 9.5 16.5 9.5H13.0556ZM7 13.8888V15.6665C7 15.9426 7.22386 16.1665 7.5 16.1665H10.9444C11.2205 16.1665 11.4444 15.9426 11.4444 15.6665V13.8888C11.4444 13.6126 11.2205 13.3888 10.9444 13.3888H7.5C7.22386 13.3888 7 13.6126 7 13.8888ZM13.0556 13.3888C12.7795 13.3888 12.5556 13.6126 12.5556 13.8888V15.6665C12.5556 15.9426 12.7795 16.1665 13.0556 16.1665H16.5C16.7761 16.1665 17 15.9426 17 15.6665V13.8888C17 13.6126 16.7761 13.3888 16.5 13.3888H13.0556Z" fill="black"/>
</svg>
