<svg width="24" height="24" viewBox="0 0 24 24" fill="none" xmlns="http://www.w3.org/2000/svg">
<path d="M14.6528 2H7.5C5.56701 2 4 3.567 4 5.5V18.5C4 20.433 5.56703 22 7.5 22H16.5C18.433 22 20 20.433 20 18.5V7.6406C20 6.90585 19.7304 6.19666 19.2423 5.64751L16.8951 3.0069C16.3257 2.36643 15.5097 2 14.6528 2ZM14.6528 3.5C15.0813 3.5 15.4893 3.68322 15.774 4.00347L18.1211 6.64405C18.3652 6.91861 18.5 7.2732 18.5 7.6406V18.5C18.5 19.6046 17.6045 20.5 16.5 20.5H7.5C6.39546 20.5 5.5 19.6046 5.5 18.5V5.5C5.5 4.39543 6.39543 3.5 7.5 3.5H14.6528ZM10.01 13.4004C9.06485 13.3803 8.40794 14.1093 7.91499 15.2621C7.76294 15.6178 7.63694 15.9942 7.5344 16.37C7.52207 16.4152 7.51058 16.4584 7.49992 16.4996L7.44583 16.7198L7.41114 16.8809C7.34757 17.2062 7.55968 17.5213 7.8849 17.5849C8.21011 17.6485 8.52529 17.4364 8.58886 17.1111L8.61659 16.9832L8.69208 16.6859C8.78113 16.3595 8.89018 16.0337 9.01836 15.7339C9.33559 14.992 9.69431 14.5939 9.98443 14.6001L9.9988 14.5989L10.0024 14.6601L10.0186 14.8046C10.0303 14.9529 10.0234 15.1368 9.99746 15.3882L9.95718 15.7243L9.83709 16.5939L9.8058 16.8725L9.78865 17.1033C9.78012 17.2802 9.78579 17.4244 9.8044 17.5788C9.88963 18.2865 10.3671 18.7261 11.1088 18.5839C11.2326 18.5601 11.3589 18.5204 11.4897 18.4671C11.6183 18.4147 11.7494 18.35 11.8825 18.2756C11.9217 18.2536 11.9597 18.2317 11.9962 18.2101L12.1954 18.0856L12.3485 17.9797L12.5461 17.864L12.7444 17.7563L12.9483 17.6565C13.0341 17.6176 13.1094 17.588 13.1694 17.5695C13.2528 17.5439 13.3852 17.5243 13.5563 17.5116L13.8409 17.4976C13.8927 17.4962 13.9467 17.4952 14.0026 17.4946L14.3603 17.4968C14.6682 17.5031 14.9997 17.5197 15.336 17.5434L15.4875 17.5545L15.928 17.5927C16.2577 17.6262 16.5522 17.3862 16.5857 17.0565C16.6193 16.7268 16.3792 16.4324 16.0496 16.3988L15.7241 16.3694L15.0676 16.324C14.8341 16.3108 14.6049 16.3015 14.3849 16.297C13.6911 16.2828 13.1665 16.3149 12.8165 16.4226C12.7025 16.4577 12.5814 16.5052 12.4526 16.5636C12.3674 16.6023 12.2796 16.6454 12.1899 16.6921L12.0656 16.7584L11.8445 16.8838L11.6717 16.9895C11.5704 17.062 11.4443 17.1457 11.2966 17.2284L11.2056 17.2773C11.1462 17.3079 11.0896 17.3344 11.0372 17.3557L10.989 17.373L10.9868 17.3076L10.9865 17.2352L10.9948 17.0644C10.9972 17.0325 11.0002 16.9987 11.0037 16.9627L11.0314 16.7178L11.1502 15.8564L11.1976 15.4525C11.2335 15.0849 11.2348 14.8159 11.1977 14.5523C11.1025 13.8762 10.701 13.4151 10.01 13.4004Z" fill="black"/>
</svg>
