<svg width="24" height="24" viewBox="0 0 24 24" fill="none" xmlns="http://www.w3.org/2000/svg">
<path d="M3 5.75L3 7.75L3 15.75L3 17.75C3 19.2688 4.23122 20.5 5.75 20.5L7.3056 20.5L16.1944 20.5L17.75 20.5C19.2688 20.5 20.5 19.2688 20.5 17.75L20.5 5.75C20.5 4.23122 19.2688 3 17.75 3L16.1944 3L7.3056 3L5.75 3C4.23122 3 3 4.23122 3 5.75ZM4.5 17.75L4.5 16.5L6.5556 16.5L6.5556 19L5.75 19C5.05964 19 4.5 18.4404 4.5 17.75ZM4.5 15L4.5 12.375L6.5556 12.375L6.5556 15L4.5 15ZM4.5 11.125L4.5 8.5L6.5556 8.5L6.5556 11.125L4.5 11.125ZM8.0556 12.375L15.4444 12.375L15.4444 15.75L15.4444 19L8.0556 19L8.0556 12.375ZM15.4444 11.125L8.0556 11.125L8.0556 4.5L15.4444 4.5L15.4444 7.74033L15.4443 7.75L15.4444 7.75967L15.4444 11.125ZM16.9444 12.375L19 12.375L19 15L16.9444 15L16.9444 12.375ZM19 11.125L16.9444 11.125L16.9444 8.5L19 8.5L19 11.125ZM6.5556 7L4.5 7L4.5 5.75C4.5 5.05964 5.05964 4.5 5.75 4.5L6.5556 4.5L6.5556 7ZM19 5.75L19 7L16.9444 7L16.9444 4.5L17.75 4.5C18.4404 4.5 19 5.05964 19 5.75ZM16.9444 19L16.9444 16.5L19 16.5L19 17.75C19 18.4404 18.4404 19 17.75 19L16.9444 19Z" fill="black"/>
</svg>
