<svg width="24" height="24" viewBox="0 0 24 24" fill="none" xmlns="http://www.w3.org/2000/svg">
<path d="M10.3739 11.4258L5.02031 4.5H18.8807L13.4516 11.4171C13.2443 11.6813 13.1316 12.0074 13.1316 12.3432V18.6379L10.6871 17.751V12.3432C10.6871 12.0112 10.577 11.6885 10.3739 11.4258ZM19.9088 3H4.00185C3.17108 3 2.70258 3.95429 3.21066 4.61158L9.18715 12.3432V18.1015C9.18715 18.5223 9.45054 18.898 9.84609 19.0415L13.2905 20.2912C13.9426 20.5278 14.6316 20.0448 14.6316 19.3512V12.3432L20.6954 4.61742C21.2105 3.96121 20.743 3 19.9088 3Z" fill="black"/>
</svg>
