<svg width="24" height="24" viewBox="0 0 24 24" fill="none" xmlns="http://www.w3.org/2000/svg">
<path d="M3 7.75C3 8.16421 3.33579 8.5 3.75 8.5H19.75C20.1642 8.5 20.5 8.16421 20.5 7.75C20.5 7.33579 20.1642 7 19.75 7H3.75C3.33579 7 3 7.33579 3 7.75ZM5.66681 12.1943C5.66681 12.6085 6.0026 12.9443 6.41681 12.9443H17.0835C17.4977 12.9443 17.8335 12.6085 17.8335 12.1943C17.8335 11.7801 17.4977 11.4443 17.0835 11.4443H6.41681C6.0026 11.4443 5.66681 11.7801 5.66681 12.1943ZM9.97241 15.8887C9.5582 15.8887 9.22241 16.2245 9.22241 16.6387C9.22241 17.0529 9.5582 17.3887 9.97241 17.3887H13.528C13.9422 17.3887 14.278 17.0529 14.278 16.6387C14.278 16.2245 13.9422 15.8887 13.528 15.8887H9.97241Z" fill="black"/>
</svg>
