<svg width="24" height="24" viewBox="0 0 24 24" fill="none" xmlns="http://www.w3.org/2000/svg">
<path d="M4.23758 3.55391C4.09137 3.69076 4 3.88549 4 4.10156V20.9998C4 21.414 4.33579 21.7498 4.75 21.7498C5.16421 21.7498 5.5 21.414 5.5 20.9998V13.5196H19.4702C19.8593 13.5196 20.0993 13.0949 19.8985 12.7616L19.4516 12.0198L17.4971 8.77589C17.3058 8.45843 17.3058 8.06121 17.4971 7.74375L19.8985 3.75803C20.0993 3.42479 19.8593 3 19.4702 3H5.13281C4.74049 3 4.40143 3.22578 4.23758 3.55391ZM5.63883 4.5H17.7002L16.2123 6.96965C15.7341 7.7633 15.7341 8.75634 16.2123 9.54999L17.7002 12.0196H5.7288L5.63883 4.5Z" fill="black"/>
</svg>
