<svg width="24" height="24" viewBox="0 0 24 24" fill="none" xmlns="http://www.w3.org/2000/svg">
<path d="M18 8.19196C18.8284 8.19196 19.5 8.86353 19.5 9.69196V16C19.5 16.8284 18.8284 17.5 18 17.5H6C5.17157 17.5 4.5 16.8284 4.5 16V8C4.5 7.17157 5.17157 6.5 6 6.5H9.5688C9.65764 6.5 9.74488 6.52367 9.82154 6.56858L11.7731 7.71189C12.3097 8.02625 12.9204 8.19196 13.5423 8.19196H18ZM13.5423 6.69196C13.1869 6.69196 12.838 6.59727 12.5313 6.41763L10.5798 5.27432C10.2731 5.09469 9.92417 5 9.5688 5H6C4.34315 5 3 6.34315 3 8V16C3 17.6569 4.34315 19 6 19H18C19.6569 19 21 17.6569 21 16V9.69196C21 8.03511 19.6569 6.69196 18 6.69196H13.5423Z" fill="black"/>
<path d="M12 9.25C11.5858 9.25 11.25 9.58579 11.25 10V11.75H9.5C9.08579 11.75 8.75 12.0858 8.75 12.5C8.75 12.9142 9.08579 13.25 9.5 13.25H11.25V15C11.25 15.4142 11.5858 15.75 12 15.75C12.4142 15.75 12.75 15.4142 12.75 15V13.25H14.5C14.9142 13.25 15.25 12.9142 15.25 12.5C15.25 12.0858 14.9142 11.75 14.5 11.75H12.75V10C12.75 9.58579 12.4142 9.25 12 9.25Z" fill="black"/>
</svg>
