<svg width="24" height="24" viewBox="0 0 24 24" fill="none" xmlns="http://www.w3.org/2000/svg">
<path d="M20.3969 21.3877L19.266 20.0612V11.4118C19.266 9.63972 17.8246 8.20312 16.0465 8.20312H6.21952C4.44143 8.20312 3 9.63972 3 11.4118V18.179C3 19.9511 4.44143 21.3877 6.21952 21.3877H20.3969ZM17.766 19.8877H6.21952C5.2651 19.8877 4.5 19.1179 4.5 18.179V11.4118C4.5 10.4729 5.2651 9.70312 6.21952 9.70312H16.0465C17.0009 9.70312 17.766 10.4729 17.766 11.4118V19.8877Z" fill="black"/>
<path d="M7.68761 4.5H9.96576C10.461 4.5 10.9289 4.72736 11.2349 5.11675C11.8253 5.86799 12.7279 6.30661 13.6834 6.30661H17.964C19.2262 6.30661 20.2493 7.32977 20.2493 8.59191V19.4077C20.2493 19.6865 20.0234 19.9124 19.7446 19.9124C19.4658 19.9124 19.2399 19.6865 19.2399 19.4077H17.7399C17.7399 20.5149 18.6374 21.4124 19.7446 21.4124C20.8518 21.4124 21.7493 20.5149 21.7493 19.4077V8.59191C21.7493 6.50135 20.0546 4.80661 17.964 4.80661H13.6834C13.1882 4.80661 12.7203 4.57926 12.4143 4.18987C11.8239 3.43863 10.9212 3 9.96576 3H7.68761C5.87645 3 4.4082 4.46824 4.4082 6.27941V9.1908H5.9082V6.27941C5.9082 5.29667 6.70487 4.5 7.68761 4.5Z" fill="black"/>
</svg>
