<svg width="24" height="24" viewBox="0 0 24 24" fill="none" xmlns="http://www.w3.org/2000/svg">
<path d="M2 8.58333V16.1389C2 18.1179 3.60431 19.7222 5.58333 19.7222H15.9167C16.3309 19.7222 16.6667 19.3864 16.6667 18.9722C16.6667 18.558 16.3309 18.2222 15.9167 18.2222H5.58333C4.43274 18.2222 3.5 17.2895 3.5 16.1389V8.58333C3.5 7.43274 4.43274 6.5 5.58333 6.5H8.95387C9.15623 6.5 9.35494 6.55392 9.52955 6.65621L11.3727 7.73601C11.7773 7.97302 12.2377 8.09796 12.7066 8.09796H15.9167C16.677 8.09796 17.2229 8.18603 17.5608 8.37047C17.7134 8.4538 17.8109 8.55024 17.8757 8.66391C17.942 8.78037 18 8.96097 18 9.25C18 9.66421 18.3358 10 18.75 10C19.1642 10 19.5 9.66421 19.5 9.25C19.5 8.75663 19.3994 8.30827 19.179 7.9214C18.957 7.53173 18.6396 7.25047 18.2795 7.05388C17.5919 6.67851 16.7211 6.59796 15.9167 6.59796H12.7066C12.5043 6.59796 12.3055 6.54404 12.1309 6.44175L10.2878 5.36196C9.88319 5.12494 9.42276 5 8.95387 5H5.58333C3.60431 5 2 6.60431 2 8.58333Z" fill="black"/>
<path d="M19.1315 10.25C19.4612 10.25 19.7006 10.5635 19.6139 10.8816L17.7048 17.8816C17.6455 18.0991 17.4479 18.25 17.2224 18.25H6.14642C5.83447 18.25 5.59869 17.9675 5.65449 17.6606L6.92722 10.6606C6.97044 10.4228 7.17751 10.25 7.41915 10.25H19.1315ZM7.41915 8.75C6.45258 8.75 5.62432 9.44125 5.45141 10.3922L4.17869 17.3922C3.95547 18.6199 4.89862 19.75 6.14642 19.75H17.2224C18.1243 19.75 18.9146 19.1464 19.1519 18.2762L21.061 11.2762C21.408 10.004 20.4502 8.75 19.1315 8.75H7.41915Z" fill="black"/>
</svg>
