<svg width="24" height="24" viewBox="0 0 24 24" fill="none" xmlns="http://www.w3.org/2000/svg">
<path d="M4.17575 4.13239C3.8835 3.93044 3.47981 3.95953 3.21967 4.21967C2.92678 4.51256 2.92678 4.98744 3.21967 5.28033L3.72901 5.78967C3.27475 6.31545 3 7.00064 3 7.75V15.75C3 17.4069 4.34315 18.75 6 18.75H16.6893L18.2197 20.2803C18.5126 20.5732 18.9874 20.5732 19.2803 20.2803C19.5578 20.0029 19.5724 19.5622 19.3242 19.2675C19.2874 19.2421 19.2524 19.213 19.2197 19.1802L4.21967 4.18023C4.20421 4.16478 4.18957 4.14881 4.17575 4.13239ZM20.0762 17.9155C20.6456 17.3695 21 16.6011 21 15.75V9.44196C21 7.78511 19.6569 6.44196 18 6.44196H13.5423C13.1869 6.44196 12.838 6.34727 12.5313 6.16763L10.5798 5.02432C10.2731 4.84469 9.92417 4.75 9.5688 4.75H6.91076L8.41076 6.25H9.5688C9.65764 6.25 9.74488 6.27367 9.82154 6.31858L11.7731 7.46189C12.3097 7.77625 12.9204 7.94196 13.5423 7.94196H18C18.8284 7.94196 19.5 8.61353 19.5 9.44196V15.75C19.5 16.1869 19.3132 16.5802 19.0151 16.8543L20.0762 17.9155ZM4.5 7.75C4.5 7.41502 4.6098 7.10569 4.79538 6.85604L15.1893 17.25H6C5.17157 17.25 4.5 16.5784 4.5 15.75V7.75Z" fill="black"/>
</svg>
