<svg width="24" height="24" viewBox="0 0 24 24" fill="none" xmlns="http://www.w3.org/2000/svg">
<path d="M18 8.19196C18.8284 8.19196 19.5 8.86353 19.5 9.69196V16C19.5 16.8284 18.8284 17.5 18 17.5H6C5.17157 17.5 4.5 16.8284 4.5 16V8C4.5 7.17157 5.17157 6.5 6 6.5H9.5688C9.65764 6.5 9.74488 6.52367 9.82154 6.56858L11.7731 7.71189C12.3097 8.02625 12.9204 8.19196 13.5423 8.19196H18ZM13.5423 6.69196C13.1869 6.69196 12.838 6.59727 12.5313 6.41763L10.5798 5.27432C10.2731 5.09469 9.92417 5 9.5688 5H6C4.34315 5 3 6.34315 3 8V16C3 17.6569 4.34315 19 6 19H18C19.6569 19 21 17.6569 21 16V9.69196C21 8.03511 19.6569 6.69196 18 6.69196H13.5423Z" fill="black"/>
</svg>
