<svg width="24" height="24" viewBox="0 0 24 24" fill="none" xmlns="http://www.w3.org/2000/svg">
<path d="M6.11959 4.08393C6.44513 3.72524 6.91507 3.5 7.43761 3.5H9.71576C10.211 3.5 10.6789 3.72736 10.9849 4.11675C11.5753 4.86799 12.4779 5.30661 13.4334 5.30661H17.714C18.9762 5.30661 19.9993 6.32977 19.9993 7.59191V17.9637L21.2803 19.2447C21.2887 19.2531 21.2969 19.2616 21.3048 19.2703C21.4295 19.009 21.4993 18.7165 21.4993 18.4077V7.59191C21.4993 5.50135 19.8046 3.80661 17.714 3.80661H13.4334C12.9382 3.80661 12.4703 3.57926 12.1643 3.18987C11.5739 2.43863 10.6712 2 9.71576 2H7.43761C6.50086 2 5.65584 2.39276 5.05825 3.02259L6.11959 4.08393ZM9.23879 7.20312L10.7388 8.70312H15.7965C16.7509 8.70312 17.516 9.47289 17.516 10.4118V15.4803L19.016 16.9804V10.4118C19.016 8.63972 17.5746 7.20312 15.7965 7.20312H9.23879ZM3.25187 3.31763C2.95744 3.05207 2.50325 3.06108 2.21967 3.34467C1.92678 3.63756 1.92678 4.11244 2.21967 4.40533L4.1582 6.34386V7.75873C3.30813 8.33632 2.75 9.30912 2.75 10.4118V17.179C2.75 18.9511 4.19143 20.3877 5.96952 20.3877H18.202L19.0947 21.2803C19.3876 21.5732 19.8624 21.5732 20.1553 21.2803C20.4131 21.0226 20.444 20.6239 20.2481 20.3324C20.2385 20.3236 20.229 20.3146 20.2197 20.3053L3.34467 3.43033C3.30952 3.39518 3.27858 3.3574 3.25187 3.31763ZM6.51746 8.70312L16.702 18.8877H5.96952C5.0151 18.8877 4.25 18.1179 4.25 17.179V10.4118C4.25 9.47289 5.0151 8.70312 5.96952 8.70312H6.51746Z" fill="black"/>
</svg>
