<svg width="24" height="24" viewBox="0 0 24 24" fill="none" xmlns="http://www.w3.org/2000/svg">
<path d="M9.11715 6.56619C9.03198 6.3531 8.86545 6.17196 8.6379 6.0738C8.52181 6.02372 8.40061 5.99993 8.28126 6C8.16227 5.99993 8.04144 6.02358 7.92566 6.07335C7.69799 6.17122 7.53122 6.35214 7.44579 6.56513L3.89583 14.7946C3.86573 14.8483 3.84095 14.9054 3.82223 14.9652L3.07384 16.7001C2.87696 17.1565 3.08735 17.6861 3.54375 17.883C4.00015 18.0798 4.52974 17.8695 4.72662 17.4131L5.27827 16.1342H11.2708L11.8201 17.412C12.0164 17.8687 12.5457 18.0797 13.0024 17.8834C13.459 17.6871 13.6701 17.1578 13.4738 16.7011L12.7159 14.938C12.7019 14.8979 12.6852 14.8591 12.6659 14.8218L9.11715 6.56619ZM10.4971 14.3342H6.05474L8.2798 9.17613L10.4971 14.3342ZM19.6494 10.6952C19.1194 10.1652 18.3594 9.90021 17.3694 9.90021C16.4494 9.90021 15.7094 10.1752 15.1494 10.7252C14.7961 11.0659 14.5543 11.4423 14.4238 11.8546C14.2939 12.2654 14.6505 12.6273 15.0811 12.6425L15.1761 12.6459C15.6287 12.6619 15.9761 12.2651 16.2324 11.8917C16.2674 11.8408 16.3064 11.7919 16.3494 11.7452C16.5894 11.4952 16.9344 11.3702 17.3844 11.3702C18.2944 11.3702 18.7494 11.9052 18.7494 12.9752V13.2002L16.9194 13.3052C15.0394 13.4152 14.0994 14.1902 14.0994 15.6302C14.0994 16.3402 14.3294 16.8952 14.7894 17.2952C15.2594 17.6852 15.8844 17.8802 16.6644 17.8802C17.4644 17.8802 18.1594 17.6002 18.7494 17.0402C18.7494 17.4213 19.0583 17.7302 19.4394 17.7302H19.5969C20.0649 17.7302 20.4444 17.3508 20.4444 16.8827V12.9452C20.4444 11.9652 20.1794 11.2152 19.6494 10.6952ZM17.1594 14.6102L18.7644 14.5052V14.7752C18.7644 15.3352 18.5994 15.7602 18.2694 16.0502C17.9494 16.3302 17.5094 16.4702 16.9494 16.4702C16.1794 16.4702 15.7944 16.1802 15.7944 15.6002C15.7944 14.9902 16.2494 14.6602 17.1594 14.6102Z" fill="black"/>
</svg>
