<svg width="24" height="24" viewBox="0 0 24 24" fill="none" xmlns="http://www.w3.org/2000/svg">
<path d="M9.15157 7.6548C9.31494 7.98155 9.58148 8.22262 9.89196 8.35826L9.44087 9.38932C9.25677 9.30866 9.05337 9.26391 8.83951 9.26391H5.81031L7.88324 5.11805L9.15157 7.6548ZM5.00129 10.7639H8.83951L6.69609 15.6631C6.40704 16.3238 6.8911 17.0639 7.61225 17.0639H11.6332V19.7638C11.6332 20.1781 11.969 20.5138 12.3832 20.5138C12.7975 20.5138 13.1332 20.1781 13.1332 19.7638V17.0639H17.1542C17.8754 17.0639 18.3594 16.3238 18.0704 15.6631L13.2994 4.758C12.9499 3.95909 11.8166 3.95909 11.4671 4.75799L10.4932 6.98398L8.77768 3.5528C8.40916 2.81574 7.35734 2.81573 6.98882 3.55279L4.10686 9.31669C3.77441 9.98159 4.25791 10.7639 5.00129 10.7639ZM15.927 9.26391C15.7132 9.26391 15.5098 9.30866 15.3256 9.38932L15.927 10.7639H19.7652C20.5086 10.7639 20.9921 9.98159 20.6597 9.31669L17.7777 3.55279C17.4092 2.81573 16.3574 2.81574 15.9889 3.5528L14.2733 6.98399L14.8746 8.35826C15.1851 8.22262 15.4516 7.98155 15.615 7.6548L16.8833 5.11805L18.9562 9.26391H15.927ZM16.3897 15.5639H8.37676L12.3832 6.40626L16.3897 15.5639Z" fill="black"/>
</svg>
