<svg width="24" height="24" viewBox="0 0 24 24" fill="none" xmlns="http://www.w3.org/2000/svg">
<path d="M3.19122 8.90011C3.07231 9.03283 3 9.20817 3 9.40039C3 9.65791 3.12979 9.88512 3.32753 10.0202L11.0578 20.0696C11.4581 20.59 12.2428 20.59 12.6431 20.0696L20.3745 10.0188C20.5711 9.88359 20.7 9.65704 20.7 9.40039C20.7 9.20937 20.6286 9.03504 20.511 8.90262C20.4937 8.86884 20.4743 8.8358 20.4529 8.80367L17.5473 4.4453C17.3619 4.1671 17.0496 4 16.7153 4H6.98566C6.6513 4 6.33907 4.1671 6.15361 4.4453L3.24803 8.80367C3.22714 8.83501 3.2082 8.86721 3.19122 8.90011ZM18.3808 10.1504L13.6936 16.2438L15.7882 10.1504H18.3808ZM10.0064 16.2425L5.32014 10.1504H7.91222L10.0064 16.2425ZM5.15299 8.65039L6.63331 6.42991L7.3966 8.65039H5.15299ZM7.8998 5.5H15.8006L14.7177 8.65039H8.98275L7.8998 5.5ZM17.0673 6.42938L18.548 8.65039H16.3038L17.0673 6.42938ZM11.8502 16.9921L9.49837 10.1504H14.202L11.8502 16.9921Z" fill="black"/>
</svg>
