<svg width="24" height="24" viewBox="0 0 24 24" fill="none" xmlns="http://www.w3.org/2000/svg">
<path d="M19 18.5H5C4.17157 18.5 3.5 17.8284 3.5 17V7C3.5 6.17157 4.17157 5.5 5 5.5H19C19.8284 5.5 20.5 6.17157 20.5 7V17C20.5 17.8284 19.8284 18.5 19 18.5ZM22 17V7C22 5.34315 20.6569 4 19 4H5C3.34315 4 2 5.34315 2 7V17C2 18.6569 3.34315 20 5 20H19C20.6569 20 22 18.6569 22 17ZM8.25 9.25C6.59279 9.25 5.25 10.5928 5.25 12.25C5.25 13.9072 6.59279 15.25 8.25 15.25H9.75C10.1642 15.25 10.5 14.9142 10.5 14.5V12.25C10.5 11.8358 10.1642 11.5 9.75 11.5H8.5C8.08579 11.5 7.75 11.8358 7.75 12.25C7.75 12.6642 8.08579 13 8.5 13H9V13.75H8.25C7.42121 13.75 6.75 13.0788 6.75 12.25C6.75 11.4212 7.42121 10.75 8.25 10.75H9.75C10.1642 10.75 10.5 10.4142 10.5 10C10.5 9.58579 10.1642 9.25 9.75 9.25H8.25ZM12.4492 9.25C12.035 9.25 11.6992 9.58579 11.6992 10V14.5C11.6992 14.9142 12.035 15.25 12.4492 15.25C12.8634 15.25 13.1992 14.9142 13.1992 14.5V10C13.1992 9.58579 12.8634 9.25 12.4492 9.25ZM15.1387 9.25391C14.7245 9.25391 14.3887 9.58969 14.3887 10.0039V14.4999C14.3887 14.9141 14.7245 15.2499 15.1387 15.2499C15.5529 15.2499 15.8887 14.9141 15.8887 14.4999V13H17.2606C17.6748 13 18.0106 12.6642 18.0106 12.25C18.0106 11.8358 17.6748 11.5 17.2606 11.5H15.8887V10.7539H17.6987C18.1129 10.7539 18.4487 10.4181 18.4487 10.0039C18.4487 9.58969 18.1129 9.25391 17.6987 9.25391H15.1387Z" fill="black"/>
</svg>
