<svg width="24" height="24" viewBox="0 0 24 24" fill="none" xmlns="http://www.w3.org/2000/svg">
<path d="M10.5 3C11.0763 3 11.6019 3.21664 12 3.57292C12.3981 3.21664 12.9237 3 13.5 3C14.7426 3 15.75 4.00736 15.75 5.25H19C20.1046 5.25 21 6.14543 21 7.25V9.25C21 9.99028 20.5978 10.6366 20 10.9824V18.2498C20 19.3544 19.1046 20.2498 18 20.2498H6C4.89543 20.2498 4 19.3544 4 18.2498V10.9824C3.4022 10.6366 3 9.99028 3 9.25V7.25C3 6.14543 3.89543 5.25 5 5.25H8.25C8.25 4.00736 9.25736 3 10.5 3ZM9.75 5.25H11.25C11.25 4.83579 10.9142 4.5 10.5 4.5C10.0858 4.5 9.75 4.83579 9.75 5.25ZM13.5 4.5C13.0858 4.5 12.75 4.83579 12.75 5.25H14.25C14.25 4.83579 13.9142 4.5 13.5 4.5ZM5 6.75C4.72386 6.75 4.5 6.97386 4.5 7.25V9.25C4.5 9.52614 4.72386 9.75 5 9.75H19C19.2761 9.75 19.5 9.52614 19.5 9.25V7.25C19.5 6.97386 19.2761 6.75 19 6.75H5ZM5.5 11.3496V18.2498C5.5 18.5259 5.72386 18.7498 6 18.7498H11.25V11.3496H5.5ZM12.75 11.3496V18.7498H18C18.2761 18.7498 18.5 18.5259 18.5 18.2498V11.3496H12.75Z" fill="black"/>
</svg>
