<svg width="24" height="24" viewBox="0 0 24 24" fill="none" xmlns="http://www.w3.org/2000/svg">
<path d="M11.2872 2C6.15804 2 2 6.15804 2 11.2872C2 15.8352 5.26837 19.6183 9.58426 20.4185C9.99153 20.4941 10.3829 20.2251 10.4584 19.8178C10.5339 19.4106 10.265 19.0192 9.85773 18.9437C8.42581 18.6782 7.13146 18.0206 6.09009 17.0866C7.06044 16.3718 7.64636 15.5057 7.84817 14.6467C8.07186 13.6945 7.8139 12.6869 6.98189 12.1553C6.5018 11.8486 6.22884 11.6059 6.10733 11.4128C6.05533 11.3301 6.04534 11.2783 6.0441 11.2465C6.04289 11.2157 6.04772 11.1518 6.10803 11.0408C6.18673 10.8959 6.23327 10.8642 6.60038 10.7375L6.60677 10.7352C7.00983 10.5961 7.58514 10.3975 8.21065 9.76618C8.85336 9.11752 8.79741 8.2131 8.51457 7.39551C8.25422 6.64292 7.74239 5.76407 7.02123 4.77141C7.91057 4.18796 8.92656 3.78168 10.019 3.60275C10.2821 4.38356 10.7453 5.01048 11.507 5.28363C11.7404 5.36733 11.9211 5.4324 12.0704 5.49433C12.1873 5.54282 12.2621 5.5803 12.3098 5.60865C12.2729 6.00699 12.3205 6.5398 12.6245 7.04892C12.9507 7.59532 13.518 8.02335 14.3573 8.24478C15.4322 8.52835 16.7252 8.25408 18.156 7.61465C18.5452 8.3409 18.8225 9.13604 18.9648 9.97703C19.034 10.3854 19.4211 10.6605 19.8295 10.5913C20.2379 10.5222 20.5129 10.135 20.4438 9.72664C19.7012 5.34037 15.885 2 11.2872 2ZM17.3077 6.34754C16.1233 6.84421 15.2897 6.93944 14.7399 6.7944C14.2148 6.65587 14.0055 6.43597 13.9124 6.27999C13.8088 6.10642 13.7857 5.90396 13.8052 5.72882C13.8326 5.48257 13.811 5.21901 13.6919 4.964C13.5738 4.7111 13.3908 4.53302 13.2082 4.40454C12.9034 4.19015 12.4753 4.03697 12.08 3.89554L12.0133 3.87168C11.8881 3.82677 11.7428 3.72715 11.6098 3.50656C13.9041 3.60007 15.943 4.68645 17.3077 6.34754ZM5.85039 5.71213C6.50732 6.62349 6.90959 7.34417 7.097 7.8859C7.31622 8.51961 7.175 8.68025 7.14512 8.71041C6.76548 9.09356 6.45674 9.20016 6.11204 9.31917L6.11083 9.31959L6.08527 9.3284C5.70456 9.45956 5.15762 9.64799 4.78996 10.3248C4.62294 10.6323 4.53175 10.9618 4.54525 11.3054C4.55872 11.6481 4.67419 11.9517 4.8378 12.2117C5.14753 12.7039 5.66645 13.0949 6.17428 13.4194C6.3302 13.519 6.50784 13.7932 6.38793 14.3036C6.27687 14.7763 5.90043 15.4025 5.06742 15.9736C4.08345 14.6695 3.5 13.0464 3.5 11.2872C3.5 9.10168 4.40036 7.12642 5.85039 5.71213ZM14.8403 10.5316L11.7057 12.7259C10.7459 13.3977 10.5125 14.7204 11.1844 15.6801C11.3101 15.8598 11.463 16.0189 11.6376 16.1517C10.7353 16.8374 10.5289 18.1196 11.1845 19.0562C11.3131 19.2399 11.4701 19.4021 11.6495 19.5367L14.0029 21.3017C15.2279 22.2205 16.9086 22.2341 18.1484 21.3353L20.4648 19.6559C21.4133 18.9683 21.6247 17.6419 20.9371 16.6934C20.8152 16.5253 20.6693 16.3761 20.5043 16.2505C21.4189 15.555 21.6149 14.2525 20.9369 13.3174C20.8054 13.136 20.646 12.9766 20.4647 12.8451L17.3018 10.5521C16.5696 10.0212 15.5812 10.013 14.8403 10.5316ZM12.8396 17.0533L14.8117 18.5324C15.5558 19.0905 16.5766 19.0987 17.3296 18.5528L19.3021 17.1227C19.3543 17.2296 19.4327 17.3256 19.5357 17.4003L19.5843 17.4356C19.6375 17.4741 19.6841 17.5208 19.7226 17.5739C19.924 17.8517 19.8621 18.2401 19.5843 18.4415L17.2679 20.1209C16.5606 20.6337 15.6018 20.6259 14.9029 20.1017L12.5495 18.3367C12.497 18.2973 12.451 18.2498 12.4133 18.196C12.2166 17.9149 12.2849 17.5275 12.566 17.3308L12.6198 17.2931C12.7128 17.228 12.7865 17.1456 12.8396 17.0533ZM16.4214 11.7665L19.5842 14.0595C19.6373 14.098 19.684 14.1447 19.7225 14.1978C19.9239 14.4756 19.862 14.8641 19.5842 15.0655L16.4491 17.3384C16.2286 17.4983 15.9297 17.4958 15.7117 17.3324L12.5494 14.9607C12.4968 14.9212 12.4509 14.8737 12.4132 14.8199C12.2164 14.5388 12.2848 14.1515 12.5659 13.9547L15.7005 11.7605C15.9175 11.6086 16.2069 11.611 16.4214 11.7665Z" fill="black"/>
</svg>
