<svg width="24" height="24" viewBox="0 0 24 24" fill="none" xmlns="http://www.w3.org/2000/svg">
<path d="M15.5782 18.593C15.5808 18.5867 15.5834 18.5804 15.5859 18.5741C15.6467 18.4244 15.7319 18.1953 15.7451 17.963C15.7489 17.9501 15.7557 17.9285 15.7671 17.8967C15.7989 17.8081 15.8481 17.6894 15.915 17.5354C15.9487 17.4577 15.9867 17.3718 16.0273 17.2799C16.1399 17.0252 16.2731 16.7238 16.3955 16.4186C16.5629 16.0011 16.7297 15.5301 16.8214 15.0756C16.9086 14.6436 16.9547 14.1041 16.7505 13.6232C16.5251 13.0925 16.0653 12.8038 15.6549 12.6431C15.241 12.4809 14.771 12.4056 14.3471 12.3649C13.94 12.3257 13.5274 12.3147 13.1878 12.3057L13.1878 12.3057L13.1325 12.3042C12.7469 12.2938 12.5218 12.2836 12.411 12.2613C12.2391 12.2266 12.0708 12.1424 11.923 12.0357C11.7723 11.9269 11.6765 11.8192 11.6492 11.7825L11.5435 11.6402L11.3852 11.5603C10.9238 11.3274 10.6137 11.1394 10.4077 10.9942C10.4927 10.9834 10.5891 10.9724 10.6913 10.9608C11.0253 10.9227 11.4215 10.8775 11.6865 10.8106C11.9219 10.7512 12.2994 10.5996 12.4596 10.1819C12.5951 9.82861 12.4765 9.49971 12.4372 9.39041L12.4364 9.38841C12.4117 9.31988 12.3825 9.24996 12.3606 9.19776L12.3551 9.18466C12.339 9.14615 12.3253 9.11303 12.3131 9.0821C12.4436 9.04659 12.5913 8.99442 12.7523 8.91318C12.9816 8.79746 13.192 8.64063 13.3487 8.42244C13.5096 8.19849 13.5798 7.95737 13.5986 7.73039C13.6265 7.39245 13.5337 7.02548 13.4706 6.7796L13.4806 6.7713C13.5167 6.74148 13.5587 6.70968 13.6158 6.66715L13.6333 6.65412C13.6831 6.61705 13.7444 6.57147 13.8043 6.52388C13.9368 6.41858 14.1143 6.26432 14.2554 6.05058C14.5818 5.55643 14.3251 5.07179 14.1981 4.88441C14.1814 4.85979 14.1639 4.83546 14.1457 4.81143C15.9559 5.35097 17.4795 6.55563 18.4329 8.14195C18.3269 8.23222 18.2257 8.32698 18.1308 8.42167C17.7113 8.8401 17.3369 9.33522 17.1102 9.67597C16.9232 9.92686 16.7336 10.3077 16.7303 10.7826C16.7267 11.2933 16.9393 11.8065 17.3916 12.2751C17.7448 12.6411 18.2464 12.8758 18.7523 13.0336C18.958 13.0977 19.1765 13.1529 19.4046 13.1997C19.0296 15.532 17.5792 17.5047 15.5782 18.593ZM13.4999 19.35C13.0937 19.4324 12.6756 19.4821 12.2484 19.496C12.2081 19.1258 12.0892 18.7187 11.8519 18.2997C11.5967 17.8488 11.3302 17.4812 11.1302 17.2052L11.1301 17.2051C11.0737 17.1273 11.0225 17.0567 10.9784 16.9936C10.7516 16.6694 10.734 16.5729 10.734 16.5227C10.734 16.4478 10.7454 16.3519 10.7648 16.1882L10.7648 16.1881C10.7705 16.1403 10.7768 16.0867 10.7837 16.0261C10.8107 15.7908 10.8401 15.4906 10.8285 15.1729C10.8047 14.5241 10.6028 13.7226 9.81504 13.1546C9.46321 12.901 9.07056 12.7386 8.72028 12.6092C8.59022 12.5611 8.46923 12.5185 8.35271 12.4775L8.35269 12.4775C8.12778 12.3983 7.91956 12.3249 7.69503 12.2295C7.07699 11.9669 6.51573 11.6041 6.08867 10.8036C5.57294 9.8369 5.37096 9.27105 5.29254 8.95666C5.26674 8.85324 5.25484 8.77904 5.24932 8.72831C6.40899 6.33992 8.79884 4.65949 11.5951 4.51074L11.5343 4.5874C11.6976 4.71685 11.8827 4.85305 12.0569 4.98123L12.1431 5.04469C12.3489 5.19645 12.5355 5.33624 12.6897 5.4657L12.7029 5.47679C12.6499 5.51636 12.5872 5.56374 12.5255 5.61469C12.3949 5.72251 12.2095 5.89279 12.0847 6.13924C11.9458 6.41347 11.9107 6.72292 11.9902 7.04408L12.0164 7.14914C12.0454 7.26468 12.0674 7.35277 12.0841 7.43824C12.0949 7.49372 12.1001 7.53307 12.1024 7.5602C12.095 7.56439 12.0864 7.56902 12.0765 7.57404C11.9532 7.63627 11.9105 7.64206 11.8284 7.6532C11.7696 7.66118 11.6906 7.67189 11.5473 7.70805C11.3824 7.74968 11.1038 7.8529 10.9196 8.15502C10.7693 8.40147 10.753 8.6733 10.753 8.85688C10.753 9.07852 10.7971 9.27469 10.8464 9.43218C10.7857 9.43938 10.7216 9.44665 10.6542 9.45429L10.6542 9.45429C10.5084 9.47083 10.3471 9.48911 10.1709 9.51231C9.94735 9.54174 9.69665 9.5809 9.48089 9.64265C9.37328 9.67345 9.2442 9.71812 9.12085 9.78698C9.00707 9.85049 8.81956 9.97774 8.70429 10.2104C8.63292 10.3545 8.54894 10.5781 8.56888 10.8598C8.58892 11.1431 8.7073 11.3962 8.87947 11.6173C9.18114 12.0049 9.72448 12.3907 10.57 12.8282C10.8523 13.1413 11.3942 13.5863 12.1142 13.7316C12.376 13.7845 12.7455 13.7944 13.066 13.803L13.0921 13.8037L13.1339 13.8048H13.1339C13.4839 13.8142 13.8496 13.824 14.2035 13.858C14.5771 13.8939 14.8856 13.9527 15.1078 14.0397C15.3335 14.1281 15.3673 14.2036 15.3698 14.2095C15.3935 14.2651 15.4205 14.4348 15.3511 14.7789C15.2862 15.1006 15.1586 15.4729 15.0033 15.8603C14.8914 16.1393 14.7751 16.4024 14.6655 16.6503L14.6655 16.6504L14.6654 16.6507C14.622 16.7487 14.5797 16.8444 14.5392 16.9378C14.4708 17.0952 14.4048 17.252 14.3554 17.3898C14.3194 17.4898 14.2554 17.674 14.2476 17.8649C14.2472 17.866 14.2465 17.8683 14.2455 17.8717C14.2406 17.8883 14.2277 17.932 14.1961 18.01C14.1432 18.1402 14.0641 18.3048 13.9656 18.4948C13.8444 18.7287 13.7224 18.9486 13.602 19.1657L13.602 19.1657C13.5678 19.2273 13.5338 19.2886 13.4999 19.35ZM10.6999 19.3877C7.17745 18.7721 4.5 15.6987 4.5 12C4.5 11.6959 4.5181 11.396 4.55328 11.1014C4.61867 11.2311 4.68919 11.3671 4.76523 11.5097C5.40149 12.7023 6.28331 13.2594 7.10835 13.61C7.37606 13.7238 7.66236 13.8248 7.91059 13.9125C8.01534 13.9494 8.11332 13.984 8.20025 14.0161C8.52404 14.1358 8.75799 14.2418 8.93783 14.3714C9.21338 14.5701 9.31532 14.8417 9.32949 15.2279C9.33682 15.4276 9.31875 15.6352 9.29352 15.8551C9.28979 15.8877 9.28556 15.9227 9.28111 15.9595L9.2811 15.9597C9.25997 16.1346 9.23405 16.3494 9.23405 16.5227C9.23405 17.0858 9.52025 17.5259 9.7492 17.8533C9.81365 17.9455 9.87854 18.0351 9.94405 18.1256L9.94409 18.1257L9.9441 18.1257C10.1379 18.3934 10.3371 18.6686 10.5466 19.0387C10.617 19.163 10.6663 19.2799 10.6999 19.3877ZM19.0997 9.57626C19.3267 10.2413 19.4629 10.9484 19.4934 11.6828C19.3898 11.6576 19.2915 11.6305 19.199 11.6016C18.7941 11.4753 18.5703 11.3363 18.4709 11.2334C18.2443 10.9986 18.2298 10.8491 18.2302 10.7931C18.2308 10.7167 18.2639 10.636 18.3169 10.5671L18.3336 10.5455L18.3486 10.5227C18.5171 10.2673 18.7962 9.89516 19.0997 9.57626ZM21 12C21 10.3885 20.5764 8.87585 19.8346 7.56742L19.836 7.53959L19.8183 7.53878C18.2677 4.8273 15.3473 3 12 3C7.02944 3 3 7.02944 3 12C3 16.9706 7.02944 21 12 21C16.9706 21 21 16.9706 21 12Z" fill="black"/>
</svg>
