<svg width="24" height="24" viewBox="0 0 24 24" fill="none" xmlns="http://www.w3.org/2000/svg">
<path d="M20.5465 7.86465L14.4997 4.57109C13.1001 3.80964 11.3999 3.80964 10.0003 4.57109L3.95345 7.86465C2.68218 8.55697 2.68218 10.3487 3.95345 11.0411L7.86523 13.1717L10.0003 14.3346C11.3989 15.0961 13.1001 15.0961 14.4997 14.3346L16.6348 13.1717L20.5465 11.0411C21.8178 10.3487 21.8178 8.55697 20.5465 7.86465ZM10.7176 13.0172L4.67085 9.72374C4.44305 9.59969 4.44313 9.30599 4.67094 9.18193L10.7178 5.88837C11.6701 5.37054 12.8306 5.37088 13.7828 5.8887L19.8291 9.18197C20.057 9.30603 20.0569 9.59973 19.8291 9.72379L13.7828 13.017C12.8301 13.5354 11.6688 13.5351 10.7176 13.0172Z" fill="black"/>
<path d="M17.6708 6.66459C17.4856 6.29411 17.0351 6.14394 16.6646 6.32918L12.6646 8.32918C12.2941 8.51442 12.1439 8.96493 12.3292 9.33541C12.5144 9.70589 12.9649 9.85606 13.3354 9.67082L17.3354 7.67082C17.7059 7.48558 17.8561 7.03507 17.6708 6.66459Z" fill="black"/>
<path d="M7.86523 16.1214V13.1717V12.3535H6.36523V16.1214C6.36523 17.0327 6.83045 17.8825 7.6032 18.3866L9.17711 19.4131C11.039 20.6268 13.462 20.6268 15.3229 19.4131L16.8968 18.3866C17.6705 17.8825 18.1348 17.0317 18.1348 16.1214V12.3535H16.6348V13.1717V16.1214C16.6348 16.517 16.4326 16.8988 16.0774 17.1302L14.5035 18.1567C13.1408 19.0454 11.3603 19.0456 9.99626 18.1565L8.42262 17.1302C8.06683 16.898 7.86523 16.5168 7.86523 16.1214Z" fill="black"/>
</svg>
