<svg width="24" height="24" viewBox="0 0 24 24" fill="none" xmlns="http://www.w3.org/2000/svg">
<path d="M3.5 3.5H5.95455V5.95455H3.5V3.5ZM3 2C2.44772 2 2 2.44772 2 3V6.45455C2 7.00683 2.44772 7.45455 3 7.45455H6.45455C7.00683 7.45455 7.45455 7.00683 7.45455 6.45455V3C7.45455 2.44772 7.00683 2 6.45455 2H3ZM10.7734 3.5H13.228V5.95455H10.7734V3.5ZM10.2734 2C9.72115 2 9.27344 2.44772 9.27344 3V6.45455C9.27344 7.00683 9.72115 7.45455 10.2734 7.45455H13.728C14.2803 7.45455 14.728 7.00683 14.728 6.45455V3C14.728 2.44772 14.2803 2 13.728 2H10.2734ZM18.0449 5.95455V3.5H20.4995V5.95455H18.0449ZM16.5449 3V6.45455C16.5449 7.00683 16.9926 7.45455 17.5449 7.45455H20.9995C21.5518 7.45455 21.9995 7.00683 21.9995 6.45455V3C21.9995 2.44772 21.5518 2 20.9995 2H17.5449C16.9926 2 16.5449 2.44772 16.5449 3ZM3.5 10.7725H5.95455V13.227H3.5V10.7725ZM3 9.27246C2.44772 9.27246 2 9.72018 2 10.2725V13.727C2 14.2793 2.44772 14.727 3 14.727H6.45455C7.00683 14.727 7.45455 14.2793 7.45455 13.727V10.2725C7.45455 9.72018 7.00683 9.27246 6.45455 9.27246H3ZM10.7734 13.227V10.7725H13.228V13.227H10.7734ZM9.27344 10.2725V13.727C9.27344 14.2793 9.72115 14.727 10.2734 14.727H13.728C14.2803 14.727 14.728 14.2793 14.728 13.727V10.2725C14.728 9.72018 14.2803 9.27246 13.728 9.27246H10.2734C9.72115 9.27246 9.27344 9.72018 9.27344 10.2725ZM18.0449 10.7725H20.4995V13.227H18.0449V10.7725ZM17.5449 9.27246C16.9926 9.27246 16.5449 9.72018 16.5449 10.2725V13.727C16.5449 14.2793 16.9926 14.727 17.5449 14.727H20.9995C21.5518 14.727 21.9995 14.2793 21.9995 13.727V10.2725C21.9995 9.72018 21.5518 9.27246 20.9995 9.27246H17.5449ZM3.5 20.5004V18.0459H5.95455V20.5004H3.5ZM2 17.5459V21.0004C2 21.5527 2.44772 22.0004 3 22.0004H6.45455C7.00683 22.0004 7.45455 21.5527 7.45455 21.0004V17.5459C7.45455 16.9936 7.00683 16.5459 6.45455 16.5459H3C2.44772 16.5459 2 16.9936 2 17.5459ZM10.7734 18.0459H13.228V20.5004H10.7734V18.0459ZM10.2734 16.5459C9.72115 16.5459 9.27344 16.9936 9.27344 17.5459V21.0004C9.27344 21.5527 9.72115 22.0004 10.2734 22.0004H13.728C14.2803 22.0004 14.728 21.5527 14.728 21.0004V17.5459C14.728 16.9936 14.2803 16.5459 13.728 16.5459H10.2734ZM18.0449 20.5004V18.0459H20.4995V20.5004H18.0449ZM16.5449 17.5459V21.0004C16.5449 21.5527 16.9926 22.0004 17.5449 22.0004H20.9995C21.5518 22.0004 21.9995 21.5527 21.9995 21.0004V17.5459C21.9995 16.9936 21.5518 16.5459 20.9995 16.5459H17.5449C16.9926 16.5459 16.5449 16.9936 16.5449 17.5459Z" fill="black"/>
</svg>
