<svg width="24" height="24" viewBox="0 0 24 24" fill="none" xmlns="http://www.w3.org/2000/svg">
<path d="M5 4.5H9C9.27614 4.5 9.5 4.72386 9.5 5V9C9.5 9.27614 9.27614 9.5 9 9.5H5C4.72386 9.5 4.5 9.27614 4.5 9V5C4.5 4.72386 4.72386 4.5 5 4.5ZM3 5V9C3 10.1046 3.89543 11 5 11H9C10.1046 11 11 10.1046 11 9V5C11 3.89543 10.1046 3 9 3H5C3.89543 3 3 3.89543 3 5ZM5 14.5H9C9.27614 14.5 9.5 14.7239 9.5 15V19C9.5 19.2761 9.27614 19.5 9 19.5H5C4.72386 19.5 4.5 19.2761 4.5 19V15C4.5 14.7239 4.72386 14.5 5 14.5ZM3 15V19C3 20.1046 3.89543 21 5 21H9C10.1046 21 11 20.1046 11 19V15C11 13.8954 10.1046 13 9 13H5C3.89543 13 3 13.8954 3 15ZM19 4.5C19.2761 4.5 19.5 4.72386 19.5 5V9C19.5 9.27614 19.2761 9.5 19 9.5H15C14.7239 9.5 14.5 9.27614 14.5 9V5C14.5 4.72386 14.7239 4.5 15 4.5H19ZM15 3C13.8954 3 13 3.89543 13 5V9C13 10.1046 13.8954 11 15 11H19C20.1046 11 21 10.1046 21 9V5C21 3.89543 20.1046 3 19 3H15ZM15 14.5H19C19.2761 14.5 19.5 14.7239 19.5 15V19C19.5 19.2761 19.2761 19.5 19 19.5H15C14.7239 19.5 14.5 19.2761 14.5 19V15C14.5 14.7239 14.7239 14.5 15 14.5ZM13 15V19C13 20.1046 13.8954 21 15 21H19C20.1046 21 21 20.1046 21 19V15C21 13.8954 20.1046 13 19 13H15C13.8954 13 13 13.8954 13 15Z" fill="black"/>
</svg>
