<svg width="24" height="24" viewBox="0 0 24 24" fill="none" xmlns="http://www.w3.org/2000/svg">
<path d="M9.8358 3.01032C9.42722 2.94223 9.0408 3.21824 8.9727 3.62682L6.3852 19.1518C6.31711 19.5604 6.59312 19.9468 7.0017 20.0149C7.41028 20.083 7.7967 19.807 7.8648 19.3984L10.4523 3.87342C10.5204 3.46484 10.2444 3.07842 9.8358 3.01032Z" fill="black"/>
<path d="M17.5975 3.01032C17.1889 2.94223 16.8025 3.21824 16.7344 3.62682L14.1469 19.1518C14.0788 19.5604 14.3548 19.9468 14.7634 20.0149C15.172 20.083 15.5584 19.807 15.6265 19.3984L18.214 3.87342C18.2821 3.46484 18.0061 3.07842 17.5975 3.01032Z" fill="black"/>
<path d="M4.34961 7.68762C4.34961 8.10183 4.6854 8.43762 5.09961 8.43762H20.8496C21.2638 8.43762 21.5996 8.10183 21.5996 7.68762C21.5996 7.2734 21.2638 6.93762 20.8496 6.93762H5.09961C4.6854 6.93762 4.34961 7.2734 4.34961 7.68762Z" fill="black"/>
<path d="M3 15.337C3 15.7512 3.33579 16.087 3.75 16.087H19.5C19.9142 16.087 20.25 15.7512 20.25 15.337C20.25 14.9228 19.9142 14.587 19.5 14.587H3.75C3.33579 14.587 3 14.9228 3 15.337Z" fill="black"/>
</svg>
