<svg width="24" height="24" viewBox="0 0 24 24" fill="none" xmlns="http://www.w3.org/2000/svg">
<path d="M6.75 4C6.33579 4 6 4.33579 6 4.75V19.75C6 20.1642 6.33579 20.5 6.75 20.5C7.16421 20.5 7.5 20.1642 7.5 19.75V4.75C7.5 4.33579 7.16421 4 6.75 4Z" fill="black"/>
<path d="M6 12.2646C6 12.6789 6.33579 13.0146 6.75 13.0146H16.723C17.1372 13.0146 17.473 12.6789 17.473 12.2646C17.473 11.8504 17.1372 11.5146 16.723 11.5146H6.75C6.33579 11.5146 6 11.8504 6 12.2646Z" fill="black"/>
<path d="M16.7227 4C16.3084 4 15.9727 4.33579 15.9727 4.75V19.75C15.9727 20.1642 16.3084 20.5 16.7227 20.5C17.1369 20.5 17.4727 20.1642 17.4727 19.75V4.75C17.4727 4.33579 17.1369 4 16.7227 4Z" fill="black"/>
</svg>
