<svg width="24" height="24" viewBox="0 0 24 24" fill="none" xmlns="http://www.w3.org/2000/svg">
<path d="M12 6.34571C12.4303 6.34571 12.8398 6.16094 13.1246 5.83835C13.692 5.19546 14.635 4.5 16.1071 4.5C18.6242 4.5 20.5 6.85303 20.5 9.21325C20.5 10.3235 20.0501 11.4777 19.233 12.6472C18.4179 13.8138 17.2988 14.9059 16.1234 15.8569C14.9543 16.8029 13.7728 17.5749 12.8718 18.11C12.5321 18.3118 12.236 18.4777 12 18.6046C11.764 18.4777 11.4679 18.3118 11.1282 18.11C10.2272 17.5749 9.04568 16.8029 7.87659 15.8569C6.70124 14.9059 5.58213 13.8138 4.76699 12.6472C3.9499 11.4777 3.5 10.3235 3.5 9.21325C3.5 6.85303 5.37579 4.5 7.89286 4.5C9.36498 4.5 10.308 5.19546 10.8754 5.83835C11.1602 6.16094 11.5697 6.34571 12 6.34571ZM10.9394 3.90957C10.1819 3.39686 9.17807 3 7.89286 3C4.36667 3 2 6.21766 2 9.21325C2 15.2932 11.8214 20.2727 12 20.2727C12.1786 20.2727 22 15.2932 22 9.21325C22 6.21766 19.6333 3 16.1071 3C14.8219 3 13.8181 3.39686 13.0606 3.90956C12.6294 4.20136 12.2781 4.53068 12 4.84571C11.7219 4.53068 11.3706 4.20136 10.9394 3.90957Z" fill="black"/>
</svg>
