<svg width="24" height="24" viewBox="0 0 24 24" fill="none" xmlns="http://www.w3.org/2000/svg">
<path d="M10.6187 4.898C11.109 4.39945 11.891 4.39945 12.3813 4.898L16.8711 9.46391L15.6698 18.2055C15.5513 18.9384 14.9425 19.4759 14.2287 19.4759H8.77134C8.05753 19.4759 7.44871 18.9384 7.33018 18.2054L6.12822 9.46461L10.6187 4.898ZM4.83288 10.7819L5.88556 18.4372C6.11401 19.9142 7.33664 21 8.77134 21H14.2287C15.6634 21 16.886 19.9142 17.1145 18.4372L18.1665 10.7813L19.759 12.4008C20.048 12.6946 20.5106 12.6886 20.7924 12.3872C21.0742 12.0859 21.0684 11.6035 20.7794 11.3096L13.4017 3.80687C12.3438 2.73104 10.6562 2.73104 9.59833 3.80687L2.22056 11.3096C1.93162 11.6035 1.92581 12.0859 2.20759 12.3872C2.48937 12.6886 2.95203 12.6946 3.24098 12.4008L4.83288 10.7819Z" fill="black"/>
</svg>
