<svg width="24" height="24" viewBox="0 0 24 24" fill="none" xmlns="http://www.w3.org/2000/svg">
<path d="M8.70508 4.5H18.7502C20.1309 4.5 21.2502 5.61929 21.2502 7V12.417L19.3437 10.5551C18.336 9.57097 16.73 9.5612 15.7103 10.533L14.4909 11.6953C14.3463 11.8331 14.1184 11.8312 13.9761 11.6911L11.4467 9.19967C10.3211 8.09097 8.51405 8.09063 7.38801 9.19891L6.20508 10.3632V7C6.20508 5.61929 7.32437 4.5 8.70508 4.5ZM18.2957 11.6283L21.2118 14.4762C21.0045 15.6478 19.9813 16.5376 18.7502 16.5376H8.70508C7.32437 16.5376 6.20508 15.4183 6.20508 14.0376V12.4665C6.21459 12.458 6.22395 12.4493 6.23313 12.4402L8.4402 10.268C8.98229 9.73443 9.85221 9.73459 10.3941 10.2683L12.9235 12.7597C13.6429 13.4683 14.7949 13.4777 15.5258 12.7811L16.7452 11.6189C17.1803 11.2041 17.8657 11.2083 18.2957 11.6283ZM4.70508 7V14.0376C4.70508 16.2467 6.49594 18.0376 8.70508 18.0376H18.7502C20.9593 18.0376 22.7502 16.2467 22.7502 14.0376V7C22.7502 4.79086 20.9593 3 18.7502 3H8.70508C6.49594 3 4.70508 4.79086 4.70508 7ZM3.5 8.86328C3.5 8.44907 3.16421 8.11328 2.75 8.11328C2.33579 8.11328 2 8.44907 2 8.86328V15.4422C2 18.6179 4.57436 21.1922 7.75 21.1922H14.3289C14.7432 21.1922 15.0789 20.8564 15.0789 20.4422C15.0789 20.028 14.7432 19.6922 14.3289 19.6922H7.75C5.40279 19.6922 3.5 17.7894 3.5 15.4422V8.86328ZM14.0773 8.72997C14.9085 8.72997 15.5823 8.05616 15.5823 7.22497C15.5823 6.39378 14.9085 5.71997 14.0773 5.71997C13.2461 5.71997 12.5723 6.39378 12.5723 7.22497C12.5723 8.05616 13.2461 8.72997 14.0773 8.72997Z" fill="black"/>
</svg>
