<svg width="24" height="24" viewBox="0 0 24 24" fill="none" xmlns="http://www.w3.org/2000/svg">
<path d="M4.92575 4.13239C4.6335 3.93044 4.22981 3.95953 3.96967 4.21967C3.67678 4.51256 3.67678 4.98744 3.96967 5.28033L6.25 7.56066V8.75H6C4.34315 8.75 3 10.0931 3 11.75V18.25C3 19.9069 4.34315 21.25 6 21.25H15C16.3368 21.25 17.4693 20.3757 17.857 19.1677L18.9697 20.2803C19.2626 20.5732 19.7374 20.5732 20.0303 20.2803C20.3078 20.0029 20.3224 19.5622 20.0742 19.2675C20.0374 19.2421 20.0024 19.213 19.9697 19.1802L4.96967 4.18023C4.95421 4.16478 4.93957 4.14881 4.92575 4.13239ZM18.8879 15.9771C20.4999 15.7854 21.75 14.4137 21.75 12.75V6.25C21.75 4.45508 20.2949 3 18.5 3H9.5C8.5162 3 7.63449 3.43713 7.03851 4.12775L8.10455 5.1938C8.4241 4.77227 8.93025 4.5 9.5 4.5H10.1709V6.40039H9.31115L13.1608 10.25H15C15.8284 10.25 16.5 10.9216 16.5 11.75V13.5892L18.8879 15.9771ZM6 10.25H8.93934L10.1977 11.5083C9.80048 11.7782 9.53955 12.2336 9.53955 12.75C9.53955 13.5784 10.2111 14.25 11.0396 14.25C11.5559 14.25 12.0114 13.9891 12.2812 13.5919L13.0527 14.3633C12.6919 14.4598 12.3498 14.6455 12.0611 14.9206L11.0474 15.8868C10.9767 15.9542 10.8652 15.9532 10.7956 15.8847L8.69304 13.8137C7.70811 12.8436 6.12696 12.8433 5.14167 13.8131C5.12478 13.8297 5.10868 13.8471 5.09344 13.8652L4.5 14.5719V11.75C4.5 10.9216 5.17157 10.25 6 10.25ZM18.5 14.5H18V12H20.25V12.75C20.25 13.7165 19.4665 14.5 18.5 14.5ZM20.25 10.5H17.728C17.7098 10.4604 17.6907 10.4212 17.6709 10.3825V7.8999H20.25V10.5ZM20.25 6.3999H17.6709V4.5H18.5C19.4665 4.5 20.25 5.2835 20.25 6.25V6.3999ZM16.1709 4.5V8.98709C15.8111 8.83444 15.4154 8.75 15 8.75H11.6709V4.5H16.1709ZM4.5 18.25V16.8925C4.52621 16.869 4.55108 16.8434 4.57437 16.8157L6.21614 14.8608C6.6187 14.4872 7.2466 14.4945 7.64045 14.8824L9.74304 16.9534C10.3897 17.5903 11.4253 17.5988 12.0823 16.9726L13.096 16.0065C13.4083 15.7087 13.9003 15.7117 14.209 16.0132L16.313 18.0401C16.3698 18.0948 16.433 18.1388 16.5 18.1721V18.25C16.5 19.0784 15.8284 19.75 15 19.75H6C5.17157 19.75 4.5 19.0784 4.5 18.25Z" fill="black"/>
</svg>
