<svg width="24" height="24" viewBox="0 0 24 24" fill="none" xmlns="http://www.w3.org/2000/svg">
<path d="M4.46967 4.21967C4.17678 4.51256 4.17678 4.98744 4.46967 5.28033L19.4697 20.2803C19.7626 20.5732 20.2374 20.5732 20.5303 20.2803C20.8232 19.9874 20.8232 19.5126 20.5303 19.2197L5.53033 4.21967C5.23744 3.92678 4.76256 3.92678 4.46967 4.21967Z" fill="black"/>
<path d="M6.66687 5.47753C5.11318 6.02659 4 7.5083 4 9.25V15.4167C4 17.6258 5.79086 19.4167 8 19.4167H17C18.0043 19.4167 18.9222 19.0465 19.6246 18.4353L18.5598 17.3705C18.1322 17.7123 17.59 17.9167 17 17.9167H8C6.61929 17.9167 5.5 16.7974 5.5 15.4167V14.1462L7.55065 12.1279C8.04444 11.6419 8.83683 11.642 9.33044 12.1282L11.7134 14.4753C12.4078 15.1593 13.5198 15.1684 14.2254 14.4959L14.9729 13.7835L13.9119 12.7226L13.1905 13.4101C13.0713 13.5238 12.8833 13.5222 12.766 13.4066L10.383 11.0596C9.30569 9.99842 7.5762 9.99809 6.49846 11.0588L5.5 12.0415V9.25C5.5 7.88933 6.58703 6.78255 7.94004 6.7507L6.66687 5.47753ZM12.2765 11.0872C12.0515 10.9416 11.8594 10.7495 11.7138 10.5245L12.2765 11.0872ZM14.3689 11.0582C14.8647 10.7178 15.1899 10.1469 15.1899 9.49997C15.1899 8.45677 14.3442 7.61108 13.301 7.61108C12.6541 7.61108 12.0832 7.93626 11.7427 8.43208L12.9311 9.62048C12.9188 9.58254 12.9121 9.54204 12.9121 9.49997C12.9121 9.2852 13.0862 9.11108 13.301 9.11108C13.5158 9.11108 13.6899 9.28519 13.6899 9.49997C13.6899 9.71475 13.5158 9.88886 13.301 9.88886C13.2589 9.88886 13.2184 9.88218 13.1805 9.86983L14.3689 11.0582ZM15.1196 11.8089L16.5601 13.2494C16.6367 13.2921 16.7089 13.3454 16.7745 13.4095L19.4066 16.0959C19.4152 16.0654 19.3991 16.127 19.4066 16.0959L20.5576 17.247C20.8404 16.6985 21 16.0762 21 15.4167V9.25C21 7.04086 19.2091 5.25 17 5.25H8.56066L10.0607 6.75H17C18.3807 6.75 19.5 7.86929 19.5 9.25V13.9746L17.8226 12.3364C17.087 11.618 16.0189 11.4412 15.1196 11.8089Z" fill="black"/>
</svg>
