<svg width="24" height="24" viewBox="0 0 24 24" fill="none" xmlns="http://www.w3.org/2000/svg">
<path d="M16.7647 6.58824C18.2266 6.58824 19.4118 7.77336 19.4118 9.23529V14.239L17.6346 12.5034C16.6117 11.5044 14.9815 11.4945 13.9465 12.481L12.7301 13.6403C12.6038 13.7607 12.4048 13.759 12.2806 13.6366L9.75747 11.1515C8.61676 10.0279 6.78553 10.0276 5.64439 11.1507L4.58824 12.1902V9.2353C4.58824 7.77337 5.77337 6.58824 7.23529 6.58824H16.7647ZM4.58824 15.7647V14.4187L6.75848 12.2827C7.28131 11.7681 8.12032 11.7682 8.64296 12.283L11.1661 14.7682C11.9014 15.4924 13.0788 15.5021 13.8259 14.79L15.0422 13.6307C15.4583 13.2341 16.1137 13.2381 16.5249 13.6397L19.3382 16.3871C19.0582 17.5487 18.0123 18.4118 16.7647 18.4118H7.23529C5.77336 18.4118 4.58824 17.2266 4.58824 15.7647ZM7.23529 5C4.89621 5 3 6.89621 3 9.2353V15.7647C3 18.1038 4.89621 20 7.23529 20H16.7647C19.1038 20 21 18.1038 21 15.7647V9.23529C21 6.89621 19.1038 5 16.7647 5H7.23529ZM13.2599 9.49997C13.2599 9.72738 13.0755 9.91174 12.8481 9.91174C12.6207 9.91174 12.4364 9.72738 12.4364 9.49997C12.4364 9.27256 12.6207 9.08821 12.8481 9.08821C13.0755 9.08821 13.2599 9.27256 13.2599 9.49997ZM12.8481 11.5C13.9527 11.5 14.8481 10.6045 14.8481 9.49997C14.8481 8.3954 13.9527 7.49997 12.8481 7.49997C11.7435 7.49997 10.8481 8.3954 10.8481 9.49997C10.8481 10.6045 11.7435 11.5 12.8481 11.5Z" fill="black"/>
</svg>
