<svg width="24" height="24" viewBox="0 0 24 24" fill="none" xmlns="http://www.w3.org/2000/svg">
<path d="M7 4.5H17C18.3807 4.5 19.5 5.61929 19.5 7V13.25H16C14.9975 13.25 14.3619 14.0578 14.1269 14.7365C13.8216 15.6185 12.9836 16.25 12 16.25C11.0164 16.25 10.1784 15.6185 9.8731 14.7365C9.63813 14.0578 9.00246 13.25 8 13.25H4.5V7C4.5 5.61929 5.61929 4.5 7 4.5ZM4.5 14.75H8C8.05587 14.75 8.12917 14.7708 8.21871 14.8517C8.31265 14.9366 8.40111 15.0697 8.45565 15.2273C8.96367 16.6946 10.3576 17.75 12 17.75C13.6424 17.75 15.0363 16.6946 15.5444 15.2273C15.5989 15.0697 15.6873 14.9366 15.7813 14.8517C15.8708 14.7708 15.9441 14.75 16 14.75H19.5V17C19.5 18.3807 18.3807 19.5 17 19.5H7C5.61929 19.5 4.5 18.3807 4.5 17V14.75ZM3 7V17C3 19.2091 4.79086 21 7 21H17C19.2091 21 21 19.2091 21 17V7C21 4.79086 19.2091 3 17 3H7C4.79086 3 3 4.79086 3 7Z" fill="black"/>
</svg>
