<svg width="24" height="24" viewBox="0 0 24 24" fill="none" xmlns="http://www.w3.org/2000/svg">
<path d="M10.5428 3.33757C10.9731 2.56971 11.9809 2.26436 12.7988 2.69861L13.5022 1.37375L12.7988 2.69861C13.0798 2.8478 13.3069 3.0708 13.4564 3.33757L22.3008 19.1203C22.725 19.8772 22.4515 20.843 21.6432 21.2721C21.3994 21.4016 21.1246 21.4702 20.844 21.4702H3.15525C2.21478 21.4702 1.5 20.731 1.5 19.8767C1.5 19.6138 1.56764 19.3537 1.69844 19.1203L10.5428 3.33757ZM14.765 2.60428C14.473 2.0832 14.0344 1.65628 13.5022 1.37375C11.9788 0.564936 10.0711 1.11109 9.2343 2.60428L0.389899 18.387C0.134227 18.8433 0 19.3556 0 19.8767C0 21.5903 1.41764 22.9702 3.15525 22.9702H20.844C21.3686 22.9702 21.885 22.842 22.3466 22.597C23.883 21.7813 24.4535 19.8933 23.6094 18.387L14.765 2.60428ZM11.25 13.25H11.4L11.5 13.75V16.75C11.0858 16.75 10.75 17.0858 10.75 17.5C10.75 17.9142 11.0858 18.25 11.5 18.25H13C13.4142 18.25 13.75 17.9142 13.75 17.5C13.75 17.0858 13.4142 16.75 13 16.75V12.5C13 12.0858 12.6642 11.75 12.25 11.75H11.25C10.8358 11.75 10.5 12.0858 10.5 12.5C10.5 12.9142 10.8358 13.25 11.25 13.25ZM11 9.5C11 10.052 11.448 10.5 12 10.5C12.552 10.5 13 10.052 13 9.5C13 8.948 12.552 8.5 11.996 8.5C11.444 8.5 10.996 8.948 11 9.5Z" fill="black"/>
</svg>
