<svg width="24" height="24" viewBox="0 0 24 24" fill="none" xmlns="http://www.w3.org/2000/svg">
<path d="M10.4122 6.55557C10.4122 7.41425 11.1091 8.11115 11.9678 8.11115C12.8265 8.11115 13.5234 7.41425 13.5234 6.55557C13.5234 5.6969 12.8265 5 11.9616 5C11.1029 5 10.406 5.6969 10.4122 6.55557ZM10.8 10.422C10.3582 10.422 10 10.7802 10 11.222C10 11.6638 10.3582 12.022 10.8 12.022H11.5556V18.1999H11.1889C10.7471 18.1999 10.3889 18.5581 10.3889 18.9999C10.3889 19.4417 10.7471 19.7999 11.1889 19.7999H12.3556H13.5223C13.9641 19.7999 14.3223 19.4417 14.3223 18.9999C14.3223 18.5581 13.9641 18.1999 13.5223 18.1999H13.1556V11.222C13.1556 10.7802 12.7974 10.422 12.3556 10.422H10.8Z" fill="black"/>
</svg>
