<svg width="24" height="24" viewBox="0 0 24 24" fill="none" xmlns="http://www.w3.org/2000/svg">
<path d="M8.33293 4.75C8.33293 5.16421 8.66871 5.5 9.08293 5.5H13.7489L8.11975 18.6677H3.75C3.33579 18.6677 3 19.0035 3 19.4177C3 19.8319 3.33579 20.1677 3.75 20.1677H14.4171C14.8313 20.1677 15.1671 19.8319 15.1671 19.4177C15.1671 19.0035 14.8313 18.6677 14.4171 18.6677H9.75107L15.3803 5.5H19.75C20.1642 5.5 20.5 5.16421 20.5 4.75C20.5 4.33579 20.1642 4 19.75 4H9.08293C8.66871 4 8.33293 4.33579 8.33293 4.75Z" fill="black"/>
</svg>
