<svg width="24" height="24" viewBox="0 0 24 24" fill="none" xmlns="http://www.w3.org/2000/svg">
<path d="M12.4091 12.4545C12.4091 14.6386 10.6386 16.4091 8.45455 16.4091C6.27051 16.4091 4.5 14.6386 4.5 12.4545C4.5 10.2705 6.27051 8.5 8.45455 8.5C10.6386 8.5 12.4091 10.2705 12.4091 12.4545ZM8.45455 17.9091C11.1268 17.9091 13.3503 15.9874 13.8184 13.4506C13.848 13.4532 13.8779 13.4546 13.9082 13.4546H16.0898V15.2728C16.0898 15.8251 16.5376 16.2728 17.0898 16.2728H19.4535C20.0058 16.2728 20.4535 15.8251 20.4535 15.2728V13.4546H20.9991C21.5514 13.4546 21.9991 13.0069 21.9991 12.4546C21.9991 11.9023 21.5514 11.4546 20.9991 11.4546H13.9082C13.8779 11.4546 13.848 11.4559 13.8184 11.4586C13.3503 8.92171 11.1268 7 8.45455 7C5.44208 7 3 9.44208 3 12.4545C3 15.467 5.44208 17.9091 8.45455 17.9091ZM17.5898 13.4546H18.9535V14.7728H17.5898V13.4546ZM8.49999 14.1502C9.43887 14.1502 10.2 13.3891 10.2 12.4502C10.2 11.5113 9.43887 10.7502 8.49999 10.7502C7.5611 10.7502 6.79999 11.5113 6.79999 12.4502C6.79999 13.3891 7.5611 14.1502 8.49999 14.1502Z" fill="black"/>
</svg>
