<svg width="24" height="24" viewBox="0 0 24 24" fill="none" xmlns="http://www.w3.org/2000/svg">
<path d="M19 6.5C19.8284 6.5 20.5 7.17157 20.5 8V16C20.5 16.8284 19.8284 17.5 19 17.5H5C4.17157 17.5 3.5 16.8284 3.5 16V8C3.5 7.17157 4.17157 6.5 5 6.5H19ZM5 5C3.34315 5 2 6.34315 2 8V16C2 17.6569 3.34315 19 5 19H19C20.6569 19 22 17.6569 22 16V8C22 6.34315 20.6569 5 19 5H5Z" fill="black"/>
<path d="M5 8.5V9.5C5 9.77614 5.22386 10 5.5 10H6.5C6.77614 10 7 9.77614 7 9.5V8.5C7 8.22386 6.77614 8 6.5 8H5.5C5.22386 8 5 8.22386 5 8.5Z" fill="black"/>
<path d="M5 11.5V12.5C5 12.7761 5.22386 13 5.5 13H6.5C6.77614 13 7 12.7761 7 12.5V11.5C7 11.2239 6.77614 11 6.5 11H5.5C5.22386 11 5 11.2239 5 11.5Z" fill="black"/>
<path d="M9 8.5V9.5C9 9.77614 9.22386 10 9.5 10H10.5C10.7761 10 11 9.77614 11 9.5V8.5C11 8.22386 10.7761 8 10.5 8H9.5C9.22386 8 9 8.22386 9 8.5Z" fill="black"/>
<path d="M9 11.5V12.5C9 12.7761 9.22386 13 9.5 13H10.5C10.7761 13 11 12.7761 11 12.5V11.5C11 11.2239 10.7761 11 10.5 11H9.5C9.22386 11 9 11.2239 9 11.5Z" fill="black"/>
<path d="M13 8.5V9.5C13 9.77614 13.2239 10 13.5 10H14.5C14.7761 10 15 9.77614 15 9.5V8.5C15 8.22386 14.7761 8 14.5 8H13.5C13.2239 8 13 8.22386 13 8.5Z" fill="black"/>
<path d="M13 11.5V12.5C13 12.7761 13.2239 13 13.5 13H14.5C14.7761 13 15 12.7761 15 12.5V11.5C15 11.2239 14.7761 11 14.5 11H13.5C13.2239 11 13 11.2239 13 11.5Z" fill="black"/>
<path d="M17 8.5V9.5C17 9.77614 17.2239 10 17.5 10H18.5C18.7761 10 19 9.77614 19 9.5V8.5C19 8.22386 18.7761 8 18.5 8H17.5C17.2239 8 17 8.22386 17 8.5Z" fill="black"/>
<path d="M17 11.5V12.5C17 12.7761 17.2239 13 17.5 13H18.5C18.7761 13 19 12.7761 19 12.5V11.5C19 11.2239 18.7761 11 18.5 11H17.5C17.2239 11 17 11.2239 17 11.5Z" fill="black"/>
<path d="M6.25 15C6.25 15.4142 6.58579 15.75 7 15.75H17C17.4142 15.75 17.75 15.4142 17.75 15C17.75 14.5858 17.4142 14.25 17 14.25H7C6.58579 14.25 6.25 14.5858 6.25 15Z" fill="black"/>
</svg>
