<svg width="24" height="24" viewBox="0 0 24 24" fill="none" xmlns="http://www.w3.org/2000/svg">
<path d="M5 15.0556V7C5 6.17157 5.67158 5.5 6.5 5.5H17.5C18.3284 5.5 19 6.17157 19 7V15.0556H5ZM2.3 15.1C2.13431 15.1 2 15.2343 2 15.4V17.6555C2 19.3124 3.34315 20.6555 5 20.6555H19C20.6569 20.6555 22 19.3124 22 17.6555V15.4C22 15.2343 21.8657 15.1 21.7 15.1H20.5V7C20.5 5.34315 19.1569 4 17.5 4H6.5C4.84315 4 3.5 5.34315 3.5 7V15.1H2.3ZM5 19.1555C4.17157 19.1555 3.5 18.484 3.5 17.6555V16.6H8.83227C8.75913 16.7158 8.7168 16.8529 8.7168 17C8.7168 17.4142 9.05258 17.75 9.4668 17.75H14.5335C14.9477 17.75 15.2835 17.4142 15.2835 17C15.2835 16.8529 15.2411 16.7158 15.168 16.6H20.5V17.6555C20.5 18.484 19.8284 19.1555 19 19.1555H5Z" fill="black"/>
</svg>
