<svg width="24" height="24" viewBox="0 0 24 24" fill="none" xmlns="http://www.w3.org/2000/svg">
<path d="M3.64633 9.31747L11.6088 13.6968C11.7589 13.7794 11.9407 13.7794 12.0907 13.6968L20.0532 9.31747C20.3986 9.12751 20.3986 8.63122 20.0532 8.44126L12.0907 4.06189C11.9407 3.97937 11.7589 3.97937 11.6088 4.06189L3.64633 8.44126C3.30095 8.63122 3.30095 9.12751 3.64633 9.31747ZM5.96233 8.87936L11.8498 5.64127L17.7372 8.87936L11.8498 12.1175L5.96233 8.87936Z" fill="black"/>
<path d="M3.07934 15.594C2.8941 15.9644 3.04427 16.4149 3.41475 16.6002L11.5148 20.6502C11.7259 20.7558 11.9744 20.7558 12.1856 20.6502L20.2856 16.6002C20.6561 16.4149 20.8062 15.9644 20.621 15.594C20.4357 15.2235 19.9852 15.0733 19.6148 15.2585L11.8502 19.1408L4.08557 15.2585C3.71509 15.0733 3.26459 15.2235 3.07934 15.594Z" fill="black"/>
<path d="M3.07934 12.0441C2.8941 12.4146 3.04427 12.8651 3.41475 13.0504L11.5148 17.1004C11.7259 17.206 11.9744 17.206 12.1856 17.1004L20.2856 13.0504C20.6561 12.8651 20.8062 12.4146 20.621 12.0441C20.4357 11.6737 19.9852 11.5235 19.6148 11.7087L11.8502 15.591L4.08557 11.7087C3.71509 11.5235 3.26459 11.6737 3.07934 12.0441Z" fill="black"/>
</svg>
