<svg width="24" height="24" viewBox="0 0 24 24" fill="none" xmlns="http://www.w3.org/2000/svg">
<path d="M16.5 18.7501C16.5 18.3359 16.1642 18.0001 15.75 18.0001H7.75C7.33579 18.0001 7 18.3359 7 18.7501C7 19.1643 7.33579 19.5001 7.75 19.5001H15.75C16.1642 19.5001 16.5 19.1643 16.5 18.7501Z" fill="black"/>
<path d="M16.386 15.1476C16.6055 14.7963 16.4988 14.3336 16.1475 14.1141L9.1651 9.7501L16.1475 5.3861C16.4988 5.16657 16.6055 4.70385 16.386 4.3526C16.1665 4.00135 15.7038 3.89457 15.3525 4.1141L7.3525 9.1141C7.13322 9.25116 7 9.49151 7 9.7501C7 10.0087 7.13322 10.249 7.3525 10.3861L15.3525 15.3861C15.7038 15.6056 16.1665 15.4989 16.386 15.1476Z" fill="black"/>
</svg>
