<svg width="24" height="24" viewBox="0 0 24 24" fill="none" xmlns="http://www.w3.org/2000/svg">
<path d="M19.5 12C19.5 16.1421 16.1421 19.5 12 19.5C7.85786 19.5 4.5 16.1421 4.5 12C4.5 7.85786 7.85786 4.5 12 4.5C16.1421 4.5 19.5 7.85786 19.5 12ZM12 21C16.9706 21 21 16.9706 21 12C21 7.02944 16.9706 3 12 3C7.02944 3 3 7.02944 3 12C3 16.9706 7.02944 21 12 21ZM9.6377 8.07693L8.53032 6.9696C8.23742 6.67671 7.76254 6.67672 7.46966 6.96962C7.17677 7.26252 7.17678 7.7374 7.46968 8.03028L8.57707 9.13761C8.86997 9.4305 9.34484 9.43049 9.63773 9.13759C9.93061 8.84469 9.9306 8.36981 9.6377 8.07693ZM16.6377 17.0305C16.9306 16.7376 16.9306 16.2627 16.6377 15.9698L15.5303 14.8625C15.2374 14.5696 14.7626 14.5696 14.4697 14.8625C14.1768 15.1554 14.1768 15.6303 14.4697 15.9232L15.5771 17.0305C15.87 17.3234 16.3449 17.3234 16.6377 17.0305ZM16.6377 8.03028C16.9306 7.7374 16.9306 7.26252 16.6377 6.96962C16.3448 6.67672 15.87 6.67671 15.5771 6.9696L14.4697 8.07693C14.1768 8.36981 14.1768 8.84469 14.4697 9.13759C14.7625 9.43049 15.2374 9.4305 15.5303 9.13761L16.6377 8.03028ZM9.63775 14.8623C9.34486 14.5694 8.86999 14.5694 8.57709 14.8623L7.46971 15.9696C7.17681 16.2625 7.17679 16.7374 7.46968 17.0303C7.76257 17.3232 8.23744 17.3232 8.53034 17.0303L9.63772 15.923C9.93062 15.6301 9.93064 15.1552 9.63775 14.8623ZM13.5 12C13.5 12.8284 12.8284 13.5 12 13.5C11.1716 13.5 10.5 12.8284 10.5 12C10.5 11.1716 11.1716 10.5 12 10.5C12.8284 10.5 13.5 11.1716 13.5 12ZM12 15C13.6569 15 15 13.6569 15 12C15 10.3431 13.6569 9 12 9C10.3431 9 9 10.3431 9 12C9 13.6569 10.3431 15 12 15Z" fill="black"/>
</svg>
