<svg width="24" height="24" viewBox="0 0 24 24" fill="none" xmlns="http://www.w3.org/2000/svg">
<path d="M14.2714 14.8835V16.4143H10.5857V14.8619C10.5857 14.3238 10.2974 13.8269 9.83021 13.5597C8.459 12.7758 7.5 11.2362 7.5 9.42857C7.5 8.04311 8.04656 6.81429 8.93043 5.93043C9.81429 5.04656 11.0431 4.5 12.4286 4.5C13.814 4.5 15.0429 5.04656 15.9267 5.93043C16.8106 6.81429 17.3571 8.04311 17.3571 9.42857C17.3571 11.1125 16.4091 12.6954 14.9634 13.6198C14.5323 13.8954 14.2714 14.3718 14.2714 14.8835ZM15.7714 14.8835C17.6002 13.7142 18.8571 11.6787 18.8571 9.42857C18.8571 7.63775 18.1472 6.02956 16.9874 4.86977C15.8276 3.70997 14.2194 3 12.4286 3C10.6378 3 9.02956 3.70997 7.86977 4.86977C6.70997 6.02956 6 7.63775 6 9.42857C6 11.7741 7.24707 13.8108 9.08571 14.8619V16.9143C9.08571 17.4666 9.53343 17.9143 10.0857 17.9143H14.7714C15.3237 17.9143 15.7714 17.4666 15.7714 16.9143V14.8835Z" fill="black"/>
<path d="M9.70277 20.4429C9.8661 20.773 10.2063 21 10.5996 21H14.2568C14.65 21 14.9903 20.773 15.1536 20.4429C15.2196 20.3094 15.2568 20.159 15.2568 20V18.9429H9.59961V20C9.59961 20.159 9.63673 20.3094 9.70277 20.4429Z" fill="black"/>
</svg>
