<svg width="24" height="24" viewBox="0 0 24 24" fill="none" xmlns="http://www.w3.org/2000/svg">
<path d="M12.847 5.27026L11.5406 6.56895C11.2468 6.86098 11.2454 7.33586 11.5375 7.6296C11.8295 7.92335 12.3044 7.92473 12.5981 7.63269L13.8927 6.34563C15.0799 5.20279 16.964 5.22036 18.1297 6.38604C19.2952 7.55148 19.313 9.43503 18.1708 10.6223L15.9105 12.8826C15.29 13.5034 14.4304 13.824 13.5549 13.7613C12.6795 13.6986 11.8744 13.2587 11.3486 12.5559C11.1005 12.2242 10.6305 12.1564 10.2988 12.4046C9.96712 12.6527 9.89937 13.1227 10.1475 13.4544C10.9339 14.5057 12.1382 15.1637 13.4478 15.2575C14.7573 15.3513 16.0432 14.8716 16.9714 13.9431L19.2364 11.6782L19.2455 11.6688C20.9604 9.89323 20.9359 7.07088 19.1904 5.32538C17.4449 3.57989 14.6225 3.55536 12.847 5.27026Z" fill="black"/>
<path d="M7.54448 10.5568L5.27932 12.8218L5.27026 12.8312C3.55536 14.6068 3.57989 17.4291 5.32538 19.1746C7.07088 20.9201 9.89331 20.9447 11.6689 19.2298L12.9692 17.9295C13.2621 17.6366 13.2621 17.1617 12.9692 16.8688C12.6763 16.576 12.2014 16.576 11.9085 16.8688L10.6223 18.1551C9.43503 19.2972 7.55148 19.2794 6.38604 18.114C5.2206 16.9485 5.20279 15.065 6.34492 13.8777L8.60523 11.6174C9.22577 10.9966 10.0853 10.676 10.9608 10.7387C11.8363 10.8014 12.6414 11.2413 13.1671 11.9441C13.4152 12.2758 13.8853 12.3436 14.2169 12.0954C14.5486 11.8473 14.6164 11.3773 14.3683 11.0456C13.5819 9.99428 12.3776 9.33631 11.068 9.24252C9.75842 9.14874 8.47269 9.62833 7.54448 10.5568Z" fill="black"/>
</svg>
