<svg width="24" height="24" viewBox="0 0 24 24" fill="none" xmlns="http://www.w3.org/2000/svg">
<path d="M4.55193 9C4.79939 9 5 8.79939 5 8.55193V5.69024C5 5.30903 4.69097 5 4.30976 5C4.17727 5 4.04759 5.03813 3.93618 5.10983L3.15022 5.61572C3.05659 5.67598 3 5.7797 3 5.89105C3 6.15022 3.2868 6.30667 3.50471 6.16636L4.04024 5.82154C4.0469 5.81725 4.05466 5.81497 4.06258 5.81497C4.08538 5.81497 4.10386 5.83345 4.10386 5.85624V8.55193C4.10386 8.79939 4.30447 9 4.55193 9ZM7.6001 6.25V7.75C7.6001 8.02614 7.82396 8.25 8.1001 8.25H20.1001C20.3762 8.25 20.6001 8.02614 20.6001 7.75V6.25C20.6001 5.97386 20.3762 5.75 20.1001 5.75H8.1001C7.82396 5.75 7.6001 5.97386 7.6001 6.25ZM3 11.2676C3 11.275 3.00605 11.2811 3.01351 11.2811H3.77773C3.78669 11.2811 3.79395 11.2738 3.79395 11.2649C3.79395 10.9054 4.06616 10.6568 4.46314 10.6568C4.83743 10.6568 5.10397 10.8784 5.10397 11.1919C5.10397 11.4459 4.95936 11.6486 4.38374 12.1838L3.17454 13.3119C3.09396 13.387 3.0482 13.4923 3.0482 13.6025C3.0482 13.822 3.22617 14 3.44569 14H5.66081C5.84814 14 6 13.8481 6 13.6608C6 13.4735 5.84814 13.3216 5.66081 13.3216H4.24166C4.22304 13.3216 4.20794 13.3065 4.20794 13.2879C4.20794 13.2784 4.21195 13.2693 4.21899 13.2629L4.99055 12.5622C5.69943 11.927 5.94045 11.5622 5.94045 11.1378C5.94045 10.4676 5.34499 10 4.49149 10C3.60681 10 3 10.5135 3 11.2676ZM4.29318 17.2518H4.47601C4.90993 17.2518 5.17511 17.4575 5.17511 17.7897C5.17511 18.114 4.89386 18.3382 4.4894 18.3382C4.24125 18.3382 4.04286 18.2656 3.91825 18.1386L3.88837 18.108C3.75269 17.9686 3.60174 17.8134 3.41102 17.8134C3.18738 17.8134 3.00196 18.006 3.08527 18.2136C3.28058 18.7002 3.79199 19 4.48136 19C5.36261 19 6.00011 18.5175 6.00011 17.8504C6.00011 17.3572 5.67829 17.0123 5.16237 16.9462C5.14837 16.9445 5.13761 16.9326 5.13761 16.9185C5.13761 16.9053 5.14698 16.894 5.15983 16.8911C5.5785 16.797 5.85011 16.4584 5.85011 16.0257C5.85011 15.4272 5.27958 15 4.48672 15C3.80537 15 3.31965 15.2957 3.14381 15.7886C3.07174 15.9907 3.25067 16.1734 3.46517 16.1734C3.66462 16.1734 3.81591 16.0007 3.94343 15.8473C4.05545 15.7126 4.23706 15.6355 4.46529 15.6355C4.84297 15.6355 5.08404 15.8306 5.08404 16.1365C5.08404 16.4476 4.83493 16.6585 4.46797 16.6585H4.29318C4.12935 16.6585 3.99654 16.7913 3.99654 16.9552C3.99654 17.119 4.12935 17.2518 4.29318 17.2518ZM8.1001 10.75C7.82396 10.75 7.6001 10.9739 7.6001 11.25V12.75C7.6001 13.0261 7.82396 13.25 8.1001 13.25H20.1001C20.3762 13.25 20.6001 13.0261 20.6001 12.75V11.25C20.6001 10.9739 20.3762 10.75 20.1001 10.75H8.1001ZM7.6001 16.25V17.75C7.6001 18.0261 7.82396 18.25 8.1001 18.25H20.1001C20.3762 18.25 20.6001 18.0261 20.6001 17.75V16.25C20.6001 15.9739 20.3762 15.75 20.1001 15.75H8.1001C7.82396 15.75 7.6001 15.9739 7.6001 16.25Z" fill="black"/>
</svg>
