<svg width="24" height="24" viewBox="0 0 24 24" fill="none" xmlns="http://www.w3.org/2000/svg">
<path d="M4.25 6C3.55964 6 3 6.55964 3 7.25C3 7.94036 3.55964 8.5 4.25 8.5C4.94036 8.5 5.5 7.94036 5.5 7.25C5.5 6.55964 4.94036 6 4.25 6ZM7.19995 6.5V8C7.19995 8.27614 7.42381 8.5 7.69995 8.5H19.7C19.9761 8.5 20.2 8.27614 20.2 8V6.5C20.2 6.22386 19.9761 6 19.7 6H7.69995C7.42381 6 7.19995 6.22386 7.19995 6.5ZM7.69995 11C7.42381 11 7.19995 11.2239 7.19995 11.5V13C7.19995 13.2761 7.42381 13.5 7.69995 13.5H19.7C19.9761 13.5 20.2 13.2761 20.2 13V11.5C20.2 11.2239 19.9761 11 19.7 11H7.69995ZM4.25 11C3.55964 11 3 11.5596 3 12.25C3 12.9404 3.55964 13.5 4.25 13.5C4.94036 13.5 5.5 12.9404 5.5 12.25C5.5 11.5596 4.94036 11 4.25 11ZM7.69995 16C7.42381 16 7.19995 16.2239 7.19995 16.5V18C7.19995 18.2761 7.42381 18.5 7.69995 18.5H19.7C19.9761 18.5 20.2 18.2761 20.2 18V16.5C20.2 16.2239 19.9761 16 19.7 16H7.69995ZM4.25 16C3.55964 16 3 16.5596 3 17.25C3 17.9404 3.55964 18.5 4.25 18.5C4.94036 18.5 5.5 17.9404 5.5 17.25C5.5 16.5596 4.94036 16 4.25 16Z" fill="black"/>
</svg>
