<svg width="24" height="24" viewBox="0 0 24 24" fill="none" xmlns="http://www.w3.org/2000/svg">
<path d="M7 6.79688V8.53125H6.75L6.75 8.53271C4.6693 8.58946 3 10.294 3 12.3884V18.817C3 20.9472 4.7269 22.6741 6.85714 22.6741H17.1429C19.2731 22.6741 21 20.9472 21 18.817V12.3884C21 10.2582 19.2731 8.53125 17.1429 8.53125H16.5938V6.79688C16.5938 4.14763 14.4461 2 11.7969 2C9.14763 2 7 4.14763 7 6.79688ZM8.5 8.53125V6.79688C8.5 4.97606 9.97606 3.5 11.7969 3.5C13.6177 3.5 15.0938 4.97606 15.0938 6.79688V8.53125H8.5ZM4.5 18.817V12.3884C4.5 11.0866 5.55533 10.0312 6.85714 10.0312H17.1429C18.4447 10.0312 19.5 11.0866 19.5 12.3884V18.817C19.5 20.1188 18.4447 21.1741 17.1429 21.1741H6.85714C5.55533 21.1741 4.5 20.1188 4.5 18.817Z" fill="black"/>
</svg>
