<svg width="24" height="24" viewBox="0 0 24 24" fill="none" xmlns="http://www.w3.org/2000/svg">
<path d="M11.2946 2C9.0328 2 7.19922 3.83358 7.19922 6.09542C7.19922 6.50964 7.53501 6.84542 7.94922 6.84542C8.36343 6.84542 8.69922 6.50964 8.69922 6.09542C8.69922 4.66201 9.86123 3.5 11.2946 3.5H12.0392C13.8341 3.5 15.2892 4.95508 15.2892 6.75V9.23056C15.2892 9.23102 15.2892 9.23148 15.2892 9.23193H6.85714C4.7269 9.23193 3 10.8826 3 12.9187V19.0634C3 21.0995 4.7269 22.7502 6.85714 22.7502H17.1429C19.2731 22.7502 21 21.0995 21 19.0634V12.9187C21 10.8826 19.2731 9.23193 17.1429 9.23193H16.7892C16.7892 9.23148 16.7892 9.23102 16.7892 9.23056V6.75C16.7892 4.12665 14.6626 2 12.0392 2H11.2946ZM4.5 12.9187C4.5 11.7741 5.49076 10.7319 6.85714 10.7319H17.1429C18.5092 10.7319 19.5 11.7741 19.5 12.9187V19.0634C19.5 20.208 18.5092 21.2502 17.1429 21.2502H6.85714C5.49076 21.2502 4.5 20.208 4.5 19.0634V12.9187ZM10.75 15V17.5C10.75 18.1904 11.3096 18.75 12 18.75C12.6904 18.75 13.25 18.1904 13.25 17.5V15C13.25 14.3096 12.6904 13.75 12 13.75C11.3096 13.75 10.75 14.3096 10.75 15Z" fill="black"/>
</svg>
