<svg width="24" height="24" viewBox="0 0 24 24" fill="none" xmlns="http://www.w3.org/2000/svg">
<path d="M10.8715 21.4317C11.2298 21.7671 11.7702 21.7671 12.1285 21.4317C13.9328 19.7427 19 14.5726 19 9.77778C19 5.48222 15.6421 2 11.5 2C7.35786 2 4 5.48222 4 9.77778C4 14.5726 9.06716 19.7427 10.8715 21.4317ZM17.6046 9.73438C17.6046 12.1284 16.0424 14.7394 14.3541 16.8342C13.5246 17.8633 12.6934 18.7332 12.0689 19.3461C11.8423 19.5685 11.6435 19.7566 11.4826 19.9055C11.3216 19.7566 11.1228 19.5685 10.8962 19.3461C10.2717 18.7332 9.44049 17.8633 8.61102 16.8342C6.92271 14.7394 5.36046 12.1284 5.36046 9.73438C5.36046 6.19057 8.12451 3.36035 11.4826 3.36035C14.8406 3.36035 17.6046 6.19057 17.6046 9.73438Z" fill="black"/>
</svg>
