<svg width="24" height="24" viewBox="0 0 24 24" fill="none" xmlns="http://www.w3.org/2000/svg">
<path d="M3.5 7.46806L7.75 5.83345V15.6504C7.6587 15.6803 7.56874 15.7156 7.4806 15.7563L3.5 17.5935V7.46806ZM9.45673 15.705C9.38863 15.6778 9.31965 15.6536 9.25 15.6326V5.769L15.1704 7.74248C15.1969 7.75129 15.2234 7.75964 15.25 7.76754V18.0223L9.45673 15.705ZM16.75 17.8858V7.74302C16.8081 7.72369 16.8657 7.70217 16.9226 7.67847L20.5 6.18787V16.0108L16.75 17.8858ZM2.64102 6.19132C2.25483 6.33985 2 6.71089 2 7.12466V18.375C2 19.1047 2.75644 19.5887 3.41906 19.2829L8.10919 17.1182C8.35867 17.0031 8.64453 16.9957 8.89964 17.0977L15.5831 19.7711C15.8483 19.8772 16.1462 19.8648 16.4017 19.737L21.4472 17.2143C21.786 17.0449 22 16.6986 22 16.3198V5.43787C22 4.72429 21.2741 4.24033 20.6154 4.51479L16.3456 6.29385C16.1228 6.38671 15.8738 6.39581 15.6448 6.31946L8.84035 4.05132C8.62032 3.97797 8.38163 3.98339 8.16515 4.06665L2.64102 6.19132Z" fill="black"/>
</svg>
