<svg width="24" height="24" viewBox="0 0 24 24" fill="none" xmlns="http://www.w3.org/2000/svg">
<path d="M5.96728 3.00644L2.62611 6.7382C2.24684 7.012 2 7.45786 2 7.96137V17.628C2 19.7158 3.6925 21.4083 5.7803 21.4083H18.2197C20.3075 21.4083 22 19.7158 22 17.628V7.96137C22 7.43724 21.7325 6.97558 21.3266 6.70544L17.6636 2.92059C17.0942 2.3322 16.3104 2 15.4916 2H8.21927C7.35965 2 6.54069 2.366 5.96728 3.00644ZM20.5 8.0082V17.628C20.5 18.8874 19.4791 19.9083 18.2197 19.9083H5.7803C4.52093 19.9083 3.5 18.8874 3.5 17.628V8.01089L3.50018 8.01069L3.55112 7.9538H8.50977V12.7339C8.50977 13.6825 9.60902 14.2081 10.3473 13.6124L11.9957 12.2824C11.9985 12.2802 12.0025 12.2802 12.0053 12.2824L13.6537 13.6124C14.392 14.2081 15.4912 13.6825 15.4912 12.7339V7.9538H20.4473L20.5 8.0082ZM9.25977 6.4538H4.89412L7.08481 4.007C7.37367 3.68438 7.78623 3.5 8.21927 3.5H15.4916C15.9041 3.5 16.2989 3.66735 16.5858 3.96376L18.9956 6.4538H14.7412H9.25977ZM10.0098 7.9538H13.9912V11.9574L12.9472 11.115C12.3947 10.6693 11.6063 10.6693 11.0539 11.115L10.0098 11.9574V7.9538Z" fill="black"/>
</svg>
