<svg width="24" height="24" viewBox="0 0 24 24" fill="none" xmlns="http://www.w3.org/2000/svg">
<path d="M6 5.5H18C18.8284 5.5 19.5 6.17157 19.5 7V17C19.5 17.8284 18.8284 18.5 18 18.5H6C5.17157 18.5 4.5 17.8284 4.5 17V7C4.5 6.17157 5.17157 5.5 6 5.5ZM3 7V17C3 18.6569 4.34315 20 6 20H18C19.6569 20 21 18.6569 21 17V7C21 5.34315 19.6569 4 18 4H6C4.34315 4 3 5.34315 3 7ZM5.5 7.5V8.5C5.5 9.05228 5.94772 9.5 6.5 9.5H17.5C18.0523 9.5 18.5 9.05228 18.5 8.5V7.5C18.5 6.94772 18.0523 6.5 17.5 6.5H6.5C5.94772 6.5 5.5 6.94772 5.5 7.5Z" fill="black"/>
</svg>
