<svg width="24" height="24" viewBox="0 0 24 24" fill="none" xmlns="http://www.w3.org/2000/svg">
<path d="M6 6.5H18C18.8284 6.5 19.5 7.17157 19.5 8V16C19.5 16.8284 18.8284 17.5 18 17.5H6C5.17157 17.5 4.5 16.8284 4.5 16V8C4.5 7.17157 5.17157 6.5 6 6.5ZM3 8V16C3 17.6569 4.34315 19 6 19H18C19.6569 19 21 17.6569 21 16V8C21 6.34315 19.6569 5 18 5H6C4.34315 5 3 6.34315 3 8ZM8.68102 9.38564C8.60903 9.23229 8.39091 9.23229 8.31893 9.38564L7.77277 10.5491C7.74446 10.6094 7.68797 10.6517 7.62211 10.6618L6.38443 10.852C6.22358 10.8767 6.15802 11.073 6.27171 11.1894L7.17943 12.1191C7.22379 12.1645 7.24394 12.2283 7.23372 12.291L7.02129 13.5934C6.99441 13.7582 7.16935 13.8814 7.31546 13.8006L8.40319 13.1991C8.46341 13.1658 8.53653 13.1658 8.59676 13.1991L9.68448 13.8006C9.8306 13.8814 10.0055 13.7582 9.97866 13.5934L9.76623 12.291C9.75601 12.2283 9.77616 12.1645 9.82052 12.1191L10.7282 11.1894C10.8419 11.073 10.7764 10.8767 10.6155 10.852L9.37784 10.6618C9.31198 10.6517 9.25549 10.6094 9.22717 10.5491L8.68102 9.38564ZM12.4412 11C12.4412 11.4142 12.7769 11.75 13.1912 11.75H17.1912C17.6054 11.75 17.9412 11.4142 17.9412 11C17.9412 10.5858 17.6054 10.25 17.1912 10.25H13.1912C12.7769 10.25 12.4412 10.5858 12.4412 11ZM13.1912 13.25C12.7769 13.25 12.4412 13.5858 12.4412 14C12.4412 14.4142 12.7769 14.75 13.1912 14.75H15.1912C15.6054 14.75 15.9412 14.4142 15.9412 14C15.9412 13.5858 15.6054 13.25 15.1912 13.25H13.1912Z" fill="black"/>
</svg>
