<svg width="24" height="24" viewBox="0 0 24 24" fill="none" xmlns="http://www.w3.org/2000/svg">
<path d="M12.6327 10.7841L12.6397 10.7908C12.7832 10.9288 12.9678 10.9984 13.1527 11L13.1593 10.9998L18.0684 10.9998C18.4826 10.9998 18.8184 10.664 18.8184 10.2498C18.8184 9.83555 18.4826 9.49977 18.0684 9.49977L14.9523 9.49977L20.1024 4.27658C20.3932 3.98163 20.3899 3.50677 20.0949 3.21595C19.8 2.92513 19.3251 2.92847 19.0343 3.22342L13.9093 8.42115L13.9093 5.34068C13.9093 4.92646 13.5735 4.59068 13.1593 4.59068C12.7451 4.59068 12.4093 4.92646 12.4093 5.34068L12.4093 10.2498C12.4093 10.3525 12.4298 10.4504 12.4672 10.5395C12.5044 10.6286 12.5596 10.712 12.6327 10.7841ZM8.36631 13.9998L3.21595 19.2232C2.92513 19.5181 2.92847 19.993 3.22342 20.2838C3.51837 20.5746 3.99323 20.5713 4.28405 20.2763L9.40909 15.0786L9.40909 18.1589C9.40909 18.5731 9.74488 18.9089 10.1591 18.9089C10.5733 18.9089 10.9091 18.5731 10.9091 18.1589L10.9091 13.2501L10.9091 13.247C10.9087 13.1453 10.8881 13.0485 10.8512 12.9602C10.8139 12.8711 10.7588 12.7878 10.6857 12.7157C10.6139 12.645 10.5315 12.5916 10.4437 12.5556C10.3559 12.5196 10.2598 12.4998 10.1591 12.4998L5.25 12.4998C4.83579 12.4998 4.5 12.8356 4.5 13.2498C4.5 13.664 4.83579 13.9998 5.25 13.9998L8.36631 13.9998Z" fill="black"/>
</svg>
