<svg width="24" height="24" viewBox="0 0 24 24" fill="none" xmlns="http://www.w3.org/2000/svg">
<path d="M4.22679 4.46265C3.93002 4.75161 3.92368 5.22644 4.21265 5.52321L18.0876 19.7732C18.3766 20.07 18.8514 20.0763 19.1482 19.7874C19.445 19.4984 19.4513 19.0236 19.1624 18.7268L5.28735 4.47679C4.99839 4.18002 4.52356 4.17368 4.22679 4.46265Z" fill="black"/>
<path d="M9.14453 8.46175L7.64453 6.92121V11.5263C7.64453 13.6192 9.34114 15.3158 11.434 15.3158C12.6417 15.3158 13.7174 14.7509 14.4113 13.8709L13.3497 12.7805C12.9406 13.404 12.2354 13.8158 11.434 13.8158C10.1696 13.8158 9.14453 12.7908 9.14453 11.5263V8.46175ZM13.7235 11.0143L15.1124 12.4408C15.185 12.1479 15.2235 11.8416 15.2235 11.5263V6.78947C15.2235 4.69661 13.5269 3 11.434 3C9.92758 3 8.62646 3.87901 8.01556 5.1521L9.18589 6.35405C9.38925 5.29785 10.3185 4.5 11.434 4.5C12.6984 4.5 13.7235 5.52503 13.7235 6.78947V11.0143ZM15.2154 14.6967C14.3103 15.7751 12.9523 16.4607 11.4342 16.4607C8.70912 16.4607 6.5 14.2516 6.5 11.5265V10.5791C6.5 10.1649 6.16421 9.8291 5.75 9.8291C5.33579 9.8291 5 10.1649 5 10.5791V11.5265C5 14.8261 7.48373 17.5456 10.6836 17.9174V20.25H7.64453C7.23032 20.25 6.89453 20.5858 6.89453 21C6.89453 21.4142 7.23032 21.75 7.64453 21.75H15.2235C15.6377 21.75 15.9735 21.4142 15.9735 21C15.9735 20.5858 15.6377 20.25 15.2235 20.25H12.1836V17.9175C13.8047 17.7295 15.242 16.9389 16.2659 15.7756L15.2154 14.6967ZM17.1332 14.5161C17.6027 13.6229 17.8684 12.6057 17.8684 11.5265V10.5791C17.8684 10.1649 17.5326 9.8291 17.1184 9.8291C16.7042 9.8291 16.3684 10.1649 16.3684 10.5791V11.5265C16.3684 12.1769 16.2426 12.798 16.0139 13.3666L17.1332 14.5161Z" fill="black"/>
</svg>
