<svg width="24" height="24" viewBox="0 0 24 24" fill="none" xmlns="http://www.w3.org/2000/svg">
<path d="M9 20.5C8.17157 20.5 7.5 19.8284 7.5 19V5C7.5 4.17157 8.17157 3.5 9 3.5H16C16.8284 3.5 17.5 4.17157 17.5 5V19C17.5 19.8284 16.8284 20.5 16 20.5H9ZM16 22C17.6569 22 19 20.6569 19 19V5C19 3.34315 17.6569 2 16 2H9C7.34315 2 6 3.34315 6 5V19C6 20.6569 7.34315 22 9 22H16Z" fill="black"/>
<path d="M10.4004 18.2998C10.4004 18.714 10.7362 19.0498 11.1504 19.0498H13.8504C14.2646 19.0498 14.6004 18.714 14.6004 18.2998C14.6004 17.8856 14.2646 17.5498 13.8504 17.5498H11.1504C10.7362 17.5498 10.4004 17.8856 10.4004 18.2998Z" fill="black"/>
</svg>
