<svg width="24" height="24" viewBox="0 0 24 24" fill="none" xmlns="http://www.w3.org/2000/svg">
<path d="M6 7.5H18C18.8284 7.5 19.5 8.17157 19.5 9V15.7059C19.5 16.5343 18.8284 17.2059 18 17.2059H6C5.17157 17.2059 4.5 16.5343 4.5 15.7059V9C4.5 8.17157 5.17157 7.5 6 7.5ZM3 9V15.7059C3 17.3627 4.34315 18.7059 6 18.7059H18C19.6569 18.7059 21 17.3627 21 15.7059V9C21 7.34315 19.6569 6 18 6H6C4.34315 6 3 7.34315 3 9ZM12 14.3501C12.9665 14.3501 13.75 13.4547 13.75 12.3501C13.75 11.2455 12.9665 10.3501 12 10.3501C11.0335 10.3501 10.25 11.2455 10.25 12.3501C10.25 13.4547 11.0335 14.3501 12 14.3501ZM17 9.26907C17.0728 9.3614 17.1558 9.4558 17.25 9.55005C17.3443 9.6443 17.4386 9.72721 17.531 9.80005C18.0478 10.2078 18.5 10.3 18.5 10.3V8.80005C18.5 8.74058 18.4896 8.68354 18.4706 8.63063C18.4202 8.49078 18.3093 8.37984 18.1694 8.32948C18.1165 8.31043 18.0595 8.30005 18 8.30005H16.5C16.5 8.30005 16.5922 8.75222 17 9.26907ZM6.75 9.55005C6.84425 9.4558 6.92716 9.3614 7 9.26907C7.40775 8.75222 7.5 8.30005 7.5 8.30005H6C5.94053 8.30005 5.88349 8.31043 5.83058 8.32948C5.69073 8.37984 5.57979 8.49078 5.52943 8.63063C5.51038 8.68354 5.5 8.74058 5.5 8.80005V10.3C5.5 10.3 5.95217 10.2078 6.46902 9.80005C6.56135 9.72721 6.65575 9.6443 6.75 9.55005ZM7 15.531C6.92716 15.4386 6.84425 15.3443 6.75 15.25C6.65575 15.1558 6.56135 15.0728 6.46902 15C5.95217 14.5922 5.5 14.5 5.5 14.5V16C5.5 16.0595 5.51038 16.1165 5.52943 16.1694C5.57979 16.3093 5.69073 16.4202 5.83058 16.4706C5.88349 16.4896 5.94053 16.5 6 16.5H7.5C7.5 16.5 7.40775 16.0478 7 15.531ZM17.25 15.25C17.1558 15.3443 17.0728 15.4386 17 15.531C16.5922 16.0478 16.5 16.5 16.5 16.5H18C18.0595 16.5 18.1165 16.4896 18.1694 16.4706C18.3093 16.4202 18.4202 16.3093 18.4706 16.1694C18.4896 16.1165 18.5 16.0595 18.5 16V14.5C18.5 14.5 18.0478 14.5922 17.531 15C17.4386 15.0728 17.3443 15.1558 17.25 15.25Z" fill="black"/>
</svg>
