<svg width="24" height="24" viewBox="0 0 24 24" fill="none" xmlns="http://www.w3.org/2000/svg">
<path d="M8.95938 4.8926C8.91124 5.25752 8.88516 5.63173 8.88516 6.01418C8.88516 8.46736 9.88125 10.6907 11.4875 12.297C13.0938 13.9032 15.3171 14.8993 17.7703 14.8993C18.1527 14.8993 18.5268 14.8733 18.8917 14.8251C18.3748 15.9819 17.5751 16.9858 16.5791 17.7468C15.3161 18.7118 13.7413 19.2845 12.0263 19.2845C9.94747 19.2845 8.06796 18.4437 6.70436 17.0801C5.34075 15.7165 4.5 13.837 4.5 11.7582C4.5 10.0431 5.07277 8.46798 6.03784 7.20487C6.79886 6.20882 7.80278 5.40922 8.95938 4.8926ZM10.654 4.06679C10.8124 3.48763 10.3643 2.87359 9.78269 3.02264C9.73718 3.0343 9.69172 3.04634 9.64631 3.05873C7.70965 3.58754 6.0313 4.74271 4.84591 6.2942C3.68815 7.80953 3 9.70239 3 11.7582C3 14.2508 4.01027 16.5074 5.6437 18.1408C7.27712 19.7742 9.53369 20.7845 12.0263 20.7845C14.082 20.7845 15.9746 20.0964 17.4898 18.9388C19.0412 17.7534 20.1964 16.0751 20.7257 14.1384C20.7381 14.093 20.7501 14.0476 20.7618 14.0022C20.911 13.4204 20.2971 12.9721 19.7177 13.1305C19.0966 13.3004 18.4454 13.3993 17.7703 13.3993C15.7309 13.3993 13.8846 12.5728 12.5482 11.2363C11.2117 9.89988 10.3852 8.05359 10.3852 6.01418C10.3852 5.33914 10.4841 4.68786 10.654 4.06679Z" fill="black"/>
</svg>
