<svg width="24" height="24" viewBox="0 0 24 24" fill="none" xmlns="http://www.w3.org/2000/svg">
<path d="M7.5 18.7501C7.5 18.3359 7.83579 18.0001 8.25 18.0001H16.25C16.6642 18.0001 17 18.3359 17 18.7501C17 19.1643 16.6642 19.5001 16.25 19.5001H8.25C7.83579 19.5001 7.5 19.1643 7.5 18.7501Z" fill="black"/>
<path d="M7.614 15.1476C7.39447 14.7963 7.50125 14.3336 7.8525 14.1141L14.8349 9.7501L7.8525 5.3861C7.50125 5.16657 7.39447 4.70385 7.614 4.3526C7.83353 4.00135 8.29625 3.89457 8.6475 4.1141L16.6475 9.1141C16.8668 9.25116 17 9.49151 17 9.7501C17 10.0087 16.8668 10.249 16.6475 10.3861L8.6475 15.3861C8.29625 15.6056 7.83353 15.4989 7.614 15.1476Z" fill="black"/>
</svg>
