<svg width="24" height="24" viewBox="0 0 24 24" fill="none" xmlns="http://www.w3.org/2000/svg">
<path d="M12.9 12.903L18.2833 19.8365L17.8691 20.1575L17.8018 20.2098L12.415 13.2702L8.88199 17.3354L5.75594 4.20442L17.8424 10.4976L12.9 12.903ZM19.3916 11.4119C20.1302 11.0524 20.1444 10.0051 19.4158 9.62573L5.08955 2.16629C4.48161 1.84974 3.7831 2.39436 3.94184 3.06114L7.64817 18.6296C7.83668 19.4215 8.84181 19.6684 9.37577 19.054L12.3496 15.6322L16.9238 21.525C17.2627 21.9616 17.8916 22.0405 18.3278 21.7011L18.7878 21.3432L19.5977 20.7157C20.0346 20.3772 20.114 19.7485 19.7751 19.3119L15.2183 13.443L19.3916 11.4119Z" fill="black"/>
</svg>
