<svg width="24" height="24" viewBox="0 0 24 24" fill="none" xmlns="http://www.w3.org/2000/svg">
<path d="M20.4946 4.61167C20.4057 3.46245 19.2283 2.69617 18.1266 3.11667L9.62701 6.3545L9.48527 6.41548C8.88695 6.70488 8.5 7.31459 8.5 7.98937V11.5078C8.49972 11.5196 8.49971 11.5315 8.5 11.5435V15.4264C8.28648 15.303 8.06101 15.2081 7.8291 15.1416C6.81489 14.851 5.67756 15.1051 4.87868 15.904C3.70711 17.0756 3.70711 18.9751 4.87868 20.1466C6.05025 21.3182 7.94974 21.3182 9.12132 20.1466C9.74419 19.5238 10.0359 18.6952 9.99648 17.8796C9.99881 17.8555 10 17.8311 10 17.8064V12.0332L19 8.43312V13.4264C18.7865 13.303 18.561 13.2081 18.3291 13.1416C17.3149 12.851 16.1776 13.1051 15.3787 13.904C14.2071 15.0756 14.2071 16.9751 15.3787 18.1466C16.5503 19.3182 18.4497 19.3182 19.6213 18.1466C20.2452 17.5228 20.5369 16.6924 20.4963 15.8755C20.4987 15.8508 20.5 15.8258 20.5 15.8004V4.75137L20.4946 4.61167ZM5.93934 16.9647C6.52513 16.3789 7.47487 16.3789 8.06066 16.9647C8.64645 17.5505 8.64645 18.5002 8.06066 19.086C7.47487 19.6718 6.52513 19.6718 5.93934 19.086C5.35355 18.5002 5.35355 17.5505 5.93934 16.9647ZM19 6.81822C18.9905 6.82161 18.9809 6.82519 18.9714 6.82899L10 10.4176V7.98937L10.0074 7.92879C10.0268 7.8508 10.0829 7.78582 10.1597 7.75672L18.661 4.51824L18.7226 4.50311C18.866 4.48667 19 4.59821 19 4.75137V6.81822ZM16.4393 14.9647C17.0251 14.3789 17.9749 14.3789 18.5607 14.9647C19.1464 15.5505 19.1464 16.5002 18.5607 17.086C17.9749 17.6718 17.0251 17.6718 16.4393 17.086C15.8536 16.5002 15.8536 15.5505 16.4393 14.9647Z" fill="black"/>
</svg>
