<svg width="24" height="24" viewBox="0 0 24 24" fill="none" xmlns="http://www.w3.org/2000/svg">
<path d="M18.0398 3.52102C18.29 3.43899 18.5512 3.62507 18.5512 3.89253V5.72611L13.4904 7.79435V5.8764C13.4904 5.71345 13.5907 5.56893 13.7409 5.51204C13.7577 5.50566 13.7743 5.49868 13.7906 5.49111L18.0398 3.52102ZM20.0512 6.25073V3.89253C20.0512 2.5691 18.7256 1.65319 17.4866 2.12613C17.4703 2.13232 17.4543 2.13909 17.4385 2.1464L13.1811 4.12032C12.4618 4.40608 11.9904 5.10241 11.9904 5.8764V8.89481C11.9901 8.9058 11.9901 8.91681 11.9904 8.92785V9.93043L13.4904 11.4304V9.41477L19.4204 6.99131C19.778 6.9342 20.0512 6.62437 20.0512 6.25073ZM13.4904 15.5518L19.2197 21.2811C19.5126 21.574 19.9874 21.574 20.2803 21.2811C20.5732 20.9882 20.5732 20.5133 20.2803 20.2204L4.28033 4.2204C3.98744 3.92751 3.51256 3.92751 3.21967 4.2204C2.92678 4.5133 2.92678 4.98817 3.21967 5.28106L11.9904 14.0517V14.4912C11.7496 14.3281 11.4927 14.199 11.2264 14.1039C10.0195 13.673 8.61901 13.9408 7.65262 14.9072C6.31583 16.244 6.31583 18.4113 7.65262 19.7481C8.9894 21.0849 11.1568 21.0849 12.4935 19.7481C13.2163 19.0253 13.5483 18.0598 13.4895 17.1139C13.4901 17.1019 13.4904 17.0899 13.4904 17.0778V15.5518ZM11.4329 15.9679C12.1839 16.7189 12.1839 17.9365 11.4329 18.6875C10.6819 19.4385 9.46428 19.4385 8.71328 18.6875C7.96227 17.9365 7.96227 16.7189 8.71328 15.9679C9.46428 15.2169 10.6819 15.2169 11.4329 15.9679Z" fill="black"/>
</svg>
