<svg width="24" height="24" viewBox="0 0 24 24" fill="none" xmlns="http://www.w3.org/2000/svg">
<path d="M8.34033 8.92687V14.4912C8.0996 14.3281 7.8427 14.199 7.57637 14.1039C6.36944 13.673 4.96898 13.9408 4.00259 14.9072C2.6658 16.244 2.6658 18.4113 4.00259 19.7481C5.33938 21.0849 7.50673 21.0849 8.84352 19.7481C9.56631 19.0253 9.89829 18.0598 9.83948 17.1139C9.84004 17.1019 9.84033 17.0899 9.84033 17.0778V9.49377L15.7003 7.99915C16.0916 7.97385 16.4012 7.64844 16.4012 7.25073V4.89253C16.4012 3.58855 15.1143 2.6802 13.8912 3.10617L9.65708 4.07976C9.6239 4.08739 9.59127 4.09727 9.55943 4.10933C8.82417 4.3879 8.34033 5.0923 8.34033 5.8764V8.89415C8.34009 8.90502 8.34009 8.91593 8.34033 8.92687ZM14.9012 4.89253V6.65495L9.84033 7.94575V5.8764C9.84033 5.72631 9.92547 5.59187 10.0563 5.52712L14.272 4.55775C14.3058 4.54998 14.339 4.53988 14.3714 4.52752C14.6271 4.42994 14.9012 4.61854 14.9012 4.89253ZM5.06325 18.6875C4.31225 17.9365 4.31225 16.7189 5.06325 15.9679C5.81425 15.2169 7.03186 15.2169 7.78286 15.9679C8.53387 16.7189 8.53386 17.9365 7.78286 18.6875C7.03186 19.4385 5.81425 19.4385 5.06325 18.6875Z" fill="black"/>
</svg>
