<svg width="24" height="24" viewBox="0 0 24 24" fill="none" xmlns="http://www.w3.org/2000/svg">
<path d="M2 4.75C2 5.16421 2.33579 5.5 2.75 5.5H20.75C21.1642 5.5 21.5 5.16421 21.5 4.75C21.5 4.33579 21.1642 4 20.75 4H2.75C2.33579 4 2 4.33579 2 4.75Z" fill="black"/>
<path d="M10 9.25C10 9.66421 10.3358 10 10.75 10H20.75C21.1642 10 21.5 9.66421 21.5 9.25C21.5 8.83579 21.1642 8.5 20.75 8.5H10.75C10.3358 8.5 10 8.83579 10 9.25Z" fill="black"/>
<path d="M10 14.25C10 14.6642 10.3358 15 10.75 15H20.75C21.1642 15 21.5 14.6642 21.5 14.25C21.5 13.8358 21.1642 13.5 20.75 13.5H10.75C10.3358 13.5 10 13.8358 10 14.25Z" fill="black"/>
<path d="M2 18.75C2 19.1642 2.33579 19.5 2.75 19.5H20.75C21.1642 19.5 21.5 19.1642 21.5 18.75C21.5 18.3358 21.1642 18 20.75 18H2.75C2.33579 18 2 18.3358 2 18.75Z" fill="black"/>
<path d="M6.25 13.5474L4.09308 11.75L6.25 9.95256V13.5474ZM7.75 8.88504C7.75 8.0372 6.76114 7.57405 6.10982 8.11682L2.67187 10.9818C2.19211 11.3816 2.19211 12.1184 2.67186 12.5182L6.10982 15.3832C6.76114 15.926 7.75 15.4628 7.75 14.615V8.88504Z" fill="black"/>
</svg>
