<svg width="24" height="24" viewBox="0 0 24 24" fill="none" xmlns="http://www.w3.org/2000/svg">
<path d="M8.44776 4.5H15.5522C15.7022 4.5 15.8443 4.56731 15.9392 4.68338L19.387 8.89731C19.4601 8.98664 19.5 9.09851 19.5 9.21393V14.7861C19.5 14.9015 19.4601 15.0134 19.387 15.1027L15.9392 19.3166C15.8443 19.4327 15.7022 19.5 15.5522 19.5H8.44776C8.29779 19.5 8.15574 19.4327 8.06078 19.3166L4.61302 15.1027C4.53993 15.0134 4.5 14.9015 4.5 14.7861V9.21393C4.5 9.09851 4.53993 8.98664 4.61302 8.89731L8.06078 4.68338C8.15574 4.56731 8.29779 4.5 8.44776 4.5ZM8.44776 3C7.84789 3 7.2797 3.26925 6.89984 3.73352L3.45209 7.94745C3.15973 8.30478 3 8.75224 3 9.21393V14.7861C3 15.2478 3.15973 15.6952 3.45209 16.0525L6.89984 20.2665C7.2797 20.7307 7.84789 21 8.44776 21H15.5522C16.1521 21 16.7203 20.7307 17.1002 20.2665L20.5479 16.0525C20.8403 15.6952 21 15.2478 21 14.7861V9.21393C21 8.75224 20.8403 8.30478 20.5479 7.94745L17.1002 3.73352C16.7203 3.26925 16.1521 3 15.5522 3H8.44776Z" fill="black"/>
</svg>
