<svg width="24" height="24" viewBox="0 0 24 24" fill="none" xmlns="http://www.w3.org/2000/svg">
<path d="M12.7121 3.17468C12.2636 2.94177 11.7366 2.94177 11.2881 3.17468L4.88808 6.51879C4.34435 6.80114 4.0004 7.38078 4.00004 8.01528V15.9743C3.99584 16.6099 4.33687 17.1931 4.88008 17.4791L11.2801 20.8232C11.7308 21.0589 12.2614 21.0589 12.7121 20.8232L19.1121 17.4791C19.6558 17.1968 19.9998 16.6171 20.0001 15.9826V8.01528C19.9998 7.38078 19.6558 6.80114 19.1121 6.51879L12.7121 3.17468ZM10.4333 5.31374L11.9794 4.50589C11.9888 4.50108 11.9959 4.5 12.0001 4.5C12.0042 4.5 12.0113 4.50106 12.0208 4.50589L17.5669 7.40382L16.0001 8.22248L10.4333 5.31374ZM8.81381 6.15995L14.3806 9.0687L12.0001 10.3126L6.43329 7.40382L8.81381 6.15995ZM16.3453 9.73454C16.3471 9.73361 16.3489 9.73268 16.3506 9.73174L18.5001 8.60862V15.9819C18.5 16.0818 18.446 16.1348 18.4208 16.1479L12.7501 19.111V11.6131L16.3453 9.73454ZM5.50004 8.60861L11.2501 11.6131V19.1151L5.57831 16.1515C5.55246 16.1375 5.49938 16.0837 5.50004 15.9842V8.60861Z" fill="black"/>
</svg>
