<svg width="24" height="24" viewBox="0 0 24 24" fill="none" xmlns="http://www.w3.org/2000/svg">
<path d="M12.6994 3.24565L4.74028 11.2716L4.56191 11.4593C2.42151 13.81 2.48097 17.4642 4.74028 19.7425C7.06411 22.0859 10.8344 22.0859 13.1583 19.7425L21.1174 11.7165L21.1896 11.6321C21.4063 11.3376 21.3803 10.921 21.1129 10.6558C20.8188 10.3642 20.3439 10.3662 20.0523 10.6603L12.0932 18.6863L11.9272 18.8454C10.1813 20.4362 7.48813 20.3832 5.80537 18.6863C4.06488 16.9312 4.06488 14.0829 5.80537 12.3278L13.7645 4.30186L13.9003 4.17378C14.9666 3.23457 16.5852 3.27726 17.6013 4.30185C18.6649 5.37448 18.6649 7.11612 17.6013 8.18875L9.63382 16.2144L9.54131 16.2968C9.15627 16.599 8.60159 16.5716 8.24767 16.2147C7.86079 15.8246 7.86079 15.1895 8.24766 14.7994L15.6003 7.39379L15.6726 7.30941C15.8894 7.01502 15.8637 6.59845 15.5964 6.33314C15.3025 6.0413 14.8276 6.04301 14.5358 6.33695L7.18289 13.7429L7.06223 13.8734C6.21764 14.8541 6.25785 16.3384 7.18258 17.2709C8.15278 18.2493 9.72841 18.2493 10.6986 17.2709L18.6661 9.24525L18.82 9.08169C20.3082 7.41545 20.2569 4.84956 18.6664 3.24565C17.0194 1.58478 14.3464 1.58478 12.6994 3.24565Z" fill="black"/>
</svg>
