<svg width="24" height="24" viewBox="0 0 24 24" fill="none" xmlns="http://www.w3.org/2000/svg">
<path d="M4.21547 9.50166L19.4388 3.85042L13.7876 19.0738L10.8544 13.5803L15.5987 8.83599C15.8916 8.5431 15.8916 8.06823 15.5987 7.77533C15.3058 7.48244 14.8309 7.48244 14.538 7.77533L9.81924 12.4941C9.80808 12.4879 9.79688 12.4819 9.78562 12.4758L4.21547 9.50166ZM19.939 2.06471L2.65205 8.48201C1.84391 8.78201 1.76864 9.8956 2.52906 10.3016L9.0791 13.799C9.25383 13.8923 9.39691 14.0354 9.49021 14.2101L12.9876 20.7602C13.3936 21.5206 14.5072 21.4453 14.8072 20.6372L21.2245 3.35022C21.5222 2.54826 20.741 1.76701 19.939 2.06471Z" fill="black"/>
</svg>
