<svg width="24" height="24" viewBox="0 0 24 24" fill="none" xmlns="http://www.w3.org/2000/svg">
<path d="M15.75 3C15.3358 3 15 3.33579 15 3.75V19.75C15 20.1642 15.3358 20.5 15.75 20.5C16.1642 20.5 16.5 20.1642 16.5 19.75V3.75C16.5 3.33579 16.1642 3 15.75 3Z" fill="black"/>
<path d="M8.639 4.5H19.75C20.1642 4.5 20.5 4.16421 20.5 3.75C20.5 3.33579 20.1642 3 19.75 3H8.639C5.52479 3 3 5.52479 3 8.639C3 11.7532 5.52479 14.278 8.639 14.278H10.75C11.1642 14.278 11.5 13.9422 11.5 13.528C11.5 13.1138 11.1642 12.778 10.75 12.778H8.639C6.35321 12.778 4.5 10.9248 4.5 8.639C4.5 6.35321 6.35321 4.5 8.639 4.5Z" fill="black"/>
<path d="M10.75 3C10.3358 3 10 3.33579 10 3.75V19.75C10 20.1642 10.3358 20.5 10.75 20.5C11.1642 20.5 11.5 20.1642 11.5 19.75V3.75C11.5 3.33579 11.1642 3 10.75 3Z" fill="black"/>
</svg>
