<svg width="24" height="24" viewBox="0 0 24 24" fill="none" xmlns="http://www.w3.org/2000/svg">
<path d="M3 6.25V15.4499C3 17.2448 4.45508 18.6999 6.25 18.6999H10.6805V17.1999H6.25C5.2835 17.1999 4.5 16.4164 4.5 15.4499V6.25C4.5 5.2835 5.2835 4.5 6.25 4.5H13.75C14.7165 4.5 15.5 5.2835 15.5 6.25V9.94671H17V6.25C17 4.45507 15.5449 3 13.75 3H6.25C4.45507 3 3 4.45508 3 6.25Z" fill="black"/>
<path d="M17.9055 10.5215C18.4578 10.5215 18.9055 10.9692 18.9055 11.5215V18.6499C18.9055 19.2021 18.4578 19.6499 17.9055 19.6499H12.5098C11.9575 19.6499 11.5098 19.2021 11.5098 18.6499V11.5215C11.5098 10.9692 11.9575 10.5215 12.5098 10.5215H17.9055ZM12.5098 9.02148C11.1291 9.02148 10.0098 10.1408 10.0098 11.5215V18.6499C10.0098 20.0306 11.1291 21.1499 12.5098 21.1499H17.9055C19.2862 21.1499 20.4055 20.0306 20.4055 18.6499V11.5215C20.4055 10.1408 19.2862 9.02148 17.9055 9.02148H12.5098Z" fill="black"/>
<path d="M6.79492 6.4707C6.79492 6.88492 7.13071 7.2207 7.54492 7.2207H12.4754C12.8896 7.2207 13.2254 6.88492 13.2254 6.4707C13.2254 6.05649 12.8896 5.7207 12.4754 5.7207H7.54492C7.13071 5.7207 6.79492 6.05649 6.79492 6.4707Z" fill="black"/>
<path d="M13.1 12.1504C13.1 12.5094 13.391 12.8004 13.75 12.8004H16.75C17.109 12.8004 17.4 12.5094 17.4 12.1504C17.4 11.7914 17.109 11.5004 16.75 11.5004H13.75C13.391 11.5004 13.1 11.7914 13.1 12.1504Z" fill="black"/>
</svg>
