<svg width="24" height="24" viewBox="0 0 24 24" fill="none" xmlns="http://www.w3.org/2000/svg">
<path d="M16.5716 4.43378L17.7945 5.4568C18.0063 5.63399 18.0344 5.94932 17.8572 6.16113L10.2084 15.3046C9.29967 16.3909 8.06963 17.1412 6.71341 17.4608C6.7884 16.0695 7.30973 14.7262 8.21845 13.6399L15.8673 4.49647C16.0444 4.28467 16.3598 4.2566 16.5716 4.43378ZM18.757 4.30629L17.534 3.28326C16.6868 2.57454 15.4255 2.68681 14.7167 3.53403L7.06794 12.6775C5.60359 14.428 4.95659 16.7205 5.28973 18.9783L5.31286 19.135L5.47119 19.1301C7.75231 19.0593 9.89457 18.0175 11.3589 16.267L18.5575 7.66176L18.6126 7.70785C18.7609 7.83188 18.7805 8.05262 18.6565 8.20088L16.3367 10.9739C16.1064 11.2493 16.1429 11.6592 16.4182 11.8895C16.6936 12.1199 17.1035 12.0834 17.3339 11.808L19.6536 9.035C20.2383 8.33604 20.1457 7.29544 19.4467 6.71074L19.3218 6.60623C19.6479 5.82001 19.4443 4.88128 18.757 4.30629Z" fill="black"/>
</svg>
