<svg width="24" height="24" viewBox="0 0 24 24" fill="none" xmlns="http://www.w3.org/2000/svg">
<path d="M4.0237 19.6635C3.86916 20.3709 4.49438 21.003 5.20344 20.8561L9.56592 19.9528C9.75769 19.913 9.93358 19.8179 10.0718 19.6791L20.2766 9.43048C21.0548 8.64895 21.0535 7.38495 20.2736 6.60509L18.2543 4.58579C17.4721 3.80355 16.2034 3.80491 15.4228 4.58882L14.3541 5.66214L14.3361 5.64407L13.2754 6.70473L13.2957 6.72507L5.03851 15.0178L4.0237 19.6635ZM14.3564 7.78574L17.0828 10.5121L9.11475 18.5144L5.65352 19.2311L6.41049 15.7658L14.3564 7.78574ZM18.1412 9.44921L15.4148 6.7228L16.4858 5.64721C16.6809 5.45123 16.9981 5.45089 17.1936 5.64645L19.2129 7.66575C19.4079 7.86071 19.4082 8.17671 19.2137 8.3721L18.1412 9.44921Z" fill="black"/>
</svg>
