<svg width="24" height="24" viewBox="0 0 24 24" fill="none" xmlns="http://www.w3.org/2000/svg">
<path d="M17.9599 6.23211C18.2262 5.9148 18.1848 5.44174 17.8675 5.17548C17.5502 4.90923 17.0771 4.95062 16.8109 5.26793L6.04316 18.1004C5.7769 18.4177 5.81829 18.8908 6.1356 19.157C6.4529 19.4233 6.92597 19.3819 7.19222 19.0646L17.9599 6.23211ZM7 9.66115C6.17157 9.66115 5.5 8.98958 5.5 8.16115C5.5 7.33272 6.17157 6.66115 7 6.66115C7.82843 6.66115 8.5 7.33272 8.5 8.16115C8.5 8.98958 7.82843 9.66115 7 9.66115ZM7 11.1612C8.65685 11.1612 10 9.81801 10 8.16115C10 6.5043 8.65685 5.16115 7 5.16115C5.34315 5.16115 4 6.5043 4 8.16115C4 9.81801 5.34315 11.1612 7 11.1612ZM17 17.6612C16.1716 17.6612 15.5 16.9896 15.5 16.1612C15.5 15.3327 16.1716 14.6612 17 14.6612C17.8284 14.6612 18.5 15.3327 18.5 16.1612C18.5 16.9896 17.8284 17.6612 17 17.6612ZM17 19.1612C18.6569 19.1612 20 17.818 20 16.1612C20 14.5043 18.6569 13.1612 17 13.1612C15.3431 13.1612 14 14.5043 14 16.1612C14 17.818 15.3431 19.1612 17 19.1612Z" fill="black"/>
</svg>
