<svg width="24" height="24" viewBox="0 0 24 24" fill="none" xmlns="http://www.w3.org/2000/svg">
<path d="M14.7495 2C14.3353 2 13.9995 2.33579 13.9995 2.75V8.75C13.9995 8.85169 14.0198 8.94866 14.0565 9.03709C14.0928 9.12489 14.1465 9.2072 14.2176 9.27874C14.2182 9.27927 14.2187 9.2798 14.2192 9.28033C14.2197 9.28086 14.2203 9.28139 14.2208 9.28192C14.3564 9.41671 14.5432 9.5 14.7495 9.5H20.7495C21.1638 9.5 21.4995 9.16421 21.4995 8.75C21.4995 8.33579 21.1638 8 20.7495 8H16.5602L21.2799 3.28033C21.5728 2.98744 21.5728 2.51256 21.2799 2.21967C20.987 1.92678 20.5121 1.92678 20.2192 2.21967L15.4995 6.93934V2.75C15.4995 2.33579 15.1638 2 14.7495 2ZM8.10663 9.89009L7.93399 9.5165L8.75789 8.6943C9.70245 7.74974 9.74082 6.32556 8.8429 5.42764L7.6699 4.25464C6.596 3.18075 4.85513 3.18075 3.78123 4.25464L3.12923 4.90564C2.21418 5.82069 1.8262 7.13929 2.07257 8.44503C2.61332 11.3053 4.26466 14.2838 6.74023 16.7593C9.21583 19.2349 12.1942 20.8863 15.0542 21.4269C16.3602 21.6734 17.6788 21.2854 18.5939 20.3703L19.2449 19.7193C20.3187 18.6454 20.3187 16.9046 19.2449 15.8307L18.0719 14.6577C17.1929 13.7787 15.7677 13.7787 14.8897 14.6581L13.9869 15.562L13.984 15.5668L13.9933 15.5718C12.7118 15.0058 11.4857 14.1625 10.4107 13.0884C9.44368 12.1214 8.66474 11.0326 8.10663 9.89009ZM6.60923 5.3153L7.78224 6.4883C8.08121 6.78727 8.06841 7.26247 7.69724 7.63364L6.87823 8.45264C6.44362 8.88726 6.3081 9.5455 6.5555 10.1107C7.19676 11.565 8.14507 12.9441 9.35023 14.1493C10.5556 15.3537 11.9355 16.3027 13.3875 16.9441C13.9535 17.1938 14.6127 17.0575 15.0479 16.6223L15.9511 15.718C16.2434 15.4253 16.7182 15.4253 17.0112 15.7183L18.1842 16.8913C18.6723 17.3794 18.6723 18.1706 18.1842 18.6587L17.5332 19.3097C16.9741 19.8688 16.1583 20.1088 15.3326 19.953C12.7801 19.4704 10.0702 17.968 7.8009 15.6987C5.53162 13.4294 4.02912 10.7194 3.54651 8.16665C3.39076 7.34118 3.63079 6.5254 4.1899 5.9663L4.84149 5.31571C5.33 4.82719 6.12113 4.82719 6.60923 5.3153Z" fill="black"/>
</svg>
