<svg width="24" height="24" viewBox="0 0 24 24" fill="none" xmlns="http://www.w3.org/2000/svg">
<path d="M14.7495 3.5H18.9389L14.2192 8.21967C13.9263 8.51256 13.9263 8.98744 14.2192 9.28033C14.5121 9.57322 14.987 9.57322 15.2799 9.28033L19.9995 4.56066V8.75C19.9995 9.16421 20.3353 9.5 20.7495 9.5C21.1638 9.5 21.4995 9.16421 21.4995 8.75V2.75C21.4995 2.73706 21.4992 2.72419 21.4986 2.71141C21.4941 2.62376 21.4746 2.54009 21.4426 2.46291C21.406 2.37445 21.3518 2.29158 21.2799 2.21967C21.208 2.14776 21.1251 2.09351 21.0366 2.05691C20.9482 2.02024 20.8512 2 20.7495 2H14.7495C14.3353 2 13.9995 2.33579 13.9995 2.75C13.9995 3.16421 14.3353 3.5 14.7495 3.5ZM8.10663 9.89009L7.93399 9.5165L8.75789 8.6943C9.70245 7.74974 9.74082 6.32556 8.8429 5.42764L7.6699 4.25464C6.596 3.18075 4.85513 3.18075 3.78123 4.25464L3.12923 4.90564C2.21418 5.82069 1.8262 7.13929 2.07257 8.44503C2.61332 11.3053 4.26466 14.2838 6.74023 16.7593C9.21583 19.2349 12.1942 20.8863 15.0542 21.4269C16.3602 21.6734 17.6788 21.2854 18.5939 20.3703L19.2449 19.7193C20.3187 18.6454 20.3187 16.9046 19.2449 15.8307L18.0719 14.6577C17.1929 13.7787 15.7677 13.7787 14.8897 14.6581L13.9869 15.562L13.984 15.5668L13.9933 15.5718C12.7118 15.0058 11.4857 14.1625 10.4107 13.0884C9.44368 12.1214 8.66474 11.0326 8.10663 9.89009ZM6.60923 5.3153L7.78224 6.4883C8.08121 6.78727 8.06841 7.26247 7.69724 7.63364L6.87823 8.45264C6.44362 8.88726 6.3081 9.5455 6.5555 10.1107C7.19676 11.565 8.14507 12.9441 9.35023 14.1493C10.5556 15.3537 11.9355 16.3027 13.3875 16.9441C13.9535 17.1938 14.6127 17.0575 15.0479 16.6223L15.9511 15.718C16.2434 15.4253 16.7182 15.4253 17.0112 15.7183L18.1842 16.8913C18.6723 17.3794 18.6723 18.1706 18.1842 18.6587L17.5332 19.3097C16.9741 19.8688 16.1583 20.1088 15.3326 19.953C12.7801 19.4704 10.0702 17.968 7.8009 15.6987C5.53162 13.4294 4.02912 10.7194 3.54651 8.16665C3.39076 7.34118 3.63079 6.5254 4.1899 5.9663L4.84149 5.31571C5.33 4.82719 6.12113 4.82719 6.60923 5.3153Z" fill="black"/>
</svg>
