<svg width="24" height="24" viewBox="0 0 24 24" fill="none" xmlns="http://www.w3.org/2000/svg">
<path d="M8.93399 9.06728L9.75789 8.24508C10.7024 7.30053 10.7408 5.87634 9.8429 4.97842L8.6699 3.80542C7.596 2.73153 5.85513 2.73153 4.78123 3.80542L4.12923 4.45642C3.21418 5.37147 2.8262 6.69008 3.07257 7.99581C3.61332 10.8561 5.26466 13.8345 7.74023 16.3101C10.2158 18.7857 13.1942 20.437 16.0542 20.9777C17.3602 21.2241 18.6788 20.8362 19.5939 19.9211L20.2449 19.2701C21.3187 18.1962 21.3187 16.4553 20.2449 15.3814L19.0719 14.2085C18.1929 13.3295 16.7677 13.3295 15.8897 14.2089L14.9869 15.1127L14.984 15.1176L14.9933 15.1226C13.7118 14.5566 12.4857 13.7133 11.4107 12.6392C10.4437 11.6722 9.66474 10.5833 9.10663 9.44088L8.93399 9.06728ZM8.78224 6.03908C9.08121 6.33805 9.06841 6.81325 8.69724 7.18442L7.87823 8.00342C7.44362 8.43804 7.3081 9.09628 7.5555 9.66149C8.19676 11.1158 9.14507 12.4949 10.3502 13.7001C11.5556 14.9045 12.9355 15.8535 14.3875 16.4948C14.9535 16.7446 15.6127 16.6083 16.0479 16.1731L16.9511 15.2688C17.2434 14.9761 17.7182 14.9761 18.0112 15.2691L19.1842 16.4421C19.6723 16.9302 19.6723 17.7213 19.1842 18.2094L18.5332 18.8604C17.9741 19.4196 17.1583 19.6596 16.3326 19.5038C13.7801 19.0212 11.0702 17.5187 8.8009 15.2494C6.53162 12.9802 5.02912 10.2702 4.54651 7.71743C4.39076 6.89196 4.63079 6.07618 5.1899 5.51708L5.84149 4.86649C6.33 4.37797 7.12113 4.37797 7.60923 4.86608L8.78224 6.03908ZM15.0699 3.86908C14.777 3.57619 14.3021 3.57619 14.0092 3.86908C13.7163 4.16198 13.7163 4.63685 14.0092 4.92974L15.7091 6.62967L14.0092 8.32959C13.7163 8.62248 13.7163 9.09735 14.0092 9.39025C14.3021 9.68314 14.777 9.68314 15.0699 9.39025L16.7698 7.69033L18.4697 9.39025C18.7626 9.68314 19.2375 9.68314 19.5304 9.39025C19.8233 9.09735 19.8233 8.62248 19.5304 8.32959L17.8305 6.62967L19.5304 4.92974C19.8233 4.63685 19.8233 4.16198 19.5304 3.86908C19.2375 3.57619 18.7626 3.57619 18.4697 3.86908L16.7698 5.56901L15.0699 3.86908Z" fill="black"/>
</svg>
