<svg width="24" height="24" viewBox="0 0 24 24" fill="none" xmlns="http://www.w3.org/2000/svg">
<path d="M12.7298 2C12.3156 2 11.9798 2.33579 11.9798 2.75C11.9798 3.16421 12.3156 3.5 12.7298 3.5C14.588 3.5 16.4449 4.20785 17.8638 5.62318C17.866 5.62544 17.8682 5.6277 17.8704 5.62994C19.2901 7.04961 20.0001 8.90933 20.0001 10.7704C20.0001 11.1846 20.3359 11.5204 20.7501 11.5204C21.1643 11.5204 21.5001 11.1846 21.5001 10.7704C21.5001 8.53071 20.6456 6.28766 18.9382 4.57641C18.9358 4.57393 18.9334 4.57148 18.9309 4.56903C17.2188 2.85688 14.9726 2 12.7298 2ZM8.10663 9.89009L7.93399 9.5165L8.75789 8.6943C9.70245 7.74974 9.74082 6.32556 8.8429 5.42764L7.6699 4.25464C6.596 3.18075 4.85513 3.18075 3.78123 4.25464L3.12923 4.90564C2.21418 5.82069 1.8262 7.13929 2.07257 8.44503C2.61332 11.3053 4.26466 14.2838 6.74023 16.7593C9.21583 19.2349 12.1942 20.8863 15.0542 21.4269C16.3602 21.6734 17.6788 21.2854 18.5939 20.3703L19.2449 19.7193C20.3187 18.6454 20.3187 16.9046 19.2449 15.8307L18.0719 14.6577C17.1929 13.7787 15.7677 13.7787 14.8897 14.6581L13.9869 15.562L13.984 15.5668L13.9933 15.5718C12.7118 15.0058 11.4857 14.1625 10.4107 13.0884C9.44368 12.1214 8.66474 11.0326 8.10663 9.89009ZM6.60923 5.3153L7.78224 6.4883C8.08121 6.78727 8.06841 7.26247 7.69724 7.63364L6.87823 8.45264C6.44362 8.88726 6.3081 9.5455 6.5555 10.1107C7.19676 11.565 8.14507 12.9441 9.35023 14.1493C10.5556 15.3537 11.9355 16.3027 13.3875 16.9441C13.9535 17.1938 14.6127 17.0575 15.0479 16.6223L15.9511 15.718C16.2434 15.4253 16.7182 15.4253 17.0112 15.7183L18.1842 16.8913C18.6723 17.3794 18.6723 18.1706 18.1842 18.6587L17.5332 19.3097C16.9741 19.8688 16.1583 20.1088 15.3326 19.953C12.7801 19.4704 10.0702 17.968 7.8009 15.6987C5.53162 13.4294 4.02912 10.7194 3.54651 8.16665C3.39076 7.34118 3.63079 6.5254 4.1899 5.9663L4.84149 5.31571C5.33 4.82719 6.12113 4.82719 6.60923 5.3153ZM12.74 7.51886C13.5729 7.50755 14.4044 7.81387 15.0382 8.44242L15.0479 8.45221C15.6829 9.0872 15.9923 9.92296 15.981 10.7601C15.9754 11.1742 16.3066 11.5146 16.7207 11.5202C17.1349 11.5258 17.4752 11.1946 17.4808 10.7804C17.4974 9.56465 17.0482 8.33763 16.1201 7.40317L16.1085 7.39132C15.1726 6.45542 13.9404 6.00242 12.7196 6.01899C12.3054 6.02462 11.9742 6.36493 11.9799 6.77911C11.9855 7.19328 12.3258 7.52448 12.74 7.51886Z" fill="black"/>
</svg>
