<svg width="24" height="24" viewBox="0 0 24 24" fill="none" xmlns="http://www.w3.org/2000/svg">
<path d="M4.26281 14.0499C5.19871 13.2426 6.61353 13.283 7.50042 14.1714L8.48236 15.1545L8.50729 15.1727C8.52397 15.1812 8.53971 15.1826 8.54825 15.1789C9.32675 14.835 10.0864 14.3977 10.8093 13.8757L11.8819 14.9489C11.0169 15.5953 10.0996 16.1335 9.15415 16.5511C8.564 16.8116 7.87588 16.6693 7.4214 16.2148L6.439 15.2313L6.34892 15.1525C6.00403 14.8897 5.5088 14.916 5.19316 15.2316L3.91748 16.5074L3.81964 16.6156C3.36304 17.1754 3.39565 18.0007 3.91743 18.5224L4.62546 19.2305L4.76338 19.3586C5.37908 19.8901 6.22401 20.1093 7.07743 19.9482C9.28094 19.5317 11.5903 18.4205 13.6842 16.751L14.7502 17.8187C12.4364 19.6946 9.85368 20.95 7.35583 21.4221C5.95652 21.6863 4.54444 21.2708 3.5648 20.2911L2.8568 19.5831L2.72519 19.4427C1.71622 18.2938 1.76009 16.5433 2.85683 15.4467L4.13248 14.171L4.26281 14.0499ZM15.5861 2.72513L15.4457 2.85673L14.1699 4.13248C13.2609 5.0415 13.2585 6.46016 14.1371 7.45887L14.2624 7.59237L15.1531 8.48311C15.1771 8.50711 15.1832 8.53699 15.1777 8.54962C14.653 9.73965 13.91 10.8846 12.9788 11.9219L5.28053 4.21984C4.98774 3.92685 4.51287 3.9267 4.21988 4.21949C3.95352 4.48567 3.92918 4.90232 4.14693 5.19601L4.21952 5.28015L19.2195 20.2902C19.5123 20.5831 19.9872 20.5833 20.2802 20.2905C20.5465 20.0243 20.5709 19.6077 20.3531 19.314L20.2805 19.2298L16.8811 15.8281C19.2772 13.2569 20.8752 10.2494 21.4223 7.35553C21.6707 6.03875 21.3173 4.71045 20.4581 3.74202L20.2911 3.56475L19.582 2.85673C18.4854 1.76012 16.735 1.71625 15.5861 2.72513ZM18.4135 3.8199L18.5218 3.9178L19.2305 4.62541C19.8542 5.24908 20.1217 6.15833 19.9483 7.07716C19.4585 9.66801 18.0087 12.4048 15.8204 14.766L14.0406 12.9842C15.1026 11.8138 15.9511 10.5136 16.551 9.15297C16.7892 8.60879 16.687 7.98145 16.3129 7.53118L16.2138 7.42245L15.323 6.53171C14.9272 6.1359 14.8839 5.62967 15.156 5.27775L15.2306 5.19314L16.5063 3.91739C17.0281 3.39565 17.8535 3.36304 18.4135 3.8199Z" fill="black"/>
</svg>
