<svg width="24" height="24" viewBox="0 0 24 24" fill="none" xmlns="http://www.w3.org/2000/svg">
<path d="M4.42446 3.37043L3.72065 4.07316C2.73144 5.06236 2.31221 6.48717 2.57843 7.89805C3.16258 10.9878 4.94641 14.2053 7.62058 16.8795C10.2948 19.5536 13.5123 21.3375 16.6017 21.9216C18.0128 22.1878 19.4376 21.7686 20.4264 20.7799L21.1297 20.0766C22.2901 18.9162 22.2901 17.0351 21.13 15.8734L19.8626 14.606L19.723 14.4767C18.7671 13.6582 17.3269 13.7013 16.4232 14.6065L15.444 15.5853L15.4818 15.6035C14.0898 14.9939 12.7566 14.0791 11.5888 12.9113L11.2476 12.5577C10.3581 11.6023 9.63229 10.5483 9.09609 9.44934L8.91357 9.05593L9.80219 8.16813C10.8231 7.14727 10.8645 5.60795 9.89401 4.63743L8.62701 3.37043C7.46643 2.20986 5.58503 2.20986 4.42446 3.37043ZM7.47909 4.51835L8.74609 5.78535C9.06838 6.10764 9.05458 6.61991 8.65427 7.02021L7.76208 7.9124C7.29566 8.37882 7.15038 9.08587 7.41911 9.69152C8.11016 11.2611 9.13693 12.7553 10.4408 14.0592C11.7508 15.3692 13.2521 16.3994 14.8293 17.0901C15.4238 17.3516 16.1177 17.2079 16.5757 16.7498L17.5717 15.7539C17.887 15.4381 18.3988 15.4381 18.7147 15.754L19.9817 17.0209C20.5083 17.5483 20.5083 18.4021 19.9817 18.9287L19.2785 19.632C18.675 20.2354 17.7943 20.4945 16.9029 20.3264C14.1464 19.8052 11.2195 18.1824 8.7685 15.7315C6.3176 13.2806 4.69486 10.3537 4.17363 7.59676C4.00549 6.70566 4.2646 5.82505 4.86768 5.22197L5.57194 4.51879C6.09897 3.99176 6.95249 3.99176 7.47909 4.51835Z" fill="black"/>
</svg>
