<svg width="24" height="24" viewBox="0 0 24 24" fill="none" xmlns="http://www.w3.org/2000/svg">
<path d="M11.5 14.5C8.18629 14.5 5.5 11.8137 5.5 8.5C5.5 5.18629 8.18629 2.5 11.5 2.5C14.8137 2.5 17.5 5.18629 17.5 8.5C17.5 11.8137 14.8137 14.5 11.5 14.5ZM11.5 16C15.6421 16 19 12.6421 19 8.5C19 4.35786 15.6421 1 11.5 1C7.35786 1 4 4.35786 4 8.5C4 12.6421 7.35786 16 11.5 16ZM11.3189 5.38601L10.4638 7.20773C10.4355 7.26804 10.379 7.3103 10.3131 7.32042L8.38443 7.61685C8.22358 7.64157 8.15802 7.83781 8.27171 7.95425L9.67943 9.39601C9.72379 9.44145 9.74394 9.50525 9.73372 9.56793L9.40329 11.5938C9.37641 11.7586 9.55135 11.8818 9.69746 11.801L11.4032 10.8577C11.4634 10.8244 11.5365 10.8244 11.5968 10.8577L13.3025 11.801C13.4486 11.8818 13.6235 11.7586 13.5967 11.5938L13.2662 9.56793C13.256 9.50525 13.2762 9.44145 13.3205 9.39601L14.7282 7.95425C14.8419 7.83781 14.7764 7.64157 14.6155 7.61685L12.6868 7.32042C12.621 7.3103 12.5645 7.26804 12.5362 7.20773L11.681 5.38601C11.609 5.23266 11.3909 5.23266 11.3189 5.38601ZM10.5996 17C10.5996 17 11.0914 17.1312 11.5832 17.1312C12.075 17.1312 12.5668 17 12.5668 17V20.2623L11.5832 22.2295L10.5996 20.2623V17Z" fill="black"/>
</svg>
