<svg width="24" height="24" viewBox="0 0 24 24" fill="none" xmlns="http://www.w3.org/2000/svg">
<path d="M11.5 14.5C8.18629 14.5 5.5 11.8137 5.5 8.5C5.5 5.18629 8.18629 2.5 11.5 2.5C14.8137 2.5 17.5 5.18629 17.5 8.5C17.5 11.8137 14.8137 14.5 11.5 14.5ZM11.5 16C15.6421 16 19 12.6421 19 8.5C19 4.35786 15.6421 1 11.5 1C7.35786 1 4 4.35786 4 8.5C4 12.6421 7.35786 16 11.5 16ZM10.5996 20.5784L11.5832 22.23L12.5668 20.5784V17C12.5668 17 12.075 17.1101 11.5832 17.1101C11.0914 17.1101 10.5996 17 10.5996 17V20.5784ZM8.10039 8.14172C8.10039 6.5718 9.37307 5.29912 10.943 5.29912C11.2744 5.29912 11.543 5.03049 11.543 4.69912C11.543 4.36775 11.2744 4.09912 10.943 4.09912C8.71032 4.09912 6.90039 5.90906 6.90039 8.14172C6.90039 8.47309 7.16902 8.74172 7.50039 8.74172C7.83176 8.74172 8.10039 8.47309 8.10039 8.14172Z" fill="black"/>
</svg>
