<svg width="24" height="24" viewBox="0 0 24 24" fill="none" xmlns="http://www.w3.org/2000/svg">
<path d="M11.8833 5.5C14.0508 5.5 16.1271 5.87914 18.0542 6.57119L17.4598 7.73892C15.7043 7.16197 13.8295 6.84975 11.883 6.84975C9.93639 6.84975 8.06202 7.16201 6.30679 7.73898L5.71232 6.57119C7.63941 5.87914 9.71574 5.5 11.8833 5.5ZM16.7705 9.09305L11.8833 18.6935L6.99611 9.0931C8.53858 8.61037 10.1795 8.34975 11.883 8.34975C13.5864 8.34975 15.2278 8.61037 16.7705 9.09305ZM4.10896 6.72796L10.9921 20.2494C11.3629 20.9778 12.4036 20.9778 12.7745 20.2494L19.6576 6.72796C19.9153 6.22165 19.7008 5.60017 19.1727 5.39056C16.9167 4.49504 14.4581 4 11.8833 4C9.30841 4 6.84989 4.49504 4.59385 5.39056C4.06579 5.60017 3.85122 6.22165 4.10896 6.72796ZM11.5137 10.6697L10.6137 9.76968C10.3208 9.47679 9.84591 9.47679 9.55302 9.76968C9.26013 10.0626 9.26013 10.5374 9.55302 10.8303L10.453 11.7303C10.7459 12.0232 11.2208 12.0232 11.5137 11.7303C11.8066 11.4374 11.8066 10.9626 11.5137 10.6697ZM12.4137 15.3303L13.3137 14.4303C13.6066 14.1374 13.6066 13.6626 13.3137 13.3697C13.0208 13.0768 12.5459 13.0768 12.253 13.3697L11.353 14.2697C11.0601 14.5626 11.0601 15.0374 11.353 15.3303C11.6459 15.6232 12.1208 15.6232 12.4137 15.3303Z" fill="black"/>
</svg>
