<svg width="24" height="24" viewBox="0 0 24 24" fill="none" xmlns="http://www.w3.org/2000/svg">
<path d="M10.2503 14.9869C8.49904 14.3673 7.25 12.703 7.25 10.75V6.75H5.75V10.75C5.75 13.361 7.421 15.577 9.75 16.401V17.75C9.75 18.3023 10.1977 18.75 10.75 18.75H12.75C13.3023 18.75 13.75 18.3023 13.75 17.75V16.401C16.079 15.577 17.75 13.361 17.75 10.75V6.75H16.25V10.75C16.25 12.703 15.001 14.3673 13.2497 14.9869C12.6505 15.1989 12.25 15.7654 12.25 16.401V17.25H11.25V16.401C11.25 15.7654 10.8495 15.1989 10.2503 14.9869Z" fill="black"/>
<path d="M7.75 2C7.33579 2 7 2.33579 7 2.75V6.75C7 7.16421 7.33579 7.5 7.75 7.5C8.16421 7.5 8.5 7.16421 8.5 6.75V2.75C8.5 2.33579 8.16421 2 7.75 2Z" fill="black"/>
<path d="M15.75 2C15.3358 2 15 2.33579 15 2.75V6.75C15 7.16421 15.3358 7.5 15.75 7.5C16.1642 7.5 16.5 7.16421 16.5 6.75V2.75C16.5 2.33579 16.1642 2 15.75 2Z" fill="black"/>
<path d="M10 20.75C10 21.1642 10.3358 21.5 10.75 21.5H12.75C13.1642 21.5 13.5 21.1642 13.5 20.75C13.5 20.3358 13.1642 20 12.75 20H10.75C10.3358 20 10 20.3358 10 20.75Z" fill="black"/>
<path d="M4 6.75C4 7.16421 4.33579 7.5 4.75 7.5H18.75C19.1642 7.5 19.5 7.16421 19.5 6.75C19.5 6.33579 19.1642 6 18.75 6H4.75C4.33579 6 4 6.33579 4 6.75Z" fill="black"/>
</svg>
