<svg width="24" height="24" viewBox="0 0 24 24" fill="none" xmlns="http://www.w3.org/2000/svg">
<path d="M6.75 2C4.12665 2 2 4.12665 2 6.75V11.75C2 17.1352 6.36479 21.5 11.75 21.5C17.1352 21.5 21.5 17.1352 21.5 11.75V6.75C21.5 4.12665 19.3734 2 16.75 2H6.75ZM3.5 6.75C3.5 4.95507 4.95507 3.5 6.75 3.5H16.75C18.5449 3.5 20 4.95507 20 6.75V11.75C20 16.3068 16.3068 20 11.75 20C7.19321 20 3.5 16.3068 3.5 11.75V6.75ZM11.75 12.6893L7.28033 8.21967C6.98744 7.92678 6.51256 7.92678 6.21967 8.21967C5.92678 8.51256 5.92678 8.98744 6.21967 9.28033L11.2197 14.2803C11.5126 14.5732 11.9874 14.5732 12.2803 14.2803L17.2803 9.28033C17.5732 8.98744 17.5732 8.51256 17.2803 8.21967C16.9874 7.92678 16.5126 7.92678 16.2197 8.21967L11.75 12.6893Z" fill="black"/>
</svg>
