<svg width="24" height="24" viewBox="0 0 24 24" fill="none" xmlns="http://www.w3.org/2000/svg">
<path d="M19.5 17C19.5 18.3807 18.3807 19.5 17 19.5H7C5.61929 19.5 4.5 18.3807 4.5 17V7C4.5 5.61929 5.61929 4.5 7 4.5H17C18.3807 4.5 19.5 5.61929 19.5 7V17ZM21 7C21 4.79086 19.2091 3 17 3H7C4.79086 3 3 4.79086 3 7V17C3 19.2091 4.79086 21 7 21H17C19.2091 21 21 19.2091 21 17V7Z" fill="black"/>
<path d="M17.75 12C17.75 11.5858 17.4142 11.25 17 11.25H7C6.58579 11.25 6.25 11.5858 6.25 12C6.25 12.4142 6.58579 12.75 7 12.75H17C17.4142 12.75 17.75 12.4142 17.75 12Z" fill="black"/>
<path d="M13.75 8C13.75 7.58579 13.4142 7.25 13 7.25H7C6.58579 7.25 6.25 7.58579 6.25 8C6.25 8.41421 6.58579 8.75 7 8.75H13C13.4142 8.75 13.75 8.41421 13.75 8Z" fill="black"/>
<path d="M10.75 16C10.75 15.5858 10.4142 15.25 10 15.25H7C6.58579 15.25 6.25 15.5858 6.25 16C6.25 16.4142 6.58579 16.75 7 16.75H10C10.4142 16.75 10.75 16.4142 10.75 16Z" fill="black"/>
</svg>
