<svg width="24" height="24" viewBox="0 0 24 24" fill="none" xmlns="http://www.w3.org/2000/svg">
<path d="M17 4.5C18.3807 4.5 19.5 5.61929 19.5 7V17C19.5 18.3807 18.3807 19.5 17 19.5H7C5.61929 19.5 4.5 18.3807 4.5 17V7C4.5 5.61929 5.61929 4.5 7 4.5H17ZM7 3C4.79086 3 3 4.79086 3 7V17C3 19.2091 4.79086 21 7 21H17C19.2091 21 21 19.2091 21 17V7C21 4.79086 19.2091 3 17 3H7Z" fill="black"/>
<path d="M12 6.25C11.5858 6.25 11.25 6.58579 11.25 7V17C11.25 17.4142 11.5858 17.75 12 17.75C12.4142 17.75 12.75 17.4142 12.75 17V7C12.75 6.58579 12.4142 6.25 12 6.25Z" fill="black"/>
<path d="M8 10.25C7.58579 10.25 7.25 10.5858 7.25 11V17C7.25 17.4142 7.58579 17.75 8 17.75C8.41421 17.75 8.75 17.4142 8.75 17V11C8.75 10.5858 8.41421 10.25 8 10.25Z" fill="black"/>
<path d="M16 13.25C15.5858 13.25 15.25 13.5858 15.25 14V17C15.25 17.4142 15.5858 17.75 16 17.75C16.4142 17.75 16.75 17.4142 16.75 17V14C16.75 13.5858 16.4142 13.25 16 13.25Z" fill="black"/>
</svg>
