<svg width="24" height="24" viewBox="0 0 24 24" fill="none" xmlns="http://www.w3.org/2000/svg">
<path d="M6.60503 6.39062C6.30951 6.10038 5.83465 6.10466 5.54441 6.40018C2.15134 9.85497 2.15194 15.4499 5.54575 18.9039C8.94683 22.3654 14.4663 22.3654 17.8673 18.9039C21.2612 15.4499 21.2618 9.85497 17.8687 6.40018C17.5784 6.10466 17.1036 6.10038 16.8081 6.39062C16.5125 6.68086 16.5083 7.15572 16.7985 7.45124C19.6184 10.3224 19.6179 14.9821 16.7974 17.8526C13.9842 20.7158 9.42893 20.7158 6.6157 17.8526C3.7952 14.9821 3.7947 10.3224 6.61459 7.45124C6.90483 7.15572 6.90055 6.68086 6.60503 6.39062Z" fill="black"/>
<path d="M11.7109 2C11.2967 2 10.9609 2.33579 10.9609 2.75V11.7485C10.9609 12.1627 11.2967 12.4985 11.7109 12.4985C12.1252 12.4985 12.4609 12.1627 12.4609 11.7485V2.75C12.4609 2.33579 12.1252 2 11.7109 2Z" fill="black"/>
</svg>
