<svg width="24" height="24" viewBox="0 0 24 24" fill="none" xmlns="http://www.w3.org/2000/svg">
<path d="M15.3996 3H8.59961C7.49504 3 6.59961 3.89543 6.59961 5V9.2998H4.8C3.80589 9.2998 3 10.1057 3 11.0998V15.5998C3 16.5939 3.80589 17.3998 4.8 17.3998H6.59961V18.9998C6.59961 20.1044 7.49504 20.9998 8.59961 20.9998H15.3996C16.5042 20.9998 17.3996 20.1044 17.3996 18.9998V17.3998H19.2C20.1941 17.3998 21 16.5939 21 15.5998V11.0998C21 10.1057 20.1941 9.2998 19.2 9.2998H17.3996V5C17.3996 3.89543 16.5042 3 15.3996 3ZM8.09961 5C8.09961 4.72386 8.32347 4.5 8.59961 4.5H15.3996C15.6758 4.5 15.8996 4.72386 15.8996 5V9.2998H8.09961V5ZM8.59961 19.4998C8.32347 19.4998 8.09961 19.2759 8.09961 18.9998V17.3998C8.09961 17.3962 8.09999 17.3926 8.09996 17.389C8.09991 17.3811 8.09979 17.3731 8.09961 17.3652V15.2998H15.8996V18.9998C15.8996 19.2759 15.6757 19.4998 15.3996 19.4998H8.59961ZM6.79961 13.7998C6.68915 13.7998 6.59961 13.8893 6.59961 13.9998V15.8998H4.8C4.63431 15.8998 4.5 15.7655 4.5 15.5998V11.0998C4.5 10.9341 4.63431 10.7998 4.8 10.7998H19.2C19.3657 10.7998 19.5 10.9341 19.5 11.0998V15.5998C19.5 15.7655 19.3657 15.8998 19.2 15.8998H17.4L17.3996 13.9998C17.3996 13.8893 17.3101 13.7998 17.1996 13.7998H6.79961Z" fill="black"/>
</svg>
