<svg width="24" height="24" viewBox="0 0 24 24" fill="none" xmlns="http://www.w3.org/2000/svg">
<path d="M12.7988 2.69861C13.0798 2.8478 13.3069 3.0708 13.4564 3.33757L22.3008 19.1203C22.725 19.8772 22.4515 20.843 21.6432 21.2721C21.3994 21.4016 21.1246 21.4702 20.844 21.4702H3.15525C2.21478 21.4702 1.5 20.731 1.5 19.8767C1.5 19.6138 1.56764 19.3537 1.69844 19.1203L10.5428 3.33757C10.9731 2.56971 11.9809 2.26436 12.7988 2.69861ZM9.2343 2.60428L0.389899 18.387C0.134227 18.8433 0 19.3556 0 19.8767C0 21.5904 1.41764 22.9702 3.15525 22.9702H20.844C21.3686 22.9702 21.885 22.842 22.3466 22.597C23.883 21.7813 24.4535 19.8933 23.6094 18.387L14.765 2.60428C14.473 2.0832 14.0344 1.65628 13.5022 1.37375C11.9788 0.564936 10.0711 1.11109 9.2343 2.60428ZM11.8444 18.2499C12.3615 18.2499 12.7807 17.8308 12.7807 17.3137C12.7807 16.7966 12.3615 16.3774 11.8444 16.3774C11.3274 16.3774 10.9082 16.7966 10.9082 17.3137C10.9082 17.8308 11.3274 18.2499 11.8444 18.2499ZM11.3692 10.2168C11.5006 10.0874 11.6833 10 11.9898 10C12.139 10 12.2652 10.0227 12.3742 10.0615C12.4856 10.1011 12.574 10.1542 12.647 10.2187C12.7112 10.2753 12.7678 10.3492 12.8144 10.4517C12.8447 10.5183 12.8714 10.6275 12.8787 10.8245C12.888 11.0742 12.7872 11.405 12.4189 11.8321C12.3349 11.9133 12.2208 12.0325 12.1251 12.1328L12.0468 12.2151C11.9609 12.3054 11.8899 12.38 11.8474 12.4225C11.6808 12.5892 11.5334 12.7739 11.4049 12.975C11.2621 13.1985 11.1553 13.4424 11.0805 13.7015C11.0007 13.9775 10.9658 14.2698 10.9658 14.5716V14.7682C10.9658 15.1824 11.3016 15.5182 11.7158 15.5182C12.13 15.5182 12.4658 15.1824 12.4658 14.7682V14.5716C12.4658 14.3841 12.4877 14.2351 12.5215 14.1178C12.5603 13.9837 12.6107 13.8738 12.669 13.7826C12.7414 13.6692 12.8213 13.5699 12.9081 13.4832C12.9652 13.426 13.0557 13.3309 13.1441 13.2379L13.2109 13.1677C13.3304 13.0424 13.4275 12.9421 13.4733 12.8993L13.5006 12.8739L13.5251 12.8459C14.0664 12.2296 14.406 11.5318 14.3777 10.7688C14.3669 10.4777 14.3244 10.1488 14.1799 9.83095C14.0517 9.54895 13.8724 9.29949 13.6395 9.09395C13.4154 8.89627 13.1586 8.74841 12.8768 8.6482C12.5926 8.54717 12.295 8.5 11.9898 8.5C11.3526 8.5 10.7706 8.70095 10.3166 9.14824C9.89809 9.56048 9.65024 10.0793 9.558 10.6673C9.49381 11.0766 9.7735 11.4603 10.1827 11.5245C10.5919 11.5887 10.9757 11.309 11.0399 10.8998C11.0874 10.5965 11.2022 10.3813 11.3692 10.2168Z" fill="black"/>
</svg>
