<svg width="24" height="24" viewBox="0 0 24 24" fill="none" xmlns="http://www.w3.org/2000/svg">
<path d="M13.1157 18.6948C13.1157 18.0844 12.6209 17.5895 12.0105 17.5895C11.4001 17.5895 10.9052 18.0844 10.9052 18.6948C10.9052 19.3052 11.4001 19.8 12.0105 19.8C12.6209 19.8 13.1157 19.3052 13.1157 18.6948ZM11.2177 7.05075C11.5064 6.7664 11.8952 6.6 12.4615 6.6C12.7359 6.6 12.978 6.64198 13.1941 6.71882C13.4127 6.79653 13.5945 6.90417 13.7478 7.03944C13.8916 7.16632 14.0118 7.32712 14.1058 7.53397C14.1825 7.70256 14.2286 7.93017 14.241 8.26417C14.2604 8.78712 14.0416 9.40226 13.4134 10.1263C13.2889 10.2456 13.1088 10.4335 12.95 10.6001L12.8299 10.7263C12.6937 10.8694 12.5771 10.992 12.5065 11.0626C12.2644 11.3047 12.0496 11.5738 11.8616 11.8681C11.6583 12.1863 11.5045 12.5362 11.3958 12.9124C11.282 13.3065 11.2303 13.7302 11.2303 14.1763V14.4857C11.2303 14.9276 11.5885 15.2857 12.0303 15.2857C12.4721 15.2857 12.8303 14.9276 12.8303 14.4857V14.1763C12.8303 13.8521 12.868 13.5813 12.933 13.3564C13.0031 13.1136 13.0968 12.9065 13.2099 12.7295C13.3382 12.5287 13.481 12.3508 13.6378 12.194C13.7241 12.1077 13.8615 11.9633 14.0003 11.8174L14.1082 11.704C14.2933 11.5098 14.4549 11.3425 14.537 11.2658L14.5661 11.2387L14.5923 11.2089C15.4047 10.2839 15.8797 9.27672 15.8399 8.2048C15.8238 7.77036 15.7609 7.30846 15.5624 6.87188C15.3814 6.47354 15.1302 6.12544 14.8064 5.8397C14.4921 5.56234 14.1305 5.35364 13.7302 5.21128C13.3273 5.06805 12.9024 5 12.4615 5C11.5425 5 10.7278 5.28749 10.0949 5.91091C9.5 6.49692 9.14364 7.23655 9.00978 8.08988C8.94131 8.52637 9.23965 8.93572 9.67614 9.00419C10.1126 9.07266 10.522 8.77432 10.5905 8.33783C10.6767 7.78824 10.8911 7.37251 11.2177 7.05075Z" fill="black"/>
</svg>
