<svg width="24" height="24" viewBox="0 0 24 24" fill="none" xmlns="http://www.w3.org/2000/svg">
<path d="M16.895 4.00691C16.3257 3.36644 15.5097 3 14.6528 3H7.5C5.567 3 4 4.567 4 6.5V17.5C4 19.433 5.567 21 7.5 21H16.5C18.433 21 20 19.433 20 17.5V8.6406C20 7.90586 19.7304 7.19666 19.2422 6.64751L16.895 4.00691ZM15.7739 5.00345L18.1211 7.64405C18.1514 7.67817 18.1801 7.71353 18.207 7.75H15.5C15.3619 7.75 15.25 7.63807 15.25 7.5V4.62401C15.448 4.70994 15.6273 4.83852 15.7739 5.00345ZM13.75 4.5V7.5C13.75 8.4665 14.5335 9.25 15.5 9.25H18.5V17.5C18.5 18.6046 17.6046 19.5 16.5 19.5H7.5C6.39543 19.5 5.5 18.6046 5.5 17.5V6.5C5.5 5.39543 6.39543 4.5 7.5 4.5H13.75ZM11.989 10.183C10.7796 10.183 9.7998 11.1628 9.7998 12.3722C9.7998 12.7311 10.0908 13.0222 10.4498 13.0222C10.8088 13.0222 11.0998 12.7311 11.0998 12.3722C11.0998 11.8807 11.4976 11.483 11.989 11.483C12.4804 11.483 12.8782 11.8807 12.8782 12.3722C12.8782 12.5314 12.8334 12.6346 12.7681 12.7227C12.692 12.8253 12.5754 12.9234 12.4041 13.0389C11.9728 13.3287 11.339 13.8393 11.339 14.8094V15.0018C11.339 15.3608 11.63 15.6518 11.989 15.6518C12.348 15.6518 12.639 15.3608 12.639 15.0018V14.8094C12.639 14.6435 12.6857 14.5354 12.754 14.4434C12.833 14.3369 12.9538 14.2357 13.1296 14.1176L13.1303 14.1171C13.5517 13.8331 14.1782 13.3295 14.1782 12.3722C14.1782 11.1628 13.1984 10.183 11.989 10.183ZM11.9996 17.6486C12.3586 17.6486 12.6496 17.3576 12.6496 16.9986C12.6496 16.6396 12.3586 16.3486 11.9996 16.3486C11.6406 16.3486 11.3496 16.6396 11.3496 16.9986C11.3496 17.3576 11.6406 17.6486 11.9996 17.6486Z" fill="black"/>
</svg>
