<svg width="24" height="24" viewBox="0 0 24 24" fill="none" xmlns="http://www.w3.org/2000/svg">
<path d="M18.499 4.33405C18.2693 3.98941 17.8036 3.89628 17.459 4.12604C16.0579 5.06007 14.959 5.85815 14.2745 7.22717C13.6037 8.5687 13.375 10.3653 13.375 13.1876V17.8751C13.375 18.8068 14.1308 19.5626 15.0625 19.5626H18.8125C19.7442 19.5626 20.5 18.8068 20.5 17.8751V14.1251C20.5 13.1934 19.7442 12.4376 18.8125 12.4376H14.8813C14.922 10.1123 15.1617 8.8068 15.6161 7.89799C16.1035 6.92326 16.8796 6.31509 18.291 5.37412C18.6357 5.14435 18.7288 4.6787 18.499 4.33405ZM14.875 13.9376H18.8125C18.9158 13.9376 19 14.0218 19 14.1251V17.8751C19 17.9784 18.9158 18.0626 18.8125 18.0626H15.0625C14.9592 18.0626 14.875 17.9784 14.875 17.8751V13.9376Z" fill="black"/>
<path d="M9.12404 4.33405C8.89427 3.98941 8.42862 3.89628 8.08397 4.12604C6.68294 5.06007 5.584 5.85815 4.89949 7.22717C4.22873 8.5687 4 10.3653 4 13.1876V17.8751C4 18.8068 4.75579 19.5626 5.6875 19.5626H9.4375C10.3692 19.5626 11.125 18.8068 11.125 17.8751V14.1251C11.125 13.1934 10.3692 12.4376 9.4375 12.4376H5.50627C5.54701 10.1123 5.78673 8.8068 6.24113 7.89799C6.7285 6.92326 7.50456 6.31509 8.91603 5.37412C9.26067 5.14435 9.3538 4.6787 9.12404 4.33405ZM5.5 13.9376H9.4375C9.54079 13.9376 9.625 14.0218 9.625 14.1251V17.8751C9.625 17.9784 9.54079 18.0626 9.4375 18.0626H5.6875C5.58421 18.0626 5.5 17.9784 5.5 17.8751V13.9376Z" fill="black"/>
</svg>
