<svg width="24" height="24" viewBox="0 0 24 24" fill="none" xmlns="http://www.w3.org/2000/svg">
<path d="M6.00096 19.2285C6.23073 19.5732 6.69638 19.6663 7.04103 19.4365C8.44206 18.5025 9.541 17.7044 10.2255 16.3354C10.8963 14.9939 11.125 13.1973 11.125 10.375V5.6875C11.125 4.75579 10.3692 4 9.4375 4H5.6875C4.75579 4 4 4.75579 4 5.6875V9.4375C4 10.3692 4.75579 11.125 5.6875 11.125H9.61873C9.57799 13.4503 9.33827 14.7558 8.88387 15.6646C8.3965 16.6393 7.62044 17.2475 6.20897 18.1885C5.86433 18.4182 5.7712 18.8839 6.00096 19.2285ZM9.625 9.625H5.6875C5.58421 9.625 5.5 9.54079 5.5 9.4375V5.6875C5.5 5.58421 5.58421 5.5 5.6875 5.5H9.4375C9.54079 5.5 9.625 5.58421 9.625 5.6875V9.625Z" fill="black"/>
<path d="M15.376 19.2285C15.6057 19.5732 16.0714 19.6663 16.416 19.4365C17.8171 18.5025 18.916 17.7044 19.6005 16.3354C20.2713 14.9939 20.5 13.1973 20.5 10.375V5.6875C20.5 4.75579 19.7442 4 18.8125 4H15.0625C14.1308 4 13.375 4.75579 13.375 5.6875V9.4375C13.375 10.3692 14.1308 11.125 15.0625 11.125H18.9937C18.953 13.4503 18.7133 14.7558 18.2589 15.6646C17.7715 16.6393 16.9954 17.2475 15.584 18.1885C15.2393 18.4182 15.1462 18.8839 15.376 19.2285ZM19 9.625H15.0625C14.9592 9.625 14.875 9.54079 14.875 9.4375V5.6875C14.875 5.58421 14.9592 5.5 15.0625 5.5H18.8125C18.9158 5.5 19 5.58421 19 5.6875V9.625Z" fill="black"/>
</svg>
