<svg width="24" height="24" viewBox="0 0 24 24" fill="none" xmlns="http://www.w3.org/2000/svg">
<path d="M5.91552 5.21862C5.62205 4.92631 5.14718 4.92725 4.85487 5.22073C1.04838 9.04238 1.04838 15.2356 4.85487 19.0573C5.14718 19.3507 5.62205 19.3517 5.91552 19.0594C6.209 18.7671 6.20994 18.2922 5.91763 17.9987C2.69412 14.7624 2.69412 9.51563 5.91763 6.27928C6.20994 5.9858 6.209 5.51093 5.91552 5.21862ZM17.585 5.21862C17.2915 5.51093 17.2906 5.9858 17.5829 6.27928C20.8064 9.51563 20.8064 14.7624 17.5829 17.9987C17.2906 18.2922 17.2915 18.7671 17.585 19.0594C17.8785 19.3517 18.3533 19.3507 18.6456 19.0573C22.4521 15.2356 22.4521 9.04238 18.6456 5.22073C18.3533 4.92725 17.8785 4.92631 17.585 5.21862ZM14.494 7.17316C14.246 7.50497 14.314 7.97495 14.6458 8.2229C15.8452 9.11918 16.6247 10.5351 16.6247 12.1391C16.6247 13.7431 15.8442 15.16 14.6459 16.0553C14.314 16.3032 14.246 16.7732 14.4939 17.105C14.7418 17.4368 15.2118 17.5049 15.5436 17.257C17.0973 16.0962 18.1247 14.2451 18.1247 12.1391C18.1247 10.0332 17.0983 8.18305 15.5437 7.02133C15.2119 6.77338 14.7419 6.84136 14.494 7.17316ZM8.85556 8.2228C9.1873 7.97477 9.25517 7.50477 9.00715 7.17302C8.75912 6.84128 8.28912 6.77341 7.95737 7.02143C6.40519 8.1819 5.37646 10.0318 5.37646 12.1391C5.37646 14.2462 6.40401 16.0963 7.95758 17.257C8.28942 17.5049 8.75939 17.4368 9.0073 17.105C9.25521 16.7732 9.18718 16.3032 8.85535 16.0553C7.65692 15.1599 6.87646 13.744 6.87646 12.1391C6.87646 10.5344 7.65774 9.11833 8.85556 8.2228ZM12.2788 11.6012C12.5744 11.8978 12.5744 12.3809 12.2788 12.6775C11.986 12.9713 11.5145 12.9713 11.2217 12.6775C10.9261 12.3809 10.9261 11.8978 11.2217 11.6012C11.5145 11.3074 11.986 11.3074 12.2788 11.6012ZM13.3412 10.5424C12.4622 9.66036 11.0382 9.66036 10.1593 10.5424C9.28025 11.4244 9.28025 12.8544 10.1593 13.7364C11.0382 14.6184 12.4622 14.6184 13.3412 13.7364C14.2202 12.8544 14.2202 11.4244 13.3412 10.5424Z" fill="black"/>
</svg>
