<svg width="24" height="24" viewBox="0 0 24 24" fill="none" xmlns="http://www.w3.org/2000/svg">
<path d="M18.4697 5.53033L19.2026 6.26324L17.0275 6.25394C16.1429 6.2499 15.3109 6.67225 14.7913 7.38694L7.99535 16.7309C7.75956 17.0553 7.38108 17.247 6.97833 17.2459L3.00321 17.2289C2.589 17.2272 2.25178 17.5615 2.25001 17.9757C2.24824 18.3899 2.58258 18.7272 2.99679 18.7289L6.97367 18.7459C7.85669 18.7487 8.68857 18.3284 9.20865 17.6129L16.0047 8.26892C16.2411 7.94368 16.6195 7.75205 17.0208 7.75392L19.1762 7.76314L18.4697 8.46967C18.1768 8.76256 18.1768 9.23744 18.4697 9.53033C18.7626 9.82322 19.2374 9.82322 19.5303 9.53033L21.4148 7.6459C21.6159 7.51215 21.7489 7.28384 21.75 7.02413L21.7499 7.01042C21.7526 6.81502 21.6794 6.61877 21.5303 6.46967L19.5303 4.46967C19.2374 4.17678 18.7626 4.17678 18.4697 4.46967C18.1768 4.76256 18.1768 5.23744 18.4697 5.53033Z" fill="black"/>
<path d="M9.20865 7.38693C8.68856 6.67159 7.85573 6.25118 6.97279 6.25392L2.99679 6.27092C2.58258 6.27269 2.24824 6.60991 2.25001 7.02412C2.25178 7.43833 2.589 7.77268 3.00321 7.77091L6.97868 7.75391C7.38153 7.75277 7.75965 7.94467 7.9955 8.26911L9.5755 10.4411C9.81916 10.7761 10.2882 10.8501 10.6232 10.6064C10.9582 10.3628 11.0322 9.89368 10.7885 9.55872L9.20865 7.38693Z" fill="black"/>
<path d="M18.4697 15.4482C18.1768 15.7411 18.1768 16.216 18.4697 16.5088L19.1975 17.2367L17.0217 17.246C16.6189 17.2472 16.2407 17.0553 16.0049 16.7308L14.4249 14.5588C14.1812 14.2238 13.7121 14.1498 13.3772 14.3935C13.0422 14.6372 12.9682 15.1062 13.2119 15.4412L14.7919 17.6132C15.312 18.3285 16.1446 18.7487 17.0276 18.746L19.1811 18.7368L18.4697 19.4482C18.1768 19.7411 18.1768 20.216 18.4697 20.5088C18.7626 20.8017 19.2374 20.8017 19.5303 20.5088L21.509 18.5301C21.6582 18.3924 21.7513 18.1949 21.7504 17.9758C21.7498 17.8371 21.7116 17.7074 21.6455 17.5963C21.6141 17.5434 21.5758 17.4936 21.5303 17.4482L19.5303 15.4482C19.2374 15.1553 18.7626 15.1553 18.4697 15.4482Z" fill="black"/>
</svg>
