<svg width="24" height="24" viewBox="0 0 24 24" fill="none" xmlns="http://www.w3.org/2000/svg">
<path d="M19.7501 4.78809C19.3359 4.78809 19.0001 5.12388 19.0001 5.53809V9.5602H14.9499C14.5357 9.5602 14.1999 9.89598 14.1999 10.3102C14.1999 10.7244 14.5357 11.0602 14.9499 11.0602H19.7501C20.1643 11.0602 20.5001 10.7244 20.5001 10.3102V5.53809C20.5001 5.12388 20.1643 4.78809 19.7501 4.78809Z" fill="black"/>
<path d="M16.558 6.30197C14.0517 3.82175 10.2002 3.28602 7.10615 4.98642C4.00763 6.6893 2.41225 10.2268 3.19905 13.664C3.9857 17.1006 6.9621 19.6013 10.4943 19.8034C14.0264 20.0055 17.2711 17.8611 18.4489 14.5375C18.5873 14.1471 18.383 13.7184 17.9925 13.58C17.6021 13.4417 17.1735 13.646 17.0351 14.0364C16.0816 16.7269 13.4512 18.4702 10.58 18.3059C7.70904 18.1416 5.29776 16.1101 4.66124 13.3293C4.02486 10.5492 5.31391 7.683 7.82861 6.30098C10.3444 4.91834 13.4766 5.35711 15.5096 7.37481C15.515 7.38014 15.5204 7.38538 15.526 7.39055L19.2381 10.8583C19.5408 11.141 20.0154 11.1249 20.2982 10.8222C20.5809 10.5195 20.5648 10.0449 20.2621 9.76214L16.558 6.30197Z" fill="black"/>
</svg>
