<svg width="24" height="24" viewBox="0 0 24 24" fill="none" xmlns="http://www.w3.org/2000/svg">
<path d="M12.2919 11.8705C11.9156 12.0437 11.751 12.4891 11.9242 12.8653L13.5063 16.3026C13.6795 16.6789 14.1249 16.8435 14.5012 16.6703C14.8774 16.4971 15.042 16.0517 14.8689 15.6754L13.2868 12.2382C13.1136 11.8619 12.6681 11.6973 12.2919 11.8705Z" fill="black"/>
<path d="M9.5 7.2627C9.08579 7.2627 8.75 7.59848 8.75 8.0127V16.0005C8.75 16.4147 9.08579 16.7505 9.5 16.7505C9.91421 16.7505 10.25 16.4147 10.25 16.0005V8.0127C10.25 7.59848 9.91421 7.2627 9.5 7.2627Z" fill="black"/>
<path d="M12.2321 8.75C12.6403 8.76159 13.0083 8.93108 13.2788 9.20154C13.559 9.48174 13.7309 9.86668 13.7309 10.2932C13.7309 10.7197 13.559 11.1047 13.2788 11.3849C12.9986 11.6651 12.6136 11.837 12.1871 11.837H9.8188V13.337H12.1871C13.0274 13.337 13.7894 12.9955 14.3394 12.4455C14.8894 11.8955 15.2309 11.1335 15.2309 10.2932C15.2309 9.45288 14.8894 8.69089 14.3394 8.14088C13.8053 7.6068 13.0713 7.26917 12.2592 7.2502L12.2505 7.25H9.60547V8.75H12.2321Z" fill="black"/>
<path d="M12 20.5C7.30558 20.5 3.5 16.6944 3.5 12C3.5 7.30558 7.30558 3.5 12 3.5C16.6944 3.5 20.5 7.30558 20.5 12C20.5 16.6944 16.6944 20.5 12 20.5ZM22 12C22 6.47715 17.5228 2 12 2C6.47715 2 2 6.47715 2 12C2 17.5228 6.47715 22 12 22C17.5228 22 22 17.5228 22 12Z" fill="black"/>
</svg>
