<svg width="24" height="24" viewBox="0 0 24 24" fill="none" xmlns="http://www.w3.org/2000/svg">
<path d="M16.2197 2.21967C15.9268 2.51256 15.9268 2.98744 16.2197 3.28033L17.9393 5H8.75C6.12665 5 4 7.12665 4 9.75V10.75C4 11.1642 4.33579 11.5 4.75 11.5C5.16421 11.5 5.5 11.1642 5.5 10.75V9.75C5.5 7.95507 6.95507 6.5 8.75 6.5H17.9393L16.2197 8.21967C15.9268 8.51256 15.9268 8.98744 16.2197 9.28033C16.5126 9.57322 16.9874 9.57322 17.2803 9.28033L20.2803 6.28033C20.5732 5.98744 20.5732 5.51256 20.2803 5.21967L17.2803 2.21967C16.9874 1.92678 16.5126 1.92678 16.2197 2.21967ZM19.5 12.75C19.5 12.3358 19.1642 12 18.75 12C18.3358 12 18 12.3358 18 12.75V13.75C18 15.5449 16.5449 17 14.75 17H6.56066L8.28033 15.2803C8.57322 14.9874 8.57322 14.5126 8.28033 14.2197C7.98744 13.9268 7.51256 13.9268 7.21967 14.2197L4.21967 17.2197C4.14776 17.2916 4.09351 17.3745 4.05691 17.4629C4.02051 17.5507 4.0003 17.6469 4 17.7478C4 17.7485 4 17.7493 4 17.75C4 17.7507 4 17.7515 4 17.7522C4.0003 17.8531 4.02051 17.9493 4.05691 18.0371C4.09351 18.1255 4.14776 18.2084 4.21967 18.2803L7.21967 21.2803C7.51256 21.5732 7.98744 21.5732 8.28033 21.2803C8.57322 20.9874 8.57322 20.5126 8.28033 20.2197L6.56066 18.5H14.75C17.3734 18.5 19.5 16.3734 19.5 13.75V12.75Z" fill="black"/>
</svg>
