<svg width="24" height="24" viewBox="0 0 24 24" fill="none" xmlns="http://www.w3.org/2000/svg">
<path d="M12.5737 10.2041C14.5033 10.2936 16.446 10.8289 17.7799 12.0602C18.3761 12.6105 18.9046 13.339 19.2571 14.3281C18.8572 13.9931 18.4171 13.7017 17.9236 13.4563C16.4958 12.7465 14.7856 12.5085 12.6718 12.4683C12.2691 12.4606 11.8802 12.6152 11.5927 12.8973C11.3052 13.1794 11.1432 13.5652 11.1432 13.968V14.5672L7.90222 11.3262L11.1432 8.08519V8.70567C11.1432 9.50705 11.7732 10.1669 12.5737 10.2041ZM21.1977 16.6992C21.082 14.0065 20.1255 12.184 18.7973 10.958C17.1007 9.39189 14.7539 8.80366 12.6432 8.70567V5.67098C12.6432 5.22553 12.1047 5.00244 11.7897 5.31742L6.48801 10.6191C6.09749 11.0096 6.09749 11.6428 6.48801 12.0333L11.7897 17.335C12.1047 17.65 12.6432 17.4269 12.6432 16.9815V13.968C13.1838 13.9783 13.682 14.0021 14.1432 14.0419C16.9751 14.2861 18.4148 15.1324 19.709 17.1448C19.7327 17.1817 19.7564 17.219 19.78 17.2567C19.7868 17.2674 19.7935 17.2782 19.8002 17.289C19.8611 17.3868 19.9218 17.4872 19.9823 17.5902C20.0045 17.6282 20.0265 17.6659 20.0481 17.7036C20.0835 17.7653 20.1181 17.8267 20.1519 17.8876C20.4055 18.3462 21.1807 18.2706 21.2004 17.7468C21.2059 17.6013 21.2089 17.4533 21.2094 17.3027C21.2094 17.2874 21.2095 17.272 21.2095 17.2567C21.2095 17.127 21.2076 16.9991 21.2039 16.8732C21.2038 16.8692 21.2037 16.8652 21.2036 16.8612C21.202 16.8069 21.2 16.7528 21.1977 16.6992Z" fill="black"/>
<path d="M8.85995 5.19867C8.55546 4.91786 8.08097 4.93705 7.80016 5.24155L3.59599 9.80024C2.8008 10.6625 2.80141 11.991 3.59739 12.8525L7.80062 17.4018C8.08172 17.7061 8.55622 17.7248 8.86046 17.4437C9.16469 17.1626 9.18346 16.6881 8.90236 16.3839L4.69913 11.8346C4.4338 11.5474 4.4336 11.1046 4.69866 10.8172L8.90283 6.25846C9.18364 5.95397 9.16445 5.47948 8.85995 5.19867Z" fill="black"/>
</svg>
