<svg width="24" height="24" viewBox="0 0 24 24" fill="none" xmlns="http://www.w3.org/2000/svg">
<path d="M10.5223 9.74105C12.8037 9.84697 15.1375 10.4802 16.7542 11.9726C17.653 12.8022 18.4152 13.9572 18.8057 15.6111C18.1847 14.9624 17.4803 14.4262 16.641 14.009C15.0256 13.2059 13.0754 12.929 10.6204 12.8823C10.2177 12.8746 9.82883 13.0292 9.54133 13.3113C9.25384 13.5934 9.09186 13.9793 9.09186 14.382V15.6847L4.70711 11.3L9.09186 6.91522V8.24266C9.09186 9.04404 9.72177 9.70389 10.5223 9.74105ZM20.5852 18.0873C20.5565 14.6591 19.405 12.3781 17.7716 10.8704C15.7923 9.04326 13.0543 8.35699 10.5919 8.24266V4.501C10.5919 4.05555 10.0533 3.83247 9.7383 4.14745L3.29289 10.5929C2.90237 10.9834 2.90237 11.6165 3.29289 12.0071L9.7383 18.4525C10.0533 18.7675 10.5919 18.5444 10.5919 18.0989V14.382C11.126 14.3922 11.6247 14.4137 12.0919 14.4482C15.7483 14.7186 17.468 15.789 19.0832 18.4885C19.1068 18.528 19.1304 18.5678 19.154 18.608C19.16 18.6181 19.1659 18.6283 19.1718 18.6384C19.2555 18.7817 19.3352 18.923 19.4109 19.0626C19.4462 19.1279 19.4807 19.1927 19.5142 19.2572C19.7562 19.7221 20.526 19.6565 20.5582 19.1333C20.5669 18.9922 20.5736 18.8489 20.5782 18.7036C20.5829 18.5556 20.5854 18.4054 20.5858 18.2529C20.5858 18.2416 20.5858 18.2302 20.5858 18.2188C20.5858 18.1748 20.5856 18.1309 20.5852 18.0873Z" fill="black"/>
</svg>
