<svg width="24" height="24" viewBox="0 0 24 24" fill="none" xmlns="http://www.w3.org/2000/svg">
<path d="M4.3192 6.6797C3.8311 7.16795 3.43276 7.70427 3.10416 8.26092C2.93016 8.55568 2.97779 8.93084 3.21992 9.17276L6.06614 12.0164C6.35916 12.3092 6.83404 12.309 7.1268 12.016C7.41956 11.7229 7.41935 11.2481 7.12633 10.9553L4.70852 8.53965C4.90829 8.25724 5.13089 7.9894 5.38002 7.74019C7.29205 5.82756 10.1121 5.37383 12.4551 6.38319C12.8355 6.54708 13.2767 6.37155 13.4406 5.99113C13.6045 5.61072 13.429 5.16948 13.0486 5.00559C10.1604 3.76134 6.68018 4.31797 4.3192 6.6797Z" fill="black"/>
<path d="M18.7045 11.2359C18.3254 11.4026 18.1532 11.8452 18.32 12.2244C19.3548 14.577 18.9075 17.4223 16.9834 19.347C16.7342 19.5963 16.4664 19.8189 16.1839 20.0187L13.8432 17.6747C13.5505 17.3816 13.0757 17.3813 12.7826 17.674C12.4895 17.9666 12.4891 18.4415 12.7818 18.7346L15.5504 21.5072C15.7922 21.7493 16.1673 21.7971 16.4621 21.6232C17.0198 21.2944 17.5561 20.8958 18.0442 20.4075C20.42 18.031 20.9685 14.5203 19.693 11.6205C19.5263 11.2413 19.0837 11.0691 18.7045 11.2359Z" fill="black"/>
<path d="M20.1469 4.57093C19.2415 13.1764 12.9523 17.4563 10.3575 18.8692L5.67574 14.4446C6.52449 12.9228 8.50709 9.91207 11.8604 7.58983C13.9898 6.11516 16.7124 4.91575 20.1469 4.57093ZM4.13176 14.1475C3.94034 14.5151 4.03103 14.9542 4.33225 15.2388L9.60291 20.22C9.89805 20.4989 10.3334 20.5736 10.6946 20.3879C13.241 19.0789 21.1257 14.1986 21.7209 3.70989C21.7437 3.30939 21.4161 2.98004 21.0155 3.00094C16.8243 3.21965 13.533 4.60695 11.0064 6.35666C7.05164 9.09543 4.88347 12.704 4.13176 14.1475Z" fill="black"/>
<path d="M3.90091 17.5764C3.61497 17.8761 3.62604 18.3509 3.92564 18.6369L5.95994 20.5791C6.25953 20.8651 6.7342 20.8541 7.02014 20.5544C7.30608 20.2547 7.295 19.7799 6.99541 19.4938L4.96111 17.5517C4.66151 17.2656 4.18684 17.2767 3.90091 17.5764Z" fill="black"/>
<path d="M12.8866 9.44087C12.3008 10.0267 12.3008 10.9763 12.8866 11.5621C13.4725 12.1479 14.4221 12.1479 15.0079 11.5621C15.5937 10.9763 15.5937 10.0267 15.0079 9.44087C14.4221 8.85506 13.4725 8.85506 12.8866 9.44087Z" fill="black"/>
</svg>
