<svg width="24" height="24" viewBox="0 0 24 24" fill="none" xmlns="http://www.w3.org/2000/svg">
<path d="M18.2085 19.4739C17.5054 12.246 11.7801 6.49148 4.57028 5.78269V4.5417C12.4445 5.25701 18.7233 11.5569 19.4331 19.4739H18.2085ZM16.7455 19.9738C16.7849 20.5247 17.2289 20.9739 17.7812 20.9739H20C20.5523 20.9739 21.0029 20.5254 20.9728 19.974C20.4741 10.8303 13.1777 3.50407 4.07025 3.00146C3.5188 2.97102 3.07028 3.42165 3.07028 3.97393V6.2093C3.07028 6.76159 3.51953 7.2055 4.07038 7.24536C10.8468 7.73578 16.2589 13.1703 16.7455 19.9738Z" fill="black"/>
<path d="M11.1133 19.4737C10.5003 16.1479 7.89083 13.5237 4.57028 12.9058V11.6519C8.55772 12.2941 11.7138 15.4607 12.351 19.4737H11.1133ZM9.67665 19.9771C9.75773 20.5234 10.1976 20.9737 10.7499 20.9737H12.9687C13.521 20.9737 13.9735 20.5245 13.9239 19.9745C13.451 14.7305 9.29243 10.5545 4.06947 10.0779C3.51947 10.0277 3.07028 10.4802 3.07028 11.0325V13.2679C3.07028 13.8202 3.52063 14.26 4.0668 14.342C6.95936 14.7764 9.2456 17.0727 9.67665 19.9771Z" fill="black"/>
<path d="M5.10937 19.4719C4.77835 19.4719 4.5 19.2009 4.5 18.8543C4.5 18.5076 4.77835 18.2366 5.10937 18.2366C5.44039 18.2366 5.71874 18.5076 5.71874 18.8543C5.71874 19.2009 5.44039 19.4719 5.10937 19.4719ZM5.10937 20.9719C6.27435 20.9719 7.21874 20.0238 7.21874 18.8543C7.21874 17.6847 6.27435 16.7366 5.10937 16.7366C3.9444 16.7366 3 17.6847 3 18.8543C3 20.0238 3.9444 20.9719 5.10937 20.9719Z" fill="black"/>
</svg>
