<svg width="24" height="24" viewBox="0 0 24 24" fill="none" xmlns="http://www.w3.org/2000/svg">
<path d="M19.5 18C19.5 18.8284 18.8284 19.5 18 19.5H6C5.17157 19.5 4.5 18.8284 4.5 18V6C4.5 5.17157 5.17157 4.5 6 4.5H13.2033C13.4643 4.5 13.7209 4.56812 13.9475 4.69764L18.7442 7.4386C19.2116 7.70567 19.5 8.20268 19.5 8.74097V18ZM6 3C4.34315 3 3 4.34315 3 6V18C3 19.6569 4.34315 21 6 21H18C19.6569 21 21 19.6569 21 18V8.74097C21 7.6644 20.4231 6.67037 19.4884 6.13624L14.6917 3.39527C14.2384 3.13625 13.7254 3 13.2033 3H6Z" fill="black"/>
<path d="M7.25 14V21H8.75V14C8.75 13.8619 8.86193 13.75 9 13.75H15C15.1381 13.75 15.25 13.8619 15.25 14V21H16.75V14C16.75 13.0335 15.9665 12.25 15 12.25H9C8.0335 12.25 7.25 13.0335 7.25 14Z" fill="black"/>
<path d="M8 3.25C7.58579 3.25 7.25 3.58579 7.25 4V7C7.25 7.9665 8.0335 8.75 9 8.75H14C14.4142 8.75 14.75 8.41421 14.75 8C14.75 7.58579 14.4142 7.25 14 7.25H9C8.86193 7.25 8.75 7.13807 8.75 7V4C8.75 3.58579 8.41421 3.25 8 3.25Z" fill="black"/>
</svg>
