<svg width="24" height="24" viewBox="0 0 24 24" fill="none" xmlns="http://www.w3.org/2000/svg">
<path d="M10.7195 19.0399C11.4264 17.8015 11.2217 16.2906 10.3173 15.2852L11.4872 13.5971L12.8458 15.5175L12.8504 15.524C12.7759 15.625 12.7064 15.7314 12.6427 15.8431C11.7605 17.3885 12.2979 19.3583 13.8433 20.2405C15.3886 21.1226 17.3585 20.5852 18.2406 19.0399C19.1228 17.4945 18.5854 15.5247 17.04 14.6425C16.0468 14.0755 14.8782 14.095 13.9358 14.5915L12.3508 12.351L17.3541 5.13175C17.7473 4.56434 17.6061 3.78558 17.0387 3.39234C16.99 3.35855 16.9397 3.3287 16.8882 3.30273L11.4752 11.1131L6.00391 3.37897C5.9527 3.40542 5.90272 3.43573 5.85432 3.46996C5.29073 3.86865 5.15705 4.64874 5.55575 5.21233L10.6116 12.3592L9.15345 14.4631C7.67537 13.8495 5.93546 14.4173 5.12151 15.8431C4.23935 17.3885 4.77677 19.3583 6.32211 20.2405C7.86746 21.1226 9.83729 20.5852 10.7195 19.0399ZM9.41677 18.2962C8.9456 19.1216 7.89217 19.4095 7.06576 18.9378C6.24039 18.4666 5.95244 17.4132 6.4242 16.5868C6.89537 15.7614 7.9488 15.4734 8.77521 15.9452C9.60058 16.4164 9.88853 17.4698 9.41677 18.2962ZM16.9379 18.2962C16.4668 19.1216 15.4133 19.4095 14.5869 18.9378C13.7616 18.4666 13.4736 17.4132 13.9454 16.5868C14.4165 15.7614 15.47 15.4734 16.2964 15.9452C17.1218 16.4164 17.4097 17.4698 16.9379 18.2962Z" fill="black"/>
</svg>
