<svg width="24" height="24" viewBox="0 0 24 24" fill="none" xmlns="http://www.w3.org/2000/svg">
<path d="M17.5003 11C17.5003 14.5898 14.5901 17.5 11.0002 17.5C7.41019 17.5 4.5 14.5898 4.5 11C4.5 7.41018 7.41019 4.5 11.0002 4.5C14.5901 4.5 17.5003 7.41018 17.5003 11ZM17.5927 15.5335C18.4805 14.2449 19.0003 12.6831 19.0003 11C19.0003 6.58172 15.4185 3 11.0002 3C6.58179 3 3 6.58172 3 11C3 15.4183 6.58179 19 11.0002 19C12.714 19 14.302 18.4611 15.6038 17.5435L19.0041 20.604C19.5626 21.1067 20.4168 21.0841 20.948 20.5526C21.5199 19.9804 21.4951 19.0457 20.8938 18.5045L17.5927 15.5335Z" fill="black"/>
</svg>
