<svg width="24" height="24" viewBox="0 0 24 24" fill="none" xmlns="http://www.w3.org/2000/svg">
<path d="M17.5003 11C17.5003 14.5898 14.5901 17.5 11.0002 17.5C7.41019 17.5 4.5 14.5898 4.5 11C4.5 7.41018 7.41019 4.5 11.0002 4.5C14.5901 4.5 17.5003 7.41018 17.5003 11ZM17.5927 15.5335C18.4805 14.2449 19.0003 12.6831 19.0003 11C19.0003 6.58172 15.4185 3 11.0002 3C6.58179 3 3 6.58172 3 11C3 15.4183 6.58179 19 11.0002 19C12.714 19 14.302 18.4611 15.6038 17.5435L19.0041 20.604C19.5626 21.1067 20.4168 21.0841 20.948 20.5526C21.5199 19.9804 21.4951 19.0457 20.8938 18.5045L17.5927 15.5335ZM11.75 8.5C11.75 8.08579 11.4142 7.75 11 7.75C10.5858 7.75 10.25 8.08579 10.25 8.5V10.25H8.5C8.08579 10.25 7.75 10.5858 7.75 11C7.75 11.4142 8.08579 11.75 8.5 11.75H10.25V13.5C10.25 13.9142 10.5858 14.25 11 14.25C11.4142 14.25 11.75 13.9142 11.75 13.5V11.75H13.5C13.9142 11.75 14.25 11.4142 14.25 11C14.25 10.5858 13.9142 10.25 13.5 10.25H11.75V8.5Z" fill="black"/>
</svg>
