<svg width="24" height="24" viewBox="0 0 24 24" fill="none" xmlns="http://www.w3.org/2000/svg">
<path d="M19 5.5C19.2761 5.5 19.5 5.72386 19.5 6V9C19.5 9.27614 19.2761 9.5 19 9.5H5C4.72386 9.5 4.5 9.27614 4.5 9V6C4.5 5.72386 4.72386 5.5 5 5.5H19ZM5 4C3.89543 4 3 4.89543 3 6V9C3 10.1046 3.89543 11 5 11H19C20.1046 11 21 10.1046 21 9V6C21 4.89543 20.1046 4 19 4H5Z" fill="black"/>
<path d="M9.25 7.5C9.25 7.91421 9.58579 8.25 10 8.25H17.5C17.9142 8.25 18.25 7.91421 18.25 7.5C18.25 7.08579 17.9142 6.75 17.5 6.75H10C9.58579 6.75 9.25 7.08579 9.25 7.5Z" fill="black"/>
<path d="M7.7 7.50039C7.7 7.03095 7.31944 6.65039 6.85 6.65039C6.38056 6.65039 6 7.03095 6 7.50039C6 7.96983 6.38056 8.35039 6.85 8.35039C7.31944 8.35039 7.7 7.96983 7.7 7.50039Z" fill="black"/>
<path d="M19 14C19.2761 14 19.5 14.2239 19.5 14.5V17.5C19.5 17.7761 19.2761 18 19 18H5C4.72386 18 4.5 17.7761 4.5 17.5V14.5C4.5 14.2239 4.72386 14 5 14H19ZM5 12.5C3.89543 12.5 3 13.3954 3 14.5V17.5C3 18.6046 3.89543 19.5 5 19.5H19C20.1046 19.5 21 18.6046 21 17.5V14.5C21 13.3954 20.1046 12.5 19 12.5H5Z" fill="black"/>
<path d="M9.25 16C9.25 16.4142 9.58579 16.75 10 16.75H17.5C17.9142 16.75 18.25 16.4142 18.25 16C18.25 15.5858 17.9142 15.25 17.5 15.25H10C9.58579 15.25 9.25 15.5858 9.25 16Z" fill="black"/>
<path d="M7.7 16.0004C7.7 15.5309 7.31944 15.1504 6.85 15.1504C6.38056 15.1504 6 15.5309 6 16.0004C6 16.4698 6.38056 16.8504 6.85 16.8504C7.31944 16.8504 7.7 16.4698 7.7 16.0004Z" fill="black"/>
</svg>
