<svg width="24" height="24" viewBox="0 0 24 24" fill="none" xmlns="http://www.w3.org/2000/svg">
<path d="M7.3874 8.86075C6.22875 8.46612 4.89515 8.73079 3.97117 9.65476C2.67628 10.9497 2.67628 13.0491 3.97117 14.344C5.26607 15.6389 7.36551 15.6389 8.66041 14.344C9.58438 13.42 9.84905 12.0864 9.45442 10.9278C9.296 10.4626 9.03133 10.0257 8.66041 9.65476C8.28948 9.28384 7.85254 9.01917 7.3874 8.86075ZM7.59975 13.2833C6.89064 13.9924 5.74094 13.9924 5.03183 13.2833C4.32272 12.5742 4.32272 11.4245 5.03183 10.7154C5.74094 10.0063 6.89064 10.0063 7.59975 10.7154C8.30886 11.4245 8.30886 12.5742 7.59975 13.2833Z" fill="black"/>
<path d="M18.7565 3.17715C17.5979 2.78253 16.2643 3.0472 15.3403 3.97117C14.0454 5.26607 14.0454 7.36551 15.3403 8.6604C16.6352 9.9553 18.7346 9.9553 20.0295 8.6604C20.9535 7.73643 21.2182 6.40283 20.8236 5.24417C20.6651 4.77904 20.4005 4.3421 20.0295 3.97117C19.6586 3.60025 19.2217 3.33558 18.7565 3.17715ZM18.9689 7.59974C18.2598 8.30885 17.1101 8.30885 16.401 7.59974C15.6919 6.89063 15.6919 5.74094 16.401 5.03183C17.1101 4.32272 18.2598 4.32272 18.9689 5.03183C19.678 5.74094 19.678 6.89063 18.9689 7.59974Z" fill="black"/>
<path d="M18.7565 14.5463C17.5979 14.1517 16.2643 14.4163 15.3403 15.3403C14.0454 16.6352 14.0454 18.7346 15.3403 20.0295C16.6352 21.3244 18.7346 21.3244 20.0295 20.0295C20.9535 19.1056 21.2182 17.772 20.8236 16.6133C20.6651 16.1482 20.4005 15.7112 20.0295 15.3403C19.6586 14.9694 19.2217 14.7047 18.7565 14.5463ZM18.9689 18.9689C18.2598 19.678 17.1101 19.678 16.401 18.9689C15.6919 18.2598 15.6919 17.1101 16.401 16.401C17.1101 15.6919 18.2598 15.6919 18.9689 16.401C19.678 17.1101 19.678 18.2598 18.9689 18.9689Z" fill="black"/>
<path d="M15.826 7.24076C15.6407 6.87028 15.1902 6.72011 14.8198 6.90535L8.51029 10.0601C8.13981 10.2453 7.98964 10.6958 8.17488 11.0663C8.36012 11.4368 8.81063 11.587 9.18111 11.4017L15.4906 8.24699C15.8611 8.06175 16.0112 7.61124 15.826 7.24076Z" fill="black"/>
<path d="M8.17488 12.9331C7.98964 13.3036 8.13981 13.7541 8.51029 13.9394L14.8198 17.0941C15.1902 17.2793 15.6407 17.1292 15.826 16.7587C16.0112 16.3882 15.8611 15.9377 15.4906 15.7525L9.18111 12.5977C8.81063 12.4125 8.36012 12.5627 8.17488 12.9331Z" fill="black"/>
</svg>
