<svg width="24" height="24" viewBox="0 0 24 24" fill="none" xmlns="http://www.w3.org/2000/svg">
<path d="M15.8339 7.68121C16.1402 7.39735 16.3143 6.99866 16.3143 6.58107V5.91522L19.6287 9.22964L16.3143 12.5441V11.8997C16.3143 11.1721 15.7922 10.5495 15.0758 10.4226C14.9941 10.4082 14.901 10.3907 14.7991 10.3716C14.4082 10.2983 13.8867 10.2005 13.376 10.153C12.7162 10.0918 11.8973 10.0909 11.0862 10.3716C10.4546 10.5901 9.87418 10.9639 9.39821 11.5214C9.39677 10.5416 9.69235 9.87588 10.0584 9.43521C10.8536 8.47789 12.5028 7.90958 14.7005 8.07674C15.1169 8.10842 15.5276 7.96508 15.8339 7.68121ZM8.2965 13.9479C8.37438 14.2067 8.46427 14.4729 8.56667 14.7465C8.67833 15.0448 8.80487 15.352 8.94695 15.6681C8.97166 15.7231 8.99684 15.7784 9.0225 15.8339C9.15653 16.124 9.59385 16.0112 9.60537 15.6919C9.60694 15.6482 9.60875 15.605 9.61077 15.5621C9.62769 15.2045 9.66016 14.8778 9.70655 14.5797C9.7454 14.3299 9.79402 14.1001 9.85144 13.8889C10.6058 11.1138 12.8787 11.5388 14.4819 11.8386C14.5964 11.86 14.7074 11.8807 14.8143 11.8997V14.9583C14.8143 15.4037 15.3528 15.6268 15.6678 15.3118L21.0429 9.93674C21.4334 9.54622 21.4334 8.91305 21.0429 8.52253L15.6678 3.14745C15.3528 2.83247 14.8143 3.05555 14.8143 3.501V6.58107C14.3039 6.54224 13.8013 6.53758 13.3143 6.56841C9.62594 6.80185 6.8288 9.07026 8.2965 13.9479Z" fill="black"/>
<path d="M6.75 5.45032H8.94786C9.36207 5.45032 9.69786 5.11454 9.69786 4.70032C9.69786 4.28611 9.36207 3.95032 8.94786 3.95032H6.75C4.67893 3.95032 3 5.62925 3 7.70032V17.2939C3 19.365 4.67893 21.0439 6.75 21.0439H16.3436C18.4147 21.0439 20.0936 19.365 20.0936 17.2939V15.9624C20.0936 15.5481 19.7578 15.2124 19.3436 15.2124C18.9294 15.2124 18.5936 15.5481 18.5936 15.9624V17.2939C18.5936 18.5365 17.5862 19.5439 16.3436 19.5439H6.75C5.50736 19.5439 4.5 18.5365 4.5 17.2939V7.70032C4.5 6.45768 5.50736 5.45032 6.75 5.45032Z" fill="black"/>
</svg>
