<svg width="24" height="24" viewBox="0 0 24 24" fill="none" xmlns="http://www.w3.org/2000/svg">
<path d="M13.4278 9.34281C13.1215 9.62668 12.7108 9.77002 12.2944 9.73834C9.7019 9.54114 7.69708 10.2117 6.71769 11.4168C6.18472 12.0726 5.80463 13.0855 5.96026 14.597C6.52088 13.7272 7.27178 13.1663 8.11623 12.8597C9.01913 12.5319 9.94189 12.5257 10.6992 12.5939C11.2871 12.6468 11.8843 12.7588 12.342 12.8446C12.4616 12.867 12.5717 12.8877 12.6696 12.905C13.386 13.0318 13.9081 13.6545 13.9081 14.382V15.6847L18.2929 11.3L13.9081 6.91522V8.24266C13.9081 8.66026 13.7341 9.05895 13.4278 9.34281ZM5.03472 17.2152C2.979 11.1564 6.41985 8.40905 10.9081 8.21576C11.3976 8.19468 11.8995 8.20398 12.4081 8.24266V4.501C12.4081 4.05555 12.9467 3.83247 13.2617 4.14745L19.7071 10.5929C20.0976 10.9834 20.0976 11.6165 19.7071 12.0071L13.2617 18.4525C12.9467 18.7675 12.4081 18.5444 12.4081 18.0989V14.382C12.2848 14.3602 12.1566 14.3362 12.0245 14.3115C10.098 13.9513 7.33354 13.4344 6.58127 17.0916C6.53334 17.3246 6.49359 17.5745 6.46273 17.8425C6.42756 18.148 6.40395 18.477 6.39301 18.8312C6.39161 18.8766 6.39041 18.9224 6.38943 18.9686C6.38263 19.2881 5.9458 19.3967 5.80894 19.108C5.78464 19.0567 5.76069 19.0056 5.73708 18.9547C5.59127 18.6405 5.45857 18.3338 5.33851 18.0345C5.22634 17.755 5.12521 17.4819 5.03472 17.2152Z" fill="black"/>
</svg>
