<svg width="24" height="24" viewBox="0 0 24 24" fill="none" xmlns="http://www.w3.org/2000/svg">
<path d="M5.83619 6.83099L10.9432 4.74121C11.7287 4.4196 12.6094 4.4197 13.395 4.74132L18.5001 6.83034C18.7054 6.91441 18.8379 7.11292 18.8379 7.33234V10.9747C18.8379 14.7846 16.0182 18.4279 12.1689 19.4557C8.31969 18.4279 5.5 14.7846 5.5 10.9747V7.33234C5.5 7.11174 5.63345 6.91376 5.83619 6.83099ZM12.1689 21C16.8528 19.9472 20.3379 15.6116 20.3379 10.9747V7.33234C20.3379 6.5032 19.8365 5.75676 19.0686 5.44226L13.963 3.35305C12.8133 2.88232 11.5246 2.88232 10.3748 3.35305L5.26925 5.44226C4.50137 5.75574 4 6.5032 4 7.33234V10.9747C4 15.6116 7.48507 19.9472 12.1689 21ZM11.0914 16.6398C11.3221 16.7439 11.5608 16.8331 11.8063 16.906C11.9906 16.9606 12.1692 16.8178 12.1692 16.6256L12.1708 7.30034C12.1709 7.13471 12.0362 6.99863 11.8717 7.01735C11.6335 7.04445 11.3982 7.10421 11.1724 7.19662L10.9195 7.30012L8.336 8.35729C7.9094 8.53145 7.63086 8.9467 7.63086 9.40734V11.4309C7.63086 13.4809 8.85704 15.425 10.6693 16.4282M10.6695 16.4283C10.6797 16.4339 10.6899 16.4396 10.7001 16.4451C10.8176 16.5093 10.9376 16.5694 11.0598 16.6254C11.0703 16.6303 11.0808 16.635 11.0914 16.6398" fill="black"/>
</svg>
