<svg width="24" height="24" viewBox="0 0 24 24" fill="none" xmlns="http://www.w3.org/2000/svg">
<path d="M8.33989 7.75C8.33989 5.95521 9.7951 4.5 11.5899 4.5C13.3847 4.5 14.8399 5.95521 14.8399 7.75V8H8.33989V7.75ZM6.83989 9.5V10.25C6.83989 10.6642 7.17567 11 7.58989 11C8.0041 11 8.33989 10.6642 8.33989 10.25V9.5H14.8399V10.25C14.8399 10.6642 15.1757 11 15.5899 11C16.0041 11 16.3399 10.6642 16.3399 10.25V9.5H17.664C17.7952 9.5 17.9032 9.60038 17.9132 9.73041L17.9145 9.74489L18.6767 17.6601C18.7292 18.3834 18.1562 19 17.43 19H5.75001C5.02426 19 4.45159 18.3838 4.50334 17.6608L5.26556 9.74589L5.26682 9.7313C5.27689 9.59991 5.38523 9.5 5.51601 9.5H6.83989ZM6.83989 8H5.51601C4.60356 8 3.84574 8.69983 3.77186 9.60841L3.00946 17.5251L3.0082 17.5397C2.88584 19.1359 4.14792 20.5 5.75001 20.5H17.43C19.0317 20.5 20.2955 19.1361 20.1718 17.5381L20.1719 17.5381L20.1706 17.5241L19.4082 9.60736C19.3342 8.69939 18.576 8 17.664 8H16.3399V7.75C16.3399 5.12679 14.2131 3 11.5899 3C8.96667 3 6.83989 5.12679 6.83989 7.75V8Z" fill="black"/>
</svg>
