<svg width="24" height="24" viewBox="0 0 24 24" fill="none" xmlns="http://www.w3.org/2000/svg">
<path d="M4.75 2C4.33579 2 4 2.33579 4 2.75C4 3.16421 4.33579 3.5 4.75 3.5H6.45455V14.0227C6.45455 14.9892 7.23805 15.7727 8.20455 15.7727H19.75C20.1642 15.7727 20.5 15.4369 20.5 15.0227C20.5 14.6085 20.1642 14.2727 19.75 14.2727H8.20455C8.06647 14.2727 7.95455 14.1608 7.95455 14.0227V12.5687H18.6756C19.1443 12.5687 19.5501 12.2432 19.6518 11.7856L20.8437 6.42201C20.9825 5.79749 20.5073 5.20508 19.8676 5.20508H7.95455V2.75C7.95455 2.33579 7.61876 2 7.20455 2H4.75ZM7.95455 6.70508H19.2442L18.2745 11.0687H7.95455V6.70508ZM8.25 20.25C8.25 19.6972 8.69718 19.25 9.25 19.25C9.80282 19.25 10.25 19.6972 10.25 20.25C10.25 20.8028 9.80282 21.25 9.25 21.25C8.69718 21.25 8.25 20.8028 8.25 20.25ZM6.75 20.25C6.75 21.6313 7.86875 22.75 9.25 22.75C10.6312 22.75 11.75 21.6313 11.75 20.25C11.75 18.8687 10.6312 17.75 9.25 17.75C7.86875 17.75 6.75 18.8687 6.75 20.25ZM18.25 19.25C18.8028 19.25 19.25 19.6972 19.25 20.25C19.25 20.8028 18.8028 21.25 18.25 21.25C17.6972 21.25 17.25 20.8028 17.25 20.25C17.25 19.6972 17.6972 19.25 18.25 19.25ZM18.25 17.75C16.8687 17.75 15.75 18.8687 15.75 20.25C15.75 21.6313 16.8687 22.75 18.25 22.75C19.6313 22.75 20.75 21.6313 20.75 20.25C20.75 18.8687 19.6313 17.75 18.25 17.75Z" fill="black"/>
</svg>
