<svg width="24" height="24" viewBox="0 0 24 24" fill="none" xmlns="http://www.w3.org/2000/svg">
<path d="M9.61328 13.7501C9.61328 13.3358 9.27749 13.0001 8.86328 13.0001C8.44907 13.0001 8.11328 13.3358 8.11328 13.7501V16.7501C8.11328 17.1643 8.44907 17.5001 8.86328 17.5001C9.27749 17.5001 9.61328 17.1643 9.61328 16.7501V13.7501Z" fill="black"/>
<path d="M11.8633 13.0001C11.4491 13.0001 11.1133 13.3358 11.1133 13.7501V16.7501C11.1133 17.1643 11.4491 17.5001 11.8633 17.5001C12.2775 17.5001 12.6133 17.1643 12.6133 16.7501V13.7501C12.6133 13.3358 12.2775 13.0001 11.8633 13.0001Z" fill="black"/>
<path d="M15.6133 13.7501C15.6133 13.3358 15.2775 13.0001 14.8633 13.0001C14.4491 13.0001 14.1133 13.3358 14.1133 13.7501V16.7501C14.1133 17.1643 14.4491 17.5001 14.8633 17.5001C15.2775 17.5001 15.6133 17.1643 15.6133 16.7501V13.7501Z" fill="black"/>
<path d="M15.4699 4.30892C15.2263 3.97393 14.7572 3.89987 14.4222 4.1435C14.0872 4.38713 14.0132 4.85619 14.2568 5.19118L17.5723 9.75005H6.15424L9.46978 5.19118C9.71341 4.85619 9.63935 4.38713 9.30436 4.1435C8.96937 3.89987 8.50031 3.97393 8.25668 4.30892L4.29949 9.75005H4.00015C3.39753 9.75005 2.93181 10.2791 3.00823 10.8769L3.93554 18.1305C4.12699 19.6281 5.40154 20.7501 6.91132 20.7501H16.817C18.3268 20.7501 19.6014 19.6281 19.7928 18.1305L20.7201 10.8769C20.7965 10.2791 20.3308 9.75005 19.7282 9.75005H19.4271L15.4699 4.30892ZM16.817 19.2501H6.91132C6.15643 19.2501 5.51915 18.6891 5.42343 17.9403L4.56814 11.2501H19.1602L18.3049 17.9403C18.2092 18.6891 17.5719 19.2501 16.817 19.2501Z" fill="black"/>
</svg>
