<svg width="24" height="24" viewBox="0 0 24 24" fill="none" xmlns="http://www.w3.org/2000/svg">
<path d="M11.75 6.5H18C18.8284 6.5 19.5 7.17157 19.5 8V16C19.5 16.8284 18.8284 17.5 18 17.5H11.75V6.5ZM10.25 6.5V17.5H6C5.17157 17.5 4.5 16.8284 4.5 16V8C4.5 7.17157 5.17157 6.5 6 6.5H10.25ZM18 5H6C4.34315 5 3 6.34315 3 8V16C3 17.6569 4.34315 19 6 19H18C19.6569 19 21 17.6569 21 16V8C21 6.34315 19.6569 5 18 5ZM5.25 10.5C5.25 10.9142 5.58579 11.25 6 11.25H8C8.41421 11.25 8.75 10.9142 8.75 10.5C8.75 10.0858 8.41421 9.75 8 9.75H6C5.58579 9.75 5.25 10.0858 5.25 10.5ZM6 12.75C5.58579 12.75 5.25 13.0858 5.25 13.5C5.25 13.9142 5.58579 14.25 6 14.25H8C8.41421 14.25 8.75 13.9142 8.75 13.5C8.75 13.0858 8.41421 12.75 8 12.75H6Z" fill="black"/>
</svg>
