<svg width="24" height="24" viewBox="0 0 24 24" fill="none" xmlns="http://www.w3.org/2000/svg">
<path d="M9.59095 13.0322V19.1231H8.95459V13.0322H9.59095ZM11.091 19.6231V12.5322C11.091 11.9799 10.6432 11.5322 10.091 11.5322H8.45459C7.90231 11.5322 7.45459 11.9799 7.45459 12.5322V19.6231C7.45459 20.1754 7.90231 20.6231 8.45459 20.6231H10.091C10.6432 20.6231 11.091 20.1754 11.091 19.6231ZM4.13636 16.6685V19.123H3.5V16.6685H4.13636ZM5.63636 19.623V16.1685C5.63636 15.6162 5.18865 15.1685 4.63636 15.1685H3C2.44772 15.1685 2 15.6162 2 16.1685V19.623C2 20.1753 2.44772 20.623 3 20.623H4.63636C5.18865 20.623 5.63636 20.1753 5.63636 19.623Z" fill="black"/>
</svg>
