<svg width="24" height="24" viewBox="0 0 24 24" fill="none" xmlns="http://www.w3.org/2000/svg">
<path d="M5.52778 4.5H9.08333C9.49755 4.5 9.83333 4.16421 9.83333 3.75C9.83333 3.33579 9.49755 3 9.08333 3H5.52778C4.13172 3 3 4.13172 3 5.52778V17.9722C3 19.3683 4.13172 20.5 5.52778 20.5H9.08333C9.49755 20.5 9.83333 20.1642 9.83333 19.75C9.83333 19.3358 9.49755 19 9.08333 19H5.52778C4.96015 19 4.5 18.5398 4.5 17.9722V5.52778C4.5 4.96015 4.96015 4.5 5.52778 4.5Z" fill="black"/>
<path d="M14.7744 6.77436C14.4815 7.06725 14.4815 7.54212 14.7744 7.83502L18.6885 11.7491L14.7744 15.6632C14.4815 15.9561 14.4815 16.431 14.7744 16.7239C15.0673 17.0168 15.5421 17.0168 15.835 16.7239L20.2795 12.2795C20.5724 11.9866 20.5724 11.5117 20.2795 11.2188L15.835 6.77436C15.5421 6.48146 15.0673 6.48146 14.7744 6.77436Z" fill="black"/>
<path d="M8.33398 11.75C8.33398 12.1642 8.66977 12.5 9.08398 12.5H19.7507C20.1649 12.5 20.5007 12.1642 20.5007 11.75C20.5007 11.3358 20.1649 11 19.7507 11H9.08398C8.66977 11 8.33398 11.3358 8.33398 11.75Z" fill="black"/>
</svg>
