<svg width="24" height="24" viewBox="0 0 24 24" fill="none" xmlns="http://www.w3.org/2000/svg">
<path d="M13.666 3.75C13.666 4.16421 14.0018 4.5 14.416 4.5H17.9716C18.5392 4.5 18.9993 4.96015 18.9993 5.52778V17.9722C18.9993 18.5398 18.5392 19 17.9716 19H14.416C14.0018 19 13.666 19.3358 13.666 19.75C13.666 20.1642 14.0018 20.5 14.416 20.5H17.9716C19.3676 20.5 20.4993 19.3683 20.4993 17.9722V5.52778C20.4993 4.13172 19.3676 3 17.9716 3H14.416C14.0018 3 13.666 3.33579 13.666 3.75Z" fill="black"/>
<path d="M9.44233 6.77436C9.14943 7.06725 9.14943 7.54212 9.44233 7.83502L13.3564 11.7491L9.44233 15.6632C9.14943 15.9561 9.14943 16.431 9.44233 16.7239C9.73522 17.0168 10.2101 17.0168 10.503 16.7239L14.9474 12.2795C15.2403 11.9866 15.2403 11.5117 14.9474 11.2188L10.503 6.77436C10.2101 6.48146 9.73522 6.48146 9.44233 6.77436Z" fill="black"/>
<path d="M3 11.75C3 12.1642 3.33579 12.5 3.75 12.5H14.4167C14.8309 12.5 15.1667 12.1642 15.1667 11.75C15.1667 11.3358 14.8309 11 14.4167 11H3.75C3.33579 11 3 11.3358 3 11.75Z" fill="black"/>
</svg>
