<svg width="24" height="24" viewBox="0 0 24 24" fill="none" xmlns="http://www.w3.org/2000/svg">
<path d="M19.9996 4.34961V18.6223H19.683L21.0303 19.9697L21.0306 19.9699C21.3123 19.793 21.4996 19.4796 21.4996 19.1223V3.84961C21.4996 3.29732 21.0519 2.84961 20.4996 2.84961H18.8633C18.311 2.84961 17.8633 3.29733 17.8633 3.84961V16.8026L19.3633 18.3026V4.34961H19.9996ZM16.0455 7.48633C16.0455 6.93404 15.5978 6.48633 15.0455 6.48633H13.4092C12.8569 6.48633 12.4092 6.93404 12.4092 7.48633V11.3485L13.9092 12.8485V7.98633H14.5455V13.4849L16.0455 14.9849V7.48633ZM14.5455 17.6062V18.6227H13.9092V16.9698L14.5455 17.6062ZM12.4092 15.4698V19.1227C12.4092 19.675 12.8569 20.1227 13.4092 20.1227H15.0455C15.5978 20.1227 16.0455 19.675 16.0455 19.1227V19.1062L18.9697 22.0303C19.2626 22.3232 19.7374 22.3232 20.0303 22.0303C20.3232 21.7374 20.3232 21.2626 20.0303 20.9697L4.03033 4.96967C3.73744 4.67678 3.26256 4.67678 2.96967 4.96967C2.67678 5.26256 2.67678 5.73744 2.96967 6.03033L7.97059 11.0312H7.9541C7.40182 11.0312 6.9541 11.479 6.9541 12.0312V19.1222C6.9541 19.6744 7.40182 20.1222 7.9541 20.1222H9.59047C10.1427 20.1222 10.5905 19.6744 10.5905 19.1222V13.6511L12.4092 15.4698ZM9.09047 18.6222H8.4541V12.5312H9.09047V18.6222ZM3.63636 16.168V18.6225H3V16.168H3.63636ZM5.13636 19.1225V15.668C5.13636 15.1157 4.68865 14.668 4.13636 14.668H2.5C1.94772 14.668 1.5 15.1157 1.5 15.668V19.1225C1.5 19.6748 1.94772 20.1225 2.5 20.1225H4.13636C4.68865 20.1225 5.13636 19.6748 5.13636 19.1225Z" fill="black"/>
</svg>
