<svg width="24" height="24" viewBox="0 0 24 24" fill="none" xmlns="http://www.w3.org/2000/svg">
<path d="M15.0454 19.1227H14.4091V8.48633H15.0454V19.1227ZM15.5454 20.6227C16.0977 20.6227 16.5454 20.175 16.5454 19.6227V7.98633C16.5454 7.43404 16.0977 6.98633 15.5454 6.98633H13.9091C13.3568 6.98633 12.9091 7.43404 12.9091 7.98633V19.6227C12.9091 20.175 13.3568 20.6227 13.9091 20.6227H15.5454ZM9.59095 19.1226H8.95459V13.0317H9.59095V19.1226ZM10.091 20.6226C10.6432 20.6226 11.091 20.1749 11.091 19.6226V12.5317C11.091 11.9795 10.6432 11.5317 10.091 11.5317H8.45459C7.90231 11.5317 7.45459 11.9795 7.45459 12.5317V19.6226C7.45459 20.1749 7.90231 20.6226 8.45459 20.6226H10.091ZM4.13636 16.668V19.1225H3.5V16.668H4.13636ZM5.63636 19.6225V16.168C5.63636 15.6157 5.18865 15.168 4.63636 15.168H3C2.44772 15.168 2 15.6157 2 16.168V19.6225C2 20.1748 2.44772 20.6225 3 20.6225H4.63636C5.18865 20.6225 5.63636 20.1748 5.63636 19.6225Z" fill="black"/>
</svg>
