<svg width="24" height="24" viewBox="0 0 24 24" fill="none" xmlns="http://www.w3.org/2000/svg">
<path d="M20.5 4.84961V19.1223H19.8636V4.84961H20.5ZM22 19.6223V4.34961C22 3.79732 21.5523 3.34961 21 3.34961H19.3636C18.8114 3.34961 18.3636 3.79733 18.3636 4.34961V19.6223C18.3636 20.1746 18.8114 20.6223 19.3636 20.6223H21C21.5523 20.6223 22 20.1746 22 19.6223ZM15.0454 8.48608V19.1224H14.4091V8.48608H15.0454ZM16.5454 19.6224V7.98608C16.5454 7.4338 16.0977 6.98608 15.5454 6.98608H13.9091C13.3568 6.98608 12.9091 7.4338 12.9091 7.98608V19.6224C12.9091 20.1747 13.3568 20.6224 13.9091 20.6224H15.5454C16.0977 20.6224 16.5454 20.1747 16.5454 19.6224ZM9.59095 19.1224H8.95459V13.0315H9.59095V19.1224ZM10.091 20.6224C10.6432 20.6224 11.091 20.1747 11.091 19.6224V12.5315C11.091 11.9792 10.6432 11.5315 10.091 11.5315H8.45459C7.90231 11.5315 7.45459 11.9792 7.45459 12.5315V19.6224C7.45459 20.1747 7.90231 20.6224 8.45459 20.6224H10.091ZM4.13636 16.6677V19.1223H3.5V16.6677H4.13636ZM5.63636 19.6223V16.1677C5.63636 15.6154 5.18865 15.1677 4.63636 15.1677H3C2.44772 15.1677 2 15.6154 2 16.1677V19.6223C2 20.1746 2.44772 20.6223 3 20.6223H4.63636C5.18865 20.6223 5.63636 20.1746 5.63636 19.6223Z" fill="black"/>
</svg>
