<svg width="24" height="24" viewBox="0 0 24 24" fill="none" xmlns="http://www.w3.org/2000/svg">
<path d="M7.15039 6.31232V4.75C7.15039 4.33578 6.8146 4 6.40039 4C5.98618 4 5.65039 4.33578 5.65039 4.75V6.24302C5.85639 6.18248 6.0744 6.15 6.3 6.15C6.60039 6.15 6.88734 6.20759 7.15039 6.31232Z" fill="black"/>
<path d="M7.15039 10.5877C6.88734 10.6924 6.60039 10.75 6.3 10.75C6.0744 10.75 5.85639 10.7175 5.65039 10.657V19.75C5.65039 20.1642 5.98618 20.5 6.40039 20.5C6.8146 20.5 7.15039 20.1642 7.15039 19.75V10.5877Z" fill="black"/>
<path d="M7.1 8.45C7.1 8.89183 6.74183 9.25 6.3 9.25C5.85817 9.25 5.5 8.89183 5.5 8.45C5.5 8.00817 5.85817 7.65 6.3 7.65C6.74183 7.65 7.1 8.00817 7.1 8.45ZM8.6 8.45C8.6 7.17974 7.57025 6.15 6.3 6.15C5.02975 6.15 4 7.17974 4 8.45C4 9.72025 5.02975 10.75 6.3 10.75C7.57025 10.75 8.6 9.72025 8.6 8.45Z" fill="black"/>
<path d="M19.1504 6.31232V4.75C19.1504 4.33578 18.8146 4 18.4004 4C17.9862 4 17.6504 4.33578 17.6504 4.75V6.24302C17.8564 6.18248 18.0744 6.15 18.3 6.15C18.6004 6.15 18.8873 6.20759 19.1504 6.31232Z" fill="black"/>
<path d="M19.1504 10.5877C18.8873 10.6924 18.6004 10.75 18.3 10.75C18.0744 10.75 17.8564 10.7175 17.6504 10.657V19.75C17.6504 20.1642 17.9862 20.5 18.4004 20.5C18.8146 20.5 19.1504 20.1642 19.1504 19.75V10.5877Z" fill="black"/>
<path d="M19.1 8.45C19.1 8.89183 18.7418 9.25 18.3 9.25C17.8582 9.25 17.5 8.89183 17.5 8.45C17.5 8.00817 17.8582 7.65 18.3 7.65C18.7418 7.65 19.1 8.00817 19.1 8.45ZM20.6 8.45C20.6 7.17974 19.5703 6.15 18.3 6.15C17.0297 6.15 16 7.17974 16 8.45C16 9.72025 17.0297 10.75 18.3 10.75C19.5703 10.75 20.6 9.72025 20.6 8.45Z" fill="black"/>
<path d="M13.1504 14.3123V4.75C13.1504 4.33578 12.8146 4 12.4004 4C11.9862 4 11.6504 4.33578 11.6504 4.75V14.243C11.8564 14.1825 12.0744 14.15 12.3 14.15C12.6004 14.15 12.8873 14.2076 13.1504 14.3123Z" fill="black"/>
<path d="M13.1504 18.5877C12.8873 18.6924 12.6004 18.75 12.3 18.75C12.0744 18.75 11.8564 18.7175 11.6504 18.657V19.75C11.6504 20.1642 11.9862 20.5 12.4004 20.5C12.8146 20.5 13.1504 20.1642 13.1504 19.75V18.5877Z" fill="black"/>
<path d="M13.1 16.45C13.1 16.8918 12.7418 17.25 12.3 17.25C11.8582 17.25 11.5 16.8918 11.5 16.45C11.5 16.0082 11.8582 15.65 12.3 15.65C12.7418 15.65 13.1 16.0082 13.1 16.45ZM14.6 16.45C14.6 15.1797 13.5703 14.15 12.3 14.15C11.0297 14.15 10 15.1797 10 16.45C10 17.7203 11.0297 18.75 12.3 18.75C13.5703 18.75 14.6 17.7203 14.6 16.45Z" fill="black"/>
</svg>
