<svg width="24" height="24" viewBox="0 0 24 24" fill="none" xmlns="http://www.w3.org/2000/svg">
<path d="M16.05 7.1C15.6082 7.1 15.25 6.74183 15.25 6.3C15.25 5.85817 15.6082 5.5 16.05 5.5C16.4918 5.5 16.85 5.85817 16.85 6.3C16.85 6.74183 16.4918 7.1 16.05 7.1ZM16.05 8.6C17.02 8.6 17.8498 7.99947 18.1879 7.1499H19.75C20.1642 7.1499 20.5 6.81412 20.5 6.3999C20.5 5.98569 20.1642 5.6499 19.75 5.6499H18.2568C17.9763 4.69622 17.0945 4 16.05 4C15.0055 4 14.1236 4.69622 13.8432 5.6499H4.75C4.33579 5.6499 4 5.98569 4 6.3999C4 6.81412 4.33579 7.1499 4.75 7.1499H13.9121C14.2502 7.99947 15.08 8.6 16.05 8.6ZM16.05 19.1C15.6082 19.1 15.25 18.7418 15.25 18.3C15.25 17.8582 15.6082 17.5 16.05 17.5C16.4918 17.5 16.85 17.8582 16.85 18.3C16.85 18.7418 16.4918 19.1 16.05 19.1ZM16.05 20.6C17.02 20.6 17.8498 19.9995 18.1879 19.1499H19.75C20.1642 19.1499 20.5 18.8141 20.5 18.3999C20.5 17.9857 20.1642 17.6499 19.75 17.6499H18.2568C17.9763 16.6962 17.0945 16 16.05 16C15.0055 16 14.1236 16.6962 13.8432 17.6499H4.75C4.33579 17.6499 4 17.9857 4 18.3999C4 18.8141 4.33579 19.1499 4.75 19.1499H13.9121C14.2502 19.9995 15.08 20.6 16.05 20.6ZM8.85 12.3C8.85 12.7418 8.49183 13.1 8.05 13.1C7.60817 13.1 7.25 12.7418 7.25 12.3C7.25 11.8582 7.60817 11.5 8.05 11.5C8.49183 11.5 8.85 11.8582 8.85 12.3ZM10.1878 13.15H19.75C20.1642 13.15 20.5 12.8142 20.5 12.4C20.5 11.9858 20.1642 11.65 19.75 11.65H10.2569C9.97642 10.6963 9.09453 10 8.05 10C7.00547 10 6.12357 10.6963 5.84313 11.65H4.75C4.33579 11.65 4 11.9858 4 12.4C4 12.8142 4.33579 13.15 4.75 13.15H5.91218C6.25025 13.9995 7.08 14.6 8.05 14.6C9.02 14.6 9.84975 13.9995 10.1878 13.15Z" fill="black"/>
</svg>
