<svg width="24" height="24" viewBox="0 0 24 24" fill="none" xmlns="http://www.w3.org/2000/svg">
<path d="M8.52498 5.00019C8.11077 5.00019 7.77498 5.33598 7.77498 5.75019V17.3503C7.77498 17.7645 8.11077 18.1003 8.52498 18.1003C8.9392 18.1003 9.27498 17.7645 9.27498 17.3503V5.75019C9.27498 5.33598 8.9392 5.00019 8.52498 5.00019Z" fill="black"/>
<path d="M11.8307 9.0555C12.1236 8.76261 12.1236 8.28774 11.8307 7.99485L9.05572 5.21986C8.76283 4.92697 8.28795 4.92697 7.99506 5.21986C7.70217 5.51276 7.70217 5.98763 7.99506 6.28052L10.77 9.0555C11.0629 9.3484 11.5378 9.3484 11.8307 9.0555Z" fill="black"/>
<path d="M9.05572 5.21986C8.76283 4.92697 8.28795 4.92697 7.99506 5.21986L5.21967 7.99485C4.92678 8.28774 4.92678 8.76261 5.21967 9.0555C5.51256 9.3484 5.98744 9.3484 6.28033 9.0555L9.05531 6.28052C9.34821 5.98763 9.34861 5.51276 9.05572 5.21986Z" fill="black"/>
<path d="M13.8199 9.17207C13.8199 9.58628 14.1557 9.92207 14.5699 9.92207H17.519C17.9332 9.92207 18.269 9.58628 18.269 9.17207C18.269 8.75785 17.9332 8.42207 17.519 8.42207H14.5699C14.1557 8.42207 13.8199 8.75785 13.8199 9.17207Z" fill="black"/>
<path d="M16.345 5.06153C15.9647 4.89747 15.5234 5.07279 15.3593 5.45312L13.5609 9.62209C13.3969 10.0024 13.5722 10.4438 13.9525 10.6078C14.3329 10.7719 14.7742 10.5966 14.9383 10.2162L16.7366 6.04726C16.9007 5.66692 16.7254 5.2256 16.345 5.06153Z" fill="black"/>
<path d="M15.7522 5.06116C15.3717 5.22474 15.1958 5.66584 15.3594 6.04638L17.1515 10.2154C17.3151 10.5959 17.7562 10.7718 18.1367 10.6082C18.5172 10.4446 18.6931 10.0035 18.5295 9.62297L16.7375 5.454C16.5739 5.07346 16.1328 4.89757 15.7522 5.06116Z" fill="black"/>
<path d="M13.4996 13.2219C13.4996 13.6361 13.8354 13.9719 14.2496 13.9719H16.1941L13.6837 16.8584C13.4908 17.0802 13.4452 17.3941 13.5671 17.6616C13.6889 17.929 13.9557 18.1006 14.2496 18.1006H17.8403C18.2546 18.1006 18.5903 17.7648 18.5903 17.3506C18.5903 16.9364 18.2546 16.6006 17.8403 16.6006H15.8958L18.4063 13.714C18.5991 13.4923 18.6447 13.1784 18.5229 12.9109C18.401 12.6435 18.1342 12.4719 17.8403 12.4719H14.2496C13.8354 12.4719 13.4996 12.8077 13.4996 13.2219Z" fill="black"/>
</svg>
