<svg width="24" height="24" viewBox="0 0 24 24" fill="none" xmlns="http://www.w3.org/2000/svg">
<path fill-rule="evenodd" clip-rule="evenodd" d="M14.3313 11.5588L15.7341 9.39683C15.6801 9.40111 15.6261 9.40325 15.572 9.40325C15.2778 9.40325 15.0036 9.34675 14.7525 9.23087C14.507 9.11753 14.2919 8.96264 14.1086 8.76677L14.1062 8.76421C13.9295 8.5685 13.7916 8.34212 13.692 8.08696L13.6904 8.08298C13.5964 7.826 13.55 7.55455 13.55 7.27006C13.55 6.93305 13.6083 6.62102 13.7283 6.33687C13.8466 6.05662 14.0103 5.8162 14.2203 5.61886C14.4347 5.4171 14.6862 5.26358 14.9723 5.15782L14.9736 5.15734C15.2652 5.05189 15.5763 5 15.9056 5C16.2391 5 16.5501 5.05145 16.8365 5.15692C17.1273 5.25628 17.3796 5.40361 17.5897 5.60066C17.8061 5.79828 17.9706 6.03964 18.0837 6.32153C18.2033 6.60565 18.2612 6.92003 18.2612 7.2615C18.2612 7.60337 18.2032 7.92022 18.084 8.20932L18.0835 8.21036L16.2312 11.0582C16.0187 11.408 15.875 11.6353 15.9056 11.5588H14.3313ZM16.7144 6.93066L16.7132 6.92784C16.6665 6.81554 16.6023 6.72233 16.521 6.6456L16.5127 6.63775C16.436 6.55651 16.343 6.4921 16.2307 6.44531L16.2279 6.44413C16.1238 6.39886 16.0086 6.37515 15.8799 6.37515C15.7519 6.37515 15.6332 6.39863 15.522 6.44472C15.4148 6.49154 15.3192 6.55682 15.2344 6.64162C15.1574 6.71864 15.0944 6.81311 15.0466 6.92784L15.0455 6.93067C15.0002 7.03479 14.9765 7.14995 14.9765 7.27861C14.9765 7.40667 15 7.52539 15.0461 7.63653C15.0931 7.74436 15.1558 7.83988 15.2345 7.92408C15.3187 8.00273 15.4142 8.06544 15.522 8.1125C15.6332 8.15859 15.7519 8.18207 15.8799 8.18207C16.0086 8.18207 16.1238 8.15839 16.2279 8.11312L16.2307 8.11189C16.3454 8.06409 16.4399 8.00117 16.5169 7.92415C16.6017 7.83935 16.667 7.74375 16.7138 7.63653C16.7599 7.52538 16.7834 7.40667 16.7834 7.27861C16.7834 7.14995 16.7597 7.03478 16.7144 6.93066Z" fill="black"/>
<path d="M16.179 19.3996V14.7812L15.2235 15.6649L14.3599 14.641L16.4008 12.9434H17.6055V19.3996H16.179Z" fill="black"/>
<path d="M10.275 18.5C10.275 18.9142 9.9392 19.25 9.52498 19.25C9.11077 19.25 8.77498 18.9142 8.77498 18.5V7.71056L7.28033 9.20522C6.98744 9.49811 6.51256 9.49811 6.21967 9.20522C5.92678 8.91232 5.92678 8.43745 6.21967 8.14456L8.98014 5.38449C9.11685 5.24003 9.31055 5.1499 9.52514 5.1499L9.52761 5.14991C9.71881 5.15047 9.90984 5.22369 10.0557 5.36957L12.8307 8.14456C13.1236 8.43745 13.1236 8.91232 12.8307 9.20522C12.5378 9.49811 12.0629 9.49811 11.77 9.20522L10.275 7.71015V18.5Z" fill="black"/>
</svg>
