<svg width="24" height="24" viewBox="0 0 24 24" fill="none" xmlns="http://www.w3.org/2000/svg">
<path d="M11.5878 4.70711L15.9665 9.08579H7.20911L11.5878 4.70711ZM17.8807 8.87868L12.2949 3.29289C11.9044 2.90237 11.2712 2.90237 10.8807 3.29289L5.2949 8.87868C4.66493 9.50865 5.1111 10.5858 6.002 10.5858H17.1736C18.0645 10.5858 18.5107 9.50865 17.8807 8.87868ZM11.588 18.4645L7.20931 14.0858H15.9667L11.588 18.4645ZM5.29509 14.2929L10.8809 19.8787C11.2714 20.2692 11.9046 20.2692 12.2951 19.8787L17.8809 14.2929C18.5108 13.6629 18.0647 12.5858 17.1738 12.5858H6.0022C5.1113 12.5858 4.66513 13.6629 5.29509 14.2929Z" fill="black"/>
</svg>
