<svg width="24" height="24" viewBox="0 0 24 24" fill="none" xmlns="http://www.w3.org/2000/svg">
<path d="M8.52539 18.1001C8.9396 18.1001 9.27539 17.7643 9.27539 17.3501V5.75C9.27539 5.33579 8.9396 5 8.52539 5C8.11118 5 7.77539 5.33579 7.77539 5.75V17.3501C7.77539 17.7643 8.11118 18.1001 8.52539 18.1001Z" fill="black"/>
<path d="M5.21967 14.0448C4.92678 14.3377 4.92678 14.8126 5.21967 15.1054L7.99465 17.8804C8.28755 18.1733 8.76242 18.1733 9.05531 17.8804C9.34821 17.5875 9.34821 17.1127 9.05531 16.8198L6.28033 14.0448C5.98744 13.7519 5.51256 13.7519 5.21967 14.0448Z" fill="black"/>
<path d="M7.99465 17.8804C8.28755 18.1733 8.76242 18.1733 9.05531 17.8804L11.8307 15.1054C12.1236 14.8126 12.1236 14.3377 11.8307 14.0448C11.5378 13.7519 11.0629 13.7519 10.77 14.0448L7.99506 16.8198C7.70217 17.1127 7.70176 17.5875 7.99465 17.8804Z" fill="black"/>
<path d="M13.8203 9.17236C13.8203 9.58658 14.1561 9.92236 14.5703 9.92236H17.5194C17.9336 9.92236 18.2694 9.58658 18.2694 9.17236C18.2694 8.75815 17.9336 8.42236 17.5194 8.42236H14.5703C14.1561 8.42236 13.8203 8.75815 13.8203 9.17236Z" fill="black"/>
<path d="M16.3454 5.06183C15.9651 4.89776 15.5238 5.07308 15.3597 5.45342L13.5613 9.62239C13.3973 10.0027 13.5726 10.4441 13.9529 10.6081C14.3333 10.7722 14.7746 10.5969 14.9387 10.2165L16.737 6.04756C16.9011 5.66722 16.7258 5.2259 16.3454 5.06183Z" fill="black"/>
<path d="M15.7526 5.06145C15.3721 5.22503 15.1962 5.66614 15.3598 6.04668L17.1519 10.2156C17.3155 10.5962 17.7566 10.7721 18.1371 10.6085C18.5177 10.4449 18.6935 10.0038 18.53 9.62327L16.7379 5.4543C16.5743 5.07375 16.1332 4.89787 15.7526 5.06145Z" fill="black"/>
<path d="M13.5 13.2222C13.5 13.6364 13.8358 13.9722 14.25 13.9722H16.1945L13.6841 16.8587C13.4912 17.0805 13.4457 17.3944 13.5675 17.6618C13.6893 17.9293 13.9561 18.1009 14.25 18.1009H17.8408C18.255 18.1009 18.5908 17.7651 18.5908 17.3509C18.5908 16.9367 18.255 16.6009 17.8408 16.6009H15.8962L18.4067 13.7143C18.5995 13.4926 18.6451 13.1787 18.5233 12.9112C18.4014 12.6438 18.1346 12.4722 17.8408 12.4722H14.25C13.8358 12.4722 13.5 12.808 13.5 13.2222Z" fill="black"/>
</svg>
