<svg width="24" height="24" viewBox="0 0 24 24" fill="none" xmlns="http://www.w3.org/2000/svg">
<path d="M12.4996 7.75C12.4996 8.16421 12.8354 8.5 13.2496 8.5H20.2496C20.6638 8.5 20.9996 8.16421 20.9996 7.75C20.9996 7.33579 20.6638 7 20.2496 7H13.2496C12.8354 7 12.4996 7.33579 12.4996 7.75Z" fill="black"/>
<path d="M12.4996 12.25C12.4996 12.6642 12.8354 13 13.2496 13H20.2496C20.6638 13 20.9996 12.6642 20.9996 12.25C20.9996 11.8358 20.6638 11.5 20.2496 11.5H13.2496C12.8354 11.5 12.4996 11.8358 12.4996 12.25Z" fill="black"/>
<path d="M12.4996 16.75C12.4996 17.1642 12.8354 17.5 13.2496 17.5H20.2496C20.6638 17.5 20.9996 17.1642 20.9996 16.75C20.9996 16.3358 20.6638 16 20.2496 16H13.2496C12.8354 16 12.4996 16.3358 12.4996 16.75Z" fill="black"/>
<path d="M7.52498 7C7.11077 7 6.77498 7.33579 6.77498 7.75V16.6499C6.77498 17.0641 7.11077 17.3999 7.52498 17.3999C7.9392 17.3999 8.27498 17.0641 8.27498 16.6499V7.75C8.27498 7.33579 7.9392 7 7.52498 7Z" fill="black"/>
<path d="M10.8307 11.0553C11.1236 10.7624 11.1236 10.2875 10.8307 9.99465L8.05572 7.21967C7.76283 6.92678 7.28795 6.92678 6.99506 7.21967C6.70217 7.51256 6.70217 7.98744 6.99506 8.28033L9.77004 11.0553C10.0629 11.3482 10.5378 11.3482 10.8307 11.0553Z" fill="black"/>
<path d="M8.05572 7.21967C7.76283 6.92678 7.28795 6.92678 6.99506 7.21967L4.21967 9.99465C3.92678 10.2875 3.92678 10.7624 4.21967 11.0553C4.51256 11.3482 4.98744 11.3482 5.28033 11.0553L8.05531 8.28033C8.34821 7.98744 8.34861 7.51256 8.05572 7.21967Z" fill="black"/>
</svg>
