<svg width="24" height="24" viewBox="0 0 24 24" fill="none" xmlns="http://www.w3.org/2000/svg">
<path d="M11.5 7.75C11.5 8.16421 11.8358 8.5 12.25 8.5H19.25C19.6642 8.5 20 8.16421 20 7.75C20 7.33579 19.6642 7 19.25 7H12.25C11.8358 7 11.5 7.33579 11.5 7.75Z" fill="black"/>
<path d="M11.5 12.25C11.5 12.6642 11.8358 13 12.25 13H19.25C19.6642 13 20 12.6642 20 12.25C20 11.8358 19.6642 11.5 19.25 11.5H12.25C11.8358 11.5 11.5 11.8358 11.5 12.25Z" fill="black"/>
<path d="M11.5 16.75C11.5 17.1642 11.8358 17.5 12.25 17.5H19.25C19.6642 17.5 20 17.1642 20 16.75C20 16.3358 19.6642 16 19.25 16H12.25C11.8358 16 11.5 16.3358 11.5 16.75Z" fill="black"/>
<path d="M6.52539 17.4004C6.9396 17.4004 7.27539 17.0646 7.27539 16.6504V7.75049C7.27539 7.33628 6.9396 7.00049 6.52539 7.00049C6.11118 7.00049 5.77539 7.33628 5.77539 7.75049V16.6504C5.77539 17.0646 6.11118 17.4004 6.52539 17.4004Z" fill="black"/>
<path d="M3.21967 13.3451C2.92678 13.638 2.92678 14.1128 3.21967 14.4057L5.99465 17.1807C6.28755 17.4736 6.76242 17.4736 7.05531 17.1807C7.34821 16.8878 7.34821 16.413 7.05531 16.1201L4.28033 13.3451C3.98744 13.0522 3.51256 13.0522 3.21967 13.3451Z" fill="black"/>
<path d="M5.99465 17.1807C6.28755 17.4736 6.76242 17.4736 7.05531 17.1807L9.8307 14.4057C10.1236 14.1128 10.1236 13.638 9.8307 13.3451C9.53781 13.0522 9.06294 13.0522 8.77004 13.3451L5.99506 16.1201C5.70217 16.413 5.70176 16.8878 5.99465 17.1807Z" fill="black"/>
</svg>
