<svg width="24" height="24" viewBox="0 0 24 24" fill="none" xmlns="http://www.w3.org/2000/svg">
<path d="M15.7341 9.39683L14.3313 11.5588H15.9056C15.875 11.6353 16.0187 11.408 16.2312 11.0582L18.0835 8.21036L18.0839 8.20932C18.2032 7.92022 18.2612 7.60337 18.2612 7.2615C18.2612 6.92003 18.2033 6.60565 18.0837 6.32153C17.9706 6.03964 17.8061 5.79828 17.5897 5.60066C17.3796 5.40361 17.1273 5.25628 16.8364 5.15692C16.5501 5.05145 16.2391 5 15.9056 5C15.5763 5 15.2651 5.05189 14.9736 5.15734L14.9723 5.15782C14.6861 5.26358 14.4347 5.4171 14.2203 5.61886C14.0103 5.8162 13.8466 6.05662 13.7283 6.33687C13.6083 6.62102 13.55 6.93305 13.55 7.27006C13.55 7.55455 13.5964 7.826 13.6904 8.08298L13.692 8.08696C13.7916 8.34212 13.9295 8.5685 14.1062 8.76421L14.1086 8.76677C14.2919 8.96264 14.507 9.11753 14.7525 9.23087C15.0036 9.34675 15.2778 9.40325 15.572 9.40325C15.6261 9.40325 15.6801 9.40111 15.7341 9.39683ZM16.7132 6.92784L16.7144 6.93066C16.7597 7.03478 16.7834 7.14995 16.7834 7.27861C16.7834 7.40667 16.7599 7.52538 16.7138 7.63653C16.667 7.74375 16.6017 7.83935 16.5169 7.92415C16.4399 8.00117 16.3454 8.06409 16.2307 8.11189L16.2279 8.11312C16.1238 8.15839 16.0086 8.18207 15.8799 8.18207C15.7519 8.18207 15.6332 8.15859 15.522 8.1125C15.4142 8.06544 15.3187 8.00273 15.2345 7.92408C15.1558 7.83988 15.0931 7.74436 15.046 7.63653C15 7.52539 14.9765 7.40667 14.9765 7.27861C14.9765 7.14995 15.0002 7.03479 15.0455 6.93067L15.0466 6.92784C15.0944 6.81311 15.1574 6.71864 15.2344 6.64162C15.3192 6.55682 15.4148 6.49154 15.522 6.44472C15.6332 6.39863 15.7519 6.37515 15.8799 6.37515C16.0086 6.37515 16.1238 6.39886 16.2279 6.44413L16.2307 6.44531C16.343 6.4921 16.436 6.55651 16.5127 6.63775L16.521 6.6456C16.6023 6.72233 16.6664 6.81554 16.7132 6.92784Z" fill="black"/>
<path d="M16.179 14.7812V19.3996H17.6055V12.9434H16.4008L14.3599 14.641L15.2234 15.6649L16.179 14.7812Z" fill="black"/>
<path d="M9.52539 5.14971C9.11118 5.14971 8.77539 5.48549 8.77539 5.89971V16.6896L7.28033 15.1945C6.98744 14.9016 6.51256 14.9016 6.21967 15.1945C5.92678 15.4874 5.92678 15.9623 6.21967 16.2552L8.99465 19.0301C9.14053 19.176 9.33156 19.2492 9.52276 19.2498L9.52524 19.2498C9.73983 19.2498 9.93352 19.1597 10.0702 19.0152L12.8307 16.2552C13.1236 15.9623 13.1236 15.4874 12.8307 15.1945C12.5378 14.9016 12.0629 14.9016 11.77 15.1945L10.2754 16.6891V5.89971C10.2754 5.48549 9.9396 5.14971 9.52539 5.14971Z" fill="black"/>
</svg>
