<svg width="24" height="24" viewBox="0 0 24 24" fill="none" xmlns="http://www.w3.org/2000/svg">
<path d="M16.5 4.5C17.0523 4.5 17.5 4.94772 17.5 5.5V18.5C17.5 19.0523 17.0523 19.5 16.5 19.5H8.5C7.94772 19.5 7.5 19.0523 7.5 18.5V5.5C7.5 4.94772 7.94772 4.5 8.5 4.5H16.5ZM8.5 3C7.11929 3 6 4.11929 6 5.5V18.5C6 19.8807 7.11929 21 8.5 21H16.5C17.8807 21 19 19.8807 19 18.5V5.5C19 4.11929 17.8807 3 16.5 3H8.5ZM12.5 16.5C11.6716 16.5 11 15.8284 11 15C11 14.1716 11.6716 13.5 12.5 13.5C13.3284 13.5 14 14.1716 14 15C14 15.8284 13.3284 16.5 12.5 16.5ZM12.5 18C14.1569 18 15.5 16.6569 15.5 15C15.5 13.3431 14.1569 12 12.5 12C10.8431 12 9.5 13.3431 9.5 15C9.5 16.6569 10.8431 18 12.5 18ZM12.5 8C13.0523 8 13.5 7.55228 13.5 7C13.5 6.44772 13.0523 6 12.5 6C11.9477 6 11.5 6.44772 11.5 7C11.5 7.55228 11.9477 8 12.5 8Z" fill="black"/>
</svg>
