<svg width="24" height="24" viewBox="0 0 24 24" fill="none" xmlns="http://www.w3.org/2000/svg">
<path d="M12.5 2.75C12.5 2.33579 12.1642 2 11.75 2C11.3358 2 11 2.33579 11 2.75V5.75C11 6.16421 11.3358 6.5 11.75 6.5C12.1642 6.5 12.5 6.16421 12.5 5.75V2.75ZM16.8996 4.33488C17.1066 3.97609 16.9836 3.51744 16.6248 3.31045C16.266 3.10346 15.8074 3.22651 15.6004 3.58529L14.1004 6.18529C13.8934 6.54408 14.0164 7.00273 14.3752 7.20973C14.734 7.41672 15.1927 7.29366 15.3996 6.93488L16.8996 4.33488ZM20.1896 6.87533C19.9827 6.51655 19.524 6.39349 19.1652 6.60049L16.5652 8.10049C16.2064 8.30748 16.0834 8.76613 16.2904 9.12492C16.4974 9.4837 16.956 9.60676 17.3148 9.39976L19.9148 7.89976C20.2736 7.69277 20.3966 7.23412 20.1896 6.87533ZM17.75 11C17.3358 11 17 11.3358 17 11.75C17 12.1642 17.3358 12.5 17.75 12.5H20.75C21.1642 12.5 21.5 12.1642 21.5 11.75C21.5 11.3358 21.1642 11 20.75 11H17.75ZM2 11.75C2 12.1642 2.33579 12.5 2.75 12.5H5.75C6.16421 12.5 6.5 12.1642 6.5 11.75C6.5 11.3358 6.16421 11 5.75 11H2.75C2.33579 11 2 11.3358 2 11.75ZM4.33479 6.60049C3.976 6.39349 3.51735 6.51655 3.31036 6.87533C3.10336 7.23412 3.22642 7.69277 3.5852 7.89976L6.1852 9.39976C6.54399 9.60676 7.00264 9.4837 7.20963 9.12492C7.41663 8.76613 7.29357 8.30748 6.93479 8.10049L4.33479 6.60049ZM6.87521 3.31045C6.51643 3.51744 6.39337 3.97609 6.60036 4.33488L8.10036 6.93488C8.30736 7.29366 8.76601 7.41672 9.12479 7.20973C9.48358 7.00273 9.60663 6.54408 9.39964 6.18529L7.89964 3.58529C7.69265 3.22651 7.234 3.10346 6.87521 3.31045ZM12.5 17.75C12.5 17.3358 12.1642 17 11.75 17C11.3358 17 11 17.3358 11 17.75V20.75C11 21.1642 11.3358 21.5 11.75 21.5C12.1642 21.5 12.5 21.1642 12.5 20.75V17.75ZM9.12479 16.2899C8.76601 16.0829 8.30736 16.206 8.10036 16.5648L6.60036 19.1648C6.39337 19.5236 6.51643 19.9822 6.87521 20.1892C7.234 20.3962 7.69265 20.2732 7.89964 19.9144L9.39964 17.3144C9.60663 16.9556 9.48358 16.4969 9.12479 16.2899ZM6.93479 15.3998C7.29357 15.1928 7.41663 14.7341 7.20963 14.3753C7.00264 14.0165 6.54399 13.8935 6.1852 14.1005L3.5852 15.6005C3.22642 15.8075 3.10336 16.2661 3.31036 16.6249C3.51735 16.9837 3.976 17.1068 4.33479 16.8998L6.93479 15.3998ZM16.2904 14.3753C16.0834 14.7341 16.2064 15.1928 16.5652 15.3998L19.1652 16.8998C19.524 17.1068 19.9827 16.9837 20.1896 16.6249C20.3966 16.2661 20.2736 15.8075 19.9148 15.6005L17.3148 14.1005C16.956 13.8935 16.4974 14.0165 16.2904 14.3753ZM15.3996 16.5648C15.1927 16.206 14.734 16.0829 14.3752 16.2899C14.0164 16.4969 13.8934 16.9556 14.1004 17.3144L15.6004 19.9144C15.8074 20.2732 16.266 20.3962 16.6248 20.1892C16.9836 19.9822 17.1066 19.5236 16.8996 19.1648L15.3996 16.5648Z" fill="black"/>
</svg>
