<svg width="24" height="24" viewBox="0 0 24 24" fill="none" xmlns="http://www.w3.org/2000/svg">
<path d="M8.75 18.9355C9.16421 18.9355 9.5 18.5998 9.5 18.1855V5.81395C9.5 5.39974 9.16421 5.06395 8.75 5.06395C8.33579 5.06395 8 5.39974 8 5.81395V18.1855C8 18.5998 8.33579 18.9355 8.75 18.9355Z" fill="black"/>
<path d="M10.2428 12.0007L15.0078 7.29782V16.7028L10.2428 12.0007ZM15.0228 5.17556L9.08815 11.0327C8.47858 11.4788 8.47858 12.5206 9.08722 12.9678L15.0228 18.8249C15.6689 19.2996 16.5078 18.7533 16.5078 17.8568V6.14363C16.5078 5.24715 15.6689 4.69978 15.0228 5.17556Z" fill="black"/>
</svg>
