<svg width="24" height="24" viewBox="0 0 24 24" fill="none" xmlns="http://www.w3.org/2000/svg">
<path d="M11.75 2C11.3358 2 11 2.33579 11 2.75V5.20455C11 5.61876 11.3358 5.95455 11.75 5.95455C12.1642 5.95455 12.5 5.61876 12.5 5.20455V2.75C12.5 2.33579 12.1642 2 11.75 2ZM11.75 9.15918C13.1808 9.15918 14.3409 10.3193 14.3409 11.7501C14.3409 13.1809 13.1808 14.341 11.75 14.341C10.3193 14.341 9.15912 13.1809 9.15912 11.7501C9.15912 10.3193 10.3193 9.15918 11.75 9.15918ZM11.75 7.65918C9.49082 7.65918 7.65912 9.49088 7.65912 11.7501C7.65912 14.0093 9.49082 15.841 11.75 15.841C14.0092 15.841 15.8409 14.0093 15.8409 11.7501C15.8409 9.49088 14.0092 7.65918 11.75 7.65918ZM17.7765 6.78424C18.0694 6.49134 18.0694 6.01647 17.7765 5.72358C17.4836 5.43068 17.0087 5.43068 16.7158 5.72358L15.8477 6.59167C15.5548 6.88456 15.5548 7.35943 15.8477 7.65233C16.1406 7.94522 16.6155 7.94522 16.9084 7.65233L17.7765 6.78424ZM15.8477 15.8476C15.5548 16.1405 15.5548 16.6154 15.8477 16.9083L16.7158 17.7764C17.0087 18.0692 17.4836 18.0692 17.7765 17.7764C18.0694 17.4835 18.0694 17.0086 17.7765 16.7157L16.9084 15.8476C16.6155 15.5547 16.1406 15.5547 15.8477 15.8476ZM7.65227 16.9083C7.94516 16.6154 7.94516 16.1405 7.65227 15.8476C7.35937 15.5547 6.8845 15.5547 6.59161 15.8476L5.72352 16.7157C5.43062 17.0086 5.43062 17.4835 5.72352 17.7764C6.01641 18.0692 6.49128 18.0692 6.78418 17.7764L7.65227 16.9083ZM5.72352 5.72358C5.43062 6.01647 5.43062 6.49134 5.72352 6.78424L6.59161 7.65233C6.8845 7.94522 7.35937 7.94522 7.65227 7.65233C7.94516 7.35943 7.94516 6.88456 7.65227 6.59167L6.78418 5.72358C6.49128 5.43068 6.01641 5.43068 5.72352 5.72358ZM18.2955 11H20.75C21.1642 11 21.5 11.3358 21.5 11.75C21.5 12.1642 21.1642 12.5 20.75 12.5H18.2955C17.8813 12.5 17.5455 12.1642 17.5455 11.75C17.5455 11.3358 17.8813 11 18.2955 11ZM11.75 17.5454C11.3358 17.5454 11 17.8812 11 18.2954V20.75C11 21.1642 11.3358 21.5 11.75 21.5C12.1642 21.5 12.5 21.1642 12.5 20.75V18.2954C12.5 17.8812 12.1642 17.5454 11.75 17.5454ZM2.75 11C2.33579 11 2 11.3358 2 11.75C2 12.1642 2.33579 12.5 2.75 12.5H5.20455C5.61876 12.5 5.95455 12.1642 5.95455 11.75C5.95455 11.3358 5.61876 11 5.20455 11H2.75Z" fill="black"/>
</svg>
