<svg width="24" height="24" viewBox="0 0 24 24" fill="none" xmlns="http://www.w3.org/2000/svg">
<path d="M14.6802 6.68084C14.9731 6.38799 14.9732 5.91312 14.6804 5.62018L12.2808 3.21976C12.1402 3.07907 11.9494 3.00002 11.7504 3C11.5515 2.99998 11.3607 3.079 11.22 3.21967L8.81963 5.62008C8.52674 5.91298 8.52674 6.38785 8.81963 6.68074C9.11253 6.97364 9.5874 6.97364 9.88029 6.68074L11 5.56104V8.56745C11 8.98166 11.3358 9.31745 11.75 9.31745C12.1642 9.31745 12.5 8.98166 12.5 8.56745V5.56072L13.6195 6.68065C13.9124 6.9736 14.3873 6.97368 14.6802 6.68084ZM5.89849 9.8371C5.6056 9.54421 5.13073 9.54421 4.83783 9.8371C4.54494 10.13 4.54494 10.6049 4.83783 10.8978L5.41056 11.4705C5.70345 11.7634 6.17833 11.7634 6.47122 11.4705C6.76411 11.1776 6.76411 10.7027 6.47122 10.4098L5.89849 9.8371ZM18.6621 10.8978C18.955 10.6049 18.955 10.13 18.6621 9.8371C18.3692 9.54421 17.8944 9.54421 17.6015 9.8371L17.0288 10.4098C16.7359 10.7027 16.7359 11.1776 17.0288 11.4705C17.3216 11.7634 17.7965 11.7634 18.0894 11.4705L18.6621 10.8978ZM19.1818 16.7493C19.1818 17.1635 19.5176 17.4993 19.9318 17.4993H20.75C21.1642 17.4993 21.5 17.1635 21.5 16.7493C21.5 16.3351 21.1642 15.9993 20.75 15.9993H19.9318C19.5176 15.9993 19.1818 16.3351 19.1818 16.7493ZM2.75 15.999C2.33579 15.999 2 16.3348 2 16.749C2 17.1632 2.33579 17.499 2.75 17.499H3.56818C3.9824 17.499 4.31818 17.1632 4.31818 16.749C4.31818 16.3348 3.9824 15.999 3.56818 15.999H2.75ZM11.75 12.5901C14.0472 12.5901 15.9091 14.4519 15.9091 16.7492C15.9091 17.1634 16.2448 17.4992 16.6591 17.4992C17.0733 17.4992 17.4091 17.1634 17.4091 16.7492C17.4091 13.6235 14.8756 11.0901 11.75 11.0901C8.6243 11.0901 6.09088 13.6235 6.09088 16.7492C6.09088 17.1634 6.42667 17.4992 6.84088 17.4992C7.2551 17.4992 7.59088 17.1634 7.59088 16.7492C7.59088 14.4519 9.45273 12.5901 11.75 12.5901ZM2.75 19.2722C2.33579 19.2722 2 19.608 2 20.0222C2 20.4364 2.33579 20.7722 2.75 20.7722H20.75C21.1642 20.7722 21.5 20.4364 21.5 20.0222C21.5 19.608 21.1642 19.2722 20.75 19.2722H2.75Z" fill="black"/>
</svg>
