<svg width="24" height="24" viewBox="0 0 24 24" fill="none" xmlns="http://www.w3.org/2000/svg">
<path d="M12.0929 3.21967C11.8 3.51256 11.8 3.98744 12.0929 4.28033L13.1626 5.34999L12.0929 6.41965C11.8 6.71255 11.8 7.18742 12.0929 7.48031C12.3858 7.77321 12.8607 7.77321 13.1536 7.48031L14.7536 5.88032C15.0465 5.58743 15.0465 5.11255 14.7536 4.81966L13.1536 3.21967C12.8607 2.92678 12.3858 2.92678 12.0929 3.21967Z" fill="black"/>
<path d="M12.2086 16.0197C11.9157 15.7268 11.4408 15.7268 11.1479 16.0197L9.54795 17.6197C9.25505 17.9126 9.25505 18.3875 9.54795 18.6804L11.1479 20.2804C11.4408 20.5733 11.9157 20.5733 12.2086 20.2804C12.5015 19.9875 12.5015 19.5126 12.2086 19.2197L11.1389 18.15L12.2086 17.0804C12.5015 16.7875 12.5015 16.3126 12.2086 16.0197Z" fill="black"/>
<path d="M17.6525 8.40228C17.2764 8.57584 17.1122 9.02143 17.2858 9.39753C17.6157 10.1124 17.8004 10.9081 17.8004 11.7499C17.8004 14.87 15.2706 17.3998 12.1504 17.3998C11.5973 17.3998 11.0629 17.3169 10.5531 17.1671C10.1557 17.0503 9.73882 17.2778 9.62204 17.6752C9.50525 18.0726 9.73274 18.4894 10.1301 18.6062C10.7692 18.794 11.4459 18.8998 12.1504 18.8998C16.099 18.8998 19.3004 15.6985 19.3004 11.7499C19.3004 10.6862 19.0665 9.67648 18.6478 8.76901C18.4742 8.39291 18.0286 8.22872 17.6525 8.40228Z" fill="black"/>
<path d="M12.15 6.09956C12.7031 6.09956 13.2375 6.18252 13.7473 6.33233C14.1447 6.44912 14.5615 6.22163 14.6783 5.82422C14.7951 5.42682 14.5676 5.00998 14.1702 4.89319C13.5312 4.7054 12.8545 4.59956 12.15 4.59956C8.20137 4.59956 5 7.80093 5 11.7495C5 12.8122 5.23288 13.8221 5.65059 14.73C5.82372 15.1063 6.26912 15.271 6.64541 15.0978C7.02171 14.9247 7.18641 14.4793 7.01329 14.103C6.68408 13.3875 6.5 12.5911 6.5 11.7495C6.5 8.62936 9.0298 6.09956 12.15 6.09956Z" fill="black"/>
</svg>
