<svg width="24" height="24" viewBox="0 0 24 24" fill="none" xmlns="http://www.w3.org/2000/svg">
<path d="M17 4.5C17.8284 4.5 18.5 5.17157 18.5 6V18C18.5 18.8284 17.8284 19.5 17 19.5H8C7.17157 19.5 6.5 18.8284 6.5 18V6C6.5 5.17157 7.17157 4.5 8 4.5H17ZM8 3C6.34315 3 5 4.34315 5 6V18C5 19.6569 6.34315 21 8 21H17C18.6569 21 20 19.6569 20 18V6C20 4.34315 18.6569 3 17 3H8Z" fill="black"/>
<path d="M13.3504 17.85C13.3504 17.3806 12.9698 17 12.5004 17C12.0309 17 11.6504 17.3806 11.6504 17.85C11.6504 18.3194 12.0309 18.7 12.5004 18.7C12.9698 18.7 13.3504 18.3194 13.3504 17.85Z" fill="black"/>
</svg>
