<svg width="24" height="24" viewBox="0 0 24 24" fill="none" xmlns="http://www.w3.org/2000/svg">
<path d="M18.8617 11.8499C19.4489 12.4389 19.4447 13.3932 18.8525 13.9771L13.9184 18.8412C13.3315 19.4198 12.3878 19.4165 11.8049 18.834L5.93963 12.9718C5.65815 12.6905 5.5 12.3089 5.5 11.9109V7C5.5 6.17157 6.17157 5.5 7 5.5H11.9093C12.3079 5.5 12.6902 5.65869 12.9716 5.94103L18.8617 11.8499ZM14.0339 4.88205C13.4711 4.31738 12.7066 4 11.9093 4H7C5.34315 4 4 5.34314 4 7V11.9109C4 12.7068 4.31629 13.4701 4.87925 14.0328L10.7446 19.8949C11.9103 21.06 13.7977 21.0665 14.9714 19.9094L19.9055 15.0453C21.0901 13.8776 21.0984 11.969 19.9241 10.7909L14.0339 4.88205Z" fill="black"/>
<path d="M9.14169 10.2409C9.7485 10.2409 10.2404 9.74899 10.2404 9.14218C10.2404 8.53537 9.7485 8.04346 9.14169 8.04346C8.53488 8.04346 8.04297 8.53537 8.04297 9.14218C8.04297 9.74899 8.53488 10.2409 9.14169 10.2409Z" fill="black"/>
</svg>
