<svg width="24" height="24" viewBox="0 0 24 24" fill="none" xmlns="http://www.w3.org/2000/svg">
<path d="M15.3279 11.7775C15.7193 12.1702 15.7166 12.8064 15.3217 13.1956L11.1487 17.3095C10.7575 17.6952 10.1283 17.693 9.73976 17.3046L4.79308 12.3606C4.60543 12.1731 4.5 11.9187 4.5 11.6533V7.5C4.5 6.94772 4.94772 6.5 5.5 6.5H9.65198C9.91775 6.5 10.1726 6.60579 10.3602 6.79402L15.3279 11.7775ZM11.4226 5.73504C10.9535 5.26448 10.3164 5 9.65198 5H5.5C4.11929 5 3 6.11929 3 7.5V11.6533C3 12.3166 3.26358 12.9527 3.73271 13.4216L8.67938 18.3656C9.65085 19.3365 11.2237 19.3419 12.2018 18.3777L16.3748 14.2638C17.3619 13.2907 17.3688 11.7002 16.3903 10.7185L11.4226 5.73504Z" fill="black"/>
<path d="M14.8651 6.34334C14.5717 6.63577 14.571 7.11064 14.8634 7.404L18.3401 10.8917C19.2208 11.7752 19.2145 13.2067 18.3261 14.0825L14.6766 17.6803C14.3816 17.9711 14.3782 18.4459 14.669 18.7409C14.9598 19.0359 15.4347 19.0393 15.7297 18.7485L19.3792 15.1507C20.8599 13.691 20.8703 11.3053 19.4024 9.83274L15.9257 6.34502C15.6333 6.05167 15.1584 6.05091 14.8651 6.34334Z" fill="black"/>
<path d="M7.31943 10.2423C7.82914 10.2423 8.24235 9.82914 8.24235 9.31943C8.24235 8.80972 7.82914 8.39651 7.31943 8.39651C6.80972 8.39651 6.39651 8.80972 6.39651 9.31943C6.39651 9.82914 6.80972 10.2423 7.31943 10.2423Z" fill="black"/>
</svg>
