<svg width="24" height="24" viewBox="0 0 24 24" fill="none" xmlns="http://www.w3.org/2000/svg">
<path d="M11.2598 16.75C11.2598 17.1642 11.5956 17.5 12.0098 17.5H18.7505C19.1647 17.5 19.5005 17.1642 19.5005 16.75C19.5005 16.3358 19.1647 16 18.7505 16H12.0098C11.5956 16 11.2598 16.3358 11.2598 16.75Z" fill="black"/>
<path d="M5.22977 6.20976C4.9314 6.49708 4.92244 6.97187 5.20976 7.27023L9.52361 11.75L5.20976 16.2298C4.92244 16.5281 4.9314 17.0029 5.22977 17.2902C5.52814 17.5776 6.00293 17.5686 6.29024 17.2702L11.1051 12.2702C11.3847 11.9798 11.3847 11.5202 11.1051 11.2298L6.29024 6.22977C6.00293 5.9314 5.52814 5.92244 5.22977 6.20976Z" fill="black"/>
</svg>
