<svg width="24" height="24" viewBox="0 0 24 24" fill="none" xmlns="http://www.w3.org/2000/svg">
<path d="M11.375 3.75C11.375 3.33579 11.0392 3 10.625 3H2.75C2.33579 3 2 3.33579 2 3.75C2 4.16421 2.33579 4.5 2.75 4.5H10.625C11.0392 4.5 11.375 4.16421 11.375 3.75ZM19.625 4.5C19.8318 4.5 20 4.66821 20 4.875V8.25C20 8.45679 19.8318 8.625 19.625 8.625H16.25C16.0432 8.625 15.875 8.45679 15.875 8.25V4.875C15.875 4.66821 16.0432 4.5 16.25 4.5H19.625ZM21.5 4.875C21.5 3.83979 20.6602 3 19.625 3H16.25C15.2148 3 14.375 3.83979 14.375 4.875V8.25C14.375 9.28521 15.2148 10.125 16.25 10.125H19.625C20.6602 10.125 21.5 9.28521 21.5 8.25V4.875ZM10.625 8.625H2.75C2.33579 8.625 2 8.96079 2 9.375C2 9.78921 2.33579 10.125 2.75 10.125H10.625C11.0392 10.125 11.375 9.78921 11.375 9.375C11.375 8.96079 11.0392 8.625 10.625 8.625ZM21.5 15C21.5 15.4142 21.1642 15.75 20.75 15.75H2.75C2.33579 15.75 2 15.4142 2 15C2 14.5858 2.33579 14.25 2.75 14.25H20.75C21.1642 14.25 21.5 14.5858 21.5 15ZM20.75 19.875H2.75C2.33579 19.875 2 20.2108 2 20.625C2 21.0392 2.33579 21.375 2.75 21.375H20.75C21.1642 21.375 21.5 21.0392 21.5 20.625C21.5 20.2108 21.1642 19.875 20.75 19.875Z" fill="black"/>
</svg>
