<svg width="24" height="24" viewBox="0 0 24 24" fill="none" xmlns="http://www.w3.org/2000/svg">
<path d="M13.283 15.1292C13.5593 15.3183 13.7987 15.5766 13.9763 15.8844C14.1838 16.2439 14.3019 16.6622 14.3019 17.0991C14.3019 17.7554 14.0351 18.3546 13.5958 18.7939C13.1564 19.2333 12.5572 19.5 11.9009 19.5C11.2447 19.5 10.6454 19.2333 10.2061 18.7939C9.76675 18.3546 9.5 17.7554 9.5 17.0991C9.5 16.6622 9.6181 16.2439 9.82551 15.8844C10.0031 15.5766 10.2426 15.3183 10.5189 15.1292C10.9275 14.8497 11.1718 14.3864 11.1718 13.8913V5.2291C11.1718 4.99759 11.2575 4.82344 11.3764 4.70453C11.4953 4.58563 11.6694 4.5 11.9009 4.5C12.1324 4.5 12.3066 4.58563 12.4255 4.70453C12.5444 4.82344 12.63 4.99759 12.63 5.2291V13.8913C12.63 14.3864 12.8744 14.8497 13.283 15.1292ZM9.67183 13.8913C9.20501 14.2107 8.81297 14.6378 8.52623 15.1348C8.19117 15.7156 8 16.3914 8 17.0991C8 18.1718 8.43825 19.1474 9.14542 19.8546C9.85259 20.5617 10.8282 21 11.9009 21C12.9737 21 13.9493 20.5617 14.6564 19.8546C15.3636 19.1474 15.8019 18.1718 15.8019 17.0991C15.8019 16.3914 15.6107 15.7156 15.2756 15.1348C14.9889 14.6378 14.5968 14.2107 14.13 13.8913V5.2291C14.13 4.59752 13.8848 4.0425 13.4862 3.64387C13.0875 3.24525 12.5325 3 11.9009 3C11.2693 3 10.7143 3.24525 10.3157 3.64387C9.91707 4.0425 9.67183 4.59752 9.67183 5.2291V13.8913Z" fill="black"/>
</svg>
