<svg width="24" height="24" viewBox="0 0 24 24" fill="none" xmlns="http://www.w3.org/2000/svg">
<path d="M10.2508 13.1937H6.00157C5.0199 13.1937 4.30282 12.2664 4.54984 11.3163L5.7702 6.62255C5.94207 5.96148 6.53887 5.5 7.22193 5.5H14.5089V12.7302L11.9266 18.5404C11.8159 18.383 11.7508 18.1911 11.7508 17.9841V14.6937C11.7508 13.8653 11.0792 13.1937 10.2508 13.1937ZM16.0089 4H7.22193C5.85582 4 4.66222 4.92295 4.31846 6.24511L3.0981 10.9388C2.60406 12.839 4.03823 14.6937 6.00157 14.6937H10.2508V17.9841C10.2508 19.347 11.3557 20.4518 12.7186 20.4518L16.0089 13.0485V4Z" fill="black"/>
<path d="M18.1222 5.50006C18.3983 5.50006 18.6222 5.72391 18.6222 6.00006V11.0485C18.6222 11.3246 18.3983 11.5485 18.1222 11.5485H16.0222V5.50006H18.1222ZM14.5222 4.00006V13.0485H18.1222C19.2268 13.0485 20.1222 12.1531 20.1222 11.0485V6.00006C20.1222 4.89549 19.2268 4.00006 18.1222 4.00006H14.5222Z" fill="black"/>
</svg>
