<svg width="24" height="24" viewBox="0 0 24 24" fill="none" xmlns="http://www.w3.org/2000/svg">
<path d="M12.8714 11.1968H17.1206C18.1023 11.1968 18.8194 12.1241 18.5724 13.0742L17.352 17.7679C17.1801 18.429 16.5833 18.8905 15.9003 18.8905H9.11328C8.83714 18.8905 8.61328 18.6666 8.61328 18.3905V11.6603L10.9548 6.39173C11.0609 6.15319 11.3714 6.14538 11.3714 6.40642V9.69676C11.3714 10.5252 12.043 11.1968 12.8714 11.1968ZM7.11328 20.3905H15.9003C17.2664 20.3905 18.46 19.4675 18.8037 18.1454L20.0241 13.4517C20.5181 11.5515 19.084 9.69676 17.1206 9.69676H12.8714V6.40642C12.8714 5.2658 12.0975 4.30593 11.0462 4.02316C10.6646 3.92051 10.3002 4.17139 10.1397 4.53252L7.11328 11.3419V20.3905Z" fill="black"/>
<path d="M5 18.8905C4.72386 18.8905 4.5 18.6666 4.5 18.3905V13.342C4.5 13.0659 4.72386 12.842 5 12.842H6.6C6.87614 12.842 7.1 13.0659 7.1 13.342V18.3905C7.1 18.6666 6.87614 18.8905 6.6 18.8905H5ZM8.6 20.3905V11.342H5C3.89543 11.342 3 12.2374 3 13.342V18.3905C3 19.495 3.89543 20.3905 5 20.3905H8.6Z" fill="black"/>
</svg>
