<svg width="24" height="24" viewBox="0 0 24 24" fill="none" xmlns="http://www.w3.org/2000/svg">
<path d="M10.5428 3.33757C10.9731 2.56971 11.9809 2.26436 12.7988 2.69861C13.0798 2.8478 13.3069 3.0708 13.4564 3.33757L22.3008 19.1203C22.725 19.8772 22.4515 20.843 21.6432 21.2721C21.3994 21.4016 21.1246 21.4702 20.844 21.4702H3.15525C2.21478 21.4702 1.5 20.731 1.5 19.8767C1.5 19.6138 1.56764 19.3537 1.69844 19.1203L10.5428 3.33757ZM13.5022 1.37375C11.9788 0.564936 10.0711 1.11109 9.2343 2.60428L0.389899 18.387C0.134227 18.8433 0 19.3556 0 19.8767C0 21.5904 1.41764 22.9702 3.15525 22.9702H20.844C21.3686 22.9702 21.885 22.842 22.3466 22.597C23.883 21.7813 24.4535 19.8933 23.6094 18.387L14.765 2.60428C14.473 2.0832 14.0344 1.65628 13.5022 1.37375ZM15.4089 11.3892C15.116 11.0963 14.6411 11.0963 14.3482 11.3892L11.9999 13.7376L9.65148 11.3892C9.35858 11.0963 8.88371 11.0963 8.59082 11.3892C8.29792 11.6821 8.29792 12.157 8.59082 12.4499L10.9392 14.7983L8.59064 17.1468C8.29775 17.4397 8.29775 17.9146 8.59064 18.2075C8.88353 18.5004 9.35841 18.5004 9.6513 18.2075L11.9999 15.8589L14.3484 18.2075C14.6413 18.5004 15.1162 18.5004 15.4091 18.2075C15.702 17.9146 15.702 17.4397 15.4091 17.1468L13.0605 14.7983L15.4089 12.4499C15.7018 12.157 15.7018 11.6821 15.4089 11.3892Z" fill="black"/>
</svg>
