<svg width="24" height="24" viewBox="0 0 24 24" fill="none" xmlns="http://www.w3.org/2000/svg">
<path d="M8.11111 16.5C5.5384 16.5 3.5 14.4595 3.5 12C3.5 9.54055 5.5384 7.5 8.11111 7.5H15.8889C18.4616 7.5 20.5 9.54055 20.5 12C20.5 14.4595 18.4616 16.5 15.8889 16.5H8.11111ZM15.8889 18C19.264 18 22 15.3137 22 12C22 8.68629 19.264 6 15.8889 6H8.11111C4.73604 6 2 8.68629 2 12C2 15.3137 4.73604 18 8.11111 18H15.8889ZM16 8.5C14.067 8.5 12.5 10.067 12.5 12C12.5 13.933 14.067 15.5 16 15.5C17.933 15.5 19.5 13.933 19.5 12C19.5 10.067 17.933 8.5 16 8.5Z" fill="black"/>
</svg>
