<svg width="24" height="24" viewBox="0 0 24 24" fill="none" xmlns="http://www.w3.org/2000/svg">
<path d="M15.8889 7.5C18.4616 7.5 20.5 9.54055 20.5 12C20.5 14.4595 18.4616 16.5 15.8889 16.5H8.11111C5.5384 16.5 3.5 14.4595 3.5 12C3.5 9.54055 5.5384 7.5 8.11111 7.5H15.8889ZM8.11111 6C4.73604 6 2 8.68629 2 12C2 15.3137 4.73604 18 8.11111 18H15.8889C19.264 18 22 15.3137 22 12C22 8.68629 19.264 6 15.8889 6H8.11111ZM8 15.5C9.933 15.5 11.5 13.933 11.5 12C11.5 10.067 9.933 8.5 8 8.5C6.067 8.5 4.5 10.067 4.5 12C4.5 13.933 6.067 15.5 8 15.5Z" fill="black"/>
</svg>
