<svg width="24" height="24" viewBox="0 0 24 24" fill="none" xmlns="http://www.w3.org/2000/svg">
<path d="M15.5067 11.6464C15.2138 11.9393 15.2138 12.4142 15.5067 12.7071L19.8159 17.0163C20.7296 17.93 20.7296 19.3512 19.8159 20.2648C18.9022 21.1785 17.481 21.1785 16.5674 20.2648L11.9134 15.6109C11.6205 15.318 11.1456 15.318 10.8527 15.6109C10.5599 15.9038 10.5599 16.3787 10.8527 16.6716L15.5067 21.3255C17.0062 22.825 19.3771 22.825 20.8766 21.3255C22.376 19.826 22.376 17.4551 20.8766 15.9556L16.5674 11.6464C16.2745 11.3535 15.7996 11.3535 15.5067 11.6464Z" fill="black"/>
<path d="M6.71407 7.2509C6.42118 7.5438 6.42118 8.01867 6.71407 8.31156L9.55816 11.1556C9.85105 11.4485 10.3259 11.4485 10.6188 11.1556C10.9117 10.8628 10.9117 10.3879 10.6188 10.095L7.77473 7.2509C7.48184 6.95801 7.00697 6.95801 6.71407 7.2509Z" fill="black"/>
<path d="M4.90458 3.02727L2.49142 5.44043C2.19852 5.73333 2.19852 6.2082 2.49142 6.50109L4.90458 8.91425C5.10545 9.11513 5.40258 9.18527 5.67208 9.09544L7.48195 8.49215C7.7059 8.41749 7.88164 8.24176 7.95629 8.0178L8.55958 6.20793C8.64941 5.93843 8.57927 5.64131 8.3784 5.44043L5.96524 3.02727C5.67234 2.73438 5.19747 2.73438 4.90458 3.02727ZM4.08241 5.97076L5.43491 4.61826L6.98998 6.17333L6.65185 7.18771L5.63748 7.52583L4.08241 5.97076Z" fill="black"/>
<path d="M15.9628 2.03567C13.1618 2.24666 10.8842 4.72997 10.9769 7.62155C10.9779 8.02831 11.0251 8.39752 11.1188 8.75316L3.21457 15.7517L3.20142 15.7636C1.70931 17.1492 1.56358 19.5349 3.00906 20.9804C4.51369 22.4851 6.92173 22.4031 8.24947 20.7617L15.254 12.8506C16.0077 13.0172 16.7482 12.9968 17.4897 12.9227C17.514 12.9202 17.5382 12.9166 17.5621 12.9118C19.5706 12.5101 21.1602 11.0072 21.7532 9.03072L21.7584 9.01254C22.05 7.94336 22.0629 6.82355 21.645 5.77877C21.5513 5.54469 21.3464 5.37332 21.0994 5.32262C20.8525 5.27193 20.5966 5.34871 20.4183 5.52698L18.9443 7.00101C18.6271 7.31821 18.1062 7.32529 17.7702 6.98929L17.0002 6.21927C16.6678 5.88685 16.6733 5.36035 16.9885 5.04521L18.4625 3.57119C18.6385 3.39521 18.7157 3.1434 18.6686 2.89903C18.6216 2.65465 18.4564 2.44953 18.2276 2.3515C17.5048 2.04173 16.7732 1.93749 15.9628 2.03567ZM16.4096 3.50272L15.9278 3.98455C15.017 4.89539 15.0313 6.37168 15.9395 7.27993L16.7095 8.04995C17.6238 8.96418 19.0944 8.97219 20.0049 8.06167L20.4679 7.59868C20.4595 7.92412 20.4076 8.26194 20.3137 8.6087C19.874 10.0631 18.7228 11.1363 17.3028 11.4338C16.4981 11.512 15.8569 11.4985 15.2391 11.2925C14.9539 11.1975 14.6396 11.2818 14.4404 11.5068L7.11471 19.7805C7.10643 19.7899 7.09838 19.7994 7.09058 19.8092C6.34725 20.7384 4.97354 20.8236 4.06972 19.9198C3.27614 19.1262 3.30093 17.7243 4.21605 16.8685L12.4826 9.5491C12.7197 9.3392 12.7994 9.00302 12.6818 8.70903C12.5456 8.36861 12.4769 8.0324 12.4769 7.60863C12.4769 7.60001 12.4767 7.59139 12.4765 7.58278C12.4042 5.48803 14.0775 3.67412 16.0895 3.5304C16.1028 3.52945 16.116 3.52816 16.1291 3.52651C16.2252 3.51451 16.3185 3.50658 16.4096 3.50272Z" fill="black"/>
</svg>
