<svg width="24" height="24" viewBox="0 0 24 24" fill="none" xmlns="http://www.w3.org/2000/svg">
<path d="M4.5 12.3398C4.5 8.19727 7.85743 4.83984 12 4.83984C16.1426 4.83984 19.5 8.19727 19.5 12.3398C19.5 16.4824 16.1426 19.8398 12 19.8398C7.85743 19.8398 4.5 16.4824 4.5 12.3398ZM3 12.3398C3 17.3108 7.029 21.3398 12 21.3398C16.971 21.3398 21 17.3108 21 12.3398C21 7.36884 16.971 3.33984 12 3.33984C7.029 3.33984 3 7.36884 3 12.3398Z" fill="black"/>
<path d="M8.56641 9.63984C8.17981 9.63984 7.86641 9.95324 7.86641 10.3398V14.3398C7.86641 14.7264 8.17981 15.0398 8.56641 15.0398C8.95301 15.0398 9.26641 14.7264 9.26641 14.3398V10.3398C9.26641 9.95324 8.95301 9.63984 8.56641 9.63984Z" fill="black"/>
<path d="M12.5574 9.69029C12.2922 9.79685 12.1184 10.054 12.1184 10.3398V14.3398C12.1184 14.7264 12.4318 15.0398 12.8184 15.0398C13.205 15.0398 13.5184 14.7264 13.5184 14.3398V12.0824L14.2289 12.8241C14.3609 12.9619 14.5435 13.0398 14.7344 13.0398C14.9252 13.0398 15.1078 12.9619 15.2398 12.8241L15.9504 12.0824V14.3398C15.9504 14.7264 16.2638 15.0398 16.6504 15.0398C17.037 15.0398 17.3504 14.7264 17.3504 14.3398V10.3398C17.3504 10.054 17.1765 9.79685 16.9113 9.69029C16.646 9.58374 16.3426 9.64918 16.1449 9.8556L14.7344 11.328L13.3238 9.8556C13.1261 9.64918 12.8227 9.58374 12.5574 9.69029Z" fill="black"/>
<path d="M5.95039 10.3398C5.95039 10.7264 6.26379 11.0398 6.65039 11.0398H10.4804C10.867 11.0398 11.1804 10.7264 11.1804 10.3398C11.1804 9.95324 10.867 9.63984 10.4804 9.63984H6.65039C6.26379 9.63984 5.95039 9.95324 5.95039 10.3398Z" fill="black"/>
</svg>
