<svg width="24" height="24" viewBox="0 0 24 24" fill="none" xmlns="http://www.w3.org/2000/svg">
<path d="M14.118 4.5C14.3942 4.5 14.618 4.72386 14.618 5V5.56641H10.0391V5C10.0391 4.72386 10.2629 4.5 10.5391 4.5H14.118ZM16.118 5.56641V5C16.118 3.89543 15.2226 3 14.118 3H10.5391C9.43449 3 8.53906 3.89543 8.53906 5V5.56641H4.75C4.33579 5.56641 4 5.90219 4 6.31641C4 6.73062 4.33579 7.06641 4.75 7.06641H5.77806L6.51238 18.1972C6.6164 19.7739 7.92568 20.9997 9.50587 20.9997H15.1518C16.732 20.9997 18.0413 19.7739 18.1453 18.1972L18.8796 7.06641H19.9079C20.3221 7.06641 20.6579 6.73062 20.6579 6.31641C20.6579 5.90219 20.3221 5.56641 19.9079 5.56641H16.118ZM8.00912 18.0984L7.29948 7.3418H17.3582L16.6486 18.0984C16.5966 18.8868 15.9419 19.4997 15.1518 19.4997H9.50587C8.71578 19.4997 8.06114 18.8868 8.00912 18.0984ZM11.9682 11.1609C11.9682 11.0178 11.7952 10.9462 11.6941 11.0474L9.62415 13.1173C9.49874 13.2427 9.49874 13.446 9.62415 13.5714L11.6941 15.6414C11.7952 15.7425 11.9682 15.6709 11.9682 15.5278V14.3342C13.5021 14.3633 14.1263 14.6834 14.7179 15.6913C14.7595 15.7622 14.7981 15.8316 14.8336 15.8998C14.9113 16.0491 15.1585 16.028 15.1689 15.86C15.1747 15.7651 15.1777 15.6673 15.1777 15.5663C15.1777 14.4418 14.8052 13.6968 14.274 13.2064C13.6383 12.6196 12.759 12.3992 11.9682 12.3625V11.1609Z" fill="black"/>
</svg>
