<svg width="24" height="24" viewBox="0 0 24 24" fill="none" xmlns="http://www.w3.org/2000/svg">
<path d="M14.118 4.5C14.3942 4.5 14.618 4.72386 14.618 5V5.56641H10.0391V5C10.0391 4.72386 10.2629 4.5 10.5391 4.5H14.118ZM16.118 5.56641V5C16.118 3.89543 15.2226 3 14.118 3H10.5391C9.43449 3 8.53906 3.89543 8.53906 5V5.56641H4.75C4.33579 5.56641 4 5.90219 4 6.31641C4 6.73062 4.33579 7.06641 4.75 7.06641H5.77806L6.51238 18.1972C6.6164 19.7739 7.92568 20.9997 9.50587 20.9997H15.1518C16.732 20.9997 18.0413 19.7739 18.1453 18.1972L18.8796 7.06641H19.9079C20.3221 7.06641 20.6579 6.73062 20.6579 6.31641C20.6579 5.90219 20.3221 5.56641 19.9079 5.56641H16.118ZM7.29948 7.3418H17.3582L16.6486 18.0984C16.5966 18.8868 15.9419 19.4997 15.1518 19.4997H9.50587C8.71578 19.4997 8.06114 18.8868 8.00912 18.0984L7.29948 7.3418ZM10.6445 10.3027C10.2303 10.3027 9.89453 10.6385 9.89453 11.0527V16.1685C9.89453 16.5827 10.2303 16.9185 10.6445 16.9185C11.0587 16.9185 11.3945 16.5827 11.3945 16.1685V11.0527C11.3945 10.6385 11.0587 10.3027 10.6445 10.3027ZM14.7637 11.0527C14.7637 10.6385 14.4279 10.3027 14.0137 10.3027C13.5995 10.3027 13.2637 10.6385 13.2637 11.0527V16.1685C13.2637 16.5827 13.5995 16.9185 14.0137 16.9185C14.4279 16.9185 14.7637 16.5827 14.7637 16.1685V11.0527Z" fill="black"/>
</svg>
