<svg width="24" height="24" viewBox="0 0 24 24" fill="none" xmlns="http://www.w3.org/2000/svg">
<path d="M15.1257 7C14.7115 7 14.3757 7.33579 14.3757 7.75C14.3757 8.16421 14.7115 8.5 15.1257 8.5H18.9393L13.0508 14.3886C12.9531 14.4862 12.7949 14.4862 12.6972 14.3886L9.61144 11.3028C8.92802 10.6194 7.81998 10.6194 7.13656 11.3028L2.21967 16.2197C1.92678 16.5126 1.92678 16.9874 2.21967 17.2803C2.51256 17.5732 2.98744 17.5732 3.28033 17.2803L8.19722 12.3634C8.29486 12.2658 8.45315 12.2658 8.55078 12.3634L11.6366 15.4492C12.32 16.1326 13.428 16.1326 14.1114 15.4492L19.9997 9.56093V13.374C19.9997 13.7882 20.3355 14.124 20.7497 14.124C21.1639 14.124 21.4997 13.7882 21.4997 13.374V7.77007C21.505 7.5715 21.4319 7.37122 21.2803 7.21967C21.1802 7.11952 21.0588 7.05362 20.9306 7.02196C20.8878 7.01136 20.8436 7.00444 20.7983 7.00155C20.7822 7.00052 20.7661 7 20.75 7C20.7499 7 20.7498 7 20.7497 7H15.1257Z" fill="black"/>
</svg>
