<svg width="24" height="24" viewBox="0 0 24 24" fill="none" xmlns="http://www.w3.org/2000/svg">
<path d="M15.1257 18C14.7115 18 14.3757 17.6642 14.3757 17.25C14.3757 16.8358 14.7115 16.5 15.1257 16.5H18.9393L13.0508 10.6114C12.9531 10.5138 12.7949 10.5138 12.6972 10.6114L9.61144 13.6972C8.92802 14.3806 7.81998 14.3806 7.13656 13.6972L2.21967 8.78033C1.92678 8.48744 1.92678 8.01256 2.21967 7.71967C2.51256 7.42678 2.98744 7.42678 3.28033 7.71967L8.19722 12.6366C8.29486 12.7342 8.45315 12.7342 8.55078 12.6366L11.6366 9.55078C12.32 8.86736 13.428 8.86736 14.1114 9.55078L19.9997 15.4391V11.626C19.9997 11.2118 20.3355 10.876 20.7497 10.876C21.1639 10.876 21.4997 11.2118 21.4997 11.626V17.2299C21.505 17.4285 21.4319 17.6288 21.2803 17.7803C21.1802 17.8805 21.0588 17.9464 20.9306 17.978C20.8878 17.9886 20.8436 17.9956 20.7983 17.9985C20.7822 17.9995 20.7661 18 20.75 18C20.7499 18 20.7498 18 20.7497 18H15.1257Z" fill="black"/>
</svg>
