<svg width="24" height="24" viewBox="0 0 24 24" fill="none" xmlns="http://www.w3.org/2000/svg">
<path d="M9.53033 4.21967C9.23744 3.92678 8.76256 3.92678 8.46967 4.21967C8.17678 4.51256 8.17678 4.98744 8.46967 5.28033L10.9393 7.75H6C4.34315 7.75 3 9.09315 3 10.75V17.75C3 19.4069 4.34315 20.75 6 20.75H18C19.6569 20.75 21 19.4069 21 17.75V10.75C21 9.09315 19.6569 7.75 18 7.75H13.0607L15.5303 5.28033C15.8232 4.98744 15.8232 4.51256 15.5303 4.21967C15.2374 3.92678 14.7626 3.92678 14.4697 4.21967L12 6.68934L9.53033 4.21967ZM4.5 10.75C4.5 9.92157 5.17157 9.25 6 9.25H18C18.8284 9.25 19.5 9.92157 19.5 10.75V17.75C19.5 18.5784 18.8284 19.25 18 19.25H6C5.17157 19.25 4.5 18.5784 4.5 17.75V10.75Z" fill="black"/>
</svg>
