<svg width="24" height="24" viewBox="0 0 24 24" fill="none" xmlns="http://www.w3.org/2000/svg">
<path d="M11.163 2.59915C6.31771 2.96557 3.60412 6.95434 3.00498 11.1081C2.96276 11.4007 3.19472 11.6561 3.4904 11.6561H11.1537C11.1498 11.6868 11.1478 11.7182 11.1478 11.75V18.1659C11.1478 19.909 12.5607 21.3218 14.3038 21.3218C16.0469 21.3218 17.4597 19.909 17.4597 18.1659C17.4597 17.7516 17.124 17.4159 16.7097 17.4159C16.2955 17.4159 15.9597 17.7516 15.9597 18.1659C15.9597 19.0805 15.2185 19.8218 14.3038 19.8218C13.3891 19.8218 12.6478 19.0805 12.6478 18.1659V11.75C12.6478 11.7182 12.6458 11.6868 12.642 11.6561H20.3043C20.5999 11.6561 20.8319 11.4007 20.7897 11.1081C20.1905 6.95488 17.4768 2.96662 12.6327 2.59929C12.5629 2.25731 12.2604 2 11.8978 2C11.5353 2 11.2328 2.25724 11.163 2.59915ZM11.8969 4.07178C15.7587 4.07178 18.2076 6.76578 19.0734 10.1561H4.72121C5.5869 6.76565 8.03521 4.07178 11.8969 4.07178Z" fill="black"/>
</svg>
