<svg width="24" height="24" viewBox="0 0 24 24" fill="none" xmlns="http://www.w3.org/2000/svg">
<path d="M5 19.75C5 20.1642 5.33579 20.5 5.75 20.5H17.75C18.1642 20.5 18.5 20.1642 18.5 19.75C18.5 19.3358 18.1642 19 17.75 19H5.75C5.33579 19 5 19.3358 5 19.75Z" fill="black"/>
<path d="M6.75 3C6.33579 3 6 3.33579 6 3.75V10.75C6 13.9252 8.57479 16.5 11.75 16.5C14.9252 16.5 17.5 13.9252 17.5 10.75V3.75C17.5 3.33579 17.1642 3 16.75 3C16.3358 3 16 3.33579 16 3.75V10.75C16 13.0968 14.0968 15 11.75 15C9.40321 15 7.5 13.0968 7.5 10.75V3.75C7.5 3.33579 7.16421 3 6.75 3Z" fill="black"/>
</svg>
