<svg width="24" height="24" viewBox="0 0 24 24" fill="none" xmlns="http://www.w3.org/2000/svg">
<path d="M3.75 4.78809C3.33579 4.78809 3 5.12388 3 5.53809V10.3102C3 10.7244 3.33579 11.0602 3.75 11.0602H8.55018C8.96439 11.0602 9.30018 10.7244 9.30018 10.3102C9.30018 9.89598 8.96439 9.5602 8.55018 9.5602H4.5V5.53809C4.5 5.12388 4.16422 4.78809 3.75 4.78809Z" fill="black"/>
<path d="M6.94207 6.30197L3.23802 9.76214C2.93533 10.0449 2.91918 10.5195 3.20194 10.8222C3.4847 11.1249 3.9593 11.141 4.26198 10.8583L7.97412 7.39055C7.97964 7.38538 7.98509 7.38014 7.99046 7.37481C10.0235 5.35711 13.1557 4.91834 15.6715 6.30098C18.1862 7.683 19.4752 10.5492 18.8389 13.3293C18.2023 16.1101 15.7911 18.1416 12.9201 18.3059C10.0489 18.4702 7.41845 16.7269 6.465 14.0364C6.32664 13.646 5.89797 13.4417 5.50755 13.58C5.11713 13.7184 4.91279 14.1471 5.05115 14.5375C6.22899 17.8611 9.47368 20.0055 13.0057 19.8034C16.538 19.6013 19.5144 17.1006 20.301 13.664C21.0878 10.2268 19.4925 6.6893 16.3939 4.98642C13.2999 3.28602 9.44837 3.82175 6.94207 6.30197Z" fill="black"/>
</svg>
