<svg width="24" height="24" viewBox="0 0 24 24" fill="none" xmlns="http://www.w3.org/2000/svg">
<path d="M12.5924 4.35681L10.5341 6.41511C10.2412 6.708 10.2412 7.18287 10.5341 7.47577C10.827 7.76866 11.3019 7.76866 11.5948 7.47577L13.6531 5.41747C14.8764 4.19418 16.8598 4.19418 18.0831 5.41747C19.3064 6.64077 19.3064 8.62418 18.0831 9.84748L16.0248 11.9058C15.7319 12.1987 15.7319 12.6735 16.0248 12.9664C16.3177 13.2593 16.7926 13.2593 17.0854 12.9664L19.1437 10.9081C20.9528 9.09905 20.9528 6.1659 19.1437 4.35681C17.3347 2.54773 14.4015 2.54773 12.5924 4.35681Z" fill="black"/>
<path d="M10.5157 12.9843C10.2228 12.6914 9.74792 12.6914 9.45503 12.9843L7.69037 14.749C7.39748 15.0419 7.39748 15.5167 7.69037 15.8096C7.98327 16.1025 8.45814 16.1025 8.75103 15.8096L10.5157 14.045C10.8086 13.7521 10.8086 13.2772 10.5157 12.9843Z" fill="black"/>
<path d="M15.8106 7.69037C15.5177 7.39748 15.0428 7.39748 14.75 7.69037L12.9853 9.45503C12.6924 9.74792 12.6924 10.2228 12.9853 10.5157C13.2782 10.8086 13.7531 10.8086 14.046 10.5157L15.8106 8.75103C16.1035 8.45814 16.1035 7.98327 15.8106 7.69037Z" fill="black"/>
<path d="M4.60244 4.60244C4.30955 4.89534 4.30955 5.37021 4.60244 5.6631L17.8369 18.8975C18.1298 19.1904 18.6047 19.1904 18.8975 18.8975C19.1904 18.6046 19.1904 18.1298 18.8975 17.8369L5.6631 4.60244C5.37021 4.30955 4.89534 4.30955 4.60244 4.60244Z" fill="black"/>
<path d="M7.47577 10.5341C7.18287 10.2412 6.708 10.2412 6.41511 10.5341L4.35681 12.5924C2.54773 14.4015 2.54773 17.3347 4.35681 19.1437C6.1659 20.9528 9.09905 20.9528 10.9081 19.1437L12.9664 17.0854C13.2593 16.7926 13.2593 16.3177 12.9664 16.0248C12.6735 15.7319 12.1987 15.7319 11.9058 16.0248L9.84748 18.0831C8.62418 19.3064 6.64077 19.3064 5.41747 18.0831C4.19418 16.8598 4.19418 14.8764 5.41747 13.6531L7.47577 11.5948C7.76866 11.3019 7.76866 10.827 7.47577 10.5341Z" fill="black"/>
</svg>
