<svg width="24" height="24" viewBox="0 0 24 24" fill="none" xmlns="http://www.w3.org/2000/svg">
<path d="M7.83675 8.72483L11.0017 5.55984V14.4167C11.0017 14.8309 11.3375 15.1667 11.7517 15.1667C12.1659 15.1667 12.5017 14.8309 12.5017 14.4167V5.56158L15.665 8.72483C15.9579 9.01772 16.4327 9.01772 16.7256 8.72483C17.0185 8.43193 17.0185 7.95706 16.7256 7.66417L12.3038 3.24228C12.1667 3.09333 11.9701 3 11.7517 3C11.7265 3 11.7016 3.00125 11.677 3.00368C11.5104 3.02007 11.3482 3.09208 11.2205 3.21972L6.77609 7.66417C6.4832 7.95706 6.4832 8.43193 6.77609 8.72483C7.06899 9.01772 7.54386 9.01772 7.83675 8.72483Z" fill="black"/>
<path d="M19 14.4167V17.9722C19 18.5398 18.5398 19 17.9722 19H5.52778C4.96015 19 4.5 18.5398 4.5 17.9722V14.4167C4.5 14.0025 4.16421 13.6667 3.75 13.6667C3.33579 13.6667 3 14.0025 3 14.4167V17.9722C3 19.3683 4.13173 20.5 5.52778 20.5H17.9722C19.3683 20.5 20.5 19.3683 20.5 17.9722V14.4167C20.5 14.0025 20.1642 13.6667 19.75 13.6667C19.3358 13.6667 19 14.0025 19 14.4167Z" fill="black"/>
</svg>
