<svg width="24" height="24" viewBox="0 0 24 24" fill="none" xmlns="http://www.w3.org/2000/svg">
<path d="M13.2143 5.23609C14.1964 4.25463 15.7889 4.25464 16.771 5.23609C17.7528 6.2173 17.7528 7.80793 16.771 8.78912C15.7889 9.77058 14.1964 9.77058 13.2143 8.78912C12.2325 7.80792 12.2325 6.21728 13.2143 5.23609ZM12.154 4.17509C10.5859 5.74215 10.5859 8.28306 12.154 9.85012C13.7218 11.4169 16.2635 11.4169 17.8313 9.85013C19.3994 8.28307 19.3994 5.74216 17.8313 4.17509C16.2635 2.6083 13.7218 2.6083 12.154 4.17509ZM5.6933 6.55015C6.25037 5.99308 7.15356 5.99308 7.71063 6.55016C8.2677 7.10723 8.2677 8.01042 7.71063 8.56749C7.15356 9.12456 6.25037 9.12456 5.6933 8.56749C5.13623 8.01042 5.13623 7.10723 5.6933 6.55015ZM8.77129 5.48949C7.62843 4.34664 5.7755 4.34664 4.63264 5.4895C3.48978 6.63235 3.48978 8.48529 4.63264 9.62815C5.7755 10.771 7.62843 10.771 8.77129 9.62815C9.91415 8.48529 9.91415 6.63235 8.77129 5.48949ZM8.04883 12.4845C8.04883 12.0703 7.71304 11.7345 7.29883 11.7345H5.84288C3.72037 11.7345 2 13.4549 2 15.5774C2 15.9916 2.33579 16.3274 2.75 16.3274C3.16421 16.3274 3.5 15.9916 3.5 15.5774C3.5 14.2833 4.54879 13.2345 5.84288 13.2345H7.29883C7.71304 13.2345 8.04883 12.8987 8.04883 12.4845ZM19.4504 12.7436C18.0627 12.1971 16.5717 11.9274 14.9846 11.9274C13.3971 11.9274 11.9057 12.1972 10.5175 12.744C8.98765 13.3465 7.97925 14.8203 7.97176 16.4644L7.96892 17.0891C7.96345 18.2887 8.7521 19.3474 9.90317 19.6855C11.2751 20.0884 12.976 20.2794 14.9846 20.2794C16.993 20.2794 18.6938 20.0885 20.0657 19.6856C21.217 19.3474 22.0057 18.2884 22 17.0885L21.997 16.4643C21.9891 14.8199 20.9804 13.3462 19.4504 12.7436ZM11.0672 14.1396C12.2668 13.6671 13.5703 13.4274 14.9846 13.4274C16.3986 13.4274 17.7016 13.667 18.9007 14.1393C19.8598 14.517 20.492 15.4407 20.497 16.4715L20.5 17.0957C20.5025 17.6273 20.1531 18.0966 19.643 18.2464C18.4569 18.5947 16.9112 18.7794 14.9846 18.7794C13.0579 18.7794 11.5121 18.5947 10.3259 18.2463C9.81593 18.0965 9.46648 17.6274 9.4689 17.0959L9.47175 16.4713C9.47644 15.4409 10.1084 14.5172 11.0672 14.1396Z" fill="black"/>
</svg>
