<svg width="24" height="24" viewBox="0 0 24 24" fill="none" xmlns="http://www.w3.org/2000/svg">
<path d="M13.4217 7.33657C13.4217 8.91281 12.1553 10.1731 10.6145 10.1731C9.07379 10.1731 7.80737 8.91281 7.80737 7.33657C7.80737 5.76033 9.07379 4.5 10.6145 4.5C12.1553 4.5 13.4217 5.76033 13.4217 7.33657ZM10.6145 11.6731C12.9933 11.6731 14.9217 9.7316 14.9217 7.33657C14.9217 4.94155 12.9933 3 10.6145 3C8.23575 3 6.30737 4.94155 6.30737 7.33657C6.30737 9.7316 8.23575 11.6731 10.6145 11.6731ZM18.7307 17.6584C18.3166 17.6689 17.9894 18.0131 17.9999 18.4271C18.0039 18.5856 17.812 18.9301 17.2747 18.9398L17.2562 18.9399H4.24376C3.70873 18.9399 3.50267 18.6012 3.50003 18.4382L3.50025 18.4217C3.50199 18.3599 3.50446 18.3131 3.50717 18.2793C3.509 18.2564 3.51055 18.2445 3.51098 18.2413L3.51105 18.2407C3.8705 16.4913 5.63514 15.0278 7.93984 14.9437L13.48 14.9399C13.8942 14.9396 14.2297 14.6035 14.2293 14.1893C14.229 13.7751 13.8929 13.4396 13.4787 13.4399L7.92565 13.4437L7.91307 13.4437L7.90051 13.4442C5.02277 13.5431 2.56104 15.3931 2.04041 17.9453C2.01348 18.0772 2.00458 18.2386 2.00059 18.3863L2.00045 18.3964L2 18.4249V18.435C2 19.6595 3.13232 20.4399 4.24376 20.4399H17.2562L17.2777 20.4399L17.3017 20.4395C18.4138 20.4195 19.5305 19.6165 19.4994 18.3892C19.4889 17.9751 19.1447 17.6479 18.7307 17.6584ZM16.1001 13C16.1001 13.359 16.3911 13.65 16.7501 13.65H18.0999V15C18.0999 15.359 18.3909 15.65 18.7499 15.65C19.1089 15.65 19.3999 15.359 19.3999 15V13.65H20.7501C21.1091 13.65 21.4001 13.359 21.4001 13C21.4001 12.641 21.1091 12.35 20.7501 12.35H19.3999V11C19.3999 10.641 19.1089 10.35 18.7499 10.35C18.3909 10.35 18.0999 10.641 18.0999 11V12.35H16.7501C16.3911 12.35 16.1001 12.641 16.1001 13Z" fill="black"/>
</svg>
