<svg width="24" height="24" viewBox="0 0 24 24" fill="none" xmlns="http://www.w3.org/2000/svg">
<path d="M10.6145 10.1731C9.07379 10.1731 7.80737 8.91281 7.80737 7.33657C7.80737 5.76033 9.07379 4.5 10.6145 4.5C12.1553 4.5 13.4217 5.76033 13.4217 7.33657C13.4217 8.91281 12.1553 10.1731 10.6145 10.1731ZM14.9217 7.33657C14.9217 4.94155 12.9933 3 10.6145 3C8.23575 3 6.30737 4.94155 6.30737 7.33657C6.30737 9.7316 8.23575 11.6731 10.6145 11.6731C12.9933 11.6731 14.9217 9.7316 14.9217 7.33657ZM19.4994 18.3892C19.4889 17.9751 19.1447 17.648 18.7307 17.6585C18.3166 17.6689 17.9894 18.0131 17.9999 18.4272C18.0039 18.5857 17.812 18.9302 17.2747 18.9398L17.2562 18.94H4.24376C3.70873 18.94 3.50267 18.6013 3.50003 18.4383L3.50025 18.4217C3.50199 18.36 3.50446 18.3132 3.50717 18.2794C3.50912 18.2549 3.51075 18.2431 3.51105 18.2408C3.8705 16.4913 5.63514 15.0279 7.93984 14.9438L13.48 14.94C13.8942 14.9397 14.2297 14.6036 14.2293 14.1894C14.229 13.7752 13.8929 13.4397 13.4787 13.44L7.92565 13.4438L7.91307 13.4438L7.90051 13.4442C5.02277 13.5431 2.56104 15.3932 2.04041 17.9454C2.01348 18.0773 2.00458 18.2386 2.00059 18.3864L2.00045 18.3965L2 18.425V18.4351C2 19.6595 3.13232 20.44 4.24376 20.44H17.2562L17.2692 20.44L17.3017 20.4396C18.4138 20.4196 19.5305 19.6165 19.4994 18.3892ZM19.3974 10.2524C19.3974 9.89188 19.1051 9.59961 18.7446 9.59961C18.3841 9.59961 18.0918 9.89188 18.0918 10.2524V10.6975C17.7112 10.7952 17.3696 10.99 17.095 11.2538L16.7305 11.0424C16.4186 10.8614 16.0192 10.9676 15.8383 11.2794C15.6573 11.5913 15.7635 11.9908 16.0753 12.1717L16.4556 12.3923C16.4214 12.5483 16.4033 12.7104 16.4033 12.8766C16.4033 13.0955 16.4346 13.3071 16.4929 13.5072L16.0753 13.7494C15.7635 13.9303 15.6573 14.3298 15.8383 14.6417C16.0192 14.9535 16.4186 15.0597 16.7305 14.8787L17.2085 14.6014C17.4616 14.8136 17.762 14.9711 18.0918 15.0558V15.667C18.0918 16.0275 18.3841 16.3198 18.7446 16.3198C19.1051 16.3198 19.3974 16.0275 19.3974 15.667V15.0005C19.685 14.8999 19.9458 14.7425 20.1665 14.5419L20.7621 14.8813C21.0754 15.0598 21.474 14.9505 21.6525 14.6373C21.831 14.324 21.7218 13.9254 21.4085 13.7469L20.8365 13.421C20.8798 13.2467 20.9027 13.0644 20.9027 12.8766C20.9027 12.7417 20.8908 12.6095 20.8681 12.4812L21.4085 12.1732C21.7218 11.9947 21.831 11.5961 21.6525 11.2828C21.474 10.9696 21.0754 10.8604 20.7621 11.0389L20.2747 11.3166C20.0331 11.0654 19.7335 10.8704 19.3974 10.7528V10.2524ZM19.5971 12.8766C19.5971 13.3991 19.1755 13.8207 18.653 13.8207C18.1313 13.8207 17.7089 13.3978 17.7089 12.8766C17.7089 12.3555 18.1313 11.9326 18.653 11.9326C19.1755 11.9326 19.5971 12.3542 19.5971 12.8766Z" fill="black"/>
</svg>
