<svg width="24" height="24" viewBox="0 0 24 24" fill="none" xmlns="http://www.w3.org/2000/svg">
<path d="M13.2143 5.23609C14.1964 4.25463 15.7889 4.25464 16.771 5.23609C17.7528 6.2173 17.7528 7.80793 16.771 8.78912C15.7889 9.77058 14.1964 9.77058 13.2143 8.78912C12.2325 7.80792 12.2325 6.21728 13.2143 5.23609ZM12.154 4.17509C10.8812 5.44709 10.6415 7.36073 11.435 8.87436L13.1281 10.5674C14.6426 11.3616 16.5581 11.1225 17.8313 9.85013C19.3994 8.28307 19.3994 5.74216 17.8313 4.17509C16.2635 2.6083 13.7218 2.6083 12.154 4.17509ZM14.9846 11.9274C14.8209 11.9274 14.6583 11.9302 14.4966 11.936L16.0337 13.473C17.0494 13.5631 18.0041 13.7861 18.9007 14.1393C19.8598 14.517 20.492 15.4407 20.497 16.4715L20.5 17.0957C20.5011 17.3335 20.4318 17.5588 20.3093 17.7486L21.3805 18.8199C21.7738 18.3451 22.0031 17.7374 22 17.0885L21.997 16.4643C21.9891 14.8199 20.9804 13.3462 19.4504 12.7436C18.0627 12.1971 16.5717 11.9274 14.9846 11.9274ZM12.2081 13.7688L17.1301 18.6908C16.4759 18.7494 15.7612 18.7794 14.9846 18.7794C13.0579 18.7794 11.5121 18.5947 10.3259 18.2463C9.81593 18.0965 9.46648 17.6274 9.4689 17.0959L9.47174 16.4713C9.47644 15.4409 10.1084 14.5172 11.0672 14.1396C11.4375 13.9938 11.8178 13.8701 12.2081 13.7688ZM18.4757 20.0363L19.2197 20.7803C19.5126 21.0732 19.9874 21.0732 20.2803 20.7803C20.5732 20.4874 20.5732 20.0126 20.2803 19.7197L4.78033 4.21967C4.48744 3.92678 4.01256 3.92678 3.71967 4.21967C3.42678 4.51256 3.42678 4.98744 3.71967 5.28033L4.31054 5.8712C3.50237 7.01351 3.60974 8.60525 4.63264 9.62815C5.65554 10.651 7.24728 10.7584 8.38959 9.95025L11.0043 12.565C10.8407 12.6209 10.6784 12.6806 10.5175 12.744C8.98765 13.3465 7.97925 14.8203 7.97176 16.4644L7.96891 17.0891C7.96345 18.2887 8.7521 19.3474 9.90317 19.6855C11.2751 20.0884 12.976 20.2794 14.9846 20.2794C16.2777 20.2794 17.4433 20.2003 18.4757 20.0363ZM7.29564 8.85631C6.7693 9.09706 6.1266 9.00079 5.6933 8.56749C5.26 8.13419 5.16373 7.49149 5.40448 6.96514L7.29564 8.85631ZM9.57823 7.01757C9.47341 6.45776 9.20443 5.92263 8.77129 5.48949C8.33815 5.05636 7.80303 4.78738 7.24321 4.68255L9.57823 7.01757ZM8.04883 12.4845C8.04883 12.0703 7.71304 11.7345 7.29883 11.7345L5.84288 11.7345C3.72037 11.7345 2 13.4549 2 15.5774C2 15.9916 2.33579 16.3274 2.75 16.3274C3.16421 16.3274 3.5 15.9916 3.5 15.5774C3.5 14.2833 4.54879 13.2345 5.84288 13.2345L7.29883 13.2345C7.71304 13.2345 8.04883 12.8987 8.04883 12.4845Z" fill="black"/>
</svg>
