<svg width="24" height="24" viewBox="0 0 24 24" fill="none" xmlns="http://www.w3.org/2000/svg">
<path d="M10.7857 5.2361C11.7675 6.21729 11.7675 7.80792 10.7857 8.78913C9.8036 9.77058 8.21111 9.77058 7.22901 8.78912C6.24719 7.80793 6.24719 6.2173 7.22901 5.23609L6.69885 4.70559L7.22901 5.23609C8.2111 4.25464 9.80359 4.25463 10.7857 5.2361ZM11.846 4.17509C10.2782 2.6083 7.73649 2.6083 6.16869 4.17509L6.16869 4.1751C4.60063 5.74216 4.60063 8.28307 6.16869 9.85012L6.69885 9.31962L6.1687 9.85013C7.7365 11.4169 10.2782 11.4169 11.846 9.85012L11.3411 9.34488L11.846 9.85012C13.4141 8.28306 13.4141 5.74215 11.846 4.17509L11.3197 4.70178L11.846 4.17509ZM18.3067 6.55016C18.8638 7.10723 18.8638 8.01042 18.3067 8.56749C17.7496 9.12456 16.8464 9.12456 16.2894 8.56749C15.7323 8.01042 15.7323 7.10723 16.2894 6.55016C16.8464 5.99308 17.7496 5.99308 18.3067 6.55016ZM15.2287 5.4895C14.0858 6.63235 14.0858 8.48529 15.2287 9.62815C16.3716 10.771 18.2245 10.771 19.3674 9.62815C20.5102 8.48529 20.5102 6.63235 19.3674 5.4895C18.2245 4.34664 16.3716 4.34664 15.2287 5.4895ZM15.9512 12.4845C15.9512 12.8987 16.287 13.2345 16.7012 13.2345H18.1571C19.4512 13.2345 20.5 14.2833 20.5 15.5774C20.5 15.9916 20.8358 16.3274 21.25 16.3274C21.6642 16.3274 22 15.9916 22 15.5774C22 13.4549 20.2796 11.7345 18.1571 11.7345H16.7012C16.287 11.7345 15.9512 12.0703 15.9512 12.4845ZM4.54964 12.7436L4.54963 12.7436C3.01963 13.3462 2.01094 14.8199 2.00303 16.4643L2.00003 17.0885L2.60006 17.0914L2.00003 17.0885C1.99427 18.2884 2.78302 19.3474 3.93434 19.6856C5.30616 20.0885 7.00696 20.2794 9.01539 20.2794C11.024 20.2794 12.7249 20.0884 14.0968 19.6855C15.2479 19.3474 16.0365 18.2887 16.0311 17.0891L16.0282 16.4645C16.0208 14.8203 15.0123 13.3465 13.4825 12.744C12.0943 12.1972 10.6029 11.9274 9.01539 11.9274C7.42829 11.9274 5.9373 12.1971 4.54964 12.7436ZM12.9328 14.1396C13.8916 14.5172 14.5236 15.4409 14.5283 16.4713L14.5311 17.0959C14.5335 17.6274 14.1841 18.0965 13.6741 18.2463L13.6741 18.2463C12.4879 18.5947 10.9421 18.7794 9.01539 18.7794C7.08882 18.7794 5.54315 18.5947 4.35702 18.2464C3.84692 18.0966 3.49746 17.6273 3.50001 17.0957L3.50302 16.4715C3.50797 15.4407 4.14024 14.517 5.09929 14.1393L4.82446 13.4414L5.09929 14.1393C6.29842 13.667 7.60138 13.4274 9.01539 13.4274C10.4297 13.4274 11.7332 13.6671 12.9328 14.1396Z" fill="black"/>
</svg>
