<svg width="24" height="24" viewBox="0 0 24 24" fill="none" xmlns="http://www.w3.org/2000/svg">
<path d="M18 6.5C18.8284 6.5 19.5 7.17157 19.5 8V17C19.5 17.8284 18.8284 18.5 18 18.5H6C5.17157 18.5 4.5 17.8284 4.5 17V8C4.5 7.17157 5.17157 6.5 6 6.5H18ZM6 5C4.34315 5 3 6.34315 3 8V17C3 18.6569 4.34315 20 6 20H18C19.6569 20 21 18.6569 21 17V8C21 6.34315 19.6569 5 18 5H6ZM13.25 11C13.25 11.4142 13.5858 11.75 14 11.75H17.5C17.9142 11.75 18.25 11.4142 18.25 11C18.25 10.5858 17.9142 10.25 17.5 10.25H14C13.5858 10.25 13.25 10.5858 13.25 11ZM14 13.25C13.5858 13.25 13.25 13.5858 13.25 14C13.25 14.4142 13.5858 14.75 14 14.75H17.5C17.9142 14.75 18.25 14.4142 18.25 14C18.25 13.5858 17.9142 13.25 17.5 13.25H14ZM9.08249 8.90231C8.59448 8.87985 8.09908 9.05494 7.72643 9.4276C7.02348 10.1305 7.02348 11.2702 7.72643 11.9732C8.42937 12.6761 9.56907 12.6761 10.272 11.9732C10.6447 11.6005 10.8198 11.1051 10.7973 10.6171C10.7774 10.1846 10.6023 9.75789 10.272 9.4276C9.94172 9.09731 9.51501 8.92221 9.08249 8.90231ZM9.35277 11.0539C9.15751 11.2492 8.84093 11.2492 8.64567 11.0539C8.4504 10.8587 8.4504 10.5421 8.64567 10.3468C8.84093 10.1516 9.15751 10.1516 9.35278 10.3468C9.54804 10.5421 9.54804 10.8587 9.35277 11.0539ZM7.14961 15.2273C7.14961 15.0337 7.19607 14.95 7.22521 14.9117C7.25827 14.8683 7.3224 14.8147 7.45934 14.7665C7.76844 14.6576 8.20776 14.65 8.74961 14.65C9.29146 14.65 9.73078 14.6576 10.0399 14.7665C10.1768 14.8147 10.241 14.8683 10.274 14.9117C10.3031 14.95 10.3496 15.0337 10.3496 15.2273C10.3496 15.5863 10.6406 15.8773 10.9996 15.8773C11.3586 15.8773 11.6496 15.5863 11.6496 15.2273C11.6496 14.8072 11.5419 14.4307 11.308 14.1238C11.0781 13.822 10.7703 13.6455 10.4719 13.5404C9.92981 13.3494 9.27232 13.3497 8.80025 13.35H8.80023L8.74961 13.35L8.69898 13.35H8.69897C8.22689 13.3497 7.56941 13.3494 7.02734 13.5404C6.72888 13.6455 6.42114 13.822 6.19119 14.1238C5.95731 14.4307 5.84961 14.8072 5.84961 15.2273C5.84961 15.5863 6.14062 15.8773 6.49961 15.8773C6.85859 15.8773 7.14961 15.5863 7.14961 15.2273Z" fill="black"/>
</svg>
