<svg width="24" height="24" viewBox="0 0 24 24" fill="none" xmlns="http://www.w3.org/2000/svg">
<path d="M10.1289 8.37C10.1289 7.33723 10.9661 6.5 11.9989 6.5C13.0317 6.5 13.8689 7.33723 13.8689 8.37C13.8689 9.40277 13.0317 10.24 11.9989 10.24C10.9661 10.24 10.1289 9.40277 10.1289 8.37ZM11.9989 5C10.1377 5 8.62891 6.5088 8.62891 8.37C8.62891 10.2312 10.1377 11.74 11.9989 11.74C13.8601 11.74 15.3689 10.2312 15.3689 8.37C15.3689 6.5088 13.8601 5 11.9989 5ZM17.4949 9.11593C17.8341 8.77646 18.3839 8.77646 18.7231 9.11593C19.0626 9.45568 19.0626 10.0067 18.7231 10.3465C18.3839 10.686 17.8341 10.686 17.4949 10.3465C17.1554 10.0067 17.1554 9.45568 17.4949 9.11593ZM16.4338 11.4068C17.3589 12.3325 18.859 12.3325 19.7841 11.4068C20.7089 10.4813 20.7089 8.9811 19.7841 8.05564C18.859 7.12989 17.3589 7.12989 16.4338 8.05564C15.509 8.9811 15.509 10.4813 16.4338 11.4068ZM6.34028 9.11593C6.6798 9.45568 6.6798 10.0067 6.34028 10.3465C6.00106 10.686 5.45129 10.686 5.11206 10.3465C4.77254 10.0067 4.77254 9.45568 5.11206 9.11593C5.45129 8.77646 6.00106 8.77646 6.34028 9.11593ZM4.05103 8.05564C3.12622 8.9811 3.12622 10.4813 4.05103 11.4068C4.97612 12.3325 6.47622 12.3325 7.40132 11.4068C8.32612 10.4813 8.32612 8.9811 7.40132 8.05564C6.47622 7.12989 4.97612 7.12989 4.05103 8.05564ZM18.4746 12.5439C18.0604 12.5439 17.7246 12.8797 17.7246 13.2939C17.7246 13.7082 18.0604 14.0439 18.4746 14.0439H18.7728C19.7269 14.0439 20.5005 14.8175 20.5005 15.7716V16.1734C20.5005 16.5876 20.8362 16.9234 21.2505 16.9234C21.6647 16.9234 22.0005 16.5876 22.0005 16.1734V15.7716C22.0005 13.989 20.5554 12.5439 18.7728 12.5439H18.4746ZM5.22768 14.0439H5.52584C5.94005 14.0439 6.27584 13.7082 6.27584 13.2939C6.27584 12.8797 5.94005 12.5439 5.52584 12.5439H5.22768C3.44508 12.5439 2 13.989 2 15.7716V16.1734C2 16.5876 2.33579 16.9234 2.75 16.9234C3.16421 16.9234 3.5 16.5876 3.5 16.1734V15.7716C3.5 14.8175 4.27351 14.0439 5.22768 14.0439ZM11.9994 12.126C10.6374 12.126 9.35595 12.3575 8.1623 12.8276L8.16229 12.8276C6.81897 13.3567 5.93335 14.6506 5.92641 16.0943L5.92386 16.6249C5.91871 17.695 6.6221 18.6394 7.64881 18.9409C8.8288 19.2875 10.2861 19.4502 11.9994 19.4502C13.7129 19.4502 15.1703 19.2874 16.3503 18.9408C17.3768 18.6393 18.0801 17.6953 18.0753 16.6254L18.0728 16.0945C18.0663 14.6509 17.1809 13.357 15.8377 12.8279C14.6436 12.3576 13.3618 12.126 11.9994 12.126ZM8.71195 14.2233C9.71707 13.8274 10.8105 13.626 11.9994 13.626C13.1886 13.626 14.2824 13.8275 15.288 14.2236C16.0601 14.5277 16.5691 15.2715 16.5729 16.1013L16.5753 16.6323C16.5771 17.034 16.313 17.3884 15.9276 17.5016L15.9276 17.5016C14.9333 17.7937 13.631 17.9502 11.9994 17.9502C10.368 17.9502 9.06578 17.7937 8.0715 17.5017C7.68601 17.3885 7.42191 17.0339 7.42384 16.6321L7.42639 16.1015C7.43038 15.2714 7.93958 14.5275 8.71195 14.2233Z" fill="black"/>
</svg>
