<svg width="24" height="24" viewBox="0 0 24 24" fill="none" xmlns="http://www.w3.org/2000/svg">
<path d="M11.9148 10.6731C14.2935 10.6731 16.2219 8.7316 16.2219 6.33657C16.2219 3.94155 14.2935 2 11.9148 2C9.53598 2 7.6076 3.94155 7.6076 6.33657C7.6076 6.40887 7.60936 6.48075 7.61284 6.55218L11.7299 10.6692C11.7912 10.6718 11.8528 10.6731 11.9148 10.6731ZM4.32279 5.32279C4.04411 5.18996 3.70042 5.23892 3.46967 5.46967C3.17678 5.76256 3.17678 6.23744 3.46967 6.53033L9.37879 12.4395H9.11078L8.87373 12.4443C6.07923 12.5581 3.80019 14.6762 3.32718 17.4254C3.31356 17.5045 3.30464 17.637 3.3004 17.8227L3.29999 17.8591C3.29999 18.744 4.02013 19.4612 4.90846 19.4612H16.4006L18.4697 21.5303C18.7626 21.8232 19.2374 21.8232 19.5303 21.5303C19.7611 21.2996 19.81 20.9559 19.6772 20.6772C19.6022 20.6414 19.5318 20.5925 19.4697 20.5303L4.46967 5.53033C4.40752 5.46818 4.35856 5.39785 4.32279 5.32279ZM20.055 18.9943C20.3556 18.6961 20.538 18.2806 20.5282 17.8248C20.5239 17.6282 20.5146 17.4885 20.5 17.4054C20.0059 14.5887 17.6149 12.4395 14.7199 12.4395H13.5001L15.01 13.9494C16.9971 14.0854 18.6532 15.6081 19.0192 17.6457C19.0198 17.6516 19.0205 17.6606 19.0213 17.673C19.024 17.7132 19.0267 17.7732 19.0286 17.8569C19.0292 17.8851 19.0166 17.9135 18.9943 17.9336L20.055 18.9943ZM14.7219 6.33657C14.7219 7.91281 13.4555 9.17314 11.9148 9.17314C10.374 9.17314 9.1076 7.91281 9.1076 6.33657C9.1076 4.76033 10.374 3.5 11.9148 3.5C13.4555 3.5 14.7219 4.76033 14.7219 6.33657ZM9.12603 13.9395H10.8788L14.9006 17.9612H4.90846C4.84436 17.9612 4.80186 17.9121 4.80005 17.8624L4.8002 17.8488C4.80198 17.7744 4.80446 17.7209 4.80688 17.6849L4.80868 17.6612C5.17499 15.5818 6.88633 14.0333 8.92067 13.9436L9.12603 13.9395Z" fill="black"/>
</svg>
