<svg width="24" height="24" viewBox="0 0 24 24" fill="none" xmlns="http://www.w3.org/2000/svg">
<path d="M14.4217 7.33657C14.4217 8.91281 13.1553 10.1731 11.6145 10.1731C10.0738 10.1731 8.80737 8.91281 8.80737 7.33657C8.80737 5.76033 10.0738 4.5 11.6145 4.5C13.1553 4.5 14.4217 5.76033 14.4217 7.33657ZM11.6145 11.6731C13.9933 11.6731 15.9217 9.7316 15.9217 7.33657C15.9217 4.94155 13.9933 3 11.6145 3C9.23575 3 7.30737 4.94155 7.30737 7.33657C7.30737 9.7316 9.23575 11.6731 11.6145 11.6731ZM19.7307 17.6584C19.3166 17.6689 18.9894 18.0131 18.9999 18.4271C19.0039 18.5856 18.812 18.9301 18.2747 18.9398L18.2562 18.9399H5.24376C4.70873 18.9399 4.50267 18.6012 4.50003 18.4382L4.50025 18.4217C4.50199 18.3599 4.50446 18.3131 4.50717 18.2793C4.509 18.2564 4.51055 18.2445 4.51098 18.2413L4.51105 18.2407C4.8705 16.4913 6.63514 15.0278 8.93984 14.9437L14.48 14.9399C14.8942 14.9396 15.2297 14.6035 15.2293 14.1893C15.229 13.7751 14.8929 13.4396 14.4787 13.4399L8.92565 13.4437L8.91307 13.4437L8.90051 13.4442C6.02277 13.5431 3.56104 15.3931 3.04041 17.9453C3.01348 18.0772 3.00458 18.2386 3.00059 18.3863L3.00045 18.3964L3 18.4249V18.435C3 19.6595 4.13232 20.4399 5.24376 20.4399H18.2562L18.2777 20.4399L18.3017 20.4395C19.4138 20.4195 20.5305 19.6165 20.4994 18.3892C20.4889 17.9751 20.1447 17.6479 19.7307 17.6584ZM21.6743 11.0757C21.4399 10.8414 21.0601 10.8414 20.8257 11.0757L19.75 12.1515L18.6743 11.0757C18.4399 10.8414 18.0601 10.8414 17.8257 11.0757C17.5914 11.3101 17.5914 11.6899 17.8257 11.9243L18.9015 13L17.8257 14.0757C17.5914 14.3101 17.5914 14.6899 17.8257 14.9243C18.0601 15.1586 18.4399 15.1586 18.6743 14.9243L19.75 13.8485L20.8257 14.9243C21.0601 15.1586 21.4399 15.1586 21.6743 14.9243C21.9086 14.6899 21.9086 14.3101 21.6743 14.0757L20.5985 13L21.6743 11.9243C21.9086 11.6899 21.9086 11.3101 21.6743 11.0757Z" fill="black"/>
</svg>
