<svg width="24" height="24" viewBox="0 0 24 24" fill="none" xmlns="http://www.w3.org/2000/svg">
<path d="M10.6145 10.1731C9.07379 10.1731 7.80737 8.91281 7.80737 7.33657C7.80737 5.76033 9.07379 4.5 10.6145 4.5C12.1553 4.5 13.4217 5.76033 13.4217 7.33657C13.4217 8.91281 12.1553 10.1731 10.6145 10.1731ZM14.9217 7.33657C14.9217 4.94155 12.9933 3 10.6145 3C8.23575 3 6.30737 4.94155 6.30737 7.33657C6.30737 9.7316 8.23575 11.6731 10.6145 11.6731C12.9933 11.6731 14.9217 9.7316 14.9217 7.33657ZM13.3848 20.6103L15.666 20.6335L20.7133 16.5463C21.3571 16.025 21.4563 15.0804 20.935 14.4366L20.5083 13.9097C19.987 13.2659 19.0424 13.1666 18.3986 13.688L17.0799 14.7559C17.0799 14.7559 17.0799 14.7559 17.0799 14.7559L15.8807 15.7269C15.8807 15.7269 15.8807 15.7269 15.8807 15.7269L13.3514 17.7751L13.1118 18.9612L12.8998 20.0113C12.8998 20.0113 12.8998 20.0113 12.8998 20.0113C12.8823 20.0979 12.8882 20.183 12.9127 20.2606C12.9754 20.4586 13.1593 20.608 13.3848 20.6103ZM13.4199 13.4395H7.8108L7.57374 13.4443C4.77924 13.5581 2.5002 15.6762 2.02719 18.4254C2.01357 18.5045 2.00465 18.637 2.00041 18.8227L2 18.8591C2 19.744 2.72014 20.4612 3.60847 20.4612H11.4198C11.3772 20.222 11.3778 19.9698 11.4295 19.7143L11.5816 18.9612H3.60847C3.54437 18.9612 3.50187 18.9121 3.50006 18.8624L3.50022 18.8488C3.502 18.7744 3.50447 18.7209 3.50689 18.6849L3.5087 18.6612C3.875 16.5818 5.58634 15.0333 7.62069 14.9436L7.82604 14.9395H13.4199C13.736 14.9395 14.0452 14.9746 14.3437 15.0414L15.7255 13.9224C15.0184 13.6117 14.2393 13.4395 13.4199 13.4395Z" fill="black"/>
</svg>
