<svg width="24" height="24" viewBox="0 0 24 24" fill="none" xmlns="http://www.w3.org/2000/svg">
<path d="M4.27984 4.21967L19.7798 19.7197C20.0727 20.0126 20.0727 20.4874 19.7798 20.7803C19.4869 21.0732 19.0121 21.0732 18.7192 20.7803L16.3728 18.434C16.3652 18.4363 16.3576 18.4386 16.3499 18.4408C15.1698 18.7874 13.7124 18.9502 11.999 18.9502C10.2857 18.9502 8.82835 18.7875 7.64836 18.4409C6.62165 18.1394 5.91826 17.195 5.92341 16.1249L5.92596 15.5943C5.9329 14.1506 6.81852 12.8567 8.16184 12.3276L8.16185 12.3276C8.68603 12.1212 9.22713 11.9607 9.78456 11.8457L7.9597 10.0208C7.84572 10.3443 7.65944 10.648 7.40087 10.9068C6.47577 11.8325 4.97567 11.8325 4.05058 10.9068C3.12577 9.98134 3.12577 8.4811 4.05058 7.55564C4.309 7.29703 4.6123 7.11067 4.93539 6.99654L3.21918 5.28033C2.92629 4.98744 2.92629 4.51256 3.21918 4.21967C3.51208 3.92678 3.98695 3.92678 4.27984 4.21967ZM15.1321 17.1932L11.1043 13.1655C10.2559 13.2419 9.45925 13.4288 8.7115 13.7233C7.93913 14.0275 7.42993 14.7714 7.42594 15.6015L7.42339 16.1321C7.42146 16.5339 7.68556 16.8885 8.07105 17.0017C9.06533 17.2937 10.3675 17.4502 11.999 17.4502C13.2268 17.4502 14.2681 17.3616 15.1321 17.1932ZM11.9985 4.5C13.8597 4.5 15.3685 6.0088 15.3685 7.87C15.3685 9.341 14.426 10.5919 13.1119 11.0517L11.7865 9.72624C11.8555 9.73531 11.9262 9.74 11.9985 9.74C13.0312 9.74 13.8685 8.90277 13.8685 7.87C13.8685 6.83723 13.0312 6 11.9985 6C10.9657 6 10.2495 6.71723 10.2495 7.75C10.2495 7.91812 10.2685 8.08423 10.3048 8.24454L8.81674 6.75653C9.27658 5.44248 10.5275 4.5 11.9985 4.5ZM18.0743 16.0141L13.8353 11.7751C14.5272 11.891 15.1949 12.0749 15.8373 12.3279C17.1804 12.857 18.0658 14.1509 18.0724 15.5945L18.0743 16.0141ZM17.4944 8.61593C17.1549 8.95568 17.1549 9.50675 17.4944 9.8465C17.8336 10.186 18.3834 10.186 18.7226 9.8465C19.0622 9.50675 19.0622 8.95568 18.7226 8.61593C18.3834 8.27646 17.8336 8.27646 17.4944 8.61593ZM16.4334 10.9068C15.5086 9.98134 15.5086 8.4811 16.4334 7.55564C17.3585 6.62989 18.8586 6.62989 19.7837 7.55564C20.7085 8.4811 20.7085 9.98134 19.7837 10.9068C18.8586 11.8325 17.3585 11.8325 16.4334 10.9068ZM6.33983 8.61593C6.00061 8.27646 5.45084 8.27646 5.11161 8.61593C4.77209 8.95568 4.77209 9.50675 5.11161 9.8465C5.45083 10.186 6.00061 10.186 6.33983 9.8465C6.67935 9.50675 6.67935 8.95568 6.33983 8.61593ZM18.4742 12.0439H18.7723C20.5549 12.0439 22 13.489 22 15.2716V15.6734C22 16.0876 21.6642 16.4234 21.25 16.4234C20.8358 16.4234 20.5 16.0876 20.5 15.6734V15.2716C20.5 14.3175 19.7265 13.5439 18.7723 13.5439H18.4742C18.0599 13.5439 17.7242 13.2082 17.7242 12.7939C17.7242 12.3797 18.0599 12.0439 18.4742 12.0439ZM5.22723 13.5439C4.27306 13.5439 3.49955 14.3175 3.49955 15.2716V15.6734C3.49955 16.0876 3.16376 16.4234 2.74955 16.4234C2.33534 16.4234 1.99955 16.0876 1.99955 15.6734V15.2716C1.99955 13.489 3.44463 12.0439 5.22723 12.0439H5.52539C5.9396 12.0439 6.27539 12.3797 6.27539 12.7939C6.27539 13.2082 5.9396 13.5439 5.52539 13.5439H5.22723Z" fill="black"/>
</svg>
