<svg width="24" height="24" viewBox="0 0 24 24" fill="none" xmlns="http://www.w3.org/2000/svg">
<path d="M14.5643 7.33657C14.5643 8.91281 13.2979 10.1731 11.7572 10.1731C10.2164 10.1731 8.95 8.91281 8.95 7.33657C8.95 5.76033 10.2164 4.5 11.7572 4.5C13.2979 4.5 14.5643 5.76033 14.5643 7.33657ZM11.7572 11.6731C14.1359 11.6731 16.0643 9.7316 16.0643 7.33657C16.0643 4.94155 14.1359 3 11.7572 3C9.37838 3 7.45 4.94155 7.45 7.33657C7.45 9.7316 9.37838 11.6731 11.7572 11.6731ZM3.00042 18.8227L3 18.8591C3 19.744 3.73148 20.4612 4.6338 20.4612H18.8661C18.8778 20.4612 18.8894 20.4611 18.9011 20.4609C19.8032 20.4419 20.5188 19.7094 20.4996 18.8248C20.4952 18.6282 20.4858 18.4885 20.471 18.4054C19.969 15.5887 17.5404 13.4395 14.5998 13.4395H8.90233L8.66154 13.4443C5.82302 13.5581 3.50808 15.6762 3.02762 18.4254C3.01379 18.5045 3.00472 18.637 3.00042 18.8227ZM4.53246 18.6612C4.90454 16.5818 6.64284 15.0333 8.70922 14.9436L8.91781 14.9395H14.5998C16.7473 14.9395 18.5771 16.5097 18.9669 18.6457C18.9674 18.6516 18.9681 18.6606 18.969 18.673C18.9717 18.7132 18.9745 18.7732 18.9763 18.8569C18.9774 18.9078 18.9348 18.9598 18.8686 18.9612L18.8674 18.9612L18.8661 18.9612H4.6338C4.56869 18.9612 4.52552 18.9121 4.52369 18.8624L4.52385 18.8488C4.52566 18.7744 4.52817 18.7209 4.53063 18.6849L4.53246 18.6612Z" fill="black"/>
</svg>
