<svg width="24" height="24" viewBox="0 0 24 24" fill="none" xmlns="http://www.w3.org/2000/svg">
<path d="M8.96433 11.025L9.895 11.9557C9.60518 11.9368 9.31196 11.9274 9.01539 11.9274C7.42829 11.9274 5.9373 12.1971 4.54964 12.7436C3.01964 13.3462 2.01094 14.8199 2.00303 16.4643L2.00003 17.0885C1.99427 18.2884 2.78302 19.3474 3.93434 19.6856C5.30616 20.0885 7.00696 20.2794 9.01539 20.2794C11.024 20.2794 12.7249 20.0884 14.0968 19.6855C14.96 19.4319 15.6194 18.7732 15.8929 17.9536L18.7197 20.7803C19.0126 21.0732 19.4874 21.0732 19.7803 20.7803C20.0732 20.4874 20.0732 20.0126 19.7803 19.7197L4.28033 4.21967C3.98744 3.92678 3.51256 3.92678 3.21967 4.21967C2.92678 4.51256 2.92678 4.98744 3.21967 5.28033L4.99285 7.05351C5.00312 8.06683 5.39507 9.077 6.16869 9.85012C6.94165 10.6226 7.95134 11.0142 8.96433 11.025ZM14.5288 16.5895L14.5311 17.0959C14.5335 17.6274 14.1841 18.0965 13.6741 18.2463C12.488 18.5947 10.9421 18.7794 9.01539 18.7794C7.08883 18.7794 5.54315 18.5947 4.35702 18.2464C3.84692 18.0966 3.49746 17.6273 3.50001 17.0957L3.50302 16.4715C3.50797 15.4407 4.14024 14.517 5.09929 14.1393C6.29842 13.667 7.60138 13.4274 9.01539 13.4274C9.95138 13.4274 10.8388 13.5324 11.6797 13.7403L14.5288 16.5895ZM6.20243 4.14177L7.26321 5.20255C8.24773 4.25477 9.81491 4.26594 10.7857 5.2361C11.7568 6.20658 11.7674 7.77329 10.8175 8.7568L11.8782 9.81756C13.414 8.24806 13.4033 5.73134 11.846 4.17509C10.2894 2.61949 7.77274 2.60838 6.20243 4.14177ZM18.3067 6.55016C18.8638 7.10723 18.8638 8.01042 18.3067 8.56749C17.7496 9.12456 16.8464 9.12456 16.2894 8.56749C15.7323 8.01042 15.7323 7.10723 16.2894 6.55016C16.8464 5.99308 17.7496 5.99308 18.3067 6.55016ZM15.2287 5.4895C14.0859 6.63235 14.0859 8.48529 15.2287 9.62815C16.3716 10.771 18.2245 10.771 19.3674 9.62815C20.5102 8.48529 20.5102 6.63235 19.3674 5.4895C18.2245 4.34664 16.3716 4.34664 15.2287 5.4895ZM15.9512 12.4845C15.9512 12.8987 16.287 13.2345 16.7012 13.2345H18.1571C19.4512 13.2345 20.5 14.2833 20.5 15.5774C20.5 15.9916 20.8358 16.3274 21.25 16.3274C21.6642 16.3274 22 15.9916 22 15.5774C22 13.4549 20.2796 11.7345 18.1571 11.7345H16.7012C16.287 11.7345 15.9512 12.0703 15.9512 12.4845Z" fill="black"/>
</svg>
