<svg width="24" height="24" viewBox="0 0 24 24" fill="none" xmlns="http://www.w3.org/2000/svg">
<path d="M3.5 12C3.5 7.30558 7.30558 3.5 12 3.5C16.6944 3.5 20.5 7.30558 20.5 12C20.5 14.3624 19.5363 16.4997 17.9805 18.0402C17.6351 17.3328 17.0371 16.7377 16.3246 16.2878C15.1829 15.5669 13.6518 15.1456 11.9997 15.1456C10.3476 15.1456 8.81658 15.5668 7.67486 16.2877C6.96243 16.7375 6.36447 17.3325 6.01905 18.0397C4.46355 16.4993 3.5 14.3622 3.5 12ZM12 2C6.47715 2 2 6.47715 2 12C2 17.5228 6.47715 22 12 22C17.5228 22 22 17.5228 22 12C22 6.47715 17.5228 2 12 2ZM12.026 14.0293C13.8688 14.0293 15.2505 12.6489 15.2505 10.7016C15.2505 8.75397 13.869 7.375 12.026 7.375C10.1834 7.375 8.74902 8.75374 8.74902 10.7016C8.74946 12.6491 10.1834 14.0293 12.026 14.0293Z" fill="black"/>
</svg>
