<svg width="24" height="24" viewBox="0 0 24 24" fill="none" xmlns="http://www.w3.org/2000/svg">
<path d="M14.4634 12.9942C14.4634 13.0099 14.4638 13.0255 14.4662 13.0396C13.5028 13.1321 12.7495 13.9438 12.7495 14.9315V18.0993C12.7495 19.1491 13.6004 20.0001 14.6502 20.0001H19.7188C20.7685 20.0001 21.6195 19.1491 21.6195 18.0993V14.9315C21.6195 13.9594 20.8896 13.1576 19.9479 13.0445L19.9518 12.9942C19.9518 11.4786 18.7232 10.25 17.2076 10.25C15.692 10.25 14.4634 11.4786 14.4634 12.9942ZM7.50331 12.4131L7.26754 12.4276C4.68469 12.6403 2.46444 14.6049 2.03258 17.1149C2.01358 17.2253 2.00424 17.3638 2 17.5501L2.0047 17.7366C2.08036 18.8141 2.97464 19.6576 4.06537 19.6576H11.3835L11.4852 19.6508C11.8513 19.6011 12.1335 19.2873 12.1335 18.9076C12.1335 18.4934 11.7977 18.1576 11.3835 18.1576H4.06537L3.97341 18.1502C3.70415 18.1067 3.49947 17.875 3.49947 17.5969L3.5021 17.5002L3.51084 17.3694C3.83454 15.488 5.58111 13.992 7.53382 13.9125L11.0096 13.9131L11.1113 13.9063C11.4774 13.8566 11.7596 13.5428 11.7596 13.1631C11.7596 12.7489 11.4238 12.4131 11.0096 12.4131H7.50331ZM20.1195 14.9315V18.0993C20.1195 18.3207 19.9401 18.5001 19.7188 18.5001H14.6502C14.4289 18.5001 14.2495 18.3207 14.2495 18.0993V14.9315C14.2495 14.7102 14.4289 14.5308 14.6502 14.5308H19.7188C19.9401 14.5308 20.1195 14.7102 20.1195 14.9315ZM18.4518 12.9942L18.453 13.03H15.961L15.9634 12.9942L15.9698 12.867C16.0335 12.2396 16.5633 11.75 17.2076 11.75C17.8948 11.75 18.4518 12.307 18.4518 12.9942ZM6.85982 7.13815C6.85982 9.42401 8.70038 11.2763 10.9699 11.2763C13.2394 11.2763 15.08 9.42401 15.08 7.13815C15.08 4.8523 13.2394 3 10.9699 3C8.70038 3 6.85982 4.8523 6.85982 7.13815ZM13.58 7.13815C13.58 8.5977 12.4088 9.7763 10.9699 9.7763C9.53095 9.7763 8.35982 8.59771 8.35982 7.13815C8.35982 5.6786 9.53095 4.5 10.9699 4.5C12.4088 4.5 13.58 5.67861 13.58 7.13815ZM17.1846 15.25C16.8444 15.25 16.5686 15.5258 16.5686 15.866V16.634C16.5686 16.9742 16.8444 17.25 17.1846 17.25C17.5248 17.25 17.8006 16.9742 17.8006 16.634V15.866C17.8006 15.5258 17.5248 15.25 17.1846 15.25Z" fill="black"/>
</svg>
