<svg width="24" height="24" viewBox="0 0 24 24" fill="none" xmlns="http://www.w3.org/2000/svg">
<path d="M10.6145 10.1731C9.07379 10.1731 7.80737 8.91281 7.80737 7.33657C7.80737 5.76033 9.07379 4.5 10.6145 4.5C12.1553 4.5 13.4217 5.76033 13.4217 7.33657C13.4217 8.91281 12.1553 10.1731 10.6145 10.1731ZM14.9217 7.33657C14.9217 4.94155 12.9933 3 10.6145 3C8.23575 3 6.30737 4.94155 6.30737 7.33657C6.30737 9.7316 8.23575 11.6731 10.6145 11.6731C12.9933 11.6731 14.9217 9.7316 14.9217 7.33657ZM19.4994 18.3892C19.4889 17.9751 19.1447 17.648 18.7307 17.6585C18.3166 17.6689 17.9894 18.0131 17.9999 18.4272C18.0039 18.5857 17.812 18.9302 17.2747 18.9398L17.2562 18.94H4.24376C3.70873 18.94 3.50267 18.6013 3.50003 18.4383L3.50025 18.4217C3.50199 18.36 3.50446 18.3132 3.50717 18.2794C3.50912 18.2549 3.51075 18.2431 3.51105 18.2408C3.8705 16.4913 5.63514 15.0279 7.93984 14.9438L13.48 14.94C13.8942 14.9397 14.2297 14.6036 14.2293 14.1894C14.229 13.7752 13.8929 13.4397 13.4787 13.44L7.92565 13.4438L7.91307 13.4438L7.90051 13.4442C5.02277 13.5431 2.56104 15.3932 2.04041 17.9454C2.01348 18.0773 2.00458 18.2386 2.00059 18.3864L2.00045 18.3965L2 18.425V18.4351C2 19.6595 3.13232 20.44 4.24376 20.44H17.2562L17.2692 20.44L17.3017 20.4396C18.4138 20.4196 19.5305 19.6165 19.4994 18.3892ZM21.2803 12.3301C21.5732 12.0372 21.5732 11.5624 21.2803 11.2695C20.9874 10.9766 20.5126 10.9766 20.2197 11.2695L18 13.4891L17.2803 12.7695C16.9874 12.4766 16.5126 12.4766 16.2197 12.7695C15.9268 13.0624 15.9268 13.5372 16.2197 13.8301L17.4697 15.0801C17.7626 15.373 18.2374 15.373 18.5303 15.0801L21.2803 12.3301Z" fill="black"/>
</svg>
