<svg width="24" height="24" viewBox="0 0 24 24" fill="none" xmlns="http://www.w3.org/2000/svg">
<path d="M14.2344 6.25006C15.0628 6.25006 15.7344 6.92163 15.7344 7.75006V14.7501C15.7344 15.5785 15.0628 16.2501 14.2344 16.2501H6.23438C5.40595 16.2501 4.73438 15.5785 4.73438 14.7501V7.75006C4.73438 6.92163 5.40595 6.25006 6.23438 6.25006H14.2344ZM6.23438 4.75006C4.57752 4.75006 3.23438 6.09321 3.23438 7.75006V14.7501C3.23438 16.4069 4.57752 17.7501 6.23438 17.7501H14.2344C15.8912 17.7501 17.2344 16.4069 17.2344 14.7501V7.75006C17.2344 6.09321 15.8912 4.75006 14.2344 4.75006H6.23438Z" fill="black"/>
<path d="M18.2246 4.2175C17.9305 3.92581 17.4556 3.92776 17.1639 4.22185L3.2175 18.2833C2.92581 18.5774 2.92776 19.0522 3.22185 19.3439C3.51594 19.6356 3.99081 19.6336 4.2825 19.3396L18.2289 5.27815C18.5206 4.98406 18.5187 4.50919 18.2246 4.2175Z" fill="black"/>
<path d="M18.2485 6.22751L16.2641 7.82505C15.9414 8.08479 15.8904 8.55692 16.1502 8.87957C16.4099 9.20223 16.882 9.25323 17.2047 8.99348L19.1889 7.39613C19.1889 7.39619 19.189 7.39607 19.1889 7.39613C19.4685 7.17154 19.8832 7.37066 19.8832 7.72873V14.5813C19.8832 14.9395 19.4683 15.1386 19.1887 14.9138L17.2047 13.3166C16.882 13.0568 16.4099 13.1078 16.1502 13.4305C15.8904 13.7531 15.9414 14.2253 16.2641 14.485L18.2485 16.0826C19.509 17.0964 21.3832 16.1999 21.3832 14.5813V7.72873C21.3832 6.11016 19.509 5.21363 18.2485 6.22751Z" fill="black"/>
</svg>
