<svg width="24" height="24" viewBox="0 0 24 24" fill="none" xmlns="http://www.w3.org/2000/svg">
<path d="M5.555 17.275C4.97307 17.275 4.5 16.8019 4.5 16.22V8.555C4.5 7.97307 4.97307 7.5 5.555 7.5H14.4975C15.0794 7.5 15.5525 7.97307 15.5525 8.555V16.22C15.5525 16.8019 15.0794 17.275 14.4975 17.275H5.555ZM5.555 18.775H14.4975C15.9079 18.775 17.0525 17.6304 17.0525 16.22V8.555C17.0525 7.14464 15.9079 6 14.4975 6H5.555C4.14464 6 3 7.14464 3 8.555V16.22C3 17.6304 4.14464 18.775 5.555 18.775Z" fill="black"/>
<path d="M19.2071 7.53317L16.676 8.67485C16.2984 8.84517 16.1304 9.28932 16.3007 9.6669C16.471 10.0445 16.9152 10.2125 17.2928 10.0422L19.8986 8.86677C19.9565 8.84066 20.0109 8.8073 20.0603 8.76749C20.0858 8.74702 20.1052 8.74203 20.1197 8.74066C20.1375 8.73899 20.1601 8.74215 20.1833 8.75324C20.2065 8.76434 20.223 8.77992 20.2328 8.79478C20.2408 8.80689 20.2491 8.82506 20.2491 8.85774V15.9002C20.2491 15.9329 20.2408 15.9511 20.2328 15.9632C20.223 15.978 20.2065 15.9936 20.1833 16.0047C20.1601 16.0158 20.1375 16.019 20.1197 16.0173C20.1052 16.0159 20.0858 16.0109 20.0603 15.9905C20.0109 15.9506 19.9565 15.9173 19.8986 15.8912L17.2928 14.7158C16.9152 14.5454 16.471 14.7135 16.3007 15.091C16.1304 15.4686 16.2984 15.9128 16.676 16.0831L19.2071 17.2248C20.2611 17.9684 21.7491 17.221 21.7491 15.9002V8.85774C21.7491 7.53699 20.2611 6.78957 19.2071 7.53317Z" fill="black"/>
</svg>
