<svg width="24" height="24" viewBox="0 0 24 24" fill="none" xmlns="http://www.w3.org/2000/svg">
<path d="M8.53583 10.364C9.68785 11.516 9.68785 13.3838 8.53583 14.5358C7.97274 15.0989 7.23864 15.3868 6.5007 15.3994H6.44922C6.44158 15.3994 6.43397 15.3995 6.42638 15.3998C5.6793 15.3938 4.93403 15.1059 4.36401 14.5358C3.21199 13.3838 3.212 11.516 4.36401 10.364C5.51603 9.21199 7.38382 9.212 8.53583 10.364ZM9.78213 15.3994C11.3319 13.6518 11.27 10.9769 9.59649 9.30336C7.8587 7.56555 5.04116 7.56555 3.30336 9.30335C1.56555 11.0412 1.56555 13.8587 3.30335 15.5965C4.18812 16.4813 5.35277 16.9156 6.51231 16.8994H17.4881C18.6477 16.9156 19.8123 16.4813 20.6971 15.5965C22.4349 13.8587 22.4349 11.0412 20.6971 9.30336C18.9593 7.56555 16.1417 7.56555 14.4039 9.30335C12.7304 10.9769 12.6685 13.6518 14.2183 15.3994H9.78213ZM17.5723 15.3998C17.5645 15.3995 17.5568 15.3994 17.549 15.3994H17.4997C16.7618 15.3868 16.0277 15.0989 15.4646 14.5358C14.3126 13.3838 14.3126 11.516 15.4646 10.364C16.6166 9.21199 18.4844 9.212 19.6364 10.364C20.7884 11.516 20.7884 13.3838 19.6364 14.5358C19.0659 15.1063 18.32 15.3943 17.5723 15.3998Z" fill="black"/>
</svg>
