<svg width="24" height="24" viewBox="0 0 24 24" fill="none" xmlns="http://www.w3.org/2000/svg">
<path d="M7.92859 14.2829H4.97144C4.71163 14.2829 4.5 14.0713 4.5 13.8115V9.86859C4.5 9.60878 4.71163 9.39715 4.97144 9.39715H7.92859C8.27232 9.39715 8.60563 9.2791 8.87273 9.06275L11.3572 7.05034V16.6048L8.86564 14.6116C8.59967 14.3988 8.2692 14.2829 7.92859 14.2829ZM7.92859 15.7829L11.2325 18.426C11.8873 18.9498 12.8572 18.4837 12.8572 17.6452V6.00189C12.8572 5.16056 11.8815 4.69527 11.2278 5.22482L7.92859 7.89715H4.97144C3.8832 7.89715 3 8.78036 3 9.86859V13.8115C3 14.8997 3.8832 15.7829 4.97144 15.7829H7.92859Z" fill="black"/>
<path d="M15.6507 14.294C15.968 14.5602 16.4411 14.5188 16.7074 14.2015L19.9214 10.3714C20.1877 10.0541 20.1463 9.58103 19.829 9.31479C19.5116 9.04854 19.0386 9.08993 18.7723 9.40723L15.5583 13.2374C15.292 13.5547 15.3334 14.0277 15.6507 14.294Z" fill="black"/>
<path d="M20.2308 13.8939C20.497 13.5766 20.4556 13.1035 20.1383 12.8373L16.3081 9.62336C15.9908 9.3571 15.5177 9.39849 15.2515 9.7158C14.9852 10.0331 15.0266 10.5062 15.3439 10.7724L19.1742 13.9864C19.4915 14.2526 19.9645 14.2112 20.2308 13.8939Z" fill="black"/>
</svg>
