<svg width="24" height="24" viewBox="0 0 24 24" fill="none" xmlns="http://www.w3.org/2000/svg">
<path d="M8.92859 14.2829H5.97144C5.71163 14.2829 5.5 14.0713 5.5 13.8115V9.86859C5.5 9.60878 5.71163 9.39715 5.97144 9.39715H8.92859C9.27232 9.39715 9.60563 9.2791 9.87273 9.06275L12.3572 7.05034V16.6048L9.86564 14.6116C9.59967 14.3988 9.2692 14.2829 8.92859 14.2829ZM8.92859 15.7829L12.2325 18.426C12.8873 18.9498 13.8572 18.4837 13.8572 17.6452V6.00189C13.8572 5.16056 12.8815 4.69527 12.2278 5.22482L8.92859 7.89715H5.97144C4.8832 7.89715 4 8.78036 4 9.86859V13.8115C4 14.8997 4.8832 15.7829 5.97144 15.7829H8.92859Z" fill="black"/>
<path d="M16.4023 8.507C16.1549 8.83928 16.2238 9.30913 16.5561 9.55644C17.2613 10.0813 17.7159 10.907 17.7159 11.8398C17.7159 12.7723 17.2608 13.5982 16.5559 14.1233C16.2237 14.3708 16.155 14.8406 16.4024 15.1728C16.6499 15.505 17.1198 15.5737 17.4519 15.3263C18.5112 14.5372 19.2159 13.2773 19.2159 11.8398C19.2159 10.4026 18.5121 9.14242 17.4517 8.35315C17.1194 8.10584 16.6496 8.17472 16.4023 8.507Z" fill="black"/>
</svg>
