<svg width="24" height="24" viewBox="0 0 24 24" fill="none" xmlns="http://www.w3.org/2000/svg">
<path d="M3.82279 3.07279C3.54411 2.93996 3.20042 2.98892 2.96967 3.21967C2.67678 3.51256 2.67678 3.98744 2.96967 4.28033L6.53116 7.84182H3.97144C2.8832 7.84182 2 8.72502 2 9.81325V13.7561C2 14.8444 2.8832 15.7276 3.97144 15.7276H6.92859L10.2325 18.3707C10.8873 18.8945 11.8572 18.4283 11.8572 17.5898V13.1678L16.6704 17.9811C16.6325 18.0104 16.5943 18.0393 16.5559 18.068C16.2237 18.3154 16.155 18.7853 16.4024 19.1175C16.6499 19.4497 17.1198 19.5184 17.4519 19.2709C17.5488 19.1988 17.6443 19.1248 17.7384 19.049L18.9697 20.2803C19.2626 20.5732 19.7374 20.5732 20.0303 20.2803C20.2611 20.0496 20.31 19.7059 20.1772 19.4272C20.1022 19.3914 20.0318 19.3425 19.9697 19.2803L3.96967 3.28033C3.90752 3.21818 3.85856 3.14785 3.82279 3.07279ZM19.7039 16.8933C20.673 15.4295 21.2429 13.6777 21.2429 11.7845C21.2429 8.70422 19.7361 5.99808 17.4517 4.29781C17.1194 4.0505 16.6496 4.11938 16.4023 4.45167C16.1549 4.78395 16.2238 5.2538 16.5561 5.50111C18.4853 6.93696 19.7429 9.20867 19.7429 11.7845C19.7429 13.2578 19.3309 14.6317 18.6173 15.8067L19.7039 16.8933ZM16.5546 13.7439C16.8236 13.1822 16.9756 12.5528 16.9756 11.885C16.9756 10.4478 16.2719 9.18766 15.2115 8.3984C14.8792 8.15109 14.4093 8.21997 14.162 8.55225C13.9147 8.88453 13.9836 9.35438 14.3159 9.60169C15.0211 10.1265 15.4756 10.9523 15.4756 11.885C15.4756 12.1243 15.4457 12.3566 15.3892 12.5786L16.5546 13.7439ZM11.8572 9.04653V5.94655C11.8572 5.10522 10.8815 4.63993 10.2278 5.16949L8.98599 6.17533L10.0525 7.24181L10.3572 6.995V7.54653L11.8572 9.04653ZM6.92859 9.34182C7.23024 9.34182 7.52386 9.2509 7.77175 9.08241L10.3572 11.6678V16.5495L7.86564 14.5563C7.59967 14.3435 7.2692 14.2276 6.92859 14.2276H3.97144C3.71163 14.2276 3.5 14.0159 3.5 13.7561V9.81325C3.5 9.55345 3.71163 9.34182 3.97144 9.34182H6.92859Z" fill="black"/>
</svg>
