<svg width="24" height="24" viewBox="0 0 24 24" fill="none" xmlns="http://www.w3.org/2000/svg">
<path d="M11.9286 14.2819H8.97144C8.71163 14.2819 8.5 14.0703 8.5 13.8105V9.86761C8.5 9.60781 8.71163 9.39618 8.97144 9.39618H11.9286C12.2723 9.39618 12.6056 9.27812 12.8727 9.06177L15.3572 7.04936V16.6039L12.8656 14.6106C12.5997 14.3978 12.2692 14.2819 11.9286 14.2819ZM11.9286 15.7819L15.2325 18.425C15.8873 18.9489 16.8572 18.4827 16.8572 17.6442V6.00091C16.8572 5.15958 15.8815 4.6943 15.2278 5.22385L11.9286 7.89618H8.97144C7.8832 7.89618 7 8.77938 7 9.86761V13.8105C7 14.8987 7.8832 15.7819 8.97144 15.7819H11.9286Z" fill="black"/>
</svg>
