<svg width="24" height="24" viewBox="0 0 24 24" fill="none" xmlns="http://www.w3.org/2000/svg">
<path d="M5.25 4.5H17.75C18.1642 4.5 18.5 4.16421 18.5 3.75C18.5 3.33579 18.1642 3 17.75 3H5.25C4.00779 3 3 4.00779 3 5.25C3 5.41378 3.01752 5.57348 3.05078 5.72733V18.1579C3.05078 19.8147 4.39393 21.1579 6.05078 21.1579H18.9981C20.655 21.1579 21.9981 19.8147 21.9981 18.1579V9C21.9981 7.34315 20.655 6 18.9981 6H11.75H5.33222C5.27701 6 5.22194 5.99848 5.16707 5.99545C4.79221 5.9541 4.5 5.63576 4.5 5.25C4.5 4.83621 4.83621 4.5 5.25 4.5ZM4.55078 7.43164C4.71444 7.4605 4.88008 7.48036 5.04699 7.49096C5.11386 7.49694 5.18158 7.5 5.25 7.5H5.33222H11.75H18.9981C19.8266 7.5 20.4981 8.17157 20.4981 9V18.1579C20.4981 18.9863 19.8266 19.6579 18.9981 19.6579H6.05078C5.22235 19.6579 4.55078 18.9863 4.55078 18.1579V7.43164ZM17.5508 14.45C18.1031 14.45 18.5508 14.0022 18.5508 13.45C18.5508 12.8977 18.1031 12.45 17.5508 12.45C16.9985 12.45 16.5508 12.8977 16.5508 13.45C16.5508 14.0022 16.9985 14.45 17.5508 14.45Z" fill="black"/>
</svg>
