<svg width="24" height="24" viewBox="0 0 24 24" fill="none" xmlns="http://www.w3.org/2000/svg">
<path d="M8.65039 3C7.54572 3 6.65039 3.89533 6.65039 5C6.65039 5.38262 6.7578 5.74013 6.94412 6.04401L8.99848 12.7207C9.09531 13.0354 9.38606 13.2501 9.71532 13.2501H15.6565L17.6013 17.6261C17.7493 17.9591 18.1151 18.1375 18.4686 18.0491L20.6115 17.5134C21.0133 17.413 21.2576 17.0058 21.1572 16.6039C21.0567 16.2021 20.6495 15.9577 20.2477 16.0582L18.7161 16.4411L16.8292 12.1955C16.7089 11.9247 16.4403 11.7501 16.1439 11.7501H10.2692L9.74176 10.0358H14.7316C15.1458 10.0358 15.4816 9.69998 15.4816 9.28577C15.4816 8.87155 15.1458 8.53577 14.7316 8.53577H9.28022L8.80584 6.99405C9.83785 6.91473 10.6504 6.05235 10.6504 5C10.6504 3.89533 9.75506 3 8.65039 3ZM5.96571 9.71494C6.31918 9.499 6.43066 9.03739 6.21471 8.68393C5.99876 8.33046 5.53716 8.21898 5.18369 8.43493C4.78747 8.677 4.41876 8.95931 4.08318 9.27614C2.8014 10.4863 2 12.2037 2 14.1072C2 17.7762 4.97381 20.75 8.64284 20.75C11.7878 20.75 14.4204 18.5658 15.1097 15.6321C15.2044 15.2289 14.9543 14.8252 14.5511 14.7304C14.1479 14.6357 13.7442 14.8858 13.6494 15.289C13.1158 17.5601 11.076 19.25 8.64284 19.25C5.80224 19.25 3.5 16.9478 3.5 14.1072C3.5 12.6333 4.11883 11.3054 5.11293 10.3668C5.37317 10.1211 5.65894 9.90237 5.96571 9.71494Z" fill="black"/>
</svg>
