<svg width="24" height="24" viewBox="0 0 24 24" fill="none" xmlns="http://www.w3.org/2000/svg">
<path d="M20.5687 9.56218C20.8804 9.835 21.3542 9.80351 21.6271 9.49184C21.8999 9.18016 21.8684 8.70634 21.5567 8.43351C16.3268 3.8555 8.48594 3.8555 3.25602 8.43351C2.94435 8.70634 2.91285 9.18016 3.18568 9.49184C3.4585 9.80351 3.93233 9.835 4.244 9.56218C8.90831 5.47927 15.9044 5.47927 20.5687 9.56218Z" fill="black"/>
<path d="M17.566 12.4361C17.8777 12.7089 18.3515 12.6774 18.6243 12.3657C18.8972 12.0541 18.8657 11.5802 18.554 11.3074C15.0394 8.23086 9.77066 8.23086 6.25602 11.3074C5.94435 11.5802 5.91285 12.0541 6.18568 12.3657C6.4585 12.6774 6.93233 12.7089 7.244 12.4361C10.193 9.85464 14.617 9.85464 17.566 12.4361Z" fill="black"/>
<path d="M15.004 15.2637C15.3425 15.5025 15.8104 15.4217 16.0492 15.0832C16.288 14.7448 16.2072 14.2768 15.8687 14.038C13.907 12.654 11.2794 12.654 9.31765 14.038C8.97919 14.2768 8.89839 14.7448 9.13718 15.0832C9.37597 15.4217 9.84392 15.5025 10.1824 15.2637C11.6256 14.2454 13.5607 14.2454 15.004 15.2637Z" fill="black"/>
<path d="M12.5 19.25C13.1904 19.25 13.75 18.6904 13.75 18C13.75 17.3096 13.1904 16.75 12.5 16.75C11.8097 16.75 11.25 17.3096 11.25 18C11.25 18.6904 11.8097 19.25 12.5 19.25Z" fill="black"/>
</svg>
