<svg width="24" height="24" viewBox="0 0 24 24" fill="none" xmlns="http://www.w3.org/2000/svg">
<path d="M4.72318 3.07278C4.4445 2.93996 4.10081 2.98893 3.87007 3.21967C3.57718 3.51256 3.57718 3.98744 3.87007 4.28033L6.09838 6.50864C5.09341 7.02018 4.13762 7.6618 3.25602 8.43351C2.94435 8.70634 2.91285 9.18016 3.18568 9.49184C3.4585 9.80351 3.93233 9.835 4.244 9.56218C5.1585 8.76168 6.16263 8.11812 7.22125 7.63151L9.16645 9.57671C8.12321 9.96128 7.13479 10.5382 6.25602 11.3074C5.94435 11.5802 5.91285 12.0541 6.18568 12.3657C6.4585 12.6774 6.93233 12.7089 7.244 12.4361C8.16799 11.6273 9.23678 11.0719 10.3596 10.7699L12.5897 13C11.4436 13.0007 10.2975 13.3467 9.31765 14.038C8.97919 14.2768 8.89839 14.7448 9.13718 15.0832C9.37597 15.4217 9.84392 15.5025 10.1824 15.2637C11.4958 14.337 13.2167 14.2537 14.6034 15.0137L19.8701 20.2803C20.163 20.5732 20.6378 20.5732 20.9307 20.2803C21.1615 20.0496 21.2104 19.7059 21.0776 19.4272C21.0026 19.3914 20.9322 19.3425 20.8701 19.2803L4.87006 3.28033C4.80791 3.21818 4.75895 3.14784 4.72318 3.07278ZM14.4923 10.7813C15.5999 11.0857 16.6535 11.6373 17.566 12.4361C17.8777 12.7089 18.3515 12.6774 18.6243 12.3657C18.8972 12.0541 18.8657 11.5802 18.554 11.3074C16.8797 9.84181 14.8074 9.07439 12.7162 9.00515L14.4923 10.7813ZM10.3771 6.66607C13.9321 6.07994 17.6935 7.04531 20.5687 9.56218C20.8804 9.835 21.3542 9.80351 21.6271 9.49184C21.8999 9.18016 21.8684 8.70634 21.5567 8.43351C18.0547 5.36797 13.3818 4.35518 9.10621 5.39515L10.3771 6.66607ZM12.5 19.25C13.1904 19.25 13.75 18.6904 13.75 18C13.75 17.3096 13.1904 16.75 12.5 16.75C11.8097 16.75 11.25 17.3096 11.25 18C11.25 18.6904 11.8097 19.25 12.5 19.25Z" fill="black"/>
</svg>
