<svg width="24" height="24" viewBox="0 0 24 24" fill="none" xmlns="http://www.w3.org/2000/svg">
<path d="M18.3828 8.79068C18.8741 9.06663 19.0985 9.61574 18.9589 10.124C18.8181 10.6364 18.332 11.0144 17.7522 11.0157H3.75C3.33579 11.0157 3 11.3514 3 11.7657C3 12.1799 3.33579 12.5157 3.75 12.5157H17.753L17.7543 12.5157C18.9835 12.5135 20.0791 11.7083 20.4053 10.5214C20.7325 9.33027 20.1926 8.08677 19.1173 7.48283C18.0474 6.88195 16.6956 7.05102 15.8145 7.90544C15.5172 8.1938 15.5099 8.66862 15.7983 8.96597C16.0866 9.26333 16.5614 9.27062 16.8588 8.98225C17.2587 8.59442 17.886 8.51166 18.3828 8.79068ZM13.3508 14.1274H3.75C3.33579 14.1274 3 14.4632 3 14.8774C3 15.2916 3.33579 15.6274 3.75 15.6274H13.352L13.3551 15.6274C13.7554 15.6258 14.0858 15.8851 14.1811 16.2285C14.2753 16.5676 14.1272 16.9387 13.7914 17.127C13.4301 17.3295 13.3014 17.7866 13.5039 18.1479C13.7065 18.5092 14.1635 18.638 14.5249 18.4354C15.4465 17.9188 15.9106 16.8506 15.6265 15.8273C15.3438 14.8088 14.4012 14.1239 13.3508 14.1274Z" fill="black"/>
<path d="M12.1244 5.09591C13.046 5.61256 13.5101 6.68068 13.226 7.70405C12.9432 8.72254 12.0006 9.40744 10.9502 9.4039H3.75C3.33579 9.4039 3 9.06812 3 8.6539C3 8.23969 3.33579 7.9039 3.75 7.9039H10.9546C11.3549 7.90553 11.6853 7.64621 11.7806 7.30282C11.8748 6.96376 11.7267 6.59259 11.3909 6.40436C11.0296 6.20181 10.9009 5.74472 11.1034 5.3834C11.3059 5.02208 11.763 4.89337 12.1244 5.09591Z" fill="black"/>
</svg>
