<svg width="24" height="24" viewBox="0 0 24 24" fill="none" xmlns="http://www.w3.org/2000/svg">
<path d="M18.6533 3.69097C18.1047 3.44987 17.5969 3.27106 17.0671 3.15581C16.5868 3.05133 16.0886 2.99909 15.5256 3.00001C14.2452 3.09147 13.077 3.7079 12.2459 4.63877C11.4297 5.5529 10.9408 6.76687 10.9821 8.069C10.983 8.42156 11.0212 8.73748 11.0959 9.03984L4.10692 15.228C3.41064 15.871 3.03907 16.7392 3.00293 17.6066C2.96626 18.4867 3.27343 19.3638 3.92616 20.0165C4.6242 20.7146 5.52265 21.0335 6.39379 20.9972C7.27179 20.9606 8.12629 20.564 8.73218 19.816L14.9208 12.8265C15.5482 12.9563 16.1872 12.9497 16.9566 12.8691C17.8623 12.688 18.6779 12.259 19.3354 11.6485C19.9903 11.0403 20.4883 10.2516 20.7644 9.33052C20.9928 8.49298 20.9687 7.65476 20.7915 6.87096C20.6668 6.3195 20.4663 5.79497 20.2246 5.31656L17.6493 7.89183L16.0509 6.29338L18.6533 3.69097ZM19.4259 8.23654C19.4153 8.46679 19.3815 8.6947 19.322 8.91811C19.1207 9.5784 18.7672 10.1291 18.3147 10.5493C17.8703 10.962 17.3271 11.2526 16.7264 11.3848C16.0697 11.4497 15.6225 11.4399 15.2247 11.3576C14.6984 11.2487 14.154 11.4297 13.7977 11.8321L7.60913 18.8216C7.59458 18.838 7.5804 18.8548 7.56658 18.8718C7.24111 19.2737 6.79415 19.4792 6.33135 19.4985C5.87187 19.5177 5.38297 19.352 4.98682 18.9559C4.65157 18.6206 4.48116 18.1604 4.50163 17.669C4.5217 17.1873 4.72714 16.702 5.11469 16.3392L12.0903 10.1629C12.5081 9.79293 12.686 9.22159 12.5521 8.67982C12.5084 8.50331 12.4827 8.30761 12.482 8.06504C12.482 8.05051 12.4818 8.03599 12.4813 8.02147C12.453 7.13011 12.787 6.28484 13.3648 5.63779C13.9432 4.9899 14.737 4.57403 15.583 4.50012C15.6295 4.50039 15.6753 4.5011 15.7207 4.50225L14.9902 5.23272C14.7089 5.51402 14.5509 5.89556 14.5509 6.29338C14.5509 6.6912 14.7089 7.07274 14.9902 7.35404L16.5886 8.95249C16.87 9.23379 17.2515 9.39183 17.6493 9.39183C18.0471 9.39183 18.4287 9.23379 18.71 8.95249L19.4259 8.23654Z" fill="black"/>
</svg>
