<?xml version="1.0" encoding="UTF-8"?>
<svg width="90px" height="90px" viewBox="0 0 90 90" version="1.1" xmlns="http://www.w3.org/2000/svg" xmlns:xlink="http://www.w3.org/1999/xlink">
    <!-- Generator: Sketch 53.2 (72643) - https://sketchapp.com -->
    <title>Blog Posts@1x</title>
    <desc>Created with Sketch.</desc>
    <g id="Page-1" stroke="none" stroke-width="1" fill="none" fill-rule="evenodd">
        <g id="Search-result-category-icon" transform="translate(-229.000000, -362.000000)">
            <g id="Blog-Posts" transform="translate(229.000000, 362.000000)">
                <g id="Group-59-Copy" fill="#F5F5F5">
                    <rect id="Rectangle-4-Copy" x="0" y="0" width="90" height="90" rx="3"></rect>
                </g>
                <g id="Group-62" transform="translate(21.000000, 21.000000)" fill="#C8CBCF">
                    <path d="M4,8.06466005e-13 L35.375,8.06466005e-13 C37.584139,8.06060193e-13 39.375,1.790861 39.375,4 L39.375,19.2332675 L18.9865676,40.8888889 L4,40.8888889 C1.790861,40.8888889 -3.28217218e-15,39.0980279 -3.55271368e-15,36.8888889 L-3.55271368e-15,4 C-3.82325518e-15,1.790861 1.790861,8.06871817e-13 4,8.06466005e-13 Z M39.3582159,23.209422 C40.4320856,22.0702308 41.4317118,21.0097993 41.4317118,21.0097993 C42.56508,19.8074905 44.4313165,19.7953166 45.5911991,20.9735988 L47.7051453,23.1210792 C48.8689985,24.303395 48.8964889,26.2335689 47.7603432,27.4388241 C47.7603432,27.4388241 46.8291255,28.426686 45.8146145,29.5029078 L39.3582159,23.209422 Z M43.9696979,31.460047 L29.4958851,46.814274 C29.1165305,47.216704 28.3538633,47.542938 27.8062124,47.542938 L23.4831618,47.542938 C22.929336,47.542938 22.4803714,47.101045 22.4803714,46.5384028 L22.4803714,42.1184483 C22.4803714,41.5636589 22.793579,40.7816538 23.1672537,40.3852492 C23.1672537,40.3852492 32.7190218,30.2524654 37.4949059,25.1860736 L43.9696979,31.460047 Z M8.23734298,12.4408053 L26.282577,12.4408053 C27.1110042,12.4408053 27.782577,11.7692324 27.782577,10.9408053 C27.782577,10.1123782 27.1110042,9.44080531 26.282577,9.44080531 L8.23734298,9.44080531 C7.40891586,9.44080531 6.73734298,10.1123782 6.73734298,10.9408053 C6.73734298,11.7692324 7.40891586,12.4408053 8.23734298,12.4408053 Z M8.23734298,20.4408053 L19.282577,20.4408053 C20.1110042,20.4408053 20.782577,19.7692324 20.782577,18.9408053 C20.782577,18.1123782 20.1110042,17.4408053 19.282577,17.4408053 L8.23734298,17.4408053 C7.40891586,17.4408053 6.73734298,18.1123782 6.73734298,18.9408053 C6.73734298,19.7692324 7.40891586,20.4408053 8.23734298,20.4408053 Z" id="Combined-Shape"></path>
                </g>
            </g>
        </g>
    </g>
</svg>