<?xml version="1.0" encoding="utf-8"?>
<!-- Generator: Adobe Illustrator 22.0.1, SVG Export Plug-In . SVG Version: 6.00 Build 0)  -->
<!DOCTYPE svg PUBLIC "-//W3C//DTD SVG 1.1//EN" "http://www.w3.org/Graphics/SVG/1.1/DTD/svg11.dtd">
<svg version="1.1" id="Layer_1" xmlns="http://www.w3.org/2000/svg" xmlns:xlink="http://www.w3.org/1999/xlink" x="0px" y="0px"
	 viewBox="0 0 90 90" style="enable-background:new 0 0 90 90;" xml:space="preserve">
<style type="text/css">
	.st0{fill:#F5F5F5;}
	.st1{fill:#C8CBCF;}
</style>
<title>Post Type Name@1x</title>
<desc>Created with Sketch.</desc>
<g id="Page-1">
	<g id="Search-result-category-icon" transform="translate(-833.000000, -362.000000)">
		<g id="Post-Type-Name" transform="translate(833.000000, 362.000000)">
			<g id="Group-67-Copy-2">
				<g id="Group-65-Copy">
					<path id="Rectangle-4-Copy" class="st0" d="M3,0h84c1.7,0,3,1.3,3,3v84c0,1.7-1.3,3-3,3H3c-1.7,0-3-1.3-3-3V3C0,1.3,1.3,0,3,0z
						"/>
				</g>
			</g>
			<g id="Group-70" transform="translate(26.000000, 21.000000)">
				<path id="Combined-Shape" class="st1" d="M36.8,15.7v28.2c0,2.2-1.8,4-4,4H4c-2.2,0-4-1.8-4-4V4c0-2.2,1.8-4,4-4h19.1v9.7
					c0,3.3,2.7,6,6,6H36.8z M25.8,1.6L35.5,13h-5.7c-2.2,0-4-1.8-4-4L25.8,1.6z"/>
			</g>
		</g>
	</g>
</g>
<path class="st0" d="M39.5,60l-0.7,0.7c-0.1,0.1-0.2,0.1-0.3,0.1s-0.2,0-0.3-0.1l-6.6-6.6c-0.1-0.1-0.1-0.2-0.1-0.3s0-0.2,0.1-0.3
	l6.6-6.6c0.1-0.1,0.2-0.1,0.3-0.1s0.2,0,0.3,0.1l0.7,0.7c0.1,0.1,0.1,0.2,0.1,0.3s0,0.2-0.1,0.3l-5.6,5.6l5.6,5.6
	c0.1,0.1,0.1,0.2,0.1,0.3S39.6,59.9,39.5,60z M47.9,44.8l-5.3,18.3c0,0.1-0.1,0.2-0.2,0.3c-0.1,0.1-0.2,0.1-0.3,0l-0.9-0.2
	c-0.1,0-0.2-0.1-0.3-0.2c-0.1-0.1-0.1-0.2,0-0.3l5.3-18.3c0-0.1,0.1-0.2,0.2-0.3s0.2-0.1,0.3,0l0.9,0.2c0.1,0,0.2,0.1,0.3,0.2
	S47.9,44.7,47.9,44.8z M57.2,54.1l-6.6,6.6c-0.1,0.1-0.2,0.1-0.3,0.1s-0.2,0-0.3-0.1L49.2,60c-0.1-0.1-0.1-0.2-0.1-0.3
	s0-0.2,0.1-0.3l5.6-5.6l-5.6-5.6c-0.1-0.1-0.1-0.2-0.1-0.3s0-0.2,0.1-0.3l0.7-0.7c0.1-0.1,0.2-0.1,0.3-0.1s0.2,0,0.3,0.1l6.6,6.6
	c0.1,0.1,0.1,0.2,0.1,0.3S57.3,54,57.2,54.1z"/>
</svg>
