<?xml version="1.0" encoding="utf-8"?>
<!-- Generator: Adobe Illustrator 22.0.1, SVG Export Plug-In . SVG Version: 6.00 Build 0)  -->
<!DOCTYPE svg PUBLIC "-//W3C//DTD SVG 1.1//EN" "http://www.w3.org/Graphics/SVG/1.1/DTD/svg11.dtd">
<svg version="1.1" id="Layer_1" xmlns="http://www.w3.org/2000/svg" xmlns:xlink="http://www.w3.org/1999/xlink" x="0px" y="0px"
	 viewBox="0 0 90 90" style="enable-background:new 0 0 90 90;" xml:space="preserve">
<style type="text/css">
	.st0{fill:#F5F5F5;}
	.st1{fill:#C8CBCF;}
	.st2{display:none;fill:#F5F5F5;}
</style>
<title>Post Type Name@1x</title>
<desc>Created with Sketch.</desc>
<g id="Page-1">
	<g id="Search-result-category-icon" transform="translate(-833.000000, -362.000000)">
		<g id="Post-Type-Name" transform="translate(833.000000, 362.000000)">
			<g id="Group-67-Copy-2">
				<g id="Group-65-Copy">
					<path id="Rectangle-4-Copy" class="st0" d="M3,0h84c1.7,0,3,1.3,3,3v84c0,1.7-1.3,3-3,3H3c-1.7,0-3-1.3-3-3V3C0,1.3,1.3,0,3,0z
						"/>
				</g>
			</g>
			<g id="Group-70" transform="translate(26.000000, 21.000000)">
				<path id="Combined-Shape" class="st1" d="M36.8,15.7v28.2c0,2.2-1.8,4-4,4H4c-2.2,0-4-1.8-4-4V4c0-2.2,1.8-4,4-4h19.1v9.7
					c0,3.3,2.7,6,6,6H36.8z M25.8,1.6L35.5,13h-5.7c-2.2,0-4-1.8-4-4L25.8,1.6z"/>
			</g>
		</g>
	</g>
</g>
<path class="st2" d="M39.5,60l-0.7,0.7c-0.1,0.1-0.2,0.1-0.3,0.1s-0.2,0-0.3-0.1l-6.6-6.6c-0.1-0.1-0.1-0.2-0.1-0.3s0-0.2,0.1-0.3
	l6.6-6.6c0.1-0.1,0.2-0.1,0.3-0.1s0.2,0,0.3,0.1l0.7,0.7c0.1,0.1,0.1,0.2,0.1,0.3s0,0.2-0.1,0.3l-5.6,5.6l5.6,5.6
	c0.1,0.1,0.1,0.2,0.1,0.3S39.6,59.9,39.5,60z M47.9,44.8l-5.3,18.3c0,0.1-0.1,0.2-0.2,0.3c-0.1,0.1-0.2,0.1-0.3,0l-0.9-0.2
	c-0.1,0-0.2-0.1-0.3-0.2c-0.1-0.1-0.1-0.2,0-0.3l5.3-18.3c0-0.1,0.1-0.2,0.2-0.3s0.2-0.1,0.3,0l0.9,0.2c0.1,0,0.2,0.1,0.3,0.2
	S47.9,44.7,47.9,44.8z M57.2,54.1l-6.6,6.6c-0.1,0.1-0.2,0.1-0.3,0.1s-0.2,0-0.3-0.1L49.2,60c-0.1-0.1-0.1-0.2-0.1-0.3
	s0-0.2,0.1-0.3l5.6-5.6l-5.6-5.6c-0.1-0.1-0.1-0.2-0.1-0.3s0-0.2,0.1-0.3l0.7-0.7c0.1-0.1,0.2-0.1,0.3-0.1s0.2,0,0.3,0.1l6.6,6.6
	c0.1,0.1,0.1,0.2,0.1,0.3S57.3,54,57.2,54.1z"/>
<g>
	<path class="st0" d="M38.7,45.4c-0.6-0.5-1.6-0.4-2.1,0.2l-3.8,4.5c-0.5,0.6-0.5,1.4,0,1.9l3.8,4.5c0.5,0.6,1.5,0.7,2.1,0.2
		s0.7-1.5,0.2-2.1c0,0,0,0,0,0l-3-3.6l3-3.6C39.4,46.9,39.3,46,38.7,45.4z"/>
	<path class="st0" d="M46.3,42.1c-0.8-0.2-1.6,0.4-1.8,1.2l-3,15.2c-0.2,0.8,0.4,1.6,1.2,1.8c0,0,0,0,0,0c0.1,0,0.2,0,0.3,0
		c0.7,0,1.3-0.5,1.5-1.2l3-15.2C47.7,43,47.1,42.2,46.3,42.1C46.3,42.1,46.3,42.1,46.3,42.1z"/>
	<path class="st0" d="M56.3,50.2l-3.8-4.5C52,45,51,44.9,50.4,45.4c-0.6,0.5-0.7,1.5-0.2,2.1c0,0,0,0,0,0l3,3.6l-3,3.6
		c-0.5,0.6-0.5,1.6,0.2,2.1s1.6,0.5,2.1-0.2c0,0,0,0,0,0l3.8-4.5C56.7,51.6,56.7,50.7,56.3,50.2z"/>
</g>
</svg>
