<svg xmlns="http://www.w3.org/2000/svg" width="90" height="90">
  <g fill="none" fill-rule="evenodd">
    <rect width="90" height="90" fill="#F5F5F5" rx="3"/>
    <path fill="#C8CBCF" d="M26 20h32a4 4 0 0 1 4 4v11.16a12.22 12.22 0 0 0-4.579-.632c-2.858.143-5.14 1.135-6.967 2.492-.781.58-2.229 1.963-3.235 3.649-1.048 1.754-1.598 3.808-1.694 5.543-.09 1.625.002 4.15 1.562 6.876.83 1.447 1.826 2.634 2.99 3.56V61H26a4 4 0 0 1-4-4V24a4 4 0 0 1 4-4zm3 9.5h16a1.5 1.5 0 0 0 0-3H29a1.5 1.5 0 0 0 0 3zm0 7h11a1.5 1.5 0 0 0 0-3H29a1.5 1.5 0 0 0 0 3zm29 20a9.5 9.5 0 1 1 0-19 9.5 9.5 0 0 1 0 19zm-5 1.953c1.608.699 3.275 1.049 5 1.049s3.392-.35 5-1.05V70l-5.105-2.407L53 70V58.453z"/>
  </g>
</svg>
