<svg xmlns="http://www.w3.org/2000/svg" xmlns:xlink="http://www.w3.org/1999/xlink" width="47" height="47">
  <defs>
    <rect id="a" width="47" height="47" rx="3"/>
  </defs>
  <g fill="none" fill-rule="evenodd">
    <use fill="#F5F5F5" xlink:href="#a"/>
    <path fill="#C8CBCF" d="M23.828 18.6a4.8 4.8 0 1 1 0-9.6 4.8 4.8 0 0 1 0 9.6zm-4.8 1.2h9.591a1.2 1.2 0 0 1 1.2 1.2v7.612a2.4 2.4 0 0 1-.392 1.315l-1.8 2.748v4.304a1.2 1.2 0 0 1-1.2 1.2h-5.076a1.2 1.2 0 0 1-1.2-1.2v-4.304l-1.894-2.73a2.4 2.4 0 0 1-.429-1.369V21a1.2 1.2 0 0 1 1.2-1.2zm12.77 0h5.385a1.2 1.2 0 0 1 1.2 1.2v4.695a2.4 2.4 0 0 1-.426 1.366l-2.185 3.157V34.8a1.2 1.2 0 0 1-1.2 1.2h-4.88v-2.611l2.556-3.894v-8.582c0-.564-.15-.935-.45-1.113zm1.63-1.2a3.6 3.6 0 1 1 0-7.2 3.6 3.6 0 0 1 0 7.2zm-17.706 1.2c-.3.178-.45.549-.45 1.113v8.582l2.556 3.894v2.61h-5.017a1.2 1.2 0 0 1-1.2-1.2v-4.58L9.426 27.06A2.4 2.4 0 0 1 9 25.695V21a1.2 1.2 0 0 1 1.2-1.2h5.522zm-1.767-1.2a3.6 3.6 0 1 1 0-7.2 3.6 3.6 0 0 1 0 7.2z"/>
  </g>
</svg>
