<svg xmlns="http://www.w3.org/2000/svg" width="90" height="90">
  <g fill="none" fill-rule="evenodd">
    <rect width="90" height="90" fill="#F5F5F5" rx="3"/>
    <path fill="#C8CBCF" d="M25 27h40a4 4 0 0 1 4 4v28a4 4 0 0 1-4 4H25a4 4 0 0 1-4-4V31a4 4 0 0 1 4-4zm1 24.542C28.438 53.181 30.975 54 33.612 54c2.637 0 5.1-.82 7.388-2.458-.038-1.83-.558-3.052-1.56-3.663-1.501-.918-3.951-1.292-4.122-1.376-.504-.25-.603-.762-.3-1.536.553-.519.892-1.242 1.017-2.17.119.086 1.009-.297 1.092-2.15-.09-.197-.242-.241-.457-.132.304-1.821-.055-2.91-1.08-3.269-.646-.897-1.482-1.31-2.508-1.238-1.366 0-2.398.707-3.095 2.122-.449.779-.449 1.57 0 2.37-.196-.097-.357-.048-.484.147 0 1.433.26 2.193.778 2.281.338 1.058.687 1.738 1.045 2.039.368.429.315.94-.16 1.536-1.482.395-3.132.87-4.196 1.693-.65.503-.973 1.618-.97 3.346zM46.5 42.5h16a1.5 1.5 0 0 0 0-3h-16a1.5 1.5 0 0 0 0 3zm0 7h11a1.5 1.5 0 0 0 0-3h-11a1.5 1.5 0 0 0 0 3z"/>
  </g>
</svg>
