<?xml version="1.0" encoding="UTF-8"?>
<svg width="90px" height="90px" viewBox="0 0 90 90" version="1.1" xmlns="http://www.w3.org/2000/svg" xmlns:xlink="http://www.w3.org/1999/xlink">
    <!-- Generator: Sketch 53.2 (72643) - https://sketchapp.com -->
    <title>Post Type Name@1x</title>
    <desc>Created with Sketch.</desc>
    <g id="Page-1" stroke="none" stroke-width="1" fill="none" fill-rule="evenodd">
        <g id="Search-result-category-icon" transform="translate(-833.000000, -362.000000)">
            <g id="Post-Type-Name" transform="translate(833.000000, 362.000000)">
                <g id="Group-67-Copy-2" fill="#F5F5F5">
                    <g id="Group-65-Copy">
                        <rect id="Rectangle-4-Copy" x="0" y="0" width="90" height="90" rx="3"></rect>
                    </g>
                </g>
                <g id="Group-70" transform="translate(26.000000, 21.000000)" fill="#C8CBCF">
                    <path d="M36.8499045,15.7 L36.8499045,43.883574 C36.8499045,46.092713 35.0590435,47.883574 32.8499045,47.883574 L4,47.883574 C1.790861,47.883574 3.75166564e-12,46.092713 3.74456022e-12,43.883574 L3.74456022e-12,4 C3.74456022e-12,1.790861 1.790861,-7.6068654e-13 4,-7.60280727e-13 L23.0824332,-7.60280727e-13 L23.0824332,9.7 C23.0824332,13.0137085 25.7687247,15.7 29.0824332,15.7 L36.8499045,15.7 Z M8,25 L26.0452341,25 C26.8736612,25 27.5452341,24.3284271 27.5452341,23.5 C27.5452341,22.6715729 26.8736612,22 26.0452341,22 L8,22 C7.17157288,22 6.5,22.6715729 6.5,23.5 C6.5,24.3284271 7.17157288,25 8,25 Z M8,32.3298281 L19.0452341,32.3298281 C19.8736612,32.3298281 20.5452341,31.6582552 20.5452341,30.8298281 C20.5452341,30.0014009 19.8736612,29.3298281 19.0452341,29.3298281 L8,29.3298281 C7.17157288,29.3298281 6.5,30.0014009 6.5,30.8298281 C6.5,31.6582552 7.17157288,32.3298281 8,32.3298281 Z M25.7824332,1.63241202 L35.4725771,13 L29.791132,13 C27.5838365,13 25.7937401,11.2120152 25.7911348,9.00472122 L25.7824332,1.63241202 Z" id="Combined-Shape"></path>
                </g>
            </g>
        </g>
    </g>
</svg>