<svg xmlns="http://www.w3.org/2000/svg" width="90" height="90">
  <g fill="none" fill-rule="evenodd">
    <rect width="90" height="90" fill="#F5F5F5" rx="3"/>
    <path fill="#C8CBCF" d="M45.5 21C59.031 21 70 31.969 70 45.5S59.031 70 45.5 70 21 59.031 21 45.5 31.969 21 45.5 21zm1.27 28.955v-.868c3.837-.722 6.912-4.136 6.912-8.042 0-4.403-3.909-8.181-8.412-8.181-3.187 0-6.29 2.153-7.784 5.042a1.5 1.5 0 1 0 2.665 1.379c1.007-1.949 3.13-3.421 5.119-3.421 2.869 0 5.412 2.458 5.412 5.181 0 2.724-2.543 5.182-5.412 5.182a1.5 1.5 0 0 0-1.5 1.5v2.228a1.5 1.5 0 0 0 3 0zM44 56.636v2.228a1.5 1.5 0 0 0 3 0v-2.228a1.5 1.5 0 0 0-3 0z"/>
  </g>
</svg>
