<?xml version="1.0" encoding="iso-8859-1"?>
<!-- Generator: Adobe Illustrator 19.0.0, SVG Export Plug-In . SVG Version: 6.00 Build 0)  -->
<svg version="1.1" id="Layer_1" xmlns="http://www.w3.org/2000/svg" xmlns:xlink="http://www.w3.org/1999/xlink" x="0px" y="0px"
	 viewBox="0 0 512 512" style="enable-background:new 0 0 512 512;" xml:space="preserve">
<g>
	<g>
		<path d="M495.658,202.79h-14.385v-69.691c0-9.024-7.316-16.34-16.34-16.34H233.458v-20.53c0-9.024-7.316-16.34-16.34-16.34H47.165
			c-9.024,0-16.34,7.316-16.34,16.34v106.561H16.342c-9.638,0-17.179,8.306-16.267,17.892L18.83,417.324
			c0.8,8.386,7.843,14.789,16.267,14.789h441.805c8.423,0,15.467-6.403,16.267-14.789l18.755-196.644
			C512.838,211.086,505.286,202.79,495.658,202.79z M200.778,112.568v20.53c0,9.024,7.316,16.34,16.34,16.34h231.475v53.351H63.506
			v-90.221H200.778z M462.047,399.432H49.954L34.315,235.47c11.274,0,423.383,0,443.37,0L462.047,399.432z"/>
	</g>
</g>
<g>
</g>
<g>
</g>
<g>
</g>
<g>
</g>
<g>
</g>
<g>
</g>
<g>
</g>
<g>
</g>
<g>
</g>
<g>
</g>
<g>
</g>
<g>
</g>
<g>
</g>
<g>
</g>
<g>
</g>
</svg>
