<?xml version="1.0" encoding="UTF-8"?>
<svg width="90px" height="90px" viewBox="0 0 90 90" version="1.1" xmlns="http://www.w3.org/2000/svg" xmlns:xlink="http://www.w3.org/1999/xlink">
    <!-- Generator: Sketch 53.2 (72643) - https://sketchapp.com -->
    <title>Activity@1x</title>
    <desc>Created with Sketch.</desc>
    <g id="Page-1" stroke="none" stroke-width="1" fill="none" fill-rule="evenodd">
        <g id="Search-result-category-icon" transform="translate(-81.000000, -362.000000)">
            <g id="Activity" transform="translate(81.000000, 362.000000)">
                <rect id="Rectangle-4-Copy" fill="#F5F5F5" x="0" y="0" width="90" height="90" rx="3"></rect>
                <path d="M45.5,21 C59.0309764,21 70,31.9690236 70,45.5 C70,59.0309764 59.0309764,70 45.5,70 C31.9690236,70 21,59.0309764 21,45.5 C21,31.9690236 31.9690236,21 45.5,21 Z M35.532607,50.5202847 L37.9247042,46.2857122 L41.7717888,54.5153157 C42.2348767,55.5059437 43.4133463,55.9335995 44.4039743,55.4705116 C44.9075242,55.2351176 45.2889378,54.7989011 45.4550258,54.2684413 L49.977832,39.8232793 L53.4856746,50.0983796 C53.8311874,51.1104487 54.7821787,51.7906702 55.8516005,51.7906702 L60.1002148,51.7906702 C60.9286419,51.7906702 61.6002148,51.1190973 61.6002148,50.2906702 C61.6002148,49.4622431 60.9286419,48.7906702 60.1002148,48.7906702 L56.2092386,48.7906702 L51.809738,35.9037433 C51.6058895,35.3066346 51.1296672,34.8424285 50.527545,34.6539029 C49.4839774,34.32716 48.3731213,34.9082613 48.0463784,35.9518289 L43.3770173,50.8650649 L39.8040294,43.2218034 C39.6295391,42.8485373 39.3429467,42.5390059 38.9841934,42.3363472 C38.0320816,41.7985022 36.8242329,42.1343317 36.2863878,43.0864435 L33.0640874,48.7906702 L29.4854457,48.7906702 C28.6570185,48.7906702 27.9854457,49.4622431 27.9854457,50.2906702 C27.9854457,51.1190973 28.6570185,51.7906702 29.4854457,51.7906702 L33.3559012,51.7906702 C34.2574576,51.7906702 35.0891803,51.3052539 35.532607,50.5202847 Z" id="Combined-Shape" fill="#C8CBCF"></path>
            </g>
        </g>
    </g>
</svg>