<?xml version="1.0" encoding="UTF-8"?>
<svg width="90px" height="90px" viewBox="0 0 90 90" version="1.1" xmlns="http://www.w3.org/2000/svg" xmlns:xlink="http://www.w3.org/1999/xlink">
    <!-- Generator: Sketch 54 (76480) - https://sketchapp.com -->
    <title>Code Icon@1x</title>
    <desc>Created with Sketch.</desc>
    <g id="Page-1" stroke="none" stroke-width="1" fill="none" fill-rule="evenodd">
        <g id="Search-result-category-icon" transform="translate(-833.000000, -552.000000)" fill-rule="nonzero">
            <g id="Code-Icon" transform="translate(833.000000, 552.000000)">
                <rect id="Rectangle" fill="#F5F5F5" x="0" y="0" width="90" height="90" rx="3"></rect>
                <path d="M45.5,70 C31.969,70 21,59.031 21,45.5 C21,31.969 31.969,21 45.5,21 C59.031,21 70,31.969 70,45.5 C70,59.031 59.031,70 45.5,70 Z M46.621,35.6183 L41.5312,54.9598 C41.3204,55.7609 41.7989,56.5813 42.6001,56.7921 C43.4012,57.0029 44.2216,56.5244 44.4324,55.7232 L49.5223,36.3817 C49.7331,35.5806 49.2546,34.7602 48.4534,34.5494 C47.6523,34.3386 46.8319,34.8171 46.6211,35.6183 L46.621,35.6183 Z M39.0607,41.0607 C39.6464,40.4749 39.6464,39.5251 39.0607,38.9393 C38.4749,38.3536 37.5251,38.3536 36.9393,38.9393 L30.9393,44.9393 C30.3536,45.5251 30.3536,46.4749 30.9393,47.0607 L36.9393,53.0607 C37.5251,53.6464 38.4749,53.6464 39.0607,53.0607 C39.6464,52.4749 39.6464,51.5251 39.0607,50.9393 L34.1213,46 L39.0607,41.0607 L39.0607,41.0607 Z M51.9393,41.0607 L56.8787,46 L51.9393,50.9393 C51.3536,51.5251 51.3536,52.4749 51.9393,53.0607 C52.5251,53.6464 53.4749,53.6464 54.0607,53.0607 L60.0607,47.0607 C60.6464,46.4749 60.6464,45.5251 60.0607,44.9393 L54.0607,38.9393 C53.4749,38.3536 52.5251,38.3536 51.9393,38.9393 C51.3536,39.5251 51.3536,40.4749 51.9393,41.0607 L51.9393,41.0607 Z" id="Shape" fill="#C8CBCF"></path>
            </g>
        </g>
    </g>
</svg>