<svg width="28" height="28" xmlns="http://www.w3.org/2000/svg">
  <path d="M9.6576 11.52673l-1.8572 4.15496c-.24142.54013-.77779.8879-1.36942.8879H3.5c-.82843 0-1.5-.67158-1.5-1.5 0-.82844.67157-1.5 1.5-1.5h1.95843l3.21008-7.1817c.57914-1.29565 2.46697-1.13704 2.82179.23709l2.56556 9.9358 3.2434-7.00297c.54169-1.16959 2.20882-1.15643 2.73199.02156l1.77213 3.99021H24.5c.82843 0 1.5.67157 1.5 1.5s-.67157 1.5-1.5 1.5h-3.67172c-.59293 0-1.13022-.34927-1.37088-.89116l-.82568-1.85915-3.6177 7.81112c-.5922 1.27867-2.46115 1.10903-2.81346-.25537l-2.54296-9.8483z" fill="#333" fill-rule="nonzero"/>
</svg>
