<svg id="Layer_1" data-name="Layer 1" xmlns="http://www.w3.org/2000/svg" viewBox="0 0 640 512"><defs><style>.cls-1{fill:#333;}</style></defs><title>Artboard 1</title><path class="cls-1" d="M204.78,191.24,155.4,301.71A39.89,39.89,0,0,1,119,325.32H41.06a39.88,39.88,0,0,1,0-79.76H93.13L178.48,54.61c15.4-34.45,65.59-30.23,75,6.31l68.21,264.16L408,138.89c14.4-31.09,58.73-30.74,72.64.58l47.12,106.09H599.4a39.88,39.88,0,0,1,0,79.76H501.78a39.88,39.88,0,0,1-36.45-23.7l-21.95-49.43L347.19,459.87c-15.74,34-65.43,29.49-74.8-6.79Z"/></svg>