<?xml version="1.0" encoding="utf-8"?>
<!-- Generator: Adobe Illustrator 22.0.1, SVG Export Plug-In . SVG Version: 6.00 Build 0)  -->
<!DOCTYPE svg PUBLIC "-//W3C//DTD SVG 1.1//EN" "http://www.w3.org/Graphics/SVG/1.1/DTD/svg11.dtd">
<svg version="1.1" id="Layer_1" xmlns="http://www.w3.org/2000/svg" xmlns:xlink="http://www.w3.org/1999/xlink" x="0px" y="0px"
	 viewBox="0 0 640 512" style="enable-background:new 0 0 640 512;" xml:space="preserve">
<style type="text/css">
	.st0{fill:#333333;}
</style>
<title>Artboard 1</title>
<g id="Page-1">
	<g id="Forum">
		<g id="Group-47" transform="translate(4.000000, 5.000000)">
			<path id="Combined-Shape" class="st0" d="M88.6-5h454.8c31,0,56.5,25.5,56.5,57v295.8c0,31.3-25.5,57-56.9,57H434.1
				c-7.7,0-18.6,4.6-24.1,10.4L326,502.7c-5.5,5.7-14.4,5.7-20,0l-84.1-87.5c-5.5-5.7-16.3-10.4-24.1-10.4H89
				c-31.5,0-56.9-25.5-56.9-57V52C32.1,20.6,57.4-5,88.6-5z M174,158.3h255.5c11.8,0,21.3-9.5,21.3-21.3s-9.5-21.3-21.3-21.3H174
				c-11.8,0-21.3,9.5-21.3,21.3S162.3,158.3,174,158.3z M174,271.8h142c11.8,0,21.3-9.5,21.3-21.3c0-11.8-9.5-21.3-21.3-21.3H174
				c-11.8,0-21.3,9.5-21.3,21.3C152.7,262.3,162.3,271.8,174,271.8z"/>
		</g>
	</g>
</g>
</svg>
