<svg width="28" height="28" xmlns="http://www.w3.org/2000/svg">
  <path d="M19 10.3113l-5.94483 5.94483c-.44481.44481-.68591.9873-.68591 1.636v2.137c0 1.32157 1.00034 2.32191 2.32191 2.32191h2.13699c.6487 0 1.1912-.2411 1.636-.68591L19 21.12929V22.5c0 .82843-.67157 1.5-1.5 1.5h-14c-.82843 0-1.5-.67157-1.5-1.5v-17C2 4.67157 2.67157 4 3.5 4h14c.82843 0 1.5.67157 1.5 1.5v4.8113zM5 8.75h11c.41421 0 .75-.33579.75-.75s-.33579-.75-.75-.75H5c-.41421 0-.75.33579-.75.75s.33579.75.75.75zm0 4h6c.41421 0 .75-.33579.75-.75s-.33579-.75-.75-.75H5c-.41421 0-.75.33579-.75.75s.33579.75.75.75zm11.82816 8.10104h-2.13699c-.49315 0-.82191-.32877-.82191-.82192v-2.13698c0-.24658.08219-.41096.24657-.57535l8.21918-8.21917c.32877-.32877.82192-.32877 1.15068 0l2.13699 2.13698c.32877.32877.32877.82192 0 1.15069l-8.21918 8.21918c-.16438.16438-.32877.24657-.57534.24657z" fill="#333" fill-rule="evenodd"/>
</svg>
