<?xml version="1.0" encoding="utf-8"?>
<!-- Generator: Adobe Illustrator 22.0.1, SVG Export Plug-In . SVG Version: 6.00 Build 0)  -->
<!DOCTYPE svg PUBLIC "-//W3C//DTD SVG 1.1//EN" "http://www.w3.org/Graphics/SVG/1.1/DTD/svg11.dtd">
<svg version="1.1" id="Layer_1" xmlns="http://www.w3.org/2000/svg" xmlns:xlink="http://www.w3.org/1999/xlink" x="0px" y="0px"
	 viewBox="0 0 640 512" style="enable-background:new 0 0 640 512;" xml:space="preserve">
<style type="text/css">
	.st0{fill:#333333;}
</style>
<path class="st0" d="M140.4,0h358.5c21.2,0,38.4,17.2,38.4,38.4v435.3c0,21.2-17.2,38.4-38.4,38.4H140.4
	c-21.2,0-38.4-17.2-38.4-38.4V38.4C102,17.2,119.2,0,140.4,0z M178.8,121.6h281.7c10.6,0,19.2-8.6,19.2-19.2s-8.6-19.2-19.2-19.2
	H178.8c-10.6,0-19.2,8.6-19.2,19.2C159.6,113,168.2,121.6,178.8,121.6z M178.8,224.1h153.6c10.6,0,19.2-8.6,19.2-19.2
	s-8.6-19.2-19.2-19.2H178.8c-10.6,0-19.2,8.6-19.2,19.2S168.2,224.1,178.8,224.1z"/>
</svg>
