<?xml version="1.0" encoding="utf-8"?>
<!-- Generator: Adobe Illustrator 22.0.1, SVG Export Plug-In . SVG Version: 6.00 Build 0)  -->
<!DOCTYPE svg PUBLIC "-//W3C//DTD SVG 1.1//EN" "http://www.w3.org/Graphics/SVG/1.1/DTD/svg11.dtd">
<svg version="1.1" id="Layer_1" xmlns="http://www.w3.org/2000/svg" xmlns:xlink="http://www.w3.org/1999/xlink" x="0px" y="0px"
	 viewBox="0 0 640 512" style="enable-background:new 0 0 640 512;" xml:space="preserve">
<style type="text/css">
	.st0{fill:#333333;}
</style>
<path class="st0" d="M441.7,161.9l-152,152c-11.4,11.4-17.5,25.2-17.5,41.8v54.6c0,33.8,25.6,59.4,59.4,59.4h54.6
	c16.6,0,30.5-6.2,41.8-17.5l13.7-13.7v35.1c0,21.2-17.2,38.4-38.4,38.4h-358C24.2,512,7,494.8,7,473.6V38.9
	C7,17.7,24.2,0.5,45.4,0.5h358c21.2,0,38.4,17.2,38.4,38.4L441.7,161.9L441.7,161.9z M83.7,122H365c10.6,0,19.2-8.6,19.2-19.2
	s-8.6-19.2-19.2-19.2H83.7c-10.6,0-19.2,8.6-19.2,19.2S73.1,122,83.7,122z M83.7,224.3h153.4c10.6,0,19.2-8.6,19.2-19.2
	s-8.6-19.2-19.2-19.2H83.7c-10.6,0-19.2,8.6-19.2,19.2S73.1,224.3,83.7,224.3z M386.2,431.5h-54.6c-12.6,0-21-8.4-21-21v-54.6
	c0-6.3,2.1-10.5,6.3-14.7L527,130.9c8.4-8.4,21-8.4,29.4,0l54.6,54.6c8.4,8.4,8.4,21,0,29.4L400.9,425.2
	C396.7,429.4,392.5,431.5,386.2,431.5z"/>
</svg>
