<?xml version="1.0" standalone="no"?>
<!DOCTYPE svg PUBLIC "-//W3C//DTD SVG 1.1//EN" "http://www.w3.org/Graphics/SVG/1.1/DTD/svg11.dtd">
<svg xmlns="http://www.w3.org/2000/svg">
<metadata>Copyright (C) 2019 by original authors @ fontello.com</metadata>
<defs>
<font id="bb-icons" horiz-adv-x="1000" >
<font-face font-family="bb-icons" font-weight="400" font-stretch="normal" units-per-em="1000" ascent="850" descent="-150" />
<missing-glyph horiz-adv-x="1000" />
<glyph glyph-name="alert-question" unicode="&#xe800;" d="M500-67c-230 0-417 187-417 417 0 230 187 417 417 417 230 0 417-187 417-417 0-230-187-417-417-417z m0 84c184 0 333 149 333 333 0 184-149 333-333 333-184 0-333-149-333-333 0-184 149-333 333-333z m-124 422l0 0c-6 0-11 5-11 11 0 69 55 108 138 108 82 0 136-45 136-110 0-43-21-73-61-97-38-21-49-35-49-63l0-15-75 0-1 16c-4 45 12 70 51 94 37 21 48 35 48 63 0 27-21 46-54 46-29 0-55-15-55-43 0-5-4-10-9-10l0 0-58 0z m116-303c-25 0-46 20-46 45 0 25 21 45 46 45 26 0 47-20 47-45 0-25-21-45-47-45z" horiz-adv-x="1000" />

<glyph glyph-name="ball-soccer" unicode="&#xe801;" d="M800 317l-108 74c-12 8-17 22-13 36l43 128c-27 29-59 53-95 69l-108-81c-11-8-27-8-38 0l-108 81c-36-16-68-40-95-69l43-128c4-14-1-28-12-36l-109-74c4-41 17-80 36-114l134 0c13 0 25-9 30-22l40-127c19-4 39-6 60-6 21 0 41 2 60 6l41 127c4 13 16 22 29 22l134 0c19 34 32 73 36 114z m-1 76c-5 35-16 68-32 99l-21-63 53-36z m65-69c-4-60-23-116-53-165-2-3-4-6-6-9-65-99-177-165-305-165-128 0-240 66-305 165-2 3-4 6-6 9-30 49-48 105-53 165-1 4-1 8 0 12 0 5-1 9-1 14 0 86 30 166 81 228 1 3 3 5 6 8 67 79 166 129 278 129 112 0 212-50 278-129 3-3 5-5 6-8 51-62 81-142 81-228 0-5 0-9-1-14 1-4 1-8 0-12z m-147-184l-64 0-19-61c31 16 59 36 83 61z m-434 0c24-25 52-45 83-61l-19 61-64 0z m-82 253l53 36-21 63c-16-31-27-64-32-99z m353 254c-18 4-36 5-54 5-18 0-36-1-53-5l53-40 54 40z m7-419l-122 0c-11 0-22 7-28 17l-60 121c-7 14-3 30 9 39l121 91c11 9 27 9 38 0l121-91c12-9 16-25 9-39l-60-121c-6-10-17-17-28-17z m21 143l-82 61-82-61 41-81 82 0 41 81z" horiz-adv-x="1000" />

<glyph glyph-name="bell-small" unicode="&#xe802;" d="M640 36c-18-60-73-103-140-103-67 0-122 43-140 103l-172 0c-34 0-54 37-35 65 2 2 5 7 9 15 7 13 15 28 22 45 20 49 31 101 31 155l0 170c0 157 127 281 285 281 158 0 285-124 285-281l0-170c0-54 12-106 31-155 7-17 15-32 22-45 4-8 8-13 9-15 19-28-1-65-34-65l-173 0z m-186 0c11-12 27-19 46-19 19 0 35 7 47 19l-93 0z m285 94c-23 58-37 120-37 186l0 170c0 110-89 197-202 197-112 0-201-87-201-197l0-170c0-66-14-128-38-186-2-4-3-8-5-11l488 0c-2 3-3 7-5 11z" horiz-adv-x="1000" />

<glyph glyph-name="bulb" unicode="&#xe803;" d="M510 330l0-178 58 0 0 15c0 11 7 22 18 28 81 40 133 123 133 216 0 133-108 241-240 241-132 0-239-108-239-241 0-93 52-176 133-216 10-6 17-17 17-28l0-15 58 0 0 178-89 89c-12 12-12 32 0 44 12 13 32 13 44 0l77-76 75 76c12 12 32 12 44 0 12-12 12-32 0-44l-89-89z m58-240l-178 0 0-42 178 0 0 42z m-391 321c0 168 135 304 302 304 167 0 302-136 302-304 0-110-58-209-150-263l0-131c0-18-14-32-31-32l-241 0c-17 0-31 14-31 32l0 131c-92 54-151 153-151 263z" horiz-adv-x="958" />

<glyph glyph-name="calendar" unicode="&#xe804;" d="M604 608l-208 0 0-14c0-23-19-42-42-42-23 0-41 19-41 42l0 14-63 0c-23 0-42-18-42-41l0-113 584 0 0 113c0 23-19 41-42 41l-62 0 0-14c0-23-19-42-42-42-23 0-42 19-42 42l0 14z m84 84l62 0c69 0 125-56 125-125l0-500c0-69-56-125-125-125l-500 0c-69 0-125 56-125 125l0 500c0 69 56 125 125 125l63 0 0 33c0 23 18 42 41 42 23 0 42-19 42-42l0-33 208 0 0 33c0 23 19 42 42 42 23 0 42-19 42-42l0-33z m104-321l-584 0 0-304c0-23 19-42 42-42l500 0c23 0 42 19 42 42l0 304z" horiz-adv-x="1000" />

<glyph glyph-name="camera-small" unicode="&#xe805;" d="M727 595c8 0 17 0 26 1h28c64 0 115-46 115-109v-356c0-64-51-114-115-114h-563c-64 0-114 50-114 114v355c0 64 50 110 113 110h89c8 15 18 32 29 52 13 22 36 35 62 35h203c25 0 48-13 61-35 13-22 22-39 31-53h35z m-78-43c-11 15-24 37-41 66a10 10 0 0 1-8 4h-203a12 12 0 0 1-9-4c-16-28-28-50-38-67l-9-15h-124c-31 0-52-20-52-50v-355c0-31 23-53 52-53h564c30 0 54 23 54 53v356c0 28-22 49-53 49-6 0-16-1-28-1h-26c-15-1-28-1-38-1-6 1-11 1-13 1s-5 1-8 1c-2 1-2 1-7 2-7 3-8 3-13 14z m-149-394c-95 0-173 77-173 172s78 171 173 171 173-76 173-171c0-95-77-172-173-172z m0 61c61 0 112 50 112 111s-50 111-112 111-112-50-112-111c0-61 51-111 112-111z" horiz-adv-x="1000" />

<glyph glyph-name="car-small" unicode="&#xe806;" d="M561 191l-143 0c-6-58-52-103-109-103-55 0-100 43-108 98l-34 0c-19 0-34 15-34 33l0 164c0 6 2 12 5 17l122 197c6 10 16 16 28 16l303 0c12 0 23-7 29-18l81-146 132 0c19 0 34-15 34-33l0-197c0-18-15-33-34-33l-56 0c-8-55-53-98-108-98-57 0-103 45-108 103z m12 66c18 36 54 61 96 61 44 0 81-27 99-66l32 0 0 130-118 0c-12 0-23 7-29 17l-82 147-264 0-107-173 0-121 11 0c17 39 54 66 98 66 42 0 78-25 96-61l168 0z m-306-54c0-28 19-49 42-49 23 0 43 21 43 49 0 27-20 48-43 48-23 0-42-21-42-48z m360 0c0-28 19-49 42-49 23 0 43 21 43 49 0 27-20 48-43 48-23 0-42-21-42-48z m-124 278l0-32 58 0c18 0 33-15 33-33 0-19-15-34-33-34l-91 0c-19 0-34 15-34 34l0 65c0 18 15 33 34 33 18 0 33-15 33-33z" horiz-adv-x="1000" />

<glyph glyph-name="bar-chart-square" unicode="&#xe807;" d="M750 27l-500 0c-63 0-115 51-115 115l0 416c0 64 52 115 115 115l500 0c63 0 115-51 115-115l0-416c0-64-52-115-115-115z m0 63c29 0 52 23 52 52l0 416c0 29-23 52-52 52l-500 0c-29 0-52-23-52-52l0-416c0-29 23-52 52-52l500 0z m-417 334c0 17 14 31 32 31 17 0 31-14 31-31l0-250c0-17-14-31-31-31-18 0-32 14-32 31l0 250z m261-116c0 18 14 32 31 32 17 0 31-14 31-32l0-125c0-17-14-31-31-31-17 0-31 14-31 31l0 125z m-125 209c0 17 14 31 31 31 17 0 31-14 31-31l0-334c0-17-14-31-31-31-17 0-31 14-31 31l0 334z" horiz-adv-x="1000" />

<glyph glyph-name="check-square-small" unicode="&#xe808;" d="M375 600l250 0c69 0 125-56 125-125l0-250c0-69-56-125-125-125l-250 0c-69 0-125 56-125 125l0 250 0 0c0 69 56 125 125 125l0 0z m21-223c-13 11-33 10-44-3-12-13-11-32 2-44l97-87c13-11 32-10 44 3l153 166c12 13 11 33-2 44-13 12-32 11-44-1l-132-144-74 66z" horiz-adv-x="1000" />

<glyph glyph-name="check-small" unicode="&#xe809;" d="M376 373c-13 12-33 11-45-2-11-12-11-32 2-44l111-104c13-12 33-11 45 2l180 209c12 13 10 33-3 44-13 11-32 10-44-3l-159-184-87 82z" horiz-adv-x="1000" />

<glyph glyph-name="close-circle" unicode="&#xe80a;" d="M500 725c206 0 375-169 375-375 0-206-169-375-375-375-206 0-375 169-375 375 0 206 169 375 375 375z m147-478l-103 103 103 103c12 13 12 31 0 44-13 12-31 12-44 0l-103-103-103 103c-13 12-31 12-44 0-12-13-12-31 0-44l103-103-103-103c-12-13-12-31 0-44 6-6 13-9 22-9 9 0 16 3 22 9l103 103 103-103c6-6 13-9 22-9 9 0 16 3 22 9 12 13 12 31 0 44z" horiz-adv-x="1000" />

<glyph glyph-name="comment" unicode="&#xe80b;" d="M241 153c-53 0-95 43-95 95l0 330c0 52 42 95 95 95l518 0c53 0 95-43 95-95l0-330c0-52-42-95-95-95l-128 0-86-104c-3-3-5-6-8-8-25-21-61-17-82 8l-86 104-128 0z m-53 425l0-330c0-29 23-53 53-53l138 0c6 0 12-3 16-8l93-112c5-7 15-8 22-2 1 1 2 1 3 2l92 112c4 5 10 8 16 8l138 0c30 0 54 24 54 53l0 330c0 29-24 53-54 53l-518 0c-30 0-53-24-53-53z m164-113c-12 0-21 9-21 20 0 12 9 21 21 21l296 0c12 0 21-9 21-21 0-11-9-20-21-20l-296 0z m0-125c-12 0-21 9-21 20 0 12 9 21 21 21l185 0c12 0 21-9 21-21 0-11-9-20-21-20l-185 0z" horiz-adv-x="1000" />

<glyph glyph-name="edit-square-small" unicode="&#xe80c;" d="M432 670c17 0 31-14 31-31 0-17-14-31-31-31l-244 0c-6 0-11-5-11-11l0-559c0-6 5-11 11-11l559 0c6 0 10 5 10 11l0 244c0 17 14 31 32 31 17 0 31-14 31-31l0-244c0-41-33-73-73-73l-559 0c-41 0-73 32-73 73l0 559c0 41 32 73 73 73l244 0z m-103-460l0 143c0 8 3 16 9 22l322 322c51 51 135 51 187 0 51-52 51-136 0-187l-322-322c-6-6-14-9-22-9l-143 0c-17 0-31 14-31 31z m161 32l312 312c28 27 28 71 0 99-27 27-71 27-98 0l-313-313 0-98 99 0z" horiz-adv-x="1000" />

<glyph glyph-name="heart-small" unicode="&#xe80d;" d="M652 694c117 0 213-94 213-210 0-49-21-103-57-162-30-48-70-98-118-150-38-39-77-78-117-113-14-13-27-24-39-33-7-6-12-11-14-13-12-9-28-9-40 0-2 2-7 7-14 13-12 9-25 20-39 33-40 35-79 74-116 113-49 52-89 102-119 150-36 59-57 113-57 162 0 116 96 210 214 210 58 0 111-24 151-63 40 39 94 63 152 63z m-121-588c39 34 77 71 113 109 45 49 83 96 111 140 31 50 47 94 47 129 0 81-68 147-150 147-51 0-97-25-126-67-13-18-39-18-52 0-29 42-75 67-125 67-83 0-151-66-151-147 0-35 16-79 47-129 28-44 66-91 111-140 36-38 74-75 113-109 11-10 21-20 31-28 10 8 20 18 31 28z" horiz-adv-x="1000" />

<glyph glyph-name="flag-small" unicode="&#xe80e;" d="M352 634c56 22 103 17 175-4 66-21 95-25 143-15 19 4 38-10 38-30l0-275c0-15-11-27-25-30-61-13-98-7-174 16-68 21-102 22-155-5l0-217c0-17-14-31-31-31-17 0-31 14-31 31l0 549c0 17 14 31 31 31 13 0 25-8 29-20z m175-278c54-17 83-23 118-19l0 211c-42-4-78 4-137 22-68 21-102 22-153-4l0-206c55 22 101 17 172-4z" horiz-adv-x="1000" />

<glyph glyph-name="forest" unicode="&#xe80f;" d="M531 85l0-68c0-18-14-32-31-32-17 0-31 14-31 32l0 68-202 0c-23 0-38 24-29 44l83 190-154 0c-24 0-39 24-28 45l166 333c12 23 45 23 56 0l67-133 43 99c11 25 47 25 58 0l41-96 65 130c12 23 45 23 56 0l167-333c10-21-5-45-28-45l-151 0 83-190c9-20-6-44-29-44l-202 0z m-183 296l48 108-63 124-116-232 131 0z m255 112l49-112 127 0-116 232-60-120z m-103 79l-186-424 372 0-186 424z" horiz-adv-x="1000" />

<glyph glyph-name="gear" unicode="&#xe810;" d="M821 449c47 0 85-37 85-84l0-30c0-46-38-84-85-84l-34 0c-4-12-8-23-14-34l25-24c33-33 33-87 0-120l-21-21c-33-33-87-33-120 0l-24 25c-11-5-22-10-34-14l0-34c0-47-37-85-84-85l-30 0c-46 0-84 38-84 85l0 34c-12 4-23 9-34 14l-24-25c-33-33-87-33-120 0l-21 21c-33 33-33 87 0 120l25 24c-5 11-10 22-14 34l-34 0c-47 0-85 38-85 84l0 30c0 47 38 84 85 84l34 0c4 12 9 23 14 34l-25 24c-33 33-33 87 0 120l21 21c33 33 87 33 120 0l24-25c11 6 22 10 34 14l0 34c0 47 38 85 84 85l30 0c47 0 84-38 84-85l0-34c12-4 23-8 34-14l24 25c33 33 87 33 120 0l21-21c33-33 33-87 0-120l-25-24c6-11 10-22 14-34l34 0z m0-62l-57 0c-14 0-27 10-30 23-6 22-15 43-26 63-7 12-5 27 5 37l40 41c9 9 9 23 0 32l-20 20c-9 9-23 9-32 0l-41-40c-10-10-25-12-37-5-20 11-41 20-63 26-13 3-23 16-23 30l0 57c0 13-10 23-22 23l-30 0c-12 0-22-10-22-23l0-57c0-14-10-27-23-30-22-6-43-15-62-26-13-7-28-5-38 5l-41 40c-9 9-23 9-32 0l-20-20c-9-9-9-23 0-32l40-41c10-10 12-25 5-37-11-20-20-41-25-63-4-13-16-23-31-23l-57 0c-13 0-23-10-23-22l0-30c0-12 10-22 23-22l57 0c15 0 27-10 31-23 5-22 14-43 25-62 7-13 5-28-5-38l-40-41c-9-9-9-23 0-32l20-20c9-9 23-9 32 0l41 40c10 10 25 12 38 5 19-11 40-20 62-25 13-4 23-16 23-31l0-57c0-13 10-23 22-23l30 0c12 0 22 10 22 23l0 57c0 15 10 27 23 31 22 5 43 14 63 25 12 7 27 5 37-5l41-40c9-9 23-9 32 0l20 20c9 9 9 23 0 32l-40 41c-10 10-12 25-5 38 11 19 20 40 26 62 3 13 16 23 30 23l57 0c13 0 23 10 23 22l0 30c0 12-10 22-23 22z m-321 97c74 0 134-60 134-134 0-74-60-133-134-133-74 0-133 59-133 133 0 74 59 134 133 134z m0-63c-39 0-71-32-71-71 0-39 32-71 71-71 39 0 71 32 71 71 0 39-32 71-71 71z" horiz-adv-x="1000" />

<glyph glyph-name="gif" unicode="&#xe811;" d="M788 17h-576c-71 0-129 58-129 132v444c0 73 58 132 129 132h576c71 0 129-59 129-132v-444c0-74-58-132-129-132z m0 65c36 0 65 30 65 67v444c0 37-29 67-65 67h-576c-36 0-65-30-65-67v-444c0-37 29-67 65-67h576z m-329 255c0-75-46-122-121-122-80 0-129 56-129 147 0 90 49 147 128 147 65 0 112-38 119-96h-57c-8 28-30 44-62 44-44 0-71-36-71-94 0-60 29-96 73-96 38 0 64 22 65 56v5h-59v43h114v-34z m104-114h-57v278h57v-278z m116 0h-57v278h178v-49h-121v-73h110v-48h-110v-108z" horiz-adv-x="1000" />

<glyph glyph-name="home-small" unicode="&#xe812;" d="M146 428c0 11 5 22 13 30l285 266c32 29 80 29 112 0l285-266c8-8 13-19 13-30l0-432c0-23-18-42-41-42l-209 0c-23 0-41 19-41 42l0 154c0 33-27 59-59 59l-8 0c-32 0-58-26-58-59l0-154c0-23-19-42-42-42l-208 0c-23 0-42 19-42 42l0 432z m83-390l125 0 0 112c0 79 64 142 142 142l8 0c78 0 142-63 142-142l0-112 125 0 0 372-271 252-271-252 0-372z" horiz-adv-x="1000" />

<glyph glyph-name="inbox-small" unicode="&#xe813;" d="M143 388l0 6 3 0 146 286c14 27 43 45 74 45l268 0c32 0 60-18 75-45l145-286 3 0 0-6 9-17c6-12 9-25 9-38l0-275c0-46-37-83-83-83l-584 0c-46 0-83 37-83 83l0 275c0 13 3 26 9 38l9 17z m65-77l0-253 584 0 0 253-123 0-36-72c-11-22-33-36-58-36l-150 0c-24 0-47 14-58 36l-36 72-123 0z m32 83l103 0c24 0 47-14 58-36l36-72 126 0 36 72c11 22 34 36 58 36l103 0-126 248-268 0-126-248z" horiz-adv-x="1000" />

<glyph glyph-name="laugh" unicode="&#xe814;" d="M865 350c0-201-164-365-365-365-201 0-365 164-365 365 0 201 164 365 365 365 201 0 365-164 365-365z m-63 0c0 167-135 302-302 302-167 0-302-135-302-302 0-167 135-302 302-302 167 0 302 135 302 302z m-302-213c-84 0-152 68-152 152 0 18 14 32 31 32l242 0c18 0 32-14 32-32 0-84-69-152-153-152z m0 62c39 0 72 25 84 59l-168 0c12-34 45-59 84-59z m-60 242c0-34-27-62-61-62-34 0-62 28-62 62 0 34 28 62 62 62 34 0 61-28 61-62z m-62 0c0-1 0-1 1-1 0 0 1 0 1 1 0 0-1 1-1 1-1 0-1-1-1-1z m305 0c0-34-28-62-62-62-34 0-61 28-61 62 0 34 27 62 61 62 34 0 62-28 62-62z m-63 0c0-1 1-1 1-1 1 0 1 0 1 1 0 0 0 1-1 1 0 0-1-1-1-1z" horiz-adv-x="1000" />

<glyph glyph-name="like" unicode="&#xe815;" d="M321 51l0-34c0-11-9-21-21-21l-133 0c-12 0-21 10-21 21l0 367c0 11 9 21 21 21l133 0c12 0 21-10 21-21l0-9 125 150 0 126c0 41 42 65 81 48 54-33 94-114 94-182l0-79 146 0c48 0 87-39 87-90l-33-264c0-48-39-88-88-88l-233 0c-48 0-94 12-132 33l-47 22z m0 46l66-31c33-18 72-28 113-28l233 0c26 0 46 21 46 49l34 264c0 25-21 45-46 45l-167 0c-11 0-21 10-21 21l0 100c0 54-33 121-70 144-12 5-21 0-21-10l0-134c0-5-2-9-5-13l-162-194 0-213z m-133-59l91 0 0 325-91 0 0-325z" horiz-adv-x="1000" />

<glyph glyph-name="link-2" unicode="&#xe816;" d="M475 544c-11-11-30-11-41 0-12 11-12 30 0 42l83 83c75 75 200 75 275 0 75-75 75-200 0-275l-83-83c-12-12-31-12-42 0-11 11-11 30 0 41l83 84c52 51 52 139 0 191-52 52-140 52-191 0l-84-83z m23-361c11 12 30 12 41 0 12-11 12-30 0-41l-83-84c-75-75-200-75-275 0-75 75-75 200 0 275l83 83c12 12 31 12 42 0 12-11 12-30 0-41l-83-83c-52-52-52-140 0-192 52-52 140-52 191 0l84 83z m-89 59c-12-12-31-12-42 0-11 11-11 30 0 41l200 200c11 12 30 12 42 0 11-11 11-30 0-41l-200-200z" horiz-adv-x="1000" />

<glyph glyph-name="map-pin-small" unicode="&#xe817;" d="M781 429c0-47-18-101-51-161-21-39-48-80-80-122-28-38-58-74-88-108-10-11-20-22-28-31-6-6-9-10-12-12-12-13-32-13-44 0-2 2-6 6-12 12-8 9-18 20-28 31-30 34-60 70-88 108-31 42-58 83-80 122-33 60-51 114-51 161 0 167 130 286 281 286 151 0 281-119 281-286z m-265-349c28 32 57 67 84 103 30 40 55 78 75 115 29 52 44 97 44 131 0 131-101 223-219 223-118 0-219-92-219-223 0-34 16-79 44-131 20-37 45-75 75-115 27-36 56-71 84-103 6-6 11-12 16-18 5 6 10 12 16 18z m-141 349c0 70 56 127 125 127 69 0 125-57 125-127 0-69-56-126-125-126-69 0-125 57-125 126z m63 0c0-35 28-64 62-64 34 0 63 29 63 64 0 36-29 64-63 64-34 0-62-28-62-64z" horiz-adv-x="1000" />

<glyph glyph-name="lock-small" unicode="&#xe818;" d="M525 164l0-43c0-14-11-25-25-25-14 0-25 11-25 25l0 43c-36 11-62 45-62 85 0 50 39 90 87 90 49 0 88-40 88-90 0-40-27-74-63-85z m156 303l69 0c14 0 25-11 25-25l0-450c0-14-11-25-25-25l-500 0c-14 0-25 11-25 25l0 450c0 14 11 25 25 25l69 0 0 72c0 104 80 186 181 186 102 0 181-82 181-186l0-72z m-50 72c0 77-57 136-131 136-73 0-131-59-131-136l0-72 262 0 0 72z m-356-522l450 0 0 400-450 0 0-400z m225 272c-21 0-37-18-37-40 0-22 16-39 37-39 21 0 38 17 38 39 0 22-17 40-38 40z" horiz-adv-x="1000" />

<glyph glyph-name="globe" unicode="&#xe819;" d="M500-7c-89 0-171 33-233 87 0 1 0 1 0 2 59 99 22 159-5 186-7 7-15 14-24 21-22 17-37 28-37 61 0 16 9 22 51 36 30 10 63 22 84 49 50 65-4 164-16 183-6 10-12 20-19 28 54 37 118 58 187 61 11-19 29-35 47-51 16-13 40-19 53-34 7-9 4-27 4-38 0-23 14-55 60-55 2 0 4 0 6 0 18 1 74 14 129 32 44-59 70-132 70-211 0-197-160-357-357-357m0 786c-236 0-429-193-429-429 0-236 193-429 429-429 236 0 429 193 429 429 0 236-193 429-429 429m126-318c-57 0-114-27-143-67-20-27-26-58-17-87 19-59 21-93 9-132-10-34-11-84 47-108 11-4 23-7 36-7 43 0 95 27 141 74 55 56 88 125 87 184-1 80-71 143-160 143" horiz-adv-x="1000" />

<glyph glyph-name="menu-dots-h" unicode="&#xe81a;" d="M500 433c46 0 83-37 83-83 0-46-37-83-83-83-46 0-83 37-83 83 0 46 37 83 83 83z m-208-83c0-46-38-83-84-83-46 0-83 37-83 83 0 46 37 83 83 83 46 0 84-37 84-83z m500 83c46 0 83-37 83-83 0-46-37-83-83-83-46 0-84 37-84 83 0 46 38 83 84 83z" horiz-adv-x="1000" />

<glyph glyph-name="menu-dots-v" unicode="&#xe81b;" d="M500 433c46 0 83-37 83-83 0-46-37-83-83-83-46 0-83 37-83 83 0 46 37 83 83 83z m83 188c0-46-37-83-83-83-46 0-83 37-83 83 0 46 37 83 83 83 46 0 83-37 83-83z m-83-458c46 0 83-38 83-84 0-46-37-83-83-83-46 0-83 37-83 83 0 46 37 84 83 84z" horiz-adv-x="1000" />

<glyph glyph-name="menu-left" unicode="&#xe81c;" d="M125 600c0 23 19 42 42 42l458 0c23 0 42-19 42-42 0-23-19-42-42-42l-458 0c-23 0-42 19-42 42z m0-250c0 23 19 42 41 42l668 0c23 0 41-19 41-42 0-23-18-42-41-42l-668 0c-22 0-41 19-41 42z m0-250c0 23 19 42 42 42l291 0c23 0 42-19 42-42 0-23-19-42-42-42l-291 0c-23 0-42 19-42 42z" horiz-adv-x="1000" />

<glyph glyph-name="pizza-slice" unicode="&#xe81d;" d="M740 546l29 55c-85 34-176 51-269 51-93 0-184-17-269-51l24-47c76 24 145 36 224 36 91 0 179-15 261-44 0 0 0 0 0 0z m-29-56c-73 24-151 37-232 37-69 0-128-9-194-29l215-414 211 406z m-211 225c114 0 224-24 325-70 17-7 24-27 15-43l-312-600c-12-22-44-22-56 0l-312 600c-8 16-2 36 15 43 101 46 211 70 325 70z m-43-426l42 41c12 13 32 13 44 0 12-12 12-32 0-44l-42-41c-12-13-32-13-44 0-12 12-12 32 0 44z m3 208l41-42c13-12 13-32 0-44-12-12-32-12-44 0l-42 42c-12 12-12 32 0 44 13 12 32 12 45 0z" horiz-adv-x="1000" />

<glyph glyph-name="play-square" unicode="&#xe81e;" d="M771 6l-542 0c-63 0-114 52-114 115l0 458c0 63 51 115 114 115l542 0c63 0 114-52 114-115l0-458c0-63-51-115-114-115z m0 63c29 0 52 23 52 52l0 458c0 29-23 52-52 52l-542 0c-29 0-52-23-52-52l0-458c0-29 23-52 52-52l542 0z m-339 421l171-114c18-12 18-40 0-52l-171-114c-21-13-48 1-48 26l0 228c0 25 27 40 48 26z m14-195l83 55-83 55 0-110z" horiz-adv-x="1000" />

<glyph glyph-name="search" unicode="&#xe81f;" d="M672 119c-62-49-140-78-226-78-200 0-363 162-363 363 0 200 163 363 363 363 201 0 364-163 364-363 0-86-30-164-79-226l174-173c16-17 16-43 0-60-17-16-43-16-59 0l-174 174z m-226 564c-154 0-279-125-279-279 0-155 125-280 279-280 155 0 280 125 280 280 0 154-125 279-280 279z" horiz-adv-x="1000" />

<glyph glyph-name="settings-small" unicode="&#xe820;" d="M739 403c29 0 53-24 53-50 0-29-24-53-53-53l-29 0c-6-22-14-40-24-56l24-24c21-21 21-53 0-74-22-21-54-21-75 0l-24 24c-18-11-37-19-55-24l0-35c0-29-24-53-53-53-29 0-53 24-53 53l0 32c-22 6-40 13-56 24l-24-24c-21-21-53-21-74 0-21 21-21 53 0 74l24 24c-11 19-19 37-24 56l-35 0c-29 0-53 24-53 53 0 29 24 53 53 53l35 0c5 19 10 37 24 56l-24 24c-21 21-21 53 0 74 21 21 53 21 74 0l21-24c19 11 37 16 53 21l0 35c0 29 24 53 53 53 30 0 53-24 53-53l0-32c22-5 40-13 56-24l24 24c21 21 53 21 74 0 21-21 21-53 0-74l-24-24c11-19 19-37 24-56l35 0z m-239-132c45 0 80 34 80 79 0 45-35 80-80 80-45 0-79-35-79-80 0-45 34-79 79-79z" horiz-adv-x="1000" />

<glyph glyph-name="smile" unicode="&#xe821;" d="M875 392c0-207-168-375-375-375s-375 168-375 375 169 375 375 375 375-169 375-375z m-65 0a310 310 0 0 1-310 310 310 310 0 0 1-310-310 310 310 0 0 1 310-311 310 310 0 0 1 310 311z m-466-63c0 19 14 33 32 33 17 0 32-14 32-33 0-50 41-92 92-92a93 93 0 0 1 93 92c0 19 14 33 31 33 19 0 33-14 33-33 0-86-71-156-157-156a156 156 0 0 0-156 156z m94 156c0-35-27-63-62-63-35 0-64 28-64 63 0 35 29 64 64 64 35 0 62-29 62-64z m250 0c0-35-29-63-64-63-35 0-62 28-62 63 0 35 27 64 62 64 35 0 64-29 64-64z" horiz-adv-x="1000" />

<glyph glyph-name="swap" unicode="&#xe822;" d="M500 725c207 0 375-168 375-375 0-207-168-375-375-375-207 0-375 168-375 375 0 207 168 375 375 375z m171-256l-341 0c-19 0-34-15-34-34 0-19 15-34 34-34l341 0c18 0 34 15 34 34 0 19-16 34-34 34z m0-170l-341 0c-19 0-34-15-34-34 0-19 15-34 34-34l341 0c18 0 34 15 34 34 0 19-16 34-34 34z" horiz-adv-x="1000" />

<glyph glyph-name="clock-small" unicode="&#xe823;" d="M500 715c201 0 365-164 365-365 0-201-164-365-365-365-201 0-365 164-365 365 0 201 164 365 365 365z m0-63c-167 0-302-135-302-302 0-167 135-302 302-302 167 0 302 135 302 302 0 167-135 302-302 302z m31-135l0-151 151 0c17 0 31-14 31-31 0-17-14-31-31-31l-182 0c-17 0-31 14-31 31l0 182c0 17 14 31 31 31 17 0 31-14 31-31z" horiz-adv-x="1000" />

<glyph glyph-name="user-circle" unicode="&#xe824;" d="M603 258l93-49c36-19 61-53 66-91 55 62 88 143 88 232 0 193-157 350-350 350-193 0-350-157-350-350 0-89 33-170 88-232 5 38 30 72 66 91l94 49c-36 30-59 74-59 125l0 68c0 89 72 161 161 161 89 0 161-72 161-161l0-68c0-51-23-95-58-125z m-52-28c-16-6-33-9-51-9-18 0-35 3-51 9-2-2-3-3-6-4l-116-61c-25-14-41-38-41-64l0-24c0-1 0-3 0-4 59-46 133-73 214-73 81 0 155 27 214 73 0 1 0 3 0 4l0 24c0 26-16 50-41 64l-116 61c-2 1-4 2-6 4z m-451 120c0 221 179 400 400 400 221 0 400-179 400-400 0-221-179-400-400-400-221 0-400 179-400 400z m400-79c62 0 111 50 111 112l0 68c0 61-49 111-111 111-61 0-111-50-111-111l0-68c0-62 50-112 111-112z" horiz-adv-x="1000" />

<glyph glyph-name="user" unicode="&#xe825;" d="M380 333c-66 41-109 115-109 199 0 129 102 235 229 235 127 0 229-106 229-235 0-84-43-158-108-199 130-49 225-173 233-323l0-3c0-55-44-98-98-98l-512 0c-55 0-99 44-98 98l0 4c8 149 103 273 234 322z m120 48c80 0 146 67 146 151 0 84-66 151-146 151-80 0-146-67-146-151 0-84 66-151 146-151z m271-374l0 0c-9 148-127 264-271 264-144 0-263-116-271-262l0-2c0-8 7-15 15-15l512 0c8 0 15 6 15 15z" horiz-adv-x="1000" />

<glyph glyph-name="angle-down" unicode="&#xe826;" d="M387 424c-12 12-32 12-44 0-13-12-13-32 0-44l125-125c12-12 32-12 44 0l125 125c12 12 12 32 0 44-12 12-32 12-44 0l-103-103-103 103z" horiz-adv-x="1000" />

<glyph glyph-name="angle-right" unicode="&#xe827;" d="M382 218c-9-10-9-26 0-36 10-9 26-9 36 0l166 167c10 10 10 26 0 35l-166 167c-10 10-26 10-36 0-9-10-9-26 0-35l149-149-149-149z" horiz-adv-x="1000" />

<glyph glyph-name="close" unicode="&#xe828;" d="M637 546l-333-333c-16-16-16-43 0-59 16-16 43-16 59 0l333 333c16 17 16 43 0 59-16 16-42 16-59 0z m59-333l-333 333c-16 16-43 16-59 0-16-16-16-42 0-59l333-333c17-16 43-16 59 0 16 16 16 43 0 59z" horiz-adv-x="1000" />

<glyph glyph-name="key" unicode="&#xe829;" d="M462 283l336 337c13 12 13 32 0 44-12 12-32 12-44 0l-336-337c-13-12-13-32 0-44 12-12 32-12 44 0z m245 111l-90 89c-12 12-32 12-44 0-12-12-12-32 0-44l111-111c12-13 32-13 44-1l114 111c13 13 13 33 0 45l-114 111c-12 12-32 12-44 0-12-13-12-32 1-45l91-88-69-67z m-382-76c-70 0-127-57-127-127 0-70 57-128 127-128 71 0 128 58 128 128 0 70-57 127-128 127z m0 63c105 0 190-85 190-190 0-105-85-190-190-190-104 0-190 85-190 190 0 105 86 190 190 190z" horiz-adv-x="1000" />

<glyph glyph-name="list-view-small" unicode="&#xe82a;" d="M208 100l584 0c17 0 31 14 31 31 0 18-14 32-31 32l-584 0c-17 0-31-14-31-32 0-17 14-31 31-31z m0 229l584 0c17 0 31 14 31 31 0 18-14 32-31 32l-584 0c-17 0-31-14-31-32 0-17 14-31 31-31z m0 240l584 0c17 0 31 14 31 31 0 17-14 31-31 31l-584 0c-17 0-31-14-31-31 0-17 14-31 31-31z" horiz-adv-x="1000" />

<glyph glyph-name="grid-view-small" unicode="&#xe82b;" d="M240 610l0-176 176 0 0 176-176 0z m-32 63l239 0c17 0 31-14 31-31l0-239c0-17-14-31-31-31l-239 0c-17 0-31 14-31 31l0 239c0 17 14 31 31 31z m376-63l0-176 176 0 0 176-176 0z m-31 63l239 0c17 0 31-14 31-31l0-239c0-17-14-31-31-31l-239 0c-17 0-31 14-31 31l0 239c0 17 14 31 31 31z m-313-407l0-176 176 0 0 176-176 0z m-32 62l239 0c17 0 31-14 31-31l0-239c0-17-14-31-31-31l-239 0c-17 0-31 14-31 31l0 239c0 17 14 31 31 31z m376-62l0-176 176 0 0 176-176 0z m-31 62l239 0c17 0 31-14 31-31l0-239c0-17-14-31-31-31l-239 0c-17 0-31 14-31 31l0 239c0 17 14 31 31 31z" horiz-adv-x="1000" />

<glyph glyph-name="sort-desc" unicode="&#xe82c;" d="M774 148l0 413c0 17-14 31-32 31-17 0-31-14-31-31l0-413c0-18 14-32 31-32 18 0 32 14 32 32z m-100 89c-11 12-31 13-44 1-12-12-13-32-1-44l91-97c12-14 33-14 45 0l91 97c12 12 11 32-1 44-13 12-33 11-44-1l-69-73-68 73z m-151 218l-273 0c-17 0-31-14-31-31 0-18 14-32 31-32l273 0c17 0 31 14 31 32 0 17-14 31-31 31z m-68-148l-205 0c-17 0-31-14-31-31 0-18 14-32 31-32l205 0c17 0 31 14 31 32 0 17-14 31-31 31z m-69-156l-136 0c-17 0-31-14-31-31 0-18 14-32 31-32l136 0c18 0 32 14 32 32 0 17-14 31-32 31z m182 460l-318 0c-17 0-31-14-31-31 0-18 14-32 31-32l318 0c18 0 32 14 32 32 0 17-14 31-32 31z" horiz-adv-x="1000" />

<glyph glyph-name="bookmark-small" unicode="&#xe82d;" d="M725 658l-450 0 0-598 213 121c7 5 17 5 24 0l213-121 0 598z m-463-663c-16-10-37 2-37 22l0 666c0 14 11 25 25 25l500 0c14 0 25-11 25-25l0-666c0-20-21-32-37-22l-238 136-238-136z" horiz-adv-x="1000" />

<glyph glyph-name="user-small-minus" unicode="&#xe82e;" d="M438 334c-99 0-178 84-178 187 0 103 79 187 178 187 98 0 177-84 177-187 0-103-79-187-177-187z m0 50c70 0 127 61 127 137 0 76-57 137-127 137-70 0-128-61-128-137 0-76 58-137 128-137z m206-378l-413 0c-41 0-73 33-72 73l0 3c8 156 130 279 279 279 148 0 270-123 278-280l0-3c0-40-32-72-72-72z m22 74c-7 130-107 231-228 231-122 0-223-102-229-231l0-1c0-13 9-23 22-23l413 0c12 0 22 10 22 22l0 2z m-20 287l167 0c13 0 25 11 25 25 0 14-12 25-25 25l-167 0c-14 0-25-11-25-25 0-14 11-25 25-25z" horiz-adv-x="1000" />

<glyph glyph-name="user-small-plus" unicode="&#xe82f;" d="M438 334c-99 0-178 84-178 187 0 103 79 187 178 187 98 0 177-84 177-187 0-103-79-187-177-187z m0 50c70 0 127 61 127 137 0 76-57 137-127 137-70 0-128-61-128-137 0-76 58-137 128-137z m206-378l-413 0c-41 0-73 33-72 73l0 3c8 156 130 279 279 279 148 0 270-123 278-280l0-3c0-40-32-72-72-72z m22 74c-7 130-107 231-228 231-122 0-223-102-229-231l0-1c0-13 9-23 22-23l413 0c12 0 22 10 22 22l0 2z m38 395l0-167c0-13 11-25 25-25 14 0 25 12 25 25l0 167c0 14-11 25-25 25-14 0-25-11-25-25z m-58-108l167 0c13 0 25 11 25 25 0 14-12 25-25 25l-167 0c-14 0-25-11-25-25 0-14 11-25 25-25z" horiz-adv-x="1000" />

<glyph glyph-name="share-small" unicode="&#xe830;" d="M406 386l206 103c11 5 15 18 10 28-5 10-18 14-28 9l-206-103c-11-5-15-17-10-28 6-10 18-14 28-9z m-18-106l206-103c10-5 23-1 28 9 5 10 1 23-10 28l-206 103c-10 5-22 1-28-9-5-10-1-23 10-28z m-100 170c-56 0-100-45-100-100 0-55 44-100 100-100 55 0 100 45 100 100 0 55-45 100-100 100z m0 42c78 0 142-64 142-142 0-78-64-142-142-142-79 0-142 64-142 142 0 78 63 142 142 142z m424 171c-55 0-100-45-100-101 0-55 45-100 100-100 56 0 101 45 101 100 0 56-45 101-101 101z m0 41c79 0 142-63 142-142 0-78-63-142-142-142-78 0-142 64-142 142 0 79 64 142 142 142z m0-466c-55 0-100-45-100-100 0-56 45-100 100-100 56 0 101 44 101 100 0 55-45 100-101 100z m0 42c79 0 142-64 142-142 0-79-63-142-142-142-78 0-142 63-142 142 0 78 64 142 142 142z" horiz-adv-x="1000" />

<glyph glyph-name="mail-open" unicode="&#xe831;" d="M1079 436l-139 91v305c0 10-8 18-18 18h-757c-10 0-18-8-18-18v-305l-139-91c-5-3-8-9-8-15v-553c0-10 8-18 18-18h1051c10 0 18 8 18 18v553c0 6-3 12-8 15z m-932-63l-57 30h57v-30z m-111 18l414-218-414-272v490z m508-199l465-306h-931l466 306z m93-19l414 218v-490l-414 272z m303 230h57l-57-30v30z m69 36h-69v45l69-45z m-105 375v-460l-301-158-50 32c-6 4-13 4-19 0l-50-32-301 158v460h721z m-757-375h-69l69 45v-45z m375-45h135c9 0 17 8 17 17 0 10-8 18-17 18h-135c-65 0-118 56-118 125v5c0 69 53 125 118 125 65 0 118-56 118-125v-13c0-15-11-27-26-27-14 0-25 12-25 27v25c0 43-33 77-73 77-41 0-74-34-74-77s33-77 74-77c18 0 35 7 48 19 10-18 29-30 50-30 33 0 60 28 60 63v13c0 89-68 161-152 161s-152-72-152-161v-5c0-89 68-160 152-160z m-6 136c-22 0-40 18-40 41 0 23 18 42 40 42s39-19 39-42c0-23-18-41-39-41z" horiz-adv-x="1087" />

<glyph glyph-name="quote" unicode="&#xe832;" d="M788 137l4 208-150 3c1 76 70 137 152 136l1 69c-123 2-226-90-228-204l-3-209 224-4z m-359 6l4 208-150 3c2 77 70 138 152 136l1 70c-123 2-226-90-228-205l-3-208 224-4z" horiz-adv-x="1000" />

<glyph glyph-name="bookmark-small-fill" unicode="&#xe833;" d="M750 17l-250 143-250-143v666h500" horiz-adv-x="1000" />

<glyph glyph-name="headphones-small" unicode="&#xe834;" d="M755 441c0 111-90 201-200 201h-110c-110 0-200-90-200-201v-128c-23-27-37-62-37-100 0-85 70-155 155-155 11 0 21 1 31 3 9 2 15 10 15 18v268c0 9-6 16-15 18-10 2-20 3-31 3-30 0-58-8-82-23v96c0 91 74 164 164 164h110c90 0 164-73 164-164v-96c-24 15-52 23-82 23-11 0-21-1-31-3-9-1-15-9-15-18v-268c0-8 6-16 15-18 10-2 20-3 31-3 85 0 155 70 155 155 0 38-14 73-37 100v128z" horiz-adv-x="1000" />

<glyph glyph-name="info" unicode="&#xe835;" d="M469 444v-386c0-17 14-31 31-31s31 14 31 31v417c0 17-14 31-31 31h-125c-17 0-31-14-31-31s14-31 31-31h94z m-124-417h311c17 0 31 14 31 31s-14 32-31 32h-311c-18 0-32-14-32-32s14-31 32-31z m155 625c-6 0-10-5-10-10s4-11 10-11 10 5 10 11-4 10-10 10z m0 63c40 0 73-33 73-73s-33-73-73-73-73 32-73 73 33 73 73 73z" horiz-adv-x="1000" />

<glyph glyph-name="link-1" unicode="&#xe836;" d="M752 602c-53 53-139 53-193 0l-61-61c-37-38-48-92-33-139l35 35c-2 26 6 54 27 75l61 61c19 18 43 28 68 28s48-10 67-28c37-37 37-98 0-135l-61-61c-21-21-49-29-75-27l-35-35c14-4 28-7 42-7 35 0 70 13 96 40l62 61c53 53 53 140 0 193m-377-349l223 222 27-27-222-223m97 38c2-26-6-54-27-75l-61-61c-37-37-98-37-135 0-37 37-37 98 0 135l61 61c19 19 43 28 68 28 2 0 5 0 7-1l35 35c-47 15-101 5-138-33l-62-61c-53-53-53-140 0-193 27-26 62-40 96-40 35 0 70 14 97 40l61 62c38 37 48 91 33 138l-35-35z" horiz-adv-x="1000" />

<glyph glyph-name="rounded-twitter" unicode="&#xe837;" d="M500 850c-275 0-500-225-500-500 0-275 225-500 500-500 275 0 500 225 500 500 0 275-225 500-500 500l0 0z m200-397l0-12c0-135-103-291-291-291-59 0-112 16-156 47l25 0c47 0 94 16 128 44-43 0-81 31-97 72 7 0 13-4 19-4 10 0 19 0 28 4-47 9-81 50-81 100l0 0c13-7 28-13 47-13-28 19-47 50-47 84 0 19 6 38 13 54 50-63 125-104 212-107-3 7-3 16-3 22 0 56 47 103 103 103 28 0 56-12 75-31 22 3 47 13 66 25-7-25-25-44-44-56 22 3 41 9 59 15-18-25-37-43-56-56l0 0z" horiz-adv-x="1000" />

<glyph glyph-name="loader" unicode="&#xe838;" d="M462 850c-6 0-11-5-11-11l0-183 0 0c0-6 5-11 11-11l69 0c1 0 1 0 1 0 7 0 12 5 12 11l0 183 0 0c0 6-5 11-12 11l-69 0c0 0 0 0-1 0z m250-47c-4 1-8-2-10-5l-91-158 0 0c-4-6-2-13 4-16l60-34c0-1 0-1 0-1 6-3 13-1 16 4l91 158c3 6 2 13-4 16l-61 35c-1 1-3 1-5 1z m-428-2c-2 0-4-1-6-2l-61-35c-5-3-7-10-4-16l91-157c0 0 0 0 0 0 3-6 10-8 16-5l61 35c5 4 7 11 4 16l-91 157c0 1 0 1 0 1-2 4-6 6-10 6z m620-163c-2 0-4 0-6-1l-157-91c0 0 0 0 0 0-6-3-8-10-5-16l35-61c4-5 11-7 16-4l157 91c1 0 1 0 1 0 6 3 7 11 4 16l-35 61c-2 4-6 6-10 5z m-810-4c-5 0-9-2-11-6l-35-61c-3-5-1-12 4-15l158-91 0 0c6-4 13-2 16 4l35 60c0 0 0 0 0 0 3 6 1 13-4 16l-158 91c-2 1-4 2-5 2z m712-235l0 0c-6 0-11-5-11-11l0-69c0-1 0-1 0-1 0-7 5-12 11-12l183 0 0 0c6 0 11 5 11 12l0 69c0 0 0 0 0 1 0 6-5 11-11 11l-183 0z m-794-5l0 0c-7 0-12-5-12-12l0-69c0 0 0 0 0-1 0-6 5-11 12-11l182 0 0 0c6 0 11 5 11 11l0 69c0 1 0 1 0 1 0 7-5 12-11 12l-182 0z m772-153c-4 0-8-2-10-6l-34-60c-1 0-1 0-1 0-3-6-1-13 4-16l158-91c6-3 13-1 16 4l35 61c3 5 1 12-4 15l-158 92 0 0c-2 1-4 1-6 1z m-566-5c-1 0-3 0-5-1l-157-91c0 0-1 0-1 0-5-3-7-10-4-16l35-61c3-5 10-7 16-4l157 91c0 0 0 0 0 0 6 3 8 10 5 16l-35 61c-3 3-7 6-11 5z m468-121c-2 0-4 0-6-1l-61-35c-5-4-7-11-4-16l91-157c0-1 0-1 0-1 3-6 11-7 16-4l61 35c5 3 7 10 4 16l-91 157c0 0 0 0 0 0-2 4-6 6-10 6z m-367-2c-4 0-8-2-10-6l-91-158c-3-6-1-13 4-16l61-35c5-3 12-1 15 4l92 158 0 0c3 6 1 13-5 16l-60 35c0 0 0 0 0 0-2 1-4 1-6 2z m149-58c-7 0-12-5-12-11l0-183 0 0c0-6 5-11 12-11l69 0c0 0 0 0 1 0 6 0 11 5 11 11l0 183 0 0c0 6-5 11-11 11l-69 0c-1 0-1 0-1 0z" horiz-adv-x="1000" />

<glyph glyph-name="mail-small" unicode="&#xe839;" d="M211 614l289-260 289 260-578 0z m621-33l-314-283c-10-10-26-10-36 0l-314 283c0-2 0-3 0-5l0-452c0-21 17-38 38-38l588 0c21 0 39 17 39 38l0 452c0 2-1 3-1 5z m-626 87l588 0c51 0 92-41 92-92l0-452c0-51-41-92-92-92l-588 0c-51 0-92 41-92 92l0 452c0 51 41 92 92 92z" horiz-adv-x="1000" />

<glyph glyph-name="rounded-google-plus" unicode="&#xe83a;" d="M500 850c-275 0-500-225-500-500 0-275 225-500 500-500 275 0 500 225 500 500 0 275-225 500-500 500l0 0z m-122-719c-122 0-219 97-219 219 0 122 97 219 219 219 60 0 110-22 147-56l-59-57c-16 16-44 35-88 35-75 0-134-63-134-138 0-75 62-137 134-137 88 0 119 62 125 93l-128 0 0 72 213 0c3-9 3-22 3-37 0-125-85-213-213-213l0 0z m466 188l-63 0 0-63-62 0 0 63-63 0 0 62 63 0 0 63 62 0 0-63 63 0 0-62 0 0z" horiz-adv-x="1000" />

<glyph glyph-name="rounded-email" unicode="&#xe83b;" d="M500-150c-276 0-500 224-500 500 0 276 224 500 500 500 276 0 500-224 500-500 0-276-224-500-500-500z m-146 680c-52 0-94-42-94-60 0-8 4-14 10-18l220-120c4-2 6-2 10-2 4 0 6 0 10 2l220 120c6 4 10 10 10 18 0 33-42 60-94 60l-292 0z m174-232c-8-6-18-8-28-8-10 0-20 2-28 8l-212 114 0-168c0-52 42-94 94-94l292 0c52 0 94 42 94 94l0 168-212-114z" horiz-adv-x="1000" />

<glyph glyph-name="rounded-youtube" unicode="&#xe83c;" d="M500 850c-275 0-500-225-500-500 0-275 225-500 500-500 275 0 500 225 500 500 0 275-225 500-500 500l0 0z m250-519c0-40-6-81-6-81 0 0-6-34-19-50-19-19-41-19-50-22-69-6-175-6-175-6 0 0-131 0-169 6-12 3-37 0-56 22-16 16-19 50-19 50 0 0-6 41-6 81l0 38c0 40 6 81 6 81 0 0 7 34 19 50 19 19 41 19 50 22 69 6 175 6 175 6 0 0 106 0 175-6 9 0 31 0 50-22 16-16 19-50 19-50 0 0 6-41 6-81l0-38z m-303-47l137 72-137 69 0-141z" horiz-adv-x="1000" />

<glyph glyph-name="rounded-github" unicode="&#xe83d;" d="M500-150c-276 0-500 224-500 500 0 276 224 500 500 500 276 0 500-224 500-500 0-276-224-500-500-500z m0 760c-144 0-260-118-260-264 0-124 84-227 197-256-1 3-2 8-2 13l0 44-32 0c-18 0-34 8-41 23-9 16-10 40-32 55-6 6-1 11 6 10 14-4 25-13 35-27 11-14 15-17 35-17 9 0 23 1 36 3 7 18 20 35 35 43-87 10-129 54-129 113 0 26 11 50 29 71-6 21-13 63 3 80 39 0 62-26 68-33 20 7 41 11 63 11 23 0 44-4 63-11 6 7 29 33 68 33 16-16 9-59 2-80 19-20 29-45 29-71 0-59-41-103-127-112 24-13 41-48 41-75l0-60c0-2-1-4-1-6 101 36 174 134 174 249 0 146-116 264-260 264z" horiz-adv-x="1000" />

<glyph glyph-name="twitter-small" unicode="&#xe83e;" d="M867 586l65 28-40-58c-19-29-42-55-71-80l0-10c0-250-189-470-458-470-87 0-173 26-249 73l-100 62 115-24c4-1 10-2 16-2 5 0 9 0 17 0 51 0 99 12 140 35-52 19-94 62-110 116l-11 35 8-2c-34 33-54 79-54 129l0 38 27-15c-16 27-25 59-25 93 0 32 8 62 24 89l15 27 19-24c70-87 168-143 277-156-1 4-1 9-1 13 0 100 79 180 175 180 43 0 85-18 117-49 30 7 56 18 80 33l49 31-18-55c-5-15-12-29-20-42 4 2 8 3 13 5z m-79-64l-89-6 77 45c10 6 18 13 26 21-13-4-27-8-42-11l-12-3-8 9c-24 28-59 44-94 44-73 0-133-61-133-138 0-8 1-15 4-32l5-26-27 1c-120 7-229 60-311 148-3-13-5-26-5-40 0-47 22-89 59-116l52-38-64 0c-16 0-32 3-46 7 11-51 52-92 103-102l109-23-109-18c-10-2-16-3-21-4-6-1-12-1-18-1 23-39 65-65 111-67l54-2-42-35c-43-36-97-60-156-68 49-19 100-29 152-29 245 0 416 200 416 428l0 29 8 6c9 8 18 16 26 25-8-2-17-3-25-4z" horiz-adv-x="1000" />

<glyph glyph-name="facebook-small" unicode="&#xe83f;" d="M429-23l102 0 0 333 110 0 38 112-148 0 0 109c0 57 28 87 92 87l53 0 0 83c-23 2-56 3-87 3-101 0-160-54-160-154l0-128-116 0 0-112 116 0 0-333z m144 291l0-333-186 0 0 333-116 0 0 196 116 0 0 86c0 124 79 196 202 196 43 0 89-3 110-6l18-2 0-161-21 0-73-1c-40 0-50-10-50-45l0-67 164 0-66-196-98 0z" horiz-adv-x="1000" />

<glyph glyph-name="plane" unicode="&#xe840;" d="M347 96l0 172 522 418c10 8 12 23 4 33-8 10-23 12-34 4l-531-425c-5-5-9-12-9-19l0-248c0-22 28-32 42-15l128 152c8 10 7 25-3 34-10 8-25 7-34-3l-85-103z m-153 319l503-378 126 629-629-251z m548-391c-5-25-28-40-52-35-7 1-13 4-18 8l-540 405c-15 11-12 34 5 41l673 269c23 9 48-2 58-25 3-8 4-17 2-25l-128-638z" horiz-adv-x="1000" />

<glyph glyph-name="star-small" unicode="&#xe841;" d="M816 445l-196 0c-10 0-19 5-23 14l-97 207-97-207c-4-9-13-14-23-14l-196 0 147-153c6-7 8-16 6-24l-61-242 212 122c7 5 17 5 25 0l212-122-62 242c-2 8 1 17 7 24l146 153z m-180 50l190 0c26 0 46-21 46-46 0-12-5-23-13-32l-144-150 60-238c7-25-8-50-33-56-11-3-23-1-34 5l-208 120-208-120c-22-13-50-5-63 17-6 10-7 22-4 34l60 238-144 150c-18 18-17 47 1 65 9 8 20 13 32 13l190 0 95 200c10 23 38 33 61 22 9-4 17-12 22-22l94-200z" horiz-adv-x="1000" />

<glyph glyph-name="star-small-fill" unicode="&#xe842;" d="M620 470l206 0 0 0c12 0 21-10 21-21 0-5-2-11-6-15l-153-160 63-251 0 0c3-11-4-23-15-26-5-1-11 0-15 3l-221 127-221-127 0 0c-10-6-22-3-28 7-3 5-3 11-2 16l64 251-154 160 0 0c-8 9-8 22 0 30 4 4 10 6 15 6l206 0 101 215 0 0c5 10 17 15 28 10 4-2 8-6 10-10l101-215z" horiz-adv-x="1000" />

<glyph glyph-name="eye-small" unicode="&#xe843;" d="M154 329c5-8 12-18 19-28 21-31 45-61 73-90 78-80 164-128 254-128 91 0 176 48 254 128 28 29 52 59 74 90 7 10 13 20 18 28-5 9-11 18-18 28-22 31-46 62-74 90-78 80-163 128-254 128-90 0-176-48-254-128-28-28-52-59-73-90-7-10-14-19-19-28z m-51 12c2 3 4 7 8 13 6 10 12 20 20 32 23 33 49 65 79 96 87 89 184 143 290 143 106 0 204-54 290-143 30-31 56-63 79-96 8-12 15-22 20-32 4-6 7-10 8-13 4-7 4-16 0-24-1-2-4-7-8-12-5-10-12-21-20-32-23-33-49-66-79-97-86-89-184-143-290-143-106 0-203 54-290 143-30 31-56 64-79 97-8 11-14 22-20 32-4 5-6 10-8 12-4 8-4 17 0 24z m397 78c-49 0-90-40-90-90 0-49 41-89 90-89 50 0 90 40 90 89 0 50-40 90-90 90z m0 50c77 0 140-63 140-140 0-77-63-139-140-139-77 0-140 62-140 139 0 77 63 140 140 140z" horiz-adv-x="1000" />

<glyph glyph-name="visibility" unicode="&#xe844;" d="M293 332c14-20 30-39 48-57 49-50 103-79 159-79 56 0 110 29 159 79 18 18 34 37 48 57 2 3 4 6 6 9-2 3-4 6-6 9-14 20-30 39-48 57-49 49-103 78-159 78-56 0-110-29-159-78-18-18-34-37-48-57-2-3-4-6-6-9 2-3 4-6 6-9z m-70 24c4 7 10 17 20 30 15 22 33 44 54 65 60 60 128 97 203 97 75 0 143-37 203-97 21-21 39-43 55-65 9-13 16-23 19-30 6-9 6-21 0-31-3-6-10-16-19-30-16-22-34-44-55-64-60-60-128-97-203-97-75 0-143 37-203 97-21 20-39 42-54 64-10 14-16 24-20 30-6 10-6 22 0 31z m352-15c0-42-34-75-75-75-41 0-75 33-75 75 0 42 34 75 75 75 41 0 75-33 75-75z" horiz-adv-x="1000" />

<glyph glyph-name="profile-info" unicode="&#xe845;" d="M583 367l125 0c14 0 25 11 25 25 0 14-11 25-25 25l-125 0c-13 0-25-11-25-25 0-14 12-25 25-25z m0-125l125 0c14 0 25 11 25 25 0 14-11 25-25 25l-125 0c-13 0-25-11-25-25 0-14 12-25 25-25z m-250 91c9 0 17 10 17 22l0 32c0 12-8 21-17 21-8 0-16-9-16-21l0-32c0-12 8-22 16-22z m0-50c-37 0-66 33-66 72l0 32c0 39 29 71 66 71 38 0 67-32 67-71l0-32c0-39-29-72-67-72z m0 0c-52 0-93-33-99-75l199 0c-6 42-48 75-100 75z m125-125l-250 0c-13 0-25 12-25 25l0 16c0 75 68 134 150 134 83 0 150-59 150-134l0-16c0-13-11-25-25-25z m256 484c0 14 11 25 25 25l136 0c14 0 25-11 25-25l0-625c0-14-11-25-25-25l-750 0c-14 0-25 11-25 25l0 625c0 14 11 25 25 25l136 0c14 0 25-11 25-25 0-25 20-45 44-45 23 0 43 20 43 45 0 14 11 25 25 25l204 0c14 0 25-11 25-25 0-25 20-45 44-45 23 0 43 20 43 45z m-43-95c-44 0-80 30-90 70l-162 0c-10-40-46-70-89-70-43 0-79 30-90 70l-90 0 0-575 700 0 0 575-90 0c-10-40-46-70-89-70z" horiz-adv-x="1000" />

<glyph glyph-name="user-small" unicode="&#xe846;" d="M500 322c-103 0-185 88-185 196 0 108 82 197 185 197 103 0 185-89 185-197 0-108-82-196-185-196z m0 63c67 0 123 59 123 133 0 75-56 134-123 134-67 0-123-59-123-134 0-74 56-133 123-133z m210-396l-420 0c-43 0-78 36-78 79l0 4c9 162 135 290 288 290 153 0 279-128 288-291l0-4c0-43-35-78-78-78z m15 81c-7 129-106 229-225 229-119 0-218-101-225-229l0-3c0-8 7-15 15-15l420 0c8 0 15 7 15 15l0 3z" horiz-adv-x="1000" />

<glyph glyph-name="arrow-up-square" unicode="&#xe847;" d="M531 100l0 458c0 18-14 32-31 32-17 0-31-14-31-32l0-458c0-17 14-31 31-31 17 0 31 14 31 31z m-489-240c-18 0-32 14-32 32l0 916c0 18 14 32 32 32l916 0c18 0 32-14 32-32l0-916c0-18-14-32-32-32l-916 0z m885 63l0 854-854 0 0-854 854 0z m-282 447c12-13 32-13 44 0 12 12 12 32 0 44l-167 166c-12 13-32 13-44 0l-167-166c-12-12-12-32 0-44 12-13 32-13 44 0l145 144 145-144z" horiz-adv-x="1000" />

<glyph glyph-name="image" unicode="&#xe848;" d="M955-7l-250 549c-7 13-19 22-34 24-15 1-29-5-38-17l-225-303-133 101c-10 7-23 10-35 7-12-3-22-11-27-22l-167-338c-6-13-6-28 2-41 8-12 21-20 35-20l834 0c14 0 27 8 35 20 7 12 9 27 3 40m-501 650c0-68-54-123-122-123-68 0-122 55-122 123 0 68 54 124 122 124 68 0 122-56 122-124z" horiz-adv-x="1000" />

<glyph glyph-name="spin" unicode="&#xe849;" d="M855 9c-189-190-520-172-705 13-190 190-200 494-28 695 11 13 21 26 35 34 36 23 85 18 117-13 30-31 35-76 16-112-5-9-9-15-16-22-140-151-145-379-8-516 153-153 407-121 542 34 106 122 142 297 77 451-83 198-305 291-510 222l0 1c236 82 492-24 588-252 71-167 37-355-72-493-11-15-23-29-36-42z" horiz-adv-x="1000" />

<glyph glyph-name="profile" unicode="&#xe84a;" d="M500 278c126 0 229 102 229 228l0 75c0 126-103 227-229 227-126 0-229-101-229-227l0-75c0-126 103-228 229-228m191-86l-382 0c-147 0-267-118-267-263 0-21 17-37 38-37l840 0c21 0 38 16 38 37 0 145-120 263-267 263" horiz-adv-x="1000" />

<glyph glyph-name="menu" unicode="&#xe84b;" d="M81 603l846 0c22 0 40 18 40 39 0 22-18 39-40 39l-846 0c-21 0-39-17-39-39 0-21 18-39 39-39z m0-293l846 0c22 0 40 18 40 39 0 22-18 39-40 39l-846 0c-21 0-39-17-39-39 0-21 18-39 39-39z m0-293l846 0c22 0 40 18 40 39 0 22-18 39-40 39l-846 0c-21 0-39-17-39-39 0-21 18-39 39-39z" horiz-adv-x="1000" />

<glyph glyph-name="reply" unicode="&#xe84c;" d="M441 173l0 87c0 13 11 25 25 25 137 0 214-27 281-96-17 191-106 260-281 260-14 0-25 11-25 25l0 86-212-193 212-194z m50 61l0-117c0-22-26-33-42-19l-274 250c-11 10-11 27 0 37l274 250c16 15 42 3 42-18l0-119c206-8 309-118 309-381 0-25-31-35-45-15-69 94-128 129-264 132z" horiz-adv-x="1000" />

<glyph glyph-name="spin-small" unicode="&#xe84d;" d="M498 850c-114 0-228-39-320-116l0 0c173 140 428 130 588-31 134-134 164-332 89-495-10-29-5-50 12-68 21-20 61-23 84 0 3 3 12 15 15 24 71 180 33 393-112 539-99 98-228 147-356 147z m-409-274c-14 0-29-5-39-16-3-3-13-15-15-24-71-180-34-393 112-539 185-185 479-195 676-31l0 0c-173-140-428-130-589 31-134 134-163 333-89 495 11 29 6 50-12 68-11 11-27 17-44 16z" horiz-adv-x="1001" />

<glyph glyph-name="select" unicode="&#xe84e;" d="M500-150c-276 0-500 224-500 500 0 276 224 500 500 500 276 0 500-224 500-500 0-276-224-500-500-500z m0 53c247 0 447 200 447 447 0 247-200 447-447 447-247 0-447-200-447-447 0-247 200-447 447-447z m-139 413l86-87 245 245c10 10 27 10 37 0 10-10 10-27 0-37l-263-263c-10-11-27-11-37 0l-105 105c-11 10-11 27 0 37 10 10 26 10 37 0z" horiz-adv-x="1000" />

<glyph glyph-name="inbox-o" unicode="&#xe84f;" d="M152 378h149c18 0 35-11 43-27l41-81h147l40 81c9 16 25 27 44 27h149l-143 279a33 33 0 0 1-29 18h-269a33 33 0 0 1-30-18l-142-279z m631-50h-166l-40-82c-9-16-25-26-44-26h-149c-19 0-36 10-44 26l-40 82h-167v-270a33 33 0 0 1 34-33h583a33 33 0 0 1 33 33v270z m-533 352a83 83 0 0 0 74 45h269a83 83 0 0 0 74-45l157-309a83 83 0 0 0 9-38v-275a83 83 0 0 0-83-83h-583a83 83 0 0 0-84 83v275a83 83 0 0 0 9 38l158 309z" horiz-adv-x="917" />

<glyph glyph-name="visibility-hidden" unicode="&#xe850;" d="M725 372c-15 22-32 43-51 62-54 55-113 87-174 87-61 0-120-32-173-87-20-19-37-40-52-62-3-3-5-7-7-10 2-3 4-6 7-10 15-21 32-42 51-61 54-54 113-86 174-86 61 0 120 32 174 86 19 19 36 40 51 61 3 4 5 7 7 10-2 3-4 7-7 10z m-225 217c82 0 157-40 222-107 22-22 42-46 59-70 10-15 18-26 21-33 6-11 6-23 0-34-4-7-11-18-21-33-17-23-37-47-59-70-66-65-140-105-222-105-82 0-156 40-222 105-22 23-42 47-59 70-10 15-17 26-21 33-6 11-6 23 0 34 4 7 11 18 21 33 17 24 37 48 59 70 66 67 140 107 222 107z m-77-256c-3 9-5 19-5 29 0 46 37 83 82 83 10 0 20-2 29-5l192 196c13 13 35 14 48 0 14-13 14-34 1-48l-193-197c3-9 5-19 5-29 0-46-37-83-82-83-10 0-20 2-29 5l-192-196c-13-13-35-13-48 0-14 13-14 34-1 48l193 197z" horiz-adv-x="1000" />

<glyph glyph-name="print-fill" unicode="&#xe851;" d="M274 505q-26-1-51-1h-81q-18 0-36-6t-32-18-22-31-9-44v-74h891v40q0 15-1 29t0 17q0 13-5 29t-17 29-31 22-48 8h-130v-94h-428v94z m659-227v-51q0-22 0-51t1-56-11-47-25-29-32-16-31-4q-14-1-29-1t-29 1h-31l-44 125h-429l-42-125h-29-33q-20 0-44 1-24 0-40 9t-25 23-13 28-4 30v163h890z m-774-62q-11 0-20-8t-9-21 9-21 20-8q13 0 22 8t9 21-9 21-22 8z m150-121q-8-25-14-47-5-18-10-36t-8-24-3-15 1-14 10-10 21-4h36 65 79 79 62 35q23 0 33 11t2 38q-5 12-9 29t-9 34q-5 19-11 38h-359z m19 366v223q0 11 3 22t9 21 20 16 34 5h183q30 0 50-14t21-51v-222h-320z" horiz-adv-x="977.5" />

<glyph glyph-name="alert-octagon" unicode="&#xe852;" d="M125 505v-310l220-220h310l220 220v310l-220 220h-310l-220-220z m203 303h345a42 42 0 0 0 29-12l244-244a42 42 0 0 0 12-29v-345a42 42 0 0 0-12-30l-244-244a42 42 0 0 0-29-12h-345a42 42 0 0 0-30 12l-244 244a42 42 0 0 0-12 30v345a42 42 0 0 0 12 29l244 244a42 42 0 0 0 30 12z m172-625m-42 0a42 42 0 1 1 84 0 42 42 0 1 1-84 0z m0 334v-167a42 42 0 0 1 84 0v167a42 42 0 0 1-84 0z" horiz-adv-x="1000" />

<glyph glyph-name="alert-exclamation" unicode="&#xe853;" d="M500-108c-253 0-458 205-458 458s205 458 458 458 458-205 458-458-205-458-458-458z m0 83a375 375 0 1 1 0 750 375 375 0 0 1 0-750z m-42 542v-167a42 42 0 0 1 84 0v167a42 42 0 0 1-84 0z m42-334m-42 0a42 42 0 1 1 84 0 42 42 0 1 1-84 0z" horiz-adv-x="1000" />

<glyph glyph-name="activity" unicode="&#xe854;" d="M415 738c-13 38-67 38-79 0l-116-346h-137a42 42 0 0 1 0-84h167a42 42 0 0 1 40 29l85 256 211-631c12-38 66-38 79 0l115 346h137a42 42 0 0 1 0 84h-167a42 42 0 0 1-39-29l-86-256-210 631z" horiz-adv-x="1000" />

<glyph glyph-name="alert-triangle" unicode="&#xe855;" d="M393 711a125 125 0 0 0 214 0l353-590a125 125 0 0 0-107-188h-706a125 125 0 0 0-107 188l353 590z m-281-632a42 42 0 0 1 35-62h706a42 42 0 0 1 35 62l-352 589a42 42 0 0 1-72 0l-352-589z m388 63m-42 0a42 42 0 1 1 84 0 42 42 0 1 1-84 0z m0 333v-167a42 42 0 0 1 84 0v167a42 42 0 0 1-84 0z" horiz-adv-x="1000" />

<glyph glyph-name="align-center" unicode="&#xe856;" d="M750 475h-500a42 42 0 1 1 0-83h500a42 42 0 0 1 0 83z m125 167h-750a42 42 0 1 1 0-84h750a42 42 0 0 1 0 84z m0-334h-750a42 42 0 0 1 0-83h750a42 42 0 0 1 0 83z m-125-166h-500a42 42 0 0 1 0-84h500a42 42 0 0 1 0 84z" horiz-adv-x="1000" />

<glyph glyph-name="airplay" unicode="&#xe857;" d="M208 183h-41a42 42 0 0 0-42 42v417a42 42 0 0 0 42 41h666a42 42 0 0 0 42-41v-417a42 42 0 0 0-42-42h-41a42 42 0 0 1 0-83h41a125 125 0 0 1 125 125v417a125 125 0 0 1-125 125h-666a125 125 0 0 1-125-125v-417a125 125 0 0 1 125-125h41a42 42 0 0 1 0 83z m292-23l-119-143h238l-119 143z m208-227h-416a42 42 0 0 0-32 69l208 250a42 42 0 0 0 64 0l208-250a42 42 0 0 0-32-69z" horiz-adv-x="1000" />

<glyph glyph-name="align-justify" unicode="&#xe858;" d="M875 475h-750a42 42 0 1 1 0-83h750a42 42 0 0 1 0 83z m0 167h-750a42 42 0 1 1 0-84h750a42 42 0 0 1 0 84z m0-334h-750a42 42 0 0 1 0-83h750a42 42 0 0 1 0 83z m0-166h-750a42 42 0 0 1 0-84h750a42 42 0 0 1 0 84z" horiz-adv-x="1000" />

<glyph glyph-name="align-left" unicode="&#xe859;" d="M708 475h-583a42 42 0 1 1 0-83h583a42 42 0 0 1 0 83z m167 167h-750a42 42 0 1 1 0-84h750a42 42 0 0 1 0 84z m0-334h-750a42 42 0 0 1 0-83h750a42 42 0 0 1 0 83z m-167-166h-583a42 42 0 0 1 0-84h583a42 42 0 0 1 0 84z" horiz-adv-x="1000" />

<glyph glyph-name="align-right" unicode="&#xe85a;" d="M875 475h-583a42 42 0 1 1 0-83h583a42 42 0 0 1 0 83z m0 167h-750a42 42 0 1 1 0-84h750a42 42 0 0 1 0 84z m0-334h-750a42 42 0 0 1 0-83h750a42 42 0 0 1 0 83z m0-166h-583a42 42 0 0 1 0-84h583a42 42 0 0 1 0 84z" horiz-adv-x="1000" />

<glyph glyph-name="arrow-down-left" unicode="&#xe85b;" d="M721 630l-500-500a42 42 0 0 1 59-59l500 500a42 42 0 1 1-59 59z m-429-155a42 42 0 1 1-84 0v-375a42 42 0 0 1 42-42h375a42 42 0 0 1 0 84h-333v333z" horiz-adv-x="1000" />

<glyph glyph-name="arrow-down-right" unicode="&#xe85c;" d="M221 571l500-500a42 42 0 0 1 59 59l-500 500a42 42 0 0 1-59-59z m154-429a42 42 0 0 1 0-84h375a42 42 0 0 1 42 42v375a42 42 0 0 1-84 0v-333h-333z" horiz-adv-x="1000" />

<glyph glyph-name="anchor" unicode="&#xe85d;" d="M542-23a375 375 0 0 1 331 331h-81a42 42 0 0 0 0 84h125a42 42 0 0 0 41-42c0-253-205-458-458-458s-458 205-458 458a42 42 0 0 0 41 42h125a42 42 0 0 0 0-84h-81a375 375 0 0 1 331-331v540a42 42 0 0 0 84 0v-540z m-42 498a167 167 0 1 0 0 333 167 167 0 0 0 0-333z m0 83a83 83 0 1 1 0 167 83 83 0 0 1 0-167z" horiz-adv-x="1000" />

<glyph glyph-name="aperture" unicode="&#xe85e;" d="M446-105a459 459 0 0 0-367 274 457 457 0 0 0-37 181c0 101 32 194 87 269a41 41 0 0 0 5 6 458 458 0 0 0 415 181 459 459 0 0 0 372-275c24-56 37-117 37-181a456 456 0 0 0-87-269 41 41 0 0 0-4-6 458 458 0 0 0-415-181 41 41 0 0 0-6 1z m-14 86l92 161h-336a375 375 0 0 1 244-161z m93-5a374 374 0 0 1 260 130l-92 161-60-104a42 42 0 0 0-1-1l-107-186z m119 374l-72 125h-144l-72-125 72-125h144l72 125z m85 20l107-186c25 50 39 107 39 166 0 44-7 86-21 125h-186l60-103a42 42 0 0 0 1-2z m-583-145h186l-60 103a42 42 0 0 0-1 2l-107 186a374 374 0 0 1-39-166c0-44 8-86 21-125z m69 369l93-161 60 104a42 42 0 0 0 0 1l107 186a374 374 0 0 1-260-130z m354 125l-93-161h336a375 375 0 0 1-243 161z" horiz-adv-x="1000" />

<glyph glyph-name="arrow-left" unicode="&#xe85f;" d="M833 392h-666a42 42 0 0 1 0-84h666a42 42 0 0 1 0 84z m-387 179a42 42 0 1 1-59 59l-250-250a42 42 0 0 1 0-59l250-250a42 42 0 1 1 59 59l-220 220 220 221z" horiz-adv-x="1000" />

<glyph glyph-name="arrow-right" unicode="&#xe860;" d="M167 308h666a42 42 0 0 1 0 84h-666a42 42 0 0 1 0-84z m387-178a42 42 0 0 1 59-59l250 250a42 42 0 0 1 0 59l-250 250a42 42 0 0 1-59-59l220-221-220-220z" horiz-adv-x="1000" />

<glyph glyph-name="arrow-down" unicode="&#xe861;" d="M458 683v-666a42 42 0 0 1 84 0v666a42 42 0 0 1-84 0z m-178-387a42 42 0 1 1-59-59l250-250a42 42 0 0 1 59 0l250 250a42 42 0 0 1-59 59l-221-220-220 220z" horiz-adv-x="1000" />

<glyph glyph-name="arrow-up-left" unicode="&#xe862;" d="M780 130l-500 500a42 42 0 0 1-59-59l500-500a42 42 0 0 1 59 59z m-155 428a42 42 0 0 1 0 84h-375a42 42 0 0 1-42-42v-375a42 42 0 0 1 84 0v333h333z" horiz-adv-x="1000" />

<glyph glyph-name="arrow-up-right" unicode="&#xe863;" d="M280 71l500 500a42 42 0 1 1-59 59l-500-500a42 42 0 0 1 59-59z m428 154a42 42 0 0 1 84 0v375a42 42 0 0 1-42 42h-375a42 42 0 1 1 0-84h333v-333z" horiz-adv-x="1000" />

<glyph glyph-name="arrow-up" unicode="&#xe864;" d="M542 17v666a42 42 0 0 1-84 0v-666a42 42 0 0 1 84 0z m179 387a42 42 0 0 1 59 59l-250 250a42 42 0 0 1-59 0l-250-250a42 42 0 0 1 59-59l220 220 221-220z" horiz-adv-x="1000" />

<glyph glyph-name="award" unicode="&#xe865;" d="M298 252a333 333 0 1 0 405 0l47-355a42 42 0 0 0-63-41l-187 112-187-112a42 42 0 0 0-63 41l48 355z m78-45l-32-235 135 80a42 42 0 0 0 43 0l134-80-32 235a332 332 0 0 0-124-24 332 332 0 0 0-124 24z m124 60a250 250 0 1 1 0 500 250 250 0 0 1 0-500z" horiz-adv-x="1000" />

<glyph glyph-name="bar-chart-up" unicode="&#xe866;" d="M792 683v-666h83v666h-83z m-42 84h167a42 42 0 0 0 41-42v-750a42 42 0 0 0-41-42h-167a42 42 0 0 0-42 42v750a42 42 0 0 0 42 42z m-292-292v-458h84v458h-84z m-41 83h166a42 42 0 0 0 42-41v-542a42 42 0 0 0-42-42h-166a42 42 0 0 0-42 42v542a42 42 0 0 0 42 41z m-292-541h83v250h-83v-250z m-42 333h167a42 42 0 0 0 42-42v-333a42 42 0 0 0-42-42h-167a42 42 0 0 0-41 42v333a42 42 0 0 0 41 42z" horiz-adv-x="1000" />

<glyph glyph-name="at-sign" unicode="&#xe867;" d="M708 350v-42a83 83 0 1 1 167 0v42a375 375 0 1 1-147-298 42 42 0 1 0 51-66 458 458 0 1 0 179 364v-42a167 167 0 0 0-302-96 208 208 0 1 0 52 138z m-208-125a125 125 0 1 1 0 250 125 125 0 0 1 0-250z" horiz-adv-x="1000" />

<glyph glyph-name="bar-chart" unicode="&#xe868;" d="M458 683v-666h84v666h-84z m-41 84h166a42 42 0 0 0 42-42v-750a42 42 0 0 0-42-42h-166a42 42 0 0 0-42 42v750a42 42 0 0 0 42 42z m375-292v-458h83v458h-83z m-42 83h167a42 42 0 0 0 41-41v-542a42 42 0 0 0-41-42h-167a42 42 0 0 0-42 42v542a42 42 0 0 0 42 41z m-625-541h83v250h-83v-250z m-42 333h167a42 42 0 0 0 42-42v-333a42 42 0 0 0-42-42h-167a42 42 0 0 0-41 42v333a42 42 0 0 0 41 42z" horiz-adv-x="1000" />

<glyph glyph-name="battery-charging" unicode="&#xe869;" d="M208 142h-83a42 42 0 0 0-42 41v334a42 42 0 0 0 42 41h133a42 42 0 1 1 0 84h-133a125 125 0 0 1-125-125v-334a125 125 0 0 1 125-125h83a42 42 0 0 1 0 84z m417 416h83a42 42 0 0 0 42-41v-334a42 42 0 0 0-42-41h-133a42 42 0 0 1 0-84h133a125 125 0 0 1 125 125v334a125 125 0 0 1-125 125h-83a42 42 0 0 1 0-84z m375-250v84a42 42 0 0 1-83 0v-84a42 42 0 0 1 83 0z m-660-185a42 42 0 0 1 70-46l166 250a42 42 0 0 1-34 65h-172l123 185a42 42 0 1 1-69 46l-167-250a42 42 0 0 1 35-65h172l-124-185z" horiz-adv-x="1000" />

<glyph glyph-name="bell-off" unicode="&#xe86a;" d="M377 693a250 250 0 0 0 373-218v-167a42 42 0 0 1 83 0v167a333 333 0 0 1-496 290 42 42 0 1 1 40-72z m-127-426v208a250 250 0 0 0 28 115 42 42 0 1 1-74 38 333 333 0 0 1-37-153v-208a83 83 0 0 0-83-84c-56 0-56-83 0-83h625a42 42 0 0 1 0 83h-481c14 25 22 53 22 84z m286-271a42 42 0 0 0-72 0 42 42 0 0 1-72-42 125 125 0 0 1 216 0 42 42 0 0 1-72 42z m-523 782l916-916a42 42 0 0 1 59 59l-916 916a42 42 0 1 1-59-59z" horiz-adv-x="1000" />

<glyph glyph-name="battery" unicode="&#xe86b;" d="M83 516v-332c0-23 19-42 42-42h584c22 0 41 18 41 42v332c0 24-19 42-41 42h-584c-23 0-42-18-42-42z m-83 0a125 125 0 0 0 125 126h584a125 125 0 0 0 124-126v-332a125 125 0 0 0-124-126h-584a125 125 0 0 0-125 126v332z m1000-208v84a42 42 0 0 1-83 0v-84a42 42 0 0 1 83 0z" horiz-adv-x="1000" />

<glyph glyph-name="bluetooth" unicode="&#xe86c;" d="M542-8l128 129-128 128v-257z m128 587l-128 129v-257l128 128z m-429-29a42 42 0 0 0 59 59l459-459a42 42 0 0 0 0-59l-229-229c-27-26-72-7-72 30v916c0 37 45 56 72 30l229-229a42 42 0 0 0 0-59l-459-459a42 42 0 1 0-59 59l301 301v-202l-301 301z" horiz-adv-x="1000" />

<glyph glyph-name="bell" unicode="&#xe86d;" d="M750 267v208a250 250 0 0 1-500 0v-208c0-31-8-59-22-84h544a166 166 0 0 0-22 84z m167-167h-834c-55 0-55 83 0 83a83 83 0 0 1 84 84v208a333 333 0 0 0 666 0v-208a83 83 0 0 1 84-84c55 0 55-83 0-83z m-381-104a42 42 0 0 0-72 0 42 42 0 0 1-72-42 125 125 0 0 1 216 0 42 42 0 0 1-72 42z" horiz-adv-x="1000" />

<glyph glyph-name="book" unicode="&#xe86e;" d="M833 808a42 42 0 0 0 42-41v-834a42 42 0 0 0-42-41h-562a146 146 0 0 0-146 146v625a146 146 0 0 0 146 145h562z m-41-625v542h-521a63 63 0 0 1-63-62v-494a145 145 0 0 0 63 14h521z m0-83h-521a63 63 0 0 1 0-125h521v125z" horiz-adv-x="1000" />

<glyph glyph-name="briefcase" unicode="&#xe86f;" d="M292 600v42a125 125 0 0 0 125 125h166a125 125 0 0 0 125-125v-42h126a125 125 0 0 0 124-125v-416a125 125 0 0 0-124-126h-668a125 125 0 0 0-124 126v416a125 125 0 0 0 124 125h126z m0-83h-126c-22 0-41-19-41-42v-416a42 42 0 0 1 41-42h126v500z m83 0v-500h250v500h-250z m333 0v-500h126c22 0 41 19 41 42v416a42 42 0 0 1-41 42h-126z m-333 83h250v42a42 42 0 0 1-42 41h-166a42 42 0 0 1-42-41v-42z" horiz-adv-x="1000" />

<glyph glyph-name="camera-off" unicode="&#xe870;" d="M667 242l321-321a42 42 0 0 0-59-59l-71 71h-733a125 125 0 0 0-124 125v458a125 125 0 0 0 124 125h25l-137 137a42 42 0 1 0 59 59l362-362 1-1 231-231 1-1z m-28-89a208 208 0 0 0-294 294l-112 111h-108a42 42 0 0 1-41-42v-458a42 42 0 0 1 41-41h650l-136 135z m-59 59l-176 176a125 125 0 0 1 176-176z m94 365a42 42 0 0 1 35-19h166a42 42 0 0 0 42-42v-389a42 42 0 0 1 83 0v389a125 125 0 0 1-125 125h-144l-71 107a42 42 0 0 1-35 18h-250a42 42 0 1 1 0-83h228l71-106z" horiz-adv-x="1000" />

<glyph glyph-name="calendar-small" unicode="&#xe871;" d="M375 725h250v42a42 42 0 0 0 83 0v-42h84a125 125 0 0 0 125-125v-583a125 125 0 0 0-125-125h-584a125 125 0 0 0-125 125v583a125 125 0 0 0 125 125h84v42a42 42 0 1 0 83 0v-42z m458-333h-666v-375c0-24 18-42 41-42h584c23 0 41 18 41 42v375z m-458 250v-42a42 42 0 1 0-83 0v42h-84a42 42 0 0 1-41-42v-125h666v125a42 42 0 0 1-41 42h-84v-42a42 42 0 0 0-83 0v42h-250z" horiz-adv-x="1000" />

<glyph glyph-name="bookmark" unicode="&#xe872;" d="M750 56v586a42 42 0 0 1-42 41h-416a42 42 0 0 1-42-41v-586l226 161a42 42 0 0 0 48 0l226-161z m-517-115a42 42 0 0 0-66 34v667a125 125 0 0 0 125 125h416a125 125 0 0 0 125-125v-667a42 42 0 0 0-65-34l-268 191-267-191z" horiz-adv-x="1000" />

<glyph glyph-name="box" unicode="&#xe873;" d="M556 827l333-167a125 125 0 0 0 69-112v-397a125 125 0 0 0-69-112l-333-166a125 125 0 0 0-112 0l-334 167a125 125 0 0 0-68 112v396a125 125 0 0 0 69 112l333 167a125 125 0 0 0 112 0z m-56-389l323 162-304 152a42 42 0 0 1-37 0l-305-152 323-162z m375 95l-333-167v-407l310 155a42 42 0 0 1 23 37v382z m-417-574v407l-333 167v-382c0-15 9-30 23-37l310-155z" horiz-adv-x="1000" />

<glyph glyph-name="camera" unicode="&#xe874;" d="M326 577a42 42 0 0 0-34-19h-167a42 42 0 0 1-42-41v-459a42 42 0 0 1 42-41h750a42 42 0 0 1 42 41v459a42 42 0 0 1-42 41h-167a42 42 0 0 0-34 19l-71 106h-206l-71-106z m549 65a125 125 0 0 0 125-125v-459a125 125 0 0 0-125-125h-750a125 125 0 0 0-125 125v459a125 125 0 0 0 125 125h144l71 106a42 42 0 0 0 35 19h250a42 42 0 0 0 35-19l71-106h144z m-375-542a208 208 0 1 0 0 417 208 208 0 0 0 0-417z m0 83a125 125 0 1 1 0 250 125 125 0 0 1 0-250z" horiz-adv-x="1000" />

<glyph glyph-name="check-circle" unicode="&#xe875;" d="M875 389v-39a375 375 0 1 0-222 343 42 42 0 1 1 34 76 458 458 0 1 1 271-419v39a42 42 0 0 1-83 0z m-470 32a42 42 0 0 1-59-59l125-125a42 42 0 0 1 59 0l458 459a42 42 0 1 1-59 59l-429-429-95 95z" horiz-adv-x="1000" />

<glyph glyph-name="check" unicode="&#xe876;" d="M196 338a42 42 0 1 1-59-59l209-208a42 42 0 0 1 59 0l458 458a42 42 0 1 1-59 59l-429-429-179 179z" horiz-adv-x="1000" />

<glyph glyph-name="check-square" unicode="&#xe877;" d="M363 421a42 42 0 0 1-59-59l125-125a42 42 0 0 1 59 0l458 459a42 42 0 1 1-59 59l-429-429-95 95z m429-71v-292a42 42 0 0 0-42-41h-583a42 42 0 0 0-42 41v584a42 42 0 0 0 42 41h458a42 42 0 0 1 0 84h-458a125 125 0 0 1-125-125v-584a125 125 0 0 1 125-125h583a125 125 0 0 1 125 125v292a42 42 0 0 1-83 0z" horiz-adv-x="1000" />

<glyph glyph-name="cast" unicode="&#xe878;" d="M75 138a167 167 0 0 0 130-130 42 42 0 0 1 82 17 250 250 0 0 1-195 195 42 42 0 0 1-17-82z m4 169a333 333 0 0 0 294-295 42 42 0 1 1 83 9 417 417 0 0 1-368 368 42 42 0 1 1-9-82z m46 210v83a42 42 0 0 0 42 42h666a42 42 0 0 0 42-42v-500a42 42 0 0 0-42-42h-250a42 42 0 0 1 0-83h250a125 125 0 0 1 125 125v500a125 125 0 0 1-125 125h-666a125 125 0 0 1-125-125v-83a42 42 0 1 1 83 0z m-42-500m-41 0a42 42 0 1 1 83 0 42 42 0 1 1-83 0z" horiz-adv-x="1000" />

<glyph glyph-name="chevron-down" unicode="&#xe879;" d="M280 505a42 42 0 0 1-59-59l250-250a42 42 0 0 1 59 0l250 250a42 42 0 1 1-59 59l-221-221-220 221z" horiz-adv-x="1000" />

<glyph glyph-name="chevron-left" unicode="&#xe87a;" d="M655 571a42 42 0 1 1-59 59l-250-250a42 42 0 0 1 0-59l250-250a42 42 0 0 1 59 59l-221 220 221 221z" horiz-adv-x="1000" />

<glyph glyph-name="chevron-right" unicode="&#xe87b;" d="M346 130a42 42 0 0 1 59-59l250 250a42 42 0 0 1 0 59l-250 250a42 42 0 0 1-59-59l220-221-220-220z" horiz-adv-x="1000" />

<glyph glyph-name="chevron-up" unicode="&#xe87c;" d="M721 196a42 42 0 0 1 59 59l-250 250a42 42 0 0 1-59 0l-250-250a42 42 0 0 1 59-59l220 220 221-220z" horiz-adv-x="1000" />

<glyph glyph-name="chevrons-down" unicode="&#xe87d;" d="M321 338a42 42 0 1 1-59-59l209-208a42 42 0 0 1 59 0l208 208a42 42 0 0 1-59 59l-179-179-179 179z m0 292a42 42 0 0 1-59-59l209-209a42 42 0 0 1 59 0l208 209a42 42 0 1 1-59 59l-179-179-179 179z" horiz-adv-x="1000" />

<glyph glyph-name="chevrons-right" unicode="&#xe87e;" d="M512 171a42 42 0 0 1 59-59l209 209a42 42 0 0 1 0 59l-209 208a42 42 0 0 1-59-59l179-179-179-179z m-291 0a42 42 0 0 1 59-59l208 209a42 42 0 0 1 0 59l-208 208a42 42 0 0 1-59-59l178-179-178-179z" horiz-adv-x="1000" />

<glyph glyph-name="chevrons-up" unicode="&#xe87f;" d="M679 362a42 42 0 0 1 59 59l-208 209a42 42 0 0 1-59 0l-209-209a42 42 0 0 1 59-59l179 179 179-179z m-179-113l179-178a42 42 0 0 1 59 59l-208 208a42 42 0 0 1-59 0l-209-208a42 42 0 0 1 59-59l179 178z" horiz-adv-x="1000" />

<glyph glyph-name="chevrons-left" unicode="&#xe880;" d="M488 529a42 42 0 1 1-59 59l-208-208a42 42 0 0 1 0-59l208-209a42 42 0 0 1 59 59l-179 179 179 179z m292 0a42 42 0 1 1-59 59l-209-208a42 42 0 0 1 0-59l209-209a42 42 0 0 1 59 59l-179 179 179 179z" horiz-adv-x="1000" />

<glyph glyph-name="circle" unicode="&#xe881;" d="M500-108c-253 0-458 205-458 458s205 458 458 458 458-205 458-458-205-458-458-458z m0 83a375 375 0 1 1 0 750 375 375 0 0 1 0-750z" horiz-adv-x="1000" />

<glyph glyph-name="clipboard" unicode="&#xe882;" d="M292 725c0 46 37 83 83 83h250c46 0 83-37 83-83h42a125 125 0 0 0 125-125v-583a125 125 0 0 0-125-125h-500a125 125 0 0 0-125 125v583a125 125 0 0 0 125 125h42z m0-83h-42a42 42 0 0 1-42-42v-583a42 42 0 0 1 42-42h500a42 42 0 0 1 42 42v583a42 42 0 0 1-42 42h-42c0-46-37-84-83-84h-250a83 83 0 0 0-83 84z m83 83c0 0 0 0 0 0v-83c0 0 0 0 0 0h250c0 0 0 0 0 0v83c0 0 0 0 0 0h-250z" horiz-adv-x="1000" />

<glyph glyph-name="chrome" unicode="&#xe883;" d="M452-106a41 41 0 0 0-6 1c-228 27-404 220-404 455 0 101 32 194 87 269a41 41 0 0 0 5 6 458 458 0 0 0 366 183 458 458 0 0 0 421-277c24-56 37-117 37-181 0-253-205-458-458-458-16 0-32 0-48 2z m-21 87l94 162a208 208 0 0 0-210 111l-151 262a374 374 0 0 1-39-166c0-184 132-336 306-369z m94-5a375 375 0 0 1 329 499h-187c26-35 41-78 41-125 0-41-11-79-32-111l-151-263z m80 306l3 6c1 1 1 1 2 2a125 125 0 1 1-221 3l3-5c1-1 1-2 1-3a125 125 0 0 1 212-3z m-390 312l94-162a208 208 0 0 0 191 126h312a375 375 0 0 1-312 167 374 374 0 0 1-285-131z" horiz-adv-x="1000" />

<glyph glyph-name="clock" unicode="&#xe884;" d="M500-108c-253 0-458 205-458 458s205 458 458 458 458-205 458-458-205-458-458-458z m0 83a375 375 0 1 1 0 750 375 375 0 0 1 0-750z m42 625a42 42 0 0 1-84 0v-250a42 42 0 0 1 13-29l125-125a42 42 0 0 1 59 59l-113 112v233z" horiz-adv-x="1000" />

<glyph glyph-name="cloud-lightning" unicode="&#xe885;" d="M375 850a375 375 0 0 1-181-703 42 42 0 0 1 40 73 292 292 0 1 0 424 328 42 42 0 0 1 40-31h52a167 167 0 0 0 34-330 42 42 0 0 1 16-82 250 250 0 0 1-50 495h-21a375 375 0 0 1-354 250z m49-935a42 42 0 0 1 69-46l167 250a42 42 0 0 1-35 64h-172l124 186a42 42 0 1 1-70 46l-166-250a42 42 0 0 1 34-65h172l-123-185z" horiz-adv-x="1000" />

<glyph glyph-name="cloud-drizzle" unicode="&#xe886;" d="M292 58v-83a42 42 0 0 1 83 0v83a42 42 0 0 1-83 0z m0 250v-83a42 42 0 0 1 83 0v83a42 42 0 0 1-83 0z m333-250v-83a42 42 0 0 1 84 0v83a42 42 0 0 1-84 0z m0 250v-83a42 42 0 0 1 84 0v83a42 42 0 0 1-84 0z m-166-333v-83a42 42 0 0 1 83 0v83a42 42 0 0 1-83 0z m0 250v-83a42 42 0 0 1 83 0v83a42 42 0 0 1-83 0z m-63 624a375 375 0 0 1-255-667 42 42 0 0 1 52 65 292 292 0 1 0 464 301 42 42 0 0 1 41-31h52a167 167 0 0 0 67-320 42 42 0 0 1 33-76 250 250 0 0 1-100 479h-21a375 375 0 0 1-333 249z" horiz-adv-x="1000" />

<glyph glyph-name="cloud-rain" unicode="&#xe887;" d="M625 308v-333a42 42 0 0 1 84 0v333a42 42 0 0 1-84 0z m-333 0v-333a42 42 0 0 1 83 0v333a42 42 0 0 1-83 0z m167-83v-333a42 42 0 0 1 83 0v333a42 42 0 0 1-83 0z m-63 624a375 375 0 0 1-255-667 42 42 0 0 1 52 65 292 292 0 1 0 464 301 42 42 0 0 1 41-31h52a167 167 0 0 0 67-320 42 42 0 0 1 33-76 250 250 0 0 1-100 479h-21a375 375 0 0 1-333 249z" horiz-adv-x="1000" />

<glyph glyph-name="cloud-off" unicode="&#xe888;" d="M411 724a42 42 0 0 1-45-37 42 42 0 0 1 38-46 290 290 0 0 0 255-218 41 41 0 0 1 40-32h52a165 165 0 0 0 139-74 167 167 0 0 0 14-157 42 42 0 0 1 22-55 41 41 0 0 1 54 22 251 251 0 0 1-21 236 248 248 0 0 1-208 112h-21a373 373 0 0 1-319 249z m-218-46c-150-83-224-259-180-425 44-166 195-281 366-278h372c29 0 58 5 85 15 21 8 32 32 25 53a41 41 0 0 1-53 25c-18-6-37-10-57-10h-372a290 290 0 0 0-286 217 292 292 0 0 0 140 330c20 11 27 36 16 56a41 41 0 0 1-56 17z m-180 100l916-916a42 42 0 0 1 59 59l-916 916a42 42 0 1 1-59-59z" horiz-adv-x="1000" />

<glyph glyph-name="cloud-download" unicode="&#xe889;" d="M501-8l-138 138a42 42 0 1 1-59-59l167-167a42 42 0 0 1 59 0l167 167a42 42 0 0 1-59 59l-137-138z m-42 316v-375a42 42 0 0 1 83 0v375a42 42 0 0 1-83 0z m-41 415a375 375 0 0 1-324-621 42 42 0 0 1 63 55 292 292 0 1 0 501 266 42 42 0 0 1 40-31h53a167 167 0 0 0 96-303 42 42 0 0 1 47-68 250 250 0 0 1-143 454h-22a375 375 0 0 1-311 248z" horiz-adv-x="1000" />

<glyph glyph-name="connect-user" unicode="&#xe88a;" d="M318 351c-81 39-138 126-138 227 0 137 106 250 237 250 131 0 236-113 236-250 0-101-56-188-138-227 151-44 264-186 274-360l0-3c0-54-44-97-97-97l-551 0c-54 1-97 44-96 97l0 4c9 172 122 315 273 359z m99 44c93 0 170 81 170 183 0 102-77 183-170 183-94 0-170-81-170-183 0-102 76-183 170-183z m305-407l0 1c-10 174-144 309-305 309-162 0-296-136-305-308l-1-2c0-17 14-30 30-30l551 0c17 0 30 13 30 30z" horiz-adv-x="833" />

<glyph glyph-name="maximize" unicode="&#xe88b;" d="M833 683v-208a42 42 0 0 1 84 0v250a42 42 0 0 1-42 42h-250a42 42 0 0 1 0-84h208z m-666-458a42 42 0 0 1-84 0v-250a42 42 0 0 1 42-42h250a42 42 0 0 1 0 84h-208v208z m679 530l-292-292a42 42 0 1 1 59-59l292 292a42 42 0 1 1-59 59z m-691-810l291 292a42 42 0 0 1-59 59l-291-291a42 42 0 0 1 59-60z" horiz-adv-x="1000" />

<glyph glyph-name="octagon" unicode="&#xe88c;" d="M125 505v-310l220-220h310l220 220v310l-220 220h-310l-220-220z m203 303h345a42 42 0 0 0 29-12l244-244a42 42 0 0 0 12-29v-345a42 42 0 0 0-12-30l-244-244a42 42 0 0 0-29-12h-345a42 42 0 0 0-30 12l-244 244a42 42 0 0 0-12 30v345a42 42 0 0 0 12 29l244 244a42 42 0 0 0 30 12z" horiz-adv-x="1000" />

<glyph glyph-name="package" unicode="&#xe88d;" d="M556 827l333-167a125 125 0 0 0 69-112v-397a125 125 0 0 0-69-112l-333-166a125 125 0 0 0-112 0l-334 167a125 125 0 0 0-68 112v396a125 125 0 0 0 69 112l333 167a125 125 0 0 0 112 0z m267-227l-304 152a42 42 0 0 1-37 0l-97-48 323-162 115 58z m52-67l-148-74a42 42 0 0 0 0-1l-185-92v-407l310 155a42 42 0 0 1 23 37v382z m-417-574v407l-333 167v-382c0-15 9-30 23-37l310-155z m-166 699l-115-58 323-162 115 58-323 162z" horiz-adv-x="1000" />

<glyph glyph-name="map" unicode="&#xe88e;" d="M625 574l-250 125v-573l250-125v573z m83 2v-571l209 119v571l-209-119z m-396 227a42 42 0 0 0 41 1l312-157 273 156a42 42 0 0 0 62-36v-667a42 42 0 0 0-21-36l-292-167a42 42 0 0 0-39-1l-313 157-273-156a42 42 0 0 0-62 36v667a42 42 0 0 0 21 36l291 167z m-20-108l-209-119v-571l209 119v571z" horiz-adv-x="1000" />

<glyph glyph-name="grid-view" unicode="&#xe88f;" d="M167 475h208v208h-208v-208z m-42 292h292a42 42 0 0 0 41-42v-292a42 42 0 0 0-41-41h-292a42 42 0 0 0-42 41v292a42 42 0 0 0 42 42z m500-292h208v208h-208v-208z m-42 292h292a42 42 0 0 0 42-42v-292a42 42 0 0 0-42-41h-292a42 42 0 0 0-41 41v292a42 42 0 0 0 41 42z m42-750h208v208h-208v-208z m-42 291h292a42 42 0 0 0 42-41v-292a42 42 0 0 0-42-42h-292a42 42 0 0 0-41 42v292a42 42 0 0 0 41 41z m-416-291h208v208h-208v-208z m-42 291h292a42 42 0 0 0 41-41v-292a42 42 0 0 0-41-42h-292a42 42 0 0 0-42 42v292a42 42 0 0 0 42 41z" horiz-adv-x="1000" />

<glyph glyph-name="download" unicode="&#xe890;" d="M83 142v-125a125 125 0 0 1 125-125h584a125 125 0 0 1 125 125v125a42 42 0 0 1-84 0v-125a42 42 0 0 0-41-42h-584a42 42 0 0 0-41 42v125a42 42 0 0 1-84 0z m417 100l-137 138a42 42 0 1 1-59-59l167-167a42 42 0 0 1 59 0l166 167a42 42 0 0 1-59 59l-137-138z m-42 525v-584a42 42 0 0 1 84 0v584a42 42 0 0 1-84 0z" horiz-adv-x="1000" />

<glyph glyph-name="droplet" unicode="&#xe891;" d="M294 464a284 284 0 0 1-63-313c45-107 151-177 269-177s225 70 270 177a284 284 0 0 1-64 313l-206 204-206-204z m236 291l235-233a365 365 0 0 0 82-402c-58-138-195-228-347-228-151 0-288 90-346 228a365 365 0 0 0 81 402l236 233a42 42 0 0 0 59 0z" horiz-adv-x="1000" />

<glyph glyph-name="heart" unicode="&#xe892;" d="M515 687a271 271 0 0 0 462-191 271 271 0 0 0-79-192l-368-368a42 42 0 0 0-59 0l-369 368a271 271 0 0 0 383 383l15-14 15 14z m280-368l44 44a188 188 0 0 1-133 320 188 188 0 0 1-132-55l-44-44a42 42 0 0 0-59 0l-45 44a188 188 0 0 1-265-265l339-339 295 295z" horiz-adv-x="1000" />

<glyph glyph-name="map-pin" unicode="&#xe893;" d="M533-32a1215 1215 0 0 1 124 114c111 117 176 237 176 351a333 333 0 0 1-666 0c0-114 65-234 176-351a1215 1215 0 0 1 157-139c10 7 21 16 33 25z m185 57a1297 1297 0 0 0-177-156c-9-6-14-10-18-12a42 42 0 0 0-46 0c-3 2-9 6-17 12a1297 1297 0 0 0-178 156c-124 130-199 268-199 408 0 231 187 417 417 417s417-186 417-417c0-140-75-278-199-408z m-218 242a167 167 0 1 0 0 333 167 167 0 0 0 0-333z m0 83a83 83 0 1 1 0 167 83 83 0 0 1 0-167z" horiz-adv-x="1000" />

<glyph glyph-name="pause-circle" unicode="&#xe894;" d="M500-108c-253 0-458 205-458 458s205 458 458 458 458-205 458-458-205-458-458-458z m0 83a375 375 0 1 1 0 750 375 375 0 0 1 0-750z m-42 250v250a42 42 0 0 1-83 0v-250a42 42 0 0 1 83 0z m167 0v250a42 42 0 0 1-83 0v-250a42 42 0 0 1 83 0z" horiz-adv-x="1000" />

<glyph glyph-name="codepen" unicode="&#xe895;" d="M523 802l416-271a42 42 0 0 0 19-35v-292a42 42 0 0 0-19-35l-416-271a42 42 0 0 0-46 0l-416 271a42 42 0 0 0-19 35v292a42 42 0 0 0 19 35l416 271a42 42 0 0 0 46 0z m-65-112l-300-195 134-94 166 117v172z m84 0v-172l166-117 134 94-300 195z m-42-435l136 95-136 95-136-95 136-95z m375 29v132l-94-66 94-66z m-33-79l-134 94-166-116v-173l300 196z m-684 0l300-195v173l-166 116-134-93z m-33 79l94 66-94 66v-132z" horiz-adv-x="1000" />

<glyph glyph-name="pencil" unicode="&#xe896;" d="M167 166v-149h149l500 500-149 149-500-500z m529 589l209-209a42 42 0 0 0 0-59l-542-542a42 42 0 0 0-30-12h-208a42 42 0 0 0-42 42v208a42 42 0 0 0 13 30l541 542a42 42 0 0 0 59 0z" horiz-adv-x="1000" />

<glyph glyph-name="home" unicode="&#xe897;" d="M99 508l375 292a42 42 0 0 0 52 0l375-292a42 42 0 0 0 16-33v-458a125 125 0 0 0-125-125h-584a125 125 0 0 0-125 125v458a42 42 0 0 0 16 33z m568-533h125a42 42 0 0 1 41 42v438l-333 259-333-259v-438a42 42 0 0 1 41-42h125v375a42 42 0 0 0 42 42h250a42 42 0 0 0 42-42v-375z m-250 0h166v333h-166v-333z" horiz-adv-x="1000" />

<glyph glyph-name="connected" unicode="&#xe898;" d="M920 483a33 33 0 0 0 49-44l-148-167a33 33 0 0 0-50 0l-74 84a33 33 0 1 0 50 44l49-55 124 138z m-503-155c-131 0-237 112-237 250s106 250 237 250c131 0 236-113 236-250 0-138-105-250-236-250z m0 67c93 0 169 81 169 183 0 102-76 183-169 183s-170-81-170-183 76-183 170-183z m372-407c0-54-44-97-97-97h-551a97 97 0 0 0-96 97l0 4c11 208 173 373 372 373 198 0 360-164 372-374v-3z m-67 0v2c-10 173-144 308-305 308-162 0-296-136-306-308v-2a30 30 0 0 1 30-30h551c17 0 30 13 30 30z" horiz-adv-x="1000" />

<glyph glyph-name="pause" unicode="&#xe899;" d="M292 642v-584h83v584h-83z m-42 83h167a42 42 0 0 0 41-42v-666a42 42 0 0 0-41-42h-167a42 42 0 0 0-42 42v666a42 42 0 0 0 42 42z m375-83v-584h83v584h-83z m-42 83h167a42 42 0 0 0 42-42v-666a42 42 0 0 0-42-42h-167a42 42 0 0 0-41 42v666a42 42 0 0 0 41 42z" horiz-adv-x="1000" />

<glyph glyph-name="cloud-snow" unicode="&#xe89a;" d="M396 808a375 375 0 0 1-255-668 42 42 0 0 1 52 66 292 292 0 1 0 464 300 42 42 0 0 1 41-31h52a167 167 0 0 0 67-319 42 42 0 0 1 33-77 250 250 0 0 1-100 479h-21a375 375 0 0 1-333 250z m271-583m-42 0a42 42 0 1 1 83 0 42 42 0 1 1-83 0z m-125-83m-42 0a42 42 0 1 1 84 0 42 42 0 1 1-84 0z m-125 83m-41 0a42 42 0 1 1 83 0 42 42 0 1 1-83 0z m41-208m-41 0a42 42 0 1 1 83 0 42 42 0 1 1-83 0z m208-84m-42 0a42 42 0 1 1 84 0 42 42 0 1 1-84 0z m209 84m-42 0a42 42 0 1 1 83 0 42 42 0 1 1-83 0z m42 0m-42 0a42 42 0 1 1 83 0 42 42 0 1 1-83 0z" horiz-adv-x="1000" />

<glyph glyph-name="edit-square" unicode="&#xe89b;" d="M792 239v-222a42 42 0 0 0-42-42h-583a42 42 0 0 0-42 42v583a42 42 0 0 0 42 42h222a42 42 0 1 1 0 83h-222a125 125 0 0 1-125-125v-583a125 125 0 0 1 125-125h583a125 125 0 0 1 125 125v222a42 42 0 0 1-83 0z m-417 94v-108h108l375 375-108 108-375-375z m405 463l166-166a42 42 0 0 0 0-59l-416-417a42 42 0 0 0-30-12h-167a42 42 0 0 0-41 41v167a42 42 0 0 0 12 30l417 416a42 42 0 0 0 59 0z" horiz-adv-x="1000" />

<glyph glyph-name="github" unicode="&#xe89c;" d="M363 57c-90-27-126-13-171 42-3 4-15 20-18 24-27 33-49 51-80 59a42 42 0 0 1-21-81c10-2 20-10 36-30 3-4 15-20 19-24 64-80 134-108 259-70a42 42 0 0 1-24 80z m575 396a268 268 0 0 1-58 166 253 253 0 0 1-12 164 42 42 0 0 1-27 24 63 63 0 0 1-8 2c-39 5-97-10-174-59a599 599 0 0 1-276 0c-77 49-135 64-174 59a63 63 0 0 1-9-2 42 42 0 0 1-26-24 253 253 0 0 1-12-164 268 268 0 0 1-58-167c0-192 86-286 242-322a182 182 0 0 1-13-80l0-158a42 42 0 0 1 84 0v161c-2 31 8 58 27 79a42 42 0 0 1-25 70c-158 19-231 81-231 250a185 185 0 0 0 51 129 42 42 0 0 1 8 43 170 170 0 0 0-5 100c3-1 6-2 9-3 27-7 61-24 101-51a42 42 0 0 1 34-5 516 516 0 0 0 270 0 42 42 0 0 1 34 5c40 27 74 44 101 51 3 1 6 2 9 3a170 170 0 0 0-6-100 42 42 0 0 1 9-43 185 185 0 0 0 51-128c0-170-74-232-231-250a42 42 0 0 1-25-70 99 99 0 0 0 27-77l0-164a42 42 0 0 1 83 0v161a173 173 0 0 1-12 78c155 34 242 129 242 322z" horiz-adv-x="1000" />

<glyph glyph-name="comment-circle" unicode="&#xe89d;" d="M349 94a42 42 0 0 0 32-3 308 308 0 0 1 140-33 313 313 0 0 1 279 173 308 308 0 0 1 33 140l0 18c-8 159-135 286-291 294h-21a308 308 0 0 1-140-33 313 313 0 0 1-173-279 308 308 0 0 1 33-140 42 42 0 0 0 3-32l-53-158 158 53z m526 100a396 396 0 0 0-354-219 391 391 0 0 0-161 34l-222-74a42 42 0 0 0-52 53l73 222a396 396 0 0 0 185 515 391 391 0 0 0 177 42l23 0c201-11 362-172 373-375v-21a391 391 0 0 0-42-177z" horiz-adv-x="1000" />

<glyph glyph-name="rss-square" unicode="&#xe89e;" d="M150 750h700v75h-700v-75z m750-50v-700h75v700h-75z m-50-750h-700v-75h700v75z m-750 50v700h-75v-700h75z m50-50c-28 0-50 22-50 50h-75c0-69 56-125 125-125v75z m750 50c0-28-22-50-50-50v-75c69 0 125 56 125 125h-75z m-50 750c28 0 50-22 50-50h75c0 69-56 125-125 125v-75z m-700 75c-69 0-125-56-125-125h75c0 28 22 50 50 50v75z m356-650c0-21 17-38 38-38s37 17 37 38h-75z m-181 256c-21 0-38-17-38-37 0-21 17-38 38-38v75z m256-256c0 142-115 256-256 256v-75c100 0 181-81 181-181h75z m100 0c0-21 17-38 38-38 20 0 37 17 37 38h-75z m-356 431c-21 0-38-17-38-37s17-38 38-38v75z m431-431c0 238-193 431-431 431v-75c197 0 356-159 356-356h75z m-475 16c0 26 21 47 47 47s47-21 47-47c0-26-21-47-47-47s-47 21-47 47z" horiz-adv-x="1000" />

<glyph glyph-name="list-doc" unicode="&#xe89f;" d="M241 592c-15 0-27-13-27-28s12-27 27-27v55z m432-55c15 0 27 12 27 27s-12 28-27 28v-55z m-432 0h432v55h-432v-55z m0-105c-15 0-27-12-27-27s12-27 27-27v54z m432-54c15 0 27 12 27 27s-12 27-27 27v-54z m-432 0h432v54h-432v-54z m259-196c-15 0-27-12-27-27s12-27 27-27v54z m164-54c15 0 27 12 27 27s-12 27-27 27v-54z m-164 0h164v54h-164v-54z m-231 46c-10 11-28 11-38 0s-11-27 0-38l38 38z m27-64l-20-20c11-10 28-10 39 0l-19 20z m110 71c10 11 10 28 0 39s-28 11-39 0l39-39z m-175-45l45-46 39 39-46 45-38-38z m84-46l91 91-39 39-91-91 39-39z m499 601v-682h54v682h-54z m-64-746h-591v-54h591v54z m-654 64v682h-55v-682h55z m63 746h591v54h-591v-54z m-63-64c0 35 28 64 63 64v54c-65 0-118-53-118-118h55z m63-746c-35 0-63 29-63 64h-55c0-65 53-118 118-118v54z m655 64c0-35-29-64-64-64v-54c65 0 118 53 118 118h-54z m54 682c0 65-53 118-118 118v-54c35 0 64-29 64-64h54z" horiz-adv-x="909" />

<glyph glyph-name="board" unicode="&#xe8a0;" d="M494 768c0 19-15 34-33 34s-33-15-33-34h66z m-66-848c0-18 15-33 33-33s34 15 34 33h-67z m0 848v-848h66v848h-66z m44-335c-18 0-33-15-33-33s15-33 33-33v66z m582-66c19 0 34 15 34 33s-15 33-34 33v-66z m-582 0h582v66h-582v-66z m-305 394h777v67h-777v-67z m855-78v-666h67v666h-67z m-78-744h-777v-67h777v67z m-855 78v666h-67v-666h67z m78-78c-43 0-78 35-78 78h-67c0-80 65-145 145-145v67z m855 78c0-43-35-78-78-78v-67c80 0 145 65 145 145h-67z m-78 744c43 0 78-35 78-78h67c0 80-65 145-145 145v-67z m-777 67c-80 0-145-65-145-145h67c0 43 35 78 78 78v67z" horiz-adv-x="1111" />

<glyph glyph-name="arrow-circle" unicode="&#xe8a1;" d="M500 840c270 0 490-220 490-490 0-270-220-490-490-490-270 0-490 220-490 490 0 270 220 490 490 490z m0-63c-236 0-427-191-427-427 0-236 191-427 427-427 236 0 427 191 427 427 0 236-191 427-427 427z m1-648l-2 0c-1 0-2 1-3 1-2 0-3 0-4 1 0 0 0 0-1 0-1 0-2 1-3 1 0 0-1 0-1 1-1 0-2 1-3 1-1 1-3 2-4 4l3-3c-1 1-2 1-2 2l-1 1-167 155c-13 12-13 31-2 44 12 13 32 13 45 2l0 0 114-107 0 358c0 15 11 29 27 31l4 0c17 0 31-14 31-31l0 0 0-354 114 113c11 11 28 12 40 3l4-3c12-12 12-32 0-44l0 0-167-166c-1-2-2-2-3-3-1-1-1-1-2-1 0-1-1-1-2-2-1 0-1 0-2-1 0 0-1 0-2-1-1 0-1 0-2 0-1-1-1-1-2-1-1 0-2 0-2 0-2-1-3-1-5-1l2 0c0 0-1 0-1 0l-1 0 0 0z" horiz-adv-x="1000" />

<glyph glyph-name="user-doc" unicode="&#xe8a2;" d="M125 612h-30 30z m0-521h30-30z m30 521v138h-60v-138h60z m20 158h650v60h-650v-60z m650 0c39 0 70-31 70-70h60c0 72-58 130-130 130v-60z m70-70v-700h60v700h-60z m0-700c0-39-31-70-70-70v-60c72 0 130 58 130 130h-60z m-70-70h-650v-60h650v60z m-670 20v141h-60v-141h60z m0 141v521h-60v-521h60z m20-161c-11 0-20 9-20 20h-60c0-44 36-80 80-80v60z m-20 820c0 11 9 20 20 20v60c-44 0-80-36-80-80h60z m-105-195c-17 0-30-13-30-30s13-30 30-30v60z m150-60c17 0 30 14 30 30s-13 30-30 30v-60z m-150 0h150v60h-150v-60z m0-290c-17 0-30-13-30-30s13-30 30-30v60z m150-60c17 0 30 13 30 30s-13 30-30 30v-60z m-150 0h150v60h-150v-60z m473 206c78 0 142 62 142 139h-60c0-43-36-79-82-79v-60z m142 139c0 78-64 140-142 140v-60c46 0 82-36 82-80h60z m-142 140c-78 0-143-62-143-140h60c0 44 36 80 83 80v60z m-143-140c0-77 65-139 143-139v60c-47 0-83 36-83 79h-60z m365-295c-7 113-102 201-217 201v-60c84 0 152-65 157-144l60 3z m-217 201c-116 0-211-89-218-201l60-4c5 80 73 145 158 145v60z m-155-266h308v60h-308v-60z m-63 63c0-35 28-63 63-63v60c-2 0-3 1-3 3l-60 0z m375 1c0-3-2-4-4-4v-60c36 0 64 28 64 64h-60z" horiz-adv-x="1000" />

<glyph glyph-name="id-card" unicode="&#xe8a3;" d="M719 498c-21 0-38-17-38-37s17-38 38-38v75z m260-75c21 0 38 17 38 38s-17 37-38 37v-75z m-260 0h260v75h-260v-75z m0-112c-21 0-38-17-38-38 0-21 17-37 38-37v75z m135-75c21 0 38 17 38 37 0 21-17 38-38 38v-75z m-135 0h135v75h-135v-75z m-326 82c79 0 143 65 143 144h-75c0-38-31-69-68-69v-75z m143 144c0 79-64 144-143 144v-75c37 0 68-30 68-69h75z m-143 144c-79 0-143-65-143-144h75c0 39 31 69 68 69v75z m-143-144c0-79 64-144 143-144v75c-37 0-68 31-68 69h-75z m320-288h38v1 1l-38-2z m-351-1l-38 2v-1-1l38 0z m389-1v2h-75v-2h75z m0 4c-7 112-99 202-213 202v-75c73 0 134-58 138-132l75 5z m-213 202c-115 0-207-90-214-203l75-4c4 74 65 132 139 132v75z m-214-205v0l75-1v1l-75 0z m69-70h289v75h-289v-75z m-69 70c0-39 31-70 69-70v75c4 0 6-2 6-6l-75 1z m352-1c0 4 2 6 6 6v-75c38 0 69 31 69 69h-75z m-368 578h920v75h-920v-75z m985-65v-670h75v670h-75z m-65-735h-920v-75h920v75z m-985 65v670h-75v-670h75z m65-65c-36 0-65 29-65 65h-75c0-77 63-140 140-140v75z m985 65c0-36-29-65-65-65v-75c77 0 140 63 140 140h-75z m-65 735c36 0 65-29 65-65h75c0 77-63 140-140 140v-75z m-920 75c-77 0-140-63-140-140h75c0 36 29 65 65 65v75z" horiz-adv-x="1250" />

<glyph glyph-name="power" unicode="&#xe8a4;" d="M364 713c16 6 23 25 17 41-7 16-26 24-42 17l25-58z m349 58c-16 7-34-1-41-17s1-35 17-41l24 58z m-374 0c-171-73-292-242-292-440h64c0 171 104 318 253 382l-25 58z m-292-440c0-264 215-477 479-477v63c-229 0-415 185-415 414h-64z m479-477c265 0 479 213 479 477h-63c0-229-186-414-416-414v-63z m479 477c0 198-120 367-292 440l-24-58c149-63 253-211 253-382h63z m-449 466c0 18-14 32-32 32s-31-14-31-32h63z m-63-488c0-17 14-32 31-32s32 15 32 32h-63z m0 488v-488h63v488h-63z" horiz-adv-x="1053" />

<glyph glyph-name="bell-plus" unicode="&#xe8a5;" d="M725 788c0 20-17 37-37 37s-38-17-38-37h75z m-75-239c0-21 17-38 38-38s37 17 37 38h-75z m0 239v-239h75v239h-75z m-87-82c-21 0-38-17-38-38 0-20 17-37 38-37v75z m250-75c20 0 37 17 37 37 0 21-17 38-37 38v-75z m-250 0h250v75h-250v-75z m37-599c0 21-17 37-37 37s-38-16-38-37h75z m-250 0c0 21-17 37-37 37s-38-16-38-37h75z m175 0c0-46-36-82-87-82v-75c89 0 162 67 162 157h-75z m-87-82c-52 0-88 37-88 82h-75c0-90 73-157 163-157v75z m49 796c20-4 40 9 44 30 3 20-10 40-30 43l-14-73z m-424-714l-31 21c-8-11-9-26-3-38 7-13 20-21 34-21v38z m750 0v-38c13 0 26 8 33 20 6 13 5 28-3 39l-30-21z m-46 375c0 20-17 37-38 37-20 0-37-17-37-37h75z m-266 412c-21 4-42 6-63 6v-75c17 0 33-1 49-4l14 73z m-63 6c-182 0-330-138-330-316h75c0 133 111 241 254 241v75z m-330-316v-199h75v199h-75z m0-199c0-73-19-137-38-184-10-23-20-42-27-54-4-7-7-11-9-15-1-1-1-2-2-3 0 0 0-1 0-1 0 0 0 0 0 0l0 0 0 0 0 0c0 0 0 0 30-21 31-22 31-22 31-22l0 0c0 0 0 0 0 0 0 0 0 0 0 1 0 0 0 0 1 0 0 0 0 1 1 1 0 1 1 3 3 5 2 4 6 10 10 17 8 15 20 36 31 63 22 53 44 127 44 213h-75z m-45-316h750v75h-750v-75z m750 38c30 21 30 21 30 21l0 0 0 0 0 0c0 0 0 0 0 0 0 1 0 1 0 1-1 1-1 2-2 3-2 4-5 8-9 15-7 12-17 31-27 54-19 47-38 111-38 184h-75c0-86 22-160 44-213 11-27 23-48 31-63 4-7 8-13 10-17 2-2 3-3 3-5 1 0 1-1 1-1 1 0 1 0 1 0 0 0 0 0 0 0 0 0 0 0 0 0l0 0c0-1 0-1 31 21z m-84 278c38 0 38 0 38 0l0 0 0 0 0 0 0 0v0l0 0 0 0c0 0 0 0 0 0l0 0 0 0 0 0 0 0 0 0c0 0 0 0 0 0s0 0 0 0l0 0 0 0 0 0c0 1 0 1 0 1v0l0 0 0 0c0 0 0 0 0 0 0 0 0 0 0 0l0 0c0 0 0 0 0 0v0l0 0c0 0 0 0 0 0v0l0 0v0c0 0 0 0 0 0l0 0c0 0 0 0 0 0l0 0v0c0 0 0 0 0 0s0 0 0 0v0c0 0 0 0 0 1v0l0 0c0 0 0 0 0 0s0 0 0 0v0c0 0 0 0 0 0v0c0 0 0 0 0 0s0 0 0 0 0 0 0 0l0 0c0 0 0 0 0 0 0 0 0 0 0 0s0 0 0 0 0 1 0 1l0 0c0 0 0 0 0 0v0c0 0 0 0 0 0 0 0 0 0 0 0v0c0 0 0 0 0 0 0 0 0 0 0 0s0 0 0 0c0 0 0 0 0 0s0 0 0 0c0 1 0 1 0 1s0 0 0 0c0 0 0 0 0 0s0 0 0 0c0 0 0 0 0 0s0 0 0 0c0 0 0 0 0 0s0 0 0 0 0 0 0 0c0 0 0 0 0 0s0 1 0 1c0 0 0 0 0 0 0 0 0 0 0 0s0 0 0 0 0 0 0 0c0 0 0 0 0 0 0 0 0 0 0 0 0 0 0 0 0 0s0 0 0 0c0 0 0 1 0 1 0 0 0 0 0 0 0 0 0 0 0 0 0 0 0 0 0 0 0 0 0 0 0 0s0 0 0 0 0 0 0 0 0 0 0 0 0 0 0 1 0 0 0 0 0 0 0 0 0 0 0 0 0 0 0 0 0 0 0 0 0 0 0 0c0 0 0 0 0 0 0 0 0 1 0 1 0 0 0 0 0 0 0 0 0 0 0 0 0 0 0 0 0 0v0c0 0 0 0 0 0 0 0 0 0 0 0 0 0 0 0 0 1s0 0 0 0 0 0 0 0c0 0 0 0 0 0 0 0 0 0 0 0 0 0 0 0 0 0 0 0 0 0 0 0 0 0 0 0 0 0 0 0 0 1 0 1 0 0 0 0 0 0 0 0 0 0 0 0s0 0 0 0c0 0 0 0 0 0 0 0 0 0 0 0 0 0 0 0 0 0 0 0 0 0 0 0 0 1 0 1 0 1 0 0 0 0 0 0 0 0 0 0 0 0 0 0 0 0 0 0 0 0 0 0 0 0 0 0 0 0 0 0 0 0 0 0 0 1s0 0 0 0 0 0 0 0 0 0 0 0c0 0 0 0 0 0 0 0 0 0 0 0s0 0 0 0c0 0 0 0 0 1 0 0 0 0 0 0s0 0 0 0c0 0 0 0 0 0s0 0 0 0c0 0 0 0 0 0s0 0 0 0c0 0 0 1 0 1s0 0 0 0c0 0 0 0 0 0s0 0 0 0 0 0 0 0c0 0 0 0 0 0s0 1 0 1 0 0 0 0c0 0 0 0 0 0s0 0 0 0 0 0 0 0 0 0 0 0 0 1 0 1 0 0 0 0 0 0 0 0 0 0 0 0 0 0 0 0 0 1 0 1 0 0 0 0 0 0 0 0 0 0 0 0 0 0 0 0 0 0 0 1 0 0 0 0 0 0 0 0 0 0 0 0 0 0 0 0c0 0 0 0 0 0s0 1 0 1 0 0 0 0 0 0 0 0 0 0 0 0 0 0 0 0 0 1 0 1 0 0 0 0 0 0 0 0c0 0 0 0 0 0s0 0 0 0c0 0 0 0 0 1s0 0 0 0c0 0 0 0 0 0s0 0 0 0c0 0 0 0 0 0s0 0 0 0 0 1 0 1c0 0 0 0 0 0s0 0 0 0 0 0 0 0c0 0 0 0 0 0s0 1 0 1 0 0 0 0c0 0 0 0 0 0 0 0 0 0 0 0s0 0 0 0 0 0 0 1 0 0 0 0c0 0 0 0 0 0 0 0 0 0 0 0 0 0 0 0 0 0 0 0 0 0 0 0s0 1 0 1c0 0 0 0 0 0s0 0 0 0c0 0 0 0 0 0s0 0 0 0c0 0 0 1 0 1s0 0 0 0c0 0 0 0 0 0 0 0 0 0 0 0 0 0 0 0 0 0 0 0 0 0 0 1 0 0 0 0 0 0 0 0 0 0 0 0s0 0 0 0c0 0 0 0 0 0 0 0 0 0 0 1 0 0 0 0 0 0 0 0 0 0 0 0s0 0 0 0c0 0 0 0 0 0 0 0 0 1 0 1s0 0 0 0c0 0 0 0 0 0 0 0 0 0 0 0s0 0 0 0c0 0 0 1 0 1 0 0 0 0 0 0s0 0 0 0c0 0 0 0 0 0 0 0 0 0 0 0 0 1 0 1 0 1 0 0 0 0 0 0 0 0 0 0 0 0 0 0 0 0 0 0 0 0 0 0 0 1 0 0 0 0 0 0 0 0 0 0 0 0 0 0 0 0 0 0 0 0 0 0 0 0 0 1 0 1 0 1 0 0 0 0 0 0s0 0 0 0c0 0 0 0 0 0 0 0 0 0 0 1 0 0 0 0 0 0 0 0 0 0 0 0 0 0 0 0 0 0s0 0 0 1c0 0 0 0 0 0 0 0 0 0 0 0 0 0 0 0 0 0 0 0 0 0 0 0 0 1 0 1 0 1 0 0 0 0 0 0s0 0 0 0c0 0 0 0 0 0 0 0 0 1 0 1 0 0 0 0 0 0 0 0 0 0 0 0 0 0 0 0 0 0 0 0 0 0 0 1 0 0 0 0 0 0 0 0 0 0 0 0 0 0 0 0 0 0 0 0 0 0 0 1s0 0 0 0 0 0 0 0 0 0 0 0c0 0 0 0 0 1 0 0 0 0 0 0 0 0 0 0 0 0 0 0 0 0 0 0 0 0 0 0 0 0 0 1 0 1 0 1 0 0 0 0 0 0 0 0 0 0 0 0 0 0 0 0 0 0 0 1 0 1 0 1 0 0 0 0 0 0 0 0 0 0 0 0 0 0 0 0 0 0 0 1 0 1 0 1 0 0 0 0 0 0 0 0 0 0 0 0 0 0 0 0 0 0 0 1 0 1 0 1 0 0 0 0 0 0 0 0 0 0 0 0 0 0 0 0 0 0s0 1 0 1 0 0 0 0 0 0 0 0 0 0 0 0 0 1 0 1 0 0 0 0c0 0 0 0 0 0 0 0 0 0 0 0 0 1 0 1 0 1 0 0 0 0 0 0s0 0 0 0 0 0 0 0 0 1 0 1c0 0 0 0 0 0 0 0 0 0 0 0 0 0 0 0 0 0s0 1 0 1 0 0 0 0 0 0 0 0c0 0 0 0 0 0 0 1 0 1 0 1 0 0 0 0 0 0s0 0 0 0 0 0 0 0c0 1 0 1 0 1 0 0 0 0 0 0 0 0 0 0 0 0s0 0 0 0 0 1 0 1 0 0 0 0c0 0 0 0 0 0 0 0 0 0 0 0s0 1 0 1 0 0 0 0c0 0 0 0 0 0 0 0 0 0 0 0s0 1 0 1 0 0 0 0 0 0 0 0c0 0 0 0 0 0 0 1 0 1 0 1s0 0 0 0 0 0 0 0c0 0 0 0 0 0 0 1 0 1 0 1s0 0 0 0 0 0 0 0 0 0 0 0c0 1 0 1 0 1 0 0 0 0 0 0s0 0 0 0c0 0 0 0 0 0 0 1 0 1 0 1 0 0 0 0 0 0s0 0 0 0 0 0 0 0c0 1 0 1 0 1 0 0 0 0 0 0 0 0 0 0 0 0s0 0 0 0c0 1 0 1 0 1 0 0 0 0 0 0 0 0 0 0 0 0s0 0 0 0 0 1 0 1c0 0 0 0 0 0 0 0 0 0 0 0 0 0 0 0 0 0s0 1 0 1 0 0 0 0c0 0 0 0 0 0 0 0 0 0 0 0 0 1 0 1 0 1s0 0 0 0 0 0 0 0 0 0 0 0c0 1 0 1 0 1 0 0 0 0 0 0 0 0 0 0 0 0s0 0 0 0 0 1 0 1c0 0 0 0 0 0 0 0 0 0 0 0 0 0 0 0 0 0 0 1 0 1 0 1 0 0 0 0 0 0s0 0 0 0 0 0 0 0 0 1 0 1 0 0 0 0c0 0 0 0 0 0 0 0 0 0 0 0 0 1 0 1 0 1 0 0 0 0 0 0 0 0 0 0 0 0 0 0 0 0 0 0 0 1 0 1 0 1 0 0 0 0 0 0 0 0 0 0 0 0 0 0 0 0 0 0s0 1 0 1 0 0 0 0 0 0 0 0 0 0 0 0 0 1 0 1 0 0 0 0 0 0 0 0 0 0 0 0c0 1 0 1 0 1 0 0 0 0 0 0 0 0 0 0 0 0 0 0 0 0 0 0 0 1 0 1 0 1 0 0 0 0 0 0 0 0 0 0 0 0 0 0 0 0 0 0 0 0 0 1 0 1s0 0 0 0 0 0 0 0 0 0 0 0c0 0 0 1 0 1 0 0 0 0 0 0 0 0 0 0 0 0 0 0 0 0 0 0 0 0 0 0 0 1 0 0 0 0 0 0 0 0 0 0 0 0 0 0 0 0 0 0 0 0 0 0 0 1s0 0 0 0c0 0 0 0 0 0 0 0 0 0 0 0 0 0 0 0 0 0 0 1 0 1 0 1 0 0 0 0 0 0 0 0 0 0 0 0s0 0 0 0c0 0 0 1 0 1 0 0 0 0 0 0 0 0 0 0 0 0 0 0 0 0 0 0s0 0 0 1c0 0 0 0 0 0 0 0 0 0 0 0 0 0 0 0 0 0 0 0 0 0 0 0 0 0 0 1 0 1 0 0 0 0 0 0 0 0 0 0 0 0 0 0 0 0 0 0 0 0 0 0 0 0 0 1 0 1 0 1 0 0 0 0 0 0 0 0 0 0 0 0 0 0 0 0 0 0s0 0 0 1c0 0 0 0 0 0 0 0 0 0 0 0 0 0 0 0 0 0 0 0 0 0 0 0 0 0 0 1 0 1 0 0 0 0 0 0 0 0 0 0 0 0 0 0 0 0 0 0s0 0 0 0c0 0 0 1 0 1 0 0 0 0 0 0 0 0 0 0 0 0 0 0 0 0 0 0s0 0 0 0c0 0 0 1 0 1 0 0 0 0 0 0 0 0 0 0 0 0 0 0 0 0 0 0 0 0 0 0 0 0 0 0 0 1 0 1 0 0 0 0 0 0 0 0 0 0 0 0s0 0 0 0c0 0 0 0 0 0s0 0 0 1c0 0 0 0 0 0 0 0 0 0 0 0 0 0 0 0 0 0 0 0 0 0 0 0 0 0 0 0 0 0 0 1 0 1 0 1s0 0 0 0 0 0 0 0 0 0 0 0c0 0 0 0 0 0 0 0 0 1 0 1s0 0 0 0c0 0 0 0 0 0 0 0 0 0 0 0s0 0 0 0 0 0 0 1c0 0 0 0 0 0s0 0 0 0c0 0 0 0 0 0s0 0 0 0 0 0 0 0 0 1 0 1 0 0 0 0c0 0 0 0 0 0s0 0 0 0 0 0 0 0c0 0 0 1 0 1s0 0 0 0c0 0 0 0 0 0s0 0 0 0 0 0 0 0 0 0 0 1 0 0 0 0 0 0 0 0 0 0 0 0 0 0 0 0h-75c0 0 0 0 0 0s0 0 0 0 0 0 0 0 0 0 0 0 0-1 0-1 0 0 0 0 0 0 0 0 0 0 0 0c0 0 0 0 0 0s0-1 0-1c0 0 0 0 0 0s0 0 0 0 0 0 0 0c0 0 0 0 0 0s0 0 0-1 0 0 0 0 0 0 0 0 0 0 0 0c0 0 0 0 0 0s0 0 0 0c0-1 0-1 0-1s0 0 0 0 0 0 0 0c0 0 0 0 0 0 0 0 0 0 0 0s0-1 0-1c0 0 0 0 0 0 0 0 0 0 0 0s0 0 0 0 0 0 0 0 0 0 0-1c0 0 0 0 0 0 0 0 0 0 0 0 0 0 0 0 0 0 0 0 0 0 0 0 0 0 0 0 0 0 0-1 0-1 0-1s0 0 0 0c0 0 0 0 0 0s0 0 0 0c0 0 0 0 0 0 0 0 0-1 0-1 0 0 0 0 0 0 0 0 0 0 0 0 0 0 0 0 0 0 0 0 0 0 0 0 0 0 0-1 0-1 0 0 0 0 0 0s0 0 0 0c0 0 0 0 0 0 0 0 0 0 0 0 0 0 0-1 0-1 0 0 0 0 0 0s0 0 0 0c0 0 0 0 0 0 0 0 0 0 0 0 0 0 0-1 0-1 0 0 0 0 0 0 0 0 0 0 0 0 0 0 0 0 0 0 0 0 0 0 0 0 0 0 0-1 0-1s0 0 0 0c0 0 0 0 0 0 0 0 0 0 0 0 0 0 0 0 0-1 0 0 0 0 0 0 0 0 0 0 0 0 0 0 0 0 0 0 0 0 0 0 0 0 0 0 0-1 0-1 0 0 0 0 0 0 0 0 0 0 0 0 0 0 0 0 0 0 0 0 0 0 0 0 0-1 0-1 0-1s0 0 0 0c0 0 0 0 0 0 0 0 0 0 0 0 0 0 0-1 0-1 0 0 0 0 0 0s0 0 0 0c0 0 0 0 0 0 0 0 0 0 0-1 0 0 0 0 0 0 0 0 0 0 0 0 0 0 0 0 0 0 0 0 0 0 0 0s0-1 0-1c0 0 0 0 0 0 0 0 0 0 0 0 0 0 0 0 0 0 0 0 0-1 0-1 0 0 0 0 0 0 0 0 0 0 0 0 0 0 0 0 0 0 0 0 0-1 0-1 0 0 0 0 0 0s0 0 0 0 0 0 0 0 0 0 0-1c0 0 0 0 0 0 0 0 0 0 0 0 0 0 0 0 0 0 0 0 0 0 0-1 0 0 0 0 0 0 0 0 0 0 0 0 0 0 0 0 0 0 0 0 0 0 0-1 0 0 0 0 0 0s0 0 0 0 0 0 0 0 0 0 0-1 0 0 0 0 0 0 0 0 0 0 0 0 0 0 0-1 0 0 0 0c0 0 0 0 0 0 0 0 0 0 0 0 0 0 0 0 0-1 0 0 0 0 0 0 0 0 0 0 0 0 0 0 0 0 0 0 0 0 0 0 0-1 0 0 0 0 0 0 0 0 0 0 0 0 0 0 0 0 0 0s0 0 0-1 0 0 0 0 0 0 0 0 0 0 0 0c0 0 0 0 0-1 0 0 0 0 0 0 0 0 0 0 0 0 0 0 0 0 0 0 0 0 0 0 0-1s0 0 0 0 0 0 0 0c0 0 0 0 0 0 0 0 0 0 0-1 0 0 0 0 0 0s0 0 0 0 0 0 0 0 0 0 0-1c0 0 0 0 0 0 0 0 0 0 0 0 0 0 0 0 0 0s0 0 0-1 0 0 0 0c0 0 0 0 0 0 0 0 0 0 0 0 0 0 0 0 0-1s0 0 0 0 0 0 0 0c0 0 0 0 0 0 0 0 0 0 0-1 0 0 0 0 0 0s0 0 0 0c0 0 0 0 0 0 0 0 0 0 0-1 0 0 0 0 0 0s0 0 0 0 0 0 0 0c0 0 0 0 0-1 0 0 0 0 0 0 0 0 0 0 0 0s0 0 0 0c0 0 0 0 0-1 0 0 0 0 0 0s0 0 0 0 0 0 0 0 0 0 0-1c0 0 0 0 0 0 0 0 0 0 0 0s0 0 0 0 0 0 0-1c0 0 0 0 0 0 0 0 0 0 0 0s0 0 0 0 0 0 0-1 0 0 0 0c0 0 0 0 0 0 0 0 0 0 0 0s0 0 0-1 0 0 0 0c0 0 0 0 0 0 0 0 0 0 0 0s0 0 0-1 0 0 0 0 0 0 0 0c0 0 0 0 0 0 0 0 0 0 0-1 0 0 0 0 0 0s0 0 0 0 0 0 0 0c0 0 0 0 0-1 0 0 0 0 0 0 0 0 0 0 0 0s0 0 0 0 0 0 0-1 0 0 0 0c0 0 0 0 0 0 0 0 0 0 0 0 0 0 0 0 0-1s0 0 0 0 0 0 0 0 0 0 0 0c0 0 0 0 0-1 0 0 0 0 0 0 0 0 0 0 0 0 0 0 0 0 0 0s0 0 0-1 0 0 0 0 0 0 0 0 0 0 0 0 0 0 0-1 0 0 0 0c0 0 0 0 0 0 0 0 0 0 0 0 0 0 0 0 0-1 0 0 0 0 0 0 0 0 0 0 0 0 0 0 0 0 0 0 0 0 0 0 0-1 0 0 0 0 0 0 0 0 0 0 0 0 0 0 0 0 0 0 0 0 0 0 0-1 0 0 0 0 0 0 0 0 0 0 0 0 0 0 0 0 0 0 0 0 0 0 0-1 0 0 0 0 0 0 0 0 0 0 0 0 0 0 0 0 0 0 0 0 0 0 0 0 0-1 0-1 0-1 0 0 0 0 0 0s0 0 0 0 0 0 0 0 0-1 0-1c0 0 0 0 0 0 0 0 0 0 0 0 0 0 0 0 0 0 0 0 0-1 0-1 0 0 0 0 0 0 0 0 0 0 0 0 0 0 0 0 0 0 0 0 0-1 0-1 0 0 0 0 0 0 0 0 0 0 0 0s0 0 0 0c0 0 0 0 0-1 0 0 0 0 0 0 0 0 0 0 0 0 0 0 0 0 0 0 0 0 0 0 0 0 0-1 0-1 0-1s0 0 0 0c0 0 0 0 0 0 0 0 0 0 0 0 0 0 0-1 0-1 0 0 0 0 0 0 0 0 0 0 0 0s0 0 0 0c0 0 0 0 0-1 0 0 0 0 0 0 0 0 0 0 0 0 0 0 0 0 0 0 0 0 0 0 0 0 0 0 0-1 0-1 0 0 0 0 0 0 0 0 0 0 0 0 0 0 0 0 0 0 0 0 0 0 0-1 0 0 0 0 0 0 0 0 0 0 0 0 0 0 0 0 0 0s0 0 0 0c0 0 0 0 0-1 0 0 0 0 0 0s0 0 0 0c0 0 0 0 0 0 0 0 0 0 0 0s0-1 0-1c0 0 0 0 0 0 0 0 0 0 0 0s0 0 0 0c0 0 0 0 0 0 0 0 0-1 0-1 0 0 0 0 0 0 0 0 0 0 0 0s0 0 0 0c0 0 0 0 0 0 0 0 0-1 0-1 0 0 0 0 0 0 0 0 0 0 0 0 0 0 0 0 0 0 0 0 0 0 0 0s0-1 0-1c0 0 0 0 0 0s0 0 0 0c0 0 0 0 0 0s0 0 0 0c0 0 0 0 0-1s0 0 0 0c0 0 0 0 0 0 0 0 0 0 0 0 0 0 0 0 0 0 0 0 0 0 0 0s0-1 0-1 0 0 0 0 0 0 0 0c0 0 0 0 0 0 0 0 0 0 0 0s0-1 0-1 0 0 0 0c0 0 0 0 0 0s0 0 0 0 0 0 0 0c0 0 0 0 0-1s0 0 0 0 0 0 0 0c0 0 0 0 0 0s0 0 0 0c0 0 0 0 0 0s0-1 0-1c0 0 0 0 0 0s0 0 0 0c0 0 0 0 0 0s0 0 0 0 0-1 0-1 0 0 0 0 0 0 0 0 0 0 0 0 0 0 0 0 0 0 0-1 0 0 0 0c0 0 0 0 0 0s0 0 0 0 0 0 0 0 0 0 0 0 0-1 0-1 0 0 0 0 0 0 0 0 0 0 0 0 0 0 0 0 0-1 0-1 0 0 0 0 0 0 0 0 0 0 0 0 0 0 0 0 0 0 0-1 0 0 0 0 0 0 0 0 0 0 0 0 0 0 0 0c0 0 0 0 0 0s0-1 0-1 0 0 0 0c0 0 0 0 0 0s0 0 0 0 0 0 0 0c0 0 0 0 0 0s0-1 0-1c0 0 0 0 0 0s0 0 0 0c0 0 0 0 0 0s0 0 0 0c0 0 0 0 0 0s0 0 0 0c0-1 0-1 0-1 0 0 0 0 0 0s0 0 0 0c0 0 0 0 0 0 0 0 0 0 0 0s0 0 0 0 0 0 0 0 0-1 0-1c0 0 0 0 0 0 0 0 0 0 0 0 0 0 0 0 0 0 0 0 0 0 0 0 0 0 0 0 0 0 0 0 0 0 0-1 0 0 0 0 0 0 0 0 0 0 0 0 0 0 0 0 0 0 0 0 0 0 0 0 0 0 0 0 0 0s0 0 0 0c0 0 0 0 0 0 0 0 0 0 0-1 0 0 0 0 0 0 0 0 0 0 0 0 0 0 0 0 0 0 0 0 0 0 0 0 0 0 0 0 0 0 0 0 0 0 0 0s0 0 0 0 0-1 0-1c0 0 0 0 0 0 0 0 0 0 0 0v0c0 0 0 0 0 0 0 0 0 0 0 0 0 0 0 0 0 0 0 0 0-1 0-1 0 0 0 0 0 0 0 0 0 0 0 0s0 0 0 0 0 0 0 0 0 0 0 0 0 0 0 0 0 0 0 0 0-1 0-1 0 0 0 0 0 0 0 0 0 0 0 0 0 0 0 0c0 0 0 0 0 0 0 0 0 0 0 0 0 0 0 0 0 0 0 0 0-1 0-1 0 0 0 0 0 0s0 0 0 0c0 0 0 0 0 0 0 0 0 0 0 0 0 0 0 0 0 0s0 0 0 0 0 0 0 0c0 0 0 0 0 0 0 0 0-1 0-1s0 0 0 0c0 0 0 0 0 0s0 0 0 0 0 0 0 0c0 0 0 0 0 0s0 0 0 0c0 0 0 0 0 0s0 0 0 0c0 0 0 0 0 0s0 0 0-1c0 0 0 0 0 0s0 0 0 0c0 0 0 0 0 0s0 0 0 0c0 0 0 0 0 0v0c0 0 0 0 0 0 0 0 0 0 0 0v0c0 0 0 0 0 0l0 0c0 0 0-1 0-1s0 0 0 0 0 0 0 0c0 0 0 0 0 0l0 0c0 0 0 0 0 0s0 0 0 0 0 0 0 0v0c0 0 0 0 0 0v0c0 0 0 0 0 0s0 0 0 0l0 0v0c0-1 0-1 0-1v0c0 0 0 0 0 0s0 0 0 0v0l0 0c0 0 0 0 0 0l0 0c0 0 0 0 0 0v0l0 0v0c0 0 0 0 0 0l0 0v0c0 0 0 0 0 0l0 0c0 0 0 0 0 0 0 0 0 0 0 0l0 0 0 0v0c0 0 0 0 0-1l0 0 0 0 0 0c0 0 0 0 0 0s0 0 0 0l0 0 0 0 0 0 0 0 0 0c0 0 0 0 0 0l0 0 0 0v0l0 0 0 0 0 0 0 0c0 0 0 0 37 0z" horiz-adv-x="875" />

<glyph glyph-name="percent" unicode="&#xe8a6;" d="M762 671l-583-583a42 42 0 0 1 59-59l583 583a42 42 0 1 1-59 59z m-491-238a146 146 0 1 0 0 292 146 146 0 0 0 0-292z m0 84a63 63 0 1 1 0 125 63 63 0 0 1 0-125z m458-542a146 146 0 1 0 0 292 146 146 0 0 0 0-292z m0 83a63 63 0 1 1 0 125 63 63 0 0 1 0-125z" horiz-adv-x="1000" />

<glyph glyph-name="minimize-square" unicode="&#xe8a7;" d="M292 725v-125a42 42 0 0 0-42-42h-125a42 42 0 1 1 0-83h125a125 125 0 0 1 125 125v125a42 42 0 1 1-83 0z m583-167h-125a42 42 0 0 0-42 42v125a42 42 0 0 1-83 0v-125a125 125 0 0 1 125-125h125a42 42 0 0 1 0 83z m-167-583v125a42 42 0 0 0 42 42h125a42 42 0 0 1 0 83h-125a125 125 0 0 1-125-125v-125a42 42 0 0 1 83 0z m-583 167h125a42 42 0 0 0 42-42v-125a42 42 0 0 1 83 0v125a125 125 0 0 1-125 125h-125a42 42 0 0 1 0-83z" horiz-adv-x="1000" />

<glyph glyph-name="image-square" unicode="&#xe8a8;" d="M208-67h0a125 125 0 0 0-125 125v584a125 125 0 0 0 125 125h584a125 125 0 0 0 125-125v-584a125 125 0 0 0-125-125h-584z m625 393v316a42 42 0 0 1-41 41h-584a42 42 0 0 1-41-41v-584c0-18 11-33 27-39l443 444a42 42 0 0 0 59 0l137-137z m0-118l-166 166-358-357h483c23 0 41 18 41 41v150z m-479 184a104 104 0 1 0 0 208 104 104 0 0 0 0-208z m0 83a21 21 0 1 1 0 42 21 21 0 0 1 0-42z" horiz-adv-x="1000" />

<glyph glyph-name="edit" unicode="&#xe8a9;" d="M167 291v-108h107l417 417-108 108-416-417z m446 505l167-166a42 42 0 0 0 0-59l-459-459a42 42 0 0 0-29-12h-167a42 42 0 0 0-42 42v166a42 42 0 0 0 13 30l458 458a42 42 0 0 0 59 0z m-488-904h750a42 42 0 0 1 0 83h-750a42 42 0 0 1 0-83z" horiz-adv-x="1000" />

<glyph glyph-name="compass" unicode="&#xe8aa;" d="M500-108c-253 0-458 205-458 458s205 458 458 458 458-205 458-458-205-458-458-458z m0 83a375 375 0 1 1 0 750 375 375 0 0 1 0-750z m-55 430l-56-166 166 56 56 166-166-56z m271 109l-88-265a42 42 0 0 0-26-27l-265-88a42 42 0 0 0-53 53l88 265a42 42 0 0 0 27 26l265 88a42 42 0 0 0 52-52z" horiz-adv-x="1000" />

<glyph glyph-name="angle-left" unicode="&#xe8ab;" d="M436 367l149 149c9 9 9 25 0 35-10 10-26 10-36 0l-166-167c-10-9-10-25 0-35l166-167c10-9 26-9 36 0 9 10 9 26 0 36l-149 149z" horiz-adv-x="1000" />

<glyph glyph-name="copy" unicode="&#xe8ac;" d="M417 392v-375a42 42 0 0 1 42-42h374a42 42 0 0 1 42 42v375a42 42 0 0 1-42 41h-374a42 42 0 0 1-42-41z m-84 0a125 125 0 0 0 126 125h374a125 125 0 0 0 125-125v-375a125 125 0 0 0-125-125h-374a125 125 0 0 0-126 125v375z m-125-125h-41a42 42 0 0 0-42 41v375a42 42 0 0 0 42 42h375a42 42 0 0 0 41-42v-41a42 42 0 0 1 84 0v41a125 125 0 0 1-125 125h-375a125 125 0 0 1-125-125v-375a125 125 0 0 1 125-125h41a42 42 0 0 1 0 84z" horiz-adv-x="1000" />

<glyph glyph-name="external-link" unicode="&#xe8ad;" d="M708 308v-250a42 42 0 0 0-41-41h-459a42 42 0 0 0-41 41v459a42 42 0 0 0 41 41h250a42 42 0 0 1 0 84h-250a125 125 0 0 1-125-125v-459a125 125 0 0 1 125-125h459a125 125 0 0 1 125 125v250a42 42 0 0 1-84 0z m125 375v-208a42 42 0 0 1 84 0v250a42 42 0 0 1-42 42h-250a42 42 0 0 1 0-84h208z m-387-446l459 459a42 42 0 1 1-59 59l-459-459a42 42 0 0 1 59-59z" horiz-adv-x="1000" />

<glyph glyph-name="inbox" unicode="&#xe8ae;" d="M304 725h392a125 125 0 0 0 114-74l145-326a42 42 0 0 0 3-17v-208a125 125 0 0 0-125-125h-666a125 125 0 0 0-125 125v208a42 42 0 0 0 3 17l145 326a125 125 0 0 0 114 74z m549-375l-119 267a42 42 0 0 1-38 25h-392a42 42 0 0 1-38-25l-118-267h185a42 42 0 0 0 35-18l71-107h122l71 107a42 42 0 0 0 35 18h186z m22-250v167h-186l-71-107a42 42 0 0 0-35-18h-166a42 42 0 0 0-35 18l-71 107h-186v-167a42 42 0 0 1 42-42h666a42 42 0 0 1 42 42z" horiz-adv-x="1000" />

<glyph glyph-name="minimize" unicode="&#xe8af;" d="M375 17a42 42 0 0 1 83 0v250a42 42 0 0 1-41 41h-250a42 42 0 0 1 0-83h208v-208z m250 666a42 42 0 0 1-83 0v-250a42 42 0 0 1 41-41h250a42 42 0 0 1 0 83h-208v208z m-12-279l292 292a42 42 0 1 1-59 59l-292-292a42 42 0 1 1 59-59z m-458-459l291 292a42 42 0 0 1-59 59l-291-291a42 42 0 0 1 59-60z" horiz-adv-x="1000" />

<glyph glyph-name="comment-square" unicode="&#xe8b0;" d="M262 171a42 42 0 0 0 30 12h500a42 42 0 0 1 41 42v417a42 42 0 0 1-41 41h-584a42 42 0 0 1-41-41v-566l95 95z m-107-226c-27-26-72-7-72 30v667a125 125 0 0 0 125 125h584a125 125 0 0 0 125-125v-417a125 125 0 0 0-125-125h-483l-154-155z" horiz-adv-x="1000" />

<glyph glyph-name="phone-call" unicode="&#xe8b1;" d="M958-22a125 125 0 0 0-137-124 866 866 0 0 0-377 134 854 854 0 0 0-263 262 867 867 0 0 0-134 380 125 125 0 0 0 124 137h125a125 125 0 0 0 125-108c5-37 14-73 27-108a125 125 0 0 0-28-132l-30-30a625 625 0 0 1 191-191l30 30a125 125 0 0 0 132 28c34-13 71-22 108-27a125 125 0 0 0 107-126v-125z m-83 125c1 23-15 41-35 44a577 577 0 0 0-127 31 42 42 0 0 1-43-9l-53-53a42 42 0 0 0-50-7 708 708 0 0 0-266 266 42 42 0 0 0 7 50l52 53a42 42 0 0 1 10 44 576 576 0 0 0-32 126 42 42 0 0 1-42 35h-125a42 42 0 0 1-41-44 783 783 0 0 1 121-344 771 771 0 0 1 238-237 782 782 0 0 1 341-122 42 42 0 0 1 45 42v125z m-256 456a42 42 0 0 0 16 82 250 250 0 0 0 198-198 42 42 0 1 0-82-15 167 167 0 0 1-132 131z m4 166a42 42 0 1 0 9 83 417 417 0 0 0 368-367 42 42 0 0 0-83-10 333 333 0 0 1-294 294z" horiz-adv-x="1000" />

<glyph glyph-name="phone-forwarded" unicode="&#xe8b2;" d="M762 463a42 42 0 1 1 59-59l167 167a42 42 0 0 1 0 59l-167 166a42 42 0 0 1-59-59l137-137-137-137z m-137 95h333a42 42 0 0 1 0 84h-333a42 42 0 0 1 0-84z m250-457a42 42 0 0 1-36 44 581 581 0 0 0-127 31 42 42 0 0 1-44-9l-53-53c-14-13-34-16-51-7a711 711 0 0 0-266 267 42 42 0 0 0 6 50l53 53c12 11 16 29 10 44-16 41-26 83-32 126-3 21-21 36-42 36h-126a42 42 0 0 1-41-45 785 785 0 0 1 122-344 775 775 0 0 1 239-238 787 787 0 0 1 342-122 42 42 0 0 1 46 42v125z m83-125a125 125 0 0 0-40-93 126 126 0 0 0-97-32 871 871 0 0 0-380 134 857 857 0 0 0-264 264 869 869 0 0 0-135 381 125 125 0 0 0 33 96 126 126 0 0 0 92 41h126a126 126 0 0 0 125-109c5-37 14-73 27-108 17-46 6-97-28-132l-30-30a628 628 0 0 1 192-192l30 30a126 126 0 0 0 132 28c35-13 72-22 109-27a126 126 0 0 0 108-126v-125z" horiz-adv-x="1000" />

<glyph glyph-name="phone-missed" unicode="&#xe8b3;" d="M929 796l-250-250a42 42 0 1 1 59-59l250 250a42 42 0 1 1-59 59z m-250-59l250-250a42 42 0 0 1 59 59l-250 250a42 42 0 0 1-59-59z m196-636a42 42 0 0 1-36 44 581 581 0 0 0-127 31 42 42 0 0 1-44-9l-53-53c-14-13-34-16-51-7a711 711 0 0 0-266 267 42 42 0 0 0 6 50l53 53c12 11 16 29 10 44-16 41-26 83-32 126-3 21-21 36-42 36h-126a42 42 0 0 1-41-45 785 785 0 0 1 122-344 775 775 0 0 1 239-238 787 787 0 0 1 342-122 42 42 0 0 1 46 42v125z m83-125a125 125 0 0 0-40-93 126 126 0 0 0-97-32 871 871 0 0 0-380 134 857 857 0 0 0-264 264 869 869 0 0 0-135 381 125 125 0 0 0 33 96 126 126 0 0 0 92 41h126a126 126 0 0 0 125-109c5-37 14-73 27-108 17-46 6-97-28-132l-30-30a628 628 0 0 1 192-192l30 30a126 126 0 0 0 132 28c35-13 72-22 109-27a126 126 0 0 0 108-126v-125z" horiz-adv-x="1000" />

<glyph glyph-name="power-small" unicode="&#xe8b4;" d="M736 544a333 333 0 1 0-472 0 42 42 0 1 1-59 59c-162-163-162-427 0-589 163-163 427-163 590 0 162 162 162 426 0 589a42 42 0 1 1-59-59z m-278 223v-417a42 42 0 0 1 84 0v417a42 42 0 0 1-84 0z" horiz-adv-x="1000" />

<glyph glyph-name="radio" unicode="&#xe8b5;" d="M500 225a125 125 0 1 0 0 250 125 125 0 0 0 0-250z m0 83a42 42 0 1 1 0 84 42 42 0 0 1 0-84z m147 189a208 208 0 0 0 0-295 42 42 0 1 1 59-58 292 292 0 0 1 0 412 42 42 0 1 1-59-59z m-294-294a208 208 0 0 0 0 295 42 42 0 0 1-59 59 292 292 0 0 1 0-413 42 42 0 1 1 59 59z m412 412a375 375 0 0 0 0-530 42 42 0 1 1 59-59c179 179 179 469 0 648a42 42 0 1 1-59-59z m-530-530a375 375 0 0 0 0 530 42 42 0 0 1-59 59c-179-179-179-469 0-648a42 42 0 1 1 59 59z" horiz-adv-x="1000" />

<glyph glyph-name="repeat" unicode="&#xe8b6;" d="M679 505a42 42 0 1 1 59-59l166 166a42 42 0 0 1 0 59l-166 167a42 42 0 0 1-59-59l137-137-137-137z m-512-113v83a125 125 0 0 0 125 125h583a42 42 0 0 1 0 83h-583a208 208 0 0 1-208-208v-83a42 42 0 0 1 83 0z m154-196a42 42 0 0 1-59 59l-166-167a42 42 0 0 1 0-59l166-166a42 42 0 1 1 59 59l-137 137 137 137z m512 113v-84a125 125 0 0 0-125-125h-583a42 42 0 0 1 0-83h583a208 208 0 0 1 209 208v84a42 42 0 0 1-84 0z" horiz-adv-x="1000" />

<glyph glyph-name="refresh-ccw" unicode="&#xe8b7;" d="M83 683a42 42 0 1 1-83 0v-250a42 42 0 0 1 42-41h250a42 42 0 0 1 0 83h-209v208z m834-666a42 42 0 0 1 83 0v250a42 42 0 0 1-42 41h-250a42 42 0 0 1 0-83h209v-208z m-24 472a417 417 0 0 1-687 156l-193-181a42 42 0 0 1 57-61l194 182a334 334 0 0 0 310 90 333 333 0 0 0 241-214 42 42 0 0 1 78 28z m37-192l-193-182a334 334 0 0 0-311-90 333 333 0 0 0-240 214 42 42 0 0 1-79-28 417 417 0 0 1 688-155l192 180a42 42 0 0 1-57 61z" horiz-adv-x="1000" />

<glyph glyph-name="rewind" unicode="&#xe8b8;" d="M417 557l-266-207 266-206v413z m16-531l-375 291a42 42 0 0 0 0 66l375 292a42 42 0 0 0 67-33v-584a42 42 0 0 0-67-33z m442 118v413l-265-207 265-206z m16-118l-375 291a42 42 0 0 0 0 66l375 292a42 42 0 0 0 67-33v-584a42 42 0 0 0-67-33z" horiz-adv-x="1000" />

<glyph glyph-name="rotate-ccw" unicode="&#xe8b9;" d="M125 683a42 42 0 1 1-83 0v-250a42 42 0 0 1 41-41h250a42 42 0 0 1 0 83h-208v208z m24-471a417 417 0 1 1 98 433l-192-181a42 42 0 1 1 57-61l193 182a334 334 0 0 0 398 57 333 333 0 1 0-476-403 42 42 0 1 1-78-27z" horiz-adv-x="1000" />

<glyph glyph-name="refresh-cw" unicode="&#xe8ba;" d="M708 475a42 42 0 0 1 0-83h250a42 42 0 0 1 42 41v250a42 42 0 0 1-83 0v-208h-209z m-625-250h209a42 42 0 0 1 0 83h-250a42 42 0 0 1-42-41v-250a42 42 0 0 1 83 0v208z m103 236a333 333 0 0 0 550 125l194-183a42 42 0 0 1 57 61l-193 181a416 416 0 0 1-386 111 417 417 0 0 1-301-267 42 42 0 0 1 79-28z m-173-225l194-181a416 416 0 0 1 385-111 417 417 0 0 1 301 267 42 42 0 0 1-78 28 333 333 0 0 0-550-124l-195 182a42 42 0 0 1-57-61z" horiz-adv-x="1000" />

<glyph glyph-name="rotate-cw" unicode="&#xe8bb;" d="M667 475a42 42 0 0 1 0-83h250a42 42 0 0 1 41 41v250a42 42 0 0 1-83 0v-208h-208z m106-236a333 333 0 1 0-79 347l194-183a42 42 0 0 1 57 61l-193 181c-130 131-332 159-495 70a417 417 0 1 1 594-504 42 42 0 1 1-78 28z" horiz-adv-x="1000" />

<glyph glyph-name="mic-off" unicode="&#xe8bc;" d="M13 778l916-916a42 42 0 0 1 59 59l-916 916a42 42 0 1 1-59-59z m321-303v-125a167 167 0 0 1 284-118 42 42 0 0 1-59 59 83 83 0 0 0-142 59v125a42 42 0 1 1-83 0z m333-14v222a167 167 0 0 1-330 33 42 42 0 0 1 82-16 83 83 0 0 0 165-17v-222a42 42 0 0 1 83 0z m12-288a250 250 0 0 0-429 177v83a42 42 0 1 1-83 0v-83a333 333 0 0 1 571-236 42 42 0 0 1-59 59z m71 260v-83c0-15-1-30-4-44a42 42 0 1 1 82-15 333 333 0 0 1 5 59v83a42 42 0 0 1-83 0z m-291-375v-166a42 42 0 0 1 83 0v166a42 42 0 0 1-83 0z m-125-208h333a42 42 0 0 1 0 83h-333a42 42 0 0 1 0-83z" horiz-adv-x="1000" />

<glyph glyph-name="layers" unicode="&#xe8bd;" d="M481 804a42 42 0 0 0 38 0l416-208a42 42 0 0 0 0-75l-416-208a42 42 0 0 0-38 0l-416 208a42 42 0 0 0 0 75l416 208z m-304-246l323-161 324 161-324 162-323-162z m-75-379a42 42 0 0 1-37-75l416-208a42 42 0 0 1 38 0l416 208a42 42 0 0 1-37 75l-398-199-398 199z m0 208a42 42 0 0 1-37-74l416-209a42 42 0 0 1 38 0l416 209a42 42 0 0 1-37 74l-398-199-398 199z" horiz-adv-x="1000" />

</font>
</defs>
</svg>
