<svg xmlns="http://www.w3.org/2000/svg" width="18" height="13">
  <g fill="none" fill-rule="evenodd" stroke="#122B46" stroke-linecap="round" stroke-linejoin="round" stroke-width="1.6">
    <path d="M11 9.525H6.624M2.492 9.643H1V5.714L3.909 1h7.273l2.182 3.929H17v4.714h-1.722"/>
    <path d="M2.6 10.036c0-1.085.814-1.965 1.818-1.965 1.005 0 1.818.88 1.818 1.965S5.423 12 4.418 12C3.414 12 2.6 11.12 2.6 10.036zM11.24 10.036c0-1.085.814-1.965 1.818-1.965 1.005 0 1.818.88 1.818 1.965S14.063 12 13.058 12c-1.004 0-1.818-.88-1.818-1.964zM8.273 3.357v1.572h2.182"/>
  </g>
</svg>